%TF.GenerationSoftware,KiCad,Pcbnew,(5.1.12-1-10_14)*%
%TF.CreationDate,2021-12-12T17:33:21+01:00*%
%TF.ProjectId,kross,6b726f73-732e-46b6-9963-61645f706362,rev?*%
%TF.SameCoordinates,Original*%
%TF.FileFunction,Legend,Bot*%
%TF.FilePolarity,Positive*%
%FSLAX46Y46*%
G04 Gerber Fmt 4.6, Leading zero omitted, Abs format (unit mm)*
G04 Created by KiCad (PCBNEW (5.1.12-1-10_14)) date 2021-12-12 17:33:21*
%MOMM*%
%LPD*%
G01*
G04 APERTURE LIST*
%ADD10C,0.250000*%
%ADD11C,0.010000*%
%ADD12C,0.120000*%
%ADD13C,0.150000*%
%ADD14O,1.600000X2.400000*%
%ADD15R,1.600000X2.400000*%
%ADD16O,2.400000X1.600000*%
%ADD17R,2.400000X1.600000*%
%ADD18R,1.600000X1.600000*%
%ADD19O,1.600000X1.600000*%
%ADD20O,1.740000X2.200000*%
%ADD21C,3.200000*%
%ADD22C,3.240000*%
%ADD23C,1.800000*%
%ADD24R,1.800000X1.800000*%
%ADD25C,1.600000*%
%ADD26R,1.727200X1.727200*%
%ADD27O,1.727200X1.727200*%
G04 APERTURE END LIST*
D10*
X82846205Y-111702380D02*
X82721205Y-110702380D01*
X82274776Y-111702380D02*
X82631919Y-111130952D01*
X82149776Y-110702380D02*
X82792633Y-111273809D01*
X81274776Y-111702380D02*
X81548586Y-111226190D01*
X81846205Y-111702380D02*
X81721205Y-110702380D01*
X81340252Y-110702380D01*
X81250967Y-110750000D01*
X81209300Y-110797619D01*
X81173586Y-110892857D01*
X81191443Y-111035714D01*
X81250967Y-111130952D01*
X81304538Y-111178571D01*
X81405729Y-111226190D01*
X81786681Y-111226190D01*
X80530729Y-110702380D02*
X80340252Y-110702380D01*
X80250967Y-110750000D01*
X80167633Y-110845238D01*
X80143824Y-111035714D01*
X80185491Y-111369047D01*
X80256919Y-111559523D01*
X80364062Y-111654761D01*
X80465252Y-111702380D01*
X80655729Y-111702380D01*
X80745014Y-111654761D01*
X80828348Y-111559523D01*
X80852157Y-111369047D01*
X80810491Y-111035714D01*
X80739062Y-110845238D01*
X80631919Y-110750000D01*
X80530729Y-110702380D01*
X79840252Y-111654761D02*
X79703348Y-111702380D01*
X79465252Y-111702380D01*
X79364062Y-111654761D01*
X79310491Y-111607142D01*
X79250967Y-111511904D01*
X79239062Y-111416666D01*
X79274776Y-111321428D01*
X79316443Y-111273809D01*
X79405729Y-111226190D01*
X79590252Y-111178571D01*
X79679538Y-111130952D01*
X79721205Y-111083333D01*
X79756919Y-110988095D01*
X79745014Y-110892857D01*
X79685491Y-110797619D01*
X79631919Y-110750000D01*
X79530729Y-110702380D01*
X79292633Y-110702380D01*
X79155729Y-110750000D01*
X78887872Y-111654761D02*
X78750967Y-111702380D01*
X78512872Y-111702380D01*
X78411681Y-111654761D01*
X78358110Y-111607142D01*
X78298586Y-111511904D01*
X78286681Y-111416666D01*
X78322395Y-111321428D01*
X78364062Y-111273809D01*
X78453348Y-111226190D01*
X78637872Y-111178571D01*
X78727157Y-111130952D01*
X78768824Y-111083333D01*
X78804538Y-110988095D01*
X78792633Y-110892857D01*
X78733110Y-110797619D01*
X78679538Y-110750000D01*
X78578348Y-110702380D01*
X78340252Y-110702380D01*
X78203348Y-110750000D01*
X85191443Y-112785714D02*
X84810491Y-112785714D01*
X85131919Y-113452380D02*
X85024776Y-112595238D01*
X84965252Y-112500000D01*
X84864062Y-112452380D01*
X84768824Y-112452380D01*
X84417633Y-113452380D02*
X84506919Y-113404761D01*
X84548586Y-113357142D01*
X84584300Y-113261904D01*
X84548586Y-112976190D01*
X84489062Y-112880952D01*
X84435491Y-112833333D01*
X84334300Y-112785714D01*
X84191443Y-112785714D01*
X84102157Y-112833333D01*
X84060491Y-112880952D01*
X84024776Y-112976190D01*
X84060491Y-113261904D01*
X84120014Y-113357142D01*
X84173586Y-113404761D01*
X84274776Y-113452380D01*
X84417633Y-113452380D01*
X83655729Y-113452380D02*
X83572395Y-112785714D01*
X83596205Y-112976190D02*
X83536681Y-112880952D01*
X83483110Y-112833333D01*
X83381919Y-112785714D01*
X83286681Y-112785714D01*
X83036681Y-113452380D02*
X82953348Y-112785714D01*
X82965252Y-112880952D02*
X82911681Y-112833333D01*
X82810491Y-112785714D01*
X82667633Y-112785714D01*
X82578348Y-112833333D01*
X82542633Y-112928571D01*
X82608110Y-113452380D01*
X82542633Y-112928571D02*
X82483110Y-112833333D01*
X82381919Y-112785714D01*
X82239062Y-112785714D01*
X82149776Y-112833333D01*
X82114062Y-112928571D01*
X82179538Y-113452380D01*
X81316443Y-113404761D02*
X81417633Y-113452380D01*
X81608110Y-113452380D01*
X81697395Y-113404761D01*
X81733110Y-113309523D01*
X81685491Y-112928571D01*
X81625967Y-112833333D01*
X81524776Y-112785714D01*
X81334300Y-112785714D01*
X81245014Y-112833333D01*
X81209300Y-112928571D01*
X81221205Y-113023809D01*
X81709300Y-113119047D01*
X80846205Y-113452380D02*
X80762872Y-112785714D01*
X80786681Y-112976190D02*
X80727157Y-112880952D01*
X80673586Y-112833333D01*
X80572395Y-112785714D01*
X80477157Y-112785714D01*
X80084300Y-113452380D02*
X80173586Y-113404761D01*
X80209300Y-113309523D01*
X80102157Y-112452380D01*
X79715252Y-112785714D02*
X79560491Y-113452380D01*
X79239062Y-112785714D02*
X79560491Y-113452380D01*
X79685491Y-113690476D01*
X79739062Y-113738095D01*
X79840252Y-113785714D01*
X78149776Y-112452380D02*
X77608110Y-113452380D01*
X77483110Y-112452380D02*
X78274776Y-113452380D01*
X77227157Y-113452380D02*
X77102157Y-112452380D01*
X76750967Y-113452380D02*
X76625967Y-112452380D01*
X76381919Y-113166666D01*
X75959300Y-112452380D01*
X76084300Y-113452380D01*
X90572395Y-114726190D02*
X90614062Y-114678571D01*
X90703348Y-114630952D01*
X90798586Y-114630952D01*
X90899776Y-114678571D01*
X90953348Y-114726190D01*
X91012872Y-114821428D01*
X91024776Y-114916666D01*
X90989062Y-115011904D01*
X90947395Y-115059523D01*
X90858110Y-115107142D01*
X90762872Y-115107142D01*
X90661681Y-115059523D01*
X90608110Y-115011904D01*
X90560491Y-114630952D02*
X90608110Y-115011904D01*
X90566443Y-115059523D01*
X90518824Y-115059523D01*
X90417633Y-115011904D01*
X90358110Y-114916666D01*
X90328348Y-114678571D01*
X90405729Y-114535714D01*
X90536681Y-114440476D01*
X90721205Y-114392857D01*
X90917633Y-114440476D01*
X91072395Y-114535714D01*
X91185491Y-114678571D01*
X91256919Y-114869047D01*
X91233110Y-115059523D01*
X91155729Y-115202380D01*
X91024776Y-115297619D01*
X90840252Y-115345238D01*
X90643824Y-115297619D01*
X90489062Y-115202380D01*
X89881919Y-114535714D02*
X89965252Y-115202380D01*
X89893824Y-114630952D02*
X89840252Y-114583333D01*
X89739062Y-114535714D01*
X89596205Y-114535714D01*
X89506919Y-114583333D01*
X89471205Y-114678571D01*
X89536681Y-115202380D01*
X88917633Y-115202380D02*
X89006919Y-115154761D01*
X89048586Y-115107142D01*
X89084300Y-115011904D01*
X89048586Y-114726190D01*
X88989062Y-114630952D01*
X88935491Y-114583333D01*
X88834300Y-114535714D01*
X88691443Y-114535714D01*
X88602157Y-114583333D01*
X88560491Y-114630952D01*
X88524776Y-114726190D01*
X88560491Y-115011904D01*
X88620014Y-115107142D01*
X88673586Y-115154761D01*
X88774776Y-115202380D01*
X88917633Y-115202380D01*
X88155729Y-115202380D02*
X88072395Y-114535714D01*
X88030729Y-114202380D02*
X88084300Y-114250000D01*
X88042633Y-114297619D01*
X87989062Y-114250000D01*
X88030729Y-114202380D01*
X88042633Y-114297619D01*
X87721205Y-115154761D02*
X87631919Y-115202380D01*
X87441443Y-115202380D01*
X87340252Y-115154761D01*
X87280729Y-115059523D01*
X87274776Y-115011904D01*
X87310491Y-114916666D01*
X87399776Y-114869047D01*
X87542633Y-114869047D01*
X87631919Y-114821428D01*
X87667633Y-114726190D01*
X87661681Y-114678571D01*
X87602157Y-114583333D01*
X87500967Y-114535714D01*
X87358110Y-114535714D01*
X87268824Y-114583333D01*
X86483110Y-115154761D02*
X86584300Y-115202380D01*
X86774776Y-115202380D01*
X86864062Y-115154761D01*
X86899776Y-115059523D01*
X86852157Y-114678571D01*
X86792633Y-114583333D01*
X86691443Y-114535714D01*
X86500967Y-114535714D01*
X86411681Y-114583333D01*
X86375967Y-114678571D01*
X86387872Y-114773809D01*
X86875967Y-114869047D01*
X86012872Y-115202380D02*
X85929538Y-114535714D01*
X85953348Y-114726190D02*
X85893824Y-114630952D01*
X85840252Y-114583333D01*
X85739062Y-114535714D01*
X85643824Y-114535714D01*
X85006919Y-115154761D02*
X85108110Y-115202380D01*
X85298586Y-115202380D01*
X85387872Y-115154761D01*
X85423586Y-115059523D01*
X85375967Y-114678571D01*
X85316443Y-114583333D01*
X85215252Y-114535714D01*
X85024776Y-114535714D01*
X84935491Y-114583333D01*
X84899776Y-114678571D01*
X84911681Y-114773809D01*
X85399776Y-114869047D01*
X84108110Y-115202380D02*
X84042633Y-114678571D01*
X84078348Y-114583333D01*
X84167633Y-114535714D01*
X84358110Y-114535714D01*
X84459300Y-114583333D01*
X84102157Y-115154761D02*
X84203348Y-115202380D01*
X84441443Y-115202380D01*
X84530729Y-115154761D01*
X84566443Y-115059523D01*
X84554538Y-114964285D01*
X84495014Y-114869047D01*
X84393824Y-114821428D01*
X84155729Y-114821428D01*
X84054538Y-114773809D01*
X83548586Y-114535714D02*
X83673586Y-115535714D01*
X83554538Y-114583333D02*
X83453348Y-114535714D01*
X83262872Y-114535714D01*
X83173586Y-114583333D01*
X83131919Y-114630952D01*
X83096205Y-114726190D01*
X83131919Y-115011904D01*
X83191443Y-115107142D01*
X83245014Y-115154761D01*
X83346205Y-115202380D01*
X83536681Y-115202380D01*
X83625967Y-115154761D01*
X81120014Y-114154761D02*
X82137872Y-115440476D01*
X80072395Y-114154761D02*
X81090252Y-115440476D01*
X78429538Y-114726190D02*
X78471205Y-114678571D01*
X78560491Y-114630952D01*
X78655729Y-114630952D01*
X78756919Y-114678571D01*
X78810491Y-114726190D01*
X78870014Y-114821428D01*
X78881919Y-114916666D01*
X78846205Y-115011904D01*
X78804538Y-115059523D01*
X78715252Y-115107142D01*
X78620014Y-115107142D01*
X78518824Y-115059523D01*
X78465252Y-115011904D01*
X78417633Y-114630952D02*
X78465252Y-115011904D01*
X78423586Y-115059523D01*
X78375967Y-115059523D01*
X78274776Y-115011904D01*
X78215252Y-114916666D01*
X78185491Y-114678571D01*
X78262872Y-114535714D01*
X78393824Y-114440476D01*
X78578348Y-114392857D01*
X78774776Y-114440476D01*
X78929538Y-114535714D01*
X79042633Y-114678571D01*
X79114062Y-114869047D01*
X79090252Y-115059523D01*
X79012872Y-115202380D01*
X78881919Y-115297619D01*
X78697395Y-115345238D01*
X78500967Y-115297619D01*
X78346205Y-115202380D01*
X77423586Y-114678571D02*
X77286681Y-114726190D01*
X77245014Y-114773809D01*
X77209300Y-114869047D01*
X77227157Y-115011904D01*
X77286681Y-115107142D01*
X77340252Y-115154761D01*
X77441443Y-115202380D01*
X77822395Y-115202380D01*
X77697395Y-114202380D01*
X77364062Y-114202380D01*
X77274776Y-114250000D01*
X77233110Y-114297619D01*
X77197395Y-114392857D01*
X77209300Y-114488095D01*
X77268824Y-114583333D01*
X77322395Y-114630952D01*
X77423586Y-114678571D01*
X77756919Y-114678571D01*
X76679538Y-115202380D02*
X76768824Y-115154761D01*
X76804538Y-115059523D01*
X76697395Y-114202380D01*
X75870014Y-115202380D02*
X75804538Y-114678571D01*
X75840252Y-114583333D01*
X75929538Y-114535714D01*
X76120014Y-114535714D01*
X76221205Y-114583333D01*
X75864062Y-115154761D02*
X75965252Y-115202380D01*
X76203348Y-115202380D01*
X76292633Y-115154761D01*
X76328348Y-115059523D01*
X76316443Y-114964285D01*
X76256919Y-114869047D01*
X76155729Y-114821428D01*
X75917633Y-114821428D01*
X75816443Y-114773809D01*
X74959300Y-115154761D02*
X75060491Y-115202380D01*
X75250967Y-115202380D01*
X75340252Y-115154761D01*
X75381919Y-115107142D01*
X75417633Y-115011904D01*
X75381919Y-114726190D01*
X75322395Y-114630952D01*
X75268824Y-114583333D01*
X75167633Y-114535714D01*
X74977157Y-114535714D01*
X74887872Y-114583333D01*
X74536681Y-115202380D02*
X74411681Y-114202380D01*
X74393824Y-114821428D02*
X74155729Y-115202380D01*
X74072395Y-114535714D02*
X74500967Y-114916666D01*
X73727157Y-115202380D02*
X73602157Y-114202380D01*
X73364062Y-114202380D01*
X73227157Y-114250000D01*
X73143824Y-114345238D01*
X73108110Y-114440476D01*
X73084300Y-114630952D01*
X73102157Y-114773809D01*
X73173586Y-114964285D01*
X73233110Y-115059523D01*
X73340252Y-115154761D01*
X73489062Y-115202380D01*
X73727157Y-115202380D01*
X72340252Y-115154761D02*
X72441443Y-115202380D01*
X72631919Y-115202380D01*
X72721205Y-115154761D01*
X72756919Y-115059523D01*
X72709300Y-114678571D01*
X72649776Y-114583333D01*
X72548586Y-114535714D01*
X72358110Y-114535714D01*
X72268824Y-114583333D01*
X72233110Y-114678571D01*
X72245014Y-114773809D01*
X72733110Y-114869047D01*
X71441443Y-115202380D02*
X71375967Y-114678571D01*
X71411681Y-114583333D01*
X71500967Y-114535714D01*
X71691443Y-114535714D01*
X71792633Y-114583333D01*
X71435491Y-115154761D02*
X71536681Y-115202380D01*
X71774776Y-115202380D01*
X71864062Y-115154761D01*
X71899776Y-115059523D01*
X71887872Y-114964285D01*
X71828348Y-114869047D01*
X71727157Y-114821428D01*
X71489062Y-114821428D01*
X71387872Y-114773809D01*
X71024776Y-114535714D02*
X70643824Y-114535714D01*
X70840252Y-114202380D02*
X70947395Y-115059523D01*
X70911681Y-115154761D01*
X70822395Y-115202380D01*
X70727157Y-115202380D01*
X70393824Y-115202380D02*
X70268824Y-114202380D01*
X69965252Y-115202380D02*
X69899776Y-114678571D01*
X69935491Y-114583333D01*
X70024776Y-114535714D01*
X70167633Y-114535714D01*
X70268824Y-114583333D01*
X70322395Y-114630952D01*
D11*
%TO.C,G\u002A\u002A\u002A*%
G36*
X81032867Y-50341958D02*
G01*
X84230070Y-50341958D01*
X84230070Y-48743357D01*
X81032867Y-48743357D01*
X81032867Y-42171329D01*
X79256643Y-42171329D01*
X79256643Y-48743357D01*
X76039014Y-48743357D01*
X76093633Y-49498252D01*
X76148251Y-50253147D01*
X77695631Y-50304369D01*
X79243011Y-50355590D01*
X79294233Y-51902970D01*
X79345454Y-53450350D01*
X80189161Y-53504488D01*
X81032867Y-53558625D01*
X81032867Y-50341958D01*
G37*
X81032867Y-50341958D02*
X84230070Y-50341958D01*
X84230070Y-48743357D01*
X81032867Y-48743357D01*
X81032867Y-42171329D01*
X79256643Y-42171329D01*
X79256643Y-48743357D01*
X76039014Y-48743357D01*
X76093633Y-49498252D01*
X76148251Y-50253147D01*
X77695631Y-50304369D01*
X79243011Y-50355590D01*
X79294233Y-51902970D01*
X79345454Y-53450350D01*
X80189161Y-53504488D01*
X81032867Y-53558625D01*
X81032867Y-50341958D01*
D12*
%TO.C,MIX1*%
X74630000Y-54530000D02*
X84370000Y-54530000D01*
X74630000Y-66120000D02*
X76120000Y-66120000D01*
X74630000Y-57590000D02*
X74630000Y-54530000D01*
X84380000Y-66120000D02*
X84380000Y-61400000D01*
X84370000Y-57590000D02*
X84370000Y-54530000D01*
X74630000Y-66120000D02*
X74630000Y-61400000D01*
X83190000Y-66120000D02*
X84370000Y-66120000D01*
X80290000Y-66120000D02*
X80820000Y-66120000D01*
X77840000Y-66120000D02*
X78670000Y-66120000D01*
%TO.C,CVATTN1*%
X78240000Y-91620000D02*
X79070000Y-91620000D01*
X80690000Y-91620000D02*
X81220000Y-91620000D01*
X83590000Y-91620000D02*
X84770000Y-91620000D01*
X75030000Y-91620000D02*
X75030000Y-86900000D01*
X84770000Y-83090000D02*
X84770000Y-80030000D01*
X84780000Y-91620000D02*
X84780000Y-86900000D01*
X75030000Y-83090000D02*
X75030000Y-80030000D01*
X75030000Y-91620000D02*
X76520000Y-91620000D01*
X75030000Y-80030000D02*
X84770000Y-80030000D01*
%TO.C,C6*%
X87720000Y-77279000D02*
X87720000Y-76021000D01*
X85880000Y-77279000D02*
X85880000Y-76021000D01*
%TO.C,C5*%
X74879000Y-102180000D02*
X73621000Y-102180000D01*
X74879000Y-104020000D02*
X73621000Y-104020000D01*
%TO.C,C4*%
X84221000Y-102180000D02*
X85479000Y-102180000D01*
X84221000Y-104020000D02*
X85479000Y-104020000D01*
%TO.C,C3*%
X85820000Y-71321000D02*
X85820000Y-72579000D01*
X83980000Y-71321000D02*
X83980000Y-72579000D01*
%TO.C,R12*%
X88030000Y-95420000D02*
X88360000Y-95420000D01*
X88030000Y-101960000D02*
X88030000Y-95420000D01*
X88360000Y-101960000D02*
X88030000Y-101960000D01*
X90770000Y-95420000D02*
X90440000Y-95420000D01*
X90770000Y-101960000D02*
X90770000Y-95420000D01*
X90440000Y-101960000D02*
X90770000Y-101960000D01*
%TO.C,MIX1*%
D13*
X87339285Y-65857142D02*
X86589285Y-65857142D01*
X87125000Y-66107142D01*
X86589285Y-66357142D01*
X87339285Y-66357142D01*
X87339285Y-66714285D02*
X86589285Y-66714285D01*
X86589285Y-67000000D02*
X87339285Y-67500000D01*
X86589285Y-67500000D02*
X87339285Y-67000000D01*
X87339285Y-68178571D02*
X87339285Y-67750000D01*
X87339285Y-67964285D02*
X86589285Y-67964285D01*
X86696428Y-67892857D01*
X86767857Y-67821428D01*
X86803571Y-67750000D01*
X86946428Y-54107142D02*
X86982142Y-54214285D01*
X87017857Y-54250000D01*
X87089285Y-54285714D01*
X87196428Y-54285714D01*
X87267857Y-54250000D01*
X87303571Y-54214285D01*
X87339285Y-54142857D01*
X87339285Y-53857142D01*
X86589285Y-53857142D01*
X86589285Y-54107142D01*
X86625000Y-54178571D01*
X86660714Y-54214285D01*
X86732142Y-54250000D01*
X86803571Y-54250000D01*
X86875000Y-54214285D01*
X86910714Y-54178571D01*
X86946428Y-54107142D01*
X86946428Y-53857142D01*
X87339285Y-55000000D02*
X87339285Y-54571428D01*
X87339285Y-54785714D02*
X86589285Y-54785714D01*
X86696428Y-54714285D01*
X86767857Y-54642857D01*
X86803571Y-54571428D01*
X86589285Y-55464285D02*
X86589285Y-55535714D01*
X86625000Y-55607142D01*
X86660714Y-55642857D01*
X86732142Y-55678571D01*
X86875000Y-55714285D01*
X87053571Y-55714285D01*
X87196428Y-55678571D01*
X87267857Y-55642857D01*
X87303571Y-55607142D01*
X87339285Y-55535714D01*
X87339285Y-55464285D01*
X87303571Y-55392857D01*
X87267857Y-55357142D01*
X87196428Y-55321428D01*
X87053571Y-55285714D01*
X86875000Y-55285714D01*
X86732142Y-55321428D01*
X86660714Y-55357142D01*
X86625000Y-55392857D01*
X86589285Y-55464285D01*
X86589285Y-56178571D02*
X86589285Y-56250000D01*
X86625000Y-56321428D01*
X86660714Y-56357142D01*
X86732142Y-56392857D01*
X86875000Y-56428571D01*
X87053571Y-56428571D01*
X87196428Y-56392857D01*
X87267857Y-56357142D01*
X87303571Y-56321428D01*
X87339285Y-56250000D01*
X87339285Y-56178571D01*
X87303571Y-56107142D01*
X87267857Y-56071428D01*
X87196428Y-56035714D01*
X87053571Y-56000000D01*
X86875000Y-56000000D01*
X86732142Y-56035714D01*
X86660714Y-56071428D01*
X86625000Y-56107142D01*
X86589285Y-56178571D01*
X87339285Y-56750000D02*
X86589285Y-56750000D01*
X87339285Y-57178571D02*
X86910714Y-56857142D01*
X86589285Y-57178571D02*
X87017857Y-56750000D01*
%TO.C,CVATTN1*%
X87667857Y-90767857D02*
X87703571Y-90732142D01*
X87739285Y-90625000D01*
X87739285Y-90553571D01*
X87703571Y-90446428D01*
X87632142Y-90375000D01*
X87560714Y-90339285D01*
X87417857Y-90303571D01*
X87310714Y-90303571D01*
X87167857Y-90339285D01*
X87096428Y-90375000D01*
X87025000Y-90446428D01*
X86989285Y-90553571D01*
X86989285Y-90625000D01*
X87025000Y-90732142D01*
X87060714Y-90767857D01*
X86989285Y-90982142D02*
X87739285Y-91232142D01*
X86989285Y-91482142D01*
X87525000Y-91696428D02*
X87525000Y-92053571D01*
X87739285Y-91625000D02*
X86989285Y-91875000D01*
X87739285Y-92125000D01*
X86989285Y-92267857D02*
X86989285Y-92696428D01*
X87739285Y-92482142D02*
X86989285Y-92482142D01*
X86989285Y-92839285D02*
X86989285Y-93267857D01*
X87739285Y-93053571D02*
X86989285Y-93053571D01*
X87739285Y-93517857D02*
X86989285Y-93517857D01*
X87739285Y-93946428D01*
X86989285Y-93946428D01*
X87739285Y-94696428D02*
X87739285Y-94267857D01*
X87739285Y-94482142D02*
X86989285Y-94482142D01*
X87096428Y-94410714D01*
X87167857Y-94339285D01*
X87203571Y-94267857D01*
X87346428Y-79607142D02*
X87382142Y-79714285D01*
X87417857Y-79750000D01*
X87489285Y-79785714D01*
X87596428Y-79785714D01*
X87667857Y-79750000D01*
X87703571Y-79714285D01*
X87739285Y-79642857D01*
X87739285Y-79357142D01*
X86989285Y-79357142D01*
X86989285Y-79607142D01*
X87025000Y-79678571D01*
X87060714Y-79714285D01*
X87132142Y-79750000D01*
X87203571Y-79750000D01*
X87275000Y-79714285D01*
X87310714Y-79678571D01*
X87346428Y-79607142D01*
X87346428Y-79357142D01*
X87739285Y-80500000D02*
X87739285Y-80071428D01*
X87739285Y-80285714D02*
X86989285Y-80285714D01*
X87096428Y-80214285D01*
X87167857Y-80142857D01*
X87203571Y-80071428D01*
X86989285Y-80964285D02*
X86989285Y-81035714D01*
X87025000Y-81107142D01*
X87060714Y-81142857D01*
X87132142Y-81178571D01*
X87275000Y-81214285D01*
X87453571Y-81214285D01*
X87596428Y-81178571D01*
X87667857Y-81142857D01*
X87703571Y-81107142D01*
X87739285Y-81035714D01*
X87739285Y-80964285D01*
X87703571Y-80892857D01*
X87667857Y-80857142D01*
X87596428Y-80821428D01*
X87453571Y-80785714D01*
X87275000Y-80785714D01*
X87132142Y-80821428D01*
X87060714Y-80857142D01*
X87025000Y-80892857D01*
X86989285Y-80964285D01*
X86989285Y-81678571D02*
X86989285Y-81750000D01*
X87025000Y-81821428D01*
X87060714Y-81857142D01*
X87132142Y-81892857D01*
X87275000Y-81928571D01*
X87453571Y-81928571D01*
X87596428Y-81892857D01*
X87667857Y-81857142D01*
X87703571Y-81821428D01*
X87739285Y-81750000D01*
X87739285Y-81678571D01*
X87703571Y-81607142D01*
X87667857Y-81571428D01*
X87596428Y-81535714D01*
X87453571Y-81500000D01*
X87275000Y-81500000D01*
X87132142Y-81535714D01*
X87060714Y-81571428D01*
X87025000Y-81607142D01*
X86989285Y-81678571D01*
X87739285Y-82250000D02*
X86989285Y-82250000D01*
X87739285Y-82678571D02*
X87310714Y-82357142D01*
X86989285Y-82678571D02*
X87417857Y-82250000D01*
%TO.C,C6*%
X88532142Y-78525000D02*
X88496428Y-78560714D01*
X88460714Y-78667857D01*
X88460714Y-78739285D01*
X88496428Y-78846428D01*
X88567857Y-78917857D01*
X88639285Y-78953571D01*
X88782142Y-78989285D01*
X88889285Y-78989285D01*
X89032142Y-78953571D01*
X89103571Y-78917857D01*
X89175000Y-78846428D01*
X89210714Y-78739285D01*
X89210714Y-78667857D01*
X89175000Y-78560714D01*
X89139285Y-78525000D01*
X89210714Y-77882142D02*
X89210714Y-78025000D01*
X89175000Y-78096428D01*
X89139285Y-78132142D01*
X89032142Y-78203571D01*
X88889285Y-78239285D01*
X88603571Y-78239285D01*
X88532142Y-78203571D01*
X88496428Y-78167857D01*
X88460714Y-78096428D01*
X88460714Y-77953571D01*
X88496428Y-77882142D01*
X88532142Y-77846428D01*
X88603571Y-77810714D01*
X88782142Y-77810714D01*
X88853571Y-77846428D01*
X88889285Y-77882142D01*
X88925000Y-77953571D01*
X88925000Y-78096428D01*
X88889285Y-78167857D01*
X88853571Y-78203571D01*
X88782142Y-78239285D01*
X88532142Y-77667857D02*
X88496428Y-77632142D01*
X88460714Y-77667857D01*
X88496428Y-77703571D01*
X88532142Y-77667857D01*
X88460714Y-77667857D01*
X88460714Y-76917857D02*
X88460714Y-77346428D01*
X88460714Y-77132142D02*
X89210714Y-77132142D01*
X89103571Y-77203571D01*
X89032142Y-77275000D01*
X88996428Y-77346428D01*
X88960714Y-76275000D02*
X88460714Y-76275000D01*
X88960714Y-76596428D02*
X88567857Y-76596428D01*
X88496428Y-76560714D01*
X88460714Y-76489285D01*
X88460714Y-76382142D01*
X88496428Y-76310714D01*
X88532142Y-76275000D01*
X88960714Y-76025000D02*
X88960714Y-75739285D01*
X88460714Y-75917857D02*
X89103571Y-75917857D01*
X89175000Y-75882142D01*
X89210714Y-75810714D01*
X89210714Y-75739285D01*
X88175000Y-74703571D02*
X88210714Y-74739285D01*
X88317857Y-74810714D01*
X88389285Y-74846428D01*
X88496428Y-74882142D01*
X88675000Y-74917857D01*
X88817857Y-74917857D01*
X88996428Y-74882142D01*
X89103571Y-74846428D01*
X89175000Y-74810714D01*
X89282142Y-74739285D01*
X89317857Y-74703571D01*
X88460714Y-74025000D02*
X88460714Y-74453571D01*
X88460714Y-74239285D02*
X89210714Y-74239285D01*
X89103571Y-74310714D01*
X89032142Y-74382142D01*
X88996428Y-74453571D01*
X89210714Y-73560714D02*
X89210714Y-73489285D01*
X89175000Y-73417857D01*
X89139285Y-73382142D01*
X89067857Y-73346428D01*
X88925000Y-73310714D01*
X88746428Y-73310714D01*
X88603571Y-73346428D01*
X88532142Y-73382142D01*
X88496428Y-73417857D01*
X88460714Y-73489285D01*
X88460714Y-73560714D01*
X88496428Y-73632142D01*
X88532142Y-73667857D01*
X88603571Y-73703571D01*
X88746428Y-73739285D01*
X88925000Y-73739285D01*
X89067857Y-73703571D01*
X89139285Y-73667857D01*
X89175000Y-73632142D01*
X89210714Y-73560714D01*
X88960714Y-72667857D02*
X88460714Y-72667857D01*
X89246428Y-72846428D02*
X88710714Y-73025000D01*
X88710714Y-72560714D01*
X88175000Y-72346428D02*
X88210714Y-72310714D01*
X88317857Y-72239285D01*
X88389285Y-72203571D01*
X88496428Y-72167857D01*
X88675000Y-72132142D01*
X88817857Y-72132142D01*
X88996428Y-72167857D01*
X89103571Y-72203571D01*
X89175000Y-72239285D01*
X89282142Y-72310714D01*
X89317857Y-72346428D01*
%TO.C,C5*%
X76125000Y-101367857D02*
X76160714Y-101403571D01*
X76267857Y-101439285D01*
X76339285Y-101439285D01*
X76446428Y-101403571D01*
X76517857Y-101332142D01*
X76553571Y-101260714D01*
X76589285Y-101117857D01*
X76589285Y-101010714D01*
X76553571Y-100867857D01*
X76517857Y-100796428D01*
X76446428Y-100725000D01*
X76339285Y-100689285D01*
X76267857Y-100689285D01*
X76160714Y-100725000D01*
X76125000Y-100760714D01*
X75446428Y-100689285D02*
X75803571Y-100689285D01*
X75839285Y-101046428D01*
X75803571Y-101010714D01*
X75732142Y-100975000D01*
X75553571Y-100975000D01*
X75482142Y-101010714D01*
X75446428Y-101046428D01*
X75410714Y-101117857D01*
X75410714Y-101296428D01*
X75446428Y-101367857D01*
X75482142Y-101403571D01*
X75553571Y-101439285D01*
X75732142Y-101439285D01*
X75803571Y-101403571D01*
X75839285Y-101367857D01*
X75267857Y-101367857D02*
X75232142Y-101403571D01*
X75267857Y-101439285D01*
X75303571Y-101403571D01*
X75267857Y-101367857D01*
X75267857Y-101439285D01*
X74517857Y-101439285D02*
X74946428Y-101439285D01*
X74732142Y-101439285D02*
X74732142Y-100689285D01*
X74803571Y-100796428D01*
X74875000Y-100867857D01*
X74946428Y-100903571D01*
X73875000Y-100939285D02*
X73875000Y-101439285D01*
X74196428Y-100939285D02*
X74196428Y-101332142D01*
X74160714Y-101403571D01*
X74089285Y-101439285D01*
X73982142Y-101439285D01*
X73910714Y-101403571D01*
X73875000Y-101367857D01*
X73625000Y-100939285D02*
X73339285Y-100939285D01*
X73517857Y-101439285D02*
X73517857Y-100796428D01*
X73482142Y-100725000D01*
X73410714Y-100689285D01*
X73339285Y-100689285D01*
X72303571Y-101725000D02*
X72339285Y-101689285D01*
X72410714Y-101582142D01*
X72446428Y-101510714D01*
X72482142Y-101403571D01*
X72517857Y-101225000D01*
X72517857Y-101082142D01*
X72482142Y-100903571D01*
X72446428Y-100796428D01*
X72410714Y-100725000D01*
X72339285Y-100617857D01*
X72303571Y-100582142D01*
X71625000Y-101439285D02*
X72053571Y-101439285D01*
X71839285Y-101439285D02*
X71839285Y-100689285D01*
X71910714Y-100796428D01*
X71982142Y-100867857D01*
X72053571Y-100903571D01*
X71160714Y-100689285D02*
X71089285Y-100689285D01*
X71017857Y-100725000D01*
X70982142Y-100760714D01*
X70946428Y-100832142D01*
X70910714Y-100975000D01*
X70910714Y-101153571D01*
X70946428Y-101296428D01*
X70982142Y-101367857D01*
X71017857Y-101403571D01*
X71089285Y-101439285D01*
X71160714Y-101439285D01*
X71232142Y-101403571D01*
X71267857Y-101367857D01*
X71303571Y-101296428D01*
X71339285Y-101153571D01*
X71339285Y-100975000D01*
X71303571Y-100832142D01*
X71267857Y-100760714D01*
X71232142Y-100725000D01*
X71160714Y-100689285D01*
X70267857Y-100939285D02*
X70267857Y-101439285D01*
X70446428Y-100653571D02*
X70625000Y-101189285D01*
X70160714Y-101189285D01*
X69946428Y-101725000D02*
X69910714Y-101689285D01*
X69839285Y-101582142D01*
X69803571Y-101510714D01*
X69767857Y-101403571D01*
X69732142Y-101225000D01*
X69732142Y-101082142D01*
X69767857Y-100903571D01*
X69803571Y-100796428D01*
X69839285Y-100725000D01*
X69910714Y-100617857D01*
X69946428Y-100582142D01*
%TO.C,C4*%
X83225000Y-105367857D02*
X83260714Y-105403571D01*
X83367857Y-105439285D01*
X83439285Y-105439285D01*
X83546428Y-105403571D01*
X83617857Y-105332142D01*
X83653571Y-105260714D01*
X83689285Y-105117857D01*
X83689285Y-105010714D01*
X83653571Y-104867857D01*
X83617857Y-104796428D01*
X83546428Y-104725000D01*
X83439285Y-104689285D01*
X83367857Y-104689285D01*
X83260714Y-104725000D01*
X83225000Y-104760714D01*
X82582142Y-104939285D02*
X82582142Y-105439285D01*
X82760714Y-104653571D02*
X82939285Y-105189285D01*
X82475000Y-105189285D01*
X89367857Y-105367857D02*
X89332142Y-105403571D01*
X89367857Y-105439285D01*
X89403571Y-105403571D01*
X89367857Y-105367857D01*
X89367857Y-105439285D01*
X88617857Y-105439285D02*
X89046428Y-105439285D01*
X88832142Y-105439285D02*
X88832142Y-104689285D01*
X88903571Y-104796428D01*
X88975000Y-104867857D01*
X89046428Y-104903571D01*
X87975000Y-104939285D02*
X87975000Y-105439285D01*
X88296428Y-104939285D02*
X88296428Y-105332142D01*
X88260714Y-105403571D01*
X88189285Y-105439285D01*
X88082142Y-105439285D01*
X88010714Y-105403571D01*
X87975000Y-105367857D01*
X87725000Y-104939285D02*
X87439285Y-104939285D01*
X87617857Y-105439285D02*
X87617857Y-104796428D01*
X87582142Y-104725000D01*
X87510714Y-104689285D01*
X87439285Y-104689285D01*
X86403571Y-105725000D02*
X86439285Y-105689285D01*
X86510714Y-105582142D01*
X86546428Y-105510714D01*
X86582142Y-105403571D01*
X86617857Y-105225000D01*
X86617857Y-105082142D01*
X86582142Y-104903571D01*
X86546428Y-104796428D01*
X86510714Y-104725000D01*
X86439285Y-104617857D01*
X86403571Y-104582142D01*
X85725000Y-105439285D02*
X86153571Y-105439285D01*
X85939285Y-105439285D02*
X85939285Y-104689285D01*
X86010714Y-104796428D01*
X86082142Y-104867857D01*
X86153571Y-104903571D01*
X85260714Y-104689285D02*
X85189285Y-104689285D01*
X85117857Y-104725000D01*
X85082142Y-104760714D01*
X85046428Y-104832142D01*
X85010714Y-104975000D01*
X85010714Y-105153571D01*
X85046428Y-105296428D01*
X85082142Y-105367857D01*
X85117857Y-105403571D01*
X85189285Y-105439285D01*
X85260714Y-105439285D01*
X85332142Y-105403571D01*
X85367857Y-105367857D01*
X85403571Y-105296428D01*
X85439285Y-105153571D01*
X85439285Y-104975000D01*
X85403571Y-104832142D01*
X85367857Y-104760714D01*
X85332142Y-104725000D01*
X85260714Y-104689285D01*
X84367857Y-104939285D02*
X84367857Y-105439285D01*
X84546428Y-104653571D02*
X84725000Y-105189285D01*
X84260714Y-105189285D01*
X84046428Y-105725000D02*
X84010714Y-105689285D01*
X83939285Y-105582142D01*
X83903571Y-105510714D01*
X83867857Y-105403571D01*
X83832142Y-105225000D01*
X83832142Y-105082142D01*
X83867857Y-104903571D01*
X83903571Y-104796428D01*
X83939285Y-104725000D01*
X84010714Y-104617857D01*
X84046428Y-104582142D01*
%TO.C,C3*%
X83167857Y-70075000D02*
X83203571Y-70039285D01*
X83239285Y-69932142D01*
X83239285Y-69860714D01*
X83203571Y-69753571D01*
X83132142Y-69682142D01*
X83060714Y-69646428D01*
X82917857Y-69610714D01*
X82810714Y-69610714D01*
X82667857Y-69646428D01*
X82596428Y-69682142D01*
X82525000Y-69753571D01*
X82489285Y-69860714D01*
X82489285Y-69932142D01*
X82525000Y-70039285D01*
X82560714Y-70075000D01*
X82489285Y-70325000D02*
X82489285Y-70789285D01*
X82775000Y-70539285D01*
X82775000Y-70646428D01*
X82810714Y-70717857D01*
X82846428Y-70753571D01*
X82917857Y-70789285D01*
X83096428Y-70789285D01*
X83167857Y-70753571D01*
X83203571Y-70717857D01*
X83239285Y-70646428D01*
X83239285Y-70432142D01*
X83203571Y-70360714D01*
X83167857Y-70325000D01*
X83167857Y-70932142D02*
X83203571Y-70967857D01*
X83239285Y-70932142D01*
X83203571Y-70896428D01*
X83167857Y-70932142D01*
X83239285Y-70932142D01*
X83239285Y-71682142D02*
X83239285Y-71253571D01*
X83239285Y-71467857D02*
X82489285Y-71467857D01*
X82596428Y-71396428D01*
X82667857Y-71325000D01*
X82703571Y-71253571D01*
X82739285Y-72325000D02*
X83239285Y-72325000D01*
X82739285Y-72003571D02*
X83132142Y-72003571D01*
X83203571Y-72039285D01*
X83239285Y-72110714D01*
X83239285Y-72217857D01*
X83203571Y-72289285D01*
X83167857Y-72325000D01*
X82739285Y-72575000D02*
X82739285Y-72860714D01*
X83239285Y-72682142D02*
X82596428Y-72682142D01*
X82525000Y-72717857D01*
X82489285Y-72789285D01*
X82489285Y-72860714D01*
X83525000Y-73896428D02*
X83489285Y-73860714D01*
X83382142Y-73789285D01*
X83310714Y-73753571D01*
X83203571Y-73717857D01*
X83025000Y-73682142D01*
X82882142Y-73682142D01*
X82703571Y-73717857D01*
X82596428Y-73753571D01*
X82525000Y-73789285D01*
X82417857Y-73860714D01*
X82382142Y-73896428D01*
X83239285Y-74575000D02*
X83239285Y-74146428D01*
X83239285Y-74360714D02*
X82489285Y-74360714D01*
X82596428Y-74289285D01*
X82667857Y-74217857D01*
X82703571Y-74146428D01*
X82489285Y-75039285D02*
X82489285Y-75110714D01*
X82525000Y-75182142D01*
X82560714Y-75217857D01*
X82632142Y-75253571D01*
X82775000Y-75289285D01*
X82953571Y-75289285D01*
X83096428Y-75253571D01*
X83167857Y-75217857D01*
X83203571Y-75182142D01*
X83239285Y-75110714D01*
X83239285Y-75039285D01*
X83203571Y-74967857D01*
X83167857Y-74932142D01*
X83096428Y-74896428D01*
X82953571Y-74860714D01*
X82775000Y-74860714D01*
X82632142Y-74896428D01*
X82560714Y-74932142D01*
X82525000Y-74967857D01*
X82489285Y-75039285D01*
X82739285Y-75932142D02*
X83239285Y-75932142D01*
X82453571Y-75753571D02*
X82989285Y-75575000D01*
X82989285Y-76039285D01*
X83525000Y-76253571D02*
X83489285Y-76289285D01*
X83382142Y-76360714D01*
X83310714Y-76396428D01*
X83203571Y-76432142D01*
X83025000Y-76467857D01*
X82882142Y-76467857D01*
X82703571Y-76432142D01*
X82596428Y-76396428D01*
X82525000Y-76360714D01*
X82417857Y-76289285D01*
X82382142Y-76253571D01*
%TO.C,R12*%
X91771285Y-98207857D02*
X91414142Y-97957857D01*
X91771285Y-97779285D02*
X91021285Y-97779285D01*
X91021285Y-98065000D01*
X91057000Y-98136428D01*
X91092714Y-98172142D01*
X91164142Y-98207857D01*
X91271285Y-98207857D01*
X91342714Y-98172142D01*
X91378428Y-98136428D01*
X91414142Y-98065000D01*
X91414142Y-97779285D01*
X91771285Y-98922142D02*
X91771285Y-98493571D01*
X91771285Y-98707857D02*
X91021285Y-98707857D01*
X91128428Y-98636428D01*
X91199857Y-98565000D01*
X91235571Y-98493571D01*
X91092714Y-99207857D02*
X91057000Y-99243571D01*
X91021285Y-99315000D01*
X91021285Y-99493571D01*
X91057000Y-99565000D01*
X91092714Y-99600714D01*
X91164142Y-99636428D01*
X91235571Y-99636428D01*
X91342714Y-99600714D01*
X91771285Y-99172142D01*
X91771285Y-99636428D01*
X89060714Y-97743571D02*
X89025000Y-97779285D01*
X88989285Y-97850714D01*
X88989285Y-98029285D01*
X89025000Y-98100714D01*
X89060714Y-98136428D01*
X89132142Y-98172142D01*
X89203571Y-98172142D01*
X89310714Y-98136428D01*
X89739285Y-97707857D01*
X89739285Y-98172142D01*
X89060714Y-98457857D02*
X89025000Y-98493571D01*
X88989285Y-98565000D01*
X88989285Y-98743571D01*
X89025000Y-98815000D01*
X89060714Y-98850714D01*
X89132142Y-98886428D01*
X89203571Y-98886428D01*
X89310714Y-98850714D01*
X89739285Y-98422142D01*
X89739285Y-98886428D01*
X89739285Y-99207857D02*
X88989285Y-99207857D01*
X89739285Y-99636428D02*
X89310714Y-99315000D01*
X88989285Y-99636428D02*
X89417857Y-99207857D01*
%TD*%
%LPC*%
D14*
%TO.C,U1*%
X88600000Y-106820000D03*
X70820000Y-99200000D03*
X86060000Y-106820000D03*
X73360000Y-99200000D03*
X83520000Y-106820000D03*
X75900000Y-99200000D03*
X80980000Y-106820000D03*
X78440000Y-99200000D03*
X78440000Y-106820000D03*
X80980000Y-99200000D03*
X75900000Y-106820000D03*
X83520000Y-99200000D03*
X73360000Y-106820000D03*
X86060000Y-99200000D03*
X70820000Y-106820000D03*
D15*
X88600000Y-99200000D03*
%TD*%
D16*
%TO.C,U2*%
X89420000Y-70360000D03*
X81800000Y-77980000D03*
X89420000Y-72900000D03*
X81800000Y-75440000D03*
X89420000Y-75440000D03*
X81800000Y-72900000D03*
X89420000Y-77980000D03*
D17*
X81800000Y-70360000D03*
%TD*%
D18*
%TO.C,D4*%
X76400000Y-45500000D03*
D19*
X76400000Y-53120000D03*
%TD*%
%TO.C,D3*%
X83400000Y-45380000D03*
D18*
X83400000Y-53000000D03*
%TD*%
%TO.C,OUT*%
G36*
G01*
X86830000Y-133850001D02*
X86830000Y-132149999D01*
G75*
G02*
X87079999Y-131900000I249999J0D01*
G01*
X88320001Y-131900000D01*
G75*
G02*
X88570000Y-132149999I0J-249999D01*
G01*
X88570000Y-133850001D01*
G75*
G02*
X88320001Y-134100000I-249999J0D01*
G01*
X87079999Y-134100000D01*
G75*
G02*
X86830000Y-133850001I0J249999D01*
G01*
G37*
D20*
X90240000Y-133000000D03*
%TD*%
%TO.C,OSC2*%
X78740000Y-133000000D03*
G36*
G01*
X75330000Y-133850001D02*
X75330000Y-132149999D01*
G75*
G02*
X75579999Y-131900000I249999J0D01*
G01*
X76820001Y-131900000D01*
G75*
G02*
X77070000Y-132149999I0J-249999D01*
G01*
X77070000Y-133850001D01*
G75*
G02*
X76820001Y-134100000I-249999J0D01*
G01*
X75579999Y-134100000D01*
G75*
G02*
X75330000Y-133850001I0J249999D01*
G01*
G37*
%TD*%
%TO.C,OSC1*%
G36*
G01*
X68930000Y-133850001D02*
X68930000Y-132149999D01*
G75*
G02*
X69179999Y-131900000I249999J0D01*
G01*
X70420001Y-131900000D01*
G75*
G02*
X70670000Y-132149999I0J-249999D01*
G01*
X70670000Y-133850001D01*
G75*
G02*
X70420001Y-134100000I-249999J0D01*
G01*
X69179999Y-134100000D01*
G75*
G02*
X68930000Y-133850001I0J249999D01*
G01*
G37*
X72340000Y-133000000D03*
%TD*%
%TO.C,CV*%
X84740000Y-133000000D03*
G36*
G01*
X81330000Y-133850001D02*
X81330000Y-132149999D01*
G75*
G02*
X81579999Y-131900000I249999J0D01*
G01*
X82820001Y-131900000D01*
G75*
G02*
X83070000Y-132149999I0J-249999D01*
G01*
X83070000Y-133850001D01*
G75*
G02*
X82820001Y-134100000I-249999J0D01*
G01*
X81579999Y-134100000D01*
G75*
G02*
X81330000Y-133850001I0J249999D01*
G01*
G37*
%TD*%
D21*
%TO.C,H2*%
X70500000Y-55000000D03*
%TD*%
D18*
%TO.C,D2*%
X89000000Y-89000000D03*
D19*
X89000000Y-81380000D03*
%TD*%
D22*
%TO.C,MIX1*%
X84300000Y-59500000D03*
X74700000Y-59500000D03*
D23*
X77000000Y-67000000D03*
X79500000Y-67000000D03*
D24*
X82000000Y-67000000D03*
%TD*%
D19*
%TO.C,D1*%
X71000000Y-81580000D03*
D18*
X71000000Y-89200000D03*
%TD*%
D24*
%TO.C,CVATTN1*%
X82400000Y-92500000D03*
D23*
X79900000Y-92500000D03*
X77400000Y-92500000D03*
D22*
X75100000Y-85000000D03*
X84700000Y-85000000D03*
%TD*%
D25*
%TO.C,C6*%
X86800000Y-77900000D03*
X86800000Y-75400000D03*
%TD*%
%TO.C,C5*%
X75500000Y-103100000D03*
X73000000Y-103100000D03*
%TD*%
%TO.C,C4*%
X86100000Y-103100000D03*
X83600000Y-103100000D03*
%TD*%
%TO.C,C3*%
X84900000Y-73200000D03*
X84900000Y-70700000D03*
%TD*%
D18*
%TO.C,C2*%
X70900000Y-48500000D03*
D25*
X72900000Y-48500000D03*
%TD*%
%TO.C,C1*%
X88900000Y-48500000D03*
D18*
X86900000Y-48500000D03*
%TD*%
D19*
%TO.C,R1*%
X70500000Y-119580000D03*
D25*
X70500000Y-127200000D03*
%TD*%
%TO.C,R2*%
X73600000Y-127200000D03*
D19*
X73600000Y-119580000D03*
%TD*%
D25*
%TO.C,R3*%
X71300000Y-77600000D03*
D19*
X71300000Y-69980000D03*
%TD*%
%TO.C,R4*%
X74600000Y-69980000D03*
D25*
X74600000Y-77600000D03*
%TD*%
D19*
%TO.C,R5*%
X76800000Y-117320000D03*
D25*
X76800000Y-109700000D03*
%TD*%
%TO.C,R6*%
X82700000Y-127200000D03*
D19*
X82700000Y-119580000D03*
%TD*%
%TO.C,R7*%
X70500000Y-109680000D03*
D25*
X70500000Y-117300000D03*
%TD*%
%TO.C,R8*%
X73700000Y-117300000D03*
D19*
X73700000Y-109680000D03*
%TD*%
D25*
%TO.C,R9*%
X86000000Y-109700000D03*
D19*
X86000000Y-117320000D03*
%TD*%
%TO.C,R10*%
X89000000Y-109680000D03*
D25*
X89000000Y-117300000D03*
%TD*%
%TO.C,R11*%
X80000000Y-81500000D03*
D19*
X80000000Y-89120000D03*
%TD*%
D25*
%TO.C,R12*%
X89400000Y-102500000D03*
D19*
X89400000Y-94880000D03*
%TD*%
D25*
%TO.C,R13*%
X77800000Y-77600000D03*
D19*
X77800000Y-69980000D03*
%TD*%
%TO.C,R14*%
X79600000Y-127220000D03*
D25*
X79600000Y-119600000D03*
%TD*%
%TO.C,R15*%
X76500000Y-127200000D03*
D19*
X76500000Y-119580000D03*
%TD*%
%TO.C,R16*%
X72780000Y-95800000D03*
D25*
X80400000Y-95800000D03*
%TD*%
D19*
%TO.C,R17*%
X88600000Y-127120000D03*
D25*
X88600000Y-119500000D03*
%TD*%
D26*
%TO.C,J5*%
X75000000Y-40500000D03*
D27*
X75000000Y-37960000D03*
X77540000Y-40500000D03*
X77540000Y-37960000D03*
X80080000Y-40500000D03*
X80080000Y-37960000D03*
X82620000Y-40500000D03*
X82620000Y-37960000D03*
X85160000Y-40500000D03*
X85160000Y-37960000D03*
%TD*%
M02*
