%TF.GenerationSoftware,KiCad,Pcbnew,(5.1.12-1-10_14)*%
%TF.CreationDate,2021-12-12T17:33:21+01:00*%
%TF.ProjectId,kross,6b726f73-732e-46b6-9963-61645f706362,rev?*%
%TF.SameCoordinates,Original*%
%TF.FileFunction,Legend,Top*%
%TF.FilePolarity,Positive*%
%FSLAX46Y46*%
G04 Gerber Fmt 4.6, Leading zero omitted, Abs format (unit mm)*
G04 Created by KiCad (PCBNEW (5.1.12-1-10_14)) date 2021-12-12 17:33:21*
%MOMM*%
%LPD*%
G01*
G04 APERTURE LIST*
%ADD10C,0.300000*%
%ADD11C,0.125000*%
%ADD12C,0.120000*%
%ADD13C,0.150000*%
%ADD14O,1.600000X2.400000*%
%ADD15R,1.600000X2.400000*%
%ADD16O,2.400000X1.600000*%
%ADD17R,2.400000X1.600000*%
%ADD18R,1.600000X1.600000*%
%ADD19O,1.600000X1.600000*%
%ADD20O,1.740000X2.200000*%
%ADD21C,3.200000*%
%ADD22C,3.240000*%
%ADD23C,1.800000*%
%ADD24R,1.800000X1.800000*%
%ADD25C,1.600000*%
%ADD26R,1.727200X1.727200*%
%ADD27O,1.727200X1.727200*%
G04 APERTURE END LIST*
D10*
X73171428Y-34778571D02*
X73171428Y-35850000D01*
X73100000Y-36064285D01*
X72957142Y-36207142D01*
X72742857Y-36278571D01*
X72600000Y-36278571D01*
X74600000Y-36278571D02*
X73885714Y-36278571D01*
X73885714Y-34778571D01*
X75957142Y-36135714D02*
X75885714Y-36207142D01*
X75671428Y-36278571D01*
X75528571Y-36278571D01*
X75314285Y-36207142D01*
X75171428Y-36064285D01*
X75100000Y-35921428D01*
X75028571Y-35635714D01*
X75028571Y-35421428D01*
X75100000Y-35135714D01*
X75171428Y-34992857D01*
X75314285Y-34850000D01*
X75528571Y-34778571D01*
X75671428Y-34778571D01*
X75885714Y-34850000D01*
X75957142Y-34921428D01*
X77028571Y-34778571D02*
X77028571Y-35850000D01*
X76957142Y-36064285D01*
X76814285Y-36207142D01*
X76600000Y-36278571D01*
X76457142Y-36278571D01*
X78457142Y-36278571D02*
X77742857Y-36278571D01*
X77742857Y-34778571D01*
X79814285Y-36135714D02*
X79742857Y-36207142D01*
X79528571Y-36278571D01*
X79385714Y-36278571D01*
X79171428Y-36207142D01*
X79028571Y-36064285D01*
X78957142Y-35921428D01*
X78885714Y-35635714D01*
X78885714Y-35421428D01*
X78957142Y-35135714D01*
X79028571Y-34992857D01*
X79171428Y-34850000D01*
X79385714Y-34778571D01*
X79528571Y-34778571D01*
X79742857Y-34850000D01*
X79814285Y-34921428D01*
X80885714Y-34778571D02*
X80885714Y-35850000D01*
X80814285Y-36064285D01*
X80671428Y-36207142D01*
X80457142Y-36278571D01*
X80314285Y-36278571D01*
X82314285Y-36278571D02*
X81600000Y-36278571D01*
X81600000Y-34778571D01*
X83671428Y-36135714D02*
X83600000Y-36207142D01*
X83385714Y-36278571D01*
X83242857Y-36278571D01*
X83028571Y-36207142D01*
X82885714Y-36064285D01*
X82814285Y-35921428D01*
X82742857Y-35635714D01*
X82742857Y-35421428D01*
X82814285Y-35135714D01*
X82885714Y-34992857D01*
X83028571Y-34850000D01*
X83242857Y-34778571D01*
X83385714Y-34778571D01*
X83600000Y-34850000D01*
X83671428Y-34921428D01*
X84742857Y-34778571D02*
X84742857Y-35850000D01*
X84671428Y-36064285D01*
X84528571Y-36207142D01*
X84314285Y-36278571D01*
X84171428Y-36278571D01*
X86171428Y-36278571D02*
X85457142Y-36278571D01*
X85457142Y-34778571D01*
X87528571Y-36135714D02*
X87457142Y-36207142D01*
X87242857Y-36278571D01*
X87100000Y-36278571D01*
X86885714Y-36207142D01*
X86742857Y-36064285D01*
X86671428Y-35921428D01*
X86600000Y-35635714D01*
X86600000Y-35421428D01*
X86671428Y-35135714D01*
X86742857Y-34992857D01*
X86885714Y-34850000D01*
X87100000Y-34778571D01*
X87242857Y-34778571D01*
X87457142Y-34850000D01*
X87528571Y-34921428D01*
D11*
X70770833Y-61328385D02*
X71470833Y-61415885D01*
X70804166Y-61332552D02*
X70770833Y-61261718D01*
X70770833Y-61128385D01*
X70804166Y-61065885D01*
X70837500Y-61036718D01*
X70904166Y-61011718D01*
X71104166Y-61036718D01*
X71170833Y-61078385D01*
X71204166Y-61115885D01*
X71237500Y-61186718D01*
X71237500Y-61320052D01*
X71204166Y-61382552D01*
X70804166Y-61932552D02*
X70770833Y-61861718D01*
X70770833Y-61728385D01*
X70804166Y-61665885D01*
X70870833Y-61640885D01*
X71137500Y-61674218D01*
X71204166Y-61715885D01*
X71237500Y-61786718D01*
X71237500Y-61920052D01*
X71204166Y-61982552D01*
X71137500Y-62007552D01*
X71070833Y-61999218D01*
X71004166Y-61657552D01*
X70804166Y-62232552D02*
X70770833Y-62295052D01*
X70770833Y-62428385D01*
X70804166Y-62499218D01*
X70870833Y-62540885D01*
X70904166Y-62545052D01*
X70970833Y-62520052D01*
X71004166Y-62457552D01*
X71004166Y-62357552D01*
X71037500Y-62295052D01*
X71104166Y-62270052D01*
X71137500Y-62274218D01*
X71204166Y-62315885D01*
X71237500Y-62386718D01*
X71237500Y-62486718D01*
X71204166Y-62549218D01*
X70770833Y-62828385D02*
X71237500Y-62886718D01*
X71470833Y-62915885D02*
X71437500Y-62878385D01*
X71404166Y-62907552D01*
X71437500Y-62945052D01*
X71470833Y-62915885D01*
X71404166Y-62907552D01*
X71237500Y-63520052D02*
X70670833Y-63449218D01*
X70604166Y-63407552D01*
X70570833Y-63370052D01*
X70537500Y-63299218D01*
X70537500Y-63199218D01*
X70570833Y-63136718D01*
X70804166Y-63465885D02*
X70770833Y-63395052D01*
X70770833Y-63261718D01*
X70804166Y-63199218D01*
X70837500Y-63170052D01*
X70904166Y-63145052D01*
X71104166Y-63170052D01*
X71170833Y-63211718D01*
X71204166Y-63249218D01*
X71237500Y-63320052D01*
X71237500Y-63453385D01*
X71204166Y-63515885D01*
X71237500Y-63853385D02*
X70770833Y-63795052D01*
X71170833Y-63845052D02*
X71204166Y-63882552D01*
X71237500Y-63953385D01*
X71237500Y-64053385D01*
X71204166Y-64115885D01*
X71137500Y-64140885D01*
X70770833Y-64095052D01*
X70804166Y-64699218D02*
X70770833Y-64628385D01*
X70770833Y-64495052D01*
X70804166Y-64432552D01*
X70870833Y-64407552D01*
X71137500Y-64440885D01*
X71204166Y-64482552D01*
X71237500Y-64553385D01*
X71237500Y-64686718D01*
X71204166Y-64749218D01*
X71137500Y-64774218D01*
X71070833Y-64765885D01*
X71004166Y-64424218D01*
X70770833Y-65328385D02*
X71470833Y-65415885D01*
X70804166Y-65332552D02*
X70770833Y-65261718D01*
X70770833Y-65128385D01*
X70804166Y-65065885D01*
X70837500Y-65036718D01*
X70904166Y-65011718D01*
X71104166Y-65036718D01*
X71170833Y-65078385D01*
X71204166Y-65115885D01*
X71237500Y-65186718D01*
X71237500Y-65320052D01*
X71204166Y-65382552D01*
X70770833Y-66195052D02*
X71237500Y-66253385D01*
X71470833Y-66282552D02*
X71437500Y-66245052D01*
X71404166Y-66274218D01*
X71437500Y-66311718D01*
X71470833Y-66282552D01*
X71404166Y-66274218D01*
X71237500Y-66586718D02*
X70770833Y-66528385D01*
X71170833Y-66578385D02*
X71204166Y-66615885D01*
X71237500Y-66686718D01*
X71237500Y-66786718D01*
X71204166Y-66849218D01*
X71137500Y-66874218D01*
X70770833Y-66828385D01*
X69962500Y-60290885D02*
X69929166Y-60386718D01*
X69895833Y-60415885D01*
X69829166Y-60440885D01*
X69729166Y-60428385D01*
X69662500Y-60386718D01*
X69629166Y-60349218D01*
X69595833Y-60278385D01*
X69595833Y-60011718D01*
X70295833Y-60099218D01*
X70295833Y-60332552D01*
X70262500Y-60395052D01*
X70229166Y-60424218D01*
X70162500Y-60449218D01*
X70095833Y-60440885D01*
X70029166Y-60399218D01*
X69995833Y-60361718D01*
X69962500Y-60290885D01*
X69962500Y-60057552D01*
X69629166Y-60982552D02*
X69595833Y-60911718D01*
X69595833Y-60778385D01*
X69629166Y-60715885D01*
X69695833Y-60690885D01*
X69962500Y-60724218D01*
X70029166Y-60765885D01*
X70062500Y-60836718D01*
X70062500Y-60970052D01*
X70029166Y-61032552D01*
X69962500Y-61057552D01*
X69895833Y-61049218D01*
X69829166Y-60707552D01*
X69595833Y-61311718D02*
X70062500Y-61370052D01*
X69929166Y-61353385D02*
X69995833Y-61395052D01*
X70029166Y-61432552D01*
X70062500Y-61503385D01*
X70062500Y-61570052D01*
X70062500Y-62103385D02*
X69495833Y-62032552D01*
X69429166Y-61990885D01*
X69395833Y-61953385D01*
X69362500Y-61882552D01*
X69362500Y-61782552D01*
X69395833Y-61720052D01*
X69629166Y-62049218D02*
X69595833Y-61978385D01*
X69595833Y-61845052D01*
X69629166Y-61782552D01*
X69662500Y-61753385D01*
X69729166Y-61728385D01*
X69929166Y-61753385D01*
X69995833Y-61795052D01*
X70029166Y-61832552D01*
X70062500Y-61903385D01*
X70062500Y-62036718D01*
X70029166Y-62099218D01*
X69629166Y-62649218D02*
X69595833Y-62578385D01*
X69595833Y-62445052D01*
X69629166Y-62382552D01*
X69695833Y-62357552D01*
X69962500Y-62390885D01*
X70029166Y-62432552D01*
X70062500Y-62503385D01*
X70062500Y-62636718D01*
X70029166Y-62699218D01*
X69962500Y-62724218D01*
X69895833Y-62715885D01*
X69829166Y-62374218D01*
X70062500Y-63036718D02*
X69595833Y-62978385D01*
X69995833Y-63028385D02*
X70029166Y-63065885D01*
X70062500Y-63136718D01*
X70062500Y-63236718D01*
X70029166Y-63299218D01*
X69962500Y-63324218D01*
X69595833Y-63278385D01*
X69629166Y-63649218D02*
X69595833Y-63645052D01*
X69529166Y-63603385D01*
X69495833Y-63565885D01*
X69595833Y-64478385D02*
X70295833Y-64565885D01*
X69595833Y-64878385D01*
X70295833Y-64965885D01*
X69595833Y-65311718D02*
X69629166Y-65249218D01*
X69662500Y-65220052D01*
X69729166Y-65195052D01*
X69929166Y-65220052D01*
X69995833Y-65261718D01*
X70029166Y-65299218D01*
X70062500Y-65370052D01*
X70062500Y-65470052D01*
X70029166Y-65532552D01*
X69995833Y-65561718D01*
X69929166Y-65586718D01*
X69729166Y-65561718D01*
X69662500Y-65520052D01*
X69629166Y-65482552D01*
X69595833Y-65411718D01*
X69595833Y-65311718D01*
X69595833Y-65845052D02*
X70062500Y-65903385D01*
X69929166Y-65886718D02*
X69995833Y-65928385D01*
X70029166Y-65965885D01*
X70062500Y-66036718D01*
X70062500Y-66103385D01*
X70062500Y-66270052D02*
X69595833Y-66345052D01*
X69929166Y-66520052D01*
X69595833Y-66611718D01*
X70062500Y-66803385D01*
X69595833Y-67311718D02*
X69962500Y-67357552D01*
X70029166Y-67332552D01*
X70062500Y-67270052D01*
X70062500Y-67136718D01*
X70029166Y-67065885D01*
X69629166Y-67315885D02*
X69595833Y-67245052D01*
X69595833Y-67078385D01*
X69629166Y-67015885D01*
X69695833Y-66990885D01*
X69762500Y-66999218D01*
X69829166Y-67040885D01*
X69862500Y-67111718D01*
X69862500Y-67278385D01*
X69895833Y-67349218D01*
X70062500Y-67636718D02*
X69595833Y-67745052D01*
X70062500Y-67970052D02*
X69595833Y-67745052D01*
X69429166Y-67657552D01*
X69395833Y-67620052D01*
X69362500Y-67549218D01*
D10*
X88892857Y-64900000D02*
X87692857Y-64900000D01*
X88892857Y-64214285D02*
X88207142Y-64728571D01*
X87692857Y-64214285D02*
X88378571Y-64900000D01*
X88892857Y-63700000D02*
X88092857Y-63700000D01*
X88321428Y-63700000D02*
X88207142Y-63642857D01*
X88150000Y-63585714D01*
X88092857Y-63471428D01*
X88092857Y-63357142D01*
X88892857Y-62785714D02*
X88835714Y-62900000D01*
X88778571Y-62957142D01*
X88664285Y-63014285D01*
X88321428Y-63014285D01*
X88207142Y-62957142D01*
X88150000Y-62900000D01*
X88092857Y-62785714D01*
X88092857Y-62614285D01*
X88150000Y-62500000D01*
X88207142Y-62442857D01*
X88321428Y-62385714D01*
X88664285Y-62385714D01*
X88778571Y-62442857D01*
X88835714Y-62500000D01*
X88892857Y-62614285D01*
X88892857Y-62785714D01*
X88835714Y-61928571D02*
X88892857Y-61814285D01*
X88892857Y-61585714D01*
X88835714Y-61471428D01*
X88721428Y-61414285D01*
X88664285Y-61414285D01*
X88550000Y-61471428D01*
X88492857Y-61585714D01*
X88492857Y-61757142D01*
X88435714Y-61871428D01*
X88321428Y-61928571D01*
X88264285Y-61928571D01*
X88150000Y-61871428D01*
X88092857Y-61757142D01*
X88092857Y-61585714D01*
X88150000Y-61471428D01*
X88835714Y-60957142D02*
X88892857Y-60842857D01*
X88892857Y-60614285D01*
X88835714Y-60500000D01*
X88721428Y-60442857D01*
X88664285Y-60442857D01*
X88550000Y-60500000D01*
X88492857Y-60614285D01*
X88492857Y-60785714D01*
X88435714Y-60900000D01*
X88321428Y-60957142D01*
X88264285Y-60957142D01*
X88150000Y-60900000D01*
X88092857Y-60785714D01*
X88092857Y-60614285D01*
X88150000Y-60500000D01*
X87635714Y-58157142D02*
X89178571Y-59185714D01*
X87692857Y-56957142D02*
X88892857Y-56157142D01*
X87692857Y-56157142D02*
X88892857Y-56957142D01*
X88892857Y-55700000D02*
X88092857Y-55700000D01*
X87692857Y-55700000D02*
X87750000Y-55757142D01*
X87807142Y-55700000D01*
X87750000Y-55642857D01*
X87692857Y-55700000D01*
X87807142Y-55700000D01*
X88892857Y-55128571D02*
X88092857Y-55128571D01*
X88207142Y-55128571D02*
X88150000Y-55071428D01*
X88092857Y-54957142D01*
X88092857Y-54785714D01*
X88150000Y-54671428D01*
X88264285Y-54614285D01*
X88892857Y-54614285D01*
X88264285Y-54614285D02*
X88150000Y-54557142D01*
X88092857Y-54442857D01*
X88092857Y-54271428D01*
X88150000Y-54157142D01*
X88264285Y-54100000D01*
X88892857Y-54100000D01*
X90992857Y-67500000D02*
X90421428Y-67900000D01*
X90992857Y-68185714D02*
X89792857Y-68185714D01*
X89792857Y-67728571D01*
X89850000Y-67614285D01*
X89907142Y-67557142D01*
X90021428Y-67500000D01*
X90192857Y-67500000D01*
X90307142Y-67557142D01*
X90364285Y-67614285D01*
X90421428Y-67728571D01*
X90421428Y-68185714D01*
X90878571Y-66985714D02*
X90935714Y-66928571D01*
X90992857Y-66985714D01*
X90935714Y-67042857D01*
X90878571Y-66985714D01*
X90992857Y-66985714D01*
X89792857Y-66071428D02*
X90650000Y-66071428D01*
X90821428Y-66128571D01*
X90935714Y-66242857D01*
X90992857Y-66414285D01*
X90992857Y-66528571D01*
X90878571Y-65500000D02*
X90935714Y-65442857D01*
X90992857Y-65500000D01*
X90935714Y-65557142D01*
X90878571Y-65500000D01*
X90992857Y-65500000D01*
X89907142Y-64071428D02*
X89850000Y-64014285D01*
X89792857Y-63900000D01*
X89792857Y-63614285D01*
X89850000Y-63500000D01*
X89907142Y-63442857D01*
X90021428Y-63385714D01*
X90135714Y-63385714D01*
X90307142Y-63442857D01*
X90992857Y-64128571D01*
X90992857Y-63385714D01*
X89792857Y-62642857D02*
X89792857Y-62528571D01*
X89850000Y-62414285D01*
X89907142Y-62357142D01*
X90021428Y-62300000D01*
X90250000Y-62242857D01*
X90535714Y-62242857D01*
X90764285Y-62300000D01*
X90878571Y-62357142D01*
X90935714Y-62414285D01*
X90992857Y-62528571D01*
X90992857Y-62642857D01*
X90935714Y-62757142D01*
X90878571Y-62814285D01*
X90764285Y-62871428D01*
X90535714Y-62928571D01*
X90250000Y-62928571D01*
X90021428Y-62871428D01*
X89907142Y-62814285D01*
X89850000Y-62757142D01*
X89792857Y-62642857D01*
X89907142Y-61785714D02*
X89850000Y-61728571D01*
X89792857Y-61614285D01*
X89792857Y-61328571D01*
X89850000Y-61214285D01*
X89907142Y-61157142D01*
X90021428Y-61100000D01*
X90135714Y-61100000D01*
X90307142Y-61157142D01*
X90992857Y-61842857D01*
X90992857Y-61100000D01*
X90992857Y-59957142D02*
X90992857Y-60642857D01*
X90992857Y-60300000D02*
X89792857Y-60300000D01*
X89964285Y-60414285D01*
X90078571Y-60528571D01*
X90135714Y-60642857D01*
X90992857Y-58528571D02*
X89792857Y-58528571D01*
X89792857Y-58071428D01*
X89850000Y-57957142D01*
X89907142Y-57900000D01*
X90021428Y-57842857D01*
X90192857Y-57842857D01*
X90307142Y-57900000D01*
X90364285Y-57957142D01*
X90421428Y-58071428D01*
X90421428Y-58528571D01*
X90878571Y-56642857D02*
X90935714Y-56700000D01*
X90992857Y-56871428D01*
X90992857Y-56985714D01*
X90935714Y-57157142D01*
X90821428Y-57271428D01*
X90707142Y-57328571D01*
X90478571Y-57385714D01*
X90307142Y-57385714D01*
X90078571Y-57328571D01*
X89964285Y-57271428D01*
X89850000Y-57157142D01*
X89792857Y-56985714D01*
X89792857Y-56871428D01*
X89850000Y-56700000D01*
X89907142Y-56642857D01*
X90364285Y-55728571D02*
X90421428Y-55557142D01*
X90478571Y-55500000D01*
X90592857Y-55442857D01*
X90764285Y-55442857D01*
X90878571Y-55500000D01*
X90935714Y-55557142D01*
X90992857Y-55671428D01*
X90992857Y-56128571D01*
X89792857Y-56128571D01*
X89792857Y-55728571D01*
X89850000Y-55614285D01*
X89907142Y-55557142D01*
X90021428Y-55500000D01*
X90135714Y-55500000D01*
X90250000Y-55557142D01*
X90307142Y-55614285D01*
X90364285Y-55728571D01*
X90364285Y-56128571D01*
X90192857Y-54128571D02*
X90992857Y-53842857D01*
X90192857Y-53557142D01*
X89792857Y-52871428D02*
X89792857Y-52757142D01*
X89850000Y-52642857D01*
X89907142Y-52585714D01*
X90021428Y-52528571D01*
X90250000Y-52471428D01*
X90535714Y-52471428D01*
X90764285Y-52528571D01*
X90878571Y-52585714D01*
X90935714Y-52642857D01*
X90992857Y-52757142D01*
X90992857Y-52871428D01*
X90935714Y-52985714D01*
X90878571Y-53042857D01*
X90764285Y-53100000D01*
X90535714Y-53157142D01*
X90250000Y-53157142D01*
X90021428Y-53100000D01*
X89907142Y-53042857D01*
X89850000Y-52985714D01*
X89792857Y-52871428D01*
X90878571Y-51957142D02*
X90935714Y-51900000D01*
X90992857Y-51957142D01*
X90935714Y-52014285D01*
X90878571Y-51957142D01*
X90992857Y-51957142D01*
X90992857Y-50757142D02*
X90992857Y-51442857D01*
X90992857Y-51100000D02*
X89792857Y-51100000D01*
X89964285Y-51214285D01*
X90078571Y-51328571D01*
X90135714Y-51442857D01*
D12*
%TO.C,U1*%
X89990000Y-108260000D02*
X89990000Y-97760000D01*
X69430000Y-108260000D02*
X89990000Y-108260000D01*
X69430000Y-97760000D02*
X69430000Y-108260000D01*
X89990000Y-97760000D02*
X69430000Y-97760000D01*
X89930000Y-105260000D02*
X89930000Y-104010000D01*
X69490000Y-105260000D02*
X89930000Y-105260000D01*
X69490000Y-100760000D02*
X69490000Y-105260000D01*
X89930000Y-100760000D02*
X69490000Y-100760000D01*
X89930000Y-102010000D02*
X89930000Y-100760000D01*
X89930000Y-104010000D02*
G75*
G02*
X89930000Y-102010000I0J1000000D01*
G01*
%TO.C,U2*%
X84610000Y-69030000D02*
X83360000Y-69030000D01*
X83360000Y-69030000D02*
X83360000Y-79310000D01*
X83360000Y-79310000D02*
X87860000Y-79310000D01*
X87860000Y-79310000D02*
X87860000Y-69030000D01*
X87860000Y-69030000D02*
X86610000Y-69030000D01*
X80360000Y-68970000D02*
X80360000Y-79370000D01*
X80360000Y-79370000D02*
X90860000Y-79370000D01*
X90860000Y-79370000D02*
X90860000Y-68970000D01*
X90860000Y-68970000D02*
X80360000Y-68970000D01*
X86610000Y-69030000D02*
G75*
G02*
X84610000Y-69030000I-1000000J0D01*
G01*
%TO.C,D4*%
X77520000Y-47790000D02*
X75280000Y-47790000D01*
X77520000Y-48030000D02*
X75280000Y-48030000D01*
X77520000Y-47910000D02*
X75280000Y-47910000D01*
X76400000Y-52080000D02*
X76400000Y-51430000D01*
X76400000Y-46540000D02*
X76400000Y-47190000D01*
X77520000Y-51430000D02*
X77520000Y-47190000D01*
X75280000Y-51430000D02*
X77520000Y-51430000D01*
X75280000Y-47190000D02*
X75280000Y-51430000D01*
X77520000Y-47190000D02*
X75280000Y-47190000D01*
%TO.C,D3*%
X82280000Y-51310000D02*
X84520000Y-51310000D01*
X84520000Y-51310000D02*
X84520000Y-47070000D01*
X84520000Y-47070000D02*
X82280000Y-47070000D01*
X82280000Y-47070000D02*
X82280000Y-51310000D01*
X83400000Y-51960000D02*
X83400000Y-51310000D01*
X83400000Y-46420000D02*
X83400000Y-47070000D01*
X82280000Y-50590000D02*
X84520000Y-50590000D01*
X82280000Y-50470000D02*
X84520000Y-50470000D01*
X82280000Y-50710000D02*
X84520000Y-50710000D01*
%TO.C,OUT*%
X91040000Y-130570000D02*
X91040000Y-129970000D01*
X89440000Y-130570000D02*
X91040000Y-130570000D01*
X89440000Y-129970000D02*
X89440000Y-130570000D01*
X88500000Y-130570000D02*
X88500000Y-129970000D01*
X86900000Y-130570000D02*
X88500000Y-130570000D01*
X86900000Y-129970000D02*
X86900000Y-130570000D01*
X89990000Y-135990000D02*
X89990000Y-134990000D01*
X87950000Y-135990000D02*
X87950000Y-134990000D01*
X89990000Y-134460000D02*
X90240000Y-134990000D01*
X87950000Y-134460000D02*
X89990000Y-134460000D01*
X87700000Y-134990000D02*
X87950000Y-134460000D01*
X90240000Y-134990000D02*
X90240000Y-135990000D01*
X87700000Y-134990000D02*
X90240000Y-134990000D01*
X87700000Y-135990000D02*
X87700000Y-134990000D01*
X86030000Y-131000000D02*
X86030000Y-135000000D01*
X91620000Y-129970000D02*
X86320000Y-129970000D01*
X91620000Y-135990000D02*
X91620000Y-129970000D01*
X86320000Y-135990000D02*
X91620000Y-135990000D01*
X86320000Y-129970000D02*
X86320000Y-135990000D01*
%TO.C,OSC2*%
X74820000Y-129970000D02*
X74820000Y-135990000D01*
X74820000Y-135990000D02*
X80120000Y-135990000D01*
X80120000Y-135990000D02*
X80120000Y-129970000D01*
X80120000Y-129970000D02*
X74820000Y-129970000D01*
X74530000Y-131000000D02*
X74530000Y-135000000D01*
X76200000Y-135990000D02*
X76200000Y-134990000D01*
X76200000Y-134990000D02*
X78740000Y-134990000D01*
X78740000Y-134990000D02*
X78740000Y-135990000D01*
X76200000Y-134990000D02*
X76450000Y-134460000D01*
X76450000Y-134460000D02*
X78490000Y-134460000D01*
X78490000Y-134460000D02*
X78740000Y-134990000D01*
X76450000Y-135990000D02*
X76450000Y-134990000D01*
X78490000Y-135990000D02*
X78490000Y-134990000D01*
X75400000Y-129970000D02*
X75400000Y-130570000D01*
X75400000Y-130570000D02*
X77000000Y-130570000D01*
X77000000Y-130570000D02*
X77000000Y-129970000D01*
X77940000Y-129970000D02*
X77940000Y-130570000D01*
X77940000Y-130570000D02*
X79540000Y-130570000D01*
X79540000Y-130570000D02*
X79540000Y-129970000D01*
%TO.C,OSC1*%
X73140000Y-130570000D02*
X73140000Y-129970000D01*
X71540000Y-130570000D02*
X73140000Y-130570000D01*
X71540000Y-129970000D02*
X71540000Y-130570000D01*
X70600000Y-130570000D02*
X70600000Y-129970000D01*
X69000000Y-130570000D02*
X70600000Y-130570000D01*
X69000000Y-129970000D02*
X69000000Y-130570000D01*
X72090000Y-135990000D02*
X72090000Y-134990000D01*
X70050000Y-135990000D02*
X70050000Y-134990000D01*
X72090000Y-134460000D02*
X72340000Y-134990000D01*
X70050000Y-134460000D02*
X72090000Y-134460000D01*
X69800000Y-134990000D02*
X70050000Y-134460000D01*
X72340000Y-134990000D02*
X72340000Y-135990000D01*
X69800000Y-134990000D02*
X72340000Y-134990000D01*
X69800000Y-135990000D02*
X69800000Y-134990000D01*
X68130000Y-131000000D02*
X68130000Y-135000000D01*
X73720000Y-129970000D02*
X68420000Y-129970000D01*
X73720000Y-135990000D02*
X73720000Y-129970000D01*
X68420000Y-135990000D02*
X73720000Y-135990000D01*
X68420000Y-129970000D02*
X68420000Y-135990000D01*
%TO.C,CV*%
X80820000Y-129970000D02*
X80820000Y-135990000D01*
X80820000Y-135990000D02*
X86120000Y-135990000D01*
X86120000Y-135990000D02*
X86120000Y-129970000D01*
X86120000Y-129970000D02*
X80820000Y-129970000D01*
X80530000Y-131000000D02*
X80530000Y-135000000D01*
X82200000Y-135990000D02*
X82200000Y-134990000D01*
X82200000Y-134990000D02*
X84740000Y-134990000D01*
X84740000Y-134990000D02*
X84740000Y-135990000D01*
X82200000Y-134990000D02*
X82450000Y-134460000D01*
X82450000Y-134460000D02*
X84490000Y-134460000D01*
X84490000Y-134460000D02*
X84740000Y-134990000D01*
X82450000Y-135990000D02*
X82450000Y-134990000D01*
X84490000Y-135990000D02*
X84490000Y-134990000D01*
X81400000Y-129970000D02*
X81400000Y-130570000D01*
X81400000Y-130570000D02*
X83000000Y-130570000D01*
X83000000Y-130570000D02*
X83000000Y-129970000D01*
X83940000Y-129970000D02*
X83940000Y-130570000D01*
X83940000Y-130570000D02*
X85540000Y-130570000D01*
X85540000Y-130570000D02*
X85540000Y-129970000D01*
%TO.C,D2*%
X87880000Y-86710000D02*
X90120000Y-86710000D01*
X87880000Y-86470000D02*
X90120000Y-86470000D01*
X87880000Y-86590000D02*
X90120000Y-86590000D01*
X89000000Y-82420000D02*
X89000000Y-83070000D01*
X89000000Y-87960000D02*
X89000000Y-87310000D01*
X87880000Y-83070000D02*
X87880000Y-87310000D01*
X90120000Y-83070000D02*
X87880000Y-83070000D01*
X90120000Y-87310000D02*
X90120000Y-83070000D01*
X87880000Y-87310000D02*
X90120000Y-87310000D01*
%TO.C,D1*%
X69880000Y-87510000D02*
X72120000Y-87510000D01*
X72120000Y-87510000D02*
X72120000Y-83270000D01*
X72120000Y-83270000D02*
X69880000Y-83270000D01*
X69880000Y-83270000D02*
X69880000Y-87510000D01*
X71000000Y-88160000D02*
X71000000Y-87510000D01*
X71000000Y-82620000D02*
X71000000Y-83270000D01*
X69880000Y-86790000D02*
X72120000Y-86790000D01*
X69880000Y-86670000D02*
X72120000Y-86670000D01*
X69880000Y-86910000D02*
X72120000Y-86910000D01*
%TO.C,C2*%
X74520000Y-48500000D02*
G75*
G03*
X74520000Y-48500000I-2620000J0D01*
G01*
X71900000Y-49540000D02*
X71900000Y-51080000D01*
X71900000Y-45920000D02*
X71900000Y-47460000D01*
X71940000Y-49540000D02*
X71940000Y-51080000D01*
X71940000Y-45920000D02*
X71940000Y-47460000D01*
X71980000Y-45921000D02*
X71980000Y-47460000D01*
X71980000Y-49540000D02*
X71980000Y-51079000D01*
X72020000Y-45922000D02*
X72020000Y-47460000D01*
X72020000Y-49540000D02*
X72020000Y-51078000D01*
X72060000Y-45924000D02*
X72060000Y-47460000D01*
X72060000Y-49540000D02*
X72060000Y-51076000D01*
X72100000Y-45927000D02*
X72100000Y-47460000D01*
X72100000Y-49540000D02*
X72100000Y-51073000D01*
X72140000Y-45931000D02*
X72140000Y-47460000D01*
X72140000Y-49540000D02*
X72140000Y-51069000D01*
X72180000Y-45935000D02*
X72180000Y-47460000D01*
X72180000Y-49540000D02*
X72180000Y-51065000D01*
X72220000Y-45939000D02*
X72220000Y-47460000D01*
X72220000Y-49540000D02*
X72220000Y-51061000D01*
X72260000Y-45944000D02*
X72260000Y-47460000D01*
X72260000Y-49540000D02*
X72260000Y-51056000D01*
X72300000Y-45950000D02*
X72300000Y-47460000D01*
X72300000Y-49540000D02*
X72300000Y-51050000D01*
X72340000Y-45957000D02*
X72340000Y-47460000D01*
X72340000Y-49540000D02*
X72340000Y-51043000D01*
X72380000Y-45964000D02*
X72380000Y-47460000D01*
X72380000Y-49540000D02*
X72380000Y-51036000D01*
X72420000Y-45972000D02*
X72420000Y-47460000D01*
X72420000Y-49540000D02*
X72420000Y-51028000D01*
X72460000Y-45980000D02*
X72460000Y-47460000D01*
X72460000Y-49540000D02*
X72460000Y-51020000D01*
X72500000Y-45989000D02*
X72500000Y-47460000D01*
X72500000Y-49540000D02*
X72500000Y-51011000D01*
X72540000Y-45999000D02*
X72540000Y-47460000D01*
X72540000Y-49540000D02*
X72540000Y-51001000D01*
X72580000Y-46009000D02*
X72580000Y-47460000D01*
X72580000Y-49540000D02*
X72580000Y-50991000D01*
X72621000Y-46020000D02*
X72621000Y-47460000D01*
X72621000Y-49540000D02*
X72621000Y-50980000D01*
X72661000Y-46032000D02*
X72661000Y-47460000D01*
X72661000Y-49540000D02*
X72661000Y-50968000D01*
X72701000Y-46045000D02*
X72701000Y-47460000D01*
X72701000Y-49540000D02*
X72701000Y-50955000D01*
X72741000Y-46058000D02*
X72741000Y-47460000D01*
X72741000Y-49540000D02*
X72741000Y-50942000D01*
X72781000Y-46072000D02*
X72781000Y-47460000D01*
X72781000Y-49540000D02*
X72781000Y-50928000D01*
X72821000Y-46086000D02*
X72821000Y-47460000D01*
X72821000Y-49540000D02*
X72821000Y-50914000D01*
X72861000Y-46102000D02*
X72861000Y-47460000D01*
X72861000Y-49540000D02*
X72861000Y-50898000D01*
X72901000Y-46118000D02*
X72901000Y-47460000D01*
X72901000Y-49540000D02*
X72901000Y-50882000D01*
X72941000Y-46135000D02*
X72941000Y-47460000D01*
X72941000Y-49540000D02*
X72941000Y-50865000D01*
X72981000Y-46152000D02*
X72981000Y-47460000D01*
X72981000Y-49540000D02*
X72981000Y-50848000D01*
X73021000Y-46171000D02*
X73021000Y-47460000D01*
X73021000Y-49540000D02*
X73021000Y-50829000D01*
X73061000Y-46190000D02*
X73061000Y-47460000D01*
X73061000Y-49540000D02*
X73061000Y-50810000D01*
X73101000Y-46210000D02*
X73101000Y-47460000D01*
X73101000Y-49540000D02*
X73101000Y-50790000D01*
X73141000Y-46232000D02*
X73141000Y-47460000D01*
X73141000Y-49540000D02*
X73141000Y-50768000D01*
X73181000Y-46253000D02*
X73181000Y-47460000D01*
X73181000Y-49540000D02*
X73181000Y-50747000D01*
X73221000Y-46276000D02*
X73221000Y-47460000D01*
X73221000Y-49540000D02*
X73221000Y-50724000D01*
X73261000Y-46300000D02*
X73261000Y-47460000D01*
X73261000Y-49540000D02*
X73261000Y-50700000D01*
X73301000Y-46325000D02*
X73301000Y-47460000D01*
X73301000Y-49540000D02*
X73301000Y-50675000D01*
X73341000Y-46351000D02*
X73341000Y-47460000D01*
X73341000Y-49540000D02*
X73341000Y-50649000D01*
X73381000Y-46378000D02*
X73381000Y-47460000D01*
X73381000Y-49540000D02*
X73381000Y-50622000D01*
X73421000Y-46405000D02*
X73421000Y-47460000D01*
X73421000Y-49540000D02*
X73421000Y-50595000D01*
X73461000Y-46435000D02*
X73461000Y-47460000D01*
X73461000Y-49540000D02*
X73461000Y-50565000D01*
X73501000Y-46465000D02*
X73501000Y-47460000D01*
X73501000Y-49540000D02*
X73501000Y-50535000D01*
X73541000Y-46496000D02*
X73541000Y-47460000D01*
X73541000Y-49540000D02*
X73541000Y-50504000D01*
X73581000Y-46529000D02*
X73581000Y-47460000D01*
X73581000Y-49540000D02*
X73581000Y-50471000D01*
X73621000Y-46563000D02*
X73621000Y-47460000D01*
X73621000Y-49540000D02*
X73621000Y-50437000D01*
X73661000Y-46599000D02*
X73661000Y-47460000D01*
X73661000Y-49540000D02*
X73661000Y-50401000D01*
X73701000Y-46636000D02*
X73701000Y-47460000D01*
X73701000Y-49540000D02*
X73701000Y-50364000D01*
X73741000Y-46674000D02*
X73741000Y-47460000D01*
X73741000Y-49540000D02*
X73741000Y-50326000D01*
X73781000Y-46715000D02*
X73781000Y-47460000D01*
X73781000Y-49540000D02*
X73781000Y-50285000D01*
X73821000Y-46757000D02*
X73821000Y-47460000D01*
X73821000Y-49540000D02*
X73821000Y-50243000D01*
X73861000Y-46801000D02*
X73861000Y-47460000D01*
X73861000Y-49540000D02*
X73861000Y-50199000D01*
X73901000Y-46847000D02*
X73901000Y-47460000D01*
X73901000Y-49540000D02*
X73901000Y-50153000D01*
X73941000Y-46895000D02*
X73941000Y-50105000D01*
X73981000Y-46946000D02*
X73981000Y-50054000D01*
X74021000Y-47000000D02*
X74021000Y-50000000D01*
X74061000Y-47057000D02*
X74061000Y-49943000D01*
X74101000Y-47117000D02*
X74101000Y-49883000D01*
X74141000Y-47181000D02*
X74141000Y-49819000D01*
X74181000Y-47249000D02*
X74181000Y-49751000D01*
X74221000Y-47322000D02*
X74221000Y-49678000D01*
X74261000Y-47402000D02*
X74261000Y-49598000D01*
X74301000Y-47489000D02*
X74301000Y-49511000D01*
X74341000Y-47585000D02*
X74341000Y-49415000D01*
X74381000Y-47695000D02*
X74381000Y-49305000D01*
X74421000Y-47823000D02*
X74421000Y-49177000D01*
X74461000Y-47982000D02*
X74461000Y-49018000D01*
X74501000Y-48216000D02*
X74501000Y-48784000D01*
X69095225Y-47025000D02*
X69595225Y-47025000D01*
X69345225Y-46775000D02*
X69345225Y-47275000D01*
%TO.C,C1*%
X85345225Y-46775000D02*
X85345225Y-47275000D01*
X85095225Y-47025000D02*
X85595225Y-47025000D01*
X90501000Y-48216000D02*
X90501000Y-48784000D01*
X90461000Y-47982000D02*
X90461000Y-49018000D01*
X90421000Y-47823000D02*
X90421000Y-49177000D01*
X90381000Y-47695000D02*
X90381000Y-49305000D01*
X90341000Y-47585000D02*
X90341000Y-49415000D01*
X90301000Y-47489000D02*
X90301000Y-49511000D01*
X90261000Y-47402000D02*
X90261000Y-49598000D01*
X90221000Y-47322000D02*
X90221000Y-49678000D01*
X90181000Y-47249000D02*
X90181000Y-49751000D01*
X90141000Y-47181000D02*
X90141000Y-49819000D01*
X90101000Y-47117000D02*
X90101000Y-49883000D01*
X90061000Y-47057000D02*
X90061000Y-49943000D01*
X90021000Y-47000000D02*
X90021000Y-50000000D01*
X89981000Y-46946000D02*
X89981000Y-50054000D01*
X89941000Y-46895000D02*
X89941000Y-50105000D01*
X89901000Y-49540000D02*
X89901000Y-50153000D01*
X89901000Y-46847000D02*
X89901000Y-47460000D01*
X89861000Y-49540000D02*
X89861000Y-50199000D01*
X89861000Y-46801000D02*
X89861000Y-47460000D01*
X89821000Y-49540000D02*
X89821000Y-50243000D01*
X89821000Y-46757000D02*
X89821000Y-47460000D01*
X89781000Y-49540000D02*
X89781000Y-50285000D01*
X89781000Y-46715000D02*
X89781000Y-47460000D01*
X89741000Y-49540000D02*
X89741000Y-50326000D01*
X89741000Y-46674000D02*
X89741000Y-47460000D01*
X89701000Y-49540000D02*
X89701000Y-50364000D01*
X89701000Y-46636000D02*
X89701000Y-47460000D01*
X89661000Y-49540000D02*
X89661000Y-50401000D01*
X89661000Y-46599000D02*
X89661000Y-47460000D01*
X89621000Y-49540000D02*
X89621000Y-50437000D01*
X89621000Y-46563000D02*
X89621000Y-47460000D01*
X89581000Y-49540000D02*
X89581000Y-50471000D01*
X89581000Y-46529000D02*
X89581000Y-47460000D01*
X89541000Y-49540000D02*
X89541000Y-50504000D01*
X89541000Y-46496000D02*
X89541000Y-47460000D01*
X89501000Y-49540000D02*
X89501000Y-50535000D01*
X89501000Y-46465000D02*
X89501000Y-47460000D01*
X89461000Y-49540000D02*
X89461000Y-50565000D01*
X89461000Y-46435000D02*
X89461000Y-47460000D01*
X89421000Y-49540000D02*
X89421000Y-50595000D01*
X89421000Y-46405000D02*
X89421000Y-47460000D01*
X89381000Y-49540000D02*
X89381000Y-50622000D01*
X89381000Y-46378000D02*
X89381000Y-47460000D01*
X89341000Y-49540000D02*
X89341000Y-50649000D01*
X89341000Y-46351000D02*
X89341000Y-47460000D01*
X89301000Y-49540000D02*
X89301000Y-50675000D01*
X89301000Y-46325000D02*
X89301000Y-47460000D01*
X89261000Y-49540000D02*
X89261000Y-50700000D01*
X89261000Y-46300000D02*
X89261000Y-47460000D01*
X89221000Y-49540000D02*
X89221000Y-50724000D01*
X89221000Y-46276000D02*
X89221000Y-47460000D01*
X89181000Y-49540000D02*
X89181000Y-50747000D01*
X89181000Y-46253000D02*
X89181000Y-47460000D01*
X89141000Y-49540000D02*
X89141000Y-50768000D01*
X89141000Y-46232000D02*
X89141000Y-47460000D01*
X89101000Y-49540000D02*
X89101000Y-50790000D01*
X89101000Y-46210000D02*
X89101000Y-47460000D01*
X89061000Y-49540000D02*
X89061000Y-50810000D01*
X89061000Y-46190000D02*
X89061000Y-47460000D01*
X89021000Y-49540000D02*
X89021000Y-50829000D01*
X89021000Y-46171000D02*
X89021000Y-47460000D01*
X88981000Y-49540000D02*
X88981000Y-50848000D01*
X88981000Y-46152000D02*
X88981000Y-47460000D01*
X88941000Y-49540000D02*
X88941000Y-50865000D01*
X88941000Y-46135000D02*
X88941000Y-47460000D01*
X88901000Y-49540000D02*
X88901000Y-50882000D01*
X88901000Y-46118000D02*
X88901000Y-47460000D01*
X88861000Y-49540000D02*
X88861000Y-50898000D01*
X88861000Y-46102000D02*
X88861000Y-47460000D01*
X88821000Y-49540000D02*
X88821000Y-50914000D01*
X88821000Y-46086000D02*
X88821000Y-47460000D01*
X88781000Y-49540000D02*
X88781000Y-50928000D01*
X88781000Y-46072000D02*
X88781000Y-47460000D01*
X88741000Y-49540000D02*
X88741000Y-50942000D01*
X88741000Y-46058000D02*
X88741000Y-47460000D01*
X88701000Y-49540000D02*
X88701000Y-50955000D01*
X88701000Y-46045000D02*
X88701000Y-47460000D01*
X88661000Y-49540000D02*
X88661000Y-50968000D01*
X88661000Y-46032000D02*
X88661000Y-47460000D01*
X88621000Y-49540000D02*
X88621000Y-50980000D01*
X88621000Y-46020000D02*
X88621000Y-47460000D01*
X88580000Y-49540000D02*
X88580000Y-50991000D01*
X88580000Y-46009000D02*
X88580000Y-47460000D01*
X88540000Y-49540000D02*
X88540000Y-51001000D01*
X88540000Y-45999000D02*
X88540000Y-47460000D01*
X88500000Y-49540000D02*
X88500000Y-51011000D01*
X88500000Y-45989000D02*
X88500000Y-47460000D01*
X88460000Y-49540000D02*
X88460000Y-51020000D01*
X88460000Y-45980000D02*
X88460000Y-47460000D01*
X88420000Y-49540000D02*
X88420000Y-51028000D01*
X88420000Y-45972000D02*
X88420000Y-47460000D01*
X88380000Y-49540000D02*
X88380000Y-51036000D01*
X88380000Y-45964000D02*
X88380000Y-47460000D01*
X88340000Y-49540000D02*
X88340000Y-51043000D01*
X88340000Y-45957000D02*
X88340000Y-47460000D01*
X88300000Y-49540000D02*
X88300000Y-51050000D01*
X88300000Y-45950000D02*
X88300000Y-47460000D01*
X88260000Y-49540000D02*
X88260000Y-51056000D01*
X88260000Y-45944000D02*
X88260000Y-47460000D01*
X88220000Y-49540000D02*
X88220000Y-51061000D01*
X88220000Y-45939000D02*
X88220000Y-47460000D01*
X88180000Y-49540000D02*
X88180000Y-51065000D01*
X88180000Y-45935000D02*
X88180000Y-47460000D01*
X88140000Y-49540000D02*
X88140000Y-51069000D01*
X88140000Y-45931000D02*
X88140000Y-47460000D01*
X88100000Y-49540000D02*
X88100000Y-51073000D01*
X88100000Y-45927000D02*
X88100000Y-47460000D01*
X88060000Y-49540000D02*
X88060000Y-51076000D01*
X88060000Y-45924000D02*
X88060000Y-47460000D01*
X88020000Y-49540000D02*
X88020000Y-51078000D01*
X88020000Y-45922000D02*
X88020000Y-47460000D01*
X87980000Y-49540000D02*
X87980000Y-51079000D01*
X87980000Y-45921000D02*
X87980000Y-47460000D01*
X87940000Y-45920000D02*
X87940000Y-47460000D01*
X87940000Y-49540000D02*
X87940000Y-51080000D01*
X87900000Y-45920000D02*
X87900000Y-47460000D01*
X87900000Y-49540000D02*
X87900000Y-51080000D01*
X90520000Y-48500000D02*
G75*
G03*
X90520000Y-48500000I-2620000J0D01*
G01*
%TO.C,R1*%
X69460000Y-126660000D02*
X69130000Y-126660000D01*
X69130000Y-126660000D02*
X69130000Y-120120000D01*
X69130000Y-120120000D02*
X69460000Y-120120000D01*
X71540000Y-126660000D02*
X71870000Y-126660000D01*
X71870000Y-126660000D02*
X71870000Y-120120000D01*
X71870000Y-120120000D02*
X71540000Y-120120000D01*
%TO.C,R2*%
X74970000Y-120120000D02*
X74640000Y-120120000D01*
X74970000Y-126660000D02*
X74970000Y-120120000D01*
X74640000Y-126660000D02*
X74970000Y-126660000D01*
X72230000Y-120120000D02*
X72560000Y-120120000D01*
X72230000Y-126660000D02*
X72230000Y-120120000D01*
X72560000Y-126660000D02*
X72230000Y-126660000D01*
%TO.C,R3*%
X72670000Y-70520000D02*
X72340000Y-70520000D01*
X72670000Y-77060000D02*
X72670000Y-70520000D01*
X72340000Y-77060000D02*
X72670000Y-77060000D01*
X69930000Y-70520000D02*
X70260000Y-70520000D01*
X69930000Y-77060000D02*
X69930000Y-70520000D01*
X70260000Y-77060000D02*
X69930000Y-77060000D01*
%TO.C,R4*%
X73560000Y-77060000D02*
X73230000Y-77060000D01*
X73230000Y-77060000D02*
X73230000Y-70520000D01*
X73230000Y-70520000D02*
X73560000Y-70520000D01*
X75640000Y-77060000D02*
X75970000Y-77060000D01*
X75970000Y-77060000D02*
X75970000Y-70520000D01*
X75970000Y-70520000D02*
X75640000Y-70520000D01*
%TO.C,R5*%
X77840000Y-110240000D02*
X78170000Y-110240000D01*
X78170000Y-110240000D02*
X78170000Y-116780000D01*
X78170000Y-116780000D02*
X77840000Y-116780000D01*
X75760000Y-110240000D02*
X75430000Y-110240000D01*
X75430000Y-110240000D02*
X75430000Y-116780000D01*
X75430000Y-116780000D02*
X75760000Y-116780000D01*
%TO.C,R6*%
X84070000Y-120120000D02*
X83740000Y-120120000D01*
X84070000Y-126660000D02*
X84070000Y-120120000D01*
X83740000Y-126660000D02*
X84070000Y-126660000D01*
X81330000Y-120120000D02*
X81660000Y-120120000D01*
X81330000Y-126660000D02*
X81330000Y-120120000D01*
X81660000Y-126660000D02*
X81330000Y-126660000D01*
%TO.C,R7*%
X69460000Y-116760000D02*
X69130000Y-116760000D01*
X69130000Y-116760000D02*
X69130000Y-110220000D01*
X69130000Y-110220000D02*
X69460000Y-110220000D01*
X71540000Y-116760000D02*
X71870000Y-116760000D01*
X71870000Y-116760000D02*
X71870000Y-110220000D01*
X71870000Y-110220000D02*
X71540000Y-110220000D01*
%TO.C,R8*%
X75070000Y-110220000D02*
X74740000Y-110220000D01*
X75070000Y-116760000D02*
X75070000Y-110220000D01*
X74740000Y-116760000D02*
X75070000Y-116760000D01*
X72330000Y-110220000D02*
X72660000Y-110220000D01*
X72330000Y-116760000D02*
X72330000Y-110220000D01*
X72660000Y-116760000D02*
X72330000Y-116760000D01*
%TO.C,R9*%
X84630000Y-116780000D02*
X84960000Y-116780000D01*
X84630000Y-110240000D02*
X84630000Y-116780000D01*
X84960000Y-110240000D02*
X84630000Y-110240000D01*
X87370000Y-116780000D02*
X87040000Y-116780000D01*
X87370000Y-110240000D02*
X87370000Y-116780000D01*
X87040000Y-110240000D02*
X87370000Y-110240000D01*
%TO.C,R10*%
X87960000Y-116760000D02*
X87630000Y-116760000D01*
X87630000Y-116760000D02*
X87630000Y-110220000D01*
X87630000Y-110220000D02*
X87960000Y-110220000D01*
X90040000Y-116760000D02*
X90370000Y-116760000D01*
X90370000Y-116760000D02*
X90370000Y-110220000D01*
X90370000Y-110220000D02*
X90040000Y-110220000D01*
%TO.C,R11*%
X78630000Y-88580000D02*
X78960000Y-88580000D01*
X78630000Y-82040000D02*
X78630000Y-88580000D01*
X78960000Y-82040000D02*
X78630000Y-82040000D01*
X81370000Y-88580000D02*
X81040000Y-88580000D01*
X81370000Y-82040000D02*
X81370000Y-88580000D01*
X81040000Y-82040000D02*
X81370000Y-82040000D01*
%TO.C,R13*%
X79170000Y-70520000D02*
X78840000Y-70520000D01*
X79170000Y-77060000D02*
X79170000Y-70520000D01*
X78840000Y-77060000D02*
X79170000Y-77060000D01*
X76430000Y-70520000D02*
X76760000Y-70520000D01*
X76430000Y-77060000D02*
X76430000Y-70520000D01*
X76760000Y-77060000D02*
X76430000Y-77060000D01*
%TO.C,R14*%
X80640000Y-120140000D02*
X80970000Y-120140000D01*
X80970000Y-120140000D02*
X80970000Y-126680000D01*
X80970000Y-126680000D02*
X80640000Y-126680000D01*
X78560000Y-120140000D02*
X78230000Y-120140000D01*
X78230000Y-120140000D02*
X78230000Y-126680000D01*
X78230000Y-126680000D02*
X78560000Y-126680000D01*
%TO.C,R15*%
X77870000Y-120120000D02*
X77540000Y-120120000D01*
X77870000Y-126660000D02*
X77870000Y-120120000D01*
X77540000Y-126660000D02*
X77870000Y-126660000D01*
X75130000Y-120120000D02*
X75460000Y-120120000D01*
X75130000Y-126660000D02*
X75130000Y-120120000D01*
X75460000Y-126660000D02*
X75130000Y-126660000D01*
%TO.C,R16*%
X79860000Y-96840000D02*
X79860000Y-97170000D01*
X79860000Y-97170000D02*
X73320000Y-97170000D01*
X73320000Y-97170000D02*
X73320000Y-96840000D01*
X79860000Y-94760000D02*
X79860000Y-94430000D01*
X79860000Y-94430000D02*
X73320000Y-94430000D01*
X73320000Y-94430000D02*
X73320000Y-94760000D01*
%TO.C,R17*%
X89640000Y-120040000D02*
X89970000Y-120040000D01*
X89970000Y-120040000D02*
X89970000Y-126580000D01*
X89970000Y-126580000D02*
X89640000Y-126580000D01*
X87560000Y-120040000D02*
X87230000Y-120040000D01*
X87230000Y-120040000D02*
X87230000Y-126580000D01*
X87230000Y-126580000D02*
X87560000Y-126580000D01*
%TO.C,J5*%
X69650000Y-34555000D02*
X90510000Y-34555000D01*
X90510000Y-34555000D02*
X90510000Y-43905000D01*
X90510000Y-43905000D02*
X69650000Y-43905000D01*
X69650000Y-43905000D02*
X69650000Y-34555000D01*
X69900000Y-43650000D02*
X69900000Y-34800000D01*
X69900000Y-34800000D02*
X90250000Y-34800000D01*
X90250000Y-34800000D02*
X90250000Y-43650000D01*
X90250000Y-43650000D02*
X69900000Y-43650000D01*
X69900000Y-43650000D02*
X70450000Y-43100000D01*
X70450000Y-43100000D02*
X70450000Y-35350000D01*
X70450000Y-35350000D02*
X69900000Y-34800000D01*
X70450000Y-35350000D02*
X89700000Y-35350000D01*
X89700000Y-35350000D02*
X90250000Y-34800000D01*
X89700000Y-35350000D02*
X89700000Y-43100000D01*
X89700000Y-43100000D02*
X90200000Y-43600000D01*
X89700000Y-43100000D02*
X82350000Y-43100000D01*
X82330000Y-43100000D02*
X82330000Y-43610000D01*
X77830000Y-43600000D02*
X77830000Y-43120000D01*
X77830000Y-43100000D02*
X70450000Y-43100000D01*
%TO.C,U1*%
D13*
X90519285Y-103581428D02*
X91126428Y-103581428D01*
X91197857Y-103545714D01*
X91233571Y-103510000D01*
X91269285Y-103438571D01*
X91269285Y-103295714D01*
X91233571Y-103224285D01*
X91197857Y-103188571D01*
X91126428Y-103152857D01*
X90519285Y-103152857D01*
X91269285Y-102402857D02*
X91269285Y-102831428D01*
X91269285Y-102617142D02*
X90519285Y-102617142D01*
X90626428Y-102688571D01*
X90697857Y-102760000D01*
X90733571Y-102831428D01*
X77727857Y-103349285D02*
X77370714Y-103349285D01*
X77370714Y-102599285D01*
X77977857Y-103349285D02*
X77977857Y-102599285D01*
X78227857Y-103135000D01*
X78477857Y-102599285D01*
X78477857Y-103349285D01*
X79227857Y-103349285D02*
X78799285Y-103349285D01*
X79013571Y-103349285D02*
X79013571Y-102599285D01*
X78942142Y-102706428D01*
X78870714Y-102777857D01*
X78799285Y-102813571D01*
X79477857Y-102599285D02*
X79942142Y-102599285D01*
X79692142Y-102885000D01*
X79799285Y-102885000D01*
X79870714Y-102920714D01*
X79906428Y-102956428D01*
X79942142Y-103027857D01*
X79942142Y-103206428D01*
X79906428Y-103277857D01*
X79870714Y-103313571D01*
X79799285Y-103349285D01*
X79585000Y-103349285D01*
X79513571Y-103313571D01*
X79477857Y-103277857D01*
X80192142Y-102599285D02*
X80692142Y-102599285D01*
X80370714Y-103349285D01*
X81120714Y-102599285D02*
X81192142Y-102599285D01*
X81263571Y-102635000D01*
X81299285Y-102670714D01*
X81335000Y-102742142D01*
X81370714Y-102885000D01*
X81370714Y-103063571D01*
X81335000Y-103206428D01*
X81299285Y-103277857D01*
X81263571Y-103313571D01*
X81192142Y-103349285D01*
X81120714Y-103349285D01*
X81049285Y-103313571D01*
X81013571Y-103277857D01*
X80977857Y-103206428D01*
X80942142Y-103063571D01*
X80942142Y-102885000D01*
X80977857Y-102742142D01*
X81013571Y-102670714D01*
X81049285Y-102635000D01*
X81120714Y-102599285D01*
X81835000Y-102599285D02*
X81906428Y-102599285D01*
X81977857Y-102635000D01*
X82013571Y-102670714D01*
X82049285Y-102742142D01*
X82085000Y-102885000D01*
X82085000Y-103063571D01*
X82049285Y-103206428D01*
X82013571Y-103277857D01*
X81977857Y-103313571D01*
X81906428Y-103349285D01*
X81835000Y-103349285D01*
X81763571Y-103313571D01*
X81727857Y-103277857D01*
X81692142Y-103206428D01*
X81656428Y-103063571D01*
X81656428Y-102885000D01*
X81692142Y-102742142D01*
X81727857Y-102670714D01*
X81763571Y-102635000D01*
X81835000Y-102599285D01*
%TO.C,U2*%
X85038571Y-67619285D02*
X85038571Y-68226428D01*
X85074285Y-68297857D01*
X85110000Y-68333571D01*
X85181428Y-68369285D01*
X85324285Y-68369285D01*
X85395714Y-68333571D01*
X85431428Y-68297857D01*
X85467142Y-68226428D01*
X85467142Y-67619285D01*
X85788571Y-67690714D02*
X85824285Y-67655000D01*
X85895714Y-67619285D01*
X86074285Y-67619285D01*
X86145714Y-67655000D01*
X86181428Y-67690714D01*
X86217142Y-67762142D01*
X86217142Y-67833571D01*
X86181428Y-67940714D01*
X85752857Y-68369285D01*
X86217142Y-68369285D01*
X85199285Y-75759285D02*
X85199285Y-75330714D01*
X85949285Y-75545000D02*
X85199285Y-75545000D01*
X85949285Y-74723571D02*
X85949285Y-75080714D01*
X85199285Y-75080714D01*
X85199285Y-74330714D02*
X85199285Y-74259285D01*
X85235000Y-74187857D01*
X85270714Y-74152142D01*
X85342142Y-74116428D01*
X85485000Y-74080714D01*
X85663571Y-74080714D01*
X85806428Y-74116428D01*
X85877857Y-74152142D01*
X85913571Y-74187857D01*
X85949285Y-74259285D01*
X85949285Y-74330714D01*
X85913571Y-74402142D01*
X85877857Y-74437857D01*
X85806428Y-74473571D01*
X85663571Y-74509285D01*
X85485000Y-74509285D01*
X85342142Y-74473571D01*
X85270714Y-74437857D01*
X85235000Y-74402142D01*
X85199285Y-74330714D01*
X85199285Y-73830714D02*
X85199285Y-73330714D01*
X85949285Y-73652142D01*
X85270714Y-73080714D02*
X85235000Y-73045000D01*
X85199285Y-72973571D01*
X85199285Y-72795000D01*
X85235000Y-72723571D01*
X85270714Y-72687857D01*
X85342142Y-72652142D01*
X85413571Y-72652142D01*
X85520714Y-72687857D01*
X85949285Y-73116428D01*
X85949285Y-72652142D01*
%TO.C,D4*%
X78644285Y-50498571D02*
X77894285Y-50498571D01*
X77894285Y-50320000D01*
X77930000Y-50212857D01*
X78001428Y-50141428D01*
X78072857Y-50105714D01*
X78215714Y-50070000D01*
X78322857Y-50070000D01*
X78465714Y-50105714D01*
X78537142Y-50141428D01*
X78608571Y-50212857D01*
X78644285Y-50320000D01*
X78644285Y-50498571D01*
X78144285Y-49427142D02*
X78644285Y-49427142D01*
X77858571Y-49605714D02*
X78394285Y-49784285D01*
X78394285Y-49320000D01*
X76739285Y-50917142D02*
X76739285Y-51345714D01*
X76739285Y-51131428D02*
X75989285Y-51131428D01*
X76096428Y-51202857D01*
X76167857Y-51274285D01*
X76203571Y-51345714D01*
X76739285Y-50595714D02*
X75989285Y-50595714D01*
X76739285Y-50167142D01*
X75989285Y-50167142D01*
X76239285Y-49488571D02*
X76739285Y-49488571D01*
X75953571Y-49667142D02*
X76489285Y-49845714D01*
X76489285Y-49381428D01*
X76739285Y-48702857D02*
X76739285Y-49131428D01*
X76739285Y-48917142D02*
X75989285Y-48917142D01*
X76096428Y-48988571D01*
X76167857Y-49060000D01*
X76203571Y-49131428D01*
X76239285Y-48060000D02*
X76739285Y-48060000D01*
X75953571Y-48238571D02*
X76489285Y-48417142D01*
X76489285Y-47952857D01*
X76310714Y-47560000D02*
X76275000Y-47631428D01*
X76239285Y-47667142D01*
X76167857Y-47702857D01*
X76132142Y-47702857D01*
X76060714Y-47667142D01*
X76025000Y-47631428D01*
X75989285Y-47560000D01*
X75989285Y-47417142D01*
X76025000Y-47345714D01*
X76060714Y-47310000D01*
X76132142Y-47274285D01*
X76167857Y-47274285D01*
X76239285Y-47310000D01*
X76275000Y-47345714D01*
X76310714Y-47417142D01*
X76310714Y-47560000D01*
X76346428Y-47631428D01*
X76382142Y-47667142D01*
X76453571Y-47702857D01*
X76596428Y-47702857D01*
X76667857Y-47667142D01*
X76703571Y-47631428D01*
X76739285Y-47560000D01*
X76739285Y-47417142D01*
X76703571Y-47345714D01*
X76667857Y-47310000D01*
X76596428Y-47274285D01*
X76453571Y-47274285D01*
X76382142Y-47310000D01*
X76346428Y-47345714D01*
X76310714Y-47417142D01*
X78644285Y-45696428D02*
X77894285Y-45696428D01*
X78644285Y-45267857D02*
X78215714Y-45589285D01*
X77894285Y-45267857D02*
X78322857Y-45696428D01*
%TO.C,D3*%
X81834285Y-49108571D02*
X81084285Y-49108571D01*
X81084285Y-48930000D01*
X81120000Y-48822857D01*
X81191428Y-48751428D01*
X81262857Y-48715714D01*
X81405714Y-48680000D01*
X81512857Y-48680000D01*
X81655714Y-48715714D01*
X81727142Y-48751428D01*
X81798571Y-48822857D01*
X81834285Y-48930000D01*
X81834285Y-49108571D01*
X81084285Y-48430000D02*
X81084285Y-47965714D01*
X81370000Y-48215714D01*
X81370000Y-48108571D01*
X81405714Y-48037142D01*
X81441428Y-48001428D01*
X81512857Y-47965714D01*
X81691428Y-47965714D01*
X81762857Y-48001428D01*
X81798571Y-48037142D01*
X81834285Y-48108571D01*
X81834285Y-48322857D01*
X81798571Y-48394285D01*
X81762857Y-48430000D01*
X81834285Y-53196428D02*
X81084285Y-53196428D01*
X81834285Y-52767857D02*
X81405714Y-53089285D01*
X81084285Y-52767857D02*
X81512857Y-53196428D01*
X83739285Y-50797142D02*
X83739285Y-51225714D01*
X83739285Y-51011428D02*
X82989285Y-51011428D01*
X83096428Y-51082857D01*
X83167857Y-51154285D01*
X83203571Y-51225714D01*
X83739285Y-50475714D02*
X82989285Y-50475714D01*
X83739285Y-50047142D01*
X82989285Y-50047142D01*
X83239285Y-49368571D02*
X83739285Y-49368571D01*
X82953571Y-49547142D02*
X83489285Y-49725714D01*
X83489285Y-49261428D01*
X83739285Y-48582857D02*
X83739285Y-49011428D01*
X83739285Y-48797142D02*
X82989285Y-48797142D01*
X83096428Y-48868571D01*
X83167857Y-48940000D01*
X83203571Y-49011428D01*
X83239285Y-47940000D02*
X83739285Y-47940000D01*
X82953571Y-48118571D02*
X83489285Y-48297142D01*
X83489285Y-47832857D01*
X83310714Y-47440000D02*
X83275000Y-47511428D01*
X83239285Y-47547142D01*
X83167857Y-47582857D01*
X83132142Y-47582857D01*
X83060714Y-47547142D01*
X83025000Y-47511428D01*
X82989285Y-47440000D01*
X82989285Y-47297142D01*
X83025000Y-47225714D01*
X83060714Y-47190000D01*
X83132142Y-47154285D01*
X83167857Y-47154285D01*
X83239285Y-47190000D01*
X83275000Y-47225714D01*
X83310714Y-47297142D01*
X83310714Y-47440000D01*
X83346428Y-47511428D01*
X83382142Y-47547142D01*
X83453571Y-47582857D01*
X83596428Y-47582857D01*
X83667857Y-47547142D01*
X83703571Y-47511428D01*
X83739285Y-47440000D01*
X83739285Y-47297142D01*
X83703571Y-47225714D01*
X83667857Y-47190000D01*
X83596428Y-47154285D01*
X83453571Y-47154285D01*
X83382142Y-47190000D01*
X83346428Y-47225714D01*
X83310714Y-47297142D01*
%TO.C,OUT*%
X88220000Y-128469285D02*
X88362857Y-128469285D01*
X88434285Y-128505000D01*
X88505714Y-128576428D01*
X88541428Y-128719285D01*
X88541428Y-128969285D01*
X88505714Y-129112142D01*
X88434285Y-129183571D01*
X88362857Y-129219285D01*
X88220000Y-129219285D01*
X88148571Y-129183571D01*
X88077142Y-129112142D01*
X88041428Y-128969285D01*
X88041428Y-128719285D01*
X88077142Y-128576428D01*
X88148571Y-128505000D01*
X88220000Y-128469285D01*
X88862857Y-128469285D02*
X88862857Y-129076428D01*
X88898571Y-129147857D01*
X88934285Y-129183571D01*
X89005714Y-129219285D01*
X89148571Y-129219285D01*
X89220000Y-129183571D01*
X89255714Y-129147857D01*
X89291428Y-129076428D01*
X89291428Y-128469285D01*
X89541428Y-128469285D02*
X89970000Y-128469285D01*
X89755714Y-129219285D02*
X89755714Y-128469285D01*
%TO.C,OSC2*%
X76309285Y-128469285D02*
X76452142Y-128469285D01*
X76523571Y-128505000D01*
X76595000Y-128576428D01*
X76630714Y-128719285D01*
X76630714Y-128969285D01*
X76595000Y-129112142D01*
X76523571Y-129183571D01*
X76452142Y-129219285D01*
X76309285Y-129219285D01*
X76237857Y-129183571D01*
X76166428Y-129112142D01*
X76130714Y-128969285D01*
X76130714Y-128719285D01*
X76166428Y-128576428D01*
X76237857Y-128505000D01*
X76309285Y-128469285D01*
X76916428Y-129183571D02*
X77023571Y-129219285D01*
X77202142Y-129219285D01*
X77273571Y-129183571D01*
X77309285Y-129147857D01*
X77345000Y-129076428D01*
X77345000Y-129005000D01*
X77309285Y-128933571D01*
X77273571Y-128897857D01*
X77202142Y-128862142D01*
X77059285Y-128826428D01*
X76987857Y-128790714D01*
X76952142Y-128755000D01*
X76916428Y-128683571D01*
X76916428Y-128612142D01*
X76952142Y-128540714D01*
X76987857Y-128505000D01*
X77059285Y-128469285D01*
X77237857Y-128469285D01*
X77345000Y-128505000D01*
X78095000Y-129147857D02*
X78059285Y-129183571D01*
X77952142Y-129219285D01*
X77880714Y-129219285D01*
X77773571Y-129183571D01*
X77702142Y-129112142D01*
X77666428Y-129040714D01*
X77630714Y-128897857D01*
X77630714Y-128790714D01*
X77666428Y-128647857D01*
X77702142Y-128576428D01*
X77773571Y-128505000D01*
X77880714Y-128469285D01*
X77952142Y-128469285D01*
X78059285Y-128505000D01*
X78095000Y-128540714D01*
X78380714Y-128540714D02*
X78416428Y-128505000D01*
X78487857Y-128469285D01*
X78666428Y-128469285D01*
X78737857Y-128505000D01*
X78773571Y-128540714D01*
X78809285Y-128612142D01*
X78809285Y-128683571D01*
X78773571Y-128790714D01*
X78345000Y-129219285D01*
X78809285Y-129219285D01*
%TO.C,OSC1*%
X69909285Y-128469285D02*
X70052142Y-128469285D01*
X70123571Y-128505000D01*
X70195000Y-128576428D01*
X70230714Y-128719285D01*
X70230714Y-128969285D01*
X70195000Y-129112142D01*
X70123571Y-129183571D01*
X70052142Y-129219285D01*
X69909285Y-129219285D01*
X69837857Y-129183571D01*
X69766428Y-129112142D01*
X69730714Y-128969285D01*
X69730714Y-128719285D01*
X69766428Y-128576428D01*
X69837857Y-128505000D01*
X69909285Y-128469285D01*
X70516428Y-129183571D02*
X70623571Y-129219285D01*
X70802142Y-129219285D01*
X70873571Y-129183571D01*
X70909285Y-129147857D01*
X70945000Y-129076428D01*
X70945000Y-129005000D01*
X70909285Y-128933571D01*
X70873571Y-128897857D01*
X70802142Y-128862142D01*
X70659285Y-128826428D01*
X70587857Y-128790714D01*
X70552142Y-128755000D01*
X70516428Y-128683571D01*
X70516428Y-128612142D01*
X70552142Y-128540714D01*
X70587857Y-128505000D01*
X70659285Y-128469285D01*
X70837857Y-128469285D01*
X70945000Y-128505000D01*
X71695000Y-129147857D02*
X71659285Y-129183571D01*
X71552142Y-129219285D01*
X71480714Y-129219285D01*
X71373571Y-129183571D01*
X71302142Y-129112142D01*
X71266428Y-129040714D01*
X71230714Y-128897857D01*
X71230714Y-128790714D01*
X71266428Y-128647857D01*
X71302142Y-128576428D01*
X71373571Y-128505000D01*
X71480714Y-128469285D01*
X71552142Y-128469285D01*
X71659285Y-128505000D01*
X71695000Y-128540714D01*
X72409285Y-129219285D02*
X71980714Y-129219285D01*
X72195000Y-129219285D02*
X72195000Y-128469285D01*
X72123571Y-128576428D01*
X72052142Y-128647857D01*
X71980714Y-128683571D01*
%TO.C,CV*%
X83380714Y-129147857D02*
X83345000Y-129183571D01*
X83237857Y-129219285D01*
X83166428Y-129219285D01*
X83059285Y-129183571D01*
X82987857Y-129112142D01*
X82952142Y-129040714D01*
X82916428Y-128897857D01*
X82916428Y-128790714D01*
X82952142Y-128647857D01*
X82987857Y-128576428D01*
X83059285Y-128505000D01*
X83166428Y-128469285D01*
X83237857Y-128469285D01*
X83345000Y-128505000D01*
X83380714Y-128540714D01*
X83595000Y-128469285D02*
X83845000Y-129219285D01*
X84095000Y-128469285D01*
%TO.C,D2*%
X87434285Y-85108571D02*
X86684285Y-85108571D01*
X86684285Y-84930000D01*
X86720000Y-84822857D01*
X86791428Y-84751428D01*
X86862857Y-84715714D01*
X87005714Y-84680000D01*
X87112857Y-84680000D01*
X87255714Y-84715714D01*
X87327142Y-84751428D01*
X87398571Y-84822857D01*
X87434285Y-84930000D01*
X87434285Y-85108571D01*
X86755714Y-84394285D02*
X86720000Y-84358571D01*
X86684285Y-84287142D01*
X86684285Y-84108571D01*
X86720000Y-84037142D01*
X86755714Y-84001428D01*
X86827142Y-83965714D01*
X86898571Y-83965714D01*
X87005714Y-84001428D01*
X87434285Y-84430000D01*
X87434285Y-83965714D01*
X89339285Y-86797142D02*
X89339285Y-87225714D01*
X89339285Y-87011428D02*
X88589285Y-87011428D01*
X88696428Y-87082857D01*
X88767857Y-87154285D01*
X88803571Y-87225714D01*
X89339285Y-86475714D02*
X88589285Y-86475714D01*
X89339285Y-86047142D01*
X88589285Y-86047142D01*
X88839285Y-85368571D02*
X89339285Y-85368571D01*
X88553571Y-85547142D02*
X89089285Y-85725714D01*
X89089285Y-85261428D01*
X89339285Y-84582857D02*
X89339285Y-85011428D01*
X89339285Y-84797142D02*
X88589285Y-84797142D01*
X88696428Y-84868571D01*
X88767857Y-84940000D01*
X88803571Y-85011428D01*
X88839285Y-83940000D02*
X89339285Y-83940000D01*
X88553571Y-84118571D02*
X89089285Y-84297142D01*
X89089285Y-83832857D01*
X88910714Y-83440000D02*
X88875000Y-83511428D01*
X88839285Y-83547142D01*
X88767857Y-83582857D01*
X88732142Y-83582857D01*
X88660714Y-83547142D01*
X88625000Y-83511428D01*
X88589285Y-83440000D01*
X88589285Y-83297142D01*
X88625000Y-83225714D01*
X88660714Y-83190000D01*
X88732142Y-83154285D01*
X88767857Y-83154285D01*
X88839285Y-83190000D01*
X88875000Y-83225714D01*
X88910714Y-83297142D01*
X88910714Y-83440000D01*
X88946428Y-83511428D01*
X88982142Y-83547142D01*
X89053571Y-83582857D01*
X89196428Y-83582857D01*
X89267857Y-83547142D01*
X89303571Y-83511428D01*
X89339285Y-83440000D01*
X89339285Y-83297142D01*
X89303571Y-83225714D01*
X89267857Y-83190000D01*
X89196428Y-83154285D01*
X89053571Y-83154285D01*
X88982142Y-83190000D01*
X88946428Y-83225714D01*
X88910714Y-83297142D01*
X87434285Y-89196428D02*
X86684285Y-89196428D01*
X87434285Y-88767857D02*
X87005714Y-89089285D01*
X86684285Y-88767857D02*
X87112857Y-89196428D01*
%TO.C,D1*%
X69434285Y-85308571D02*
X68684285Y-85308571D01*
X68684285Y-85130000D01*
X68720000Y-85022857D01*
X68791428Y-84951428D01*
X68862857Y-84915714D01*
X69005714Y-84880000D01*
X69112857Y-84880000D01*
X69255714Y-84915714D01*
X69327142Y-84951428D01*
X69398571Y-85022857D01*
X69434285Y-85130000D01*
X69434285Y-85308571D01*
X69434285Y-84165714D02*
X69434285Y-84594285D01*
X69434285Y-84380000D02*
X68684285Y-84380000D01*
X68791428Y-84451428D01*
X68862857Y-84522857D01*
X68898571Y-84594285D01*
X69434285Y-89396428D02*
X68684285Y-89396428D01*
X69434285Y-88967857D02*
X69005714Y-89289285D01*
X68684285Y-88967857D02*
X69112857Y-89396428D01*
X71339285Y-86997142D02*
X71339285Y-87425714D01*
X71339285Y-87211428D02*
X70589285Y-87211428D01*
X70696428Y-87282857D01*
X70767857Y-87354285D01*
X70803571Y-87425714D01*
X71339285Y-86675714D02*
X70589285Y-86675714D01*
X71339285Y-86247142D01*
X70589285Y-86247142D01*
X70839285Y-85568571D02*
X71339285Y-85568571D01*
X70553571Y-85747142D02*
X71089285Y-85925714D01*
X71089285Y-85461428D01*
X71339285Y-84782857D02*
X71339285Y-85211428D01*
X71339285Y-84997142D02*
X70589285Y-84997142D01*
X70696428Y-85068571D01*
X70767857Y-85140000D01*
X70803571Y-85211428D01*
X70839285Y-84140000D02*
X71339285Y-84140000D01*
X70553571Y-84318571D02*
X71089285Y-84497142D01*
X71089285Y-84032857D01*
X70910714Y-83640000D02*
X70875000Y-83711428D01*
X70839285Y-83747142D01*
X70767857Y-83782857D01*
X70732142Y-83782857D01*
X70660714Y-83747142D01*
X70625000Y-83711428D01*
X70589285Y-83640000D01*
X70589285Y-83497142D01*
X70625000Y-83425714D01*
X70660714Y-83390000D01*
X70732142Y-83354285D01*
X70767857Y-83354285D01*
X70839285Y-83390000D01*
X70875000Y-83425714D01*
X70910714Y-83497142D01*
X70910714Y-83640000D01*
X70946428Y-83711428D01*
X70982142Y-83747142D01*
X71053571Y-83782857D01*
X71196428Y-83782857D01*
X71267857Y-83747142D01*
X71303571Y-83711428D01*
X71339285Y-83640000D01*
X71339285Y-83497142D01*
X71303571Y-83425714D01*
X71267857Y-83390000D01*
X71196428Y-83354285D01*
X71053571Y-83354285D01*
X70982142Y-83390000D01*
X70946428Y-83425714D01*
X70910714Y-83497142D01*
%TO.C,C2*%
X69775000Y-45267857D02*
X69739285Y-45303571D01*
X69632142Y-45339285D01*
X69560714Y-45339285D01*
X69453571Y-45303571D01*
X69382142Y-45232142D01*
X69346428Y-45160714D01*
X69310714Y-45017857D01*
X69310714Y-44910714D01*
X69346428Y-44767857D01*
X69382142Y-44696428D01*
X69453571Y-44625000D01*
X69560714Y-44589285D01*
X69632142Y-44589285D01*
X69739285Y-44625000D01*
X69775000Y-44660714D01*
X70060714Y-44660714D02*
X70096428Y-44625000D01*
X70167857Y-44589285D01*
X70346428Y-44589285D01*
X70417857Y-44625000D01*
X70453571Y-44660714D01*
X70489285Y-44732142D01*
X70489285Y-44803571D01*
X70453571Y-44910714D01*
X70025000Y-45339285D01*
X70489285Y-45339285D01*
X73203571Y-45339285D02*
X72775000Y-45339285D01*
X72989285Y-45339285D02*
X72989285Y-44589285D01*
X72917857Y-44696428D01*
X72846428Y-44767857D01*
X72775000Y-44803571D01*
X73667857Y-44589285D02*
X73739285Y-44589285D01*
X73810714Y-44625000D01*
X73846428Y-44660714D01*
X73882142Y-44732142D01*
X73917857Y-44875000D01*
X73917857Y-45053571D01*
X73882142Y-45196428D01*
X73846428Y-45267857D01*
X73810714Y-45303571D01*
X73739285Y-45339285D01*
X73667857Y-45339285D01*
X73596428Y-45303571D01*
X73560714Y-45267857D01*
X73525000Y-45196428D01*
X73489285Y-45053571D01*
X73489285Y-44875000D01*
X73525000Y-44732142D01*
X73560714Y-44660714D01*
X73596428Y-44625000D01*
X73667857Y-44589285D01*
X74560714Y-44839285D02*
X74560714Y-45339285D01*
X74239285Y-44839285D02*
X74239285Y-45232142D01*
X74275000Y-45303571D01*
X74346428Y-45339285D01*
X74453571Y-45339285D01*
X74525000Y-45303571D01*
X74560714Y-45267857D01*
X74810714Y-44839285D02*
X75096428Y-44839285D01*
X74917857Y-45339285D02*
X74917857Y-44696428D01*
X74953571Y-44625000D01*
X75025000Y-44589285D01*
X75096428Y-44589285D01*
%TO.C,C1*%
X85775000Y-45267857D02*
X85739285Y-45303571D01*
X85632142Y-45339285D01*
X85560714Y-45339285D01*
X85453571Y-45303571D01*
X85382142Y-45232142D01*
X85346428Y-45160714D01*
X85310714Y-45017857D01*
X85310714Y-44910714D01*
X85346428Y-44767857D01*
X85382142Y-44696428D01*
X85453571Y-44625000D01*
X85560714Y-44589285D01*
X85632142Y-44589285D01*
X85739285Y-44625000D01*
X85775000Y-44660714D01*
X86489285Y-45339285D02*
X86060714Y-45339285D01*
X86275000Y-45339285D02*
X86275000Y-44589285D01*
X86203571Y-44696428D01*
X86132142Y-44767857D01*
X86060714Y-44803571D01*
X89203571Y-45339285D02*
X88775000Y-45339285D01*
X88989285Y-45339285D02*
X88989285Y-44589285D01*
X88917857Y-44696428D01*
X88846428Y-44767857D01*
X88775000Y-44803571D01*
X89667857Y-44589285D02*
X89739285Y-44589285D01*
X89810714Y-44625000D01*
X89846428Y-44660714D01*
X89882142Y-44732142D01*
X89917857Y-44875000D01*
X89917857Y-45053571D01*
X89882142Y-45196428D01*
X89846428Y-45267857D01*
X89810714Y-45303571D01*
X89739285Y-45339285D01*
X89667857Y-45339285D01*
X89596428Y-45303571D01*
X89560714Y-45267857D01*
X89525000Y-45196428D01*
X89489285Y-45053571D01*
X89489285Y-44875000D01*
X89525000Y-44732142D01*
X89560714Y-44660714D01*
X89596428Y-44625000D01*
X89667857Y-44589285D01*
X90560714Y-44839285D02*
X90560714Y-45339285D01*
X90239285Y-44839285D02*
X90239285Y-45232142D01*
X90275000Y-45303571D01*
X90346428Y-45339285D01*
X90453571Y-45339285D01*
X90525000Y-45303571D01*
X90560714Y-45267857D01*
X90810714Y-44839285D02*
X91096428Y-44839285D01*
X90917857Y-45339285D02*
X90917857Y-44696428D01*
X90953571Y-44625000D01*
X91025000Y-44589285D01*
X91096428Y-44589285D01*
%TO.C,R1*%
X68807285Y-123515000D02*
X68450142Y-123765000D01*
X68807285Y-123943571D02*
X68057285Y-123943571D01*
X68057285Y-123657857D01*
X68093000Y-123586428D01*
X68128714Y-123550714D01*
X68200142Y-123515000D01*
X68307285Y-123515000D01*
X68378714Y-123550714D01*
X68414428Y-123586428D01*
X68450142Y-123657857D01*
X68450142Y-123943571D01*
X68807285Y-122800714D02*
X68807285Y-123229285D01*
X68807285Y-123015000D02*
X68057285Y-123015000D01*
X68164428Y-123086428D01*
X68235857Y-123157857D01*
X68271571Y-123229285D01*
X70839285Y-124265000D02*
X70839285Y-124693571D01*
X70839285Y-124479285D02*
X70089285Y-124479285D01*
X70196428Y-124550714D01*
X70267857Y-124622142D01*
X70303571Y-124693571D01*
X70089285Y-123800714D02*
X70089285Y-123729285D01*
X70125000Y-123657857D01*
X70160714Y-123622142D01*
X70232142Y-123586428D01*
X70375000Y-123550714D01*
X70553571Y-123550714D01*
X70696428Y-123586428D01*
X70767857Y-123622142D01*
X70803571Y-123657857D01*
X70839285Y-123729285D01*
X70839285Y-123800714D01*
X70803571Y-123872142D01*
X70767857Y-123907857D01*
X70696428Y-123943571D01*
X70553571Y-123979285D01*
X70375000Y-123979285D01*
X70232142Y-123943571D01*
X70160714Y-123907857D01*
X70125000Y-123872142D01*
X70089285Y-123800714D01*
X70089285Y-123086428D02*
X70089285Y-123015000D01*
X70125000Y-122943571D01*
X70160714Y-122907857D01*
X70232142Y-122872142D01*
X70375000Y-122836428D01*
X70553571Y-122836428D01*
X70696428Y-122872142D01*
X70767857Y-122907857D01*
X70803571Y-122943571D01*
X70839285Y-123015000D01*
X70839285Y-123086428D01*
X70803571Y-123157857D01*
X70767857Y-123193571D01*
X70696428Y-123229285D01*
X70553571Y-123265000D01*
X70375000Y-123265000D01*
X70232142Y-123229285D01*
X70160714Y-123193571D01*
X70125000Y-123157857D01*
X70089285Y-123086428D01*
X70839285Y-122515000D02*
X70089285Y-122515000D01*
X70839285Y-122086428D02*
X70410714Y-122407857D01*
X70089285Y-122086428D02*
X70517857Y-122515000D01*
%TO.C,R2*%
X71907285Y-123515000D02*
X71550142Y-123765000D01*
X71907285Y-123943571D02*
X71157285Y-123943571D01*
X71157285Y-123657857D01*
X71193000Y-123586428D01*
X71228714Y-123550714D01*
X71300142Y-123515000D01*
X71407285Y-123515000D01*
X71478714Y-123550714D01*
X71514428Y-123586428D01*
X71550142Y-123657857D01*
X71550142Y-123943571D01*
X71228714Y-123229285D02*
X71193000Y-123193571D01*
X71157285Y-123122142D01*
X71157285Y-122943571D01*
X71193000Y-122872142D01*
X71228714Y-122836428D01*
X71300142Y-122800714D01*
X71371571Y-122800714D01*
X71478714Y-122836428D01*
X71907285Y-123265000D01*
X71907285Y-122800714D01*
X73939285Y-124265000D02*
X73939285Y-124693571D01*
X73939285Y-124479285D02*
X73189285Y-124479285D01*
X73296428Y-124550714D01*
X73367857Y-124622142D01*
X73403571Y-124693571D01*
X73189285Y-123800714D02*
X73189285Y-123729285D01*
X73225000Y-123657857D01*
X73260714Y-123622142D01*
X73332142Y-123586428D01*
X73475000Y-123550714D01*
X73653571Y-123550714D01*
X73796428Y-123586428D01*
X73867857Y-123622142D01*
X73903571Y-123657857D01*
X73939285Y-123729285D01*
X73939285Y-123800714D01*
X73903571Y-123872142D01*
X73867857Y-123907857D01*
X73796428Y-123943571D01*
X73653571Y-123979285D01*
X73475000Y-123979285D01*
X73332142Y-123943571D01*
X73260714Y-123907857D01*
X73225000Y-123872142D01*
X73189285Y-123800714D01*
X73189285Y-123086428D02*
X73189285Y-123015000D01*
X73225000Y-122943571D01*
X73260714Y-122907857D01*
X73332142Y-122872142D01*
X73475000Y-122836428D01*
X73653571Y-122836428D01*
X73796428Y-122872142D01*
X73867857Y-122907857D01*
X73903571Y-122943571D01*
X73939285Y-123015000D01*
X73939285Y-123086428D01*
X73903571Y-123157857D01*
X73867857Y-123193571D01*
X73796428Y-123229285D01*
X73653571Y-123265000D01*
X73475000Y-123265000D01*
X73332142Y-123229285D01*
X73260714Y-123193571D01*
X73225000Y-123157857D01*
X73189285Y-123086428D01*
X73939285Y-122515000D02*
X73189285Y-122515000D01*
X73939285Y-122086428D02*
X73510714Y-122407857D01*
X73189285Y-122086428D02*
X73617857Y-122515000D01*
%TO.C,R3*%
X69607285Y-73915000D02*
X69250142Y-74165000D01*
X69607285Y-74343571D02*
X68857285Y-74343571D01*
X68857285Y-74057857D01*
X68893000Y-73986428D01*
X68928714Y-73950714D01*
X69000142Y-73915000D01*
X69107285Y-73915000D01*
X69178714Y-73950714D01*
X69214428Y-73986428D01*
X69250142Y-74057857D01*
X69250142Y-74343571D01*
X68857285Y-73665000D02*
X68857285Y-73200714D01*
X69143000Y-73450714D01*
X69143000Y-73343571D01*
X69178714Y-73272142D01*
X69214428Y-73236428D01*
X69285857Y-73200714D01*
X69464428Y-73200714D01*
X69535857Y-73236428D01*
X69571571Y-73272142D01*
X69607285Y-73343571D01*
X69607285Y-73557857D01*
X69571571Y-73629285D01*
X69535857Y-73665000D01*
X71639285Y-74665000D02*
X71639285Y-75093571D01*
X71639285Y-74879285D02*
X70889285Y-74879285D01*
X70996428Y-74950714D01*
X71067857Y-75022142D01*
X71103571Y-75093571D01*
X70889285Y-74200714D02*
X70889285Y-74129285D01*
X70925000Y-74057857D01*
X70960714Y-74022142D01*
X71032142Y-73986428D01*
X71175000Y-73950714D01*
X71353571Y-73950714D01*
X71496428Y-73986428D01*
X71567857Y-74022142D01*
X71603571Y-74057857D01*
X71639285Y-74129285D01*
X71639285Y-74200714D01*
X71603571Y-74272142D01*
X71567857Y-74307857D01*
X71496428Y-74343571D01*
X71353571Y-74379285D01*
X71175000Y-74379285D01*
X71032142Y-74343571D01*
X70960714Y-74307857D01*
X70925000Y-74272142D01*
X70889285Y-74200714D01*
X70889285Y-73486428D02*
X70889285Y-73415000D01*
X70925000Y-73343571D01*
X70960714Y-73307857D01*
X71032142Y-73272142D01*
X71175000Y-73236428D01*
X71353571Y-73236428D01*
X71496428Y-73272142D01*
X71567857Y-73307857D01*
X71603571Y-73343571D01*
X71639285Y-73415000D01*
X71639285Y-73486428D01*
X71603571Y-73557857D01*
X71567857Y-73593571D01*
X71496428Y-73629285D01*
X71353571Y-73665000D01*
X71175000Y-73665000D01*
X71032142Y-73629285D01*
X70960714Y-73593571D01*
X70925000Y-73557857D01*
X70889285Y-73486428D01*
X71639285Y-72915000D02*
X70889285Y-72915000D01*
X71639285Y-72486428D02*
X71210714Y-72807857D01*
X70889285Y-72486428D02*
X71317857Y-72915000D01*
%TO.C,R4*%
X72907285Y-73915000D02*
X72550142Y-74165000D01*
X72907285Y-74343571D02*
X72157285Y-74343571D01*
X72157285Y-74057857D01*
X72193000Y-73986428D01*
X72228714Y-73950714D01*
X72300142Y-73915000D01*
X72407285Y-73915000D01*
X72478714Y-73950714D01*
X72514428Y-73986428D01*
X72550142Y-74057857D01*
X72550142Y-74343571D01*
X72407285Y-73272142D02*
X72907285Y-73272142D01*
X72121571Y-73450714D02*
X72657285Y-73629285D01*
X72657285Y-73165000D01*
X74189285Y-75129285D02*
X74189285Y-74665000D01*
X74475000Y-74915000D01*
X74475000Y-74807857D01*
X74510714Y-74736428D01*
X74546428Y-74700714D01*
X74617857Y-74665000D01*
X74796428Y-74665000D01*
X74867857Y-74700714D01*
X74903571Y-74736428D01*
X74939285Y-74807857D01*
X74939285Y-75022142D01*
X74903571Y-75093571D01*
X74867857Y-75129285D01*
X74189285Y-74415000D02*
X74189285Y-73950714D01*
X74475000Y-74200714D01*
X74475000Y-74093571D01*
X74510714Y-74022142D01*
X74546428Y-73986428D01*
X74617857Y-73950714D01*
X74796428Y-73950714D01*
X74867857Y-73986428D01*
X74903571Y-74022142D01*
X74939285Y-74093571D01*
X74939285Y-74307857D01*
X74903571Y-74379285D01*
X74867857Y-74415000D01*
X74189285Y-73486428D02*
X74189285Y-73415000D01*
X74225000Y-73343571D01*
X74260714Y-73307857D01*
X74332142Y-73272142D01*
X74475000Y-73236428D01*
X74653571Y-73236428D01*
X74796428Y-73272142D01*
X74867857Y-73307857D01*
X74903571Y-73343571D01*
X74939285Y-73415000D01*
X74939285Y-73486428D01*
X74903571Y-73557857D01*
X74867857Y-73593571D01*
X74796428Y-73629285D01*
X74653571Y-73665000D01*
X74475000Y-73665000D01*
X74332142Y-73629285D01*
X74260714Y-73593571D01*
X74225000Y-73557857D01*
X74189285Y-73486428D01*
X74939285Y-72915000D02*
X74189285Y-72915000D01*
X74939285Y-72486428D02*
X74510714Y-72807857D01*
X74189285Y-72486428D02*
X74617857Y-72915000D01*
%TO.C,R5*%
X79171285Y-113635000D02*
X78814142Y-113885000D01*
X79171285Y-114063571D02*
X78421285Y-114063571D01*
X78421285Y-113777857D01*
X78457000Y-113706428D01*
X78492714Y-113670714D01*
X78564142Y-113635000D01*
X78671285Y-113635000D01*
X78742714Y-113670714D01*
X78778428Y-113706428D01*
X78814142Y-113777857D01*
X78814142Y-114063571D01*
X78421285Y-112956428D02*
X78421285Y-113313571D01*
X78778428Y-113349285D01*
X78742714Y-113313571D01*
X78707000Y-113242142D01*
X78707000Y-113063571D01*
X78742714Y-112992142D01*
X78778428Y-112956428D01*
X78849857Y-112920714D01*
X79028428Y-112920714D01*
X79099857Y-112956428D01*
X79135571Y-112992142D01*
X79171285Y-113063571D01*
X79171285Y-113242142D01*
X79135571Y-113313571D01*
X79099857Y-113349285D01*
X76389285Y-114420714D02*
X76389285Y-114777857D01*
X76746428Y-114813571D01*
X76710714Y-114777857D01*
X76675000Y-114706428D01*
X76675000Y-114527857D01*
X76710714Y-114456428D01*
X76746428Y-114420714D01*
X76817857Y-114385000D01*
X76996428Y-114385000D01*
X77067857Y-114420714D01*
X77103571Y-114456428D01*
X77139285Y-114527857D01*
X77139285Y-114706428D01*
X77103571Y-114777857D01*
X77067857Y-114813571D01*
X77139285Y-113670714D02*
X77139285Y-114099285D01*
X77139285Y-113885000D02*
X76389285Y-113885000D01*
X76496428Y-113956428D01*
X76567857Y-114027857D01*
X76603571Y-114099285D01*
X76389285Y-113206428D02*
X76389285Y-113135000D01*
X76425000Y-113063571D01*
X76460714Y-113027857D01*
X76532142Y-112992142D01*
X76675000Y-112956428D01*
X76853571Y-112956428D01*
X76996428Y-112992142D01*
X77067857Y-113027857D01*
X77103571Y-113063571D01*
X77139285Y-113135000D01*
X77139285Y-113206428D01*
X77103571Y-113277857D01*
X77067857Y-113313571D01*
X76996428Y-113349285D01*
X76853571Y-113385000D01*
X76675000Y-113385000D01*
X76532142Y-113349285D01*
X76460714Y-113313571D01*
X76425000Y-113277857D01*
X76389285Y-113206428D01*
X77139285Y-112206428D02*
X76782142Y-112456428D01*
X77139285Y-112635000D02*
X76389285Y-112635000D01*
X76389285Y-112349285D01*
X76425000Y-112277857D01*
X76460714Y-112242142D01*
X76532142Y-112206428D01*
X76639285Y-112206428D01*
X76710714Y-112242142D01*
X76746428Y-112277857D01*
X76782142Y-112349285D01*
X76782142Y-112635000D01*
%TO.C,R6*%
X81007285Y-123515000D02*
X80650142Y-123765000D01*
X81007285Y-123943571D02*
X80257285Y-123943571D01*
X80257285Y-123657857D01*
X80293000Y-123586428D01*
X80328714Y-123550714D01*
X80400142Y-123515000D01*
X80507285Y-123515000D01*
X80578714Y-123550714D01*
X80614428Y-123586428D01*
X80650142Y-123657857D01*
X80650142Y-123943571D01*
X80257285Y-122872142D02*
X80257285Y-123015000D01*
X80293000Y-123086428D01*
X80328714Y-123122142D01*
X80435857Y-123193571D01*
X80578714Y-123229285D01*
X80864428Y-123229285D01*
X80935857Y-123193571D01*
X80971571Y-123157857D01*
X81007285Y-123086428D01*
X81007285Y-122943571D01*
X80971571Y-122872142D01*
X80935857Y-122836428D01*
X80864428Y-122800714D01*
X80685857Y-122800714D01*
X80614428Y-122836428D01*
X80578714Y-122872142D01*
X80543000Y-122943571D01*
X80543000Y-123086428D01*
X80578714Y-123157857D01*
X80614428Y-123193571D01*
X80685857Y-123229285D01*
X82289285Y-124300714D02*
X82289285Y-124657857D01*
X82646428Y-124693571D01*
X82610714Y-124657857D01*
X82575000Y-124586428D01*
X82575000Y-124407857D01*
X82610714Y-124336428D01*
X82646428Y-124300714D01*
X82717857Y-124265000D01*
X82896428Y-124265000D01*
X82967857Y-124300714D01*
X83003571Y-124336428D01*
X83039285Y-124407857D01*
X83039285Y-124586428D01*
X83003571Y-124657857D01*
X82967857Y-124693571D01*
X83039285Y-123550714D02*
X83039285Y-123979285D01*
X83039285Y-123765000D02*
X82289285Y-123765000D01*
X82396428Y-123836428D01*
X82467857Y-123907857D01*
X82503571Y-123979285D01*
X82289285Y-123086428D02*
X82289285Y-123015000D01*
X82325000Y-122943571D01*
X82360714Y-122907857D01*
X82432142Y-122872142D01*
X82575000Y-122836428D01*
X82753571Y-122836428D01*
X82896428Y-122872142D01*
X82967857Y-122907857D01*
X83003571Y-122943571D01*
X83039285Y-123015000D01*
X83039285Y-123086428D01*
X83003571Y-123157857D01*
X82967857Y-123193571D01*
X82896428Y-123229285D01*
X82753571Y-123265000D01*
X82575000Y-123265000D01*
X82432142Y-123229285D01*
X82360714Y-123193571D01*
X82325000Y-123157857D01*
X82289285Y-123086428D01*
X83039285Y-122086428D02*
X82682142Y-122336428D01*
X83039285Y-122515000D02*
X82289285Y-122515000D01*
X82289285Y-122229285D01*
X82325000Y-122157857D01*
X82360714Y-122122142D01*
X82432142Y-122086428D01*
X82539285Y-122086428D01*
X82610714Y-122122142D01*
X82646428Y-122157857D01*
X82682142Y-122229285D01*
X82682142Y-122515000D01*
%TO.C,R7*%
X68807285Y-113615000D02*
X68450142Y-113865000D01*
X68807285Y-114043571D02*
X68057285Y-114043571D01*
X68057285Y-113757857D01*
X68093000Y-113686428D01*
X68128714Y-113650714D01*
X68200142Y-113615000D01*
X68307285Y-113615000D01*
X68378714Y-113650714D01*
X68414428Y-113686428D01*
X68450142Y-113757857D01*
X68450142Y-114043571D01*
X68057285Y-113365000D02*
X68057285Y-112865000D01*
X68807285Y-113186428D01*
X70089285Y-114400714D02*
X70089285Y-114757857D01*
X70446428Y-114793571D01*
X70410714Y-114757857D01*
X70375000Y-114686428D01*
X70375000Y-114507857D01*
X70410714Y-114436428D01*
X70446428Y-114400714D01*
X70517857Y-114365000D01*
X70696428Y-114365000D01*
X70767857Y-114400714D01*
X70803571Y-114436428D01*
X70839285Y-114507857D01*
X70839285Y-114686428D01*
X70803571Y-114757857D01*
X70767857Y-114793571D01*
X70839285Y-113650714D02*
X70839285Y-114079285D01*
X70839285Y-113865000D02*
X70089285Y-113865000D01*
X70196428Y-113936428D01*
X70267857Y-114007857D01*
X70303571Y-114079285D01*
X70089285Y-113186428D02*
X70089285Y-113115000D01*
X70125000Y-113043571D01*
X70160714Y-113007857D01*
X70232142Y-112972142D01*
X70375000Y-112936428D01*
X70553571Y-112936428D01*
X70696428Y-112972142D01*
X70767857Y-113007857D01*
X70803571Y-113043571D01*
X70839285Y-113115000D01*
X70839285Y-113186428D01*
X70803571Y-113257857D01*
X70767857Y-113293571D01*
X70696428Y-113329285D01*
X70553571Y-113365000D01*
X70375000Y-113365000D01*
X70232142Y-113329285D01*
X70160714Y-113293571D01*
X70125000Y-113257857D01*
X70089285Y-113186428D01*
X70839285Y-112186428D02*
X70482142Y-112436428D01*
X70839285Y-112615000D02*
X70089285Y-112615000D01*
X70089285Y-112329285D01*
X70125000Y-112257857D01*
X70160714Y-112222142D01*
X70232142Y-112186428D01*
X70339285Y-112186428D01*
X70410714Y-112222142D01*
X70446428Y-112257857D01*
X70482142Y-112329285D01*
X70482142Y-112615000D01*
%TO.C,R8*%
X72007285Y-113615000D02*
X71650142Y-113865000D01*
X72007285Y-114043571D02*
X71257285Y-114043571D01*
X71257285Y-113757857D01*
X71293000Y-113686428D01*
X71328714Y-113650714D01*
X71400142Y-113615000D01*
X71507285Y-113615000D01*
X71578714Y-113650714D01*
X71614428Y-113686428D01*
X71650142Y-113757857D01*
X71650142Y-114043571D01*
X71578714Y-113186428D02*
X71543000Y-113257857D01*
X71507285Y-113293571D01*
X71435857Y-113329285D01*
X71400142Y-113329285D01*
X71328714Y-113293571D01*
X71293000Y-113257857D01*
X71257285Y-113186428D01*
X71257285Y-113043571D01*
X71293000Y-112972142D01*
X71328714Y-112936428D01*
X71400142Y-112900714D01*
X71435857Y-112900714D01*
X71507285Y-112936428D01*
X71543000Y-112972142D01*
X71578714Y-113043571D01*
X71578714Y-113186428D01*
X71614428Y-113257857D01*
X71650142Y-113293571D01*
X71721571Y-113329285D01*
X71864428Y-113329285D01*
X71935857Y-113293571D01*
X71971571Y-113257857D01*
X72007285Y-113186428D01*
X72007285Y-113043571D01*
X71971571Y-112972142D01*
X71935857Y-112936428D01*
X71864428Y-112900714D01*
X71721571Y-112900714D01*
X71650142Y-112936428D01*
X71614428Y-112972142D01*
X71578714Y-113043571D01*
X73289285Y-114400714D02*
X73289285Y-114757857D01*
X73646428Y-114793571D01*
X73610714Y-114757857D01*
X73575000Y-114686428D01*
X73575000Y-114507857D01*
X73610714Y-114436428D01*
X73646428Y-114400714D01*
X73717857Y-114365000D01*
X73896428Y-114365000D01*
X73967857Y-114400714D01*
X74003571Y-114436428D01*
X74039285Y-114507857D01*
X74039285Y-114686428D01*
X74003571Y-114757857D01*
X73967857Y-114793571D01*
X74039285Y-113650714D02*
X74039285Y-114079285D01*
X74039285Y-113865000D02*
X73289285Y-113865000D01*
X73396428Y-113936428D01*
X73467857Y-114007857D01*
X73503571Y-114079285D01*
X73289285Y-113186428D02*
X73289285Y-113115000D01*
X73325000Y-113043571D01*
X73360714Y-113007857D01*
X73432142Y-112972142D01*
X73575000Y-112936428D01*
X73753571Y-112936428D01*
X73896428Y-112972142D01*
X73967857Y-113007857D01*
X74003571Y-113043571D01*
X74039285Y-113115000D01*
X74039285Y-113186428D01*
X74003571Y-113257857D01*
X73967857Y-113293571D01*
X73896428Y-113329285D01*
X73753571Y-113365000D01*
X73575000Y-113365000D01*
X73432142Y-113329285D01*
X73360714Y-113293571D01*
X73325000Y-113257857D01*
X73289285Y-113186428D01*
X74039285Y-112186428D02*
X73682142Y-112436428D01*
X74039285Y-112615000D02*
X73289285Y-112615000D01*
X73289285Y-112329285D01*
X73325000Y-112257857D01*
X73360714Y-112222142D01*
X73432142Y-112186428D01*
X73539285Y-112186428D01*
X73610714Y-112222142D01*
X73646428Y-112257857D01*
X73682142Y-112329285D01*
X73682142Y-112615000D01*
%TO.C,R9*%
X88371285Y-113635000D02*
X88014142Y-113885000D01*
X88371285Y-114063571D02*
X87621285Y-114063571D01*
X87621285Y-113777857D01*
X87657000Y-113706428D01*
X87692714Y-113670714D01*
X87764142Y-113635000D01*
X87871285Y-113635000D01*
X87942714Y-113670714D01*
X87978428Y-113706428D01*
X88014142Y-113777857D01*
X88014142Y-114063571D01*
X88371285Y-113277857D02*
X88371285Y-113135000D01*
X88335571Y-113063571D01*
X88299857Y-113027857D01*
X88192714Y-112956428D01*
X88049857Y-112920714D01*
X87764142Y-112920714D01*
X87692714Y-112956428D01*
X87657000Y-112992142D01*
X87621285Y-113063571D01*
X87621285Y-113206428D01*
X87657000Y-113277857D01*
X87692714Y-113313571D01*
X87764142Y-113349285D01*
X87942714Y-113349285D01*
X88014142Y-113313571D01*
X88049857Y-113277857D01*
X88085571Y-113206428D01*
X88085571Y-113063571D01*
X88049857Y-112992142D01*
X88014142Y-112956428D01*
X87942714Y-112920714D01*
X85589285Y-114849285D02*
X85589285Y-114385000D01*
X85875000Y-114635000D01*
X85875000Y-114527857D01*
X85910714Y-114456428D01*
X85946428Y-114420714D01*
X86017857Y-114385000D01*
X86196428Y-114385000D01*
X86267857Y-114420714D01*
X86303571Y-114456428D01*
X86339285Y-114527857D01*
X86339285Y-114742142D01*
X86303571Y-114813571D01*
X86267857Y-114849285D01*
X85589285Y-114135000D02*
X85589285Y-113670714D01*
X85875000Y-113920714D01*
X85875000Y-113813571D01*
X85910714Y-113742142D01*
X85946428Y-113706428D01*
X86017857Y-113670714D01*
X86196428Y-113670714D01*
X86267857Y-113706428D01*
X86303571Y-113742142D01*
X86339285Y-113813571D01*
X86339285Y-114027857D01*
X86303571Y-114099285D01*
X86267857Y-114135000D01*
X85589285Y-113206428D02*
X85589285Y-113135000D01*
X85625000Y-113063571D01*
X85660714Y-113027857D01*
X85732142Y-112992142D01*
X85875000Y-112956428D01*
X86053571Y-112956428D01*
X86196428Y-112992142D01*
X86267857Y-113027857D01*
X86303571Y-113063571D01*
X86339285Y-113135000D01*
X86339285Y-113206428D01*
X86303571Y-113277857D01*
X86267857Y-113313571D01*
X86196428Y-113349285D01*
X86053571Y-113385000D01*
X85875000Y-113385000D01*
X85732142Y-113349285D01*
X85660714Y-113313571D01*
X85625000Y-113277857D01*
X85589285Y-113206428D01*
X86339285Y-112635000D02*
X85589285Y-112635000D01*
X86339285Y-112206428D02*
X85910714Y-112527857D01*
X85589285Y-112206428D02*
X86017857Y-112635000D01*
%TO.C,R10*%
X87307285Y-113972142D02*
X86950142Y-114222142D01*
X87307285Y-114400714D02*
X86557285Y-114400714D01*
X86557285Y-114115000D01*
X86593000Y-114043571D01*
X86628714Y-114007857D01*
X86700142Y-113972142D01*
X86807285Y-113972142D01*
X86878714Y-114007857D01*
X86914428Y-114043571D01*
X86950142Y-114115000D01*
X86950142Y-114400714D01*
X87307285Y-113257857D02*
X87307285Y-113686428D01*
X87307285Y-113472142D02*
X86557285Y-113472142D01*
X86664428Y-113543571D01*
X86735857Y-113615000D01*
X86771571Y-113686428D01*
X86557285Y-112793571D02*
X86557285Y-112722142D01*
X86593000Y-112650714D01*
X86628714Y-112615000D01*
X86700142Y-112579285D01*
X86843000Y-112543571D01*
X87021571Y-112543571D01*
X87164428Y-112579285D01*
X87235857Y-112615000D01*
X87271571Y-112650714D01*
X87307285Y-112722142D01*
X87307285Y-112793571D01*
X87271571Y-112865000D01*
X87235857Y-112900714D01*
X87164428Y-112936428D01*
X87021571Y-112972142D01*
X86843000Y-112972142D01*
X86700142Y-112936428D01*
X86628714Y-112900714D01*
X86593000Y-112865000D01*
X86557285Y-112793571D01*
X89339285Y-114365000D02*
X89339285Y-114793571D01*
X89339285Y-114579285D02*
X88589285Y-114579285D01*
X88696428Y-114650714D01*
X88767857Y-114722142D01*
X88803571Y-114793571D01*
X88589285Y-113900714D02*
X88589285Y-113829285D01*
X88625000Y-113757857D01*
X88660714Y-113722142D01*
X88732142Y-113686428D01*
X88875000Y-113650714D01*
X89053571Y-113650714D01*
X89196428Y-113686428D01*
X89267857Y-113722142D01*
X89303571Y-113757857D01*
X89339285Y-113829285D01*
X89339285Y-113900714D01*
X89303571Y-113972142D01*
X89267857Y-114007857D01*
X89196428Y-114043571D01*
X89053571Y-114079285D01*
X88875000Y-114079285D01*
X88732142Y-114043571D01*
X88660714Y-114007857D01*
X88625000Y-113972142D01*
X88589285Y-113900714D01*
X88589285Y-113186428D02*
X88589285Y-113115000D01*
X88625000Y-113043571D01*
X88660714Y-113007857D01*
X88732142Y-112972142D01*
X88875000Y-112936428D01*
X89053571Y-112936428D01*
X89196428Y-112972142D01*
X89267857Y-113007857D01*
X89303571Y-113043571D01*
X89339285Y-113115000D01*
X89339285Y-113186428D01*
X89303571Y-113257857D01*
X89267857Y-113293571D01*
X89196428Y-113329285D01*
X89053571Y-113365000D01*
X88875000Y-113365000D01*
X88732142Y-113329285D01*
X88660714Y-113293571D01*
X88625000Y-113257857D01*
X88589285Y-113186428D01*
X89339285Y-112615000D02*
X88589285Y-112615000D01*
X89339285Y-112186428D02*
X88910714Y-112507857D01*
X88589285Y-112186428D02*
X89017857Y-112615000D01*
%TO.C,R11*%
X82371285Y-85792142D02*
X82014142Y-86042142D01*
X82371285Y-86220714D02*
X81621285Y-86220714D01*
X81621285Y-85935000D01*
X81657000Y-85863571D01*
X81692714Y-85827857D01*
X81764142Y-85792142D01*
X81871285Y-85792142D01*
X81942714Y-85827857D01*
X81978428Y-85863571D01*
X82014142Y-85935000D01*
X82014142Y-86220714D01*
X82371285Y-85077857D02*
X82371285Y-85506428D01*
X82371285Y-85292142D02*
X81621285Y-85292142D01*
X81728428Y-85363571D01*
X81799857Y-85435000D01*
X81835571Y-85506428D01*
X82371285Y-84363571D02*
X82371285Y-84792142D01*
X82371285Y-84577857D02*
X81621285Y-84577857D01*
X81728428Y-84649285D01*
X81799857Y-84720714D01*
X81835571Y-84792142D01*
X79660714Y-86256428D02*
X79625000Y-86220714D01*
X79589285Y-86149285D01*
X79589285Y-85970714D01*
X79625000Y-85899285D01*
X79660714Y-85863571D01*
X79732142Y-85827857D01*
X79803571Y-85827857D01*
X79910714Y-85863571D01*
X80339285Y-86292142D01*
X80339285Y-85827857D01*
X79660714Y-85542142D02*
X79625000Y-85506428D01*
X79589285Y-85435000D01*
X79589285Y-85256428D01*
X79625000Y-85185000D01*
X79660714Y-85149285D01*
X79732142Y-85113571D01*
X79803571Y-85113571D01*
X79910714Y-85149285D01*
X80339285Y-85577857D01*
X80339285Y-85113571D01*
X80339285Y-84792142D02*
X79589285Y-84792142D01*
X80339285Y-84363571D02*
X79910714Y-84685000D01*
X79589285Y-84363571D02*
X80017857Y-84792142D01*
%TO.C,R13*%
X76107285Y-74272142D02*
X75750142Y-74522142D01*
X76107285Y-74700714D02*
X75357285Y-74700714D01*
X75357285Y-74415000D01*
X75393000Y-74343571D01*
X75428714Y-74307857D01*
X75500142Y-74272142D01*
X75607285Y-74272142D01*
X75678714Y-74307857D01*
X75714428Y-74343571D01*
X75750142Y-74415000D01*
X75750142Y-74700714D01*
X76107285Y-73557857D02*
X76107285Y-73986428D01*
X76107285Y-73772142D02*
X75357285Y-73772142D01*
X75464428Y-73843571D01*
X75535857Y-73915000D01*
X75571571Y-73986428D01*
X75357285Y-73307857D02*
X75357285Y-72843571D01*
X75643000Y-73093571D01*
X75643000Y-72986428D01*
X75678714Y-72915000D01*
X75714428Y-72879285D01*
X75785857Y-72843571D01*
X75964428Y-72843571D01*
X76035857Y-72879285D01*
X76071571Y-72915000D01*
X76107285Y-72986428D01*
X76107285Y-73200714D01*
X76071571Y-73272142D01*
X76035857Y-73307857D01*
X78139285Y-74665000D02*
X78139285Y-75093571D01*
X78139285Y-74879285D02*
X77389285Y-74879285D01*
X77496428Y-74950714D01*
X77567857Y-75022142D01*
X77603571Y-75093571D01*
X77389285Y-74200714D02*
X77389285Y-74129285D01*
X77425000Y-74057857D01*
X77460714Y-74022142D01*
X77532142Y-73986428D01*
X77675000Y-73950714D01*
X77853571Y-73950714D01*
X77996428Y-73986428D01*
X78067857Y-74022142D01*
X78103571Y-74057857D01*
X78139285Y-74129285D01*
X78139285Y-74200714D01*
X78103571Y-74272142D01*
X78067857Y-74307857D01*
X77996428Y-74343571D01*
X77853571Y-74379285D01*
X77675000Y-74379285D01*
X77532142Y-74343571D01*
X77460714Y-74307857D01*
X77425000Y-74272142D01*
X77389285Y-74200714D01*
X77389285Y-73486428D02*
X77389285Y-73415000D01*
X77425000Y-73343571D01*
X77460714Y-73307857D01*
X77532142Y-73272142D01*
X77675000Y-73236428D01*
X77853571Y-73236428D01*
X77996428Y-73272142D01*
X78067857Y-73307857D01*
X78103571Y-73343571D01*
X78139285Y-73415000D01*
X78139285Y-73486428D01*
X78103571Y-73557857D01*
X78067857Y-73593571D01*
X77996428Y-73629285D01*
X77853571Y-73665000D01*
X77675000Y-73665000D01*
X77532142Y-73629285D01*
X77460714Y-73593571D01*
X77425000Y-73557857D01*
X77389285Y-73486428D01*
X78139285Y-72915000D02*
X77389285Y-72915000D01*
X78139285Y-72486428D02*
X77710714Y-72807857D01*
X77389285Y-72486428D02*
X77817857Y-72915000D01*
%TO.C,R14*%
X81971285Y-123892142D02*
X81614142Y-124142142D01*
X81971285Y-124320714D02*
X81221285Y-124320714D01*
X81221285Y-124035000D01*
X81257000Y-123963571D01*
X81292714Y-123927857D01*
X81364142Y-123892142D01*
X81471285Y-123892142D01*
X81542714Y-123927857D01*
X81578428Y-123963571D01*
X81614142Y-124035000D01*
X81614142Y-124320714D01*
X81971285Y-123177857D02*
X81971285Y-123606428D01*
X81971285Y-123392142D02*
X81221285Y-123392142D01*
X81328428Y-123463571D01*
X81399857Y-123535000D01*
X81435571Y-123606428D01*
X81471285Y-122535000D02*
X81971285Y-122535000D01*
X81185571Y-122713571D02*
X81721285Y-122892142D01*
X81721285Y-122427857D01*
X79939285Y-124285000D02*
X79939285Y-124713571D01*
X79939285Y-124499285D02*
X79189285Y-124499285D01*
X79296428Y-124570714D01*
X79367857Y-124642142D01*
X79403571Y-124713571D01*
X79189285Y-123820714D02*
X79189285Y-123749285D01*
X79225000Y-123677857D01*
X79260714Y-123642142D01*
X79332142Y-123606428D01*
X79475000Y-123570714D01*
X79653571Y-123570714D01*
X79796428Y-123606428D01*
X79867857Y-123642142D01*
X79903571Y-123677857D01*
X79939285Y-123749285D01*
X79939285Y-123820714D01*
X79903571Y-123892142D01*
X79867857Y-123927857D01*
X79796428Y-123963571D01*
X79653571Y-123999285D01*
X79475000Y-123999285D01*
X79332142Y-123963571D01*
X79260714Y-123927857D01*
X79225000Y-123892142D01*
X79189285Y-123820714D01*
X79189285Y-123106428D02*
X79189285Y-123035000D01*
X79225000Y-122963571D01*
X79260714Y-122927857D01*
X79332142Y-122892142D01*
X79475000Y-122856428D01*
X79653571Y-122856428D01*
X79796428Y-122892142D01*
X79867857Y-122927857D01*
X79903571Y-122963571D01*
X79939285Y-123035000D01*
X79939285Y-123106428D01*
X79903571Y-123177857D01*
X79867857Y-123213571D01*
X79796428Y-123249285D01*
X79653571Y-123285000D01*
X79475000Y-123285000D01*
X79332142Y-123249285D01*
X79260714Y-123213571D01*
X79225000Y-123177857D01*
X79189285Y-123106428D01*
X79939285Y-122535000D02*
X79189285Y-122535000D01*
X79939285Y-122106428D02*
X79510714Y-122427857D01*
X79189285Y-122106428D02*
X79617857Y-122535000D01*
%TO.C,R15*%
X74807285Y-123872142D02*
X74450142Y-124122142D01*
X74807285Y-124300714D02*
X74057285Y-124300714D01*
X74057285Y-124015000D01*
X74093000Y-123943571D01*
X74128714Y-123907857D01*
X74200142Y-123872142D01*
X74307285Y-123872142D01*
X74378714Y-123907857D01*
X74414428Y-123943571D01*
X74450142Y-124015000D01*
X74450142Y-124300714D01*
X74807285Y-123157857D02*
X74807285Y-123586428D01*
X74807285Y-123372142D02*
X74057285Y-123372142D01*
X74164428Y-123443571D01*
X74235857Y-123515000D01*
X74271571Y-123586428D01*
X74057285Y-122479285D02*
X74057285Y-122836428D01*
X74414428Y-122872142D01*
X74378714Y-122836428D01*
X74343000Y-122765000D01*
X74343000Y-122586428D01*
X74378714Y-122515000D01*
X74414428Y-122479285D01*
X74485857Y-122443571D01*
X74664428Y-122443571D01*
X74735857Y-122479285D01*
X74771571Y-122515000D01*
X74807285Y-122586428D01*
X74807285Y-122765000D01*
X74771571Y-122836428D01*
X74735857Y-122872142D01*
X76839285Y-123907857D02*
X76839285Y-124336428D01*
X76839285Y-124122142D02*
X76089285Y-124122142D01*
X76196428Y-124193571D01*
X76267857Y-124265000D01*
X76303571Y-124336428D01*
X76089285Y-123229285D02*
X76089285Y-123586428D01*
X76446428Y-123622142D01*
X76410714Y-123586428D01*
X76375000Y-123515000D01*
X76375000Y-123336428D01*
X76410714Y-123265000D01*
X76446428Y-123229285D01*
X76517857Y-123193571D01*
X76696428Y-123193571D01*
X76767857Y-123229285D01*
X76803571Y-123265000D01*
X76839285Y-123336428D01*
X76839285Y-123515000D01*
X76803571Y-123586428D01*
X76767857Y-123622142D01*
X76839285Y-122872142D02*
X76089285Y-122872142D01*
X76839285Y-122443571D02*
X76410714Y-122765000D01*
X76089285Y-122443571D02*
X76517857Y-122872142D01*
%TO.C,R16*%
X76107857Y-98171285D02*
X75857857Y-97814142D01*
X75679285Y-98171285D02*
X75679285Y-97421285D01*
X75965000Y-97421285D01*
X76036428Y-97457000D01*
X76072142Y-97492714D01*
X76107857Y-97564142D01*
X76107857Y-97671285D01*
X76072142Y-97742714D01*
X76036428Y-97778428D01*
X75965000Y-97814142D01*
X75679285Y-97814142D01*
X76822142Y-98171285D02*
X76393571Y-98171285D01*
X76607857Y-98171285D02*
X76607857Y-97421285D01*
X76536428Y-97528428D01*
X76465000Y-97599857D01*
X76393571Y-97635571D01*
X77465000Y-97421285D02*
X77322142Y-97421285D01*
X77250714Y-97457000D01*
X77215000Y-97492714D01*
X77143571Y-97599857D01*
X77107857Y-97742714D01*
X77107857Y-98028428D01*
X77143571Y-98099857D01*
X77179285Y-98135571D01*
X77250714Y-98171285D01*
X77393571Y-98171285D01*
X77465000Y-98135571D01*
X77500714Y-98099857D01*
X77536428Y-98028428D01*
X77536428Y-97849857D01*
X77500714Y-97778428D01*
X77465000Y-97742714D01*
X77393571Y-97707000D01*
X77250714Y-97707000D01*
X77179285Y-97742714D01*
X77143571Y-97778428D01*
X77107857Y-97849857D01*
X75429285Y-95389285D02*
X75893571Y-95389285D01*
X75643571Y-95675000D01*
X75750714Y-95675000D01*
X75822142Y-95710714D01*
X75857857Y-95746428D01*
X75893571Y-95817857D01*
X75893571Y-95996428D01*
X75857857Y-96067857D01*
X75822142Y-96103571D01*
X75750714Y-96139285D01*
X75536428Y-96139285D01*
X75465000Y-96103571D01*
X75429285Y-96067857D01*
X76215000Y-96067857D02*
X76250714Y-96103571D01*
X76215000Y-96139285D01*
X76179285Y-96103571D01*
X76215000Y-96067857D01*
X76215000Y-96139285D01*
X76500714Y-95389285D02*
X76965000Y-95389285D01*
X76715000Y-95675000D01*
X76822142Y-95675000D01*
X76893571Y-95710714D01*
X76929285Y-95746428D01*
X76965000Y-95817857D01*
X76965000Y-95996428D01*
X76929285Y-96067857D01*
X76893571Y-96103571D01*
X76822142Y-96139285D01*
X76607857Y-96139285D01*
X76536428Y-96103571D01*
X76500714Y-96067857D01*
X77286428Y-96139285D02*
X77286428Y-95389285D01*
X77715000Y-96139285D02*
X77393571Y-95710714D01*
X77715000Y-95389285D02*
X77286428Y-95817857D01*
%TO.C,R17*%
X90971285Y-123792142D02*
X90614142Y-124042142D01*
X90971285Y-124220714D02*
X90221285Y-124220714D01*
X90221285Y-123935000D01*
X90257000Y-123863571D01*
X90292714Y-123827857D01*
X90364142Y-123792142D01*
X90471285Y-123792142D01*
X90542714Y-123827857D01*
X90578428Y-123863571D01*
X90614142Y-123935000D01*
X90614142Y-124220714D01*
X90971285Y-123077857D02*
X90971285Y-123506428D01*
X90971285Y-123292142D02*
X90221285Y-123292142D01*
X90328428Y-123363571D01*
X90399857Y-123435000D01*
X90435571Y-123506428D01*
X90221285Y-122827857D02*
X90221285Y-122327857D01*
X90971285Y-122649285D01*
X88939285Y-123470714D02*
X88939285Y-123899285D01*
X88939285Y-123685000D02*
X88189285Y-123685000D01*
X88296428Y-123756428D01*
X88367857Y-123827857D01*
X88403571Y-123899285D01*
X88939285Y-123149285D02*
X88189285Y-123149285D01*
X88939285Y-122720714D02*
X88510714Y-123042142D01*
X88189285Y-122720714D02*
X88617857Y-123149285D01*
%TO.C,J5*%
X80259285Y-46600000D02*
X80795000Y-46600000D01*
X80902142Y-46635714D01*
X80973571Y-46707142D01*
X81009285Y-46814285D01*
X81009285Y-46885714D01*
X80259285Y-45885714D02*
X80259285Y-46242857D01*
X80616428Y-46278571D01*
X80580714Y-46242857D01*
X80545000Y-46171428D01*
X80545000Y-45992857D01*
X80580714Y-45921428D01*
X80616428Y-45885714D01*
X80687857Y-45850000D01*
X80866428Y-45850000D01*
X80937857Y-45885714D01*
X80973571Y-45921428D01*
X81009285Y-45992857D01*
X81009285Y-46171428D01*
X80973571Y-46242857D01*
X80937857Y-46278571D01*
X91571428Y-41261904D02*
X91571428Y-40500000D01*
X91952380Y-40880952D02*
X91190476Y-40880952D01*
X91952380Y-39500000D02*
X91952380Y-40071428D01*
X91952380Y-39785714D02*
X90952380Y-39785714D01*
X91095238Y-39880952D01*
X91190476Y-39976190D01*
X91238095Y-40071428D01*
X91047619Y-39119047D02*
X91000000Y-39071428D01*
X90952380Y-38976190D01*
X90952380Y-38738095D01*
X91000000Y-38642857D01*
X91047619Y-38595238D01*
X91142857Y-38547619D01*
X91238095Y-38547619D01*
X91380952Y-38595238D01*
X91952380Y-39166666D01*
X91952380Y-38547619D01*
X90952380Y-38261904D02*
X91952380Y-37928571D01*
X90952380Y-37595238D01*
X69452380Y-42571428D02*
X68976190Y-42904761D01*
X69452380Y-43142857D02*
X68452380Y-43142857D01*
X68452380Y-42761904D01*
X68500000Y-42666666D01*
X68547619Y-42619047D01*
X68642857Y-42571428D01*
X68785714Y-42571428D01*
X68880952Y-42619047D01*
X68928571Y-42666666D01*
X68976190Y-42761904D01*
X68976190Y-43142857D01*
X68928571Y-42142857D02*
X68928571Y-41809523D01*
X69452380Y-41666666D02*
X69452380Y-42142857D01*
X68452380Y-42142857D01*
X68452380Y-41666666D01*
X69452380Y-41238095D02*
X68452380Y-41238095D01*
X68452380Y-41000000D01*
X68500000Y-40857142D01*
X68595238Y-40761904D01*
X68690476Y-40714285D01*
X68880952Y-40666666D01*
X69023809Y-40666666D01*
X69214285Y-40714285D01*
X69309523Y-40761904D01*
X69404761Y-40857142D01*
X69452380Y-41000000D01*
X69452380Y-41238095D01*
X69404761Y-39523809D02*
X69452380Y-39380952D01*
X69452380Y-39142857D01*
X69404761Y-39047619D01*
X69357142Y-39000000D01*
X69261904Y-38952380D01*
X69166666Y-38952380D01*
X69071428Y-39000000D01*
X69023809Y-39047619D01*
X68976190Y-39142857D01*
X68928571Y-39333333D01*
X68880952Y-39428571D01*
X68833333Y-39476190D01*
X68738095Y-39523809D01*
X68642857Y-39523809D01*
X68547619Y-39476190D01*
X68500000Y-39428571D01*
X68452380Y-39333333D01*
X68452380Y-39095238D01*
X68500000Y-38952380D01*
X68452380Y-38666666D02*
X68452380Y-38095238D01*
X69452380Y-38380952D02*
X68452380Y-38380952D01*
X69452380Y-37190476D02*
X68976190Y-37523809D01*
X69452380Y-37761904D02*
X68452380Y-37761904D01*
X68452380Y-37380952D01*
X68500000Y-37285714D01*
X68547619Y-37238095D01*
X68642857Y-37190476D01*
X68785714Y-37190476D01*
X68880952Y-37238095D01*
X68928571Y-37285714D01*
X68976190Y-37380952D01*
X68976190Y-37761904D01*
X69452380Y-36761904D02*
X68452380Y-36761904D01*
X69452380Y-36285714D02*
X68452380Y-36285714D01*
X68452380Y-35904761D01*
X68500000Y-35809523D01*
X68547619Y-35761904D01*
X68642857Y-35714285D01*
X68785714Y-35714285D01*
X68880952Y-35761904D01*
X68928571Y-35809523D01*
X68976190Y-35904761D01*
X68976190Y-36285714D01*
X68928571Y-35285714D02*
X68928571Y-34952380D01*
X69452380Y-34809523D02*
X69452380Y-35285714D01*
X68452380Y-35285714D01*
X68452380Y-34809523D01*
%TD*%
%LPC*%
D14*
%TO.C,U1*%
X88600000Y-106820000D03*
X70820000Y-99200000D03*
X86060000Y-106820000D03*
X73360000Y-99200000D03*
X83520000Y-106820000D03*
X75900000Y-99200000D03*
X80980000Y-106820000D03*
X78440000Y-99200000D03*
X78440000Y-106820000D03*
X80980000Y-99200000D03*
X75900000Y-106820000D03*
X83520000Y-99200000D03*
X73360000Y-106820000D03*
X86060000Y-99200000D03*
X70820000Y-106820000D03*
D15*
X88600000Y-99200000D03*
%TD*%
D16*
%TO.C,U2*%
X89420000Y-70360000D03*
X81800000Y-77980000D03*
X89420000Y-72900000D03*
X81800000Y-75440000D03*
X89420000Y-75440000D03*
X81800000Y-72900000D03*
X89420000Y-77980000D03*
D17*
X81800000Y-70360000D03*
%TD*%
D18*
%TO.C,D4*%
X76400000Y-45500000D03*
D19*
X76400000Y-53120000D03*
%TD*%
%TO.C,D3*%
X83400000Y-45380000D03*
D18*
X83400000Y-53000000D03*
%TD*%
%TO.C,OUT*%
G36*
G01*
X86830000Y-133850001D02*
X86830000Y-132149999D01*
G75*
G02*
X87079999Y-131900000I249999J0D01*
G01*
X88320001Y-131900000D01*
G75*
G02*
X88570000Y-132149999I0J-249999D01*
G01*
X88570000Y-133850001D01*
G75*
G02*
X88320001Y-134100000I-249999J0D01*
G01*
X87079999Y-134100000D01*
G75*
G02*
X86830000Y-133850001I0J249999D01*
G01*
G37*
D20*
X90240000Y-133000000D03*
%TD*%
%TO.C,OSC2*%
X78740000Y-133000000D03*
G36*
G01*
X75330000Y-133850001D02*
X75330000Y-132149999D01*
G75*
G02*
X75579999Y-131900000I249999J0D01*
G01*
X76820001Y-131900000D01*
G75*
G02*
X77070000Y-132149999I0J-249999D01*
G01*
X77070000Y-133850001D01*
G75*
G02*
X76820001Y-134100000I-249999J0D01*
G01*
X75579999Y-134100000D01*
G75*
G02*
X75330000Y-133850001I0J249999D01*
G01*
G37*
%TD*%
%TO.C,OSC1*%
G36*
G01*
X68930000Y-133850001D02*
X68930000Y-132149999D01*
G75*
G02*
X69179999Y-131900000I249999J0D01*
G01*
X70420001Y-131900000D01*
G75*
G02*
X70670000Y-132149999I0J-249999D01*
G01*
X70670000Y-133850001D01*
G75*
G02*
X70420001Y-134100000I-249999J0D01*
G01*
X69179999Y-134100000D01*
G75*
G02*
X68930000Y-133850001I0J249999D01*
G01*
G37*
X72340000Y-133000000D03*
%TD*%
%TO.C,CV*%
X84740000Y-133000000D03*
G36*
G01*
X81330000Y-133850001D02*
X81330000Y-132149999D01*
G75*
G02*
X81579999Y-131900000I249999J0D01*
G01*
X82820001Y-131900000D01*
G75*
G02*
X83070000Y-132149999I0J-249999D01*
G01*
X83070000Y-133850001D01*
G75*
G02*
X82820001Y-134100000I-249999J0D01*
G01*
X81579999Y-134100000D01*
G75*
G02*
X81330000Y-133850001I0J249999D01*
G01*
G37*
%TD*%
D21*
%TO.C,H2*%
X70500000Y-55000000D03*
%TD*%
D18*
%TO.C,D2*%
X89000000Y-89000000D03*
D19*
X89000000Y-81380000D03*
%TD*%
D22*
%TO.C,MIX1*%
X84300000Y-59500000D03*
X74700000Y-59500000D03*
D23*
X77000000Y-67000000D03*
X79500000Y-67000000D03*
D24*
X82000000Y-67000000D03*
%TD*%
D19*
%TO.C,D1*%
X71000000Y-81580000D03*
D18*
X71000000Y-89200000D03*
%TD*%
D24*
%TO.C,CVATTN1*%
X82400000Y-92500000D03*
D23*
X79900000Y-92500000D03*
X77400000Y-92500000D03*
D22*
X75100000Y-85000000D03*
X84700000Y-85000000D03*
%TD*%
D25*
%TO.C,C6*%
X86800000Y-77900000D03*
X86800000Y-75400000D03*
%TD*%
%TO.C,C5*%
X75500000Y-103100000D03*
X73000000Y-103100000D03*
%TD*%
%TO.C,C4*%
X86100000Y-103100000D03*
X83600000Y-103100000D03*
%TD*%
%TO.C,C3*%
X84900000Y-73200000D03*
X84900000Y-70700000D03*
%TD*%
D18*
%TO.C,C2*%
X70900000Y-48500000D03*
D25*
X72900000Y-48500000D03*
%TD*%
%TO.C,C1*%
X88900000Y-48500000D03*
D18*
X86900000Y-48500000D03*
%TD*%
D19*
%TO.C,R1*%
X70500000Y-119580000D03*
D25*
X70500000Y-127200000D03*
%TD*%
%TO.C,R2*%
X73600000Y-127200000D03*
D19*
X73600000Y-119580000D03*
%TD*%
D25*
%TO.C,R3*%
X71300000Y-77600000D03*
D19*
X71300000Y-69980000D03*
%TD*%
%TO.C,R4*%
X74600000Y-69980000D03*
D25*
X74600000Y-77600000D03*
%TD*%
D19*
%TO.C,R5*%
X76800000Y-117320000D03*
D25*
X76800000Y-109700000D03*
%TD*%
%TO.C,R6*%
X82700000Y-127200000D03*
D19*
X82700000Y-119580000D03*
%TD*%
%TO.C,R7*%
X70500000Y-109680000D03*
D25*
X70500000Y-117300000D03*
%TD*%
%TO.C,R8*%
X73700000Y-117300000D03*
D19*
X73700000Y-109680000D03*
%TD*%
D25*
%TO.C,R9*%
X86000000Y-109700000D03*
D19*
X86000000Y-117320000D03*
%TD*%
%TO.C,R10*%
X89000000Y-109680000D03*
D25*
X89000000Y-117300000D03*
%TD*%
%TO.C,R11*%
X80000000Y-81500000D03*
D19*
X80000000Y-89120000D03*
%TD*%
D25*
%TO.C,R12*%
X89400000Y-102500000D03*
D19*
X89400000Y-94880000D03*
%TD*%
D25*
%TO.C,R13*%
X77800000Y-77600000D03*
D19*
X77800000Y-69980000D03*
%TD*%
%TO.C,R14*%
X79600000Y-127220000D03*
D25*
X79600000Y-119600000D03*
%TD*%
%TO.C,R15*%
X76500000Y-127200000D03*
D19*
X76500000Y-119580000D03*
%TD*%
%TO.C,R16*%
X72780000Y-95800000D03*
D25*
X80400000Y-95800000D03*
%TD*%
D19*
%TO.C,R17*%
X88600000Y-127120000D03*
D25*
X88600000Y-119500000D03*
%TD*%
D26*
%TO.C,J5*%
X75000000Y-40500000D03*
D27*
X75000000Y-37960000D03*
X77540000Y-40500000D03*
X77540000Y-37960000D03*
X80080000Y-40500000D03*
X80080000Y-37960000D03*
X82620000Y-40500000D03*
X82620000Y-37960000D03*
X85160000Y-40500000D03*
X85160000Y-37960000D03*
%TD*%
M02*
