%TF.GenerationSoftware,KiCad,Pcbnew,(5.1.12-1-10_14)*%
%TF.CreationDate,2021-12-12T17:33:21+01:00*%
%TF.ProjectId,kross,6b726f73-732e-46b6-9963-61645f706362,rev?*%
%TF.SameCoordinates,Original*%
%TF.FileFunction,Copper,L1,Top*%
%TF.FilePolarity,Positive*%
%FSLAX46Y46*%
G04 Gerber Fmt 4.6, Leading zero omitted, Abs format (unit mm)*
G04 Created by KiCad (PCBNEW (5.1.12-1-10_14)) date 2021-12-12 17:33:21*
%MOMM*%
%LPD*%
G01*
G04 APERTURE LIST*
%TA.AperFunction,ComponentPad*%
%ADD10O,1.600000X2.400000*%
%TD*%
%TA.AperFunction,ComponentPad*%
%ADD11R,1.600000X2.400000*%
%TD*%
%TA.AperFunction,ComponentPad*%
%ADD12O,2.400000X1.600000*%
%TD*%
%TA.AperFunction,ComponentPad*%
%ADD13R,2.400000X1.600000*%
%TD*%
%TA.AperFunction,ComponentPad*%
%ADD14R,1.600000X1.600000*%
%TD*%
%TA.AperFunction,ComponentPad*%
%ADD15O,1.600000X1.600000*%
%TD*%
%TA.AperFunction,ComponentPad*%
%ADD16O,1.740000X2.200000*%
%TD*%
%TA.AperFunction,ComponentPad*%
%ADD17C,3.240000*%
%TD*%
%TA.AperFunction,ComponentPad*%
%ADD18C,1.800000*%
%TD*%
%TA.AperFunction,ComponentPad*%
%ADD19R,1.800000X1.800000*%
%TD*%
%TA.AperFunction,ComponentPad*%
%ADD20C,1.600000*%
%TD*%
%TA.AperFunction,ComponentPad*%
%ADD21R,1.727200X1.727200*%
%TD*%
%TA.AperFunction,ComponentPad*%
%ADD22O,1.727200X1.727200*%
%TD*%
%TA.AperFunction,ViaPad*%
%ADD23C,0.800000*%
%TD*%
%TA.AperFunction,Conductor*%
%ADD24C,0.250000*%
%TD*%
%TA.AperFunction,NonConductor*%
%ADD25C,0.254000*%
%TD*%
%TA.AperFunction,NonConductor*%
%ADD26C,0.100000*%
%TD*%
G04 APERTURE END LIST*
D10*
%TO.P,U1,16*%
%TO.N,Net-(R12-Pad1)*%
X88600000Y-106820000D03*
%TO.P,U1,8*%
%TO.N,Net-(R16-Pad2)*%
X70820000Y-99200000D03*
%TO.P,U1,15*%
%TO.N,Net-(U1-Pad15)*%
X86060000Y-106820000D03*
%TO.P,U1,7*%
%TO.N,Net-(R14-Pad1)*%
X73360000Y-99200000D03*
%TO.P,U1,14*%
%TO.N,Net-(R2-Pad2)*%
X83520000Y-106820000D03*
%TO.P,U1,6*%
%TO.N,Net-(C2-Pad2)*%
X75900000Y-99200000D03*
%TO.P,U1,13*%
%TO.N,Net-(R8-Pad2)*%
X80980000Y-106820000D03*
%TO.P,U1,5*%
%TO.N,Net-(R14-Pad1)*%
X78440000Y-99200000D03*
%TO.P,U1,12*%
X78440000Y-106820000D03*
%TO.P,U1,4*%
%TO.N,Net-(R7-Pad2)*%
X80980000Y-99200000D03*
%TO.P,U1,11*%
%TO.N,Net-(C1-Pad1)*%
X75900000Y-106820000D03*
%TO.P,U1,3*%
%TO.N,Net-(R1-Pad2)*%
X83520000Y-99200000D03*
%TO.P,U1,10*%
%TO.N,Net-(U1-Pad10)*%
X73360000Y-106820000D03*
%TO.P,U1,2*%
%TO.N,Net-(U1-Pad2)*%
X86060000Y-99200000D03*
%TO.P,U1,9*%
%TO.N,Net-(U1-Pad9)*%
X70820000Y-106820000D03*
D11*
%TO.P,U1,1*%
%TO.N,Net-(R11-Pad1)*%
X88600000Y-99200000D03*
%TD*%
D12*
%TO.P,U2,8*%
%TO.N,Net-(C1-Pad1)*%
X89420000Y-70360000D03*
%TO.P,U2,4*%
%TO.N,Net-(C2-Pad2)*%
X81800000Y-77980000D03*
%TO.P,U2,7*%
%TO.N,Net-(D2-Pad2)*%
X89420000Y-72900000D03*
%TO.P,U2,3*%
%TO.N,GND*%
X81800000Y-75440000D03*
%TO.P,U2,6*%
%TO.N,Net-(R10-Pad2)*%
X89420000Y-75440000D03*
%TO.P,U2,2*%
%TO.N,Net-(R3-Pad2)*%
X81800000Y-72900000D03*
%TO.P,U2,5*%
%TO.N,GND*%
X89420000Y-77980000D03*
D13*
%TO.P,U2,1*%
%TO.N,Net-(D1-Pad2)*%
X81800000Y-70360000D03*
%TD*%
D14*
%TO.P,D4,1*%
%TO.N,Net-(D4-Pad1)*%
X76400000Y-45500000D03*
D15*
%TO.P,D4,2*%
%TO.N,Net-(C2-Pad2)*%
X76400000Y-53120000D03*
%TD*%
%TO.P,D3,2*%
%TO.N,Net-(CVATTN1-Pad1)*%
X83400000Y-45380000D03*
D14*
%TO.P,D3,1*%
%TO.N,Net-(C1-Pad1)*%
X83400000Y-53000000D03*
%TD*%
%TO.P,OUT,1*%
%TO.N,Net-(J4-Pad1)*%
%TA.AperFunction,ComponentPad*%
G36*
G01*
X86830000Y-133850001D02*
X86830000Y-132149999D01*
G75*
G02*
X87079999Y-131900000I249999J0D01*
G01*
X88320001Y-131900000D01*
G75*
G02*
X88570000Y-132149999I0J-249999D01*
G01*
X88570000Y-133850001D01*
G75*
G02*
X88320001Y-134100000I-249999J0D01*
G01*
X87079999Y-134100000D01*
G75*
G02*
X86830000Y-133850001I0J249999D01*
G01*
G37*
%TD.AperFunction*%
D16*
%TO.P,OUT,2*%
%TO.N,GND*%
X90240000Y-133000000D03*
%TD*%
%TO.P,OSC2,2*%
%TO.N,GND*%
X78740000Y-133000000D03*
%TO.P,OSC2,1*%
%TO.N,Net-(J3-Pad1)*%
%TA.AperFunction,ComponentPad*%
G36*
G01*
X75330000Y-133850001D02*
X75330000Y-132149999D01*
G75*
G02*
X75579999Y-131900000I249999J0D01*
G01*
X76820001Y-131900000D01*
G75*
G02*
X77070000Y-132149999I0J-249999D01*
G01*
X77070000Y-133850001D01*
G75*
G02*
X76820001Y-134100000I-249999J0D01*
G01*
X75579999Y-134100000D01*
G75*
G02*
X75330000Y-133850001I0J249999D01*
G01*
G37*
%TD.AperFunction*%
%TD*%
%TO.P,OSC1,1*%
%TO.N,Net-(J2-Pad1)*%
%TA.AperFunction,ComponentPad*%
G36*
G01*
X68930000Y-133850001D02*
X68930000Y-132149999D01*
G75*
G02*
X69179999Y-131900000I249999J0D01*
G01*
X70420001Y-131900000D01*
G75*
G02*
X70670000Y-132149999I0J-249999D01*
G01*
X70670000Y-133850001D01*
G75*
G02*
X70420001Y-134100000I-249999J0D01*
G01*
X69179999Y-134100000D01*
G75*
G02*
X68930000Y-133850001I0J249999D01*
G01*
G37*
%TD.AperFunction*%
%TO.P,OSC1,2*%
%TO.N,GND*%
X72340000Y-133000000D03*
%TD*%
%TO.P,CV,2*%
%TO.N,GND*%
X84740000Y-133000000D03*
%TO.P,CV,1*%
%TO.N,Net-(CVATTN1-Pad3)*%
%TA.AperFunction,ComponentPad*%
G36*
G01*
X81330000Y-133850001D02*
X81330000Y-132149999D01*
G75*
G02*
X81579999Y-131900000I249999J0D01*
G01*
X82820001Y-131900000D01*
G75*
G02*
X83070000Y-132149999I0J-249999D01*
G01*
X83070000Y-133850001D01*
G75*
G02*
X82820001Y-134100000I-249999J0D01*
G01*
X81579999Y-134100000D01*
G75*
G02*
X81330000Y-133850001I0J249999D01*
G01*
G37*
%TD.AperFunction*%
%TD*%
D14*
%TO.P,D2,1*%
%TO.N,Net-(D2-Pad1)*%
X89000000Y-89000000D03*
D15*
%TO.P,D2,2*%
%TO.N,Net-(D2-Pad2)*%
X89000000Y-81380000D03*
%TD*%
D17*
%TO.P,MIX1,*%
%TO.N,*%
X84300000Y-59500000D03*
X74700000Y-59500000D03*
D18*
%TO.P,MIX1,3*%
%TO.N,Net-(CVATTN1-Pad1)*%
X77000000Y-67000000D03*
%TO.P,MIX1,2*%
%TO.N,Net-(MIX1-Pad2)*%
X79500000Y-67000000D03*
D19*
%TO.P,MIX1,1*%
%TO.N,Net-(C2-Pad2)*%
X82000000Y-67000000D03*
%TD*%
D15*
%TO.P,D1,2*%
%TO.N,Net-(D1-Pad2)*%
X71000000Y-81580000D03*
D14*
%TO.P,D1,1*%
%TO.N,Net-(D1-Pad1)*%
X71000000Y-89200000D03*
%TD*%
D19*
%TO.P,CVATTN1,1*%
%TO.N,Net-(CVATTN1-Pad1)*%
X82400000Y-92500000D03*
D18*
%TO.P,CVATTN1,2*%
%TO.N,Net-(CVATTN1-Pad2)*%
X79900000Y-92500000D03*
%TO.P,CVATTN1,3*%
%TO.N,Net-(CVATTN1-Pad3)*%
X77400000Y-92500000D03*
D17*
%TO.P,CVATTN1,*%
%TO.N,*%
X75100000Y-85000000D03*
X84700000Y-85000000D03*
%TD*%
D20*
%TO.P,C6,1*%
%TO.N,GND*%
X86800000Y-77900000D03*
%TO.P,C6,2*%
%TO.N,Net-(C2-Pad2)*%
X86800000Y-75400000D03*
%TD*%
%TO.P,C5,1*%
%TO.N,Net-(C1-Pad1)*%
X75500000Y-103100000D03*
%TO.P,C5,2*%
%TO.N,GND*%
X73000000Y-103100000D03*
%TD*%
%TO.P,C4,2*%
%TO.N,Net-(C2-Pad2)*%
X86100000Y-103100000D03*
%TO.P,C4,1*%
%TO.N,GND*%
X83600000Y-103100000D03*
%TD*%
%TO.P,C3,2*%
%TO.N,GND*%
X84900000Y-73200000D03*
%TO.P,C3,1*%
%TO.N,Net-(C1-Pad1)*%
X84900000Y-70700000D03*
%TD*%
D14*
%TO.P,C2,1*%
%TO.N,GND*%
X70900000Y-48500000D03*
D20*
%TO.P,C2,2*%
%TO.N,Net-(C2-Pad2)*%
X72900000Y-48500000D03*
%TD*%
%TO.P,C1,2*%
%TO.N,GND*%
X88900000Y-48500000D03*
D14*
%TO.P,C1,1*%
%TO.N,Net-(C1-Pad1)*%
X86900000Y-48500000D03*
%TD*%
D15*
%TO.P,R1,2*%
%TO.N,Net-(R1-Pad2)*%
X70500000Y-119580000D03*
D20*
%TO.P,R1,1*%
%TO.N,Net-(J2-Pad1)*%
X70500000Y-127200000D03*
%TD*%
%TO.P,R2,1*%
%TO.N,Net-(J3-Pad1)*%
X73600000Y-127200000D03*
D15*
%TO.P,R2,2*%
%TO.N,Net-(R2-Pad2)*%
X73600000Y-119580000D03*
%TD*%
D20*
%TO.P,R3,1*%
%TO.N,Net-(CVATTN1-Pad2)*%
X71300000Y-77600000D03*
D15*
%TO.P,R3,2*%
%TO.N,Net-(R3-Pad2)*%
X71300000Y-69980000D03*
%TD*%
%TO.P,R4,2*%
%TO.N,Net-(R3-Pad2)*%
X74600000Y-69980000D03*
D20*
%TO.P,R4,1*%
%TO.N,Net-(MIX1-Pad2)*%
X74600000Y-77600000D03*
%TD*%
D15*
%TO.P,R5,2*%
%TO.N,Net-(R2-Pad2)*%
X76800000Y-117320000D03*
D20*
%TO.P,R5,1*%
%TO.N,GND*%
X76800000Y-109700000D03*
%TD*%
%TO.P,R6,1*%
%TO.N,GND*%
X82700000Y-127200000D03*
D15*
%TO.P,R6,2*%
%TO.N,Net-(R1-Pad2)*%
X82700000Y-119580000D03*
%TD*%
%TO.P,R7,2*%
%TO.N,Net-(R7-Pad2)*%
X70500000Y-109680000D03*
D20*
%TO.P,R7,1*%
%TO.N,GND*%
X70500000Y-117300000D03*
%TD*%
%TO.P,R8,1*%
%TO.N,GND*%
X73700000Y-117300000D03*
D15*
%TO.P,R8,2*%
%TO.N,Net-(R8-Pad2)*%
X73700000Y-109680000D03*
%TD*%
D20*
%TO.P,R9,1*%
%TO.N,Net-(R3-Pad2)*%
X86000000Y-109700000D03*
D15*
%TO.P,R9,2*%
%TO.N,Net-(D1-Pad2)*%
X86000000Y-117320000D03*
%TD*%
%TO.P,R10,2*%
%TO.N,Net-(R10-Pad2)*%
X89000000Y-109680000D03*
D20*
%TO.P,R10,1*%
%TO.N,Net-(D1-Pad2)*%
X89000000Y-117300000D03*
%TD*%
%TO.P,R11,1*%
%TO.N,Net-(R11-Pad1)*%
X80000000Y-81500000D03*
D15*
%TO.P,R11,2*%
%TO.N,Net-(D1-Pad1)*%
X80000000Y-89120000D03*
%TD*%
D20*
%TO.P,R12,1*%
%TO.N,Net-(R12-Pad1)*%
X89400000Y-102500000D03*
D15*
%TO.P,R12,2*%
%TO.N,Net-(D2-Pad1)*%
X89400000Y-94880000D03*
%TD*%
D20*
%TO.P,R13,1*%
%TO.N,Net-(R10-Pad2)*%
X77800000Y-77600000D03*
D15*
%TO.P,R13,2*%
%TO.N,Net-(D2-Pad2)*%
X77800000Y-69980000D03*
%TD*%
%TO.P,R14,2*%
%TO.N,Net-(CVATTN1-Pad1)*%
X79600000Y-127220000D03*
D20*
%TO.P,R14,1*%
%TO.N,Net-(R14-Pad1)*%
X79600000Y-119600000D03*
%TD*%
%TO.P,R15,1*%
%TO.N,GND*%
X76500000Y-127200000D03*
D15*
%TO.P,R15,2*%
%TO.N,Net-(R14-Pad1)*%
X76500000Y-119580000D03*
%TD*%
%TO.P,R16,2*%
%TO.N,Net-(R16-Pad2)*%
X72780000Y-95800000D03*
D20*
%TO.P,R16,1*%
%TO.N,Net-(C2-Pad2)*%
X80400000Y-95800000D03*
%TD*%
D15*
%TO.P,R17,2*%
%TO.N,Net-(J4-Pad1)*%
X88600000Y-127120000D03*
D20*
%TO.P,R17,1*%
%TO.N,Net-(R16-Pad2)*%
X88600000Y-119500000D03*
%TD*%
D21*
%TO.P,J5,1*%
%TO.N,Net-(D4-Pad1)*%
X75000000Y-40500000D03*
D22*
%TO.P,J5,2*%
X75000000Y-37960000D03*
%TO.P,J5,3*%
%TO.N,GND*%
X77540000Y-40500000D03*
%TO.P,J5,4*%
X77540000Y-37960000D03*
%TO.P,J5,5*%
X80080000Y-40500000D03*
%TO.P,J5,6*%
X80080000Y-37960000D03*
%TO.P,J5,7*%
X82620000Y-40500000D03*
%TO.P,J5,8*%
X82620000Y-37960000D03*
%TO.P,J5,9*%
%TO.N,Net-(CVATTN1-Pad1)*%
X85160000Y-40500000D03*
%TO.P,J5,10*%
X85160000Y-37960000D03*
%TD*%
D23*
%TO.N,Net-(R10-Pad2)*%
X84000000Y-76500000D03*
%TD*%
D24*
%TO.N,Net-(C1-Pad1)*%
X83400000Y-52000000D02*
X86900000Y-48500000D01*
X83400000Y-53000000D02*
X83400000Y-52000000D01*
X75500000Y-106420000D02*
X75900000Y-106820000D01*
X75500000Y-103100000D02*
X75500000Y-106420000D01*
X83400000Y-57521398D02*
X82354999Y-58566399D01*
X82354999Y-58566399D02*
X82354999Y-64969997D01*
X84900000Y-67514998D02*
X84900000Y-70700000D01*
X82354999Y-64969997D02*
X84900000Y-67514998D01*
X83400000Y-53000000D02*
X83400000Y-57521398D01*
%TO.N,Net-(C2-Pad2)*%
X72900000Y-49620000D02*
X72900000Y-48500000D01*
X76400000Y-53120000D02*
X72900000Y-49620000D01*
X81904988Y-66904988D02*
X82000000Y-67000000D01*
X81904988Y-58624988D02*
X81904988Y-66904988D01*
X76400000Y-53120000D02*
X81904988Y-58624988D01*
X83325010Y-73290012D02*
X85434998Y-75400000D01*
X85434998Y-75400000D02*
X86800000Y-75400000D01*
X83325010Y-68325010D02*
X83325010Y-73290012D01*
X82000000Y-67000000D02*
X83325010Y-68325010D01*
%TO.N,Net-(CVATTN1-Pad3)*%
X82200000Y-133000000D02*
X81574999Y-132374999D01*
X79565010Y-96765010D02*
X77400000Y-94600000D01*
X81574999Y-132374999D02*
X81574999Y-111438589D01*
X81574999Y-111438589D02*
X79565010Y-109428600D01*
X79565010Y-109428600D02*
X79565010Y-96765010D01*
X77400000Y-94600000D02*
X77400000Y-92500000D01*
%TO.N,Net-(CVATTN1-Pad2)*%
X69874999Y-83290012D02*
X69874999Y-79025001D01*
X73979999Y-87395012D02*
X69874999Y-83290012D01*
X69874999Y-79025001D02*
X71300000Y-77600000D01*
X74795012Y-87395012D02*
X73979999Y-87395012D01*
X79900000Y-92500000D02*
X74795012Y-87395012D01*
%TO.N,Net-(CVATTN1-Pad1)*%
X78874999Y-85896397D02*
X78874999Y-89660001D01*
X80145001Y-90245001D02*
X82400000Y-92500000D01*
X76674999Y-83696397D02*
X78874999Y-85896397D01*
X79459999Y-90245001D02*
X80145001Y-90245001D01*
X76674999Y-67325001D02*
X76674999Y-83696397D01*
X78874999Y-89660001D02*
X79459999Y-90245001D01*
X77000000Y-67000000D02*
X76674999Y-67325001D01*
%TO.N,GND*%
X84740000Y-133000000D02*
X84740000Y-132240000D01*
X82700000Y-130200000D02*
X82700000Y-127200000D01*
X84740000Y-132240000D02*
X82700000Y-130200000D01*
X86800000Y-96468996D02*
X84934990Y-98334006D01*
X84934990Y-101765010D02*
X83600000Y-103100000D01*
X84934990Y-98334006D02*
X84934990Y-101765010D01*
X86800000Y-77900000D02*
X86800000Y-96468996D01*
X75374999Y-118974999D02*
X73700000Y-117300000D01*
X75374999Y-126074999D02*
X75374999Y-118974999D01*
X76500000Y-127200000D02*
X75374999Y-126074999D01*
X73700000Y-112800000D02*
X76800000Y-109700000D01*
X73700000Y-117300000D02*
X73700000Y-112800000D01*
X74485010Y-108516380D02*
X74485010Y-104585010D01*
X75668630Y-109700000D02*
X74485010Y-108516380D01*
X74485010Y-104585010D02*
X73000000Y-103100000D01*
X76800000Y-109700000D02*
X75668630Y-109700000D01*
X77540000Y-41860000D02*
X70900000Y-48500000D01*
X77540000Y-40500000D02*
X77540000Y-41860000D01*
X88900000Y-46780000D02*
X88900000Y-48500000D01*
X82620000Y-40500000D02*
X88900000Y-46780000D01*
X88900000Y-49631370D02*
X86500000Y-52031370D01*
X88900000Y-48500000D02*
X88900000Y-49631370D01*
X86500000Y-71600000D02*
X84900000Y-73200000D01*
X86500000Y-52031370D02*
X86500000Y-71600000D01*
X86880000Y-77980000D02*
X86800000Y-77900000D01*
X89420000Y-77980000D02*
X86880000Y-77980000D01*
%TO.N,Net-(J2-Pad1)*%
X69800000Y-127900000D02*
X70500000Y-127200000D01*
X69800000Y-133000000D02*
X69800000Y-127900000D01*
%TO.N,Net-(J3-Pad1)*%
X76200000Y-129800000D02*
X73600000Y-127200000D01*
X76200000Y-133000000D02*
X76200000Y-129800000D01*
%TO.N,Net-(J4-Pad1)*%
X87700000Y-128020000D02*
X88600000Y-127120000D01*
X87700000Y-133000000D02*
X87700000Y-128020000D01*
%TO.N,Net-(MIX1-Pad2)*%
X78274999Y-65774999D02*
X79500000Y-67000000D01*
X76411999Y-65774999D02*
X78274999Y-65774999D01*
X75725001Y-66461997D02*
X76411999Y-65774999D01*
X75725001Y-76474999D02*
X75725001Y-66461997D01*
X74600000Y-77600000D02*
X75725001Y-76474999D01*
%TO.N,Net-(R1-Pad2)*%
X82474999Y-100245001D02*
X83520000Y-99200000D01*
X84645010Y-105810012D02*
X82474999Y-103640001D01*
X87125001Y-117860001D02*
X87125001Y-112490003D01*
X84645010Y-110010012D02*
X84645010Y-105810012D01*
X85405002Y-119580000D02*
X87125001Y-117860001D01*
X87125001Y-112490003D02*
X84645010Y-110010012D01*
X82474999Y-103640001D02*
X82474999Y-100245001D01*
X82700000Y-119580000D02*
X85405002Y-119580000D01*
%TO.N,Net-(R14-Pad1)*%
X79600000Y-119600000D02*
X79600000Y-110100000D01*
X78440000Y-108940000D02*
X78440000Y-106820000D01*
X79600000Y-110100000D02*
X78440000Y-108940000D01*
X78440000Y-99200000D02*
X78440000Y-106820000D01*
%TO.N,Net-(R16-Pad2)*%
X68604990Y-101415010D02*
X70820000Y-99200000D01*
X68941820Y-134425010D02*
X68604990Y-134088180D01*
X91435010Y-133724989D02*
X90734989Y-134425010D01*
X68604990Y-134088180D02*
X68604990Y-101415010D01*
X90734989Y-134425010D02*
X68941820Y-134425010D01*
X91435010Y-122335010D02*
X91435010Y-133724989D01*
X88600000Y-119500000D02*
X91435010Y-122335010D01*
X70820000Y-97760000D02*
X72780000Y-95800000D01*
X70820000Y-99200000D02*
X70820000Y-97760000D01*
%TO.N,Net-(R12-Pad1)*%
X89400000Y-106020000D02*
X88600000Y-106820000D01*
X89400000Y-102500000D02*
X89400000Y-106020000D01*
%TO.N,Net-(D1-Pad2)*%
X82105010Y-103906423D02*
X82024988Y-103826401D01*
X82105010Y-113425010D02*
X82105010Y-103906423D01*
X86000000Y-117320000D02*
X82105010Y-113425010D01*
X79908014Y-90695012D02*
X79058602Y-90695012D01*
X79058602Y-90695012D02*
X75308591Y-86945001D01*
X81125001Y-91911999D02*
X79908014Y-90695012D01*
X82024988Y-103826401D02*
X82024988Y-100058601D01*
X71000000Y-83778602D02*
X71000000Y-81580000D01*
X74166399Y-86945001D02*
X71000000Y-83778602D01*
X82105010Y-99978579D02*
X82105010Y-94605010D01*
X82105010Y-94605010D02*
X81125001Y-93625001D01*
X82024988Y-100058601D02*
X82105010Y-99978579D01*
X81125001Y-93625001D02*
X81125001Y-91911999D01*
X75308591Y-86945001D02*
X74166399Y-86945001D01*
X72425001Y-80154999D02*
X72425001Y-68574999D01*
X71000000Y-81580000D02*
X72425001Y-80154999D01*
X75675012Y-65324988D02*
X79824988Y-65324988D01*
X72425001Y-68574999D02*
X75675012Y-65324988D01*
X80725001Y-66225001D02*
X80725001Y-68225001D01*
X79824988Y-65324988D02*
X80725001Y-66225001D01*
X81800000Y-69300000D02*
X81800000Y-70360000D01*
X80725001Y-68225001D02*
X81800000Y-69300000D01*
%TO.N,Net-(R3-Pad2)*%
X87145001Y-108554999D02*
X86000000Y-109700000D01*
X88856005Y-108554999D02*
X87145001Y-108554999D01*
X90945010Y-77514006D02*
X90945010Y-106465994D01*
X90285994Y-76854990D02*
X90945010Y-77514006D01*
X85425001Y-76525001D02*
X88224017Y-76525001D01*
X81800000Y-72900000D02*
X85425001Y-76525001D01*
X88224017Y-76525001D02*
X88554006Y-76854990D01*
X88554006Y-76854990D02*
X90285994Y-76854990D01*
X90945010Y-106465994D02*
X88856005Y-108554999D01*
%TO.N,Net-(R10-Pad2)*%
X90870000Y-75440000D02*
X89420000Y-75440000D01*
X89000000Y-109680000D02*
X91395021Y-107284979D01*
X91395021Y-107284979D02*
X91395021Y-75965021D01*
X91395021Y-75965021D02*
X90870000Y-75440000D01*
X78599999Y-76800001D02*
X83699999Y-76800001D01*
X77800000Y-77600000D02*
X78599999Y-76800001D01*
X83699999Y-76800001D02*
X84000000Y-76500000D01*
X84000000Y-76500000D02*
X84000000Y-76500000D01*
%TO.N,Net-(D2-Pad1)*%
X89000000Y-94480000D02*
X89400000Y-94880000D01*
X89000000Y-89000000D02*
X89000000Y-94480000D01*
%TD*%
D25*
X91338509Y-134972296D02*
X91266495Y-134971983D01*
X91274990Y-134965011D01*
X91298792Y-134936008D01*
X91338435Y-134896365D01*
X91338509Y-134972296D01*
%TA.AperFunction,NonConductor*%
D26*
G36*
X91338509Y-134972296D02*
G01*
X91266495Y-134971983D01*
X91274990Y-134965011D01*
X91298792Y-134936008D01*
X91338435Y-134896365D01*
X91338509Y-134972296D01*
G37*
%TD.AperFunction*%
D25*
X78840001Y-110414803D02*
X78840000Y-118381956D01*
X78685241Y-118485363D01*
X78485363Y-118685241D01*
X78328320Y-118920273D01*
X78220147Y-119181426D01*
X78165000Y-119458665D01*
X78165000Y-119741335D01*
X78220147Y-120018574D01*
X78328320Y-120279727D01*
X78485363Y-120514759D01*
X78685241Y-120714637D01*
X78920273Y-120871680D01*
X79181426Y-120979853D01*
X79458665Y-121035000D01*
X79741335Y-121035000D01*
X80018574Y-120979853D01*
X80279727Y-120871680D01*
X80514759Y-120714637D01*
X80714637Y-120514759D01*
X80815000Y-120364555D01*
X80814999Y-126455444D01*
X80714637Y-126305241D01*
X80514759Y-126105363D01*
X80279727Y-125948320D01*
X80018574Y-125840147D01*
X79741335Y-125785000D01*
X79458665Y-125785000D01*
X79181426Y-125840147D01*
X78920273Y-125948320D01*
X78685241Y-126105363D01*
X78485363Y-126305241D01*
X78328320Y-126540273D01*
X78220147Y-126801426D01*
X78165000Y-127078665D01*
X78165000Y-127361335D01*
X78220147Y-127638574D01*
X78328320Y-127899727D01*
X78485363Y-128134759D01*
X78685241Y-128334637D01*
X78920273Y-128491680D01*
X79181426Y-128599853D01*
X79458665Y-128655000D01*
X79741335Y-128655000D01*
X80018574Y-128599853D01*
X80279727Y-128491680D01*
X80514759Y-128334637D01*
X80714637Y-128134759D01*
X80814999Y-127984556D01*
X80814999Y-131706370D01*
X80759528Y-131810149D01*
X80708992Y-131976745D01*
X80691928Y-132149999D01*
X80691928Y-133665010D01*
X80180762Y-133665010D01*
X80223224Y-133525031D01*
X80245000Y-133303935D01*
X80245000Y-132696064D01*
X80223224Y-132474968D01*
X80137166Y-132191275D01*
X79997417Y-131929821D01*
X79809345Y-131700655D01*
X79580178Y-131512583D01*
X79318724Y-131372834D01*
X79035031Y-131286776D01*
X78740000Y-131257718D01*
X78444968Y-131286776D01*
X78161275Y-131372834D01*
X77899821Y-131512583D01*
X77670655Y-131700655D01*
X77616935Y-131766114D01*
X77558405Y-131656613D01*
X77447962Y-131522038D01*
X77313387Y-131411595D01*
X77159851Y-131329528D01*
X76993255Y-131278992D01*
X76960000Y-131275717D01*
X76960000Y-129837322D01*
X76963676Y-129799999D01*
X76960000Y-129762676D01*
X76960000Y-129762667D01*
X76949003Y-129651014D01*
X76905546Y-129507753D01*
X76834974Y-129375724D01*
X76740001Y-129259999D01*
X76711003Y-129236201D01*
X76035725Y-128560923D01*
X76081426Y-128579853D01*
X76358665Y-128635000D01*
X76641335Y-128635000D01*
X76918574Y-128579853D01*
X77179727Y-128471680D01*
X77414759Y-128314637D01*
X77614637Y-128114759D01*
X77771680Y-127879727D01*
X77879853Y-127618574D01*
X77935000Y-127341335D01*
X77935000Y-127058665D01*
X77879853Y-126781426D01*
X77771680Y-126520273D01*
X77614637Y-126285241D01*
X77414759Y-126085363D01*
X77179727Y-125928320D01*
X76918574Y-125820147D01*
X76641335Y-125765000D01*
X76358665Y-125765000D01*
X76176113Y-125801312D01*
X76134999Y-125760198D01*
X76134999Y-120970509D01*
X76358665Y-121015000D01*
X76641335Y-121015000D01*
X76918574Y-120959853D01*
X77179727Y-120851680D01*
X77414759Y-120694637D01*
X77614637Y-120494759D01*
X77771680Y-120259727D01*
X77879853Y-119998574D01*
X77935000Y-119721335D01*
X77935000Y-119438665D01*
X77879853Y-119161426D01*
X77771680Y-118900273D01*
X77614637Y-118665241D01*
X77516503Y-118567107D01*
X77714759Y-118434637D01*
X77914637Y-118234759D01*
X78071680Y-117999727D01*
X78179853Y-117738574D01*
X78235000Y-117461335D01*
X78235000Y-117178665D01*
X78179853Y-116901426D01*
X78071680Y-116640273D01*
X77914637Y-116405241D01*
X77714759Y-116205363D01*
X77479727Y-116048320D01*
X77218574Y-115940147D01*
X76941335Y-115885000D01*
X76658665Y-115885000D01*
X76381426Y-115940147D01*
X76120273Y-116048320D01*
X75885241Y-116205363D01*
X75685363Y-116405241D01*
X75528320Y-116640273D01*
X75420147Y-116901426D01*
X75365000Y-117178665D01*
X75365000Y-117461335D01*
X75420147Y-117738574D01*
X75528320Y-117999727D01*
X75636637Y-118161835D01*
X75098688Y-117623886D01*
X75135000Y-117441335D01*
X75135000Y-117158665D01*
X75079853Y-116881426D01*
X74971680Y-116620273D01*
X74814637Y-116385241D01*
X74614759Y-116185363D01*
X74460000Y-116081957D01*
X74460000Y-113114801D01*
X76476114Y-111098688D01*
X76658665Y-111135000D01*
X76941335Y-111135000D01*
X77218574Y-111079853D01*
X77479727Y-110971680D01*
X77714759Y-110814637D01*
X77914637Y-110614759D01*
X78071680Y-110379727D01*
X78179853Y-110118574D01*
X78235000Y-109841335D01*
X78235000Y-109809801D01*
X78840001Y-110414803D01*
%TA.AperFunction,NonConductor*%
D26*
G36*
X78840001Y-110414803D02*
G01*
X78840000Y-118381956D01*
X78685241Y-118485363D01*
X78485363Y-118685241D01*
X78328320Y-118920273D01*
X78220147Y-119181426D01*
X78165000Y-119458665D01*
X78165000Y-119741335D01*
X78220147Y-120018574D01*
X78328320Y-120279727D01*
X78485363Y-120514759D01*
X78685241Y-120714637D01*
X78920273Y-120871680D01*
X79181426Y-120979853D01*
X79458665Y-121035000D01*
X79741335Y-121035000D01*
X80018574Y-120979853D01*
X80279727Y-120871680D01*
X80514759Y-120714637D01*
X80714637Y-120514759D01*
X80815000Y-120364555D01*
X80814999Y-126455444D01*
X80714637Y-126305241D01*
X80514759Y-126105363D01*
X80279727Y-125948320D01*
X80018574Y-125840147D01*
X79741335Y-125785000D01*
X79458665Y-125785000D01*
X79181426Y-125840147D01*
X78920273Y-125948320D01*
X78685241Y-126105363D01*
X78485363Y-126305241D01*
X78328320Y-126540273D01*
X78220147Y-126801426D01*
X78165000Y-127078665D01*
X78165000Y-127361335D01*
X78220147Y-127638574D01*
X78328320Y-127899727D01*
X78485363Y-128134759D01*
X78685241Y-128334637D01*
X78920273Y-128491680D01*
X79181426Y-128599853D01*
X79458665Y-128655000D01*
X79741335Y-128655000D01*
X80018574Y-128599853D01*
X80279727Y-128491680D01*
X80514759Y-128334637D01*
X80714637Y-128134759D01*
X80814999Y-127984556D01*
X80814999Y-131706370D01*
X80759528Y-131810149D01*
X80708992Y-131976745D01*
X80691928Y-132149999D01*
X80691928Y-133665010D01*
X80180762Y-133665010D01*
X80223224Y-133525031D01*
X80245000Y-133303935D01*
X80245000Y-132696064D01*
X80223224Y-132474968D01*
X80137166Y-132191275D01*
X79997417Y-131929821D01*
X79809345Y-131700655D01*
X79580178Y-131512583D01*
X79318724Y-131372834D01*
X79035031Y-131286776D01*
X78740000Y-131257718D01*
X78444968Y-131286776D01*
X78161275Y-131372834D01*
X77899821Y-131512583D01*
X77670655Y-131700655D01*
X77616935Y-131766114D01*
X77558405Y-131656613D01*
X77447962Y-131522038D01*
X77313387Y-131411595D01*
X77159851Y-131329528D01*
X76993255Y-131278992D01*
X76960000Y-131275717D01*
X76960000Y-129837322D01*
X76963676Y-129799999D01*
X76960000Y-129762676D01*
X76960000Y-129762667D01*
X76949003Y-129651014D01*
X76905546Y-129507753D01*
X76834974Y-129375724D01*
X76740001Y-129259999D01*
X76711003Y-129236201D01*
X76035725Y-128560923D01*
X76081426Y-128579853D01*
X76358665Y-128635000D01*
X76641335Y-128635000D01*
X76918574Y-128579853D01*
X77179727Y-128471680D01*
X77414759Y-128314637D01*
X77614637Y-128114759D01*
X77771680Y-127879727D01*
X77879853Y-127618574D01*
X77935000Y-127341335D01*
X77935000Y-127058665D01*
X77879853Y-126781426D01*
X77771680Y-126520273D01*
X77614637Y-126285241D01*
X77414759Y-126085363D01*
X77179727Y-125928320D01*
X76918574Y-125820147D01*
X76641335Y-125765000D01*
X76358665Y-125765000D01*
X76176113Y-125801312D01*
X76134999Y-125760198D01*
X76134999Y-120970509D01*
X76358665Y-121015000D01*
X76641335Y-121015000D01*
X76918574Y-120959853D01*
X77179727Y-120851680D01*
X77414759Y-120694637D01*
X77614637Y-120494759D01*
X77771680Y-120259727D01*
X77879853Y-119998574D01*
X77935000Y-119721335D01*
X77935000Y-119438665D01*
X77879853Y-119161426D01*
X77771680Y-118900273D01*
X77614637Y-118665241D01*
X77516503Y-118567107D01*
X77714759Y-118434637D01*
X77914637Y-118234759D01*
X78071680Y-117999727D01*
X78179853Y-117738574D01*
X78235000Y-117461335D01*
X78235000Y-117178665D01*
X78179853Y-116901426D01*
X78071680Y-116640273D01*
X77914637Y-116405241D01*
X77714759Y-116205363D01*
X77479727Y-116048320D01*
X77218574Y-115940147D01*
X76941335Y-115885000D01*
X76658665Y-115885000D01*
X76381426Y-115940147D01*
X76120273Y-116048320D01*
X75885241Y-116205363D01*
X75685363Y-116405241D01*
X75528320Y-116640273D01*
X75420147Y-116901426D01*
X75365000Y-117178665D01*
X75365000Y-117461335D01*
X75420147Y-117738574D01*
X75528320Y-117999727D01*
X75636637Y-118161835D01*
X75098688Y-117623886D01*
X75135000Y-117441335D01*
X75135000Y-117158665D01*
X75079853Y-116881426D01*
X74971680Y-116620273D01*
X74814637Y-116385241D01*
X74614759Y-116185363D01*
X74460000Y-116081957D01*
X74460000Y-113114801D01*
X76476114Y-111098688D01*
X76658665Y-111135000D01*
X76941335Y-111135000D01*
X77218574Y-111079853D01*
X77479727Y-110971680D01*
X77714759Y-110814637D01*
X77914637Y-110614759D01*
X78071680Y-110379727D01*
X78179853Y-110118574D01*
X78235000Y-109841335D01*
X78235000Y-109809801D01*
X78840001Y-110414803D01*
G37*
%TD.AperFunction*%
D25*
X86191928Y-133665010D02*
X86180762Y-133665010D01*
X86191928Y-133628199D01*
X86191928Y-133665010D01*
%TA.AperFunction,NonConductor*%
D26*
G36*
X86191928Y-133665010D02*
G01*
X86180762Y-133665010D01*
X86191928Y-133628199D01*
X86191928Y-133665010D01*
G37*
%TD.AperFunction*%
D25*
X72161068Y-108021100D02*
X72340392Y-108239607D01*
X72558899Y-108418932D01*
X72806401Y-108551225D01*
X72785241Y-108565363D01*
X72585363Y-108765241D01*
X72428320Y-109000273D01*
X72320147Y-109261426D01*
X72265000Y-109538665D01*
X72265000Y-109821335D01*
X72320147Y-110098574D01*
X72428320Y-110359727D01*
X72585363Y-110594759D01*
X72785241Y-110794637D01*
X73020273Y-110951680D01*
X73281426Y-111059853D01*
X73558665Y-111115000D01*
X73841335Y-111115000D01*
X74118574Y-111059853D01*
X74379727Y-110951680D01*
X74614759Y-110794637D01*
X74814637Y-110594759D01*
X74971680Y-110359727D01*
X75054239Y-110160412D01*
X75104835Y-110211008D01*
X75128629Y-110240001D01*
X75157622Y-110263795D01*
X75157626Y-110263799D01*
X75159699Y-110265500D01*
X73188998Y-112236201D01*
X73160000Y-112259999D01*
X73136202Y-112288997D01*
X73136201Y-112288998D01*
X73065026Y-112375724D01*
X72994454Y-112507754D01*
X72950998Y-112651015D01*
X72936324Y-112800000D01*
X72940001Y-112837332D01*
X72940000Y-116081956D01*
X72785241Y-116185363D01*
X72585363Y-116385241D01*
X72428320Y-116620273D01*
X72320147Y-116881426D01*
X72265000Y-117158665D01*
X72265000Y-117441335D01*
X72320147Y-117718574D01*
X72428320Y-117979727D01*
X72585363Y-118214759D01*
X72775595Y-118404991D01*
X72685241Y-118465363D01*
X72485363Y-118665241D01*
X72328320Y-118900273D01*
X72220147Y-119161426D01*
X72165000Y-119438665D01*
X72165000Y-119721335D01*
X72220147Y-119998574D01*
X72328320Y-120259727D01*
X72485363Y-120494759D01*
X72685241Y-120694637D01*
X72920273Y-120851680D01*
X73181426Y-120959853D01*
X73458665Y-121015000D01*
X73741335Y-121015000D01*
X74018574Y-120959853D01*
X74279727Y-120851680D01*
X74514759Y-120694637D01*
X74615000Y-120594396D01*
X74614999Y-126037676D01*
X74611323Y-126074999D01*
X74614999Y-126112321D01*
X74614999Y-126112331D01*
X74623004Y-126193608D01*
X74514759Y-126085363D01*
X74279727Y-125928320D01*
X74018574Y-125820147D01*
X73741335Y-125765000D01*
X73458665Y-125765000D01*
X73181426Y-125820147D01*
X72920273Y-125928320D01*
X72685241Y-126085363D01*
X72485363Y-126285241D01*
X72328320Y-126520273D01*
X72220147Y-126781426D01*
X72165000Y-127058665D01*
X72165000Y-127341335D01*
X72220147Y-127618574D01*
X72328320Y-127879727D01*
X72485363Y-128114759D01*
X72685241Y-128314637D01*
X72920273Y-128471680D01*
X73181426Y-128579853D01*
X73458665Y-128635000D01*
X73741335Y-128635000D01*
X73923886Y-128598688D01*
X75440001Y-130114803D01*
X75440001Y-131275717D01*
X75406745Y-131278992D01*
X75240149Y-131329528D01*
X75086613Y-131411595D01*
X74952038Y-131522038D01*
X74841595Y-131656613D01*
X74759528Y-131810149D01*
X74708992Y-131976745D01*
X74691928Y-132149999D01*
X74691928Y-133665010D01*
X73780762Y-133665010D01*
X73823224Y-133525031D01*
X73845000Y-133303935D01*
X73845000Y-132696064D01*
X73823224Y-132474968D01*
X73737166Y-132191275D01*
X73597417Y-131929821D01*
X73409345Y-131700655D01*
X73180178Y-131512583D01*
X72918724Y-131372834D01*
X72635031Y-131286776D01*
X72340000Y-131257718D01*
X72044968Y-131286776D01*
X71761275Y-131372834D01*
X71499821Y-131512583D01*
X71270655Y-131700655D01*
X71216935Y-131766114D01*
X71158405Y-131656613D01*
X71047962Y-131522038D01*
X70913387Y-131411595D01*
X70759851Y-131329528D01*
X70593255Y-131278992D01*
X70560000Y-131275717D01*
X70560000Y-128635000D01*
X70641335Y-128635000D01*
X70918574Y-128579853D01*
X71179727Y-128471680D01*
X71414759Y-128314637D01*
X71614637Y-128114759D01*
X71771680Y-127879727D01*
X71879853Y-127618574D01*
X71935000Y-127341335D01*
X71935000Y-127058665D01*
X71879853Y-126781426D01*
X71771680Y-126520273D01*
X71614637Y-126285241D01*
X71414759Y-126085363D01*
X71179727Y-125928320D01*
X70918574Y-125820147D01*
X70641335Y-125765000D01*
X70358665Y-125765000D01*
X70081426Y-125820147D01*
X69820273Y-125928320D01*
X69585241Y-126085363D01*
X69385363Y-126285241D01*
X69364990Y-126315731D01*
X69364990Y-120464269D01*
X69385363Y-120494759D01*
X69585241Y-120694637D01*
X69820273Y-120851680D01*
X70081426Y-120959853D01*
X70358665Y-121015000D01*
X70641335Y-121015000D01*
X70918574Y-120959853D01*
X71179727Y-120851680D01*
X71414759Y-120694637D01*
X71614637Y-120494759D01*
X71771680Y-120259727D01*
X71879853Y-119998574D01*
X71935000Y-119721335D01*
X71935000Y-119438665D01*
X71879853Y-119161426D01*
X71771680Y-118900273D01*
X71614637Y-118665241D01*
X71414759Y-118465363D01*
X71376801Y-118440000D01*
X71414759Y-118414637D01*
X71614637Y-118214759D01*
X71771680Y-117979727D01*
X71879853Y-117718574D01*
X71935000Y-117441335D01*
X71935000Y-117158665D01*
X71879853Y-116881426D01*
X71771680Y-116620273D01*
X71614637Y-116385241D01*
X71414759Y-116185363D01*
X71179727Y-116028320D01*
X70918574Y-115920147D01*
X70641335Y-115865000D01*
X70358665Y-115865000D01*
X70081426Y-115920147D01*
X69820273Y-116028320D01*
X69585241Y-116185363D01*
X69385363Y-116385241D01*
X69364990Y-116415731D01*
X69364990Y-110564269D01*
X69385363Y-110594759D01*
X69585241Y-110794637D01*
X69820273Y-110951680D01*
X70081426Y-111059853D01*
X70358665Y-111115000D01*
X70641335Y-111115000D01*
X70918574Y-111059853D01*
X71179727Y-110951680D01*
X71414759Y-110794637D01*
X71614637Y-110594759D01*
X71771680Y-110359727D01*
X71879853Y-110098574D01*
X71935000Y-109821335D01*
X71935000Y-109538665D01*
X71879853Y-109261426D01*
X71771680Y-109000273D01*
X71614637Y-108765241D01*
X71414759Y-108565363D01*
X71384710Y-108545285D01*
X71621100Y-108418932D01*
X71839607Y-108239608D01*
X72018932Y-108021101D01*
X72090000Y-107888142D01*
X72161068Y-108021100D01*
%TA.AperFunction,NonConductor*%
D26*
G36*
X72161068Y-108021100D02*
G01*
X72340392Y-108239607D01*
X72558899Y-108418932D01*
X72806401Y-108551225D01*
X72785241Y-108565363D01*
X72585363Y-108765241D01*
X72428320Y-109000273D01*
X72320147Y-109261426D01*
X72265000Y-109538665D01*
X72265000Y-109821335D01*
X72320147Y-110098574D01*
X72428320Y-110359727D01*
X72585363Y-110594759D01*
X72785241Y-110794637D01*
X73020273Y-110951680D01*
X73281426Y-111059853D01*
X73558665Y-111115000D01*
X73841335Y-111115000D01*
X74118574Y-111059853D01*
X74379727Y-110951680D01*
X74614759Y-110794637D01*
X74814637Y-110594759D01*
X74971680Y-110359727D01*
X75054239Y-110160412D01*
X75104835Y-110211008D01*
X75128629Y-110240001D01*
X75157622Y-110263795D01*
X75157626Y-110263799D01*
X75159699Y-110265500D01*
X73188998Y-112236201D01*
X73160000Y-112259999D01*
X73136202Y-112288997D01*
X73136201Y-112288998D01*
X73065026Y-112375724D01*
X72994454Y-112507754D01*
X72950998Y-112651015D01*
X72936324Y-112800000D01*
X72940001Y-112837332D01*
X72940000Y-116081956D01*
X72785241Y-116185363D01*
X72585363Y-116385241D01*
X72428320Y-116620273D01*
X72320147Y-116881426D01*
X72265000Y-117158665D01*
X72265000Y-117441335D01*
X72320147Y-117718574D01*
X72428320Y-117979727D01*
X72585363Y-118214759D01*
X72775595Y-118404991D01*
X72685241Y-118465363D01*
X72485363Y-118665241D01*
X72328320Y-118900273D01*
X72220147Y-119161426D01*
X72165000Y-119438665D01*
X72165000Y-119721335D01*
X72220147Y-119998574D01*
X72328320Y-120259727D01*
X72485363Y-120494759D01*
X72685241Y-120694637D01*
X72920273Y-120851680D01*
X73181426Y-120959853D01*
X73458665Y-121015000D01*
X73741335Y-121015000D01*
X74018574Y-120959853D01*
X74279727Y-120851680D01*
X74514759Y-120694637D01*
X74615000Y-120594396D01*
X74614999Y-126037676D01*
X74611323Y-126074999D01*
X74614999Y-126112321D01*
X74614999Y-126112331D01*
X74623004Y-126193608D01*
X74514759Y-126085363D01*
X74279727Y-125928320D01*
X74018574Y-125820147D01*
X73741335Y-125765000D01*
X73458665Y-125765000D01*
X73181426Y-125820147D01*
X72920273Y-125928320D01*
X72685241Y-126085363D01*
X72485363Y-126285241D01*
X72328320Y-126520273D01*
X72220147Y-126781426D01*
X72165000Y-127058665D01*
X72165000Y-127341335D01*
X72220147Y-127618574D01*
X72328320Y-127879727D01*
X72485363Y-128114759D01*
X72685241Y-128314637D01*
X72920273Y-128471680D01*
X73181426Y-128579853D01*
X73458665Y-128635000D01*
X73741335Y-128635000D01*
X73923886Y-128598688D01*
X75440001Y-130114803D01*
X75440001Y-131275717D01*
X75406745Y-131278992D01*
X75240149Y-131329528D01*
X75086613Y-131411595D01*
X74952038Y-131522038D01*
X74841595Y-131656613D01*
X74759528Y-131810149D01*
X74708992Y-131976745D01*
X74691928Y-132149999D01*
X74691928Y-133665010D01*
X73780762Y-133665010D01*
X73823224Y-133525031D01*
X73845000Y-133303935D01*
X73845000Y-132696064D01*
X73823224Y-132474968D01*
X73737166Y-132191275D01*
X73597417Y-131929821D01*
X73409345Y-131700655D01*
X73180178Y-131512583D01*
X72918724Y-131372834D01*
X72635031Y-131286776D01*
X72340000Y-131257718D01*
X72044968Y-131286776D01*
X71761275Y-131372834D01*
X71499821Y-131512583D01*
X71270655Y-131700655D01*
X71216935Y-131766114D01*
X71158405Y-131656613D01*
X71047962Y-131522038D01*
X70913387Y-131411595D01*
X70759851Y-131329528D01*
X70593255Y-131278992D01*
X70560000Y-131275717D01*
X70560000Y-128635000D01*
X70641335Y-128635000D01*
X70918574Y-128579853D01*
X71179727Y-128471680D01*
X71414759Y-128314637D01*
X71614637Y-128114759D01*
X71771680Y-127879727D01*
X71879853Y-127618574D01*
X71935000Y-127341335D01*
X71935000Y-127058665D01*
X71879853Y-126781426D01*
X71771680Y-126520273D01*
X71614637Y-126285241D01*
X71414759Y-126085363D01*
X71179727Y-125928320D01*
X70918574Y-125820147D01*
X70641335Y-125765000D01*
X70358665Y-125765000D01*
X70081426Y-125820147D01*
X69820273Y-125928320D01*
X69585241Y-126085363D01*
X69385363Y-126285241D01*
X69364990Y-126315731D01*
X69364990Y-120464269D01*
X69385363Y-120494759D01*
X69585241Y-120694637D01*
X69820273Y-120851680D01*
X70081426Y-120959853D01*
X70358665Y-121015000D01*
X70641335Y-121015000D01*
X70918574Y-120959853D01*
X71179727Y-120851680D01*
X71414759Y-120694637D01*
X71614637Y-120494759D01*
X71771680Y-120259727D01*
X71879853Y-119998574D01*
X71935000Y-119721335D01*
X71935000Y-119438665D01*
X71879853Y-119161426D01*
X71771680Y-118900273D01*
X71614637Y-118665241D01*
X71414759Y-118465363D01*
X71376801Y-118440000D01*
X71414759Y-118414637D01*
X71614637Y-118214759D01*
X71771680Y-117979727D01*
X71879853Y-117718574D01*
X71935000Y-117441335D01*
X71935000Y-117158665D01*
X71879853Y-116881426D01*
X71771680Y-116620273D01*
X71614637Y-116385241D01*
X71414759Y-116185363D01*
X71179727Y-116028320D01*
X70918574Y-115920147D01*
X70641335Y-115865000D01*
X70358665Y-115865000D01*
X70081426Y-115920147D01*
X69820273Y-116028320D01*
X69585241Y-116185363D01*
X69385363Y-116385241D01*
X69364990Y-116415731D01*
X69364990Y-110564269D01*
X69385363Y-110594759D01*
X69585241Y-110794637D01*
X69820273Y-110951680D01*
X70081426Y-111059853D01*
X70358665Y-111115000D01*
X70641335Y-111115000D01*
X70918574Y-111059853D01*
X71179727Y-110951680D01*
X71414759Y-110794637D01*
X71614637Y-110594759D01*
X71771680Y-110359727D01*
X71879853Y-110098574D01*
X71935000Y-109821335D01*
X71935000Y-109538665D01*
X71879853Y-109261426D01*
X71771680Y-109000273D01*
X71614637Y-108765241D01*
X71414759Y-108565363D01*
X71384710Y-108545285D01*
X71621100Y-108418932D01*
X71839607Y-108239608D01*
X72018932Y-108021101D01*
X72090000Y-107888142D01*
X72161068Y-108021100D01*
G37*
%TD.AperFunction*%
D25*
X87885363Y-118214759D02*
X87907475Y-118236871D01*
X87685241Y-118385363D01*
X87485363Y-118585241D01*
X87328320Y-118820273D01*
X87220147Y-119081426D01*
X87165000Y-119358665D01*
X87165000Y-119641335D01*
X87220147Y-119918574D01*
X87328320Y-120179727D01*
X87485363Y-120414759D01*
X87685241Y-120614637D01*
X87920273Y-120771680D01*
X88181426Y-120879853D01*
X88458665Y-120935000D01*
X88741335Y-120935000D01*
X88923886Y-120898688D01*
X90675010Y-122649812D01*
X90675011Y-131329239D01*
X90535031Y-131286776D01*
X90240000Y-131257718D01*
X89944968Y-131286776D01*
X89661275Y-131372834D01*
X89399821Y-131512583D01*
X89170655Y-131700655D01*
X89116935Y-131766114D01*
X89058405Y-131656613D01*
X88947962Y-131522038D01*
X88813387Y-131411595D01*
X88659851Y-131329528D01*
X88493255Y-131278992D01*
X88460000Y-131275717D01*
X88460000Y-128555000D01*
X88741335Y-128555000D01*
X89018574Y-128499853D01*
X89279727Y-128391680D01*
X89514759Y-128234637D01*
X89714637Y-128034759D01*
X89871680Y-127799727D01*
X89979853Y-127538574D01*
X90035000Y-127261335D01*
X90035000Y-126978665D01*
X89979853Y-126701426D01*
X89871680Y-126440273D01*
X89714637Y-126205241D01*
X89514759Y-126005363D01*
X89279727Y-125848320D01*
X89018574Y-125740147D01*
X88741335Y-125685000D01*
X88458665Y-125685000D01*
X88181426Y-125740147D01*
X87920273Y-125848320D01*
X87685241Y-126005363D01*
X87485363Y-126205241D01*
X87328320Y-126440273D01*
X87220147Y-126701426D01*
X87165000Y-126978665D01*
X87165000Y-127261335D01*
X87201312Y-127443887D01*
X87188998Y-127456201D01*
X87160000Y-127479999D01*
X87136202Y-127508997D01*
X87136201Y-127508998D01*
X87065026Y-127595724D01*
X86994454Y-127727754D01*
X86972622Y-127799727D01*
X86950998Y-127871014D01*
X86940001Y-127982667D01*
X86936324Y-128020000D01*
X86940001Y-128057332D01*
X86940000Y-131275717D01*
X86906745Y-131278992D01*
X86740149Y-131329528D01*
X86586613Y-131411595D01*
X86452038Y-131522038D01*
X86341595Y-131656613D01*
X86259528Y-131810149D01*
X86208992Y-131976745D01*
X86191928Y-132149999D01*
X86191928Y-132371800D01*
X86137166Y-132191275D01*
X85997417Y-131929821D01*
X85809345Y-131700655D01*
X85580178Y-131512583D01*
X85318724Y-131372834D01*
X85035031Y-131286776D01*
X84842628Y-131267826D01*
X83460000Y-129885199D01*
X83460000Y-128418043D01*
X83614759Y-128314637D01*
X83814637Y-128114759D01*
X83971680Y-127879727D01*
X84079853Y-127618574D01*
X84135000Y-127341335D01*
X84135000Y-127058665D01*
X84079853Y-126781426D01*
X83971680Y-126520273D01*
X83814637Y-126285241D01*
X83614759Y-126085363D01*
X83379727Y-125928320D01*
X83118574Y-125820147D01*
X82841335Y-125765000D01*
X82558665Y-125765000D01*
X82334999Y-125809491D01*
X82334999Y-120970509D01*
X82558665Y-121015000D01*
X82841335Y-121015000D01*
X83118574Y-120959853D01*
X83379727Y-120851680D01*
X83614759Y-120694637D01*
X83814637Y-120494759D01*
X83918043Y-120340000D01*
X85367680Y-120340000D01*
X85405002Y-120343676D01*
X85442324Y-120340000D01*
X85442335Y-120340000D01*
X85553988Y-120329003D01*
X85697249Y-120285546D01*
X85829278Y-120214974D01*
X85945003Y-120120001D01*
X85968806Y-120090997D01*
X87636005Y-118423799D01*
X87665002Y-118400002D01*
X87723830Y-118328320D01*
X87759975Y-118284278D01*
X87830547Y-118152248D01*
X87832746Y-118145000D01*
X87834621Y-118138818D01*
X87885363Y-118214759D01*
%TA.AperFunction,NonConductor*%
D26*
G36*
X87885363Y-118214759D02*
G01*
X87907475Y-118236871D01*
X87685241Y-118385363D01*
X87485363Y-118585241D01*
X87328320Y-118820273D01*
X87220147Y-119081426D01*
X87165000Y-119358665D01*
X87165000Y-119641335D01*
X87220147Y-119918574D01*
X87328320Y-120179727D01*
X87485363Y-120414759D01*
X87685241Y-120614637D01*
X87920273Y-120771680D01*
X88181426Y-120879853D01*
X88458665Y-120935000D01*
X88741335Y-120935000D01*
X88923886Y-120898688D01*
X90675010Y-122649812D01*
X90675011Y-131329239D01*
X90535031Y-131286776D01*
X90240000Y-131257718D01*
X89944968Y-131286776D01*
X89661275Y-131372834D01*
X89399821Y-131512583D01*
X89170655Y-131700655D01*
X89116935Y-131766114D01*
X89058405Y-131656613D01*
X88947962Y-131522038D01*
X88813387Y-131411595D01*
X88659851Y-131329528D01*
X88493255Y-131278992D01*
X88460000Y-131275717D01*
X88460000Y-128555000D01*
X88741335Y-128555000D01*
X89018574Y-128499853D01*
X89279727Y-128391680D01*
X89514759Y-128234637D01*
X89714637Y-128034759D01*
X89871680Y-127799727D01*
X89979853Y-127538574D01*
X90035000Y-127261335D01*
X90035000Y-126978665D01*
X89979853Y-126701426D01*
X89871680Y-126440273D01*
X89714637Y-126205241D01*
X89514759Y-126005363D01*
X89279727Y-125848320D01*
X89018574Y-125740147D01*
X88741335Y-125685000D01*
X88458665Y-125685000D01*
X88181426Y-125740147D01*
X87920273Y-125848320D01*
X87685241Y-126005363D01*
X87485363Y-126205241D01*
X87328320Y-126440273D01*
X87220147Y-126701426D01*
X87165000Y-126978665D01*
X87165000Y-127261335D01*
X87201312Y-127443887D01*
X87188998Y-127456201D01*
X87160000Y-127479999D01*
X87136202Y-127508997D01*
X87136201Y-127508998D01*
X87065026Y-127595724D01*
X86994454Y-127727754D01*
X86972622Y-127799727D01*
X86950998Y-127871014D01*
X86940001Y-127982667D01*
X86936324Y-128020000D01*
X86940001Y-128057332D01*
X86940000Y-131275717D01*
X86906745Y-131278992D01*
X86740149Y-131329528D01*
X86586613Y-131411595D01*
X86452038Y-131522038D01*
X86341595Y-131656613D01*
X86259528Y-131810149D01*
X86208992Y-131976745D01*
X86191928Y-132149999D01*
X86191928Y-132371800D01*
X86137166Y-132191275D01*
X85997417Y-131929821D01*
X85809345Y-131700655D01*
X85580178Y-131512583D01*
X85318724Y-131372834D01*
X85035031Y-131286776D01*
X84842628Y-131267826D01*
X83460000Y-129885199D01*
X83460000Y-128418043D01*
X83614759Y-128314637D01*
X83814637Y-128114759D01*
X83971680Y-127879727D01*
X84079853Y-127618574D01*
X84135000Y-127341335D01*
X84135000Y-127058665D01*
X84079853Y-126781426D01*
X83971680Y-126520273D01*
X83814637Y-126285241D01*
X83614759Y-126085363D01*
X83379727Y-125928320D01*
X83118574Y-125820147D01*
X82841335Y-125765000D01*
X82558665Y-125765000D01*
X82334999Y-125809491D01*
X82334999Y-120970509D01*
X82558665Y-121015000D01*
X82841335Y-121015000D01*
X83118574Y-120959853D01*
X83379727Y-120851680D01*
X83614759Y-120694637D01*
X83814637Y-120494759D01*
X83918043Y-120340000D01*
X85367680Y-120340000D01*
X85405002Y-120343676D01*
X85442324Y-120340000D01*
X85442335Y-120340000D01*
X85553988Y-120329003D01*
X85697249Y-120285546D01*
X85829278Y-120214974D01*
X85945003Y-120120001D01*
X85968806Y-120090997D01*
X87636005Y-118423799D01*
X87665002Y-118400002D01*
X87723830Y-118328320D01*
X87759975Y-118284278D01*
X87830547Y-118152248D01*
X87832746Y-118145000D01*
X87834621Y-118138818D01*
X87885363Y-118214759D01*
G37*
%TD.AperFunction*%
D25*
X82687127Y-131261928D02*
X82334999Y-131261928D01*
X82334999Y-130909800D01*
X82687127Y-131261928D01*
%TA.AperFunction,NonConductor*%
D26*
G36*
X82687127Y-131261928D02*
G01*
X82334999Y-131261928D01*
X82334999Y-130909800D01*
X82687127Y-131261928D01*
G37*
%TD.AperFunction*%
D25*
X75101312Y-126876113D02*
X75065000Y-127058665D01*
X75065000Y-127341335D01*
X75120147Y-127618574D01*
X75139077Y-127664276D01*
X74998688Y-127523886D01*
X75035000Y-127341335D01*
X75035000Y-127058665D01*
X74979853Y-126781426D01*
X74960922Y-126735724D01*
X75101312Y-126876113D01*
%TA.AperFunction,NonConductor*%
D26*
G36*
X75101312Y-126876113D02*
G01*
X75065000Y-127058665D01*
X75065000Y-127341335D01*
X75120147Y-127618574D01*
X75139077Y-127664276D01*
X74998688Y-127523886D01*
X75035000Y-127341335D01*
X75035000Y-127058665D01*
X74979853Y-126781426D01*
X74960922Y-126735724D01*
X75101312Y-126876113D01*
G37*
%TD.AperFunction*%
D25*
X91325024Y-121150223D02*
X89998688Y-119823886D01*
X90035000Y-119641335D01*
X90035000Y-119358665D01*
X89979853Y-119081426D01*
X89871680Y-118820273D01*
X89714637Y-118585241D01*
X89692525Y-118563129D01*
X89914759Y-118414637D01*
X90114637Y-118214759D01*
X90271680Y-117979727D01*
X90379853Y-117718574D01*
X90435000Y-117441335D01*
X90435000Y-117158665D01*
X90379853Y-116881426D01*
X90271680Y-116620273D01*
X90114637Y-116385241D01*
X89914759Y-116185363D01*
X89679727Y-116028320D01*
X89418574Y-115920147D01*
X89141335Y-115865000D01*
X88858665Y-115865000D01*
X88581426Y-115920147D01*
X88320273Y-116028320D01*
X88085241Y-116185363D01*
X87885363Y-116385241D01*
X87885001Y-116385783D01*
X87885001Y-112527326D01*
X87888677Y-112490003D01*
X87885001Y-112452680D01*
X87885001Y-112452670D01*
X87874004Y-112341017D01*
X87830547Y-112197756D01*
X87801886Y-112144135D01*
X87759975Y-112065726D01*
X87688800Y-111979000D01*
X87665002Y-111950002D01*
X87636004Y-111926204D01*
X86680778Y-110970978D01*
X86914759Y-110814637D01*
X87114637Y-110614759D01*
X87271680Y-110379727D01*
X87379853Y-110118574D01*
X87435000Y-109841335D01*
X87435000Y-109558665D01*
X87398688Y-109376114D01*
X87459803Y-109314999D01*
X87609491Y-109314999D01*
X87565000Y-109538665D01*
X87565000Y-109821335D01*
X87620147Y-110098574D01*
X87728320Y-110359727D01*
X87885363Y-110594759D01*
X88085241Y-110794637D01*
X88320273Y-110951680D01*
X88581426Y-111059853D01*
X88858665Y-111115000D01*
X89141335Y-111115000D01*
X89418574Y-111059853D01*
X89679727Y-110951680D01*
X89914759Y-110794637D01*
X90114637Y-110594759D01*
X90271680Y-110359727D01*
X90379853Y-110098574D01*
X90435000Y-109821335D01*
X90435000Y-109538665D01*
X90398688Y-109356114D01*
X91312626Y-108442175D01*
X91325024Y-121150223D01*
%TA.AperFunction,NonConductor*%
D26*
G36*
X91325024Y-121150223D02*
G01*
X89998688Y-119823886D01*
X90035000Y-119641335D01*
X90035000Y-119358665D01*
X89979853Y-119081426D01*
X89871680Y-118820273D01*
X89714637Y-118585241D01*
X89692525Y-118563129D01*
X89914759Y-118414637D01*
X90114637Y-118214759D01*
X90271680Y-117979727D01*
X90379853Y-117718574D01*
X90435000Y-117441335D01*
X90435000Y-117158665D01*
X90379853Y-116881426D01*
X90271680Y-116620273D01*
X90114637Y-116385241D01*
X89914759Y-116185363D01*
X89679727Y-116028320D01*
X89418574Y-115920147D01*
X89141335Y-115865000D01*
X88858665Y-115865000D01*
X88581426Y-115920147D01*
X88320273Y-116028320D01*
X88085241Y-116185363D01*
X87885363Y-116385241D01*
X87885001Y-116385783D01*
X87885001Y-112527326D01*
X87888677Y-112490003D01*
X87885001Y-112452680D01*
X87885001Y-112452670D01*
X87874004Y-112341017D01*
X87830547Y-112197756D01*
X87801886Y-112144135D01*
X87759975Y-112065726D01*
X87688800Y-111979000D01*
X87665002Y-111950002D01*
X87636004Y-111926204D01*
X86680778Y-110970978D01*
X86914759Y-110814637D01*
X87114637Y-110614759D01*
X87271680Y-110379727D01*
X87379853Y-110118574D01*
X87435000Y-109841335D01*
X87435000Y-109558665D01*
X87398688Y-109376114D01*
X87459803Y-109314999D01*
X87609491Y-109314999D01*
X87565000Y-109538665D01*
X87565000Y-109821335D01*
X87620147Y-110098574D01*
X87728320Y-110359727D01*
X87885363Y-110594759D01*
X88085241Y-110794637D01*
X88320273Y-110951680D01*
X88581426Y-111059853D01*
X88858665Y-111115000D01*
X89141335Y-111115000D01*
X89418574Y-111059853D01*
X89679727Y-110951680D01*
X89914759Y-110794637D01*
X90114637Y-110594759D01*
X90271680Y-110359727D01*
X90379853Y-110098574D01*
X90435000Y-109821335D01*
X90435000Y-109538665D01*
X90398688Y-109356114D01*
X91312626Y-108442175D01*
X91325024Y-121150223D01*
G37*
%TD.AperFunction*%
D25*
X80815000Y-111753392D02*
X80815000Y-118835445D01*
X80714637Y-118685241D01*
X80514759Y-118485363D01*
X80360000Y-118381957D01*
X80360000Y-111298392D01*
X80815000Y-111753392D01*
%TA.AperFunction,NonConductor*%
D26*
G36*
X80815000Y-111753392D02*
G01*
X80815000Y-118835445D01*
X80714637Y-118685241D01*
X80514759Y-118485363D01*
X80360000Y-118381957D01*
X80360000Y-111298392D01*
X80815000Y-111753392D01*
G37*
%TD.AperFunction*%
D25*
X84601312Y-116996114D02*
X84565000Y-117178665D01*
X84565000Y-117461335D01*
X84620147Y-117738574D01*
X84728320Y-117999727D01*
X84885363Y-118234759D01*
X85085241Y-118434637D01*
X85319223Y-118590978D01*
X85090201Y-118820000D01*
X83918043Y-118820000D01*
X83814637Y-118665241D01*
X83614759Y-118465363D01*
X83379727Y-118308320D01*
X83118574Y-118200147D01*
X82841335Y-118145000D01*
X82558665Y-118145000D01*
X82334999Y-118189491D01*
X82334999Y-114729800D01*
X84601312Y-116996114D01*
%TA.AperFunction,NonConductor*%
D26*
G36*
X84601312Y-116996114D02*
G01*
X84565000Y-117178665D01*
X84565000Y-117461335D01*
X84620147Y-117738574D01*
X84728320Y-117999727D01*
X84885363Y-118234759D01*
X85085241Y-118434637D01*
X85319223Y-118590978D01*
X85090201Y-118820000D01*
X83918043Y-118820000D01*
X83814637Y-118665241D01*
X83614759Y-118465363D01*
X83379727Y-118308320D01*
X83118574Y-118200147D01*
X82841335Y-118145000D01*
X82558665Y-118145000D01*
X82334999Y-118189491D01*
X82334999Y-114729800D01*
X84601312Y-116996114D01*
G37*
%TD.AperFunction*%
D25*
X69385363Y-118214759D02*
X69585241Y-118414637D01*
X69623199Y-118440000D01*
X69585241Y-118465363D01*
X69385363Y-118665241D01*
X69364990Y-118695731D01*
X69364990Y-118184269D01*
X69385363Y-118214759D01*
%TA.AperFunction,NonConductor*%
D26*
G36*
X69385363Y-118214759D02*
G01*
X69585241Y-118414637D01*
X69623199Y-118440000D01*
X69585241Y-118465363D01*
X69385363Y-118665241D01*
X69364990Y-118695731D01*
X69364990Y-118184269D01*
X69385363Y-118214759D01*
G37*
%TD.AperFunction*%
D25*
X82968192Y-108552182D02*
X83238691Y-108634236D01*
X83520000Y-108661943D01*
X83801308Y-108634236D01*
X83885010Y-108608845D01*
X83885010Y-109972689D01*
X83881334Y-110010012D01*
X83885010Y-110047334D01*
X83885010Y-110047344D01*
X83896007Y-110158997D01*
X83927798Y-110263799D01*
X83939464Y-110302258D01*
X84010036Y-110434288D01*
X84049881Y-110482838D01*
X84105009Y-110550013D01*
X84134013Y-110573816D01*
X86365002Y-112804806D01*
X86365001Y-115929491D01*
X86141335Y-115885000D01*
X85858665Y-115885000D01*
X85676114Y-115921312D01*
X82865010Y-113110209D01*
X82865010Y-108497030D01*
X82968192Y-108552182D01*
%TA.AperFunction,NonConductor*%
D26*
G36*
X82968192Y-108552182D02*
G01*
X83238691Y-108634236D01*
X83520000Y-108661943D01*
X83801308Y-108634236D01*
X83885010Y-108608845D01*
X83885010Y-109972689D01*
X83881334Y-110010012D01*
X83885010Y-110047334D01*
X83885010Y-110047344D01*
X83896007Y-110158997D01*
X83927798Y-110263799D01*
X83939464Y-110302258D01*
X84010036Y-110434288D01*
X84049881Y-110482838D01*
X84105009Y-110550013D01*
X84134013Y-110573816D01*
X86365002Y-112804806D01*
X86365001Y-115929491D01*
X86141335Y-115885000D01*
X85858665Y-115885000D01*
X85676114Y-115921312D01*
X82865010Y-113110209D01*
X82865010Y-108497030D01*
X82968192Y-108552182D01*
G37*
%TD.AperFunction*%
D25*
X80428192Y-108552182D02*
X80698691Y-108634236D01*
X80980000Y-108661943D01*
X81261308Y-108634236D01*
X81345011Y-108608845D01*
X81345010Y-110133799D01*
X80325010Y-109113799D01*
X80325010Y-108497030D01*
X80428192Y-108552182D01*
%TA.AperFunction,NonConductor*%
D26*
G36*
X80428192Y-108552182D02*
G01*
X80698691Y-108634236D01*
X80980000Y-108661943D01*
X81261308Y-108634236D01*
X81345011Y-108608845D01*
X81345010Y-110133799D01*
X80325010Y-109113799D01*
X80325010Y-108497030D01*
X80428192Y-108552182D01*
G37*
%TD.AperFunction*%
D25*
X77241068Y-100401100D02*
X77420392Y-100619607D01*
X77638899Y-100798932D01*
X77680000Y-100820901D01*
X77680001Y-105199099D01*
X77638900Y-105221068D01*
X77420393Y-105400392D01*
X77241068Y-105618899D01*
X77170000Y-105751858D01*
X77098932Y-105618899D01*
X76919608Y-105400392D01*
X76701101Y-105221068D01*
X76451808Y-105087818D01*
X76260000Y-105029634D01*
X76260000Y-104318043D01*
X76414759Y-104214637D01*
X76614637Y-104014759D01*
X76771680Y-103779727D01*
X76879853Y-103518574D01*
X76935000Y-103241335D01*
X76935000Y-102958665D01*
X76879853Y-102681426D01*
X76771680Y-102420273D01*
X76614637Y-102185241D01*
X76414759Y-101985363D01*
X76179727Y-101828320D01*
X75918574Y-101720147D01*
X75641335Y-101665000D01*
X75358665Y-101665000D01*
X75081426Y-101720147D01*
X74820273Y-101828320D01*
X74585241Y-101985363D01*
X74385363Y-102185241D01*
X74250000Y-102387827D01*
X74114637Y-102185241D01*
X73914759Y-101985363D01*
X73679727Y-101828320D01*
X73418574Y-101720147D01*
X73141335Y-101665000D01*
X72858665Y-101665000D01*
X72581426Y-101720147D01*
X72320273Y-101828320D01*
X72085241Y-101985363D01*
X71885363Y-102185241D01*
X71728320Y-102420273D01*
X71620147Y-102681426D01*
X71565000Y-102958665D01*
X71565000Y-103241335D01*
X71620147Y-103518574D01*
X71728320Y-103779727D01*
X71885363Y-104014759D01*
X72085241Y-104214637D01*
X72320273Y-104371680D01*
X72581426Y-104479853D01*
X72858665Y-104535000D01*
X73141335Y-104535000D01*
X73323886Y-104498688D01*
X73725011Y-104899813D01*
X73725011Y-105031154D01*
X73641309Y-105005764D01*
X73360000Y-104978057D01*
X73078692Y-105005764D01*
X72808193Y-105087818D01*
X72558900Y-105221068D01*
X72340393Y-105400392D01*
X72161068Y-105618899D01*
X72090000Y-105751858D01*
X72018932Y-105618899D01*
X71839608Y-105400392D01*
X71621101Y-105221068D01*
X71371808Y-105087818D01*
X71101309Y-105005764D01*
X70820000Y-104978057D01*
X70538692Y-105005764D01*
X70268193Y-105087818D01*
X70018900Y-105221068D01*
X69800393Y-105400392D01*
X69621068Y-105618899D01*
X69487818Y-105868192D01*
X69405764Y-106138691D01*
X69385000Y-106349508D01*
X69385000Y-107290491D01*
X69405764Y-107501308D01*
X69487818Y-107771807D01*
X69621068Y-108021100D01*
X69800392Y-108239607D01*
X69943682Y-108357202D01*
X69820273Y-108408320D01*
X69585241Y-108565363D01*
X69385363Y-108765241D01*
X69364990Y-108795731D01*
X69364990Y-101729811D01*
X70199393Y-100895408D01*
X70268192Y-100932182D01*
X70538691Y-101014236D01*
X70820000Y-101041943D01*
X71101308Y-101014236D01*
X71371807Y-100932182D01*
X71621100Y-100798932D01*
X71839607Y-100619608D01*
X72018932Y-100401101D01*
X72090000Y-100268142D01*
X72161068Y-100401100D01*
X72340392Y-100619607D01*
X72558899Y-100798932D01*
X72808192Y-100932182D01*
X73078691Y-101014236D01*
X73360000Y-101041943D01*
X73641308Y-101014236D01*
X73911807Y-100932182D01*
X74161100Y-100798932D01*
X74379607Y-100619608D01*
X74558932Y-100401101D01*
X74630000Y-100268142D01*
X74701068Y-100401100D01*
X74880392Y-100619607D01*
X75098899Y-100798932D01*
X75348192Y-100932182D01*
X75618691Y-101014236D01*
X75900000Y-101041943D01*
X76181308Y-101014236D01*
X76451807Y-100932182D01*
X76701100Y-100798932D01*
X76919607Y-100619608D01*
X77098932Y-100401101D01*
X77170000Y-100268142D01*
X77241068Y-100401100D01*
%TA.AperFunction,NonConductor*%
D26*
G36*
X77241068Y-100401100D02*
G01*
X77420392Y-100619607D01*
X77638899Y-100798932D01*
X77680000Y-100820901D01*
X77680001Y-105199099D01*
X77638900Y-105221068D01*
X77420393Y-105400392D01*
X77241068Y-105618899D01*
X77170000Y-105751858D01*
X77098932Y-105618899D01*
X76919608Y-105400392D01*
X76701101Y-105221068D01*
X76451808Y-105087818D01*
X76260000Y-105029634D01*
X76260000Y-104318043D01*
X76414759Y-104214637D01*
X76614637Y-104014759D01*
X76771680Y-103779727D01*
X76879853Y-103518574D01*
X76935000Y-103241335D01*
X76935000Y-102958665D01*
X76879853Y-102681426D01*
X76771680Y-102420273D01*
X76614637Y-102185241D01*
X76414759Y-101985363D01*
X76179727Y-101828320D01*
X75918574Y-101720147D01*
X75641335Y-101665000D01*
X75358665Y-101665000D01*
X75081426Y-101720147D01*
X74820273Y-101828320D01*
X74585241Y-101985363D01*
X74385363Y-102185241D01*
X74250000Y-102387827D01*
X74114637Y-102185241D01*
X73914759Y-101985363D01*
X73679727Y-101828320D01*
X73418574Y-101720147D01*
X73141335Y-101665000D01*
X72858665Y-101665000D01*
X72581426Y-101720147D01*
X72320273Y-101828320D01*
X72085241Y-101985363D01*
X71885363Y-102185241D01*
X71728320Y-102420273D01*
X71620147Y-102681426D01*
X71565000Y-102958665D01*
X71565000Y-103241335D01*
X71620147Y-103518574D01*
X71728320Y-103779727D01*
X71885363Y-104014759D01*
X72085241Y-104214637D01*
X72320273Y-104371680D01*
X72581426Y-104479853D01*
X72858665Y-104535000D01*
X73141335Y-104535000D01*
X73323886Y-104498688D01*
X73725011Y-104899813D01*
X73725011Y-105031154D01*
X73641309Y-105005764D01*
X73360000Y-104978057D01*
X73078692Y-105005764D01*
X72808193Y-105087818D01*
X72558900Y-105221068D01*
X72340393Y-105400392D01*
X72161068Y-105618899D01*
X72090000Y-105751858D01*
X72018932Y-105618899D01*
X71839608Y-105400392D01*
X71621101Y-105221068D01*
X71371808Y-105087818D01*
X71101309Y-105005764D01*
X70820000Y-104978057D01*
X70538692Y-105005764D01*
X70268193Y-105087818D01*
X70018900Y-105221068D01*
X69800393Y-105400392D01*
X69621068Y-105618899D01*
X69487818Y-105868192D01*
X69405764Y-106138691D01*
X69385000Y-106349508D01*
X69385000Y-107290491D01*
X69405764Y-107501308D01*
X69487818Y-107771807D01*
X69621068Y-108021100D01*
X69800392Y-108239607D01*
X69943682Y-108357202D01*
X69820273Y-108408320D01*
X69585241Y-108565363D01*
X69385363Y-108765241D01*
X69364990Y-108795731D01*
X69364990Y-101729811D01*
X70199393Y-100895408D01*
X70268192Y-100932182D01*
X70538691Y-101014236D01*
X70820000Y-101041943D01*
X71101308Y-101014236D01*
X71371807Y-100932182D01*
X71621100Y-100798932D01*
X71839607Y-100619608D01*
X72018932Y-100401101D01*
X72090000Y-100268142D01*
X72161068Y-100401100D01*
X72340392Y-100619607D01*
X72558899Y-100798932D01*
X72808192Y-100932182D01*
X73078691Y-101014236D01*
X73360000Y-101041943D01*
X73641308Y-101014236D01*
X73911807Y-100932182D01*
X74161100Y-100798932D01*
X74379607Y-100619608D01*
X74558932Y-100401101D01*
X74630000Y-100268142D01*
X74701068Y-100401100D01*
X74880392Y-100619607D01*
X75098899Y-100798932D01*
X75348192Y-100932182D01*
X75618691Y-101014236D01*
X75900000Y-101041943D01*
X76181308Y-101014236D01*
X76451807Y-100932182D01*
X76701100Y-100798932D01*
X76919607Y-100619608D01*
X77098932Y-100401101D01*
X77170000Y-100268142D01*
X77241068Y-100401100D01*
G37*
%TD.AperFunction*%
D25*
X75816851Y-108653753D02*
X75757018Y-108713586D01*
X75684112Y-108640679D01*
X75816851Y-108653753D01*
%TA.AperFunction,NonConductor*%
D26*
G36*
X75816851Y-108653753D02*
G01*
X75757018Y-108713586D01*
X75684112Y-108640679D01*
X75816851Y-108653753D01*
G37*
%TD.AperFunction*%
D25*
X77241068Y-108021100D02*
X77420392Y-108239607D01*
X77638899Y-108418932D01*
X77680000Y-108440901D01*
X77680000Y-108562138D01*
X77479727Y-108428320D01*
X77218574Y-108320147D01*
X76941335Y-108265000D01*
X76888667Y-108265000D01*
X76919607Y-108239608D01*
X77098932Y-108021101D01*
X77170000Y-107888142D01*
X77241068Y-108021100D01*
%TA.AperFunction,NonConductor*%
D26*
G36*
X77241068Y-108021100D02*
G01*
X77420392Y-108239607D01*
X77638899Y-108418932D01*
X77680000Y-108440901D01*
X77680000Y-108562138D01*
X77479727Y-108428320D01*
X77218574Y-108320147D01*
X76941335Y-108265000D01*
X76888667Y-108265000D01*
X76919607Y-108239608D01*
X77098932Y-108021101D01*
X77170000Y-107888142D01*
X77241068Y-108021100D01*
G37*
%TD.AperFunction*%
D25*
X90185011Y-106151191D02*
X90141073Y-106195130D01*
X90149003Y-106168986D01*
X90160000Y-106057333D01*
X90160000Y-106057323D01*
X90163676Y-106020000D01*
X90160000Y-105982677D01*
X90160000Y-103718043D01*
X90185011Y-103701332D01*
X90185011Y-106151191D01*
%TA.AperFunction,NonConductor*%
D26*
G36*
X90185011Y-106151191D02*
G01*
X90141073Y-106195130D01*
X90149003Y-106168986D01*
X90160000Y-106057333D01*
X90160000Y-106057323D01*
X90163676Y-106020000D01*
X90160000Y-105982677D01*
X90160000Y-103718043D01*
X90185011Y-103701332D01*
X90185011Y-106151191D01*
G37*
%TD.AperFunction*%
D25*
X88000392Y-78999608D02*
X88218899Y-79178932D01*
X88468192Y-79312182D01*
X88738691Y-79394236D01*
X88949508Y-79415000D01*
X89890492Y-79415000D01*
X90101309Y-79394236D01*
X90185010Y-79368846D01*
X90185010Y-80570562D01*
X90114637Y-80465241D01*
X89914759Y-80265363D01*
X89679727Y-80108320D01*
X89418574Y-80000147D01*
X89141335Y-79945000D01*
X88858665Y-79945000D01*
X88581426Y-80000147D01*
X88320273Y-80108320D01*
X88085241Y-80265363D01*
X87885363Y-80465241D01*
X87728320Y-80700273D01*
X87620147Y-80961426D01*
X87565000Y-81238665D01*
X87565000Y-81521335D01*
X87620147Y-81798574D01*
X87728320Y-82059727D01*
X87885363Y-82294759D01*
X88085241Y-82494637D01*
X88320273Y-82651680D01*
X88581426Y-82759853D01*
X88858665Y-82815000D01*
X89141335Y-82815000D01*
X89418574Y-82759853D01*
X89679727Y-82651680D01*
X89914759Y-82494637D01*
X90114637Y-82294759D01*
X90185010Y-82189438D01*
X90185010Y-87694507D01*
X90154494Y-87669463D01*
X90044180Y-87610498D01*
X89924482Y-87574188D01*
X89800000Y-87561928D01*
X88200000Y-87561928D01*
X88075518Y-87574188D01*
X87955820Y-87610498D01*
X87845506Y-87669463D01*
X87748815Y-87748815D01*
X87669463Y-87845506D01*
X87610498Y-87955820D01*
X87574188Y-88075518D01*
X87561928Y-88200000D01*
X87561928Y-89800000D01*
X87574188Y-89924482D01*
X87610498Y-90044180D01*
X87669463Y-90154494D01*
X87748815Y-90251185D01*
X87845506Y-90330537D01*
X87955820Y-90389502D01*
X88075518Y-90425812D01*
X88200000Y-90438072D01*
X88240000Y-90438072D01*
X88240001Y-94033130D01*
X88128320Y-94200273D01*
X88020147Y-94461426D01*
X87965000Y-94738665D01*
X87965000Y-95021335D01*
X88020147Y-95298574D01*
X88128320Y-95559727D01*
X88285363Y-95794759D01*
X88485241Y-95994637D01*
X88720273Y-96151680D01*
X88981426Y-96259853D01*
X89258665Y-96315000D01*
X89541335Y-96315000D01*
X89818574Y-96259853D01*
X90079727Y-96151680D01*
X90185011Y-96081332D01*
X90185011Y-101298668D01*
X90079727Y-101228320D01*
X89818574Y-101120147D01*
X89541335Y-101065000D01*
X89258665Y-101065000D01*
X88981426Y-101120147D01*
X88720273Y-101228320D01*
X88485241Y-101385363D01*
X88285363Y-101585241D01*
X88128320Y-101820273D01*
X88020147Y-102081426D01*
X87965000Y-102358665D01*
X87965000Y-102641335D01*
X88020147Y-102918574D01*
X88128320Y-103179727D01*
X88285363Y-103414759D01*
X88485241Y-103614637D01*
X88640000Y-103718044D01*
X88640001Y-104981997D01*
X88600000Y-104978057D01*
X88318692Y-105005764D01*
X88048193Y-105087818D01*
X87798900Y-105221068D01*
X87580393Y-105400392D01*
X87401068Y-105618899D01*
X87330000Y-105751858D01*
X87258932Y-105618899D01*
X87079608Y-105400392D01*
X86861101Y-105221068D01*
X86611808Y-105087818D01*
X86341309Y-105005764D01*
X86060000Y-104978057D01*
X85778692Y-105005764D01*
X85508193Y-105087818D01*
X85258900Y-105221068D01*
X85190747Y-105277000D01*
X85185011Y-105270011D01*
X85156013Y-105246213D01*
X84280778Y-104370978D01*
X84514759Y-104214637D01*
X84714637Y-104014759D01*
X84850000Y-103812173D01*
X84985363Y-104014759D01*
X85185241Y-104214637D01*
X85420273Y-104371680D01*
X85681426Y-104479853D01*
X85958665Y-104535000D01*
X86241335Y-104535000D01*
X86518574Y-104479853D01*
X86779727Y-104371680D01*
X87014759Y-104214637D01*
X87214637Y-104014759D01*
X87371680Y-103779727D01*
X87479853Y-103518574D01*
X87535000Y-103241335D01*
X87535000Y-102958665D01*
X87479853Y-102681426D01*
X87371680Y-102420273D01*
X87214637Y-102185241D01*
X87014759Y-101985363D01*
X86779727Y-101828320D01*
X86518574Y-101720147D01*
X86241335Y-101665000D01*
X85958665Y-101665000D01*
X85694990Y-101717449D01*
X85694990Y-100988846D01*
X85778691Y-101014236D01*
X86060000Y-101041943D01*
X86341308Y-101014236D01*
X86611807Y-100932182D01*
X86861100Y-100798932D01*
X87079607Y-100619608D01*
X87172419Y-100506517D01*
X87174188Y-100524482D01*
X87210498Y-100644180D01*
X87269463Y-100754494D01*
X87348815Y-100851185D01*
X87445506Y-100930537D01*
X87555820Y-100989502D01*
X87675518Y-101025812D01*
X87800000Y-101038072D01*
X89400000Y-101038072D01*
X89524482Y-101025812D01*
X89644180Y-100989502D01*
X89754494Y-100930537D01*
X89851185Y-100851185D01*
X89930537Y-100754494D01*
X89989502Y-100644180D01*
X90025812Y-100524482D01*
X90038072Y-100400000D01*
X90038072Y-98000000D01*
X90025812Y-97875518D01*
X89989502Y-97755820D01*
X89930537Y-97645506D01*
X89851185Y-97548815D01*
X89754494Y-97469463D01*
X89644180Y-97410498D01*
X89524482Y-97374188D01*
X89400000Y-97361928D01*
X87800000Y-97361928D01*
X87675518Y-97374188D01*
X87555820Y-97410498D01*
X87445506Y-97469463D01*
X87348815Y-97548815D01*
X87269463Y-97645506D01*
X87210498Y-97755820D01*
X87174188Y-97875518D01*
X87172419Y-97893482D01*
X87079608Y-97780392D01*
X86861101Y-97601068D01*
X86783962Y-97559836D01*
X87311008Y-97032791D01*
X87340001Y-97008997D01*
X87363795Y-96980004D01*
X87363799Y-96980000D01*
X87434973Y-96893273D01*
X87434974Y-96893272D01*
X87505546Y-96761243D01*
X87549003Y-96617982D01*
X87560000Y-96506329D01*
X87560000Y-96506320D01*
X87563676Y-96468997D01*
X87560000Y-96431674D01*
X87560000Y-79118043D01*
X87714759Y-79014637D01*
X87878416Y-78850980D01*
X88000392Y-78999608D01*
%TA.AperFunction,NonConductor*%
D26*
G36*
X88000392Y-78999608D02*
G01*
X88218899Y-79178932D01*
X88468192Y-79312182D01*
X88738691Y-79394236D01*
X88949508Y-79415000D01*
X89890492Y-79415000D01*
X90101309Y-79394236D01*
X90185010Y-79368846D01*
X90185010Y-80570562D01*
X90114637Y-80465241D01*
X89914759Y-80265363D01*
X89679727Y-80108320D01*
X89418574Y-80000147D01*
X89141335Y-79945000D01*
X88858665Y-79945000D01*
X88581426Y-80000147D01*
X88320273Y-80108320D01*
X88085241Y-80265363D01*
X87885363Y-80465241D01*
X87728320Y-80700273D01*
X87620147Y-80961426D01*
X87565000Y-81238665D01*
X87565000Y-81521335D01*
X87620147Y-81798574D01*
X87728320Y-82059727D01*
X87885363Y-82294759D01*
X88085241Y-82494637D01*
X88320273Y-82651680D01*
X88581426Y-82759853D01*
X88858665Y-82815000D01*
X89141335Y-82815000D01*
X89418574Y-82759853D01*
X89679727Y-82651680D01*
X89914759Y-82494637D01*
X90114637Y-82294759D01*
X90185010Y-82189438D01*
X90185010Y-87694507D01*
X90154494Y-87669463D01*
X90044180Y-87610498D01*
X89924482Y-87574188D01*
X89800000Y-87561928D01*
X88200000Y-87561928D01*
X88075518Y-87574188D01*
X87955820Y-87610498D01*
X87845506Y-87669463D01*
X87748815Y-87748815D01*
X87669463Y-87845506D01*
X87610498Y-87955820D01*
X87574188Y-88075518D01*
X87561928Y-88200000D01*
X87561928Y-89800000D01*
X87574188Y-89924482D01*
X87610498Y-90044180D01*
X87669463Y-90154494D01*
X87748815Y-90251185D01*
X87845506Y-90330537D01*
X87955820Y-90389502D01*
X88075518Y-90425812D01*
X88200000Y-90438072D01*
X88240000Y-90438072D01*
X88240001Y-94033130D01*
X88128320Y-94200273D01*
X88020147Y-94461426D01*
X87965000Y-94738665D01*
X87965000Y-95021335D01*
X88020147Y-95298574D01*
X88128320Y-95559727D01*
X88285363Y-95794759D01*
X88485241Y-95994637D01*
X88720273Y-96151680D01*
X88981426Y-96259853D01*
X89258665Y-96315000D01*
X89541335Y-96315000D01*
X89818574Y-96259853D01*
X90079727Y-96151680D01*
X90185011Y-96081332D01*
X90185011Y-101298668D01*
X90079727Y-101228320D01*
X89818574Y-101120147D01*
X89541335Y-101065000D01*
X89258665Y-101065000D01*
X88981426Y-101120147D01*
X88720273Y-101228320D01*
X88485241Y-101385363D01*
X88285363Y-101585241D01*
X88128320Y-101820273D01*
X88020147Y-102081426D01*
X87965000Y-102358665D01*
X87965000Y-102641335D01*
X88020147Y-102918574D01*
X88128320Y-103179727D01*
X88285363Y-103414759D01*
X88485241Y-103614637D01*
X88640000Y-103718044D01*
X88640001Y-104981997D01*
X88600000Y-104978057D01*
X88318692Y-105005764D01*
X88048193Y-105087818D01*
X87798900Y-105221068D01*
X87580393Y-105400392D01*
X87401068Y-105618899D01*
X87330000Y-105751858D01*
X87258932Y-105618899D01*
X87079608Y-105400392D01*
X86861101Y-105221068D01*
X86611808Y-105087818D01*
X86341309Y-105005764D01*
X86060000Y-104978057D01*
X85778692Y-105005764D01*
X85508193Y-105087818D01*
X85258900Y-105221068D01*
X85190747Y-105277000D01*
X85185011Y-105270011D01*
X85156013Y-105246213D01*
X84280778Y-104370978D01*
X84514759Y-104214637D01*
X84714637Y-104014759D01*
X84850000Y-103812173D01*
X84985363Y-104014759D01*
X85185241Y-104214637D01*
X85420273Y-104371680D01*
X85681426Y-104479853D01*
X85958665Y-104535000D01*
X86241335Y-104535000D01*
X86518574Y-104479853D01*
X86779727Y-104371680D01*
X87014759Y-104214637D01*
X87214637Y-104014759D01*
X87371680Y-103779727D01*
X87479853Y-103518574D01*
X87535000Y-103241335D01*
X87535000Y-102958665D01*
X87479853Y-102681426D01*
X87371680Y-102420273D01*
X87214637Y-102185241D01*
X87014759Y-101985363D01*
X86779727Y-101828320D01*
X86518574Y-101720147D01*
X86241335Y-101665000D01*
X85958665Y-101665000D01*
X85694990Y-101717449D01*
X85694990Y-100988846D01*
X85778691Y-101014236D01*
X86060000Y-101041943D01*
X86341308Y-101014236D01*
X86611807Y-100932182D01*
X86861100Y-100798932D01*
X87079607Y-100619608D01*
X87172419Y-100506517D01*
X87174188Y-100524482D01*
X87210498Y-100644180D01*
X87269463Y-100754494D01*
X87348815Y-100851185D01*
X87445506Y-100930537D01*
X87555820Y-100989502D01*
X87675518Y-101025812D01*
X87800000Y-101038072D01*
X89400000Y-101038072D01*
X89524482Y-101025812D01*
X89644180Y-100989502D01*
X89754494Y-100930537D01*
X89851185Y-100851185D01*
X89930537Y-100754494D01*
X89989502Y-100644180D01*
X90025812Y-100524482D01*
X90038072Y-100400000D01*
X90038072Y-98000000D01*
X90025812Y-97875518D01*
X89989502Y-97755820D01*
X89930537Y-97645506D01*
X89851185Y-97548815D01*
X89754494Y-97469463D01*
X89644180Y-97410498D01*
X89524482Y-97374188D01*
X89400000Y-97361928D01*
X87800000Y-97361928D01*
X87675518Y-97374188D01*
X87555820Y-97410498D01*
X87445506Y-97469463D01*
X87348815Y-97548815D01*
X87269463Y-97645506D01*
X87210498Y-97755820D01*
X87174188Y-97875518D01*
X87172419Y-97893482D01*
X87079608Y-97780392D01*
X86861101Y-97601068D01*
X86783962Y-97559836D01*
X87311008Y-97032791D01*
X87340001Y-97008997D01*
X87363795Y-96980004D01*
X87363799Y-96980000D01*
X87434973Y-96893273D01*
X87434974Y-96893272D01*
X87505546Y-96761243D01*
X87549003Y-96617982D01*
X87560000Y-96506329D01*
X87560000Y-96506320D01*
X87563676Y-96468997D01*
X87560000Y-96431674D01*
X87560000Y-79118043D01*
X87714759Y-79014637D01*
X87878416Y-78850980D01*
X88000392Y-78999608D01*
G37*
%TD.AperFunction*%
D25*
X80428192Y-100932182D02*
X80698691Y-101014236D01*
X80980000Y-101041943D01*
X81261308Y-101014236D01*
X81264989Y-101013119D01*
X81264988Y-103789078D01*
X81261312Y-103826401D01*
X81264988Y-103863723D01*
X81264988Y-103863733D01*
X81275985Y-103975386D01*
X81305901Y-104074007D01*
X81319442Y-104118647D01*
X81345011Y-104166483D01*
X81345011Y-105031154D01*
X81261309Y-105005764D01*
X80980000Y-104978057D01*
X80698692Y-105005764D01*
X80428193Y-105087818D01*
X80325010Y-105142971D01*
X80325010Y-100877030D01*
X80428192Y-100932182D01*
%TA.AperFunction,NonConductor*%
D26*
G36*
X80428192Y-100932182D02*
G01*
X80698691Y-101014236D01*
X80980000Y-101041943D01*
X81261308Y-101014236D01*
X81264989Y-101013119D01*
X81264988Y-103789078D01*
X81261312Y-103826401D01*
X81264988Y-103863723D01*
X81264988Y-103863733D01*
X81275985Y-103975386D01*
X81305901Y-104074007D01*
X81319442Y-104118647D01*
X81345011Y-104166483D01*
X81345011Y-105031154D01*
X81261309Y-105005764D01*
X80980000Y-104978057D01*
X80698692Y-105005764D01*
X80428193Y-105087818D01*
X80325010Y-105142971D01*
X80325010Y-100877030D01*
X80428192Y-100932182D01*
G37*
%TD.AperFunction*%
D25*
X82889876Y-105129679D02*
X82865010Y-105142971D01*
X82865010Y-105104813D01*
X82889876Y-105129679D01*
%TA.AperFunction,NonConductor*%
D26*
G36*
X82889876Y-105129679D02*
G01*
X82865010Y-105142971D01*
X82865010Y-105104813D01*
X82889876Y-105129679D01*
G37*
%TD.AperFunction*%
D25*
X84174991Y-101450207D02*
X83923886Y-101701312D01*
X83741335Y-101665000D01*
X83458665Y-101665000D01*
X83234999Y-101709491D01*
X83234999Y-101013116D01*
X83238691Y-101014236D01*
X83520000Y-101041943D01*
X83801308Y-101014236D01*
X84071807Y-100932182D01*
X84174991Y-100877029D01*
X84174991Y-101450207D01*
%TA.AperFunction,NonConductor*%
D26*
G36*
X84174991Y-101450207D02*
G01*
X83923886Y-101701312D01*
X83741335Y-101665000D01*
X83458665Y-101665000D01*
X83234999Y-101709491D01*
X83234999Y-101013116D01*
X83238691Y-101014236D01*
X83520000Y-101041943D01*
X83801308Y-101014236D01*
X84071807Y-100932182D01*
X84174991Y-100877029D01*
X84174991Y-101450207D01*
G37*
%TD.AperFunction*%
D25*
X91279802Y-74797289D02*
X91162247Y-74734454D01*
X91052157Y-74701059D01*
X91018932Y-74638899D01*
X90839608Y-74420392D01*
X90621101Y-74241068D01*
X90488142Y-74170000D01*
X90621101Y-74098932D01*
X90839608Y-73919608D01*
X91018932Y-73701101D01*
X91152182Y-73451808D01*
X91234236Y-73181309D01*
X91261943Y-72900000D01*
X91234236Y-72618691D01*
X91152182Y-72348192D01*
X91018932Y-72098899D01*
X90839608Y-71880392D01*
X90621101Y-71701068D01*
X90488142Y-71630000D01*
X90621101Y-71558932D01*
X90839608Y-71379608D01*
X91018932Y-71161101D01*
X91152182Y-70911808D01*
X91234236Y-70641309D01*
X91261943Y-70360000D01*
X91234236Y-70078691D01*
X91152182Y-69808192D01*
X91018932Y-69558899D01*
X90839608Y-69340392D01*
X90621101Y-69161068D01*
X90371808Y-69027818D01*
X90101309Y-68945764D01*
X89890492Y-68925000D01*
X88949508Y-68925000D01*
X88738691Y-68945764D01*
X88468192Y-69027818D01*
X88218899Y-69161068D01*
X88000392Y-69340392D01*
X87821068Y-69558899D01*
X87687818Y-69808192D01*
X87605764Y-70078691D01*
X87578057Y-70360000D01*
X87605764Y-70641309D01*
X87687818Y-70911808D01*
X87821068Y-71161101D01*
X88000392Y-71379608D01*
X88218899Y-71558932D01*
X88351858Y-71630000D01*
X88218899Y-71701068D01*
X88000392Y-71880392D01*
X87821068Y-72098899D01*
X87687818Y-72348192D01*
X87605764Y-72618691D01*
X87578057Y-72900000D01*
X87605764Y-73181309D01*
X87687818Y-73451808D01*
X87821068Y-73701101D01*
X88000392Y-73919608D01*
X88218899Y-74098932D01*
X88351858Y-74170000D01*
X88218899Y-74241068D01*
X88000392Y-74420392D01*
X87929238Y-74507093D01*
X87914637Y-74485241D01*
X87714759Y-74285363D01*
X87479727Y-74128320D01*
X87218574Y-74020147D01*
X86941335Y-73965000D01*
X86658665Y-73965000D01*
X86381426Y-74020147D01*
X86120273Y-74128320D01*
X85885241Y-74285363D01*
X85685363Y-74485241D01*
X85649185Y-74539385D01*
X85580778Y-74470978D01*
X85814759Y-74314637D01*
X86014637Y-74114759D01*
X86171680Y-73879727D01*
X86279853Y-73618574D01*
X86335000Y-73341335D01*
X86335000Y-73058665D01*
X86298688Y-72876114D01*
X87011003Y-72163799D01*
X87040001Y-72140001D01*
X87134974Y-72024276D01*
X87205546Y-71892247D01*
X87249003Y-71748986D01*
X87260000Y-71637333D01*
X87260000Y-71637325D01*
X87263676Y-71600000D01*
X87260000Y-71562675D01*
X87260000Y-52346171D01*
X89411003Y-50195169D01*
X89440001Y-50171371D01*
X89534974Y-50055646D01*
X89605546Y-49923617D01*
X89649003Y-49780356D01*
X89654798Y-49721519D01*
X89814759Y-49614637D01*
X90014637Y-49414759D01*
X90171680Y-49179727D01*
X90279853Y-48918574D01*
X90335000Y-48641335D01*
X90335000Y-48358665D01*
X90279853Y-48081426D01*
X90171680Y-47820273D01*
X90014637Y-47585241D01*
X89814759Y-47385363D01*
X89660000Y-47281957D01*
X89660000Y-46817322D01*
X89663676Y-46779999D01*
X89660000Y-46742676D01*
X89660000Y-46742667D01*
X89649003Y-46631014D01*
X89605546Y-46487753D01*
X89534974Y-46355724D01*
X89440001Y-46239999D01*
X89411004Y-46216202D01*
X85193401Y-41998600D01*
X85307599Y-41998600D01*
X85597125Y-41941010D01*
X85869853Y-41828042D01*
X86115302Y-41664039D01*
X86324039Y-41455302D01*
X86488042Y-41209853D01*
X86601010Y-40937125D01*
X86658600Y-40647599D01*
X86658600Y-40352401D01*
X86601010Y-40062875D01*
X86488042Y-39790147D01*
X86324039Y-39544698D01*
X86115302Y-39335961D01*
X85956719Y-39230000D01*
X86115302Y-39124039D01*
X86324039Y-38915302D01*
X86488042Y-38669853D01*
X86601010Y-38397125D01*
X86658600Y-38107599D01*
X86658600Y-37812401D01*
X86601010Y-37522875D01*
X86488042Y-37250147D01*
X86324039Y-37004698D01*
X86115302Y-36795961D01*
X85869853Y-36631958D01*
X85597125Y-36518990D01*
X85307599Y-36461400D01*
X85012401Y-36461400D01*
X84722875Y-36518990D01*
X84450147Y-36631958D01*
X84204698Y-36795961D01*
X83995961Y-37004698D01*
X83890000Y-37163281D01*
X83784039Y-37004698D01*
X83575302Y-36795961D01*
X83329853Y-36631958D01*
X83057125Y-36518990D01*
X82767599Y-36461400D01*
X82472401Y-36461400D01*
X82182875Y-36518990D01*
X81910147Y-36631958D01*
X81664698Y-36795961D01*
X81455961Y-37004698D01*
X81350000Y-37163281D01*
X81244039Y-37004698D01*
X81035302Y-36795961D01*
X80789853Y-36631958D01*
X80517125Y-36518990D01*
X80227599Y-36461400D01*
X79932401Y-36461400D01*
X79642875Y-36518990D01*
X79370147Y-36631958D01*
X79124698Y-36795961D01*
X78915961Y-37004698D01*
X78810000Y-37163281D01*
X78704039Y-37004698D01*
X78495302Y-36795961D01*
X78249853Y-36631958D01*
X77977125Y-36518990D01*
X77687599Y-36461400D01*
X77392401Y-36461400D01*
X77102875Y-36518990D01*
X76830147Y-36631958D01*
X76584698Y-36795961D01*
X76375961Y-37004698D01*
X76270000Y-37163281D01*
X76164039Y-37004698D01*
X75955302Y-36795961D01*
X75709853Y-36631958D01*
X75437125Y-36518990D01*
X75147599Y-36461400D01*
X74852401Y-36461400D01*
X74562875Y-36518990D01*
X74290147Y-36631958D01*
X74044698Y-36795961D01*
X73835961Y-37004698D01*
X73671958Y-37250147D01*
X73558990Y-37522875D01*
X73501400Y-37812401D01*
X73501400Y-38107599D01*
X73558990Y-38397125D01*
X73671958Y-38669853D01*
X73835961Y-38915302D01*
X73950023Y-39029364D01*
X73892220Y-39046898D01*
X73781906Y-39105863D01*
X73685215Y-39185215D01*
X73605863Y-39281906D01*
X73546898Y-39392220D01*
X73510588Y-39511918D01*
X73498328Y-39636400D01*
X73498328Y-41363600D01*
X73510588Y-41488082D01*
X73546898Y-41607780D01*
X73605863Y-41718094D01*
X73685215Y-41814785D01*
X73781906Y-41894137D01*
X73892220Y-41953102D01*
X74011918Y-41989412D01*
X74136400Y-42001672D01*
X75863600Y-42001672D01*
X75988082Y-41989412D01*
X76107780Y-41953102D01*
X76218094Y-41894137D01*
X76314785Y-41814785D01*
X76394137Y-41718094D01*
X76453102Y-41607780D01*
X76470636Y-41549977D01*
X76584698Y-41664039D01*
X76630533Y-41694665D01*
X71263271Y-47061928D01*
X70100000Y-47061928D01*
X69975518Y-47074188D01*
X69855820Y-47110498D01*
X69745506Y-47169463D01*
X69648815Y-47248815D01*
X69569463Y-47345506D01*
X69510498Y-47455820D01*
X69474188Y-47575518D01*
X69461928Y-47700000D01*
X69461928Y-49300000D01*
X69474188Y-49424482D01*
X69510498Y-49544180D01*
X69569463Y-49654494D01*
X69648815Y-49751185D01*
X69745506Y-49830537D01*
X69855820Y-49889502D01*
X69975518Y-49925812D01*
X70100000Y-49938072D01*
X71700000Y-49938072D01*
X71824482Y-49925812D01*
X71944180Y-49889502D01*
X72054494Y-49830537D01*
X72149389Y-49752659D01*
X72150997Y-49768985D01*
X72184628Y-49879853D01*
X72194454Y-49912246D01*
X72265026Y-50044276D01*
X72304871Y-50092826D01*
X72359999Y-50160001D01*
X72389003Y-50183804D01*
X75001312Y-52796115D01*
X74965000Y-52978665D01*
X74965000Y-53261335D01*
X75020147Y-53538574D01*
X75128320Y-53799727D01*
X75285363Y-54034759D01*
X75485241Y-54234637D01*
X75720273Y-54391680D01*
X75981426Y-54499853D01*
X76258665Y-54555000D01*
X76541335Y-54555000D01*
X76723887Y-54518688D01*
X81144988Y-58939790D01*
X81144989Y-65461928D01*
X81100000Y-65461928D01*
X81042402Y-65467601D01*
X80388791Y-64813990D01*
X80364989Y-64784987D01*
X80249264Y-64690014D01*
X80117235Y-64619442D01*
X79973974Y-64575985D01*
X79862321Y-64564988D01*
X79862310Y-64564988D01*
X79824988Y-64561312D01*
X79787666Y-64564988D01*
X75712337Y-64564988D01*
X75675012Y-64561312D01*
X75637687Y-64564988D01*
X75637679Y-64564988D01*
X75526026Y-64575985D01*
X75382765Y-64619442D01*
X75250736Y-64690014D01*
X75135011Y-64784987D01*
X75111213Y-64813985D01*
X71913999Y-68011200D01*
X71885001Y-68034998D01*
X71861203Y-68063996D01*
X71861202Y-68063997D01*
X71790027Y-68150723D01*
X71719455Y-68282753D01*
X71698697Y-68351185D01*
X71675999Y-68426013D01*
X71671273Y-68473995D01*
X71661325Y-68574999D01*
X71662707Y-68589034D01*
X71441335Y-68545000D01*
X71158665Y-68545000D01*
X70881426Y-68600147D01*
X70620273Y-68708320D01*
X70385241Y-68865363D01*
X70185363Y-69065241D01*
X70028320Y-69300273D01*
X69920147Y-69561426D01*
X69865000Y-69838665D01*
X69865000Y-70121335D01*
X69920147Y-70398574D01*
X70028320Y-70659727D01*
X70185363Y-70894759D01*
X70385241Y-71094637D01*
X70620273Y-71251680D01*
X70881426Y-71359853D01*
X71158665Y-71415000D01*
X71441335Y-71415000D01*
X71665002Y-71370509D01*
X71665001Y-76209491D01*
X71441335Y-76165000D01*
X71158665Y-76165000D01*
X70881426Y-76220147D01*
X70620273Y-76328320D01*
X70385241Y-76485363D01*
X70185363Y-76685241D01*
X70028320Y-76920273D01*
X69920147Y-77181426D01*
X69865000Y-77458665D01*
X69865000Y-77741335D01*
X69901312Y-77923886D01*
X69363997Y-78461202D01*
X69334999Y-78485000D01*
X69311201Y-78513998D01*
X69311200Y-78513999D01*
X69240025Y-78600725D01*
X69169453Y-78732755D01*
X69125997Y-78876016D01*
X69111323Y-79025001D01*
X69115000Y-79062333D01*
X69114999Y-83252689D01*
X69111323Y-83290012D01*
X69114999Y-83327334D01*
X69114999Y-83327344D01*
X69125996Y-83438997D01*
X69158883Y-83547412D01*
X69169453Y-83582258D01*
X69240025Y-83714288D01*
X69255981Y-83733730D01*
X69334998Y-83830013D01*
X69364002Y-83853816D01*
X73416199Y-87906014D01*
X73439998Y-87935013D01*
X73555723Y-88029986D01*
X73687752Y-88100558D01*
X73831013Y-88144015D01*
X73942666Y-88155012D01*
X73942674Y-88155012D01*
X73979999Y-88158688D01*
X74017324Y-88155012D01*
X74480211Y-88155012D01*
X77290198Y-90965000D01*
X77248816Y-90965000D01*
X76952257Y-91023989D01*
X76672905Y-91139701D01*
X76421495Y-91307688D01*
X76207688Y-91521495D01*
X76039701Y-91772905D01*
X75923989Y-92052257D01*
X75865000Y-92348816D01*
X75865000Y-92651184D01*
X75923989Y-92947743D01*
X76039701Y-93227095D01*
X76207688Y-93478505D01*
X76421495Y-93692312D01*
X76640000Y-93838313D01*
X76640000Y-94562677D01*
X76636324Y-94600000D01*
X76640000Y-94637322D01*
X76640000Y-94637332D01*
X76650997Y-94748985D01*
X76690739Y-94879999D01*
X76694454Y-94892246D01*
X76765026Y-95024276D01*
X76768891Y-95028985D01*
X76859999Y-95140001D01*
X76889003Y-95163804D01*
X78805011Y-97079813D01*
X78805011Y-97411154D01*
X78721309Y-97385764D01*
X78440000Y-97358057D01*
X78158692Y-97385764D01*
X77888193Y-97467818D01*
X77638900Y-97601068D01*
X77420393Y-97780392D01*
X77241068Y-97998899D01*
X77170000Y-98131858D01*
X77098932Y-97998899D01*
X76919608Y-97780392D01*
X76701101Y-97601068D01*
X76451808Y-97467818D01*
X76181309Y-97385764D01*
X75900000Y-97358057D01*
X75618692Y-97385764D01*
X75348193Y-97467818D01*
X75098900Y-97601068D01*
X74880393Y-97780392D01*
X74701068Y-97998899D01*
X74630000Y-98131858D01*
X74558932Y-97998899D01*
X74379608Y-97780392D01*
X74161101Y-97601068D01*
X73911808Y-97467818D01*
X73641309Y-97385764D01*
X73360000Y-97358057D01*
X73078692Y-97385764D01*
X72808193Y-97467818D01*
X72558900Y-97601068D01*
X72340393Y-97780392D01*
X72161068Y-97998899D01*
X72090000Y-98131858D01*
X72018932Y-97998899D01*
X71855295Y-97799506D01*
X72456114Y-97198688D01*
X72638665Y-97235000D01*
X72921335Y-97235000D01*
X73198574Y-97179853D01*
X73459727Y-97071680D01*
X73694759Y-96914637D01*
X73894637Y-96714759D01*
X74051680Y-96479727D01*
X74159853Y-96218574D01*
X74215000Y-95941335D01*
X74215000Y-95658665D01*
X74159853Y-95381426D01*
X74051680Y-95120273D01*
X73894637Y-94885241D01*
X73694759Y-94685363D01*
X73459727Y-94528320D01*
X73198574Y-94420147D01*
X72921335Y-94365000D01*
X72638665Y-94365000D01*
X72361426Y-94420147D01*
X72100273Y-94528320D01*
X71865241Y-94685363D01*
X71665363Y-94885241D01*
X71508320Y-95120273D01*
X71400147Y-95381426D01*
X71345000Y-95658665D01*
X71345000Y-95941335D01*
X71381312Y-96123886D01*
X70308998Y-97196201D01*
X70280000Y-97219999D01*
X70256202Y-97248997D01*
X70256201Y-97248998D01*
X70185026Y-97335724D01*
X70114454Y-97467754D01*
X70084681Y-97565907D01*
X70018900Y-97601068D01*
X69800393Y-97780392D01*
X69621068Y-97998899D01*
X69487818Y-98248192D01*
X69405764Y-98518691D01*
X69385000Y-98729508D01*
X69385000Y-99560198D01*
X68560000Y-100385199D01*
X68560000Y-88400000D01*
X69561928Y-88400000D01*
X69561928Y-90000000D01*
X69574188Y-90124482D01*
X69610498Y-90244180D01*
X69669463Y-90354494D01*
X69748815Y-90451185D01*
X69845506Y-90530537D01*
X69955820Y-90589502D01*
X70075518Y-90625812D01*
X70200000Y-90638072D01*
X71800000Y-90638072D01*
X71924482Y-90625812D01*
X72044180Y-90589502D01*
X72154494Y-90530537D01*
X72251185Y-90451185D01*
X72330537Y-90354494D01*
X72389502Y-90244180D01*
X72425812Y-90124482D01*
X72438072Y-90000000D01*
X72438072Y-88400000D01*
X72425812Y-88275518D01*
X72389502Y-88155820D01*
X72330537Y-88045506D01*
X72251185Y-87948815D01*
X72154494Y-87869463D01*
X72044180Y-87810498D01*
X71924482Y-87774188D01*
X71800000Y-87761928D01*
X70200000Y-87761928D01*
X70075518Y-87774188D01*
X69955820Y-87810498D01*
X69845506Y-87869463D01*
X69748815Y-87948815D01*
X69669463Y-88045506D01*
X69610498Y-88155820D01*
X69574188Y-88275518D01*
X69561928Y-88400000D01*
X68560000Y-88400000D01*
X68560000Y-59277902D01*
X72445000Y-59277902D01*
X72445000Y-59722098D01*
X72531658Y-60157759D01*
X72701645Y-60568143D01*
X72948427Y-60937479D01*
X73262521Y-61251573D01*
X73631857Y-61498355D01*
X74042241Y-61668342D01*
X74477902Y-61755000D01*
X74922098Y-61755000D01*
X75357759Y-61668342D01*
X75768143Y-61498355D01*
X76137479Y-61251573D01*
X76451573Y-60937479D01*
X76698355Y-60568143D01*
X76868342Y-60157759D01*
X76955000Y-59722098D01*
X76955000Y-59277902D01*
X76868342Y-58842241D01*
X76698355Y-58431857D01*
X76451573Y-58062521D01*
X76137479Y-57748427D01*
X75768143Y-57501645D01*
X75357759Y-57331658D01*
X74922098Y-57245000D01*
X74477902Y-57245000D01*
X74042241Y-57331658D01*
X73631857Y-57501645D01*
X73262521Y-57748427D01*
X72948427Y-58062521D01*
X72701645Y-58431857D01*
X72531658Y-58842241D01*
X72445000Y-59277902D01*
X68560000Y-59277902D01*
X68560000Y-56119478D01*
X68763962Y-56424729D01*
X69075271Y-56736038D01*
X69441331Y-56980631D01*
X69848075Y-57149110D01*
X70279872Y-57235000D01*
X70720128Y-57235000D01*
X71151925Y-57149110D01*
X71558669Y-56980631D01*
X71924729Y-56736038D01*
X72236038Y-56424729D01*
X72480631Y-56058669D01*
X72649110Y-55651925D01*
X72735000Y-55220128D01*
X72735000Y-54779872D01*
X72649110Y-54348075D01*
X72480631Y-53941331D01*
X72236038Y-53575271D01*
X71924729Y-53263962D01*
X71558669Y-53019369D01*
X71151925Y-52850890D01*
X70720128Y-52765000D01*
X70279872Y-52765000D01*
X69848075Y-52850890D01*
X69441331Y-53019369D01*
X69075271Y-53263962D01*
X68763962Y-53575271D01*
X68560000Y-53880522D01*
X68560000Y-34660000D01*
X91240644Y-34660000D01*
X91279802Y-74797289D01*
%TA.AperFunction,NonConductor*%
D26*
G36*
X91279802Y-74797289D02*
G01*
X91162247Y-74734454D01*
X91052157Y-74701059D01*
X91018932Y-74638899D01*
X90839608Y-74420392D01*
X90621101Y-74241068D01*
X90488142Y-74170000D01*
X90621101Y-74098932D01*
X90839608Y-73919608D01*
X91018932Y-73701101D01*
X91152182Y-73451808D01*
X91234236Y-73181309D01*
X91261943Y-72900000D01*
X91234236Y-72618691D01*
X91152182Y-72348192D01*
X91018932Y-72098899D01*
X90839608Y-71880392D01*
X90621101Y-71701068D01*
X90488142Y-71630000D01*
X90621101Y-71558932D01*
X90839608Y-71379608D01*
X91018932Y-71161101D01*
X91152182Y-70911808D01*
X91234236Y-70641309D01*
X91261943Y-70360000D01*
X91234236Y-70078691D01*
X91152182Y-69808192D01*
X91018932Y-69558899D01*
X90839608Y-69340392D01*
X90621101Y-69161068D01*
X90371808Y-69027818D01*
X90101309Y-68945764D01*
X89890492Y-68925000D01*
X88949508Y-68925000D01*
X88738691Y-68945764D01*
X88468192Y-69027818D01*
X88218899Y-69161068D01*
X88000392Y-69340392D01*
X87821068Y-69558899D01*
X87687818Y-69808192D01*
X87605764Y-70078691D01*
X87578057Y-70360000D01*
X87605764Y-70641309D01*
X87687818Y-70911808D01*
X87821068Y-71161101D01*
X88000392Y-71379608D01*
X88218899Y-71558932D01*
X88351858Y-71630000D01*
X88218899Y-71701068D01*
X88000392Y-71880392D01*
X87821068Y-72098899D01*
X87687818Y-72348192D01*
X87605764Y-72618691D01*
X87578057Y-72900000D01*
X87605764Y-73181309D01*
X87687818Y-73451808D01*
X87821068Y-73701101D01*
X88000392Y-73919608D01*
X88218899Y-74098932D01*
X88351858Y-74170000D01*
X88218899Y-74241068D01*
X88000392Y-74420392D01*
X87929238Y-74507093D01*
X87914637Y-74485241D01*
X87714759Y-74285363D01*
X87479727Y-74128320D01*
X87218574Y-74020147D01*
X86941335Y-73965000D01*
X86658665Y-73965000D01*
X86381426Y-74020147D01*
X86120273Y-74128320D01*
X85885241Y-74285363D01*
X85685363Y-74485241D01*
X85649185Y-74539385D01*
X85580778Y-74470978D01*
X85814759Y-74314637D01*
X86014637Y-74114759D01*
X86171680Y-73879727D01*
X86279853Y-73618574D01*
X86335000Y-73341335D01*
X86335000Y-73058665D01*
X86298688Y-72876114D01*
X87011003Y-72163799D01*
X87040001Y-72140001D01*
X87134974Y-72024276D01*
X87205546Y-71892247D01*
X87249003Y-71748986D01*
X87260000Y-71637333D01*
X87260000Y-71637325D01*
X87263676Y-71600000D01*
X87260000Y-71562675D01*
X87260000Y-52346171D01*
X89411003Y-50195169D01*
X89440001Y-50171371D01*
X89534974Y-50055646D01*
X89605546Y-49923617D01*
X89649003Y-49780356D01*
X89654798Y-49721519D01*
X89814759Y-49614637D01*
X90014637Y-49414759D01*
X90171680Y-49179727D01*
X90279853Y-48918574D01*
X90335000Y-48641335D01*
X90335000Y-48358665D01*
X90279853Y-48081426D01*
X90171680Y-47820273D01*
X90014637Y-47585241D01*
X89814759Y-47385363D01*
X89660000Y-47281957D01*
X89660000Y-46817322D01*
X89663676Y-46779999D01*
X89660000Y-46742676D01*
X89660000Y-46742667D01*
X89649003Y-46631014D01*
X89605546Y-46487753D01*
X89534974Y-46355724D01*
X89440001Y-46239999D01*
X89411004Y-46216202D01*
X85193401Y-41998600D01*
X85307599Y-41998600D01*
X85597125Y-41941010D01*
X85869853Y-41828042D01*
X86115302Y-41664039D01*
X86324039Y-41455302D01*
X86488042Y-41209853D01*
X86601010Y-40937125D01*
X86658600Y-40647599D01*
X86658600Y-40352401D01*
X86601010Y-40062875D01*
X86488042Y-39790147D01*
X86324039Y-39544698D01*
X86115302Y-39335961D01*
X85956719Y-39230000D01*
X86115302Y-39124039D01*
X86324039Y-38915302D01*
X86488042Y-38669853D01*
X86601010Y-38397125D01*
X86658600Y-38107599D01*
X86658600Y-37812401D01*
X86601010Y-37522875D01*
X86488042Y-37250147D01*
X86324039Y-37004698D01*
X86115302Y-36795961D01*
X85869853Y-36631958D01*
X85597125Y-36518990D01*
X85307599Y-36461400D01*
X85012401Y-36461400D01*
X84722875Y-36518990D01*
X84450147Y-36631958D01*
X84204698Y-36795961D01*
X83995961Y-37004698D01*
X83890000Y-37163281D01*
X83784039Y-37004698D01*
X83575302Y-36795961D01*
X83329853Y-36631958D01*
X83057125Y-36518990D01*
X82767599Y-36461400D01*
X82472401Y-36461400D01*
X82182875Y-36518990D01*
X81910147Y-36631958D01*
X81664698Y-36795961D01*
X81455961Y-37004698D01*
X81350000Y-37163281D01*
X81244039Y-37004698D01*
X81035302Y-36795961D01*
X80789853Y-36631958D01*
X80517125Y-36518990D01*
X80227599Y-36461400D01*
X79932401Y-36461400D01*
X79642875Y-36518990D01*
X79370147Y-36631958D01*
X79124698Y-36795961D01*
X78915961Y-37004698D01*
X78810000Y-37163281D01*
X78704039Y-37004698D01*
X78495302Y-36795961D01*
X78249853Y-36631958D01*
X77977125Y-36518990D01*
X77687599Y-36461400D01*
X77392401Y-36461400D01*
X77102875Y-36518990D01*
X76830147Y-36631958D01*
X76584698Y-36795961D01*
X76375961Y-37004698D01*
X76270000Y-37163281D01*
X76164039Y-37004698D01*
X75955302Y-36795961D01*
X75709853Y-36631958D01*
X75437125Y-36518990D01*
X75147599Y-36461400D01*
X74852401Y-36461400D01*
X74562875Y-36518990D01*
X74290147Y-36631958D01*
X74044698Y-36795961D01*
X73835961Y-37004698D01*
X73671958Y-37250147D01*
X73558990Y-37522875D01*
X73501400Y-37812401D01*
X73501400Y-38107599D01*
X73558990Y-38397125D01*
X73671958Y-38669853D01*
X73835961Y-38915302D01*
X73950023Y-39029364D01*
X73892220Y-39046898D01*
X73781906Y-39105863D01*
X73685215Y-39185215D01*
X73605863Y-39281906D01*
X73546898Y-39392220D01*
X73510588Y-39511918D01*
X73498328Y-39636400D01*
X73498328Y-41363600D01*
X73510588Y-41488082D01*
X73546898Y-41607780D01*
X73605863Y-41718094D01*
X73685215Y-41814785D01*
X73781906Y-41894137D01*
X73892220Y-41953102D01*
X74011918Y-41989412D01*
X74136400Y-42001672D01*
X75863600Y-42001672D01*
X75988082Y-41989412D01*
X76107780Y-41953102D01*
X76218094Y-41894137D01*
X76314785Y-41814785D01*
X76394137Y-41718094D01*
X76453102Y-41607780D01*
X76470636Y-41549977D01*
X76584698Y-41664039D01*
X76630533Y-41694665D01*
X71263271Y-47061928D01*
X70100000Y-47061928D01*
X69975518Y-47074188D01*
X69855820Y-47110498D01*
X69745506Y-47169463D01*
X69648815Y-47248815D01*
X69569463Y-47345506D01*
X69510498Y-47455820D01*
X69474188Y-47575518D01*
X69461928Y-47700000D01*
X69461928Y-49300000D01*
X69474188Y-49424482D01*
X69510498Y-49544180D01*
X69569463Y-49654494D01*
X69648815Y-49751185D01*
X69745506Y-49830537D01*
X69855820Y-49889502D01*
X69975518Y-49925812D01*
X70100000Y-49938072D01*
X71700000Y-49938072D01*
X71824482Y-49925812D01*
X71944180Y-49889502D01*
X72054494Y-49830537D01*
X72149389Y-49752659D01*
X72150997Y-49768985D01*
X72184628Y-49879853D01*
X72194454Y-49912246D01*
X72265026Y-50044276D01*
X72304871Y-50092826D01*
X72359999Y-50160001D01*
X72389003Y-50183804D01*
X75001312Y-52796115D01*
X74965000Y-52978665D01*
X74965000Y-53261335D01*
X75020147Y-53538574D01*
X75128320Y-53799727D01*
X75285363Y-54034759D01*
X75485241Y-54234637D01*
X75720273Y-54391680D01*
X75981426Y-54499853D01*
X76258665Y-54555000D01*
X76541335Y-54555000D01*
X76723887Y-54518688D01*
X81144988Y-58939790D01*
X81144989Y-65461928D01*
X81100000Y-65461928D01*
X81042402Y-65467601D01*
X80388791Y-64813990D01*
X80364989Y-64784987D01*
X80249264Y-64690014D01*
X80117235Y-64619442D01*
X79973974Y-64575985D01*
X79862321Y-64564988D01*
X79862310Y-64564988D01*
X79824988Y-64561312D01*
X79787666Y-64564988D01*
X75712337Y-64564988D01*
X75675012Y-64561312D01*
X75637687Y-64564988D01*
X75637679Y-64564988D01*
X75526026Y-64575985D01*
X75382765Y-64619442D01*
X75250736Y-64690014D01*
X75135011Y-64784987D01*
X75111213Y-64813985D01*
X71913999Y-68011200D01*
X71885001Y-68034998D01*
X71861203Y-68063996D01*
X71861202Y-68063997D01*
X71790027Y-68150723D01*
X71719455Y-68282753D01*
X71698697Y-68351185D01*
X71675999Y-68426013D01*
X71671273Y-68473995D01*
X71661325Y-68574999D01*
X71662707Y-68589034D01*
X71441335Y-68545000D01*
X71158665Y-68545000D01*
X70881426Y-68600147D01*
X70620273Y-68708320D01*
X70385241Y-68865363D01*
X70185363Y-69065241D01*
X70028320Y-69300273D01*
X69920147Y-69561426D01*
X69865000Y-69838665D01*
X69865000Y-70121335D01*
X69920147Y-70398574D01*
X70028320Y-70659727D01*
X70185363Y-70894759D01*
X70385241Y-71094637D01*
X70620273Y-71251680D01*
X70881426Y-71359853D01*
X71158665Y-71415000D01*
X71441335Y-71415000D01*
X71665002Y-71370509D01*
X71665001Y-76209491D01*
X71441335Y-76165000D01*
X71158665Y-76165000D01*
X70881426Y-76220147D01*
X70620273Y-76328320D01*
X70385241Y-76485363D01*
X70185363Y-76685241D01*
X70028320Y-76920273D01*
X69920147Y-77181426D01*
X69865000Y-77458665D01*
X69865000Y-77741335D01*
X69901312Y-77923886D01*
X69363997Y-78461202D01*
X69334999Y-78485000D01*
X69311201Y-78513998D01*
X69311200Y-78513999D01*
X69240025Y-78600725D01*
X69169453Y-78732755D01*
X69125997Y-78876016D01*
X69111323Y-79025001D01*
X69115000Y-79062333D01*
X69114999Y-83252689D01*
X69111323Y-83290012D01*
X69114999Y-83327334D01*
X69114999Y-83327344D01*
X69125996Y-83438997D01*
X69158883Y-83547412D01*
X69169453Y-83582258D01*
X69240025Y-83714288D01*
X69255981Y-83733730D01*
X69334998Y-83830013D01*
X69364002Y-83853816D01*
X73416199Y-87906014D01*
X73439998Y-87935013D01*
X73555723Y-88029986D01*
X73687752Y-88100558D01*
X73831013Y-88144015D01*
X73942666Y-88155012D01*
X73942674Y-88155012D01*
X73979999Y-88158688D01*
X74017324Y-88155012D01*
X74480211Y-88155012D01*
X77290198Y-90965000D01*
X77248816Y-90965000D01*
X76952257Y-91023989D01*
X76672905Y-91139701D01*
X76421495Y-91307688D01*
X76207688Y-91521495D01*
X76039701Y-91772905D01*
X75923989Y-92052257D01*
X75865000Y-92348816D01*
X75865000Y-92651184D01*
X75923989Y-92947743D01*
X76039701Y-93227095D01*
X76207688Y-93478505D01*
X76421495Y-93692312D01*
X76640000Y-93838313D01*
X76640000Y-94562677D01*
X76636324Y-94600000D01*
X76640000Y-94637322D01*
X76640000Y-94637332D01*
X76650997Y-94748985D01*
X76690739Y-94879999D01*
X76694454Y-94892246D01*
X76765026Y-95024276D01*
X76768891Y-95028985D01*
X76859999Y-95140001D01*
X76889003Y-95163804D01*
X78805011Y-97079813D01*
X78805011Y-97411154D01*
X78721309Y-97385764D01*
X78440000Y-97358057D01*
X78158692Y-97385764D01*
X77888193Y-97467818D01*
X77638900Y-97601068D01*
X77420393Y-97780392D01*
X77241068Y-97998899D01*
X77170000Y-98131858D01*
X77098932Y-97998899D01*
X76919608Y-97780392D01*
X76701101Y-97601068D01*
X76451808Y-97467818D01*
X76181309Y-97385764D01*
X75900000Y-97358057D01*
X75618692Y-97385764D01*
X75348193Y-97467818D01*
X75098900Y-97601068D01*
X74880393Y-97780392D01*
X74701068Y-97998899D01*
X74630000Y-98131858D01*
X74558932Y-97998899D01*
X74379608Y-97780392D01*
X74161101Y-97601068D01*
X73911808Y-97467818D01*
X73641309Y-97385764D01*
X73360000Y-97358057D01*
X73078692Y-97385764D01*
X72808193Y-97467818D01*
X72558900Y-97601068D01*
X72340393Y-97780392D01*
X72161068Y-97998899D01*
X72090000Y-98131858D01*
X72018932Y-97998899D01*
X71855295Y-97799506D01*
X72456114Y-97198688D01*
X72638665Y-97235000D01*
X72921335Y-97235000D01*
X73198574Y-97179853D01*
X73459727Y-97071680D01*
X73694759Y-96914637D01*
X73894637Y-96714759D01*
X74051680Y-96479727D01*
X74159853Y-96218574D01*
X74215000Y-95941335D01*
X74215000Y-95658665D01*
X74159853Y-95381426D01*
X74051680Y-95120273D01*
X73894637Y-94885241D01*
X73694759Y-94685363D01*
X73459727Y-94528320D01*
X73198574Y-94420147D01*
X72921335Y-94365000D01*
X72638665Y-94365000D01*
X72361426Y-94420147D01*
X72100273Y-94528320D01*
X71865241Y-94685363D01*
X71665363Y-94885241D01*
X71508320Y-95120273D01*
X71400147Y-95381426D01*
X71345000Y-95658665D01*
X71345000Y-95941335D01*
X71381312Y-96123886D01*
X70308998Y-97196201D01*
X70280000Y-97219999D01*
X70256202Y-97248997D01*
X70256201Y-97248998D01*
X70185026Y-97335724D01*
X70114454Y-97467754D01*
X70084681Y-97565907D01*
X70018900Y-97601068D01*
X69800393Y-97780392D01*
X69621068Y-97998899D01*
X69487818Y-98248192D01*
X69405764Y-98518691D01*
X69385000Y-98729508D01*
X69385000Y-99560198D01*
X68560000Y-100385199D01*
X68560000Y-88400000D01*
X69561928Y-88400000D01*
X69561928Y-90000000D01*
X69574188Y-90124482D01*
X69610498Y-90244180D01*
X69669463Y-90354494D01*
X69748815Y-90451185D01*
X69845506Y-90530537D01*
X69955820Y-90589502D01*
X70075518Y-90625812D01*
X70200000Y-90638072D01*
X71800000Y-90638072D01*
X71924482Y-90625812D01*
X72044180Y-90589502D01*
X72154494Y-90530537D01*
X72251185Y-90451185D01*
X72330537Y-90354494D01*
X72389502Y-90244180D01*
X72425812Y-90124482D01*
X72438072Y-90000000D01*
X72438072Y-88400000D01*
X72425812Y-88275518D01*
X72389502Y-88155820D01*
X72330537Y-88045506D01*
X72251185Y-87948815D01*
X72154494Y-87869463D01*
X72044180Y-87810498D01*
X71924482Y-87774188D01*
X71800000Y-87761928D01*
X70200000Y-87761928D01*
X70075518Y-87774188D01*
X69955820Y-87810498D01*
X69845506Y-87869463D01*
X69748815Y-87948815D01*
X69669463Y-88045506D01*
X69610498Y-88155820D01*
X69574188Y-88275518D01*
X69561928Y-88400000D01*
X68560000Y-88400000D01*
X68560000Y-59277902D01*
X72445000Y-59277902D01*
X72445000Y-59722098D01*
X72531658Y-60157759D01*
X72701645Y-60568143D01*
X72948427Y-60937479D01*
X73262521Y-61251573D01*
X73631857Y-61498355D01*
X74042241Y-61668342D01*
X74477902Y-61755000D01*
X74922098Y-61755000D01*
X75357759Y-61668342D01*
X75768143Y-61498355D01*
X76137479Y-61251573D01*
X76451573Y-60937479D01*
X76698355Y-60568143D01*
X76868342Y-60157759D01*
X76955000Y-59722098D01*
X76955000Y-59277902D01*
X76868342Y-58842241D01*
X76698355Y-58431857D01*
X76451573Y-58062521D01*
X76137479Y-57748427D01*
X75768143Y-57501645D01*
X75357759Y-57331658D01*
X74922098Y-57245000D01*
X74477902Y-57245000D01*
X74042241Y-57331658D01*
X73631857Y-57501645D01*
X73262521Y-57748427D01*
X72948427Y-58062521D01*
X72701645Y-58431857D01*
X72531658Y-58842241D01*
X72445000Y-59277902D01*
X68560000Y-59277902D01*
X68560000Y-56119478D01*
X68763962Y-56424729D01*
X69075271Y-56736038D01*
X69441331Y-56980631D01*
X69848075Y-57149110D01*
X70279872Y-57235000D01*
X70720128Y-57235000D01*
X71151925Y-57149110D01*
X71558669Y-56980631D01*
X71924729Y-56736038D01*
X72236038Y-56424729D01*
X72480631Y-56058669D01*
X72649110Y-55651925D01*
X72735000Y-55220128D01*
X72735000Y-54779872D01*
X72649110Y-54348075D01*
X72480631Y-53941331D01*
X72236038Y-53575271D01*
X71924729Y-53263962D01*
X71558669Y-53019369D01*
X71151925Y-52850890D01*
X70720128Y-52765000D01*
X70279872Y-52765000D01*
X69848075Y-52850890D01*
X69441331Y-53019369D01*
X69075271Y-53263962D01*
X68763962Y-53575271D01*
X68560000Y-53880522D01*
X68560000Y-34660000D01*
X91240644Y-34660000D01*
X91279802Y-74797289D01*
G37*
%TD.AperFunction*%
D25*
X84885000Y-77065002D02*
X84913998Y-77088800D01*
X85000725Y-77159975D01*
X85132754Y-77230547D01*
X85276015Y-77274004D01*
X85425001Y-77288678D01*
X85462334Y-77285001D01*
X85501509Y-77285001D01*
X85420147Y-77481426D01*
X85365000Y-77758665D01*
X85365000Y-78041335D01*
X85420147Y-78318574D01*
X85528320Y-78579727D01*
X85685363Y-78814759D01*
X85885241Y-79014637D01*
X86040000Y-79118043D01*
X86040000Y-83183294D01*
X85768143Y-83001645D01*
X85357759Y-82831658D01*
X84922098Y-82745000D01*
X84477902Y-82745000D01*
X84042241Y-82831658D01*
X83631857Y-83001645D01*
X83262521Y-83248427D01*
X82948427Y-83562521D01*
X82701645Y-83931857D01*
X82531658Y-84342241D01*
X82445000Y-84777902D01*
X82445000Y-85222098D01*
X82531658Y-85657759D01*
X82701645Y-86068143D01*
X82948427Y-86437479D01*
X83262521Y-86751573D01*
X83631857Y-86998355D01*
X84042241Y-87168342D01*
X84477902Y-87255000D01*
X84922098Y-87255000D01*
X85357759Y-87168342D01*
X85768143Y-86998355D01*
X86040000Y-86816706D01*
X86040001Y-96154192D01*
X84470510Y-97723685D01*
X84321101Y-97601068D01*
X84071808Y-97467818D01*
X83801309Y-97385764D01*
X83520000Y-97358057D01*
X83238692Y-97385764D01*
X82968193Y-97467818D01*
X82865010Y-97522971D01*
X82865010Y-94642332D01*
X82868686Y-94605009D01*
X82865010Y-94567687D01*
X82865010Y-94567677D01*
X82854013Y-94456024D01*
X82810556Y-94312763D01*
X82750428Y-94200273D01*
X82739984Y-94180733D01*
X82668809Y-94094007D01*
X82645011Y-94065009D01*
X82616013Y-94041211D01*
X82612874Y-94038072D01*
X83300000Y-94038072D01*
X83424482Y-94025812D01*
X83544180Y-93989502D01*
X83654494Y-93930537D01*
X83751185Y-93851185D01*
X83830537Y-93754494D01*
X83889502Y-93644180D01*
X83925812Y-93524482D01*
X83938072Y-93400000D01*
X83938072Y-91600000D01*
X83925812Y-91475518D01*
X83889502Y-91355820D01*
X83830537Y-91245506D01*
X83751185Y-91148815D01*
X83654494Y-91069463D01*
X83544180Y-91010498D01*
X83424482Y-90974188D01*
X83300000Y-90961928D01*
X81936730Y-90961928D01*
X81062099Y-90087297D01*
X81114637Y-90034759D01*
X81271680Y-89799727D01*
X81379853Y-89538574D01*
X81435000Y-89261335D01*
X81435000Y-88978665D01*
X81379853Y-88701426D01*
X81271680Y-88440273D01*
X81114637Y-88205241D01*
X80914759Y-88005363D01*
X80679727Y-87848320D01*
X80418574Y-87740147D01*
X80141335Y-87685000D01*
X79858665Y-87685000D01*
X79634999Y-87729491D01*
X79634999Y-85933720D01*
X79638675Y-85896397D01*
X79634999Y-85859074D01*
X79634999Y-85859064D01*
X79624002Y-85747411D01*
X79580545Y-85604150D01*
X79509973Y-85472121D01*
X79415000Y-85356396D01*
X79386003Y-85332599D01*
X77434999Y-83381596D01*
X77434999Y-81358665D01*
X78565000Y-81358665D01*
X78565000Y-81641335D01*
X78620147Y-81918574D01*
X78728320Y-82179727D01*
X78885363Y-82414759D01*
X79085241Y-82614637D01*
X79320273Y-82771680D01*
X79581426Y-82879853D01*
X79858665Y-82935000D01*
X80141335Y-82935000D01*
X80418574Y-82879853D01*
X80679727Y-82771680D01*
X80914759Y-82614637D01*
X81114637Y-82414759D01*
X81271680Y-82179727D01*
X81379853Y-81918574D01*
X81435000Y-81641335D01*
X81435000Y-81358665D01*
X81379853Y-81081426D01*
X81271680Y-80820273D01*
X81114637Y-80585241D01*
X80914759Y-80385363D01*
X80679727Y-80228320D01*
X80418574Y-80120147D01*
X80141335Y-80065000D01*
X79858665Y-80065000D01*
X79581426Y-80120147D01*
X79320273Y-80228320D01*
X79085241Y-80385363D01*
X78885363Y-80585241D01*
X78728320Y-80820273D01*
X78620147Y-81081426D01*
X78565000Y-81358665D01*
X77434999Y-81358665D01*
X77434999Y-78990509D01*
X77658665Y-79035000D01*
X77941335Y-79035000D01*
X78218574Y-78979853D01*
X78479727Y-78871680D01*
X78714759Y-78714637D01*
X78914637Y-78514759D01*
X79071680Y-78279727D01*
X79179853Y-78018574D01*
X79235000Y-77741335D01*
X79235000Y-77560001D01*
X80027835Y-77560001D01*
X79985764Y-77698691D01*
X79958057Y-77980000D01*
X79985764Y-78261309D01*
X80067818Y-78531808D01*
X80201068Y-78781101D01*
X80380392Y-78999608D01*
X80598899Y-79178932D01*
X80848192Y-79312182D01*
X81118691Y-79394236D01*
X81329508Y-79415000D01*
X82270492Y-79415000D01*
X82481309Y-79394236D01*
X82751808Y-79312182D01*
X83001101Y-79178932D01*
X83219608Y-78999608D01*
X83398932Y-78781101D01*
X83532182Y-78531808D01*
X83614236Y-78261309D01*
X83641943Y-77980000D01*
X83614236Y-77698691D01*
X83572165Y-77560001D01*
X83662677Y-77560001D01*
X83699999Y-77563677D01*
X83737321Y-77560001D01*
X83737332Y-77560001D01*
X83848985Y-77549004D01*
X83896303Y-77534650D01*
X83898061Y-77535000D01*
X84101939Y-77535000D01*
X84301898Y-77495226D01*
X84490256Y-77417205D01*
X84659774Y-77303937D01*
X84803937Y-77159774D01*
X84875222Y-77053088D01*
X84885000Y-77065002D01*
%TA.AperFunction,NonConductor*%
D26*
G36*
X84885000Y-77065002D02*
G01*
X84913998Y-77088800D01*
X85000725Y-77159975D01*
X85132754Y-77230547D01*
X85276015Y-77274004D01*
X85425001Y-77288678D01*
X85462334Y-77285001D01*
X85501509Y-77285001D01*
X85420147Y-77481426D01*
X85365000Y-77758665D01*
X85365000Y-78041335D01*
X85420147Y-78318574D01*
X85528320Y-78579727D01*
X85685363Y-78814759D01*
X85885241Y-79014637D01*
X86040000Y-79118043D01*
X86040000Y-83183294D01*
X85768143Y-83001645D01*
X85357759Y-82831658D01*
X84922098Y-82745000D01*
X84477902Y-82745000D01*
X84042241Y-82831658D01*
X83631857Y-83001645D01*
X83262521Y-83248427D01*
X82948427Y-83562521D01*
X82701645Y-83931857D01*
X82531658Y-84342241D01*
X82445000Y-84777902D01*
X82445000Y-85222098D01*
X82531658Y-85657759D01*
X82701645Y-86068143D01*
X82948427Y-86437479D01*
X83262521Y-86751573D01*
X83631857Y-86998355D01*
X84042241Y-87168342D01*
X84477902Y-87255000D01*
X84922098Y-87255000D01*
X85357759Y-87168342D01*
X85768143Y-86998355D01*
X86040000Y-86816706D01*
X86040001Y-96154192D01*
X84470510Y-97723685D01*
X84321101Y-97601068D01*
X84071808Y-97467818D01*
X83801309Y-97385764D01*
X83520000Y-97358057D01*
X83238692Y-97385764D01*
X82968193Y-97467818D01*
X82865010Y-97522971D01*
X82865010Y-94642332D01*
X82868686Y-94605009D01*
X82865010Y-94567687D01*
X82865010Y-94567677D01*
X82854013Y-94456024D01*
X82810556Y-94312763D01*
X82750428Y-94200273D01*
X82739984Y-94180733D01*
X82668809Y-94094007D01*
X82645011Y-94065009D01*
X82616013Y-94041211D01*
X82612874Y-94038072D01*
X83300000Y-94038072D01*
X83424482Y-94025812D01*
X83544180Y-93989502D01*
X83654494Y-93930537D01*
X83751185Y-93851185D01*
X83830537Y-93754494D01*
X83889502Y-93644180D01*
X83925812Y-93524482D01*
X83938072Y-93400000D01*
X83938072Y-91600000D01*
X83925812Y-91475518D01*
X83889502Y-91355820D01*
X83830537Y-91245506D01*
X83751185Y-91148815D01*
X83654494Y-91069463D01*
X83544180Y-91010498D01*
X83424482Y-90974188D01*
X83300000Y-90961928D01*
X81936730Y-90961928D01*
X81062099Y-90087297D01*
X81114637Y-90034759D01*
X81271680Y-89799727D01*
X81379853Y-89538574D01*
X81435000Y-89261335D01*
X81435000Y-88978665D01*
X81379853Y-88701426D01*
X81271680Y-88440273D01*
X81114637Y-88205241D01*
X80914759Y-88005363D01*
X80679727Y-87848320D01*
X80418574Y-87740147D01*
X80141335Y-87685000D01*
X79858665Y-87685000D01*
X79634999Y-87729491D01*
X79634999Y-85933720D01*
X79638675Y-85896397D01*
X79634999Y-85859074D01*
X79634999Y-85859064D01*
X79624002Y-85747411D01*
X79580545Y-85604150D01*
X79509973Y-85472121D01*
X79415000Y-85356396D01*
X79386003Y-85332599D01*
X77434999Y-83381596D01*
X77434999Y-81358665D01*
X78565000Y-81358665D01*
X78565000Y-81641335D01*
X78620147Y-81918574D01*
X78728320Y-82179727D01*
X78885363Y-82414759D01*
X79085241Y-82614637D01*
X79320273Y-82771680D01*
X79581426Y-82879853D01*
X79858665Y-82935000D01*
X80141335Y-82935000D01*
X80418574Y-82879853D01*
X80679727Y-82771680D01*
X80914759Y-82614637D01*
X81114637Y-82414759D01*
X81271680Y-82179727D01*
X81379853Y-81918574D01*
X81435000Y-81641335D01*
X81435000Y-81358665D01*
X81379853Y-81081426D01*
X81271680Y-80820273D01*
X81114637Y-80585241D01*
X80914759Y-80385363D01*
X80679727Y-80228320D01*
X80418574Y-80120147D01*
X80141335Y-80065000D01*
X79858665Y-80065000D01*
X79581426Y-80120147D01*
X79320273Y-80228320D01*
X79085241Y-80385363D01*
X78885363Y-80585241D01*
X78728320Y-80820273D01*
X78620147Y-81081426D01*
X78565000Y-81358665D01*
X77434999Y-81358665D01*
X77434999Y-78990509D01*
X77658665Y-79035000D01*
X77941335Y-79035000D01*
X78218574Y-78979853D01*
X78479727Y-78871680D01*
X78714759Y-78714637D01*
X78914637Y-78514759D01*
X79071680Y-78279727D01*
X79179853Y-78018574D01*
X79235000Y-77741335D01*
X79235000Y-77560001D01*
X80027835Y-77560001D01*
X79985764Y-77698691D01*
X79958057Y-77980000D01*
X79985764Y-78261309D01*
X80067818Y-78531808D01*
X80201068Y-78781101D01*
X80380392Y-78999608D01*
X80598899Y-79178932D01*
X80848192Y-79312182D01*
X81118691Y-79394236D01*
X81329508Y-79415000D01*
X82270492Y-79415000D01*
X82481309Y-79394236D01*
X82751808Y-79312182D01*
X83001101Y-79178932D01*
X83219608Y-78999608D01*
X83398932Y-78781101D01*
X83532182Y-78531808D01*
X83614236Y-78261309D01*
X83641943Y-77980000D01*
X83614236Y-77698691D01*
X83572165Y-77560001D01*
X83662677Y-77560001D01*
X83699999Y-77563677D01*
X83737321Y-77560001D01*
X83737332Y-77560001D01*
X83848985Y-77549004D01*
X83896303Y-77534650D01*
X83898061Y-77535000D01*
X84101939Y-77535000D01*
X84301898Y-77495226D01*
X84490256Y-77417205D01*
X84659774Y-77303937D01*
X84803937Y-77159774D01*
X84875222Y-77053088D01*
X84885000Y-77065002D01*
G37*
%TD.AperFunction*%
D25*
X81345010Y-97411154D02*
X81261309Y-97385764D01*
X80980000Y-97358057D01*
X80698692Y-97385764D01*
X80428193Y-97467818D01*
X80325010Y-97522971D01*
X80325010Y-97235000D01*
X80541335Y-97235000D01*
X80818574Y-97179853D01*
X81079727Y-97071680D01*
X81314759Y-96914637D01*
X81345011Y-96884385D01*
X81345010Y-97411154D01*
%TA.AperFunction,NonConductor*%
D26*
G36*
X81345010Y-97411154D02*
G01*
X81261309Y-97385764D01*
X80980000Y-97358057D01*
X80698692Y-97385764D01*
X80428193Y-97467818D01*
X80325010Y-97522971D01*
X80325010Y-97235000D01*
X80541335Y-97235000D01*
X80818574Y-97179853D01*
X81079727Y-97071680D01*
X81314759Y-96914637D01*
X81345011Y-96884385D01*
X81345010Y-97411154D01*
G37*
%TD.AperFunction*%
D25*
X78707688Y-93478505D02*
X78921495Y-93692312D01*
X79172905Y-93860299D01*
X79452257Y-93976011D01*
X79748816Y-94035000D01*
X80051184Y-94035000D01*
X80347743Y-93976011D01*
X80432172Y-93941039D01*
X80490027Y-94049277D01*
X80526736Y-94094007D01*
X80585000Y-94165002D01*
X80614003Y-94188805D01*
X80864276Y-94439077D01*
X80818574Y-94420147D01*
X80541335Y-94365000D01*
X80258665Y-94365000D01*
X79981426Y-94420147D01*
X79720273Y-94528320D01*
X79485241Y-94685363D01*
X79285363Y-94885241D01*
X79128320Y-95120273D01*
X79089293Y-95214492D01*
X78160000Y-94285199D01*
X78160000Y-93838313D01*
X78378505Y-93692312D01*
X78592312Y-93478505D01*
X78650000Y-93392169D01*
X78707688Y-93478505D01*
%TA.AperFunction,NonConductor*%
D26*
G36*
X78707688Y-93478505D02*
G01*
X78921495Y-93692312D01*
X79172905Y-93860299D01*
X79452257Y-93976011D01*
X79748816Y-94035000D01*
X80051184Y-94035000D01*
X80347743Y-93976011D01*
X80432172Y-93941039D01*
X80490027Y-94049277D01*
X80526736Y-94094007D01*
X80585000Y-94165002D01*
X80614003Y-94188805D01*
X80864276Y-94439077D01*
X80818574Y-94420147D01*
X80541335Y-94365000D01*
X80258665Y-94365000D01*
X79981426Y-94420147D01*
X79720273Y-94528320D01*
X79485241Y-94685363D01*
X79285363Y-94885241D01*
X79128320Y-95120273D01*
X79089293Y-95214492D01*
X78160000Y-94285199D01*
X78160000Y-93838313D01*
X78378505Y-93692312D01*
X78592312Y-93478505D01*
X78650000Y-93392169D01*
X78707688Y-93478505D01*
G37*
%TD.AperFunction*%
D25*
X90185011Y-93678668D02*
X90079727Y-93608320D01*
X89818574Y-93500147D01*
X89760000Y-93488496D01*
X89760000Y-90438072D01*
X89800000Y-90438072D01*
X89924482Y-90425812D01*
X90044180Y-90389502D01*
X90154494Y-90330537D01*
X90185010Y-90305493D01*
X90185011Y-93678668D01*
%TA.AperFunction,NonConductor*%
D26*
G36*
X90185011Y-93678668D02*
G01*
X90079727Y-93608320D01*
X89818574Y-93500147D01*
X89760000Y-93488496D01*
X89760000Y-90438072D01*
X89800000Y-90438072D01*
X89924482Y-90425812D01*
X90044180Y-90389502D01*
X90154494Y-90330537D01*
X90185010Y-90305493D01*
X90185011Y-93678668D01*
G37*
%TD.AperFunction*%
D25*
X78114999Y-86211199D02*
X78115000Y-88676608D01*
X76329159Y-86890768D01*
X76537479Y-86751573D01*
X76851573Y-86437479D01*
X77098355Y-86068143D01*
X77268342Y-85657759D01*
X77316990Y-85413189D01*
X78114999Y-86211199D01*
%TA.AperFunction,NonConductor*%
D26*
G36*
X78114999Y-86211199D02*
G01*
X78115000Y-88676608D01*
X76329159Y-86890768D01*
X76537479Y-86751573D01*
X76851573Y-86437479D01*
X77098355Y-86068143D01*
X77268342Y-85657759D01*
X77316990Y-85413189D01*
X78114999Y-86211199D01*
G37*
%TD.AperFunction*%
D25*
X73220147Y-78018574D02*
X73328320Y-78279727D01*
X73485363Y-78514759D01*
X73685241Y-78714637D01*
X73920273Y-78871680D01*
X74181426Y-78979853D01*
X74458665Y-79035000D01*
X74741335Y-79035000D01*
X75018574Y-78979853D01*
X75279727Y-78871680D01*
X75514759Y-78714637D01*
X75714637Y-78514759D01*
X75871680Y-78279727D01*
X75915000Y-78175144D01*
X75915000Y-82896789D01*
X75757759Y-82831658D01*
X75322098Y-82745000D01*
X74877902Y-82745000D01*
X74442241Y-82831658D01*
X74031857Y-83001645D01*
X73662521Y-83248427D01*
X73348427Y-83562521D01*
X73101645Y-83931857D01*
X72931658Y-84342241D01*
X72883010Y-84586810D01*
X71760000Y-83463801D01*
X71760000Y-82798043D01*
X71914759Y-82694637D01*
X72114637Y-82494759D01*
X72271680Y-82259727D01*
X72379853Y-81998574D01*
X72435000Y-81721335D01*
X72435000Y-81438665D01*
X72398688Y-81256114D01*
X72936005Y-80718797D01*
X72965002Y-80695000D01*
X73059975Y-80579275D01*
X73130547Y-80447246D01*
X73174004Y-80303985D01*
X73185001Y-80192332D01*
X73185001Y-80192324D01*
X73188677Y-80154999D01*
X73185001Y-80117674D01*
X73185001Y-77841885D01*
X73220147Y-78018574D01*
%TA.AperFunction,NonConductor*%
D26*
G36*
X73220147Y-78018574D02*
G01*
X73328320Y-78279727D01*
X73485363Y-78514759D01*
X73685241Y-78714637D01*
X73920273Y-78871680D01*
X74181426Y-78979853D01*
X74458665Y-79035000D01*
X74741335Y-79035000D01*
X75018574Y-78979853D01*
X75279727Y-78871680D01*
X75514759Y-78714637D01*
X75714637Y-78514759D01*
X75871680Y-78279727D01*
X75915000Y-78175144D01*
X75915000Y-82896789D01*
X75757759Y-82831658D01*
X75322098Y-82745000D01*
X74877902Y-82745000D01*
X74442241Y-82831658D01*
X74031857Y-83001645D01*
X73662521Y-83248427D01*
X73348427Y-83562521D01*
X73101645Y-83931857D01*
X72931658Y-84342241D01*
X72883010Y-84586810D01*
X71760000Y-83463801D01*
X71760000Y-82798043D01*
X71914759Y-82694637D01*
X72114637Y-82494759D01*
X72271680Y-82259727D01*
X72379853Y-81998574D01*
X72435000Y-81721335D01*
X72435000Y-81438665D01*
X72398688Y-81256114D01*
X72936005Y-80718797D01*
X72965002Y-80695000D01*
X73059975Y-80579275D01*
X73130547Y-80447246D01*
X73174004Y-80303985D01*
X73185001Y-80192332D01*
X73185001Y-80192324D01*
X73188677Y-80154999D01*
X73185001Y-80117674D01*
X73185001Y-77841885D01*
X73220147Y-78018574D01*
G37*
%TD.AperFunction*%
D25*
X71665001Y-79840197D02*
X71323886Y-80181312D01*
X71141335Y-80145000D01*
X70858665Y-80145000D01*
X70634999Y-80189491D01*
X70634999Y-79339802D01*
X70976114Y-78998688D01*
X71158665Y-79035000D01*
X71441335Y-79035000D01*
X71665001Y-78990509D01*
X71665001Y-79840197D01*
%TA.AperFunction,NonConductor*%
D26*
G36*
X71665001Y-79840197D02*
G01*
X71323886Y-80181312D01*
X71141335Y-80145000D01*
X70858665Y-80145000D01*
X70634999Y-80189491D01*
X70634999Y-79339802D01*
X70976114Y-78998688D01*
X71158665Y-79035000D01*
X71441335Y-79035000D01*
X71665001Y-78990509D01*
X71665001Y-79840197D01*
G37*
%TD.AperFunction*%
D25*
X73220147Y-70398574D02*
X73328320Y-70659727D01*
X73485363Y-70894759D01*
X73685241Y-71094637D01*
X73920273Y-71251680D01*
X74181426Y-71359853D01*
X74458665Y-71415000D01*
X74741335Y-71415000D01*
X74965002Y-71370509D01*
X74965001Y-76160197D01*
X74923886Y-76201312D01*
X74741335Y-76165000D01*
X74458665Y-76165000D01*
X74181426Y-76220147D01*
X73920273Y-76328320D01*
X73685241Y-76485363D01*
X73485363Y-76685241D01*
X73328320Y-76920273D01*
X73220147Y-77181426D01*
X73185001Y-77358115D01*
X73185001Y-70221885D01*
X73220147Y-70398574D01*
%TA.AperFunction,NonConductor*%
D26*
G36*
X73220147Y-70398574D02*
G01*
X73328320Y-70659727D01*
X73485363Y-70894759D01*
X73685241Y-71094637D01*
X73920273Y-71251680D01*
X74181426Y-71359853D01*
X74458665Y-71415000D01*
X74741335Y-71415000D01*
X74965002Y-71370509D01*
X74965001Y-76160197D01*
X74923886Y-76201312D01*
X74741335Y-76165000D01*
X74458665Y-76165000D01*
X74181426Y-76220147D01*
X73920273Y-76328320D01*
X73685241Y-76485363D01*
X73485363Y-76685241D01*
X73328320Y-76920273D01*
X73220147Y-77181426D01*
X73185001Y-77358115D01*
X73185001Y-70221885D01*
X73220147Y-70398574D01*
G37*
%TD.AperFunction*%
D25*
X78307688Y-67978505D02*
X78521495Y-68192312D01*
X78772905Y-68360299D01*
X79052257Y-68476011D01*
X79348816Y-68535000D01*
X79651184Y-68535000D01*
X79947743Y-68476011D01*
X80000338Y-68454225D01*
X80019455Y-68517247D01*
X80090027Y-68649277D01*
X80138483Y-68708320D01*
X80185001Y-68765002D01*
X80213999Y-68788800D01*
X80386416Y-68961217D01*
X80355820Y-68970498D01*
X80245506Y-69029463D01*
X80148815Y-69108815D01*
X80069463Y-69205506D01*
X80010498Y-69315820D01*
X79974188Y-69435518D01*
X79961928Y-69560000D01*
X79961928Y-71160000D01*
X79974188Y-71284482D01*
X80010498Y-71404180D01*
X80069463Y-71514494D01*
X80148815Y-71611185D01*
X80245506Y-71690537D01*
X80355820Y-71749502D01*
X80475518Y-71785812D01*
X80493482Y-71787581D01*
X80380392Y-71880392D01*
X80201068Y-72098899D01*
X80067818Y-72348192D01*
X79985764Y-72618691D01*
X79958057Y-72900000D01*
X79985764Y-73181309D01*
X80067818Y-73451808D01*
X80201068Y-73701101D01*
X80380392Y-73919608D01*
X80598899Y-74098932D01*
X80731858Y-74170000D01*
X80598899Y-74241068D01*
X80380392Y-74420392D01*
X80201068Y-74638899D01*
X80067818Y-74888192D01*
X79985764Y-75158691D01*
X79958057Y-75440000D01*
X79985764Y-75721309D01*
X80067818Y-75991808D01*
X80093578Y-76040001D01*
X78637321Y-76040001D01*
X78599998Y-76036325D01*
X78562675Y-76040001D01*
X78562666Y-76040001D01*
X78451013Y-76050998D01*
X78307752Y-76094455D01*
X78175723Y-76165027D01*
X78175721Y-76165028D01*
X78175722Y-76165028D01*
X78130022Y-76202533D01*
X77941335Y-76165000D01*
X77658665Y-76165000D01*
X77434999Y-76209491D01*
X77434999Y-71370509D01*
X77658665Y-71415000D01*
X77941335Y-71415000D01*
X78218574Y-71359853D01*
X78479727Y-71251680D01*
X78714759Y-71094637D01*
X78914637Y-70894759D01*
X79071680Y-70659727D01*
X79179853Y-70398574D01*
X79235000Y-70121335D01*
X79235000Y-69838665D01*
X79179853Y-69561426D01*
X79071680Y-69300273D01*
X78914637Y-69065241D01*
X78714759Y-68865363D01*
X78479727Y-68708320D01*
X78218574Y-68600147D01*
X77941335Y-68545000D01*
X77658665Y-68545000D01*
X77434999Y-68589491D01*
X77434999Y-68478546D01*
X77447743Y-68476011D01*
X77727095Y-68360299D01*
X77978505Y-68192312D01*
X78192312Y-67978505D01*
X78250000Y-67892169D01*
X78307688Y-67978505D01*
%TA.AperFunction,NonConductor*%
D26*
G36*
X78307688Y-67978505D02*
G01*
X78521495Y-68192312D01*
X78772905Y-68360299D01*
X79052257Y-68476011D01*
X79348816Y-68535000D01*
X79651184Y-68535000D01*
X79947743Y-68476011D01*
X80000338Y-68454225D01*
X80019455Y-68517247D01*
X80090027Y-68649277D01*
X80138483Y-68708320D01*
X80185001Y-68765002D01*
X80213999Y-68788800D01*
X80386416Y-68961217D01*
X80355820Y-68970498D01*
X80245506Y-69029463D01*
X80148815Y-69108815D01*
X80069463Y-69205506D01*
X80010498Y-69315820D01*
X79974188Y-69435518D01*
X79961928Y-69560000D01*
X79961928Y-71160000D01*
X79974188Y-71284482D01*
X80010498Y-71404180D01*
X80069463Y-71514494D01*
X80148815Y-71611185D01*
X80245506Y-71690537D01*
X80355820Y-71749502D01*
X80475518Y-71785812D01*
X80493482Y-71787581D01*
X80380392Y-71880392D01*
X80201068Y-72098899D01*
X80067818Y-72348192D01*
X79985764Y-72618691D01*
X79958057Y-72900000D01*
X79985764Y-73181309D01*
X80067818Y-73451808D01*
X80201068Y-73701101D01*
X80380392Y-73919608D01*
X80598899Y-74098932D01*
X80731858Y-74170000D01*
X80598899Y-74241068D01*
X80380392Y-74420392D01*
X80201068Y-74638899D01*
X80067818Y-74888192D01*
X79985764Y-75158691D01*
X79958057Y-75440000D01*
X79985764Y-75721309D01*
X80067818Y-75991808D01*
X80093578Y-76040001D01*
X78637321Y-76040001D01*
X78599998Y-76036325D01*
X78562675Y-76040001D01*
X78562666Y-76040001D01*
X78451013Y-76050998D01*
X78307752Y-76094455D01*
X78175723Y-76165027D01*
X78175721Y-76165028D01*
X78175722Y-76165028D01*
X78130022Y-76202533D01*
X77941335Y-76165000D01*
X77658665Y-76165000D01*
X77434999Y-76209491D01*
X77434999Y-71370509D01*
X77658665Y-71415000D01*
X77941335Y-71415000D01*
X78218574Y-71359853D01*
X78479727Y-71251680D01*
X78714759Y-71094637D01*
X78914637Y-70894759D01*
X79071680Y-70659727D01*
X79179853Y-70398574D01*
X79235000Y-70121335D01*
X79235000Y-69838665D01*
X79179853Y-69561426D01*
X79071680Y-69300273D01*
X78914637Y-69065241D01*
X78714759Y-68865363D01*
X78479727Y-68708320D01*
X78218574Y-68600147D01*
X77941335Y-68545000D01*
X77658665Y-68545000D01*
X77434999Y-68589491D01*
X77434999Y-68478546D01*
X77447743Y-68476011D01*
X77727095Y-68360299D01*
X77978505Y-68192312D01*
X78192312Y-67978505D01*
X78250000Y-67892169D01*
X78307688Y-67978505D01*
G37*
%TD.AperFunction*%
D25*
X84187827Y-71950000D02*
X84085010Y-72018700D01*
X84085010Y-71881300D01*
X84187827Y-71950000D01*
%TA.AperFunction,NonConductor*%
D26*
G36*
X84187827Y-71950000D02*
G01*
X84085010Y-72018700D01*
X84085010Y-71881300D01*
X84187827Y-71950000D01*
G37*
%TD.AperFunction*%
D25*
X74965002Y-68589491D02*
X74741335Y-68545000D01*
X74458665Y-68545000D01*
X74181426Y-68600147D01*
X73920273Y-68708320D01*
X73685241Y-68865363D01*
X73485363Y-69065241D01*
X73328320Y-69300273D01*
X73220147Y-69561426D01*
X73185001Y-69738115D01*
X73185001Y-68889800D01*
X74965002Y-67109800D01*
X74965002Y-68589491D01*
%TA.AperFunction,NonConductor*%
D26*
G36*
X74965002Y-68589491D02*
G01*
X74741335Y-68545000D01*
X74458665Y-68545000D01*
X74181426Y-68600147D01*
X73920273Y-68708320D01*
X73685241Y-68865363D01*
X73485363Y-69065241D01*
X73328320Y-69300273D01*
X73220147Y-69561426D01*
X73185001Y-69738115D01*
X73185001Y-68889800D01*
X74965002Y-67109800D01*
X74965002Y-68589491D01*
G37*
%TD.AperFunction*%
D25*
X85740001Y-69535411D02*
X85660000Y-69481957D01*
X85660000Y-67552321D01*
X85663676Y-67514998D01*
X85660000Y-67477675D01*
X85660000Y-67477665D01*
X85649003Y-67366012D01*
X85605546Y-67222751D01*
X85580565Y-67176015D01*
X85534974Y-67090721D01*
X85463799Y-67003995D01*
X85440001Y-66974997D01*
X85411004Y-66951200D01*
X83114999Y-64655196D01*
X83114999Y-61420273D01*
X83231857Y-61498355D01*
X83642241Y-61668342D01*
X84077902Y-61755000D01*
X84522098Y-61755000D01*
X84957759Y-61668342D01*
X85368143Y-61498355D01*
X85737479Y-61251573D01*
X85740000Y-61249052D01*
X85740001Y-69535411D01*
%TA.AperFunction,NonConductor*%
D26*
G36*
X85740001Y-69535411D02*
G01*
X85660000Y-69481957D01*
X85660000Y-67552321D01*
X85663676Y-67514998D01*
X85660000Y-67477675D01*
X85660000Y-67477665D01*
X85649003Y-67366012D01*
X85605546Y-67222751D01*
X85580565Y-67176015D01*
X85534974Y-67090721D01*
X85463799Y-67003995D01*
X85440001Y-66974997D01*
X85411004Y-66951200D01*
X83114999Y-64655196D01*
X83114999Y-61420273D01*
X83231857Y-61498355D01*
X83642241Y-61668342D01*
X84077902Y-61755000D01*
X84522098Y-61755000D01*
X84957759Y-61668342D01*
X85368143Y-61498355D01*
X85737479Y-61251573D01*
X85740000Y-61249052D01*
X85740001Y-69535411D01*
G37*
%TD.AperFunction*%
D25*
X84140000Y-67829800D02*
X84140001Y-69481956D01*
X84085010Y-69518700D01*
X84085010Y-68362332D01*
X84088686Y-68325009D01*
X84085010Y-68287686D01*
X84085010Y-68287677D01*
X84074013Y-68176024D01*
X84030556Y-68032763D01*
X84001554Y-67978505D01*
X83959984Y-67900733D01*
X83888809Y-67814007D01*
X83865011Y-67785009D01*
X83836014Y-67761212D01*
X83538072Y-67463270D01*
X83538072Y-67227872D01*
X84140000Y-67829800D01*
%TA.AperFunction,NonConductor*%
D26*
G36*
X84140000Y-67829800D02*
G01*
X84140001Y-69481956D01*
X84085010Y-69518700D01*
X84085010Y-68362332D01*
X84088686Y-68325009D01*
X84085010Y-68287686D01*
X84085010Y-68287677D01*
X84074013Y-68176024D01*
X84030556Y-68032763D01*
X84001554Y-67978505D01*
X83959984Y-67900733D01*
X83888809Y-67814007D01*
X83865011Y-67785009D01*
X83836014Y-67761212D01*
X83538072Y-67463270D01*
X83538072Y-67227872D01*
X84140000Y-67829800D01*
G37*
%TD.AperFunction*%
D25*
X82565010Y-68639812D02*
X82565010Y-68921928D01*
X82459671Y-68921928D01*
X82434974Y-68875724D01*
X82340001Y-68759999D01*
X82311004Y-68736202D01*
X82112874Y-68538072D01*
X82463270Y-68538072D01*
X82565010Y-68639812D01*
%TA.AperFunction,NonConductor*%
D26*
G36*
X82565010Y-68639812D02*
G01*
X82565010Y-68921928D01*
X82459671Y-68921928D01*
X82434974Y-68875724D01*
X82340001Y-68759999D01*
X82311004Y-68736202D01*
X82112874Y-68538072D01*
X82463270Y-68538072D01*
X82565010Y-68639812D01*
G37*
%TD.AperFunction*%
D25*
X85989003Y-51467566D02*
X85959999Y-51491369D01*
X85904871Y-51558544D01*
X85865026Y-51607094D01*
X85863207Y-51610498D01*
X85794454Y-51739124D01*
X85750997Y-51882385D01*
X85740000Y-51994038D01*
X85740000Y-51994048D01*
X85736324Y-52031370D01*
X85740000Y-52068692D01*
X85740000Y-57750948D01*
X85737479Y-57748427D01*
X85368143Y-57501645D01*
X84957759Y-57331658D01*
X84522098Y-57245000D01*
X84160000Y-57245000D01*
X84160000Y-54438072D01*
X84200000Y-54438072D01*
X84324482Y-54425812D01*
X84444180Y-54389502D01*
X84554494Y-54330537D01*
X84651185Y-54251185D01*
X84730537Y-54154494D01*
X84789502Y-54044180D01*
X84825812Y-53924482D01*
X84838072Y-53800000D01*
X84838072Y-52200000D01*
X84825812Y-52075518D01*
X84789502Y-51955820D01*
X84730537Y-51845506D01*
X84684902Y-51789899D01*
X86536730Y-49938072D01*
X87518496Y-49938072D01*
X85989003Y-51467566D01*
%TA.AperFunction,NonConductor*%
D26*
G36*
X85989003Y-51467566D02*
G01*
X85959999Y-51491369D01*
X85904871Y-51558544D01*
X85865026Y-51607094D01*
X85863207Y-51610498D01*
X85794454Y-51739124D01*
X85750997Y-51882385D01*
X85740000Y-51994038D01*
X85740000Y-51994048D01*
X85736324Y-52031370D01*
X85740000Y-52068692D01*
X85740000Y-57750948D01*
X85737479Y-57748427D01*
X85368143Y-57501645D01*
X84957759Y-57331658D01*
X84522098Y-57245000D01*
X84160000Y-57245000D01*
X84160000Y-54438072D01*
X84200000Y-54438072D01*
X84324482Y-54425812D01*
X84444180Y-54389502D01*
X84554494Y-54330537D01*
X84651185Y-54251185D01*
X84730537Y-54154494D01*
X84789502Y-54044180D01*
X84825812Y-53924482D01*
X84838072Y-53800000D01*
X84838072Y-52200000D01*
X84825812Y-52075518D01*
X84789502Y-51955820D01*
X84730537Y-51845506D01*
X84684902Y-51789899D01*
X86536730Y-49938072D01*
X87518496Y-49938072D01*
X85989003Y-51467566D01*
G37*
%TD.AperFunction*%
D25*
X81455961Y-41455302D02*
X81664698Y-41664039D01*
X81910147Y-41828042D01*
X82182875Y-41941010D01*
X82472401Y-41998600D01*
X82767599Y-41998600D01*
X82997975Y-41952776D01*
X88140000Y-47094802D01*
X88140000Y-47239636D01*
X88054494Y-47169463D01*
X87944180Y-47110498D01*
X87824482Y-47074188D01*
X87700000Y-47061928D01*
X86100000Y-47061928D01*
X85975518Y-47074188D01*
X85855820Y-47110498D01*
X85745506Y-47169463D01*
X85648815Y-47248815D01*
X85569463Y-47345506D01*
X85510498Y-47455820D01*
X85474188Y-47575518D01*
X85461928Y-47700000D01*
X85461928Y-48863270D01*
X82888998Y-51436201D01*
X82860000Y-51459999D01*
X82836202Y-51488997D01*
X82836201Y-51488998D01*
X82776348Y-51561928D01*
X82600000Y-51561928D01*
X82475518Y-51574188D01*
X82355820Y-51610498D01*
X82245506Y-51669463D01*
X82148815Y-51748815D01*
X82069463Y-51845506D01*
X82010498Y-51955820D01*
X81974188Y-52075518D01*
X81961928Y-52200000D01*
X81961928Y-53800000D01*
X81974188Y-53924482D01*
X82010498Y-54044180D01*
X82069463Y-54154494D01*
X82148815Y-54251185D01*
X82245506Y-54330537D01*
X82355820Y-54389502D01*
X82475518Y-54425812D01*
X82600000Y-54438072D01*
X82640000Y-54438072D01*
X82640001Y-57206595D01*
X82100699Y-57745897D01*
X77798688Y-53443887D01*
X77835000Y-53261335D01*
X77835000Y-52978665D01*
X77779853Y-52701426D01*
X77671680Y-52440273D01*
X77514637Y-52205241D01*
X77314759Y-52005363D01*
X77079727Y-51848320D01*
X76818574Y-51740147D01*
X76541335Y-51685000D01*
X76258665Y-51685000D01*
X76076115Y-51721312D01*
X73892099Y-49537297D01*
X74014637Y-49414759D01*
X74171680Y-49179727D01*
X74279853Y-48918574D01*
X74335000Y-48641335D01*
X74335000Y-48358665D01*
X74279853Y-48081426D01*
X74171680Y-47820273D01*
X74014637Y-47585241D01*
X73814759Y-47385363D01*
X73579727Y-47228320D01*
X73344087Y-47130715D01*
X74961928Y-45512874D01*
X74961928Y-46300000D01*
X74974188Y-46424482D01*
X75010498Y-46544180D01*
X75069463Y-46654494D01*
X75148815Y-46751185D01*
X75245506Y-46830537D01*
X75355820Y-46889502D01*
X75475518Y-46925812D01*
X75600000Y-46938072D01*
X77200000Y-46938072D01*
X77324482Y-46925812D01*
X77444180Y-46889502D01*
X77554494Y-46830537D01*
X77651185Y-46751185D01*
X77730537Y-46654494D01*
X77789502Y-46544180D01*
X77825812Y-46424482D01*
X77838072Y-46300000D01*
X77838072Y-45238665D01*
X81965000Y-45238665D01*
X81965000Y-45521335D01*
X82020147Y-45798574D01*
X82128320Y-46059727D01*
X82285363Y-46294759D01*
X82485241Y-46494637D01*
X82720273Y-46651680D01*
X82981426Y-46759853D01*
X83258665Y-46815000D01*
X83541335Y-46815000D01*
X83818574Y-46759853D01*
X84079727Y-46651680D01*
X84314759Y-46494637D01*
X84514637Y-46294759D01*
X84671680Y-46059727D01*
X84779853Y-45798574D01*
X84835000Y-45521335D01*
X84835000Y-45238665D01*
X84779853Y-44961426D01*
X84671680Y-44700273D01*
X84514637Y-44465241D01*
X84314759Y-44265363D01*
X84079727Y-44108320D01*
X83818574Y-44000147D01*
X83541335Y-43945000D01*
X83258665Y-43945000D01*
X82981426Y-44000147D01*
X82720273Y-44108320D01*
X82485241Y-44265363D01*
X82285363Y-44465241D01*
X82128320Y-44700273D01*
X82020147Y-44961426D01*
X81965000Y-45238665D01*
X77838072Y-45238665D01*
X77838072Y-44700000D01*
X77825812Y-44575518D01*
X77789502Y-44455820D01*
X77730537Y-44345506D01*
X77651185Y-44248815D01*
X77554494Y-44169463D01*
X77444180Y-44110498D01*
X77324482Y-44074188D01*
X77200000Y-44061928D01*
X76412874Y-44061928D01*
X78051003Y-42423799D01*
X78080001Y-42400001D01*
X78106332Y-42367917D01*
X78174974Y-42284277D01*
X78245546Y-42152247D01*
X78289003Y-42008986D01*
X78300000Y-41897333D01*
X78300000Y-41897324D01*
X78303676Y-41860001D01*
X78300000Y-41822678D01*
X78300000Y-41794535D01*
X78495302Y-41664039D01*
X78704039Y-41455302D01*
X78810000Y-41296719D01*
X78915961Y-41455302D01*
X79124698Y-41664039D01*
X79370147Y-41828042D01*
X79642875Y-41941010D01*
X79932401Y-41998600D01*
X80227599Y-41998600D01*
X80517125Y-41941010D01*
X80789853Y-41828042D01*
X81035302Y-41664039D01*
X81244039Y-41455302D01*
X81350000Y-41296719D01*
X81455961Y-41455302D01*
%TA.AperFunction,NonConductor*%
D26*
G36*
X81455961Y-41455302D02*
G01*
X81664698Y-41664039D01*
X81910147Y-41828042D01*
X82182875Y-41941010D01*
X82472401Y-41998600D01*
X82767599Y-41998600D01*
X82997975Y-41952776D01*
X88140000Y-47094802D01*
X88140000Y-47239636D01*
X88054494Y-47169463D01*
X87944180Y-47110498D01*
X87824482Y-47074188D01*
X87700000Y-47061928D01*
X86100000Y-47061928D01*
X85975518Y-47074188D01*
X85855820Y-47110498D01*
X85745506Y-47169463D01*
X85648815Y-47248815D01*
X85569463Y-47345506D01*
X85510498Y-47455820D01*
X85474188Y-47575518D01*
X85461928Y-47700000D01*
X85461928Y-48863270D01*
X82888998Y-51436201D01*
X82860000Y-51459999D01*
X82836202Y-51488997D01*
X82836201Y-51488998D01*
X82776348Y-51561928D01*
X82600000Y-51561928D01*
X82475518Y-51574188D01*
X82355820Y-51610498D01*
X82245506Y-51669463D01*
X82148815Y-51748815D01*
X82069463Y-51845506D01*
X82010498Y-51955820D01*
X81974188Y-52075518D01*
X81961928Y-52200000D01*
X81961928Y-53800000D01*
X81974188Y-53924482D01*
X82010498Y-54044180D01*
X82069463Y-54154494D01*
X82148815Y-54251185D01*
X82245506Y-54330537D01*
X82355820Y-54389502D01*
X82475518Y-54425812D01*
X82600000Y-54438072D01*
X82640000Y-54438072D01*
X82640001Y-57206595D01*
X82100699Y-57745897D01*
X77798688Y-53443887D01*
X77835000Y-53261335D01*
X77835000Y-52978665D01*
X77779853Y-52701426D01*
X77671680Y-52440273D01*
X77514637Y-52205241D01*
X77314759Y-52005363D01*
X77079727Y-51848320D01*
X76818574Y-51740147D01*
X76541335Y-51685000D01*
X76258665Y-51685000D01*
X76076115Y-51721312D01*
X73892099Y-49537297D01*
X74014637Y-49414759D01*
X74171680Y-49179727D01*
X74279853Y-48918574D01*
X74335000Y-48641335D01*
X74335000Y-48358665D01*
X74279853Y-48081426D01*
X74171680Y-47820273D01*
X74014637Y-47585241D01*
X73814759Y-47385363D01*
X73579727Y-47228320D01*
X73344087Y-47130715D01*
X74961928Y-45512874D01*
X74961928Y-46300000D01*
X74974188Y-46424482D01*
X75010498Y-46544180D01*
X75069463Y-46654494D01*
X75148815Y-46751185D01*
X75245506Y-46830537D01*
X75355820Y-46889502D01*
X75475518Y-46925812D01*
X75600000Y-46938072D01*
X77200000Y-46938072D01*
X77324482Y-46925812D01*
X77444180Y-46889502D01*
X77554494Y-46830537D01*
X77651185Y-46751185D01*
X77730537Y-46654494D01*
X77789502Y-46544180D01*
X77825812Y-46424482D01*
X77838072Y-46300000D01*
X77838072Y-45238665D01*
X81965000Y-45238665D01*
X81965000Y-45521335D01*
X82020147Y-45798574D01*
X82128320Y-46059727D01*
X82285363Y-46294759D01*
X82485241Y-46494637D01*
X82720273Y-46651680D01*
X82981426Y-46759853D01*
X83258665Y-46815000D01*
X83541335Y-46815000D01*
X83818574Y-46759853D01*
X84079727Y-46651680D01*
X84314759Y-46494637D01*
X84514637Y-46294759D01*
X84671680Y-46059727D01*
X84779853Y-45798574D01*
X84835000Y-45521335D01*
X84835000Y-45238665D01*
X84779853Y-44961426D01*
X84671680Y-44700273D01*
X84514637Y-44465241D01*
X84314759Y-44265363D01*
X84079727Y-44108320D01*
X83818574Y-44000147D01*
X83541335Y-43945000D01*
X83258665Y-43945000D01*
X82981426Y-44000147D01*
X82720273Y-44108320D01*
X82485241Y-44265363D01*
X82285363Y-44465241D01*
X82128320Y-44700273D01*
X82020147Y-44961426D01*
X81965000Y-45238665D01*
X77838072Y-45238665D01*
X77838072Y-44700000D01*
X77825812Y-44575518D01*
X77789502Y-44455820D01*
X77730537Y-44345506D01*
X77651185Y-44248815D01*
X77554494Y-44169463D01*
X77444180Y-44110498D01*
X77324482Y-44074188D01*
X77200000Y-44061928D01*
X76412874Y-44061928D01*
X78051003Y-42423799D01*
X78080001Y-42400001D01*
X78106332Y-42367917D01*
X78174974Y-42284277D01*
X78245546Y-42152247D01*
X78289003Y-42008986D01*
X78300000Y-41897333D01*
X78300000Y-41897324D01*
X78303676Y-41860001D01*
X78300000Y-41822678D01*
X78300000Y-41794535D01*
X78495302Y-41664039D01*
X78704039Y-41455302D01*
X78810000Y-41296719D01*
X78915961Y-41455302D01*
X79124698Y-41664039D01*
X79370147Y-41828042D01*
X79642875Y-41941010D01*
X79932401Y-41998600D01*
X80227599Y-41998600D01*
X80517125Y-41941010D01*
X80789853Y-41828042D01*
X81035302Y-41664039D01*
X81244039Y-41455302D01*
X81350000Y-41296719D01*
X81455961Y-41455302D01*
G37*
%TD.AperFunction*%
D25*
X83995961Y-38915302D02*
X84204698Y-39124039D01*
X84363281Y-39230000D01*
X84204698Y-39335961D01*
X83995961Y-39544698D01*
X83890000Y-39703281D01*
X83784039Y-39544698D01*
X83575302Y-39335961D01*
X83416719Y-39230000D01*
X83575302Y-39124039D01*
X83784039Y-38915302D01*
X83890000Y-38756719D01*
X83995961Y-38915302D01*
%TA.AperFunction,NonConductor*%
D26*
G36*
X83995961Y-38915302D02*
G01*
X84204698Y-39124039D01*
X84363281Y-39230000D01*
X84204698Y-39335961D01*
X83995961Y-39544698D01*
X83890000Y-39703281D01*
X83784039Y-39544698D01*
X83575302Y-39335961D01*
X83416719Y-39230000D01*
X83575302Y-39124039D01*
X83784039Y-38915302D01*
X83890000Y-38756719D01*
X83995961Y-38915302D01*
G37*
%TD.AperFunction*%
D25*
X81455961Y-38915302D02*
X81664698Y-39124039D01*
X81823281Y-39230000D01*
X81664698Y-39335961D01*
X81455961Y-39544698D01*
X81350000Y-39703281D01*
X81244039Y-39544698D01*
X81035302Y-39335961D01*
X80876719Y-39230000D01*
X81035302Y-39124039D01*
X81244039Y-38915302D01*
X81350000Y-38756719D01*
X81455961Y-38915302D01*
%TA.AperFunction,NonConductor*%
D26*
G36*
X81455961Y-38915302D02*
G01*
X81664698Y-39124039D01*
X81823281Y-39230000D01*
X81664698Y-39335961D01*
X81455961Y-39544698D01*
X81350000Y-39703281D01*
X81244039Y-39544698D01*
X81035302Y-39335961D01*
X80876719Y-39230000D01*
X81035302Y-39124039D01*
X81244039Y-38915302D01*
X81350000Y-38756719D01*
X81455961Y-38915302D01*
G37*
%TD.AperFunction*%
D25*
X78915961Y-38915302D02*
X79124698Y-39124039D01*
X79283281Y-39230000D01*
X79124698Y-39335961D01*
X78915961Y-39544698D01*
X78810000Y-39703281D01*
X78704039Y-39544698D01*
X78495302Y-39335961D01*
X78336719Y-39230000D01*
X78495302Y-39124039D01*
X78704039Y-38915302D01*
X78810000Y-38756719D01*
X78915961Y-38915302D01*
%TA.AperFunction,NonConductor*%
D26*
G36*
X78915961Y-38915302D02*
G01*
X79124698Y-39124039D01*
X79283281Y-39230000D01*
X79124698Y-39335961D01*
X78915961Y-39544698D01*
X78810000Y-39703281D01*
X78704039Y-39544698D01*
X78495302Y-39335961D01*
X78336719Y-39230000D01*
X78495302Y-39124039D01*
X78704039Y-38915302D01*
X78810000Y-38756719D01*
X78915961Y-38915302D01*
G37*
%TD.AperFunction*%
D25*
X76375961Y-38915302D02*
X76584698Y-39124039D01*
X76743281Y-39230000D01*
X76584698Y-39335961D01*
X76470636Y-39450023D01*
X76453102Y-39392220D01*
X76394137Y-39281906D01*
X76314785Y-39185215D01*
X76218094Y-39105863D01*
X76107780Y-39046898D01*
X76049977Y-39029364D01*
X76164039Y-38915302D01*
X76270000Y-38756719D01*
X76375961Y-38915302D01*
%TA.AperFunction,NonConductor*%
D26*
G36*
X76375961Y-38915302D02*
G01*
X76584698Y-39124039D01*
X76743281Y-39230000D01*
X76584698Y-39335961D01*
X76470636Y-39450023D01*
X76453102Y-39392220D01*
X76394137Y-39281906D01*
X76314785Y-39185215D01*
X76218094Y-39105863D01*
X76107780Y-39046898D01*
X76049977Y-39029364D01*
X76164039Y-38915302D01*
X76270000Y-38756719D01*
X76375961Y-38915302D01*
G37*
%TD.AperFunction*%
M02*
