%TF.GenerationSoftware,KiCad,Pcbnew,(5.1.12-1-10_14)*%
%TF.CreationDate,2021-12-12T17:33:21+01:00*%
%TF.ProjectId,kross,6b726f73-732e-46b6-9963-61645f706362,rev?*%
%TF.SameCoordinates,Original*%
%TF.FileFunction,Copper,L2,Bot*%
%TF.FilePolarity,Positive*%
%FSLAX46Y46*%
G04 Gerber Fmt 4.6, Leading zero omitted, Abs format (unit mm)*
G04 Created by KiCad (PCBNEW (5.1.12-1-10_14)) date 2021-12-12 17:33:21*
%MOMM*%
%LPD*%
G01*
G04 APERTURE LIST*
%TA.AperFunction,ComponentPad*%
%ADD10O,1.600000X2.400000*%
%TD*%
%TA.AperFunction,ComponentPad*%
%ADD11R,1.600000X2.400000*%
%TD*%
%TA.AperFunction,ComponentPad*%
%ADD12O,2.400000X1.600000*%
%TD*%
%TA.AperFunction,ComponentPad*%
%ADD13R,2.400000X1.600000*%
%TD*%
%TA.AperFunction,ComponentPad*%
%ADD14R,1.600000X1.600000*%
%TD*%
%TA.AperFunction,ComponentPad*%
%ADD15O,1.600000X1.600000*%
%TD*%
%TA.AperFunction,ComponentPad*%
%ADD16O,1.740000X2.200000*%
%TD*%
%TA.AperFunction,ComponentPad*%
%ADD17C,3.240000*%
%TD*%
%TA.AperFunction,ComponentPad*%
%ADD18C,1.800000*%
%TD*%
%TA.AperFunction,ComponentPad*%
%ADD19R,1.800000X1.800000*%
%TD*%
%TA.AperFunction,ComponentPad*%
%ADD20C,1.600000*%
%TD*%
%TA.AperFunction,ComponentPad*%
%ADD21R,1.727200X1.727200*%
%TD*%
%TA.AperFunction,ComponentPad*%
%ADD22O,1.727200X1.727200*%
%TD*%
%TA.AperFunction,ViaPad*%
%ADD23C,0.800000*%
%TD*%
%TA.AperFunction,Conductor*%
%ADD24C,0.250000*%
%TD*%
%TA.AperFunction,NonConductor*%
%ADD25C,0.254000*%
%TD*%
%TA.AperFunction,NonConductor*%
%ADD26C,0.100000*%
%TD*%
G04 APERTURE END LIST*
D10*
%TO.P,U1,16*%
%TO.N,Net-(R12-Pad1)*%
X88600000Y-106820000D03*
%TO.P,U1,8*%
%TO.N,Net-(R16-Pad2)*%
X70820000Y-99200000D03*
%TO.P,U1,15*%
%TO.N,Net-(U1-Pad15)*%
X86060000Y-106820000D03*
%TO.P,U1,7*%
%TO.N,Net-(R14-Pad1)*%
X73360000Y-99200000D03*
%TO.P,U1,14*%
%TO.N,Net-(R2-Pad2)*%
X83520000Y-106820000D03*
%TO.P,U1,6*%
%TO.N,Net-(C2-Pad2)*%
X75900000Y-99200000D03*
%TO.P,U1,13*%
%TO.N,Net-(R8-Pad2)*%
X80980000Y-106820000D03*
%TO.P,U1,5*%
%TO.N,Net-(R14-Pad1)*%
X78440000Y-99200000D03*
%TO.P,U1,12*%
X78440000Y-106820000D03*
%TO.P,U1,4*%
%TO.N,Net-(R7-Pad2)*%
X80980000Y-99200000D03*
%TO.P,U1,11*%
%TO.N,Net-(C1-Pad1)*%
X75900000Y-106820000D03*
%TO.P,U1,3*%
%TO.N,Net-(R1-Pad2)*%
X83520000Y-99200000D03*
%TO.P,U1,10*%
%TO.N,Net-(U1-Pad10)*%
X73360000Y-106820000D03*
%TO.P,U1,2*%
%TO.N,Net-(U1-Pad2)*%
X86060000Y-99200000D03*
%TO.P,U1,9*%
%TO.N,Net-(U1-Pad9)*%
X70820000Y-106820000D03*
D11*
%TO.P,U1,1*%
%TO.N,Net-(R11-Pad1)*%
X88600000Y-99200000D03*
%TD*%
D12*
%TO.P,U2,8*%
%TO.N,Net-(C1-Pad1)*%
X89420000Y-70360000D03*
%TO.P,U2,4*%
%TO.N,Net-(C2-Pad2)*%
X81800000Y-77980000D03*
%TO.P,U2,7*%
%TO.N,Net-(D2-Pad2)*%
X89420000Y-72900000D03*
%TO.P,U2,3*%
%TO.N,GND*%
X81800000Y-75440000D03*
%TO.P,U2,6*%
%TO.N,Net-(R10-Pad2)*%
X89420000Y-75440000D03*
%TO.P,U2,2*%
%TO.N,Net-(R3-Pad2)*%
X81800000Y-72900000D03*
%TO.P,U2,5*%
%TO.N,GND*%
X89420000Y-77980000D03*
D13*
%TO.P,U2,1*%
%TO.N,Net-(D1-Pad2)*%
X81800000Y-70360000D03*
%TD*%
D14*
%TO.P,D4,1*%
%TO.N,Net-(D4-Pad1)*%
X76400000Y-45500000D03*
D15*
%TO.P,D4,2*%
%TO.N,Net-(C2-Pad2)*%
X76400000Y-53120000D03*
%TD*%
%TO.P,D3,2*%
%TO.N,Net-(CVATTN1-Pad1)*%
X83400000Y-45380000D03*
D14*
%TO.P,D3,1*%
%TO.N,Net-(C1-Pad1)*%
X83400000Y-53000000D03*
%TD*%
%TO.P,OUT,1*%
%TO.N,Net-(J4-Pad1)*%
%TA.AperFunction,ComponentPad*%
G36*
G01*
X86830000Y-133850001D02*
X86830000Y-132149999D01*
G75*
G02*
X87079999Y-131900000I249999J0D01*
G01*
X88320001Y-131900000D01*
G75*
G02*
X88570000Y-132149999I0J-249999D01*
G01*
X88570000Y-133850001D01*
G75*
G02*
X88320001Y-134100000I-249999J0D01*
G01*
X87079999Y-134100000D01*
G75*
G02*
X86830000Y-133850001I0J249999D01*
G01*
G37*
%TD.AperFunction*%
D16*
%TO.P,OUT,2*%
%TO.N,GND*%
X90240000Y-133000000D03*
%TD*%
%TO.P,OSC2,2*%
%TO.N,GND*%
X78740000Y-133000000D03*
%TO.P,OSC2,1*%
%TO.N,Net-(J3-Pad1)*%
%TA.AperFunction,ComponentPad*%
G36*
G01*
X75330000Y-133850001D02*
X75330000Y-132149999D01*
G75*
G02*
X75579999Y-131900000I249999J0D01*
G01*
X76820001Y-131900000D01*
G75*
G02*
X77070000Y-132149999I0J-249999D01*
G01*
X77070000Y-133850001D01*
G75*
G02*
X76820001Y-134100000I-249999J0D01*
G01*
X75579999Y-134100000D01*
G75*
G02*
X75330000Y-133850001I0J249999D01*
G01*
G37*
%TD.AperFunction*%
%TD*%
%TO.P,OSC1,1*%
%TO.N,Net-(J2-Pad1)*%
%TA.AperFunction,ComponentPad*%
G36*
G01*
X68930000Y-133850001D02*
X68930000Y-132149999D01*
G75*
G02*
X69179999Y-131900000I249999J0D01*
G01*
X70420001Y-131900000D01*
G75*
G02*
X70670000Y-132149999I0J-249999D01*
G01*
X70670000Y-133850001D01*
G75*
G02*
X70420001Y-134100000I-249999J0D01*
G01*
X69179999Y-134100000D01*
G75*
G02*
X68930000Y-133850001I0J249999D01*
G01*
G37*
%TD.AperFunction*%
%TO.P,OSC1,2*%
%TO.N,GND*%
X72340000Y-133000000D03*
%TD*%
%TO.P,CV,2*%
%TO.N,GND*%
X84740000Y-133000000D03*
%TO.P,CV,1*%
%TO.N,Net-(CVATTN1-Pad3)*%
%TA.AperFunction,ComponentPad*%
G36*
G01*
X81330000Y-133850001D02*
X81330000Y-132149999D01*
G75*
G02*
X81579999Y-131900000I249999J0D01*
G01*
X82820001Y-131900000D01*
G75*
G02*
X83070000Y-132149999I0J-249999D01*
G01*
X83070000Y-133850001D01*
G75*
G02*
X82820001Y-134100000I-249999J0D01*
G01*
X81579999Y-134100000D01*
G75*
G02*
X81330000Y-133850001I0J249999D01*
G01*
G37*
%TD.AperFunction*%
%TD*%
D14*
%TO.P,D2,1*%
%TO.N,Net-(D2-Pad1)*%
X89000000Y-89000000D03*
D15*
%TO.P,D2,2*%
%TO.N,Net-(D2-Pad2)*%
X89000000Y-81380000D03*
%TD*%
D17*
%TO.P,MIX1,*%
%TO.N,*%
X84300000Y-59500000D03*
X74700000Y-59500000D03*
D18*
%TO.P,MIX1,3*%
%TO.N,Net-(CVATTN1-Pad1)*%
X77000000Y-67000000D03*
%TO.P,MIX1,2*%
%TO.N,Net-(MIX1-Pad2)*%
X79500000Y-67000000D03*
D19*
%TO.P,MIX1,1*%
%TO.N,Net-(C2-Pad2)*%
X82000000Y-67000000D03*
%TD*%
D15*
%TO.P,D1,2*%
%TO.N,Net-(D1-Pad2)*%
X71000000Y-81580000D03*
D14*
%TO.P,D1,1*%
%TO.N,Net-(D1-Pad1)*%
X71000000Y-89200000D03*
%TD*%
D19*
%TO.P,CVATTN1,1*%
%TO.N,Net-(CVATTN1-Pad1)*%
X82400000Y-92500000D03*
D18*
%TO.P,CVATTN1,2*%
%TO.N,Net-(CVATTN1-Pad2)*%
X79900000Y-92500000D03*
%TO.P,CVATTN1,3*%
%TO.N,Net-(CVATTN1-Pad3)*%
X77400000Y-92500000D03*
D17*
%TO.P,CVATTN1,*%
%TO.N,*%
X75100000Y-85000000D03*
X84700000Y-85000000D03*
%TD*%
D20*
%TO.P,C6,1*%
%TO.N,GND*%
X86800000Y-77900000D03*
%TO.P,C6,2*%
%TO.N,Net-(C2-Pad2)*%
X86800000Y-75400000D03*
%TD*%
%TO.P,C5,1*%
%TO.N,Net-(C1-Pad1)*%
X75500000Y-103100000D03*
%TO.P,C5,2*%
%TO.N,GND*%
X73000000Y-103100000D03*
%TD*%
%TO.P,C4,2*%
%TO.N,Net-(C2-Pad2)*%
X86100000Y-103100000D03*
%TO.P,C4,1*%
%TO.N,GND*%
X83600000Y-103100000D03*
%TD*%
%TO.P,C3,2*%
%TO.N,GND*%
X84900000Y-73200000D03*
%TO.P,C3,1*%
%TO.N,Net-(C1-Pad1)*%
X84900000Y-70700000D03*
%TD*%
D14*
%TO.P,C2,1*%
%TO.N,GND*%
X70900000Y-48500000D03*
D20*
%TO.P,C2,2*%
%TO.N,Net-(C2-Pad2)*%
X72900000Y-48500000D03*
%TD*%
%TO.P,C1,2*%
%TO.N,GND*%
X88900000Y-48500000D03*
D14*
%TO.P,C1,1*%
%TO.N,Net-(C1-Pad1)*%
X86900000Y-48500000D03*
%TD*%
D15*
%TO.P,R1,2*%
%TO.N,Net-(R1-Pad2)*%
X70500000Y-119580000D03*
D20*
%TO.P,R1,1*%
%TO.N,Net-(J2-Pad1)*%
X70500000Y-127200000D03*
%TD*%
%TO.P,R2,1*%
%TO.N,Net-(J3-Pad1)*%
X73600000Y-127200000D03*
D15*
%TO.P,R2,2*%
%TO.N,Net-(R2-Pad2)*%
X73600000Y-119580000D03*
%TD*%
D20*
%TO.P,R3,1*%
%TO.N,Net-(CVATTN1-Pad2)*%
X71300000Y-77600000D03*
D15*
%TO.P,R3,2*%
%TO.N,Net-(R3-Pad2)*%
X71300000Y-69980000D03*
%TD*%
%TO.P,R4,2*%
%TO.N,Net-(R3-Pad2)*%
X74600000Y-69980000D03*
D20*
%TO.P,R4,1*%
%TO.N,Net-(MIX1-Pad2)*%
X74600000Y-77600000D03*
%TD*%
D15*
%TO.P,R5,2*%
%TO.N,Net-(R2-Pad2)*%
X76800000Y-117320000D03*
D20*
%TO.P,R5,1*%
%TO.N,GND*%
X76800000Y-109700000D03*
%TD*%
%TO.P,R6,1*%
%TO.N,GND*%
X82700000Y-127200000D03*
D15*
%TO.P,R6,2*%
%TO.N,Net-(R1-Pad2)*%
X82700000Y-119580000D03*
%TD*%
%TO.P,R7,2*%
%TO.N,Net-(R7-Pad2)*%
X70500000Y-109680000D03*
D20*
%TO.P,R7,1*%
%TO.N,GND*%
X70500000Y-117300000D03*
%TD*%
%TO.P,R8,1*%
%TO.N,GND*%
X73700000Y-117300000D03*
D15*
%TO.P,R8,2*%
%TO.N,Net-(R8-Pad2)*%
X73700000Y-109680000D03*
%TD*%
D20*
%TO.P,R9,1*%
%TO.N,Net-(R3-Pad2)*%
X86000000Y-109700000D03*
D15*
%TO.P,R9,2*%
%TO.N,Net-(D1-Pad2)*%
X86000000Y-117320000D03*
%TD*%
%TO.P,R10,2*%
%TO.N,Net-(R10-Pad2)*%
X89000000Y-109680000D03*
D20*
%TO.P,R10,1*%
%TO.N,Net-(D1-Pad2)*%
X89000000Y-117300000D03*
%TD*%
%TO.P,R11,1*%
%TO.N,Net-(R11-Pad1)*%
X80000000Y-81500000D03*
D15*
%TO.P,R11,2*%
%TO.N,Net-(D1-Pad1)*%
X80000000Y-89120000D03*
%TD*%
D20*
%TO.P,R12,1*%
%TO.N,Net-(R12-Pad1)*%
X89400000Y-102500000D03*
D15*
%TO.P,R12,2*%
%TO.N,Net-(D2-Pad1)*%
X89400000Y-94880000D03*
%TD*%
D20*
%TO.P,R13,1*%
%TO.N,Net-(R10-Pad2)*%
X77800000Y-77600000D03*
D15*
%TO.P,R13,2*%
%TO.N,Net-(D2-Pad2)*%
X77800000Y-69980000D03*
%TD*%
%TO.P,R14,2*%
%TO.N,Net-(CVATTN1-Pad1)*%
X79600000Y-127220000D03*
D20*
%TO.P,R14,1*%
%TO.N,Net-(R14-Pad1)*%
X79600000Y-119600000D03*
%TD*%
%TO.P,R15,1*%
%TO.N,GND*%
X76500000Y-127200000D03*
D15*
%TO.P,R15,2*%
%TO.N,Net-(R14-Pad1)*%
X76500000Y-119580000D03*
%TD*%
%TO.P,R16,2*%
%TO.N,Net-(R16-Pad2)*%
X72780000Y-95800000D03*
D20*
%TO.P,R16,1*%
%TO.N,Net-(C2-Pad2)*%
X80400000Y-95800000D03*
%TD*%
D15*
%TO.P,R17,2*%
%TO.N,Net-(J4-Pad1)*%
X88600000Y-127120000D03*
D20*
%TO.P,R17,1*%
%TO.N,Net-(R16-Pad2)*%
X88600000Y-119500000D03*
%TD*%
D21*
%TO.P,J5,1*%
%TO.N,Net-(D4-Pad1)*%
X75000000Y-40500000D03*
D22*
%TO.P,J5,2*%
X75000000Y-37960000D03*
%TO.P,J5,3*%
%TO.N,GND*%
X77540000Y-40500000D03*
%TO.P,J5,4*%
X77540000Y-37960000D03*
%TO.P,J5,5*%
X80080000Y-40500000D03*
%TO.P,J5,6*%
X80080000Y-37960000D03*
%TO.P,J5,7*%
X82620000Y-40500000D03*
%TO.P,J5,8*%
X82620000Y-37960000D03*
%TO.P,J5,9*%
%TO.N,Net-(CVATTN1-Pad1)*%
X85160000Y-40500000D03*
%TO.P,J5,10*%
X85160000Y-37960000D03*
%TD*%
D23*
%TO.N,Net-(R10-Pad2)*%
X84000000Y-76500000D03*
%TD*%
D24*
%TO.N,Net-(C1-Pad1)*%
X85240000Y-70360000D02*
X84900000Y-70700000D01*
X89420000Y-70360000D02*
X85240000Y-70360000D01*
X81125001Y-84926413D02*
X78424988Y-82226401D01*
X76174999Y-91911999D02*
X77841997Y-90245001D01*
X75268996Y-103100000D02*
X72234990Y-100065994D01*
X72234990Y-100065994D02*
X72234990Y-98010012D01*
X72234990Y-98010012D02*
X76174999Y-94070003D01*
X80934006Y-74314990D02*
X82376014Y-74314990D01*
X76174999Y-94070003D02*
X76174999Y-91911999D01*
X83774999Y-72916005D02*
X83774999Y-71825001D01*
X77841997Y-90245001D02*
X80540001Y-90245001D01*
X80540001Y-90245001D02*
X81125001Y-89660001D01*
X80274990Y-76790012D02*
X80274990Y-74974006D01*
X81125001Y-89660001D02*
X81125001Y-84926413D01*
X78424988Y-78640014D02*
X80274990Y-76790012D01*
X80274990Y-74974006D02*
X80934006Y-74314990D01*
X78424988Y-82226401D02*
X78424988Y-78640014D01*
X75500000Y-103100000D02*
X75268996Y-103100000D01*
X82376014Y-74314990D02*
X83774999Y-72916005D01*
X83774999Y-71825001D02*
X84900000Y-70700000D01*
%TO.N,Net-(C2-Pad2)*%
X79300000Y-95800000D02*
X80400000Y-95800000D01*
X75900000Y-99200000D02*
X79300000Y-95800000D01*
X84524988Y-101524988D02*
X83024988Y-101524988D01*
X86100000Y-103100000D02*
X84524988Y-101524988D01*
X82394990Y-97794990D02*
X80400000Y-95800000D01*
X82394990Y-100894990D02*
X82394990Y-97794990D01*
X83024988Y-101524988D02*
X82394990Y-100894990D01*
X78874999Y-80905001D02*
X81800000Y-77980000D01*
X78874999Y-82040001D02*
X78874999Y-80905001D01*
X81575012Y-84740014D02*
X78874999Y-82040001D01*
X81125001Y-90296412D02*
X81575012Y-89846401D01*
X81125001Y-95074999D02*
X81125001Y-90296412D01*
X80400000Y-95800000D02*
X81125001Y-95074999D01*
X81575012Y-89846401D02*
X81575012Y-84740014D01*
X88254990Y-76854990D02*
X86800000Y-75400000D01*
X90945010Y-77514006D02*
X90285994Y-76854990D01*
X90945010Y-78445994D02*
X90945010Y-77514006D01*
X89891004Y-79500000D02*
X90945010Y-78445994D01*
X81800000Y-77980000D02*
X83320000Y-79500000D01*
X90285994Y-76854990D02*
X88254990Y-76854990D01*
X83320000Y-79500000D02*
X89891004Y-79500000D01*
%TO.N,Net-(CVATTN1-Pad1)*%
X85160000Y-43620000D02*
X83400000Y-45380000D01*
X85160000Y-40500000D02*
X85160000Y-43620000D01*
X77000000Y-67000000D02*
X80500000Y-63500000D01*
X80500000Y-48280000D02*
X83400000Y-45380000D01*
X80500000Y-63500000D02*
X80500000Y-48280000D01*
X85160000Y-40500000D02*
X85160000Y-37960000D01*
X83825001Y-122994999D02*
X83825001Y-112825001D01*
X79600000Y-127220000D02*
X83825001Y-122994999D01*
X83825001Y-112825001D02*
X84650002Y-112000000D01*
X84650002Y-112000000D02*
X86000000Y-112000000D01*
X87474990Y-98623986D02*
X85351004Y-96500000D01*
X86000000Y-112000000D02*
X87474990Y-110525010D01*
X87474990Y-110525010D02*
X87474990Y-98623986D01*
X85351004Y-96500000D02*
X83500000Y-96500000D01*
X82400000Y-95400000D02*
X82400000Y-92500000D01*
X83500000Y-96500000D02*
X82400000Y-95400000D01*
%TO.N,GND*%
X76500000Y-127200000D02*
X77800000Y-128500000D01*
X81400000Y-128500000D02*
X82700000Y-127200000D01*
X77800000Y-128500000D02*
X81400000Y-128500000D01*
X77314990Y-134425010D02*
X73765010Y-134425010D01*
X73765010Y-134425010D02*
X72340000Y-133000000D01*
X78740000Y-133000000D02*
X77314990Y-134425010D01*
X83314990Y-134425010D02*
X84740000Y-133000000D01*
X80165010Y-134425010D02*
X83314990Y-134425010D01*
X78740000Y-133000000D02*
X80165010Y-134425010D01*
X88814990Y-134425010D02*
X90240000Y-133000000D01*
X86165010Y-134425010D02*
X88814990Y-134425010D01*
X84740000Y-133000000D02*
X86165010Y-134425010D01*
X73700000Y-117300000D02*
X70500000Y-117300000D01*
X74125001Y-104225001D02*
X73000000Y-103100000D01*
X82474999Y-104225001D02*
X74125001Y-104225001D01*
X83600000Y-103100000D02*
X82474999Y-104225001D01*
X86880000Y-77980000D02*
X86800000Y-77900000D01*
X77540000Y-40500000D02*
X77540000Y-37960000D01*
X77540000Y-37960000D02*
X80080000Y-37960000D01*
X80080000Y-37960000D02*
X82620000Y-37960000D01*
X82620000Y-40500000D02*
X80080000Y-40500000D01*
X80080000Y-40500000D02*
X77540000Y-40500000D01*
X80080000Y-37960000D02*
X80080000Y-40500000D01*
X82660000Y-75440000D02*
X84900000Y-73200000D01*
X81800000Y-75440000D02*
X82660000Y-75440000D01*
X84260000Y-77900000D02*
X81800000Y-75440000D01*
X86800000Y-77900000D02*
X84260000Y-77900000D01*
%TO.N,Net-(R11-Pad1)*%
X87874999Y-85296397D02*
X87874999Y-97024999D01*
X84078602Y-81500000D02*
X87874999Y-85296397D01*
X88600000Y-97750000D02*
X88600000Y-99200000D01*
X80000000Y-81500000D02*
X84078602Y-81500000D01*
X87874999Y-97024999D02*
X88600000Y-97750000D01*
%TO.N,Net-(R1-Pad2)*%
X71645001Y-120725001D02*
X70500000Y-119580000D01*
X81554999Y-120725001D02*
X71645001Y-120725001D01*
X82700000Y-119580000D02*
X81554999Y-120725001D01*
%TO.N,Net-(R7-Pad2)*%
X82304999Y-101974999D02*
X80980000Y-100650000D01*
X84324988Y-104675012D02*
X84725001Y-104274999D01*
X72234990Y-107945010D02*
X72234990Y-105265010D01*
X72234990Y-105265010D02*
X72824988Y-104675012D01*
X70500000Y-109680000D02*
X72234990Y-107945010D01*
X72824988Y-104675012D02*
X84324988Y-104675012D01*
X84725001Y-104274999D02*
X84725001Y-102361411D01*
X80980000Y-100650000D02*
X80980000Y-99200000D01*
X84725001Y-102361411D02*
X84338589Y-101974999D01*
X84338589Y-101974999D02*
X82304999Y-101974999D01*
%TO.N,Net-(R14-Pad1)*%
X76914990Y-100725010D02*
X74885010Y-100725010D01*
X74885010Y-100725010D02*
X73360000Y-99200000D01*
X78440000Y-99200000D02*
X76914990Y-100725010D01*
X76520000Y-119600000D02*
X76500000Y-119580000D01*
X79600000Y-119600000D02*
X76520000Y-119600000D01*
%TO.N,Net-(R8-Pad2)*%
X79225001Y-108574999D02*
X80980000Y-106820000D01*
X74805001Y-108574999D02*
X79225001Y-108574999D01*
X73700000Y-109680000D02*
X74805001Y-108574999D01*
%TO.N,Net-(R2-Pad2)*%
X75860000Y-117320000D02*
X76800000Y-117320000D01*
X73600000Y-119580000D02*
X75860000Y-117320000D01*
X76800000Y-117320000D02*
X83120000Y-111000000D01*
X83120000Y-107220000D02*
X83520000Y-106820000D01*
X83120000Y-111000000D02*
X83120000Y-107220000D01*
%TO.N,Net-(D1-Pad2)*%
X86020000Y-117300000D02*
X86000000Y-117320000D01*
X89000000Y-117300000D02*
X86020000Y-117300000D01*
%TO.N,Net-(R3-Pad2)*%
X74600000Y-69980000D02*
X71300000Y-69980000D01*
X77520000Y-72900000D02*
X81800000Y-72900000D01*
X74600000Y-69980000D02*
X77520000Y-72900000D01*
%TO.N,Net-(R10-Pad2)*%
X87980000Y-74000000D02*
X89420000Y-75440000D01*
X86500000Y-74000000D02*
X87980000Y-74000000D01*
X84000000Y-76500000D02*
X86500000Y-74000000D01*
%TO.N,Net-(D2-Pad2)*%
X90945010Y-69894006D02*
X90945010Y-71374990D01*
X90945010Y-71374990D02*
X89420000Y-72900000D01*
X78599999Y-69180001D02*
X90231005Y-69180001D01*
X90231005Y-69180001D02*
X90945010Y-69894006D01*
X77800000Y-69980000D02*
X78599999Y-69180001D01*
X91395021Y-78984979D02*
X89000000Y-81380000D01*
X89420000Y-72900000D02*
X91395021Y-74875021D01*
X91395021Y-74875021D02*
X91395021Y-78984979D01*
%TO.N,Net-(D1-Pad1)*%
X71080000Y-89120000D02*
X71000000Y-89200000D01*
X80000000Y-89120000D02*
X71080000Y-89120000D01*
%TO.N,Net-(D4-Pad1)*%
X76400000Y-45500000D02*
X76400000Y-44400000D01*
X75000000Y-43000000D02*
X75000000Y-40500000D01*
X76400000Y-44400000D02*
X75000000Y-43000000D01*
X75000000Y-37960000D02*
X75000000Y-40500000D01*
%TD*%
D25*
X91338509Y-134972296D02*
X89356086Y-134963677D01*
X89378793Y-134936008D01*
X89681500Y-134633301D01*
X89944969Y-134713224D01*
X90240000Y-134742282D01*
X90535032Y-134713224D01*
X90818725Y-134627166D01*
X91080179Y-134487417D01*
X91309345Y-134299345D01*
X91337819Y-134264649D01*
X91338509Y-134972296D01*
%TA.AperFunction,NonConductor*%
D26*
G36*
X91338509Y-134972296D02*
G01*
X89356086Y-134963677D01*
X89378793Y-134936008D01*
X89681500Y-134633301D01*
X89944969Y-134713224D01*
X90240000Y-134742282D01*
X90535032Y-134713224D01*
X90818725Y-134627166D01*
X91080179Y-134487417D01*
X91309345Y-134299345D01*
X91337819Y-134264649D01*
X91338509Y-134972296D01*
G37*
%TD.AperFunction*%
D25*
X84444969Y-134713224D02*
X84740000Y-134742282D01*
X85035032Y-134713224D01*
X85298499Y-134633302D01*
X85601215Y-134936018D01*
X85610549Y-134947392D01*
X83875641Y-134939849D01*
X83878793Y-134936008D01*
X84181500Y-134633301D01*
X84444969Y-134713224D01*
%TA.AperFunction,NonConductor*%
D26*
G36*
X84444969Y-134713224D02*
G01*
X84740000Y-134742282D01*
X85035032Y-134713224D01*
X85298499Y-134633302D01*
X85601215Y-134936018D01*
X85610549Y-134947392D01*
X83875641Y-134939849D01*
X83878793Y-134936008D01*
X84181500Y-134633301D01*
X84444969Y-134713224D01*
G37*
%TD.AperFunction*%
D25*
X78444969Y-134713224D02*
X78740000Y-134742282D01*
X79035032Y-134713224D01*
X79298499Y-134633302D01*
X79586397Y-134921200D01*
X77900929Y-134913872D01*
X78181500Y-134633301D01*
X78444969Y-134713224D01*
%TA.AperFunction,NonConductor*%
D26*
G36*
X78444969Y-134713224D02*
G01*
X78740000Y-134742282D01*
X79035032Y-134713224D01*
X79298499Y-134633302D01*
X79586397Y-134921200D01*
X77900929Y-134913872D01*
X78181500Y-134633301D01*
X78444969Y-134713224D01*
G37*
%TD.AperFunction*%
D25*
X71270655Y-134299345D02*
X71499822Y-134487417D01*
X71761276Y-134627166D01*
X72044969Y-134713224D01*
X72340000Y-134742282D01*
X72635032Y-134713224D01*
X72898499Y-134633302D01*
X73158450Y-134893253D01*
X68626749Y-134873550D01*
X68626083Y-134538729D01*
X68686613Y-134588405D01*
X68840149Y-134670472D01*
X69006745Y-134721008D01*
X69179999Y-134738072D01*
X70420001Y-134738072D01*
X70593255Y-134721008D01*
X70759851Y-134670472D01*
X70913387Y-134588405D01*
X71047962Y-134477962D01*
X71158405Y-134343387D01*
X71216934Y-134233886D01*
X71270655Y-134299345D01*
%TA.AperFunction,NonConductor*%
D26*
G36*
X71270655Y-134299345D02*
G01*
X71499822Y-134487417D01*
X71761276Y-134627166D01*
X72044969Y-134713224D01*
X72340000Y-134742282D01*
X72635032Y-134713224D01*
X72898499Y-134633302D01*
X73158450Y-134893253D01*
X68626749Y-134873550D01*
X68626083Y-134538729D01*
X68686613Y-134588405D01*
X68840149Y-134670472D01*
X69006745Y-134721008D01*
X69179999Y-134738072D01*
X70420001Y-134738072D01*
X70593255Y-134721008D01*
X70759851Y-134670472D01*
X70913387Y-134588405D01*
X71047962Y-134477962D01*
X71158405Y-134343387D01*
X71216934Y-134233886D01*
X71270655Y-134299345D01*
G37*
%TD.AperFunction*%
D25*
X91274291Y-69148485D02*
X90794808Y-68669003D01*
X90771006Y-68640000D01*
X90655281Y-68545027D01*
X90523252Y-68474455D01*
X90379991Y-68430998D01*
X90268338Y-68420001D01*
X90268327Y-68420001D01*
X90231005Y-68416325D01*
X90193683Y-68420001D01*
X83267332Y-68420001D01*
X83351185Y-68351185D01*
X83430537Y-68254494D01*
X83489502Y-68144180D01*
X83525812Y-68024482D01*
X83538072Y-67900000D01*
X83538072Y-66100000D01*
X83525812Y-65975518D01*
X83489502Y-65855820D01*
X83430537Y-65745506D01*
X83351185Y-65648815D01*
X83254494Y-65569463D01*
X83144180Y-65510498D01*
X83024482Y-65474188D01*
X82900000Y-65461928D01*
X81100000Y-65461928D01*
X80975518Y-65474188D01*
X80855820Y-65510498D01*
X80745506Y-65569463D01*
X80648815Y-65648815D01*
X80569463Y-65745506D01*
X80516120Y-65845303D01*
X80478505Y-65807688D01*
X80227095Y-65639701D01*
X79947743Y-65523989D01*
X79651184Y-65465000D01*
X79609802Y-65465000D01*
X81011009Y-64063794D01*
X81040001Y-64040001D01*
X81063795Y-64011008D01*
X81063799Y-64011004D01*
X81134973Y-63924277D01*
X81134974Y-63924276D01*
X81205546Y-63792247D01*
X81249003Y-63648986D01*
X81260000Y-63537333D01*
X81260000Y-63537324D01*
X81263676Y-63500001D01*
X81260000Y-63462678D01*
X81260000Y-59277902D01*
X82045000Y-59277902D01*
X82045000Y-59722098D01*
X82131658Y-60157759D01*
X82301645Y-60568143D01*
X82548427Y-60937479D01*
X82862521Y-61251573D01*
X83231857Y-61498355D01*
X83642241Y-61668342D01*
X84077902Y-61755000D01*
X84522098Y-61755000D01*
X84957759Y-61668342D01*
X85368143Y-61498355D01*
X85737479Y-61251573D01*
X86051573Y-60937479D01*
X86298355Y-60568143D01*
X86468342Y-60157759D01*
X86555000Y-59722098D01*
X86555000Y-59277902D01*
X86468342Y-58842241D01*
X86298355Y-58431857D01*
X86051573Y-58062521D01*
X85737479Y-57748427D01*
X85368143Y-57501645D01*
X84957759Y-57331658D01*
X84522098Y-57245000D01*
X84077902Y-57245000D01*
X83642241Y-57331658D01*
X83231857Y-57501645D01*
X82862521Y-57748427D01*
X82548427Y-58062521D01*
X82301645Y-58431857D01*
X82131658Y-58842241D01*
X82045000Y-59277902D01*
X81260000Y-59277902D01*
X81260000Y-52200000D01*
X81961928Y-52200000D01*
X81961928Y-53800000D01*
X81974188Y-53924482D01*
X82010498Y-54044180D01*
X82069463Y-54154494D01*
X82148815Y-54251185D01*
X82245506Y-54330537D01*
X82355820Y-54389502D01*
X82475518Y-54425812D01*
X82600000Y-54438072D01*
X84200000Y-54438072D01*
X84324482Y-54425812D01*
X84444180Y-54389502D01*
X84554494Y-54330537D01*
X84651185Y-54251185D01*
X84730537Y-54154494D01*
X84789502Y-54044180D01*
X84825812Y-53924482D01*
X84838072Y-53800000D01*
X84838072Y-52200000D01*
X84825812Y-52075518D01*
X84789502Y-51955820D01*
X84730537Y-51845506D01*
X84651185Y-51748815D01*
X84554494Y-51669463D01*
X84444180Y-51610498D01*
X84324482Y-51574188D01*
X84200000Y-51561928D01*
X82600000Y-51561928D01*
X82475518Y-51574188D01*
X82355820Y-51610498D01*
X82245506Y-51669463D01*
X82148815Y-51748815D01*
X82069463Y-51845506D01*
X82010498Y-51955820D01*
X81974188Y-52075518D01*
X81961928Y-52200000D01*
X81260000Y-52200000D01*
X81260000Y-48594801D01*
X82154801Y-47700000D01*
X85461928Y-47700000D01*
X85461928Y-49300000D01*
X85474188Y-49424482D01*
X85510498Y-49544180D01*
X85569463Y-49654494D01*
X85648815Y-49751185D01*
X85745506Y-49830537D01*
X85855820Y-49889502D01*
X85975518Y-49925812D01*
X86100000Y-49938072D01*
X87700000Y-49938072D01*
X87824482Y-49925812D01*
X87944180Y-49889502D01*
X88054494Y-49830537D01*
X88151185Y-49751185D01*
X88164790Y-49734607D01*
X88220273Y-49771680D01*
X88481426Y-49879853D01*
X88758665Y-49935000D01*
X89041335Y-49935000D01*
X89318574Y-49879853D01*
X89579727Y-49771680D01*
X89814759Y-49614637D01*
X90014637Y-49414759D01*
X90171680Y-49179727D01*
X90279853Y-48918574D01*
X90335000Y-48641335D01*
X90335000Y-48358665D01*
X90279853Y-48081426D01*
X90171680Y-47820273D01*
X90014637Y-47585241D01*
X89814759Y-47385363D01*
X89579727Y-47228320D01*
X89318574Y-47120147D01*
X89041335Y-47065000D01*
X88758665Y-47065000D01*
X88481426Y-47120147D01*
X88220273Y-47228320D01*
X88164790Y-47265393D01*
X88151185Y-47248815D01*
X88054494Y-47169463D01*
X87944180Y-47110498D01*
X87824482Y-47074188D01*
X87700000Y-47061928D01*
X86100000Y-47061928D01*
X85975518Y-47074188D01*
X85855820Y-47110498D01*
X85745506Y-47169463D01*
X85648815Y-47248815D01*
X85569463Y-47345506D01*
X85510498Y-47455820D01*
X85474188Y-47575518D01*
X85461928Y-47700000D01*
X82154801Y-47700000D01*
X83076114Y-46778688D01*
X83258665Y-46815000D01*
X83541335Y-46815000D01*
X83818574Y-46759853D01*
X84079727Y-46651680D01*
X84314759Y-46494637D01*
X84514637Y-46294759D01*
X84671680Y-46059727D01*
X84779853Y-45798574D01*
X84835000Y-45521335D01*
X84835000Y-45238665D01*
X84798688Y-45056114D01*
X85671003Y-44183799D01*
X85700001Y-44160001D01*
X85794974Y-44044276D01*
X85865546Y-43912247D01*
X85909003Y-43768986D01*
X85920000Y-43657333D01*
X85920000Y-43657323D01*
X85923676Y-43620000D01*
X85920000Y-43582677D01*
X85920000Y-41794535D01*
X86115302Y-41664039D01*
X86324039Y-41455302D01*
X86488042Y-41209853D01*
X86601010Y-40937125D01*
X86658600Y-40647599D01*
X86658600Y-40352401D01*
X86601010Y-40062875D01*
X86488042Y-39790147D01*
X86324039Y-39544698D01*
X86115302Y-39335961D01*
X85956719Y-39230000D01*
X86115302Y-39124039D01*
X86324039Y-38915302D01*
X86488042Y-38669853D01*
X86601010Y-38397125D01*
X86658600Y-38107599D01*
X86658600Y-37812401D01*
X86601010Y-37522875D01*
X86488042Y-37250147D01*
X86324039Y-37004698D01*
X86115302Y-36795961D01*
X85869853Y-36631958D01*
X85597125Y-36518990D01*
X85307599Y-36461400D01*
X85012401Y-36461400D01*
X84722875Y-36518990D01*
X84450147Y-36631958D01*
X84204698Y-36795961D01*
X83995961Y-37004698D01*
X83890000Y-37163281D01*
X83784039Y-37004698D01*
X83575302Y-36795961D01*
X83329853Y-36631958D01*
X83057125Y-36518990D01*
X82767599Y-36461400D01*
X82472401Y-36461400D01*
X82182875Y-36518990D01*
X81910147Y-36631958D01*
X81664698Y-36795961D01*
X81455961Y-37004698D01*
X81350000Y-37163281D01*
X81244039Y-37004698D01*
X81035302Y-36795961D01*
X80789853Y-36631958D01*
X80517125Y-36518990D01*
X80227599Y-36461400D01*
X79932401Y-36461400D01*
X79642875Y-36518990D01*
X79370147Y-36631958D01*
X79124698Y-36795961D01*
X78915961Y-37004698D01*
X78810000Y-37163281D01*
X78704039Y-37004698D01*
X78495302Y-36795961D01*
X78249853Y-36631958D01*
X77977125Y-36518990D01*
X77687599Y-36461400D01*
X77392401Y-36461400D01*
X77102875Y-36518990D01*
X76830147Y-36631958D01*
X76584698Y-36795961D01*
X76375961Y-37004698D01*
X76270000Y-37163281D01*
X76164039Y-37004698D01*
X75955302Y-36795961D01*
X75709853Y-36631958D01*
X75437125Y-36518990D01*
X75147599Y-36461400D01*
X74852401Y-36461400D01*
X74562875Y-36518990D01*
X74290147Y-36631958D01*
X74044698Y-36795961D01*
X73835961Y-37004698D01*
X73671958Y-37250147D01*
X73558990Y-37522875D01*
X73501400Y-37812401D01*
X73501400Y-38107599D01*
X73558990Y-38397125D01*
X73671958Y-38669853D01*
X73835961Y-38915302D01*
X73950023Y-39029364D01*
X73892220Y-39046898D01*
X73781906Y-39105863D01*
X73685215Y-39185215D01*
X73605863Y-39281906D01*
X73546898Y-39392220D01*
X73510588Y-39511918D01*
X73498328Y-39636400D01*
X73498328Y-41363600D01*
X73510588Y-41488082D01*
X73546898Y-41607780D01*
X73605863Y-41718094D01*
X73685215Y-41814785D01*
X73781906Y-41894137D01*
X73892220Y-41953102D01*
X74011918Y-41989412D01*
X74136400Y-42001672D01*
X74240000Y-42001672D01*
X74240000Y-42962677D01*
X74236324Y-43000000D01*
X74240000Y-43037322D01*
X74240000Y-43037332D01*
X74250997Y-43148985D01*
X74294454Y-43292246D01*
X74365026Y-43424276D01*
X74403383Y-43471014D01*
X74459999Y-43540001D01*
X74489003Y-43563804D01*
X75162655Y-44237457D01*
X75148815Y-44248815D01*
X75069463Y-44345506D01*
X75010498Y-44455820D01*
X74974188Y-44575518D01*
X74961928Y-44700000D01*
X74961928Y-46300000D01*
X74974188Y-46424482D01*
X75010498Y-46544180D01*
X75069463Y-46654494D01*
X75148815Y-46751185D01*
X75245506Y-46830537D01*
X75355820Y-46889502D01*
X75475518Y-46925812D01*
X75600000Y-46938072D01*
X77200000Y-46938072D01*
X77324482Y-46925812D01*
X77444180Y-46889502D01*
X77554494Y-46830537D01*
X77651185Y-46751185D01*
X77730537Y-46654494D01*
X77789502Y-46544180D01*
X77825812Y-46424482D01*
X77838072Y-46300000D01*
X77838072Y-44700000D01*
X77825812Y-44575518D01*
X77789502Y-44455820D01*
X77730537Y-44345506D01*
X77651185Y-44248815D01*
X77554494Y-44169463D01*
X77444180Y-44110498D01*
X77324482Y-44074188D01*
X77200000Y-44061928D01*
X77081052Y-44061928D01*
X77034974Y-43975723D01*
X76963799Y-43888997D01*
X76940001Y-43859999D01*
X76911003Y-43836201D01*
X75760000Y-42685199D01*
X75760000Y-42001672D01*
X75863600Y-42001672D01*
X75988082Y-41989412D01*
X76107780Y-41953102D01*
X76218094Y-41894137D01*
X76314785Y-41814785D01*
X76394137Y-41718094D01*
X76453102Y-41607780D01*
X76470636Y-41549977D01*
X76584698Y-41664039D01*
X76830147Y-41828042D01*
X77102875Y-41941010D01*
X77392401Y-41998600D01*
X77687599Y-41998600D01*
X77977125Y-41941010D01*
X78249853Y-41828042D01*
X78495302Y-41664039D01*
X78704039Y-41455302D01*
X78810000Y-41296719D01*
X78915961Y-41455302D01*
X79124698Y-41664039D01*
X79370147Y-41828042D01*
X79642875Y-41941010D01*
X79932401Y-41998600D01*
X80227599Y-41998600D01*
X80517125Y-41941010D01*
X80789853Y-41828042D01*
X81035302Y-41664039D01*
X81244039Y-41455302D01*
X81350000Y-41296719D01*
X81455961Y-41455302D01*
X81664698Y-41664039D01*
X81910147Y-41828042D01*
X82182875Y-41941010D01*
X82472401Y-41998600D01*
X82767599Y-41998600D01*
X83057125Y-41941010D01*
X83329853Y-41828042D01*
X83575302Y-41664039D01*
X83784039Y-41455302D01*
X83890000Y-41296719D01*
X83995961Y-41455302D01*
X84204698Y-41664039D01*
X84400000Y-41794535D01*
X84400001Y-43305197D01*
X83723886Y-43981312D01*
X83541335Y-43945000D01*
X83258665Y-43945000D01*
X82981426Y-44000147D01*
X82720273Y-44108320D01*
X82485241Y-44265363D01*
X82285363Y-44465241D01*
X82128320Y-44700273D01*
X82020147Y-44961426D01*
X81965000Y-45238665D01*
X81965000Y-45521335D01*
X82001312Y-45703886D01*
X79988998Y-47716201D01*
X79960000Y-47739999D01*
X79936202Y-47768997D01*
X79936201Y-47768998D01*
X79865026Y-47855724D01*
X79794454Y-47987754D01*
X79750998Y-48131015D01*
X79736324Y-48280000D01*
X79740001Y-48317333D01*
X79740000Y-63185197D01*
X77408930Y-65516269D01*
X77151184Y-65465000D01*
X76848816Y-65465000D01*
X76552257Y-65523989D01*
X76272905Y-65639701D01*
X76021495Y-65807688D01*
X75807688Y-66021495D01*
X75639701Y-66272905D01*
X75523989Y-66552257D01*
X75465000Y-66848816D01*
X75465000Y-67151184D01*
X75523989Y-67447743D01*
X75639701Y-67727095D01*
X75807688Y-67978505D01*
X76021495Y-68192312D01*
X76272905Y-68360299D01*
X76552257Y-68476011D01*
X76848816Y-68535000D01*
X77151184Y-68535000D01*
X77447743Y-68476011D01*
X77727095Y-68360299D01*
X77978505Y-68192312D01*
X78192312Y-67978505D01*
X78250000Y-67892169D01*
X78307688Y-67978505D01*
X78521495Y-68192312D01*
X78772905Y-68360299D01*
X78917038Y-68420001D01*
X78637321Y-68420001D01*
X78599998Y-68416325D01*
X78562675Y-68420001D01*
X78562666Y-68420001D01*
X78451013Y-68430998D01*
X78307752Y-68474455D01*
X78175723Y-68545027D01*
X78175721Y-68545028D01*
X78175722Y-68545028D01*
X78130022Y-68582533D01*
X77941335Y-68545000D01*
X77658665Y-68545000D01*
X77381426Y-68600147D01*
X77120273Y-68708320D01*
X76885241Y-68865363D01*
X76685363Y-69065241D01*
X76528320Y-69300273D01*
X76420147Y-69561426D01*
X76365000Y-69838665D01*
X76365000Y-70121335D01*
X76420147Y-70398574D01*
X76528320Y-70659727D01*
X76685363Y-70894759D01*
X76885241Y-71094637D01*
X77120273Y-71251680D01*
X77381426Y-71359853D01*
X77658665Y-71415000D01*
X77941335Y-71415000D01*
X78218574Y-71359853D01*
X78479727Y-71251680D01*
X78714759Y-71094637D01*
X78914637Y-70894759D01*
X79071680Y-70659727D01*
X79179853Y-70398574D01*
X79235000Y-70121335D01*
X79235000Y-69940001D01*
X79961928Y-69940001D01*
X79961928Y-71160000D01*
X79974188Y-71284482D01*
X80010498Y-71404180D01*
X80069463Y-71514494D01*
X80148815Y-71611185D01*
X80245506Y-71690537D01*
X80355820Y-71749502D01*
X80475518Y-71785812D01*
X80493482Y-71787581D01*
X80380392Y-71880392D01*
X80201068Y-72098899D01*
X80179099Y-72140000D01*
X77834802Y-72140000D01*
X75998688Y-70303886D01*
X76035000Y-70121335D01*
X76035000Y-69838665D01*
X75979853Y-69561426D01*
X75871680Y-69300273D01*
X75714637Y-69065241D01*
X75514759Y-68865363D01*
X75279727Y-68708320D01*
X75018574Y-68600147D01*
X74741335Y-68545000D01*
X74458665Y-68545000D01*
X74181426Y-68600147D01*
X73920273Y-68708320D01*
X73685241Y-68865363D01*
X73485363Y-69065241D01*
X73381957Y-69220000D01*
X72518043Y-69220000D01*
X72414637Y-69065241D01*
X72214759Y-68865363D01*
X71979727Y-68708320D01*
X71718574Y-68600147D01*
X71441335Y-68545000D01*
X71158665Y-68545000D01*
X70881426Y-68600147D01*
X70620273Y-68708320D01*
X70385241Y-68865363D01*
X70185363Y-69065241D01*
X70028320Y-69300273D01*
X69920147Y-69561426D01*
X69865000Y-69838665D01*
X69865000Y-70121335D01*
X69920147Y-70398574D01*
X70028320Y-70659727D01*
X70185363Y-70894759D01*
X70385241Y-71094637D01*
X70620273Y-71251680D01*
X70881426Y-71359853D01*
X71158665Y-71415000D01*
X71441335Y-71415000D01*
X71718574Y-71359853D01*
X71979727Y-71251680D01*
X72214759Y-71094637D01*
X72414637Y-70894759D01*
X72518043Y-70740000D01*
X73381957Y-70740000D01*
X73485363Y-70894759D01*
X73685241Y-71094637D01*
X73920273Y-71251680D01*
X74181426Y-71359853D01*
X74458665Y-71415000D01*
X74741335Y-71415000D01*
X74923886Y-71378688D01*
X76956200Y-73411002D01*
X76979999Y-73440001D01*
X77008997Y-73463799D01*
X77095724Y-73534974D01*
X77227753Y-73605546D01*
X77371014Y-73649003D01*
X77520000Y-73663677D01*
X77557333Y-73660000D01*
X80179099Y-73660000D01*
X80201068Y-73701101D01*
X80323684Y-73850510D01*
X79763988Y-74410207D01*
X79734990Y-74434005D01*
X79711192Y-74463003D01*
X79711191Y-74463004D01*
X79640016Y-74549730D01*
X79569444Y-74681760D01*
X79525988Y-74825021D01*
X79511314Y-74974006D01*
X79514991Y-75011338D01*
X79514990Y-76475210D01*
X79070978Y-76919222D01*
X78914637Y-76685241D01*
X78714759Y-76485363D01*
X78479727Y-76328320D01*
X78218574Y-76220147D01*
X77941335Y-76165000D01*
X77658665Y-76165000D01*
X77381426Y-76220147D01*
X77120273Y-76328320D01*
X76885241Y-76485363D01*
X76685363Y-76685241D01*
X76528320Y-76920273D01*
X76420147Y-77181426D01*
X76365000Y-77458665D01*
X76365000Y-77741335D01*
X76420147Y-78018574D01*
X76528320Y-78279727D01*
X76685363Y-78514759D01*
X76885241Y-78714637D01*
X77120273Y-78871680D01*
X77381426Y-78979853D01*
X77658665Y-79035000D01*
X77664989Y-79035000D01*
X77664988Y-82189078D01*
X77661312Y-82226401D01*
X77664988Y-82263724D01*
X77664988Y-82263733D01*
X77675985Y-82375386D01*
X77712159Y-82494637D01*
X77719442Y-82518647D01*
X77790014Y-82650677D01*
X77829859Y-82699227D01*
X77884987Y-82766402D01*
X77913991Y-82790205D01*
X80365002Y-85241216D01*
X80365001Y-87729491D01*
X80141335Y-87685000D01*
X79858665Y-87685000D01*
X79581426Y-87740147D01*
X79320273Y-87848320D01*
X79085241Y-88005363D01*
X78885363Y-88205241D01*
X78781957Y-88360000D01*
X72434132Y-88360000D01*
X72425812Y-88275518D01*
X72389502Y-88155820D01*
X72330537Y-88045506D01*
X72251185Y-87948815D01*
X72154494Y-87869463D01*
X72044180Y-87810498D01*
X71924482Y-87774188D01*
X71800000Y-87761928D01*
X70200000Y-87761928D01*
X70075518Y-87774188D01*
X69955820Y-87810498D01*
X69845506Y-87869463D01*
X69748815Y-87948815D01*
X69669463Y-88045506D01*
X69610498Y-88155820D01*
X69574188Y-88275518D01*
X69561928Y-88400000D01*
X69561928Y-90000000D01*
X69574188Y-90124482D01*
X69610498Y-90244180D01*
X69669463Y-90354494D01*
X69748815Y-90451185D01*
X69845506Y-90530537D01*
X69955820Y-90589502D01*
X70075518Y-90625812D01*
X70200000Y-90638072D01*
X71800000Y-90638072D01*
X71924482Y-90625812D01*
X72044180Y-90589502D01*
X72154494Y-90530537D01*
X72251185Y-90451185D01*
X72330537Y-90354494D01*
X72389502Y-90244180D01*
X72425812Y-90124482D01*
X72438072Y-90000000D01*
X72438072Y-89880000D01*
X77132196Y-89880000D01*
X75663997Y-91348200D01*
X75634999Y-91371998D01*
X75611201Y-91400996D01*
X75611200Y-91400997D01*
X75540025Y-91487723D01*
X75469453Y-91619753D01*
X75439179Y-91719557D01*
X75425997Y-91763013D01*
X75415000Y-91874666D01*
X75411323Y-91911999D01*
X75415000Y-91949331D01*
X75414999Y-93755201D01*
X74050978Y-95119222D01*
X73894637Y-94885241D01*
X73694759Y-94685363D01*
X73459727Y-94528320D01*
X73198574Y-94420147D01*
X72921335Y-94365000D01*
X72638665Y-94365000D01*
X72361426Y-94420147D01*
X72100273Y-94528320D01*
X71865241Y-94685363D01*
X71665363Y-94885241D01*
X71508320Y-95120273D01*
X71400147Y-95381426D01*
X71345000Y-95658665D01*
X71345000Y-95941335D01*
X71400147Y-96218574D01*
X71508320Y-96479727D01*
X71665363Y-96714759D01*
X71865241Y-96914637D01*
X72099223Y-97070978D01*
X71723988Y-97446213D01*
X71694990Y-97470011D01*
X71671192Y-97499009D01*
X71671191Y-97499010D01*
X71600016Y-97585736D01*
X71598327Y-97588895D01*
X71371808Y-97467818D01*
X71101309Y-97385764D01*
X70820000Y-97358057D01*
X70538692Y-97385764D01*
X70268193Y-97467818D01*
X70018900Y-97601068D01*
X69800393Y-97780392D01*
X69621068Y-97998899D01*
X69487818Y-98248192D01*
X69405764Y-98518691D01*
X69385000Y-98729508D01*
X69385000Y-99670491D01*
X69405764Y-99881308D01*
X69487818Y-100151807D01*
X69621068Y-100401100D01*
X69800392Y-100619607D01*
X70018899Y-100798932D01*
X70268192Y-100932182D01*
X70538691Y-101014236D01*
X70820000Y-101041943D01*
X71101308Y-101014236D01*
X71371807Y-100932182D01*
X71621100Y-100798932D01*
X71770510Y-100676315D01*
X72775698Y-101681503D01*
X72581426Y-101720147D01*
X72320273Y-101828320D01*
X72085241Y-101985363D01*
X71885363Y-102185241D01*
X71728320Y-102420273D01*
X71620147Y-102681426D01*
X71565000Y-102958665D01*
X71565000Y-103241335D01*
X71620147Y-103518574D01*
X71728320Y-103779727D01*
X71885363Y-104014759D01*
X72085241Y-104214637D01*
X72160365Y-104264833D01*
X71723988Y-104701211D01*
X71694990Y-104725009D01*
X71671192Y-104754007D01*
X71671191Y-104754008D01*
X71600016Y-104840734D01*
X71529444Y-104972764D01*
X71519434Y-105005764D01*
X71491065Y-105099289D01*
X71485988Y-105116025D01*
X71482917Y-105147207D01*
X71371808Y-105087818D01*
X71101309Y-105005764D01*
X70820000Y-104978057D01*
X70538692Y-105005764D01*
X70268193Y-105087818D01*
X70018900Y-105221068D01*
X69800393Y-105400392D01*
X69621068Y-105618899D01*
X69487818Y-105868192D01*
X69405764Y-106138691D01*
X69385000Y-106349508D01*
X69385000Y-107290491D01*
X69405764Y-107501308D01*
X69487818Y-107771807D01*
X69621068Y-108021100D01*
X69800392Y-108239607D01*
X69943682Y-108357202D01*
X69820273Y-108408320D01*
X69585241Y-108565363D01*
X69385363Y-108765241D01*
X69228320Y-109000273D01*
X69120147Y-109261426D01*
X69065000Y-109538665D01*
X69065000Y-109821335D01*
X69120147Y-110098574D01*
X69228320Y-110359727D01*
X69385363Y-110594759D01*
X69585241Y-110794637D01*
X69820273Y-110951680D01*
X70081426Y-111059853D01*
X70358665Y-111115000D01*
X70641335Y-111115000D01*
X70918574Y-111059853D01*
X71179727Y-110951680D01*
X71414759Y-110794637D01*
X71614637Y-110594759D01*
X71771680Y-110359727D01*
X71879853Y-110098574D01*
X71935000Y-109821335D01*
X71935000Y-109538665D01*
X71898688Y-109356114D01*
X72739394Y-108515409D01*
X72806401Y-108551225D01*
X72785241Y-108565363D01*
X72585363Y-108765241D01*
X72428320Y-109000273D01*
X72320147Y-109261426D01*
X72265000Y-109538665D01*
X72265000Y-109821335D01*
X72320147Y-110098574D01*
X72428320Y-110359727D01*
X72585363Y-110594759D01*
X72785241Y-110794637D01*
X73020273Y-110951680D01*
X73281426Y-111059853D01*
X73558665Y-111115000D01*
X73841335Y-111115000D01*
X74118574Y-111059853D01*
X74379727Y-110951680D01*
X74614759Y-110794637D01*
X74814637Y-110594759D01*
X74971680Y-110359727D01*
X75079853Y-110098574D01*
X75135000Y-109821335D01*
X75135000Y-109538665D01*
X75098688Y-109356115D01*
X75119804Y-109334999D01*
X75409491Y-109334999D01*
X75365000Y-109558665D01*
X75365000Y-109841335D01*
X75420147Y-110118574D01*
X75528320Y-110379727D01*
X75685363Y-110614759D01*
X75885241Y-110814637D01*
X76120273Y-110971680D01*
X76381426Y-111079853D01*
X76658665Y-111135000D01*
X76941335Y-111135000D01*
X77218574Y-111079853D01*
X77479727Y-110971680D01*
X77714759Y-110814637D01*
X77914637Y-110614759D01*
X78071680Y-110379727D01*
X78179853Y-110118574D01*
X78235000Y-109841335D01*
X78235000Y-109558665D01*
X78190509Y-109334999D01*
X79187679Y-109334999D01*
X79225001Y-109338675D01*
X79262323Y-109334999D01*
X79262334Y-109334999D01*
X79373987Y-109324002D01*
X79517248Y-109280545D01*
X79649277Y-109209973D01*
X79765002Y-109115000D01*
X79788804Y-109085997D01*
X80359393Y-108515408D01*
X80428192Y-108552182D01*
X80698691Y-108634236D01*
X80980000Y-108661943D01*
X81261308Y-108634236D01*
X81531807Y-108552182D01*
X81781100Y-108418932D01*
X81999607Y-108239608D01*
X82178932Y-108021101D01*
X82250000Y-107888142D01*
X82321068Y-108021100D01*
X82360001Y-108068540D01*
X82360000Y-110685198D01*
X77123887Y-115921312D01*
X76941335Y-115885000D01*
X76658665Y-115885000D01*
X76381426Y-115940147D01*
X76120273Y-116048320D01*
X75885241Y-116205363D01*
X75685363Y-116405241D01*
X75533248Y-116632898D01*
X75435724Y-116685026D01*
X75319999Y-116779999D01*
X75296201Y-116808997D01*
X75103731Y-117001467D01*
X75079853Y-116881426D01*
X74971680Y-116620273D01*
X74814637Y-116385241D01*
X74614759Y-116185363D01*
X74379727Y-116028320D01*
X74118574Y-115920147D01*
X73841335Y-115865000D01*
X73558665Y-115865000D01*
X73281426Y-115920147D01*
X73020273Y-116028320D01*
X72785241Y-116185363D01*
X72585363Y-116385241D01*
X72481957Y-116540000D01*
X71718043Y-116540000D01*
X71614637Y-116385241D01*
X71414759Y-116185363D01*
X71179727Y-116028320D01*
X70918574Y-115920147D01*
X70641335Y-115865000D01*
X70358665Y-115865000D01*
X70081426Y-115920147D01*
X69820273Y-116028320D01*
X69585241Y-116185363D01*
X69385363Y-116385241D01*
X69228320Y-116620273D01*
X69120147Y-116881426D01*
X69065000Y-117158665D01*
X69065000Y-117441335D01*
X69120147Y-117718574D01*
X69228320Y-117979727D01*
X69385363Y-118214759D01*
X69585241Y-118414637D01*
X69623199Y-118440000D01*
X69585241Y-118465363D01*
X69385363Y-118665241D01*
X69228320Y-118900273D01*
X69120147Y-119161426D01*
X69065000Y-119438665D01*
X69065000Y-119721335D01*
X69120147Y-119998574D01*
X69228320Y-120259727D01*
X69385363Y-120494759D01*
X69585241Y-120694637D01*
X69820273Y-120851680D01*
X70081426Y-120959853D01*
X70358665Y-121015000D01*
X70641335Y-121015000D01*
X70823886Y-120978688D01*
X71081202Y-121236004D01*
X71105000Y-121265002D01*
X71133998Y-121288800D01*
X71220724Y-121359975D01*
X71352754Y-121430547D01*
X71496015Y-121474004D01*
X71607668Y-121485001D01*
X71607678Y-121485001D01*
X71645001Y-121488677D01*
X71682324Y-121485001D01*
X81517677Y-121485001D01*
X81554999Y-121488677D01*
X81592321Y-121485001D01*
X81592332Y-121485001D01*
X81703985Y-121474004D01*
X81847246Y-121430547D01*
X81979275Y-121359975D01*
X82095000Y-121265002D01*
X82118803Y-121235999D01*
X82376113Y-120978688D01*
X82558665Y-121015000D01*
X82841335Y-121015000D01*
X83065001Y-120970509D01*
X83065001Y-122680197D01*
X79923887Y-125821312D01*
X79741335Y-125785000D01*
X79458665Y-125785000D01*
X79181426Y-125840147D01*
X78920273Y-125948320D01*
X78685241Y-126105363D01*
X78485363Y-126305241D01*
X78328320Y-126540273D01*
X78220147Y-126801426D01*
X78165000Y-127078665D01*
X78165000Y-127361335D01*
X78220147Y-127638574D01*
X78262159Y-127740000D01*
X78114802Y-127740000D01*
X77898688Y-127523886D01*
X77935000Y-127341335D01*
X77935000Y-127058665D01*
X77879853Y-126781426D01*
X77771680Y-126520273D01*
X77614637Y-126285241D01*
X77414759Y-126085363D01*
X77179727Y-125928320D01*
X76918574Y-125820147D01*
X76641335Y-125765000D01*
X76358665Y-125765000D01*
X76081426Y-125820147D01*
X75820273Y-125928320D01*
X75585241Y-126085363D01*
X75385363Y-126285241D01*
X75228320Y-126520273D01*
X75120147Y-126781426D01*
X75065000Y-127058665D01*
X75065000Y-127341335D01*
X75120147Y-127618574D01*
X75228320Y-127879727D01*
X75385363Y-128114759D01*
X75585241Y-128314637D01*
X75820273Y-128471680D01*
X76081426Y-128579853D01*
X76358665Y-128635000D01*
X76641335Y-128635000D01*
X76823886Y-128598688D01*
X77236201Y-129011003D01*
X77259999Y-129040001D01*
X77375724Y-129134974D01*
X77507753Y-129205546D01*
X77651014Y-129249003D01*
X77762667Y-129260000D01*
X77762675Y-129260000D01*
X77800000Y-129263676D01*
X77837325Y-129260000D01*
X81362678Y-129260000D01*
X81400000Y-129263676D01*
X81437322Y-129260000D01*
X81437333Y-129260000D01*
X81548986Y-129249003D01*
X81692247Y-129205546D01*
X81824276Y-129134974D01*
X81940001Y-129040001D01*
X81963804Y-129010997D01*
X82376114Y-128598688D01*
X82558665Y-128635000D01*
X82841335Y-128635000D01*
X83118574Y-128579853D01*
X83379727Y-128471680D01*
X83614759Y-128314637D01*
X83814637Y-128114759D01*
X83971680Y-127879727D01*
X84079853Y-127618574D01*
X84135000Y-127341335D01*
X84135000Y-127058665D01*
X84119087Y-126978665D01*
X87165000Y-126978665D01*
X87165000Y-127261335D01*
X87220147Y-127538574D01*
X87328320Y-127799727D01*
X87485363Y-128034759D01*
X87685241Y-128234637D01*
X87920273Y-128391680D01*
X88181426Y-128499853D01*
X88458665Y-128555000D01*
X88741335Y-128555000D01*
X89018574Y-128499853D01*
X89279727Y-128391680D01*
X89514759Y-128234637D01*
X89714637Y-128034759D01*
X89871680Y-127799727D01*
X89979853Y-127538574D01*
X90035000Y-127261335D01*
X90035000Y-126978665D01*
X89979853Y-126701426D01*
X89871680Y-126440273D01*
X89714637Y-126205241D01*
X89514759Y-126005363D01*
X89279727Y-125848320D01*
X89018574Y-125740147D01*
X88741335Y-125685000D01*
X88458665Y-125685000D01*
X88181426Y-125740147D01*
X87920273Y-125848320D01*
X87685241Y-126005363D01*
X87485363Y-126205241D01*
X87328320Y-126440273D01*
X87220147Y-126701426D01*
X87165000Y-126978665D01*
X84119087Y-126978665D01*
X84079853Y-126781426D01*
X83971680Y-126520273D01*
X83814637Y-126285241D01*
X83614759Y-126085363D01*
X83379727Y-125928320D01*
X83118574Y-125820147D01*
X82841335Y-125765000D01*
X82558665Y-125765000D01*
X82281426Y-125820147D01*
X82020273Y-125928320D01*
X81858164Y-126036638D01*
X84336005Y-123558797D01*
X84365002Y-123535000D01*
X84459975Y-123419275D01*
X84530547Y-123287246D01*
X84574004Y-123143985D01*
X84585001Y-123032332D01*
X84585001Y-123032324D01*
X84588677Y-122994999D01*
X84585001Y-122957674D01*
X84585001Y-117561885D01*
X84620147Y-117738574D01*
X84728320Y-117999727D01*
X84885363Y-118234759D01*
X85085241Y-118434637D01*
X85320273Y-118591680D01*
X85581426Y-118699853D01*
X85858665Y-118755000D01*
X86141335Y-118755000D01*
X86418574Y-118699853D01*
X86679727Y-118591680D01*
X86914759Y-118434637D01*
X87114637Y-118234759D01*
X87231407Y-118060000D01*
X87781957Y-118060000D01*
X87885363Y-118214759D01*
X87907475Y-118236871D01*
X87685241Y-118385363D01*
X87485363Y-118585241D01*
X87328320Y-118820273D01*
X87220147Y-119081426D01*
X87165000Y-119358665D01*
X87165000Y-119641335D01*
X87220147Y-119918574D01*
X87328320Y-120179727D01*
X87485363Y-120414759D01*
X87685241Y-120614637D01*
X87920273Y-120771680D01*
X88181426Y-120879853D01*
X88458665Y-120935000D01*
X88741335Y-120935000D01*
X89018574Y-120879853D01*
X89279727Y-120771680D01*
X89514759Y-120614637D01*
X89714637Y-120414759D01*
X89871680Y-120179727D01*
X89979853Y-119918574D01*
X90035000Y-119641335D01*
X90035000Y-119358665D01*
X89979853Y-119081426D01*
X89871680Y-118820273D01*
X89714637Y-118585241D01*
X89692525Y-118563129D01*
X89914759Y-118414637D01*
X90114637Y-118214759D01*
X90271680Y-117979727D01*
X90379853Y-117718574D01*
X90435000Y-117441335D01*
X90435000Y-117158665D01*
X90379853Y-116881426D01*
X90271680Y-116620273D01*
X90114637Y-116385241D01*
X89914759Y-116185363D01*
X89679727Y-116028320D01*
X89418574Y-115920147D01*
X89141335Y-115865000D01*
X88858665Y-115865000D01*
X88581426Y-115920147D01*
X88320273Y-116028320D01*
X88085241Y-116185363D01*
X87885363Y-116385241D01*
X87781957Y-116540000D01*
X87204680Y-116540000D01*
X87114637Y-116405241D01*
X86914759Y-116205363D01*
X86679727Y-116048320D01*
X86418574Y-115940147D01*
X86141335Y-115885000D01*
X85858665Y-115885000D01*
X85581426Y-115940147D01*
X85320273Y-116048320D01*
X85085241Y-116205363D01*
X84885363Y-116405241D01*
X84728320Y-116640273D01*
X84620147Y-116901426D01*
X84585001Y-117078115D01*
X84585001Y-113139802D01*
X84964804Y-112760000D01*
X85962678Y-112760000D01*
X86000000Y-112763676D01*
X86037322Y-112760000D01*
X86037333Y-112760000D01*
X86148986Y-112749003D01*
X86292247Y-112705546D01*
X86424276Y-112634974D01*
X86540001Y-112540001D01*
X86563804Y-112510997D01*
X87985994Y-111088808D01*
X88014991Y-111065011D01*
X88109964Y-110949286D01*
X88164367Y-110847507D01*
X88320273Y-110951680D01*
X88581426Y-111059853D01*
X88858665Y-111115000D01*
X89141335Y-111115000D01*
X89418574Y-111059853D01*
X89679727Y-110951680D01*
X89914759Y-110794637D01*
X90114637Y-110594759D01*
X90271680Y-110359727D01*
X90379853Y-110098574D01*
X90435000Y-109821335D01*
X90435000Y-109538665D01*
X90379853Y-109261426D01*
X90271680Y-109000273D01*
X90114637Y-108765241D01*
X89914759Y-108565363D01*
X89679727Y-108408320D01*
X89503152Y-108335180D01*
X89619607Y-108239608D01*
X89798932Y-108021101D01*
X89932182Y-107771808D01*
X90014236Y-107501309D01*
X90035000Y-107290492D01*
X90035000Y-106349509D01*
X90014236Y-106138691D01*
X89932182Y-105868192D01*
X89798932Y-105618899D01*
X89619608Y-105400392D01*
X89401101Y-105221068D01*
X89151808Y-105087818D01*
X88881309Y-105005764D01*
X88600000Y-104978057D01*
X88318692Y-105005764D01*
X88234990Y-105031154D01*
X88234990Y-103339370D01*
X88285363Y-103414759D01*
X88485241Y-103614637D01*
X88720273Y-103771680D01*
X88981426Y-103879853D01*
X89258665Y-103935000D01*
X89541335Y-103935000D01*
X89818574Y-103879853D01*
X90079727Y-103771680D01*
X90314759Y-103614637D01*
X90514637Y-103414759D01*
X90671680Y-103179727D01*
X90779853Y-102918574D01*
X90835000Y-102641335D01*
X90835000Y-102358665D01*
X90779853Y-102081426D01*
X90671680Y-101820273D01*
X90514637Y-101585241D01*
X90314759Y-101385363D01*
X90079727Y-101228320D01*
X89818574Y-101120147D01*
X89541335Y-101065000D01*
X89258665Y-101065000D01*
X88981426Y-101120147D01*
X88720273Y-101228320D01*
X88485241Y-101385363D01*
X88285363Y-101585241D01*
X88234990Y-101660630D01*
X88234990Y-101038072D01*
X89400000Y-101038072D01*
X89524482Y-101025812D01*
X89644180Y-100989502D01*
X89754494Y-100930537D01*
X89851185Y-100851185D01*
X89930537Y-100754494D01*
X89989502Y-100644180D01*
X90025812Y-100524482D01*
X90038072Y-100400000D01*
X90038072Y-98000000D01*
X90025812Y-97875518D01*
X89989502Y-97755820D01*
X89930537Y-97645506D01*
X89851185Y-97548815D01*
X89754494Y-97469463D01*
X89644180Y-97410498D01*
X89524482Y-97374188D01*
X89400000Y-97361928D01*
X89254326Y-97361928D01*
X89234974Y-97325724D01*
X89140001Y-97209999D01*
X89111004Y-97186202D01*
X88634999Y-96710198D01*
X88634999Y-96094702D01*
X88720273Y-96151680D01*
X88981426Y-96259853D01*
X89258665Y-96315000D01*
X89541335Y-96315000D01*
X89818574Y-96259853D01*
X90079727Y-96151680D01*
X90314759Y-95994637D01*
X90514637Y-95794759D01*
X90671680Y-95559727D01*
X90779853Y-95298574D01*
X90835000Y-95021335D01*
X90835000Y-94738665D01*
X90779853Y-94461426D01*
X90671680Y-94200273D01*
X90514637Y-93965241D01*
X90314759Y-93765363D01*
X90079727Y-93608320D01*
X89818574Y-93500147D01*
X89541335Y-93445000D01*
X89258665Y-93445000D01*
X88981426Y-93500147D01*
X88720273Y-93608320D01*
X88634999Y-93665298D01*
X88634999Y-90438072D01*
X89800000Y-90438072D01*
X89924482Y-90425812D01*
X90044180Y-90389502D01*
X90154494Y-90330537D01*
X90251185Y-90251185D01*
X90330537Y-90154494D01*
X90389502Y-90044180D01*
X90425812Y-89924482D01*
X90438072Y-89800000D01*
X90438072Y-88200000D01*
X90425812Y-88075518D01*
X90389502Y-87955820D01*
X90330537Y-87845506D01*
X90251185Y-87748815D01*
X90154494Y-87669463D01*
X90044180Y-87610498D01*
X89924482Y-87574188D01*
X89800000Y-87561928D01*
X88634999Y-87561928D01*
X88634999Y-85333719D01*
X88638675Y-85296396D01*
X88634999Y-85259073D01*
X88634999Y-85259064D01*
X88624002Y-85147411D01*
X88580545Y-85004150D01*
X88509974Y-84872122D01*
X88509973Y-84872120D01*
X88438798Y-84785394D01*
X88415000Y-84756396D01*
X88386003Y-84732599D01*
X84642406Y-80989003D01*
X84618603Y-80959999D01*
X84502878Y-80865026D01*
X84370849Y-80794454D01*
X84227588Y-80750997D01*
X84115935Y-80740000D01*
X84115924Y-80740000D01*
X84078602Y-80736324D01*
X84041280Y-80740000D01*
X81218043Y-80740000D01*
X81114637Y-80585241D01*
X80914759Y-80385363D01*
X80679727Y-80228320D01*
X80642077Y-80212725D01*
X81439802Y-79415000D01*
X82160198Y-79415000D01*
X82756201Y-80011003D01*
X82779999Y-80040001D01*
X82808997Y-80063799D01*
X82895724Y-80134974D01*
X83027753Y-80205546D01*
X83171014Y-80249003D01*
X83320000Y-80263677D01*
X83357333Y-80260000D01*
X88093267Y-80260000D01*
X88085241Y-80265363D01*
X87885363Y-80465241D01*
X87728320Y-80700273D01*
X87620147Y-80961426D01*
X87565000Y-81238665D01*
X87565000Y-81521335D01*
X87620147Y-81798574D01*
X87728320Y-82059727D01*
X87885363Y-82294759D01*
X88085241Y-82494637D01*
X88320273Y-82651680D01*
X88581426Y-82759853D01*
X88858665Y-82815000D01*
X89141335Y-82815000D01*
X89418574Y-82759853D01*
X89679727Y-82651680D01*
X89914759Y-82494637D01*
X90114637Y-82294759D01*
X90271680Y-82059727D01*
X90379853Y-81798574D01*
X90435000Y-81521335D01*
X90435000Y-81238665D01*
X90398688Y-81056114D01*
X91285044Y-80169758D01*
X91335348Y-131732340D01*
X91309345Y-131700655D01*
X91080178Y-131512583D01*
X90818724Y-131372834D01*
X90535031Y-131286776D01*
X90240000Y-131257718D01*
X89944968Y-131286776D01*
X89661275Y-131372834D01*
X89399821Y-131512583D01*
X89170655Y-131700655D01*
X89116935Y-131766114D01*
X89058405Y-131656613D01*
X88947962Y-131522038D01*
X88813387Y-131411595D01*
X88659851Y-131329528D01*
X88493255Y-131278992D01*
X88320001Y-131261928D01*
X87079999Y-131261928D01*
X86906745Y-131278992D01*
X86740149Y-131329528D01*
X86586613Y-131411595D01*
X86452038Y-131522038D01*
X86341595Y-131656613D01*
X86259528Y-131810149D01*
X86208992Y-131976745D01*
X86191928Y-132149999D01*
X86191928Y-132371800D01*
X86137166Y-132191275D01*
X85997417Y-131929821D01*
X85809345Y-131700655D01*
X85580178Y-131512583D01*
X85318724Y-131372834D01*
X85035031Y-131286776D01*
X84740000Y-131257718D01*
X84444968Y-131286776D01*
X84161275Y-131372834D01*
X83899821Y-131512583D01*
X83670655Y-131700655D01*
X83616935Y-131766114D01*
X83558405Y-131656613D01*
X83447962Y-131522038D01*
X83313387Y-131411595D01*
X83159851Y-131329528D01*
X82993255Y-131278992D01*
X82820001Y-131261928D01*
X81579999Y-131261928D01*
X81406745Y-131278992D01*
X81240149Y-131329528D01*
X81086613Y-131411595D01*
X80952038Y-131522038D01*
X80841595Y-131656613D01*
X80759528Y-131810149D01*
X80708992Y-131976745D01*
X80691928Y-132149999D01*
X80691928Y-133665010D01*
X80479813Y-133665010D01*
X80233679Y-133418877D01*
X80245000Y-133303935D01*
X80245000Y-132696064D01*
X80223224Y-132474968D01*
X80137166Y-132191275D01*
X79997417Y-131929821D01*
X79809345Y-131700655D01*
X79580178Y-131512583D01*
X79318724Y-131372834D01*
X79035031Y-131286776D01*
X78740000Y-131257718D01*
X78444968Y-131286776D01*
X78161275Y-131372834D01*
X77899821Y-131512583D01*
X77670655Y-131700655D01*
X77616935Y-131766114D01*
X77558405Y-131656613D01*
X77447962Y-131522038D01*
X77313387Y-131411595D01*
X77159851Y-131329528D01*
X76993255Y-131278992D01*
X76820001Y-131261928D01*
X75579999Y-131261928D01*
X75406745Y-131278992D01*
X75240149Y-131329528D01*
X75086613Y-131411595D01*
X74952038Y-131522038D01*
X74841595Y-131656613D01*
X74759528Y-131810149D01*
X74708992Y-131976745D01*
X74691928Y-132149999D01*
X74691928Y-133665010D01*
X74079813Y-133665010D01*
X73833679Y-133418877D01*
X73845000Y-133303935D01*
X73845000Y-132696064D01*
X73823224Y-132474968D01*
X73737166Y-132191275D01*
X73597417Y-131929821D01*
X73409345Y-131700655D01*
X73180178Y-131512583D01*
X72918724Y-131372834D01*
X72635031Y-131286776D01*
X72340000Y-131257718D01*
X72044968Y-131286776D01*
X71761275Y-131372834D01*
X71499821Y-131512583D01*
X71270655Y-131700655D01*
X71216935Y-131766114D01*
X71158405Y-131656613D01*
X71047962Y-131522038D01*
X70913387Y-131411595D01*
X70759851Y-131329528D01*
X70593255Y-131278992D01*
X70420001Y-131261928D01*
X69179999Y-131261928D01*
X69006745Y-131278992D01*
X68840149Y-131329528D01*
X68686613Y-131411595D01*
X68619975Y-131466284D01*
X68611213Y-127058665D01*
X69065000Y-127058665D01*
X69065000Y-127341335D01*
X69120147Y-127618574D01*
X69228320Y-127879727D01*
X69385363Y-128114759D01*
X69585241Y-128314637D01*
X69820273Y-128471680D01*
X70081426Y-128579853D01*
X70358665Y-128635000D01*
X70641335Y-128635000D01*
X70918574Y-128579853D01*
X71179727Y-128471680D01*
X71414759Y-128314637D01*
X71614637Y-128114759D01*
X71771680Y-127879727D01*
X71879853Y-127618574D01*
X71935000Y-127341335D01*
X71935000Y-127058665D01*
X72165000Y-127058665D01*
X72165000Y-127341335D01*
X72220147Y-127618574D01*
X72328320Y-127879727D01*
X72485363Y-128114759D01*
X72685241Y-128314637D01*
X72920273Y-128471680D01*
X73181426Y-128579853D01*
X73458665Y-128635000D01*
X73741335Y-128635000D01*
X74018574Y-128579853D01*
X74279727Y-128471680D01*
X74514759Y-128314637D01*
X74714637Y-128114759D01*
X74871680Y-127879727D01*
X74979853Y-127618574D01*
X75035000Y-127341335D01*
X75035000Y-127058665D01*
X74979853Y-126781426D01*
X74871680Y-126520273D01*
X74714637Y-126285241D01*
X74514759Y-126085363D01*
X74279727Y-125928320D01*
X74018574Y-125820147D01*
X73741335Y-125765000D01*
X73458665Y-125765000D01*
X73181426Y-125820147D01*
X72920273Y-125928320D01*
X72685241Y-126085363D01*
X72485363Y-126285241D01*
X72328320Y-126520273D01*
X72220147Y-126781426D01*
X72165000Y-127058665D01*
X71935000Y-127058665D01*
X71879853Y-126781426D01*
X71771680Y-126520273D01*
X71614637Y-126285241D01*
X71414759Y-126085363D01*
X71179727Y-125928320D01*
X70918574Y-125820147D01*
X70641335Y-125765000D01*
X70358665Y-125765000D01*
X70081426Y-125820147D01*
X69820273Y-125928320D01*
X69585241Y-126085363D01*
X69385363Y-126285241D01*
X69228320Y-126520273D01*
X69120147Y-126781426D01*
X69065000Y-127058665D01*
X68611213Y-127058665D01*
X68560000Y-101298782D01*
X68560000Y-84777902D01*
X72845000Y-84777902D01*
X72845000Y-85222098D01*
X72931658Y-85657759D01*
X73101645Y-86068143D01*
X73348427Y-86437479D01*
X73662521Y-86751573D01*
X74031857Y-86998355D01*
X74442241Y-87168342D01*
X74877902Y-87255000D01*
X75322098Y-87255000D01*
X75757759Y-87168342D01*
X76168143Y-86998355D01*
X76537479Y-86751573D01*
X76851573Y-86437479D01*
X77098355Y-86068143D01*
X77268342Y-85657759D01*
X77355000Y-85222098D01*
X77355000Y-84777902D01*
X77268342Y-84342241D01*
X77098355Y-83931857D01*
X76851573Y-83562521D01*
X76537479Y-83248427D01*
X76168143Y-83001645D01*
X75757759Y-82831658D01*
X75322098Y-82745000D01*
X74877902Y-82745000D01*
X74442241Y-82831658D01*
X74031857Y-83001645D01*
X73662521Y-83248427D01*
X73348427Y-83562521D01*
X73101645Y-83931857D01*
X72931658Y-84342241D01*
X72845000Y-84777902D01*
X68560000Y-84777902D01*
X68560000Y-81438665D01*
X69565000Y-81438665D01*
X69565000Y-81721335D01*
X69620147Y-81998574D01*
X69728320Y-82259727D01*
X69885363Y-82494759D01*
X70085241Y-82694637D01*
X70320273Y-82851680D01*
X70581426Y-82959853D01*
X70858665Y-83015000D01*
X71141335Y-83015000D01*
X71418574Y-82959853D01*
X71679727Y-82851680D01*
X71914759Y-82694637D01*
X72114637Y-82494759D01*
X72271680Y-82259727D01*
X72379853Y-81998574D01*
X72435000Y-81721335D01*
X72435000Y-81438665D01*
X72379853Y-81161426D01*
X72271680Y-80900273D01*
X72114637Y-80665241D01*
X71914759Y-80465363D01*
X71679727Y-80308320D01*
X71418574Y-80200147D01*
X71141335Y-80145000D01*
X70858665Y-80145000D01*
X70581426Y-80200147D01*
X70320273Y-80308320D01*
X70085241Y-80465363D01*
X69885363Y-80665241D01*
X69728320Y-80900273D01*
X69620147Y-81161426D01*
X69565000Y-81438665D01*
X68560000Y-81438665D01*
X68560000Y-77458665D01*
X69865000Y-77458665D01*
X69865000Y-77741335D01*
X69920147Y-78018574D01*
X70028320Y-78279727D01*
X70185363Y-78514759D01*
X70385241Y-78714637D01*
X70620273Y-78871680D01*
X70881426Y-78979853D01*
X71158665Y-79035000D01*
X71441335Y-79035000D01*
X71718574Y-78979853D01*
X71979727Y-78871680D01*
X72214759Y-78714637D01*
X72414637Y-78514759D01*
X72571680Y-78279727D01*
X72679853Y-78018574D01*
X72735000Y-77741335D01*
X72735000Y-77458665D01*
X73165000Y-77458665D01*
X73165000Y-77741335D01*
X73220147Y-78018574D01*
X73328320Y-78279727D01*
X73485363Y-78514759D01*
X73685241Y-78714637D01*
X73920273Y-78871680D01*
X74181426Y-78979853D01*
X74458665Y-79035000D01*
X74741335Y-79035000D01*
X75018574Y-78979853D01*
X75279727Y-78871680D01*
X75514759Y-78714637D01*
X75714637Y-78514759D01*
X75871680Y-78279727D01*
X75979853Y-78018574D01*
X76035000Y-77741335D01*
X76035000Y-77458665D01*
X75979853Y-77181426D01*
X75871680Y-76920273D01*
X75714637Y-76685241D01*
X75514759Y-76485363D01*
X75279727Y-76328320D01*
X75018574Y-76220147D01*
X74741335Y-76165000D01*
X74458665Y-76165000D01*
X74181426Y-76220147D01*
X73920273Y-76328320D01*
X73685241Y-76485363D01*
X73485363Y-76685241D01*
X73328320Y-76920273D01*
X73220147Y-77181426D01*
X73165000Y-77458665D01*
X72735000Y-77458665D01*
X72679853Y-77181426D01*
X72571680Y-76920273D01*
X72414637Y-76685241D01*
X72214759Y-76485363D01*
X71979727Y-76328320D01*
X71718574Y-76220147D01*
X71441335Y-76165000D01*
X71158665Y-76165000D01*
X70881426Y-76220147D01*
X70620273Y-76328320D01*
X70385241Y-76485363D01*
X70185363Y-76685241D01*
X70028320Y-76920273D01*
X69920147Y-77181426D01*
X69865000Y-77458665D01*
X68560000Y-77458665D01*
X68560000Y-59277902D01*
X72445000Y-59277902D01*
X72445000Y-59722098D01*
X72531658Y-60157759D01*
X72701645Y-60568143D01*
X72948427Y-60937479D01*
X73262521Y-61251573D01*
X73631857Y-61498355D01*
X74042241Y-61668342D01*
X74477902Y-61755000D01*
X74922098Y-61755000D01*
X75357759Y-61668342D01*
X75768143Y-61498355D01*
X76137479Y-61251573D01*
X76451573Y-60937479D01*
X76698355Y-60568143D01*
X76868342Y-60157759D01*
X76955000Y-59722098D01*
X76955000Y-59277902D01*
X76868342Y-58842241D01*
X76698355Y-58431857D01*
X76451573Y-58062521D01*
X76137479Y-57748427D01*
X75768143Y-57501645D01*
X75357759Y-57331658D01*
X74922098Y-57245000D01*
X74477902Y-57245000D01*
X74042241Y-57331658D01*
X73631857Y-57501645D01*
X73262521Y-57748427D01*
X72948427Y-58062521D01*
X72701645Y-58431857D01*
X72531658Y-58842241D01*
X72445000Y-59277902D01*
X68560000Y-59277902D01*
X68560000Y-56119478D01*
X68763962Y-56424729D01*
X69075271Y-56736038D01*
X69441331Y-56980631D01*
X69848075Y-57149110D01*
X70279872Y-57235000D01*
X70720128Y-57235000D01*
X71151925Y-57149110D01*
X71558669Y-56980631D01*
X71924729Y-56736038D01*
X72236038Y-56424729D01*
X72480631Y-56058669D01*
X72649110Y-55651925D01*
X72735000Y-55220128D01*
X72735000Y-54779872D01*
X72649110Y-54348075D01*
X72480631Y-53941331D01*
X72236038Y-53575271D01*
X71924729Y-53263962D01*
X71558669Y-53019369D01*
X71460401Y-52978665D01*
X74965000Y-52978665D01*
X74965000Y-53261335D01*
X75020147Y-53538574D01*
X75128320Y-53799727D01*
X75285363Y-54034759D01*
X75485241Y-54234637D01*
X75720273Y-54391680D01*
X75981426Y-54499853D01*
X76258665Y-54555000D01*
X76541335Y-54555000D01*
X76818574Y-54499853D01*
X77079727Y-54391680D01*
X77314759Y-54234637D01*
X77514637Y-54034759D01*
X77671680Y-53799727D01*
X77779853Y-53538574D01*
X77835000Y-53261335D01*
X77835000Y-52978665D01*
X77779853Y-52701426D01*
X77671680Y-52440273D01*
X77514637Y-52205241D01*
X77314759Y-52005363D01*
X77079727Y-51848320D01*
X76818574Y-51740147D01*
X76541335Y-51685000D01*
X76258665Y-51685000D01*
X75981426Y-51740147D01*
X75720273Y-51848320D01*
X75485241Y-52005363D01*
X75285363Y-52205241D01*
X75128320Y-52440273D01*
X75020147Y-52701426D01*
X74965000Y-52978665D01*
X71460401Y-52978665D01*
X71151925Y-52850890D01*
X70720128Y-52765000D01*
X70279872Y-52765000D01*
X69848075Y-52850890D01*
X69441331Y-53019369D01*
X69075271Y-53263962D01*
X68763962Y-53575271D01*
X68560000Y-53880522D01*
X68560000Y-47700000D01*
X69461928Y-47700000D01*
X69461928Y-49300000D01*
X69474188Y-49424482D01*
X69510498Y-49544180D01*
X69569463Y-49654494D01*
X69648815Y-49751185D01*
X69745506Y-49830537D01*
X69855820Y-49889502D01*
X69975518Y-49925812D01*
X70100000Y-49938072D01*
X71700000Y-49938072D01*
X71824482Y-49925812D01*
X71944180Y-49889502D01*
X72054494Y-49830537D01*
X72151185Y-49751185D01*
X72164790Y-49734607D01*
X72220273Y-49771680D01*
X72481426Y-49879853D01*
X72758665Y-49935000D01*
X73041335Y-49935000D01*
X73318574Y-49879853D01*
X73579727Y-49771680D01*
X73814759Y-49614637D01*
X74014637Y-49414759D01*
X74171680Y-49179727D01*
X74279853Y-48918574D01*
X74335000Y-48641335D01*
X74335000Y-48358665D01*
X74279853Y-48081426D01*
X74171680Y-47820273D01*
X74014637Y-47585241D01*
X73814759Y-47385363D01*
X73579727Y-47228320D01*
X73318574Y-47120147D01*
X73041335Y-47065000D01*
X72758665Y-47065000D01*
X72481426Y-47120147D01*
X72220273Y-47228320D01*
X72164790Y-47265393D01*
X72151185Y-47248815D01*
X72054494Y-47169463D01*
X71944180Y-47110498D01*
X71824482Y-47074188D01*
X71700000Y-47061928D01*
X70100000Y-47061928D01*
X69975518Y-47074188D01*
X69855820Y-47110498D01*
X69745506Y-47169463D01*
X69648815Y-47248815D01*
X69569463Y-47345506D01*
X69510498Y-47455820D01*
X69474188Y-47575518D01*
X69461928Y-47700000D01*
X68560000Y-47700000D01*
X68560000Y-34660000D01*
X91240644Y-34660000D01*
X91274291Y-69148485D01*
%TA.AperFunction,NonConductor*%
D26*
G36*
X91274291Y-69148485D02*
G01*
X90794808Y-68669003D01*
X90771006Y-68640000D01*
X90655281Y-68545027D01*
X90523252Y-68474455D01*
X90379991Y-68430998D01*
X90268338Y-68420001D01*
X90268327Y-68420001D01*
X90231005Y-68416325D01*
X90193683Y-68420001D01*
X83267332Y-68420001D01*
X83351185Y-68351185D01*
X83430537Y-68254494D01*
X83489502Y-68144180D01*
X83525812Y-68024482D01*
X83538072Y-67900000D01*
X83538072Y-66100000D01*
X83525812Y-65975518D01*
X83489502Y-65855820D01*
X83430537Y-65745506D01*
X83351185Y-65648815D01*
X83254494Y-65569463D01*
X83144180Y-65510498D01*
X83024482Y-65474188D01*
X82900000Y-65461928D01*
X81100000Y-65461928D01*
X80975518Y-65474188D01*
X80855820Y-65510498D01*
X80745506Y-65569463D01*
X80648815Y-65648815D01*
X80569463Y-65745506D01*
X80516120Y-65845303D01*
X80478505Y-65807688D01*
X80227095Y-65639701D01*
X79947743Y-65523989D01*
X79651184Y-65465000D01*
X79609802Y-65465000D01*
X81011009Y-64063794D01*
X81040001Y-64040001D01*
X81063795Y-64011008D01*
X81063799Y-64011004D01*
X81134973Y-63924277D01*
X81134974Y-63924276D01*
X81205546Y-63792247D01*
X81249003Y-63648986D01*
X81260000Y-63537333D01*
X81260000Y-63537324D01*
X81263676Y-63500001D01*
X81260000Y-63462678D01*
X81260000Y-59277902D01*
X82045000Y-59277902D01*
X82045000Y-59722098D01*
X82131658Y-60157759D01*
X82301645Y-60568143D01*
X82548427Y-60937479D01*
X82862521Y-61251573D01*
X83231857Y-61498355D01*
X83642241Y-61668342D01*
X84077902Y-61755000D01*
X84522098Y-61755000D01*
X84957759Y-61668342D01*
X85368143Y-61498355D01*
X85737479Y-61251573D01*
X86051573Y-60937479D01*
X86298355Y-60568143D01*
X86468342Y-60157759D01*
X86555000Y-59722098D01*
X86555000Y-59277902D01*
X86468342Y-58842241D01*
X86298355Y-58431857D01*
X86051573Y-58062521D01*
X85737479Y-57748427D01*
X85368143Y-57501645D01*
X84957759Y-57331658D01*
X84522098Y-57245000D01*
X84077902Y-57245000D01*
X83642241Y-57331658D01*
X83231857Y-57501645D01*
X82862521Y-57748427D01*
X82548427Y-58062521D01*
X82301645Y-58431857D01*
X82131658Y-58842241D01*
X82045000Y-59277902D01*
X81260000Y-59277902D01*
X81260000Y-52200000D01*
X81961928Y-52200000D01*
X81961928Y-53800000D01*
X81974188Y-53924482D01*
X82010498Y-54044180D01*
X82069463Y-54154494D01*
X82148815Y-54251185D01*
X82245506Y-54330537D01*
X82355820Y-54389502D01*
X82475518Y-54425812D01*
X82600000Y-54438072D01*
X84200000Y-54438072D01*
X84324482Y-54425812D01*
X84444180Y-54389502D01*
X84554494Y-54330537D01*
X84651185Y-54251185D01*
X84730537Y-54154494D01*
X84789502Y-54044180D01*
X84825812Y-53924482D01*
X84838072Y-53800000D01*
X84838072Y-52200000D01*
X84825812Y-52075518D01*
X84789502Y-51955820D01*
X84730537Y-51845506D01*
X84651185Y-51748815D01*
X84554494Y-51669463D01*
X84444180Y-51610498D01*
X84324482Y-51574188D01*
X84200000Y-51561928D01*
X82600000Y-51561928D01*
X82475518Y-51574188D01*
X82355820Y-51610498D01*
X82245506Y-51669463D01*
X82148815Y-51748815D01*
X82069463Y-51845506D01*
X82010498Y-51955820D01*
X81974188Y-52075518D01*
X81961928Y-52200000D01*
X81260000Y-52200000D01*
X81260000Y-48594801D01*
X82154801Y-47700000D01*
X85461928Y-47700000D01*
X85461928Y-49300000D01*
X85474188Y-49424482D01*
X85510498Y-49544180D01*
X85569463Y-49654494D01*
X85648815Y-49751185D01*
X85745506Y-49830537D01*
X85855820Y-49889502D01*
X85975518Y-49925812D01*
X86100000Y-49938072D01*
X87700000Y-49938072D01*
X87824482Y-49925812D01*
X87944180Y-49889502D01*
X88054494Y-49830537D01*
X88151185Y-49751185D01*
X88164790Y-49734607D01*
X88220273Y-49771680D01*
X88481426Y-49879853D01*
X88758665Y-49935000D01*
X89041335Y-49935000D01*
X89318574Y-49879853D01*
X89579727Y-49771680D01*
X89814759Y-49614637D01*
X90014637Y-49414759D01*
X90171680Y-49179727D01*
X90279853Y-48918574D01*
X90335000Y-48641335D01*
X90335000Y-48358665D01*
X90279853Y-48081426D01*
X90171680Y-47820273D01*
X90014637Y-47585241D01*
X89814759Y-47385363D01*
X89579727Y-47228320D01*
X89318574Y-47120147D01*
X89041335Y-47065000D01*
X88758665Y-47065000D01*
X88481426Y-47120147D01*
X88220273Y-47228320D01*
X88164790Y-47265393D01*
X88151185Y-47248815D01*
X88054494Y-47169463D01*
X87944180Y-47110498D01*
X87824482Y-47074188D01*
X87700000Y-47061928D01*
X86100000Y-47061928D01*
X85975518Y-47074188D01*
X85855820Y-47110498D01*
X85745506Y-47169463D01*
X85648815Y-47248815D01*
X85569463Y-47345506D01*
X85510498Y-47455820D01*
X85474188Y-47575518D01*
X85461928Y-47700000D01*
X82154801Y-47700000D01*
X83076114Y-46778688D01*
X83258665Y-46815000D01*
X83541335Y-46815000D01*
X83818574Y-46759853D01*
X84079727Y-46651680D01*
X84314759Y-46494637D01*
X84514637Y-46294759D01*
X84671680Y-46059727D01*
X84779853Y-45798574D01*
X84835000Y-45521335D01*
X84835000Y-45238665D01*
X84798688Y-45056114D01*
X85671003Y-44183799D01*
X85700001Y-44160001D01*
X85794974Y-44044276D01*
X85865546Y-43912247D01*
X85909003Y-43768986D01*
X85920000Y-43657333D01*
X85920000Y-43657323D01*
X85923676Y-43620000D01*
X85920000Y-43582677D01*
X85920000Y-41794535D01*
X86115302Y-41664039D01*
X86324039Y-41455302D01*
X86488042Y-41209853D01*
X86601010Y-40937125D01*
X86658600Y-40647599D01*
X86658600Y-40352401D01*
X86601010Y-40062875D01*
X86488042Y-39790147D01*
X86324039Y-39544698D01*
X86115302Y-39335961D01*
X85956719Y-39230000D01*
X86115302Y-39124039D01*
X86324039Y-38915302D01*
X86488042Y-38669853D01*
X86601010Y-38397125D01*
X86658600Y-38107599D01*
X86658600Y-37812401D01*
X86601010Y-37522875D01*
X86488042Y-37250147D01*
X86324039Y-37004698D01*
X86115302Y-36795961D01*
X85869853Y-36631958D01*
X85597125Y-36518990D01*
X85307599Y-36461400D01*
X85012401Y-36461400D01*
X84722875Y-36518990D01*
X84450147Y-36631958D01*
X84204698Y-36795961D01*
X83995961Y-37004698D01*
X83890000Y-37163281D01*
X83784039Y-37004698D01*
X83575302Y-36795961D01*
X83329853Y-36631958D01*
X83057125Y-36518990D01*
X82767599Y-36461400D01*
X82472401Y-36461400D01*
X82182875Y-36518990D01*
X81910147Y-36631958D01*
X81664698Y-36795961D01*
X81455961Y-37004698D01*
X81350000Y-37163281D01*
X81244039Y-37004698D01*
X81035302Y-36795961D01*
X80789853Y-36631958D01*
X80517125Y-36518990D01*
X80227599Y-36461400D01*
X79932401Y-36461400D01*
X79642875Y-36518990D01*
X79370147Y-36631958D01*
X79124698Y-36795961D01*
X78915961Y-37004698D01*
X78810000Y-37163281D01*
X78704039Y-37004698D01*
X78495302Y-36795961D01*
X78249853Y-36631958D01*
X77977125Y-36518990D01*
X77687599Y-36461400D01*
X77392401Y-36461400D01*
X77102875Y-36518990D01*
X76830147Y-36631958D01*
X76584698Y-36795961D01*
X76375961Y-37004698D01*
X76270000Y-37163281D01*
X76164039Y-37004698D01*
X75955302Y-36795961D01*
X75709853Y-36631958D01*
X75437125Y-36518990D01*
X75147599Y-36461400D01*
X74852401Y-36461400D01*
X74562875Y-36518990D01*
X74290147Y-36631958D01*
X74044698Y-36795961D01*
X73835961Y-37004698D01*
X73671958Y-37250147D01*
X73558990Y-37522875D01*
X73501400Y-37812401D01*
X73501400Y-38107599D01*
X73558990Y-38397125D01*
X73671958Y-38669853D01*
X73835961Y-38915302D01*
X73950023Y-39029364D01*
X73892220Y-39046898D01*
X73781906Y-39105863D01*
X73685215Y-39185215D01*
X73605863Y-39281906D01*
X73546898Y-39392220D01*
X73510588Y-39511918D01*
X73498328Y-39636400D01*
X73498328Y-41363600D01*
X73510588Y-41488082D01*
X73546898Y-41607780D01*
X73605863Y-41718094D01*
X73685215Y-41814785D01*
X73781906Y-41894137D01*
X73892220Y-41953102D01*
X74011918Y-41989412D01*
X74136400Y-42001672D01*
X74240000Y-42001672D01*
X74240000Y-42962677D01*
X74236324Y-43000000D01*
X74240000Y-43037322D01*
X74240000Y-43037332D01*
X74250997Y-43148985D01*
X74294454Y-43292246D01*
X74365026Y-43424276D01*
X74403383Y-43471014D01*
X74459999Y-43540001D01*
X74489003Y-43563804D01*
X75162655Y-44237457D01*
X75148815Y-44248815D01*
X75069463Y-44345506D01*
X75010498Y-44455820D01*
X74974188Y-44575518D01*
X74961928Y-44700000D01*
X74961928Y-46300000D01*
X74974188Y-46424482D01*
X75010498Y-46544180D01*
X75069463Y-46654494D01*
X75148815Y-46751185D01*
X75245506Y-46830537D01*
X75355820Y-46889502D01*
X75475518Y-46925812D01*
X75600000Y-46938072D01*
X77200000Y-46938072D01*
X77324482Y-46925812D01*
X77444180Y-46889502D01*
X77554494Y-46830537D01*
X77651185Y-46751185D01*
X77730537Y-46654494D01*
X77789502Y-46544180D01*
X77825812Y-46424482D01*
X77838072Y-46300000D01*
X77838072Y-44700000D01*
X77825812Y-44575518D01*
X77789502Y-44455820D01*
X77730537Y-44345506D01*
X77651185Y-44248815D01*
X77554494Y-44169463D01*
X77444180Y-44110498D01*
X77324482Y-44074188D01*
X77200000Y-44061928D01*
X77081052Y-44061928D01*
X77034974Y-43975723D01*
X76963799Y-43888997D01*
X76940001Y-43859999D01*
X76911003Y-43836201D01*
X75760000Y-42685199D01*
X75760000Y-42001672D01*
X75863600Y-42001672D01*
X75988082Y-41989412D01*
X76107780Y-41953102D01*
X76218094Y-41894137D01*
X76314785Y-41814785D01*
X76394137Y-41718094D01*
X76453102Y-41607780D01*
X76470636Y-41549977D01*
X76584698Y-41664039D01*
X76830147Y-41828042D01*
X77102875Y-41941010D01*
X77392401Y-41998600D01*
X77687599Y-41998600D01*
X77977125Y-41941010D01*
X78249853Y-41828042D01*
X78495302Y-41664039D01*
X78704039Y-41455302D01*
X78810000Y-41296719D01*
X78915961Y-41455302D01*
X79124698Y-41664039D01*
X79370147Y-41828042D01*
X79642875Y-41941010D01*
X79932401Y-41998600D01*
X80227599Y-41998600D01*
X80517125Y-41941010D01*
X80789853Y-41828042D01*
X81035302Y-41664039D01*
X81244039Y-41455302D01*
X81350000Y-41296719D01*
X81455961Y-41455302D01*
X81664698Y-41664039D01*
X81910147Y-41828042D01*
X82182875Y-41941010D01*
X82472401Y-41998600D01*
X82767599Y-41998600D01*
X83057125Y-41941010D01*
X83329853Y-41828042D01*
X83575302Y-41664039D01*
X83784039Y-41455302D01*
X83890000Y-41296719D01*
X83995961Y-41455302D01*
X84204698Y-41664039D01*
X84400000Y-41794535D01*
X84400001Y-43305197D01*
X83723886Y-43981312D01*
X83541335Y-43945000D01*
X83258665Y-43945000D01*
X82981426Y-44000147D01*
X82720273Y-44108320D01*
X82485241Y-44265363D01*
X82285363Y-44465241D01*
X82128320Y-44700273D01*
X82020147Y-44961426D01*
X81965000Y-45238665D01*
X81965000Y-45521335D01*
X82001312Y-45703886D01*
X79988998Y-47716201D01*
X79960000Y-47739999D01*
X79936202Y-47768997D01*
X79936201Y-47768998D01*
X79865026Y-47855724D01*
X79794454Y-47987754D01*
X79750998Y-48131015D01*
X79736324Y-48280000D01*
X79740001Y-48317333D01*
X79740000Y-63185197D01*
X77408930Y-65516269D01*
X77151184Y-65465000D01*
X76848816Y-65465000D01*
X76552257Y-65523989D01*
X76272905Y-65639701D01*
X76021495Y-65807688D01*
X75807688Y-66021495D01*
X75639701Y-66272905D01*
X75523989Y-66552257D01*
X75465000Y-66848816D01*
X75465000Y-67151184D01*
X75523989Y-67447743D01*
X75639701Y-67727095D01*
X75807688Y-67978505D01*
X76021495Y-68192312D01*
X76272905Y-68360299D01*
X76552257Y-68476011D01*
X76848816Y-68535000D01*
X77151184Y-68535000D01*
X77447743Y-68476011D01*
X77727095Y-68360299D01*
X77978505Y-68192312D01*
X78192312Y-67978505D01*
X78250000Y-67892169D01*
X78307688Y-67978505D01*
X78521495Y-68192312D01*
X78772905Y-68360299D01*
X78917038Y-68420001D01*
X78637321Y-68420001D01*
X78599998Y-68416325D01*
X78562675Y-68420001D01*
X78562666Y-68420001D01*
X78451013Y-68430998D01*
X78307752Y-68474455D01*
X78175723Y-68545027D01*
X78175721Y-68545028D01*
X78175722Y-68545028D01*
X78130022Y-68582533D01*
X77941335Y-68545000D01*
X77658665Y-68545000D01*
X77381426Y-68600147D01*
X77120273Y-68708320D01*
X76885241Y-68865363D01*
X76685363Y-69065241D01*
X76528320Y-69300273D01*
X76420147Y-69561426D01*
X76365000Y-69838665D01*
X76365000Y-70121335D01*
X76420147Y-70398574D01*
X76528320Y-70659727D01*
X76685363Y-70894759D01*
X76885241Y-71094637D01*
X77120273Y-71251680D01*
X77381426Y-71359853D01*
X77658665Y-71415000D01*
X77941335Y-71415000D01*
X78218574Y-71359853D01*
X78479727Y-71251680D01*
X78714759Y-71094637D01*
X78914637Y-70894759D01*
X79071680Y-70659727D01*
X79179853Y-70398574D01*
X79235000Y-70121335D01*
X79235000Y-69940001D01*
X79961928Y-69940001D01*
X79961928Y-71160000D01*
X79974188Y-71284482D01*
X80010498Y-71404180D01*
X80069463Y-71514494D01*
X80148815Y-71611185D01*
X80245506Y-71690537D01*
X80355820Y-71749502D01*
X80475518Y-71785812D01*
X80493482Y-71787581D01*
X80380392Y-71880392D01*
X80201068Y-72098899D01*
X80179099Y-72140000D01*
X77834802Y-72140000D01*
X75998688Y-70303886D01*
X76035000Y-70121335D01*
X76035000Y-69838665D01*
X75979853Y-69561426D01*
X75871680Y-69300273D01*
X75714637Y-69065241D01*
X75514759Y-68865363D01*
X75279727Y-68708320D01*
X75018574Y-68600147D01*
X74741335Y-68545000D01*
X74458665Y-68545000D01*
X74181426Y-68600147D01*
X73920273Y-68708320D01*
X73685241Y-68865363D01*
X73485363Y-69065241D01*
X73381957Y-69220000D01*
X72518043Y-69220000D01*
X72414637Y-69065241D01*
X72214759Y-68865363D01*
X71979727Y-68708320D01*
X71718574Y-68600147D01*
X71441335Y-68545000D01*
X71158665Y-68545000D01*
X70881426Y-68600147D01*
X70620273Y-68708320D01*
X70385241Y-68865363D01*
X70185363Y-69065241D01*
X70028320Y-69300273D01*
X69920147Y-69561426D01*
X69865000Y-69838665D01*
X69865000Y-70121335D01*
X69920147Y-70398574D01*
X70028320Y-70659727D01*
X70185363Y-70894759D01*
X70385241Y-71094637D01*
X70620273Y-71251680D01*
X70881426Y-71359853D01*
X71158665Y-71415000D01*
X71441335Y-71415000D01*
X71718574Y-71359853D01*
X71979727Y-71251680D01*
X72214759Y-71094637D01*
X72414637Y-70894759D01*
X72518043Y-70740000D01*
X73381957Y-70740000D01*
X73485363Y-70894759D01*
X73685241Y-71094637D01*
X73920273Y-71251680D01*
X74181426Y-71359853D01*
X74458665Y-71415000D01*
X74741335Y-71415000D01*
X74923886Y-71378688D01*
X76956200Y-73411002D01*
X76979999Y-73440001D01*
X77008997Y-73463799D01*
X77095724Y-73534974D01*
X77227753Y-73605546D01*
X77371014Y-73649003D01*
X77520000Y-73663677D01*
X77557333Y-73660000D01*
X80179099Y-73660000D01*
X80201068Y-73701101D01*
X80323684Y-73850510D01*
X79763988Y-74410207D01*
X79734990Y-74434005D01*
X79711192Y-74463003D01*
X79711191Y-74463004D01*
X79640016Y-74549730D01*
X79569444Y-74681760D01*
X79525988Y-74825021D01*
X79511314Y-74974006D01*
X79514991Y-75011338D01*
X79514990Y-76475210D01*
X79070978Y-76919222D01*
X78914637Y-76685241D01*
X78714759Y-76485363D01*
X78479727Y-76328320D01*
X78218574Y-76220147D01*
X77941335Y-76165000D01*
X77658665Y-76165000D01*
X77381426Y-76220147D01*
X77120273Y-76328320D01*
X76885241Y-76485363D01*
X76685363Y-76685241D01*
X76528320Y-76920273D01*
X76420147Y-77181426D01*
X76365000Y-77458665D01*
X76365000Y-77741335D01*
X76420147Y-78018574D01*
X76528320Y-78279727D01*
X76685363Y-78514759D01*
X76885241Y-78714637D01*
X77120273Y-78871680D01*
X77381426Y-78979853D01*
X77658665Y-79035000D01*
X77664989Y-79035000D01*
X77664988Y-82189078D01*
X77661312Y-82226401D01*
X77664988Y-82263724D01*
X77664988Y-82263733D01*
X77675985Y-82375386D01*
X77712159Y-82494637D01*
X77719442Y-82518647D01*
X77790014Y-82650677D01*
X77829859Y-82699227D01*
X77884987Y-82766402D01*
X77913991Y-82790205D01*
X80365002Y-85241216D01*
X80365001Y-87729491D01*
X80141335Y-87685000D01*
X79858665Y-87685000D01*
X79581426Y-87740147D01*
X79320273Y-87848320D01*
X79085241Y-88005363D01*
X78885363Y-88205241D01*
X78781957Y-88360000D01*
X72434132Y-88360000D01*
X72425812Y-88275518D01*
X72389502Y-88155820D01*
X72330537Y-88045506D01*
X72251185Y-87948815D01*
X72154494Y-87869463D01*
X72044180Y-87810498D01*
X71924482Y-87774188D01*
X71800000Y-87761928D01*
X70200000Y-87761928D01*
X70075518Y-87774188D01*
X69955820Y-87810498D01*
X69845506Y-87869463D01*
X69748815Y-87948815D01*
X69669463Y-88045506D01*
X69610498Y-88155820D01*
X69574188Y-88275518D01*
X69561928Y-88400000D01*
X69561928Y-90000000D01*
X69574188Y-90124482D01*
X69610498Y-90244180D01*
X69669463Y-90354494D01*
X69748815Y-90451185D01*
X69845506Y-90530537D01*
X69955820Y-90589502D01*
X70075518Y-90625812D01*
X70200000Y-90638072D01*
X71800000Y-90638072D01*
X71924482Y-90625812D01*
X72044180Y-90589502D01*
X72154494Y-90530537D01*
X72251185Y-90451185D01*
X72330537Y-90354494D01*
X72389502Y-90244180D01*
X72425812Y-90124482D01*
X72438072Y-90000000D01*
X72438072Y-89880000D01*
X77132196Y-89880000D01*
X75663997Y-91348200D01*
X75634999Y-91371998D01*
X75611201Y-91400996D01*
X75611200Y-91400997D01*
X75540025Y-91487723D01*
X75469453Y-91619753D01*
X75439179Y-91719557D01*
X75425997Y-91763013D01*
X75415000Y-91874666D01*
X75411323Y-91911999D01*
X75415000Y-91949331D01*
X75414999Y-93755201D01*
X74050978Y-95119222D01*
X73894637Y-94885241D01*
X73694759Y-94685363D01*
X73459727Y-94528320D01*
X73198574Y-94420147D01*
X72921335Y-94365000D01*
X72638665Y-94365000D01*
X72361426Y-94420147D01*
X72100273Y-94528320D01*
X71865241Y-94685363D01*
X71665363Y-94885241D01*
X71508320Y-95120273D01*
X71400147Y-95381426D01*
X71345000Y-95658665D01*
X71345000Y-95941335D01*
X71400147Y-96218574D01*
X71508320Y-96479727D01*
X71665363Y-96714759D01*
X71865241Y-96914637D01*
X72099223Y-97070978D01*
X71723988Y-97446213D01*
X71694990Y-97470011D01*
X71671192Y-97499009D01*
X71671191Y-97499010D01*
X71600016Y-97585736D01*
X71598327Y-97588895D01*
X71371808Y-97467818D01*
X71101309Y-97385764D01*
X70820000Y-97358057D01*
X70538692Y-97385764D01*
X70268193Y-97467818D01*
X70018900Y-97601068D01*
X69800393Y-97780392D01*
X69621068Y-97998899D01*
X69487818Y-98248192D01*
X69405764Y-98518691D01*
X69385000Y-98729508D01*
X69385000Y-99670491D01*
X69405764Y-99881308D01*
X69487818Y-100151807D01*
X69621068Y-100401100D01*
X69800392Y-100619607D01*
X70018899Y-100798932D01*
X70268192Y-100932182D01*
X70538691Y-101014236D01*
X70820000Y-101041943D01*
X71101308Y-101014236D01*
X71371807Y-100932182D01*
X71621100Y-100798932D01*
X71770510Y-100676315D01*
X72775698Y-101681503D01*
X72581426Y-101720147D01*
X72320273Y-101828320D01*
X72085241Y-101985363D01*
X71885363Y-102185241D01*
X71728320Y-102420273D01*
X71620147Y-102681426D01*
X71565000Y-102958665D01*
X71565000Y-103241335D01*
X71620147Y-103518574D01*
X71728320Y-103779727D01*
X71885363Y-104014759D01*
X72085241Y-104214637D01*
X72160365Y-104264833D01*
X71723988Y-104701211D01*
X71694990Y-104725009D01*
X71671192Y-104754007D01*
X71671191Y-104754008D01*
X71600016Y-104840734D01*
X71529444Y-104972764D01*
X71519434Y-105005764D01*
X71491065Y-105099289D01*
X71485988Y-105116025D01*
X71482917Y-105147207D01*
X71371808Y-105087818D01*
X71101309Y-105005764D01*
X70820000Y-104978057D01*
X70538692Y-105005764D01*
X70268193Y-105087818D01*
X70018900Y-105221068D01*
X69800393Y-105400392D01*
X69621068Y-105618899D01*
X69487818Y-105868192D01*
X69405764Y-106138691D01*
X69385000Y-106349508D01*
X69385000Y-107290491D01*
X69405764Y-107501308D01*
X69487818Y-107771807D01*
X69621068Y-108021100D01*
X69800392Y-108239607D01*
X69943682Y-108357202D01*
X69820273Y-108408320D01*
X69585241Y-108565363D01*
X69385363Y-108765241D01*
X69228320Y-109000273D01*
X69120147Y-109261426D01*
X69065000Y-109538665D01*
X69065000Y-109821335D01*
X69120147Y-110098574D01*
X69228320Y-110359727D01*
X69385363Y-110594759D01*
X69585241Y-110794637D01*
X69820273Y-110951680D01*
X70081426Y-111059853D01*
X70358665Y-111115000D01*
X70641335Y-111115000D01*
X70918574Y-111059853D01*
X71179727Y-110951680D01*
X71414759Y-110794637D01*
X71614637Y-110594759D01*
X71771680Y-110359727D01*
X71879853Y-110098574D01*
X71935000Y-109821335D01*
X71935000Y-109538665D01*
X71898688Y-109356114D01*
X72739394Y-108515409D01*
X72806401Y-108551225D01*
X72785241Y-108565363D01*
X72585363Y-108765241D01*
X72428320Y-109000273D01*
X72320147Y-109261426D01*
X72265000Y-109538665D01*
X72265000Y-109821335D01*
X72320147Y-110098574D01*
X72428320Y-110359727D01*
X72585363Y-110594759D01*
X72785241Y-110794637D01*
X73020273Y-110951680D01*
X73281426Y-111059853D01*
X73558665Y-111115000D01*
X73841335Y-111115000D01*
X74118574Y-111059853D01*
X74379727Y-110951680D01*
X74614759Y-110794637D01*
X74814637Y-110594759D01*
X74971680Y-110359727D01*
X75079853Y-110098574D01*
X75135000Y-109821335D01*
X75135000Y-109538665D01*
X75098688Y-109356115D01*
X75119804Y-109334999D01*
X75409491Y-109334999D01*
X75365000Y-109558665D01*
X75365000Y-109841335D01*
X75420147Y-110118574D01*
X75528320Y-110379727D01*
X75685363Y-110614759D01*
X75885241Y-110814637D01*
X76120273Y-110971680D01*
X76381426Y-111079853D01*
X76658665Y-111135000D01*
X76941335Y-111135000D01*
X77218574Y-111079853D01*
X77479727Y-110971680D01*
X77714759Y-110814637D01*
X77914637Y-110614759D01*
X78071680Y-110379727D01*
X78179853Y-110118574D01*
X78235000Y-109841335D01*
X78235000Y-109558665D01*
X78190509Y-109334999D01*
X79187679Y-109334999D01*
X79225001Y-109338675D01*
X79262323Y-109334999D01*
X79262334Y-109334999D01*
X79373987Y-109324002D01*
X79517248Y-109280545D01*
X79649277Y-109209973D01*
X79765002Y-109115000D01*
X79788804Y-109085997D01*
X80359393Y-108515408D01*
X80428192Y-108552182D01*
X80698691Y-108634236D01*
X80980000Y-108661943D01*
X81261308Y-108634236D01*
X81531807Y-108552182D01*
X81781100Y-108418932D01*
X81999607Y-108239608D01*
X82178932Y-108021101D01*
X82250000Y-107888142D01*
X82321068Y-108021100D01*
X82360001Y-108068540D01*
X82360000Y-110685198D01*
X77123887Y-115921312D01*
X76941335Y-115885000D01*
X76658665Y-115885000D01*
X76381426Y-115940147D01*
X76120273Y-116048320D01*
X75885241Y-116205363D01*
X75685363Y-116405241D01*
X75533248Y-116632898D01*
X75435724Y-116685026D01*
X75319999Y-116779999D01*
X75296201Y-116808997D01*
X75103731Y-117001467D01*
X75079853Y-116881426D01*
X74971680Y-116620273D01*
X74814637Y-116385241D01*
X74614759Y-116185363D01*
X74379727Y-116028320D01*
X74118574Y-115920147D01*
X73841335Y-115865000D01*
X73558665Y-115865000D01*
X73281426Y-115920147D01*
X73020273Y-116028320D01*
X72785241Y-116185363D01*
X72585363Y-116385241D01*
X72481957Y-116540000D01*
X71718043Y-116540000D01*
X71614637Y-116385241D01*
X71414759Y-116185363D01*
X71179727Y-116028320D01*
X70918574Y-115920147D01*
X70641335Y-115865000D01*
X70358665Y-115865000D01*
X70081426Y-115920147D01*
X69820273Y-116028320D01*
X69585241Y-116185363D01*
X69385363Y-116385241D01*
X69228320Y-116620273D01*
X69120147Y-116881426D01*
X69065000Y-117158665D01*
X69065000Y-117441335D01*
X69120147Y-117718574D01*
X69228320Y-117979727D01*
X69385363Y-118214759D01*
X69585241Y-118414637D01*
X69623199Y-118440000D01*
X69585241Y-118465363D01*
X69385363Y-118665241D01*
X69228320Y-118900273D01*
X69120147Y-119161426D01*
X69065000Y-119438665D01*
X69065000Y-119721335D01*
X69120147Y-119998574D01*
X69228320Y-120259727D01*
X69385363Y-120494759D01*
X69585241Y-120694637D01*
X69820273Y-120851680D01*
X70081426Y-120959853D01*
X70358665Y-121015000D01*
X70641335Y-121015000D01*
X70823886Y-120978688D01*
X71081202Y-121236004D01*
X71105000Y-121265002D01*
X71133998Y-121288800D01*
X71220724Y-121359975D01*
X71352754Y-121430547D01*
X71496015Y-121474004D01*
X71607668Y-121485001D01*
X71607678Y-121485001D01*
X71645001Y-121488677D01*
X71682324Y-121485001D01*
X81517677Y-121485001D01*
X81554999Y-121488677D01*
X81592321Y-121485001D01*
X81592332Y-121485001D01*
X81703985Y-121474004D01*
X81847246Y-121430547D01*
X81979275Y-121359975D01*
X82095000Y-121265002D01*
X82118803Y-121235999D01*
X82376113Y-120978688D01*
X82558665Y-121015000D01*
X82841335Y-121015000D01*
X83065001Y-120970509D01*
X83065001Y-122680197D01*
X79923887Y-125821312D01*
X79741335Y-125785000D01*
X79458665Y-125785000D01*
X79181426Y-125840147D01*
X78920273Y-125948320D01*
X78685241Y-126105363D01*
X78485363Y-126305241D01*
X78328320Y-126540273D01*
X78220147Y-126801426D01*
X78165000Y-127078665D01*
X78165000Y-127361335D01*
X78220147Y-127638574D01*
X78262159Y-127740000D01*
X78114802Y-127740000D01*
X77898688Y-127523886D01*
X77935000Y-127341335D01*
X77935000Y-127058665D01*
X77879853Y-126781426D01*
X77771680Y-126520273D01*
X77614637Y-126285241D01*
X77414759Y-126085363D01*
X77179727Y-125928320D01*
X76918574Y-125820147D01*
X76641335Y-125765000D01*
X76358665Y-125765000D01*
X76081426Y-125820147D01*
X75820273Y-125928320D01*
X75585241Y-126085363D01*
X75385363Y-126285241D01*
X75228320Y-126520273D01*
X75120147Y-126781426D01*
X75065000Y-127058665D01*
X75065000Y-127341335D01*
X75120147Y-127618574D01*
X75228320Y-127879727D01*
X75385363Y-128114759D01*
X75585241Y-128314637D01*
X75820273Y-128471680D01*
X76081426Y-128579853D01*
X76358665Y-128635000D01*
X76641335Y-128635000D01*
X76823886Y-128598688D01*
X77236201Y-129011003D01*
X77259999Y-129040001D01*
X77375724Y-129134974D01*
X77507753Y-129205546D01*
X77651014Y-129249003D01*
X77762667Y-129260000D01*
X77762675Y-129260000D01*
X77800000Y-129263676D01*
X77837325Y-129260000D01*
X81362678Y-129260000D01*
X81400000Y-129263676D01*
X81437322Y-129260000D01*
X81437333Y-129260000D01*
X81548986Y-129249003D01*
X81692247Y-129205546D01*
X81824276Y-129134974D01*
X81940001Y-129040001D01*
X81963804Y-129010997D01*
X82376114Y-128598688D01*
X82558665Y-128635000D01*
X82841335Y-128635000D01*
X83118574Y-128579853D01*
X83379727Y-128471680D01*
X83614759Y-128314637D01*
X83814637Y-128114759D01*
X83971680Y-127879727D01*
X84079853Y-127618574D01*
X84135000Y-127341335D01*
X84135000Y-127058665D01*
X84119087Y-126978665D01*
X87165000Y-126978665D01*
X87165000Y-127261335D01*
X87220147Y-127538574D01*
X87328320Y-127799727D01*
X87485363Y-128034759D01*
X87685241Y-128234637D01*
X87920273Y-128391680D01*
X88181426Y-128499853D01*
X88458665Y-128555000D01*
X88741335Y-128555000D01*
X89018574Y-128499853D01*
X89279727Y-128391680D01*
X89514759Y-128234637D01*
X89714637Y-128034759D01*
X89871680Y-127799727D01*
X89979853Y-127538574D01*
X90035000Y-127261335D01*
X90035000Y-126978665D01*
X89979853Y-126701426D01*
X89871680Y-126440273D01*
X89714637Y-126205241D01*
X89514759Y-126005363D01*
X89279727Y-125848320D01*
X89018574Y-125740147D01*
X88741335Y-125685000D01*
X88458665Y-125685000D01*
X88181426Y-125740147D01*
X87920273Y-125848320D01*
X87685241Y-126005363D01*
X87485363Y-126205241D01*
X87328320Y-126440273D01*
X87220147Y-126701426D01*
X87165000Y-126978665D01*
X84119087Y-126978665D01*
X84079853Y-126781426D01*
X83971680Y-126520273D01*
X83814637Y-126285241D01*
X83614759Y-126085363D01*
X83379727Y-125928320D01*
X83118574Y-125820147D01*
X82841335Y-125765000D01*
X82558665Y-125765000D01*
X82281426Y-125820147D01*
X82020273Y-125928320D01*
X81858164Y-126036638D01*
X84336005Y-123558797D01*
X84365002Y-123535000D01*
X84459975Y-123419275D01*
X84530547Y-123287246D01*
X84574004Y-123143985D01*
X84585001Y-123032332D01*
X84585001Y-123032324D01*
X84588677Y-122994999D01*
X84585001Y-122957674D01*
X84585001Y-117561885D01*
X84620147Y-117738574D01*
X84728320Y-117999727D01*
X84885363Y-118234759D01*
X85085241Y-118434637D01*
X85320273Y-118591680D01*
X85581426Y-118699853D01*
X85858665Y-118755000D01*
X86141335Y-118755000D01*
X86418574Y-118699853D01*
X86679727Y-118591680D01*
X86914759Y-118434637D01*
X87114637Y-118234759D01*
X87231407Y-118060000D01*
X87781957Y-118060000D01*
X87885363Y-118214759D01*
X87907475Y-118236871D01*
X87685241Y-118385363D01*
X87485363Y-118585241D01*
X87328320Y-118820273D01*
X87220147Y-119081426D01*
X87165000Y-119358665D01*
X87165000Y-119641335D01*
X87220147Y-119918574D01*
X87328320Y-120179727D01*
X87485363Y-120414759D01*
X87685241Y-120614637D01*
X87920273Y-120771680D01*
X88181426Y-120879853D01*
X88458665Y-120935000D01*
X88741335Y-120935000D01*
X89018574Y-120879853D01*
X89279727Y-120771680D01*
X89514759Y-120614637D01*
X89714637Y-120414759D01*
X89871680Y-120179727D01*
X89979853Y-119918574D01*
X90035000Y-119641335D01*
X90035000Y-119358665D01*
X89979853Y-119081426D01*
X89871680Y-118820273D01*
X89714637Y-118585241D01*
X89692525Y-118563129D01*
X89914759Y-118414637D01*
X90114637Y-118214759D01*
X90271680Y-117979727D01*
X90379853Y-117718574D01*
X90435000Y-117441335D01*
X90435000Y-117158665D01*
X90379853Y-116881426D01*
X90271680Y-116620273D01*
X90114637Y-116385241D01*
X89914759Y-116185363D01*
X89679727Y-116028320D01*
X89418574Y-115920147D01*
X89141335Y-115865000D01*
X88858665Y-115865000D01*
X88581426Y-115920147D01*
X88320273Y-116028320D01*
X88085241Y-116185363D01*
X87885363Y-116385241D01*
X87781957Y-116540000D01*
X87204680Y-116540000D01*
X87114637Y-116405241D01*
X86914759Y-116205363D01*
X86679727Y-116048320D01*
X86418574Y-115940147D01*
X86141335Y-115885000D01*
X85858665Y-115885000D01*
X85581426Y-115940147D01*
X85320273Y-116048320D01*
X85085241Y-116205363D01*
X84885363Y-116405241D01*
X84728320Y-116640273D01*
X84620147Y-116901426D01*
X84585001Y-117078115D01*
X84585001Y-113139802D01*
X84964804Y-112760000D01*
X85962678Y-112760000D01*
X86000000Y-112763676D01*
X86037322Y-112760000D01*
X86037333Y-112760000D01*
X86148986Y-112749003D01*
X86292247Y-112705546D01*
X86424276Y-112634974D01*
X86540001Y-112540001D01*
X86563804Y-112510997D01*
X87985994Y-111088808D01*
X88014991Y-111065011D01*
X88109964Y-110949286D01*
X88164367Y-110847507D01*
X88320273Y-110951680D01*
X88581426Y-111059853D01*
X88858665Y-111115000D01*
X89141335Y-111115000D01*
X89418574Y-111059853D01*
X89679727Y-110951680D01*
X89914759Y-110794637D01*
X90114637Y-110594759D01*
X90271680Y-110359727D01*
X90379853Y-110098574D01*
X90435000Y-109821335D01*
X90435000Y-109538665D01*
X90379853Y-109261426D01*
X90271680Y-109000273D01*
X90114637Y-108765241D01*
X89914759Y-108565363D01*
X89679727Y-108408320D01*
X89503152Y-108335180D01*
X89619607Y-108239608D01*
X89798932Y-108021101D01*
X89932182Y-107771808D01*
X90014236Y-107501309D01*
X90035000Y-107290492D01*
X90035000Y-106349509D01*
X90014236Y-106138691D01*
X89932182Y-105868192D01*
X89798932Y-105618899D01*
X89619608Y-105400392D01*
X89401101Y-105221068D01*
X89151808Y-105087818D01*
X88881309Y-105005764D01*
X88600000Y-104978057D01*
X88318692Y-105005764D01*
X88234990Y-105031154D01*
X88234990Y-103339370D01*
X88285363Y-103414759D01*
X88485241Y-103614637D01*
X88720273Y-103771680D01*
X88981426Y-103879853D01*
X89258665Y-103935000D01*
X89541335Y-103935000D01*
X89818574Y-103879853D01*
X90079727Y-103771680D01*
X90314759Y-103614637D01*
X90514637Y-103414759D01*
X90671680Y-103179727D01*
X90779853Y-102918574D01*
X90835000Y-102641335D01*
X90835000Y-102358665D01*
X90779853Y-102081426D01*
X90671680Y-101820273D01*
X90514637Y-101585241D01*
X90314759Y-101385363D01*
X90079727Y-101228320D01*
X89818574Y-101120147D01*
X89541335Y-101065000D01*
X89258665Y-101065000D01*
X88981426Y-101120147D01*
X88720273Y-101228320D01*
X88485241Y-101385363D01*
X88285363Y-101585241D01*
X88234990Y-101660630D01*
X88234990Y-101038072D01*
X89400000Y-101038072D01*
X89524482Y-101025812D01*
X89644180Y-100989502D01*
X89754494Y-100930537D01*
X89851185Y-100851185D01*
X89930537Y-100754494D01*
X89989502Y-100644180D01*
X90025812Y-100524482D01*
X90038072Y-100400000D01*
X90038072Y-98000000D01*
X90025812Y-97875518D01*
X89989502Y-97755820D01*
X89930537Y-97645506D01*
X89851185Y-97548815D01*
X89754494Y-97469463D01*
X89644180Y-97410498D01*
X89524482Y-97374188D01*
X89400000Y-97361928D01*
X89254326Y-97361928D01*
X89234974Y-97325724D01*
X89140001Y-97209999D01*
X89111004Y-97186202D01*
X88634999Y-96710198D01*
X88634999Y-96094702D01*
X88720273Y-96151680D01*
X88981426Y-96259853D01*
X89258665Y-96315000D01*
X89541335Y-96315000D01*
X89818574Y-96259853D01*
X90079727Y-96151680D01*
X90314759Y-95994637D01*
X90514637Y-95794759D01*
X90671680Y-95559727D01*
X90779853Y-95298574D01*
X90835000Y-95021335D01*
X90835000Y-94738665D01*
X90779853Y-94461426D01*
X90671680Y-94200273D01*
X90514637Y-93965241D01*
X90314759Y-93765363D01*
X90079727Y-93608320D01*
X89818574Y-93500147D01*
X89541335Y-93445000D01*
X89258665Y-93445000D01*
X88981426Y-93500147D01*
X88720273Y-93608320D01*
X88634999Y-93665298D01*
X88634999Y-90438072D01*
X89800000Y-90438072D01*
X89924482Y-90425812D01*
X90044180Y-90389502D01*
X90154494Y-90330537D01*
X90251185Y-90251185D01*
X90330537Y-90154494D01*
X90389502Y-90044180D01*
X90425812Y-89924482D01*
X90438072Y-89800000D01*
X90438072Y-88200000D01*
X90425812Y-88075518D01*
X90389502Y-87955820D01*
X90330537Y-87845506D01*
X90251185Y-87748815D01*
X90154494Y-87669463D01*
X90044180Y-87610498D01*
X89924482Y-87574188D01*
X89800000Y-87561928D01*
X88634999Y-87561928D01*
X88634999Y-85333719D01*
X88638675Y-85296396D01*
X88634999Y-85259073D01*
X88634999Y-85259064D01*
X88624002Y-85147411D01*
X88580545Y-85004150D01*
X88509974Y-84872122D01*
X88509973Y-84872120D01*
X88438798Y-84785394D01*
X88415000Y-84756396D01*
X88386003Y-84732599D01*
X84642406Y-80989003D01*
X84618603Y-80959999D01*
X84502878Y-80865026D01*
X84370849Y-80794454D01*
X84227588Y-80750997D01*
X84115935Y-80740000D01*
X84115924Y-80740000D01*
X84078602Y-80736324D01*
X84041280Y-80740000D01*
X81218043Y-80740000D01*
X81114637Y-80585241D01*
X80914759Y-80385363D01*
X80679727Y-80228320D01*
X80642077Y-80212725D01*
X81439802Y-79415000D01*
X82160198Y-79415000D01*
X82756201Y-80011003D01*
X82779999Y-80040001D01*
X82808997Y-80063799D01*
X82895724Y-80134974D01*
X83027753Y-80205546D01*
X83171014Y-80249003D01*
X83320000Y-80263677D01*
X83357333Y-80260000D01*
X88093267Y-80260000D01*
X88085241Y-80265363D01*
X87885363Y-80465241D01*
X87728320Y-80700273D01*
X87620147Y-80961426D01*
X87565000Y-81238665D01*
X87565000Y-81521335D01*
X87620147Y-81798574D01*
X87728320Y-82059727D01*
X87885363Y-82294759D01*
X88085241Y-82494637D01*
X88320273Y-82651680D01*
X88581426Y-82759853D01*
X88858665Y-82815000D01*
X89141335Y-82815000D01*
X89418574Y-82759853D01*
X89679727Y-82651680D01*
X89914759Y-82494637D01*
X90114637Y-82294759D01*
X90271680Y-82059727D01*
X90379853Y-81798574D01*
X90435000Y-81521335D01*
X90435000Y-81238665D01*
X90398688Y-81056114D01*
X91285044Y-80169758D01*
X91335348Y-131732340D01*
X91309345Y-131700655D01*
X91080178Y-131512583D01*
X90818724Y-131372834D01*
X90535031Y-131286776D01*
X90240000Y-131257718D01*
X89944968Y-131286776D01*
X89661275Y-131372834D01*
X89399821Y-131512583D01*
X89170655Y-131700655D01*
X89116935Y-131766114D01*
X89058405Y-131656613D01*
X88947962Y-131522038D01*
X88813387Y-131411595D01*
X88659851Y-131329528D01*
X88493255Y-131278992D01*
X88320001Y-131261928D01*
X87079999Y-131261928D01*
X86906745Y-131278992D01*
X86740149Y-131329528D01*
X86586613Y-131411595D01*
X86452038Y-131522038D01*
X86341595Y-131656613D01*
X86259528Y-131810149D01*
X86208992Y-131976745D01*
X86191928Y-132149999D01*
X86191928Y-132371800D01*
X86137166Y-132191275D01*
X85997417Y-131929821D01*
X85809345Y-131700655D01*
X85580178Y-131512583D01*
X85318724Y-131372834D01*
X85035031Y-131286776D01*
X84740000Y-131257718D01*
X84444968Y-131286776D01*
X84161275Y-131372834D01*
X83899821Y-131512583D01*
X83670655Y-131700655D01*
X83616935Y-131766114D01*
X83558405Y-131656613D01*
X83447962Y-131522038D01*
X83313387Y-131411595D01*
X83159851Y-131329528D01*
X82993255Y-131278992D01*
X82820001Y-131261928D01*
X81579999Y-131261928D01*
X81406745Y-131278992D01*
X81240149Y-131329528D01*
X81086613Y-131411595D01*
X80952038Y-131522038D01*
X80841595Y-131656613D01*
X80759528Y-131810149D01*
X80708992Y-131976745D01*
X80691928Y-132149999D01*
X80691928Y-133665010D01*
X80479813Y-133665010D01*
X80233679Y-133418877D01*
X80245000Y-133303935D01*
X80245000Y-132696064D01*
X80223224Y-132474968D01*
X80137166Y-132191275D01*
X79997417Y-131929821D01*
X79809345Y-131700655D01*
X79580178Y-131512583D01*
X79318724Y-131372834D01*
X79035031Y-131286776D01*
X78740000Y-131257718D01*
X78444968Y-131286776D01*
X78161275Y-131372834D01*
X77899821Y-131512583D01*
X77670655Y-131700655D01*
X77616935Y-131766114D01*
X77558405Y-131656613D01*
X77447962Y-131522038D01*
X77313387Y-131411595D01*
X77159851Y-131329528D01*
X76993255Y-131278992D01*
X76820001Y-131261928D01*
X75579999Y-131261928D01*
X75406745Y-131278992D01*
X75240149Y-131329528D01*
X75086613Y-131411595D01*
X74952038Y-131522038D01*
X74841595Y-131656613D01*
X74759528Y-131810149D01*
X74708992Y-131976745D01*
X74691928Y-132149999D01*
X74691928Y-133665010D01*
X74079813Y-133665010D01*
X73833679Y-133418877D01*
X73845000Y-133303935D01*
X73845000Y-132696064D01*
X73823224Y-132474968D01*
X73737166Y-132191275D01*
X73597417Y-131929821D01*
X73409345Y-131700655D01*
X73180178Y-131512583D01*
X72918724Y-131372834D01*
X72635031Y-131286776D01*
X72340000Y-131257718D01*
X72044968Y-131286776D01*
X71761275Y-131372834D01*
X71499821Y-131512583D01*
X71270655Y-131700655D01*
X71216935Y-131766114D01*
X71158405Y-131656613D01*
X71047962Y-131522038D01*
X70913387Y-131411595D01*
X70759851Y-131329528D01*
X70593255Y-131278992D01*
X70420001Y-131261928D01*
X69179999Y-131261928D01*
X69006745Y-131278992D01*
X68840149Y-131329528D01*
X68686613Y-131411595D01*
X68619975Y-131466284D01*
X68611213Y-127058665D01*
X69065000Y-127058665D01*
X69065000Y-127341335D01*
X69120147Y-127618574D01*
X69228320Y-127879727D01*
X69385363Y-128114759D01*
X69585241Y-128314637D01*
X69820273Y-128471680D01*
X70081426Y-128579853D01*
X70358665Y-128635000D01*
X70641335Y-128635000D01*
X70918574Y-128579853D01*
X71179727Y-128471680D01*
X71414759Y-128314637D01*
X71614637Y-128114759D01*
X71771680Y-127879727D01*
X71879853Y-127618574D01*
X71935000Y-127341335D01*
X71935000Y-127058665D01*
X72165000Y-127058665D01*
X72165000Y-127341335D01*
X72220147Y-127618574D01*
X72328320Y-127879727D01*
X72485363Y-128114759D01*
X72685241Y-128314637D01*
X72920273Y-128471680D01*
X73181426Y-128579853D01*
X73458665Y-128635000D01*
X73741335Y-128635000D01*
X74018574Y-128579853D01*
X74279727Y-128471680D01*
X74514759Y-128314637D01*
X74714637Y-128114759D01*
X74871680Y-127879727D01*
X74979853Y-127618574D01*
X75035000Y-127341335D01*
X75035000Y-127058665D01*
X74979853Y-126781426D01*
X74871680Y-126520273D01*
X74714637Y-126285241D01*
X74514759Y-126085363D01*
X74279727Y-125928320D01*
X74018574Y-125820147D01*
X73741335Y-125765000D01*
X73458665Y-125765000D01*
X73181426Y-125820147D01*
X72920273Y-125928320D01*
X72685241Y-126085363D01*
X72485363Y-126285241D01*
X72328320Y-126520273D01*
X72220147Y-126781426D01*
X72165000Y-127058665D01*
X71935000Y-127058665D01*
X71879853Y-126781426D01*
X71771680Y-126520273D01*
X71614637Y-126285241D01*
X71414759Y-126085363D01*
X71179727Y-125928320D01*
X70918574Y-125820147D01*
X70641335Y-125765000D01*
X70358665Y-125765000D01*
X70081426Y-125820147D01*
X69820273Y-125928320D01*
X69585241Y-126085363D01*
X69385363Y-126285241D01*
X69228320Y-126520273D01*
X69120147Y-126781426D01*
X69065000Y-127058665D01*
X68611213Y-127058665D01*
X68560000Y-101298782D01*
X68560000Y-84777902D01*
X72845000Y-84777902D01*
X72845000Y-85222098D01*
X72931658Y-85657759D01*
X73101645Y-86068143D01*
X73348427Y-86437479D01*
X73662521Y-86751573D01*
X74031857Y-86998355D01*
X74442241Y-87168342D01*
X74877902Y-87255000D01*
X75322098Y-87255000D01*
X75757759Y-87168342D01*
X76168143Y-86998355D01*
X76537479Y-86751573D01*
X76851573Y-86437479D01*
X77098355Y-86068143D01*
X77268342Y-85657759D01*
X77355000Y-85222098D01*
X77355000Y-84777902D01*
X77268342Y-84342241D01*
X77098355Y-83931857D01*
X76851573Y-83562521D01*
X76537479Y-83248427D01*
X76168143Y-83001645D01*
X75757759Y-82831658D01*
X75322098Y-82745000D01*
X74877902Y-82745000D01*
X74442241Y-82831658D01*
X74031857Y-83001645D01*
X73662521Y-83248427D01*
X73348427Y-83562521D01*
X73101645Y-83931857D01*
X72931658Y-84342241D01*
X72845000Y-84777902D01*
X68560000Y-84777902D01*
X68560000Y-81438665D01*
X69565000Y-81438665D01*
X69565000Y-81721335D01*
X69620147Y-81998574D01*
X69728320Y-82259727D01*
X69885363Y-82494759D01*
X70085241Y-82694637D01*
X70320273Y-82851680D01*
X70581426Y-82959853D01*
X70858665Y-83015000D01*
X71141335Y-83015000D01*
X71418574Y-82959853D01*
X71679727Y-82851680D01*
X71914759Y-82694637D01*
X72114637Y-82494759D01*
X72271680Y-82259727D01*
X72379853Y-81998574D01*
X72435000Y-81721335D01*
X72435000Y-81438665D01*
X72379853Y-81161426D01*
X72271680Y-80900273D01*
X72114637Y-80665241D01*
X71914759Y-80465363D01*
X71679727Y-80308320D01*
X71418574Y-80200147D01*
X71141335Y-80145000D01*
X70858665Y-80145000D01*
X70581426Y-80200147D01*
X70320273Y-80308320D01*
X70085241Y-80465363D01*
X69885363Y-80665241D01*
X69728320Y-80900273D01*
X69620147Y-81161426D01*
X69565000Y-81438665D01*
X68560000Y-81438665D01*
X68560000Y-77458665D01*
X69865000Y-77458665D01*
X69865000Y-77741335D01*
X69920147Y-78018574D01*
X70028320Y-78279727D01*
X70185363Y-78514759D01*
X70385241Y-78714637D01*
X70620273Y-78871680D01*
X70881426Y-78979853D01*
X71158665Y-79035000D01*
X71441335Y-79035000D01*
X71718574Y-78979853D01*
X71979727Y-78871680D01*
X72214759Y-78714637D01*
X72414637Y-78514759D01*
X72571680Y-78279727D01*
X72679853Y-78018574D01*
X72735000Y-77741335D01*
X72735000Y-77458665D01*
X73165000Y-77458665D01*
X73165000Y-77741335D01*
X73220147Y-78018574D01*
X73328320Y-78279727D01*
X73485363Y-78514759D01*
X73685241Y-78714637D01*
X73920273Y-78871680D01*
X74181426Y-78979853D01*
X74458665Y-79035000D01*
X74741335Y-79035000D01*
X75018574Y-78979853D01*
X75279727Y-78871680D01*
X75514759Y-78714637D01*
X75714637Y-78514759D01*
X75871680Y-78279727D01*
X75979853Y-78018574D01*
X76035000Y-77741335D01*
X76035000Y-77458665D01*
X75979853Y-77181426D01*
X75871680Y-76920273D01*
X75714637Y-76685241D01*
X75514759Y-76485363D01*
X75279727Y-76328320D01*
X75018574Y-76220147D01*
X74741335Y-76165000D01*
X74458665Y-76165000D01*
X74181426Y-76220147D01*
X73920273Y-76328320D01*
X73685241Y-76485363D01*
X73485363Y-76685241D01*
X73328320Y-76920273D01*
X73220147Y-77181426D01*
X73165000Y-77458665D01*
X72735000Y-77458665D01*
X72679853Y-77181426D01*
X72571680Y-76920273D01*
X72414637Y-76685241D01*
X72214759Y-76485363D01*
X71979727Y-76328320D01*
X71718574Y-76220147D01*
X71441335Y-76165000D01*
X71158665Y-76165000D01*
X70881426Y-76220147D01*
X70620273Y-76328320D01*
X70385241Y-76485363D01*
X70185363Y-76685241D01*
X70028320Y-76920273D01*
X69920147Y-77181426D01*
X69865000Y-77458665D01*
X68560000Y-77458665D01*
X68560000Y-59277902D01*
X72445000Y-59277902D01*
X72445000Y-59722098D01*
X72531658Y-60157759D01*
X72701645Y-60568143D01*
X72948427Y-60937479D01*
X73262521Y-61251573D01*
X73631857Y-61498355D01*
X74042241Y-61668342D01*
X74477902Y-61755000D01*
X74922098Y-61755000D01*
X75357759Y-61668342D01*
X75768143Y-61498355D01*
X76137479Y-61251573D01*
X76451573Y-60937479D01*
X76698355Y-60568143D01*
X76868342Y-60157759D01*
X76955000Y-59722098D01*
X76955000Y-59277902D01*
X76868342Y-58842241D01*
X76698355Y-58431857D01*
X76451573Y-58062521D01*
X76137479Y-57748427D01*
X75768143Y-57501645D01*
X75357759Y-57331658D01*
X74922098Y-57245000D01*
X74477902Y-57245000D01*
X74042241Y-57331658D01*
X73631857Y-57501645D01*
X73262521Y-57748427D01*
X72948427Y-58062521D01*
X72701645Y-58431857D01*
X72531658Y-58842241D01*
X72445000Y-59277902D01*
X68560000Y-59277902D01*
X68560000Y-56119478D01*
X68763962Y-56424729D01*
X69075271Y-56736038D01*
X69441331Y-56980631D01*
X69848075Y-57149110D01*
X70279872Y-57235000D01*
X70720128Y-57235000D01*
X71151925Y-57149110D01*
X71558669Y-56980631D01*
X71924729Y-56736038D01*
X72236038Y-56424729D01*
X72480631Y-56058669D01*
X72649110Y-55651925D01*
X72735000Y-55220128D01*
X72735000Y-54779872D01*
X72649110Y-54348075D01*
X72480631Y-53941331D01*
X72236038Y-53575271D01*
X71924729Y-53263962D01*
X71558669Y-53019369D01*
X71460401Y-52978665D01*
X74965000Y-52978665D01*
X74965000Y-53261335D01*
X75020147Y-53538574D01*
X75128320Y-53799727D01*
X75285363Y-54034759D01*
X75485241Y-54234637D01*
X75720273Y-54391680D01*
X75981426Y-54499853D01*
X76258665Y-54555000D01*
X76541335Y-54555000D01*
X76818574Y-54499853D01*
X77079727Y-54391680D01*
X77314759Y-54234637D01*
X77514637Y-54034759D01*
X77671680Y-53799727D01*
X77779853Y-53538574D01*
X77835000Y-53261335D01*
X77835000Y-52978665D01*
X77779853Y-52701426D01*
X77671680Y-52440273D01*
X77514637Y-52205241D01*
X77314759Y-52005363D01*
X77079727Y-51848320D01*
X76818574Y-51740147D01*
X76541335Y-51685000D01*
X76258665Y-51685000D01*
X75981426Y-51740147D01*
X75720273Y-51848320D01*
X75485241Y-52005363D01*
X75285363Y-52205241D01*
X75128320Y-52440273D01*
X75020147Y-52701426D01*
X74965000Y-52978665D01*
X71460401Y-52978665D01*
X71151925Y-52850890D01*
X70720128Y-52765000D01*
X70279872Y-52765000D01*
X69848075Y-52850890D01*
X69441331Y-53019369D01*
X69075271Y-53263962D01*
X68763962Y-53575271D01*
X68560000Y-53880522D01*
X68560000Y-47700000D01*
X69461928Y-47700000D01*
X69461928Y-49300000D01*
X69474188Y-49424482D01*
X69510498Y-49544180D01*
X69569463Y-49654494D01*
X69648815Y-49751185D01*
X69745506Y-49830537D01*
X69855820Y-49889502D01*
X69975518Y-49925812D01*
X70100000Y-49938072D01*
X71700000Y-49938072D01*
X71824482Y-49925812D01*
X71944180Y-49889502D01*
X72054494Y-49830537D01*
X72151185Y-49751185D01*
X72164790Y-49734607D01*
X72220273Y-49771680D01*
X72481426Y-49879853D01*
X72758665Y-49935000D01*
X73041335Y-49935000D01*
X73318574Y-49879853D01*
X73579727Y-49771680D01*
X73814759Y-49614637D01*
X74014637Y-49414759D01*
X74171680Y-49179727D01*
X74279853Y-48918574D01*
X74335000Y-48641335D01*
X74335000Y-48358665D01*
X74279853Y-48081426D01*
X74171680Y-47820273D01*
X74014637Y-47585241D01*
X73814759Y-47385363D01*
X73579727Y-47228320D01*
X73318574Y-47120147D01*
X73041335Y-47065000D01*
X72758665Y-47065000D01*
X72481426Y-47120147D01*
X72220273Y-47228320D01*
X72164790Y-47265393D01*
X72151185Y-47248815D01*
X72054494Y-47169463D01*
X71944180Y-47110498D01*
X71824482Y-47074188D01*
X71700000Y-47061928D01*
X70100000Y-47061928D01*
X69975518Y-47074188D01*
X69855820Y-47110498D01*
X69745506Y-47169463D01*
X69648815Y-47248815D01*
X69569463Y-47345506D01*
X69510498Y-47455820D01*
X69474188Y-47575518D01*
X69461928Y-47700000D01*
X68560000Y-47700000D01*
X68560000Y-34660000D01*
X91240644Y-34660000D01*
X91274291Y-69148485D01*
G37*
%TD.AperFunction*%
D25*
X81428320Y-126520273D02*
X81320147Y-126781426D01*
X81265000Y-127058665D01*
X81265000Y-127341335D01*
X81301312Y-127523886D01*
X81085199Y-127740000D01*
X80937841Y-127740000D01*
X80979853Y-127638574D01*
X81035000Y-127361335D01*
X81035000Y-127078665D01*
X80998688Y-126896113D01*
X81536638Y-126358163D01*
X81428320Y-126520273D01*
%TA.AperFunction,NonConductor*%
D26*
G36*
X81428320Y-126520273D02*
G01*
X81320147Y-126781426D01*
X81265000Y-127058665D01*
X81265000Y-127341335D01*
X81301312Y-127523886D01*
X81085199Y-127740000D01*
X80937841Y-127740000D01*
X80979853Y-127638574D01*
X81035000Y-127361335D01*
X81035000Y-127078665D01*
X80998688Y-126896113D01*
X81536638Y-126358163D01*
X81428320Y-126520273D01*
G37*
%TD.AperFunction*%
D25*
X72585363Y-118214759D02*
X72775595Y-118404991D01*
X72685241Y-118465363D01*
X72485363Y-118665241D01*
X72328320Y-118900273D01*
X72220147Y-119161426D01*
X72165000Y-119438665D01*
X72165000Y-119721335D01*
X72213469Y-119965001D01*
X71959803Y-119965001D01*
X71898688Y-119903886D01*
X71935000Y-119721335D01*
X71935000Y-119438665D01*
X71879853Y-119161426D01*
X71771680Y-118900273D01*
X71614637Y-118665241D01*
X71414759Y-118465363D01*
X71376801Y-118440000D01*
X71414759Y-118414637D01*
X71614637Y-118214759D01*
X71718043Y-118060000D01*
X72481957Y-118060000D01*
X72585363Y-118214759D01*
%TA.AperFunction,NonConductor*%
D26*
G36*
X72585363Y-118214759D02*
G01*
X72775595Y-118404991D01*
X72685241Y-118465363D01*
X72485363Y-118665241D01*
X72328320Y-118900273D01*
X72220147Y-119161426D01*
X72165000Y-119438665D01*
X72165000Y-119721335D01*
X72213469Y-119965001D01*
X71959803Y-119965001D01*
X71898688Y-119903886D01*
X71935000Y-119721335D01*
X71935000Y-119438665D01*
X71879853Y-119161426D01*
X71771680Y-118900273D01*
X71614637Y-118665241D01*
X71414759Y-118465363D01*
X71376801Y-118440000D01*
X71414759Y-118414637D01*
X71614637Y-118214759D01*
X71718043Y-118060000D01*
X72481957Y-118060000D01*
X72585363Y-118214759D01*
G37*
%TD.AperFunction*%
D25*
X84861068Y-108021100D02*
X85040392Y-108239607D01*
X85258899Y-108418932D01*
X85300802Y-108441330D01*
X85085241Y-108585363D01*
X84885363Y-108785241D01*
X84728320Y-109020273D01*
X84620147Y-109281426D01*
X84565000Y-109558665D01*
X84565000Y-109841335D01*
X84620147Y-110118574D01*
X84728320Y-110379727D01*
X84885363Y-110614759D01*
X85085241Y-110814637D01*
X85320273Y-110971680D01*
X85581426Y-111079853D01*
X85801558Y-111123641D01*
X85685199Y-111240000D01*
X84687335Y-111240000D01*
X84650002Y-111236323D01*
X84612669Y-111240000D01*
X84501016Y-111250997D01*
X84357755Y-111294454D01*
X84225726Y-111365026D01*
X84110001Y-111459999D01*
X84086203Y-111488998D01*
X83313999Y-112261202D01*
X83285001Y-112285000D01*
X83261203Y-112313998D01*
X83261202Y-112313999D01*
X83190027Y-112400725D01*
X83119455Y-112532755D01*
X83075999Y-112676016D01*
X83061325Y-112825001D01*
X83065002Y-112862333D01*
X83065001Y-118189491D01*
X82841335Y-118145000D01*
X82558665Y-118145000D01*
X82281426Y-118200147D01*
X82020273Y-118308320D01*
X81785241Y-118465363D01*
X81585363Y-118665241D01*
X81428320Y-118900273D01*
X81320147Y-119161426D01*
X81265000Y-119438665D01*
X81265000Y-119721335D01*
X81301312Y-119903887D01*
X81240198Y-119965001D01*
X80990509Y-119965001D01*
X81035000Y-119741335D01*
X81035000Y-119458665D01*
X80979853Y-119181426D01*
X80871680Y-118920273D01*
X80714637Y-118685241D01*
X80514759Y-118485363D01*
X80279727Y-118328320D01*
X80018574Y-118220147D01*
X79741335Y-118165000D01*
X79458665Y-118165000D01*
X79181426Y-118220147D01*
X78920273Y-118328320D01*
X78685241Y-118485363D01*
X78485363Y-118685241D01*
X78381957Y-118840000D01*
X77731407Y-118840000D01*
X77614637Y-118665241D01*
X77516503Y-118567107D01*
X77714759Y-118434637D01*
X77914637Y-118234759D01*
X78071680Y-117999727D01*
X78179853Y-117738574D01*
X78235000Y-117461335D01*
X78235000Y-117178665D01*
X78198688Y-116996113D01*
X83631004Y-111563798D01*
X83660001Y-111540001D01*
X83754974Y-111424276D01*
X83825546Y-111292247D01*
X83869003Y-111148986D01*
X83880000Y-111037333D01*
X83880000Y-111037325D01*
X83883676Y-111000000D01*
X83880000Y-110962675D01*
X83880000Y-108610365D01*
X84071807Y-108552182D01*
X84321100Y-108418932D01*
X84539607Y-108239608D01*
X84718932Y-108021101D01*
X84790000Y-107888142D01*
X84861068Y-108021100D01*
%TA.AperFunction,NonConductor*%
D26*
G36*
X84861068Y-108021100D02*
G01*
X85040392Y-108239607D01*
X85258899Y-108418932D01*
X85300802Y-108441330D01*
X85085241Y-108585363D01*
X84885363Y-108785241D01*
X84728320Y-109020273D01*
X84620147Y-109281426D01*
X84565000Y-109558665D01*
X84565000Y-109841335D01*
X84620147Y-110118574D01*
X84728320Y-110379727D01*
X84885363Y-110614759D01*
X85085241Y-110814637D01*
X85320273Y-110971680D01*
X85581426Y-111079853D01*
X85801558Y-111123641D01*
X85685199Y-111240000D01*
X84687335Y-111240000D01*
X84650002Y-111236323D01*
X84612669Y-111240000D01*
X84501016Y-111250997D01*
X84357755Y-111294454D01*
X84225726Y-111365026D01*
X84110001Y-111459999D01*
X84086203Y-111488998D01*
X83313999Y-112261202D01*
X83285001Y-112285000D01*
X83261203Y-112313998D01*
X83261202Y-112313999D01*
X83190027Y-112400725D01*
X83119455Y-112532755D01*
X83075999Y-112676016D01*
X83061325Y-112825001D01*
X83065002Y-112862333D01*
X83065001Y-118189491D01*
X82841335Y-118145000D01*
X82558665Y-118145000D01*
X82281426Y-118200147D01*
X82020273Y-118308320D01*
X81785241Y-118465363D01*
X81585363Y-118665241D01*
X81428320Y-118900273D01*
X81320147Y-119161426D01*
X81265000Y-119438665D01*
X81265000Y-119721335D01*
X81301312Y-119903887D01*
X81240198Y-119965001D01*
X80990509Y-119965001D01*
X81035000Y-119741335D01*
X81035000Y-119458665D01*
X80979853Y-119181426D01*
X80871680Y-118920273D01*
X80714637Y-118685241D01*
X80514759Y-118485363D01*
X80279727Y-118328320D01*
X80018574Y-118220147D01*
X79741335Y-118165000D01*
X79458665Y-118165000D01*
X79181426Y-118220147D01*
X78920273Y-118328320D01*
X78685241Y-118485363D01*
X78485363Y-118685241D01*
X78381957Y-118840000D01*
X77731407Y-118840000D01*
X77614637Y-118665241D01*
X77516503Y-118567107D01*
X77714759Y-118434637D01*
X77914637Y-118234759D01*
X78071680Y-117999727D01*
X78179853Y-117738574D01*
X78235000Y-117461335D01*
X78235000Y-117178665D01*
X78198688Y-116996113D01*
X83631004Y-111563798D01*
X83660001Y-111540001D01*
X83754974Y-111424276D01*
X83825546Y-111292247D01*
X83869003Y-111148986D01*
X83880000Y-111037333D01*
X83880000Y-111037325D01*
X83883676Y-111000000D01*
X83880000Y-110962675D01*
X83880000Y-108610365D01*
X84071807Y-108552182D01*
X84321100Y-108418932D01*
X84539607Y-108239608D01*
X84718932Y-108021101D01*
X84790000Y-107888142D01*
X84861068Y-108021100D01*
G37*
%TD.AperFunction*%
D25*
X75120147Y-119161426D02*
X75065000Y-119438665D01*
X75065000Y-119721335D01*
X75113469Y-119965001D01*
X74986531Y-119965001D01*
X75035000Y-119721335D01*
X75035000Y-119438665D01*
X74998688Y-119256114D01*
X75139077Y-119115724D01*
X75120147Y-119161426D01*
%TA.AperFunction,NonConductor*%
D26*
G36*
X75120147Y-119161426D02*
G01*
X75065000Y-119438665D01*
X75065000Y-119721335D01*
X75113469Y-119965001D01*
X74986531Y-119965001D01*
X75035000Y-119721335D01*
X75035000Y-119438665D01*
X74998688Y-119256114D01*
X75139077Y-119115724D01*
X75120147Y-119161426D01*
G37*
%TD.AperFunction*%
D25*
X85681426Y-104479853D02*
X85958665Y-104535000D01*
X86241335Y-104535000D01*
X86518574Y-104479853D01*
X86714991Y-104398495D01*
X86714990Y-105142970D01*
X86611808Y-105087818D01*
X86341309Y-105005764D01*
X86060000Y-104978057D01*
X85778692Y-105005764D01*
X85508193Y-105087818D01*
X85258900Y-105221068D01*
X85040393Y-105400392D01*
X84861068Y-105618899D01*
X84790000Y-105751858D01*
X84718932Y-105618899D01*
X84542048Y-105403365D01*
X84617235Y-105380558D01*
X84749264Y-105309986D01*
X84864989Y-105215013D01*
X84888792Y-105186009D01*
X85235999Y-104838802D01*
X85265002Y-104815000D01*
X85359975Y-104699275D01*
X85430547Y-104567246D01*
X85474004Y-104423985D01*
X85476848Y-104395114D01*
X85681426Y-104479853D01*
%TA.AperFunction,NonConductor*%
D26*
G36*
X85681426Y-104479853D02*
G01*
X85958665Y-104535000D01*
X86241335Y-104535000D01*
X86518574Y-104479853D01*
X86714991Y-104398495D01*
X86714990Y-105142970D01*
X86611808Y-105087818D01*
X86341309Y-105005764D01*
X86060000Y-104978057D01*
X85778692Y-105005764D01*
X85508193Y-105087818D01*
X85258900Y-105221068D01*
X85040393Y-105400392D01*
X84861068Y-105618899D01*
X84790000Y-105751858D01*
X84718932Y-105618899D01*
X84542048Y-105403365D01*
X84617235Y-105380558D01*
X84749264Y-105309986D01*
X84864989Y-105215013D01*
X84888792Y-105186009D01*
X85235999Y-104838802D01*
X85265002Y-104815000D01*
X85359975Y-104699275D01*
X85430547Y-104567246D01*
X85474004Y-104423985D01*
X85476848Y-104395114D01*
X85681426Y-104479853D01*
G37*
%TD.AperFunction*%
D25*
X82321068Y-105618899D02*
X82250000Y-105751858D01*
X82178932Y-105618899D01*
X82028020Y-105435012D01*
X82471981Y-105435012D01*
X82321068Y-105618899D01*
%TA.AperFunction,NonConductor*%
D26*
G36*
X82321068Y-105618899D02*
G01*
X82250000Y-105751858D01*
X82178932Y-105618899D01*
X82028020Y-105435012D01*
X82471981Y-105435012D01*
X82321068Y-105618899D01*
G37*
%TD.AperFunction*%
D25*
X79781068Y-105618899D02*
X79710000Y-105751858D01*
X79638932Y-105618899D01*
X79488020Y-105435012D01*
X79931981Y-105435012D01*
X79781068Y-105618899D01*
%TA.AperFunction,NonConductor*%
D26*
G36*
X79781068Y-105618899D02*
G01*
X79710000Y-105751858D01*
X79638932Y-105618899D01*
X79488020Y-105435012D01*
X79931981Y-105435012D01*
X79781068Y-105618899D01*
G37*
%TD.AperFunction*%
D25*
X74701068Y-105618899D02*
X74630000Y-105751858D01*
X74558932Y-105618899D01*
X74408020Y-105435012D01*
X74851981Y-105435012D01*
X74701068Y-105618899D01*
%TA.AperFunction,NonConductor*%
D26*
G36*
X74701068Y-105618899D02*
G01*
X74630000Y-105751858D01*
X74558932Y-105618899D01*
X74408020Y-105435012D01*
X74851981Y-105435012D01*
X74701068Y-105618899D01*
G37*
%TD.AperFunction*%
D25*
X77241068Y-105618899D02*
X77170000Y-105751858D01*
X77098932Y-105618899D01*
X76948020Y-105435012D01*
X77391981Y-105435012D01*
X77241068Y-105618899D01*
%TA.AperFunction,NonConductor*%
D26*
G36*
X77241068Y-105618899D02*
G01*
X77170000Y-105751858D01*
X77098932Y-105618899D01*
X76948020Y-105435012D01*
X77391981Y-105435012D01*
X77241068Y-105618899D01*
G37*
%TD.AperFunction*%
D25*
X79781068Y-100401100D02*
X79960392Y-100619607D01*
X80178899Y-100798932D01*
X80241060Y-100832158D01*
X80270902Y-100930537D01*
X80274454Y-100942246D01*
X80345026Y-101074276D01*
X80366722Y-101100712D01*
X80439999Y-101190001D01*
X80469003Y-101213804D01*
X81741199Y-102486001D01*
X81764998Y-102515000D01*
X81793996Y-102538798D01*
X81880723Y-102609973D01*
X82012752Y-102680545D01*
X82156013Y-102724002D01*
X82210608Y-102729379D01*
X82165000Y-102958665D01*
X82165000Y-103241335D01*
X82201312Y-103423887D01*
X82160198Y-103465001D01*
X76890509Y-103465001D01*
X76935000Y-103241335D01*
X76935000Y-102958665D01*
X76879853Y-102681426D01*
X76771680Y-102420273D01*
X76614637Y-102185241D01*
X76414759Y-101985363D01*
X76179727Y-101828320D01*
X75918574Y-101720147D01*
X75641335Y-101665000D01*
X75358665Y-101665000D01*
X75081426Y-101720147D01*
X74998355Y-101754556D01*
X74709881Y-101466083D01*
X74736024Y-101474013D01*
X74847677Y-101485010D01*
X74847687Y-101485010D01*
X74885010Y-101488686D01*
X74922333Y-101485010D01*
X76877668Y-101485010D01*
X76914990Y-101488686D01*
X76952312Y-101485010D01*
X76952323Y-101485010D01*
X77063976Y-101474013D01*
X77207237Y-101430556D01*
X77339266Y-101359984D01*
X77454991Y-101265011D01*
X77478794Y-101236007D01*
X77819393Y-100895408D01*
X77888192Y-100932182D01*
X78158691Y-101014236D01*
X78440000Y-101041943D01*
X78721308Y-101014236D01*
X78991807Y-100932182D01*
X79241100Y-100798932D01*
X79459607Y-100619608D01*
X79638932Y-100401101D01*
X79710000Y-100268142D01*
X79781068Y-100401100D01*
%TA.AperFunction,NonConductor*%
D26*
G36*
X79781068Y-100401100D02*
G01*
X79960392Y-100619607D01*
X80178899Y-100798932D01*
X80241060Y-100832158D01*
X80270902Y-100930537D01*
X80274454Y-100942246D01*
X80345026Y-101074276D01*
X80366722Y-101100712D01*
X80439999Y-101190001D01*
X80469003Y-101213804D01*
X81741199Y-102486001D01*
X81764998Y-102515000D01*
X81793996Y-102538798D01*
X81880723Y-102609973D01*
X82012752Y-102680545D01*
X82156013Y-102724002D01*
X82210608Y-102729379D01*
X82165000Y-102958665D01*
X82165000Y-103241335D01*
X82201312Y-103423887D01*
X82160198Y-103465001D01*
X76890509Y-103465001D01*
X76935000Y-103241335D01*
X76935000Y-102958665D01*
X76879853Y-102681426D01*
X76771680Y-102420273D01*
X76614637Y-102185241D01*
X76414759Y-101985363D01*
X76179727Y-101828320D01*
X75918574Y-101720147D01*
X75641335Y-101665000D01*
X75358665Y-101665000D01*
X75081426Y-101720147D01*
X74998355Y-101754556D01*
X74709881Y-101466083D01*
X74736024Y-101474013D01*
X74847677Y-101485010D01*
X74847687Y-101485010D01*
X74885010Y-101488686D01*
X74922333Y-101485010D01*
X76877668Y-101485010D01*
X76914990Y-101488686D01*
X76952312Y-101485010D01*
X76952323Y-101485010D01*
X77063976Y-101474013D01*
X77207237Y-101430556D01*
X77339266Y-101359984D01*
X77454991Y-101265011D01*
X77478794Y-101236007D01*
X77819393Y-100895408D01*
X77888192Y-100932182D01*
X78158691Y-101014236D01*
X78440000Y-101041943D01*
X78721308Y-101014236D01*
X78991807Y-100932182D01*
X79241100Y-100798932D01*
X79459607Y-100619608D01*
X79638932Y-100401101D01*
X79710000Y-100268142D01*
X79781068Y-100401100D01*
G37*
%TD.AperFunction*%
D25*
X84861068Y-100401100D02*
X85040392Y-100619607D01*
X85258899Y-100798932D01*
X85508192Y-100932182D01*
X85778691Y-101014236D01*
X86060000Y-101041943D01*
X86341308Y-101014236D01*
X86611807Y-100932182D01*
X86714991Y-100877029D01*
X86714991Y-101801505D01*
X86518574Y-101720147D01*
X86241335Y-101665000D01*
X85958665Y-101665000D01*
X85776114Y-101701312D01*
X85088792Y-101013991D01*
X85064989Y-100984987D01*
X84949264Y-100890014D01*
X84817235Y-100819442D01*
X84673974Y-100775985D01*
X84562321Y-100764988D01*
X84562310Y-100764988D01*
X84524988Y-100761312D01*
X84487666Y-100764988D01*
X84362461Y-100764988D01*
X84539607Y-100619608D01*
X84718932Y-100401101D01*
X84790000Y-100268142D01*
X84861068Y-100401100D01*
%TA.AperFunction,NonConductor*%
D26*
G36*
X84861068Y-100401100D02*
G01*
X85040392Y-100619607D01*
X85258899Y-100798932D01*
X85508192Y-100932182D01*
X85778691Y-101014236D01*
X86060000Y-101041943D01*
X86341308Y-101014236D01*
X86611807Y-100932182D01*
X86714991Y-100877029D01*
X86714991Y-101801505D01*
X86518574Y-101720147D01*
X86241335Y-101665000D01*
X85958665Y-101665000D01*
X85776114Y-101701312D01*
X85088792Y-101013991D01*
X85064989Y-100984987D01*
X84949264Y-100890014D01*
X84817235Y-100819442D01*
X84673974Y-100775985D01*
X84562321Y-100764988D01*
X84562310Y-100764988D01*
X84524988Y-100761312D01*
X84487666Y-100764988D01*
X84362461Y-100764988D01*
X84539607Y-100619608D01*
X84718932Y-100401101D01*
X84790000Y-100268142D01*
X84861068Y-100401100D01*
G37*
%TD.AperFunction*%
D25*
X79485241Y-96914637D02*
X79720273Y-97071680D01*
X79981426Y-97179853D01*
X80258665Y-97235000D01*
X80541335Y-97235000D01*
X80723886Y-97198688D01*
X80891930Y-97366731D01*
X80698692Y-97385764D01*
X80428193Y-97467818D01*
X80178900Y-97601068D01*
X79960393Y-97780392D01*
X79781068Y-97998899D01*
X79710000Y-98131858D01*
X79638932Y-97998899D01*
X79459608Y-97780392D01*
X79241101Y-97601068D01*
X78991808Y-97467818D01*
X78773274Y-97401527D01*
X79372703Y-96802099D01*
X79485241Y-96914637D01*
%TA.AperFunction,NonConductor*%
D26*
G36*
X79485241Y-96914637D02*
G01*
X79720273Y-97071680D01*
X79981426Y-97179853D01*
X80258665Y-97235000D01*
X80541335Y-97235000D01*
X80723886Y-97198688D01*
X80891930Y-97366731D01*
X80698692Y-97385764D01*
X80428193Y-97467818D01*
X80178900Y-97601068D01*
X79960393Y-97780392D01*
X79781068Y-97998899D01*
X79710000Y-98131858D01*
X79638932Y-97998899D01*
X79459608Y-97780392D01*
X79241101Y-97601068D01*
X78991808Y-97467818D01*
X78773274Y-97401527D01*
X79372703Y-96802099D01*
X79485241Y-96914637D01*
G37*
%TD.AperFunction*%
D25*
X81859999Y-95940001D02*
X81889002Y-95963804D01*
X82936200Y-97011002D01*
X82959999Y-97040001D01*
X82988997Y-97063799D01*
X83075723Y-97134974D01*
X83148707Y-97173985D01*
X83207753Y-97205546D01*
X83351014Y-97249003D01*
X83462667Y-97260000D01*
X83462677Y-97260000D01*
X83500000Y-97263676D01*
X83537323Y-97260000D01*
X85036203Y-97260000D01*
X85336039Y-97559836D01*
X85258900Y-97601068D01*
X85040393Y-97780392D01*
X84861068Y-97998899D01*
X84790000Y-98131858D01*
X84718932Y-97998899D01*
X84539608Y-97780392D01*
X84321101Y-97601068D01*
X84071808Y-97467818D01*
X83801309Y-97385764D01*
X83520000Y-97358057D01*
X83238692Y-97385764D01*
X83066008Y-97438146D01*
X83029964Y-97370713D01*
X82958789Y-97283987D01*
X82934991Y-97254989D01*
X82905993Y-97231191D01*
X81798688Y-96123886D01*
X81835000Y-95941335D01*
X81835000Y-95909539D01*
X81859999Y-95940001D01*
%TA.AperFunction,NonConductor*%
D26*
G36*
X81859999Y-95940001D02*
G01*
X81889002Y-95963804D01*
X82936200Y-97011002D01*
X82959999Y-97040001D01*
X82988997Y-97063799D01*
X83075723Y-97134974D01*
X83148707Y-97173985D01*
X83207753Y-97205546D01*
X83351014Y-97249003D01*
X83462667Y-97260000D01*
X83462677Y-97260000D01*
X83500000Y-97263676D01*
X83537323Y-97260000D01*
X85036203Y-97260000D01*
X85336039Y-97559836D01*
X85258900Y-97601068D01*
X85040393Y-97780392D01*
X84861068Y-97998899D01*
X84790000Y-98131858D01*
X84718932Y-97998899D01*
X84539608Y-97780392D01*
X84321101Y-97601068D01*
X84071808Y-97467818D01*
X83801309Y-97385764D01*
X83520000Y-97358057D01*
X83238692Y-97385764D01*
X83066008Y-97438146D01*
X83029964Y-97370713D01*
X82958789Y-97283987D01*
X82934991Y-97254989D01*
X82905993Y-97231191D01*
X81798688Y-96123886D01*
X81835000Y-95941335D01*
X81835000Y-95909539D01*
X81859999Y-95940001D01*
G37*
%TD.AperFunction*%
D25*
X78707688Y-93478505D02*
X78921495Y-93692312D01*
X79172905Y-93860299D01*
X79452257Y-93976011D01*
X79748816Y-94035000D01*
X80051184Y-94035000D01*
X80347743Y-93976011D01*
X80365001Y-93968862D01*
X80365001Y-94365000D01*
X80258665Y-94365000D01*
X79981426Y-94420147D01*
X79720273Y-94528320D01*
X79485241Y-94685363D01*
X79285363Y-94885241D01*
X79176271Y-95048509D01*
X79151014Y-95050997D01*
X79007753Y-95094454D01*
X78875723Y-95165026D01*
X78803883Y-95223984D01*
X78759999Y-95259999D01*
X78736201Y-95288997D01*
X76520607Y-97504592D01*
X76451808Y-97467818D01*
X76181309Y-97385764D01*
X75900000Y-97358057D01*
X75618692Y-97385764D01*
X75348193Y-97467818D01*
X75098900Y-97601068D01*
X74880393Y-97780392D01*
X74701068Y-97998899D01*
X74630000Y-98131858D01*
X74558932Y-97998899D01*
X74379608Y-97780392D01*
X74161101Y-97601068D01*
X73911808Y-97467818D01*
X73865909Y-97453895D01*
X76686003Y-94633801D01*
X76715000Y-94610004D01*
X76809973Y-94494279D01*
X76880545Y-94362250D01*
X76924002Y-94218989D01*
X76934999Y-94107336D01*
X76934999Y-94107327D01*
X76938675Y-94070004D01*
X76934999Y-94032681D01*
X76934999Y-93968862D01*
X76952257Y-93976011D01*
X77248816Y-94035000D01*
X77551184Y-94035000D01*
X77847743Y-93976011D01*
X78127095Y-93860299D01*
X78378505Y-93692312D01*
X78592312Y-93478505D01*
X78650000Y-93392169D01*
X78707688Y-93478505D01*
%TA.AperFunction,NonConductor*%
D26*
G36*
X78707688Y-93478505D02*
G01*
X78921495Y-93692312D01*
X79172905Y-93860299D01*
X79452257Y-93976011D01*
X79748816Y-94035000D01*
X80051184Y-94035000D01*
X80347743Y-93976011D01*
X80365001Y-93968862D01*
X80365001Y-94365000D01*
X80258665Y-94365000D01*
X79981426Y-94420147D01*
X79720273Y-94528320D01*
X79485241Y-94685363D01*
X79285363Y-94885241D01*
X79176271Y-95048509D01*
X79151014Y-95050997D01*
X79007753Y-95094454D01*
X78875723Y-95165026D01*
X78803883Y-95223984D01*
X78759999Y-95259999D01*
X78736201Y-95288997D01*
X76520607Y-97504592D01*
X76451808Y-97467818D01*
X76181309Y-97385764D01*
X75900000Y-97358057D01*
X75618692Y-97385764D01*
X75348193Y-97467818D01*
X75098900Y-97601068D01*
X74880393Y-97780392D01*
X74701068Y-97998899D01*
X74630000Y-98131858D01*
X74558932Y-97998899D01*
X74379608Y-97780392D01*
X74161101Y-97601068D01*
X73911808Y-97467818D01*
X73865909Y-97453895D01*
X76686003Y-94633801D01*
X76715000Y-94610004D01*
X76809973Y-94494279D01*
X76880545Y-94362250D01*
X76924002Y-94218989D01*
X76934999Y-94107336D01*
X76934999Y-94107327D01*
X76938675Y-94070004D01*
X76934999Y-94032681D01*
X76934999Y-93968862D01*
X76952257Y-93976011D01*
X77248816Y-94035000D01*
X77551184Y-94035000D01*
X77847743Y-93976011D01*
X78127095Y-93860299D01*
X78378505Y-93692312D01*
X78592312Y-93478505D01*
X78650000Y-93392169D01*
X78707688Y-93478505D01*
G37*
%TD.AperFunction*%
D25*
X84286811Y-82783010D02*
X84042241Y-82831658D01*
X83631857Y-83001645D01*
X83262521Y-83248427D01*
X82948427Y-83562521D01*
X82701645Y-83931857D01*
X82531658Y-84342241D01*
X82445000Y-84777902D01*
X82445000Y-85222098D01*
X82531658Y-85657759D01*
X82701645Y-86068143D01*
X82948427Y-86437479D01*
X83262521Y-86751573D01*
X83631857Y-86998355D01*
X84042241Y-87168342D01*
X84477902Y-87255000D01*
X84922098Y-87255000D01*
X85357759Y-87168342D01*
X85768143Y-86998355D01*
X86137479Y-86751573D01*
X86451573Y-86437479D01*
X86698355Y-86068143D01*
X86868342Y-85657759D01*
X86916990Y-85413190D01*
X87114999Y-85611199D01*
X87115000Y-96987667D01*
X87111323Y-97024999D01*
X87115000Y-97062332D01*
X87115145Y-97063799D01*
X87125997Y-97173984D01*
X87137408Y-97211602D01*
X85914808Y-95989003D01*
X85891005Y-95959999D01*
X85775280Y-95865026D01*
X85643251Y-95794454D01*
X85499990Y-95750997D01*
X85388337Y-95740000D01*
X85388326Y-95740000D01*
X85351004Y-95736324D01*
X85313682Y-95740000D01*
X83814802Y-95740000D01*
X83160000Y-95085199D01*
X83160000Y-94038072D01*
X83300000Y-94038072D01*
X83424482Y-94025812D01*
X83544180Y-93989502D01*
X83654494Y-93930537D01*
X83751185Y-93851185D01*
X83830537Y-93754494D01*
X83889502Y-93644180D01*
X83925812Y-93524482D01*
X83938072Y-93400000D01*
X83938072Y-91600000D01*
X83925812Y-91475518D01*
X83889502Y-91355820D01*
X83830537Y-91245506D01*
X83751185Y-91148815D01*
X83654494Y-91069463D01*
X83544180Y-91010498D01*
X83424482Y-90974188D01*
X83300000Y-90961928D01*
X81885001Y-90961928D01*
X81885001Y-90611213D01*
X82086010Y-90410204D01*
X82115013Y-90386402D01*
X82209986Y-90270677D01*
X82280558Y-90138648D01*
X82324015Y-89995387D01*
X82335012Y-89883734D01*
X82335012Y-89883726D01*
X82338688Y-89846401D01*
X82335012Y-89809076D01*
X82335012Y-84777336D01*
X82338688Y-84740013D01*
X82335012Y-84702691D01*
X82335012Y-84702681D01*
X82324015Y-84591028D01*
X82280558Y-84447767D01*
X82247763Y-84386412D01*
X82209986Y-84315737D01*
X82138811Y-84229011D01*
X82115013Y-84200013D01*
X82086015Y-84176215D01*
X80680778Y-82770978D01*
X80914759Y-82614637D01*
X81114637Y-82414759D01*
X81218043Y-82260000D01*
X83763801Y-82260000D01*
X84286811Y-82783010D01*
%TA.AperFunction,NonConductor*%
D26*
G36*
X84286811Y-82783010D02*
G01*
X84042241Y-82831658D01*
X83631857Y-83001645D01*
X83262521Y-83248427D01*
X82948427Y-83562521D01*
X82701645Y-83931857D01*
X82531658Y-84342241D01*
X82445000Y-84777902D01*
X82445000Y-85222098D01*
X82531658Y-85657759D01*
X82701645Y-86068143D01*
X82948427Y-86437479D01*
X83262521Y-86751573D01*
X83631857Y-86998355D01*
X84042241Y-87168342D01*
X84477902Y-87255000D01*
X84922098Y-87255000D01*
X85357759Y-87168342D01*
X85768143Y-86998355D01*
X86137479Y-86751573D01*
X86451573Y-86437479D01*
X86698355Y-86068143D01*
X86868342Y-85657759D01*
X86916990Y-85413190D01*
X87114999Y-85611199D01*
X87115000Y-96987667D01*
X87111323Y-97024999D01*
X87115000Y-97062332D01*
X87115145Y-97063799D01*
X87125997Y-97173984D01*
X87137408Y-97211602D01*
X85914808Y-95989003D01*
X85891005Y-95959999D01*
X85775280Y-95865026D01*
X85643251Y-95794454D01*
X85499990Y-95750997D01*
X85388337Y-95740000D01*
X85388326Y-95740000D01*
X85351004Y-95736324D01*
X85313682Y-95740000D01*
X83814802Y-95740000D01*
X83160000Y-95085199D01*
X83160000Y-94038072D01*
X83300000Y-94038072D01*
X83424482Y-94025812D01*
X83544180Y-93989502D01*
X83654494Y-93930537D01*
X83751185Y-93851185D01*
X83830537Y-93754494D01*
X83889502Y-93644180D01*
X83925812Y-93524482D01*
X83938072Y-93400000D01*
X83938072Y-91600000D01*
X83925812Y-91475518D01*
X83889502Y-91355820D01*
X83830537Y-91245506D01*
X83751185Y-91148815D01*
X83654494Y-91069463D01*
X83544180Y-91010498D01*
X83424482Y-90974188D01*
X83300000Y-90961928D01*
X81885001Y-90961928D01*
X81885001Y-90611213D01*
X82086010Y-90410204D01*
X82115013Y-90386402D01*
X82209986Y-90270677D01*
X82280558Y-90138648D01*
X82324015Y-89995387D01*
X82335012Y-89883734D01*
X82335012Y-89883726D01*
X82338688Y-89846401D01*
X82335012Y-89809076D01*
X82335012Y-84777336D01*
X82338688Y-84740013D01*
X82335012Y-84702691D01*
X82335012Y-84702681D01*
X82324015Y-84591028D01*
X82280558Y-84447767D01*
X82247763Y-84386412D01*
X82209986Y-84315737D01*
X82138811Y-84229011D01*
X82115013Y-84200013D01*
X82086015Y-84176215D01*
X80680778Y-82770978D01*
X80914759Y-82614637D01*
X81114637Y-82414759D01*
X81218043Y-82260000D01*
X83763801Y-82260000D01*
X84286811Y-82783010D01*
G37*
%TD.AperFunction*%
D25*
X79452257Y-91023989D02*
X79172905Y-91139701D01*
X78921495Y-91307688D01*
X78707688Y-91521495D01*
X78650000Y-91607831D01*
X78592312Y-91521495D01*
X78378505Y-91307688D01*
X78127095Y-91139701D01*
X78052852Y-91108948D01*
X78156799Y-91005001D01*
X79547717Y-91005001D01*
X79452257Y-91023989D01*
%TA.AperFunction,NonConductor*%
D26*
G36*
X79452257Y-91023989D02*
G01*
X79172905Y-91139701D01*
X78921495Y-91307688D01*
X78707688Y-91521495D01*
X78650000Y-91607831D01*
X78592312Y-91521495D01*
X78378505Y-91307688D01*
X78127095Y-91139701D01*
X78052852Y-91108948D01*
X78156799Y-91005001D01*
X79547717Y-91005001D01*
X79452257Y-91023989D01*
G37*
%TD.AperFunction*%
D25*
X80365002Y-91031138D02*
X80347743Y-91023989D01*
X80252283Y-91005001D01*
X80365002Y-91005001D01*
X80365002Y-91031138D01*
%TA.AperFunction,NonConductor*%
D26*
G36*
X80365002Y-91031138D02*
G01*
X80347743Y-91023989D01*
X80252283Y-91005001D01*
X80365002Y-91005001D01*
X80365002Y-91031138D01*
G37*
%TD.AperFunction*%
D25*
X79985764Y-78261309D02*
X80067818Y-78531808D01*
X80104592Y-78600607D01*
X79184988Y-79520211D01*
X79184988Y-78954815D01*
X79976146Y-78163658D01*
X79985764Y-78261309D01*
%TA.AperFunction,NonConductor*%
D26*
G36*
X79985764Y-78261309D02*
G01*
X80067818Y-78531808D01*
X80104592Y-78600607D01*
X79184988Y-79520211D01*
X79184988Y-78954815D01*
X79976146Y-78163658D01*
X79985764Y-78261309D01*
G37*
%TD.AperFunction*%
D25*
X83696200Y-78411002D02*
X83719999Y-78440001D01*
X83835724Y-78534974D01*
X83967753Y-78605546D01*
X84111014Y-78649003D01*
X84222667Y-78660000D01*
X84222676Y-78660000D01*
X84259999Y-78663676D01*
X84297322Y-78660000D01*
X85581957Y-78660000D01*
X85635411Y-78740000D01*
X83634802Y-78740000D01*
X83495408Y-78600607D01*
X83532182Y-78531808D01*
X83598473Y-78313275D01*
X83696200Y-78411002D01*
%TA.AperFunction,NonConductor*%
D26*
G36*
X83696200Y-78411002D02*
G01*
X83719999Y-78440001D01*
X83835724Y-78534974D01*
X83967753Y-78605546D01*
X84111014Y-78649003D01*
X84222667Y-78660000D01*
X84222676Y-78660000D01*
X84259999Y-78663676D01*
X84297322Y-78660000D01*
X85581957Y-78660000D01*
X85635411Y-78740000D01*
X83634802Y-78740000D01*
X83495408Y-78600607D01*
X83532182Y-78531808D01*
X83598473Y-78313275D01*
X83696200Y-78411002D01*
G37*
%TD.AperFunction*%
D25*
X85528320Y-76079727D02*
X85685363Y-76314759D01*
X85885241Y-76514637D01*
X86087827Y-76650000D01*
X85885241Y-76785363D01*
X85685363Y-76985241D01*
X85581957Y-77140000D01*
X84817150Y-77140000D01*
X84917205Y-76990256D01*
X84995226Y-76801898D01*
X85035000Y-76601939D01*
X85035000Y-76539801D01*
X85518583Y-76056219D01*
X85528320Y-76079727D01*
%TA.AperFunction,NonConductor*%
D26*
G36*
X85528320Y-76079727D02*
G01*
X85685363Y-76314759D01*
X85885241Y-76514637D01*
X86087827Y-76650000D01*
X85885241Y-76785363D01*
X85685363Y-76985241D01*
X85581957Y-77140000D01*
X84817150Y-77140000D01*
X84917205Y-76990256D01*
X84995226Y-76801898D01*
X85035000Y-76601939D01*
X85035000Y-76539801D01*
X85518583Y-76056219D01*
X85528320Y-76079727D01*
G37*
%TD.AperFunction*%
D25*
X84758665Y-74635000D02*
X84790198Y-74635000D01*
X83960199Y-75465000D01*
X83898061Y-75465000D01*
X83698102Y-75504774D01*
X83650175Y-75524626D01*
X84576114Y-74598688D01*
X84758665Y-74635000D01*
%TA.AperFunction,NonConductor*%
D26*
G36*
X84758665Y-74635000D02*
G01*
X84790198Y-74635000D01*
X83960199Y-75465000D01*
X83898061Y-75465000D01*
X83698102Y-75504774D01*
X83650175Y-75524626D01*
X84576114Y-74598688D01*
X84758665Y-74635000D01*
G37*
%TD.AperFunction*%
D25*
X91278716Y-73683914D02*
X91115408Y-73520606D01*
X91152182Y-73451808D01*
X91234236Y-73181309D01*
X91261943Y-72900000D01*
X91234236Y-72618691D01*
X91152182Y-72348192D01*
X91115408Y-72279393D01*
X91277188Y-72117614D01*
X91278716Y-73683914D01*
%TA.AperFunction,NonConductor*%
D26*
G36*
X91278716Y-73683914D02*
G01*
X91115408Y-73520606D01*
X91152182Y-73451808D01*
X91234236Y-73181309D01*
X91261943Y-72900000D01*
X91234236Y-72618691D01*
X91152182Y-72348192D01*
X91115408Y-72279393D01*
X91277188Y-72117614D01*
X91278716Y-73683914D01*
G37*
%TD.AperFunction*%
D25*
X87821068Y-71161101D02*
X88000392Y-71379608D01*
X88218899Y-71558932D01*
X88351858Y-71630000D01*
X88218899Y-71701068D01*
X88000392Y-71880392D01*
X87821068Y-72098899D01*
X87687818Y-72348192D01*
X87605764Y-72618691D01*
X87578057Y-72900000D01*
X87605764Y-73181309D01*
X87623568Y-73240000D01*
X86537323Y-73240000D01*
X86500000Y-73236324D01*
X86462677Y-73240000D01*
X86462667Y-73240000D01*
X86351014Y-73250997D01*
X86335000Y-73255855D01*
X86335000Y-73058665D01*
X86279853Y-72781426D01*
X86171680Y-72520273D01*
X86014637Y-72285241D01*
X85814759Y-72085363D01*
X85612173Y-71950000D01*
X85814759Y-71814637D01*
X86014637Y-71614759D01*
X86171680Y-71379727D01*
X86279262Y-71120000D01*
X87799099Y-71120000D01*
X87821068Y-71161101D01*
%TA.AperFunction,NonConductor*%
D26*
G36*
X87821068Y-71161101D02*
G01*
X88000392Y-71379608D01*
X88218899Y-71558932D01*
X88351858Y-71630000D01*
X88218899Y-71701068D01*
X88000392Y-71880392D01*
X87821068Y-72098899D01*
X87687818Y-72348192D01*
X87605764Y-72618691D01*
X87578057Y-72900000D01*
X87605764Y-73181309D01*
X87623568Y-73240000D01*
X86537323Y-73240000D01*
X86500000Y-73236324D01*
X86462677Y-73240000D01*
X86462667Y-73240000D01*
X86351014Y-73250997D01*
X86335000Y-73255855D01*
X86335000Y-73058665D01*
X86279853Y-72781426D01*
X86171680Y-72520273D01*
X86014637Y-72285241D01*
X85814759Y-72085363D01*
X85612173Y-71950000D01*
X85814759Y-71814637D01*
X86014637Y-71614759D01*
X86171680Y-71379727D01*
X86279262Y-71120000D01*
X87799099Y-71120000D01*
X87821068Y-71161101D01*
G37*
%TD.AperFunction*%
D25*
X83638072Y-70005678D02*
X83638072Y-69940001D01*
X83681956Y-69940001D01*
X83638072Y-70005678D01*
%TA.AperFunction,NonConductor*%
D26*
G36*
X83638072Y-70005678D02*
G01*
X83638072Y-69940001D01*
X83681956Y-69940001D01*
X83638072Y-70005678D01*
G37*
%TD.AperFunction*%
D25*
X80569463Y-68254494D02*
X80648815Y-68351185D01*
X80732668Y-68420001D01*
X80082962Y-68420001D01*
X80227095Y-68360299D01*
X80478505Y-68192312D01*
X80516120Y-68154697D01*
X80569463Y-68254494D01*
%TA.AperFunction,NonConductor*%
D26*
G36*
X80569463Y-68254494D02*
G01*
X80648815Y-68351185D01*
X80732668Y-68420001D01*
X80082962Y-68420001D01*
X80227095Y-68360299D01*
X80478505Y-68192312D01*
X80516120Y-68154697D01*
X80569463Y-68254494D01*
G37*
%TD.AperFunction*%
D25*
X83995961Y-38915302D02*
X84204698Y-39124039D01*
X84363281Y-39230000D01*
X84204698Y-39335961D01*
X83995961Y-39544698D01*
X83890000Y-39703281D01*
X83784039Y-39544698D01*
X83575302Y-39335961D01*
X83416719Y-39230000D01*
X83575302Y-39124039D01*
X83784039Y-38915302D01*
X83890000Y-38756719D01*
X83995961Y-38915302D01*
%TA.AperFunction,NonConductor*%
D26*
G36*
X83995961Y-38915302D02*
G01*
X84204698Y-39124039D01*
X84363281Y-39230000D01*
X84204698Y-39335961D01*
X83995961Y-39544698D01*
X83890000Y-39703281D01*
X83784039Y-39544698D01*
X83575302Y-39335961D01*
X83416719Y-39230000D01*
X83575302Y-39124039D01*
X83784039Y-38915302D01*
X83890000Y-38756719D01*
X83995961Y-38915302D01*
G37*
%TD.AperFunction*%
D25*
X78915961Y-38915302D02*
X79124698Y-39124039D01*
X79283281Y-39230000D01*
X79124698Y-39335961D01*
X78915961Y-39544698D01*
X78810000Y-39703281D01*
X78704039Y-39544698D01*
X78495302Y-39335961D01*
X78336719Y-39230000D01*
X78495302Y-39124039D01*
X78704039Y-38915302D01*
X78810000Y-38756719D01*
X78915961Y-38915302D01*
%TA.AperFunction,NonConductor*%
D26*
G36*
X78915961Y-38915302D02*
G01*
X79124698Y-39124039D01*
X79283281Y-39230000D01*
X79124698Y-39335961D01*
X78915961Y-39544698D01*
X78810000Y-39703281D01*
X78704039Y-39544698D01*
X78495302Y-39335961D01*
X78336719Y-39230000D01*
X78495302Y-39124039D01*
X78704039Y-38915302D01*
X78810000Y-38756719D01*
X78915961Y-38915302D01*
G37*
%TD.AperFunction*%
D25*
X81455961Y-38915302D02*
X81664698Y-39124039D01*
X81823281Y-39230000D01*
X81664698Y-39335961D01*
X81455961Y-39544698D01*
X81350000Y-39703281D01*
X81244039Y-39544698D01*
X81035302Y-39335961D01*
X80876719Y-39230000D01*
X81035302Y-39124039D01*
X81244039Y-38915302D01*
X81350000Y-38756719D01*
X81455961Y-38915302D01*
%TA.AperFunction,NonConductor*%
D26*
G36*
X81455961Y-38915302D02*
G01*
X81664698Y-39124039D01*
X81823281Y-39230000D01*
X81664698Y-39335961D01*
X81455961Y-39544698D01*
X81350000Y-39703281D01*
X81244039Y-39544698D01*
X81035302Y-39335961D01*
X80876719Y-39230000D01*
X81035302Y-39124039D01*
X81244039Y-38915302D01*
X81350000Y-38756719D01*
X81455961Y-38915302D01*
G37*
%TD.AperFunction*%
D25*
X76375961Y-38915302D02*
X76584698Y-39124039D01*
X76743281Y-39230000D01*
X76584698Y-39335961D01*
X76470636Y-39450023D01*
X76453102Y-39392220D01*
X76394137Y-39281906D01*
X76314785Y-39185215D01*
X76218094Y-39105863D01*
X76107780Y-39046898D01*
X76049977Y-39029364D01*
X76164039Y-38915302D01*
X76270000Y-38756719D01*
X76375961Y-38915302D01*
%TA.AperFunction,NonConductor*%
D26*
G36*
X76375961Y-38915302D02*
G01*
X76584698Y-39124039D01*
X76743281Y-39230000D01*
X76584698Y-39335961D01*
X76470636Y-39450023D01*
X76453102Y-39392220D01*
X76394137Y-39281906D01*
X76314785Y-39185215D01*
X76218094Y-39105863D01*
X76107780Y-39046898D01*
X76049977Y-39029364D01*
X76164039Y-38915302D01*
X76270000Y-38756719D01*
X76375961Y-38915302D01*
G37*
%TD.AperFunction*%
M02*
