M48
; DRILL file {KiCad (5.1.12-1-10_14)} date 2021 December 12, Sunday 17:33:14
; FORMAT={-:-/ absolute / inch / decimal}
; #@! TF.CreationDate,2021-12-12T17:33:14+01:00
; #@! TF.GenerationSoftware,Kicad,Pcbnew,(5.1.12-1-10_14)
; #@! TF.FileFunction,Plated,1,2,PTH
FMAT,2
INCH
T1C0.0157
T2C0.0315
T3C0.0394
T4C0.0400
T5C0.0472
T6C0.0709
%
G90
G05
T1
X3.3071Y-3.0118
T2
X2.7756Y-4.3181
X2.7756Y-4.6181
X2.7756Y-4.7079
X2.7756Y-5.0079
X2.7882Y-3.9055
X2.7882Y-4.2055
X2.7913Y-1.9094
X2.7953Y-3.2118
X2.7953Y-3.5118
X2.8071Y-2.7551
X2.8071Y-3.0551
X2.8654Y-3.7717
X2.8701Y-1.9094
X2.874Y-4.0591
X2.8882Y-3.9055
X2.8882Y-4.2055
X2.8976Y-4.7079
X2.8976Y-5.0079
X2.9016Y-4.3181
X2.9016Y-4.6181
X2.937Y-2.7551
X2.937Y-3.0551
X2.9724Y-4.0591
X2.9882Y-3.9055
X2.9882Y-4.2055
X3.0079Y-1.7913
X3.0079Y-2.0913
X3.0118Y-4.7079
X3.0118Y-5.0079
X3.0236Y-4.3189
X3.0236Y-4.6189
X3.063Y-2.7551
X3.063Y-3.0551
X3.0882Y-3.9055
X3.0882Y-4.2055
X3.1339Y-4.7087
X3.1339Y-5.0087
X3.1496Y-3.2087
X3.1496Y-3.5087
X3.1654Y-3.7717
X3.1882Y-3.9055
X3.1882Y-4.2055
X3.2205Y-2.7701
X3.2205Y-2.8701
X3.2205Y-2.9701
X3.2205Y-3.0701
X3.2559Y-4.7079
X3.2559Y-5.0079
X3.2835Y-1.7866
X3.2835Y-2.0866
X3.2882Y-3.9055
X3.2882Y-4.2055
X3.2913Y-4.0591
X3.3425Y-2.7835
X3.3425Y-2.8819
X3.3858Y-4.3189
X3.3858Y-4.6189
X3.3882Y-3.9055
X3.3882Y-4.2055
X3.3898Y-4.0591
X3.4173Y-2.9685
X3.4173Y-3.0669
X3.4213Y-1.9094
X3.4882Y-3.9055
X3.4882Y-4.2055
X3.4882Y-4.7047
X3.4882Y-5.0047
X3.5Y-1.9094
X3.5039Y-3.2039
X3.5039Y-3.5039
X3.5039Y-4.3181
X3.5039Y-4.6181
X3.5197Y-3.7354
X3.5197Y-4.0354
X3.5205Y-2.7701
X3.5205Y-2.8701
X3.5205Y-2.9701
X3.5205Y-3.0701
T3
X3.0315Y-2.6378
X3.0472Y-3.6417
X3.1299Y-2.6378
X3.1457Y-3.6417
X3.2283Y-2.6378
X3.2441Y-3.6417
T4
X2.9528Y-1.4945
X2.9528Y-1.5945
X3.0528Y-1.4945
X3.0528Y-1.5945
X3.1528Y-1.4945
X3.1528Y-1.5945
X3.2528Y-1.4945
X3.2528Y-1.5945
X3.3528Y-1.4945
X3.3528Y-1.5945
T5
X2.748Y-5.2362
X2.848Y-5.2362
X3.0Y-5.2362
X3.1Y-5.2362
X3.2362Y-5.2362
X3.3362Y-5.2362
X3.4528Y-5.2362
X3.5528Y-5.2362
T6
X2.9409Y-2.3425
X2.9567Y-3.3465
X3.3189Y-2.3425
X3.3346Y-3.3465
T0
M30
