%TF.GenerationSoftware,KiCad,Pcbnew,(5.1.12-1-10_14)*%
%TF.CreationDate,2023-08-05T21:55:12+02:00*%
%TF.ProjectId,niga,6e696761-2e6b-4696-9361-645f70636258,rev?*%
%TF.SameCoordinates,Original*%
%TF.FileFunction,Copper,L2,Bot*%
%TF.FilePolarity,Positive*%
%FSLAX46Y46*%
G04 Gerber Fmt 4.6, Leading zero omitted, Abs format (unit mm)*
G04 Created by KiCad (PCBNEW (5.1.12-1-10_14)) date 2023-08-05 21:55:12*
%MOMM*%
%LPD*%
G01*
G04 APERTURE LIST*
%TA.AperFunction,ComponentPad*%
%ADD10R,1.600000X1.600000*%
%TD*%
%TA.AperFunction,ComponentPad*%
%ADD11C,1.600000*%
%TD*%
%TA.AperFunction,ComponentPad*%
%ADD12O,1.600000X1.600000*%
%TD*%
%TA.AperFunction,ComponentPad*%
%ADD13O,1.740000X2.200000*%
%TD*%
%TA.AperFunction,ComponentPad*%
%ADD14R,1.727200X1.727200*%
%TD*%
%TA.AperFunction,ComponentPad*%
%ADD15O,1.727200X1.727200*%
%TD*%
%TA.AperFunction,ComponentPad*%
%ADD16R,2.400000X1.600000*%
%TD*%
%TA.AperFunction,ComponentPad*%
%ADD17O,2.400000X1.600000*%
%TD*%
%TA.AperFunction,Conductor*%
%ADD18C,0.250000*%
%TD*%
%TA.AperFunction,Conductor*%
%ADD19C,0.254000*%
%TD*%
%TA.AperFunction,Conductor*%
%ADD20C,0.100000*%
%TD*%
G04 APERTURE END LIST*
D10*
%TO.P,C1,1*%
%TO.N,Net-(C1-Pad1)*%
X218000000Y-66250000D03*
D11*
%TO.P,C1,2*%
%TO.N,GND*%
X215500000Y-66250000D03*
%TD*%
%TO.P,C2,2*%
%TO.N,Net-(C2-Pad2)*%
X209750000Y-66000000D03*
D10*
%TO.P,C2,1*%
%TO.N,GND*%
X207250000Y-66000000D03*
%TD*%
D11*
%TO.P,C3,1*%
%TO.N,GND*%
X221250000Y-78000000D03*
%TO.P,C3,2*%
%TO.N,Net-(C1-Pad1)*%
X221250000Y-75500000D03*
%TD*%
%TO.P,C4,2*%
%TO.N,GND*%
X221500000Y-83750000D03*
%TO.P,C4,1*%
%TO.N,Net-(C2-Pad2)*%
X221500000Y-81250000D03*
%TD*%
D10*
%TO.P,D1,1*%
%TO.N,Net-(C1-Pad1)*%
X222750000Y-69750000D03*
D12*
%TO.P,D1,2*%
%TO.N,Net-(D1-Pad2)*%
X222750000Y-62130000D03*
%TD*%
%TO.P,D2,2*%
%TO.N,Net-(C2-Pad2)*%
X202500000Y-69870000D03*
D10*
%TO.P,D2,1*%
%TO.N,Net-(D2-Pad1)*%
X202500000Y-62250000D03*
%TD*%
%TO.P,IN,1*%
%TO.N,Net-(J1-Pad1)*%
%TA.AperFunction,ComponentPad*%
G36*
G01*
X219120000Y-112899999D02*
X219120000Y-114600001D01*
G75*
G02*
X218870001Y-114850000I-249999J0D01*
G01*
X217629999Y-114850000D01*
G75*
G02*
X217380000Y-114600001I0J249999D01*
G01*
X217380000Y-112899999D01*
G75*
G02*
X217629999Y-112650000I249999J0D01*
G01*
X218870001Y-112650000D01*
G75*
G02*
X219120000Y-112899999I0J-249999D01*
G01*
G37*
%TD.AperFunction*%
D13*
%TO.P,IN,2*%
%TO.N,GND*%
X215710000Y-113750000D03*
%TD*%
%TO.P,OUT,2*%
%TO.N,GND*%
X204710000Y-113750000D03*
%TO.P,OUT,1*%
%TO.N,Net-(J2-Pad1)*%
%TA.AperFunction,ComponentPad*%
G36*
G01*
X208120000Y-112899999D02*
X208120000Y-114600001D01*
G75*
G02*
X207870001Y-114850000I-249999J0D01*
G01*
X206629999Y-114850000D01*
G75*
G02*
X206380000Y-114600001I0J249999D01*
G01*
X206380000Y-112899999D01*
G75*
G02*
X206629999Y-112650000I249999J0D01*
G01*
X207870001Y-112650000D01*
G75*
G02*
X208120000Y-112899999I0J-249999D01*
G01*
G37*
%TD.AperFunction*%
%TD*%
D14*
%TO.P,J3,1*%
%TO.N,Net-(D2-Pad1)*%
X207750000Y-56750000D03*
D15*
%TO.P,J3,2*%
X207750000Y-54210000D03*
%TO.P,J3,3*%
%TO.N,GND*%
X210290000Y-56750000D03*
%TO.P,J3,4*%
X210290000Y-54210000D03*
%TO.P,J3,5*%
X212830000Y-56750000D03*
%TO.P,J3,6*%
X212830000Y-54210000D03*
%TO.P,J3,7*%
X215370000Y-56750000D03*
%TO.P,J3,8*%
X215370000Y-54210000D03*
%TO.P,J3,9*%
%TO.N,Net-(D1-Pad2)*%
X217910000Y-56750000D03*
%TO.P,J3,10*%
X217910000Y-54210000D03*
%TD*%
D12*
%TO.P,R1,2*%
%TO.N,Net-(R1-Pad2)*%
X203250000Y-75840000D03*
D11*
%TO.P,R1,1*%
%TO.N,Net-(R1-Pad1)*%
X203250000Y-86000000D03*
%TD*%
%TO.P,R2,1*%
%TO.N,Net-(R2-Pad1)*%
X203250000Y-99000000D03*
D12*
%TO.P,R2,2*%
%TO.N,Net-(R1-Pad1)*%
X203250000Y-88840000D03*
%TD*%
%TO.P,R3,2*%
%TO.N,Net-(R3-Pad2)*%
X222000000Y-96660000D03*
D11*
%TO.P,R3,1*%
%TO.N,Net-(R3-Pad1)*%
X222000000Y-86500000D03*
%TD*%
%TO.P,R4,1*%
%TO.N,Net-(J2-Pad1)*%
X222000000Y-110000000D03*
D12*
%TO.P,R4,2*%
%TO.N,Net-(R4-Pad2)*%
X222000000Y-99840000D03*
%TD*%
%TO.P,10K,1*%
%TO.N,Net-(J1-Pad1)*%
%TA.AperFunction,ComponentPad*%
G36*
G01*
X215870000Y-88399999D02*
X215870000Y-90100001D01*
G75*
G02*
X215620001Y-90350000I-249999J0D01*
G01*
X214379999Y-90350000D01*
G75*
G02*
X214130000Y-90100001I0J249999D01*
G01*
X214130000Y-88399999D01*
G75*
G02*
X214379999Y-88150000I249999J0D01*
G01*
X215620001Y-88150000D01*
G75*
G02*
X215870000Y-88399999I0J-249999D01*
G01*
G37*
%TD.AperFunction*%
D13*
%TO.P,10K,2*%
%TO.N,Net-(RV1-Pad2)*%
X212460000Y-89250000D03*
%TO.P,10K,3*%
%TO.N,GND*%
X209920000Y-89250000D03*
%TD*%
%TO.P,10K,3*%
%TO.N,Net-(R1-Pad1)*%
X209920000Y-97500000D03*
%TO.P,10K,2*%
X212460000Y-97500000D03*
%TO.P,10K,1*%
%TO.N,GND*%
%TA.AperFunction,ComponentPad*%
G36*
G01*
X215870000Y-96649999D02*
X215870000Y-98350001D01*
G75*
G02*
X215620001Y-98600000I-249999J0D01*
G01*
X214379999Y-98600000D01*
G75*
G02*
X214130000Y-98350001I0J249999D01*
G01*
X214130000Y-96649999D01*
G75*
G02*
X214379999Y-96400000I249999J0D01*
G01*
X215620001Y-96400000D01*
G75*
G02*
X215870000Y-96649999I0J-249999D01*
G01*
G37*
%TD.AperFunction*%
%TD*%
%TO.P,10K,1*%
%TO.N,Net-(R2-Pad1)*%
%TA.AperFunction,ComponentPad*%
G36*
G01*
X215870000Y-104899999D02*
X215870000Y-106600001D01*
G75*
G02*
X215620001Y-106850000I-249999J0D01*
G01*
X214379999Y-106850000D01*
G75*
G02*
X214130000Y-106600001I0J249999D01*
G01*
X214130000Y-104899999D01*
G75*
G02*
X214379999Y-104650000I249999J0D01*
G01*
X215620001Y-104650000D01*
G75*
G02*
X215870000Y-104899999I0J-249999D01*
G01*
G37*
%TD.AperFunction*%
%TO.P,10K,2*%
%TO.N,Net-(R3-Pad2)*%
X212460000Y-105750000D03*
%TO.P,10K,3*%
%TO.N,GND*%
X209920000Y-105750000D03*
%TD*%
D16*
%TO.P,U1,1*%
%TO.N,Net-(R2-Pad1)*%
X208750000Y-73500000D03*
D17*
%TO.P,U1,5*%
%TO.N,Net-(R3-Pad1)*%
X216370000Y-81120000D03*
%TO.P,U1,2*%
%TO.N,Net-(R1-Pad2)*%
X208750000Y-76040000D03*
%TO.P,U1,6*%
%TO.N,Net-(R4-Pad2)*%
X216370000Y-78580000D03*
%TO.P,U1,3*%
%TO.N,Net-(RV1-Pad2)*%
X208750000Y-78580000D03*
%TO.P,U1,7*%
%TO.N,Net-(R4-Pad2)*%
X216370000Y-76040000D03*
%TO.P,U1,4*%
%TO.N,Net-(C2-Pad2)*%
X208750000Y-81120000D03*
%TO.P,U1,8*%
%TO.N,Net-(C1-Pad1)*%
X216370000Y-73500000D03*
%TD*%
D18*
%TO.N,Net-(C2-Pad2)*%
X205880000Y-69870000D02*
X202500000Y-69870000D01*
X209750000Y-66000000D02*
X205880000Y-69870000D01*
X205880000Y-78250000D02*
X205880000Y-69870000D01*
X208750000Y-81120000D02*
X205880000Y-78250000D01*
%TO.N,Net-(D1-Pad2)*%
X217910000Y-57290000D02*
X217910000Y-56750000D01*
X222750000Y-62130000D02*
X217910000Y-57290000D01*
X217910000Y-54210000D02*
X217910000Y-56750000D01*
%TO.N,Net-(D2-Pad1)*%
X207750000Y-54210000D02*
X207750000Y-56750000D01*
X207750000Y-57000000D02*
X202500000Y-62250000D01*
X207750000Y-56750000D02*
X207750000Y-57000000D01*
%TO.N,Net-(J1-Pad1)*%
X218250000Y-98466810D02*
X215000000Y-95216810D01*
X218250000Y-113750000D02*
X218250000Y-98466810D01*
X215000000Y-95216810D02*
X215000000Y-89250000D01*
%TO.N,Net-(R2-Pad1)*%
X210275010Y-75025010D02*
X210275010Y-83474990D01*
X208750000Y-73500000D02*
X210275010Y-75025010D01*
X203250000Y-90500000D02*
X203250000Y-99000000D01*
X210275010Y-83474990D02*
X203250000Y-90500000D01*
%TO.N,Net-(R4-Pad2)*%
X216370000Y-76040000D02*
X216370000Y-78580000D01*
X222000000Y-99840000D02*
X218000000Y-95840000D01*
X218000000Y-80210000D02*
X216370000Y-78580000D01*
X218000000Y-95840000D02*
X218000000Y-80210000D01*
%TD*%
D19*
%TO.N,Net-(C1-Pad1)*%
X216745961Y-57705302D02*
X216954698Y-57914039D01*
X217200147Y-58078042D01*
X217472875Y-58191010D01*
X217762401Y-58248600D01*
X217793799Y-58248600D01*
X221351312Y-61806114D01*
X221315000Y-61988665D01*
X221315000Y-62271335D01*
X221370147Y-62548574D01*
X221478320Y-62809727D01*
X221635363Y-63044759D01*
X221835241Y-63244637D01*
X222070273Y-63401680D01*
X222331426Y-63509853D01*
X222608665Y-63565000D01*
X222891335Y-63565000D01*
X223168574Y-63509853D01*
X223429727Y-63401680D01*
X223664759Y-63244637D01*
X223864637Y-63044759D01*
X224021680Y-62809727D01*
X224123000Y-62565119D01*
X224123000Y-68674947D01*
X224080537Y-68595506D01*
X224001185Y-68498815D01*
X223904494Y-68419463D01*
X223794180Y-68360498D01*
X223674482Y-68324188D01*
X223550000Y-68311928D01*
X223035750Y-68315000D01*
X222877000Y-68473750D01*
X222877000Y-69623000D01*
X222897000Y-69623000D01*
X222897000Y-69877000D01*
X222877000Y-69877000D01*
X222877000Y-71026250D01*
X223035750Y-71185000D01*
X223550000Y-71188072D01*
X223674482Y-71175812D01*
X223794180Y-71139502D01*
X223904494Y-71080537D01*
X224001185Y-71001185D01*
X224080537Y-70904494D01*
X224123000Y-70825053D01*
X224123000Y-118123000D01*
X201127000Y-118123000D01*
X201127000Y-113446064D01*
X203205000Y-113446064D01*
X203205000Y-114053935D01*
X203226776Y-114275031D01*
X203312834Y-114558724D01*
X203452583Y-114820178D01*
X203640655Y-115049345D01*
X203869821Y-115237417D01*
X204131275Y-115377166D01*
X204414968Y-115463224D01*
X204710000Y-115492282D01*
X205005031Y-115463224D01*
X205288724Y-115377166D01*
X205550178Y-115237417D01*
X205779345Y-115049345D01*
X205833066Y-114983886D01*
X205891595Y-115093387D01*
X206002038Y-115227962D01*
X206136613Y-115338405D01*
X206290149Y-115420472D01*
X206456745Y-115471008D01*
X206629999Y-115488072D01*
X207870001Y-115488072D01*
X208043255Y-115471008D01*
X208209851Y-115420472D01*
X208363387Y-115338405D01*
X208497962Y-115227962D01*
X208608405Y-115093387D01*
X208690472Y-114939851D01*
X208741008Y-114773255D01*
X208758072Y-114600001D01*
X208758072Y-112899999D01*
X208741008Y-112726745D01*
X208690472Y-112560149D01*
X208608405Y-112406613D01*
X208497962Y-112272038D01*
X208363387Y-112161595D01*
X208209851Y-112079528D01*
X208043255Y-112028992D01*
X207870001Y-112011928D01*
X206629999Y-112011928D01*
X206456745Y-112028992D01*
X206290149Y-112079528D01*
X206136613Y-112161595D01*
X206002038Y-112272038D01*
X205891595Y-112406613D01*
X205833066Y-112516114D01*
X205779345Y-112450655D01*
X205550179Y-112262583D01*
X205288725Y-112122834D01*
X205005032Y-112036776D01*
X204710000Y-112007718D01*
X204414969Y-112036776D01*
X204131276Y-112122834D01*
X203869822Y-112262583D01*
X203640655Y-112450655D01*
X203452583Y-112679821D01*
X203312834Y-112941275D01*
X203226776Y-113224968D01*
X203205000Y-113446064D01*
X201127000Y-113446064D01*
X201127000Y-106241964D01*
X201130115Y-106241964D01*
X201130115Y-106758036D01*
X201230795Y-107264192D01*
X201428288Y-107740981D01*
X201715002Y-108170080D01*
X202079920Y-108534998D01*
X202509019Y-108821712D01*
X202985808Y-109019205D01*
X203491964Y-109119885D01*
X204008036Y-109119885D01*
X204514192Y-109019205D01*
X204990981Y-108821712D01*
X205420080Y-108534998D01*
X205784998Y-108170080D01*
X206071712Y-107740981D01*
X206269205Y-107264192D01*
X206369885Y-106758036D01*
X206369885Y-106241964D01*
X206269205Y-105735808D01*
X206149189Y-105446064D01*
X208415000Y-105446064D01*
X208415000Y-106053935D01*
X208436776Y-106275031D01*
X208522834Y-106558724D01*
X208662583Y-106820178D01*
X208850655Y-107049345D01*
X209079821Y-107237417D01*
X209341275Y-107377166D01*
X209624968Y-107463224D01*
X209920000Y-107492282D01*
X210215031Y-107463224D01*
X210498724Y-107377166D01*
X210760178Y-107237417D01*
X210989345Y-107049345D01*
X211177417Y-106820179D01*
X211190000Y-106796637D01*
X211202583Y-106820178D01*
X211390655Y-107049345D01*
X211619821Y-107237417D01*
X211881275Y-107377166D01*
X212164968Y-107463224D01*
X212460000Y-107492282D01*
X212755031Y-107463224D01*
X213038724Y-107377166D01*
X213300178Y-107237417D01*
X213529345Y-107049345D01*
X213583066Y-106983886D01*
X213641595Y-107093387D01*
X213752038Y-107227962D01*
X213886613Y-107338405D01*
X214040149Y-107420472D01*
X214206745Y-107471008D01*
X214379999Y-107488072D01*
X215620001Y-107488072D01*
X215793255Y-107471008D01*
X215959851Y-107420472D01*
X216113387Y-107338405D01*
X216247962Y-107227962D01*
X216358405Y-107093387D01*
X216440472Y-106939851D01*
X216491008Y-106773255D01*
X216508072Y-106600001D01*
X216508072Y-104899999D01*
X216491008Y-104726745D01*
X216440472Y-104560149D01*
X216358405Y-104406613D01*
X216247962Y-104272038D01*
X216113387Y-104161595D01*
X215959851Y-104079528D01*
X215793255Y-104028992D01*
X215620001Y-104011928D01*
X214379999Y-104011928D01*
X214206745Y-104028992D01*
X214040149Y-104079528D01*
X213886613Y-104161595D01*
X213752038Y-104272038D01*
X213641595Y-104406613D01*
X213583066Y-104516114D01*
X213529345Y-104450655D01*
X213300179Y-104262583D01*
X213038725Y-104122834D01*
X212755032Y-104036776D01*
X212460000Y-104007718D01*
X212164969Y-104036776D01*
X211881276Y-104122834D01*
X211619822Y-104262583D01*
X211390655Y-104450655D01*
X211202583Y-104679821D01*
X211190000Y-104703362D01*
X211177417Y-104679821D01*
X210989345Y-104450655D01*
X210760179Y-104262583D01*
X210498725Y-104122834D01*
X210215032Y-104036776D01*
X209920000Y-104007718D01*
X209624969Y-104036776D01*
X209341276Y-104122834D01*
X209079822Y-104262583D01*
X208850655Y-104450655D01*
X208662583Y-104679821D01*
X208522834Y-104941275D01*
X208436776Y-105224968D01*
X208415000Y-105446064D01*
X206149189Y-105446064D01*
X206071712Y-105259019D01*
X205784998Y-104829920D01*
X205420080Y-104465002D01*
X204990981Y-104178288D01*
X204514192Y-103980795D01*
X204008036Y-103880115D01*
X203491964Y-103880115D01*
X202985808Y-103980795D01*
X202509019Y-104178288D01*
X202079920Y-104465002D01*
X201715002Y-104829920D01*
X201428288Y-105259019D01*
X201230795Y-105735808D01*
X201130115Y-106241964D01*
X201127000Y-106241964D01*
X201127000Y-75698665D01*
X201815000Y-75698665D01*
X201815000Y-75981335D01*
X201870147Y-76258574D01*
X201978320Y-76519727D01*
X202135363Y-76754759D01*
X202335241Y-76954637D01*
X202570273Y-77111680D01*
X202831426Y-77219853D01*
X203108665Y-77275000D01*
X203391335Y-77275000D01*
X203668574Y-77219853D01*
X203929727Y-77111680D01*
X204164759Y-76954637D01*
X204364637Y-76754759D01*
X204521680Y-76519727D01*
X204629853Y-76258574D01*
X204685000Y-75981335D01*
X204685000Y-75698665D01*
X204629853Y-75421426D01*
X204521680Y-75160273D01*
X204364637Y-74925241D01*
X204164759Y-74725363D01*
X203929727Y-74568320D01*
X203668574Y-74460147D01*
X203391335Y-74405000D01*
X203108665Y-74405000D01*
X202831426Y-74460147D01*
X202570273Y-74568320D01*
X202335241Y-74725363D01*
X202135363Y-74925241D01*
X201978320Y-75160273D01*
X201870147Y-75421426D01*
X201815000Y-75698665D01*
X201127000Y-75698665D01*
X201127000Y-70305119D01*
X201228320Y-70549727D01*
X201385363Y-70784759D01*
X201585241Y-70984637D01*
X201820273Y-71141680D01*
X202081426Y-71249853D01*
X202358665Y-71305000D01*
X202641335Y-71305000D01*
X202918574Y-71249853D01*
X203179727Y-71141680D01*
X203414759Y-70984637D01*
X203614637Y-70784759D01*
X203718043Y-70630000D01*
X205120001Y-70630000D01*
X205120000Y-78212678D01*
X205116324Y-78250000D01*
X205120000Y-78287322D01*
X205120000Y-78287332D01*
X205130997Y-78398985D01*
X205174454Y-78542246D01*
X205245026Y-78674276D01*
X205249500Y-78679727D01*
X205339999Y-78790001D01*
X205369003Y-78813804D01*
X207054592Y-80499393D01*
X207017818Y-80568192D01*
X206935764Y-80838691D01*
X206908057Y-81120000D01*
X206935764Y-81401309D01*
X207017818Y-81671808D01*
X207151068Y-81921101D01*
X207330392Y-82139608D01*
X207548899Y-82318932D01*
X207798192Y-82452182D01*
X208068691Y-82534236D01*
X208279508Y-82555000D01*
X209220492Y-82555000D01*
X209431309Y-82534236D01*
X209515011Y-82508846D01*
X209515011Y-83160186D01*
X204518975Y-88156224D01*
X204364637Y-87925241D01*
X204164759Y-87725363D01*
X203929727Y-87568320D01*
X203668574Y-87460147D01*
X203466744Y-87420000D01*
X203668574Y-87379853D01*
X203929727Y-87271680D01*
X204164759Y-87114637D01*
X204364637Y-86914759D01*
X204521680Y-86679727D01*
X204629853Y-86418574D01*
X204685000Y-86141335D01*
X204685000Y-85858665D01*
X204629853Y-85581426D01*
X204521680Y-85320273D01*
X204364637Y-85085241D01*
X204164759Y-84885363D01*
X203929727Y-84728320D01*
X203668574Y-84620147D01*
X203391335Y-84565000D01*
X203108665Y-84565000D01*
X202831426Y-84620147D01*
X202570273Y-84728320D01*
X202335241Y-84885363D01*
X202135363Y-85085241D01*
X201978320Y-85320273D01*
X201870147Y-85581426D01*
X201815000Y-85858665D01*
X201815000Y-86141335D01*
X201870147Y-86418574D01*
X201978320Y-86679727D01*
X202135363Y-86914759D01*
X202335241Y-87114637D01*
X202570273Y-87271680D01*
X202831426Y-87379853D01*
X203033256Y-87420000D01*
X202831426Y-87460147D01*
X202570273Y-87568320D01*
X202335241Y-87725363D01*
X202135363Y-87925241D01*
X201978320Y-88160273D01*
X201870147Y-88421426D01*
X201815000Y-88698665D01*
X201815000Y-88981335D01*
X201870147Y-89258574D01*
X201978320Y-89519727D01*
X202135363Y-89754759D01*
X202335241Y-89954637D01*
X202570273Y-90111680D01*
X202591179Y-90120339D01*
X202544454Y-90207754D01*
X202500997Y-90351015D01*
X202490000Y-90462668D01*
X202490000Y-90462678D01*
X202486324Y-90500000D01*
X202490000Y-90537322D01*
X202490001Y-97781956D01*
X202335241Y-97885363D01*
X202135363Y-98085241D01*
X201978320Y-98320273D01*
X201870147Y-98581426D01*
X201815000Y-98858665D01*
X201815000Y-99141335D01*
X201870147Y-99418574D01*
X201978320Y-99679727D01*
X202135363Y-99914759D01*
X202335241Y-100114637D01*
X202570273Y-100271680D01*
X202831426Y-100379853D01*
X203108665Y-100435000D01*
X203391335Y-100435000D01*
X203668574Y-100379853D01*
X203929727Y-100271680D01*
X204164759Y-100114637D01*
X204364637Y-99914759D01*
X204521680Y-99679727D01*
X204629853Y-99418574D01*
X204685000Y-99141335D01*
X204685000Y-98858665D01*
X204629853Y-98581426D01*
X204521680Y-98320273D01*
X204364637Y-98085241D01*
X204164759Y-97885363D01*
X204010000Y-97781957D01*
X204010000Y-90814801D01*
X205878737Y-88946064D01*
X208415000Y-88946064D01*
X208415000Y-89553935D01*
X208436776Y-89775031D01*
X208522834Y-90058724D01*
X208662583Y-90320178D01*
X208850655Y-90549345D01*
X209079821Y-90737417D01*
X209341275Y-90877166D01*
X209624968Y-90963224D01*
X209920000Y-90992282D01*
X210215031Y-90963224D01*
X210498724Y-90877166D01*
X210760178Y-90737417D01*
X210989345Y-90549345D01*
X211177417Y-90320179D01*
X211190000Y-90296637D01*
X211202583Y-90320178D01*
X211390655Y-90549345D01*
X211619821Y-90737417D01*
X211881275Y-90877166D01*
X212164968Y-90963224D01*
X212460000Y-90992282D01*
X212755031Y-90963224D01*
X213038724Y-90877166D01*
X213300178Y-90737417D01*
X213529345Y-90549345D01*
X213583066Y-90483886D01*
X213641595Y-90593387D01*
X213752038Y-90727962D01*
X213886613Y-90838405D01*
X214040149Y-90920472D01*
X214206745Y-90971008D01*
X214240001Y-90974283D01*
X214240000Y-95179487D01*
X214236324Y-95216810D01*
X214240000Y-95254132D01*
X214240000Y-95254142D01*
X214250997Y-95365795D01*
X214266143Y-95415724D01*
X214294454Y-95509056D01*
X214365026Y-95641086D01*
X214404871Y-95689636D01*
X214459999Y-95756811D01*
X214466234Y-95761928D01*
X214379999Y-95761928D01*
X214206745Y-95778992D01*
X214040149Y-95829528D01*
X213886613Y-95911595D01*
X213752038Y-96022038D01*
X213641595Y-96156613D01*
X213583066Y-96266114D01*
X213529345Y-96200655D01*
X213300179Y-96012583D01*
X213038725Y-95872834D01*
X212755032Y-95786776D01*
X212460000Y-95757718D01*
X212164969Y-95786776D01*
X211881276Y-95872834D01*
X211619822Y-96012583D01*
X211390655Y-96200655D01*
X211202583Y-96429821D01*
X211190000Y-96453362D01*
X211177417Y-96429821D01*
X210989345Y-96200655D01*
X210760179Y-96012583D01*
X210498725Y-95872834D01*
X210215032Y-95786776D01*
X209920000Y-95757718D01*
X209624969Y-95786776D01*
X209341276Y-95872834D01*
X209079822Y-96012583D01*
X208850655Y-96200655D01*
X208662583Y-96429821D01*
X208522834Y-96691275D01*
X208436776Y-96974968D01*
X208415000Y-97196064D01*
X208415000Y-97803935D01*
X208436776Y-98025031D01*
X208522834Y-98308724D01*
X208662583Y-98570178D01*
X208850655Y-98799345D01*
X209079821Y-98987417D01*
X209341275Y-99127166D01*
X209624968Y-99213224D01*
X209920000Y-99242282D01*
X210215031Y-99213224D01*
X210498724Y-99127166D01*
X210760178Y-98987417D01*
X210989345Y-98799345D01*
X211177417Y-98570179D01*
X211190000Y-98546637D01*
X211202583Y-98570178D01*
X211390655Y-98799345D01*
X211619821Y-98987417D01*
X211881275Y-99127166D01*
X212164968Y-99213224D01*
X212460000Y-99242282D01*
X212755031Y-99213224D01*
X213038724Y-99127166D01*
X213300178Y-98987417D01*
X213529345Y-98799345D01*
X213583066Y-98733886D01*
X213641595Y-98843387D01*
X213752038Y-98977962D01*
X213886613Y-99088405D01*
X214040149Y-99170472D01*
X214206745Y-99221008D01*
X214379999Y-99238072D01*
X215620001Y-99238072D01*
X215793255Y-99221008D01*
X215959851Y-99170472D01*
X216113387Y-99088405D01*
X216247962Y-98977962D01*
X216358405Y-98843387D01*
X216440472Y-98689851D01*
X216491008Y-98523255D01*
X216508072Y-98350001D01*
X216508072Y-97799684D01*
X217490001Y-98781613D01*
X217490000Y-112025717D01*
X217456745Y-112028992D01*
X217290149Y-112079528D01*
X217136613Y-112161595D01*
X217002038Y-112272038D01*
X216891595Y-112406613D01*
X216833066Y-112516114D01*
X216779345Y-112450655D01*
X216550179Y-112262583D01*
X216288725Y-112122834D01*
X216005032Y-112036776D01*
X215710000Y-112007718D01*
X215414969Y-112036776D01*
X215131276Y-112122834D01*
X214869822Y-112262583D01*
X214640655Y-112450655D01*
X214452583Y-112679821D01*
X214312834Y-112941275D01*
X214226776Y-113224968D01*
X214205000Y-113446064D01*
X214205000Y-114053935D01*
X214226776Y-114275031D01*
X214312834Y-114558724D01*
X214452583Y-114820178D01*
X214640655Y-115049345D01*
X214869821Y-115237417D01*
X215131275Y-115377166D01*
X215414968Y-115463224D01*
X215710000Y-115492282D01*
X216005031Y-115463224D01*
X216288724Y-115377166D01*
X216550178Y-115237417D01*
X216779345Y-115049345D01*
X216833066Y-114983886D01*
X216891595Y-115093387D01*
X217002038Y-115227962D01*
X217136613Y-115338405D01*
X217290149Y-115420472D01*
X217456745Y-115471008D01*
X217629999Y-115488072D01*
X218870001Y-115488072D01*
X219043255Y-115471008D01*
X219209851Y-115420472D01*
X219363387Y-115338405D01*
X219497962Y-115227962D01*
X219608405Y-115093387D01*
X219690472Y-114939851D01*
X219741008Y-114773255D01*
X219758072Y-114600001D01*
X219758072Y-112899999D01*
X219741008Y-112726745D01*
X219690472Y-112560149D01*
X219608405Y-112406613D01*
X219497962Y-112272038D01*
X219363387Y-112161595D01*
X219209851Y-112079528D01*
X219043255Y-112028992D01*
X219010000Y-112025717D01*
X219010000Y-109858665D01*
X220565000Y-109858665D01*
X220565000Y-110141335D01*
X220620147Y-110418574D01*
X220728320Y-110679727D01*
X220885363Y-110914759D01*
X221085241Y-111114637D01*
X221320273Y-111271680D01*
X221581426Y-111379853D01*
X221858665Y-111435000D01*
X222141335Y-111435000D01*
X222418574Y-111379853D01*
X222679727Y-111271680D01*
X222914759Y-111114637D01*
X223114637Y-110914759D01*
X223271680Y-110679727D01*
X223379853Y-110418574D01*
X223435000Y-110141335D01*
X223435000Y-109858665D01*
X223379853Y-109581426D01*
X223271680Y-109320273D01*
X223114637Y-109085241D01*
X222914759Y-108885363D01*
X222679727Y-108728320D01*
X222418574Y-108620147D01*
X222141335Y-108565000D01*
X221858665Y-108565000D01*
X221581426Y-108620147D01*
X221320273Y-108728320D01*
X221085241Y-108885363D01*
X220885363Y-109085241D01*
X220728320Y-109320273D01*
X220620147Y-109581426D01*
X220565000Y-109858665D01*
X219010000Y-109858665D01*
X219010000Y-98504132D01*
X219013676Y-98466809D01*
X219010000Y-98429486D01*
X219010000Y-98429477D01*
X218999003Y-98317824D01*
X218955546Y-98174563D01*
X218907802Y-98085241D01*
X218884974Y-98042533D01*
X218813799Y-97955807D01*
X218790001Y-97926809D01*
X218761003Y-97903011D01*
X215760000Y-94902009D01*
X215760000Y-90974283D01*
X215793255Y-90971008D01*
X215959851Y-90920472D01*
X216113387Y-90838405D01*
X216247962Y-90727962D01*
X216358405Y-90593387D01*
X216440472Y-90439851D01*
X216491008Y-90273255D01*
X216508072Y-90100001D01*
X216508072Y-88399999D01*
X216491008Y-88226745D01*
X216440472Y-88060149D01*
X216358405Y-87906613D01*
X216247962Y-87772038D01*
X216113387Y-87661595D01*
X215959851Y-87579528D01*
X215793255Y-87528992D01*
X215620001Y-87511928D01*
X214379999Y-87511928D01*
X214206745Y-87528992D01*
X214040149Y-87579528D01*
X213886613Y-87661595D01*
X213752038Y-87772038D01*
X213641595Y-87906613D01*
X213583066Y-88016114D01*
X213529345Y-87950655D01*
X213300179Y-87762583D01*
X213038725Y-87622834D01*
X212755032Y-87536776D01*
X212460000Y-87507718D01*
X212164969Y-87536776D01*
X211881276Y-87622834D01*
X211619822Y-87762583D01*
X211390655Y-87950655D01*
X211202583Y-88179821D01*
X211190000Y-88203362D01*
X211177417Y-88179821D01*
X210989345Y-87950655D01*
X210760179Y-87762583D01*
X210498725Y-87622834D01*
X210215032Y-87536776D01*
X209920000Y-87507718D01*
X209624969Y-87536776D01*
X209341276Y-87622834D01*
X209079822Y-87762583D01*
X208850655Y-87950655D01*
X208662583Y-88179821D01*
X208522834Y-88441275D01*
X208436776Y-88724968D01*
X208415000Y-88946064D01*
X205878737Y-88946064D01*
X210786018Y-84038785D01*
X210815011Y-84014991D01*
X210838805Y-83985998D01*
X210838809Y-83985994D01*
X210909983Y-83899267D01*
X210914223Y-83891335D01*
X210980556Y-83767237D01*
X211024013Y-83623976D01*
X211035010Y-83512323D01*
X211035010Y-83512314D01*
X211038686Y-83474991D01*
X211035010Y-83437668D01*
X211035010Y-76040000D01*
X214528057Y-76040000D01*
X214555764Y-76321309D01*
X214637818Y-76591808D01*
X214771068Y-76841101D01*
X214950392Y-77059608D01*
X215168899Y-77238932D01*
X215301858Y-77310000D01*
X215168899Y-77381068D01*
X214950392Y-77560392D01*
X214771068Y-77778899D01*
X214637818Y-78028192D01*
X214555764Y-78298691D01*
X214528057Y-78580000D01*
X214555764Y-78861309D01*
X214637818Y-79131808D01*
X214771068Y-79381101D01*
X214950392Y-79599608D01*
X215168899Y-79778932D01*
X215301858Y-79850000D01*
X215168899Y-79921068D01*
X214950392Y-80100392D01*
X214771068Y-80318899D01*
X214637818Y-80568192D01*
X214555764Y-80838691D01*
X214528057Y-81120000D01*
X214555764Y-81401309D01*
X214637818Y-81671808D01*
X214771068Y-81921101D01*
X214950392Y-82139608D01*
X215168899Y-82318932D01*
X215418192Y-82452182D01*
X215688691Y-82534236D01*
X215899508Y-82555000D01*
X216840492Y-82555000D01*
X217051309Y-82534236D01*
X217240001Y-82476998D01*
X217240000Y-95802678D01*
X217236324Y-95840000D01*
X217240000Y-95877322D01*
X217240000Y-95877332D01*
X217250997Y-95988985D01*
X217294454Y-96132246D01*
X217365026Y-96264276D01*
X217402673Y-96310149D01*
X217459999Y-96380001D01*
X217489003Y-96403804D01*
X220601312Y-99516114D01*
X220565000Y-99698665D01*
X220565000Y-99981335D01*
X220620147Y-100258574D01*
X220728320Y-100519727D01*
X220885363Y-100754759D01*
X221085241Y-100954637D01*
X221320273Y-101111680D01*
X221581426Y-101219853D01*
X221858665Y-101275000D01*
X222141335Y-101275000D01*
X222418574Y-101219853D01*
X222679727Y-101111680D01*
X222914759Y-100954637D01*
X223114637Y-100754759D01*
X223271680Y-100519727D01*
X223379853Y-100258574D01*
X223435000Y-99981335D01*
X223435000Y-99698665D01*
X223379853Y-99421426D01*
X223271680Y-99160273D01*
X223114637Y-98925241D01*
X222914759Y-98725363D01*
X222679727Y-98568320D01*
X222418574Y-98460147D01*
X222141335Y-98405000D01*
X221858665Y-98405000D01*
X221676114Y-98441312D01*
X219753467Y-96518665D01*
X220565000Y-96518665D01*
X220565000Y-96801335D01*
X220620147Y-97078574D01*
X220728320Y-97339727D01*
X220885363Y-97574759D01*
X221085241Y-97774637D01*
X221320273Y-97931680D01*
X221581426Y-98039853D01*
X221858665Y-98095000D01*
X222141335Y-98095000D01*
X222418574Y-98039853D01*
X222679727Y-97931680D01*
X222914759Y-97774637D01*
X223114637Y-97574759D01*
X223271680Y-97339727D01*
X223379853Y-97078574D01*
X223435000Y-96801335D01*
X223435000Y-96518665D01*
X223379853Y-96241426D01*
X223271680Y-95980273D01*
X223114637Y-95745241D01*
X222914759Y-95545363D01*
X222679727Y-95388320D01*
X222418574Y-95280147D01*
X222141335Y-95225000D01*
X221858665Y-95225000D01*
X221581426Y-95280147D01*
X221320273Y-95388320D01*
X221085241Y-95545363D01*
X220885363Y-95745241D01*
X220728320Y-95980273D01*
X220620147Y-96241426D01*
X220565000Y-96518665D01*
X219753467Y-96518665D01*
X218760000Y-95525199D01*
X218760000Y-81108665D01*
X220065000Y-81108665D01*
X220065000Y-81391335D01*
X220120147Y-81668574D01*
X220228320Y-81929727D01*
X220385363Y-82164759D01*
X220585241Y-82364637D01*
X220787827Y-82500000D01*
X220585241Y-82635363D01*
X220385363Y-82835241D01*
X220228320Y-83070273D01*
X220120147Y-83331426D01*
X220065000Y-83608665D01*
X220065000Y-83891335D01*
X220120147Y-84168574D01*
X220228320Y-84429727D01*
X220385363Y-84664759D01*
X220585241Y-84864637D01*
X220820273Y-85021680D01*
X221081426Y-85129853D01*
X221358665Y-85185000D01*
X221424857Y-85185000D01*
X221320273Y-85228320D01*
X221085241Y-85385363D01*
X220885363Y-85585241D01*
X220728320Y-85820273D01*
X220620147Y-86081426D01*
X220565000Y-86358665D01*
X220565000Y-86641335D01*
X220620147Y-86918574D01*
X220728320Y-87179727D01*
X220885363Y-87414759D01*
X221085241Y-87614637D01*
X221320273Y-87771680D01*
X221581426Y-87879853D01*
X221858665Y-87935000D01*
X222141335Y-87935000D01*
X222418574Y-87879853D01*
X222679727Y-87771680D01*
X222914759Y-87614637D01*
X223114637Y-87414759D01*
X223271680Y-87179727D01*
X223379853Y-86918574D01*
X223435000Y-86641335D01*
X223435000Y-86358665D01*
X223379853Y-86081426D01*
X223271680Y-85820273D01*
X223114637Y-85585241D01*
X222914759Y-85385363D01*
X222679727Y-85228320D01*
X222418574Y-85120147D01*
X222141335Y-85065000D01*
X222075143Y-85065000D01*
X222179727Y-85021680D01*
X222414759Y-84864637D01*
X222614637Y-84664759D01*
X222771680Y-84429727D01*
X222879853Y-84168574D01*
X222935000Y-83891335D01*
X222935000Y-83608665D01*
X222879853Y-83331426D01*
X222771680Y-83070273D01*
X222614637Y-82835241D01*
X222414759Y-82635363D01*
X222212173Y-82500000D01*
X222414759Y-82364637D01*
X222614637Y-82164759D01*
X222771680Y-81929727D01*
X222879853Y-81668574D01*
X222935000Y-81391335D01*
X222935000Y-81108665D01*
X222879853Y-80831426D01*
X222771680Y-80570273D01*
X222614637Y-80335241D01*
X222414759Y-80135363D01*
X222179727Y-79978320D01*
X221918574Y-79870147D01*
X221641335Y-79815000D01*
X221358665Y-79815000D01*
X221081426Y-79870147D01*
X220820273Y-79978320D01*
X220585241Y-80135363D01*
X220385363Y-80335241D01*
X220228320Y-80570273D01*
X220120147Y-80831426D01*
X220065000Y-81108665D01*
X218760000Y-81108665D01*
X218760000Y-80247322D01*
X218763676Y-80209999D01*
X218760000Y-80172676D01*
X218760000Y-80172667D01*
X218749003Y-80061014D01*
X218705546Y-79917753D01*
X218650623Y-79815000D01*
X218634974Y-79785723D01*
X218563799Y-79698997D01*
X218540001Y-79669999D01*
X218511003Y-79646201D01*
X218065408Y-79200607D01*
X218102182Y-79131808D01*
X218184236Y-78861309D01*
X218211943Y-78580000D01*
X218184236Y-78298691D01*
X218102182Y-78028192D01*
X218011568Y-77858665D01*
X219815000Y-77858665D01*
X219815000Y-78141335D01*
X219870147Y-78418574D01*
X219978320Y-78679727D01*
X220135363Y-78914759D01*
X220335241Y-79114637D01*
X220570273Y-79271680D01*
X220831426Y-79379853D01*
X221108665Y-79435000D01*
X221391335Y-79435000D01*
X221668574Y-79379853D01*
X221929727Y-79271680D01*
X222164759Y-79114637D01*
X222364637Y-78914759D01*
X222521680Y-78679727D01*
X222629853Y-78418574D01*
X222685000Y-78141335D01*
X222685000Y-77858665D01*
X222629853Y-77581426D01*
X222521680Y-77320273D01*
X222364637Y-77085241D01*
X222164759Y-76885363D01*
X221964131Y-76751308D01*
X221991514Y-76736671D01*
X222063097Y-76492702D01*
X221250000Y-75679605D01*
X220436903Y-76492702D01*
X220508486Y-76736671D01*
X220537341Y-76750324D01*
X220335241Y-76885363D01*
X220135363Y-77085241D01*
X219978320Y-77320273D01*
X219870147Y-77581426D01*
X219815000Y-77858665D01*
X218011568Y-77858665D01*
X217968932Y-77778899D01*
X217789608Y-77560392D01*
X217571101Y-77381068D01*
X217438142Y-77310000D01*
X217571101Y-77238932D01*
X217789608Y-77059608D01*
X217968932Y-76841101D01*
X218102182Y-76591808D01*
X218184236Y-76321309D01*
X218211943Y-76040000D01*
X218184236Y-75758691D01*
X218127154Y-75570512D01*
X219809783Y-75570512D01*
X219851213Y-75850130D01*
X219946397Y-76116292D01*
X220013329Y-76241514D01*
X220257298Y-76313097D01*
X221070395Y-75500000D01*
X221429605Y-75500000D01*
X222242702Y-76313097D01*
X222486671Y-76241514D01*
X222607571Y-75986004D01*
X222676300Y-75711816D01*
X222690217Y-75429488D01*
X222648787Y-75149870D01*
X222553603Y-74883708D01*
X222486671Y-74758486D01*
X222242702Y-74686903D01*
X221429605Y-75500000D01*
X221070395Y-75500000D01*
X220257298Y-74686903D01*
X220013329Y-74758486D01*
X219892429Y-75013996D01*
X219823700Y-75288184D01*
X219809783Y-75570512D01*
X218127154Y-75570512D01*
X218102182Y-75488192D01*
X217968932Y-75238899D01*
X217789608Y-75020392D01*
X217571101Y-74841068D01*
X217443259Y-74772735D01*
X217672839Y-74622601D01*
X217790448Y-74507298D01*
X220436903Y-74507298D01*
X221250000Y-75320395D01*
X222063097Y-74507298D01*
X221991514Y-74263329D01*
X221736004Y-74142429D01*
X221461816Y-74073700D01*
X221179488Y-74059783D01*
X220899870Y-74101213D01*
X220633708Y-74196397D01*
X220508486Y-74263329D01*
X220436903Y-74507298D01*
X217790448Y-74507298D01*
X217874500Y-74424895D01*
X218033715Y-74191646D01*
X218144367Y-73931818D01*
X218161904Y-73849039D01*
X218039915Y-73627000D01*
X216497000Y-73627000D01*
X216497000Y-73647000D01*
X216243000Y-73647000D01*
X216243000Y-73627000D01*
X214700085Y-73627000D01*
X214578096Y-73849039D01*
X214595633Y-73931818D01*
X214706285Y-74191646D01*
X214865500Y-74424895D01*
X215067161Y-74622601D01*
X215296741Y-74772735D01*
X215168899Y-74841068D01*
X214950392Y-75020392D01*
X214771068Y-75238899D01*
X214637818Y-75488192D01*
X214555764Y-75758691D01*
X214528057Y-76040000D01*
X211035010Y-76040000D01*
X211035010Y-75062333D01*
X211038686Y-75025010D01*
X211035010Y-74987687D01*
X211035010Y-74987677D01*
X211024013Y-74876024D01*
X210980556Y-74732763D01*
X210909984Y-74600734D01*
X210815011Y-74485009D01*
X210786014Y-74461212D01*
X210588072Y-74263270D01*
X210588072Y-73150961D01*
X214578096Y-73150961D01*
X214700085Y-73373000D01*
X216243000Y-73373000D01*
X216243000Y-72065000D01*
X216497000Y-72065000D01*
X216497000Y-73373000D01*
X218039915Y-73373000D01*
X218161904Y-73150961D01*
X218144367Y-73068182D01*
X218033715Y-72808354D01*
X217874500Y-72575105D01*
X217672839Y-72377399D01*
X217436483Y-72222834D01*
X217174514Y-72117350D01*
X216897000Y-72065000D01*
X216497000Y-72065000D01*
X216243000Y-72065000D01*
X215843000Y-72065000D01*
X215565486Y-72117350D01*
X215303517Y-72222834D01*
X215067161Y-72377399D01*
X214865500Y-72575105D01*
X214706285Y-72808354D01*
X214595633Y-73068182D01*
X214578096Y-73150961D01*
X210588072Y-73150961D01*
X210588072Y-72700000D01*
X210575812Y-72575518D01*
X210539502Y-72455820D01*
X210480537Y-72345506D01*
X210401185Y-72248815D01*
X210304494Y-72169463D01*
X210194180Y-72110498D01*
X210074482Y-72074188D01*
X209950000Y-72061928D01*
X207550000Y-72061928D01*
X207425518Y-72074188D01*
X207305820Y-72110498D01*
X207195506Y-72169463D01*
X207098815Y-72248815D01*
X207019463Y-72345506D01*
X206960498Y-72455820D01*
X206924188Y-72575518D01*
X206911928Y-72700000D01*
X206911928Y-74300000D01*
X206924188Y-74424482D01*
X206960498Y-74544180D01*
X207019463Y-74654494D01*
X207098815Y-74751185D01*
X207195506Y-74830537D01*
X207305820Y-74889502D01*
X207425518Y-74925812D01*
X207443482Y-74927581D01*
X207330392Y-75020392D01*
X207151068Y-75238899D01*
X207017818Y-75488192D01*
X206935764Y-75758691D01*
X206908057Y-76040000D01*
X206935764Y-76321309D01*
X207017818Y-76591808D01*
X207151068Y-76841101D01*
X207330392Y-77059608D01*
X207548899Y-77238932D01*
X207681858Y-77310000D01*
X207548899Y-77381068D01*
X207330392Y-77560392D01*
X207151068Y-77778899D01*
X207017818Y-78028192D01*
X206951527Y-78246726D01*
X206640000Y-77935199D01*
X206640000Y-70550000D01*
X221311928Y-70550000D01*
X221324188Y-70674482D01*
X221360498Y-70794180D01*
X221419463Y-70904494D01*
X221498815Y-71001185D01*
X221595506Y-71080537D01*
X221705820Y-71139502D01*
X221825518Y-71175812D01*
X221950000Y-71188072D01*
X222464250Y-71185000D01*
X222623000Y-71026250D01*
X222623000Y-69877000D01*
X221473750Y-69877000D01*
X221315000Y-70035750D01*
X221311928Y-70550000D01*
X206640000Y-70550000D01*
X206640000Y-70184801D01*
X207874801Y-68950000D01*
X221311928Y-68950000D01*
X221315000Y-69464250D01*
X221473750Y-69623000D01*
X222623000Y-69623000D01*
X222623000Y-68473750D01*
X222464250Y-68315000D01*
X221950000Y-68311928D01*
X221825518Y-68324188D01*
X221705820Y-68360498D01*
X221595506Y-68419463D01*
X221498815Y-68498815D01*
X221419463Y-68595506D01*
X221360498Y-68705820D01*
X221324188Y-68825518D01*
X221311928Y-68950000D01*
X207874801Y-68950000D01*
X209426115Y-67398688D01*
X209608665Y-67435000D01*
X209891335Y-67435000D01*
X210168574Y-67379853D01*
X210429727Y-67271680D01*
X210664759Y-67114637D01*
X210864637Y-66914759D01*
X211021680Y-66679727D01*
X211129853Y-66418574D01*
X211185000Y-66141335D01*
X211185000Y-66108665D01*
X214065000Y-66108665D01*
X214065000Y-66391335D01*
X214120147Y-66668574D01*
X214228320Y-66929727D01*
X214385363Y-67164759D01*
X214585241Y-67364637D01*
X214820273Y-67521680D01*
X215081426Y-67629853D01*
X215358665Y-67685000D01*
X215641335Y-67685000D01*
X215918574Y-67629853D01*
X216179727Y-67521680D01*
X216414759Y-67364637D01*
X216581339Y-67198057D01*
X216610498Y-67294180D01*
X216669463Y-67404494D01*
X216748815Y-67501185D01*
X216845506Y-67580537D01*
X216955820Y-67639502D01*
X217075518Y-67675812D01*
X217200000Y-67688072D01*
X217714250Y-67685000D01*
X217873000Y-67526250D01*
X217873000Y-66377000D01*
X218127000Y-66377000D01*
X218127000Y-67526250D01*
X218285750Y-67685000D01*
X218800000Y-67688072D01*
X218924482Y-67675812D01*
X219044180Y-67639502D01*
X219154494Y-67580537D01*
X219251185Y-67501185D01*
X219330537Y-67404494D01*
X219389502Y-67294180D01*
X219425812Y-67174482D01*
X219438072Y-67050000D01*
X219435000Y-66535750D01*
X219276250Y-66377000D01*
X218127000Y-66377000D01*
X217873000Y-66377000D01*
X217853000Y-66377000D01*
X217853000Y-66123000D01*
X217873000Y-66123000D01*
X217873000Y-64973750D01*
X218127000Y-64973750D01*
X218127000Y-66123000D01*
X219276250Y-66123000D01*
X219435000Y-65964250D01*
X219438072Y-65450000D01*
X219425812Y-65325518D01*
X219389502Y-65205820D01*
X219330537Y-65095506D01*
X219251185Y-64998815D01*
X219154494Y-64919463D01*
X219044180Y-64860498D01*
X218924482Y-64824188D01*
X218800000Y-64811928D01*
X218285750Y-64815000D01*
X218127000Y-64973750D01*
X217873000Y-64973750D01*
X217714250Y-64815000D01*
X217200000Y-64811928D01*
X217075518Y-64824188D01*
X216955820Y-64860498D01*
X216845506Y-64919463D01*
X216748815Y-64998815D01*
X216669463Y-65095506D01*
X216610498Y-65205820D01*
X216581339Y-65301943D01*
X216414759Y-65135363D01*
X216179727Y-64978320D01*
X215918574Y-64870147D01*
X215641335Y-64815000D01*
X215358665Y-64815000D01*
X215081426Y-64870147D01*
X214820273Y-64978320D01*
X214585241Y-65135363D01*
X214385363Y-65335241D01*
X214228320Y-65570273D01*
X214120147Y-65831426D01*
X214065000Y-66108665D01*
X211185000Y-66108665D01*
X211185000Y-65858665D01*
X211129853Y-65581426D01*
X211021680Y-65320273D01*
X210864637Y-65085241D01*
X210664759Y-64885363D01*
X210429727Y-64728320D01*
X210168574Y-64620147D01*
X209891335Y-64565000D01*
X209608665Y-64565000D01*
X209331426Y-64620147D01*
X209070273Y-64728320D01*
X208835241Y-64885363D01*
X208668661Y-65051943D01*
X208639502Y-64955820D01*
X208580537Y-64845506D01*
X208501185Y-64748815D01*
X208404494Y-64669463D01*
X208294180Y-64610498D01*
X208174482Y-64574188D01*
X208050000Y-64561928D01*
X206450000Y-64561928D01*
X206325518Y-64574188D01*
X206205820Y-64610498D01*
X206095506Y-64669463D01*
X205998815Y-64748815D01*
X205919463Y-64845506D01*
X205860498Y-64955820D01*
X205824188Y-65075518D01*
X205811928Y-65200000D01*
X205811928Y-66800000D01*
X205824188Y-66924482D01*
X205860498Y-67044180D01*
X205919463Y-67154494D01*
X205998815Y-67251185D01*
X206095506Y-67330537D01*
X206205820Y-67389502D01*
X206325518Y-67425812D01*
X206450000Y-67438072D01*
X207237126Y-67438072D01*
X205565199Y-69110000D01*
X203718043Y-69110000D01*
X203614637Y-68955241D01*
X203414759Y-68755363D01*
X203179727Y-68598320D01*
X202918574Y-68490147D01*
X202641335Y-68435000D01*
X202358665Y-68435000D01*
X202081426Y-68490147D01*
X201820273Y-68598320D01*
X201585241Y-68755363D01*
X201385363Y-68955241D01*
X201228320Y-69190273D01*
X201127000Y-69434881D01*
X201127000Y-63325053D01*
X201169463Y-63404494D01*
X201248815Y-63501185D01*
X201345506Y-63580537D01*
X201455820Y-63639502D01*
X201575518Y-63675812D01*
X201700000Y-63688072D01*
X203300000Y-63688072D01*
X203424482Y-63675812D01*
X203544180Y-63639502D01*
X203654494Y-63580537D01*
X203751185Y-63501185D01*
X203830537Y-63404494D01*
X203889502Y-63294180D01*
X203925812Y-63174482D01*
X203938072Y-63050000D01*
X203938072Y-61886729D01*
X207573130Y-58251672D01*
X208613600Y-58251672D01*
X208738082Y-58239412D01*
X208857780Y-58203102D01*
X208968094Y-58144137D01*
X209064785Y-58064785D01*
X209144137Y-57968094D01*
X209203102Y-57857780D01*
X209220636Y-57799977D01*
X209334698Y-57914039D01*
X209580147Y-58078042D01*
X209852875Y-58191010D01*
X210142401Y-58248600D01*
X210437599Y-58248600D01*
X210727125Y-58191010D01*
X210999853Y-58078042D01*
X211245302Y-57914039D01*
X211454039Y-57705302D01*
X211560000Y-57546719D01*
X211665961Y-57705302D01*
X211874698Y-57914039D01*
X212120147Y-58078042D01*
X212392875Y-58191010D01*
X212682401Y-58248600D01*
X212977599Y-58248600D01*
X213267125Y-58191010D01*
X213539853Y-58078042D01*
X213785302Y-57914039D01*
X213994039Y-57705302D01*
X214100000Y-57546719D01*
X214205961Y-57705302D01*
X214414698Y-57914039D01*
X214660147Y-58078042D01*
X214932875Y-58191010D01*
X215222401Y-58248600D01*
X215517599Y-58248600D01*
X215807125Y-58191010D01*
X216079853Y-58078042D01*
X216325302Y-57914039D01*
X216534039Y-57705302D01*
X216640000Y-57546719D01*
X216745961Y-57705302D01*
%TA.AperFunction,Conductor*%
D20*
G36*
X216745961Y-57705302D02*
G01*
X216954698Y-57914039D01*
X217200147Y-58078042D01*
X217472875Y-58191010D01*
X217762401Y-58248600D01*
X217793799Y-58248600D01*
X221351312Y-61806114D01*
X221315000Y-61988665D01*
X221315000Y-62271335D01*
X221370147Y-62548574D01*
X221478320Y-62809727D01*
X221635363Y-63044759D01*
X221835241Y-63244637D01*
X222070273Y-63401680D01*
X222331426Y-63509853D01*
X222608665Y-63565000D01*
X222891335Y-63565000D01*
X223168574Y-63509853D01*
X223429727Y-63401680D01*
X223664759Y-63244637D01*
X223864637Y-63044759D01*
X224021680Y-62809727D01*
X224123000Y-62565119D01*
X224123000Y-68674947D01*
X224080537Y-68595506D01*
X224001185Y-68498815D01*
X223904494Y-68419463D01*
X223794180Y-68360498D01*
X223674482Y-68324188D01*
X223550000Y-68311928D01*
X223035750Y-68315000D01*
X222877000Y-68473750D01*
X222877000Y-69623000D01*
X222897000Y-69623000D01*
X222897000Y-69877000D01*
X222877000Y-69877000D01*
X222877000Y-71026250D01*
X223035750Y-71185000D01*
X223550000Y-71188072D01*
X223674482Y-71175812D01*
X223794180Y-71139502D01*
X223904494Y-71080537D01*
X224001185Y-71001185D01*
X224080537Y-70904494D01*
X224123000Y-70825053D01*
X224123000Y-118123000D01*
X201127000Y-118123000D01*
X201127000Y-113446064D01*
X203205000Y-113446064D01*
X203205000Y-114053935D01*
X203226776Y-114275031D01*
X203312834Y-114558724D01*
X203452583Y-114820178D01*
X203640655Y-115049345D01*
X203869821Y-115237417D01*
X204131275Y-115377166D01*
X204414968Y-115463224D01*
X204710000Y-115492282D01*
X205005031Y-115463224D01*
X205288724Y-115377166D01*
X205550178Y-115237417D01*
X205779345Y-115049345D01*
X205833066Y-114983886D01*
X205891595Y-115093387D01*
X206002038Y-115227962D01*
X206136613Y-115338405D01*
X206290149Y-115420472D01*
X206456745Y-115471008D01*
X206629999Y-115488072D01*
X207870001Y-115488072D01*
X208043255Y-115471008D01*
X208209851Y-115420472D01*
X208363387Y-115338405D01*
X208497962Y-115227962D01*
X208608405Y-115093387D01*
X208690472Y-114939851D01*
X208741008Y-114773255D01*
X208758072Y-114600001D01*
X208758072Y-112899999D01*
X208741008Y-112726745D01*
X208690472Y-112560149D01*
X208608405Y-112406613D01*
X208497962Y-112272038D01*
X208363387Y-112161595D01*
X208209851Y-112079528D01*
X208043255Y-112028992D01*
X207870001Y-112011928D01*
X206629999Y-112011928D01*
X206456745Y-112028992D01*
X206290149Y-112079528D01*
X206136613Y-112161595D01*
X206002038Y-112272038D01*
X205891595Y-112406613D01*
X205833066Y-112516114D01*
X205779345Y-112450655D01*
X205550179Y-112262583D01*
X205288725Y-112122834D01*
X205005032Y-112036776D01*
X204710000Y-112007718D01*
X204414969Y-112036776D01*
X204131276Y-112122834D01*
X203869822Y-112262583D01*
X203640655Y-112450655D01*
X203452583Y-112679821D01*
X203312834Y-112941275D01*
X203226776Y-113224968D01*
X203205000Y-113446064D01*
X201127000Y-113446064D01*
X201127000Y-106241964D01*
X201130115Y-106241964D01*
X201130115Y-106758036D01*
X201230795Y-107264192D01*
X201428288Y-107740981D01*
X201715002Y-108170080D01*
X202079920Y-108534998D01*
X202509019Y-108821712D01*
X202985808Y-109019205D01*
X203491964Y-109119885D01*
X204008036Y-109119885D01*
X204514192Y-109019205D01*
X204990981Y-108821712D01*
X205420080Y-108534998D01*
X205784998Y-108170080D01*
X206071712Y-107740981D01*
X206269205Y-107264192D01*
X206369885Y-106758036D01*
X206369885Y-106241964D01*
X206269205Y-105735808D01*
X206149189Y-105446064D01*
X208415000Y-105446064D01*
X208415000Y-106053935D01*
X208436776Y-106275031D01*
X208522834Y-106558724D01*
X208662583Y-106820178D01*
X208850655Y-107049345D01*
X209079821Y-107237417D01*
X209341275Y-107377166D01*
X209624968Y-107463224D01*
X209920000Y-107492282D01*
X210215031Y-107463224D01*
X210498724Y-107377166D01*
X210760178Y-107237417D01*
X210989345Y-107049345D01*
X211177417Y-106820179D01*
X211190000Y-106796637D01*
X211202583Y-106820178D01*
X211390655Y-107049345D01*
X211619821Y-107237417D01*
X211881275Y-107377166D01*
X212164968Y-107463224D01*
X212460000Y-107492282D01*
X212755031Y-107463224D01*
X213038724Y-107377166D01*
X213300178Y-107237417D01*
X213529345Y-107049345D01*
X213583066Y-106983886D01*
X213641595Y-107093387D01*
X213752038Y-107227962D01*
X213886613Y-107338405D01*
X214040149Y-107420472D01*
X214206745Y-107471008D01*
X214379999Y-107488072D01*
X215620001Y-107488072D01*
X215793255Y-107471008D01*
X215959851Y-107420472D01*
X216113387Y-107338405D01*
X216247962Y-107227962D01*
X216358405Y-107093387D01*
X216440472Y-106939851D01*
X216491008Y-106773255D01*
X216508072Y-106600001D01*
X216508072Y-104899999D01*
X216491008Y-104726745D01*
X216440472Y-104560149D01*
X216358405Y-104406613D01*
X216247962Y-104272038D01*
X216113387Y-104161595D01*
X215959851Y-104079528D01*
X215793255Y-104028992D01*
X215620001Y-104011928D01*
X214379999Y-104011928D01*
X214206745Y-104028992D01*
X214040149Y-104079528D01*
X213886613Y-104161595D01*
X213752038Y-104272038D01*
X213641595Y-104406613D01*
X213583066Y-104516114D01*
X213529345Y-104450655D01*
X213300179Y-104262583D01*
X213038725Y-104122834D01*
X212755032Y-104036776D01*
X212460000Y-104007718D01*
X212164969Y-104036776D01*
X211881276Y-104122834D01*
X211619822Y-104262583D01*
X211390655Y-104450655D01*
X211202583Y-104679821D01*
X211190000Y-104703362D01*
X211177417Y-104679821D01*
X210989345Y-104450655D01*
X210760179Y-104262583D01*
X210498725Y-104122834D01*
X210215032Y-104036776D01*
X209920000Y-104007718D01*
X209624969Y-104036776D01*
X209341276Y-104122834D01*
X209079822Y-104262583D01*
X208850655Y-104450655D01*
X208662583Y-104679821D01*
X208522834Y-104941275D01*
X208436776Y-105224968D01*
X208415000Y-105446064D01*
X206149189Y-105446064D01*
X206071712Y-105259019D01*
X205784998Y-104829920D01*
X205420080Y-104465002D01*
X204990981Y-104178288D01*
X204514192Y-103980795D01*
X204008036Y-103880115D01*
X203491964Y-103880115D01*
X202985808Y-103980795D01*
X202509019Y-104178288D01*
X202079920Y-104465002D01*
X201715002Y-104829920D01*
X201428288Y-105259019D01*
X201230795Y-105735808D01*
X201130115Y-106241964D01*
X201127000Y-106241964D01*
X201127000Y-75698665D01*
X201815000Y-75698665D01*
X201815000Y-75981335D01*
X201870147Y-76258574D01*
X201978320Y-76519727D01*
X202135363Y-76754759D01*
X202335241Y-76954637D01*
X202570273Y-77111680D01*
X202831426Y-77219853D01*
X203108665Y-77275000D01*
X203391335Y-77275000D01*
X203668574Y-77219853D01*
X203929727Y-77111680D01*
X204164759Y-76954637D01*
X204364637Y-76754759D01*
X204521680Y-76519727D01*
X204629853Y-76258574D01*
X204685000Y-75981335D01*
X204685000Y-75698665D01*
X204629853Y-75421426D01*
X204521680Y-75160273D01*
X204364637Y-74925241D01*
X204164759Y-74725363D01*
X203929727Y-74568320D01*
X203668574Y-74460147D01*
X203391335Y-74405000D01*
X203108665Y-74405000D01*
X202831426Y-74460147D01*
X202570273Y-74568320D01*
X202335241Y-74725363D01*
X202135363Y-74925241D01*
X201978320Y-75160273D01*
X201870147Y-75421426D01*
X201815000Y-75698665D01*
X201127000Y-75698665D01*
X201127000Y-70305119D01*
X201228320Y-70549727D01*
X201385363Y-70784759D01*
X201585241Y-70984637D01*
X201820273Y-71141680D01*
X202081426Y-71249853D01*
X202358665Y-71305000D01*
X202641335Y-71305000D01*
X202918574Y-71249853D01*
X203179727Y-71141680D01*
X203414759Y-70984637D01*
X203614637Y-70784759D01*
X203718043Y-70630000D01*
X205120001Y-70630000D01*
X205120000Y-78212678D01*
X205116324Y-78250000D01*
X205120000Y-78287322D01*
X205120000Y-78287332D01*
X205130997Y-78398985D01*
X205174454Y-78542246D01*
X205245026Y-78674276D01*
X205249500Y-78679727D01*
X205339999Y-78790001D01*
X205369003Y-78813804D01*
X207054592Y-80499393D01*
X207017818Y-80568192D01*
X206935764Y-80838691D01*
X206908057Y-81120000D01*
X206935764Y-81401309D01*
X207017818Y-81671808D01*
X207151068Y-81921101D01*
X207330392Y-82139608D01*
X207548899Y-82318932D01*
X207798192Y-82452182D01*
X208068691Y-82534236D01*
X208279508Y-82555000D01*
X209220492Y-82555000D01*
X209431309Y-82534236D01*
X209515011Y-82508846D01*
X209515011Y-83160186D01*
X204518975Y-88156224D01*
X204364637Y-87925241D01*
X204164759Y-87725363D01*
X203929727Y-87568320D01*
X203668574Y-87460147D01*
X203466744Y-87420000D01*
X203668574Y-87379853D01*
X203929727Y-87271680D01*
X204164759Y-87114637D01*
X204364637Y-86914759D01*
X204521680Y-86679727D01*
X204629853Y-86418574D01*
X204685000Y-86141335D01*
X204685000Y-85858665D01*
X204629853Y-85581426D01*
X204521680Y-85320273D01*
X204364637Y-85085241D01*
X204164759Y-84885363D01*
X203929727Y-84728320D01*
X203668574Y-84620147D01*
X203391335Y-84565000D01*
X203108665Y-84565000D01*
X202831426Y-84620147D01*
X202570273Y-84728320D01*
X202335241Y-84885363D01*
X202135363Y-85085241D01*
X201978320Y-85320273D01*
X201870147Y-85581426D01*
X201815000Y-85858665D01*
X201815000Y-86141335D01*
X201870147Y-86418574D01*
X201978320Y-86679727D01*
X202135363Y-86914759D01*
X202335241Y-87114637D01*
X202570273Y-87271680D01*
X202831426Y-87379853D01*
X203033256Y-87420000D01*
X202831426Y-87460147D01*
X202570273Y-87568320D01*
X202335241Y-87725363D01*
X202135363Y-87925241D01*
X201978320Y-88160273D01*
X201870147Y-88421426D01*
X201815000Y-88698665D01*
X201815000Y-88981335D01*
X201870147Y-89258574D01*
X201978320Y-89519727D01*
X202135363Y-89754759D01*
X202335241Y-89954637D01*
X202570273Y-90111680D01*
X202591179Y-90120339D01*
X202544454Y-90207754D01*
X202500997Y-90351015D01*
X202490000Y-90462668D01*
X202490000Y-90462678D01*
X202486324Y-90500000D01*
X202490000Y-90537322D01*
X202490001Y-97781956D01*
X202335241Y-97885363D01*
X202135363Y-98085241D01*
X201978320Y-98320273D01*
X201870147Y-98581426D01*
X201815000Y-98858665D01*
X201815000Y-99141335D01*
X201870147Y-99418574D01*
X201978320Y-99679727D01*
X202135363Y-99914759D01*
X202335241Y-100114637D01*
X202570273Y-100271680D01*
X202831426Y-100379853D01*
X203108665Y-100435000D01*
X203391335Y-100435000D01*
X203668574Y-100379853D01*
X203929727Y-100271680D01*
X204164759Y-100114637D01*
X204364637Y-99914759D01*
X204521680Y-99679727D01*
X204629853Y-99418574D01*
X204685000Y-99141335D01*
X204685000Y-98858665D01*
X204629853Y-98581426D01*
X204521680Y-98320273D01*
X204364637Y-98085241D01*
X204164759Y-97885363D01*
X204010000Y-97781957D01*
X204010000Y-90814801D01*
X205878737Y-88946064D01*
X208415000Y-88946064D01*
X208415000Y-89553935D01*
X208436776Y-89775031D01*
X208522834Y-90058724D01*
X208662583Y-90320178D01*
X208850655Y-90549345D01*
X209079821Y-90737417D01*
X209341275Y-90877166D01*
X209624968Y-90963224D01*
X209920000Y-90992282D01*
X210215031Y-90963224D01*
X210498724Y-90877166D01*
X210760178Y-90737417D01*
X210989345Y-90549345D01*
X211177417Y-90320179D01*
X211190000Y-90296637D01*
X211202583Y-90320178D01*
X211390655Y-90549345D01*
X211619821Y-90737417D01*
X211881275Y-90877166D01*
X212164968Y-90963224D01*
X212460000Y-90992282D01*
X212755031Y-90963224D01*
X213038724Y-90877166D01*
X213300178Y-90737417D01*
X213529345Y-90549345D01*
X213583066Y-90483886D01*
X213641595Y-90593387D01*
X213752038Y-90727962D01*
X213886613Y-90838405D01*
X214040149Y-90920472D01*
X214206745Y-90971008D01*
X214240001Y-90974283D01*
X214240000Y-95179487D01*
X214236324Y-95216810D01*
X214240000Y-95254132D01*
X214240000Y-95254142D01*
X214250997Y-95365795D01*
X214266143Y-95415724D01*
X214294454Y-95509056D01*
X214365026Y-95641086D01*
X214404871Y-95689636D01*
X214459999Y-95756811D01*
X214466234Y-95761928D01*
X214379999Y-95761928D01*
X214206745Y-95778992D01*
X214040149Y-95829528D01*
X213886613Y-95911595D01*
X213752038Y-96022038D01*
X213641595Y-96156613D01*
X213583066Y-96266114D01*
X213529345Y-96200655D01*
X213300179Y-96012583D01*
X213038725Y-95872834D01*
X212755032Y-95786776D01*
X212460000Y-95757718D01*
X212164969Y-95786776D01*
X211881276Y-95872834D01*
X211619822Y-96012583D01*
X211390655Y-96200655D01*
X211202583Y-96429821D01*
X211190000Y-96453362D01*
X211177417Y-96429821D01*
X210989345Y-96200655D01*
X210760179Y-96012583D01*
X210498725Y-95872834D01*
X210215032Y-95786776D01*
X209920000Y-95757718D01*
X209624969Y-95786776D01*
X209341276Y-95872834D01*
X209079822Y-96012583D01*
X208850655Y-96200655D01*
X208662583Y-96429821D01*
X208522834Y-96691275D01*
X208436776Y-96974968D01*
X208415000Y-97196064D01*
X208415000Y-97803935D01*
X208436776Y-98025031D01*
X208522834Y-98308724D01*
X208662583Y-98570178D01*
X208850655Y-98799345D01*
X209079821Y-98987417D01*
X209341275Y-99127166D01*
X209624968Y-99213224D01*
X209920000Y-99242282D01*
X210215031Y-99213224D01*
X210498724Y-99127166D01*
X210760178Y-98987417D01*
X210989345Y-98799345D01*
X211177417Y-98570179D01*
X211190000Y-98546637D01*
X211202583Y-98570178D01*
X211390655Y-98799345D01*
X211619821Y-98987417D01*
X211881275Y-99127166D01*
X212164968Y-99213224D01*
X212460000Y-99242282D01*
X212755031Y-99213224D01*
X213038724Y-99127166D01*
X213300178Y-98987417D01*
X213529345Y-98799345D01*
X213583066Y-98733886D01*
X213641595Y-98843387D01*
X213752038Y-98977962D01*
X213886613Y-99088405D01*
X214040149Y-99170472D01*
X214206745Y-99221008D01*
X214379999Y-99238072D01*
X215620001Y-99238072D01*
X215793255Y-99221008D01*
X215959851Y-99170472D01*
X216113387Y-99088405D01*
X216247962Y-98977962D01*
X216358405Y-98843387D01*
X216440472Y-98689851D01*
X216491008Y-98523255D01*
X216508072Y-98350001D01*
X216508072Y-97799684D01*
X217490001Y-98781613D01*
X217490000Y-112025717D01*
X217456745Y-112028992D01*
X217290149Y-112079528D01*
X217136613Y-112161595D01*
X217002038Y-112272038D01*
X216891595Y-112406613D01*
X216833066Y-112516114D01*
X216779345Y-112450655D01*
X216550179Y-112262583D01*
X216288725Y-112122834D01*
X216005032Y-112036776D01*
X215710000Y-112007718D01*
X215414969Y-112036776D01*
X215131276Y-112122834D01*
X214869822Y-112262583D01*
X214640655Y-112450655D01*
X214452583Y-112679821D01*
X214312834Y-112941275D01*
X214226776Y-113224968D01*
X214205000Y-113446064D01*
X214205000Y-114053935D01*
X214226776Y-114275031D01*
X214312834Y-114558724D01*
X214452583Y-114820178D01*
X214640655Y-115049345D01*
X214869821Y-115237417D01*
X215131275Y-115377166D01*
X215414968Y-115463224D01*
X215710000Y-115492282D01*
X216005031Y-115463224D01*
X216288724Y-115377166D01*
X216550178Y-115237417D01*
X216779345Y-115049345D01*
X216833066Y-114983886D01*
X216891595Y-115093387D01*
X217002038Y-115227962D01*
X217136613Y-115338405D01*
X217290149Y-115420472D01*
X217456745Y-115471008D01*
X217629999Y-115488072D01*
X218870001Y-115488072D01*
X219043255Y-115471008D01*
X219209851Y-115420472D01*
X219363387Y-115338405D01*
X219497962Y-115227962D01*
X219608405Y-115093387D01*
X219690472Y-114939851D01*
X219741008Y-114773255D01*
X219758072Y-114600001D01*
X219758072Y-112899999D01*
X219741008Y-112726745D01*
X219690472Y-112560149D01*
X219608405Y-112406613D01*
X219497962Y-112272038D01*
X219363387Y-112161595D01*
X219209851Y-112079528D01*
X219043255Y-112028992D01*
X219010000Y-112025717D01*
X219010000Y-109858665D01*
X220565000Y-109858665D01*
X220565000Y-110141335D01*
X220620147Y-110418574D01*
X220728320Y-110679727D01*
X220885363Y-110914759D01*
X221085241Y-111114637D01*
X221320273Y-111271680D01*
X221581426Y-111379853D01*
X221858665Y-111435000D01*
X222141335Y-111435000D01*
X222418574Y-111379853D01*
X222679727Y-111271680D01*
X222914759Y-111114637D01*
X223114637Y-110914759D01*
X223271680Y-110679727D01*
X223379853Y-110418574D01*
X223435000Y-110141335D01*
X223435000Y-109858665D01*
X223379853Y-109581426D01*
X223271680Y-109320273D01*
X223114637Y-109085241D01*
X222914759Y-108885363D01*
X222679727Y-108728320D01*
X222418574Y-108620147D01*
X222141335Y-108565000D01*
X221858665Y-108565000D01*
X221581426Y-108620147D01*
X221320273Y-108728320D01*
X221085241Y-108885363D01*
X220885363Y-109085241D01*
X220728320Y-109320273D01*
X220620147Y-109581426D01*
X220565000Y-109858665D01*
X219010000Y-109858665D01*
X219010000Y-98504132D01*
X219013676Y-98466809D01*
X219010000Y-98429486D01*
X219010000Y-98429477D01*
X218999003Y-98317824D01*
X218955546Y-98174563D01*
X218907802Y-98085241D01*
X218884974Y-98042533D01*
X218813799Y-97955807D01*
X218790001Y-97926809D01*
X218761003Y-97903011D01*
X215760000Y-94902009D01*
X215760000Y-90974283D01*
X215793255Y-90971008D01*
X215959851Y-90920472D01*
X216113387Y-90838405D01*
X216247962Y-90727962D01*
X216358405Y-90593387D01*
X216440472Y-90439851D01*
X216491008Y-90273255D01*
X216508072Y-90100001D01*
X216508072Y-88399999D01*
X216491008Y-88226745D01*
X216440472Y-88060149D01*
X216358405Y-87906613D01*
X216247962Y-87772038D01*
X216113387Y-87661595D01*
X215959851Y-87579528D01*
X215793255Y-87528992D01*
X215620001Y-87511928D01*
X214379999Y-87511928D01*
X214206745Y-87528992D01*
X214040149Y-87579528D01*
X213886613Y-87661595D01*
X213752038Y-87772038D01*
X213641595Y-87906613D01*
X213583066Y-88016114D01*
X213529345Y-87950655D01*
X213300179Y-87762583D01*
X213038725Y-87622834D01*
X212755032Y-87536776D01*
X212460000Y-87507718D01*
X212164969Y-87536776D01*
X211881276Y-87622834D01*
X211619822Y-87762583D01*
X211390655Y-87950655D01*
X211202583Y-88179821D01*
X211190000Y-88203362D01*
X211177417Y-88179821D01*
X210989345Y-87950655D01*
X210760179Y-87762583D01*
X210498725Y-87622834D01*
X210215032Y-87536776D01*
X209920000Y-87507718D01*
X209624969Y-87536776D01*
X209341276Y-87622834D01*
X209079822Y-87762583D01*
X208850655Y-87950655D01*
X208662583Y-88179821D01*
X208522834Y-88441275D01*
X208436776Y-88724968D01*
X208415000Y-88946064D01*
X205878737Y-88946064D01*
X210786018Y-84038785D01*
X210815011Y-84014991D01*
X210838805Y-83985998D01*
X210838809Y-83985994D01*
X210909983Y-83899267D01*
X210914223Y-83891335D01*
X210980556Y-83767237D01*
X211024013Y-83623976D01*
X211035010Y-83512323D01*
X211035010Y-83512314D01*
X211038686Y-83474991D01*
X211035010Y-83437668D01*
X211035010Y-76040000D01*
X214528057Y-76040000D01*
X214555764Y-76321309D01*
X214637818Y-76591808D01*
X214771068Y-76841101D01*
X214950392Y-77059608D01*
X215168899Y-77238932D01*
X215301858Y-77310000D01*
X215168899Y-77381068D01*
X214950392Y-77560392D01*
X214771068Y-77778899D01*
X214637818Y-78028192D01*
X214555764Y-78298691D01*
X214528057Y-78580000D01*
X214555764Y-78861309D01*
X214637818Y-79131808D01*
X214771068Y-79381101D01*
X214950392Y-79599608D01*
X215168899Y-79778932D01*
X215301858Y-79850000D01*
X215168899Y-79921068D01*
X214950392Y-80100392D01*
X214771068Y-80318899D01*
X214637818Y-80568192D01*
X214555764Y-80838691D01*
X214528057Y-81120000D01*
X214555764Y-81401309D01*
X214637818Y-81671808D01*
X214771068Y-81921101D01*
X214950392Y-82139608D01*
X215168899Y-82318932D01*
X215418192Y-82452182D01*
X215688691Y-82534236D01*
X215899508Y-82555000D01*
X216840492Y-82555000D01*
X217051309Y-82534236D01*
X217240001Y-82476998D01*
X217240000Y-95802678D01*
X217236324Y-95840000D01*
X217240000Y-95877322D01*
X217240000Y-95877332D01*
X217250997Y-95988985D01*
X217294454Y-96132246D01*
X217365026Y-96264276D01*
X217402673Y-96310149D01*
X217459999Y-96380001D01*
X217489003Y-96403804D01*
X220601312Y-99516114D01*
X220565000Y-99698665D01*
X220565000Y-99981335D01*
X220620147Y-100258574D01*
X220728320Y-100519727D01*
X220885363Y-100754759D01*
X221085241Y-100954637D01*
X221320273Y-101111680D01*
X221581426Y-101219853D01*
X221858665Y-101275000D01*
X222141335Y-101275000D01*
X222418574Y-101219853D01*
X222679727Y-101111680D01*
X222914759Y-100954637D01*
X223114637Y-100754759D01*
X223271680Y-100519727D01*
X223379853Y-100258574D01*
X223435000Y-99981335D01*
X223435000Y-99698665D01*
X223379853Y-99421426D01*
X223271680Y-99160273D01*
X223114637Y-98925241D01*
X222914759Y-98725363D01*
X222679727Y-98568320D01*
X222418574Y-98460147D01*
X222141335Y-98405000D01*
X221858665Y-98405000D01*
X221676114Y-98441312D01*
X219753467Y-96518665D01*
X220565000Y-96518665D01*
X220565000Y-96801335D01*
X220620147Y-97078574D01*
X220728320Y-97339727D01*
X220885363Y-97574759D01*
X221085241Y-97774637D01*
X221320273Y-97931680D01*
X221581426Y-98039853D01*
X221858665Y-98095000D01*
X222141335Y-98095000D01*
X222418574Y-98039853D01*
X222679727Y-97931680D01*
X222914759Y-97774637D01*
X223114637Y-97574759D01*
X223271680Y-97339727D01*
X223379853Y-97078574D01*
X223435000Y-96801335D01*
X223435000Y-96518665D01*
X223379853Y-96241426D01*
X223271680Y-95980273D01*
X223114637Y-95745241D01*
X222914759Y-95545363D01*
X222679727Y-95388320D01*
X222418574Y-95280147D01*
X222141335Y-95225000D01*
X221858665Y-95225000D01*
X221581426Y-95280147D01*
X221320273Y-95388320D01*
X221085241Y-95545363D01*
X220885363Y-95745241D01*
X220728320Y-95980273D01*
X220620147Y-96241426D01*
X220565000Y-96518665D01*
X219753467Y-96518665D01*
X218760000Y-95525199D01*
X218760000Y-81108665D01*
X220065000Y-81108665D01*
X220065000Y-81391335D01*
X220120147Y-81668574D01*
X220228320Y-81929727D01*
X220385363Y-82164759D01*
X220585241Y-82364637D01*
X220787827Y-82500000D01*
X220585241Y-82635363D01*
X220385363Y-82835241D01*
X220228320Y-83070273D01*
X220120147Y-83331426D01*
X220065000Y-83608665D01*
X220065000Y-83891335D01*
X220120147Y-84168574D01*
X220228320Y-84429727D01*
X220385363Y-84664759D01*
X220585241Y-84864637D01*
X220820273Y-85021680D01*
X221081426Y-85129853D01*
X221358665Y-85185000D01*
X221424857Y-85185000D01*
X221320273Y-85228320D01*
X221085241Y-85385363D01*
X220885363Y-85585241D01*
X220728320Y-85820273D01*
X220620147Y-86081426D01*
X220565000Y-86358665D01*
X220565000Y-86641335D01*
X220620147Y-86918574D01*
X220728320Y-87179727D01*
X220885363Y-87414759D01*
X221085241Y-87614637D01*
X221320273Y-87771680D01*
X221581426Y-87879853D01*
X221858665Y-87935000D01*
X222141335Y-87935000D01*
X222418574Y-87879853D01*
X222679727Y-87771680D01*
X222914759Y-87614637D01*
X223114637Y-87414759D01*
X223271680Y-87179727D01*
X223379853Y-86918574D01*
X223435000Y-86641335D01*
X223435000Y-86358665D01*
X223379853Y-86081426D01*
X223271680Y-85820273D01*
X223114637Y-85585241D01*
X222914759Y-85385363D01*
X222679727Y-85228320D01*
X222418574Y-85120147D01*
X222141335Y-85065000D01*
X222075143Y-85065000D01*
X222179727Y-85021680D01*
X222414759Y-84864637D01*
X222614637Y-84664759D01*
X222771680Y-84429727D01*
X222879853Y-84168574D01*
X222935000Y-83891335D01*
X222935000Y-83608665D01*
X222879853Y-83331426D01*
X222771680Y-83070273D01*
X222614637Y-82835241D01*
X222414759Y-82635363D01*
X222212173Y-82500000D01*
X222414759Y-82364637D01*
X222614637Y-82164759D01*
X222771680Y-81929727D01*
X222879853Y-81668574D01*
X222935000Y-81391335D01*
X222935000Y-81108665D01*
X222879853Y-80831426D01*
X222771680Y-80570273D01*
X222614637Y-80335241D01*
X222414759Y-80135363D01*
X222179727Y-79978320D01*
X221918574Y-79870147D01*
X221641335Y-79815000D01*
X221358665Y-79815000D01*
X221081426Y-79870147D01*
X220820273Y-79978320D01*
X220585241Y-80135363D01*
X220385363Y-80335241D01*
X220228320Y-80570273D01*
X220120147Y-80831426D01*
X220065000Y-81108665D01*
X218760000Y-81108665D01*
X218760000Y-80247322D01*
X218763676Y-80209999D01*
X218760000Y-80172676D01*
X218760000Y-80172667D01*
X218749003Y-80061014D01*
X218705546Y-79917753D01*
X218650623Y-79815000D01*
X218634974Y-79785723D01*
X218563799Y-79698997D01*
X218540001Y-79669999D01*
X218511003Y-79646201D01*
X218065408Y-79200607D01*
X218102182Y-79131808D01*
X218184236Y-78861309D01*
X218211943Y-78580000D01*
X218184236Y-78298691D01*
X218102182Y-78028192D01*
X218011568Y-77858665D01*
X219815000Y-77858665D01*
X219815000Y-78141335D01*
X219870147Y-78418574D01*
X219978320Y-78679727D01*
X220135363Y-78914759D01*
X220335241Y-79114637D01*
X220570273Y-79271680D01*
X220831426Y-79379853D01*
X221108665Y-79435000D01*
X221391335Y-79435000D01*
X221668574Y-79379853D01*
X221929727Y-79271680D01*
X222164759Y-79114637D01*
X222364637Y-78914759D01*
X222521680Y-78679727D01*
X222629853Y-78418574D01*
X222685000Y-78141335D01*
X222685000Y-77858665D01*
X222629853Y-77581426D01*
X222521680Y-77320273D01*
X222364637Y-77085241D01*
X222164759Y-76885363D01*
X221964131Y-76751308D01*
X221991514Y-76736671D01*
X222063097Y-76492702D01*
X221250000Y-75679605D01*
X220436903Y-76492702D01*
X220508486Y-76736671D01*
X220537341Y-76750324D01*
X220335241Y-76885363D01*
X220135363Y-77085241D01*
X219978320Y-77320273D01*
X219870147Y-77581426D01*
X219815000Y-77858665D01*
X218011568Y-77858665D01*
X217968932Y-77778899D01*
X217789608Y-77560392D01*
X217571101Y-77381068D01*
X217438142Y-77310000D01*
X217571101Y-77238932D01*
X217789608Y-77059608D01*
X217968932Y-76841101D01*
X218102182Y-76591808D01*
X218184236Y-76321309D01*
X218211943Y-76040000D01*
X218184236Y-75758691D01*
X218127154Y-75570512D01*
X219809783Y-75570512D01*
X219851213Y-75850130D01*
X219946397Y-76116292D01*
X220013329Y-76241514D01*
X220257298Y-76313097D01*
X221070395Y-75500000D01*
X221429605Y-75500000D01*
X222242702Y-76313097D01*
X222486671Y-76241514D01*
X222607571Y-75986004D01*
X222676300Y-75711816D01*
X222690217Y-75429488D01*
X222648787Y-75149870D01*
X222553603Y-74883708D01*
X222486671Y-74758486D01*
X222242702Y-74686903D01*
X221429605Y-75500000D01*
X221070395Y-75500000D01*
X220257298Y-74686903D01*
X220013329Y-74758486D01*
X219892429Y-75013996D01*
X219823700Y-75288184D01*
X219809783Y-75570512D01*
X218127154Y-75570512D01*
X218102182Y-75488192D01*
X217968932Y-75238899D01*
X217789608Y-75020392D01*
X217571101Y-74841068D01*
X217443259Y-74772735D01*
X217672839Y-74622601D01*
X217790448Y-74507298D01*
X220436903Y-74507298D01*
X221250000Y-75320395D01*
X222063097Y-74507298D01*
X221991514Y-74263329D01*
X221736004Y-74142429D01*
X221461816Y-74073700D01*
X221179488Y-74059783D01*
X220899870Y-74101213D01*
X220633708Y-74196397D01*
X220508486Y-74263329D01*
X220436903Y-74507298D01*
X217790448Y-74507298D01*
X217874500Y-74424895D01*
X218033715Y-74191646D01*
X218144367Y-73931818D01*
X218161904Y-73849039D01*
X218039915Y-73627000D01*
X216497000Y-73627000D01*
X216497000Y-73647000D01*
X216243000Y-73647000D01*
X216243000Y-73627000D01*
X214700085Y-73627000D01*
X214578096Y-73849039D01*
X214595633Y-73931818D01*
X214706285Y-74191646D01*
X214865500Y-74424895D01*
X215067161Y-74622601D01*
X215296741Y-74772735D01*
X215168899Y-74841068D01*
X214950392Y-75020392D01*
X214771068Y-75238899D01*
X214637818Y-75488192D01*
X214555764Y-75758691D01*
X214528057Y-76040000D01*
X211035010Y-76040000D01*
X211035010Y-75062333D01*
X211038686Y-75025010D01*
X211035010Y-74987687D01*
X211035010Y-74987677D01*
X211024013Y-74876024D01*
X210980556Y-74732763D01*
X210909984Y-74600734D01*
X210815011Y-74485009D01*
X210786014Y-74461212D01*
X210588072Y-74263270D01*
X210588072Y-73150961D01*
X214578096Y-73150961D01*
X214700085Y-73373000D01*
X216243000Y-73373000D01*
X216243000Y-72065000D01*
X216497000Y-72065000D01*
X216497000Y-73373000D01*
X218039915Y-73373000D01*
X218161904Y-73150961D01*
X218144367Y-73068182D01*
X218033715Y-72808354D01*
X217874500Y-72575105D01*
X217672839Y-72377399D01*
X217436483Y-72222834D01*
X217174514Y-72117350D01*
X216897000Y-72065000D01*
X216497000Y-72065000D01*
X216243000Y-72065000D01*
X215843000Y-72065000D01*
X215565486Y-72117350D01*
X215303517Y-72222834D01*
X215067161Y-72377399D01*
X214865500Y-72575105D01*
X214706285Y-72808354D01*
X214595633Y-73068182D01*
X214578096Y-73150961D01*
X210588072Y-73150961D01*
X210588072Y-72700000D01*
X210575812Y-72575518D01*
X210539502Y-72455820D01*
X210480537Y-72345506D01*
X210401185Y-72248815D01*
X210304494Y-72169463D01*
X210194180Y-72110498D01*
X210074482Y-72074188D01*
X209950000Y-72061928D01*
X207550000Y-72061928D01*
X207425518Y-72074188D01*
X207305820Y-72110498D01*
X207195506Y-72169463D01*
X207098815Y-72248815D01*
X207019463Y-72345506D01*
X206960498Y-72455820D01*
X206924188Y-72575518D01*
X206911928Y-72700000D01*
X206911928Y-74300000D01*
X206924188Y-74424482D01*
X206960498Y-74544180D01*
X207019463Y-74654494D01*
X207098815Y-74751185D01*
X207195506Y-74830537D01*
X207305820Y-74889502D01*
X207425518Y-74925812D01*
X207443482Y-74927581D01*
X207330392Y-75020392D01*
X207151068Y-75238899D01*
X207017818Y-75488192D01*
X206935764Y-75758691D01*
X206908057Y-76040000D01*
X206935764Y-76321309D01*
X207017818Y-76591808D01*
X207151068Y-76841101D01*
X207330392Y-77059608D01*
X207548899Y-77238932D01*
X207681858Y-77310000D01*
X207548899Y-77381068D01*
X207330392Y-77560392D01*
X207151068Y-77778899D01*
X207017818Y-78028192D01*
X206951527Y-78246726D01*
X206640000Y-77935199D01*
X206640000Y-70550000D01*
X221311928Y-70550000D01*
X221324188Y-70674482D01*
X221360498Y-70794180D01*
X221419463Y-70904494D01*
X221498815Y-71001185D01*
X221595506Y-71080537D01*
X221705820Y-71139502D01*
X221825518Y-71175812D01*
X221950000Y-71188072D01*
X222464250Y-71185000D01*
X222623000Y-71026250D01*
X222623000Y-69877000D01*
X221473750Y-69877000D01*
X221315000Y-70035750D01*
X221311928Y-70550000D01*
X206640000Y-70550000D01*
X206640000Y-70184801D01*
X207874801Y-68950000D01*
X221311928Y-68950000D01*
X221315000Y-69464250D01*
X221473750Y-69623000D01*
X222623000Y-69623000D01*
X222623000Y-68473750D01*
X222464250Y-68315000D01*
X221950000Y-68311928D01*
X221825518Y-68324188D01*
X221705820Y-68360498D01*
X221595506Y-68419463D01*
X221498815Y-68498815D01*
X221419463Y-68595506D01*
X221360498Y-68705820D01*
X221324188Y-68825518D01*
X221311928Y-68950000D01*
X207874801Y-68950000D01*
X209426115Y-67398688D01*
X209608665Y-67435000D01*
X209891335Y-67435000D01*
X210168574Y-67379853D01*
X210429727Y-67271680D01*
X210664759Y-67114637D01*
X210864637Y-66914759D01*
X211021680Y-66679727D01*
X211129853Y-66418574D01*
X211185000Y-66141335D01*
X211185000Y-66108665D01*
X214065000Y-66108665D01*
X214065000Y-66391335D01*
X214120147Y-66668574D01*
X214228320Y-66929727D01*
X214385363Y-67164759D01*
X214585241Y-67364637D01*
X214820273Y-67521680D01*
X215081426Y-67629853D01*
X215358665Y-67685000D01*
X215641335Y-67685000D01*
X215918574Y-67629853D01*
X216179727Y-67521680D01*
X216414759Y-67364637D01*
X216581339Y-67198057D01*
X216610498Y-67294180D01*
X216669463Y-67404494D01*
X216748815Y-67501185D01*
X216845506Y-67580537D01*
X216955820Y-67639502D01*
X217075518Y-67675812D01*
X217200000Y-67688072D01*
X217714250Y-67685000D01*
X217873000Y-67526250D01*
X217873000Y-66377000D01*
X218127000Y-66377000D01*
X218127000Y-67526250D01*
X218285750Y-67685000D01*
X218800000Y-67688072D01*
X218924482Y-67675812D01*
X219044180Y-67639502D01*
X219154494Y-67580537D01*
X219251185Y-67501185D01*
X219330537Y-67404494D01*
X219389502Y-67294180D01*
X219425812Y-67174482D01*
X219438072Y-67050000D01*
X219435000Y-66535750D01*
X219276250Y-66377000D01*
X218127000Y-66377000D01*
X217873000Y-66377000D01*
X217853000Y-66377000D01*
X217853000Y-66123000D01*
X217873000Y-66123000D01*
X217873000Y-64973750D01*
X218127000Y-64973750D01*
X218127000Y-66123000D01*
X219276250Y-66123000D01*
X219435000Y-65964250D01*
X219438072Y-65450000D01*
X219425812Y-65325518D01*
X219389502Y-65205820D01*
X219330537Y-65095506D01*
X219251185Y-64998815D01*
X219154494Y-64919463D01*
X219044180Y-64860498D01*
X218924482Y-64824188D01*
X218800000Y-64811928D01*
X218285750Y-64815000D01*
X218127000Y-64973750D01*
X217873000Y-64973750D01*
X217714250Y-64815000D01*
X217200000Y-64811928D01*
X217075518Y-64824188D01*
X216955820Y-64860498D01*
X216845506Y-64919463D01*
X216748815Y-64998815D01*
X216669463Y-65095506D01*
X216610498Y-65205820D01*
X216581339Y-65301943D01*
X216414759Y-65135363D01*
X216179727Y-64978320D01*
X215918574Y-64870147D01*
X215641335Y-64815000D01*
X215358665Y-64815000D01*
X215081426Y-64870147D01*
X214820273Y-64978320D01*
X214585241Y-65135363D01*
X214385363Y-65335241D01*
X214228320Y-65570273D01*
X214120147Y-65831426D01*
X214065000Y-66108665D01*
X211185000Y-66108665D01*
X211185000Y-65858665D01*
X211129853Y-65581426D01*
X211021680Y-65320273D01*
X210864637Y-65085241D01*
X210664759Y-64885363D01*
X210429727Y-64728320D01*
X210168574Y-64620147D01*
X209891335Y-64565000D01*
X209608665Y-64565000D01*
X209331426Y-64620147D01*
X209070273Y-64728320D01*
X208835241Y-64885363D01*
X208668661Y-65051943D01*
X208639502Y-64955820D01*
X208580537Y-64845506D01*
X208501185Y-64748815D01*
X208404494Y-64669463D01*
X208294180Y-64610498D01*
X208174482Y-64574188D01*
X208050000Y-64561928D01*
X206450000Y-64561928D01*
X206325518Y-64574188D01*
X206205820Y-64610498D01*
X206095506Y-64669463D01*
X205998815Y-64748815D01*
X205919463Y-64845506D01*
X205860498Y-64955820D01*
X205824188Y-65075518D01*
X205811928Y-65200000D01*
X205811928Y-66800000D01*
X205824188Y-66924482D01*
X205860498Y-67044180D01*
X205919463Y-67154494D01*
X205998815Y-67251185D01*
X206095506Y-67330537D01*
X206205820Y-67389502D01*
X206325518Y-67425812D01*
X206450000Y-67438072D01*
X207237126Y-67438072D01*
X205565199Y-69110000D01*
X203718043Y-69110000D01*
X203614637Y-68955241D01*
X203414759Y-68755363D01*
X203179727Y-68598320D01*
X202918574Y-68490147D01*
X202641335Y-68435000D01*
X202358665Y-68435000D01*
X202081426Y-68490147D01*
X201820273Y-68598320D01*
X201585241Y-68755363D01*
X201385363Y-68955241D01*
X201228320Y-69190273D01*
X201127000Y-69434881D01*
X201127000Y-63325053D01*
X201169463Y-63404494D01*
X201248815Y-63501185D01*
X201345506Y-63580537D01*
X201455820Y-63639502D01*
X201575518Y-63675812D01*
X201700000Y-63688072D01*
X203300000Y-63688072D01*
X203424482Y-63675812D01*
X203544180Y-63639502D01*
X203654494Y-63580537D01*
X203751185Y-63501185D01*
X203830537Y-63404494D01*
X203889502Y-63294180D01*
X203925812Y-63174482D01*
X203938072Y-63050000D01*
X203938072Y-61886729D01*
X207573130Y-58251672D01*
X208613600Y-58251672D01*
X208738082Y-58239412D01*
X208857780Y-58203102D01*
X208968094Y-58144137D01*
X209064785Y-58064785D01*
X209144137Y-57968094D01*
X209203102Y-57857780D01*
X209220636Y-57799977D01*
X209334698Y-57914039D01*
X209580147Y-58078042D01*
X209852875Y-58191010D01*
X210142401Y-58248600D01*
X210437599Y-58248600D01*
X210727125Y-58191010D01*
X210999853Y-58078042D01*
X211245302Y-57914039D01*
X211454039Y-57705302D01*
X211560000Y-57546719D01*
X211665961Y-57705302D01*
X211874698Y-57914039D01*
X212120147Y-58078042D01*
X212392875Y-58191010D01*
X212682401Y-58248600D01*
X212977599Y-58248600D01*
X213267125Y-58191010D01*
X213539853Y-58078042D01*
X213785302Y-57914039D01*
X213994039Y-57705302D01*
X214100000Y-57546719D01*
X214205961Y-57705302D01*
X214414698Y-57914039D01*
X214660147Y-58078042D01*
X214932875Y-58191010D01*
X215222401Y-58248600D01*
X215517599Y-58248600D01*
X215807125Y-58191010D01*
X216079853Y-58078042D01*
X216325302Y-57914039D01*
X216534039Y-57705302D01*
X216640000Y-57546719D01*
X216745961Y-57705302D01*
G37*
%TD.AperFunction*%
%TD*%
M02*
