%TF.GenerationSoftware,KiCad,Pcbnew,(5.1.8-0-10_14)*%
%TF.CreationDate,2021-09-13T18:17:36-04:00*%
%TF.ProjectId,wahwah_panel,77616877-6168-45f7-9061-6e656c2e6b69,rev?*%
%TF.SameCoordinates,Original*%
%TF.FileFunction,Copper,L2,Bot*%
%TF.FilePolarity,Positive*%
%FSLAX46Y46*%
G04 Gerber Fmt 4.6, Leading zero omitted, Abs format (unit mm)*
G04 Created by KiCad (PCBNEW (5.1.8-0-10_14)) date 2021-09-13 18:17:36*
%MOMM*%
%LPD*%
G01*
G04 APERTURE LIST*
%TA.AperFunction,ComponentPad*%
%ADD10C,4.000000*%
%TD*%
%TA.AperFunction,ComponentPad*%
%ADD11C,9.000000*%
%TD*%
%TA.AperFunction,ComponentPad*%
%ADD12C,5.500000*%
%TD*%
%TA.AperFunction,ComponentPad*%
%ADD13C,14.000000*%
%TD*%
%TA.AperFunction,NonConductor*%
%ADD14C,0.254000*%
%TD*%
%TA.AperFunction,NonConductor*%
%ADD15C,0.100000*%
%TD*%
G04 APERTURE END LIST*
D10*
%TO.P,REF\u002A\u002A,1*%
%TO.N,GND*%
X-446500000Y-145500000D03*
%TD*%
%TO.P,REF\u002A\u002A,1*%
%TO.N,GND*%
X-353500000Y-145500000D03*
%TD*%
%TO.P,REF\u002A\u002A,1*%
%TO.N,GND*%
X-353500000Y47500000D03*
%TD*%
%TO.P,REF\u002A\u002A,1*%
%TO.N,GND*%
X-446500000Y47500000D03*
%TD*%
D11*
%TO.P,REF\u002A\u002A,1*%
%TO.N,GND*%
X-423500000Y-48000000D03*
%TD*%
%TO.P,REF\u002A\u002A,1*%
%TO.N,GND*%
X-423500000Y-88000000D03*
%TD*%
%TO.P,REF\u002A\u002A,1*%
%TO.N,GND*%
X-376500000Y-88000000D03*
%TD*%
%TO.P,REF\u002A\u002A,1*%
%TO.N,GND*%
X-376500000Y-48000000D03*
%TD*%
%TO.P,REF\u002A\u002A,1*%
%TO.N,GND*%
X-400000000Y1000000D03*
%TD*%
D12*
%TO.P,REF\u002A\u002A,1*%
%TO.N,GND*%
X-399845493Y-68056220D03*
%TD*%
D13*
%TO.P,REF\u002A\u002A,1*%
%TO.N,GND*%
X-367000000Y-121000000D03*
%TD*%
%TO.P,REF\u002A\u002A,1*%
%TO.N,GND*%
X-400000000Y-121000000D03*
%TD*%
%TO.P,REF\u002A\u002A,1*%
%TO.N,GND*%
X-433000000Y-121000000D03*
%TD*%
D14*
X-350659999Y-148340000D02*
X-449340000Y-148340000D01*
X-449340000Y-145240475D01*
X-449135000Y-145240475D01*
X-449135000Y-145759525D01*
X-449033739Y-146268601D01*
X-448835107Y-146748141D01*
X-448546738Y-147179715D01*
X-448179715Y-147546738D01*
X-447748141Y-147835107D01*
X-447268601Y-148033739D01*
X-446759525Y-148135000D01*
X-446240475Y-148135000D01*
X-445731399Y-148033739D01*
X-445251859Y-147835107D01*
X-444820285Y-147546738D01*
X-444453262Y-147179715D01*
X-444164893Y-146748141D01*
X-443966261Y-146268601D01*
X-443865000Y-145759525D01*
X-443865000Y-145240475D01*
X-356135000Y-145240475D01*
X-356135000Y-145759525D01*
X-356033739Y-146268601D01*
X-355835107Y-146748141D01*
X-355546738Y-147179715D01*
X-355179715Y-147546738D01*
X-354748141Y-147835107D01*
X-354268601Y-148033739D01*
X-353759525Y-148135000D01*
X-353240475Y-148135000D01*
X-352731399Y-148033739D01*
X-352251859Y-147835107D01*
X-351820285Y-147546738D01*
X-351453262Y-147179715D01*
X-351164893Y-146748141D01*
X-350966261Y-146268601D01*
X-350865000Y-145759525D01*
X-350865000Y-145240475D01*
X-350966261Y-144731399D01*
X-351164893Y-144251859D01*
X-351453262Y-143820285D01*
X-351820285Y-143453262D01*
X-352251859Y-143164893D01*
X-352731399Y-142966261D01*
X-353240475Y-142865000D01*
X-353759525Y-142865000D01*
X-354268601Y-142966261D01*
X-354748141Y-143164893D01*
X-355179715Y-143453262D01*
X-355546738Y-143820285D01*
X-355835107Y-144251859D01*
X-356033739Y-144731399D01*
X-356135000Y-145240475D01*
X-443865000Y-145240475D01*
X-443966261Y-144731399D01*
X-444164893Y-144251859D01*
X-444453262Y-143820285D01*
X-444820285Y-143453262D01*
X-445251859Y-143164893D01*
X-445731399Y-142966261D01*
X-446240475Y-142865000D01*
X-446759525Y-142865000D01*
X-447268601Y-142966261D01*
X-447748141Y-143164893D01*
X-448179715Y-143453262D01*
X-448546738Y-143820285D01*
X-448835107Y-144251859D01*
X-449033739Y-144731399D01*
X-449135000Y-145240475D01*
X-449340000Y-145240475D01*
X-449340000Y-120248018D01*
X-440635000Y-120248018D01*
X-440635000Y-121751982D01*
X-440341592Y-123227047D01*
X-439766050Y-124616529D01*
X-438930492Y-125867029D01*
X-437867029Y-126930492D01*
X-436616529Y-127766050D01*
X-435227047Y-128341592D01*
X-433751982Y-128635000D01*
X-432248018Y-128635000D01*
X-430772953Y-128341592D01*
X-429383471Y-127766050D01*
X-428132971Y-126930492D01*
X-427069508Y-125867029D01*
X-426233950Y-124616529D01*
X-425658408Y-123227047D01*
X-425365000Y-121751982D01*
X-425365000Y-120248018D01*
X-407635000Y-120248018D01*
X-407635000Y-121751982D01*
X-407341592Y-123227047D01*
X-406766050Y-124616529D01*
X-405930492Y-125867029D01*
X-404867029Y-126930492D01*
X-403616529Y-127766050D01*
X-402227047Y-128341592D01*
X-400751982Y-128635000D01*
X-399248018Y-128635000D01*
X-397772953Y-128341592D01*
X-396383471Y-127766050D01*
X-395132971Y-126930492D01*
X-394069508Y-125867029D01*
X-393233950Y-124616529D01*
X-392658408Y-123227047D01*
X-392365000Y-121751982D01*
X-392365000Y-120248018D01*
X-374635000Y-120248018D01*
X-374635000Y-121751982D01*
X-374341592Y-123227047D01*
X-373766050Y-124616529D01*
X-372930492Y-125867029D01*
X-371867029Y-126930492D01*
X-370616529Y-127766050D01*
X-369227047Y-128341592D01*
X-367751982Y-128635000D01*
X-366248018Y-128635000D01*
X-364772953Y-128341592D01*
X-363383471Y-127766050D01*
X-362132971Y-126930492D01*
X-361069508Y-125867029D01*
X-360233950Y-124616529D01*
X-359658408Y-123227047D01*
X-359365000Y-121751982D01*
X-359365000Y-120248018D01*
X-359658408Y-118772953D01*
X-360233950Y-117383471D01*
X-361069508Y-116132971D01*
X-362132971Y-115069508D01*
X-363383471Y-114233950D01*
X-364772953Y-113658408D01*
X-366248018Y-113365000D01*
X-367751982Y-113365000D01*
X-369227047Y-113658408D01*
X-370616529Y-114233950D01*
X-371867029Y-115069508D01*
X-372930492Y-116132971D01*
X-373766050Y-117383471D01*
X-374341592Y-118772953D01*
X-374635000Y-120248018D01*
X-392365000Y-120248018D01*
X-392658408Y-118772953D01*
X-393233950Y-117383471D01*
X-394069508Y-116132971D01*
X-395132971Y-115069508D01*
X-396383471Y-114233950D01*
X-397772953Y-113658408D01*
X-399248018Y-113365000D01*
X-400751982Y-113365000D01*
X-402227047Y-113658408D01*
X-403616529Y-114233950D01*
X-404867029Y-115069508D01*
X-405930492Y-116132971D01*
X-406766050Y-117383471D01*
X-407341592Y-118772953D01*
X-407635000Y-120248018D01*
X-425365000Y-120248018D01*
X-425658408Y-118772953D01*
X-426233950Y-117383471D01*
X-427069508Y-116132971D01*
X-428132971Y-115069508D01*
X-429383471Y-114233950D01*
X-430772953Y-113658408D01*
X-432248018Y-113365000D01*
X-433751982Y-113365000D01*
X-435227047Y-113658408D01*
X-436616529Y-114233950D01*
X-437867029Y-115069508D01*
X-438930492Y-116132971D01*
X-439766050Y-117383471D01*
X-440341592Y-118772953D01*
X-440635000Y-120248018D01*
X-449340000Y-120248018D01*
X-449340000Y-87494247D01*
X-428635000Y-87494247D01*
X-428635000Y-88505753D01*
X-428437665Y-89497824D01*
X-428050578Y-90432335D01*
X-427488615Y-91273372D01*
X-426773372Y-91988615D01*
X-425932335Y-92550578D01*
X-424997824Y-92937665D01*
X-424005753Y-93135000D01*
X-422994247Y-93135000D01*
X-422002176Y-92937665D01*
X-421067665Y-92550578D01*
X-420226628Y-91988615D01*
X-419511385Y-91273372D01*
X-418949422Y-90432335D01*
X-418562335Y-89497824D01*
X-418365000Y-88505753D01*
X-418365000Y-87494247D01*
X-381635000Y-87494247D01*
X-381635000Y-88505753D01*
X-381437665Y-89497824D01*
X-381050578Y-90432335D01*
X-380488615Y-91273372D01*
X-379773372Y-91988615D01*
X-378932335Y-92550578D01*
X-377997824Y-92937665D01*
X-377005753Y-93135000D01*
X-375994247Y-93135000D01*
X-375002176Y-92937665D01*
X-374067665Y-92550578D01*
X-373226628Y-91988615D01*
X-372511385Y-91273372D01*
X-371949422Y-90432335D01*
X-371562335Y-89497824D01*
X-371365000Y-88505753D01*
X-371365000Y-87494247D01*
X-371562335Y-86502176D01*
X-371949422Y-85567665D01*
X-372511385Y-84726628D01*
X-373226628Y-84011385D01*
X-374067665Y-83449422D01*
X-375002176Y-83062335D01*
X-375994247Y-82865000D01*
X-377005753Y-82865000D01*
X-377997824Y-83062335D01*
X-378932335Y-83449422D01*
X-379773372Y-84011385D01*
X-380488615Y-84726628D01*
X-381050578Y-85567665D01*
X-381437665Y-86502176D01*
X-381635000Y-87494247D01*
X-418365000Y-87494247D01*
X-418562335Y-86502176D01*
X-418949422Y-85567665D01*
X-419511385Y-84726628D01*
X-420226628Y-84011385D01*
X-421067665Y-83449422D01*
X-422002176Y-83062335D01*
X-422994247Y-82865000D01*
X-424005753Y-82865000D01*
X-424997824Y-83062335D01*
X-425932335Y-83449422D01*
X-426773372Y-84011385D01*
X-427488615Y-84726628D01*
X-428050578Y-85567665D01*
X-428437665Y-86502176D01*
X-428635000Y-87494247D01*
X-449340000Y-87494247D01*
X-449340000Y-67722827D01*
X-403230493Y-67722827D01*
X-403230493Y-68389613D01*
X-403100410Y-69043588D01*
X-402845241Y-69659619D01*
X-402474795Y-70214032D01*
X-402003305Y-70685522D01*
X-401448892Y-71055968D01*
X-400832861Y-71311137D01*
X-400178886Y-71441220D01*
X-399512100Y-71441220D01*
X-398858125Y-71311137D01*
X-398242094Y-71055968D01*
X-397687681Y-70685522D01*
X-397216191Y-70214032D01*
X-396845745Y-69659619D01*
X-396590576Y-69043588D01*
X-396460493Y-68389613D01*
X-396460493Y-67722827D01*
X-396590576Y-67068852D01*
X-396845745Y-66452821D01*
X-397216191Y-65898408D01*
X-397687681Y-65426918D01*
X-398242094Y-65056472D01*
X-398858125Y-64801303D01*
X-399512100Y-64671220D01*
X-400178886Y-64671220D01*
X-400832861Y-64801303D01*
X-401448892Y-65056472D01*
X-402003305Y-65426918D01*
X-402474795Y-65898408D01*
X-402845241Y-66452821D01*
X-403100410Y-67068852D01*
X-403230493Y-67722827D01*
X-449340000Y-67722827D01*
X-449340000Y-47494247D01*
X-428635000Y-47494247D01*
X-428635000Y-48505753D01*
X-428437665Y-49497824D01*
X-428050578Y-50432335D01*
X-427488615Y-51273372D01*
X-426773372Y-51988615D01*
X-425932335Y-52550578D01*
X-424997824Y-52937665D01*
X-424005753Y-53135000D01*
X-422994247Y-53135000D01*
X-422002176Y-52937665D01*
X-421067665Y-52550578D01*
X-420226628Y-51988615D01*
X-419511385Y-51273372D01*
X-418949422Y-50432335D01*
X-418562335Y-49497824D01*
X-418365000Y-48505753D01*
X-418365000Y-47494247D01*
X-381635000Y-47494247D01*
X-381635000Y-48505753D01*
X-381437665Y-49497824D01*
X-381050578Y-50432335D01*
X-380488615Y-51273372D01*
X-379773372Y-51988615D01*
X-378932335Y-52550578D01*
X-377997824Y-52937665D01*
X-377005753Y-53135000D01*
X-375994247Y-53135000D01*
X-375002176Y-52937665D01*
X-374067665Y-52550578D01*
X-373226628Y-51988615D01*
X-372511385Y-51273372D01*
X-371949422Y-50432335D01*
X-371562335Y-49497824D01*
X-371365000Y-48505753D01*
X-371365000Y-47494247D01*
X-371562335Y-46502176D01*
X-371949422Y-45567665D01*
X-372511385Y-44726628D01*
X-373226628Y-44011385D01*
X-374067665Y-43449422D01*
X-375002176Y-43062335D01*
X-375994247Y-42865000D01*
X-377005753Y-42865000D01*
X-377997824Y-43062335D01*
X-378932335Y-43449422D01*
X-379773372Y-44011385D01*
X-380488615Y-44726628D01*
X-381050578Y-45567665D01*
X-381437665Y-46502176D01*
X-381635000Y-47494247D01*
X-418365000Y-47494247D01*
X-418562335Y-46502176D01*
X-418949422Y-45567665D01*
X-419511385Y-44726628D01*
X-420226628Y-44011385D01*
X-421067665Y-43449422D01*
X-422002176Y-43062335D01*
X-422994247Y-42865000D01*
X-424005753Y-42865000D01*
X-424997824Y-43062335D01*
X-425932335Y-43449422D01*
X-426773372Y-44011385D01*
X-427488615Y-44726628D01*
X-428050578Y-45567665D01*
X-428437665Y-46502176D01*
X-428635000Y-47494247D01*
X-449340000Y-47494247D01*
X-449340000Y1505753D01*
X-405135000Y1505753D01*
X-405135000Y494247D01*
X-404937665Y-497824D01*
X-404550578Y-1432335D01*
X-403988615Y-2273372D01*
X-403273372Y-2988615D01*
X-402432335Y-3550578D01*
X-401497824Y-3937665D01*
X-400505753Y-4135000D01*
X-399494247Y-4135000D01*
X-398502176Y-3937665D01*
X-397567665Y-3550578D01*
X-396726628Y-2988615D01*
X-396011385Y-2273372D01*
X-395449422Y-1432335D01*
X-395062335Y-497824D01*
X-394865000Y494247D01*
X-394865000Y1505753D01*
X-395062335Y2497824D01*
X-395449422Y3432335D01*
X-396011385Y4273372D01*
X-396726628Y4988615D01*
X-397567665Y5550578D01*
X-398502176Y5937665D01*
X-399494247Y6135000D01*
X-400505753Y6135000D01*
X-401497824Y5937665D01*
X-402432335Y5550578D01*
X-403273372Y4988615D01*
X-403988615Y4273372D01*
X-404550578Y3432335D01*
X-404937665Y2497824D01*
X-405135000Y1505753D01*
X-449340000Y1505753D01*
X-449340000Y47759525D01*
X-449135000Y47759525D01*
X-449135000Y47240475D01*
X-449033739Y46731399D01*
X-448835107Y46251859D01*
X-448546738Y45820285D01*
X-448179715Y45453262D01*
X-447748141Y45164893D01*
X-447268601Y44966261D01*
X-446759525Y44865000D01*
X-446240475Y44865000D01*
X-445731399Y44966261D01*
X-445251859Y45164893D01*
X-444820285Y45453262D01*
X-444453262Y45820285D01*
X-444164893Y46251859D01*
X-443966261Y46731399D01*
X-443865000Y47240475D01*
X-443865000Y47759525D01*
X-356135000Y47759525D01*
X-356135000Y47240475D01*
X-356033739Y46731399D01*
X-355835107Y46251859D01*
X-355546738Y45820285D01*
X-355179715Y45453262D01*
X-354748141Y45164893D01*
X-354268601Y44966261D01*
X-353759525Y44865000D01*
X-353240475Y44865000D01*
X-352731399Y44966261D01*
X-352251859Y45164893D01*
X-351820285Y45453262D01*
X-351453262Y45820285D01*
X-351164893Y46251859D01*
X-350966261Y46731399D01*
X-350865000Y47240475D01*
X-350865000Y47759525D01*
X-350966261Y48268601D01*
X-351164893Y48748141D01*
X-351453262Y49179715D01*
X-351820285Y49546738D01*
X-352251859Y49835107D01*
X-352731399Y50033739D01*
X-353240475Y50135000D01*
X-353759525Y50135000D01*
X-354268601Y50033739D01*
X-354748141Y49835107D01*
X-355179715Y49546738D01*
X-355546738Y49179715D01*
X-355835107Y48748141D01*
X-356033739Y48268601D01*
X-356135000Y47759525D01*
X-443865000Y47759525D01*
X-443966261Y48268601D01*
X-444164893Y48748141D01*
X-444453262Y49179715D01*
X-444820285Y49546738D01*
X-445251859Y49835107D01*
X-445731399Y50033739D01*
X-446240475Y50135000D01*
X-446759525Y50135000D01*
X-447268601Y50033739D01*
X-447748141Y49835107D01*
X-448179715Y49546738D01*
X-448546738Y49179715D01*
X-448835107Y48748141D01*
X-449033739Y48268601D01*
X-449135000Y47759525D01*
X-449340000Y47759525D01*
X-449340000Y50340000D01*
X-350660000Y50340000D01*
X-350659999Y-148340000D01*
%TA.AperFunction,NonConductor*%
D15*
G36*
X-350659999Y-148340000D02*
G01*
X-449340000Y-148340000D01*
X-449340000Y-145240475D01*
X-449135000Y-145240475D01*
X-449135000Y-145759525D01*
X-449033739Y-146268601D01*
X-448835107Y-146748141D01*
X-448546738Y-147179715D01*
X-448179715Y-147546738D01*
X-447748141Y-147835107D01*
X-447268601Y-148033739D01*
X-446759525Y-148135000D01*
X-446240475Y-148135000D01*
X-445731399Y-148033739D01*
X-445251859Y-147835107D01*
X-444820285Y-147546738D01*
X-444453262Y-147179715D01*
X-444164893Y-146748141D01*
X-443966261Y-146268601D01*
X-443865000Y-145759525D01*
X-443865000Y-145240475D01*
X-356135000Y-145240475D01*
X-356135000Y-145759525D01*
X-356033739Y-146268601D01*
X-355835107Y-146748141D01*
X-355546738Y-147179715D01*
X-355179715Y-147546738D01*
X-354748141Y-147835107D01*
X-354268601Y-148033739D01*
X-353759525Y-148135000D01*
X-353240475Y-148135000D01*
X-352731399Y-148033739D01*
X-352251859Y-147835107D01*
X-351820285Y-147546738D01*
X-351453262Y-147179715D01*
X-351164893Y-146748141D01*
X-350966261Y-146268601D01*
X-350865000Y-145759525D01*
X-350865000Y-145240475D01*
X-350966261Y-144731399D01*
X-351164893Y-144251859D01*
X-351453262Y-143820285D01*
X-351820285Y-143453262D01*
X-352251859Y-143164893D01*
X-352731399Y-142966261D01*
X-353240475Y-142865000D01*
X-353759525Y-142865000D01*
X-354268601Y-142966261D01*
X-354748141Y-143164893D01*
X-355179715Y-143453262D01*
X-355546738Y-143820285D01*
X-355835107Y-144251859D01*
X-356033739Y-144731399D01*
X-356135000Y-145240475D01*
X-443865000Y-145240475D01*
X-443966261Y-144731399D01*
X-444164893Y-144251859D01*
X-444453262Y-143820285D01*
X-444820285Y-143453262D01*
X-445251859Y-143164893D01*
X-445731399Y-142966261D01*
X-446240475Y-142865000D01*
X-446759525Y-142865000D01*
X-447268601Y-142966261D01*
X-447748141Y-143164893D01*
X-448179715Y-143453262D01*
X-448546738Y-143820285D01*
X-448835107Y-144251859D01*
X-449033739Y-144731399D01*
X-449135000Y-145240475D01*
X-449340000Y-145240475D01*
X-449340000Y-120248018D01*
X-440635000Y-120248018D01*
X-440635000Y-121751982D01*
X-440341592Y-123227047D01*
X-439766050Y-124616529D01*
X-438930492Y-125867029D01*
X-437867029Y-126930492D01*
X-436616529Y-127766050D01*
X-435227047Y-128341592D01*
X-433751982Y-128635000D01*
X-432248018Y-128635000D01*
X-430772953Y-128341592D01*
X-429383471Y-127766050D01*
X-428132971Y-126930492D01*
X-427069508Y-125867029D01*
X-426233950Y-124616529D01*
X-425658408Y-123227047D01*
X-425365000Y-121751982D01*
X-425365000Y-120248018D01*
X-407635000Y-120248018D01*
X-407635000Y-121751982D01*
X-407341592Y-123227047D01*
X-406766050Y-124616529D01*
X-405930492Y-125867029D01*
X-404867029Y-126930492D01*
X-403616529Y-127766050D01*
X-402227047Y-128341592D01*
X-400751982Y-128635000D01*
X-399248018Y-128635000D01*
X-397772953Y-128341592D01*
X-396383471Y-127766050D01*
X-395132971Y-126930492D01*
X-394069508Y-125867029D01*
X-393233950Y-124616529D01*
X-392658408Y-123227047D01*
X-392365000Y-121751982D01*
X-392365000Y-120248018D01*
X-374635000Y-120248018D01*
X-374635000Y-121751982D01*
X-374341592Y-123227047D01*
X-373766050Y-124616529D01*
X-372930492Y-125867029D01*
X-371867029Y-126930492D01*
X-370616529Y-127766050D01*
X-369227047Y-128341592D01*
X-367751982Y-128635000D01*
X-366248018Y-128635000D01*
X-364772953Y-128341592D01*
X-363383471Y-127766050D01*
X-362132971Y-126930492D01*
X-361069508Y-125867029D01*
X-360233950Y-124616529D01*
X-359658408Y-123227047D01*
X-359365000Y-121751982D01*
X-359365000Y-120248018D01*
X-359658408Y-118772953D01*
X-360233950Y-117383471D01*
X-361069508Y-116132971D01*
X-362132971Y-115069508D01*
X-363383471Y-114233950D01*
X-364772953Y-113658408D01*
X-366248018Y-113365000D01*
X-367751982Y-113365000D01*
X-369227047Y-113658408D01*
X-370616529Y-114233950D01*
X-371867029Y-115069508D01*
X-372930492Y-116132971D01*
X-373766050Y-117383471D01*
X-374341592Y-118772953D01*
X-374635000Y-120248018D01*
X-392365000Y-120248018D01*
X-392658408Y-118772953D01*
X-393233950Y-117383471D01*
X-394069508Y-116132971D01*
X-395132971Y-115069508D01*
X-396383471Y-114233950D01*
X-397772953Y-113658408D01*
X-399248018Y-113365000D01*
X-400751982Y-113365000D01*
X-402227047Y-113658408D01*
X-403616529Y-114233950D01*
X-404867029Y-115069508D01*
X-405930492Y-116132971D01*
X-406766050Y-117383471D01*
X-407341592Y-118772953D01*
X-407635000Y-120248018D01*
X-425365000Y-120248018D01*
X-425658408Y-118772953D01*
X-426233950Y-117383471D01*
X-427069508Y-116132971D01*
X-428132971Y-115069508D01*
X-429383471Y-114233950D01*
X-430772953Y-113658408D01*
X-432248018Y-113365000D01*
X-433751982Y-113365000D01*
X-435227047Y-113658408D01*
X-436616529Y-114233950D01*
X-437867029Y-115069508D01*
X-438930492Y-116132971D01*
X-439766050Y-117383471D01*
X-440341592Y-118772953D01*
X-440635000Y-120248018D01*
X-449340000Y-120248018D01*
X-449340000Y-87494247D01*
X-428635000Y-87494247D01*
X-428635000Y-88505753D01*
X-428437665Y-89497824D01*
X-428050578Y-90432335D01*
X-427488615Y-91273372D01*
X-426773372Y-91988615D01*
X-425932335Y-92550578D01*
X-424997824Y-92937665D01*
X-424005753Y-93135000D01*
X-422994247Y-93135000D01*
X-422002176Y-92937665D01*
X-421067665Y-92550578D01*
X-420226628Y-91988615D01*
X-419511385Y-91273372D01*
X-418949422Y-90432335D01*
X-418562335Y-89497824D01*
X-418365000Y-88505753D01*
X-418365000Y-87494247D01*
X-381635000Y-87494247D01*
X-381635000Y-88505753D01*
X-381437665Y-89497824D01*
X-381050578Y-90432335D01*
X-380488615Y-91273372D01*
X-379773372Y-91988615D01*
X-378932335Y-92550578D01*
X-377997824Y-92937665D01*
X-377005753Y-93135000D01*
X-375994247Y-93135000D01*
X-375002176Y-92937665D01*
X-374067665Y-92550578D01*
X-373226628Y-91988615D01*
X-372511385Y-91273372D01*
X-371949422Y-90432335D01*
X-371562335Y-89497824D01*
X-371365000Y-88505753D01*
X-371365000Y-87494247D01*
X-371562335Y-86502176D01*
X-371949422Y-85567665D01*
X-372511385Y-84726628D01*
X-373226628Y-84011385D01*
X-374067665Y-83449422D01*
X-375002176Y-83062335D01*
X-375994247Y-82865000D01*
X-377005753Y-82865000D01*
X-377997824Y-83062335D01*
X-378932335Y-83449422D01*
X-379773372Y-84011385D01*
X-380488615Y-84726628D01*
X-381050578Y-85567665D01*
X-381437665Y-86502176D01*
X-381635000Y-87494247D01*
X-418365000Y-87494247D01*
X-418562335Y-86502176D01*
X-418949422Y-85567665D01*
X-419511385Y-84726628D01*
X-420226628Y-84011385D01*
X-421067665Y-83449422D01*
X-422002176Y-83062335D01*
X-422994247Y-82865000D01*
X-424005753Y-82865000D01*
X-424997824Y-83062335D01*
X-425932335Y-83449422D01*
X-426773372Y-84011385D01*
X-427488615Y-84726628D01*
X-428050578Y-85567665D01*
X-428437665Y-86502176D01*
X-428635000Y-87494247D01*
X-449340000Y-87494247D01*
X-449340000Y-67722827D01*
X-403230493Y-67722827D01*
X-403230493Y-68389613D01*
X-403100410Y-69043588D01*
X-402845241Y-69659619D01*
X-402474795Y-70214032D01*
X-402003305Y-70685522D01*
X-401448892Y-71055968D01*
X-400832861Y-71311137D01*
X-400178886Y-71441220D01*
X-399512100Y-71441220D01*
X-398858125Y-71311137D01*
X-398242094Y-71055968D01*
X-397687681Y-70685522D01*
X-397216191Y-70214032D01*
X-396845745Y-69659619D01*
X-396590576Y-69043588D01*
X-396460493Y-68389613D01*
X-396460493Y-67722827D01*
X-396590576Y-67068852D01*
X-396845745Y-66452821D01*
X-397216191Y-65898408D01*
X-397687681Y-65426918D01*
X-398242094Y-65056472D01*
X-398858125Y-64801303D01*
X-399512100Y-64671220D01*
X-400178886Y-64671220D01*
X-400832861Y-64801303D01*
X-401448892Y-65056472D01*
X-402003305Y-65426918D01*
X-402474795Y-65898408D01*
X-402845241Y-66452821D01*
X-403100410Y-67068852D01*
X-403230493Y-67722827D01*
X-449340000Y-67722827D01*
X-449340000Y-47494247D01*
X-428635000Y-47494247D01*
X-428635000Y-48505753D01*
X-428437665Y-49497824D01*
X-428050578Y-50432335D01*
X-427488615Y-51273372D01*
X-426773372Y-51988615D01*
X-425932335Y-52550578D01*
X-424997824Y-52937665D01*
X-424005753Y-53135000D01*
X-422994247Y-53135000D01*
X-422002176Y-52937665D01*
X-421067665Y-52550578D01*
X-420226628Y-51988615D01*
X-419511385Y-51273372D01*
X-418949422Y-50432335D01*
X-418562335Y-49497824D01*
X-418365000Y-48505753D01*
X-418365000Y-47494247D01*
X-381635000Y-47494247D01*
X-381635000Y-48505753D01*
X-381437665Y-49497824D01*
X-381050578Y-50432335D01*
X-380488615Y-51273372D01*
X-379773372Y-51988615D01*
X-378932335Y-52550578D01*
X-377997824Y-52937665D01*
X-377005753Y-53135000D01*
X-375994247Y-53135000D01*
X-375002176Y-52937665D01*
X-374067665Y-52550578D01*
X-373226628Y-51988615D01*
X-372511385Y-51273372D01*
X-371949422Y-50432335D01*
X-371562335Y-49497824D01*
X-371365000Y-48505753D01*
X-371365000Y-47494247D01*
X-371562335Y-46502176D01*
X-371949422Y-45567665D01*
X-372511385Y-44726628D01*
X-373226628Y-44011385D01*
X-374067665Y-43449422D01*
X-375002176Y-43062335D01*
X-375994247Y-42865000D01*
X-377005753Y-42865000D01*
X-377997824Y-43062335D01*
X-378932335Y-43449422D01*
X-379773372Y-44011385D01*
X-380488615Y-44726628D01*
X-381050578Y-45567665D01*
X-381437665Y-46502176D01*
X-381635000Y-47494247D01*
X-418365000Y-47494247D01*
X-418562335Y-46502176D01*
X-418949422Y-45567665D01*
X-419511385Y-44726628D01*
X-420226628Y-44011385D01*
X-421067665Y-43449422D01*
X-422002176Y-43062335D01*
X-422994247Y-42865000D01*
X-424005753Y-42865000D01*
X-424997824Y-43062335D01*
X-425932335Y-43449422D01*
X-426773372Y-44011385D01*
X-427488615Y-44726628D01*
X-428050578Y-45567665D01*
X-428437665Y-46502176D01*
X-428635000Y-47494247D01*
X-449340000Y-47494247D01*
X-449340000Y1505753D01*
X-405135000Y1505753D01*
X-405135000Y494247D01*
X-404937665Y-497824D01*
X-404550578Y-1432335D01*
X-403988615Y-2273372D01*
X-403273372Y-2988615D01*
X-402432335Y-3550578D01*
X-401497824Y-3937665D01*
X-400505753Y-4135000D01*
X-399494247Y-4135000D01*
X-398502176Y-3937665D01*
X-397567665Y-3550578D01*
X-396726628Y-2988615D01*
X-396011385Y-2273372D01*
X-395449422Y-1432335D01*
X-395062335Y-497824D01*
X-394865000Y494247D01*
X-394865000Y1505753D01*
X-395062335Y2497824D01*
X-395449422Y3432335D01*
X-396011385Y4273372D01*
X-396726628Y4988615D01*
X-397567665Y5550578D01*
X-398502176Y5937665D01*
X-399494247Y6135000D01*
X-400505753Y6135000D01*
X-401497824Y5937665D01*
X-402432335Y5550578D01*
X-403273372Y4988615D01*
X-403988615Y4273372D01*
X-404550578Y3432335D01*
X-404937665Y2497824D01*
X-405135000Y1505753D01*
X-449340000Y1505753D01*
X-449340000Y47759525D01*
X-449135000Y47759525D01*
X-449135000Y47240475D01*
X-449033739Y46731399D01*
X-448835107Y46251859D01*
X-448546738Y45820285D01*
X-448179715Y45453262D01*
X-447748141Y45164893D01*
X-447268601Y44966261D01*
X-446759525Y44865000D01*
X-446240475Y44865000D01*
X-445731399Y44966261D01*
X-445251859Y45164893D01*
X-444820285Y45453262D01*
X-444453262Y45820285D01*
X-444164893Y46251859D01*
X-443966261Y46731399D01*
X-443865000Y47240475D01*
X-443865000Y47759525D01*
X-356135000Y47759525D01*
X-356135000Y47240475D01*
X-356033739Y46731399D01*
X-355835107Y46251859D01*
X-355546738Y45820285D01*
X-355179715Y45453262D01*
X-354748141Y45164893D01*
X-354268601Y44966261D01*
X-353759525Y44865000D01*
X-353240475Y44865000D01*
X-352731399Y44966261D01*
X-352251859Y45164893D01*
X-351820285Y45453262D01*
X-351453262Y45820285D01*
X-351164893Y46251859D01*
X-350966261Y46731399D01*
X-350865000Y47240475D01*
X-350865000Y47759525D01*
X-350966261Y48268601D01*
X-351164893Y48748141D01*
X-351453262Y49179715D01*
X-351820285Y49546738D01*
X-352251859Y49835107D01*
X-352731399Y50033739D01*
X-353240475Y50135000D01*
X-353759525Y50135000D01*
X-354268601Y50033739D01*
X-354748141Y49835107D01*
X-355179715Y49546738D01*
X-355546738Y49179715D01*
X-355835107Y48748141D01*
X-356033739Y48268601D01*
X-356135000Y47759525D01*
X-443865000Y47759525D01*
X-443966261Y48268601D01*
X-444164893Y48748141D01*
X-444453262Y49179715D01*
X-444820285Y49546738D01*
X-445251859Y49835107D01*
X-445731399Y50033739D01*
X-446240475Y50135000D01*
X-446759525Y50135000D01*
X-447268601Y50033739D01*
X-447748141Y49835107D01*
X-448179715Y49546738D01*
X-448546738Y49179715D01*
X-448835107Y48748141D01*
X-449033739Y48268601D01*
X-449135000Y47759525D01*
X-449340000Y47759525D01*
X-449340000Y50340000D01*
X-350660000Y50340000D01*
X-350659999Y-148340000D01*
G37*
%TD.AperFunction*%
M02*
