%TF.GenerationSoftware,KiCad,Pcbnew,(5.1.8-0-10_14)*%
%TF.CreationDate,2021-09-13T18:17:36-04:00*%
%TF.ProjectId,wahwah_panel,77616877-6168-45f7-9061-6e656c2e6b69,rev?*%
%TF.SameCoordinates,Original*%
%TF.FileFunction,Legend,Bot*%
%TF.FilePolarity,Positive*%
%FSLAX46Y46*%
G04 Gerber Fmt 4.6, Leading zero omitted, Abs format (unit mm)*
G04 Created by KiCad (PCBNEW (5.1.8-0-10_14)) date 2021-09-13 18:17:36*
%MOMM*%
%LPD*%
G01*
G04 APERTURE LIST*
%ADD10C,0.010000*%
G04 APERTURE END LIST*
D10*
%TO.C,G\u002A\u002A\u002A*%
G36*
X-368988534Y-69628503D02*
G01*
X-369100682Y-69782407D01*
X-369263336Y-70048811D01*
X-369481055Y-70435809D01*
X-369758398Y-70951499D01*
X-370099925Y-71603976D01*
X-370495703Y-72373000D01*
X-370820608Y-73011956D01*
X-371119689Y-73607461D01*
X-371384335Y-74141813D01*
X-371605938Y-74597309D01*
X-371775889Y-74956245D01*
X-371885579Y-75200920D01*
X-371926399Y-75313630D01*
X-371926478Y-75315167D01*
X-371904228Y-75394849D01*
X-371811850Y-75439737D01*
X-371613990Y-75458934D01*
X-371356500Y-75461912D01*
X-370785000Y-75460491D01*
X-369855020Y-73650475D01*
X-368925039Y-71840458D01*
X-368730725Y-72166310D01*
X-368536411Y-72492161D01*
X-369216205Y-73849751D01*
X-369435488Y-74294544D01*
X-369625343Y-74692774D01*
X-369773480Y-75017579D01*
X-369867607Y-75242097D01*
X-369896000Y-75335338D01*
X-369861333Y-75405502D01*
X-369736252Y-75445291D01*
X-369489140Y-75461703D01*
X-369317806Y-75463334D01*
X-368739612Y-75463334D01*
X-368546474Y-75050975D01*
X-368379110Y-74714284D01*
X-368188369Y-74358879D01*
X-368123036Y-74244290D01*
X-367892737Y-73849963D01*
X-367059667Y-75461259D01*
X-366488167Y-75462296D01*
X-366180637Y-75456863D01*
X-366006842Y-75433078D01*
X-365931433Y-75381818D01*
X-365918189Y-75315167D01*
X-365956025Y-75208200D01*
X-366063081Y-74968549D01*
X-366230749Y-74613915D01*
X-366450418Y-74162003D01*
X-366713481Y-73630514D01*
X-367011329Y-73037151D01*
X-367335352Y-72399617D01*
X-367348964Y-72373000D01*
X-367756924Y-71580486D01*
X-368096289Y-70932591D01*
X-368371618Y-70421221D01*
X-368587472Y-70038278D01*
X-368748409Y-69775666D01*
X-368858988Y-69625289D01*
X-368922333Y-69579000D01*
X-368988534Y-69628503D01*
G37*
X-368988534Y-69628503D02*
X-369100682Y-69782407D01*
X-369263336Y-70048811D01*
X-369481055Y-70435809D01*
X-369758398Y-70951499D01*
X-370099925Y-71603976D01*
X-370495703Y-72373000D01*
X-370820608Y-73011956D01*
X-371119689Y-73607461D01*
X-371384335Y-74141813D01*
X-371605938Y-74597309D01*
X-371775889Y-74956245D01*
X-371885579Y-75200920D01*
X-371926399Y-75313630D01*
X-371926478Y-75315167D01*
X-371904228Y-75394849D01*
X-371811850Y-75439737D01*
X-371613990Y-75458934D01*
X-371356500Y-75461912D01*
X-370785000Y-75460491D01*
X-369855020Y-73650475D01*
X-368925039Y-71840458D01*
X-368730725Y-72166310D01*
X-368536411Y-72492161D01*
X-369216205Y-73849751D01*
X-369435488Y-74294544D01*
X-369625343Y-74692774D01*
X-369773480Y-75017579D01*
X-369867607Y-75242097D01*
X-369896000Y-75335338D01*
X-369861333Y-75405502D01*
X-369736252Y-75445291D01*
X-369489140Y-75461703D01*
X-369317806Y-75463334D01*
X-368739612Y-75463334D01*
X-368546474Y-75050975D01*
X-368379110Y-74714284D01*
X-368188369Y-74358879D01*
X-368123036Y-74244290D01*
X-367892737Y-73849963D01*
X-367059667Y-75461259D01*
X-366488167Y-75462296D01*
X-366180637Y-75456863D01*
X-366006842Y-75433078D01*
X-365931433Y-75381818D01*
X-365918189Y-75315167D01*
X-365956025Y-75208200D01*
X-366063081Y-74968549D01*
X-366230749Y-74613915D01*
X-366450418Y-74162003D01*
X-366713481Y-73630514D01*
X-367011329Y-73037151D01*
X-367335352Y-72399617D01*
X-367348964Y-72373000D01*
X-367756924Y-71580486D01*
X-368096289Y-70932591D01*
X-368371618Y-70421221D01*
X-368587472Y-70038278D01*
X-368748409Y-69775666D01*
X-368858988Y-69625289D01*
X-368922333Y-69579000D01*
X-368988534Y-69628503D01*
G36*
X-372943624Y-69927070D02*
G01*
X-374043915Y-70313739D01*
X-376330667Y-69549325D01*
X-376330667Y-70696779D01*
X-375484000Y-71026738D01*
X-374637334Y-71356696D01*
X-374637334Y-75463334D01*
X-373536667Y-75463334D01*
X-373536667Y-71354127D01*
X-372690000Y-71030868D01*
X-371843334Y-70707610D01*
X-371843334Y-69540400D01*
X-372943624Y-69927070D01*
G37*
X-372943624Y-69927070D02*
X-374043915Y-70313739D01*
X-376330667Y-69549325D01*
X-376330667Y-70696779D01*
X-375484000Y-71026738D01*
X-374637334Y-71356696D01*
X-374637334Y-75463334D01*
X-373536667Y-75463334D01*
X-373536667Y-71354127D01*
X-372690000Y-71030868D01*
X-371843334Y-70707610D01*
X-371843334Y-69540400D01*
X-372943624Y-69927070D01*
G36*
X-377769624Y-69927070D02*
G01*
X-378869915Y-70313739D01*
X-381156667Y-69549325D01*
X-381156667Y-70696779D01*
X-380310000Y-71026738D01*
X-379463334Y-71356696D01*
X-379463334Y-75463334D01*
X-378362667Y-75463334D01*
X-378362667Y-71354127D01*
X-377516000Y-71030868D01*
X-376669334Y-70707610D01*
X-376669334Y-69540400D01*
X-377769624Y-69927070D01*
G37*
X-377769624Y-69927070D02*
X-378869915Y-70313739D01*
X-381156667Y-69549325D01*
X-381156667Y-70696779D01*
X-380310000Y-71026738D01*
X-379463334Y-71356696D01*
X-379463334Y-75463334D01*
X-378362667Y-75463334D01*
X-378362667Y-71354127D01*
X-377516000Y-71030868D01*
X-376669334Y-70707610D01*
X-376669334Y-69540400D01*
X-377769624Y-69927070D01*
G36*
X-386829334Y-72500000D02*
G01*
X-386828126Y-73318188D01*
X-386824170Y-73980835D01*
X-386816968Y-74501718D01*
X-386806019Y-74894616D01*
X-386790825Y-75173306D01*
X-386770887Y-75351565D01*
X-386745706Y-75443172D01*
X-386721987Y-75463334D01*
X-386627148Y-75406099D01*
X-386438197Y-75248582D01*
X-386178909Y-75012058D01*
X-385873057Y-74717805D01*
X-385728667Y-74574334D01*
X-385414219Y-74262262D01*
X-385141478Y-73998087D01*
X-384932711Y-73802875D01*
X-384810184Y-73697688D01*
X-384788942Y-73685334D01*
X-384707124Y-73733978D01*
X-384513634Y-73868881D01*
X-384231354Y-74073492D01*
X-383883166Y-74331264D01*
X-383559762Y-74574296D01*
X-383166864Y-74865242D01*
X-382812254Y-75116249D01*
X-382520996Y-75310483D01*
X-382318157Y-75431107D01*
X-382236167Y-75463296D01*
X-382196774Y-75454063D01*
X-382165028Y-75415418D01*
X-382140111Y-75330976D01*
X-382121202Y-75184353D01*
X-382107483Y-74959162D01*
X-382098134Y-74639020D01*
X-382092336Y-74207540D01*
X-382089270Y-73648337D01*
X-382088116Y-72945028D01*
X-382088045Y-72669334D01*
X-383188667Y-72669334D01*
X-383196376Y-72961457D01*
X-383216664Y-73173133D01*
X-383245271Y-73261534D01*
X-383247616Y-73262000D01*
X-383346803Y-73217635D01*
X-383529847Y-73105398D01*
X-383628616Y-73038819D01*
X-383819771Y-72896834D01*
X-383935186Y-72792750D01*
X-383950667Y-72767222D01*
X-383894272Y-72677009D01*
X-383754695Y-72519628D01*
X-383576349Y-72339237D01*
X-383403646Y-72179997D01*
X-383280996Y-72086064D01*
X-383256151Y-72076667D01*
X-383222889Y-72154169D01*
X-383198787Y-72358128D01*
X-383188720Y-72645721D01*
X-383188667Y-72669334D01*
X-382088045Y-72669334D01*
X-382088000Y-72500000D01*
X-382088471Y-71711997D01*
X-382090427Y-71076951D01*
X-382094682Y-70578485D01*
X-382102052Y-70200224D01*
X-382113349Y-69925793D01*
X-382129390Y-69738815D01*
X-382150988Y-69622916D01*
X-382178958Y-69561719D01*
X-382214114Y-69538849D01*
X-382235392Y-69536667D01*
X-382331701Y-69594532D01*
X-382529860Y-69757873D01*
X-382813113Y-70011306D01*
X-383164707Y-70339448D01*
X-383567886Y-70726914D01*
X-384005896Y-71158322D01*
X-384055725Y-71208040D01*
X-385728667Y-72879412D01*
X-385728667Y-69536667D01*
X-386829334Y-69536667D01*
X-386829334Y-72500000D01*
G37*
X-386829334Y-72500000D02*
X-386828126Y-73318188D01*
X-386824170Y-73980835D01*
X-386816968Y-74501718D01*
X-386806019Y-74894616D01*
X-386790825Y-75173306D01*
X-386770887Y-75351565D01*
X-386745706Y-75443172D01*
X-386721987Y-75463334D01*
X-386627148Y-75406099D01*
X-386438197Y-75248582D01*
X-386178909Y-75012058D01*
X-385873057Y-74717805D01*
X-385728667Y-74574334D01*
X-385414219Y-74262262D01*
X-385141478Y-73998087D01*
X-384932711Y-73802875D01*
X-384810184Y-73697688D01*
X-384788942Y-73685334D01*
X-384707124Y-73733978D01*
X-384513634Y-73868881D01*
X-384231354Y-74073492D01*
X-383883166Y-74331264D01*
X-383559762Y-74574296D01*
X-383166864Y-74865242D01*
X-382812254Y-75116249D01*
X-382520996Y-75310483D01*
X-382318157Y-75431107D01*
X-382236167Y-75463296D01*
X-382196774Y-75454063D01*
X-382165028Y-75415418D01*
X-382140111Y-75330976D01*
X-382121202Y-75184353D01*
X-382107483Y-74959162D01*
X-382098134Y-74639020D01*
X-382092336Y-74207540D01*
X-382089270Y-73648337D01*
X-382088116Y-72945028D01*
X-382088045Y-72669334D01*
X-383188667Y-72669334D01*
X-383196376Y-72961457D01*
X-383216664Y-73173133D01*
X-383245271Y-73261534D01*
X-383247616Y-73262000D01*
X-383346803Y-73217635D01*
X-383529847Y-73105398D01*
X-383628616Y-73038819D01*
X-383819771Y-72896834D01*
X-383935186Y-72792750D01*
X-383950667Y-72767222D01*
X-383894272Y-72677009D01*
X-383754695Y-72519628D01*
X-383576349Y-72339237D01*
X-383403646Y-72179997D01*
X-383280996Y-72086064D01*
X-383256151Y-72076667D01*
X-383222889Y-72154169D01*
X-383198787Y-72358128D01*
X-383188720Y-72645721D01*
X-383188667Y-72669334D01*
X-382088045Y-72669334D01*
X-382088000Y-72500000D01*
X-382088471Y-71711997D01*
X-382090427Y-71076951D01*
X-382094682Y-70578485D01*
X-382102052Y-70200224D01*
X-382113349Y-69925793D01*
X-382129390Y-69738815D01*
X-382150988Y-69622916D01*
X-382178958Y-69561719D01*
X-382214114Y-69538849D01*
X-382235392Y-69536667D01*
X-382331701Y-69594532D01*
X-382529860Y-69757873D01*
X-382813113Y-70011306D01*
X-383164707Y-70339448D01*
X-383567886Y-70726914D01*
X-384005896Y-71158322D01*
X-384055725Y-71208040D01*
X-385728667Y-72879412D01*
X-385728667Y-69536667D01*
X-386829334Y-69536667D01*
X-386829334Y-72500000D01*
G36*
X-397633050Y-101894964D02*
G01*
X-398177767Y-102028134D01*
X-398629747Y-102245923D01*
X-398715788Y-102307581D01*
X-398927455Y-102471842D01*
X-398542478Y-102858905D01*
X-398157502Y-103245967D01*
X-397846698Y-103116105D01*
X-397365422Y-103000515D01*
X-396849726Y-103020315D01*
X-396352260Y-103165665D01*
X-395925677Y-103426723D01*
X-395857751Y-103487856D01*
X-395585830Y-103803234D01*
X-395413209Y-104156874D01*
X-395334094Y-104443887D01*
X-395292370Y-104976699D01*
X-395396401Y-105469550D01*
X-395624047Y-105904507D01*
X-395953169Y-106263638D01*
X-396361627Y-106529012D01*
X-396827282Y-106682696D01*
X-397327995Y-106706759D01*
X-397841625Y-106583270D01*
X-397929408Y-106545961D01*
X-398286028Y-106384066D01*
X-398631944Y-106797225D01*
X-398977860Y-107210383D01*
X-398783324Y-107337592D01*
X-398174527Y-107645989D01*
X-397514118Y-107822485D01*
X-396844725Y-107859828D01*
X-396262508Y-107766430D01*
X-395578529Y-107494197D01*
X-395002077Y-107091203D01*
X-394534467Y-106558567D01*
X-394241732Y-106044403D01*
X-394123627Y-105757283D01*
X-394055409Y-105484434D01*
X-394024624Y-105159011D01*
X-394018621Y-104847129D01*
X-394024931Y-104465564D01*
X-394055955Y-104184648D01*
X-394126369Y-103935994D01*
X-394250853Y-103651215D01*
X-394294543Y-103561481D01*
X-394666603Y-102977319D01*
X-395148499Y-102490982D01*
X-395709604Y-102131295D01*
X-395904717Y-102046161D01*
X-396450302Y-101899679D01*
X-397041821Y-101850713D01*
X-397633050Y-101894964D01*
G37*
X-397633050Y-101894964D02*
X-398177767Y-102028134D01*
X-398629747Y-102245923D01*
X-398715788Y-102307581D01*
X-398927455Y-102471842D01*
X-398542478Y-102858905D01*
X-398157502Y-103245967D01*
X-397846698Y-103116105D01*
X-397365422Y-103000515D01*
X-396849726Y-103020315D01*
X-396352260Y-103165665D01*
X-395925677Y-103426723D01*
X-395857751Y-103487856D01*
X-395585830Y-103803234D01*
X-395413209Y-104156874D01*
X-395334094Y-104443887D01*
X-395292370Y-104976699D01*
X-395396401Y-105469550D01*
X-395624047Y-105904507D01*
X-395953169Y-106263638D01*
X-396361627Y-106529012D01*
X-396827282Y-106682696D01*
X-397327995Y-106706759D01*
X-397841625Y-106583270D01*
X-397929408Y-106545961D01*
X-398286028Y-106384066D01*
X-398631944Y-106797225D01*
X-398977860Y-107210383D01*
X-398783324Y-107337592D01*
X-398174527Y-107645989D01*
X-397514118Y-107822485D01*
X-396844725Y-107859828D01*
X-396262508Y-107766430D01*
X-395578529Y-107494197D01*
X-395002077Y-107091203D01*
X-394534467Y-106558567D01*
X-394241732Y-106044403D01*
X-394123627Y-105757283D01*
X-394055409Y-105484434D01*
X-394024624Y-105159011D01*
X-394018621Y-104847129D01*
X-394024931Y-104465564D01*
X-394055955Y-104184648D01*
X-394126369Y-103935994D01*
X-394250853Y-103651215D01*
X-394294543Y-103561481D01*
X-394666603Y-102977319D01*
X-395148499Y-102490982D01*
X-395709604Y-102131295D01*
X-395904717Y-102046161D01*
X-396450302Y-101899679D01*
X-397041821Y-101850713D01*
X-397633050Y-101894964D01*
G36*
X-403263223Y-101885865D02*
G01*
X-403890284Y-101887364D01*
X-404381263Y-101891017D01*
X-404752788Y-101897768D01*
X-405021484Y-101908563D01*
X-405203976Y-101924347D01*
X-405316892Y-101946063D01*
X-405376856Y-101974657D01*
X-405400496Y-102011074D01*
X-405404455Y-102051563D01*
X-405369182Y-102164052D01*
X-405268801Y-102410961D01*
X-405111467Y-102774049D01*
X-404905335Y-103235074D01*
X-404658560Y-103775791D01*
X-404379298Y-104377960D01*
X-404079702Y-105014896D01*
X-403711191Y-105788756D01*
X-403406187Y-106419109D01*
X-403158892Y-106916952D01*
X-402963510Y-107293280D01*
X-402814244Y-107559088D01*
X-402705298Y-107725371D01*
X-402630874Y-107803127D01*
X-402604945Y-107812243D01*
X-402529580Y-107765873D01*
X-402414313Y-107619242D01*
X-402252378Y-107361066D01*
X-402037012Y-106980062D01*
X-401761451Y-106464948D01*
X-401526304Y-106013076D01*
X-401041389Y-105071092D01*
X-400632380Y-104270925D01*
X-400295536Y-103604961D01*
X-400041659Y-103094803D01*
X-401373005Y-103094803D01*
X-401399714Y-103175863D01*
X-401492277Y-103380676D01*
X-401638119Y-103682917D01*
X-401824663Y-104056265D01*
X-401944159Y-104290360D01*
X-402153220Y-104684874D01*
X-402339102Y-105013135D01*
X-402487322Y-105251304D01*
X-402583400Y-105375544D01*
X-402609691Y-105385834D01*
X-402667333Y-105286857D01*
X-402780929Y-105063598D01*
X-402935871Y-104745707D01*
X-403117550Y-104362834D01*
X-403187102Y-104213909D01*
X-403698959Y-103113243D01*
X-402550394Y-103089611D01*
X-402128464Y-103082977D01*
X-401771887Y-103081253D01*
X-401512460Y-103084299D01*
X-401381982Y-103091975D01*
X-401373005Y-103094803D01*
X-400041659Y-103094803D01*
X-400027117Y-103065583D01*
X-399823384Y-102645176D01*
X-399680596Y-102336123D01*
X-399595014Y-102130809D01*
X-399562898Y-102021618D01*
X-399562455Y-102013878D01*
X-399579372Y-101979247D01*
X-399640794Y-101951351D01*
X-399762724Y-101929486D01*
X-399961165Y-101912950D01*
X-400252121Y-101901040D01*
X-400651596Y-101893053D01*
X-401175594Y-101888286D01*
X-401840118Y-101886036D01*
X-402483455Y-101885576D01*
X-403263223Y-101885865D01*
G37*
X-403263223Y-101885865D02*
X-403890284Y-101887364D01*
X-404381263Y-101891017D01*
X-404752788Y-101897768D01*
X-405021484Y-101908563D01*
X-405203976Y-101924347D01*
X-405316892Y-101946063D01*
X-405376856Y-101974657D01*
X-405400496Y-102011074D01*
X-405404455Y-102051563D01*
X-405369182Y-102164052D01*
X-405268801Y-102410961D01*
X-405111467Y-102774049D01*
X-404905335Y-103235074D01*
X-404658560Y-103775791D01*
X-404379298Y-104377960D01*
X-404079702Y-105014896D01*
X-403711191Y-105788756D01*
X-403406187Y-106419109D01*
X-403158892Y-106916952D01*
X-402963510Y-107293280D01*
X-402814244Y-107559088D01*
X-402705298Y-107725371D01*
X-402630874Y-107803127D01*
X-402604945Y-107812243D01*
X-402529580Y-107765873D01*
X-402414313Y-107619242D01*
X-402252378Y-107361066D01*
X-402037012Y-106980062D01*
X-401761451Y-106464948D01*
X-401526304Y-106013076D01*
X-401041389Y-105071092D01*
X-400632380Y-104270925D01*
X-400295536Y-103604961D01*
X-400041659Y-103094803D01*
X-401373005Y-103094803D01*
X-401399714Y-103175863D01*
X-401492277Y-103380676D01*
X-401638119Y-103682917D01*
X-401824663Y-104056265D01*
X-401944159Y-104290360D01*
X-402153220Y-104684874D01*
X-402339102Y-105013135D01*
X-402487322Y-105251304D01*
X-402583400Y-105375544D01*
X-402609691Y-105385834D01*
X-402667333Y-105286857D01*
X-402780929Y-105063598D01*
X-402935871Y-104745707D01*
X-403117550Y-104362834D01*
X-403187102Y-104213909D01*
X-403698959Y-103113243D01*
X-402550394Y-103089611D01*
X-402128464Y-103082977D01*
X-401771887Y-103081253D01*
X-401512460Y-103084299D01*
X-401381982Y-103091975D01*
X-401373005Y-103094803D01*
X-400041659Y-103094803D01*
X-400027117Y-103065583D01*
X-399823384Y-102645176D01*
X-399680596Y-102336123D01*
X-399595014Y-102130809D01*
X-399562898Y-102021618D01*
X-399562455Y-102013878D01*
X-399579372Y-101979247D01*
X-399640794Y-101951351D01*
X-399762724Y-101929486D01*
X-399961165Y-101912950D01*
X-400252121Y-101901040D01*
X-400651596Y-101893053D01*
X-401175594Y-101888286D01*
X-401840118Y-101886036D01*
X-402483455Y-101885576D01*
X-403263223Y-101885865D01*
G36*
X-365052667Y-103391334D02*
G01*
X-364460000Y-103391334D01*
X-364460000Y-104576667D01*
X-364756334Y-104576667D01*
X-364951127Y-104592588D01*
X-365046849Y-104631746D01*
X-365048972Y-104640167D01*
X-365030976Y-104751173D01*
X-364987963Y-104975293D01*
X-364940007Y-105211667D01*
X-364869447Y-105502734D01*
X-364796484Y-105664225D01*
X-364699945Y-105734854D01*
X-364647369Y-105746722D01*
X-364548588Y-105774990D01*
X-364492304Y-105849730D01*
X-364466733Y-106009541D01*
X-364460094Y-106293024D01*
X-364460000Y-106360555D01*
X-364460000Y-106947334D01*
X-365052667Y-106947334D01*
X-365052667Y-108132667D01*
X-362682000Y-108132667D01*
X-362682000Y-106947334D01*
X-363274667Y-106947334D01*
X-363274667Y-106360555D01*
X-363270079Y-106050314D01*
X-363248593Y-105870779D01*
X-363198624Y-105783406D01*
X-363108588Y-105749651D01*
X-363090178Y-105746722D01*
X-362971861Y-105695602D01*
X-362885197Y-105558025D01*
X-362807188Y-105295282D01*
X-362797432Y-105254000D01*
X-362723542Y-104921743D01*
X-362697973Y-104721018D01*
X-362729574Y-104618689D01*
X-362827194Y-104581620D01*
X-362978334Y-104576667D01*
X-363274667Y-104576667D01*
X-363274667Y-103391334D01*
X-362682000Y-103391334D01*
X-362682000Y-102206000D01*
X-365052667Y-102206000D01*
X-365052667Y-103391334D01*
G37*
X-365052667Y-103391334D02*
X-364460000Y-103391334D01*
X-364460000Y-104576667D01*
X-364756334Y-104576667D01*
X-364951127Y-104592588D01*
X-365046849Y-104631746D01*
X-365048972Y-104640167D01*
X-365030976Y-104751173D01*
X-364987963Y-104975293D01*
X-364940007Y-105211667D01*
X-364869447Y-105502734D01*
X-364796484Y-105664225D01*
X-364699945Y-105734854D01*
X-364647369Y-105746722D01*
X-364548588Y-105774990D01*
X-364492304Y-105849730D01*
X-364466733Y-106009541D01*
X-364460094Y-106293024D01*
X-364460000Y-106360555D01*
X-364460000Y-106947334D01*
X-365052667Y-106947334D01*
X-365052667Y-108132667D01*
X-362682000Y-108132667D01*
X-362682000Y-106947334D01*
X-363274667Y-106947334D01*
X-363274667Y-106360555D01*
X-363270079Y-106050314D01*
X-363248593Y-105870779D01*
X-363198624Y-105783406D01*
X-363108588Y-105749651D01*
X-363090178Y-105746722D01*
X-362971861Y-105695602D01*
X-362885197Y-105558025D01*
X-362807188Y-105295282D01*
X-362797432Y-105254000D01*
X-362723542Y-104921743D01*
X-362697973Y-104721018D01*
X-362729574Y-104618689D01*
X-362827194Y-104581620D01*
X-362978334Y-104576667D01*
X-363274667Y-104576667D01*
X-363274667Y-103391334D01*
X-362682000Y-103391334D01*
X-362682000Y-102206000D01*
X-365052667Y-102206000D01*
X-365052667Y-103391334D01*
G36*
X-371318000Y-105169334D02*
G01*
X-371316793Y-105987521D01*
X-371312837Y-106650168D01*
X-371305635Y-107171052D01*
X-371294686Y-107563950D01*
X-371279492Y-107842640D01*
X-371259554Y-108020899D01*
X-371234372Y-108112505D01*
X-371210654Y-108132667D01*
X-371115814Y-108075433D01*
X-370926863Y-107917915D01*
X-370667575Y-107681392D01*
X-370361724Y-107387138D01*
X-370217334Y-107243667D01*
X-369902886Y-106931595D01*
X-369630145Y-106667420D01*
X-369421378Y-106472208D01*
X-369298851Y-106367022D01*
X-369277609Y-106354667D01*
X-369195790Y-106403312D01*
X-369002301Y-106538214D01*
X-368720021Y-106742825D01*
X-368371833Y-107000597D01*
X-368048429Y-107243629D01*
X-367655531Y-107534575D01*
X-367300920Y-107785583D01*
X-367009663Y-107979816D01*
X-366806823Y-108100440D01*
X-366724834Y-108132629D01*
X-366685441Y-108123396D01*
X-366653695Y-108084751D01*
X-366628778Y-108000310D01*
X-366609869Y-107853686D01*
X-366596150Y-107628496D01*
X-366586801Y-107308353D01*
X-366581003Y-106876873D01*
X-366577937Y-106317671D01*
X-366576783Y-105614361D01*
X-366576712Y-105338667D01*
X-367677334Y-105338667D01*
X-367685043Y-105630791D01*
X-367705331Y-105842467D01*
X-367733938Y-105930867D01*
X-367736283Y-105931334D01*
X-367835470Y-105886969D01*
X-368018514Y-105774731D01*
X-368117283Y-105708152D01*
X-368308437Y-105566167D01*
X-368423853Y-105462083D01*
X-368439334Y-105436555D01*
X-368382939Y-105346342D01*
X-368243362Y-105188961D01*
X-368065016Y-105008571D01*
X-367892312Y-104849330D01*
X-367769663Y-104755398D01*
X-367744817Y-104746000D01*
X-367711556Y-104823503D01*
X-367687454Y-105027462D01*
X-367677387Y-105315054D01*
X-367677334Y-105338667D01*
X-366576712Y-105338667D01*
X-366576667Y-105169334D01*
X-366577138Y-104381331D01*
X-366579094Y-103746284D01*
X-366583349Y-103247818D01*
X-366590718Y-102869557D01*
X-366602016Y-102595126D01*
X-366618057Y-102408148D01*
X-366639655Y-102292249D01*
X-366667625Y-102231052D01*
X-366702781Y-102208182D01*
X-366724059Y-102206000D01*
X-366820368Y-102263866D01*
X-367018526Y-102427207D01*
X-367301780Y-102680640D01*
X-367653373Y-103008781D01*
X-368056552Y-103396247D01*
X-368494563Y-103827655D01*
X-368544392Y-103877373D01*
X-370217334Y-105548746D01*
X-370217334Y-102206000D01*
X-371318000Y-102206000D01*
X-371318000Y-105169334D01*
G37*
X-371318000Y-105169334D02*
X-371316793Y-105987521D01*
X-371312837Y-106650168D01*
X-371305635Y-107171052D01*
X-371294686Y-107563950D01*
X-371279492Y-107842640D01*
X-371259554Y-108020899D01*
X-371234372Y-108112505D01*
X-371210654Y-108132667D01*
X-371115814Y-108075433D01*
X-370926863Y-107917915D01*
X-370667575Y-107681392D01*
X-370361724Y-107387138D01*
X-370217334Y-107243667D01*
X-369902886Y-106931595D01*
X-369630145Y-106667420D01*
X-369421378Y-106472208D01*
X-369298851Y-106367022D01*
X-369277609Y-106354667D01*
X-369195790Y-106403312D01*
X-369002301Y-106538214D01*
X-368720021Y-106742825D01*
X-368371833Y-107000597D01*
X-368048429Y-107243629D01*
X-367655531Y-107534575D01*
X-367300920Y-107785583D01*
X-367009663Y-107979816D01*
X-366806823Y-108100440D01*
X-366724834Y-108132629D01*
X-366685441Y-108123396D01*
X-366653695Y-108084751D01*
X-366628778Y-108000310D01*
X-366609869Y-107853686D01*
X-366596150Y-107628496D01*
X-366586801Y-107308353D01*
X-366581003Y-106876873D01*
X-366577937Y-106317671D01*
X-366576783Y-105614361D01*
X-366576712Y-105338667D01*
X-367677334Y-105338667D01*
X-367685043Y-105630791D01*
X-367705331Y-105842467D01*
X-367733938Y-105930867D01*
X-367736283Y-105931334D01*
X-367835470Y-105886969D01*
X-368018514Y-105774731D01*
X-368117283Y-105708152D01*
X-368308437Y-105566167D01*
X-368423853Y-105462083D01*
X-368439334Y-105436555D01*
X-368382939Y-105346342D01*
X-368243362Y-105188961D01*
X-368065016Y-105008571D01*
X-367892312Y-104849330D01*
X-367769663Y-104755398D01*
X-367744817Y-104746000D01*
X-367711556Y-104823503D01*
X-367687454Y-105027462D01*
X-367677387Y-105315054D01*
X-367677334Y-105338667D01*
X-366576712Y-105338667D01*
X-366576667Y-105169334D01*
X-366577138Y-104381331D01*
X-366579094Y-103746284D01*
X-366583349Y-103247818D01*
X-366590718Y-102869557D01*
X-366602016Y-102595126D01*
X-366618057Y-102408148D01*
X-366639655Y-102292249D01*
X-366667625Y-102231052D01*
X-366702781Y-102208182D01*
X-366724059Y-102206000D01*
X-366820368Y-102263866D01*
X-367018526Y-102427207D01*
X-367301780Y-102680640D01*
X-367653373Y-103008781D01*
X-368056552Y-103396247D01*
X-368494563Y-103827655D01*
X-368544392Y-103877373D01*
X-370217334Y-105548746D01*
X-370217334Y-102206000D01*
X-371318000Y-102206000D01*
X-371318000Y-105169334D01*
G36*
X-428911265Y-69509294D02*
G01*
X-429200660Y-69547234D01*
X-429474299Y-69632405D01*
X-429770139Y-69762618D01*
X-430398651Y-70143155D01*
X-430900677Y-70630079D01*
X-431267705Y-71215126D01*
X-431268806Y-71217473D01*
X-431379358Y-71477510D01*
X-431446804Y-71718107D01*
X-431481191Y-71996747D01*
X-431492569Y-72370912D01*
X-431493000Y-72500000D01*
X-431486245Y-72911032D01*
X-431459281Y-73210519D01*
X-431402059Y-73455941D01*
X-431304531Y-73704782D01*
X-431268806Y-73782528D01*
X-430912800Y-74352340D01*
X-430439787Y-74823548D01*
X-429877489Y-75183354D01*
X-429253627Y-75418959D01*
X-428595924Y-75517565D01*
X-427932100Y-75466373D01*
X-427727386Y-75417521D01*
X-427043408Y-75145288D01*
X-426466956Y-74742294D01*
X-425999345Y-74209658D01*
X-425706611Y-73695494D01*
X-425588505Y-73408374D01*
X-425541914Y-73222021D01*
X-426808259Y-73222021D01*
X-426810661Y-73316515D01*
X-426894407Y-73448498D01*
X-427044830Y-73624231D01*
X-427111500Y-73698323D01*
X-427541492Y-74065376D01*
X-428026111Y-74289839D01*
X-428537777Y-74365933D01*
X-429048914Y-74287879D01*
X-429341850Y-74165718D01*
X-429564831Y-74014340D01*
X-429806195Y-73799651D01*
X-430028369Y-73562134D01*
X-430193777Y-73342270D01*
X-430264847Y-73180542D01*
X-430265334Y-73170752D01*
X-430184171Y-73145743D01*
X-429954654Y-73124491D01*
X-429597737Y-73107938D01*
X-429134375Y-73097027D01*
X-428585524Y-73092701D01*
X-428529667Y-73092667D01*
X-427905379Y-73093666D01*
X-427435759Y-73100838D01*
X-427106143Y-73120445D01*
X-426901864Y-73158752D01*
X-426808259Y-73222021D01*
X-425541914Y-73222021D01*
X-425520288Y-73135525D01*
X-425489502Y-72810102D01*
X-425483500Y-72498220D01*
X-425489809Y-72116655D01*
X-425520833Y-71835739D01*
X-425532207Y-71795573D01*
X-426794000Y-71795573D01*
X-426826288Y-71834550D01*
X-426935403Y-71863809D01*
X-427139718Y-71884533D01*
X-427457608Y-71897906D01*
X-427907448Y-71905111D01*
X-428507613Y-71907332D01*
X-428529667Y-71907334D01*
X-429085553Y-71903682D01*
X-429557942Y-71893357D01*
X-429925878Y-71877299D01*
X-430168406Y-71856454D01*
X-430264572Y-71831762D01*
X-430265334Y-71829249D01*
X-430204039Y-71674346D01*
X-430045204Y-71457858D01*
X-429826402Y-71220267D01*
X-429585209Y-71002055D01*
X-429359197Y-70843706D01*
X-429341850Y-70834283D01*
X-428867447Y-70673286D01*
X-428350085Y-70648312D01*
X-427849532Y-70760770D01*
X-427762942Y-70797026D01*
X-427536280Y-70936196D01*
X-427287932Y-71142920D01*
X-427056235Y-71377690D01*
X-426879525Y-71600997D01*
X-426796140Y-71773333D01*
X-426794000Y-71795573D01*
X-425532207Y-71795573D01*
X-425591248Y-71587085D01*
X-425715731Y-71302306D01*
X-425759422Y-71212572D01*
X-426149486Y-70593570D01*
X-426640922Y-70109086D01*
X-427227117Y-69763200D01*
X-427901461Y-69559992D01*
X-428529667Y-69502558D01*
X-428911265Y-69509294D01*
G37*
X-428911265Y-69509294D02*
X-429200660Y-69547234D01*
X-429474299Y-69632405D01*
X-429770139Y-69762618D01*
X-430398651Y-70143155D01*
X-430900677Y-70630079D01*
X-431267705Y-71215126D01*
X-431268806Y-71217473D01*
X-431379358Y-71477510D01*
X-431446804Y-71718107D01*
X-431481191Y-71996747D01*
X-431492569Y-72370912D01*
X-431493000Y-72500000D01*
X-431486245Y-72911032D01*
X-431459281Y-73210519D01*
X-431402059Y-73455941D01*
X-431304531Y-73704782D01*
X-431268806Y-73782528D01*
X-430912800Y-74352340D01*
X-430439787Y-74823548D01*
X-429877489Y-75183354D01*
X-429253627Y-75418959D01*
X-428595924Y-75517565D01*
X-427932100Y-75466373D01*
X-427727386Y-75417521D01*
X-427043408Y-75145288D01*
X-426466956Y-74742294D01*
X-425999345Y-74209658D01*
X-425706611Y-73695494D01*
X-425588505Y-73408374D01*
X-425541914Y-73222021D01*
X-426808259Y-73222021D01*
X-426810661Y-73316515D01*
X-426894407Y-73448498D01*
X-427044830Y-73624231D01*
X-427111500Y-73698323D01*
X-427541492Y-74065376D01*
X-428026111Y-74289839D01*
X-428537777Y-74365933D01*
X-429048914Y-74287879D01*
X-429341850Y-74165718D01*
X-429564831Y-74014340D01*
X-429806195Y-73799651D01*
X-430028369Y-73562134D01*
X-430193777Y-73342270D01*
X-430264847Y-73180542D01*
X-430265334Y-73170752D01*
X-430184171Y-73145743D01*
X-429954654Y-73124491D01*
X-429597737Y-73107938D01*
X-429134375Y-73097027D01*
X-428585524Y-73092701D01*
X-428529667Y-73092667D01*
X-427905379Y-73093666D01*
X-427435759Y-73100838D01*
X-427106143Y-73120445D01*
X-426901864Y-73158752D01*
X-426808259Y-73222021D01*
X-425541914Y-73222021D01*
X-425520288Y-73135525D01*
X-425489502Y-72810102D01*
X-425483500Y-72498220D01*
X-425489809Y-72116655D01*
X-425520833Y-71835739D01*
X-425532207Y-71795573D01*
X-426794000Y-71795573D01*
X-426826288Y-71834550D01*
X-426935403Y-71863809D01*
X-427139718Y-71884533D01*
X-427457608Y-71897906D01*
X-427907448Y-71905111D01*
X-428507613Y-71907332D01*
X-428529667Y-71907334D01*
X-429085553Y-71903682D01*
X-429557942Y-71893357D01*
X-429925878Y-71877299D01*
X-430168406Y-71856454D01*
X-430264572Y-71831762D01*
X-430265334Y-71829249D01*
X-430204039Y-71674346D01*
X-430045204Y-71457858D01*
X-429826402Y-71220267D01*
X-429585209Y-71002055D01*
X-429359197Y-70843706D01*
X-429341850Y-70834283D01*
X-428867447Y-70673286D01*
X-428350085Y-70648312D01*
X-427849532Y-70760770D01*
X-427762942Y-70797026D01*
X-427536280Y-70936196D01*
X-427287932Y-71142920D01*
X-427056235Y-71377690D01*
X-426879525Y-71600997D01*
X-426796140Y-71773333D01*
X-426794000Y-71795573D01*
X-425532207Y-71795573D01*
X-425591248Y-71587085D01*
X-425715731Y-71302306D01*
X-425759422Y-71212572D01*
X-426149486Y-70593570D01*
X-426640922Y-70109086D01*
X-427227117Y-69763200D01*
X-427901461Y-69559992D01*
X-428529667Y-69502558D01*
X-428911265Y-69509294D01*
G36*
X-417650000Y-72669334D02*
G01*
X-419428000Y-72669334D01*
X-419428000Y-73854667D01*
X-417650000Y-73854667D01*
X-417650000Y-74278000D01*
X-419851334Y-74278000D01*
X-419851334Y-75463334D01*
X-416464667Y-75463334D01*
X-416464667Y-69536667D01*
X-417650000Y-69536667D01*
X-417650000Y-72669334D01*
G37*
X-417650000Y-72669334D02*
X-419428000Y-72669334D01*
X-419428000Y-73854667D01*
X-417650000Y-73854667D01*
X-417650000Y-74278000D01*
X-419851334Y-74278000D01*
X-419851334Y-75463334D01*
X-416464667Y-75463334D01*
X-416464667Y-69536667D01*
X-417650000Y-69536667D01*
X-417650000Y-72669334D01*
G36*
X-424677334Y-70722000D02*
G01*
X-421883334Y-70722000D01*
X-421883334Y-72669334D01*
X-424169334Y-72669334D01*
X-424169334Y-73854667D01*
X-421883334Y-73854667D01*
X-421883334Y-75463334D01*
X-420698000Y-75463334D01*
X-420698000Y-69536667D01*
X-424677334Y-69536667D01*
X-424677334Y-70722000D01*
G37*
X-424677334Y-70722000D02*
X-421883334Y-70722000D01*
X-421883334Y-72669334D01*
X-424169334Y-72669334D01*
X-424169334Y-73854667D01*
X-421883334Y-73854667D01*
X-421883334Y-75463334D01*
X-420698000Y-75463334D01*
X-420698000Y-69536667D01*
X-424677334Y-69536667D01*
X-424677334Y-70722000D01*
G36*
X-434135898Y-26831534D02*
G01*
X-434803158Y-27087801D01*
X-435409394Y-27470902D01*
X-435935520Y-27966682D01*
X-436362450Y-28560989D01*
X-436671097Y-29239670D01*
X-436816429Y-29812513D01*
X-436864086Y-30554750D01*
X-436759198Y-31264181D01*
X-436517639Y-31925565D01*
X-436155284Y-32523661D01*
X-435688008Y-33043229D01*
X-435131685Y-33469027D01*
X-434502189Y-33785816D01*
X-433815396Y-33978354D01*
X-433087179Y-34031401D01*
X-432491839Y-33964424D01*
X-431770376Y-33739595D01*
X-431120544Y-33371814D01*
X-430558723Y-32878195D01*
X-430101296Y-32275853D01*
X-429764643Y-31581903D01*
X-429671700Y-31243841D01*
X-431147267Y-31243841D01*
X-431160510Y-31338128D01*
X-431233745Y-31465118D01*
X-431351353Y-31629671D01*
X-431374471Y-31661504D01*
X-431789729Y-32103524D01*
X-432285096Y-32414553D01*
X-432832302Y-32586872D01*
X-433403075Y-32612760D01*
X-433969143Y-32484500D01*
X-434133667Y-32414882D01*
X-434602654Y-32122260D01*
X-434998484Y-31711035D01*
X-435136682Y-31518328D01*
X-435219666Y-31389918D01*
X-435264865Y-31290341D01*
X-435255619Y-31215929D01*
X-435175271Y-31163017D01*
X-435007162Y-31127941D01*
X-434734634Y-31107033D01*
X-434341029Y-31096628D01*
X-433809689Y-31093061D01*
X-433202334Y-31092667D01*
X-432527615Y-31092815D01*
X-432006606Y-31096502D01*
X-431623686Y-31108587D01*
X-431363236Y-31133931D01*
X-431209636Y-31177395D01*
X-431147267Y-31243841D01*
X-429671700Y-31243841D01*
X-429584619Y-30927107D01*
X-429533156Y-30210298D01*
X-429633584Y-29532915D01*
X-431128000Y-29532915D01*
X-431151443Y-29571131D01*
X-431233938Y-29600576D01*
X-431393732Y-29622311D01*
X-431649073Y-29637395D01*
X-432018208Y-29646886D01*
X-432519384Y-29651845D01*
X-433170849Y-29653331D01*
X-433202334Y-29653334D01*
X-433860632Y-29651973D01*
X-434367861Y-29647184D01*
X-434742268Y-29637907D01*
X-435002101Y-29623084D01*
X-435165608Y-29601656D01*
X-435251034Y-29572562D01*
X-435276629Y-29534743D01*
X-435276667Y-29532915D01*
X-435214306Y-29355349D01*
X-435049983Y-29115934D01*
X-434817842Y-28853564D01*
X-434552024Y-28607137D01*
X-434306334Y-28427481D01*
X-434076666Y-28296690D01*
X-433873334Y-28219803D01*
X-433636134Y-28182875D01*
X-433304862Y-28171964D01*
X-433201849Y-28171667D01*
X-432838219Y-28178298D01*
X-432583543Y-28207487D01*
X-432377660Y-28273172D01*
X-432160409Y-28389294D01*
X-432097849Y-28427481D01*
X-431831420Y-28624744D01*
X-431567125Y-28873824D01*
X-431339101Y-29135813D01*
X-431181483Y-29371805D01*
X-431128000Y-29532915D01*
X-429633584Y-29532915D01*
X-429636821Y-29511086D01*
X-429881413Y-28848514D01*
X-430252735Y-28241627D01*
X-430736586Y-27709467D01*
X-431318767Y-27271078D01*
X-431985078Y-26945503D01*
X-432694651Y-26756109D01*
X-433426700Y-26716252D01*
X-434135898Y-26831534D01*
G37*
X-434135898Y-26831534D02*
X-434803158Y-27087801D01*
X-435409394Y-27470902D01*
X-435935520Y-27966682D01*
X-436362450Y-28560989D01*
X-436671097Y-29239670D01*
X-436816429Y-29812513D01*
X-436864086Y-30554750D01*
X-436759198Y-31264181D01*
X-436517639Y-31925565D01*
X-436155284Y-32523661D01*
X-435688008Y-33043229D01*
X-435131685Y-33469027D01*
X-434502189Y-33785816D01*
X-433815396Y-33978354D01*
X-433087179Y-34031401D01*
X-432491839Y-33964424D01*
X-431770376Y-33739595D01*
X-431120544Y-33371814D01*
X-430558723Y-32878195D01*
X-430101296Y-32275853D01*
X-429764643Y-31581903D01*
X-429671700Y-31243841D01*
X-431147267Y-31243841D01*
X-431160510Y-31338128D01*
X-431233745Y-31465118D01*
X-431351353Y-31629671D01*
X-431374471Y-31661504D01*
X-431789729Y-32103524D01*
X-432285096Y-32414553D01*
X-432832302Y-32586872D01*
X-433403075Y-32612760D01*
X-433969143Y-32484500D01*
X-434133667Y-32414882D01*
X-434602654Y-32122260D01*
X-434998484Y-31711035D01*
X-435136682Y-31518328D01*
X-435219666Y-31389918D01*
X-435264865Y-31290341D01*
X-435255619Y-31215929D01*
X-435175271Y-31163017D01*
X-435007162Y-31127941D01*
X-434734634Y-31107033D01*
X-434341029Y-31096628D01*
X-433809689Y-31093061D01*
X-433202334Y-31092667D01*
X-432527615Y-31092815D01*
X-432006606Y-31096502D01*
X-431623686Y-31108587D01*
X-431363236Y-31133931D01*
X-431209636Y-31177395D01*
X-431147267Y-31243841D01*
X-429671700Y-31243841D01*
X-429584619Y-30927107D01*
X-429533156Y-30210298D01*
X-429633584Y-29532915D01*
X-431128000Y-29532915D01*
X-431151443Y-29571131D01*
X-431233938Y-29600576D01*
X-431393732Y-29622311D01*
X-431649073Y-29637395D01*
X-432018208Y-29646886D01*
X-432519384Y-29651845D01*
X-433170849Y-29653331D01*
X-433202334Y-29653334D01*
X-433860632Y-29651973D01*
X-434367861Y-29647184D01*
X-434742268Y-29637907D01*
X-435002101Y-29623084D01*
X-435165608Y-29601656D01*
X-435251034Y-29572562D01*
X-435276629Y-29534743D01*
X-435276667Y-29532915D01*
X-435214306Y-29355349D01*
X-435049983Y-29115934D01*
X-434817842Y-28853564D01*
X-434552024Y-28607137D01*
X-434306334Y-28427481D01*
X-434076666Y-28296690D01*
X-433873334Y-28219803D01*
X-433636134Y-28182875D01*
X-433304862Y-28171964D01*
X-433201849Y-28171667D01*
X-432838219Y-28178298D01*
X-432583543Y-28207487D01*
X-432377660Y-28273172D01*
X-432160409Y-28389294D01*
X-432097849Y-28427481D01*
X-431831420Y-28624744D01*
X-431567125Y-28873824D01*
X-431339101Y-29135813D01*
X-431181483Y-29371805D01*
X-431128000Y-29532915D01*
X-429633584Y-29532915D01*
X-429636821Y-29511086D01*
X-429881413Y-28848514D01*
X-430252735Y-28241627D01*
X-430736586Y-27709467D01*
X-431318767Y-27271078D01*
X-431985078Y-26945503D01*
X-432694651Y-26756109D01*
X-433426700Y-26716252D01*
X-434135898Y-26831534D01*
G36*
X-413319534Y-26892043D02*
G01*
X-413405981Y-26997227D01*
X-413528565Y-27185471D01*
X-413693181Y-27467358D01*
X-413905722Y-27853474D01*
X-414172082Y-28354403D01*
X-414498152Y-28980730D01*
X-414889827Y-29743038D01*
X-415120111Y-30194199D01*
X-415475225Y-30896030D01*
X-415805175Y-31557574D01*
X-416102085Y-32162345D01*
X-416358076Y-32693857D01*
X-416565272Y-33135626D01*
X-416715794Y-33471165D01*
X-416801765Y-33683988D01*
X-416819334Y-33750199D01*
X-416813127Y-33859843D01*
X-416771469Y-33925499D01*
X-416659800Y-33958448D01*
X-416443564Y-33969967D01*
X-416141784Y-33971334D01*
X-415464235Y-33971334D01*
X-414385723Y-31812334D01*
X-414106894Y-31257524D01*
X-413851372Y-30755497D01*
X-413629111Y-30325305D01*
X-413450069Y-29986000D01*
X-413324202Y-29756633D01*
X-413261467Y-29656255D01*
X-413257411Y-29653334D01*
X-413197010Y-29723306D01*
X-413094617Y-29903311D01*
X-413013868Y-30066985D01*
X-412820124Y-30480636D01*
X-413634754Y-32077818D01*
X-413877602Y-32560749D01*
X-414091568Y-32999251D01*
X-414265188Y-33368748D01*
X-414386994Y-33644662D01*
X-414445521Y-33802416D01*
X-414449025Y-33823167D01*
X-414428841Y-33896642D01*
X-414346955Y-33941053D01*
X-414170712Y-33963276D01*
X-413867454Y-33970186D01*
X-413750167Y-33970305D01*
X-413051667Y-33969277D01*
X-412548826Y-32987683D01*
X-412045986Y-32006089D01*
X-411553304Y-32988711D01*
X-411060622Y-33971334D01*
X-410383978Y-33971334D01*
X-410048306Y-33969301D01*
X-409847386Y-33955668D01*
X-409746637Y-33919134D01*
X-409711478Y-33848398D01*
X-409707334Y-33750199D01*
X-409744913Y-33630232D01*
X-409852400Y-33376340D01*
X-410021917Y-33005010D01*
X-410245587Y-32532725D01*
X-410515531Y-31975973D01*
X-410823872Y-31351239D01*
X-411162733Y-30675008D01*
X-411406556Y-30194199D01*
X-411834478Y-29357399D01*
X-412193748Y-28662055D01*
X-412490258Y-28097584D01*
X-412729901Y-27653401D01*
X-412918572Y-27318921D01*
X-413062162Y-27083560D01*
X-413166565Y-26936734D01*
X-413237675Y-26867857D01*
X-413263334Y-26859334D01*
X-413319534Y-26892043D01*
G37*
X-413319534Y-26892043D02*
X-413405981Y-26997227D01*
X-413528565Y-27185471D01*
X-413693181Y-27467358D01*
X-413905722Y-27853474D01*
X-414172082Y-28354403D01*
X-414498152Y-28980730D01*
X-414889827Y-29743038D01*
X-415120111Y-30194199D01*
X-415475225Y-30896030D01*
X-415805175Y-31557574D01*
X-416102085Y-32162345D01*
X-416358076Y-32693857D01*
X-416565272Y-33135626D01*
X-416715794Y-33471165D01*
X-416801765Y-33683988D01*
X-416819334Y-33750199D01*
X-416813127Y-33859843D01*
X-416771469Y-33925499D01*
X-416659800Y-33958448D01*
X-416443564Y-33969967D01*
X-416141784Y-33971334D01*
X-415464235Y-33971334D01*
X-414385723Y-31812334D01*
X-414106894Y-31257524D01*
X-413851372Y-30755497D01*
X-413629111Y-30325305D01*
X-413450069Y-29986000D01*
X-413324202Y-29756633D01*
X-413261467Y-29656255D01*
X-413257411Y-29653334D01*
X-413197010Y-29723306D01*
X-413094617Y-29903311D01*
X-413013868Y-30066985D01*
X-412820124Y-30480636D01*
X-413634754Y-32077818D01*
X-413877602Y-32560749D01*
X-414091568Y-32999251D01*
X-414265188Y-33368748D01*
X-414386994Y-33644662D01*
X-414445521Y-33802416D01*
X-414449025Y-33823167D01*
X-414428841Y-33896642D01*
X-414346955Y-33941053D01*
X-414170712Y-33963276D01*
X-413867454Y-33970186D01*
X-413750167Y-33970305D01*
X-413051667Y-33969277D01*
X-412548826Y-32987683D01*
X-412045986Y-32006089D01*
X-411553304Y-32988711D01*
X-411060622Y-33971334D01*
X-410383978Y-33971334D01*
X-410048306Y-33969301D01*
X-409847386Y-33955668D01*
X-409746637Y-33919134D01*
X-409711478Y-33848398D01*
X-409707334Y-33750199D01*
X-409744913Y-33630232D01*
X-409852400Y-33376340D01*
X-410021917Y-33005010D01*
X-410245587Y-32532725D01*
X-410515531Y-31975973D01*
X-410823872Y-31351239D01*
X-411162733Y-30675008D01*
X-411406556Y-30194199D01*
X-411834478Y-29357399D01*
X-412193748Y-28662055D01*
X-412490258Y-28097584D01*
X-412729901Y-27653401D01*
X-412918572Y-27318921D01*
X-413062162Y-27083560D01*
X-413166565Y-26936734D01*
X-413237675Y-26867857D01*
X-413263334Y-26859334D01*
X-413319534Y-26892043D01*
G36*
X-423084667Y-27076607D02*
G01*
X-423049260Y-27197118D01*
X-422948022Y-27453454D01*
X-422788426Y-27828799D01*
X-422577945Y-28306334D01*
X-422324053Y-28869241D01*
X-422034224Y-29500702D01*
X-421715930Y-30183900D01*
X-421504485Y-30632607D01*
X-421120253Y-31442756D01*
X-420800449Y-32112351D01*
X-420538164Y-32654410D01*
X-420326487Y-33081950D01*
X-420158510Y-33407990D01*
X-420027321Y-33645549D01*
X-419926013Y-33807645D01*
X-419847674Y-33907295D01*
X-419785395Y-33957518D01*
X-419732375Y-33971334D01*
X-419678289Y-33956258D01*
X-419612531Y-33902595D01*
X-419527924Y-33797689D01*
X-419417291Y-33628883D01*
X-419273454Y-33383523D01*
X-419089238Y-33048951D01*
X-418857465Y-32612512D01*
X-418570958Y-32061550D01*
X-418222539Y-31383409D01*
X-417841223Y-30636468D01*
X-417486109Y-29934637D01*
X-417156158Y-29273093D01*
X-416859249Y-28668322D01*
X-416701284Y-28340341D01*
X-418258667Y-28340341D01*
X-418294758Y-28433412D01*
X-418393330Y-28645034D01*
X-418539831Y-28946514D01*
X-418719709Y-29309159D01*
X-418918412Y-29704275D01*
X-419121388Y-30103170D01*
X-419314086Y-30477150D01*
X-419481953Y-30797521D01*
X-419610437Y-31035592D01*
X-419684987Y-31162668D01*
X-419696810Y-31176041D01*
X-419744704Y-31102706D01*
X-419850936Y-30899906D01*
X-420003348Y-30592137D01*
X-420189785Y-30203896D01*
X-420375334Y-29808695D01*
X-420581920Y-29363666D01*
X-420763635Y-28971066D01*
X-420908442Y-28656991D01*
X-421004305Y-28447538D01*
X-421038556Y-28370654D01*
X-420968229Y-28346804D01*
X-420755672Y-28326292D01*
X-420427975Y-28310535D01*
X-420012229Y-28300951D01*
X-419662722Y-28298667D01*
X-419196554Y-28301042D01*
X-418795849Y-28307617D01*
X-418488441Y-28317566D01*
X-418302166Y-28330062D01*
X-418258667Y-28340341D01*
X-416701284Y-28340341D01*
X-416603257Y-28136810D01*
X-416396062Y-27695041D01*
X-416245540Y-27359502D01*
X-416159569Y-27146679D01*
X-416142000Y-27080468D01*
X-416142000Y-26859334D01*
X-423084667Y-26859334D01*
X-423084667Y-27076607D01*
G37*
X-423084667Y-27076607D02*
X-423049260Y-27197118D01*
X-422948022Y-27453454D01*
X-422788426Y-27828799D01*
X-422577945Y-28306334D01*
X-422324053Y-28869241D01*
X-422034224Y-29500702D01*
X-421715930Y-30183900D01*
X-421504485Y-30632607D01*
X-421120253Y-31442756D01*
X-420800449Y-32112351D01*
X-420538164Y-32654410D01*
X-420326487Y-33081950D01*
X-420158510Y-33407990D01*
X-420027321Y-33645549D01*
X-419926013Y-33807645D01*
X-419847674Y-33907295D01*
X-419785395Y-33957518D01*
X-419732375Y-33971334D01*
X-419678289Y-33956258D01*
X-419612531Y-33902595D01*
X-419527924Y-33797689D01*
X-419417291Y-33628883D01*
X-419273454Y-33383523D01*
X-419089238Y-33048951D01*
X-418857465Y-32612512D01*
X-418570958Y-32061550D01*
X-418222539Y-31383409D01*
X-417841223Y-30636468D01*
X-417486109Y-29934637D01*
X-417156158Y-29273093D01*
X-416859249Y-28668322D01*
X-416701284Y-28340341D01*
X-418258667Y-28340341D01*
X-418294758Y-28433412D01*
X-418393330Y-28645034D01*
X-418539831Y-28946514D01*
X-418719709Y-29309159D01*
X-418918412Y-29704275D01*
X-419121388Y-30103170D01*
X-419314086Y-30477150D01*
X-419481953Y-30797521D01*
X-419610437Y-31035592D01*
X-419684987Y-31162668D01*
X-419696810Y-31176041D01*
X-419744704Y-31102706D01*
X-419850936Y-30899906D01*
X-420003348Y-30592137D01*
X-420189785Y-30203896D01*
X-420375334Y-29808695D01*
X-420581920Y-29363666D01*
X-420763635Y-28971066D01*
X-420908442Y-28656991D01*
X-421004305Y-28447538D01*
X-421038556Y-28370654D01*
X-420968229Y-28346804D01*
X-420755672Y-28326292D01*
X-420427975Y-28310535D01*
X-420012229Y-28300951D01*
X-419662722Y-28298667D01*
X-419196554Y-28301042D01*
X-418795849Y-28307617D01*
X-418488441Y-28317566D01*
X-418302166Y-28330062D01*
X-418258667Y-28340341D01*
X-416701284Y-28340341D01*
X-416603257Y-28136810D01*
X-416396062Y-27695041D01*
X-416245540Y-27359502D01*
X-416159569Y-27146679D01*
X-416142000Y-27080468D01*
X-416142000Y-26859334D01*
X-423084667Y-26859334D01*
X-423084667Y-27076607D01*
G36*
X-428926667Y-28269564D02*
G01*
X-427931834Y-28646965D01*
X-426937000Y-29024366D01*
X-426914555Y-31497850D01*
X-426892109Y-33971334D01*
X-425540000Y-33971334D01*
X-425540000Y-31473667D01*
X-425537477Y-30798539D01*
X-425530266Y-30203807D01*
X-425518904Y-29706879D01*
X-425503929Y-29325161D01*
X-425485877Y-29076063D01*
X-425465286Y-28976992D01*
X-425462924Y-28976000D01*
X-425357249Y-28946966D01*
X-425129012Y-28868173D01*
X-424813136Y-28752084D01*
X-424489257Y-28628527D01*
X-423592667Y-28281054D01*
X-423592667Y-27612527D01*
X-423600438Y-27300243D01*
X-423621072Y-27065903D01*
X-423650546Y-26949833D01*
X-423659340Y-26944000D01*
X-423758728Y-26969642D01*
X-423989436Y-27040408D01*
X-424322415Y-27147054D01*
X-424728615Y-27280340D01*
X-424984157Y-27365488D01*
X-426242300Y-27786975D01*
X-427584484Y-27325882D01*
X-428926667Y-26864789D01*
X-428926667Y-28269564D01*
G37*
X-428926667Y-28269564D02*
X-427931834Y-28646965D01*
X-426937000Y-29024366D01*
X-426914555Y-31497850D01*
X-426892109Y-33971334D01*
X-425540000Y-33971334D01*
X-425540000Y-31473667D01*
X-425537477Y-30798539D01*
X-425530266Y-30203807D01*
X-425518904Y-29706879D01*
X-425503929Y-29325161D01*
X-425485877Y-29076063D01*
X-425465286Y-28976992D01*
X-425462924Y-28976000D01*
X-425357249Y-28946966D01*
X-425129012Y-28868173D01*
X-424813136Y-28752084D01*
X-424489257Y-28628527D01*
X-423592667Y-28281054D01*
X-423592667Y-27612527D01*
X-423600438Y-27300243D01*
X-423621072Y-27065903D01*
X-423650546Y-26949833D01*
X-423659340Y-26944000D01*
X-423758728Y-26969642D01*
X-423989436Y-27040408D01*
X-424322415Y-27147054D01*
X-424728615Y-27280340D01*
X-424984157Y-27365488D01*
X-426242300Y-27786975D01*
X-427584484Y-27325882D01*
X-428926667Y-26864789D01*
X-428926667Y-28269564D01*
G36*
X-377302625Y-25887401D02*
G01*
X-377961028Y-26106661D01*
X-378569260Y-26450346D01*
X-379107623Y-26913348D01*
X-379556423Y-27490557D01*
X-379895963Y-28176864D01*
X-379972260Y-28399034D01*
X-380111497Y-29111189D01*
X-380100418Y-29828306D01*
X-379951319Y-30527429D01*
X-379676497Y-31185606D01*
X-379288249Y-31779880D01*
X-378798870Y-32287298D01*
X-378220658Y-32684905D01*
X-377565908Y-32949747D01*
X-377529166Y-32959677D01*
X-377169333Y-33054526D01*
X-377169333Y-34233333D01*
X-375814666Y-34233333D01*
X-375814666Y-33078924D01*
X-375368393Y-32938248D01*
X-374668639Y-32636832D01*
X-374073730Y-32219365D01*
X-373588409Y-31706209D01*
X-373217417Y-31117722D01*
X-372965495Y-30474265D01*
X-372837384Y-29796198D01*
X-372837678Y-29334649D01*
X-374243613Y-29334649D01*
X-374295416Y-29917899D01*
X-374509380Y-30489086D01*
X-374641531Y-30711521D01*
X-374847324Y-30962022D01*
X-375110446Y-31201952D01*
X-375384341Y-31395905D01*
X-375622454Y-31508474D01*
X-375708833Y-31523199D01*
X-375743382Y-31485671D01*
X-375770092Y-31362099D01*
X-375789758Y-31136883D01*
X-375803177Y-30794420D01*
X-375811145Y-30319109D01*
X-375814458Y-29695347D01*
X-375814666Y-29449666D01*
X-377169333Y-29449666D01*
X-377172829Y-30197784D01*
X-377183353Y-30777993D01*
X-377200960Y-31191575D01*
X-377225705Y-31439810D01*
X-377257643Y-31523979D01*
X-377258204Y-31524000D01*
X-377391718Y-31487455D01*
X-377575704Y-31404223D01*
X-377999704Y-31091587D01*
X-378340597Y-30659369D01*
X-378576548Y-30145847D01*
X-378685723Y-29589296D01*
X-378690646Y-29449666D01*
X-378613789Y-28844039D01*
X-378380839Y-28303850D01*
X-377992120Y-27829671D01*
X-377594994Y-27515317D01*
X-377466584Y-27432333D01*
X-377367007Y-27387135D01*
X-377292595Y-27396381D01*
X-377239683Y-27476729D01*
X-377204607Y-27644838D01*
X-377183699Y-27917365D01*
X-377173294Y-28310970D01*
X-377169727Y-28842310D01*
X-377169333Y-29449666D01*
X-375814666Y-29449666D01*
X-375813102Y-28785354D01*
X-375807769Y-28272881D01*
X-375797704Y-27894776D01*
X-375781946Y-27633566D01*
X-375759531Y-27471781D01*
X-375729497Y-27391950D01*
X-375700407Y-27375333D01*
X-375517702Y-27434271D01*
X-375270728Y-27587810D01*
X-375004305Y-27801039D01*
X-374763251Y-28039046D01*
X-374626952Y-28211496D01*
X-374354086Y-28759220D01*
X-374243613Y-29334649D01*
X-372837678Y-29334649D01*
X-372837826Y-29103881D01*
X-372971562Y-28417674D01*
X-373243334Y-27757937D01*
X-373657883Y-27145029D01*
X-373947397Y-26836283D01*
X-374561218Y-26356786D01*
X-375223347Y-26027258D01*
X-375914089Y-25842590D01*
X-376613747Y-25797674D01*
X-377302625Y-25887401D01*
G37*
X-377302625Y-25887401D02*
X-377961028Y-26106661D01*
X-378569260Y-26450346D01*
X-379107623Y-26913348D01*
X-379556423Y-27490557D01*
X-379895963Y-28176864D01*
X-379972260Y-28399034D01*
X-380111497Y-29111189D01*
X-380100418Y-29828306D01*
X-379951319Y-30527429D01*
X-379676497Y-31185606D01*
X-379288249Y-31779880D01*
X-378798870Y-32287298D01*
X-378220658Y-32684905D01*
X-377565908Y-32949747D01*
X-377529166Y-32959677D01*
X-377169333Y-33054526D01*
X-377169333Y-34233333D01*
X-375814666Y-34233333D01*
X-375814666Y-33078924D01*
X-375368393Y-32938248D01*
X-374668639Y-32636832D01*
X-374073730Y-32219365D01*
X-373588409Y-31706209D01*
X-373217417Y-31117722D01*
X-372965495Y-30474265D01*
X-372837384Y-29796198D01*
X-372837678Y-29334649D01*
X-374243613Y-29334649D01*
X-374295416Y-29917899D01*
X-374509380Y-30489086D01*
X-374641531Y-30711521D01*
X-374847324Y-30962022D01*
X-375110446Y-31201952D01*
X-375384341Y-31395905D01*
X-375622454Y-31508474D01*
X-375708833Y-31523199D01*
X-375743382Y-31485671D01*
X-375770092Y-31362099D01*
X-375789758Y-31136883D01*
X-375803177Y-30794420D01*
X-375811145Y-30319109D01*
X-375814458Y-29695347D01*
X-375814666Y-29449666D01*
X-377169333Y-29449666D01*
X-377172829Y-30197784D01*
X-377183353Y-30777993D01*
X-377200960Y-31191575D01*
X-377225705Y-31439810D01*
X-377257643Y-31523979D01*
X-377258204Y-31524000D01*
X-377391718Y-31487455D01*
X-377575704Y-31404223D01*
X-377999704Y-31091587D01*
X-378340597Y-30659369D01*
X-378576548Y-30145847D01*
X-378685723Y-29589296D01*
X-378690646Y-29449666D01*
X-378613789Y-28844039D01*
X-378380839Y-28303850D01*
X-377992120Y-27829671D01*
X-377594994Y-27515317D01*
X-377466584Y-27432333D01*
X-377367007Y-27387135D01*
X-377292595Y-27396381D01*
X-377239683Y-27476729D01*
X-377204607Y-27644838D01*
X-377183699Y-27917365D01*
X-377173294Y-28310970D01*
X-377169727Y-28842310D01*
X-377169333Y-29449666D01*
X-375814666Y-29449666D01*
X-375813102Y-28785354D01*
X-375807769Y-28272881D01*
X-375797704Y-27894776D01*
X-375781946Y-27633566D01*
X-375759531Y-27471781D01*
X-375729497Y-27391950D01*
X-375700407Y-27375333D01*
X-375517702Y-27434271D01*
X-375270728Y-27587810D01*
X-375004305Y-27801039D01*
X-374763251Y-28039046D01*
X-374626952Y-28211496D01*
X-374354086Y-28759220D01*
X-374243613Y-29334649D01*
X-372837678Y-29334649D01*
X-372837826Y-29103881D01*
X-372971562Y-28417674D01*
X-373243334Y-27757937D01*
X-373657883Y-27145029D01*
X-373947397Y-26836283D01*
X-374561218Y-26356786D01*
X-375223347Y-26027258D01*
X-375914089Y-25842590D01*
X-376613747Y-25797674D01*
X-377302625Y-25887401D01*
G36*
X-366897195Y34366943D02*
G01*
X-367257503Y33649864D01*
X-367596003Y32982694D01*
X-367905042Y32380049D01*
X-368176971Y31856548D01*
X-368404138Y31426807D01*
X-368578891Y31105444D01*
X-368693580Y30907077D01*
X-368740174Y30845984D01*
X-368804159Y30935759D01*
X-368917999Y31139417D01*
X-369059905Y31417409D01*
X-369097948Y31495408D01*
X-369393000Y32106067D01*
X-368054427Y34741201D01*
X-367649784Y35544118D01*
X-367633609Y35576928D01*
X-370211444Y35576928D01*
X-370270815Y35453467D01*
X-370392168Y35209106D01*
X-370564338Y34865820D01*
X-370776158Y34445581D01*
X-371016461Y33970363D01*
X-371274082Y33462140D01*
X-371537853Y32942884D01*
X-371796609Y32434569D01*
X-372039182Y31959168D01*
X-372254407Y31538655D01*
X-372431118Y31195004D01*
X-372558146Y30950186D01*
X-372624328Y30826177D01*
X-372631207Y30815299D01*
X-372672727Y30887897D01*
X-372780530Y31093921D01*
X-372945382Y31415237D01*
X-373158048Y31833709D01*
X-373409294Y32331202D01*
X-373689885Y32889581D01*
X-373837707Y33184750D01*
X-374129177Y33768723D01*
X-374394649Y34303147D01*
X-374625014Y34769484D01*
X-374811165Y35149198D01*
X-374943993Y35423751D01*
X-375014389Y35574605D01*
X-375023333Y35597750D01*
X-374942200Y35608753D01*
X-374712938Y35618713D01*
X-374356746Y35627254D01*
X-373894828Y35633999D01*
X-373348384Y35638573D01*
X-372738616Y35640600D01*
X-372603277Y35640667D01*
X-371984529Y35638536D01*
X-371426154Y35632512D01*
X-370949027Y35623153D01*
X-370574020Y35611014D01*
X-370322005Y35596652D01*
X-370213857Y35580623D01*
X-370211444Y35576928D01*
X-367633609Y35576928D01*
X-367323167Y36206611D01*
X-367070945Y36736604D01*
X-366889490Y37142017D01*
X-366775171Y37430771D01*
X-366724358Y37610790D01*
X-366720927Y37651500D01*
X-366726000Y37926667D01*
X-378494666Y37926667D01*
X-378494666Y37623872D01*
X-378476117Y37526394D01*
X-378417775Y37359031D01*
X-378315599Y37113432D01*
X-378165546Y36781246D01*
X-377963574Y36354123D01*
X-377705643Y35823711D01*
X-377387709Y35181660D01*
X-377005732Y34419618D01*
X-376555668Y33529234D01*
X-376033477Y32502159D01*
X-375687628Y31824206D01*
X-375155739Y30782800D01*
X-374695161Y29882006D01*
X-374300199Y29111626D01*
X-373965156Y28461462D01*
X-373684335Y27921316D01*
X-373452041Y27480990D01*
X-373262576Y27130286D01*
X-373110245Y26859007D01*
X-372989351Y26656955D01*
X-372894198Y26513931D01*
X-372819089Y26419739D01*
X-372758329Y26364179D01*
X-372706220Y26337054D01*
X-372657066Y26328166D01*
X-372617173Y26327334D01*
X-372527491Y26332595D01*
X-372447497Y26360924D01*
X-372364394Y26431134D01*
X-372265383Y26562040D01*
X-372137667Y26772459D01*
X-371968447Y27081205D01*
X-371744925Y27507092D01*
X-371522948Y27936000D01*
X-371276832Y28410032D01*
X-371056953Y28828741D01*
X-370874982Y29170296D01*
X-370742590Y29412865D01*
X-370671448Y29534613D01*
X-370663000Y29544667D01*
X-370617377Y29472956D01*
X-370506202Y29272379D01*
X-370341147Y28964767D01*
X-370133881Y28571954D01*
X-369896078Y28115772D01*
X-369803051Y27936000D01*
X-369527797Y27404783D01*
X-369316857Y27005524D01*
X-369157469Y26719407D01*
X-369036868Y26527619D01*
X-368942290Y26411342D01*
X-368860973Y26351763D01*
X-368780151Y26330066D01*
X-368711778Y26327334D01*
X-368661413Y26329362D01*
X-368612163Y26342242D01*
X-368558339Y26376167D01*
X-368494250Y26441332D01*
X-368414207Y26547931D01*
X-368312521Y26706156D01*
X-368183502Y26926203D01*
X-368021460Y27218264D01*
X-367820706Y27592534D01*
X-367575551Y28059207D01*
X-367280305Y28628475D01*
X-366929278Y29310534D01*
X-366516781Y30115576D01*
X-366037124Y31053797D01*
X-365641323Y31828599D01*
X-365070765Y32947707D01*
X-364574987Y33924876D01*
X-364150108Y34768122D01*
X-363792243Y35485460D01*
X-363497510Y36084904D01*
X-363262026Y36574469D01*
X-363081906Y36962169D01*
X-362953269Y37256020D01*
X-362872231Y37464035D01*
X-362834908Y37594229D01*
X-362831333Y37628266D01*
X-362831333Y37926667D01*
X-365116939Y37926667D01*
X-366897195Y34366943D01*
G37*
X-366897195Y34366943D02*
X-367257503Y33649864D01*
X-367596003Y32982694D01*
X-367905042Y32380049D01*
X-368176971Y31856548D01*
X-368404138Y31426807D01*
X-368578891Y31105444D01*
X-368693580Y30907077D01*
X-368740174Y30845984D01*
X-368804159Y30935759D01*
X-368917999Y31139417D01*
X-369059905Y31417409D01*
X-369097948Y31495408D01*
X-369393000Y32106067D01*
X-368054427Y34741201D01*
X-367649784Y35544118D01*
X-367633609Y35576928D01*
X-370211444Y35576928D01*
X-370270815Y35453467D01*
X-370392168Y35209106D01*
X-370564338Y34865820D01*
X-370776158Y34445581D01*
X-371016461Y33970363D01*
X-371274082Y33462140D01*
X-371537853Y32942884D01*
X-371796609Y32434569D01*
X-372039182Y31959168D01*
X-372254407Y31538655D01*
X-372431118Y31195004D01*
X-372558146Y30950186D01*
X-372624328Y30826177D01*
X-372631207Y30815299D01*
X-372672727Y30887897D01*
X-372780530Y31093921D01*
X-372945382Y31415237D01*
X-373158048Y31833709D01*
X-373409294Y32331202D01*
X-373689885Y32889581D01*
X-373837707Y33184750D01*
X-374129177Y33768723D01*
X-374394649Y34303147D01*
X-374625014Y34769484D01*
X-374811165Y35149198D01*
X-374943993Y35423751D01*
X-375014389Y35574605D01*
X-375023333Y35597750D01*
X-374942200Y35608753D01*
X-374712938Y35618713D01*
X-374356746Y35627254D01*
X-373894828Y35633999D01*
X-373348384Y35638573D01*
X-372738616Y35640600D01*
X-372603277Y35640667D01*
X-371984529Y35638536D01*
X-371426154Y35632512D01*
X-370949027Y35623153D01*
X-370574020Y35611014D01*
X-370322005Y35596652D01*
X-370213857Y35580623D01*
X-370211444Y35576928D01*
X-367633609Y35576928D01*
X-367323167Y36206611D01*
X-367070945Y36736604D01*
X-366889490Y37142017D01*
X-366775171Y37430771D01*
X-366724358Y37610790D01*
X-366720927Y37651500D01*
X-366726000Y37926667D01*
X-378494666Y37926667D01*
X-378494666Y37623872D01*
X-378476117Y37526394D01*
X-378417775Y37359031D01*
X-378315599Y37113432D01*
X-378165546Y36781246D01*
X-377963574Y36354123D01*
X-377705643Y35823711D01*
X-377387709Y35181660D01*
X-377005732Y34419618D01*
X-376555668Y33529234D01*
X-376033477Y32502159D01*
X-375687628Y31824206D01*
X-375155739Y30782800D01*
X-374695161Y29882006D01*
X-374300199Y29111626D01*
X-373965156Y28461462D01*
X-373684335Y27921316D01*
X-373452041Y27480990D01*
X-373262576Y27130286D01*
X-373110245Y26859007D01*
X-372989351Y26656955D01*
X-372894198Y26513931D01*
X-372819089Y26419739D01*
X-372758329Y26364179D01*
X-372706220Y26337054D01*
X-372657066Y26328166D01*
X-372617173Y26327334D01*
X-372527491Y26332595D01*
X-372447497Y26360924D01*
X-372364394Y26431134D01*
X-372265383Y26562040D01*
X-372137667Y26772459D01*
X-371968447Y27081205D01*
X-371744925Y27507092D01*
X-371522948Y27936000D01*
X-371276832Y28410032D01*
X-371056953Y28828741D01*
X-370874982Y29170296D01*
X-370742590Y29412865D01*
X-370671448Y29534613D01*
X-370663000Y29544667D01*
X-370617377Y29472956D01*
X-370506202Y29272379D01*
X-370341147Y28964767D01*
X-370133881Y28571954D01*
X-369896078Y28115772D01*
X-369803051Y27936000D01*
X-369527797Y27404783D01*
X-369316857Y27005524D01*
X-369157469Y26719407D01*
X-369036868Y26527619D01*
X-368942290Y26411342D01*
X-368860973Y26351763D01*
X-368780151Y26330066D01*
X-368711778Y26327334D01*
X-368661413Y26329362D01*
X-368612163Y26342242D01*
X-368558339Y26376167D01*
X-368494250Y26441332D01*
X-368414207Y26547931D01*
X-368312521Y26706156D01*
X-368183502Y26926203D01*
X-368021460Y27218264D01*
X-367820706Y27592534D01*
X-367575551Y28059207D01*
X-367280305Y28628475D01*
X-366929278Y29310534D01*
X-366516781Y30115576D01*
X-366037124Y31053797D01*
X-365641323Y31828599D01*
X-365070765Y32947707D01*
X-364574987Y33924876D01*
X-364150108Y34768122D01*
X-363792243Y35485460D01*
X-363497510Y36084904D01*
X-363262026Y36574469D01*
X-363081906Y36962169D01*
X-362953269Y37256020D01*
X-362872231Y37464035D01*
X-362834908Y37594229D01*
X-362831333Y37628266D01*
X-362831333Y37926667D01*
X-365116939Y37926667D01*
X-366897195Y34366943D01*
G36*
X-382396631Y37924897D02*
G01*
X-382445941Y37912790D01*
X-382499502Y37880155D01*
X-382563012Y37816800D01*
X-382642165Y37712532D01*
X-382742660Y37557160D01*
X-382870194Y37340490D01*
X-383030462Y37052332D01*
X-383229161Y36682493D01*
X-383471989Y36220780D01*
X-383764643Y35657002D01*
X-384112818Y34980966D01*
X-384522212Y34182481D01*
X-384998521Y33251354D01*
X-385420218Y32426325D01*
X-385990199Y31309006D01*
X-386485427Y30333534D01*
X-386909825Y29491811D01*
X-387267320Y28775740D01*
X-387561835Y28177223D01*
X-387797296Y27688162D01*
X-387977629Y27300459D01*
X-388106757Y27006018D01*
X-388188606Y26796740D01*
X-388227101Y26664527D01*
X-388231333Y26626659D01*
X-388231333Y26327334D01*
X-385945727Y26327334D01*
X-384165470Y29887058D01*
X-383805180Y30604150D01*
X-383466732Y31271355D01*
X-383157775Y31874051D01*
X-382885956Y32397621D01*
X-382658922Y32827444D01*
X-382484322Y33148900D01*
X-382369802Y33347370D01*
X-382323383Y33408568D01*
X-382260805Y33319632D01*
X-382146795Y33114994D01*
X-382001865Y32832240D01*
X-381940149Y32706344D01*
X-381618746Y32042334D01*
X-382935373Y29482700D01*
X-383326956Y28715918D01*
X-383641972Y28086181D01*
X-383885606Y27582240D01*
X-384063040Y27192847D01*
X-384179456Y26906754D01*
X-384240038Y26712711D01*
X-384252000Y26625200D01*
X-384252000Y26327334D01*
X-381965410Y26327334D01*
X-381183601Y27893667D01*
X-380947367Y28362847D01*
X-380735481Y28775886D01*
X-380559751Y29110394D01*
X-380431988Y29343984D01*
X-380364002Y29454266D01*
X-380357333Y29460000D01*
X-380307972Y29387787D01*
X-380195566Y29186072D01*
X-380031925Y28877245D01*
X-379828860Y28483693D01*
X-379598181Y28027805D01*
X-379531065Y27893667D01*
X-378749255Y26327334D01*
X-376462666Y26327334D01*
X-376462666Y26625735D01*
X-376482395Y26724949D01*
X-376544171Y26898539D01*
X-376651878Y27154521D01*
X-376809397Y27500908D01*
X-377020614Y27945716D01*
X-377289409Y28496958D01*
X-377619668Y29162650D01*
X-378015273Y29950807D01*
X-378480106Y30869442D01*
X-379018053Y31926571D01*
X-379272656Y32425402D01*
X-379804896Y33467230D01*
X-380265808Y34368448D01*
X-380661086Y35139250D01*
X-380996425Y35789829D01*
X-381277520Y36330378D01*
X-381510063Y36771089D01*
X-381699750Y37122157D01*
X-381852275Y37393774D01*
X-381973331Y37596132D01*
X-382068614Y37739426D01*
X-382143818Y37833848D01*
X-382204636Y37889592D01*
X-382256763Y37916850D01*
X-382305894Y37925816D01*
X-382345874Y37926667D01*
X-382396631Y37924897D01*
G37*
X-382396631Y37924897D02*
X-382445941Y37912790D01*
X-382499502Y37880155D01*
X-382563012Y37816800D01*
X-382642165Y37712532D01*
X-382742660Y37557160D01*
X-382870194Y37340490D01*
X-383030462Y37052332D01*
X-383229161Y36682493D01*
X-383471989Y36220780D01*
X-383764643Y35657002D01*
X-384112818Y34980966D01*
X-384522212Y34182481D01*
X-384998521Y33251354D01*
X-385420218Y32426325D01*
X-385990199Y31309006D01*
X-386485427Y30333534D01*
X-386909825Y29491811D01*
X-387267320Y28775740D01*
X-387561835Y28177223D01*
X-387797296Y27688162D01*
X-387977629Y27300459D01*
X-388106757Y27006018D01*
X-388188606Y26796740D01*
X-388227101Y26664527D01*
X-388231333Y26626659D01*
X-388231333Y26327334D01*
X-385945727Y26327334D01*
X-384165470Y29887058D01*
X-383805180Y30604150D01*
X-383466732Y31271355D01*
X-383157775Y31874051D01*
X-382885956Y32397621D01*
X-382658922Y32827444D01*
X-382484322Y33148900D01*
X-382369802Y33347370D01*
X-382323383Y33408568D01*
X-382260805Y33319632D01*
X-382146795Y33114994D01*
X-382001865Y32832240D01*
X-381940149Y32706344D01*
X-381618746Y32042334D01*
X-382935373Y29482700D01*
X-383326956Y28715918D01*
X-383641972Y28086181D01*
X-383885606Y27582240D01*
X-384063040Y27192847D01*
X-384179456Y26906754D01*
X-384240038Y26712711D01*
X-384252000Y26625200D01*
X-384252000Y26327334D01*
X-381965410Y26327334D01*
X-381183601Y27893667D01*
X-380947367Y28362847D01*
X-380735481Y28775886D01*
X-380559751Y29110394D01*
X-380431988Y29343984D01*
X-380364002Y29454266D01*
X-380357333Y29460000D01*
X-380307972Y29387787D01*
X-380195566Y29186072D01*
X-380031925Y28877245D01*
X-379828860Y28483693D01*
X-379598181Y28027805D01*
X-379531065Y27893667D01*
X-378749255Y26327334D01*
X-376462666Y26327334D01*
X-376462666Y26625735D01*
X-376482395Y26724949D01*
X-376544171Y26898539D01*
X-376651878Y27154521D01*
X-376809397Y27500908D01*
X-377020614Y27945716D01*
X-377289409Y28496958D01*
X-377619668Y29162650D01*
X-378015273Y29950807D01*
X-378480106Y30869442D01*
X-379018053Y31926571D01*
X-379272656Y32425402D01*
X-379804896Y33467230D01*
X-380265808Y34368448D01*
X-380661086Y35139250D01*
X-380996425Y35789829D01*
X-381277520Y36330378D01*
X-381510063Y36771089D01*
X-381699750Y37122157D01*
X-381852275Y37393774D01*
X-381973331Y37596132D01*
X-382068614Y37739426D01*
X-382143818Y37833848D01*
X-382204636Y37889592D01*
X-382256763Y37916850D01*
X-382305894Y37925816D01*
X-382345874Y37926667D01*
X-382396631Y37924897D01*
G36*
X-392210666Y35640667D02*
G01*
X-396528666Y35640667D01*
X-396528666Y37926667D01*
X-398814666Y37926667D01*
X-398814666Y26327334D01*
X-396528666Y26327334D01*
X-396528666Y28698000D01*
X-392210666Y28698000D01*
X-392210666Y26327334D01*
X-389924666Y26327334D01*
X-389924666Y33354667D01*
X-392210666Y33354667D01*
X-392210666Y30984000D01*
X-396528666Y30984000D01*
X-396528666Y33354667D01*
X-392210666Y33354667D01*
X-389924666Y33354667D01*
X-389924666Y37926667D01*
X-392210666Y37926667D01*
X-392210666Y35640667D01*
G37*
X-392210666Y35640667D02*
X-396528666Y35640667D01*
X-396528666Y37926667D01*
X-398814666Y37926667D01*
X-398814666Y26327334D01*
X-396528666Y26327334D01*
X-396528666Y28698000D01*
X-392210666Y28698000D01*
X-392210666Y26327334D01*
X-389924666Y26327334D01*
X-389924666Y33354667D01*
X-392210666Y33354667D01*
X-392210666Y30984000D01*
X-396528666Y30984000D01*
X-396528666Y33354667D01*
X-392210666Y33354667D01*
X-389924666Y33354667D01*
X-389924666Y37926667D01*
X-392210666Y37926667D01*
X-392210666Y35640667D01*
G36*
X-404489195Y34366943D02*
G01*
X-404849503Y33649864D01*
X-405188003Y32982694D01*
X-405497042Y32380049D01*
X-405768971Y31856548D01*
X-405996138Y31426807D01*
X-406170891Y31105444D01*
X-406285580Y30907077D01*
X-406332174Y30845984D01*
X-406396159Y30935759D01*
X-406509999Y31139417D01*
X-406651905Y31417409D01*
X-406689948Y31495408D01*
X-406985000Y32106067D01*
X-405646427Y34741201D01*
X-405241784Y35544118D01*
X-405225609Y35576928D01*
X-407803444Y35576928D01*
X-407862815Y35453467D01*
X-407984168Y35209106D01*
X-408156338Y34865820D01*
X-408368158Y34445581D01*
X-408608461Y33970363D01*
X-408866082Y33462140D01*
X-409129853Y32942884D01*
X-409388609Y32434569D01*
X-409631182Y31959168D01*
X-409846407Y31538655D01*
X-410023118Y31195004D01*
X-410150146Y30950186D01*
X-410216328Y30826177D01*
X-410223207Y30815299D01*
X-410264727Y30887897D01*
X-410372530Y31093921D01*
X-410537382Y31415237D01*
X-410750048Y31833709D01*
X-411001294Y32331202D01*
X-411281885Y32889581D01*
X-411429707Y33184750D01*
X-411721177Y33768723D01*
X-411986649Y34303147D01*
X-412217014Y34769484D01*
X-412403165Y35149198D01*
X-412535993Y35423751D01*
X-412606389Y35574605D01*
X-412615333Y35597750D01*
X-412534200Y35608753D01*
X-412304938Y35618713D01*
X-411948746Y35627254D01*
X-411486828Y35633999D01*
X-410940384Y35638573D01*
X-410330616Y35640600D01*
X-410195277Y35640667D01*
X-409576529Y35638536D01*
X-409018154Y35632512D01*
X-408541027Y35623153D01*
X-408166020Y35611014D01*
X-407914005Y35596652D01*
X-407805857Y35580623D01*
X-407803444Y35576928D01*
X-405225609Y35576928D01*
X-404915167Y36206611D01*
X-404662945Y36736604D01*
X-404481490Y37142017D01*
X-404367171Y37430771D01*
X-404316358Y37610790D01*
X-404312927Y37651500D01*
X-404318000Y37926667D01*
X-416086666Y37926667D01*
X-416086666Y37623872D01*
X-416068117Y37526394D01*
X-416009775Y37359031D01*
X-415907599Y37113432D01*
X-415757546Y36781246D01*
X-415555574Y36354123D01*
X-415297643Y35823711D01*
X-414979709Y35181660D01*
X-414597732Y34419618D01*
X-414147668Y33529234D01*
X-413625477Y32502159D01*
X-413279628Y31824206D01*
X-412747739Y30782800D01*
X-412287161Y29882006D01*
X-411892199Y29111626D01*
X-411557156Y28461462D01*
X-411276335Y27921316D01*
X-411044041Y27480990D01*
X-410854576Y27130286D01*
X-410702245Y26859007D01*
X-410581351Y26656955D01*
X-410486198Y26513931D01*
X-410411089Y26419739D01*
X-410350329Y26364179D01*
X-410298220Y26337054D01*
X-410249066Y26328166D01*
X-410209173Y26327334D01*
X-410119491Y26332595D01*
X-410039497Y26360924D01*
X-409956394Y26431134D01*
X-409857383Y26562040D01*
X-409729667Y26772459D01*
X-409560447Y27081205D01*
X-409336925Y27507092D01*
X-409114948Y27936000D01*
X-408868832Y28410032D01*
X-408648953Y28828741D01*
X-408466982Y29170296D01*
X-408334590Y29412865D01*
X-408263448Y29534613D01*
X-408255000Y29544667D01*
X-408209377Y29472956D01*
X-408098202Y29272379D01*
X-407933147Y28964767D01*
X-407725881Y28571954D01*
X-407488078Y28115772D01*
X-407395051Y27936000D01*
X-407119797Y27404783D01*
X-406908857Y27005524D01*
X-406749469Y26719407D01*
X-406628868Y26527619D01*
X-406534290Y26411342D01*
X-406452973Y26351763D01*
X-406372151Y26330066D01*
X-406303778Y26327334D01*
X-406253413Y26329362D01*
X-406204163Y26342242D01*
X-406150339Y26376167D01*
X-406086250Y26441332D01*
X-406006207Y26547931D01*
X-405904521Y26706156D01*
X-405775502Y26926203D01*
X-405613460Y27218264D01*
X-405412706Y27592534D01*
X-405167551Y28059207D01*
X-404872305Y28628475D01*
X-404521278Y29310534D01*
X-404108781Y30115576D01*
X-403629124Y31053797D01*
X-403233323Y31828599D01*
X-402662765Y32947707D01*
X-402166987Y33924876D01*
X-401742108Y34768122D01*
X-401384243Y35485460D01*
X-401089510Y36084904D01*
X-400854026Y36574469D01*
X-400673906Y36962169D01*
X-400545269Y37256020D01*
X-400464231Y37464035D01*
X-400426908Y37594229D01*
X-400423333Y37628266D01*
X-400423333Y37926667D01*
X-402708939Y37926667D01*
X-404489195Y34366943D01*
G37*
X-404489195Y34366943D02*
X-404849503Y33649864D01*
X-405188003Y32982694D01*
X-405497042Y32380049D01*
X-405768971Y31856548D01*
X-405996138Y31426807D01*
X-406170891Y31105444D01*
X-406285580Y30907077D01*
X-406332174Y30845984D01*
X-406396159Y30935759D01*
X-406509999Y31139417D01*
X-406651905Y31417409D01*
X-406689948Y31495408D01*
X-406985000Y32106067D01*
X-405646427Y34741201D01*
X-405241784Y35544118D01*
X-405225609Y35576928D01*
X-407803444Y35576928D01*
X-407862815Y35453467D01*
X-407984168Y35209106D01*
X-408156338Y34865820D01*
X-408368158Y34445581D01*
X-408608461Y33970363D01*
X-408866082Y33462140D01*
X-409129853Y32942884D01*
X-409388609Y32434569D01*
X-409631182Y31959168D01*
X-409846407Y31538655D01*
X-410023118Y31195004D01*
X-410150146Y30950186D01*
X-410216328Y30826177D01*
X-410223207Y30815299D01*
X-410264727Y30887897D01*
X-410372530Y31093921D01*
X-410537382Y31415237D01*
X-410750048Y31833709D01*
X-411001294Y32331202D01*
X-411281885Y32889581D01*
X-411429707Y33184750D01*
X-411721177Y33768723D01*
X-411986649Y34303147D01*
X-412217014Y34769484D01*
X-412403165Y35149198D01*
X-412535993Y35423751D01*
X-412606389Y35574605D01*
X-412615333Y35597750D01*
X-412534200Y35608753D01*
X-412304938Y35618713D01*
X-411948746Y35627254D01*
X-411486828Y35633999D01*
X-410940384Y35638573D01*
X-410330616Y35640600D01*
X-410195277Y35640667D01*
X-409576529Y35638536D01*
X-409018154Y35632512D01*
X-408541027Y35623153D01*
X-408166020Y35611014D01*
X-407914005Y35596652D01*
X-407805857Y35580623D01*
X-407803444Y35576928D01*
X-405225609Y35576928D01*
X-404915167Y36206611D01*
X-404662945Y36736604D01*
X-404481490Y37142017D01*
X-404367171Y37430771D01*
X-404316358Y37610790D01*
X-404312927Y37651500D01*
X-404318000Y37926667D01*
X-416086666Y37926667D01*
X-416086666Y37623872D01*
X-416068117Y37526394D01*
X-416009775Y37359031D01*
X-415907599Y37113432D01*
X-415757546Y36781246D01*
X-415555574Y36354123D01*
X-415297643Y35823711D01*
X-414979709Y35181660D01*
X-414597732Y34419618D01*
X-414147668Y33529234D01*
X-413625477Y32502159D01*
X-413279628Y31824206D01*
X-412747739Y30782800D01*
X-412287161Y29882006D01*
X-411892199Y29111626D01*
X-411557156Y28461462D01*
X-411276335Y27921316D01*
X-411044041Y27480990D01*
X-410854576Y27130286D01*
X-410702245Y26859007D01*
X-410581351Y26656955D01*
X-410486198Y26513931D01*
X-410411089Y26419739D01*
X-410350329Y26364179D01*
X-410298220Y26337054D01*
X-410249066Y26328166D01*
X-410209173Y26327334D01*
X-410119491Y26332595D01*
X-410039497Y26360924D01*
X-409956394Y26431134D01*
X-409857383Y26562040D01*
X-409729667Y26772459D01*
X-409560447Y27081205D01*
X-409336925Y27507092D01*
X-409114948Y27936000D01*
X-408868832Y28410032D01*
X-408648953Y28828741D01*
X-408466982Y29170296D01*
X-408334590Y29412865D01*
X-408263448Y29534613D01*
X-408255000Y29544667D01*
X-408209377Y29472956D01*
X-408098202Y29272379D01*
X-407933147Y28964767D01*
X-407725881Y28571954D01*
X-407488078Y28115772D01*
X-407395051Y27936000D01*
X-407119797Y27404783D01*
X-406908857Y27005524D01*
X-406749469Y26719407D01*
X-406628868Y26527619D01*
X-406534290Y26411342D01*
X-406452973Y26351763D01*
X-406372151Y26330066D01*
X-406303778Y26327334D01*
X-406253413Y26329362D01*
X-406204163Y26342242D01*
X-406150339Y26376167D01*
X-406086250Y26441332D01*
X-406006207Y26547931D01*
X-405904521Y26706156D01*
X-405775502Y26926203D01*
X-405613460Y27218264D01*
X-405412706Y27592534D01*
X-405167551Y28059207D01*
X-404872305Y28628475D01*
X-404521278Y29310534D01*
X-404108781Y30115576D01*
X-403629124Y31053797D01*
X-403233323Y31828599D01*
X-402662765Y32947707D01*
X-402166987Y33924876D01*
X-401742108Y34768122D01*
X-401384243Y35485460D01*
X-401089510Y36084904D01*
X-400854026Y36574469D01*
X-400673906Y36962169D01*
X-400545269Y37256020D01*
X-400464231Y37464035D01*
X-400426908Y37594229D01*
X-400423333Y37628266D01*
X-400423333Y37926667D01*
X-402708939Y37926667D01*
X-404489195Y34366943D01*
G36*
X-419988631Y37924897D02*
G01*
X-420037941Y37912790D01*
X-420091502Y37880155D01*
X-420155012Y37816800D01*
X-420234165Y37712532D01*
X-420334660Y37557160D01*
X-420462194Y37340490D01*
X-420622462Y37052332D01*
X-420821161Y36682493D01*
X-421063989Y36220780D01*
X-421356643Y35657002D01*
X-421704818Y34980966D01*
X-422114212Y34182481D01*
X-422590521Y33251354D01*
X-423012218Y32426325D01*
X-423582199Y31309006D01*
X-424077427Y30333534D01*
X-424501825Y29491811D01*
X-424859320Y28775740D01*
X-425153835Y28177223D01*
X-425389296Y27688162D01*
X-425569629Y27300459D01*
X-425698757Y27006018D01*
X-425780606Y26796740D01*
X-425819101Y26664527D01*
X-425823333Y26626659D01*
X-425823333Y26327334D01*
X-423537727Y26327334D01*
X-421757470Y29887058D01*
X-421397180Y30604150D01*
X-421058732Y31271355D01*
X-420749775Y31874051D01*
X-420477956Y32397621D01*
X-420250922Y32827444D01*
X-420076322Y33148900D01*
X-419961802Y33347370D01*
X-419915383Y33408568D01*
X-419852805Y33319632D01*
X-419738795Y33114994D01*
X-419593865Y32832240D01*
X-419532149Y32706344D01*
X-419210746Y32042334D01*
X-420527373Y29482700D01*
X-420918956Y28715918D01*
X-421233972Y28086181D01*
X-421477606Y27582240D01*
X-421655040Y27192847D01*
X-421771456Y26906754D01*
X-421832038Y26712711D01*
X-421844000Y26625200D01*
X-421844000Y26327334D01*
X-419557410Y26327334D01*
X-418775601Y27893667D01*
X-418539367Y28362847D01*
X-418327481Y28775886D01*
X-418151751Y29110394D01*
X-418023988Y29343984D01*
X-417956002Y29454266D01*
X-417949333Y29460000D01*
X-417899972Y29387787D01*
X-417787566Y29186072D01*
X-417623925Y28877245D01*
X-417420860Y28483693D01*
X-417190181Y28027805D01*
X-417123065Y27893667D01*
X-416341255Y26327334D01*
X-414054666Y26327334D01*
X-414054666Y26625735D01*
X-414074395Y26724949D01*
X-414136171Y26898539D01*
X-414243878Y27154521D01*
X-414401397Y27500908D01*
X-414612614Y27945716D01*
X-414881409Y28496958D01*
X-415211668Y29162650D01*
X-415607273Y29950807D01*
X-416072106Y30869442D01*
X-416610053Y31926571D01*
X-416864656Y32425402D01*
X-417396896Y33467230D01*
X-417857808Y34368448D01*
X-418253086Y35139250D01*
X-418588425Y35789829D01*
X-418869520Y36330378D01*
X-419102063Y36771089D01*
X-419291750Y37122157D01*
X-419444275Y37393774D01*
X-419565331Y37596132D01*
X-419660614Y37739426D01*
X-419735818Y37833848D01*
X-419796636Y37889592D01*
X-419848763Y37916850D01*
X-419897894Y37925816D01*
X-419937874Y37926667D01*
X-419988631Y37924897D01*
G37*
X-419988631Y37924897D02*
X-420037941Y37912790D01*
X-420091502Y37880155D01*
X-420155012Y37816800D01*
X-420234165Y37712532D01*
X-420334660Y37557160D01*
X-420462194Y37340490D01*
X-420622462Y37052332D01*
X-420821161Y36682493D01*
X-421063989Y36220780D01*
X-421356643Y35657002D01*
X-421704818Y34980966D01*
X-422114212Y34182481D01*
X-422590521Y33251354D01*
X-423012218Y32426325D01*
X-423582199Y31309006D01*
X-424077427Y30333534D01*
X-424501825Y29491811D01*
X-424859320Y28775740D01*
X-425153835Y28177223D01*
X-425389296Y27688162D01*
X-425569629Y27300459D01*
X-425698757Y27006018D01*
X-425780606Y26796740D01*
X-425819101Y26664527D01*
X-425823333Y26626659D01*
X-425823333Y26327334D01*
X-423537727Y26327334D01*
X-421757470Y29887058D01*
X-421397180Y30604150D01*
X-421058732Y31271355D01*
X-420749775Y31874051D01*
X-420477956Y32397621D01*
X-420250922Y32827444D01*
X-420076322Y33148900D01*
X-419961802Y33347370D01*
X-419915383Y33408568D01*
X-419852805Y33319632D01*
X-419738795Y33114994D01*
X-419593865Y32832240D01*
X-419532149Y32706344D01*
X-419210746Y32042334D01*
X-420527373Y29482700D01*
X-420918956Y28715918D01*
X-421233972Y28086181D01*
X-421477606Y27582240D01*
X-421655040Y27192847D01*
X-421771456Y26906754D01*
X-421832038Y26712711D01*
X-421844000Y26625200D01*
X-421844000Y26327334D01*
X-419557410Y26327334D01*
X-418775601Y27893667D01*
X-418539367Y28362847D01*
X-418327481Y28775886D01*
X-418151751Y29110394D01*
X-418023988Y29343984D01*
X-417956002Y29454266D01*
X-417949333Y29460000D01*
X-417899972Y29387787D01*
X-417787566Y29186072D01*
X-417623925Y28877245D01*
X-417420860Y28483693D01*
X-417190181Y28027805D01*
X-417123065Y27893667D01*
X-416341255Y26327334D01*
X-414054666Y26327334D01*
X-414054666Y26625735D01*
X-414074395Y26724949D01*
X-414136171Y26898539D01*
X-414243878Y27154521D01*
X-414401397Y27500908D01*
X-414612614Y27945716D01*
X-414881409Y28496958D01*
X-415211668Y29162650D01*
X-415607273Y29950807D01*
X-416072106Y30869442D01*
X-416610053Y31926571D01*
X-416864656Y32425402D01*
X-417396896Y33467230D01*
X-417857808Y34368448D01*
X-418253086Y35139250D01*
X-418588425Y35789829D01*
X-418869520Y36330378D01*
X-419102063Y36771089D01*
X-419291750Y37122157D01*
X-419444275Y37393774D01*
X-419565331Y37596132D01*
X-419660614Y37739426D01*
X-419735818Y37833848D01*
X-419796636Y37889592D01*
X-419848763Y37916850D01*
X-419897894Y37925816D01*
X-419937874Y37926667D01*
X-419988631Y37924897D01*
G36*
X-429802666Y35640667D02*
G01*
X-434120666Y35640667D01*
X-434120666Y37926667D01*
X-436406666Y37926667D01*
X-436406666Y26327334D01*
X-434120666Y26327334D01*
X-434120666Y28698000D01*
X-429802666Y28698000D01*
X-429802666Y26327334D01*
X-427516666Y26327334D01*
X-427516666Y33354667D01*
X-429802666Y33354667D01*
X-429802666Y30984000D01*
X-434120666Y30984000D01*
X-434120666Y33354667D01*
X-429802666Y33354667D01*
X-427516666Y33354667D01*
X-427516666Y37926667D01*
X-429802666Y37926667D01*
X-429802666Y35640667D01*
G37*
X-429802666Y35640667D02*
X-434120666Y35640667D01*
X-434120666Y37926667D01*
X-436406666Y37926667D01*
X-436406666Y26327334D01*
X-434120666Y26327334D01*
X-434120666Y28698000D01*
X-429802666Y28698000D01*
X-429802666Y26327334D01*
X-427516666Y26327334D01*
X-427516666Y33354667D01*
X-429802666Y33354667D01*
X-429802666Y30984000D01*
X-434120666Y30984000D01*
X-434120666Y33354667D01*
X-429802666Y33354667D01*
X-427516666Y33354667D01*
X-427516666Y37926667D01*
X-429802666Y37926667D01*
X-429802666Y35640667D01*
G36*
X-427412598Y-101839960D02*
G01*
X-427701993Y-101877900D01*
X-427975632Y-101963072D01*
X-428271473Y-102093285D01*
X-428899984Y-102473821D01*
X-429402010Y-102960745D01*
X-429769038Y-103545793D01*
X-429770139Y-103548139D01*
X-429880691Y-103808177D01*
X-429948137Y-104048774D01*
X-429982525Y-104327414D01*
X-429993903Y-104701579D01*
X-429994334Y-104830667D01*
X-429987578Y-105241699D01*
X-429960614Y-105541185D01*
X-429903392Y-105786608D01*
X-429805864Y-106035449D01*
X-429770139Y-106113194D01*
X-429414133Y-106683007D01*
X-428941120Y-107154215D01*
X-428378822Y-107514021D01*
X-427754960Y-107749626D01*
X-427097257Y-107848232D01*
X-426433434Y-107797039D01*
X-426228720Y-107748187D01*
X-425544741Y-107475954D01*
X-424968289Y-107072960D01*
X-424500679Y-106540325D01*
X-424207944Y-106026161D01*
X-424089839Y-105739041D01*
X-424043247Y-105552688D01*
X-425309592Y-105552688D01*
X-425311995Y-105647182D01*
X-425395740Y-105779164D01*
X-425546163Y-105954897D01*
X-425612834Y-106028990D01*
X-426042826Y-106396043D01*
X-426527444Y-106620506D01*
X-427039111Y-106696600D01*
X-427550247Y-106618545D01*
X-427843183Y-106496384D01*
X-428066164Y-106345007D01*
X-428307529Y-106130318D01*
X-428529702Y-105892800D01*
X-428695111Y-105672937D01*
X-428766180Y-105511209D01*
X-428766667Y-105501418D01*
X-428685504Y-105476410D01*
X-428455987Y-105455158D01*
X-428099070Y-105438605D01*
X-427635709Y-105427694D01*
X-427086858Y-105423368D01*
X-427031000Y-105423334D01*
X-426406712Y-105424332D01*
X-425937093Y-105431504D01*
X-425607476Y-105451112D01*
X-425403198Y-105489419D01*
X-425309592Y-105552688D01*
X-424043247Y-105552688D01*
X-424021621Y-105466192D01*
X-423990836Y-105140769D01*
X-423984833Y-104828887D01*
X-423991143Y-104447322D01*
X-424022167Y-104166406D01*
X-424033541Y-104126240D01*
X-425295334Y-104126240D01*
X-425327622Y-104165217D01*
X-425436736Y-104194475D01*
X-425641051Y-104215200D01*
X-425958941Y-104228573D01*
X-426408782Y-104235778D01*
X-427008947Y-104237998D01*
X-427031000Y-104238000D01*
X-427586887Y-104234349D01*
X-428059275Y-104224023D01*
X-428427212Y-104207966D01*
X-428669740Y-104187120D01*
X-428765905Y-104162428D01*
X-428766667Y-104159915D01*
X-428705372Y-104005013D01*
X-428546537Y-103788525D01*
X-428327736Y-103550934D01*
X-428086542Y-103332722D01*
X-427860531Y-103174373D01*
X-427843183Y-103164949D01*
X-427368781Y-103003953D01*
X-426851418Y-102978978D01*
X-426350865Y-103091437D01*
X-426264275Y-103127692D01*
X-426037614Y-103266862D01*
X-425789266Y-103473586D01*
X-425557568Y-103708356D01*
X-425380858Y-103931664D01*
X-425297474Y-104104000D01*
X-425295334Y-104126240D01*
X-424033541Y-104126240D01*
X-424092581Y-103917752D01*
X-424217065Y-103632973D01*
X-424260755Y-103543238D01*
X-424650820Y-102924237D01*
X-425142255Y-102439752D01*
X-425728450Y-102093866D01*
X-426402794Y-101890659D01*
X-427031000Y-101833224D01*
X-427412598Y-101839960D01*
G37*
X-427412598Y-101839960D02*
X-427701993Y-101877900D01*
X-427975632Y-101963072D01*
X-428271473Y-102093285D01*
X-428899984Y-102473821D01*
X-429402010Y-102960745D01*
X-429769038Y-103545793D01*
X-429770139Y-103548139D01*
X-429880691Y-103808177D01*
X-429948137Y-104048774D01*
X-429982525Y-104327414D01*
X-429993903Y-104701579D01*
X-429994334Y-104830667D01*
X-429987578Y-105241699D01*
X-429960614Y-105541185D01*
X-429903392Y-105786608D01*
X-429805864Y-106035449D01*
X-429770139Y-106113194D01*
X-429414133Y-106683007D01*
X-428941120Y-107154215D01*
X-428378822Y-107514021D01*
X-427754960Y-107749626D01*
X-427097257Y-107848232D01*
X-426433434Y-107797039D01*
X-426228720Y-107748187D01*
X-425544741Y-107475954D01*
X-424968289Y-107072960D01*
X-424500679Y-106540325D01*
X-424207944Y-106026161D01*
X-424089839Y-105739041D01*
X-424043247Y-105552688D01*
X-425309592Y-105552688D01*
X-425311995Y-105647182D01*
X-425395740Y-105779164D01*
X-425546163Y-105954897D01*
X-425612834Y-106028990D01*
X-426042826Y-106396043D01*
X-426527444Y-106620506D01*
X-427039111Y-106696600D01*
X-427550247Y-106618545D01*
X-427843183Y-106496384D01*
X-428066164Y-106345007D01*
X-428307529Y-106130318D01*
X-428529702Y-105892800D01*
X-428695111Y-105672937D01*
X-428766180Y-105511209D01*
X-428766667Y-105501418D01*
X-428685504Y-105476410D01*
X-428455987Y-105455158D01*
X-428099070Y-105438605D01*
X-427635709Y-105427694D01*
X-427086858Y-105423368D01*
X-427031000Y-105423334D01*
X-426406712Y-105424332D01*
X-425937093Y-105431504D01*
X-425607476Y-105451112D01*
X-425403198Y-105489419D01*
X-425309592Y-105552688D01*
X-424043247Y-105552688D01*
X-424021621Y-105466192D01*
X-423990836Y-105140769D01*
X-423984833Y-104828887D01*
X-423991143Y-104447322D01*
X-424022167Y-104166406D01*
X-424033541Y-104126240D01*
X-425295334Y-104126240D01*
X-425327622Y-104165217D01*
X-425436736Y-104194475D01*
X-425641051Y-104215200D01*
X-425958941Y-104228573D01*
X-426408782Y-104235778D01*
X-427008947Y-104237998D01*
X-427031000Y-104238000D01*
X-427586887Y-104234349D01*
X-428059275Y-104224023D01*
X-428427212Y-104207966D01*
X-428669740Y-104187120D01*
X-428765905Y-104162428D01*
X-428766667Y-104159915D01*
X-428705372Y-104005013D01*
X-428546537Y-103788525D01*
X-428327736Y-103550934D01*
X-428086542Y-103332722D01*
X-427860531Y-103174373D01*
X-427843183Y-103164949D01*
X-427368781Y-103003953D01*
X-426851418Y-102978978D01*
X-426350865Y-103091437D01*
X-426264275Y-103127692D01*
X-426037614Y-103266862D01*
X-425789266Y-103473586D01*
X-425557568Y-103708356D01*
X-425380858Y-103931664D01*
X-425297474Y-104104000D01*
X-425295334Y-104126240D01*
X-424033541Y-104126240D01*
X-424092581Y-103917752D01*
X-424217065Y-103632973D01*
X-424260755Y-103543238D01*
X-424650820Y-102924237D01*
X-425142255Y-102439752D01*
X-425728450Y-102093866D01*
X-426402794Y-101890659D01*
X-427031000Y-101833224D01*
X-427412598Y-101839960D01*
G36*
X-434245435Y-101867623D02*
G01*
X-434872496Y-101869122D01*
X-435363475Y-101872775D01*
X-435735000Y-101879526D01*
X-436003696Y-101890321D01*
X-436186188Y-101906104D01*
X-436299104Y-101927821D01*
X-436359068Y-101956415D01*
X-436382708Y-101992831D01*
X-436386667Y-102033321D01*
X-436351394Y-102145809D01*
X-436251013Y-102392719D01*
X-436093679Y-102755807D01*
X-435887547Y-103216831D01*
X-435640772Y-103757549D01*
X-435361510Y-104359718D01*
X-435061914Y-104996654D01*
X-434693403Y-105770514D01*
X-434388399Y-106400867D01*
X-434141104Y-106898710D01*
X-433945722Y-107275037D01*
X-433796456Y-107540845D01*
X-433687510Y-107707129D01*
X-433613086Y-107784884D01*
X-433587157Y-107794000D01*
X-433511792Y-107747630D01*
X-433396525Y-107600999D01*
X-433234590Y-107342824D01*
X-433019224Y-106961820D01*
X-432743663Y-106446705D01*
X-432508516Y-105994834D01*
X-432023601Y-105052849D01*
X-431614592Y-104252683D01*
X-431277748Y-103586719D01*
X-431023871Y-103076561D01*
X-432355217Y-103076561D01*
X-432381926Y-103157621D01*
X-432474489Y-103362433D01*
X-432620331Y-103664675D01*
X-432806875Y-104038022D01*
X-432926371Y-104272118D01*
X-433135432Y-104666632D01*
X-433321314Y-104994892D01*
X-433469534Y-105233061D01*
X-433565612Y-105357302D01*
X-433591903Y-105367592D01*
X-433649545Y-105268614D01*
X-433763141Y-105045355D01*
X-433918083Y-104727465D01*
X-434099762Y-104344592D01*
X-434169314Y-104195667D01*
X-434681171Y-103095000D01*
X-433532606Y-103071368D01*
X-433110676Y-103064735D01*
X-432754099Y-103063011D01*
X-432494672Y-103066057D01*
X-432364194Y-103073733D01*
X-432355217Y-103076561D01*
X-431023871Y-103076561D01*
X-431009329Y-103047341D01*
X-430805596Y-102626934D01*
X-430662808Y-102317881D01*
X-430577226Y-102112567D01*
X-430545110Y-102003375D01*
X-430544667Y-101995635D01*
X-430561584Y-101961005D01*
X-430623006Y-101933108D01*
X-430744936Y-101911244D01*
X-430943377Y-101894708D01*
X-431234333Y-101882798D01*
X-431633808Y-101874811D01*
X-432157806Y-101870044D01*
X-432822330Y-101867794D01*
X-433465667Y-101867334D01*
X-434245435Y-101867623D01*
G37*
X-434245435Y-101867623D02*
X-434872496Y-101869122D01*
X-435363475Y-101872775D01*
X-435735000Y-101879526D01*
X-436003696Y-101890321D01*
X-436186188Y-101906104D01*
X-436299104Y-101927821D01*
X-436359068Y-101956415D01*
X-436382708Y-101992831D01*
X-436386667Y-102033321D01*
X-436351394Y-102145809D01*
X-436251013Y-102392719D01*
X-436093679Y-102755807D01*
X-435887547Y-103216831D01*
X-435640772Y-103757549D01*
X-435361510Y-104359718D01*
X-435061914Y-104996654D01*
X-434693403Y-105770514D01*
X-434388399Y-106400867D01*
X-434141104Y-106898710D01*
X-433945722Y-107275037D01*
X-433796456Y-107540845D01*
X-433687510Y-107707129D01*
X-433613086Y-107784884D01*
X-433587157Y-107794000D01*
X-433511792Y-107747630D01*
X-433396525Y-107600999D01*
X-433234590Y-107342824D01*
X-433019224Y-106961820D01*
X-432743663Y-106446705D01*
X-432508516Y-105994834D01*
X-432023601Y-105052849D01*
X-431614592Y-104252683D01*
X-431277748Y-103586719D01*
X-431023871Y-103076561D01*
X-432355217Y-103076561D01*
X-432381926Y-103157621D01*
X-432474489Y-103362433D01*
X-432620331Y-103664675D01*
X-432806875Y-104038022D01*
X-432926371Y-104272118D01*
X-433135432Y-104666632D01*
X-433321314Y-104994892D01*
X-433469534Y-105233061D01*
X-433565612Y-105357302D01*
X-433591903Y-105367592D01*
X-433649545Y-105268614D01*
X-433763141Y-105045355D01*
X-433918083Y-104727465D01*
X-434099762Y-104344592D01*
X-434169314Y-104195667D01*
X-434681171Y-103095000D01*
X-433532606Y-103071368D01*
X-433110676Y-103064735D01*
X-432754099Y-103063011D01*
X-432494672Y-103066057D01*
X-432364194Y-103073733D01*
X-432355217Y-103076561D01*
X-431023871Y-103076561D01*
X-431009329Y-103047341D01*
X-430805596Y-102626934D01*
X-430662808Y-102317881D01*
X-430577226Y-102112567D01*
X-430545110Y-102003375D01*
X-430544667Y-101995635D01*
X-430561584Y-101961005D01*
X-430623006Y-101933108D01*
X-430744936Y-101911244D01*
X-430943377Y-101894708D01*
X-431234333Y-101882798D01*
X-431633808Y-101874811D01*
X-432157806Y-101870044D01*
X-432822330Y-101867794D01*
X-433465667Y-101867334D01*
X-434245435Y-101867623D01*
G36*
X-437825624Y-102257736D02*
G01*
X-438925915Y-102644406D01*
X-440069291Y-102262199D01*
X-441212667Y-101879991D01*
X-441212667Y-103027446D01*
X-440366000Y-103357405D01*
X-439519334Y-103687363D01*
X-439519334Y-107794000D01*
X-438418667Y-107794000D01*
X-438418667Y-103684794D01*
X-437572000Y-103361535D01*
X-436725334Y-103038277D01*
X-436725334Y-101871067D01*
X-437825624Y-102257736D01*
G37*
X-437825624Y-102257736D02*
X-438925915Y-102644406D01*
X-440069291Y-102262199D01*
X-441212667Y-101879991D01*
X-441212667Y-103027446D01*
X-440366000Y-103357405D01*
X-439519334Y-103687363D01*
X-439519334Y-107794000D01*
X-438418667Y-107794000D01*
X-438418667Y-103684794D01*
X-437572000Y-103361535D01*
X-436725334Y-103038277D01*
X-436725334Y-101871067D01*
X-437825624Y-102257736D01*
%TD*%
M02*
