%FSLAX45Y45*%
G04 Gerber Fmt 4.5, Leading zero omitted, Abs format (unit mm)*
G04 Created by KiCad (PCBNEW (5.1.8-0-10_14)) date 2021-07-20 21:00:22*
%MOMM*%
%LPD*%
G01*
G04 APERTURE LIST*
%TA.AperFunction,Profile*%
%ADD10C,0.050000*%
%TD*%
%ADD11C,0.200000*%
%ADD12C,0.300000*%
G04 APERTURE END LIST*
D10*
X5000000Y-15000000D02*
X5000000Y-5000000D01*
X7500000Y-15000000D02*
X5000000Y-15000000D01*
X7500000Y-5000000D02*
X7500000Y-15000000D01*
X5000000Y-5000000D02*
X7500000Y-5000000D01*
D11*
X6460000Y-12960000D02*
X6540000Y-13040000D01*
X6540000Y-12960000D02*
X6460000Y-13040000D01*
X7222000Y-12960000D02*
X7302000Y-13040000D01*
X7302000Y-12960000D02*
X7222000Y-13040000D01*
X6560000Y-6460000D02*
X6640000Y-6540000D01*
X6640000Y-6460000D02*
X6560000Y-6540000D01*
X6560000Y-6660000D02*
X6640000Y-6740000D01*
X6640000Y-6660000D02*
X6560000Y-6740000D01*
X6710000Y-9110000D02*
X6790000Y-9190000D01*
X6790000Y-9110000D02*
X6710000Y-9190000D01*
X6710000Y-9360000D02*
X6790000Y-9440000D01*
X6790000Y-9360000D02*
X6710000Y-9440000D01*
X5860000Y-7210000D02*
X5940000Y-7290000D01*
X5940000Y-7210000D02*
X5860000Y-7290000D01*
X6110000Y-7210000D02*
X6190000Y-7290000D01*
X6190000Y-7210000D02*
X6110000Y-7290000D01*
X5310000Y-6198000D02*
X5390000Y-6278000D01*
X5390000Y-6198000D02*
X5310000Y-6278000D01*
X5310000Y-6960000D02*
X5390000Y-7040000D01*
X5390000Y-6960000D02*
X5310000Y-7040000D01*
X7160000Y-10160000D02*
X7240000Y-10240000D01*
X7240000Y-10160000D02*
X7160000Y-10240000D01*
X7160000Y-10410000D02*
X7240000Y-10490000D01*
X7240000Y-10410000D02*
X7160000Y-10490000D01*
X5960000Y-12560000D02*
X6040000Y-12640000D01*
X6040000Y-12560000D02*
X5960000Y-12640000D01*
X6722000Y-12560000D02*
X6802000Y-12640000D01*
X6802000Y-12560000D02*
X6722000Y-12640000D01*
X7110000Y-6198000D02*
X7190000Y-6278000D01*
X7190000Y-6198000D02*
X7110000Y-6278000D01*
X7110000Y-6960000D02*
X7190000Y-7040000D01*
X7190000Y-6960000D02*
X7110000Y-7040000D01*
X6360000Y-10210000D02*
X6440000Y-10290000D01*
X6440000Y-10210000D02*
X6360000Y-10290000D01*
X6360000Y-10972000D02*
X6440000Y-11052000D01*
X6440000Y-10972000D02*
X6360000Y-11052000D01*
X6510000Y-7510000D02*
X6590000Y-7590000D01*
X6590000Y-7510000D02*
X6510000Y-7590000D01*
X6510000Y-8272000D02*
X6590000Y-8352000D01*
X6590000Y-8272000D02*
X6510000Y-8352000D01*
X5910000Y-6460000D02*
X5990000Y-6540000D01*
X5990000Y-6460000D02*
X5910000Y-6540000D01*
X5910000Y-6660000D02*
X5990000Y-6740000D01*
X5990000Y-6660000D02*
X5910000Y-6740000D01*
X5310000Y-7610000D02*
X5390000Y-7690000D01*
X5390000Y-7610000D02*
X5310000Y-7690000D01*
X5310000Y-7864000D02*
X5390000Y-7944000D01*
X5390000Y-7864000D02*
X5310000Y-7944000D01*
X5310000Y-8118000D02*
X5390000Y-8198000D01*
X5390000Y-8118000D02*
X5310000Y-8198000D01*
X5310000Y-8372000D02*
X5390000Y-8452000D01*
X5390000Y-8372000D02*
X5310000Y-8452000D01*
X6072000Y-7610000D02*
X6152000Y-7690000D01*
X6152000Y-7610000D02*
X6072000Y-7690000D01*
X6072000Y-7864000D02*
X6152000Y-7944000D01*
X6152000Y-7864000D02*
X6072000Y-7944000D01*
X6072000Y-8118000D02*
X6152000Y-8198000D01*
X6152000Y-8118000D02*
X6072000Y-8198000D01*
X6072000Y-8372000D02*
X6152000Y-8452000D01*
X6152000Y-8372000D02*
X6072000Y-8452000D01*
X7060000Y-11860000D02*
X7140000Y-11940000D01*
X7140000Y-11860000D02*
X7060000Y-11940000D01*
X7060000Y-12622000D02*
X7140000Y-12702000D01*
X7140000Y-12622000D02*
X7060000Y-12702000D01*
X6360000Y-11210000D02*
X6440000Y-11290000D01*
X6440000Y-11210000D02*
X6360000Y-11290000D01*
X6360000Y-11460000D02*
X6440000Y-11540000D01*
X6440000Y-11460000D02*
X6360000Y-11540000D01*
X5910000Y-10360000D02*
X5990000Y-10440000D01*
X5990000Y-10360000D02*
X5910000Y-10440000D01*
X5910000Y-10610000D02*
X5990000Y-10690000D01*
X5990000Y-10610000D02*
X5910000Y-10690000D01*
X6360000Y-7210000D02*
X6440000Y-7290000D01*
X6440000Y-7210000D02*
X6360000Y-7290000D01*
X6610000Y-7210000D02*
X6690000Y-7290000D01*
X6690000Y-7210000D02*
X6610000Y-7290000D01*
X5510000Y-11810000D02*
X5590000Y-11890000D01*
X5590000Y-11810000D02*
X5510000Y-11890000D01*
X5510000Y-12572000D02*
X5590000Y-12652000D01*
X5590000Y-12572000D02*
X5510000Y-12652000D01*
X6110000Y-13510000D02*
X6190000Y-13590000D01*
X6190000Y-13510000D02*
X6110000Y-13590000D01*
X6360000Y-13510000D02*
X6440000Y-13590000D01*
X6440000Y-13510000D02*
X6360000Y-13590000D01*
X6710000Y-9660000D02*
X6790000Y-9740000D01*
X6790000Y-9660000D02*
X6710000Y-9740000D01*
X6710000Y-10422000D02*
X6790000Y-10502000D01*
X6790000Y-10422000D02*
X6710000Y-10502000D01*
X5310000Y-12960000D02*
X5390000Y-13040000D01*
X5390000Y-12960000D02*
X5310000Y-13040000D01*
X6072000Y-12960000D02*
X6152000Y-13040000D01*
X6152000Y-12960000D02*
X6072000Y-13040000D01*
X5360000Y-10360000D02*
X5440000Y-10440000D01*
X5440000Y-10360000D02*
X5360000Y-10440000D01*
X5560000Y-10360000D02*
X5640000Y-10440000D01*
X5640000Y-10360000D02*
X5560000Y-10440000D01*
X7160000Y-8960000D02*
X7240000Y-9040000D01*
X7240000Y-8960000D02*
X7160000Y-9040000D01*
X7160000Y-9722000D02*
X7240000Y-9802000D01*
X7240000Y-9722000D02*
X7160000Y-9802000D01*
X5791800Y-5499500D02*
G75*
G03*
X5791800Y-5499500I-50800J0D01*
G01*
X5791800Y-5753500D02*
G75*
G03*
X5791800Y-5753500I-50800J0D01*
G01*
X6045800Y-5499500D02*
G75*
G03*
X6045800Y-5499500I-50800J0D01*
G01*
X6045800Y-5753500D02*
G75*
G03*
X6045800Y-5753500I-50800J0D01*
G01*
X6299800Y-5499500D02*
G75*
G03*
X6299800Y-5499500I-50800J0D01*
G01*
X6299800Y-5753500D02*
G75*
G03*
X6299800Y-5753500I-50800J0D01*
G01*
X6553800Y-5499500D02*
G75*
G03*
X6553800Y-5499500I-50800J0D01*
G01*
X6553800Y-5753500D02*
G75*
G03*
X6553800Y-5753500I-50800J0D01*
G01*
X6807800Y-5499500D02*
G75*
G03*
X6807800Y-5499500I-50800J0D01*
G01*
X6807800Y-5753500D02*
G75*
G03*
X6807800Y-5753500I-50800J0D01*
G01*
X5500000Y-9232000D02*
X5500000Y-9352000D01*
X5440000Y-9292000D02*
X5560000Y-9292000D01*
X5500000Y-9486000D02*
X5500000Y-9606000D01*
X5440000Y-9546000D02*
X5560000Y-9546000D01*
X5500000Y-9740000D02*
X5500000Y-9860000D01*
X5440000Y-9800000D02*
X5560000Y-9800000D01*
X7000000Y-7582000D02*
X7000000Y-7702000D01*
X6940000Y-7642000D02*
X7060000Y-7642000D01*
X7000000Y-7836000D02*
X7000000Y-7956000D01*
X6940000Y-7896000D02*
X7060000Y-7896000D01*
X7000000Y-8090000D02*
X7000000Y-8210000D01*
X6940000Y-8150000D02*
X7060000Y-8150000D01*
X5600000Y-14140000D02*
X5600000Y-14260000D01*
X5540000Y-14200000D02*
X5660000Y-14200000D01*
X5854000Y-14140000D02*
X5854000Y-14260000D01*
X5794000Y-14200000D02*
X5914000Y-14200000D01*
X5550000Y-10932000D02*
X5550000Y-11052000D01*
X5490000Y-10992000D02*
X5610000Y-10992000D01*
X5550000Y-11186000D02*
X5550000Y-11306000D01*
X5490000Y-11246000D02*
X5610000Y-11246000D01*
X5550000Y-11440000D02*
X5550000Y-11560000D01*
X5490000Y-11500000D02*
X5610000Y-11500000D01*
X6700000Y-14140000D02*
X6700000Y-14260000D01*
X6640000Y-14200000D02*
X6760000Y-14200000D01*
X6954000Y-14140000D02*
X6954000Y-14260000D01*
X6894000Y-14200000D02*
X7014000Y-14200000D01*
X7000000Y-10732000D02*
X7000000Y-10852000D01*
X6940000Y-10792000D02*
X7060000Y-10792000D01*
X7000000Y-10986000D02*
X7000000Y-11106000D01*
X6940000Y-11046000D02*
X7060000Y-11046000D01*
X7000000Y-11240000D02*
X7000000Y-11360000D01*
X6940000Y-11300000D02*
X7060000Y-11300000D01*
X7263138Y-13663138D02*
X7263138Y-13436862D01*
X7036862Y-13436862D01*
X7036862Y-13663138D01*
X7263138Y-13663138D01*
D12*
X5283928Y-15468214D02*
X5283928Y-15168214D01*
X5355357Y-15168214D01*
X5398214Y-15182500D01*
X5426786Y-15211071D01*
X5441071Y-15239643D01*
X5455357Y-15296786D01*
X5455357Y-15339643D01*
X5441071Y-15396786D01*
X5426786Y-15425357D01*
X5398214Y-15453929D01*
X5355357Y-15468214D01*
X5283928Y-15468214D01*
X5583928Y-15468214D02*
X5583928Y-15268214D01*
X5583928Y-15325357D02*
X5598214Y-15296786D01*
X5612500Y-15282500D01*
X5641071Y-15268214D01*
X5669643Y-15268214D01*
X5769643Y-15468214D02*
X5769643Y-15268214D01*
X5769643Y-15168214D02*
X5755357Y-15182500D01*
X5769643Y-15196786D01*
X5783928Y-15182500D01*
X5769643Y-15168214D01*
X5769643Y-15196786D01*
X5955357Y-15468214D02*
X5926786Y-15453929D01*
X5912500Y-15425357D01*
X5912500Y-15168214D01*
X6112500Y-15468214D02*
X6083928Y-15453929D01*
X6069643Y-15425357D01*
X6069643Y-15168214D01*
X6455357Y-15468214D02*
X6455357Y-15168214D01*
X6555357Y-15382500D01*
X6655357Y-15168214D01*
X6655357Y-15468214D01*
X6926786Y-15468214D02*
X6926786Y-15311071D01*
X6912500Y-15282500D01*
X6883928Y-15268214D01*
X6826786Y-15268214D01*
X6798214Y-15282500D01*
X6926786Y-15453929D02*
X6898214Y-15468214D01*
X6826786Y-15468214D01*
X6798214Y-15453929D01*
X6783928Y-15425357D01*
X6783928Y-15396786D01*
X6798214Y-15368214D01*
X6826786Y-15353929D01*
X6898214Y-15353929D01*
X6926786Y-15339643D01*
X7069643Y-15268214D02*
X7069643Y-15568214D01*
X7069643Y-15282500D02*
X7098214Y-15268214D01*
X7155357Y-15268214D01*
X7183928Y-15282500D01*
X7198214Y-15296786D01*
X7212500Y-15325357D01*
X7212500Y-15411071D01*
X7198214Y-15439643D01*
X7183928Y-15453929D01*
X7155357Y-15468214D01*
X7098214Y-15468214D01*
X7069643Y-15453929D01*
X7341071Y-15439643D02*
X7355357Y-15453929D01*
X7341071Y-15468214D01*
X7326786Y-15453929D01*
X7341071Y-15439643D01*
X7341071Y-15468214D01*
X7341071Y-15282500D02*
X7355357Y-15296786D01*
X7341071Y-15311071D01*
X7326786Y-15296786D01*
X7341071Y-15282500D01*
X7341071Y-15311071D01*
X4917500Y-15922500D02*
X4997500Y-16002500D01*
X4997500Y-15922500D02*
X4917500Y-16002500D01*
X5341071Y-15798214D02*
X5369643Y-15798214D01*
X5398214Y-15812500D01*
X5412500Y-15826786D01*
X5426786Y-15855357D01*
X5441071Y-15912500D01*
X5441071Y-15983929D01*
X5426786Y-16041071D01*
X5412500Y-16069643D01*
X5398214Y-16083929D01*
X5369643Y-16098214D01*
X5341071Y-16098214D01*
X5312500Y-16083929D01*
X5298214Y-16069643D01*
X5283928Y-16041071D01*
X5269643Y-15983929D01*
X5269643Y-15912500D01*
X5283928Y-15855357D01*
X5298214Y-15826786D01*
X5312500Y-15812500D01*
X5341071Y-15798214D01*
X5569643Y-16069643D02*
X5583928Y-16083929D01*
X5569643Y-16098214D01*
X5555357Y-16083929D01*
X5569643Y-16069643D01*
X5569643Y-16098214D01*
X5755357Y-15926786D02*
X5726786Y-15912500D01*
X5712500Y-15898214D01*
X5698214Y-15869643D01*
X5698214Y-15855357D01*
X5712500Y-15826786D01*
X5726786Y-15812500D01*
X5755357Y-15798214D01*
X5812500Y-15798214D01*
X5841071Y-15812500D01*
X5855357Y-15826786D01*
X5869643Y-15855357D01*
X5869643Y-15869643D01*
X5855357Y-15898214D01*
X5841071Y-15912500D01*
X5812500Y-15926786D01*
X5755357Y-15926786D01*
X5726786Y-15941071D01*
X5712500Y-15955357D01*
X5698214Y-15983929D01*
X5698214Y-16041071D01*
X5712500Y-16069643D01*
X5726786Y-16083929D01*
X5755357Y-16098214D01*
X5812500Y-16098214D01*
X5841071Y-16083929D01*
X5855357Y-16069643D01*
X5869643Y-16041071D01*
X5869643Y-15983929D01*
X5855357Y-15955357D01*
X5841071Y-15941071D01*
X5812500Y-15926786D01*
X6055357Y-15798214D02*
X6083928Y-15798214D01*
X6112500Y-15812500D01*
X6126786Y-15826786D01*
X6141071Y-15855357D01*
X6155357Y-15912500D01*
X6155357Y-15983929D01*
X6141071Y-16041071D01*
X6126786Y-16069643D01*
X6112500Y-16083929D01*
X6083928Y-16098214D01*
X6055357Y-16098214D01*
X6026786Y-16083929D01*
X6012500Y-16069643D01*
X5998214Y-16041071D01*
X5983928Y-15983929D01*
X5983928Y-15912500D01*
X5998214Y-15855357D01*
X6012500Y-15826786D01*
X6026786Y-15812500D01*
X6055357Y-15798214D01*
X6283928Y-16098214D02*
X6283928Y-15898214D01*
X6283928Y-15926786D02*
X6298214Y-15912500D01*
X6326786Y-15898214D01*
X6369643Y-15898214D01*
X6398214Y-15912500D01*
X6412500Y-15941071D01*
X6412500Y-16098214D01*
X6412500Y-15941071D02*
X6426786Y-15912500D01*
X6455357Y-15898214D01*
X6498214Y-15898214D01*
X6526786Y-15912500D01*
X6541071Y-15941071D01*
X6541071Y-16098214D01*
X6683928Y-16098214D02*
X6683928Y-15898214D01*
X6683928Y-15926786D02*
X6698214Y-15912500D01*
X6726786Y-15898214D01*
X6769643Y-15898214D01*
X6798214Y-15912500D01*
X6812500Y-15941071D01*
X6812500Y-16098214D01*
X6812500Y-15941071D02*
X6826786Y-15912500D01*
X6855357Y-15898214D01*
X6898214Y-15898214D01*
X6926786Y-15912500D01*
X6941071Y-15941071D01*
X6941071Y-16098214D01*
X7526786Y-15783929D02*
X7269643Y-16169643D01*
X7912500Y-15798214D02*
X7941071Y-15798214D01*
X7969643Y-15812500D01*
X7983928Y-15826786D01*
X7998214Y-15855357D01*
X8012500Y-15912500D01*
X8012500Y-15983929D01*
X7998214Y-16041071D01*
X7983928Y-16069643D01*
X7969643Y-16083929D01*
X7941071Y-16098214D01*
X7912500Y-16098214D01*
X7883928Y-16083929D01*
X7869643Y-16069643D01*
X7855357Y-16041071D01*
X7841071Y-15983929D01*
X7841071Y-15912500D01*
X7855357Y-15855357D01*
X7869643Y-15826786D01*
X7883928Y-15812500D01*
X7912500Y-15798214D01*
X8141071Y-16069643D02*
X8155357Y-16083929D01*
X8141071Y-16098214D01*
X8126786Y-16083929D01*
X8141071Y-16069643D01*
X8141071Y-16098214D01*
X8341071Y-15798214D02*
X8369643Y-15798214D01*
X8398214Y-15812500D01*
X8412500Y-15826786D01*
X8426786Y-15855357D01*
X8441071Y-15912500D01*
X8441071Y-15983929D01*
X8426786Y-16041071D01*
X8412500Y-16069643D01*
X8398214Y-16083929D01*
X8369643Y-16098214D01*
X8341071Y-16098214D01*
X8312500Y-16083929D01*
X8298214Y-16069643D01*
X8283928Y-16041071D01*
X8269643Y-15983929D01*
X8269643Y-15912500D01*
X8283928Y-15855357D01*
X8298214Y-15826786D01*
X8312500Y-15812500D01*
X8341071Y-15798214D01*
X8541071Y-15798214D02*
X8726786Y-15798214D01*
X8626786Y-15912500D01*
X8669643Y-15912500D01*
X8698214Y-15926786D01*
X8712500Y-15941071D01*
X8726786Y-15969643D01*
X8726786Y-16041071D01*
X8712500Y-16069643D01*
X8698214Y-16083929D01*
X8669643Y-16098214D01*
X8583928Y-16098214D01*
X8555357Y-16083929D01*
X8541071Y-16069643D01*
X9012500Y-16098214D02*
X8841071Y-16098214D01*
X8926786Y-16098214D02*
X8926786Y-15798214D01*
X8898214Y-15841071D01*
X8869643Y-15869643D01*
X8841071Y-15883929D01*
X9126786Y-15798214D02*
X9126786Y-15855357D01*
X9241071Y-15798214D02*
X9241071Y-15855357D01*
X9683928Y-16212500D02*
X9669643Y-16198214D01*
X9641071Y-16155357D01*
X9626786Y-16126786D01*
X9612500Y-16083929D01*
X9598214Y-16012500D01*
X9598214Y-15955357D01*
X9612500Y-15883929D01*
X9626786Y-15841071D01*
X9641071Y-15812500D01*
X9669643Y-15769643D01*
X9683928Y-15755357D01*
X9941071Y-15798214D02*
X9798214Y-15798214D01*
X9783928Y-15941071D01*
X9798214Y-15926786D01*
X9826786Y-15912500D01*
X9898214Y-15912500D01*
X9926786Y-15926786D01*
X9941071Y-15941071D01*
X9955357Y-15969643D01*
X9955357Y-16041071D01*
X9941071Y-16069643D01*
X9926786Y-16083929D01*
X9898214Y-16098214D01*
X9826786Y-16098214D01*
X9798214Y-16083929D01*
X9783928Y-16069643D01*
X10141071Y-15798214D02*
X10169643Y-15798214D01*
X10198214Y-15812500D01*
X10212500Y-15826786D01*
X10226786Y-15855357D01*
X10241071Y-15912500D01*
X10241071Y-15983929D01*
X10226786Y-16041071D01*
X10212500Y-16069643D01*
X10198214Y-16083929D01*
X10169643Y-16098214D01*
X10141071Y-16098214D01*
X10112500Y-16083929D01*
X10098214Y-16069643D01*
X10083928Y-16041071D01*
X10069643Y-15983929D01*
X10069643Y-15912500D01*
X10083928Y-15855357D01*
X10098214Y-15826786D01*
X10112500Y-15812500D01*
X10141071Y-15798214D01*
X10598214Y-16098214D02*
X10598214Y-15798214D01*
X10726786Y-16098214D02*
X10726786Y-15941071D01*
X10712500Y-15912500D01*
X10683928Y-15898214D01*
X10641071Y-15898214D01*
X10612500Y-15912500D01*
X10598214Y-15926786D01*
X10912500Y-16098214D02*
X10883928Y-16083929D01*
X10869643Y-16069643D01*
X10855357Y-16041071D01*
X10855357Y-15955357D01*
X10869643Y-15926786D01*
X10883928Y-15912500D01*
X10912500Y-15898214D01*
X10955357Y-15898214D01*
X10983928Y-15912500D01*
X10998214Y-15926786D01*
X11012500Y-15955357D01*
X11012500Y-16041071D01*
X10998214Y-16069643D01*
X10983928Y-16083929D01*
X10955357Y-16098214D01*
X10912500Y-16098214D01*
X11183928Y-16098214D02*
X11155357Y-16083929D01*
X11141071Y-16055357D01*
X11141071Y-15798214D01*
X11412500Y-16083929D02*
X11383928Y-16098214D01*
X11326786Y-16098214D01*
X11298214Y-16083929D01*
X11283928Y-16055357D01*
X11283928Y-15941071D01*
X11298214Y-15912500D01*
X11326786Y-15898214D01*
X11383928Y-15898214D01*
X11412500Y-15912500D01*
X11426786Y-15941071D01*
X11426786Y-15969643D01*
X11283928Y-15998214D01*
X11541071Y-16083929D02*
X11569643Y-16098214D01*
X11626786Y-16098214D01*
X11655357Y-16083929D01*
X11669643Y-16055357D01*
X11669643Y-16041071D01*
X11655357Y-16012500D01*
X11626786Y-15998214D01*
X11583928Y-15998214D01*
X11555357Y-15983929D01*
X11541071Y-15955357D01*
X11541071Y-15941071D01*
X11555357Y-15912500D01*
X11583928Y-15898214D01*
X11626786Y-15898214D01*
X11655357Y-15912500D01*
X11769643Y-16212500D02*
X11783928Y-16198214D01*
X11812500Y-16155357D01*
X11826786Y-16126786D01*
X11841071Y-16083929D01*
X11855357Y-16012500D01*
X11855357Y-15955357D01*
X11841071Y-15883929D01*
X11826786Y-15841071D01*
X11812500Y-15812500D01*
X11783928Y-15769643D01*
X11769643Y-15755357D01*
X4997500Y-16358500D02*
G75*
G03*
X4997500Y-16358500I-50800J0D01*
G01*
X5441071Y-16494214D02*
X5269643Y-16494214D01*
X5355357Y-16494214D02*
X5355357Y-16194214D01*
X5326786Y-16237071D01*
X5298214Y-16265643D01*
X5269643Y-16279929D01*
X5569643Y-16465643D02*
X5583928Y-16479929D01*
X5569643Y-16494214D01*
X5555357Y-16479929D01*
X5569643Y-16465643D01*
X5569643Y-16494214D01*
X5769643Y-16194214D02*
X5798214Y-16194214D01*
X5826786Y-16208500D01*
X5841071Y-16222786D01*
X5855357Y-16251357D01*
X5869643Y-16308500D01*
X5869643Y-16379929D01*
X5855357Y-16437071D01*
X5841071Y-16465643D01*
X5826786Y-16479929D01*
X5798214Y-16494214D01*
X5769643Y-16494214D01*
X5741071Y-16479929D01*
X5726786Y-16465643D01*
X5712500Y-16437071D01*
X5698214Y-16379929D01*
X5698214Y-16308500D01*
X5712500Y-16251357D01*
X5726786Y-16222786D01*
X5741071Y-16208500D01*
X5769643Y-16194214D01*
X5983928Y-16222786D02*
X5998214Y-16208500D01*
X6026786Y-16194214D01*
X6098214Y-16194214D01*
X6126786Y-16208500D01*
X6141071Y-16222786D01*
X6155357Y-16251357D01*
X6155357Y-16279929D01*
X6141071Y-16322786D01*
X5969643Y-16494214D01*
X6155357Y-16494214D01*
X6283928Y-16494214D02*
X6283928Y-16294214D01*
X6283928Y-16322786D02*
X6298214Y-16308500D01*
X6326786Y-16294214D01*
X6369643Y-16294214D01*
X6398214Y-16308500D01*
X6412500Y-16337071D01*
X6412500Y-16494214D01*
X6412500Y-16337071D02*
X6426786Y-16308500D01*
X6455357Y-16294214D01*
X6498214Y-16294214D01*
X6526786Y-16308500D01*
X6541071Y-16337071D01*
X6541071Y-16494214D01*
X6683928Y-16494214D02*
X6683928Y-16294214D01*
X6683928Y-16322786D02*
X6698214Y-16308500D01*
X6726786Y-16294214D01*
X6769643Y-16294214D01*
X6798214Y-16308500D01*
X6812500Y-16337071D01*
X6812500Y-16494214D01*
X6812500Y-16337071D02*
X6826786Y-16308500D01*
X6855357Y-16294214D01*
X6898214Y-16294214D01*
X6926786Y-16308500D01*
X6941071Y-16337071D01*
X6941071Y-16494214D01*
X7526786Y-16179929D02*
X7269643Y-16565643D01*
X7912500Y-16194214D02*
X7941071Y-16194214D01*
X7969643Y-16208500D01*
X7983928Y-16222786D01*
X7998214Y-16251357D01*
X8012500Y-16308500D01*
X8012500Y-16379929D01*
X7998214Y-16437071D01*
X7983928Y-16465643D01*
X7969643Y-16479929D01*
X7941071Y-16494214D01*
X7912500Y-16494214D01*
X7883928Y-16479929D01*
X7869643Y-16465643D01*
X7855357Y-16437071D01*
X7841071Y-16379929D01*
X7841071Y-16308500D01*
X7855357Y-16251357D01*
X7869643Y-16222786D01*
X7883928Y-16208500D01*
X7912500Y-16194214D01*
X8141071Y-16465643D02*
X8155357Y-16479929D01*
X8141071Y-16494214D01*
X8126786Y-16479929D01*
X8141071Y-16465643D01*
X8141071Y-16494214D01*
X8341071Y-16194214D02*
X8369643Y-16194214D01*
X8398214Y-16208500D01*
X8412500Y-16222786D01*
X8426786Y-16251357D01*
X8441071Y-16308500D01*
X8441071Y-16379929D01*
X8426786Y-16437071D01*
X8412500Y-16465643D01*
X8398214Y-16479929D01*
X8369643Y-16494214D01*
X8341071Y-16494214D01*
X8312500Y-16479929D01*
X8298214Y-16465643D01*
X8283928Y-16437071D01*
X8269643Y-16379929D01*
X8269643Y-16308500D01*
X8283928Y-16251357D01*
X8298214Y-16222786D01*
X8312500Y-16208500D01*
X8341071Y-16194214D01*
X8698214Y-16294214D02*
X8698214Y-16494214D01*
X8626786Y-16179929D02*
X8555357Y-16394214D01*
X8741071Y-16394214D01*
X8912500Y-16194214D02*
X8941071Y-16194214D01*
X8969643Y-16208500D01*
X8983928Y-16222786D01*
X8998214Y-16251357D01*
X9012500Y-16308500D01*
X9012500Y-16379929D01*
X8998214Y-16437071D01*
X8983928Y-16465643D01*
X8969643Y-16479929D01*
X8941071Y-16494214D01*
X8912500Y-16494214D01*
X8883928Y-16479929D01*
X8869643Y-16465643D01*
X8855357Y-16437071D01*
X8841071Y-16379929D01*
X8841071Y-16308500D01*
X8855357Y-16251357D01*
X8869643Y-16222786D01*
X8883928Y-16208500D01*
X8912500Y-16194214D01*
X9126786Y-16194214D02*
X9126786Y-16251357D01*
X9241071Y-16194214D02*
X9241071Y-16251357D01*
X9683928Y-16608500D02*
X9669643Y-16594214D01*
X9641071Y-16551357D01*
X9626786Y-16522786D01*
X9612500Y-16479929D01*
X9598214Y-16408500D01*
X9598214Y-16351357D01*
X9612500Y-16279929D01*
X9626786Y-16237071D01*
X9641071Y-16208500D01*
X9669643Y-16165643D01*
X9683928Y-16151357D01*
X9955357Y-16494214D02*
X9783928Y-16494214D01*
X9869643Y-16494214D02*
X9869643Y-16194214D01*
X9841071Y-16237071D01*
X9812500Y-16265643D01*
X9783928Y-16279929D01*
X10141071Y-16194214D02*
X10169643Y-16194214D01*
X10198214Y-16208500D01*
X10212500Y-16222786D01*
X10226786Y-16251357D01*
X10241071Y-16308500D01*
X10241071Y-16379929D01*
X10226786Y-16437071D01*
X10212500Y-16465643D01*
X10198214Y-16479929D01*
X10169643Y-16494214D01*
X10141071Y-16494214D01*
X10112500Y-16479929D01*
X10098214Y-16465643D01*
X10083928Y-16437071D01*
X10069643Y-16379929D01*
X10069643Y-16308500D01*
X10083928Y-16251357D01*
X10098214Y-16222786D01*
X10112500Y-16208500D01*
X10141071Y-16194214D01*
X10598214Y-16494214D02*
X10598214Y-16194214D01*
X10726786Y-16494214D02*
X10726786Y-16337071D01*
X10712500Y-16308500D01*
X10683928Y-16294214D01*
X10641071Y-16294214D01*
X10612500Y-16308500D01*
X10598214Y-16322786D01*
X10912500Y-16494214D02*
X10883928Y-16479929D01*
X10869643Y-16465643D01*
X10855357Y-16437071D01*
X10855357Y-16351357D01*
X10869643Y-16322786D01*
X10883928Y-16308500D01*
X10912500Y-16294214D01*
X10955357Y-16294214D01*
X10983928Y-16308500D01*
X10998214Y-16322786D01*
X11012500Y-16351357D01*
X11012500Y-16437071D01*
X10998214Y-16465643D01*
X10983928Y-16479929D01*
X10955357Y-16494214D01*
X10912500Y-16494214D01*
X11183928Y-16494214D02*
X11155357Y-16479929D01*
X11141071Y-16451357D01*
X11141071Y-16194214D01*
X11412500Y-16479929D02*
X11383928Y-16494214D01*
X11326786Y-16494214D01*
X11298214Y-16479929D01*
X11283928Y-16451357D01*
X11283928Y-16337071D01*
X11298214Y-16308500D01*
X11326786Y-16294214D01*
X11383928Y-16294214D01*
X11412500Y-16308500D01*
X11426786Y-16337071D01*
X11426786Y-16365643D01*
X11283928Y-16394214D01*
X11541071Y-16479929D02*
X11569643Y-16494214D01*
X11626786Y-16494214D01*
X11655357Y-16479929D01*
X11669643Y-16451357D01*
X11669643Y-16437071D01*
X11655357Y-16408500D01*
X11626786Y-16394214D01*
X11583928Y-16394214D01*
X11555357Y-16379929D01*
X11541071Y-16351357D01*
X11541071Y-16337071D01*
X11555357Y-16308500D01*
X11583928Y-16294214D01*
X11626786Y-16294214D01*
X11655357Y-16308500D01*
X11769643Y-16608500D02*
X11783928Y-16594214D01*
X11812500Y-16551357D01*
X11826786Y-16522786D01*
X11841071Y-16479929D01*
X11855357Y-16408500D01*
X11855357Y-16351357D01*
X11841071Y-16279929D01*
X11826786Y-16237071D01*
X11812500Y-16208500D01*
X11783928Y-16165643D01*
X11769643Y-16151357D01*
X4937500Y-16694500D02*
X4937500Y-16814500D01*
X4877500Y-16754500D02*
X4997500Y-16754500D01*
X5441071Y-16890214D02*
X5269643Y-16890214D01*
X5355357Y-16890214D02*
X5355357Y-16590214D01*
X5326786Y-16633071D01*
X5298214Y-16661643D01*
X5269643Y-16675929D01*
X5569643Y-16861643D02*
X5583928Y-16875929D01*
X5569643Y-16890214D01*
X5555357Y-16875929D01*
X5569643Y-16861643D01*
X5569643Y-16890214D01*
X5698214Y-16618786D02*
X5712500Y-16604500D01*
X5741071Y-16590214D01*
X5812500Y-16590214D01*
X5841071Y-16604500D01*
X5855357Y-16618786D01*
X5869643Y-16647357D01*
X5869643Y-16675929D01*
X5855357Y-16718786D01*
X5683928Y-16890214D01*
X5869643Y-16890214D01*
X6055357Y-16590214D02*
X6083928Y-16590214D01*
X6112500Y-16604500D01*
X6126786Y-16618786D01*
X6141071Y-16647357D01*
X6155357Y-16704500D01*
X6155357Y-16775929D01*
X6141071Y-16833072D01*
X6126786Y-16861643D01*
X6112500Y-16875929D01*
X6083928Y-16890214D01*
X6055357Y-16890214D01*
X6026786Y-16875929D01*
X6012500Y-16861643D01*
X5998214Y-16833072D01*
X5983928Y-16775929D01*
X5983928Y-16704500D01*
X5998214Y-16647357D01*
X6012500Y-16618786D01*
X6026786Y-16604500D01*
X6055357Y-16590214D01*
X6283928Y-16890214D02*
X6283928Y-16690214D01*
X6283928Y-16718786D02*
X6298214Y-16704500D01*
X6326786Y-16690214D01*
X6369643Y-16690214D01*
X6398214Y-16704500D01*
X6412500Y-16733071D01*
X6412500Y-16890214D01*
X6412500Y-16733071D02*
X6426786Y-16704500D01*
X6455357Y-16690214D01*
X6498214Y-16690214D01*
X6526786Y-16704500D01*
X6541071Y-16733071D01*
X6541071Y-16890214D01*
X6683928Y-16890214D02*
X6683928Y-16690214D01*
X6683928Y-16718786D02*
X6698214Y-16704500D01*
X6726786Y-16690214D01*
X6769643Y-16690214D01*
X6798214Y-16704500D01*
X6812500Y-16733071D01*
X6812500Y-16890214D01*
X6812500Y-16733071D02*
X6826786Y-16704500D01*
X6855357Y-16690214D01*
X6898214Y-16690214D01*
X6926786Y-16704500D01*
X6941071Y-16733071D01*
X6941071Y-16890214D01*
X7526786Y-16575929D02*
X7269643Y-16961643D01*
X7912500Y-16590214D02*
X7941071Y-16590214D01*
X7969643Y-16604500D01*
X7983928Y-16618786D01*
X7998214Y-16647357D01*
X8012500Y-16704500D01*
X8012500Y-16775929D01*
X7998214Y-16833072D01*
X7983928Y-16861643D01*
X7969643Y-16875929D01*
X7941071Y-16890214D01*
X7912500Y-16890214D01*
X7883928Y-16875929D01*
X7869643Y-16861643D01*
X7855357Y-16833072D01*
X7841071Y-16775929D01*
X7841071Y-16704500D01*
X7855357Y-16647357D01*
X7869643Y-16618786D01*
X7883928Y-16604500D01*
X7912500Y-16590214D01*
X8141071Y-16861643D02*
X8155357Y-16875929D01*
X8141071Y-16890214D01*
X8126786Y-16875929D01*
X8141071Y-16861643D01*
X8141071Y-16890214D01*
X8341071Y-16590214D02*
X8369643Y-16590214D01*
X8398214Y-16604500D01*
X8412500Y-16618786D01*
X8426786Y-16647357D01*
X8441071Y-16704500D01*
X8441071Y-16775929D01*
X8426786Y-16833072D01*
X8412500Y-16861643D01*
X8398214Y-16875929D01*
X8369643Y-16890214D01*
X8341071Y-16890214D01*
X8312500Y-16875929D01*
X8298214Y-16861643D01*
X8283928Y-16833072D01*
X8269643Y-16775929D01*
X8269643Y-16704500D01*
X8283928Y-16647357D01*
X8298214Y-16618786D01*
X8312500Y-16604500D01*
X8341071Y-16590214D01*
X8698214Y-16690214D02*
X8698214Y-16890214D01*
X8626786Y-16575929D02*
X8555357Y-16790214D01*
X8741071Y-16790214D01*
X8826786Y-16590214D02*
X9026786Y-16590214D01*
X8898214Y-16890214D01*
X9126786Y-16590214D02*
X9126786Y-16647357D01*
X9241071Y-16590214D02*
X9241071Y-16647357D01*
X9683928Y-17004500D02*
X9669643Y-16990214D01*
X9641071Y-16947357D01*
X9626786Y-16918786D01*
X9612500Y-16875929D01*
X9598214Y-16804500D01*
X9598214Y-16747357D01*
X9612500Y-16675929D01*
X9626786Y-16633071D01*
X9641071Y-16604500D01*
X9669643Y-16561643D01*
X9683928Y-16547357D01*
X9955357Y-16890214D02*
X9783928Y-16890214D01*
X9869643Y-16890214D02*
X9869643Y-16590214D01*
X9841071Y-16633071D01*
X9812500Y-16661643D01*
X9783928Y-16675929D01*
X10212500Y-16590214D02*
X10155357Y-16590214D01*
X10126786Y-16604500D01*
X10112500Y-16618786D01*
X10083928Y-16661643D01*
X10069643Y-16718786D01*
X10069643Y-16833072D01*
X10083928Y-16861643D01*
X10098214Y-16875929D01*
X10126786Y-16890214D01*
X10183928Y-16890214D01*
X10212500Y-16875929D01*
X10226786Y-16861643D01*
X10241071Y-16833072D01*
X10241071Y-16761643D01*
X10226786Y-16733071D01*
X10212500Y-16718786D01*
X10183928Y-16704500D01*
X10126786Y-16704500D01*
X10098214Y-16718786D01*
X10083928Y-16733071D01*
X10069643Y-16761643D01*
X10598214Y-16890214D02*
X10598214Y-16590214D01*
X10726786Y-16890214D02*
X10726786Y-16733071D01*
X10712500Y-16704500D01*
X10683928Y-16690214D01*
X10641071Y-16690214D01*
X10612500Y-16704500D01*
X10598214Y-16718786D01*
X10912500Y-16890214D02*
X10883928Y-16875929D01*
X10869643Y-16861643D01*
X10855357Y-16833072D01*
X10855357Y-16747357D01*
X10869643Y-16718786D01*
X10883928Y-16704500D01*
X10912500Y-16690214D01*
X10955357Y-16690214D01*
X10983928Y-16704500D01*
X10998214Y-16718786D01*
X11012500Y-16747357D01*
X11012500Y-16833072D01*
X10998214Y-16861643D01*
X10983928Y-16875929D01*
X10955357Y-16890214D01*
X10912500Y-16890214D01*
X11183928Y-16890214D02*
X11155357Y-16875929D01*
X11141071Y-16847357D01*
X11141071Y-16590214D01*
X11412500Y-16875929D02*
X11383928Y-16890214D01*
X11326786Y-16890214D01*
X11298214Y-16875929D01*
X11283928Y-16847357D01*
X11283928Y-16733071D01*
X11298214Y-16704500D01*
X11326786Y-16690214D01*
X11383928Y-16690214D01*
X11412500Y-16704500D01*
X11426786Y-16733071D01*
X11426786Y-16761643D01*
X11283928Y-16790214D01*
X11541071Y-16875929D02*
X11569643Y-16890214D01*
X11626786Y-16890214D01*
X11655357Y-16875929D01*
X11669643Y-16847357D01*
X11669643Y-16833072D01*
X11655357Y-16804500D01*
X11626786Y-16790214D01*
X11583928Y-16790214D01*
X11555357Y-16775929D01*
X11541071Y-16747357D01*
X11541071Y-16733071D01*
X11555357Y-16704500D01*
X11583928Y-16690214D01*
X11626786Y-16690214D01*
X11655357Y-16704500D01*
X11769643Y-17004500D02*
X11783928Y-16990214D01*
X11812500Y-16947357D01*
X11826786Y-16918786D01*
X11841071Y-16875929D01*
X11855357Y-16804500D01*
X11855357Y-16747357D01*
X11841071Y-16675929D01*
X11826786Y-16633071D01*
X11812500Y-16604500D01*
X11783928Y-16561643D01*
X11769643Y-16547357D01*
X4950638Y-17263638D02*
X4950638Y-17037362D01*
X4724362Y-17037362D01*
X4724362Y-17263638D01*
X4950638Y-17263638D01*
X5255357Y-16986214D02*
X5441071Y-16986214D01*
X5341071Y-17100500D01*
X5383928Y-17100500D01*
X5412500Y-17114786D01*
X5426786Y-17129072D01*
X5441071Y-17157643D01*
X5441071Y-17229072D01*
X5426786Y-17257643D01*
X5412500Y-17271929D01*
X5383928Y-17286214D01*
X5298214Y-17286214D01*
X5269643Y-17271929D01*
X5255357Y-17257643D01*
X5569643Y-17257643D02*
X5583928Y-17271929D01*
X5569643Y-17286214D01*
X5555357Y-17271929D01*
X5569643Y-17257643D01*
X5569643Y-17286214D01*
X5698214Y-17014786D02*
X5712500Y-17000500D01*
X5741071Y-16986214D01*
X5812500Y-16986214D01*
X5841071Y-17000500D01*
X5855357Y-17014786D01*
X5869643Y-17043357D01*
X5869643Y-17071929D01*
X5855357Y-17114786D01*
X5683928Y-17286214D01*
X5869643Y-17286214D01*
X6055357Y-16986214D02*
X6083928Y-16986214D01*
X6112500Y-17000500D01*
X6126786Y-17014786D01*
X6141071Y-17043357D01*
X6155357Y-17100500D01*
X6155357Y-17171929D01*
X6141071Y-17229072D01*
X6126786Y-17257643D01*
X6112500Y-17271929D01*
X6083928Y-17286214D01*
X6055357Y-17286214D01*
X6026786Y-17271929D01*
X6012500Y-17257643D01*
X5998214Y-17229072D01*
X5983928Y-17171929D01*
X5983928Y-17100500D01*
X5998214Y-17043357D01*
X6012500Y-17014786D01*
X6026786Y-17000500D01*
X6055357Y-16986214D01*
X6283928Y-17286214D02*
X6283928Y-17086214D01*
X6283928Y-17114786D02*
X6298214Y-17100500D01*
X6326786Y-17086214D01*
X6369643Y-17086214D01*
X6398214Y-17100500D01*
X6412500Y-17129072D01*
X6412500Y-17286214D01*
X6412500Y-17129072D02*
X6426786Y-17100500D01*
X6455357Y-17086214D01*
X6498214Y-17086214D01*
X6526786Y-17100500D01*
X6541071Y-17129072D01*
X6541071Y-17286214D01*
X6683928Y-17286214D02*
X6683928Y-17086214D01*
X6683928Y-17114786D02*
X6698214Y-17100500D01*
X6726786Y-17086214D01*
X6769643Y-17086214D01*
X6798214Y-17100500D01*
X6812500Y-17129072D01*
X6812500Y-17286214D01*
X6812500Y-17129072D02*
X6826786Y-17100500D01*
X6855357Y-17086214D01*
X6898214Y-17086214D01*
X6926786Y-17100500D01*
X6941071Y-17129072D01*
X6941071Y-17286214D01*
X7526786Y-16971929D02*
X7269643Y-17357643D01*
X7912500Y-16986214D02*
X7941071Y-16986214D01*
X7969643Y-17000500D01*
X7983928Y-17014786D01*
X7998214Y-17043357D01*
X8012500Y-17100500D01*
X8012500Y-17171929D01*
X7998214Y-17229072D01*
X7983928Y-17257643D01*
X7969643Y-17271929D01*
X7941071Y-17286214D01*
X7912500Y-17286214D01*
X7883928Y-17271929D01*
X7869643Y-17257643D01*
X7855357Y-17229072D01*
X7841071Y-17171929D01*
X7841071Y-17100500D01*
X7855357Y-17043357D01*
X7869643Y-17014786D01*
X7883928Y-17000500D01*
X7912500Y-16986214D01*
X8141071Y-17257643D02*
X8155357Y-17271929D01*
X8141071Y-17286214D01*
X8126786Y-17271929D01*
X8141071Y-17257643D01*
X8141071Y-17286214D01*
X8441071Y-17286214D02*
X8269643Y-17286214D01*
X8355357Y-17286214D02*
X8355357Y-16986214D01*
X8326786Y-17029072D01*
X8298214Y-17057643D01*
X8269643Y-17071929D01*
X8555357Y-17014786D02*
X8569643Y-17000500D01*
X8598214Y-16986214D01*
X8669643Y-16986214D01*
X8698214Y-17000500D01*
X8712500Y-17014786D01*
X8726786Y-17043357D01*
X8726786Y-17071929D01*
X8712500Y-17114786D01*
X8541071Y-17286214D01*
X8726786Y-17286214D01*
X8983928Y-16986214D02*
X8926786Y-16986214D01*
X8898214Y-17000500D01*
X8883928Y-17014786D01*
X8855357Y-17057643D01*
X8841071Y-17114786D01*
X8841071Y-17229072D01*
X8855357Y-17257643D01*
X8869643Y-17271929D01*
X8898214Y-17286214D01*
X8955357Y-17286214D01*
X8983928Y-17271929D01*
X8998214Y-17257643D01*
X9012500Y-17229072D01*
X9012500Y-17157643D01*
X8998214Y-17129072D01*
X8983928Y-17114786D01*
X8955357Y-17100500D01*
X8898214Y-17100500D01*
X8869643Y-17114786D01*
X8855357Y-17129072D01*
X8841071Y-17157643D01*
X9126786Y-16986214D02*
X9126786Y-17043357D01*
X9241071Y-16986214D02*
X9241071Y-17043357D01*
X9683928Y-17400500D02*
X9669643Y-17386214D01*
X9641071Y-17343357D01*
X9626786Y-17314786D01*
X9612500Y-17271929D01*
X9598214Y-17200500D01*
X9598214Y-17143357D01*
X9612500Y-17071929D01*
X9626786Y-17029072D01*
X9641071Y-17000500D01*
X9669643Y-16957643D01*
X9683928Y-16943357D01*
X9955357Y-17286214D02*
X9783928Y-17286214D01*
X9869643Y-17286214D02*
X9869643Y-16986214D01*
X9841071Y-17029072D01*
X9812500Y-17057643D01*
X9783928Y-17071929D01*
X10312500Y-17286214D02*
X10312500Y-16986214D01*
X10441071Y-17286214D02*
X10441071Y-17129072D01*
X10426786Y-17100500D01*
X10398214Y-17086214D01*
X10355357Y-17086214D01*
X10326786Y-17100500D01*
X10312500Y-17114786D01*
X10626786Y-17286214D02*
X10598214Y-17271929D01*
X10583928Y-17257643D01*
X10569643Y-17229072D01*
X10569643Y-17143357D01*
X10583928Y-17114786D01*
X10598214Y-17100500D01*
X10626786Y-17086214D01*
X10669643Y-17086214D01*
X10698214Y-17100500D01*
X10712500Y-17114786D01*
X10726786Y-17143357D01*
X10726786Y-17229072D01*
X10712500Y-17257643D01*
X10698214Y-17271929D01*
X10669643Y-17286214D01*
X10626786Y-17286214D01*
X10898214Y-17286214D02*
X10869643Y-17271929D01*
X10855357Y-17243357D01*
X10855357Y-16986214D01*
X11126786Y-17271929D02*
X11098214Y-17286214D01*
X11041071Y-17286214D01*
X11012500Y-17271929D01*
X10998214Y-17243357D01*
X10998214Y-17129072D01*
X11012500Y-17100500D01*
X11041071Y-17086214D01*
X11098214Y-17086214D01*
X11126786Y-17100500D01*
X11141071Y-17129072D01*
X11141071Y-17157643D01*
X10998214Y-17186214D01*
X11241071Y-17400500D02*
X11255357Y-17386214D01*
X11283928Y-17343357D01*
X11298214Y-17314786D01*
X11312500Y-17271929D01*
X11326786Y-17200500D01*
X11326786Y-17143357D01*
X11312500Y-17071929D01*
X11298214Y-17029072D01*
X11283928Y-17000500D01*
X11255357Y-16957643D01*
X11241071Y-16943357D01*
X11783928Y-17400500D02*
X11769643Y-17386214D01*
X11741071Y-17343357D01*
X11726786Y-17314786D01*
X11712500Y-17271929D01*
X11698214Y-17200500D01*
X11698214Y-17143357D01*
X11712500Y-17071929D01*
X11726786Y-17029072D01*
X11741071Y-17000500D01*
X11769643Y-16957643D01*
X11783928Y-16943357D01*
X11898214Y-17086214D02*
X11898214Y-17286214D01*
X11898214Y-17114786D02*
X11912500Y-17100500D01*
X11941071Y-17086214D01*
X11983928Y-17086214D01*
X12012500Y-17100500D01*
X12026786Y-17129072D01*
X12026786Y-17286214D01*
X12212500Y-17286214D02*
X12183928Y-17271929D01*
X12169643Y-17257643D01*
X12155357Y-17229072D01*
X12155357Y-17143357D01*
X12169643Y-17114786D01*
X12183928Y-17100500D01*
X12212500Y-17086214D01*
X12255357Y-17086214D01*
X12283928Y-17100500D01*
X12298214Y-17114786D01*
X12312500Y-17143357D01*
X12312500Y-17229072D01*
X12298214Y-17257643D01*
X12283928Y-17271929D01*
X12255357Y-17286214D01*
X12212500Y-17286214D01*
X12398214Y-17086214D02*
X12512500Y-17086214D01*
X12441071Y-16986214D02*
X12441071Y-17243357D01*
X12455357Y-17271929D01*
X12483928Y-17286214D01*
X12512500Y-17286214D01*
X12841071Y-17086214D02*
X12841071Y-17386214D01*
X12841071Y-17100500D02*
X12869643Y-17086214D01*
X12926786Y-17086214D01*
X12955357Y-17100500D01*
X12969643Y-17114786D01*
X12983928Y-17143357D01*
X12983928Y-17229072D01*
X12969643Y-17257643D01*
X12955357Y-17271929D01*
X12926786Y-17286214D01*
X12869643Y-17286214D01*
X12841071Y-17271929D01*
X13155357Y-17286214D02*
X13126786Y-17271929D01*
X13112500Y-17243357D01*
X13112500Y-16986214D01*
X13398214Y-17286214D02*
X13398214Y-17129072D01*
X13383928Y-17100500D01*
X13355357Y-17086214D01*
X13298214Y-17086214D01*
X13269643Y-17100500D01*
X13398214Y-17271929D02*
X13369643Y-17286214D01*
X13298214Y-17286214D01*
X13269643Y-17271929D01*
X13255357Y-17243357D01*
X13255357Y-17214786D01*
X13269643Y-17186214D01*
X13298214Y-17171929D01*
X13369643Y-17171929D01*
X13398214Y-17157643D01*
X13498214Y-17086214D02*
X13612500Y-17086214D01*
X13541071Y-16986214D02*
X13541071Y-17243357D01*
X13555357Y-17271929D01*
X13583928Y-17286214D01*
X13612500Y-17286214D01*
X13826786Y-17271929D02*
X13798214Y-17286214D01*
X13741071Y-17286214D01*
X13712500Y-17271929D01*
X13698214Y-17243357D01*
X13698214Y-17129072D01*
X13712500Y-17100500D01*
X13741071Y-17086214D01*
X13798214Y-17086214D01*
X13826786Y-17100500D01*
X13841071Y-17129072D01*
X13841071Y-17157643D01*
X13698214Y-17186214D01*
X14098214Y-17286214D02*
X14098214Y-16986214D01*
X14098214Y-17271929D02*
X14069643Y-17286214D01*
X14012500Y-17286214D01*
X13983928Y-17271929D01*
X13969643Y-17257643D01*
X13955357Y-17229072D01*
X13955357Y-17143357D01*
X13969643Y-17114786D01*
X13983928Y-17100500D01*
X14012500Y-17086214D01*
X14069643Y-17086214D01*
X14098214Y-17100500D01*
X14212500Y-17400500D02*
X14226786Y-17386214D01*
X14255357Y-17343357D01*
X14269643Y-17314786D01*
X14283928Y-17271929D01*
X14298214Y-17200500D01*
X14298214Y-17143357D01*
X14283928Y-17071929D01*
X14269643Y-17029072D01*
X14255357Y-17000500D01*
X14226786Y-16957643D01*
X14212500Y-16943357D01*
M02*
