M48
; DRILL file {KiCad (5.1.8-0-10_14)} date Tuesday, July 20, 2021 at 09:01:26 PM
; FORMAT={-:-/ absolute / metric / decimal}
; #@! TF.CreationDate,2021-07-20T21:01:26-04:00
; #@! TF.GenerationSoftware,Kicad,Pcbnew,(5.1.8-0-10_14)
FMAT,2
METRIC
T1C0.800
T2C1.016
T3C1.200
T4C3.200
%
G90
G05
T1
X65.0Y-130.0
X72.62Y-130.0
X66.0Y-65.0
X66.0Y-67.0
X67.5Y-91.5
X67.5Y-94.0
X59.0Y-72.5
X61.5Y-72.5
X53.5Y-62.38
X53.5Y-70.0
X72.0Y-102.0
X72.0Y-104.5
X60.0Y-126.0
X67.62Y-126.0
X71.5Y-62.38
X71.5Y-70.0
X64.0Y-102.5
X64.0Y-110.12
X65.5Y-75.5
X65.5Y-83.12
X59.5Y-65.0
X59.5Y-67.0
X53.5Y-76.5
X53.5Y-79.04
X53.5Y-81.58
X53.5Y-84.12
X61.12Y-76.5
X61.12Y-79.04
X61.12Y-81.58
X61.12Y-84.12
X71.0Y-119.0
X71.0Y-126.62
X64.0Y-112.5
X64.0Y-115.0
X59.5Y-104.0
X59.5Y-106.5
X64.0Y-72.5
X66.5Y-72.5
X55.5Y-118.5
X55.5Y-126.12
X61.5Y-135.5
X64.0Y-135.5
X67.5Y-97.0
X67.5Y-104.62
X53.5Y-130.0
X61.12Y-130.0
X54.0Y-104.0
X56.0Y-104.0
X72.0Y-90.0
X72.0Y-97.62
T2
X57.41Y-54.995
X57.41Y-57.535
X59.95Y-54.995
X59.95Y-57.535
X62.49Y-54.995
X62.49Y-57.535
X65.03Y-54.995
X65.03Y-57.535
X67.57Y-54.995
X67.57Y-57.535
T3
X55.0Y-92.92
X55.0Y-95.46
X55.0Y-98.0
X70.0Y-76.42
X70.0Y-78.96
X70.0Y-81.5
X56.0Y-142.0
X58.54Y-142.0
X55.5Y-109.92
X55.5Y-112.46
X55.5Y-115.0
X67.0Y-142.0
X69.54Y-142.0
X70.0Y-107.92
X70.0Y-110.46
X70.0Y-113.0
T4
X71.5Y-135.5
T0
M30
