%TF.GenerationSoftware,KiCad,Pcbnew,(5.1.8-0-10_14)*%
%TF.CreationDate,2021-07-20T21:01:28-04:00*%
%TF.ProjectId,fzeq,667a6571-2e6b-4696-9361-645f70636258,rev?*%
%TF.SameCoordinates,Original*%
%TF.FileFunction,Legend,Bot*%
%TF.FilePolarity,Positive*%
%FSLAX46Y46*%
G04 Gerber Fmt 4.6, Leading zero omitted, Abs format (unit mm)*
G04 Created by KiCad (PCBNEW (5.1.8-0-10_14)) date 2021-07-20 21:01:28*
%MOMM*%
%LPD*%
G01*
G04 APERTURE LIST*
%ADD10C,0.150000*%
%ADD11C,0.010000*%
%ADD12C,0.120000*%
G04 APERTURE END LIST*
D10*
X69028556Y-121952380D02*
X68903556Y-120952380D01*
X68522604Y-120952380D01*
X68433318Y-121000000D01*
X68391651Y-121047619D01*
X68355937Y-121142857D01*
X68373794Y-121285714D01*
X68433318Y-121380952D01*
X68486889Y-121428571D01*
X68588080Y-121476190D01*
X68969032Y-121476190D01*
X67445223Y-121857142D02*
X67498794Y-121904761D01*
X67647604Y-121952380D01*
X67742842Y-121952380D01*
X67879747Y-121904761D01*
X67963080Y-121809523D01*
X67998794Y-121714285D01*
X68022604Y-121523809D01*
X68004747Y-121380952D01*
X67933318Y-121190476D01*
X67873794Y-121095238D01*
X67766651Y-121000000D01*
X67617842Y-120952380D01*
X67522604Y-120952380D01*
X67385699Y-121000000D01*
X67344032Y-121047619D01*
X66629747Y-121428571D02*
X66492842Y-121476190D01*
X66451175Y-121523809D01*
X66415461Y-121619047D01*
X66433318Y-121761904D01*
X66492842Y-121857142D01*
X66546413Y-121904761D01*
X66647604Y-121952380D01*
X67028556Y-121952380D01*
X66903556Y-120952380D01*
X66570223Y-120952380D01*
X66480937Y-121000000D01*
X66439270Y-121047619D01*
X66403556Y-121142857D01*
X66415461Y-121238095D01*
X66474985Y-121333333D01*
X66528556Y-121380952D01*
X66629747Y-121428571D01*
X66963080Y-121428571D01*
X65284508Y-120952380D02*
X65076175Y-121952380D01*
X64617842Y-120952380D01*
X64022604Y-121904761D02*
X64123794Y-121952380D01*
X64314270Y-121952380D01*
X64403556Y-121904761D01*
X64439270Y-121809523D01*
X64391651Y-121428571D01*
X64332127Y-121333333D01*
X64230937Y-121285714D01*
X64040461Y-121285714D01*
X63951175Y-121333333D01*
X63915461Y-121428571D01*
X63927366Y-121523809D01*
X64415461Y-121619047D01*
X63552366Y-121952380D02*
X63469032Y-121285714D01*
X63492842Y-121476190D02*
X63433318Y-121380952D01*
X63379747Y-121333333D01*
X63278556Y-121285714D01*
X63183318Y-121285714D01*
X62974985Y-121904761D02*
X62885699Y-121952380D01*
X62695223Y-121952380D01*
X62594032Y-121904761D01*
X62534508Y-121809523D01*
X62528556Y-121761904D01*
X62564270Y-121666666D01*
X62653556Y-121619047D01*
X62796413Y-121619047D01*
X62885699Y-121571428D01*
X62921413Y-121476190D01*
X62915461Y-121428571D01*
X62855937Y-121333333D01*
X62754747Y-121285714D01*
X62611889Y-121285714D01*
X62522604Y-121333333D01*
X62123794Y-121952380D02*
X62040461Y-121285714D01*
X61998794Y-120952380D02*
X62052366Y-121000000D01*
X62010699Y-121047619D01*
X61957127Y-121000000D01*
X61998794Y-120952380D01*
X62010699Y-121047619D01*
X61504747Y-121952380D02*
X61594032Y-121904761D01*
X61635699Y-121857142D01*
X61671413Y-121761904D01*
X61635699Y-121476190D01*
X61576175Y-121380952D01*
X61522604Y-121333333D01*
X61421413Y-121285714D01*
X61278556Y-121285714D01*
X61189270Y-121333333D01*
X61147604Y-121380952D01*
X61111889Y-121476190D01*
X61147604Y-121761904D01*
X61207127Y-121857142D01*
X61260699Y-121904761D01*
X61361889Y-121952380D01*
X61504747Y-121952380D01*
X60659508Y-121285714D02*
X60742842Y-121952380D01*
X60671413Y-121380952D02*
X60617842Y-121333333D01*
X60516651Y-121285714D01*
X60373794Y-121285714D01*
X60284508Y-121333333D01*
X60248794Y-121428571D01*
X60314270Y-121952380D01*
X58760699Y-120952380D02*
X58665461Y-120952380D01*
X58576175Y-121000000D01*
X58534508Y-121047619D01*
X58498794Y-121142857D01*
X58474985Y-121333333D01*
X58504747Y-121571428D01*
X58576175Y-121761904D01*
X58635699Y-121857142D01*
X58689270Y-121904761D01*
X58790461Y-121952380D01*
X58885699Y-121952380D01*
X58974985Y-121904761D01*
X59016651Y-121857142D01*
X59052366Y-121761904D01*
X59076175Y-121571428D01*
X59046413Y-121333333D01*
X58974985Y-121142857D01*
X58915461Y-121047619D01*
X58861889Y-121000000D01*
X58760699Y-120952380D01*
X58111889Y-121857142D02*
X58070223Y-121904761D01*
X58123794Y-121952380D01*
X58165461Y-121904761D01*
X58111889Y-121857142D01*
X58123794Y-121952380D01*
X57123794Y-121952380D02*
X57695223Y-121952380D01*
X57409508Y-121952380D02*
X57284508Y-120952380D01*
X57397604Y-121095238D01*
X57504747Y-121190476D01*
X57605937Y-121238095D01*
D11*
%TO.C,G\u002A\u002A\u002A*%
G36*
X51696233Y-59090635D02*
G01*
X51457488Y-59296061D01*
X51313083Y-59630223D01*
X51264200Y-60086400D01*
X51312024Y-60657871D01*
X51457737Y-61337916D01*
X51558680Y-61687666D01*
X51706361Y-62047376D01*
X51875044Y-62259040D01*
X52054216Y-62316685D01*
X52233362Y-62214334D01*
X52310769Y-62115096D01*
X52464495Y-61800342D01*
X52603847Y-61373041D01*
X52716974Y-60889962D01*
X52792029Y-60407873D01*
X52817162Y-59983541D01*
X52801137Y-59765721D01*
X52675572Y-59395939D01*
X52446066Y-59143908D01*
X52130525Y-59026888D01*
X52028135Y-59020666D01*
X51696233Y-59090635D01*
G37*
X51696233Y-59090635D02*
X51457488Y-59296061D01*
X51313083Y-59630223D01*
X51264200Y-60086400D01*
X51312024Y-60657871D01*
X51457737Y-61337916D01*
X51558680Y-61687666D01*
X51706361Y-62047376D01*
X51875044Y-62259040D01*
X52054216Y-62316685D01*
X52233362Y-62214334D01*
X52310769Y-62115096D01*
X52464495Y-61800342D01*
X52603847Y-61373041D01*
X52716974Y-60889962D01*
X52792029Y-60407873D01*
X52817162Y-59983541D01*
X52801137Y-59765721D01*
X52675572Y-59395939D01*
X52446066Y-59143908D01*
X52130525Y-59026888D01*
X52028135Y-59020666D01*
X51696233Y-59090635D01*
G36*
X51705436Y-62477546D02*
G01*
X51446176Y-62663828D01*
X51289888Y-62929640D01*
X51251366Y-63238443D01*
X51345405Y-63553700D01*
X51503487Y-63764153D01*
X51752507Y-63905144D01*
X52065283Y-63939164D01*
X52376728Y-63869121D01*
X52606484Y-63714893D01*
X52785805Y-63420555D01*
X52823812Y-63106742D01*
X52736713Y-62811733D01*
X52540714Y-62573808D01*
X52252024Y-62431248D01*
X52052873Y-62407333D01*
X51705436Y-62477546D01*
G37*
X51705436Y-62477546D02*
X51446176Y-62663828D01*
X51289888Y-62929640D01*
X51251366Y-63238443D01*
X51345405Y-63553700D01*
X51503487Y-63764153D01*
X51752507Y-63905144D01*
X52065283Y-63939164D01*
X52376728Y-63869121D01*
X52606484Y-63714893D01*
X52785805Y-63420555D01*
X52823812Y-63106742D01*
X52736713Y-62811733D01*
X52540714Y-62573808D01*
X52252024Y-62431248D01*
X52052873Y-62407333D01*
X51705436Y-62477546D01*
G36*
X59460000Y-60036666D02*
G01*
X61576667Y-60036666D01*
X61576667Y-60968000D01*
X59544667Y-60968000D01*
X59544667Y-61899333D01*
X61576667Y-61899333D01*
X61576667Y-63000000D01*
X59460000Y-63000000D01*
X59460000Y-63931333D01*
X63100667Y-63931333D01*
X63100667Y-59105333D01*
X59460000Y-59105333D01*
X59460000Y-60036666D01*
G37*
X59460000Y-60036666D02*
X61576667Y-60036666D01*
X61576667Y-60968000D01*
X59544667Y-60968000D01*
X59544667Y-61899333D01*
X61576667Y-61899333D01*
X61576667Y-63000000D01*
X59460000Y-63000000D01*
X59460000Y-63931333D01*
X63100667Y-63931333D01*
X63100667Y-59105333D01*
X59460000Y-59105333D01*
X59460000Y-60036666D01*
G36*
X64766032Y-60565833D02*
G01*
X65081496Y-61028396D01*
X65380341Y-61464993D01*
X65643732Y-61848229D01*
X65852835Y-62150711D01*
X65988814Y-62345045D01*
X66003048Y-62365000D01*
X66245881Y-62703666D01*
X65011941Y-62727096D01*
X63778000Y-62750526D01*
X63778000Y-63931333D01*
X68782570Y-63931333D01*
X67787306Y-62470833D01*
X67471539Y-62008344D01*
X67172382Y-61571808D01*
X66908683Y-61188607D01*
X66699292Y-60886120D01*
X66563059Y-60691727D01*
X66548722Y-60671666D01*
X66305401Y-60333000D01*
X67412367Y-60309375D01*
X68519334Y-60285751D01*
X68519334Y-59105333D01*
X63771848Y-59105333D01*
X64766032Y-60565833D01*
G37*
X64766032Y-60565833D02*
X65081496Y-61028396D01*
X65380341Y-61464993D01*
X65643732Y-61848229D01*
X65852835Y-62150711D01*
X65988814Y-62345045D01*
X66003048Y-62365000D01*
X66245881Y-62703666D01*
X65011941Y-62727096D01*
X63778000Y-62750526D01*
X63778000Y-63931333D01*
X68782570Y-63931333D01*
X67787306Y-62470833D01*
X67471539Y-62008344D01*
X67172382Y-61571808D01*
X66908683Y-61188607D01*
X66699292Y-60886120D01*
X66563059Y-60691727D01*
X66548722Y-60671666D01*
X66305401Y-60333000D01*
X67412367Y-60309375D01*
X68519334Y-60285751D01*
X68519334Y-59105333D01*
X63771848Y-59105333D01*
X64766032Y-60565833D01*
G36*
X69196667Y-60036666D02*
G01*
X71144000Y-60036666D01*
X71144000Y-61052666D01*
X69196667Y-61052666D01*
X69196667Y-61984000D01*
X71144000Y-61984000D01*
X71144000Y-63931333D01*
X72668000Y-63931333D01*
X72668000Y-59105333D01*
X69196667Y-59105333D01*
X69196667Y-60036666D01*
G37*
X69196667Y-60036666D02*
X71144000Y-60036666D01*
X71144000Y-61052666D01*
X69196667Y-61052666D01*
X69196667Y-61984000D01*
X71144000Y-61984000D01*
X71144000Y-63931333D01*
X72668000Y-63931333D01*
X72668000Y-59105333D01*
X69196667Y-59105333D01*
X69196667Y-60036666D01*
G36*
X55651045Y-59067727D02*
G01*
X55314270Y-59085394D01*
X55064030Y-59121224D01*
X54859014Y-59180441D01*
X54717717Y-59239796D01*
X54203825Y-59569261D01*
X53787231Y-60031022D01*
X53553045Y-60443292D01*
X53445983Y-60705436D01*
X53387782Y-60946090D01*
X53368478Y-61230009D01*
X53376683Y-61589276D01*
X53455072Y-62222764D01*
X53637887Y-62738842D01*
X53936075Y-63161293D01*
X54215290Y-63410990D01*
X54427324Y-63580206D01*
X54575459Y-63714099D01*
X54618259Y-63766713D01*
X54561586Y-63829000D01*
X54384635Y-63906534D01*
X54133977Y-63985644D01*
X53856178Y-64052660D01*
X53597809Y-64093912D01*
X53480630Y-64100666D01*
X53276812Y-64122141D01*
X53159524Y-64174193D01*
X53156970Y-64177831D01*
X53191136Y-64268296D01*
X53324175Y-64440204D01*
X53529886Y-64660849D01*
X53596473Y-64726458D01*
X53871815Y-64978893D01*
X54094945Y-65127311D01*
X54314762Y-65180845D01*
X54580168Y-65148630D01*
X54940062Y-65039798D01*
X55057334Y-64999316D01*
X55709985Y-64754029D01*
X56248719Y-64509054D01*
X56726998Y-64239035D01*
X56909975Y-64120600D01*
X57195159Y-63935304D01*
X57459716Y-63772765D01*
X57622384Y-63681048D01*
X57962564Y-63445834D01*
X58299825Y-63110021D01*
X58576573Y-62733270D01*
X58631808Y-62635400D01*
X58728736Y-62414810D01*
X58786706Y-62172760D01*
X58814674Y-61856501D01*
X58821449Y-61518333D01*
X57272778Y-61518333D01*
X57211142Y-61972926D01*
X57025887Y-62312055D01*
X56716494Y-62536208D01*
X56282442Y-62645874D01*
X56058663Y-62657943D01*
X55745410Y-62644348D01*
X55528266Y-62584344D01*
X55335975Y-62457256D01*
X55319359Y-62443427D01*
X55052935Y-62117590D01*
X54921158Y-61728162D01*
X54925216Y-61315769D01*
X55066294Y-60921039D01*
X55267211Y-60656522D01*
X55451625Y-60491526D01*
X55623934Y-60407493D01*
X55855642Y-60377949D01*
X56026738Y-60375333D01*
X56521484Y-60432942D01*
X56892138Y-60605475D01*
X57138216Y-60892487D01*
X57259236Y-61293535D01*
X57272778Y-61518333D01*
X58821449Y-61518333D01*
X58816672Y-61127101D01*
X58791207Y-60848009D01*
X58734334Y-60624155D01*
X58635329Y-60398640D01*
X58596182Y-60322862D01*
X58293910Y-59872152D01*
X57893758Y-59505636D01*
X57480195Y-59249453D01*
X57307175Y-59167886D01*
X57124835Y-59113900D01*
X56893346Y-59082052D01*
X56572879Y-59066899D01*
X56123603Y-59063000D01*
X56115667Y-59063000D01*
X55651045Y-59067727D01*
G37*
X55651045Y-59067727D02*
X55314270Y-59085394D01*
X55064030Y-59121224D01*
X54859014Y-59180441D01*
X54717717Y-59239796D01*
X54203825Y-59569261D01*
X53787231Y-60031022D01*
X53553045Y-60443292D01*
X53445983Y-60705436D01*
X53387782Y-60946090D01*
X53368478Y-61230009D01*
X53376683Y-61589276D01*
X53455072Y-62222764D01*
X53637887Y-62738842D01*
X53936075Y-63161293D01*
X54215290Y-63410990D01*
X54427324Y-63580206D01*
X54575459Y-63714099D01*
X54618259Y-63766713D01*
X54561586Y-63829000D01*
X54384635Y-63906534D01*
X54133977Y-63985644D01*
X53856178Y-64052660D01*
X53597809Y-64093912D01*
X53480630Y-64100666D01*
X53276812Y-64122141D01*
X53159524Y-64174193D01*
X53156970Y-64177831D01*
X53191136Y-64268296D01*
X53324175Y-64440204D01*
X53529886Y-64660849D01*
X53596473Y-64726458D01*
X53871815Y-64978893D01*
X54094945Y-65127311D01*
X54314762Y-65180845D01*
X54580168Y-65148630D01*
X54940062Y-65039798D01*
X55057334Y-64999316D01*
X55709985Y-64754029D01*
X56248719Y-64509054D01*
X56726998Y-64239035D01*
X56909975Y-64120600D01*
X57195159Y-63935304D01*
X57459716Y-63772765D01*
X57622384Y-63681048D01*
X57962564Y-63445834D01*
X58299825Y-63110021D01*
X58576573Y-62733270D01*
X58631808Y-62635400D01*
X58728736Y-62414810D01*
X58786706Y-62172760D01*
X58814674Y-61856501D01*
X58821449Y-61518333D01*
X57272778Y-61518333D01*
X57211142Y-61972926D01*
X57025887Y-62312055D01*
X56716494Y-62536208D01*
X56282442Y-62645874D01*
X56058663Y-62657943D01*
X55745410Y-62644348D01*
X55528266Y-62584344D01*
X55335975Y-62457256D01*
X55319359Y-62443427D01*
X55052935Y-62117590D01*
X54921158Y-61728162D01*
X54925216Y-61315769D01*
X55066294Y-60921039D01*
X55267211Y-60656522D01*
X55451625Y-60491526D01*
X55623934Y-60407493D01*
X55855642Y-60377949D01*
X56026738Y-60375333D01*
X56521484Y-60432942D01*
X56892138Y-60605475D01*
X57138216Y-60892487D01*
X57259236Y-61293535D01*
X57272778Y-61518333D01*
X58821449Y-61518333D01*
X58816672Y-61127101D01*
X58791207Y-60848009D01*
X58734334Y-60624155D01*
X58635329Y-60398640D01*
X58596182Y-60322862D01*
X58293910Y-59872152D01*
X57893758Y-59505636D01*
X57480195Y-59249453D01*
X57307175Y-59167886D01*
X57124835Y-59113900D01*
X56893346Y-59082052D01*
X56572879Y-59066899D01*
X56123603Y-59063000D01*
X56115667Y-59063000D01*
X55651045Y-59067727D01*
D12*
%TO.C,Fuzz1*%
X57430000Y-92120000D02*
X58030000Y-92120000D01*
X57430000Y-93720000D02*
X57430000Y-92120000D01*
X58030000Y-93720000D02*
X57430000Y-93720000D01*
X57430000Y-94660000D02*
X58030000Y-94660000D01*
X57430000Y-96260000D02*
X57430000Y-94660000D01*
X58030000Y-96260000D02*
X57430000Y-96260000D01*
X57430000Y-97200000D02*
X58030000Y-97200000D01*
X57430000Y-98800000D02*
X57430000Y-97200000D01*
X58030000Y-98800000D02*
X57430000Y-98800000D01*
X52010000Y-93170000D02*
X53010000Y-93170000D01*
X52010000Y-97750000D02*
X53010000Y-97750000D01*
X53540000Y-93170000D02*
X53010000Y-92920000D01*
X53540000Y-97750000D02*
X53540000Y-93170000D01*
X53010000Y-98000000D02*
X53540000Y-97750000D01*
X53010000Y-92920000D02*
X52010000Y-92920000D01*
X53010000Y-98000000D02*
X53010000Y-92920000D01*
X52010000Y-98000000D02*
X53010000Y-98000000D01*
X57000000Y-99670000D02*
X53000000Y-99670000D01*
X58030000Y-91540000D02*
X58030000Y-99380000D01*
X52010000Y-91540000D02*
X58030000Y-91540000D01*
X52010000Y-99380000D02*
X52010000Y-91540000D01*
X58030000Y-99380000D02*
X52010000Y-99380000D01*
%TO.C,High1*%
X72430000Y-107120000D02*
X73030000Y-107120000D01*
X72430000Y-108720000D02*
X72430000Y-107120000D01*
X73030000Y-108720000D02*
X72430000Y-108720000D01*
X72430000Y-109660000D02*
X73030000Y-109660000D01*
X72430000Y-111260000D02*
X72430000Y-109660000D01*
X73030000Y-111260000D02*
X72430000Y-111260000D01*
X72430000Y-112200000D02*
X73030000Y-112200000D01*
X72430000Y-113800000D02*
X72430000Y-112200000D01*
X73030000Y-113800000D02*
X72430000Y-113800000D01*
X67010000Y-108170000D02*
X68010000Y-108170000D01*
X67010000Y-112750000D02*
X68010000Y-112750000D01*
X68540000Y-108170000D02*
X68010000Y-107920000D01*
X68540000Y-112750000D02*
X68540000Y-108170000D01*
X68010000Y-113000000D02*
X68540000Y-112750000D01*
X68010000Y-107920000D02*
X67010000Y-107920000D01*
X68010000Y-113000000D02*
X68010000Y-107920000D01*
X67010000Y-113000000D02*
X68010000Y-113000000D01*
X72000000Y-114670000D02*
X68000000Y-114670000D01*
X73030000Y-106540000D02*
X73030000Y-114380000D01*
X67010000Y-106540000D02*
X73030000Y-106540000D01*
X67010000Y-114380000D02*
X67010000Y-106540000D01*
X73030000Y-114380000D02*
X67010000Y-114380000D01*
%TO.C,J2*%
X65620000Y-145030000D02*
X65620000Y-139010000D01*
X65620000Y-139010000D02*
X70920000Y-139010000D01*
X70920000Y-139010000D02*
X70920000Y-145030000D01*
X70920000Y-145030000D02*
X65620000Y-145030000D01*
X65330000Y-144000000D02*
X65330000Y-140000000D01*
X67000000Y-139010000D02*
X67000000Y-140010000D01*
X67000000Y-140010000D02*
X69540000Y-140010000D01*
X69540000Y-140010000D02*
X69540000Y-139010000D01*
X67000000Y-140010000D02*
X67250000Y-140540000D01*
X67250000Y-140540000D02*
X69290000Y-140540000D01*
X69290000Y-140540000D02*
X69540000Y-140010000D01*
X67250000Y-139010000D02*
X67250000Y-140010000D01*
X69290000Y-139010000D02*
X69290000Y-140010000D01*
X66200000Y-145030000D02*
X66200000Y-144430000D01*
X66200000Y-144430000D02*
X67800000Y-144430000D01*
X67800000Y-144430000D02*
X67800000Y-145030000D01*
X68740000Y-145030000D02*
X68740000Y-144430000D01*
X68740000Y-144430000D02*
X70340000Y-144430000D01*
X70340000Y-144430000D02*
X70340000Y-145030000D01*
%TO.C,J3*%
X59340000Y-144430000D02*
X59340000Y-145030000D01*
X57740000Y-144430000D02*
X59340000Y-144430000D01*
X57740000Y-145030000D02*
X57740000Y-144430000D01*
X56800000Y-144430000D02*
X56800000Y-145030000D01*
X55200000Y-144430000D02*
X56800000Y-144430000D01*
X55200000Y-145030000D02*
X55200000Y-144430000D01*
X58290000Y-139010000D02*
X58290000Y-140010000D01*
X56250000Y-139010000D02*
X56250000Y-140010000D01*
X58290000Y-140540000D02*
X58540000Y-140010000D01*
X56250000Y-140540000D02*
X58290000Y-140540000D01*
X56000000Y-140010000D02*
X56250000Y-140540000D01*
X58540000Y-140010000D02*
X58540000Y-139010000D01*
X56000000Y-140010000D02*
X58540000Y-140010000D01*
X56000000Y-139010000D02*
X56000000Y-140010000D01*
X54330000Y-144000000D02*
X54330000Y-140000000D01*
X59920000Y-145030000D02*
X54620000Y-145030000D01*
X59920000Y-139010000D02*
X59920000Y-145030000D01*
X54620000Y-139010000D02*
X59920000Y-139010000D01*
X54620000Y-145030000D02*
X54620000Y-139010000D01*
%TO.C,Low1*%
X73030000Y-82880000D02*
X67010000Y-82880000D01*
X67010000Y-82880000D02*
X67010000Y-75040000D01*
X67010000Y-75040000D02*
X73030000Y-75040000D01*
X73030000Y-75040000D02*
X73030000Y-82880000D01*
X72000000Y-83170000D02*
X68000000Y-83170000D01*
X67010000Y-81500000D02*
X68010000Y-81500000D01*
X68010000Y-81500000D02*
X68010000Y-76420000D01*
X68010000Y-76420000D02*
X67010000Y-76420000D01*
X68010000Y-81500000D02*
X68540000Y-81250000D01*
X68540000Y-81250000D02*
X68540000Y-76670000D01*
X68540000Y-76670000D02*
X68010000Y-76420000D01*
X67010000Y-81250000D02*
X68010000Y-81250000D01*
X67010000Y-76670000D02*
X68010000Y-76670000D01*
X73030000Y-82300000D02*
X72430000Y-82300000D01*
X72430000Y-82300000D02*
X72430000Y-80700000D01*
X72430000Y-80700000D02*
X73030000Y-80700000D01*
X73030000Y-79760000D02*
X72430000Y-79760000D01*
X72430000Y-79760000D02*
X72430000Y-78160000D01*
X72430000Y-78160000D02*
X73030000Y-78160000D01*
X73030000Y-77220000D02*
X72430000Y-77220000D01*
X72430000Y-77220000D02*
X72430000Y-75620000D01*
X72430000Y-75620000D02*
X73030000Y-75620000D01*
%TO.C,Mid1*%
X58530000Y-116380000D02*
X52510000Y-116380000D01*
X52510000Y-116380000D02*
X52510000Y-108540000D01*
X52510000Y-108540000D02*
X58530000Y-108540000D01*
X58530000Y-108540000D02*
X58530000Y-116380000D01*
X57500000Y-116670000D02*
X53500000Y-116670000D01*
X52510000Y-115000000D02*
X53510000Y-115000000D01*
X53510000Y-115000000D02*
X53510000Y-109920000D01*
X53510000Y-109920000D02*
X52510000Y-109920000D01*
X53510000Y-115000000D02*
X54040000Y-114750000D01*
X54040000Y-114750000D02*
X54040000Y-110170000D01*
X54040000Y-110170000D02*
X53510000Y-109920000D01*
X52510000Y-114750000D02*
X53510000Y-114750000D01*
X52510000Y-110170000D02*
X53510000Y-110170000D01*
X58530000Y-115800000D02*
X57930000Y-115800000D01*
X57930000Y-115800000D02*
X57930000Y-114200000D01*
X57930000Y-114200000D02*
X58530000Y-114200000D01*
X58530000Y-113260000D02*
X57930000Y-113260000D01*
X57930000Y-113260000D02*
X57930000Y-111660000D01*
X57930000Y-111660000D02*
X58530000Y-111660000D01*
X58530000Y-110720000D02*
X57930000Y-110720000D01*
X57930000Y-110720000D02*
X57930000Y-109120000D01*
X57930000Y-109120000D02*
X58530000Y-109120000D01*
%TO.C,Fuzz1*%
D10*
X59066428Y-94263571D02*
X59066428Y-94013571D01*
X59459285Y-94013571D02*
X58709285Y-94013571D01*
X58709285Y-94370714D01*
X58959285Y-94977857D02*
X59459285Y-94977857D01*
X58959285Y-94656428D02*
X59352142Y-94656428D01*
X59423571Y-94692142D01*
X59459285Y-94763571D01*
X59459285Y-94870714D01*
X59423571Y-94942142D01*
X59387857Y-94977857D01*
X58959285Y-95263571D02*
X58959285Y-95656428D01*
X59459285Y-95263571D01*
X59459285Y-95656428D01*
X58959285Y-95870714D02*
X58959285Y-96263571D01*
X59459285Y-95870714D01*
X59459285Y-96263571D01*
X59459285Y-96942142D02*
X59459285Y-96513571D01*
X59459285Y-96727857D02*
X58709285Y-96727857D01*
X58816428Y-96656428D01*
X58887857Y-96585000D01*
X58923571Y-96513571D01*
%TO.C,High1*%
X74459285Y-109031428D02*
X73709285Y-109031428D01*
X74066428Y-109031428D02*
X74066428Y-109460000D01*
X74459285Y-109460000D02*
X73709285Y-109460000D01*
X74459285Y-109817142D02*
X73959285Y-109817142D01*
X73709285Y-109817142D02*
X73745000Y-109781428D01*
X73780714Y-109817142D01*
X73745000Y-109852857D01*
X73709285Y-109817142D01*
X73780714Y-109817142D01*
X73959285Y-110495714D02*
X74566428Y-110495714D01*
X74637857Y-110460000D01*
X74673571Y-110424285D01*
X74709285Y-110352857D01*
X74709285Y-110245714D01*
X74673571Y-110174285D01*
X74423571Y-110495714D02*
X74459285Y-110424285D01*
X74459285Y-110281428D01*
X74423571Y-110210000D01*
X74387857Y-110174285D01*
X74316428Y-110138571D01*
X74102142Y-110138571D01*
X74030714Y-110174285D01*
X73995000Y-110210000D01*
X73959285Y-110281428D01*
X73959285Y-110424285D01*
X73995000Y-110495714D01*
X74459285Y-110852857D02*
X73709285Y-110852857D01*
X74459285Y-111174285D02*
X74066428Y-111174285D01*
X73995000Y-111138571D01*
X73959285Y-111067142D01*
X73959285Y-110960000D01*
X73995000Y-110888571D01*
X74030714Y-110852857D01*
X74459285Y-111924285D02*
X74459285Y-111495714D01*
X74459285Y-111710000D02*
X73709285Y-111710000D01*
X73816428Y-111638571D01*
X73887857Y-111567142D01*
X73923571Y-111495714D01*
%TO.C,J2*%
X68520000Y-145709285D02*
X68520000Y-146245000D01*
X68555714Y-146352142D01*
X68627142Y-146423571D01*
X68734285Y-146459285D01*
X68805714Y-146459285D01*
X68198571Y-145780714D02*
X68162857Y-145745000D01*
X68091428Y-145709285D01*
X67912857Y-145709285D01*
X67841428Y-145745000D01*
X67805714Y-145780714D01*
X67770000Y-145852142D01*
X67770000Y-145923571D01*
X67805714Y-146030714D01*
X68234285Y-146459285D01*
X67770000Y-146459285D01*
%TO.C,J3*%
X57520000Y-145709285D02*
X57520000Y-146245000D01*
X57555714Y-146352142D01*
X57627142Y-146423571D01*
X57734285Y-146459285D01*
X57805714Y-146459285D01*
X57234285Y-145709285D02*
X56770000Y-145709285D01*
X57020000Y-145995000D01*
X56912857Y-145995000D01*
X56841428Y-146030714D01*
X56805714Y-146066428D01*
X56770000Y-146137857D01*
X56770000Y-146316428D01*
X56805714Y-146387857D01*
X56841428Y-146423571D01*
X56912857Y-146459285D01*
X57127142Y-146459285D01*
X57198571Y-146423571D01*
X57234285Y-146387857D01*
%TO.C,Low1*%
X74459285Y-78102857D02*
X74459285Y-77745714D01*
X73709285Y-77745714D01*
X74459285Y-78460000D02*
X74423571Y-78388571D01*
X74387857Y-78352857D01*
X74316428Y-78317142D01*
X74102142Y-78317142D01*
X74030714Y-78352857D01*
X73995000Y-78388571D01*
X73959285Y-78460000D01*
X73959285Y-78567142D01*
X73995000Y-78638571D01*
X74030714Y-78674285D01*
X74102142Y-78710000D01*
X74316428Y-78710000D01*
X74387857Y-78674285D01*
X74423571Y-78638571D01*
X74459285Y-78567142D01*
X74459285Y-78460000D01*
X73959285Y-78960000D02*
X74459285Y-79102857D01*
X74102142Y-79245714D01*
X74459285Y-79388571D01*
X73959285Y-79531428D01*
X74459285Y-80210000D02*
X74459285Y-79781428D01*
X74459285Y-79995714D02*
X73709285Y-79995714D01*
X73816428Y-79924285D01*
X73887857Y-79852857D01*
X73923571Y-79781428D01*
%TO.C,Mid1*%
X59959285Y-111335000D02*
X59209285Y-111335000D01*
X59745000Y-111585000D01*
X59209285Y-111835000D01*
X59959285Y-111835000D01*
X59959285Y-112192142D02*
X59459285Y-112192142D01*
X59209285Y-112192142D02*
X59245000Y-112156428D01*
X59280714Y-112192142D01*
X59245000Y-112227857D01*
X59209285Y-112192142D01*
X59280714Y-112192142D01*
X59959285Y-112870714D02*
X59209285Y-112870714D01*
X59923571Y-112870714D02*
X59959285Y-112799285D01*
X59959285Y-112656428D01*
X59923571Y-112585000D01*
X59887857Y-112549285D01*
X59816428Y-112513571D01*
X59602142Y-112513571D01*
X59530714Y-112549285D01*
X59495000Y-112585000D01*
X59459285Y-112656428D01*
X59459285Y-112799285D01*
X59495000Y-112870714D01*
X59959285Y-113620714D02*
X59959285Y-113192142D01*
X59959285Y-113406428D02*
X59209285Y-113406428D01*
X59316428Y-113335000D01*
X59387857Y-113263571D01*
X59423571Y-113192142D01*
%TD*%
M02*
