%TF.GenerationSoftware,KiCad,Pcbnew,(5.1.8-0-10_14)*%
%TF.CreationDate,2021-07-20T21:01:28-04:00*%
%TF.ProjectId,fzeq,667a6571-2e6b-4696-9361-645f70636258,rev?*%
%TF.SameCoordinates,Original*%
%TF.FileFunction,Copper,L1,Top*%
%TF.FilePolarity,Positive*%
%FSLAX46Y46*%
G04 Gerber Fmt 4.6, Leading zero omitted, Abs format (unit mm)*
G04 Created by KiCad (PCBNEW (5.1.8-0-10_14)) date 2021-07-20 21:01:28*
%MOMM*%
%LPD*%
G01*
G04 APERTURE LIST*
%TA.AperFunction,ComponentPad*%
%ADD10C,1.600000*%
%TD*%
%TA.AperFunction,ComponentPad*%
%ADD11O,1.600000X1.600000*%
%TD*%
%TA.AperFunction,ComponentPad*%
%ADD12R,1.600000X1.600000*%
%TD*%
%TA.AperFunction,ComponentPad*%
%ADD13O,2.200000X1.740000*%
%TD*%
%TA.AperFunction,ComponentPad*%
%ADD14R,1.727200X1.727200*%
%TD*%
%TA.AperFunction,ComponentPad*%
%ADD15O,1.727200X1.727200*%
%TD*%
%TA.AperFunction,ComponentPad*%
%ADD16O,1.740000X2.200000*%
%TD*%
%TA.AperFunction,ComponentPad*%
%ADD17R,2.400000X1.600000*%
%TD*%
%TA.AperFunction,ComponentPad*%
%ADD18O,2.400000X1.600000*%
%TD*%
%TA.AperFunction,Conductor*%
%ADD19C,0.250000*%
%TD*%
G04 APERTURE END LIST*
D10*
%TO.P,FB2,1*%
%TO.N,Net-(C2-Pad1)*%
X71500000Y-70000000D03*
D11*
%TO.P,FB2,2*%
%TO.N,Net-(FB2-Pad2)*%
X71500000Y-62380000D03*
%TD*%
D12*
%TO.P,C8,1*%
%TO.N,Net-(C8-Pad1)*%
X54000000Y-104000000D03*
D10*
%TO.P,C8,2*%
%TO.N,Net-(C8-Pad2)*%
X56000000Y-104000000D03*
%TD*%
%TO.P,C1,1*%
%TO.N,Net-(C1-Pad1)*%
X61500000Y-135500000D03*
%TO.P,C1,2*%
%TO.N,Net-(C1-Pad2)*%
X64000000Y-135500000D03*
%TD*%
%TO.P,C2,2*%
%TO.N,GND*%
X59500000Y-65000000D03*
D12*
%TO.P,C2,1*%
%TO.N,Net-(C2-Pad1)*%
X59500000Y-67000000D03*
%TD*%
%TO.P,C3,1*%
%TO.N,GND*%
X66000000Y-67000000D03*
D10*
%TO.P,C3,2*%
%TO.N,Net-(C10-Pad2)*%
X66000000Y-65000000D03*
%TD*%
%TO.P,C4,2*%
%TO.N,Net-(C4-Pad2)*%
X72000000Y-104500000D03*
%TO.P,C4,1*%
%TO.N,Net-(C4-Pad1)*%
X72000000Y-102000000D03*
%TD*%
%TO.P,C5,2*%
%TO.N,Net-(C5-Pad2)*%
X64000000Y-115000000D03*
%TO.P,C5,1*%
%TO.N,Net-(C5-Pad1)*%
X64000000Y-112500000D03*
%TD*%
%TO.P,C6,1*%
%TO.N,Net-(C6-Pad1)*%
X59500000Y-104000000D03*
%TO.P,C6,2*%
%TO.N,Net-(C6-Pad2)*%
X59500000Y-106500000D03*
%TD*%
%TO.P,C7,1*%
%TO.N,Net-(C6-Pad1)*%
X67500000Y-91500000D03*
%TO.P,C7,2*%
%TO.N,Net-(C7-Pad2)*%
X67500000Y-94000000D03*
%TD*%
%TO.P,C9,1*%
%TO.N,GND*%
X59000000Y-72500000D03*
%TO.P,C9,2*%
%TO.N,Net-(C2-Pad1)*%
X61500000Y-72500000D03*
%TD*%
%TO.P,C10,2*%
%TO.N,Net-(C10-Pad2)*%
X66500000Y-72500000D03*
%TO.P,C10,1*%
%TO.N,GND*%
X64000000Y-72500000D03*
%TD*%
D11*
%TO.P,FB1,2*%
%TO.N,Net-(FB1-Pad2)*%
X53500000Y-62380000D03*
D10*
%TO.P,FB1,1*%
%TO.N,Net-(C10-Pad2)*%
X53500000Y-70000000D03*
%TD*%
D13*
%TO.P,Fuzz1,3*%
%TO.N,Net-(Fuzz1-Pad2)*%
X55000000Y-92920000D03*
%TO.P,Fuzz1,2*%
X55000000Y-95460000D03*
%TO.P,Fuzz1,1*%
%TO.N,Net-(C8-Pad1)*%
%TA.AperFunction,ComponentPad*%
G36*
G01*
X55850001Y-98870000D02*
X54149999Y-98870000D01*
G75*
G02*
X53900000Y-98620001I0J249999D01*
G01*
X53900000Y-97379999D01*
G75*
G02*
X54149999Y-97130000I249999J0D01*
G01*
X55850001Y-97130000D01*
G75*
G02*
X56100000Y-97379999I0J-249999D01*
G01*
X56100000Y-98620001D01*
G75*
G02*
X55850001Y-98870000I-249999J0D01*
G01*
G37*
%TD.AperFunction*%
%TD*%
%TO.P,High1,3*%
%TO.N,Net-(High1-Pad3)*%
X70000000Y-107920000D03*
%TO.P,High1,2*%
%TO.N,Net-(C7-Pad2)*%
X70000000Y-110460000D03*
%TO.P,High1,1*%
%TO.N,Net-(High1-Pad1)*%
%TA.AperFunction,ComponentPad*%
G36*
G01*
X70850001Y-113870000D02*
X69149999Y-113870000D01*
G75*
G02*
X68900000Y-113620001I0J249999D01*
G01*
X68900000Y-112379999D01*
G75*
G02*
X69149999Y-112130000I249999J0D01*
G01*
X70850001Y-112130000D01*
G75*
G02*
X71100000Y-112379999I0J-249999D01*
G01*
X71100000Y-113620001D01*
G75*
G02*
X70850001Y-113870000I-249999J0D01*
G01*
G37*
%TD.AperFunction*%
%TD*%
D14*
%TO.P,J1,1*%
%TO.N,Net-(FB1-Pad2)*%
X57410001Y-57534999D03*
D15*
%TO.P,J1,2*%
X57410001Y-54994999D03*
%TO.P,J1,3*%
%TO.N,GND*%
X59950001Y-57534999D03*
%TO.P,J1,4*%
X59950001Y-54994999D03*
%TO.P,J1,5*%
X62490001Y-57534999D03*
%TO.P,J1,6*%
X62490001Y-54994999D03*
%TO.P,J1,7*%
X65030001Y-57534999D03*
%TO.P,J1,8*%
X65030001Y-54994999D03*
%TO.P,J1,9*%
%TO.N,Net-(FB2-Pad2)*%
X67570001Y-57534999D03*
%TO.P,J1,10*%
X67570001Y-54994999D03*
%TD*%
%TO.P,J2,1*%
%TO.N,Net-(C1-Pad2)*%
%TA.AperFunction,ComponentPad*%
G36*
G01*
X66130000Y-142850001D02*
X66130000Y-141149999D01*
G75*
G02*
X66379999Y-140900000I249999J0D01*
G01*
X67620001Y-140900000D01*
G75*
G02*
X67870000Y-141149999I0J-249999D01*
G01*
X67870000Y-142850001D01*
G75*
G02*
X67620001Y-143100000I-249999J0D01*
G01*
X66379999Y-143100000D01*
G75*
G02*
X66130000Y-142850001I0J249999D01*
G01*
G37*
%TD.AperFunction*%
D16*
%TO.P,J2,2*%
%TO.N,GND*%
X69540000Y-142000000D03*
%TD*%
%TO.P,J3,2*%
%TO.N,GND*%
X58540000Y-142000000D03*
%TO.P,J3,1*%
%TO.N,Net-(C8-Pad2)*%
%TA.AperFunction,ComponentPad*%
G36*
G01*
X55130000Y-142850001D02*
X55130000Y-141149999D01*
G75*
G02*
X55379999Y-140900000I249999J0D01*
G01*
X56620001Y-140900000D01*
G75*
G02*
X56870000Y-141149999I0J-249999D01*
G01*
X56870000Y-142850001D01*
G75*
G02*
X56620001Y-143100000I-249999J0D01*
G01*
X55379999Y-143100000D01*
G75*
G02*
X55130000Y-142850001I0J249999D01*
G01*
G37*
%TD.AperFunction*%
%TD*%
%TO.P,Low1,1*%
%TO.N,Net-(C4-Pad2)*%
%TA.AperFunction,ComponentPad*%
G36*
G01*
X70850001Y-82370000D02*
X69149999Y-82370000D01*
G75*
G02*
X68900000Y-82120001I0J249999D01*
G01*
X68900000Y-80879999D01*
G75*
G02*
X69149999Y-80630000I249999J0D01*
G01*
X70850001Y-80630000D01*
G75*
G02*
X71100000Y-80879999I0J-249999D01*
G01*
X71100000Y-82120001D01*
G75*
G02*
X70850001Y-82370000I-249999J0D01*
G01*
G37*
%TD.AperFunction*%
D13*
%TO.P,Low1,2*%
%TO.N,Net-(Low1-Pad2)*%
X70000000Y-78960000D03*
%TO.P,Low1,3*%
%TO.N,Net-(C4-Pad1)*%
X70000000Y-76420000D03*
%TD*%
%TO.P,Mid1,1*%
%TO.N,Net-(C5-Pad2)*%
%TA.AperFunction,ComponentPad*%
G36*
G01*
X56350001Y-115870000D02*
X54649999Y-115870000D01*
G75*
G02*
X54400000Y-115620001I0J249999D01*
G01*
X54400000Y-114379999D01*
G75*
G02*
X54649999Y-114130000I249999J0D01*
G01*
X56350001Y-114130000D01*
G75*
G02*
X56600000Y-114379999I0J-249999D01*
G01*
X56600000Y-115620001D01*
G75*
G02*
X56350001Y-115870000I-249999J0D01*
G01*
G37*
%TD.AperFunction*%
%TO.P,Mid1,2*%
%TO.N,Net-(C6-Pad2)*%
X55500000Y-112460000D03*
%TO.P,Mid1,3*%
%TO.N,Net-(C5-Pad1)*%
X55500000Y-109920000D03*
%TD*%
D10*
%TO.P,R1,1*%
%TO.N,Net-(R1-Pad1)*%
X53500000Y-130000000D03*
D11*
%TO.P,R1,2*%
%TO.N,Net-(C1-Pad1)*%
X61120000Y-130000000D03*
%TD*%
%TO.P,R2,2*%
%TO.N,Net-(R1-Pad1)*%
X72620000Y-130000000D03*
D10*
%TO.P,R2,1*%
%TO.N,Net-(R2-Pad1)*%
X65000000Y-130000000D03*
%TD*%
D11*
%TO.P,R3,2*%
%TO.N,Net-(R2-Pad1)*%
X67620000Y-126000000D03*
D10*
%TO.P,R3,1*%
%TO.N,Net-(C4-Pad2)*%
X60000000Y-126000000D03*
%TD*%
%TO.P,R4,1*%
%TO.N,Net-(C5-Pad2)*%
X65500000Y-75500000D03*
D11*
%TO.P,R4,2*%
%TO.N,Net-(R2-Pad1)*%
X65500000Y-83120000D03*
%TD*%
D10*
%TO.P,R5,1*%
%TO.N,Net-(High1-Pad1)*%
X71000000Y-119000000D03*
D11*
%TO.P,R5,2*%
%TO.N,Net-(R2-Pad1)*%
X71000000Y-126620000D03*
%TD*%
%TO.P,R6,2*%
%TO.N,Net-(High1-Pad3)*%
X55500000Y-126120000D03*
D10*
%TO.P,R6,1*%
%TO.N,Net-(Fuzz1-Pad2)*%
X55500000Y-118500000D03*
%TD*%
%TO.P,R7,1*%
%TO.N,Net-(Fuzz1-Pad2)*%
X67500000Y-97000000D03*
D11*
%TO.P,R7,2*%
%TO.N,Net-(C4-Pad1)*%
X67500000Y-104620000D03*
%TD*%
%TO.P,R8,2*%
%TO.N,Net-(Low1-Pad2)*%
X72000000Y-97620000D03*
D10*
%TO.P,R8,1*%
%TO.N,Net-(C6-Pad1)*%
X72000000Y-90000000D03*
%TD*%
%TO.P,R9,1*%
%TO.N,Net-(Fuzz1-Pad2)*%
X64000000Y-102500000D03*
D11*
%TO.P,R9,2*%
%TO.N,Net-(C5-Pad1)*%
X64000000Y-110120000D03*
%TD*%
D17*
%TO.P,U1,1*%
%TO.N,Net-(R2-Pad1)*%
X53500000Y-76500000D03*
D18*
%TO.P,U1,5*%
%TO.N,GND*%
X61120000Y-84120000D03*
%TO.P,U1,2*%
%TO.N,Net-(R1-Pad1)*%
X53500000Y-79040000D03*
%TO.P,U1,6*%
%TO.N,Net-(C6-Pad1)*%
X61120000Y-81580000D03*
%TO.P,U1,3*%
%TO.N,GND*%
X53500000Y-81580000D03*
%TO.P,U1,7*%
%TO.N,Net-(C8-Pad1)*%
X61120000Y-79040000D03*
%TO.P,U1,4*%
%TO.N,Net-(C10-Pad2)*%
X53500000Y-84120000D03*
%TO.P,U1,8*%
%TO.N,Net-(C2-Pad1)*%
X61120000Y-76500000D03*
%TD*%
D19*
%TO.N,Net-(C1-Pad1)*%
X61500000Y-130380000D02*
X61120000Y-130000000D01*
X61500000Y-135500000D02*
X61500000Y-130380000D01*
%TO.N,Net-(C1-Pad2)*%
X67000000Y-138500000D02*
X64000000Y-135500000D01*
X67000000Y-142000000D02*
X67000000Y-138500000D01*
%TO.N,GND*%
X58540000Y-142000000D02*
X58540000Y-129125002D01*
X62570000Y-125095002D02*
X62570000Y-85170000D01*
X58540000Y-129125002D02*
X62570000Y-125095002D01*
X62570000Y-85170000D02*
X61520000Y-84120000D01*
X61520000Y-84120000D02*
X61120000Y-84120000D01*
X59000000Y-76080000D02*
X59000000Y-72500000D01*
X53500000Y-81580000D02*
X59000000Y-76080000D01*
X59500000Y-57985000D02*
X59950001Y-57534999D01*
X59500000Y-65000000D02*
X59500000Y-57985000D01*
X66000000Y-70500000D02*
X64000000Y-72500000D01*
X66000000Y-67000000D02*
X66000000Y-70500000D01*
%TO.N,Net-(C2-Pad1)*%
X59500000Y-70500000D02*
X61500000Y-72500000D01*
X59500000Y-67000000D02*
X59500000Y-70500000D01*
X61500000Y-76120000D02*
X61120000Y-76500000D01*
X61500000Y-72500000D02*
X61500000Y-76120000D01*
%TO.N,Net-(C4-Pad2)*%
X72000000Y-104500000D02*
X72000000Y-105000000D01*
X72000000Y-104500000D02*
X73575012Y-102924988D01*
X73575012Y-85075012D02*
X70000000Y-81500000D01*
X73575012Y-102924988D02*
X73575012Y-85075012D01*
%TO.N,Net-(C4-Pad1)*%
X68574990Y-82358180D02*
X68574990Y-77845010D01*
X73125001Y-86908191D02*
X68574990Y-82358180D01*
X73125001Y-100874999D02*
X73125001Y-86908191D01*
X72000000Y-102000000D02*
X73125001Y-100874999D01*
X68574990Y-77845010D02*
X70000000Y-76420000D01*
%TO.N,Net-(C5-Pad1)*%
X64000000Y-110120000D02*
X64000000Y-112500000D01*
%TO.N,Net-(C6-Pad1)*%
X70500000Y-91500000D02*
X72000000Y-90000000D01*
X67500000Y-91500000D02*
X70500000Y-91500000D01*
%TO.N,Net-(C7-Pad2)*%
X70000000Y-110460000D02*
X66000000Y-106460000D01*
X66000000Y-95500000D02*
X67500000Y-94000000D01*
X66000000Y-106460000D02*
X66000000Y-95500000D01*
%TO.N,Net-(C8-Pad1)*%
X59594990Y-93405010D02*
X55000000Y-98000000D01*
X59594990Y-80565010D02*
X59594990Y-93405010D01*
X61120000Y-79040000D02*
X59594990Y-80565010D01*
X55000000Y-103000000D02*
X54000000Y-104000000D01*
X55000000Y-98000000D02*
X55000000Y-103000000D01*
%TO.N,Net-(C8-Pad2)*%
X56000000Y-128334998D02*
X61000000Y-123334998D01*
X56000000Y-142000000D02*
X56000000Y-128334998D01*
X61000000Y-123334998D02*
X61000000Y-116500000D01*
X58374999Y-106374999D02*
X56000000Y-104000000D01*
X58374999Y-113874999D02*
X58374999Y-106374999D01*
X61000000Y-116500000D02*
X58374999Y-113874999D01*
%TO.N,Net-(FB1-Pad2)*%
X57410001Y-58469999D02*
X57410001Y-57534999D01*
X53500000Y-62380000D02*
X57410001Y-58469999D01*
X57410001Y-54994999D02*
X57410001Y-57534999D01*
%TO.N,Net-(FB2-Pad2)*%
X67570001Y-54994999D02*
X67570001Y-57534999D01*
X71500000Y-61464998D02*
X71500000Y-62380000D01*
X67570001Y-57534999D02*
X71500000Y-61464998D01*
%TO.N,Net-(R2-Pad1)*%
X65000000Y-128620000D02*
X67620000Y-126000000D01*
X65000000Y-130000000D02*
X65000000Y-128620000D01*
X67620000Y-126000000D02*
X67620000Y-121620000D01*
X65125001Y-119125001D02*
X65125001Y-83494999D01*
X65125001Y-83494999D02*
X65500000Y-83120000D01*
X67620000Y-121620000D02*
X65125001Y-119125001D01*
%TO.N,Net-(Fuzz1-Pad2)*%
X55000000Y-92920000D02*
X55000000Y-95460000D01*
X55000000Y-95460000D02*
X55000000Y-95500000D01*
%TO.N,Net-(High1-Pad1)*%
X71000000Y-114000000D02*
X70000000Y-113000000D01*
X71000000Y-119000000D02*
X71000000Y-114000000D01*
%TO.N,Net-(C10-Pad2)*%
X51974990Y-82594990D02*
X53500000Y-84120000D01*
X51974990Y-71525010D02*
X51974990Y-82594990D01*
X51974990Y-71525010D02*
X53500000Y-70000000D01*
%TD*%
M02*
