%TF.GenerationSoftware,KiCad,Pcbnew,(5.1.8-0-10_14)*%
%TF.CreationDate,2021-07-20T21:01:28-04:00*%
%TF.ProjectId,fzeq,667a6571-2e6b-4696-9361-645f70636258,rev?*%
%TF.SameCoordinates,Original*%
%TF.FileFunction,Legend,Top*%
%TF.FilePolarity,Positive*%
%FSLAX46Y46*%
G04 Gerber Fmt 4.6, Leading zero omitted, Abs format (unit mm)*
G04 Created by KiCad (PCBNEW (5.1.8-0-10_14)) date 2021-07-20 21:01:28*
%MOMM*%
%LPD*%
G01*
G04 APERTURE LIST*
%ADD10C,0.125000*%
%ADD11C,0.250000*%
%ADD12C,0.625000*%
%ADD13C,0.120000*%
%ADD14C,0.150000*%
G04 APERTURE END LIST*
D10*
X58825297Y-93514880D02*
X58950297Y-92514880D01*
X59313392Y-93419642D02*
X59355059Y-93467261D01*
X59301488Y-93514880D01*
X59259821Y-93467261D01*
X59313392Y-93419642D01*
X59301488Y-93514880D01*
X59789583Y-93419642D02*
X59831250Y-93467261D01*
X59777678Y-93514880D01*
X59736011Y-93467261D01*
X59789583Y-93419642D01*
X59777678Y-93514880D01*
X58825297Y-95139880D02*
X58950297Y-94139880D01*
X59253869Y-95139880D02*
X59319345Y-94616071D01*
X59283630Y-94520833D01*
X59194345Y-94473214D01*
X59051488Y-94473214D01*
X58950297Y-94520833D01*
X58896726Y-94568452D01*
X59872916Y-95139880D02*
X59783630Y-95092261D01*
X59741964Y-95044642D01*
X59706250Y-94949404D01*
X59741964Y-94663690D01*
X59801488Y-94568452D01*
X59855059Y-94520833D01*
X59956250Y-94473214D01*
X60099107Y-94473214D01*
X60188392Y-94520833D01*
X60230059Y-94568452D01*
X60265773Y-94663690D01*
X60230059Y-94949404D01*
X60170535Y-95044642D01*
X60116964Y-95092261D01*
X60015773Y-95139880D01*
X59872916Y-95139880D01*
X60718154Y-94473214D02*
X60593154Y-95473214D01*
X60712202Y-94520833D02*
X60813392Y-94473214D01*
X61003869Y-94473214D01*
X61093154Y-94520833D01*
X61134821Y-94568452D01*
X61170535Y-94663690D01*
X61134821Y-94949404D01*
X61075297Y-95044642D01*
X61021726Y-95092261D01*
X60920535Y-95139880D01*
X60730059Y-95139880D01*
X60640773Y-95092261D01*
X61926488Y-95092261D02*
X61825297Y-95139880D01*
X61634821Y-95139880D01*
X61545535Y-95092261D01*
X61509821Y-94997023D01*
X61557440Y-94616071D01*
X61616964Y-94520833D01*
X61718154Y-94473214D01*
X61908630Y-94473214D01*
X61997916Y-94520833D01*
X62033630Y-94616071D01*
X62021726Y-94711309D01*
X61533630Y-94806547D01*
X62408630Y-95044642D02*
X62450297Y-95092261D01*
X62396726Y-95139880D01*
X62355059Y-95092261D01*
X62408630Y-95044642D01*
X62396726Y-95139880D01*
X62884821Y-95044642D02*
X62926488Y-95092261D01*
X62872916Y-95139880D01*
X62831250Y-95092261D01*
X62884821Y-95044642D01*
X62872916Y-95139880D01*
X58765773Y-96098214D02*
X59146726Y-96098214D01*
X58950297Y-95764880D02*
X58843154Y-96622023D01*
X58878869Y-96717261D01*
X58968154Y-96764880D01*
X59063392Y-96764880D01*
X59396726Y-96764880D02*
X59521726Y-95764880D01*
X59825297Y-96764880D02*
X59890773Y-96241071D01*
X59855059Y-96145833D01*
X59765773Y-96098214D01*
X59622916Y-96098214D01*
X59521726Y-96145833D01*
X59468154Y-96193452D01*
X60301488Y-96764880D02*
X60384821Y-96098214D01*
X60426488Y-95764880D02*
X60372916Y-95812500D01*
X60414583Y-95860119D01*
X60468154Y-95812500D01*
X60426488Y-95764880D01*
X60414583Y-95860119D01*
X60736011Y-96717261D02*
X60825297Y-96764880D01*
X61015773Y-96764880D01*
X61116964Y-96717261D01*
X61176488Y-96622023D01*
X61182440Y-96574404D01*
X61146726Y-96479166D01*
X61057440Y-96431547D01*
X60914583Y-96431547D01*
X60825297Y-96383928D01*
X60789583Y-96288690D01*
X60795535Y-96241071D01*
X60855059Y-96145833D01*
X60956250Y-96098214D01*
X61099107Y-96098214D01*
X61188392Y-96145833D01*
X61599107Y-96669642D02*
X61640773Y-96717261D01*
X61587202Y-96764880D01*
X61545535Y-96717261D01*
X61599107Y-96669642D01*
X61587202Y-96764880D01*
X62075297Y-96669642D02*
X62116964Y-96717261D01*
X62063392Y-96764880D01*
X62021726Y-96717261D01*
X62075297Y-96669642D01*
X62063392Y-96764880D01*
X58813392Y-97723214D02*
X58920535Y-98389880D01*
X59170535Y-97913690D01*
X59301488Y-98389880D01*
X59575297Y-97723214D01*
X60015773Y-98389880D02*
X59926488Y-98342261D01*
X59884821Y-98294642D01*
X59849107Y-98199404D01*
X59884821Y-97913690D01*
X59944345Y-97818452D01*
X59997916Y-97770833D01*
X60099107Y-97723214D01*
X60241964Y-97723214D01*
X60331250Y-97770833D01*
X60372916Y-97818452D01*
X60408630Y-97913690D01*
X60372916Y-98199404D01*
X60313392Y-98294642D01*
X60259821Y-98342261D01*
X60158630Y-98389880D01*
X60015773Y-98389880D01*
X60777678Y-98389880D02*
X60861011Y-97723214D01*
X60837202Y-97913690D02*
X60896726Y-97818452D01*
X60950297Y-97770833D01*
X61051488Y-97723214D01*
X61146726Y-97723214D01*
X61396726Y-98389880D02*
X61521726Y-97389880D01*
X61539583Y-98008928D02*
X61777678Y-98389880D01*
X61861011Y-97723214D02*
X61432440Y-98104166D01*
X62164583Y-98342261D02*
X62253869Y-98389880D01*
X62444345Y-98389880D01*
X62545535Y-98342261D01*
X62605059Y-98247023D01*
X62611011Y-98199404D01*
X62575297Y-98104166D01*
X62486011Y-98056547D01*
X62343154Y-98056547D01*
X62253869Y-98008928D01*
X62218154Y-97913690D01*
X62224107Y-97866071D01*
X62283630Y-97770833D01*
X62384821Y-97723214D01*
X62527678Y-97723214D01*
X62616964Y-97770833D01*
X63027678Y-98294642D02*
X63069345Y-98342261D01*
X63015773Y-98389880D01*
X62974107Y-98342261D01*
X63027678Y-98294642D01*
X63015773Y-98389880D01*
X63503869Y-98294642D02*
X63545535Y-98342261D01*
X63491964Y-98389880D01*
X63450297Y-98342261D01*
X63503869Y-98294642D01*
X63491964Y-98389880D01*
D11*
X57731175Y-117452380D02*
X58397842Y-117452380D01*
X57606175Y-118452380D01*
X58272842Y-118452380D01*
X58653794Y-118452380D02*
X58737127Y-117785714D01*
X58725223Y-117880952D02*
X58778794Y-117833333D01*
X58879985Y-117785714D01*
X59022842Y-117785714D01*
X59112127Y-117833333D01*
X59147842Y-117928571D01*
X59082366Y-118452380D01*
X59147842Y-117928571D02*
X59207366Y-117833333D01*
X59308556Y-117785714D01*
X59451413Y-117785714D01*
X59540699Y-117833333D01*
X59576413Y-117928571D01*
X59510937Y-118452380D01*
X60129985Y-118452380D02*
X60040699Y-118404761D01*
X59999032Y-118357142D01*
X59963318Y-118261904D01*
X59999032Y-117976190D01*
X60058556Y-117880952D01*
X60112127Y-117833333D01*
X60213318Y-117785714D01*
X60356175Y-117785714D01*
X60445461Y-117833333D01*
X60487127Y-117880952D01*
X60522842Y-117976190D01*
X60487127Y-118261904D01*
X60427604Y-118357142D01*
X60374032Y-118404761D01*
X60272842Y-118452380D01*
X60129985Y-118452380D01*
X61320461Y-118452380D02*
X61445461Y-117452380D01*
X61326413Y-118404761D02*
X61225223Y-118452380D01*
X61034747Y-118452380D01*
X60945461Y-118404761D01*
X60903794Y-118357142D01*
X60868080Y-118261904D01*
X60903794Y-117976190D01*
X60963318Y-117880952D01*
X61016889Y-117833333D01*
X61118080Y-117785714D01*
X61308556Y-117785714D01*
X61397842Y-117833333D01*
X61784747Y-117785714D02*
X61939508Y-118452380D01*
X62260937Y-117785714D02*
X61939508Y-118452380D01*
X61814508Y-118690476D01*
X61760937Y-118738095D01*
X61659747Y-118785714D01*
X62499032Y-117785714D02*
X62879985Y-117785714D01*
X62558556Y-118452380D02*
X62665699Y-117595238D01*
X62725223Y-117500000D01*
X62826413Y-117452380D01*
X62921651Y-117452380D01*
X63129985Y-118452380D02*
X63213318Y-117785714D01*
X63254985Y-117452380D02*
X63201413Y-117500000D01*
X63243080Y-117547619D01*
X63296651Y-117500000D01*
X63254985Y-117452380D01*
X63243080Y-117547619D01*
X63606175Y-118452380D02*
X63731175Y-117452380D01*
X63749032Y-118071428D02*
X63987127Y-118452380D01*
X64070461Y-117785714D02*
X63641889Y-118166666D01*
X64558556Y-118452380D02*
X64469270Y-118404761D01*
X64427604Y-118357142D01*
X64391889Y-118261904D01*
X64427604Y-117976190D01*
X64487127Y-117880952D01*
X64540699Y-117833333D01*
X64641889Y-117785714D01*
X64784747Y-117785714D01*
X64874032Y-117833333D01*
X64915699Y-117880952D01*
X64951413Y-117976190D01*
X64915699Y-118261904D01*
X64856175Y-118357142D01*
X64802604Y-118404761D01*
X64701413Y-118452380D01*
X64558556Y-118452380D01*
X65308556Y-117785714D02*
X65415699Y-118452380D01*
X65665699Y-117976190D01*
X65796651Y-118452380D01*
X66070461Y-117785714D01*
X66796651Y-118452380D02*
X66862127Y-117928571D01*
X66826413Y-117833333D01*
X66737127Y-117785714D01*
X66546651Y-117785714D01*
X66445461Y-117833333D01*
X66802604Y-118404761D02*
X66701413Y-118452380D01*
X66463318Y-118452380D01*
X66374032Y-118404761D01*
X66338318Y-118309523D01*
X66350223Y-118214285D01*
X66409747Y-118119047D01*
X66510937Y-118071428D01*
X66749032Y-118071428D01*
X66850223Y-118023809D01*
X67356175Y-117785714D02*
X67272842Y-118452380D01*
X67344270Y-117880952D02*
X67397842Y-117833333D01*
X67499032Y-117785714D01*
X67641889Y-117785714D01*
X67731175Y-117833333D01*
X67766889Y-117928571D01*
X67701413Y-118452380D01*
X68320461Y-118452380D02*
X68231175Y-118404761D01*
X68189508Y-118357142D01*
X68153794Y-118261904D01*
X68189508Y-117976190D01*
X68249032Y-117880952D01*
X68302604Y-117833333D01*
X68403794Y-117785714D01*
X68546651Y-117785714D01*
X68635937Y-117833333D01*
X68677604Y-117880952D01*
X68713318Y-117976190D01*
X68677604Y-118261904D01*
X68618080Y-118357142D01*
X68564508Y-118404761D01*
X68463318Y-118452380D01*
X68320461Y-118452380D01*
X69094270Y-118357142D02*
X69135937Y-118404761D01*
X69082366Y-118452380D01*
X69040699Y-118404761D01*
X69094270Y-118357142D01*
X69082366Y-118452380D01*
X69129985Y-118071428D02*
X69153794Y-117500000D01*
X69207366Y-117452380D01*
X69249032Y-117500000D01*
X69129985Y-118071428D01*
X69207366Y-117452380D01*
D12*
X53524367Y-88821428D02*
X52691034Y-88821428D01*
X52527343Y-90130952D02*
X52839843Y-87630952D01*
X54030319Y-87630952D01*
X54744605Y-87630952D02*
X56411272Y-87630952D01*
X54432105Y-90130952D01*
X56098772Y-90130952D01*
X57214843Y-88821428D02*
X58048177Y-88821428D01*
X58241629Y-90130952D02*
X57051153Y-90130952D01*
X57363653Y-87630952D01*
X58554129Y-87630952D01*
X60949962Y-90369047D02*
X60726748Y-90250000D01*
X60518415Y-90011904D01*
X60205915Y-89654761D01*
X59982700Y-89535714D01*
X59744605Y-89535714D01*
X59789248Y-90130952D02*
X59566034Y-90011904D01*
X59357700Y-89773809D01*
X59298177Y-89297619D01*
X59402343Y-88464285D01*
X59580915Y-87988095D01*
X59848772Y-87750000D01*
X60101748Y-87630952D01*
X60577938Y-87630952D01*
X60801153Y-87750000D01*
X61009486Y-87988095D01*
X61069010Y-88464285D01*
X60964843Y-89297619D01*
X60786272Y-89773809D01*
X60518415Y-90011904D01*
X60265438Y-90130952D01*
X59789248Y-90130952D01*
X61961867Y-89892857D02*
X62066034Y-90011904D01*
X61932105Y-90130952D01*
X61827938Y-90011904D01*
X61961867Y-89892857D01*
X61932105Y-90130952D01*
X62051153Y-89178571D02*
X62110677Y-87750000D01*
X62244605Y-87630952D01*
X62348772Y-87750000D01*
X62051153Y-89178571D01*
X62244605Y-87630952D01*
D11*
X54119047Y-146077380D02*
X53785714Y-145601190D01*
X53547619Y-146077380D02*
X53547619Y-145077380D01*
X53928571Y-145077380D01*
X54023809Y-145125000D01*
X54071428Y-145172619D01*
X54119047Y-145267857D01*
X54119047Y-145410714D01*
X54071428Y-145505952D01*
X54023809Y-145553571D01*
X53928571Y-145601190D01*
X53547619Y-145601190D01*
X54547619Y-146077380D02*
X54547619Y-145410714D01*
X54547619Y-145077380D02*
X54500000Y-145125000D01*
X54547619Y-145172619D01*
X54595238Y-145125000D01*
X54547619Y-145077380D01*
X54547619Y-145172619D01*
X55452380Y-146029761D02*
X55357142Y-146077380D01*
X55166666Y-146077380D01*
X55071428Y-146029761D01*
X55023809Y-145982142D01*
X54976190Y-145886904D01*
X54976190Y-145601190D01*
X55023809Y-145505952D01*
X55071428Y-145458333D01*
X55166666Y-145410714D01*
X55357142Y-145410714D01*
X55452380Y-145458333D01*
X55880952Y-146077380D02*
X55880952Y-145077380D01*
X56309523Y-146077380D02*
X56309523Y-145553571D01*
X56261904Y-145458333D01*
X56166666Y-145410714D01*
X56023809Y-145410714D01*
X55928571Y-145458333D01*
X55880952Y-145505952D01*
X57833333Y-145077380D02*
X57833333Y-145791666D01*
X57785714Y-145934523D01*
X57690476Y-146029761D01*
X57547619Y-146077380D01*
X57452380Y-146077380D01*
X58452380Y-146077380D02*
X58357142Y-146029761D01*
X58309523Y-145982142D01*
X58261904Y-145886904D01*
X58261904Y-145601190D01*
X58309523Y-145505952D01*
X58357142Y-145458333D01*
X58452380Y-145410714D01*
X58595238Y-145410714D01*
X58690476Y-145458333D01*
X58738095Y-145505952D01*
X58785714Y-145601190D01*
X58785714Y-145886904D01*
X58738095Y-145982142D01*
X58690476Y-146029761D01*
X58595238Y-146077380D01*
X58452380Y-146077380D01*
X59214285Y-145410714D02*
X59214285Y-146077380D01*
X59214285Y-145505952D02*
X59261904Y-145458333D01*
X59357142Y-145410714D01*
X59500000Y-145410714D01*
X59595238Y-145458333D01*
X59642857Y-145553571D01*
X59642857Y-146077380D01*
X60500000Y-146029761D02*
X60404761Y-146077380D01*
X60214285Y-146077380D01*
X60119047Y-146029761D01*
X60071428Y-145934523D01*
X60071428Y-145553571D01*
X60119047Y-145458333D01*
X60214285Y-145410714D01*
X60404761Y-145410714D01*
X60500000Y-145458333D01*
X60547619Y-145553571D01*
X60547619Y-145648809D01*
X60071428Y-145744047D01*
X60928571Y-146029761D02*
X61023809Y-146077380D01*
X61214285Y-146077380D01*
X61309523Y-146029761D01*
X61357142Y-145934523D01*
X61357142Y-145886904D01*
X61309523Y-145791666D01*
X61214285Y-145744047D01*
X61071428Y-145744047D01*
X60976190Y-145696428D01*
X60928571Y-145601190D01*
X60928571Y-145553571D01*
X60976190Y-145458333D01*
X61071428Y-145410714D01*
X61214285Y-145410714D01*
X61309523Y-145458333D01*
X63166666Y-145601190D02*
X63119047Y-145553571D01*
X63023809Y-145505952D01*
X62928571Y-145505952D01*
X62833333Y-145553571D01*
X62785714Y-145601190D01*
X62738095Y-145696428D01*
X62738095Y-145791666D01*
X62785714Y-145886904D01*
X62833333Y-145934523D01*
X62928571Y-145982142D01*
X63023809Y-145982142D01*
X63119047Y-145934523D01*
X63166666Y-145886904D01*
X63166666Y-145505952D02*
X63166666Y-145886904D01*
X63214285Y-145934523D01*
X63261904Y-145934523D01*
X63357142Y-145886904D01*
X63404761Y-145791666D01*
X63404761Y-145553571D01*
X63309523Y-145410714D01*
X63166666Y-145315476D01*
X62976190Y-145267857D01*
X62785714Y-145315476D01*
X62642857Y-145410714D01*
X62547619Y-145553571D01*
X62500000Y-145744047D01*
X62547619Y-145934523D01*
X62642857Y-146077380D01*
X62785714Y-146172619D01*
X62976190Y-146220238D01*
X63166666Y-146172619D01*
X63309523Y-146077380D01*
X64166666Y-145553571D02*
X64309523Y-145601190D01*
X64357142Y-145648809D01*
X64404761Y-145744047D01*
X64404761Y-145886904D01*
X64357142Y-145982142D01*
X64309523Y-146029761D01*
X64214285Y-146077380D01*
X63833333Y-146077380D01*
X63833333Y-145077380D01*
X64166666Y-145077380D01*
X64261904Y-145125000D01*
X64309523Y-145172619D01*
X64357142Y-145267857D01*
X64357142Y-145363095D01*
X64309523Y-145458333D01*
X64261904Y-145505952D01*
X64166666Y-145553571D01*
X63833333Y-145553571D01*
X64976190Y-146077380D02*
X64880952Y-146029761D01*
X64833333Y-145934523D01*
X64833333Y-145077380D01*
X65785714Y-146077380D02*
X65785714Y-145553571D01*
X65738095Y-145458333D01*
X65642857Y-145410714D01*
X65452380Y-145410714D01*
X65357142Y-145458333D01*
X65785714Y-146029761D02*
X65690476Y-146077380D01*
X65452380Y-146077380D01*
X65357142Y-146029761D01*
X65309523Y-145934523D01*
X65309523Y-145839285D01*
X65357142Y-145744047D01*
X65452380Y-145696428D01*
X65690476Y-145696428D01*
X65785714Y-145648809D01*
X66690476Y-146029761D02*
X66595238Y-146077380D01*
X66404761Y-146077380D01*
X66309523Y-146029761D01*
X66261904Y-145982142D01*
X66214285Y-145886904D01*
X66214285Y-145601190D01*
X66261904Y-145505952D01*
X66309523Y-145458333D01*
X66404761Y-145410714D01*
X66595238Y-145410714D01*
X66690476Y-145458333D01*
X67119047Y-146077380D02*
X67119047Y-145077380D01*
X67214285Y-145696428D02*
X67500000Y-146077380D01*
X67500000Y-145410714D02*
X67119047Y-145791666D01*
X67928571Y-146077380D02*
X67928571Y-145077380D01*
X68166666Y-145077380D01*
X68309523Y-145125000D01*
X68404761Y-145220238D01*
X68452380Y-145315476D01*
X68500000Y-145505952D01*
X68500000Y-145648809D01*
X68452380Y-145839285D01*
X68404761Y-145934523D01*
X68309523Y-146029761D01*
X68166666Y-146077380D01*
X67928571Y-146077380D01*
X69309523Y-146029761D02*
X69214285Y-146077380D01*
X69023809Y-146077380D01*
X68928571Y-146029761D01*
X68880952Y-145934523D01*
X68880952Y-145553571D01*
X68928571Y-145458333D01*
X69023809Y-145410714D01*
X69214285Y-145410714D01*
X69309523Y-145458333D01*
X69357142Y-145553571D01*
X69357142Y-145648809D01*
X68880952Y-145744047D01*
X70214285Y-146077380D02*
X70214285Y-145553571D01*
X70166666Y-145458333D01*
X70071428Y-145410714D01*
X69880952Y-145410714D01*
X69785714Y-145458333D01*
X70214285Y-146029761D02*
X70119047Y-146077380D01*
X69880952Y-146077380D01*
X69785714Y-146029761D01*
X69738095Y-145934523D01*
X69738095Y-145839285D01*
X69785714Y-145744047D01*
X69880952Y-145696428D01*
X70119047Y-145696428D01*
X70214285Y-145648809D01*
X70547619Y-145410714D02*
X70928571Y-145410714D01*
X70690476Y-145077380D02*
X70690476Y-145934523D01*
X70738095Y-146029761D01*
X70833333Y-146077380D01*
X70928571Y-146077380D01*
X71261904Y-146077380D02*
X71261904Y-145077380D01*
X71690476Y-146077380D02*
X71690476Y-145553571D01*
X71642857Y-145458333D01*
X71547619Y-145410714D01*
X71404761Y-145410714D01*
X71309523Y-145458333D01*
X71261904Y-145505952D01*
X57309523Y-147827380D02*
X56833333Y-147827380D01*
X56833333Y-146827380D01*
X57642857Y-147827380D02*
X57642857Y-146827380D01*
X57976190Y-147541666D01*
X58309523Y-146827380D01*
X58309523Y-147827380D01*
X58785714Y-147827380D02*
X58785714Y-146827380D01*
X59357142Y-147827380D01*
X59357142Y-146827380D01*
X60404761Y-147732142D02*
X60357142Y-147779761D01*
X60214285Y-147827380D01*
X60119047Y-147827380D01*
X59976190Y-147779761D01*
X59880952Y-147684523D01*
X59833333Y-147589285D01*
X59785714Y-147398809D01*
X59785714Y-147255952D01*
X59833333Y-147065476D01*
X59880952Y-146970238D01*
X59976190Y-146875000D01*
X60119047Y-146827380D01*
X60214285Y-146827380D01*
X60357142Y-146875000D01*
X60404761Y-146922619D01*
X62119047Y-146875000D02*
X62023809Y-146827380D01*
X61880952Y-146827380D01*
X61738095Y-146875000D01*
X61642857Y-146970238D01*
X61595238Y-147065476D01*
X61547619Y-147255952D01*
X61547619Y-147398809D01*
X61595238Y-147589285D01*
X61642857Y-147684523D01*
X61738095Y-147779761D01*
X61880952Y-147827380D01*
X61976190Y-147827380D01*
X62119047Y-147779761D01*
X62166666Y-147732142D01*
X62166666Y-147398809D01*
X61976190Y-147398809D01*
X62738095Y-147827380D02*
X62642857Y-147779761D01*
X62595238Y-147732142D01*
X62547619Y-147636904D01*
X62547619Y-147351190D01*
X62595238Y-147255952D01*
X62642857Y-147208333D01*
X62738095Y-147160714D01*
X62880952Y-147160714D01*
X62976190Y-147208333D01*
X63023809Y-147255952D01*
X63071428Y-147351190D01*
X63071428Y-147636904D01*
X63023809Y-147732142D01*
X62976190Y-147779761D01*
X62880952Y-147827380D01*
X62738095Y-147827380D01*
X63642857Y-147827380D02*
X63547619Y-147779761D01*
X63500000Y-147684523D01*
X63500000Y-146827380D01*
X63880952Y-147160714D02*
X64261904Y-147160714D01*
X64023809Y-147827380D02*
X64023809Y-146970238D01*
X64071428Y-146875000D01*
X64166666Y-146827380D01*
X64261904Y-146827380D01*
X65309523Y-146922619D02*
X65357142Y-146875000D01*
X65452380Y-146827380D01*
X65690476Y-146827380D01*
X65785714Y-146875000D01*
X65833333Y-146922619D01*
X65880952Y-147017857D01*
X65880952Y-147113095D01*
X65833333Y-147255952D01*
X65261904Y-147827380D01*
X65880952Y-147827380D01*
X66500000Y-146827380D02*
X66595238Y-146827380D01*
X66690476Y-146875000D01*
X66738095Y-146922619D01*
X66785714Y-147017857D01*
X66833333Y-147208333D01*
X66833333Y-147446428D01*
X66785714Y-147636904D01*
X66738095Y-147732142D01*
X66690476Y-147779761D01*
X66595238Y-147827380D01*
X66500000Y-147827380D01*
X66404761Y-147779761D01*
X66357142Y-147732142D01*
X66309523Y-147636904D01*
X66261904Y-147446428D01*
X66261904Y-147208333D01*
X66309523Y-147017857D01*
X66357142Y-146922619D01*
X66404761Y-146875000D01*
X66500000Y-146827380D01*
X67214285Y-146922619D02*
X67261904Y-146875000D01*
X67357142Y-146827380D01*
X67595238Y-146827380D01*
X67690476Y-146875000D01*
X67738095Y-146922619D01*
X67785714Y-147017857D01*
X67785714Y-147113095D01*
X67738095Y-147255952D01*
X67166666Y-147827380D01*
X67785714Y-147827380D01*
X68738095Y-147827380D02*
X68166666Y-147827380D01*
X68452380Y-147827380D02*
X68452380Y-146827380D01*
X68357142Y-146970238D01*
X68261904Y-147065476D01*
X68166666Y-147113095D01*
X69166666Y-147732142D02*
X69214285Y-147779761D01*
X69166666Y-147827380D01*
X69119047Y-147779761D01*
X69166666Y-147732142D01*
X69166666Y-147827380D01*
X69166666Y-147446428D02*
X69119047Y-146875000D01*
X69166666Y-146827380D01*
X69214285Y-146875000D01*
X69166666Y-147446428D01*
X69166666Y-146827380D01*
D13*
%TO.C,FB2*%
X72870000Y-62920000D02*
X72540000Y-62920000D01*
X72870000Y-69460000D02*
X72870000Y-62920000D01*
X72540000Y-69460000D02*
X72870000Y-69460000D01*
X70130000Y-62920000D02*
X70460000Y-62920000D01*
X70130000Y-69460000D02*
X70130000Y-62920000D01*
X70460000Y-69460000D02*
X70130000Y-69460000D01*
%TO.C,C8*%
X57620000Y-104000000D02*
G75*
G03*
X57620000Y-104000000I-2620000J0D01*
G01*
X55000000Y-105040000D02*
X55000000Y-106580000D01*
X55000000Y-101420000D02*
X55000000Y-102960000D01*
X55040000Y-105040000D02*
X55040000Y-106580000D01*
X55040000Y-101420000D02*
X55040000Y-102960000D01*
X55080000Y-101421000D02*
X55080000Y-102960000D01*
X55080000Y-105040000D02*
X55080000Y-106579000D01*
X55120000Y-101422000D02*
X55120000Y-102960000D01*
X55120000Y-105040000D02*
X55120000Y-106578000D01*
X55160000Y-101424000D02*
X55160000Y-102960000D01*
X55160000Y-105040000D02*
X55160000Y-106576000D01*
X55200000Y-101427000D02*
X55200000Y-102960000D01*
X55200000Y-105040000D02*
X55200000Y-106573000D01*
X55240000Y-101431000D02*
X55240000Y-102960000D01*
X55240000Y-105040000D02*
X55240000Y-106569000D01*
X55280000Y-101435000D02*
X55280000Y-102960000D01*
X55280000Y-105040000D02*
X55280000Y-106565000D01*
X55320000Y-101439000D02*
X55320000Y-102960000D01*
X55320000Y-105040000D02*
X55320000Y-106561000D01*
X55360000Y-101444000D02*
X55360000Y-102960000D01*
X55360000Y-105040000D02*
X55360000Y-106556000D01*
X55400000Y-101450000D02*
X55400000Y-102960000D01*
X55400000Y-105040000D02*
X55400000Y-106550000D01*
X55440000Y-101457000D02*
X55440000Y-102960000D01*
X55440000Y-105040000D02*
X55440000Y-106543000D01*
X55480000Y-101464000D02*
X55480000Y-102960000D01*
X55480000Y-105040000D02*
X55480000Y-106536000D01*
X55520000Y-101472000D02*
X55520000Y-102960000D01*
X55520000Y-105040000D02*
X55520000Y-106528000D01*
X55560000Y-101480000D02*
X55560000Y-102960000D01*
X55560000Y-105040000D02*
X55560000Y-106520000D01*
X55600000Y-101489000D02*
X55600000Y-102960000D01*
X55600000Y-105040000D02*
X55600000Y-106511000D01*
X55640000Y-101499000D02*
X55640000Y-102960000D01*
X55640000Y-105040000D02*
X55640000Y-106501000D01*
X55680000Y-101509000D02*
X55680000Y-102960000D01*
X55680000Y-105040000D02*
X55680000Y-106491000D01*
X55721000Y-101520000D02*
X55721000Y-102960000D01*
X55721000Y-105040000D02*
X55721000Y-106480000D01*
X55761000Y-101532000D02*
X55761000Y-102960000D01*
X55761000Y-105040000D02*
X55761000Y-106468000D01*
X55801000Y-101545000D02*
X55801000Y-102960000D01*
X55801000Y-105040000D02*
X55801000Y-106455000D01*
X55841000Y-101558000D02*
X55841000Y-102960000D01*
X55841000Y-105040000D02*
X55841000Y-106442000D01*
X55881000Y-101572000D02*
X55881000Y-102960000D01*
X55881000Y-105040000D02*
X55881000Y-106428000D01*
X55921000Y-101586000D02*
X55921000Y-102960000D01*
X55921000Y-105040000D02*
X55921000Y-106414000D01*
X55961000Y-101602000D02*
X55961000Y-102960000D01*
X55961000Y-105040000D02*
X55961000Y-106398000D01*
X56001000Y-101618000D02*
X56001000Y-102960000D01*
X56001000Y-105040000D02*
X56001000Y-106382000D01*
X56041000Y-101635000D02*
X56041000Y-102960000D01*
X56041000Y-105040000D02*
X56041000Y-106365000D01*
X56081000Y-101652000D02*
X56081000Y-102960000D01*
X56081000Y-105040000D02*
X56081000Y-106348000D01*
X56121000Y-101671000D02*
X56121000Y-102960000D01*
X56121000Y-105040000D02*
X56121000Y-106329000D01*
X56161000Y-101690000D02*
X56161000Y-102960000D01*
X56161000Y-105040000D02*
X56161000Y-106310000D01*
X56201000Y-101710000D02*
X56201000Y-102960000D01*
X56201000Y-105040000D02*
X56201000Y-106290000D01*
X56241000Y-101732000D02*
X56241000Y-102960000D01*
X56241000Y-105040000D02*
X56241000Y-106268000D01*
X56281000Y-101753000D02*
X56281000Y-102960000D01*
X56281000Y-105040000D02*
X56281000Y-106247000D01*
X56321000Y-101776000D02*
X56321000Y-102960000D01*
X56321000Y-105040000D02*
X56321000Y-106224000D01*
X56361000Y-101800000D02*
X56361000Y-102960000D01*
X56361000Y-105040000D02*
X56361000Y-106200000D01*
X56401000Y-101825000D02*
X56401000Y-102960000D01*
X56401000Y-105040000D02*
X56401000Y-106175000D01*
X56441000Y-101851000D02*
X56441000Y-102960000D01*
X56441000Y-105040000D02*
X56441000Y-106149000D01*
X56481000Y-101878000D02*
X56481000Y-102960000D01*
X56481000Y-105040000D02*
X56481000Y-106122000D01*
X56521000Y-101905000D02*
X56521000Y-102960000D01*
X56521000Y-105040000D02*
X56521000Y-106095000D01*
X56561000Y-101935000D02*
X56561000Y-102960000D01*
X56561000Y-105040000D02*
X56561000Y-106065000D01*
X56601000Y-101965000D02*
X56601000Y-102960000D01*
X56601000Y-105040000D02*
X56601000Y-106035000D01*
X56641000Y-101996000D02*
X56641000Y-102960000D01*
X56641000Y-105040000D02*
X56641000Y-106004000D01*
X56681000Y-102029000D02*
X56681000Y-102960000D01*
X56681000Y-105040000D02*
X56681000Y-105971000D01*
X56721000Y-102063000D02*
X56721000Y-102960000D01*
X56721000Y-105040000D02*
X56721000Y-105937000D01*
X56761000Y-102099000D02*
X56761000Y-102960000D01*
X56761000Y-105040000D02*
X56761000Y-105901000D01*
X56801000Y-102136000D02*
X56801000Y-102960000D01*
X56801000Y-105040000D02*
X56801000Y-105864000D01*
X56841000Y-102174000D02*
X56841000Y-102960000D01*
X56841000Y-105040000D02*
X56841000Y-105826000D01*
X56881000Y-102215000D02*
X56881000Y-102960000D01*
X56881000Y-105040000D02*
X56881000Y-105785000D01*
X56921000Y-102257000D02*
X56921000Y-102960000D01*
X56921000Y-105040000D02*
X56921000Y-105743000D01*
X56961000Y-102301000D02*
X56961000Y-102960000D01*
X56961000Y-105040000D02*
X56961000Y-105699000D01*
X57001000Y-102347000D02*
X57001000Y-102960000D01*
X57001000Y-105040000D02*
X57001000Y-105653000D01*
X57041000Y-102395000D02*
X57041000Y-105605000D01*
X57081000Y-102446000D02*
X57081000Y-105554000D01*
X57121000Y-102500000D02*
X57121000Y-105500000D01*
X57161000Y-102557000D02*
X57161000Y-105443000D01*
X57201000Y-102617000D02*
X57201000Y-105383000D01*
X57241000Y-102681000D02*
X57241000Y-105319000D01*
X57281000Y-102749000D02*
X57281000Y-105251000D01*
X57321000Y-102822000D02*
X57321000Y-105178000D01*
X57361000Y-102902000D02*
X57361000Y-105098000D01*
X57401000Y-102989000D02*
X57401000Y-105011000D01*
X57441000Y-103085000D02*
X57441000Y-104915000D01*
X57481000Y-103195000D02*
X57481000Y-104805000D01*
X57521000Y-103323000D02*
X57521000Y-104677000D01*
X57561000Y-103482000D02*
X57561000Y-104518000D01*
X57601000Y-103716000D02*
X57601000Y-104284000D01*
X52195225Y-102525000D02*
X52695225Y-102525000D01*
X52445225Y-102275000D02*
X52445225Y-102775000D01*
%TO.C,C1*%
X62121000Y-134580000D02*
X63379000Y-134580000D01*
X62121000Y-136420000D02*
X63379000Y-136420000D01*
%TO.C,C2*%
X57775000Y-68554775D02*
X58275000Y-68554775D01*
X58025000Y-68804775D02*
X58025000Y-68304775D01*
X59216000Y-63399000D02*
X59784000Y-63399000D01*
X58982000Y-63439000D02*
X60018000Y-63439000D01*
X58823000Y-63479000D02*
X60177000Y-63479000D01*
X58695000Y-63519000D02*
X60305000Y-63519000D01*
X58585000Y-63559000D02*
X60415000Y-63559000D01*
X58489000Y-63599000D02*
X60511000Y-63599000D01*
X58402000Y-63639000D02*
X60598000Y-63639000D01*
X58322000Y-63679000D02*
X60678000Y-63679000D01*
X58249000Y-63719000D02*
X60751000Y-63719000D01*
X58181000Y-63759000D02*
X60819000Y-63759000D01*
X58117000Y-63799000D02*
X60883000Y-63799000D01*
X58057000Y-63839000D02*
X60943000Y-63839000D01*
X58000000Y-63879000D02*
X61000000Y-63879000D01*
X57946000Y-63919000D02*
X61054000Y-63919000D01*
X57895000Y-63959000D02*
X61105000Y-63959000D01*
X60540000Y-63999000D02*
X61153000Y-63999000D01*
X57847000Y-63999000D02*
X58460000Y-63999000D01*
X60540000Y-64039000D02*
X61199000Y-64039000D01*
X57801000Y-64039000D02*
X58460000Y-64039000D01*
X60540000Y-64079000D02*
X61243000Y-64079000D01*
X57757000Y-64079000D02*
X58460000Y-64079000D01*
X60540000Y-64119000D02*
X61285000Y-64119000D01*
X57715000Y-64119000D02*
X58460000Y-64119000D01*
X60540000Y-64159000D02*
X61326000Y-64159000D01*
X57674000Y-64159000D02*
X58460000Y-64159000D01*
X60540000Y-64199000D02*
X61364000Y-64199000D01*
X57636000Y-64199000D02*
X58460000Y-64199000D01*
X60540000Y-64239000D02*
X61401000Y-64239000D01*
X57599000Y-64239000D02*
X58460000Y-64239000D01*
X60540000Y-64279000D02*
X61437000Y-64279000D01*
X57563000Y-64279000D02*
X58460000Y-64279000D01*
X60540000Y-64319000D02*
X61471000Y-64319000D01*
X57529000Y-64319000D02*
X58460000Y-64319000D01*
X60540000Y-64359000D02*
X61504000Y-64359000D01*
X57496000Y-64359000D02*
X58460000Y-64359000D01*
X60540000Y-64399000D02*
X61535000Y-64399000D01*
X57465000Y-64399000D02*
X58460000Y-64399000D01*
X60540000Y-64439000D02*
X61565000Y-64439000D01*
X57435000Y-64439000D02*
X58460000Y-64439000D01*
X60540000Y-64479000D02*
X61595000Y-64479000D01*
X57405000Y-64479000D02*
X58460000Y-64479000D01*
X60540000Y-64519000D02*
X61622000Y-64519000D01*
X57378000Y-64519000D02*
X58460000Y-64519000D01*
X60540000Y-64559000D02*
X61649000Y-64559000D01*
X57351000Y-64559000D02*
X58460000Y-64559000D01*
X60540000Y-64599000D02*
X61675000Y-64599000D01*
X57325000Y-64599000D02*
X58460000Y-64599000D01*
X60540000Y-64639000D02*
X61700000Y-64639000D01*
X57300000Y-64639000D02*
X58460000Y-64639000D01*
X60540000Y-64679000D02*
X61724000Y-64679000D01*
X57276000Y-64679000D02*
X58460000Y-64679000D01*
X60540000Y-64719000D02*
X61747000Y-64719000D01*
X57253000Y-64719000D02*
X58460000Y-64719000D01*
X60540000Y-64759000D02*
X61768000Y-64759000D01*
X57232000Y-64759000D02*
X58460000Y-64759000D01*
X60540000Y-64799000D02*
X61790000Y-64799000D01*
X57210000Y-64799000D02*
X58460000Y-64799000D01*
X60540000Y-64839000D02*
X61810000Y-64839000D01*
X57190000Y-64839000D02*
X58460000Y-64839000D01*
X60540000Y-64879000D02*
X61829000Y-64879000D01*
X57171000Y-64879000D02*
X58460000Y-64879000D01*
X60540000Y-64919000D02*
X61848000Y-64919000D01*
X57152000Y-64919000D02*
X58460000Y-64919000D01*
X60540000Y-64959000D02*
X61865000Y-64959000D01*
X57135000Y-64959000D02*
X58460000Y-64959000D01*
X60540000Y-64999000D02*
X61882000Y-64999000D01*
X57118000Y-64999000D02*
X58460000Y-64999000D01*
X60540000Y-65039000D02*
X61898000Y-65039000D01*
X57102000Y-65039000D02*
X58460000Y-65039000D01*
X60540000Y-65079000D02*
X61914000Y-65079000D01*
X57086000Y-65079000D02*
X58460000Y-65079000D01*
X60540000Y-65119000D02*
X61928000Y-65119000D01*
X57072000Y-65119000D02*
X58460000Y-65119000D01*
X60540000Y-65159000D02*
X61942000Y-65159000D01*
X57058000Y-65159000D02*
X58460000Y-65159000D01*
X60540000Y-65199000D02*
X61955000Y-65199000D01*
X57045000Y-65199000D02*
X58460000Y-65199000D01*
X60540000Y-65239000D02*
X61968000Y-65239000D01*
X57032000Y-65239000D02*
X58460000Y-65239000D01*
X60540000Y-65279000D02*
X61980000Y-65279000D01*
X57020000Y-65279000D02*
X58460000Y-65279000D01*
X60540000Y-65320000D02*
X61991000Y-65320000D01*
X57009000Y-65320000D02*
X58460000Y-65320000D01*
X60540000Y-65360000D02*
X62001000Y-65360000D01*
X56999000Y-65360000D02*
X58460000Y-65360000D01*
X60540000Y-65400000D02*
X62011000Y-65400000D01*
X56989000Y-65400000D02*
X58460000Y-65400000D01*
X60540000Y-65440000D02*
X62020000Y-65440000D01*
X56980000Y-65440000D02*
X58460000Y-65440000D01*
X60540000Y-65480000D02*
X62028000Y-65480000D01*
X56972000Y-65480000D02*
X58460000Y-65480000D01*
X60540000Y-65520000D02*
X62036000Y-65520000D01*
X56964000Y-65520000D02*
X58460000Y-65520000D01*
X60540000Y-65560000D02*
X62043000Y-65560000D01*
X56957000Y-65560000D02*
X58460000Y-65560000D01*
X60540000Y-65600000D02*
X62050000Y-65600000D01*
X56950000Y-65600000D02*
X58460000Y-65600000D01*
X60540000Y-65640000D02*
X62056000Y-65640000D01*
X56944000Y-65640000D02*
X58460000Y-65640000D01*
X60540000Y-65680000D02*
X62061000Y-65680000D01*
X56939000Y-65680000D02*
X58460000Y-65680000D01*
X60540000Y-65720000D02*
X62065000Y-65720000D01*
X56935000Y-65720000D02*
X58460000Y-65720000D01*
X60540000Y-65760000D02*
X62069000Y-65760000D01*
X56931000Y-65760000D02*
X58460000Y-65760000D01*
X60540000Y-65800000D02*
X62073000Y-65800000D01*
X56927000Y-65800000D02*
X58460000Y-65800000D01*
X60540000Y-65840000D02*
X62076000Y-65840000D01*
X56924000Y-65840000D02*
X58460000Y-65840000D01*
X60540000Y-65880000D02*
X62078000Y-65880000D01*
X56922000Y-65880000D02*
X58460000Y-65880000D01*
X60540000Y-65920000D02*
X62079000Y-65920000D01*
X56921000Y-65920000D02*
X58460000Y-65920000D01*
X56920000Y-65960000D02*
X58460000Y-65960000D01*
X60540000Y-65960000D02*
X62080000Y-65960000D01*
X56920000Y-66000000D02*
X58460000Y-66000000D01*
X60540000Y-66000000D02*
X62080000Y-66000000D01*
X62120000Y-66000000D02*
G75*
G03*
X62120000Y-66000000I-2620000J0D01*
G01*
%TO.C,C3*%
X68620000Y-66000000D02*
G75*
G03*
X68620000Y-66000000I-2620000J0D01*
G01*
X67040000Y-66000000D02*
X68580000Y-66000000D01*
X63420000Y-66000000D02*
X64960000Y-66000000D01*
X67040000Y-65960000D02*
X68580000Y-65960000D01*
X63420000Y-65960000D02*
X64960000Y-65960000D01*
X63421000Y-65920000D02*
X64960000Y-65920000D01*
X67040000Y-65920000D02*
X68579000Y-65920000D01*
X63422000Y-65880000D02*
X64960000Y-65880000D01*
X67040000Y-65880000D02*
X68578000Y-65880000D01*
X63424000Y-65840000D02*
X64960000Y-65840000D01*
X67040000Y-65840000D02*
X68576000Y-65840000D01*
X63427000Y-65800000D02*
X64960000Y-65800000D01*
X67040000Y-65800000D02*
X68573000Y-65800000D01*
X63431000Y-65760000D02*
X64960000Y-65760000D01*
X67040000Y-65760000D02*
X68569000Y-65760000D01*
X63435000Y-65720000D02*
X64960000Y-65720000D01*
X67040000Y-65720000D02*
X68565000Y-65720000D01*
X63439000Y-65680000D02*
X64960000Y-65680000D01*
X67040000Y-65680000D02*
X68561000Y-65680000D01*
X63444000Y-65640000D02*
X64960000Y-65640000D01*
X67040000Y-65640000D02*
X68556000Y-65640000D01*
X63450000Y-65600000D02*
X64960000Y-65600000D01*
X67040000Y-65600000D02*
X68550000Y-65600000D01*
X63457000Y-65560000D02*
X64960000Y-65560000D01*
X67040000Y-65560000D02*
X68543000Y-65560000D01*
X63464000Y-65520000D02*
X64960000Y-65520000D01*
X67040000Y-65520000D02*
X68536000Y-65520000D01*
X63472000Y-65480000D02*
X64960000Y-65480000D01*
X67040000Y-65480000D02*
X68528000Y-65480000D01*
X63480000Y-65440000D02*
X64960000Y-65440000D01*
X67040000Y-65440000D02*
X68520000Y-65440000D01*
X63489000Y-65400000D02*
X64960000Y-65400000D01*
X67040000Y-65400000D02*
X68511000Y-65400000D01*
X63499000Y-65360000D02*
X64960000Y-65360000D01*
X67040000Y-65360000D02*
X68501000Y-65360000D01*
X63509000Y-65320000D02*
X64960000Y-65320000D01*
X67040000Y-65320000D02*
X68491000Y-65320000D01*
X63520000Y-65279000D02*
X64960000Y-65279000D01*
X67040000Y-65279000D02*
X68480000Y-65279000D01*
X63532000Y-65239000D02*
X64960000Y-65239000D01*
X67040000Y-65239000D02*
X68468000Y-65239000D01*
X63545000Y-65199000D02*
X64960000Y-65199000D01*
X67040000Y-65199000D02*
X68455000Y-65199000D01*
X63558000Y-65159000D02*
X64960000Y-65159000D01*
X67040000Y-65159000D02*
X68442000Y-65159000D01*
X63572000Y-65119000D02*
X64960000Y-65119000D01*
X67040000Y-65119000D02*
X68428000Y-65119000D01*
X63586000Y-65079000D02*
X64960000Y-65079000D01*
X67040000Y-65079000D02*
X68414000Y-65079000D01*
X63602000Y-65039000D02*
X64960000Y-65039000D01*
X67040000Y-65039000D02*
X68398000Y-65039000D01*
X63618000Y-64999000D02*
X64960000Y-64999000D01*
X67040000Y-64999000D02*
X68382000Y-64999000D01*
X63635000Y-64959000D02*
X64960000Y-64959000D01*
X67040000Y-64959000D02*
X68365000Y-64959000D01*
X63652000Y-64919000D02*
X64960000Y-64919000D01*
X67040000Y-64919000D02*
X68348000Y-64919000D01*
X63671000Y-64879000D02*
X64960000Y-64879000D01*
X67040000Y-64879000D02*
X68329000Y-64879000D01*
X63690000Y-64839000D02*
X64960000Y-64839000D01*
X67040000Y-64839000D02*
X68310000Y-64839000D01*
X63710000Y-64799000D02*
X64960000Y-64799000D01*
X67040000Y-64799000D02*
X68290000Y-64799000D01*
X63732000Y-64759000D02*
X64960000Y-64759000D01*
X67040000Y-64759000D02*
X68268000Y-64759000D01*
X63753000Y-64719000D02*
X64960000Y-64719000D01*
X67040000Y-64719000D02*
X68247000Y-64719000D01*
X63776000Y-64679000D02*
X64960000Y-64679000D01*
X67040000Y-64679000D02*
X68224000Y-64679000D01*
X63800000Y-64639000D02*
X64960000Y-64639000D01*
X67040000Y-64639000D02*
X68200000Y-64639000D01*
X63825000Y-64599000D02*
X64960000Y-64599000D01*
X67040000Y-64599000D02*
X68175000Y-64599000D01*
X63851000Y-64559000D02*
X64960000Y-64559000D01*
X67040000Y-64559000D02*
X68149000Y-64559000D01*
X63878000Y-64519000D02*
X64960000Y-64519000D01*
X67040000Y-64519000D02*
X68122000Y-64519000D01*
X63905000Y-64479000D02*
X64960000Y-64479000D01*
X67040000Y-64479000D02*
X68095000Y-64479000D01*
X63935000Y-64439000D02*
X64960000Y-64439000D01*
X67040000Y-64439000D02*
X68065000Y-64439000D01*
X63965000Y-64399000D02*
X64960000Y-64399000D01*
X67040000Y-64399000D02*
X68035000Y-64399000D01*
X63996000Y-64359000D02*
X64960000Y-64359000D01*
X67040000Y-64359000D02*
X68004000Y-64359000D01*
X64029000Y-64319000D02*
X64960000Y-64319000D01*
X67040000Y-64319000D02*
X67971000Y-64319000D01*
X64063000Y-64279000D02*
X64960000Y-64279000D01*
X67040000Y-64279000D02*
X67937000Y-64279000D01*
X64099000Y-64239000D02*
X64960000Y-64239000D01*
X67040000Y-64239000D02*
X67901000Y-64239000D01*
X64136000Y-64199000D02*
X64960000Y-64199000D01*
X67040000Y-64199000D02*
X67864000Y-64199000D01*
X64174000Y-64159000D02*
X64960000Y-64159000D01*
X67040000Y-64159000D02*
X67826000Y-64159000D01*
X64215000Y-64119000D02*
X64960000Y-64119000D01*
X67040000Y-64119000D02*
X67785000Y-64119000D01*
X64257000Y-64079000D02*
X64960000Y-64079000D01*
X67040000Y-64079000D02*
X67743000Y-64079000D01*
X64301000Y-64039000D02*
X64960000Y-64039000D01*
X67040000Y-64039000D02*
X67699000Y-64039000D01*
X64347000Y-63999000D02*
X64960000Y-63999000D01*
X67040000Y-63999000D02*
X67653000Y-63999000D01*
X64395000Y-63959000D02*
X67605000Y-63959000D01*
X64446000Y-63919000D02*
X67554000Y-63919000D01*
X64500000Y-63879000D02*
X67500000Y-63879000D01*
X64557000Y-63839000D02*
X67443000Y-63839000D01*
X64617000Y-63799000D02*
X67383000Y-63799000D01*
X64681000Y-63759000D02*
X67319000Y-63759000D01*
X64749000Y-63719000D02*
X67251000Y-63719000D01*
X64822000Y-63679000D02*
X67178000Y-63679000D01*
X64902000Y-63639000D02*
X67098000Y-63639000D01*
X64989000Y-63599000D02*
X67011000Y-63599000D01*
X65085000Y-63559000D02*
X66915000Y-63559000D01*
X65195000Y-63519000D02*
X66805000Y-63519000D01*
X65323000Y-63479000D02*
X66677000Y-63479000D01*
X65482000Y-63439000D02*
X66518000Y-63439000D01*
X65716000Y-63399000D02*
X66284000Y-63399000D01*
X64525000Y-68804775D02*
X64525000Y-68304775D01*
X64275000Y-68554775D02*
X64775000Y-68554775D01*
%TO.C,C4*%
X71080000Y-102621000D02*
X71080000Y-103879000D01*
X72920000Y-102621000D02*
X72920000Y-103879000D01*
%TO.C,C5*%
X63080000Y-113121000D02*
X63080000Y-114379000D01*
X64920000Y-113121000D02*
X64920000Y-114379000D01*
%TO.C,C6*%
X60420000Y-104621000D02*
X60420000Y-105879000D01*
X58580000Y-104621000D02*
X58580000Y-105879000D01*
%TO.C,C7*%
X68420000Y-92121000D02*
X68420000Y-93379000D01*
X66580000Y-92121000D02*
X66580000Y-93379000D01*
%TO.C,C9*%
X59621000Y-71580000D02*
X60879000Y-71580000D01*
X59621000Y-73420000D02*
X60879000Y-73420000D01*
%TO.C,C10*%
X64621000Y-73420000D02*
X65879000Y-73420000D01*
X64621000Y-71580000D02*
X65879000Y-71580000D01*
%TO.C,FB1*%
X52460000Y-69460000D02*
X52130000Y-69460000D01*
X52130000Y-69460000D02*
X52130000Y-62920000D01*
X52130000Y-62920000D02*
X52460000Y-62920000D01*
X54540000Y-69460000D02*
X54870000Y-69460000D01*
X54870000Y-69460000D02*
X54870000Y-62920000D01*
X54870000Y-62920000D02*
X54540000Y-62920000D01*
%TO.C,J1*%
X52060001Y-51589999D02*
X72920001Y-51589999D01*
X72920001Y-51589999D02*
X72920001Y-60939999D01*
X72920001Y-60939999D02*
X52060001Y-60939999D01*
X52060001Y-60939999D02*
X52060001Y-51589999D01*
X52310001Y-60684999D02*
X52310001Y-51834999D01*
X52310001Y-51834999D02*
X72660001Y-51834999D01*
X72660001Y-51834999D02*
X72660001Y-60684999D01*
X72660001Y-60684999D02*
X52310001Y-60684999D01*
X52310001Y-60684999D02*
X52860001Y-60134999D01*
X52860001Y-60134999D02*
X52860001Y-52384999D01*
X52860001Y-52384999D02*
X52310001Y-51834999D01*
X52860001Y-52384999D02*
X72110001Y-52384999D01*
X72110001Y-52384999D02*
X72660001Y-51834999D01*
X72110001Y-52384999D02*
X72110001Y-60134999D01*
X72110001Y-60134999D02*
X72610001Y-60634999D01*
X72110001Y-60134999D02*
X64760001Y-60134999D01*
X64740001Y-60134999D02*
X64740001Y-60644999D01*
X60240001Y-60634999D02*
X60240001Y-60154999D01*
X60240001Y-60134999D02*
X52860001Y-60134999D01*
%TO.C,R1*%
X60580000Y-131370000D02*
X60580000Y-131040000D01*
X54040000Y-131370000D02*
X60580000Y-131370000D01*
X54040000Y-131040000D02*
X54040000Y-131370000D01*
X60580000Y-128630000D02*
X60580000Y-128960000D01*
X54040000Y-128630000D02*
X60580000Y-128630000D01*
X54040000Y-128960000D02*
X54040000Y-128630000D01*
%TO.C,R2*%
X65540000Y-128960000D02*
X65540000Y-128630000D01*
X65540000Y-128630000D02*
X72080000Y-128630000D01*
X72080000Y-128630000D02*
X72080000Y-128960000D01*
X65540000Y-131040000D02*
X65540000Y-131370000D01*
X65540000Y-131370000D02*
X72080000Y-131370000D01*
X72080000Y-131370000D02*
X72080000Y-131040000D01*
%TO.C,R3*%
X60540000Y-124960000D02*
X60540000Y-124630000D01*
X60540000Y-124630000D02*
X67080000Y-124630000D01*
X67080000Y-124630000D02*
X67080000Y-124960000D01*
X60540000Y-127040000D02*
X60540000Y-127370000D01*
X60540000Y-127370000D02*
X67080000Y-127370000D01*
X67080000Y-127370000D02*
X67080000Y-127040000D01*
%TO.C,R4*%
X64130000Y-82580000D02*
X64460000Y-82580000D01*
X64130000Y-76040000D02*
X64130000Y-82580000D01*
X64460000Y-76040000D02*
X64130000Y-76040000D01*
X66870000Y-82580000D02*
X66540000Y-82580000D01*
X66870000Y-76040000D02*
X66870000Y-82580000D01*
X66540000Y-76040000D02*
X66870000Y-76040000D01*
%TO.C,R5*%
X69630000Y-126080000D02*
X69960000Y-126080000D01*
X69630000Y-119540000D02*
X69630000Y-126080000D01*
X69960000Y-119540000D02*
X69630000Y-119540000D01*
X72370000Y-126080000D02*
X72040000Y-126080000D01*
X72370000Y-119540000D02*
X72370000Y-126080000D01*
X72040000Y-119540000D02*
X72370000Y-119540000D01*
%TO.C,R6*%
X56540000Y-119040000D02*
X56870000Y-119040000D01*
X56870000Y-119040000D02*
X56870000Y-125580000D01*
X56870000Y-125580000D02*
X56540000Y-125580000D01*
X54460000Y-119040000D02*
X54130000Y-119040000D01*
X54130000Y-119040000D02*
X54130000Y-125580000D01*
X54130000Y-125580000D02*
X54460000Y-125580000D01*
%TO.C,R7*%
X66130000Y-104080000D02*
X66460000Y-104080000D01*
X66130000Y-97540000D02*
X66130000Y-104080000D01*
X66460000Y-97540000D02*
X66130000Y-97540000D01*
X68870000Y-104080000D02*
X68540000Y-104080000D01*
X68870000Y-97540000D02*
X68870000Y-104080000D01*
X68540000Y-97540000D02*
X68870000Y-97540000D01*
%TO.C,R8*%
X73040000Y-90540000D02*
X73370000Y-90540000D01*
X73370000Y-90540000D02*
X73370000Y-97080000D01*
X73370000Y-97080000D02*
X73040000Y-97080000D01*
X70960000Y-90540000D02*
X70630000Y-90540000D01*
X70630000Y-90540000D02*
X70630000Y-97080000D01*
X70630000Y-97080000D02*
X70960000Y-97080000D01*
%TO.C,R9*%
X62630000Y-109580000D02*
X62960000Y-109580000D01*
X62630000Y-103040000D02*
X62630000Y-109580000D01*
X62960000Y-103040000D02*
X62630000Y-103040000D01*
X65370000Y-109580000D02*
X65040000Y-109580000D01*
X65370000Y-103040000D02*
X65370000Y-109580000D01*
X65040000Y-103040000D02*
X65370000Y-103040000D01*
%TO.C,U1*%
X62560000Y-75110000D02*
X52060000Y-75110000D01*
X62560000Y-85510000D02*
X62560000Y-75110000D01*
X52060000Y-85510000D02*
X62560000Y-85510000D01*
X52060000Y-75110000D02*
X52060000Y-85510000D01*
X59560000Y-75170000D02*
X58310000Y-75170000D01*
X59560000Y-85450000D02*
X59560000Y-75170000D01*
X55060000Y-85450000D02*
X59560000Y-85450000D01*
X55060000Y-75170000D02*
X55060000Y-85450000D01*
X56310000Y-75170000D02*
X55060000Y-75170000D01*
X58310000Y-75170000D02*
G75*
G02*
X56310000Y-75170000I-1000000J0D01*
G01*
%TO.C,FB2*%
D14*
X69414428Y-66815000D02*
X69414428Y-67065000D01*
X69807285Y-67065000D02*
X69057285Y-67065000D01*
X69057285Y-66707857D01*
X69414428Y-66172142D02*
X69450142Y-66065000D01*
X69485857Y-66029285D01*
X69557285Y-65993571D01*
X69664428Y-65993571D01*
X69735857Y-66029285D01*
X69771571Y-66065000D01*
X69807285Y-66136428D01*
X69807285Y-66422142D01*
X69057285Y-66422142D01*
X69057285Y-66172142D01*
X69093000Y-66100714D01*
X69128714Y-66065000D01*
X69200142Y-66029285D01*
X69271571Y-66029285D01*
X69343000Y-66065000D01*
X69378714Y-66100714D01*
X69414428Y-66172142D01*
X69414428Y-66422142D01*
X69128714Y-65707857D02*
X69093000Y-65672142D01*
X69057285Y-65600714D01*
X69057285Y-65422142D01*
X69093000Y-65350714D01*
X69128714Y-65315000D01*
X69200142Y-65279285D01*
X69271571Y-65279285D01*
X69378714Y-65315000D01*
X69807285Y-65743571D01*
X69807285Y-65279285D01*
X71446428Y-68957857D02*
X71446428Y-69207857D01*
X71839285Y-69207857D02*
X71089285Y-69207857D01*
X71089285Y-68850714D01*
X71803571Y-68279285D02*
X71839285Y-68350714D01*
X71839285Y-68493571D01*
X71803571Y-68565000D01*
X71732142Y-68600714D01*
X71446428Y-68600714D01*
X71375000Y-68565000D01*
X71339285Y-68493571D01*
X71339285Y-68350714D01*
X71375000Y-68279285D01*
X71446428Y-68243571D01*
X71517857Y-68243571D01*
X71589285Y-68600714D01*
X71839285Y-67922142D02*
X71339285Y-67922142D01*
X71482142Y-67922142D02*
X71410714Y-67886428D01*
X71375000Y-67850714D01*
X71339285Y-67779285D01*
X71339285Y-67707857D01*
X71839285Y-67457857D02*
X71339285Y-67457857D01*
X71482142Y-67457857D02*
X71410714Y-67422142D01*
X71375000Y-67386428D01*
X71339285Y-67315000D01*
X71339285Y-67243571D01*
X71839285Y-66993571D02*
X71339285Y-66993571D01*
X71089285Y-66993571D02*
X71125000Y-67029285D01*
X71160714Y-66993571D01*
X71125000Y-66957857D01*
X71089285Y-66993571D01*
X71160714Y-66993571D01*
X71339285Y-66743571D02*
X71339285Y-66457857D01*
X71089285Y-66636428D02*
X71732142Y-66636428D01*
X71803571Y-66600714D01*
X71839285Y-66529285D01*
X71839285Y-66457857D01*
X71803571Y-65922142D02*
X71839285Y-65993571D01*
X71839285Y-66136428D01*
X71803571Y-66207857D01*
X71732142Y-66243571D01*
X71446428Y-66243571D01*
X71375000Y-66207857D01*
X71339285Y-66136428D01*
X71339285Y-65993571D01*
X71375000Y-65922142D01*
X71446428Y-65886428D01*
X71517857Y-65886428D01*
X71589285Y-66243571D01*
X71446428Y-65315000D02*
X71482142Y-65207857D01*
X71517857Y-65172142D01*
X71589285Y-65136428D01*
X71696428Y-65136428D01*
X71767857Y-65172142D01*
X71803571Y-65207857D01*
X71839285Y-65279285D01*
X71839285Y-65565000D01*
X71089285Y-65565000D01*
X71089285Y-65315000D01*
X71125000Y-65243571D01*
X71160714Y-65207857D01*
X71232142Y-65172142D01*
X71303571Y-65172142D01*
X71375000Y-65207857D01*
X71410714Y-65243571D01*
X71446428Y-65315000D01*
X71446428Y-65565000D01*
X71803571Y-64529285D02*
X71839285Y-64600714D01*
X71839285Y-64743571D01*
X71803571Y-64815000D01*
X71732142Y-64850714D01*
X71446428Y-64850714D01*
X71375000Y-64815000D01*
X71339285Y-64743571D01*
X71339285Y-64600714D01*
X71375000Y-64529285D01*
X71446428Y-64493571D01*
X71517857Y-64493571D01*
X71589285Y-64850714D01*
X71839285Y-63850714D02*
X71446428Y-63850714D01*
X71375000Y-63886428D01*
X71339285Y-63957857D01*
X71339285Y-64100714D01*
X71375000Y-64172142D01*
X71803571Y-63850714D02*
X71839285Y-63922142D01*
X71839285Y-64100714D01*
X71803571Y-64172142D01*
X71732142Y-64207857D01*
X71660714Y-64207857D01*
X71589285Y-64172142D01*
X71553571Y-64100714D01*
X71553571Y-63922142D01*
X71517857Y-63850714D01*
X71839285Y-63172142D02*
X71089285Y-63172142D01*
X71803571Y-63172142D02*
X71839285Y-63243571D01*
X71839285Y-63386428D01*
X71803571Y-63457857D01*
X71767857Y-63493571D01*
X71696428Y-63529285D01*
X71482142Y-63529285D01*
X71410714Y-63493571D01*
X71375000Y-63457857D01*
X71339285Y-63386428D01*
X71339285Y-63243571D01*
X71375000Y-63172142D01*
%TO.C,C8*%
X52875000Y-100767857D02*
X52839285Y-100803571D01*
X52732142Y-100839285D01*
X52660714Y-100839285D01*
X52553571Y-100803571D01*
X52482142Y-100732142D01*
X52446428Y-100660714D01*
X52410714Y-100517857D01*
X52410714Y-100410714D01*
X52446428Y-100267857D01*
X52482142Y-100196428D01*
X52553571Y-100125000D01*
X52660714Y-100089285D01*
X52732142Y-100089285D01*
X52839285Y-100125000D01*
X52875000Y-100160714D01*
X53303571Y-100410714D02*
X53232142Y-100375000D01*
X53196428Y-100339285D01*
X53160714Y-100267857D01*
X53160714Y-100232142D01*
X53196428Y-100160714D01*
X53232142Y-100125000D01*
X53303571Y-100089285D01*
X53446428Y-100089285D01*
X53517857Y-100125000D01*
X53553571Y-100160714D01*
X53589285Y-100232142D01*
X53589285Y-100267857D01*
X53553571Y-100339285D01*
X53517857Y-100375000D01*
X53446428Y-100410714D01*
X53303571Y-100410714D01*
X53232142Y-100446428D01*
X53196428Y-100482142D01*
X53160714Y-100553571D01*
X53160714Y-100696428D01*
X53196428Y-100767857D01*
X53232142Y-100803571D01*
X53303571Y-100839285D01*
X53446428Y-100839285D01*
X53517857Y-100803571D01*
X53553571Y-100767857D01*
X53589285Y-100696428D01*
X53589285Y-100553571D01*
X53553571Y-100482142D01*
X53517857Y-100446428D01*
X53446428Y-100410714D01*
X56303571Y-100839285D02*
X55875000Y-100839285D01*
X56089285Y-100839285D02*
X56089285Y-100089285D01*
X56017857Y-100196428D01*
X55946428Y-100267857D01*
X55875000Y-100303571D01*
X56767857Y-100089285D02*
X56839285Y-100089285D01*
X56910714Y-100125000D01*
X56946428Y-100160714D01*
X56982142Y-100232142D01*
X57017857Y-100375000D01*
X57017857Y-100553571D01*
X56982142Y-100696428D01*
X56946428Y-100767857D01*
X56910714Y-100803571D01*
X56839285Y-100839285D01*
X56767857Y-100839285D01*
X56696428Y-100803571D01*
X56660714Y-100767857D01*
X56625000Y-100696428D01*
X56589285Y-100553571D01*
X56589285Y-100375000D01*
X56625000Y-100232142D01*
X56660714Y-100160714D01*
X56696428Y-100125000D01*
X56767857Y-100089285D01*
X57660714Y-100339285D02*
X57660714Y-100839285D01*
X57339285Y-100339285D02*
X57339285Y-100732142D01*
X57375000Y-100803571D01*
X57446428Y-100839285D01*
X57553571Y-100839285D01*
X57625000Y-100803571D01*
X57660714Y-100767857D01*
X57910714Y-100339285D02*
X58196428Y-100339285D01*
X58017857Y-100839285D02*
X58017857Y-100196428D01*
X58053571Y-100125000D01*
X58125000Y-100089285D01*
X58196428Y-100089285D01*
%TO.C,C1*%
X60875000Y-133767857D02*
X60839285Y-133803571D01*
X60732142Y-133839285D01*
X60660714Y-133839285D01*
X60553571Y-133803571D01*
X60482142Y-133732142D01*
X60446428Y-133660714D01*
X60410714Y-133517857D01*
X60410714Y-133410714D01*
X60446428Y-133267857D01*
X60482142Y-133196428D01*
X60553571Y-133125000D01*
X60660714Y-133089285D01*
X60732142Y-133089285D01*
X60839285Y-133125000D01*
X60875000Y-133160714D01*
X61589285Y-133839285D02*
X61160714Y-133839285D01*
X61375000Y-133839285D02*
X61375000Y-133089285D01*
X61303571Y-133196428D01*
X61232142Y-133267857D01*
X61160714Y-133303571D01*
X63732142Y-133339285D02*
X63732142Y-133839285D01*
X63553571Y-133053571D02*
X63375000Y-133589285D01*
X63839285Y-133589285D01*
X64053571Y-133089285D02*
X64553571Y-133089285D01*
X64232142Y-133839285D01*
X64839285Y-133339285D02*
X64839285Y-133839285D01*
X64839285Y-133410714D02*
X64875000Y-133375000D01*
X64946428Y-133339285D01*
X65053571Y-133339285D01*
X65125000Y-133375000D01*
X65160714Y-133446428D01*
X65160714Y-133839285D01*
X65410714Y-133339285D02*
X65696428Y-133339285D01*
X65517857Y-133839285D02*
X65517857Y-133196428D01*
X65553571Y-133125000D01*
X65625000Y-133089285D01*
X65696428Y-133089285D01*
%TO.C,C2*%
X56267857Y-68125000D02*
X56303571Y-68160714D01*
X56339285Y-68267857D01*
X56339285Y-68339285D01*
X56303571Y-68446428D01*
X56232142Y-68517857D01*
X56160714Y-68553571D01*
X56017857Y-68589285D01*
X55910714Y-68589285D01*
X55767857Y-68553571D01*
X55696428Y-68517857D01*
X55625000Y-68446428D01*
X55589285Y-68339285D01*
X55589285Y-68267857D01*
X55625000Y-68160714D01*
X55660714Y-68125000D01*
X55660714Y-67839285D02*
X55625000Y-67803571D01*
X55589285Y-67732142D01*
X55589285Y-67553571D01*
X55625000Y-67482142D01*
X55660714Y-67446428D01*
X55732142Y-67410714D01*
X55803571Y-67410714D01*
X55910714Y-67446428D01*
X56339285Y-67875000D01*
X56339285Y-67410714D01*
X56339285Y-64696428D02*
X56339285Y-65125000D01*
X56339285Y-64910714D02*
X55589285Y-64910714D01*
X55696428Y-64982142D01*
X55767857Y-65053571D01*
X55803571Y-65125000D01*
X55589285Y-64232142D02*
X55589285Y-64160714D01*
X55625000Y-64089285D01*
X55660714Y-64053571D01*
X55732142Y-64017857D01*
X55875000Y-63982142D01*
X56053571Y-63982142D01*
X56196428Y-64017857D01*
X56267857Y-64053571D01*
X56303571Y-64089285D01*
X56339285Y-64160714D01*
X56339285Y-64232142D01*
X56303571Y-64303571D01*
X56267857Y-64339285D01*
X56196428Y-64375000D01*
X56053571Y-64410714D01*
X55875000Y-64410714D01*
X55732142Y-64375000D01*
X55660714Y-64339285D01*
X55625000Y-64303571D01*
X55589285Y-64232142D01*
X55839285Y-63339285D02*
X56339285Y-63339285D01*
X55839285Y-63660714D02*
X56232142Y-63660714D01*
X56303571Y-63625000D01*
X56339285Y-63553571D01*
X56339285Y-63446428D01*
X56303571Y-63375000D01*
X56267857Y-63339285D01*
X55839285Y-63089285D02*
X55839285Y-62803571D01*
X56339285Y-62982142D02*
X55696428Y-62982142D01*
X55625000Y-62946428D01*
X55589285Y-62875000D01*
X55589285Y-62803571D01*
%TO.C,C3*%
X62767857Y-68125000D02*
X62803571Y-68160714D01*
X62839285Y-68267857D01*
X62839285Y-68339285D01*
X62803571Y-68446428D01*
X62732142Y-68517857D01*
X62660714Y-68553571D01*
X62517857Y-68589285D01*
X62410714Y-68589285D01*
X62267857Y-68553571D01*
X62196428Y-68517857D01*
X62125000Y-68446428D01*
X62089285Y-68339285D01*
X62089285Y-68267857D01*
X62125000Y-68160714D01*
X62160714Y-68125000D01*
X62089285Y-67875000D02*
X62089285Y-67410714D01*
X62375000Y-67660714D01*
X62375000Y-67553571D01*
X62410714Y-67482142D01*
X62446428Y-67446428D01*
X62517857Y-67410714D01*
X62696428Y-67410714D01*
X62767857Y-67446428D01*
X62803571Y-67482142D01*
X62839285Y-67553571D01*
X62839285Y-67767857D01*
X62803571Y-67839285D01*
X62767857Y-67875000D01*
X62839285Y-64696428D02*
X62839285Y-65125000D01*
X62839285Y-64910714D02*
X62089285Y-64910714D01*
X62196428Y-64982142D01*
X62267857Y-65053571D01*
X62303571Y-65125000D01*
X62089285Y-64232142D02*
X62089285Y-64160714D01*
X62125000Y-64089285D01*
X62160714Y-64053571D01*
X62232142Y-64017857D01*
X62375000Y-63982142D01*
X62553571Y-63982142D01*
X62696428Y-64017857D01*
X62767857Y-64053571D01*
X62803571Y-64089285D01*
X62839285Y-64160714D01*
X62839285Y-64232142D01*
X62803571Y-64303571D01*
X62767857Y-64339285D01*
X62696428Y-64375000D01*
X62553571Y-64410714D01*
X62375000Y-64410714D01*
X62232142Y-64375000D01*
X62160714Y-64339285D01*
X62125000Y-64303571D01*
X62089285Y-64232142D01*
X62339285Y-63339285D02*
X62839285Y-63339285D01*
X62339285Y-63660714D02*
X62732142Y-63660714D01*
X62803571Y-63625000D01*
X62839285Y-63553571D01*
X62839285Y-63446428D01*
X62803571Y-63375000D01*
X62767857Y-63339285D01*
X62339285Y-63089285D02*
X62339285Y-62803571D01*
X62839285Y-62982142D02*
X62196428Y-62982142D01*
X62125000Y-62946428D01*
X62089285Y-62875000D01*
X62089285Y-62803571D01*
%TO.C,C4*%
X74267857Y-101625000D02*
X74303571Y-101660714D01*
X74339285Y-101767857D01*
X74339285Y-101839285D01*
X74303571Y-101946428D01*
X74232142Y-102017857D01*
X74160714Y-102053571D01*
X74017857Y-102089285D01*
X73910714Y-102089285D01*
X73767857Y-102053571D01*
X73696428Y-102017857D01*
X73625000Y-101946428D01*
X73589285Y-101839285D01*
X73589285Y-101767857D01*
X73625000Y-101660714D01*
X73660714Y-101625000D01*
X73839285Y-100982142D02*
X74339285Y-100982142D01*
X73553571Y-101160714D02*
X74089285Y-101339285D01*
X74089285Y-100875000D01*
X73660714Y-106125000D02*
X73625000Y-106089285D01*
X73589285Y-106017857D01*
X73589285Y-105839285D01*
X73625000Y-105767857D01*
X73660714Y-105732142D01*
X73732142Y-105696428D01*
X73803571Y-105696428D01*
X73910714Y-105732142D01*
X74339285Y-106160714D01*
X74339285Y-105696428D01*
X73660714Y-105410714D02*
X73625000Y-105375000D01*
X73589285Y-105303571D01*
X73589285Y-105125000D01*
X73625000Y-105053571D01*
X73660714Y-105017857D01*
X73732142Y-104982142D01*
X73803571Y-104982142D01*
X73910714Y-105017857D01*
X74339285Y-105446428D01*
X74339285Y-104982142D01*
X73839285Y-104660714D02*
X74339285Y-104660714D01*
X73910714Y-104660714D02*
X73875000Y-104625000D01*
X73839285Y-104553571D01*
X73839285Y-104446428D01*
X73875000Y-104375000D01*
X73946428Y-104339285D01*
X74339285Y-104339285D01*
X73839285Y-104089285D02*
X73839285Y-103803571D01*
X74339285Y-103982142D02*
X73696428Y-103982142D01*
X73625000Y-103946428D01*
X73589285Y-103875000D01*
X73589285Y-103803571D01*
%TO.C,C5*%
X66267857Y-112125000D02*
X66303571Y-112160714D01*
X66339285Y-112267857D01*
X66339285Y-112339285D01*
X66303571Y-112446428D01*
X66232142Y-112517857D01*
X66160714Y-112553571D01*
X66017857Y-112589285D01*
X65910714Y-112589285D01*
X65767857Y-112553571D01*
X65696428Y-112517857D01*
X65625000Y-112446428D01*
X65589285Y-112339285D01*
X65589285Y-112267857D01*
X65625000Y-112160714D01*
X65660714Y-112125000D01*
X65589285Y-111446428D02*
X65589285Y-111803571D01*
X65946428Y-111839285D01*
X65910714Y-111803571D01*
X65875000Y-111732142D01*
X65875000Y-111553571D01*
X65910714Y-111482142D01*
X65946428Y-111446428D01*
X66017857Y-111410714D01*
X66196428Y-111410714D01*
X66267857Y-111446428D01*
X66303571Y-111482142D01*
X66339285Y-111553571D01*
X66339285Y-111732142D01*
X66303571Y-111803571D01*
X66267857Y-111839285D01*
X65839285Y-116446428D02*
X66339285Y-116446428D01*
X65553571Y-116625000D02*
X66089285Y-116803571D01*
X66089285Y-116339285D01*
X66267857Y-116053571D02*
X66303571Y-116017857D01*
X66339285Y-116053571D01*
X66303571Y-116089285D01*
X66267857Y-116053571D01*
X66339285Y-116053571D01*
X65589285Y-115767857D02*
X65589285Y-115267857D01*
X66339285Y-115589285D01*
X65839285Y-114982142D02*
X66339285Y-114982142D01*
X65910714Y-114982142D02*
X65875000Y-114946428D01*
X65839285Y-114875000D01*
X65839285Y-114767857D01*
X65875000Y-114696428D01*
X65946428Y-114660714D01*
X66339285Y-114660714D01*
X65839285Y-114410714D02*
X65839285Y-114125000D01*
X66339285Y-114303571D02*
X65696428Y-114303571D01*
X65625000Y-114267857D01*
X65589285Y-114196428D01*
X65589285Y-114125000D01*
%TO.C,C6*%
X61767857Y-103625000D02*
X61803571Y-103660714D01*
X61839285Y-103767857D01*
X61839285Y-103839285D01*
X61803571Y-103946428D01*
X61732142Y-104017857D01*
X61660714Y-104053571D01*
X61517857Y-104089285D01*
X61410714Y-104089285D01*
X61267857Y-104053571D01*
X61196428Y-104017857D01*
X61125000Y-103946428D01*
X61089285Y-103839285D01*
X61089285Y-103767857D01*
X61125000Y-103660714D01*
X61160714Y-103625000D01*
X61089285Y-102982142D02*
X61089285Y-103125000D01*
X61125000Y-103196428D01*
X61160714Y-103232142D01*
X61267857Y-103303571D01*
X61410714Y-103339285D01*
X61696428Y-103339285D01*
X61767857Y-103303571D01*
X61803571Y-103267857D01*
X61839285Y-103196428D01*
X61839285Y-103053571D01*
X61803571Y-102982142D01*
X61767857Y-102946428D01*
X61696428Y-102910714D01*
X61517857Y-102910714D01*
X61446428Y-102946428D01*
X61410714Y-102982142D01*
X61375000Y-103053571D01*
X61375000Y-103196428D01*
X61410714Y-103267857D01*
X61446428Y-103303571D01*
X61517857Y-103339285D01*
X61339285Y-107767857D02*
X61839285Y-107767857D01*
X61053571Y-107946428D02*
X61589285Y-108125000D01*
X61589285Y-107660714D01*
X61089285Y-107446428D02*
X61089285Y-106946428D01*
X61839285Y-107267857D01*
X61339285Y-106660714D02*
X61839285Y-106660714D01*
X61410714Y-106660714D02*
X61375000Y-106625000D01*
X61339285Y-106553571D01*
X61339285Y-106446428D01*
X61375000Y-106375000D01*
X61446428Y-106339285D01*
X61839285Y-106339285D01*
X61339285Y-106089285D02*
X61339285Y-105803571D01*
X61839285Y-105982142D02*
X61196428Y-105982142D01*
X61125000Y-105946428D01*
X61089285Y-105875000D01*
X61089285Y-105803571D01*
%TO.C,C7*%
X69767857Y-91125000D02*
X69803571Y-91160714D01*
X69839285Y-91267857D01*
X69839285Y-91339285D01*
X69803571Y-91446428D01*
X69732142Y-91517857D01*
X69660714Y-91553571D01*
X69517857Y-91589285D01*
X69410714Y-91589285D01*
X69267857Y-91553571D01*
X69196428Y-91517857D01*
X69125000Y-91446428D01*
X69089285Y-91339285D01*
X69089285Y-91267857D01*
X69125000Y-91160714D01*
X69160714Y-91125000D01*
X69089285Y-90875000D02*
X69089285Y-90375000D01*
X69839285Y-90696428D01*
X69839285Y-95196428D02*
X69839285Y-95625000D01*
X69839285Y-95410714D02*
X69089285Y-95410714D01*
X69196428Y-95482142D01*
X69267857Y-95553571D01*
X69303571Y-95625000D01*
X69089285Y-94732142D02*
X69089285Y-94660714D01*
X69125000Y-94589285D01*
X69160714Y-94553571D01*
X69232142Y-94517857D01*
X69375000Y-94482142D01*
X69553571Y-94482142D01*
X69696428Y-94517857D01*
X69767857Y-94553571D01*
X69803571Y-94589285D01*
X69839285Y-94660714D01*
X69839285Y-94732142D01*
X69803571Y-94803571D01*
X69767857Y-94839285D01*
X69696428Y-94875000D01*
X69553571Y-94910714D01*
X69375000Y-94910714D01*
X69232142Y-94875000D01*
X69160714Y-94839285D01*
X69125000Y-94803571D01*
X69089285Y-94732142D01*
X69339285Y-94160714D02*
X69839285Y-94160714D01*
X69410714Y-94160714D02*
X69375000Y-94125000D01*
X69339285Y-94053571D01*
X69339285Y-93946428D01*
X69375000Y-93875000D01*
X69446428Y-93839285D01*
X69839285Y-93839285D01*
X69339285Y-93589285D02*
X69339285Y-93303571D01*
X69839285Y-93482142D02*
X69196428Y-93482142D01*
X69125000Y-93446428D01*
X69089285Y-93375000D01*
X69089285Y-93303571D01*
%TO.C,C9*%
X60946428Y-70839285D02*
X60517857Y-70839285D01*
X60732142Y-70839285D02*
X60732142Y-70089285D01*
X60660714Y-70196428D01*
X60589285Y-70267857D01*
X60517857Y-70303571D01*
X61410714Y-70089285D02*
X61482142Y-70089285D01*
X61553571Y-70125000D01*
X61589285Y-70160714D01*
X61625000Y-70232142D01*
X61660714Y-70375000D01*
X61660714Y-70553571D01*
X61625000Y-70696428D01*
X61589285Y-70767857D01*
X61553571Y-70803571D01*
X61482142Y-70839285D01*
X61410714Y-70839285D01*
X61339285Y-70803571D01*
X61303571Y-70767857D01*
X61267857Y-70696428D01*
X61232142Y-70553571D01*
X61232142Y-70375000D01*
X61267857Y-70232142D01*
X61303571Y-70160714D01*
X61339285Y-70125000D01*
X61410714Y-70089285D01*
X62125000Y-70089285D02*
X62196428Y-70089285D01*
X62267857Y-70125000D01*
X62303571Y-70160714D01*
X62339285Y-70232142D01*
X62375000Y-70375000D01*
X62375000Y-70553571D01*
X62339285Y-70696428D01*
X62303571Y-70767857D01*
X62267857Y-70803571D01*
X62196428Y-70839285D01*
X62125000Y-70839285D01*
X62053571Y-70803571D01*
X62017857Y-70767857D01*
X61982142Y-70696428D01*
X61946428Y-70553571D01*
X61946428Y-70375000D01*
X61982142Y-70232142D01*
X62017857Y-70160714D01*
X62053571Y-70125000D01*
X62125000Y-70089285D01*
X62696428Y-70339285D02*
X62696428Y-70839285D01*
X62696428Y-70410714D02*
X62732142Y-70375000D01*
X62803571Y-70339285D01*
X62910714Y-70339285D01*
X62982142Y-70375000D01*
X63017857Y-70446428D01*
X63017857Y-70839285D01*
X63267857Y-70339285D02*
X63553571Y-70339285D01*
X63375000Y-70839285D02*
X63375000Y-70196428D01*
X63410714Y-70125000D01*
X63482142Y-70089285D01*
X63553571Y-70089285D01*
%TO.C,C10*%
X65946428Y-70839285D02*
X65517857Y-70839285D01*
X65732142Y-70839285D02*
X65732142Y-70089285D01*
X65660714Y-70196428D01*
X65589285Y-70267857D01*
X65517857Y-70303571D01*
X66410714Y-70089285D02*
X66482142Y-70089285D01*
X66553571Y-70125000D01*
X66589285Y-70160714D01*
X66625000Y-70232142D01*
X66660714Y-70375000D01*
X66660714Y-70553571D01*
X66625000Y-70696428D01*
X66589285Y-70767857D01*
X66553571Y-70803571D01*
X66482142Y-70839285D01*
X66410714Y-70839285D01*
X66339285Y-70803571D01*
X66303571Y-70767857D01*
X66267857Y-70696428D01*
X66232142Y-70553571D01*
X66232142Y-70375000D01*
X66267857Y-70232142D01*
X66303571Y-70160714D01*
X66339285Y-70125000D01*
X66410714Y-70089285D01*
X67125000Y-70089285D02*
X67196428Y-70089285D01*
X67267857Y-70125000D01*
X67303571Y-70160714D01*
X67339285Y-70232142D01*
X67375000Y-70375000D01*
X67375000Y-70553571D01*
X67339285Y-70696428D01*
X67303571Y-70767857D01*
X67267857Y-70803571D01*
X67196428Y-70839285D01*
X67125000Y-70839285D01*
X67053571Y-70803571D01*
X67017857Y-70767857D01*
X66982142Y-70696428D01*
X66946428Y-70553571D01*
X66946428Y-70375000D01*
X66982142Y-70232142D01*
X67017857Y-70160714D01*
X67053571Y-70125000D01*
X67125000Y-70089285D01*
X67696428Y-70339285D02*
X67696428Y-70839285D01*
X67696428Y-70410714D02*
X67732142Y-70375000D01*
X67803571Y-70339285D01*
X67910714Y-70339285D01*
X67982142Y-70375000D01*
X68017857Y-70446428D01*
X68017857Y-70839285D01*
X68267857Y-70339285D02*
X68553571Y-70339285D01*
X68375000Y-70839285D02*
X68375000Y-70196428D01*
X68410714Y-70125000D01*
X68482142Y-70089285D01*
X68553571Y-70089285D01*
%TO.C,FB1*%
X51414428Y-66815000D02*
X51414428Y-67065000D01*
X51807285Y-67065000D02*
X51057285Y-67065000D01*
X51057285Y-66707857D01*
X51414428Y-66172142D02*
X51450142Y-66065000D01*
X51485857Y-66029285D01*
X51557285Y-65993571D01*
X51664428Y-65993571D01*
X51735857Y-66029285D01*
X51771571Y-66065000D01*
X51807285Y-66136428D01*
X51807285Y-66422142D01*
X51057285Y-66422142D01*
X51057285Y-66172142D01*
X51093000Y-66100714D01*
X51128714Y-66065000D01*
X51200142Y-66029285D01*
X51271571Y-66029285D01*
X51343000Y-66065000D01*
X51378714Y-66100714D01*
X51414428Y-66172142D01*
X51414428Y-66422142D01*
X51807285Y-65279285D02*
X51807285Y-65707857D01*
X51807285Y-65493571D02*
X51057285Y-65493571D01*
X51164428Y-65565000D01*
X51235857Y-65636428D01*
X51271571Y-65707857D01*
X53446428Y-68957857D02*
X53446428Y-69207857D01*
X53839285Y-69207857D02*
X53089285Y-69207857D01*
X53089285Y-68850714D01*
X53803571Y-68279285D02*
X53839285Y-68350714D01*
X53839285Y-68493571D01*
X53803571Y-68565000D01*
X53732142Y-68600714D01*
X53446428Y-68600714D01*
X53375000Y-68565000D01*
X53339285Y-68493571D01*
X53339285Y-68350714D01*
X53375000Y-68279285D01*
X53446428Y-68243571D01*
X53517857Y-68243571D01*
X53589285Y-68600714D01*
X53839285Y-67922142D02*
X53339285Y-67922142D01*
X53482142Y-67922142D02*
X53410714Y-67886428D01*
X53375000Y-67850714D01*
X53339285Y-67779285D01*
X53339285Y-67707857D01*
X53839285Y-67457857D02*
X53339285Y-67457857D01*
X53482142Y-67457857D02*
X53410714Y-67422142D01*
X53375000Y-67386428D01*
X53339285Y-67315000D01*
X53339285Y-67243571D01*
X53839285Y-66993571D02*
X53339285Y-66993571D01*
X53089285Y-66993571D02*
X53125000Y-67029285D01*
X53160714Y-66993571D01*
X53125000Y-66957857D01*
X53089285Y-66993571D01*
X53160714Y-66993571D01*
X53339285Y-66743571D02*
X53339285Y-66457857D01*
X53089285Y-66636428D02*
X53732142Y-66636428D01*
X53803571Y-66600714D01*
X53839285Y-66529285D01*
X53839285Y-66457857D01*
X53803571Y-65922142D02*
X53839285Y-65993571D01*
X53839285Y-66136428D01*
X53803571Y-66207857D01*
X53732142Y-66243571D01*
X53446428Y-66243571D01*
X53375000Y-66207857D01*
X53339285Y-66136428D01*
X53339285Y-65993571D01*
X53375000Y-65922142D01*
X53446428Y-65886428D01*
X53517857Y-65886428D01*
X53589285Y-66243571D01*
X53446428Y-65315000D02*
X53482142Y-65207857D01*
X53517857Y-65172142D01*
X53589285Y-65136428D01*
X53696428Y-65136428D01*
X53767857Y-65172142D01*
X53803571Y-65207857D01*
X53839285Y-65279285D01*
X53839285Y-65565000D01*
X53089285Y-65565000D01*
X53089285Y-65315000D01*
X53125000Y-65243571D01*
X53160714Y-65207857D01*
X53232142Y-65172142D01*
X53303571Y-65172142D01*
X53375000Y-65207857D01*
X53410714Y-65243571D01*
X53446428Y-65315000D01*
X53446428Y-65565000D01*
X53803571Y-64529285D02*
X53839285Y-64600714D01*
X53839285Y-64743571D01*
X53803571Y-64815000D01*
X53732142Y-64850714D01*
X53446428Y-64850714D01*
X53375000Y-64815000D01*
X53339285Y-64743571D01*
X53339285Y-64600714D01*
X53375000Y-64529285D01*
X53446428Y-64493571D01*
X53517857Y-64493571D01*
X53589285Y-64850714D01*
X53839285Y-63850714D02*
X53446428Y-63850714D01*
X53375000Y-63886428D01*
X53339285Y-63957857D01*
X53339285Y-64100714D01*
X53375000Y-64172142D01*
X53803571Y-63850714D02*
X53839285Y-63922142D01*
X53839285Y-64100714D01*
X53803571Y-64172142D01*
X53732142Y-64207857D01*
X53660714Y-64207857D01*
X53589285Y-64172142D01*
X53553571Y-64100714D01*
X53553571Y-63922142D01*
X53517857Y-63850714D01*
X53839285Y-63172142D02*
X53089285Y-63172142D01*
X53803571Y-63172142D02*
X53839285Y-63243571D01*
X53839285Y-63386428D01*
X53803571Y-63457857D01*
X53767857Y-63493571D01*
X53696428Y-63529285D01*
X53482142Y-63529285D01*
X53410714Y-63493571D01*
X53375000Y-63457857D01*
X53339285Y-63386428D01*
X53339285Y-63243571D01*
X53375000Y-63172142D01*
%TO.C,J1*%
X73981429Y-58296903D02*
X73981429Y-57534999D01*
X74362381Y-57915951D02*
X73600477Y-57915951D01*
X74362381Y-56534999D02*
X74362381Y-57106427D01*
X74362381Y-56820713D02*
X73362381Y-56820713D01*
X73505239Y-56915951D01*
X73600477Y-57011189D01*
X73648096Y-57106427D01*
X73457620Y-56154046D02*
X73410001Y-56106427D01*
X73362381Y-56011189D01*
X73362381Y-55773094D01*
X73410001Y-55677856D01*
X73457620Y-55630237D01*
X73552858Y-55582618D01*
X73648096Y-55582618D01*
X73790953Y-55630237D01*
X74362381Y-56201665D01*
X74362381Y-55582618D01*
X73362381Y-55296903D02*
X74362381Y-54963570D01*
X73362381Y-54630237D01*
X51862381Y-59606427D02*
X51386191Y-59939760D01*
X51862381Y-60177856D02*
X50862381Y-60177856D01*
X50862381Y-59796903D01*
X50910001Y-59701665D01*
X50957620Y-59654046D01*
X51052858Y-59606427D01*
X51195715Y-59606427D01*
X51290953Y-59654046D01*
X51338572Y-59701665D01*
X51386191Y-59796903D01*
X51386191Y-60177856D01*
X51338572Y-59177856D02*
X51338572Y-58844522D01*
X51862381Y-58701665D02*
X51862381Y-59177856D01*
X50862381Y-59177856D01*
X50862381Y-58701665D01*
X51862381Y-58273094D02*
X50862381Y-58273094D01*
X50862381Y-58034999D01*
X50910001Y-57892141D01*
X51005239Y-57796903D01*
X51100477Y-57749284D01*
X51290953Y-57701665D01*
X51433810Y-57701665D01*
X51624286Y-57749284D01*
X51719524Y-57796903D01*
X51814762Y-57892141D01*
X51862381Y-58034999D01*
X51862381Y-58273094D01*
X51814762Y-56558808D02*
X51862381Y-56415951D01*
X51862381Y-56177856D01*
X51814762Y-56082618D01*
X51767143Y-56034999D01*
X51671905Y-55987379D01*
X51576667Y-55987379D01*
X51481429Y-56034999D01*
X51433810Y-56082618D01*
X51386191Y-56177856D01*
X51338572Y-56368332D01*
X51290953Y-56463570D01*
X51243334Y-56511189D01*
X51148096Y-56558808D01*
X51052858Y-56558808D01*
X50957620Y-56511189D01*
X50910001Y-56463570D01*
X50862381Y-56368332D01*
X50862381Y-56130237D01*
X50910001Y-55987379D01*
X50862381Y-55701665D02*
X50862381Y-55130237D01*
X51862381Y-55415951D02*
X50862381Y-55415951D01*
X51862381Y-54225475D02*
X51386191Y-54558808D01*
X51862381Y-54796903D02*
X50862381Y-54796903D01*
X50862381Y-54415951D01*
X50910001Y-54320713D01*
X50957620Y-54273094D01*
X51052858Y-54225475D01*
X51195715Y-54225475D01*
X51290953Y-54273094D01*
X51338572Y-54320713D01*
X51386191Y-54415951D01*
X51386191Y-54796903D01*
X51862381Y-53796903D02*
X50862381Y-53796903D01*
X51862381Y-53320713D02*
X50862381Y-53320713D01*
X50862381Y-52939760D01*
X50910001Y-52844522D01*
X50957620Y-52796903D01*
X51052858Y-52749284D01*
X51195715Y-52749284D01*
X51290953Y-52796903D01*
X51338572Y-52844522D01*
X51386191Y-52939760D01*
X51386191Y-53320713D01*
X51338572Y-52320713D02*
X51338572Y-51987379D01*
X51862381Y-51844522D02*
X51862381Y-52320713D01*
X50862381Y-52320713D01*
X50862381Y-51844522D01*
%TO.C,R1*%
X57185000Y-128307285D02*
X56935000Y-127950142D01*
X56756428Y-128307285D02*
X56756428Y-127557285D01*
X57042142Y-127557285D01*
X57113571Y-127593000D01*
X57149285Y-127628714D01*
X57185000Y-127700142D01*
X57185000Y-127807285D01*
X57149285Y-127878714D01*
X57113571Y-127914428D01*
X57042142Y-127950142D01*
X56756428Y-127950142D01*
X57899285Y-128307285D02*
X57470714Y-128307285D01*
X57685000Y-128307285D02*
X57685000Y-127557285D01*
X57613571Y-127664428D01*
X57542142Y-127735857D01*
X57470714Y-127771571D01*
X56435000Y-130339285D02*
X56006428Y-130339285D01*
X56220714Y-130339285D02*
X56220714Y-129589285D01*
X56149285Y-129696428D01*
X56077857Y-129767857D01*
X56006428Y-129803571D01*
X56899285Y-129589285D02*
X56970714Y-129589285D01*
X57042142Y-129625000D01*
X57077857Y-129660714D01*
X57113571Y-129732142D01*
X57149285Y-129875000D01*
X57149285Y-130053571D01*
X57113571Y-130196428D01*
X57077857Y-130267857D01*
X57042142Y-130303571D01*
X56970714Y-130339285D01*
X56899285Y-130339285D01*
X56827857Y-130303571D01*
X56792142Y-130267857D01*
X56756428Y-130196428D01*
X56720714Y-130053571D01*
X56720714Y-129875000D01*
X56756428Y-129732142D01*
X56792142Y-129660714D01*
X56827857Y-129625000D01*
X56899285Y-129589285D01*
X57613571Y-129589285D02*
X57685000Y-129589285D01*
X57756428Y-129625000D01*
X57792142Y-129660714D01*
X57827857Y-129732142D01*
X57863571Y-129875000D01*
X57863571Y-130053571D01*
X57827857Y-130196428D01*
X57792142Y-130267857D01*
X57756428Y-130303571D01*
X57685000Y-130339285D01*
X57613571Y-130339285D01*
X57542142Y-130303571D01*
X57506428Y-130267857D01*
X57470714Y-130196428D01*
X57435000Y-130053571D01*
X57435000Y-129875000D01*
X57470714Y-129732142D01*
X57506428Y-129660714D01*
X57542142Y-129625000D01*
X57613571Y-129589285D01*
X58185000Y-130339285D02*
X58185000Y-129589285D01*
X58613571Y-130339285D02*
X58292142Y-129910714D01*
X58613571Y-129589285D02*
X58185000Y-130017857D01*
%TO.C,R2*%
X68685000Y-128307285D02*
X68435000Y-127950142D01*
X68256428Y-128307285D02*
X68256428Y-127557285D01*
X68542142Y-127557285D01*
X68613571Y-127593000D01*
X68649285Y-127628714D01*
X68685000Y-127700142D01*
X68685000Y-127807285D01*
X68649285Y-127878714D01*
X68613571Y-127914428D01*
X68542142Y-127950142D01*
X68256428Y-127950142D01*
X68970714Y-127628714D02*
X69006428Y-127593000D01*
X69077857Y-127557285D01*
X69256428Y-127557285D01*
X69327857Y-127593000D01*
X69363571Y-127628714D01*
X69399285Y-127700142D01*
X69399285Y-127771571D01*
X69363571Y-127878714D01*
X68935000Y-128307285D01*
X69399285Y-128307285D01*
X67506428Y-129660714D02*
X67542142Y-129625000D01*
X67613571Y-129589285D01*
X67792142Y-129589285D01*
X67863571Y-129625000D01*
X67899285Y-129660714D01*
X67935000Y-129732142D01*
X67935000Y-129803571D01*
X67899285Y-129910714D01*
X67470714Y-130339285D01*
X67935000Y-130339285D01*
X68220714Y-129660714D02*
X68256428Y-129625000D01*
X68327857Y-129589285D01*
X68506428Y-129589285D01*
X68577857Y-129625000D01*
X68613571Y-129660714D01*
X68649285Y-129732142D01*
X68649285Y-129803571D01*
X68613571Y-129910714D01*
X68185000Y-130339285D01*
X68649285Y-130339285D01*
X69113571Y-129589285D02*
X69185000Y-129589285D01*
X69256428Y-129625000D01*
X69292142Y-129660714D01*
X69327857Y-129732142D01*
X69363571Y-129875000D01*
X69363571Y-130053571D01*
X69327857Y-130196428D01*
X69292142Y-130267857D01*
X69256428Y-130303571D01*
X69185000Y-130339285D01*
X69113571Y-130339285D01*
X69042142Y-130303571D01*
X69006428Y-130267857D01*
X68970714Y-130196428D01*
X68935000Y-130053571D01*
X68935000Y-129875000D01*
X68970714Y-129732142D01*
X69006428Y-129660714D01*
X69042142Y-129625000D01*
X69113571Y-129589285D01*
X69685000Y-130339285D02*
X69685000Y-129589285D01*
X70113571Y-130339285D02*
X69792142Y-129910714D01*
X70113571Y-129589285D02*
X69685000Y-130017857D01*
%TO.C,R3*%
X63685000Y-124307285D02*
X63435000Y-123950142D01*
X63256428Y-124307285D02*
X63256428Y-123557285D01*
X63542142Y-123557285D01*
X63613571Y-123593000D01*
X63649285Y-123628714D01*
X63685000Y-123700142D01*
X63685000Y-123807285D01*
X63649285Y-123878714D01*
X63613571Y-123914428D01*
X63542142Y-123950142D01*
X63256428Y-123950142D01*
X63935000Y-123557285D02*
X64399285Y-123557285D01*
X64149285Y-123843000D01*
X64256428Y-123843000D01*
X64327857Y-123878714D01*
X64363571Y-123914428D01*
X64399285Y-123985857D01*
X64399285Y-124164428D01*
X64363571Y-124235857D01*
X64327857Y-124271571D01*
X64256428Y-124307285D01*
X64042142Y-124307285D01*
X63970714Y-124271571D01*
X63935000Y-124235857D01*
X63292142Y-126339285D02*
X62863571Y-126339285D01*
X63077857Y-126339285D02*
X63077857Y-125589285D01*
X63006428Y-125696428D01*
X62935000Y-125767857D01*
X62863571Y-125803571D01*
X63756428Y-125589285D02*
X63827857Y-125589285D01*
X63899285Y-125625000D01*
X63935000Y-125660714D01*
X63970714Y-125732142D01*
X64006428Y-125875000D01*
X64006428Y-126053571D01*
X63970714Y-126196428D01*
X63935000Y-126267857D01*
X63899285Y-126303571D01*
X63827857Y-126339285D01*
X63756428Y-126339285D01*
X63685000Y-126303571D01*
X63649285Y-126267857D01*
X63613571Y-126196428D01*
X63577857Y-126053571D01*
X63577857Y-125875000D01*
X63613571Y-125732142D01*
X63649285Y-125660714D01*
X63685000Y-125625000D01*
X63756428Y-125589285D01*
X64327857Y-126339285D02*
X64327857Y-125589285D01*
X64756428Y-126339285D02*
X64435000Y-125910714D01*
X64756428Y-125589285D02*
X64327857Y-126017857D01*
%TO.C,R4*%
X67871285Y-79435000D02*
X67514142Y-79685000D01*
X67871285Y-79863571D02*
X67121285Y-79863571D01*
X67121285Y-79577857D01*
X67157000Y-79506428D01*
X67192714Y-79470714D01*
X67264142Y-79435000D01*
X67371285Y-79435000D01*
X67442714Y-79470714D01*
X67478428Y-79506428D01*
X67514142Y-79577857D01*
X67514142Y-79863571D01*
X67371285Y-78792142D02*
X67871285Y-78792142D01*
X67085571Y-78970714D02*
X67621285Y-79149285D01*
X67621285Y-78685000D01*
X65839285Y-79827857D02*
X65839285Y-80256428D01*
X65839285Y-80042142D02*
X65089285Y-80042142D01*
X65196428Y-80113571D01*
X65267857Y-80185000D01*
X65303571Y-80256428D01*
X65089285Y-79363571D02*
X65089285Y-79292142D01*
X65125000Y-79220714D01*
X65160714Y-79185000D01*
X65232142Y-79149285D01*
X65375000Y-79113571D01*
X65553571Y-79113571D01*
X65696428Y-79149285D01*
X65767857Y-79185000D01*
X65803571Y-79220714D01*
X65839285Y-79292142D01*
X65839285Y-79363571D01*
X65803571Y-79435000D01*
X65767857Y-79470714D01*
X65696428Y-79506428D01*
X65553571Y-79542142D01*
X65375000Y-79542142D01*
X65232142Y-79506428D01*
X65160714Y-79470714D01*
X65125000Y-79435000D01*
X65089285Y-79363571D01*
X65839285Y-78792142D02*
X65089285Y-78792142D01*
X65839285Y-78363571D02*
X65410714Y-78685000D01*
X65089285Y-78363571D02*
X65517857Y-78792142D01*
%TO.C,R5*%
X73371285Y-122935000D02*
X73014142Y-123185000D01*
X73371285Y-123363571D02*
X72621285Y-123363571D01*
X72621285Y-123077857D01*
X72657000Y-123006428D01*
X72692714Y-122970714D01*
X72764142Y-122935000D01*
X72871285Y-122935000D01*
X72942714Y-122970714D01*
X72978428Y-123006428D01*
X73014142Y-123077857D01*
X73014142Y-123363571D01*
X72621285Y-122256428D02*
X72621285Y-122613571D01*
X72978428Y-122649285D01*
X72942714Y-122613571D01*
X72907000Y-122542142D01*
X72907000Y-122363571D01*
X72942714Y-122292142D01*
X72978428Y-122256428D01*
X73049857Y-122220714D01*
X73228428Y-122220714D01*
X73299857Y-122256428D01*
X73335571Y-122292142D01*
X73371285Y-122363571D01*
X73371285Y-122542142D01*
X73335571Y-122613571D01*
X73299857Y-122649285D01*
X71339285Y-123506428D02*
X71339285Y-123935000D01*
X71339285Y-123720714D02*
X70589285Y-123720714D01*
X70696428Y-123792142D01*
X70767857Y-123863571D01*
X70803571Y-123935000D01*
X71267857Y-123185000D02*
X71303571Y-123149285D01*
X71339285Y-123185000D01*
X71303571Y-123220714D01*
X71267857Y-123185000D01*
X71339285Y-123185000D01*
X70910714Y-122720714D02*
X70875000Y-122792142D01*
X70839285Y-122827857D01*
X70767857Y-122863571D01*
X70732142Y-122863571D01*
X70660714Y-122827857D01*
X70625000Y-122792142D01*
X70589285Y-122720714D01*
X70589285Y-122577857D01*
X70625000Y-122506428D01*
X70660714Y-122470714D01*
X70732142Y-122435000D01*
X70767857Y-122435000D01*
X70839285Y-122470714D01*
X70875000Y-122506428D01*
X70910714Y-122577857D01*
X70910714Y-122720714D01*
X70946428Y-122792142D01*
X70982142Y-122827857D01*
X71053571Y-122863571D01*
X71196428Y-122863571D01*
X71267857Y-122827857D01*
X71303571Y-122792142D01*
X71339285Y-122720714D01*
X71339285Y-122577857D01*
X71303571Y-122506428D01*
X71267857Y-122470714D01*
X71196428Y-122435000D01*
X71053571Y-122435000D01*
X70982142Y-122470714D01*
X70946428Y-122506428D01*
X70910714Y-122577857D01*
X71339285Y-122113571D02*
X70589285Y-122113571D01*
X71339285Y-121685000D02*
X70910714Y-122006428D01*
X70589285Y-121685000D02*
X71017857Y-122113571D01*
%TO.C,R6*%
X57871285Y-122435000D02*
X57514142Y-122685000D01*
X57871285Y-122863571D02*
X57121285Y-122863571D01*
X57121285Y-122577857D01*
X57157000Y-122506428D01*
X57192714Y-122470714D01*
X57264142Y-122435000D01*
X57371285Y-122435000D01*
X57442714Y-122470714D01*
X57478428Y-122506428D01*
X57514142Y-122577857D01*
X57514142Y-122863571D01*
X57121285Y-121792142D02*
X57121285Y-121935000D01*
X57157000Y-122006428D01*
X57192714Y-122042142D01*
X57299857Y-122113571D01*
X57442714Y-122149285D01*
X57728428Y-122149285D01*
X57799857Y-122113571D01*
X57835571Y-122077857D01*
X57871285Y-122006428D01*
X57871285Y-121863571D01*
X57835571Y-121792142D01*
X57799857Y-121756428D01*
X57728428Y-121720714D01*
X57549857Y-121720714D01*
X57478428Y-121756428D01*
X57442714Y-121792142D01*
X57407000Y-121863571D01*
X57407000Y-122006428D01*
X57442714Y-122077857D01*
X57478428Y-122113571D01*
X57549857Y-122149285D01*
X55839285Y-123006428D02*
X55839285Y-123435000D01*
X55839285Y-123220714D02*
X55089285Y-123220714D01*
X55196428Y-123292142D01*
X55267857Y-123363571D01*
X55303571Y-123435000D01*
X55767857Y-122685000D02*
X55803571Y-122649285D01*
X55839285Y-122685000D01*
X55803571Y-122720714D01*
X55767857Y-122685000D01*
X55839285Y-122685000D01*
X55410714Y-122220714D02*
X55375000Y-122292142D01*
X55339285Y-122327857D01*
X55267857Y-122363571D01*
X55232142Y-122363571D01*
X55160714Y-122327857D01*
X55125000Y-122292142D01*
X55089285Y-122220714D01*
X55089285Y-122077857D01*
X55125000Y-122006428D01*
X55160714Y-121970714D01*
X55232142Y-121935000D01*
X55267857Y-121935000D01*
X55339285Y-121970714D01*
X55375000Y-122006428D01*
X55410714Y-122077857D01*
X55410714Y-122220714D01*
X55446428Y-122292142D01*
X55482142Y-122327857D01*
X55553571Y-122363571D01*
X55696428Y-122363571D01*
X55767857Y-122327857D01*
X55803571Y-122292142D01*
X55839285Y-122220714D01*
X55839285Y-122077857D01*
X55803571Y-122006428D01*
X55767857Y-121970714D01*
X55696428Y-121935000D01*
X55553571Y-121935000D01*
X55482142Y-121970714D01*
X55446428Y-122006428D01*
X55410714Y-122077857D01*
X55839285Y-121613571D02*
X55089285Y-121613571D01*
X55839285Y-121185000D02*
X55410714Y-121506428D01*
X55089285Y-121185000D02*
X55517857Y-121613571D01*
%TO.C,R7*%
X69871285Y-100935000D02*
X69514142Y-101185000D01*
X69871285Y-101363571D02*
X69121285Y-101363571D01*
X69121285Y-101077857D01*
X69157000Y-101006428D01*
X69192714Y-100970714D01*
X69264142Y-100935000D01*
X69371285Y-100935000D01*
X69442714Y-100970714D01*
X69478428Y-101006428D01*
X69514142Y-101077857D01*
X69514142Y-101363571D01*
X69121285Y-100685000D02*
X69121285Y-100185000D01*
X69871285Y-100506428D01*
X67839285Y-101327857D02*
X67839285Y-101756428D01*
X67839285Y-101542142D02*
X67089285Y-101542142D01*
X67196428Y-101613571D01*
X67267857Y-101685000D01*
X67303571Y-101756428D01*
X67089285Y-100863571D02*
X67089285Y-100792142D01*
X67125000Y-100720714D01*
X67160714Y-100685000D01*
X67232142Y-100649285D01*
X67375000Y-100613571D01*
X67553571Y-100613571D01*
X67696428Y-100649285D01*
X67767857Y-100685000D01*
X67803571Y-100720714D01*
X67839285Y-100792142D01*
X67839285Y-100863571D01*
X67803571Y-100935000D01*
X67767857Y-100970714D01*
X67696428Y-101006428D01*
X67553571Y-101042142D01*
X67375000Y-101042142D01*
X67232142Y-101006428D01*
X67160714Y-100970714D01*
X67125000Y-100935000D01*
X67089285Y-100863571D01*
X67839285Y-100292142D02*
X67089285Y-100292142D01*
X67839285Y-99863571D02*
X67410714Y-100185000D01*
X67089285Y-99863571D02*
X67517857Y-100292142D01*
%TO.C,R8*%
X74371285Y-93935000D02*
X74014142Y-94185000D01*
X74371285Y-94363571D02*
X73621285Y-94363571D01*
X73621285Y-94077857D01*
X73657000Y-94006428D01*
X73692714Y-93970714D01*
X73764142Y-93935000D01*
X73871285Y-93935000D01*
X73942714Y-93970714D01*
X73978428Y-94006428D01*
X74014142Y-94077857D01*
X74014142Y-94363571D01*
X73942714Y-93506428D02*
X73907000Y-93577857D01*
X73871285Y-93613571D01*
X73799857Y-93649285D01*
X73764142Y-93649285D01*
X73692714Y-93613571D01*
X73657000Y-93577857D01*
X73621285Y-93506428D01*
X73621285Y-93363571D01*
X73657000Y-93292142D01*
X73692714Y-93256428D01*
X73764142Y-93220714D01*
X73799857Y-93220714D01*
X73871285Y-93256428D01*
X73907000Y-93292142D01*
X73942714Y-93363571D01*
X73942714Y-93506428D01*
X73978428Y-93577857D01*
X74014142Y-93613571D01*
X74085571Y-93649285D01*
X74228428Y-93649285D01*
X74299857Y-93613571D01*
X74335571Y-93577857D01*
X74371285Y-93506428D01*
X74371285Y-93363571D01*
X74335571Y-93292142D01*
X74299857Y-93256428D01*
X74228428Y-93220714D01*
X74085571Y-93220714D01*
X74014142Y-93256428D01*
X73978428Y-93292142D01*
X73942714Y-93363571D01*
X72339285Y-94327857D02*
X72339285Y-94756428D01*
X72339285Y-94542142D02*
X71589285Y-94542142D01*
X71696428Y-94613571D01*
X71767857Y-94685000D01*
X71803571Y-94756428D01*
X71589285Y-93863571D02*
X71589285Y-93792142D01*
X71625000Y-93720714D01*
X71660714Y-93685000D01*
X71732142Y-93649285D01*
X71875000Y-93613571D01*
X72053571Y-93613571D01*
X72196428Y-93649285D01*
X72267857Y-93685000D01*
X72303571Y-93720714D01*
X72339285Y-93792142D01*
X72339285Y-93863571D01*
X72303571Y-93935000D01*
X72267857Y-93970714D01*
X72196428Y-94006428D01*
X72053571Y-94042142D01*
X71875000Y-94042142D01*
X71732142Y-94006428D01*
X71660714Y-93970714D01*
X71625000Y-93935000D01*
X71589285Y-93863571D01*
X72339285Y-93292142D02*
X71589285Y-93292142D01*
X72339285Y-92863571D02*
X71910714Y-93185000D01*
X71589285Y-92863571D02*
X72017857Y-93292142D01*
%TO.C,R9*%
X66371285Y-106435000D02*
X66014142Y-106685000D01*
X66371285Y-106863571D02*
X65621285Y-106863571D01*
X65621285Y-106577857D01*
X65657000Y-106506428D01*
X65692714Y-106470714D01*
X65764142Y-106435000D01*
X65871285Y-106435000D01*
X65942714Y-106470714D01*
X65978428Y-106506428D01*
X66014142Y-106577857D01*
X66014142Y-106863571D01*
X66371285Y-106077857D02*
X66371285Y-105935000D01*
X66335571Y-105863571D01*
X66299857Y-105827857D01*
X66192714Y-105756428D01*
X66049857Y-105720714D01*
X65764142Y-105720714D01*
X65692714Y-105756428D01*
X65657000Y-105792142D01*
X65621285Y-105863571D01*
X65621285Y-106006428D01*
X65657000Y-106077857D01*
X65692714Y-106113571D01*
X65764142Y-106149285D01*
X65942714Y-106149285D01*
X66014142Y-106113571D01*
X66049857Y-106077857D01*
X66085571Y-106006428D01*
X66085571Y-105863571D01*
X66049857Y-105792142D01*
X66014142Y-105756428D01*
X65942714Y-105720714D01*
X64339285Y-106827857D02*
X64339285Y-107256428D01*
X64339285Y-107042142D02*
X63589285Y-107042142D01*
X63696428Y-107113571D01*
X63767857Y-107185000D01*
X63803571Y-107256428D01*
X63589285Y-106363571D02*
X63589285Y-106292142D01*
X63625000Y-106220714D01*
X63660714Y-106185000D01*
X63732142Y-106149285D01*
X63875000Y-106113571D01*
X64053571Y-106113571D01*
X64196428Y-106149285D01*
X64267857Y-106185000D01*
X64303571Y-106220714D01*
X64339285Y-106292142D01*
X64339285Y-106363571D01*
X64303571Y-106435000D01*
X64267857Y-106470714D01*
X64196428Y-106506428D01*
X64053571Y-106542142D01*
X63875000Y-106542142D01*
X63732142Y-106506428D01*
X63660714Y-106470714D01*
X63625000Y-106435000D01*
X63589285Y-106363571D01*
X64339285Y-105792142D02*
X63589285Y-105792142D01*
X64339285Y-105363571D02*
X63910714Y-105685000D01*
X63589285Y-105363571D02*
X64017857Y-105792142D01*
%TO.C,U1*%
X56738571Y-73759285D02*
X56738571Y-74366428D01*
X56774285Y-74437857D01*
X56810000Y-74473571D01*
X56881428Y-74509285D01*
X57024285Y-74509285D01*
X57095714Y-74473571D01*
X57131428Y-74437857D01*
X57167142Y-74366428D01*
X57167142Y-73759285D01*
X57917142Y-74509285D02*
X57488571Y-74509285D01*
X57702857Y-74509285D02*
X57702857Y-73759285D01*
X57631428Y-73866428D01*
X57560000Y-73937857D01*
X57488571Y-73973571D01*
X56899285Y-81899285D02*
X56899285Y-81470714D01*
X57649285Y-81685000D02*
X56899285Y-81685000D01*
X57649285Y-80863571D02*
X57649285Y-81220714D01*
X56899285Y-81220714D01*
X56899285Y-80470714D02*
X56899285Y-80399285D01*
X56935000Y-80327857D01*
X56970714Y-80292142D01*
X57042142Y-80256428D01*
X57185000Y-80220714D01*
X57363571Y-80220714D01*
X57506428Y-80256428D01*
X57577857Y-80292142D01*
X57613571Y-80327857D01*
X57649285Y-80399285D01*
X57649285Y-80470714D01*
X57613571Y-80542142D01*
X57577857Y-80577857D01*
X57506428Y-80613571D01*
X57363571Y-80649285D01*
X57185000Y-80649285D01*
X57042142Y-80613571D01*
X56970714Y-80577857D01*
X56935000Y-80542142D01*
X56899285Y-80470714D01*
X56899285Y-79970714D02*
X56899285Y-79470714D01*
X57649285Y-79792142D01*
X56970714Y-79220714D02*
X56935000Y-79185000D01*
X56899285Y-79113571D01*
X56899285Y-78935000D01*
X56935000Y-78863571D01*
X56970714Y-78827857D01*
X57042142Y-78792142D01*
X57113571Y-78792142D01*
X57220714Y-78827857D01*
X57649285Y-79256428D01*
X57649285Y-78792142D01*
%TD*%
M02*
