%TF.GenerationSoftware,KiCad,Pcbnew,(5.1.8-0-10_14)*%
%TF.CreationDate,2021-07-20T21:01:28-04:00*%
%TF.ProjectId,fzeq,667a6571-2e6b-4696-9361-645f70636258,rev?*%
%TF.SameCoordinates,Original*%
%TF.FileFunction,Soldermask,Bot*%
%TF.FilePolarity,Negative*%
%FSLAX46Y46*%
G04 Gerber Fmt 4.6, Leading zero omitted, Abs format (unit mm)*
G04 Created by KiCad (PCBNEW (5.1.8-0-10_14)) date 2021-07-20 21:01:28*
%MOMM*%
%LPD*%
G01*
G04 APERTURE LIST*
%ADD10C,1.600000*%
%ADD11O,1.600000X1.600000*%
%ADD12R,1.600000X1.600000*%
%ADD13O,2.200000X1.740000*%
%ADD14C,3.200000*%
%ADD15R,1.727200X1.727200*%
%ADD16O,1.727200X1.727200*%
%ADD17O,1.740000X2.200000*%
%ADD18R,2.400000X1.600000*%
%ADD19O,2.400000X1.600000*%
G04 APERTURE END LIST*
D10*
%TO.C,FB2*%
X71500000Y-70000000D03*
D11*
X71500000Y-62380000D03*
%TD*%
D12*
%TO.C,C8*%
X54000000Y-104000000D03*
D10*
X56000000Y-104000000D03*
%TD*%
%TO.C,C1*%
X61500000Y-135500000D03*
X64000000Y-135500000D03*
%TD*%
%TO.C,C2*%
X59500000Y-65000000D03*
D12*
X59500000Y-67000000D03*
%TD*%
%TO.C,C3*%
X66000000Y-67000000D03*
D10*
X66000000Y-65000000D03*
%TD*%
%TO.C,C4*%
X72000000Y-104500000D03*
X72000000Y-102000000D03*
%TD*%
%TO.C,C5*%
X64000000Y-115000000D03*
X64000000Y-112500000D03*
%TD*%
%TO.C,C6*%
X59500000Y-104000000D03*
X59500000Y-106500000D03*
%TD*%
%TO.C,C7*%
X67500000Y-91500000D03*
X67500000Y-94000000D03*
%TD*%
%TO.C,C9*%
X59000000Y-72500000D03*
X61500000Y-72500000D03*
%TD*%
%TO.C,C10*%
X66500000Y-72500000D03*
X64000000Y-72500000D03*
%TD*%
D11*
%TO.C,FB1*%
X53500000Y-62380000D03*
D10*
X53500000Y-70000000D03*
%TD*%
D13*
%TO.C,Fuzz1*%
X55000000Y-92920000D03*
X55000000Y-95460000D03*
G36*
G01*
X55850001Y-98870000D02*
X54149999Y-98870000D01*
G75*
G02*
X53900000Y-98620001I0J249999D01*
G01*
X53900000Y-97379999D01*
G75*
G02*
X54149999Y-97130000I249999J0D01*
G01*
X55850001Y-97130000D01*
G75*
G02*
X56100000Y-97379999I0J-249999D01*
G01*
X56100000Y-98620001D01*
G75*
G02*
X55850001Y-98870000I-249999J0D01*
G01*
G37*
%TD*%
D14*
%TO.C,H2*%
X71500000Y-135500000D03*
%TD*%
D13*
%TO.C,High1*%
X70000000Y-107920000D03*
X70000000Y-110460000D03*
G36*
G01*
X70850001Y-113870000D02*
X69149999Y-113870000D01*
G75*
G02*
X68900000Y-113620001I0J249999D01*
G01*
X68900000Y-112379999D01*
G75*
G02*
X69149999Y-112130000I249999J0D01*
G01*
X70850001Y-112130000D01*
G75*
G02*
X71100000Y-112379999I0J-249999D01*
G01*
X71100000Y-113620001D01*
G75*
G02*
X70850001Y-113870000I-249999J0D01*
G01*
G37*
%TD*%
D15*
%TO.C,J1*%
X57410001Y-57534999D03*
D16*
X57410001Y-54994999D03*
X59950001Y-57534999D03*
X59950001Y-54994999D03*
X62490001Y-57534999D03*
X62490001Y-54994999D03*
X65030001Y-57534999D03*
X65030001Y-54994999D03*
X67570001Y-57534999D03*
X67570001Y-54994999D03*
%TD*%
%TO.C,J2*%
G36*
G01*
X66130000Y-142850001D02*
X66130000Y-141149999D01*
G75*
G02*
X66379999Y-140900000I249999J0D01*
G01*
X67620001Y-140900000D01*
G75*
G02*
X67870000Y-141149999I0J-249999D01*
G01*
X67870000Y-142850001D01*
G75*
G02*
X67620001Y-143100000I-249999J0D01*
G01*
X66379999Y-143100000D01*
G75*
G02*
X66130000Y-142850001I0J249999D01*
G01*
G37*
D17*
X69540000Y-142000000D03*
%TD*%
%TO.C,J3*%
X58540000Y-142000000D03*
G36*
G01*
X55130000Y-142850001D02*
X55130000Y-141149999D01*
G75*
G02*
X55379999Y-140900000I249999J0D01*
G01*
X56620001Y-140900000D01*
G75*
G02*
X56870000Y-141149999I0J-249999D01*
G01*
X56870000Y-142850001D01*
G75*
G02*
X56620001Y-143100000I-249999J0D01*
G01*
X55379999Y-143100000D01*
G75*
G02*
X55130000Y-142850001I0J249999D01*
G01*
G37*
%TD*%
%TO.C,Low1*%
G36*
G01*
X70850001Y-82370000D02*
X69149999Y-82370000D01*
G75*
G02*
X68900000Y-82120001I0J249999D01*
G01*
X68900000Y-80879999D01*
G75*
G02*
X69149999Y-80630000I249999J0D01*
G01*
X70850001Y-80630000D01*
G75*
G02*
X71100000Y-80879999I0J-249999D01*
G01*
X71100000Y-82120001D01*
G75*
G02*
X70850001Y-82370000I-249999J0D01*
G01*
G37*
D13*
X70000000Y-78960000D03*
X70000000Y-76420000D03*
%TD*%
%TO.C,Mid1*%
G36*
G01*
X56350001Y-115870000D02*
X54649999Y-115870000D01*
G75*
G02*
X54400000Y-115620001I0J249999D01*
G01*
X54400000Y-114379999D01*
G75*
G02*
X54649999Y-114130000I249999J0D01*
G01*
X56350001Y-114130000D01*
G75*
G02*
X56600000Y-114379999I0J-249999D01*
G01*
X56600000Y-115620001D01*
G75*
G02*
X56350001Y-115870000I-249999J0D01*
G01*
G37*
X55500000Y-112460000D03*
X55500000Y-109920000D03*
%TD*%
D10*
%TO.C,R1*%
X53500000Y-130000000D03*
D11*
X61120000Y-130000000D03*
%TD*%
%TO.C,R2*%
X72620000Y-130000000D03*
D10*
X65000000Y-130000000D03*
%TD*%
D11*
%TO.C,R3*%
X67620000Y-126000000D03*
D10*
X60000000Y-126000000D03*
%TD*%
%TO.C,R4*%
X65500000Y-75500000D03*
D11*
X65500000Y-83120000D03*
%TD*%
D10*
%TO.C,R5*%
X71000000Y-119000000D03*
D11*
X71000000Y-126620000D03*
%TD*%
%TO.C,R6*%
X55500000Y-126120000D03*
D10*
X55500000Y-118500000D03*
%TD*%
%TO.C,R7*%
X67500000Y-97000000D03*
D11*
X67500000Y-104620000D03*
%TD*%
%TO.C,R8*%
X72000000Y-97620000D03*
D10*
X72000000Y-90000000D03*
%TD*%
%TO.C,R9*%
X64000000Y-102500000D03*
D11*
X64000000Y-110120000D03*
%TD*%
D18*
%TO.C,U1*%
X53500000Y-76500000D03*
D19*
X61120000Y-84120000D03*
X53500000Y-79040000D03*
X61120000Y-81580000D03*
X53500000Y-81580000D03*
X61120000Y-79040000D03*
X53500000Y-84120000D03*
X61120000Y-76500000D03*
%TD*%
M02*
