%TF.GenerationSoftware,KiCad,Pcbnew,(5.1.8-0-10_14)*%
%TF.CreationDate,2021-08-22T20:49:35-04:00*%
%TF.ProjectId,bump,62756d70-2e6b-4696-9361-645f70636258,rev?*%
%TF.SameCoordinates,Original*%
%TF.FileFunction,Soldermask,Bot*%
%TF.FilePolarity,Negative*%
%FSLAX46Y46*%
G04 Gerber Fmt 4.6, Leading zero omitted, Abs format (unit mm)*
G04 Created by KiCad (PCBNEW (5.1.8-0-10_14)) date 2021-08-22 20:49:35*
%MOMM*%
%LPD*%
G01*
G04 APERTURE LIST*
%ADD10C,1.600000*%
%ADD11R,1.600000X1.600000*%
%ADD12C,3.200000*%
%ADD13O,1.740000X2.200000*%
%ADD14R,1.727200X1.727200*%
%ADD15O,1.727200X1.727200*%
%ADD16O,1.600000X1.600000*%
%ADD17R,2.400000X1.600000*%
%ADD18O,2.400000X1.600000*%
G04 APERTURE END LIST*
D10*
%TO.C,C1*%
X67500000Y-66000000D03*
D11*
X65500000Y-66000000D03*
%TD*%
%TO.C,C2*%
X58000000Y-66000000D03*
D10*
X60000000Y-66000000D03*
%TD*%
%TO.C,C3*%
X53000000Y-71500000D03*
X55500000Y-71500000D03*
%TD*%
%TO.C,C4*%
X70500000Y-71500000D03*
X68000000Y-71500000D03*
%TD*%
D12*
%TO.C,H1*%
X53000000Y-77000000D03*
%TD*%
%TO.C,INPUT1*%
G36*
G01*
X58870000Y-119649999D02*
X58870000Y-121350001D01*
G75*
G02*
X58620001Y-121600000I-249999J0D01*
G01*
X57379999Y-121600000D01*
G75*
G02*
X57130000Y-121350001I0J249999D01*
G01*
X57130000Y-119649999D01*
G75*
G02*
X57379999Y-119400000I249999J0D01*
G01*
X58620001Y-119400000D01*
G75*
G02*
X58870000Y-119649999I0J-249999D01*
G01*
G37*
D13*
X55460000Y-120500000D03*
%TD*%
D14*
%TO.C,J1*%
X57500000Y-58000000D03*
D15*
X57500000Y-55460000D03*
X60040000Y-58000000D03*
X60040000Y-55460000D03*
X62580000Y-58000000D03*
X62580000Y-55460000D03*
X65120000Y-58000000D03*
X65120000Y-55460000D03*
X67660000Y-58000000D03*
X67660000Y-55460000D03*
%TD*%
D13*
%TO.C,OUTPUT1*%
X66960000Y-132000000D03*
G36*
G01*
X70370000Y-131149999D02*
X70370000Y-132850001D01*
G75*
G02*
X70120001Y-133100000I-249999J0D01*
G01*
X68879999Y-133100000D01*
G75*
G02*
X68630000Y-132850001I0J249999D01*
G01*
X68630000Y-131149999D01*
G75*
G02*
X68879999Y-130900000I249999J0D01*
G01*
X70120001Y-130900000D01*
G75*
G02*
X70370000Y-131149999I0J-249999D01*
G01*
G37*
%TD*%
%TO.C,OUTPUT2*%
G36*
G01*
X58870000Y-131149999D02*
X58870000Y-132850001D01*
G75*
G02*
X58620001Y-133100000I-249999J0D01*
G01*
X57379999Y-133100000D01*
G75*
G02*
X57130000Y-132850001I0J249999D01*
G01*
X57130000Y-131149999D01*
G75*
G02*
X57379999Y-130900000I249999J0D01*
G01*
X58620001Y-130900000D01*
G75*
G02*
X58870000Y-131149999I0J-249999D01*
G01*
G37*
X55460000Y-132000000D03*
%TD*%
%TO.C,OUTPUT3*%
X66960000Y-143500000D03*
G36*
G01*
X70370000Y-142649999D02*
X70370000Y-144350001D01*
G75*
G02*
X70120001Y-144600000I-249999J0D01*
G01*
X68879999Y-144600000D01*
G75*
G02*
X68630000Y-144350001I0J249999D01*
G01*
X68630000Y-142649999D01*
G75*
G02*
X68879999Y-142400000I249999J0D01*
G01*
X70120001Y-142400000D01*
G75*
G02*
X70370000Y-142649999I0J-249999D01*
G01*
G37*
%TD*%
%TO.C,OUTPUT4*%
G36*
G01*
X58870000Y-142649999D02*
X58870000Y-144350001D01*
G75*
G02*
X58620001Y-144600000I-249999J0D01*
G01*
X57379999Y-144600000D01*
G75*
G02*
X57130000Y-144350001I0J249999D01*
G01*
X57130000Y-142649999D01*
G75*
G02*
X57379999Y-142400000I249999J0D01*
G01*
X58620001Y-142400000D01*
G75*
G02*
X58870000Y-142649999I0J-249999D01*
G01*
G37*
X55460000Y-143500000D03*
%TD*%
D10*
%TO.C,R1*%
X63295001Y-100500000D03*
D16*
X70915001Y-100500000D03*
%TD*%
%TO.C,R2*%
X70915001Y-105000000D03*
D10*
X63295001Y-105000000D03*
%TD*%
%TO.C,R3*%
X63295001Y-109500000D03*
D16*
X70915001Y-109500000D03*
%TD*%
%TO.C,R4*%
X70915001Y-114000000D03*
D10*
X63295001Y-114000000D03*
%TD*%
%TO.C,R5*%
X63295001Y-118500000D03*
D16*
X70915001Y-118500000D03*
%TD*%
D17*
%TO.C,U1*%
X58500000Y-79500000D03*
D18*
X66120000Y-94740000D03*
X58500000Y-82040000D03*
X66120000Y-92200000D03*
X58500000Y-84580000D03*
X66120000Y-89660000D03*
X58500000Y-87120000D03*
X66120000Y-87120000D03*
X58500000Y-89660000D03*
X66120000Y-84580000D03*
X58500000Y-92200000D03*
X66120000Y-82040000D03*
X58500000Y-94740000D03*
X66120000Y-79500000D03*
%TD*%
M02*
