%TF.GenerationSoftware,KiCad,Pcbnew,(5.1.8-0-10_14)*%
%TF.CreationDate,2021-08-22T20:49:35-04:00*%
%TF.ProjectId,bump,62756d70-2e6b-4696-9361-645f70636258,rev?*%
%TF.SameCoordinates,Original*%
%TF.FileFunction,Legend,Bot*%
%TF.FilePolarity,Positive*%
%FSLAX46Y46*%
G04 Gerber Fmt 4.6, Leading zero omitted, Abs format (unit mm)*
G04 Created by KiCad (PCBNEW (5.1.8-0-10_14)) date 2021-08-22 20:49:35*
%MOMM*%
%LPD*%
G01*
G04 APERTURE LIST*
%ADD10C,0.375000*%
%ADD11C,0.010000*%
%ADD12C,0.120000*%
%ADD13C,0.150000*%
%ADD14C,1.600000*%
%ADD15R,1.600000X1.600000*%
%ADD16C,3.200000*%
%ADD17O,1.740000X2.200000*%
%ADD18R,1.727200X1.727200*%
%ADD19O,1.727200X1.727200*%
%ADD20O,1.600000X1.600000*%
%ADD21R,2.400000X1.600000*%
%ADD22O,2.400000X1.600000*%
G04 APERTURE END LIST*
D10*
X70921093Y-121080357D02*
X70715736Y-121151785D01*
X70653236Y-121223214D01*
X70599665Y-121366071D01*
X70626450Y-121580357D01*
X70715736Y-121723214D01*
X70796093Y-121794642D01*
X70947879Y-121866071D01*
X71519308Y-121866071D01*
X71331808Y-120366071D01*
X70831808Y-120366071D01*
X70697879Y-120437500D01*
X70635379Y-120508928D01*
X70581808Y-120651785D01*
X70599665Y-120794642D01*
X70688950Y-120937500D01*
X70769308Y-121008928D01*
X70921093Y-121080357D01*
X71421093Y-121080357D01*
X69251450Y-120866071D02*
X69376450Y-121866071D01*
X69894308Y-120866071D02*
X69992522Y-121651785D01*
X69938950Y-121794642D01*
X69805022Y-121866071D01*
X69590736Y-121866071D01*
X69438950Y-121794642D01*
X69358593Y-121723214D01*
X68751450Y-120866071D02*
X68180022Y-120866071D01*
X68474665Y-120366071D02*
X68635379Y-121651785D01*
X68581808Y-121794642D01*
X68447879Y-121866071D01*
X68305022Y-121866071D01*
X67894308Y-120866071D02*
X67322879Y-120866071D01*
X67617522Y-120366071D02*
X67778236Y-121651785D01*
X67724665Y-121794642D01*
X67590736Y-121866071D01*
X67447879Y-121866071D01*
X66367522Y-121794642D02*
X66519308Y-121866071D01*
X66805022Y-121866071D01*
X66938950Y-121794642D01*
X66992522Y-121651785D01*
X66921093Y-121080357D01*
X66831808Y-120937500D01*
X66680022Y-120866071D01*
X66394308Y-120866071D01*
X66260379Y-120937500D01*
X66206808Y-121080357D01*
X66224665Y-121223214D01*
X66956808Y-121366071D01*
X65662165Y-121866071D02*
X65537165Y-120866071D01*
X65572879Y-121151785D02*
X65483593Y-121008928D01*
X65403236Y-120937500D01*
X65251450Y-120866071D01*
X65108593Y-120866071D01*
X64153236Y-121794642D02*
X64305022Y-121866071D01*
X64590736Y-121866071D01*
X64724665Y-121794642D01*
X64778236Y-121651785D01*
X64706808Y-121080357D01*
X64617522Y-120937500D01*
X64465736Y-120866071D01*
X64180022Y-120866071D01*
X64046093Y-120937500D01*
X63992522Y-121080357D01*
X64010379Y-121223214D01*
X64742522Y-121366071D01*
X62805022Y-121866071D02*
X62617522Y-120366071D01*
X62796093Y-121794642D02*
X62947879Y-121866071D01*
X63233593Y-121866071D01*
X63367522Y-121794642D01*
X63430022Y-121723214D01*
X63483593Y-121580357D01*
X63430022Y-121151785D01*
X63340736Y-121008928D01*
X63260379Y-120937500D01*
X63108593Y-120866071D01*
X62822879Y-120866071D01*
X62688950Y-120937500D01*
X71269308Y-124491071D02*
X71081808Y-122991071D01*
X70715736Y-124062500D01*
X70081808Y-122991071D01*
X70269308Y-124491071D01*
X68787165Y-123491071D02*
X68912165Y-124491071D01*
X69430022Y-123491071D02*
X69528236Y-124276785D01*
X69474665Y-124419642D01*
X69340736Y-124491071D01*
X69126450Y-124491071D01*
X68974665Y-124419642D01*
X68894308Y-124348214D01*
X68287165Y-123491071D02*
X67715736Y-123491071D01*
X68197879Y-124491071D02*
X68037165Y-123205357D01*
X67947879Y-123062500D01*
X67796093Y-122991071D01*
X67653236Y-122991071D01*
X67430022Y-123491071D02*
X66858593Y-123491071D01*
X67340736Y-124491071D02*
X67180022Y-123205357D01*
X67090736Y-123062500D01*
X66938950Y-122991071D01*
X66796093Y-122991071D01*
X66483593Y-124491071D02*
X66358593Y-123491071D01*
X66296093Y-122991071D02*
X66376450Y-123062500D01*
X66313950Y-123133928D01*
X66233593Y-123062500D01*
X66296093Y-122991071D01*
X66313950Y-123133928D01*
X65644308Y-123491071D02*
X65831808Y-124991071D01*
X65653236Y-123562500D02*
X65501450Y-123491071D01*
X65215736Y-123491071D01*
X65081808Y-123562500D01*
X65019308Y-123633928D01*
X64965736Y-123776785D01*
X65019308Y-124205357D01*
X65108593Y-124348214D01*
X65188950Y-124419642D01*
X65340736Y-124491071D01*
X65626450Y-124491071D01*
X65760379Y-124419642D01*
X64197879Y-124491071D02*
X64331808Y-124419642D01*
X64385379Y-124276785D01*
X64224665Y-122991071D01*
X63046093Y-124419642D02*
X63197879Y-124491071D01*
X63483593Y-124491071D01*
X63617522Y-124419642D01*
X63671093Y-124276785D01*
X63599665Y-123705357D01*
X63510379Y-123562500D01*
X63358593Y-123491071D01*
X63072879Y-123491071D01*
X62938950Y-123562500D01*
X62885379Y-123705357D01*
X62903236Y-123848214D01*
X63635379Y-123991071D01*
D11*
%TO.C,G\u002A\u002A\u002A*%
G36*
X67480190Y-46023833D02*
G01*
X67470175Y-46624313D01*
X67458972Y-47080575D01*
X67443971Y-47417726D01*
X67422563Y-47660876D01*
X67392140Y-47835132D01*
X67350091Y-47965604D01*
X67293809Y-48077399D01*
X67261166Y-48131486D01*
X66977191Y-48444595D01*
X66614025Y-48638648D01*
X66208984Y-48714674D01*
X65799383Y-48673700D01*
X65422539Y-48516755D01*
X65115768Y-48244866D01*
X65001942Y-48069242D01*
X64942677Y-47941923D01*
X64897761Y-47799144D01*
X64864723Y-47615051D01*
X64841091Y-47363792D01*
X64824396Y-47019513D01*
X64812166Y-46556362D01*
X64802415Y-45981500D01*
X64776496Y-44224667D01*
X63008000Y-44224667D01*
X63008000Y-46071966D01*
X63012018Y-46793156D01*
X63026823Y-47370089D01*
X63056542Y-47827712D01*
X63105302Y-48190971D01*
X63177230Y-48484810D01*
X63276455Y-48734177D01*
X63407103Y-48964017D01*
X63511596Y-49115817D01*
X63888032Y-49500818D01*
X64388461Y-49811242D01*
X64980749Y-50038071D01*
X65632762Y-50172285D01*
X66312365Y-50204866D01*
X66987424Y-50126795D01*
X67058742Y-50111355D01*
X67672773Y-49913484D01*
X68212036Y-49624693D01*
X68637670Y-49267311D01*
X68741997Y-49144104D01*
X68902853Y-48916229D01*
X69028202Y-48684290D01*
X69122300Y-48423669D01*
X69189406Y-48109748D01*
X69233776Y-47717910D01*
X69259669Y-47223537D01*
X69271343Y-46602011D01*
X69273334Y-46071966D01*
X69273334Y-44224667D01*
X67507380Y-44224667D01*
X67480190Y-46023833D01*
G37*
X67480190Y-46023833D02*
X67470175Y-46624313D01*
X67458972Y-47080575D01*
X67443971Y-47417726D01*
X67422563Y-47660876D01*
X67392140Y-47835132D01*
X67350091Y-47965604D01*
X67293809Y-48077399D01*
X67261166Y-48131486D01*
X66977191Y-48444595D01*
X66614025Y-48638648D01*
X66208984Y-48714674D01*
X65799383Y-48673700D01*
X65422539Y-48516755D01*
X65115768Y-48244866D01*
X65001942Y-48069242D01*
X64942677Y-47941923D01*
X64897761Y-47799144D01*
X64864723Y-47615051D01*
X64841091Y-47363792D01*
X64824396Y-47019513D01*
X64812166Y-46556362D01*
X64802415Y-45981500D01*
X64776496Y-44224667D01*
X63008000Y-44224667D01*
X63008000Y-46071966D01*
X63012018Y-46793156D01*
X63026823Y-47370089D01*
X63056542Y-47827712D01*
X63105302Y-48190971D01*
X63177230Y-48484810D01*
X63276455Y-48734177D01*
X63407103Y-48964017D01*
X63511596Y-49115817D01*
X63888032Y-49500818D01*
X64388461Y-49811242D01*
X64980749Y-50038071D01*
X65632762Y-50172285D01*
X66312365Y-50204866D01*
X66987424Y-50126795D01*
X67058742Y-50111355D01*
X67672773Y-49913484D01*
X68212036Y-49624693D01*
X68637670Y-49267311D01*
X68741997Y-49144104D01*
X68902853Y-48916229D01*
X69028202Y-48684290D01*
X69122300Y-48423669D01*
X69189406Y-48109748D01*
X69233776Y-47717910D01*
X69259669Y-47223537D01*
X69271343Y-46602011D01*
X69273334Y-46071966D01*
X69273334Y-44224667D01*
X67507380Y-44224667D01*
X67480190Y-46023833D01*
G36*
X72892834Y-44237669D02*
G01*
X72277628Y-44248021D01*
X71806066Y-44259205D01*
X71452471Y-44273904D01*
X71191163Y-44294799D01*
X70996465Y-44324574D01*
X70842697Y-44365910D01*
X70704181Y-44421491D01*
X70585790Y-44478667D01*
X70175970Y-44762052D01*
X69910153Y-45114799D01*
X69791606Y-45512099D01*
X69823600Y-45929140D01*
X70009404Y-46341115D01*
X70296470Y-46674056D01*
X70565130Y-46919439D01*
X70223568Y-47093691D01*
X69823462Y-47381396D01*
X69549004Y-47751791D01*
X69399773Y-48174513D01*
X69375349Y-48619200D01*
X69475309Y-49055490D01*
X69699234Y-49453022D01*
X70046702Y-49781434D01*
X70262581Y-49908243D01*
X70398169Y-49971355D01*
X70532391Y-50020094D01*
X70689310Y-50056697D01*
X70892994Y-50083397D01*
X71167505Y-50102430D01*
X71536910Y-50116030D01*
X72025274Y-50126433D01*
X72656662Y-50135872D01*
X72723500Y-50136780D01*
X74776667Y-50164560D01*
X74776667Y-47611333D01*
X72998667Y-47611333D01*
X72998667Y-49152710D01*
X72271668Y-49122853D01*
X71912732Y-49103984D01*
X71679254Y-49074816D01*
X71527373Y-49022755D01*
X71413232Y-48935209D01*
X71340335Y-48855444D01*
X71201935Y-48638027D01*
X71136741Y-48424352D01*
X71136000Y-48405379D01*
X71201063Y-48075206D01*
X71399385Y-47835486D01*
X71735670Y-47683271D01*
X72214620Y-47615610D01*
X72401796Y-47611333D01*
X72998667Y-47611333D01*
X74776667Y-47611333D01*
X74776667Y-45240667D01*
X72998667Y-45240667D01*
X72998667Y-46595333D01*
X72538512Y-46595333D01*
X72227672Y-46578564D01*
X71949238Y-46535847D01*
X71841735Y-46505370D01*
X71619628Y-46389019D01*
X71509546Y-46223536D01*
X71477485Y-45954120D01*
X71477260Y-45918000D01*
X71494542Y-45688705D01*
X71536608Y-45529089D01*
X71541187Y-45521130D01*
X71715507Y-45384988D01*
X72019759Y-45288849D01*
X72417162Y-45243058D01*
X72538512Y-45240667D01*
X72998667Y-45240667D01*
X74776667Y-45240667D01*
X74776667Y-44208337D01*
X72892834Y-44237669D01*
G37*
X72892834Y-44237669D02*
X72277628Y-44248021D01*
X71806066Y-44259205D01*
X71452471Y-44273904D01*
X71191163Y-44294799D01*
X70996465Y-44324574D01*
X70842697Y-44365910D01*
X70704181Y-44421491D01*
X70585790Y-44478667D01*
X70175970Y-44762052D01*
X69910153Y-45114799D01*
X69791606Y-45512099D01*
X69823600Y-45929140D01*
X70009404Y-46341115D01*
X70296470Y-46674056D01*
X70565130Y-46919439D01*
X70223568Y-47093691D01*
X69823462Y-47381396D01*
X69549004Y-47751791D01*
X69399773Y-48174513D01*
X69375349Y-48619200D01*
X69475309Y-49055490D01*
X69699234Y-49453022D01*
X70046702Y-49781434D01*
X70262581Y-49908243D01*
X70398169Y-49971355D01*
X70532391Y-50020094D01*
X70689310Y-50056697D01*
X70892994Y-50083397D01*
X71167505Y-50102430D01*
X71536910Y-50116030D01*
X72025274Y-50126433D01*
X72656662Y-50135872D01*
X72723500Y-50136780D01*
X74776667Y-50164560D01*
X74776667Y-47611333D01*
X72998667Y-47611333D01*
X72998667Y-49152710D01*
X72271668Y-49122853D01*
X71912732Y-49103984D01*
X71679254Y-49074816D01*
X71527373Y-49022755D01*
X71413232Y-48935209D01*
X71340335Y-48855444D01*
X71201935Y-48638027D01*
X71136741Y-48424352D01*
X71136000Y-48405379D01*
X71201063Y-48075206D01*
X71399385Y-47835486D01*
X71735670Y-47683271D01*
X72214620Y-47615610D01*
X72401796Y-47611333D01*
X72998667Y-47611333D01*
X74776667Y-47611333D01*
X74776667Y-45240667D01*
X72998667Y-45240667D01*
X72998667Y-46595333D01*
X72538512Y-46595333D01*
X72227672Y-46578564D01*
X71949238Y-46535847D01*
X71841735Y-46505370D01*
X71619628Y-46389019D01*
X71509546Y-46223536D01*
X71477485Y-45954120D01*
X71477260Y-45918000D01*
X71494542Y-45688705D01*
X71536608Y-45529089D01*
X71541187Y-45521130D01*
X71715507Y-45384988D01*
X72019759Y-45288849D01*
X72417162Y-45243058D01*
X72538512Y-45240667D01*
X72998667Y-45240667D01*
X74776667Y-45240667D01*
X74776667Y-44208337D01*
X72892834Y-44237669D01*
G36*
X60245981Y-45322250D02*
G01*
X59882209Y-45753033D01*
X59608888Y-46058464D01*
X59415453Y-46249091D01*
X59291340Y-46335465D01*
X59232157Y-46334547D01*
X59144611Y-46242009D01*
X58971207Y-46043291D01*
X58733240Y-45763326D01*
X58452010Y-45427051D01*
X58295863Y-45238357D01*
X57462334Y-44227455D01*
X55811334Y-44224667D01*
X55811334Y-50151333D01*
X57585898Y-50151333D01*
X57608783Y-48394571D01*
X57631667Y-46637809D01*
X58436000Y-47670807D01*
X58718316Y-48026709D01*
X58968521Y-48329640D01*
X59166780Y-48556545D01*
X59293258Y-48684370D01*
X59325000Y-48704088D01*
X59404112Y-48640925D01*
X59566426Y-48466580D01*
X59791889Y-48204076D01*
X60060443Y-47876438D01*
X60214000Y-47683482D01*
X61018334Y-46662591D01*
X61041218Y-48406962D01*
X61064103Y-50151333D01*
X62754000Y-50151333D01*
X62754000Y-44224667D01*
X61157042Y-44224667D01*
X60245981Y-45322250D01*
G37*
X60245981Y-45322250D02*
X59882209Y-45753033D01*
X59608888Y-46058464D01*
X59415453Y-46249091D01*
X59291340Y-46335465D01*
X59232157Y-46334547D01*
X59144611Y-46242009D01*
X58971207Y-46043291D01*
X58733240Y-45763326D01*
X58452010Y-45427051D01*
X58295863Y-45238357D01*
X57462334Y-44227455D01*
X55811334Y-44224667D01*
X55811334Y-50151333D01*
X57585898Y-50151333D01*
X57608783Y-48394571D01*
X57631667Y-46637809D01*
X58436000Y-47670807D01*
X58718316Y-48026709D01*
X58968521Y-48329640D01*
X59166780Y-48556545D01*
X59293258Y-48684370D01*
X59325000Y-48704088D01*
X59404112Y-48640925D01*
X59566426Y-48466580D01*
X59791889Y-48204076D01*
X60060443Y-47876438D01*
X60214000Y-47683482D01*
X61018334Y-46662591D01*
X61041218Y-48406962D01*
X61064103Y-50151333D01*
X62754000Y-50151333D01*
X62754000Y-44224667D01*
X61157042Y-44224667D01*
X60245981Y-45322250D01*
G36*
X53330999Y-44229485D02*
G01*
X52822381Y-44242865D01*
X52378337Y-44263195D01*
X52034887Y-44288862D01*
X51840455Y-44315429D01*
X51329807Y-44500072D01*
X50915498Y-44797921D01*
X50607178Y-45182327D01*
X50414495Y-45626639D01*
X50347101Y-46104206D01*
X50414643Y-46588377D01*
X50626772Y-47052502D01*
X50776734Y-47253302D01*
X51029721Y-47503493D01*
X51316965Y-47684828D01*
X51671509Y-47808698D01*
X52126397Y-47886493D01*
X52714672Y-47929603D01*
X52742167Y-47930797D01*
X53694667Y-47971308D01*
X53694667Y-50151333D01*
X55472667Y-50151333D01*
X55472667Y-46764667D01*
X53694667Y-46764667D01*
X53181101Y-46764667D01*
X52871659Y-46748886D01*
X52607695Y-46708126D01*
X52482601Y-46667325D01*
X52289316Y-46533783D01*
X52196744Y-46359663D01*
X52171980Y-46082673D01*
X52171964Y-46079289D01*
X52212845Y-45801774D01*
X52352032Y-45610814D01*
X52610177Y-45491957D01*
X53007932Y-45430747D01*
X53108220Y-45424028D01*
X53694667Y-45390891D01*
X53694667Y-46764667D01*
X55472667Y-46764667D01*
X55472667Y-44224667D01*
X53868168Y-44224667D01*
X53330999Y-44229485D01*
G37*
X53330999Y-44229485D02*
X52822381Y-44242865D01*
X52378337Y-44263195D01*
X52034887Y-44288862D01*
X51840455Y-44315429D01*
X51329807Y-44500072D01*
X50915498Y-44797921D01*
X50607178Y-45182327D01*
X50414495Y-45626639D01*
X50347101Y-46104206D01*
X50414643Y-46588377D01*
X50626772Y-47052502D01*
X50776734Y-47253302D01*
X51029721Y-47503493D01*
X51316965Y-47684828D01*
X51671509Y-47808698D01*
X52126397Y-47886493D01*
X52714672Y-47929603D01*
X52742167Y-47930797D01*
X53694667Y-47971308D01*
X53694667Y-50151333D01*
X55472667Y-50151333D01*
X55472667Y-46764667D01*
X53694667Y-46764667D01*
X53181101Y-46764667D01*
X52871659Y-46748886D01*
X52607695Y-46708126D01*
X52482601Y-46667325D01*
X52289316Y-46533783D01*
X52196744Y-46359663D01*
X52171980Y-46082673D01*
X52171964Y-46079289D01*
X52212845Y-45801774D01*
X52352032Y-45610814D01*
X52610177Y-45491957D01*
X53007932Y-45430747D01*
X53108220Y-45424028D01*
X53694667Y-45390891D01*
X53694667Y-46764667D01*
X55472667Y-46764667D01*
X55472667Y-44224667D01*
X53868168Y-44224667D01*
X53330999Y-44229485D01*
G36*
X67480190Y-150023833D02*
G01*
X67470175Y-150624313D01*
X67458972Y-151080575D01*
X67443971Y-151417726D01*
X67422563Y-151660876D01*
X67392140Y-151835132D01*
X67350091Y-151965604D01*
X67293809Y-152077399D01*
X67261166Y-152131486D01*
X66977191Y-152444595D01*
X66614025Y-152638648D01*
X66208984Y-152714674D01*
X65799383Y-152673700D01*
X65422539Y-152516755D01*
X65115768Y-152244866D01*
X65001942Y-152069242D01*
X64942677Y-151941923D01*
X64897761Y-151799144D01*
X64864723Y-151615051D01*
X64841091Y-151363792D01*
X64824396Y-151019513D01*
X64812166Y-150556362D01*
X64802415Y-149981500D01*
X64776496Y-148224667D01*
X63008000Y-148224667D01*
X63008000Y-150071966D01*
X63012018Y-150793156D01*
X63026823Y-151370089D01*
X63056542Y-151827712D01*
X63105302Y-152190971D01*
X63177230Y-152484810D01*
X63276455Y-152734177D01*
X63407103Y-152964017D01*
X63511596Y-153115817D01*
X63888032Y-153500818D01*
X64388461Y-153811242D01*
X64980749Y-154038071D01*
X65632762Y-154172285D01*
X66312365Y-154204866D01*
X66987424Y-154126795D01*
X67058742Y-154111355D01*
X67672773Y-153913484D01*
X68212036Y-153624693D01*
X68637670Y-153267311D01*
X68741997Y-153144104D01*
X68902853Y-152916229D01*
X69028202Y-152684290D01*
X69122300Y-152423669D01*
X69189406Y-152109748D01*
X69233776Y-151717910D01*
X69259669Y-151223537D01*
X69271343Y-150602011D01*
X69273334Y-150071966D01*
X69273334Y-148224667D01*
X67507380Y-148224667D01*
X67480190Y-150023833D01*
G37*
X67480190Y-150023833D02*
X67470175Y-150624313D01*
X67458972Y-151080575D01*
X67443971Y-151417726D01*
X67422563Y-151660876D01*
X67392140Y-151835132D01*
X67350091Y-151965604D01*
X67293809Y-152077399D01*
X67261166Y-152131486D01*
X66977191Y-152444595D01*
X66614025Y-152638648D01*
X66208984Y-152714674D01*
X65799383Y-152673700D01*
X65422539Y-152516755D01*
X65115768Y-152244866D01*
X65001942Y-152069242D01*
X64942677Y-151941923D01*
X64897761Y-151799144D01*
X64864723Y-151615051D01*
X64841091Y-151363792D01*
X64824396Y-151019513D01*
X64812166Y-150556362D01*
X64802415Y-149981500D01*
X64776496Y-148224667D01*
X63008000Y-148224667D01*
X63008000Y-150071966D01*
X63012018Y-150793156D01*
X63026823Y-151370089D01*
X63056542Y-151827712D01*
X63105302Y-152190971D01*
X63177230Y-152484810D01*
X63276455Y-152734177D01*
X63407103Y-152964017D01*
X63511596Y-153115817D01*
X63888032Y-153500818D01*
X64388461Y-153811242D01*
X64980749Y-154038071D01*
X65632762Y-154172285D01*
X66312365Y-154204866D01*
X66987424Y-154126795D01*
X67058742Y-154111355D01*
X67672773Y-153913484D01*
X68212036Y-153624693D01*
X68637670Y-153267311D01*
X68741997Y-153144104D01*
X68902853Y-152916229D01*
X69028202Y-152684290D01*
X69122300Y-152423669D01*
X69189406Y-152109748D01*
X69233776Y-151717910D01*
X69259669Y-151223537D01*
X69271343Y-150602011D01*
X69273334Y-150071966D01*
X69273334Y-148224667D01*
X67507380Y-148224667D01*
X67480190Y-150023833D01*
G36*
X72892834Y-148237669D02*
G01*
X72277628Y-148248021D01*
X71806066Y-148259205D01*
X71452471Y-148273904D01*
X71191163Y-148294799D01*
X70996465Y-148324574D01*
X70842697Y-148365910D01*
X70704181Y-148421491D01*
X70585790Y-148478667D01*
X70175970Y-148762052D01*
X69910153Y-149114799D01*
X69791606Y-149512099D01*
X69823600Y-149929140D01*
X70009404Y-150341115D01*
X70296470Y-150674056D01*
X70565130Y-150919439D01*
X70223568Y-151093691D01*
X69823462Y-151381396D01*
X69549004Y-151751791D01*
X69399773Y-152174513D01*
X69375349Y-152619200D01*
X69475309Y-153055490D01*
X69699234Y-153453022D01*
X70046702Y-153781434D01*
X70262581Y-153908243D01*
X70398169Y-153971355D01*
X70532391Y-154020094D01*
X70689310Y-154056697D01*
X70892994Y-154083397D01*
X71167505Y-154102430D01*
X71536910Y-154116030D01*
X72025274Y-154126433D01*
X72656662Y-154135872D01*
X72723500Y-154136780D01*
X74776667Y-154164560D01*
X74776667Y-151611333D01*
X72998667Y-151611333D01*
X72998667Y-153152710D01*
X72271668Y-153122853D01*
X71912732Y-153103984D01*
X71679254Y-153074816D01*
X71527373Y-153022755D01*
X71413232Y-152935209D01*
X71340335Y-152855444D01*
X71201935Y-152638027D01*
X71136741Y-152424352D01*
X71136000Y-152405379D01*
X71201063Y-152075206D01*
X71399385Y-151835486D01*
X71735670Y-151683271D01*
X72214620Y-151615610D01*
X72401796Y-151611333D01*
X72998667Y-151611333D01*
X74776667Y-151611333D01*
X74776667Y-149240667D01*
X72998667Y-149240667D01*
X72998667Y-150595333D01*
X72538512Y-150595333D01*
X72227672Y-150578564D01*
X71949238Y-150535847D01*
X71841735Y-150505370D01*
X71619628Y-150389019D01*
X71509546Y-150223536D01*
X71477485Y-149954120D01*
X71477260Y-149918000D01*
X71494542Y-149688705D01*
X71536608Y-149529089D01*
X71541187Y-149521130D01*
X71715507Y-149384988D01*
X72019759Y-149288849D01*
X72417162Y-149243058D01*
X72538512Y-149240667D01*
X72998667Y-149240667D01*
X74776667Y-149240667D01*
X74776667Y-148208337D01*
X72892834Y-148237669D01*
G37*
X72892834Y-148237669D02*
X72277628Y-148248021D01*
X71806066Y-148259205D01*
X71452471Y-148273904D01*
X71191163Y-148294799D01*
X70996465Y-148324574D01*
X70842697Y-148365910D01*
X70704181Y-148421491D01*
X70585790Y-148478667D01*
X70175970Y-148762052D01*
X69910153Y-149114799D01*
X69791606Y-149512099D01*
X69823600Y-149929140D01*
X70009404Y-150341115D01*
X70296470Y-150674056D01*
X70565130Y-150919439D01*
X70223568Y-151093691D01*
X69823462Y-151381396D01*
X69549004Y-151751791D01*
X69399773Y-152174513D01*
X69375349Y-152619200D01*
X69475309Y-153055490D01*
X69699234Y-153453022D01*
X70046702Y-153781434D01*
X70262581Y-153908243D01*
X70398169Y-153971355D01*
X70532391Y-154020094D01*
X70689310Y-154056697D01*
X70892994Y-154083397D01*
X71167505Y-154102430D01*
X71536910Y-154116030D01*
X72025274Y-154126433D01*
X72656662Y-154135872D01*
X72723500Y-154136780D01*
X74776667Y-154164560D01*
X74776667Y-151611333D01*
X72998667Y-151611333D01*
X72998667Y-153152710D01*
X72271668Y-153122853D01*
X71912732Y-153103984D01*
X71679254Y-153074816D01*
X71527373Y-153022755D01*
X71413232Y-152935209D01*
X71340335Y-152855444D01*
X71201935Y-152638027D01*
X71136741Y-152424352D01*
X71136000Y-152405379D01*
X71201063Y-152075206D01*
X71399385Y-151835486D01*
X71735670Y-151683271D01*
X72214620Y-151615610D01*
X72401796Y-151611333D01*
X72998667Y-151611333D01*
X74776667Y-151611333D01*
X74776667Y-149240667D01*
X72998667Y-149240667D01*
X72998667Y-150595333D01*
X72538512Y-150595333D01*
X72227672Y-150578564D01*
X71949238Y-150535847D01*
X71841735Y-150505370D01*
X71619628Y-150389019D01*
X71509546Y-150223536D01*
X71477485Y-149954120D01*
X71477260Y-149918000D01*
X71494542Y-149688705D01*
X71536608Y-149529089D01*
X71541187Y-149521130D01*
X71715507Y-149384988D01*
X72019759Y-149288849D01*
X72417162Y-149243058D01*
X72538512Y-149240667D01*
X72998667Y-149240667D01*
X74776667Y-149240667D01*
X74776667Y-148208337D01*
X72892834Y-148237669D01*
G36*
X60245981Y-149322250D02*
G01*
X59882209Y-149753033D01*
X59608888Y-150058464D01*
X59415453Y-150249091D01*
X59291340Y-150335465D01*
X59232157Y-150334547D01*
X59144611Y-150242009D01*
X58971207Y-150043291D01*
X58733240Y-149763326D01*
X58452010Y-149427051D01*
X58295863Y-149238357D01*
X57462334Y-148227455D01*
X55811334Y-148224667D01*
X55811334Y-154151333D01*
X57585898Y-154151333D01*
X57608783Y-152394571D01*
X57631667Y-150637809D01*
X58436000Y-151670807D01*
X58718316Y-152026709D01*
X58968521Y-152329640D01*
X59166780Y-152556545D01*
X59293258Y-152684370D01*
X59325000Y-152704088D01*
X59404112Y-152640925D01*
X59566426Y-152466580D01*
X59791889Y-152204076D01*
X60060443Y-151876438D01*
X60214000Y-151683482D01*
X61018334Y-150662591D01*
X61041218Y-152406962D01*
X61064103Y-154151333D01*
X62754000Y-154151333D01*
X62754000Y-148224667D01*
X61157042Y-148224667D01*
X60245981Y-149322250D01*
G37*
X60245981Y-149322250D02*
X59882209Y-149753033D01*
X59608888Y-150058464D01*
X59415453Y-150249091D01*
X59291340Y-150335465D01*
X59232157Y-150334547D01*
X59144611Y-150242009D01*
X58971207Y-150043291D01*
X58733240Y-149763326D01*
X58452010Y-149427051D01*
X58295863Y-149238357D01*
X57462334Y-148227455D01*
X55811334Y-148224667D01*
X55811334Y-154151333D01*
X57585898Y-154151333D01*
X57608783Y-152394571D01*
X57631667Y-150637809D01*
X58436000Y-151670807D01*
X58718316Y-152026709D01*
X58968521Y-152329640D01*
X59166780Y-152556545D01*
X59293258Y-152684370D01*
X59325000Y-152704088D01*
X59404112Y-152640925D01*
X59566426Y-152466580D01*
X59791889Y-152204076D01*
X60060443Y-151876438D01*
X60214000Y-151683482D01*
X61018334Y-150662591D01*
X61041218Y-152406962D01*
X61064103Y-154151333D01*
X62754000Y-154151333D01*
X62754000Y-148224667D01*
X61157042Y-148224667D01*
X60245981Y-149322250D01*
G36*
X53330999Y-148229485D02*
G01*
X52822381Y-148242865D01*
X52378337Y-148263195D01*
X52034887Y-148288862D01*
X51840455Y-148315429D01*
X51329807Y-148500072D01*
X50915498Y-148797921D01*
X50607178Y-149182327D01*
X50414495Y-149626639D01*
X50347101Y-150104206D01*
X50414643Y-150588377D01*
X50626772Y-151052502D01*
X50776734Y-151253302D01*
X51029721Y-151503493D01*
X51316965Y-151684828D01*
X51671509Y-151808698D01*
X52126397Y-151886493D01*
X52714672Y-151929603D01*
X52742167Y-151930797D01*
X53694667Y-151971308D01*
X53694667Y-154151333D01*
X55472667Y-154151333D01*
X55472667Y-150764667D01*
X53694667Y-150764667D01*
X53181101Y-150764667D01*
X52871659Y-150748886D01*
X52607695Y-150708126D01*
X52482601Y-150667325D01*
X52289316Y-150533783D01*
X52196744Y-150359663D01*
X52171980Y-150082673D01*
X52171964Y-150079289D01*
X52212845Y-149801774D01*
X52352032Y-149610814D01*
X52610177Y-149491957D01*
X53007932Y-149430747D01*
X53108220Y-149424028D01*
X53694667Y-149390891D01*
X53694667Y-150764667D01*
X55472667Y-150764667D01*
X55472667Y-148224667D01*
X53868168Y-148224667D01*
X53330999Y-148229485D01*
G37*
X53330999Y-148229485D02*
X52822381Y-148242865D01*
X52378337Y-148263195D01*
X52034887Y-148288862D01*
X51840455Y-148315429D01*
X51329807Y-148500072D01*
X50915498Y-148797921D01*
X50607178Y-149182327D01*
X50414495Y-149626639D01*
X50347101Y-150104206D01*
X50414643Y-150588377D01*
X50626772Y-151052502D01*
X50776734Y-151253302D01*
X51029721Y-151503493D01*
X51316965Y-151684828D01*
X51671509Y-151808698D01*
X52126397Y-151886493D01*
X52714672Y-151929603D01*
X52742167Y-151930797D01*
X53694667Y-151971308D01*
X53694667Y-154151333D01*
X55472667Y-154151333D01*
X55472667Y-150764667D01*
X53694667Y-150764667D01*
X53181101Y-150764667D01*
X52871659Y-150748886D01*
X52607695Y-150708126D01*
X52482601Y-150667325D01*
X52289316Y-150533783D01*
X52196744Y-150359663D01*
X52171980Y-150082673D01*
X52171964Y-150079289D01*
X52212845Y-149801774D01*
X52352032Y-149610814D01*
X52610177Y-149491957D01*
X53007932Y-149430747D01*
X53108220Y-149424028D01*
X53694667Y-149390891D01*
X53694667Y-150764667D01*
X55472667Y-150764667D01*
X55472667Y-148224667D01*
X53868168Y-148224667D01*
X53330999Y-148229485D01*
G36*
X67480190Y-111023833D02*
G01*
X67470175Y-111624313D01*
X67458972Y-112080575D01*
X67443971Y-112417726D01*
X67422563Y-112660876D01*
X67392140Y-112835132D01*
X67350091Y-112965604D01*
X67293809Y-113077399D01*
X67261166Y-113131486D01*
X66977191Y-113444595D01*
X66614025Y-113638648D01*
X66208984Y-113714674D01*
X65799383Y-113673700D01*
X65422539Y-113516755D01*
X65115768Y-113244866D01*
X65001942Y-113069242D01*
X64942677Y-112941923D01*
X64897761Y-112799144D01*
X64864723Y-112615051D01*
X64841091Y-112363792D01*
X64824396Y-112019513D01*
X64812166Y-111556362D01*
X64802415Y-110981500D01*
X64776496Y-109224667D01*
X63008000Y-109224667D01*
X63008000Y-111071966D01*
X63012018Y-111793156D01*
X63026823Y-112370089D01*
X63056542Y-112827712D01*
X63105302Y-113190971D01*
X63177230Y-113484810D01*
X63276455Y-113734177D01*
X63407103Y-113964017D01*
X63511596Y-114115817D01*
X63888032Y-114500818D01*
X64388461Y-114811242D01*
X64980749Y-115038071D01*
X65632762Y-115172285D01*
X66312365Y-115204866D01*
X66987424Y-115126795D01*
X67058742Y-115111355D01*
X67672773Y-114913484D01*
X68212036Y-114624693D01*
X68637670Y-114267311D01*
X68741997Y-114144104D01*
X68902853Y-113916229D01*
X69028202Y-113684290D01*
X69122300Y-113423669D01*
X69189406Y-113109748D01*
X69233776Y-112717910D01*
X69259669Y-112223537D01*
X69271343Y-111602011D01*
X69273334Y-111071966D01*
X69273334Y-109224667D01*
X67507380Y-109224667D01*
X67480190Y-111023833D01*
G37*
X67480190Y-111023833D02*
X67470175Y-111624313D01*
X67458972Y-112080575D01*
X67443971Y-112417726D01*
X67422563Y-112660876D01*
X67392140Y-112835132D01*
X67350091Y-112965604D01*
X67293809Y-113077399D01*
X67261166Y-113131486D01*
X66977191Y-113444595D01*
X66614025Y-113638648D01*
X66208984Y-113714674D01*
X65799383Y-113673700D01*
X65422539Y-113516755D01*
X65115768Y-113244866D01*
X65001942Y-113069242D01*
X64942677Y-112941923D01*
X64897761Y-112799144D01*
X64864723Y-112615051D01*
X64841091Y-112363792D01*
X64824396Y-112019513D01*
X64812166Y-111556362D01*
X64802415Y-110981500D01*
X64776496Y-109224667D01*
X63008000Y-109224667D01*
X63008000Y-111071966D01*
X63012018Y-111793156D01*
X63026823Y-112370089D01*
X63056542Y-112827712D01*
X63105302Y-113190971D01*
X63177230Y-113484810D01*
X63276455Y-113734177D01*
X63407103Y-113964017D01*
X63511596Y-114115817D01*
X63888032Y-114500818D01*
X64388461Y-114811242D01*
X64980749Y-115038071D01*
X65632762Y-115172285D01*
X66312365Y-115204866D01*
X66987424Y-115126795D01*
X67058742Y-115111355D01*
X67672773Y-114913484D01*
X68212036Y-114624693D01*
X68637670Y-114267311D01*
X68741997Y-114144104D01*
X68902853Y-113916229D01*
X69028202Y-113684290D01*
X69122300Y-113423669D01*
X69189406Y-113109748D01*
X69233776Y-112717910D01*
X69259669Y-112223537D01*
X69271343Y-111602011D01*
X69273334Y-111071966D01*
X69273334Y-109224667D01*
X67507380Y-109224667D01*
X67480190Y-111023833D01*
G36*
X72892834Y-109237669D02*
G01*
X72277628Y-109248021D01*
X71806066Y-109259205D01*
X71452471Y-109273904D01*
X71191163Y-109294799D01*
X70996465Y-109324574D01*
X70842697Y-109365910D01*
X70704181Y-109421491D01*
X70585790Y-109478667D01*
X70175970Y-109762052D01*
X69910153Y-110114799D01*
X69791606Y-110512099D01*
X69823600Y-110929140D01*
X70009404Y-111341115D01*
X70296470Y-111674056D01*
X70565130Y-111919439D01*
X70223568Y-112093691D01*
X69823462Y-112381396D01*
X69549004Y-112751791D01*
X69399773Y-113174513D01*
X69375349Y-113619200D01*
X69475309Y-114055490D01*
X69699234Y-114453022D01*
X70046702Y-114781434D01*
X70262581Y-114908243D01*
X70398169Y-114971355D01*
X70532391Y-115020094D01*
X70689310Y-115056697D01*
X70892994Y-115083397D01*
X71167505Y-115102430D01*
X71536910Y-115116030D01*
X72025274Y-115126433D01*
X72656662Y-115135872D01*
X72723500Y-115136780D01*
X74776667Y-115164560D01*
X74776667Y-112611333D01*
X72998667Y-112611333D01*
X72998667Y-114152710D01*
X72271668Y-114122853D01*
X71912732Y-114103984D01*
X71679254Y-114074816D01*
X71527373Y-114022755D01*
X71413232Y-113935209D01*
X71340335Y-113855444D01*
X71201935Y-113638027D01*
X71136741Y-113424352D01*
X71136000Y-113405379D01*
X71201063Y-113075206D01*
X71399385Y-112835486D01*
X71735670Y-112683271D01*
X72214620Y-112615610D01*
X72401796Y-112611333D01*
X72998667Y-112611333D01*
X74776667Y-112611333D01*
X74776667Y-110240667D01*
X72998667Y-110240667D01*
X72998667Y-111595333D01*
X72538512Y-111595333D01*
X72227672Y-111578564D01*
X71949238Y-111535847D01*
X71841735Y-111505370D01*
X71619628Y-111389019D01*
X71509546Y-111223536D01*
X71477485Y-110954120D01*
X71477260Y-110918000D01*
X71494542Y-110688705D01*
X71536608Y-110529089D01*
X71541187Y-110521130D01*
X71715507Y-110384988D01*
X72019759Y-110288849D01*
X72417162Y-110243058D01*
X72538512Y-110240667D01*
X72998667Y-110240667D01*
X74776667Y-110240667D01*
X74776667Y-109208337D01*
X72892834Y-109237669D01*
G37*
X72892834Y-109237669D02*
X72277628Y-109248021D01*
X71806066Y-109259205D01*
X71452471Y-109273904D01*
X71191163Y-109294799D01*
X70996465Y-109324574D01*
X70842697Y-109365910D01*
X70704181Y-109421491D01*
X70585790Y-109478667D01*
X70175970Y-109762052D01*
X69910153Y-110114799D01*
X69791606Y-110512099D01*
X69823600Y-110929140D01*
X70009404Y-111341115D01*
X70296470Y-111674056D01*
X70565130Y-111919439D01*
X70223568Y-112093691D01*
X69823462Y-112381396D01*
X69549004Y-112751791D01*
X69399773Y-113174513D01*
X69375349Y-113619200D01*
X69475309Y-114055490D01*
X69699234Y-114453022D01*
X70046702Y-114781434D01*
X70262581Y-114908243D01*
X70398169Y-114971355D01*
X70532391Y-115020094D01*
X70689310Y-115056697D01*
X70892994Y-115083397D01*
X71167505Y-115102430D01*
X71536910Y-115116030D01*
X72025274Y-115126433D01*
X72656662Y-115135872D01*
X72723500Y-115136780D01*
X74776667Y-115164560D01*
X74776667Y-112611333D01*
X72998667Y-112611333D01*
X72998667Y-114152710D01*
X72271668Y-114122853D01*
X71912732Y-114103984D01*
X71679254Y-114074816D01*
X71527373Y-114022755D01*
X71413232Y-113935209D01*
X71340335Y-113855444D01*
X71201935Y-113638027D01*
X71136741Y-113424352D01*
X71136000Y-113405379D01*
X71201063Y-113075206D01*
X71399385Y-112835486D01*
X71735670Y-112683271D01*
X72214620Y-112615610D01*
X72401796Y-112611333D01*
X72998667Y-112611333D01*
X74776667Y-112611333D01*
X74776667Y-110240667D01*
X72998667Y-110240667D01*
X72998667Y-111595333D01*
X72538512Y-111595333D01*
X72227672Y-111578564D01*
X71949238Y-111535847D01*
X71841735Y-111505370D01*
X71619628Y-111389019D01*
X71509546Y-111223536D01*
X71477485Y-110954120D01*
X71477260Y-110918000D01*
X71494542Y-110688705D01*
X71536608Y-110529089D01*
X71541187Y-110521130D01*
X71715507Y-110384988D01*
X72019759Y-110288849D01*
X72417162Y-110243058D01*
X72538512Y-110240667D01*
X72998667Y-110240667D01*
X74776667Y-110240667D01*
X74776667Y-109208337D01*
X72892834Y-109237669D01*
G36*
X60245981Y-110322250D02*
G01*
X59882209Y-110753033D01*
X59608888Y-111058464D01*
X59415453Y-111249091D01*
X59291340Y-111335465D01*
X59232157Y-111334547D01*
X59144611Y-111242009D01*
X58971207Y-111043291D01*
X58733240Y-110763326D01*
X58452010Y-110427051D01*
X58295863Y-110238357D01*
X57462334Y-109227455D01*
X55811334Y-109224667D01*
X55811334Y-115151333D01*
X57585898Y-115151333D01*
X57608783Y-113394571D01*
X57631667Y-111637809D01*
X58436000Y-112670807D01*
X58718316Y-113026709D01*
X58968521Y-113329640D01*
X59166780Y-113556545D01*
X59293258Y-113684370D01*
X59325000Y-113704088D01*
X59404112Y-113640925D01*
X59566426Y-113466580D01*
X59791889Y-113204076D01*
X60060443Y-112876438D01*
X60214000Y-112683482D01*
X61018334Y-111662591D01*
X61041218Y-113406962D01*
X61064103Y-115151333D01*
X62754000Y-115151333D01*
X62754000Y-109224667D01*
X61157042Y-109224667D01*
X60245981Y-110322250D01*
G37*
X60245981Y-110322250D02*
X59882209Y-110753033D01*
X59608888Y-111058464D01*
X59415453Y-111249091D01*
X59291340Y-111335465D01*
X59232157Y-111334547D01*
X59144611Y-111242009D01*
X58971207Y-111043291D01*
X58733240Y-110763326D01*
X58452010Y-110427051D01*
X58295863Y-110238357D01*
X57462334Y-109227455D01*
X55811334Y-109224667D01*
X55811334Y-115151333D01*
X57585898Y-115151333D01*
X57608783Y-113394571D01*
X57631667Y-111637809D01*
X58436000Y-112670807D01*
X58718316Y-113026709D01*
X58968521Y-113329640D01*
X59166780Y-113556545D01*
X59293258Y-113684370D01*
X59325000Y-113704088D01*
X59404112Y-113640925D01*
X59566426Y-113466580D01*
X59791889Y-113204076D01*
X60060443Y-112876438D01*
X60214000Y-112683482D01*
X61018334Y-111662591D01*
X61041218Y-113406962D01*
X61064103Y-115151333D01*
X62754000Y-115151333D01*
X62754000Y-109224667D01*
X61157042Y-109224667D01*
X60245981Y-110322250D01*
G36*
X53330999Y-109229485D02*
G01*
X52822381Y-109242865D01*
X52378337Y-109263195D01*
X52034887Y-109288862D01*
X51840455Y-109315429D01*
X51329807Y-109500072D01*
X50915498Y-109797921D01*
X50607178Y-110182327D01*
X50414495Y-110626639D01*
X50347101Y-111104206D01*
X50414643Y-111588377D01*
X50626772Y-112052502D01*
X50776734Y-112253302D01*
X51029721Y-112503493D01*
X51316965Y-112684828D01*
X51671509Y-112808698D01*
X52126397Y-112886493D01*
X52714672Y-112929603D01*
X52742167Y-112930797D01*
X53694667Y-112971308D01*
X53694667Y-115151333D01*
X55472667Y-115151333D01*
X55472667Y-111764667D01*
X53694667Y-111764667D01*
X53181101Y-111764667D01*
X52871659Y-111748886D01*
X52607695Y-111708126D01*
X52482601Y-111667325D01*
X52289316Y-111533783D01*
X52196744Y-111359663D01*
X52171980Y-111082673D01*
X52171964Y-111079289D01*
X52212845Y-110801774D01*
X52352032Y-110610814D01*
X52610177Y-110491957D01*
X53007932Y-110430747D01*
X53108220Y-110424028D01*
X53694667Y-110390891D01*
X53694667Y-111764667D01*
X55472667Y-111764667D01*
X55472667Y-109224667D01*
X53868168Y-109224667D01*
X53330999Y-109229485D01*
G37*
X53330999Y-109229485D02*
X52822381Y-109242865D01*
X52378337Y-109263195D01*
X52034887Y-109288862D01*
X51840455Y-109315429D01*
X51329807Y-109500072D01*
X50915498Y-109797921D01*
X50607178Y-110182327D01*
X50414495Y-110626639D01*
X50347101Y-111104206D01*
X50414643Y-111588377D01*
X50626772Y-112052502D01*
X50776734Y-112253302D01*
X51029721Y-112503493D01*
X51316965Y-112684828D01*
X51671509Y-112808698D01*
X52126397Y-112886493D01*
X52714672Y-112929603D01*
X52742167Y-112930797D01*
X53694667Y-112971308D01*
X53694667Y-115151333D01*
X55472667Y-115151333D01*
X55472667Y-111764667D01*
X53694667Y-111764667D01*
X53181101Y-111764667D01*
X52871659Y-111748886D01*
X52607695Y-111708126D01*
X52482601Y-111667325D01*
X52289316Y-111533783D01*
X52196744Y-111359663D01*
X52171980Y-111082673D01*
X52171964Y-111079289D01*
X52212845Y-110801774D01*
X52352032Y-110610814D01*
X52610177Y-110491957D01*
X53007932Y-110430747D01*
X53108220Y-110424028D01*
X53694667Y-110390891D01*
X53694667Y-111764667D01*
X55472667Y-111764667D01*
X55472667Y-109224667D01*
X53868168Y-109224667D01*
X53330999Y-109229485D01*
G36*
X67480190Y-104523833D02*
G01*
X67470175Y-105124313D01*
X67458972Y-105580575D01*
X67443971Y-105917726D01*
X67422563Y-106160876D01*
X67392140Y-106335132D01*
X67350091Y-106465604D01*
X67293809Y-106577399D01*
X67261166Y-106631486D01*
X66977191Y-106944595D01*
X66614025Y-107138648D01*
X66208984Y-107214674D01*
X65799383Y-107173700D01*
X65422539Y-107016755D01*
X65115768Y-106744866D01*
X65001942Y-106569242D01*
X64942677Y-106441923D01*
X64897761Y-106299144D01*
X64864723Y-106115051D01*
X64841091Y-105863792D01*
X64824396Y-105519513D01*
X64812166Y-105056362D01*
X64802415Y-104481500D01*
X64776496Y-102724667D01*
X63008000Y-102724667D01*
X63008000Y-104571966D01*
X63012018Y-105293156D01*
X63026823Y-105870089D01*
X63056542Y-106327712D01*
X63105302Y-106690971D01*
X63177230Y-106984810D01*
X63276455Y-107234177D01*
X63407103Y-107464017D01*
X63511596Y-107615817D01*
X63888032Y-108000818D01*
X64388461Y-108311242D01*
X64980749Y-108538071D01*
X65632762Y-108672285D01*
X66312365Y-108704866D01*
X66987424Y-108626795D01*
X67058742Y-108611355D01*
X67672773Y-108413484D01*
X68212036Y-108124693D01*
X68637670Y-107767311D01*
X68741997Y-107644104D01*
X68902853Y-107416229D01*
X69028202Y-107184290D01*
X69122300Y-106923669D01*
X69189406Y-106609748D01*
X69233776Y-106217910D01*
X69259669Y-105723537D01*
X69271343Y-105102011D01*
X69273334Y-104571966D01*
X69273334Y-102724667D01*
X67507380Y-102724667D01*
X67480190Y-104523833D01*
G37*
X67480190Y-104523833D02*
X67470175Y-105124313D01*
X67458972Y-105580575D01*
X67443971Y-105917726D01*
X67422563Y-106160876D01*
X67392140Y-106335132D01*
X67350091Y-106465604D01*
X67293809Y-106577399D01*
X67261166Y-106631486D01*
X66977191Y-106944595D01*
X66614025Y-107138648D01*
X66208984Y-107214674D01*
X65799383Y-107173700D01*
X65422539Y-107016755D01*
X65115768Y-106744866D01*
X65001942Y-106569242D01*
X64942677Y-106441923D01*
X64897761Y-106299144D01*
X64864723Y-106115051D01*
X64841091Y-105863792D01*
X64824396Y-105519513D01*
X64812166Y-105056362D01*
X64802415Y-104481500D01*
X64776496Y-102724667D01*
X63008000Y-102724667D01*
X63008000Y-104571966D01*
X63012018Y-105293156D01*
X63026823Y-105870089D01*
X63056542Y-106327712D01*
X63105302Y-106690971D01*
X63177230Y-106984810D01*
X63276455Y-107234177D01*
X63407103Y-107464017D01*
X63511596Y-107615817D01*
X63888032Y-108000818D01*
X64388461Y-108311242D01*
X64980749Y-108538071D01*
X65632762Y-108672285D01*
X66312365Y-108704866D01*
X66987424Y-108626795D01*
X67058742Y-108611355D01*
X67672773Y-108413484D01*
X68212036Y-108124693D01*
X68637670Y-107767311D01*
X68741997Y-107644104D01*
X68902853Y-107416229D01*
X69028202Y-107184290D01*
X69122300Y-106923669D01*
X69189406Y-106609748D01*
X69233776Y-106217910D01*
X69259669Y-105723537D01*
X69271343Y-105102011D01*
X69273334Y-104571966D01*
X69273334Y-102724667D01*
X67507380Y-102724667D01*
X67480190Y-104523833D01*
G36*
X72892834Y-102737669D02*
G01*
X72277628Y-102748021D01*
X71806066Y-102759205D01*
X71452471Y-102773904D01*
X71191163Y-102794799D01*
X70996465Y-102824574D01*
X70842697Y-102865910D01*
X70704181Y-102921491D01*
X70585790Y-102978667D01*
X70175970Y-103262052D01*
X69910153Y-103614799D01*
X69791606Y-104012099D01*
X69823600Y-104429140D01*
X70009404Y-104841115D01*
X70296470Y-105174056D01*
X70565130Y-105419439D01*
X70223568Y-105593691D01*
X69823462Y-105881396D01*
X69549004Y-106251791D01*
X69399773Y-106674513D01*
X69375349Y-107119200D01*
X69475309Y-107555490D01*
X69699234Y-107953022D01*
X70046702Y-108281434D01*
X70262581Y-108408243D01*
X70398169Y-108471355D01*
X70532391Y-108520094D01*
X70689310Y-108556697D01*
X70892994Y-108583397D01*
X71167505Y-108602430D01*
X71536910Y-108616030D01*
X72025274Y-108626433D01*
X72656662Y-108635872D01*
X72723500Y-108636780D01*
X74776667Y-108664560D01*
X74776667Y-106111333D01*
X72998667Y-106111333D01*
X72998667Y-107652710D01*
X72271668Y-107622853D01*
X71912732Y-107603984D01*
X71679254Y-107574816D01*
X71527373Y-107522755D01*
X71413232Y-107435209D01*
X71340335Y-107355444D01*
X71201935Y-107138027D01*
X71136741Y-106924352D01*
X71136000Y-106905379D01*
X71201063Y-106575206D01*
X71399385Y-106335486D01*
X71735670Y-106183271D01*
X72214620Y-106115610D01*
X72401796Y-106111333D01*
X72998667Y-106111333D01*
X74776667Y-106111333D01*
X74776667Y-103740667D01*
X72998667Y-103740667D01*
X72998667Y-105095333D01*
X72538512Y-105095333D01*
X72227672Y-105078564D01*
X71949238Y-105035847D01*
X71841735Y-105005370D01*
X71619628Y-104889019D01*
X71509546Y-104723536D01*
X71477485Y-104454120D01*
X71477260Y-104418000D01*
X71494542Y-104188705D01*
X71536608Y-104029089D01*
X71541187Y-104021130D01*
X71715507Y-103884988D01*
X72019759Y-103788849D01*
X72417162Y-103743058D01*
X72538512Y-103740667D01*
X72998667Y-103740667D01*
X74776667Y-103740667D01*
X74776667Y-102708337D01*
X72892834Y-102737669D01*
G37*
X72892834Y-102737669D02*
X72277628Y-102748021D01*
X71806066Y-102759205D01*
X71452471Y-102773904D01*
X71191163Y-102794799D01*
X70996465Y-102824574D01*
X70842697Y-102865910D01*
X70704181Y-102921491D01*
X70585790Y-102978667D01*
X70175970Y-103262052D01*
X69910153Y-103614799D01*
X69791606Y-104012099D01*
X69823600Y-104429140D01*
X70009404Y-104841115D01*
X70296470Y-105174056D01*
X70565130Y-105419439D01*
X70223568Y-105593691D01*
X69823462Y-105881396D01*
X69549004Y-106251791D01*
X69399773Y-106674513D01*
X69375349Y-107119200D01*
X69475309Y-107555490D01*
X69699234Y-107953022D01*
X70046702Y-108281434D01*
X70262581Y-108408243D01*
X70398169Y-108471355D01*
X70532391Y-108520094D01*
X70689310Y-108556697D01*
X70892994Y-108583397D01*
X71167505Y-108602430D01*
X71536910Y-108616030D01*
X72025274Y-108626433D01*
X72656662Y-108635872D01*
X72723500Y-108636780D01*
X74776667Y-108664560D01*
X74776667Y-106111333D01*
X72998667Y-106111333D01*
X72998667Y-107652710D01*
X72271668Y-107622853D01*
X71912732Y-107603984D01*
X71679254Y-107574816D01*
X71527373Y-107522755D01*
X71413232Y-107435209D01*
X71340335Y-107355444D01*
X71201935Y-107138027D01*
X71136741Y-106924352D01*
X71136000Y-106905379D01*
X71201063Y-106575206D01*
X71399385Y-106335486D01*
X71735670Y-106183271D01*
X72214620Y-106115610D01*
X72401796Y-106111333D01*
X72998667Y-106111333D01*
X74776667Y-106111333D01*
X74776667Y-103740667D01*
X72998667Y-103740667D01*
X72998667Y-105095333D01*
X72538512Y-105095333D01*
X72227672Y-105078564D01*
X71949238Y-105035847D01*
X71841735Y-105005370D01*
X71619628Y-104889019D01*
X71509546Y-104723536D01*
X71477485Y-104454120D01*
X71477260Y-104418000D01*
X71494542Y-104188705D01*
X71536608Y-104029089D01*
X71541187Y-104021130D01*
X71715507Y-103884988D01*
X72019759Y-103788849D01*
X72417162Y-103743058D01*
X72538512Y-103740667D01*
X72998667Y-103740667D01*
X74776667Y-103740667D01*
X74776667Y-102708337D01*
X72892834Y-102737669D01*
G36*
X60245981Y-103822250D02*
G01*
X59882209Y-104253033D01*
X59608888Y-104558464D01*
X59415453Y-104749091D01*
X59291340Y-104835465D01*
X59232157Y-104834547D01*
X59144611Y-104742009D01*
X58971207Y-104543291D01*
X58733240Y-104263326D01*
X58452010Y-103927051D01*
X58295863Y-103738357D01*
X57462334Y-102727455D01*
X55811334Y-102724667D01*
X55811334Y-108651333D01*
X57585898Y-108651333D01*
X57608783Y-106894571D01*
X57631667Y-105137809D01*
X58436000Y-106170807D01*
X58718316Y-106526709D01*
X58968521Y-106829640D01*
X59166780Y-107056545D01*
X59293258Y-107184370D01*
X59325000Y-107204088D01*
X59404112Y-107140925D01*
X59566426Y-106966580D01*
X59791889Y-106704076D01*
X60060443Y-106376438D01*
X60214000Y-106183482D01*
X61018334Y-105162591D01*
X61041218Y-106906962D01*
X61064103Y-108651333D01*
X62754000Y-108651333D01*
X62754000Y-102724667D01*
X61157042Y-102724667D01*
X60245981Y-103822250D01*
G37*
X60245981Y-103822250D02*
X59882209Y-104253033D01*
X59608888Y-104558464D01*
X59415453Y-104749091D01*
X59291340Y-104835465D01*
X59232157Y-104834547D01*
X59144611Y-104742009D01*
X58971207Y-104543291D01*
X58733240Y-104263326D01*
X58452010Y-103927051D01*
X58295863Y-103738357D01*
X57462334Y-102727455D01*
X55811334Y-102724667D01*
X55811334Y-108651333D01*
X57585898Y-108651333D01*
X57608783Y-106894571D01*
X57631667Y-105137809D01*
X58436000Y-106170807D01*
X58718316Y-106526709D01*
X58968521Y-106829640D01*
X59166780Y-107056545D01*
X59293258Y-107184370D01*
X59325000Y-107204088D01*
X59404112Y-107140925D01*
X59566426Y-106966580D01*
X59791889Y-106704076D01*
X60060443Y-106376438D01*
X60214000Y-106183482D01*
X61018334Y-105162591D01*
X61041218Y-106906962D01*
X61064103Y-108651333D01*
X62754000Y-108651333D01*
X62754000Y-102724667D01*
X61157042Y-102724667D01*
X60245981Y-103822250D01*
G36*
X53330999Y-102729485D02*
G01*
X52822381Y-102742865D01*
X52378337Y-102763195D01*
X52034887Y-102788862D01*
X51840455Y-102815429D01*
X51329807Y-103000072D01*
X50915498Y-103297921D01*
X50607178Y-103682327D01*
X50414495Y-104126639D01*
X50347101Y-104604206D01*
X50414643Y-105088377D01*
X50626772Y-105552502D01*
X50776734Y-105753302D01*
X51029721Y-106003493D01*
X51316965Y-106184828D01*
X51671509Y-106308698D01*
X52126397Y-106386493D01*
X52714672Y-106429603D01*
X52742167Y-106430797D01*
X53694667Y-106471308D01*
X53694667Y-108651333D01*
X55472667Y-108651333D01*
X55472667Y-105264667D01*
X53694667Y-105264667D01*
X53181101Y-105264667D01*
X52871659Y-105248886D01*
X52607695Y-105208126D01*
X52482601Y-105167325D01*
X52289316Y-105033783D01*
X52196744Y-104859663D01*
X52171980Y-104582673D01*
X52171964Y-104579289D01*
X52212845Y-104301774D01*
X52352032Y-104110814D01*
X52610177Y-103991957D01*
X53007932Y-103930747D01*
X53108220Y-103924028D01*
X53694667Y-103890891D01*
X53694667Y-105264667D01*
X55472667Y-105264667D01*
X55472667Y-102724667D01*
X53868168Y-102724667D01*
X53330999Y-102729485D01*
G37*
X53330999Y-102729485D02*
X52822381Y-102742865D01*
X52378337Y-102763195D01*
X52034887Y-102788862D01*
X51840455Y-102815429D01*
X51329807Y-103000072D01*
X50915498Y-103297921D01*
X50607178Y-103682327D01*
X50414495Y-104126639D01*
X50347101Y-104604206D01*
X50414643Y-105088377D01*
X50626772Y-105552502D01*
X50776734Y-105753302D01*
X51029721Y-106003493D01*
X51316965Y-106184828D01*
X51671509Y-106308698D01*
X52126397Y-106386493D01*
X52714672Y-106429603D01*
X52742167Y-106430797D01*
X53694667Y-106471308D01*
X53694667Y-108651333D01*
X55472667Y-108651333D01*
X55472667Y-105264667D01*
X53694667Y-105264667D01*
X53181101Y-105264667D01*
X52871659Y-105248886D01*
X52607695Y-105208126D01*
X52482601Y-105167325D01*
X52289316Y-105033783D01*
X52196744Y-104859663D01*
X52171980Y-104582673D01*
X52171964Y-104579289D01*
X52212845Y-104301774D01*
X52352032Y-104110814D01*
X52610177Y-103991957D01*
X53007932Y-103930747D01*
X53108220Y-103924028D01*
X53694667Y-103890891D01*
X53694667Y-105264667D01*
X55472667Y-105264667D01*
X55472667Y-102724667D01*
X53868168Y-102724667D01*
X53330999Y-102729485D01*
G36*
X67480190Y-98023833D02*
G01*
X67470175Y-98624313D01*
X67458972Y-99080575D01*
X67443971Y-99417726D01*
X67422563Y-99660876D01*
X67392140Y-99835132D01*
X67350091Y-99965604D01*
X67293809Y-100077399D01*
X67261166Y-100131486D01*
X66977191Y-100444595D01*
X66614025Y-100638648D01*
X66208984Y-100714674D01*
X65799383Y-100673700D01*
X65422539Y-100516755D01*
X65115768Y-100244866D01*
X65001942Y-100069242D01*
X64942677Y-99941923D01*
X64897761Y-99799144D01*
X64864723Y-99615051D01*
X64841091Y-99363792D01*
X64824396Y-99019513D01*
X64812166Y-98556362D01*
X64802415Y-97981500D01*
X64776496Y-96224667D01*
X63008000Y-96224667D01*
X63008000Y-98071966D01*
X63012018Y-98793156D01*
X63026823Y-99370089D01*
X63056542Y-99827712D01*
X63105302Y-100190971D01*
X63177230Y-100484810D01*
X63276455Y-100734177D01*
X63407103Y-100964017D01*
X63511596Y-101115817D01*
X63888032Y-101500818D01*
X64388461Y-101811242D01*
X64980749Y-102038071D01*
X65632762Y-102172285D01*
X66312365Y-102204866D01*
X66987424Y-102126795D01*
X67058742Y-102111355D01*
X67672773Y-101913484D01*
X68212036Y-101624693D01*
X68637670Y-101267311D01*
X68741997Y-101144104D01*
X68902853Y-100916229D01*
X69028202Y-100684290D01*
X69122300Y-100423669D01*
X69189406Y-100109748D01*
X69233776Y-99717910D01*
X69259669Y-99223537D01*
X69271343Y-98602011D01*
X69273334Y-98071966D01*
X69273334Y-96224667D01*
X67507380Y-96224667D01*
X67480190Y-98023833D01*
G37*
X67480190Y-98023833D02*
X67470175Y-98624313D01*
X67458972Y-99080575D01*
X67443971Y-99417726D01*
X67422563Y-99660876D01*
X67392140Y-99835132D01*
X67350091Y-99965604D01*
X67293809Y-100077399D01*
X67261166Y-100131486D01*
X66977191Y-100444595D01*
X66614025Y-100638648D01*
X66208984Y-100714674D01*
X65799383Y-100673700D01*
X65422539Y-100516755D01*
X65115768Y-100244866D01*
X65001942Y-100069242D01*
X64942677Y-99941923D01*
X64897761Y-99799144D01*
X64864723Y-99615051D01*
X64841091Y-99363792D01*
X64824396Y-99019513D01*
X64812166Y-98556362D01*
X64802415Y-97981500D01*
X64776496Y-96224667D01*
X63008000Y-96224667D01*
X63008000Y-98071966D01*
X63012018Y-98793156D01*
X63026823Y-99370089D01*
X63056542Y-99827712D01*
X63105302Y-100190971D01*
X63177230Y-100484810D01*
X63276455Y-100734177D01*
X63407103Y-100964017D01*
X63511596Y-101115817D01*
X63888032Y-101500818D01*
X64388461Y-101811242D01*
X64980749Y-102038071D01*
X65632762Y-102172285D01*
X66312365Y-102204866D01*
X66987424Y-102126795D01*
X67058742Y-102111355D01*
X67672773Y-101913484D01*
X68212036Y-101624693D01*
X68637670Y-101267311D01*
X68741997Y-101144104D01*
X68902853Y-100916229D01*
X69028202Y-100684290D01*
X69122300Y-100423669D01*
X69189406Y-100109748D01*
X69233776Y-99717910D01*
X69259669Y-99223537D01*
X69271343Y-98602011D01*
X69273334Y-98071966D01*
X69273334Y-96224667D01*
X67507380Y-96224667D01*
X67480190Y-98023833D01*
G36*
X72892834Y-96237669D02*
G01*
X72277628Y-96248021D01*
X71806066Y-96259205D01*
X71452471Y-96273904D01*
X71191163Y-96294799D01*
X70996465Y-96324574D01*
X70842697Y-96365910D01*
X70704181Y-96421491D01*
X70585790Y-96478667D01*
X70175970Y-96762052D01*
X69910153Y-97114799D01*
X69791606Y-97512099D01*
X69823600Y-97929140D01*
X70009404Y-98341115D01*
X70296470Y-98674056D01*
X70565130Y-98919439D01*
X70223568Y-99093691D01*
X69823462Y-99381396D01*
X69549004Y-99751791D01*
X69399773Y-100174513D01*
X69375349Y-100619200D01*
X69475309Y-101055490D01*
X69699234Y-101453022D01*
X70046702Y-101781434D01*
X70262581Y-101908243D01*
X70398169Y-101971355D01*
X70532391Y-102020094D01*
X70689310Y-102056697D01*
X70892994Y-102083397D01*
X71167505Y-102102430D01*
X71536910Y-102116030D01*
X72025274Y-102126433D01*
X72656662Y-102135872D01*
X72723500Y-102136780D01*
X74776667Y-102164560D01*
X74776667Y-99611333D01*
X72998667Y-99611333D01*
X72998667Y-101152710D01*
X72271668Y-101122853D01*
X71912732Y-101103984D01*
X71679254Y-101074816D01*
X71527373Y-101022755D01*
X71413232Y-100935209D01*
X71340335Y-100855444D01*
X71201935Y-100638027D01*
X71136741Y-100424352D01*
X71136000Y-100405379D01*
X71201063Y-100075206D01*
X71399385Y-99835486D01*
X71735670Y-99683271D01*
X72214620Y-99615610D01*
X72401796Y-99611333D01*
X72998667Y-99611333D01*
X74776667Y-99611333D01*
X74776667Y-97240667D01*
X72998667Y-97240667D01*
X72998667Y-98595333D01*
X72538512Y-98595333D01*
X72227672Y-98578564D01*
X71949238Y-98535847D01*
X71841735Y-98505370D01*
X71619628Y-98389019D01*
X71509546Y-98223536D01*
X71477485Y-97954120D01*
X71477260Y-97918000D01*
X71494542Y-97688705D01*
X71536608Y-97529089D01*
X71541187Y-97521130D01*
X71715507Y-97384988D01*
X72019759Y-97288849D01*
X72417162Y-97243058D01*
X72538512Y-97240667D01*
X72998667Y-97240667D01*
X74776667Y-97240667D01*
X74776667Y-96208337D01*
X72892834Y-96237669D01*
G37*
X72892834Y-96237669D02*
X72277628Y-96248021D01*
X71806066Y-96259205D01*
X71452471Y-96273904D01*
X71191163Y-96294799D01*
X70996465Y-96324574D01*
X70842697Y-96365910D01*
X70704181Y-96421491D01*
X70585790Y-96478667D01*
X70175970Y-96762052D01*
X69910153Y-97114799D01*
X69791606Y-97512099D01*
X69823600Y-97929140D01*
X70009404Y-98341115D01*
X70296470Y-98674056D01*
X70565130Y-98919439D01*
X70223568Y-99093691D01*
X69823462Y-99381396D01*
X69549004Y-99751791D01*
X69399773Y-100174513D01*
X69375349Y-100619200D01*
X69475309Y-101055490D01*
X69699234Y-101453022D01*
X70046702Y-101781434D01*
X70262581Y-101908243D01*
X70398169Y-101971355D01*
X70532391Y-102020094D01*
X70689310Y-102056697D01*
X70892994Y-102083397D01*
X71167505Y-102102430D01*
X71536910Y-102116030D01*
X72025274Y-102126433D01*
X72656662Y-102135872D01*
X72723500Y-102136780D01*
X74776667Y-102164560D01*
X74776667Y-99611333D01*
X72998667Y-99611333D01*
X72998667Y-101152710D01*
X72271668Y-101122853D01*
X71912732Y-101103984D01*
X71679254Y-101074816D01*
X71527373Y-101022755D01*
X71413232Y-100935209D01*
X71340335Y-100855444D01*
X71201935Y-100638027D01*
X71136741Y-100424352D01*
X71136000Y-100405379D01*
X71201063Y-100075206D01*
X71399385Y-99835486D01*
X71735670Y-99683271D01*
X72214620Y-99615610D01*
X72401796Y-99611333D01*
X72998667Y-99611333D01*
X74776667Y-99611333D01*
X74776667Y-97240667D01*
X72998667Y-97240667D01*
X72998667Y-98595333D01*
X72538512Y-98595333D01*
X72227672Y-98578564D01*
X71949238Y-98535847D01*
X71841735Y-98505370D01*
X71619628Y-98389019D01*
X71509546Y-98223536D01*
X71477485Y-97954120D01*
X71477260Y-97918000D01*
X71494542Y-97688705D01*
X71536608Y-97529089D01*
X71541187Y-97521130D01*
X71715507Y-97384988D01*
X72019759Y-97288849D01*
X72417162Y-97243058D01*
X72538512Y-97240667D01*
X72998667Y-97240667D01*
X74776667Y-97240667D01*
X74776667Y-96208337D01*
X72892834Y-96237669D01*
G36*
X60245981Y-97322250D02*
G01*
X59882209Y-97753033D01*
X59608888Y-98058464D01*
X59415453Y-98249091D01*
X59291340Y-98335465D01*
X59232157Y-98334547D01*
X59144611Y-98242009D01*
X58971207Y-98043291D01*
X58733240Y-97763326D01*
X58452010Y-97427051D01*
X58295863Y-97238357D01*
X57462334Y-96227455D01*
X55811334Y-96224667D01*
X55811334Y-102151333D01*
X57585898Y-102151333D01*
X57608783Y-100394571D01*
X57631667Y-98637809D01*
X58436000Y-99670807D01*
X58718316Y-100026709D01*
X58968521Y-100329640D01*
X59166780Y-100556545D01*
X59293258Y-100684370D01*
X59325000Y-100704088D01*
X59404112Y-100640925D01*
X59566426Y-100466580D01*
X59791889Y-100204076D01*
X60060443Y-99876438D01*
X60214000Y-99683482D01*
X61018334Y-98662591D01*
X61041218Y-100406962D01*
X61064103Y-102151333D01*
X62754000Y-102151333D01*
X62754000Y-96224667D01*
X61157042Y-96224667D01*
X60245981Y-97322250D01*
G37*
X60245981Y-97322250D02*
X59882209Y-97753033D01*
X59608888Y-98058464D01*
X59415453Y-98249091D01*
X59291340Y-98335465D01*
X59232157Y-98334547D01*
X59144611Y-98242009D01*
X58971207Y-98043291D01*
X58733240Y-97763326D01*
X58452010Y-97427051D01*
X58295863Y-97238357D01*
X57462334Y-96227455D01*
X55811334Y-96224667D01*
X55811334Y-102151333D01*
X57585898Y-102151333D01*
X57608783Y-100394571D01*
X57631667Y-98637809D01*
X58436000Y-99670807D01*
X58718316Y-100026709D01*
X58968521Y-100329640D01*
X59166780Y-100556545D01*
X59293258Y-100684370D01*
X59325000Y-100704088D01*
X59404112Y-100640925D01*
X59566426Y-100466580D01*
X59791889Y-100204076D01*
X60060443Y-99876438D01*
X60214000Y-99683482D01*
X61018334Y-98662591D01*
X61041218Y-100406962D01*
X61064103Y-102151333D01*
X62754000Y-102151333D01*
X62754000Y-96224667D01*
X61157042Y-96224667D01*
X60245981Y-97322250D01*
G36*
X53330999Y-96229485D02*
G01*
X52822381Y-96242865D01*
X52378337Y-96263195D01*
X52034887Y-96288862D01*
X51840455Y-96315429D01*
X51329807Y-96500072D01*
X50915498Y-96797921D01*
X50607178Y-97182327D01*
X50414495Y-97626639D01*
X50347101Y-98104206D01*
X50414643Y-98588377D01*
X50626772Y-99052502D01*
X50776734Y-99253302D01*
X51029721Y-99503493D01*
X51316965Y-99684828D01*
X51671509Y-99808698D01*
X52126397Y-99886493D01*
X52714672Y-99929603D01*
X52742167Y-99930797D01*
X53694667Y-99971308D01*
X53694667Y-102151333D01*
X55472667Y-102151333D01*
X55472667Y-98764667D01*
X53694667Y-98764667D01*
X53181101Y-98764667D01*
X52871659Y-98748886D01*
X52607695Y-98708126D01*
X52482601Y-98667325D01*
X52289316Y-98533783D01*
X52196744Y-98359663D01*
X52171980Y-98082673D01*
X52171964Y-98079289D01*
X52212845Y-97801774D01*
X52352032Y-97610814D01*
X52610177Y-97491957D01*
X53007932Y-97430747D01*
X53108220Y-97424028D01*
X53694667Y-97390891D01*
X53694667Y-98764667D01*
X55472667Y-98764667D01*
X55472667Y-96224667D01*
X53868168Y-96224667D01*
X53330999Y-96229485D01*
G37*
X53330999Y-96229485D02*
X52822381Y-96242865D01*
X52378337Y-96263195D01*
X52034887Y-96288862D01*
X51840455Y-96315429D01*
X51329807Y-96500072D01*
X50915498Y-96797921D01*
X50607178Y-97182327D01*
X50414495Y-97626639D01*
X50347101Y-98104206D01*
X50414643Y-98588377D01*
X50626772Y-99052502D01*
X50776734Y-99253302D01*
X51029721Y-99503493D01*
X51316965Y-99684828D01*
X51671509Y-99808698D01*
X52126397Y-99886493D01*
X52714672Y-99929603D01*
X52742167Y-99930797D01*
X53694667Y-99971308D01*
X53694667Y-102151333D01*
X55472667Y-102151333D01*
X55472667Y-98764667D01*
X53694667Y-98764667D01*
X53181101Y-98764667D01*
X52871659Y-98748886D01*
X52607695Y-98708126D01*
X52482601Y-98667325D01*
X52289316Y-98533783D01*
X52196744Y-98359663D01*
X52171980Y-98082673D01*
X52171964Y-98079289D01*
X52212845Y-97801774D01*
X52352032Y-97610814D01*
X52610177Y-97491957D01*
X53007932Y-97430747D01*
X53108220Y-97424028D01*
X53694667Y-97390891D01*
X53694667Y-98764667D01*
X55472667Y-98764667D01*
X55472667Y-96224667D01*
X53868168Y-96224667D01*
X53330999Y-96229485D01*
G36*
X67480190Y-91523833D02*
G01*
X67470175Y-92124313D01*
X67458972Y-92580575D01*
X67443971Y-92917726D01*
X67422563Y-93160876D01*
X67392140Y-93335132D01*
X67350091Y-93465604D01*
X67293809Y-93577399D01*
X67261166Y-93631486D01*
X66977191Y-93944595D01*
X66614025Y-94138648D01*
X66208984Y-94214674D01*
X65799383Y-94173700D01*
X65422539Y-94016755D01*
X65115768Y-93744866D01*
X65001942Y-93569242D01*
X64942677Y-93441923D01*
X64897761Y-93299144D01*
X64864723Y-93115051D01*
X64841091Y-92863792D01*
X64824396Y-92519513D01*
X64812166Y-92056362D01*
X64802415Y-91481500D01*
X64776496Y-89724667D01*
X63008000Y-89724667D01*
X63008000Y-91571966D01*
X63012018Y-92293156D01*
X63026823Y-92870089D01*
X63056542Y-93327712D01*
X63105302Y-93690971D01*
X63177230Y-93984810D01*
X63276455Y-94234177D01*
X63407103Y-94464017D01*
X63511596Y-94615817D01*
X63888032Y-95000818D01*
X64388461Y-95311242D01*
X64980749Y-95538071D01*
X65632762Y-95672285D01*
X66312365Y-95704866D01*
X66987424Y-95626795D01*
X67058742Y-95611355D01*
X67672773Y-95413484D01*
X68212036Y-95124693D01*
X68637670Y-94767311D01*
X68741997Y-94644104D01*
X68902853Y-94416229D01*
X69028202Y-94184290D01*
X69122300Y-93923669D01*
X69189406Y-93609748D01*
X69233776Y-93217910D01*
X69259669Y-92723537D01*
X69271343Y-92102011D01*
X69273334Y-91571966D01*
X69273334Y-89724667D01*
X67507380Y-89724667D01*
X67480190Y-91523833D01*
G37*
X67480190Y-91523833D02*
X67470175Y-92124313D01*
X67458972Y-92580575D01*
X67443971Y-92917726D01*
X67422563Y-93160876D01*
X67392140Y-93335132D01*
X67350091Y-93465604D01*
X67293809Y-93577399D01*
X67261166Y-93631486D01*
X66977191Y-93944595D01*
X66614025Y-94138648D01*
X66208984Y-94214674D01*
X65799383Y-94173700D01*
X65422539Y-94016755D01*
X65115768Y-93744866D01*
X65001942Y-93569242D01*
X64942677Y-93441923D01*
X64897761Y-93299144D01*
X64864723Y-93115051D01*
X64841091Y-92863792D01*
X64824396Y-92519513D01*
X64812166Y-92056362D01*
X64802415Y-91481500D01*
X64776496Y-89724667D01*
X63008000Y-89724667D01*
X63008000Y-91571966D01*
X63012018Y-92293156D01*
X63026823Y-92870089D01*
X63056542Y-93327712D01*
X63105302Y-93690971D01*
X63177230Y-93984810D01*
X63276455Y-94234177D01*
X63407103Y-94464017D01*
X63511596Y-94615817D01*
X63888032Y-95000818D01*
X64388461Y-95311242D01*
X64980749Y-95538071D01*
X65632762Y-95672285D01*
X66312365Y-95704866D01*
X66987424Y-95626795D01*
X67058742Y-95611355D01*
X67672773Y-95413484D01*
X68212036Y-95124693D01*
X68637670Y-94767311D01*
X68741997Y-94644104D01*
X68902853Y-94416229D01*
X69028202Y-94184290D01*
X69122300Y-93923669D01*
X69189406Y-93609748D01*
X69233776Y-93217910D01*
X69259669Y-92723537D01*
X69271343Y-92102011D01*
X69273334Y-91571966D01*
X69273334Y-89724667D01*
X67507380Y-89724667D01*
X67480190Y-91523833D01*
G36*
X72892834Y-89737669D02*
G01*
X72277628Y-89748021D01*
X71806066Y-89759205D01*
X71452471Y-89773904D01*
X71191163Y-89794799D01*
X70996465Y-89824574D01*
X70842697Y-89865910D01*
X70704181Y-89921491D01*
X70585790Y-89978667D01*
X70175970Y-90262052D01*
X69910153Y-90614799D01*
X69791606Y-91012099D01*
X69823600Y-91429140D01*
X70009404Y-91841115D01*
X70296470Y-92174056D01*
X70565130Y-92419439D01*
X70223568Y-92593691D01*
X69823462Y-92881396D01*
X69549004Y-93251791D01*
X69399773Y-93674513D01*
X69375349Y-94119200D01*
X69475309Y-94555490D01*
X69699234Y-94953022D01*
X70046702Y-95281434D01*
X70262581Y-95408243D01*
X70398169Y-95471355D01*
X70532391Y-95520094D01*
X70689310Y-95556697D01*
X70892994Y-95583397D01*
X71167505Y-95602430D01*
X71536910Y-95616030D01*
X72025274Y-95626433D01*
X72656662Y-95635872D01*
X72723500Y-95636780D01*
X74776667Y-95664560D01*
X74776667Y-93111333D01*
X72998667Y-93111333D01*
X72998667Y-94652710D01*
X72271668Y-94622853D01*
X71912732Y-94603984D01*
X71679254Y-94574816D01*
X71527373Y-94522755D01*
X71413232Y-94435209D01*
X71340335Y-94355444D01*
X71201935Y-94138027D01*
X71136741Y-93924352D01*
X71136000Y-93905379D01*
X71201063Y-93575206D01*
X71399385Y-93335486D01*
X71735670Y-93183271D01*
X72214620Y-93115610D01*
X72401796Y-93111333D01*
X72998667Y-93111333D01*
X74776667Y-93111333D01*
X74776667Y-90740667D01*
X72998667Y-90740667D01*
X72998667Y-92095333D01*
X72538512Y-92095333D01*
X72227672Y-92078564D01*
X71949238Y-92035847D01*
X71841735Y-92005370D01*
X71619628Y-91889019D01*
X71509546Y-91723536D01*
X71477485Y-91454120D01*
X71477260Y-91418000D01*
X71494542Y-91188705D01*
X71536608Y-91029089D01*
X71541187Y-91021130D01*
X71715507Y-90884988D01*
X72019759Y-90788849D01*
X72417162Y-90743058D01*
X72538512Y-90740667D01*
X72998667Y-90740667D01*
X74776667Y-90740667D01*
X74776667Y-89708337D01*
X72892834Y-89737669D01*
G37*
X72892834Y-89737669D02*
X72277628Y-89748021D01*
X71806066Y-89759205D01*
X71452471Y-89773904D01*
X71191163Y-89794799D01*
X70996465Y-89824574D01*
X70842697Y-89865910D01*
X70704181Y-89921491D01*
X70585790Y-89978667D01*
X70175970Y-90262052D01*
X69910153Y-90614799D01*
X69791606Y-91012099D01*
X69823600Y-91429140D01*
X70009404Y-91841115D01*
X70296470Y-92174056D01*
X70565130Y-92419439D01*
X70223568Y-92593691D01*
X69823462Y-92881396D01*
X69549004Y-93251791D01*
X69399773Y-93674513D01*
X69375349Y-94119200D01*
X69475309Y-94555490D01*
X69699234Y-94953022D01*
X70046702Y-95281434D01*
X70262581Y-95408243D01*
X70398169Y-95471355D01*
X70532391Y-95520094D01*
X70689310Y-95556697D01*
X70892994Y-95583397D01*
X71167505Y-95602430D01*
X71536910Y-95616030D01*
X72025274Y-95626433D01*
X72656662Y-95635872D01*
X72723500Y-95636780D01*
X74776667Y-95664560D01*
X74776667Y-93111333D01*
X72998667Y-93111333D01*
X72998667Y-94652710D01*
X72271668Y-94622853D01*
X71912732Y-94603984D01*
X71679254Y-94574816D01*
X71527373Y-94522755D01*
X71413232Y-94435209D01*
X71340335Y-94355444D01*
X71201935Y-94138027D01*
X71136741Y-93924352D01*
X71136000Y-93905379D01*
X71201063Y-93575206D01*
X71399385Y-93335486D01*
X71735670Y-93183271D01*
X72214620Y-93115610D01*
X72401796Y-93111333D01*
X72998667Y-93111333D01*
X74776667Y-93111333D01*
X74776667Y-90740667D01*
X72998667Y-90740667D01*
X72998667Y-92095333D01*
X72538512Y-92095333D01*
X72227672Y-92078564D01*
X71949238Y-92035847D01*
X71841735Y-92005370D01*
X71619628Y-91889019D01*
X71509546Y-91723536D01*
X71477485Y-91454120D01*
X71477260Y-91418000D01*
X71494542Y-91188705D01*
X71536608Y-91029089D01*
X71541187Y-91021130D01*
X71715507Y-90884988D01*
X72019759Y-90788849D01*
X72417162Y-90743058D01*
X72538512Y-90740667D01*
X72998667Y-90740667D01*
X74776667Y-90740667D01*
X74776667Y-89708337D01*
X72892834Y-89737669D01*
G36*
X60245981Y-90822250D02*
G01*
X59882209Y-91253033D01*
X59608888Y-91558464D01*
X59415453Y-91749091D01*
X59291340Y-91835465D01*
X59232157Y-91834547D01*
X59144611Y-91742009D01*
X58971207Y-91543291D01*
X58733240Y-91263326D01*
X58452010Y-90927051D01*
X58295863Y-90738357D01*
X57462334Y-89727455D01*
X55811334Y-89724667D01*
X55811334Y-95651333D01*
X57585898Y-95651333D01*
X57608783Y-93894571D01*
X57631667Y-92137809D01*
X58436000Y-93170807D01*
X58718316Y-93526709D01*
X58968521Y-93829640D01*
X59166780Y-94056545D01*
X59293258Y-94184370D01*
X59325000Y-94204088D01*
X59404112Y-94140925D01*
X59566426Y-93966580D01*
X59791889Y-93704076D01*
X60060443Y-93376438D01*
X60214000Y-93183482D01*
X61018334Y-92162591D01*
X61041218Y-93906962D01*
X61064103Y-95651333D01*
X62754000Y-95651333D01*
X62754000Y-89724667D01*
X61157042Y-89724667D01*
X60245981Y-90822250D01*
G37*
X60245981Y-90822250D02*
X59882209Y-91253033D01*
X59608888Y-91558464D01*
X59415453Y-91749091D01*
X59291340Y-91835465D01*
X59232157Y-91834547D01*
X59144611Y-91742009D01*
X58971207Y-91543291D01*
X58733240Y-91263326D01*
X58452010Y-90927051D01*
X58295863Y-90738357D01*
X57462334Y-89727455D01*
X55811334Y-89724667D01*
X55811334Y-95651333D01*
X57585898Y-95651333D01*
X57608783Y-93894571D01*
X57631667Y-92137809D01*
X58436000Y-93170807D01*
X58718316Y-93526709D01*
X58968521Y-93829640D01*
X59166780Y-94056545D01*
X59293258Y-94184370D01*
X59325000Y-94204088D01*
X59404112Y-94140925D01*
X59566426Y-93966580D01*
X59791889Y-93704076D01*
X60060443Y-93376438D01*
X60214000Y-93183482D01*
X61018334Y-92162591D01*
X61041218Y-93906962D01*
X61064103Y-95651333D01*
X62754000Y-95651333D01*
X62754000Y-89724667D01*
X61157042Y-89724667D01*
X60245981Y-90822250D01*
G36*
X53330999Y-89729485D02*
G01*
X52822381Y-89742865D01*
X52378337Y-89763195D01*
X52034887Y-89788862D01*
X51840455Y-89815429D01*
X51329807Y-90000072D01*
X50915498Y-90297921D01*
X50607178Y-90682327D01*
X50414495Y-91126639D01*
X50347101Y-91604206D01*
X50414643Y-92088377D01*
X50626772Y-92552502D01*
X50776734Y-92753302D01*
X51029721Y-93003493D01*
X51316965Y-93184828D01*
X51671509Y-93308698D01*
X52126397Y-93386493D01*
X52714672Y-93429603D01*
X52742167Y-93430797D01*
X53694667Y-93471308D01*
X53694667Y-95651333D01*
X55472667Y-95651333D01*
X55472667Y-92264667D01*
X53694667Y-92264667D01*
X53181101Y-92264667D01*
X52871659Y-92248886D01*
X52607695Y-92208126D01*
X52482601Y-92167325D01*
X52289316Y-92033783D01*
X52196744Y-91859663D01*
X52171980Y-91582673D01*
X52171964Y-91579289D01*
X52212845Y-91301774D01*
X52352032Y-91110814D01*
X52610177Y-90991957D01*
X53007932Y-90930747D01*
X53108220Y-90924028D01*
X53694667Y-90890891D01*
X53694667Y-92264667D01*
X55472667Y-92264667D01*
X55472667Y-89724667D01*
X53868168Y-89724667D01*
X53330999Y-89729485D01*
G37*
X53330999Y-89729485D02*
X52822381Y-89742865D01*
X52378337Y-89763195D01*
X52034887Y-89788862D01*
X51840455Y-89815429D01*
X51329807Y-90000072D01*
X50915498Y-90297921D01*
X50607178Y-90682327D01*
X50414495Y-91126639D01*
X50347101Y-91604206D01*
X50414643Y-92088377D01*
X50626772Y-92552502D01*
X50776734Y-92753302D01*
X51029721Y-93003493D01*
X51316965Y-93184828D01*
X51671509Y-93308698D01*
X52126397Y-93386493D01*
X52714672Y-93429603D01*
X52742167Y-93430797D01*
X53694667Y-93471308D01*
X53694667Y-95651333D01*
X55472667Y-95651333D01*
X55472667Y-92264667D01*
X53694667Y-92264667D01*
X53181101Y-92264667D01*
X52871659Y-92248886D01*
X52607695Y-92208126D01*
X52482601Y-92167325D01*
X52289316Y-92033783D01*
X52196744Y-91859663D01*
X52171980Y-91582673D01*
X52171964Y-91579289D01*
X52212845Y-91301774D01*
X52352032Y-91110814D01*
X52610177Y-90991957D01*
X53007932Y-90930747D01*
X53108220Y-90924028D01*
X53694667Y-90890891D01*
X53694667Y-92264667D01*
X55472667Y-92264667D01*
X55472667Y-89724667D01*
X53868168Y-89724667D01*
X53330999Y-89729485D01*
G36*
X67480190Y-85023833D02*
G01*
X67470175Y-85624313D01*
X67458972Y-86080575D01*
X67443971Y-86417726D01*
X67422563Y-86660876D01*
X67392140Y-86835132D01*
X67350091Y-86965604D01*
X67293809Y-87077399D01*
X67261166Y-87131486D01*
X66977191Y-87444595D01*
X66614025Y-87638648D01*
X66208984Y-87714674D01*
X65799383Y-87673700D01*
X65422539Y-87516755D01*
X65115768Y-87244866D01*
X65001942Y-87069242D01*
X64942677Y-86941923D01*
X64897761Y-86799144D01*
X64864723Y-86615051D01*
X64841091Y-86363792D01*
X64824396Y-86019513D01*
X64812166Y-85556362D01*
X64802415Y-84981500D01*
X64776496Y-83224667D01*
X63008000Y-83224667D01*
X63008000Y-85071966D01*
X63012018Y-85793156D01*
X63026823Y-86370089D01*
X63056542Y-86827712D01*
X63105302Y-87190971D01*
X63177230Y-87484810D01*
X63276455Y-87734177D01*
X63407103Y-87964017D01*
X63511596Y-88115817D01*
X63888032Y-88500818D01*
X64388461Y-88811242D01*
X64980749Y-89038071D01*
X65632762Y-89172285D01*
X66312365Y-89204866D01*
X66987424Y-89126795D01*
X67058742Y-89111355D01*
X67672773Y-88913484D01*
X68212036Y-88624693D01*
X68637670Y-88267311D01*
X68741997Y-88144104D01*
X68902853Y-87916229D01*
X69028202Y-87684290D01*
X69122300Y-87423669D01*
X69189406Y-87109748D01*
X69233776Y-86717910D01*
X69259669Y-86223537D01*
X69271343Y-85602011D01*
X69273334Y-85071966D01*
X69273334Y-83224667D01*
X67507380Y-83224667D01*
X67480190Y-85023833D01*
G37*
X67480190Y-85023833D02*
X67470175Y-85624313D01*
X67458972Y-86080575D01*
X67443971Y-86417726D01*
X67422563Y-86660876D01*
X67392140Y-86835132D01*
X67350091Y-86965604D01*
X67293809Y-87077399D01*
X67261166Y-87131486D01*
X66977191Y-87444595D01*
X66614025Y-87638648D01*
X66208984Y-87714674D01*
X65799383Y-87673700D01*
X65422539Y-87516755D01*
X65115768Y-87244866D01*
X65001942Y-87069242D01*
X64942677Y-86941923D01*
X64897761Y-86799144D01*
X64864723Y-86615051D01*
X64841091Y-86363792D01*
X64824396Y-86019513D01*
X64812166Y-85556362D01*
X64802415Y-84981500D01*
X64776496Y-83224667D01*
X63008000Y-83224667D01*
X63008000Y-85071966D01*
X63012018Y-85793156D01*
X63026823Y-86370089D01*
X63056542Y-86827712D01*
X63105302Y-87190971D01*
X63177230Y-87484810D01*
X63276455Y-87734177D01*
X63407103Y-87964017D01*
X63511596Y-88115817D01*
X63888032Y-88500818D01*
X64388461Y-88811242D01*
X64980749Y-89038071D01*
X65632762Y-89172285D01*
X66312365Y-89204866D01*
X66987424Y-89126795D01*
X67058742Y-89111355D01*
X67672773Y-88913484D01*
X68212036Y-88624693D01*
X68637670Y-88267311D01*
X68741997Y-88144104D01*
X68902853Y-87916229D01*
X69028202Y-87684290D01*
X69122300Y-87423669D01*
X69189406Y-87109748D01*
X69233776Y-86717910D01*
X69259669Y-86223537D01*
X69271343Y-85602011D01*
X69273334Y-85071966D01*
X69273334Y-83224667D01*
X67507380Y-83224667D01*
X67480190Y-85023833D01*
G36*
X72892834Y-83237669D02*
G01*
X72277628Y-83248021D01*
X71806066Y-83259205D01*
X71452471Y-83273904D01*
X71191163Y-83294799D01*
X70996465Y-83324574D01*
X70842697Y-83365910D01*
X70704181Y-83421491D01*
X70585790Y-83478667D01*
X70175970Y-83762052D01*
X69910153Y-84114799D01*
X69791606Y-84512099D01*
X69823600Y-84929140D01*
X70009404Y-85341115D01*
X70296470Y-85674056D01*
X70565130Y-85919439D01*
X70223568Y-86093691D01*
X69823462Y-86381396D01*
X69549004Y-86751791D01*
X69399773Y-87174513D01*
X69375349Y-87619200D01*
X69475309Y-88055490D01*
X69699234Y-88453022D01*
X70046702Y-88781434D01*
X70262581Y-88908243D01*
X70398169Y-88971355D01*
X70532391Y-89020094D01*
X70689310Y-89056697D01*
X70892994Y-89083397D01*
X71167505Y-89102430D01*
X71536910Y-89116030D01*
X72025274Y-89126433D01*
X72656662Y-89135872D01*
X72723500Y-89136780D01*
X74776667Y-89164560D01*
X74776667Y-86611333D01*
X72998667Y-86611333D01*
X72998667Y-88152710D01*
X72271668Y-88122853D01*
X71912732Y-88103984D01*
X71679254Y-88074816D01*
X71527373Y-88022755D01*
X71413232Y-87935209D01*
X71340335Y-87855444D01*
X71201935Y-87638027D01*
X71136741Y-87424352D01*
X71136000Y-87405379D01*
X71201063Y-87075206D01*
X71399385Y-86835486D01*
X71735670Y-86683271D01*
X72214620Y-86615610D01*
X72401796Y-86611333D01*
X72998667Y-86611333D01*
X74776667Y-86611333D01*
X74776667Y-84240667D01*
X72998667Y-84240667D01*
X72998667Y-85595333D01*
X72538512Y-85595333D01*
X72227672Y-85578564D01*
X71949238Y-85535847D01*
X71841735Y-85505370D01*
X71619628Y-85389019D01*
X71509546Y-85223536D01*
X71477485Y-84954120D01*
X71477260Y-84918000D01*
X71494542Y-84688705D01*
X71536608Y-84529089D01*
X71541187Y-84521130D01*
X71715507Y-84384988D01*
X72019759Y-84288849D01*
X72417162Y-84243058D01*
X72538512Y-84240667D01*
X72998667Y-84240667D01*
X74776667Y-84240667D01*
X74776667Y-83208337D01*
X72892834Y-83237669D01*
G37*
X72892834Y-83237669D02*
X72277628Y-83248021D01*
X71806066Y-83259205D01*
X71452471Y-83273904D01*
X71191163Y-83294799D01*
X70996465Y-83324574D01*
X70842697Y-83365910D01*
X70704181Y-83421491D01*
X70585790Y-83478667D01*
X70175970Y-83762052D01*
X69910153Y-84114799D01*
X69791606Y-84512099D01*
X69823600Y-84929140D01*
X70009404Y-85341115D01*
X70296470Y-85674056D01*
X70565130Y-85919439D01*
X70223568Y-86093691D01*
X69823462Y-86381396D01*
X69549004Y-86751791D01*
X69399773Y-87174513D01*
X69375349Y-87619200D01*
X69475309Y-88055490D01*
X69699234Y-88453022D01*
X70046702Y-88781434D01*
X70262581Y-88908243D01*
X70398169Y-88971355D01*
X70532391Y-89020094D01*
X70689310Y-89056697D01*
X70892994Y-89083397D01*
X71167505Y-89102430D01*
X71536910Y-89116030D01*
X72025274Y-89126433D01*
X72656662Y-89135872D01*
X72723500Y-89136780D01*
X74776667Y-89164560D01*
X74776667Y-86611333D01*
X72998667Y-86611333D01*
X72998667Y-88152710D01*
X72271668Y-88122853D01*
X71912732Y-88103984D01*
X71679254Y-88074816D01*
X71527373Y-88022755D01*
X71413232Y-87935209D01*
X71340335Y-87855444D01*
X71201935Y-87638027D01*
X71136741Y-87424352D01*
X71136000Y-87405379D01*
X71201063Y-87075206D01*
X71399385Y-86835486D01*
X71735670Y-86683271D01*
X72214620Y-86615610D01*
X72401796Y-86611333D01*
X72998667Y-86611333D01*
X74776667Y-86611333D01*
X74776667Y-84240667D01*
X72998667Y-84240667D01*
X72998667Y-85595333D01*
X72538512Y-85595333D01*
X72227672Y-85578564D01*
X71949238Y-85535847D01*
X71841735Y-85505370D01*
X71619628Y-85389019D01*
X71509546Y-85223536D01*
X71477485Y-84954120D01*
X71477260Y-84918000D01*
X71494542Y-84688705D01*
X71536608Y-84529089D01*
X71541187Y-84521130D01*
X71715507Y-84384988D01*
X72019759Y-84288849D01*
X72417162Y-84243058D01*
X72538512Y-84240667D01*
X72998667Y-84240667D01*
X74776667Y-84240667D01*
X74776667Y-83208337D01*
X72892834Y-83237669D01*
G36*
X60245981Y-84322250D02*
G01*
X59882209Y-84753033D01*
X59608888Y-85058464D01*
X59415453Y-85249091D01*
X59291340Y-85335465D01*
X59232157Y-85334547D01*
X59144611Y-85242009D01*
X58971207Y-85043291D01*
X58733240Y-84763326D01*
X58452010Y-84427051D01*
X58295863Y-84238357D01*
X57462334Y-83227455D01*
X55811334Y-83224667D01*
X55811334Y-89151333D01*
X57585898Y-89151333D01*
X57608783Y-87394571D01*
X57631667Y-85637809D01*
X58436000Y-86670807D01*
X58718316Y-87026709D01*
X58968521Y-87329640D01*
X59166780Y-87556545D01*
X59293258Y-87684370D01*
X59325000Y-87704088D01*
X59404112Y-87640925D01*
X59566426Y-87466580D01*
X59791889Y-87204076D01*
X60060443Y-86876438D01*
X60214000Y-86683482D01*
X61018334Y-85662591D01*
X61041218Y-87406962D01*
X61064103Y-89151333D01*
X62754000Y-89151333D01*
X62754000Y-83224667D01*
X61157042Y-83224667D01*
X60245981Y-84322250D01*
G37*
X60245981Y-84322250D02*
X59882209Y-84753033D01*
X59608888Y-85058464D01*
X59415453Y-85249091D01*
X59291340Y-85335465D01*
X59232157Y-85334547D01*
X59144611Y-85242009D01*
X58971207Y-85043291D01*
X58733240Y-84763326D01*
X58452010Y-84427051D01*
X58295863Y-84238357D01*
X57462334Y-83227455D01*
X55811334Y-83224667D01*
X55811334Y-89151333D01*
X57585898Y-89151333D01*
X57608783Y-87394571D01*
X57631667Y-85637809D01*
X58436000Y-86670807D01*
X58718316Y-87026709D01*
X58968521Y-87329640D01*
X59166780Y-87556545D01*
X59293258Y-87684370D01*
X59325000Y-87704088D01*
X59404112Y-87640925D01*
X59566426Y-87466580D01*
X59791889Y-87204076D01*
X60060443Y-86876438D01*
X60214000Y-86683482D01*
X61018334Y-85662591D01*
X61041218Y-87406962D01*
X61064103Y-89151333D01*
X62754000Y-89151333D01*
X62754000Y-83224667D01*
X61157042Y-83224667D01*
X60245981Y-84322250D01*
G36*
X53330999Y-83229485D02*
G01*
X52822381Y-83242865D01*
X52378337Y-83263195D01*
X52034887Y-83288862D01*
X51840455Y-83315429D01*
X51329807Y-83500072D01*
X50915498Y-83797921D01*
X50607178Y-84182327D01*
X50414495Y-84626639D01*
X50347101Y-85104206D01*
X50414643Y-85588377D01*
X50626772Y-86052502D01*
X50776734Y-86253302D01*
X51029721Y-86503493D01*
X51316965Y-86684828D01*
X51671509Y-86808698D01*
X52126397Y-86886493D01*
X52714672Y-86929603D01*
X52742167Y-86930797D01*
X53694667Y-86971308D01*
X53694667Y-89151333D01*
X55472667Y-89151333D01*
X55472667Y-85764667D01*
X53694667Y-85764667D01*
X53181101Y-85764667D01*
X52871659Y-85748886D01*
X52607695Y-85708126D01*
X52482601Y-85667325D01*
X52289316Y-85533783D01*
X52196744Y-85359663D01*
X52171980Y-85082673D01*
X52171964Y-85079289D01*
X52212845Y-84801774D01*
X52352032Y-84610814D01*
X52610177Y-84491957D01*
X53007932Y-84430747D01*
X53108220Y-84424028D01*
X53694667Y-84390891D01*
X53694667Y-85764667D01*
X55472667Y-85764667D01*
X55472667Y-83224667D01*
X53868168Y-83224667D01*
X53330999Y-83229485D01*
G37*
X53330999Y-83229485D02*
X52822381Y-83242865D01*
X52378337Y-83263195D01*
X52034887Y-83288862D01*
X51840455Y-83315429D01*
X51329807Y-83500072D01*
X50915498Y-83797921D01*
X50607178Y-84182327D01*
X50414495Y-84626639D01*
X50347101Y-85104206D01*
X50414643Y-85588377D01*
X50626772Y-86052502D01*
X50776734Y-86253302D01*
X51029721Y-86503493D01*
X51316965Y-86684828D01*
X51671509Y-86808698D01*
X52126397Y-86886493D01*
X52714672Y-86929603D01*
X52742167Y-86930797D01*
X53694667Y-86971308D01*
X53694667Y-89151333D01*
X55472667Y-89151333D01*
X55472667Y-85764667D01*
X53694667Y-85764667D01*
X53181101Y-85764667D01*
X52871659Y-85748886D01*
X52607695Y-85708126D01*
X52482601Y-85667325D01*
X52289316Y-85533783D01*
X52196744Y-85359663D01*
X52171980Y-85082673D01*
X52171964Y-85079289D01*
X52212845Y-84801774D01*
X52352032Y-84610814D01*
X52610177Y-84491957D01*
X53007932Y-84430747D01*
X53108220Y-84424028D01*
X53694667Y-84390891D01*
X53694667Y-85764667D01*
X55472667Y-85764667D01*
X55472667Y-83224667D01*
X53868168Y-83224667D01*
X53330999Y-83229485D01*
G36*
X67480190Y-78523833D02*
G01*
X67470175Y-79124313D01*
X67458972Y-79580575D01*
X67443971Y-79917726D01*
X67422563Y-80160876D01*
X67392140Y-80335132D01*
X67350091Y-80465604D01*
X67293809Y-80577399D01*
X67261166Y-80631486D01*
X66977191Y-80944595D01*
X66614025Y-81138648D01*
X66208984Y-81214674D01*
X65799383Y-81173700D01*
X65422539Y-81016755D01*
X65115768Y-80744866D01*
X65001942Y-80569242D01*
X64942677Y-80441923D01*
X64897761Y-80299144D01*
X64864723Y-80115051D01*
X64841091Y-79863792D01*
X64824396Y-79519513D01*
X64812166Y-79056362D01*
X64802415Y-78481500D01*
X64776496Y-76724667D01*
X63008000Y-76724667D01*
X63008000Y-78571966D01*
X63012018Y-79293156D01*
X63026823Y-79870089D01*
X63056542Y-80327712D01*
X63105302Y-80690971D01*
X63177230Y-80984810D01*
X63276455Y-81234177D01*
X63407103Y-81464017D01*
X63511596Y-81615817D01*
X63888032Y-82000818D01*
X64388461Y-82311242D01*
X64980749Y-82538071D01*
X65632762Y-82672285D01*
X66312365Y-82704866D01*
X66987424Y-82626795D01*
X67058742Y-82611355D01*
X67672773Y-82413484D01*
X68212036Y-82124693D01*
X68637670Y-81767311D01*
X68741997Y-81644104D01*
X68902853Y-81416229D01*
X69028202Y-81184290D01*
X69122300Y-80923669D01*
X69189406Y-80609748D01*
X69233776Y-80217910D01*
X69259669Y-79723537D01*
X69271343Y-79102011D01*
X69273334Y-78571966D01*
X69273334Y-76724667D01*
X67507380Y-76724667D01*
X67480190Y-78523833D01*
G37*
X67480190Y-78523833D02*
X67470175Y-79124313D01*
X67458972Y-79580575D01*
X67443971Y-79917726D01*
X67422563Y-80160876D01*
X67392140Y-80335132D01*
X67350091Y-80465604D01*
X67293809Y-80577399D01*
X67261166Y-80631486D01*
X66977191Y-80944595D01*
X66614025Y-81138648D01*
X66208984Y-81214674D01*
X65799383Y-81173700D01*
X65422539Y-81016755D01*
X65115768Y-80744866D01*
X65001942Y-80569242D01*
X64942677Y-80441923D01*
X64897761Y-80299144D01*
X64864723Y-80115051D01*
X64841091Y-79863792D01*
X64824396Y-79519513D01*
X64812166Y-79056362D01*
X64802415Y-78481500D01*
X64776496Y-76724667D01*
X63008000Y-76724667D01*
X63008000Y-78571966D01*
X63012018Y-79293156D01*
X63026823Y-79870089D01*
X63056542Y-80327712D01*
X63105302Y-80690971D01*
X63177230Y-80984810D01*
X63276455Y-81234177D01*
X63407103Y-81464017D01*
X63511596Y-81615817D01*
X63888032Y-82000818D01*
X64388461Y-82311242D01*
X64980749Y-82538071D01*
X65632762Y-82672285D01*
X66312365Y-82704866D01*
X66987424Y-82626795D01*
X67058742Y-82611355D01*
X67672773Y-82413484D01*
X68212036Y-82124693D01*
X68637670Y-81767311D01*
X68741997Y-81644104D01*
X68902853Y-81416229D01*
X69028202Y-81184290D01*
X69122300Y-80923669D01*
X69189406Y-80609748D01*
X69233776Y-80217910D01*
X69259669Y-79723537D01*
X69271343Y-79102011D01*
X69273334Y-78571966D01*
X69273334Y-76724667D01*
X67507380Y-76724667D01*
X67480190Y-78523833D01*
G36*
X72892834Y-76737669D02*
G01*
X72277628Y-76748021D01*
X71806066Y-76759205D01*
X71452471Y-76773904D01*
X71191163Y-76794799D01*
X70996465Y-76824574D01*
X70842697Y-76865910D01*
X70704181Y-76921491D01*
X70585790Y-76978667D01*
X70175970Y-77262052D01*
X69910153Y-77614799D01*
X69791606Y-78012099D01*
X69823600Y-78429140D01*
X70009404Y-78841115D01*
X70296470Y-79174056D01*
X70565130Y-79419439D01*
X70223568Y-79593691D01*
X69823462Y-79881396D01*
X69549004Y-80251791D01*
X69399773Y-80674513D01*
X69375349Y-81119200D01*
X69475309Y-81555490D01*
X69699234Y-81953022D01*
X70046702Y-82281434D01*
X70262581Y-82408243D01*
X70398169Y-82471355D01*
X70532391Y-82520094D01*
X70689310Y-82556697D01*
X70892994Y-82583397D01*
X71167505Y-82602430D01*
X71536910Y-82616030D01*
X72025274Y-82626433D01*
X72656662Y-82635872D01*
X72723500Y-82636780D01*
X74776667Y-82664560D01*
X74776667Y-80111333D01*
X72998667Y-80111333D01*
X72998667Y-81652710D01*
X72271668Y-81622853D01*
X71912732Y-81603984D01*
X71679254Y-81574816D01*
X71527373Y-81522755D01*
X71413232Y-81435209D01*
X71340335Y-81355444D01*
X71201935Y-81138027D01*
X71136741Y-80924352D01*
X71136000Y-80905379D01*
X71201063Y-80575206D01*
X71399385Y-80335486D01*
X71735670Y-80183271D01*
X72214620Y-80115610D01*
X72401796Y-80111333D01*
X72998667Y-80111333D01*
X74776667Y-80111333D01*
X74776667Y-77740667D01*
X72998667Y-77740667D01*
X72998667Y-79095333D01*
X72538512Y-79095333D01*
X72227672Y-79078564D01*
X71949238Y-79035847D01*
X71841735Y-79005370D01*
X71619628Y-78889019D01*
X71509546Y-78723536D01*
X71477485Y-78454120D01*
X71477260Y-78418000D01*
X71494542Y-78188705D01*
X71536608Y-78029089D01*
X71541187Y-78021130D01*
X71715507Y-77884988D01*
X72019759Y-77788849D01*
X72417162Y-77743058D01*
X72538512Y-77740667D01*
X72998667Y-77740667D01*
X74776667Y-77740667D01*
X74776667Y-76708337D01*
X72892834Y-76737669D01*
G37*
X72892834Y-76737669D02*
X72277628Y-76748021D01*
X71806066Y-76759205D01*
X71452471Y-76773904D01*
X71191163Y-76794799D01*
X70996465Y-76824574D01*
X70842697Y-76865910D01*
X70704181Y-76921491D01*
X70585790Y-76978667D01*
X70175970Y-77262052D01*
X69910153Y-77614799D01*
X69791606Y-78012099D01*
X69823600Y-78429140D01*
X70009404Y-78841115D01*
X70296470Y-79174056D01*
X70565130Y-79419439D01*
X70223568Y-79593691D01*
X69823462Y-79881396D01*
X69549004Y-80251791D01*
X69399773Y-80674513D01*
X69375349Y-81119200D01*
X69475309Y-81555490D01*
X69699234Y-81953022D01*
X70046702Y-82281434D01*
X70262581Y-82408243D01*
X70398169Y-82471355D01*
X70532391Y-82520094D01*
X70689310Y-82556697D01*
X70892994Y-82583397D01*
X71167505Y-82602430D01*
X71536910Y-82616030D01*
X72025274Y-82626433D01*
X72656662Y-82635872D01*
X72723500Y-82636780D01*
X74776667Y-82664560D01*
X74776667Y-80111333D01*
X72998667Y-80111333D01*
X72998667Y-81652710D01*
X72271668Y-81622853D01*
X71912732Y-81603984D01*
X71679254Y-81574816D01*
X71527373Y-81522755D01*
X71413232Y-81435209D01*
X71340335Y-81355444D01*
X71201935Y-81138027D01*
X71136741Y-80924352D01*
X71136000Y-80905379D01*
X71201063Y-80575206D01*
X71399385Y-80335486D01*
X71735670Y-80183271D01*
X72214620Y-80115610D01*
X72401796Y-80111333D01*
X72998667Y-80111333D01*
X74776667Y-80111333D01*
X74776667Y-77740667D01*
X72998667Y-77740667D01*
X72998667Y-79095333D01*
X72538512Y-79095333D01*
X72227672Y-79078564D01*
X71949238Y-79035847D01*
X71841735Y-79005370D01*
X71619628Y-78889019D01*
X71509546Y-78723536D01*
X71477485Y-78454120D01*
X71477260Y-78418000D01*
X71494542Y-78188705D01*
X71536608Y-78029089D01*
X71541187Y-78021130D01*
X71715507Y-77884988D01*
X72019759Y-77788849D01*
X72417162Y-77743058D01*
X72538512Y-77740667D01*
X72998667Y-77740667D01*
X74776667Y-77740667D01*
X74776667Y-76708337D01*
X72892834Y-76737669D01*
G36*
X60245981Y-77822250D02*
G01*
X59882209Y-78253033D01*
X59608888Y-78558464D01*
X59415453Y-78749091D01*
X59291340Y-78835465D01*
X59232157Y-78834547D01*
X59144611Y-78742009D01*
X58971207Y-78543291D01*
X58733240Y-78263326D01*
X58452010Y-77927051D01*
X58295863Y-77738357D01*
X57462334Y-76727455D01*
X55811334Y-76724667D01*
X55811334Y-82651333D01*
X57585898Y-82651333D01*
X57608783Y-80894571D01*
X57631667Y-79137809D01*
X58436000Y-80170807D01*
X58718316Y-80526709D01*
X58968521Y-80829640D01*
X59166780Y-81056545D01*
X59293258Y-81184370D01*
X59325000Y-81204088D01*
X59404112Y-81140925D01*
X59566426Y-80966580D01*
X59791889Y-80704076D01*
X60060443Y-80376438D01*
X60214000Y-80183482D01*
X61018334Y-79162591D01*
X61041218Y-80906962D01*
X61064103Y-82651333D01*
X62754000Y-82651333D01*
X62754000Y-76724667D01*
X61157042Y-76724667D01*
X60245981Y-77822250D01*
G37*
X60245981Y-77822250D02*
X59882209Y-78253033D01*
X59608888Y-78558464D01*
X59415453Y-78749091D01*
X59291340Y-78835465D01*
X59232157Y-78834547D01*
X59144611Y-78742009D01*
X58971207Y-78543291D01*
X58733240Y-78263326D01*
X58452010Y-77927051D01*
X58295863Y-77738357D01*
X57462334Y-76727455D01*
X55811334Y-76724667D01*
X55811334Y-82651333D01*
X57585898Y-82651333D01*
X57608783Y-80894571D01*
X57631667Y-79137809D01*
X58436000Y-80170807D01*
X58718316Y-80526709D01*
X58968521Y-80829640D01*
X59166780Y-81056545D01*
X59293258Y-81184370D01*
X59325000Y-81204088D01*
X59404112Y-81140925D01*
X59566426Y-80966580D01*
X59791889Y-80704076D01*
X60060443Y-80376438D01*
X60214000Y-80183482D01*
X61018334Y-79162591D01*
X61041218Y-80906962D01*
X61064103Y-82651333D01*
X62754000Y-82651333D01*
X62754000Y-76724667D01*
X61157042Y-76724667D01*
X60245981Y-77822250D01*
G36*
X53330999Y-76729485D02*
G01*
X52822381Y-76742865D01*
X52378337Y-76763195D01*
X52034887Y-76788862D01*
X51840455Y-76815429D01*
X51329807Y-77000072D01*
X50915498Y-77297921D01*
X50607178Y-77682327D01*
X50414495Y-78126639D01*
X50347101Y-78604206D01*
X50414643Y-79088377D01*
X50626772Y-79552502D01*
X50776734Y-79753302D01*
X51029721Y-80003493D01*
X51316965Y-80184828D01*
X51671509Y-80308698D01*
X52126397Y-80386493D01*
X52714672Y-80429603D01*
X52742167Y-80430797D01*
X53694667Y-80471308D01*
X53694667Y-82651333D01*
X55472667Y-82651333D01*
X55472667Y-79264667D01*
X53694667Y-79264667D01*
X53181101Y-79264667D01*
X52871659Y-79248886D01*
X52607695Y-79208126D01*
X52482601Y-79167325D01*
X52289316Y-79033783D01*
X52196744Y-78859663D01*
X52171980Y-78582673D01*
X52171964Y-78579289D01*
X52212845Y-78301774D01*
X52352032Y-78110814D01*
X52610177Y-77991957D01*
X53007932Y-77930747D01*
X53108220Y-77924028D01*
X53694667Y-77890891D01*
X53694667Y-79264667D01*
X55472667Y-79264667D01*
X55472667Y-76724667D01*
X53868168Y-76724667D01*
X53330999Y-76729485D01*
G37*
X53330999Y-76729485D02*
X52822381Y-76742865D01*
X52378337Y-76763195D01*
X52034887Y-76788862D01*
X51840455Y-76815429D01*
X51329807Y-77000072D01*
X50915498Y-77297921D01*
X50607178Y-77682327D01*
X50414495Y-78126639D01*
X50347101Y-78604206D01*
X50414643Y-79088377D01*
X50626772Y-79552502D01*
X50776734Y-79753302D01*
X51029721Y-80003493D01*
X51316965Y-80184828D01*
X51671509Y-80308698D01*
X52126397Y-80386493D01*
X52714672Y-80429603D01*
X52742167Y-80430797D01*
X53694667Y-80471308D01*
X53694667Y-82651333D01*
X55472667Y-82651333D01*
X55472667Y-79264667D01*
X53694667Y-79264667D01*
X53181101Y-79264667D01*
X52871659Y-79248886D01*
X52607695Y-79208126D01*
X52482601Y-79167325D01*
X52289316Y-79033783D01*
X52196744Y-78859663D01*
X52171980Y-78582673D01*
X52171964Y-78579289D01*
X52212845Y-78301774D01*
X52352032Y-78110814D01*
X52610177Y-77991957D01*
X53007932Y-77930747D01*
X53108220Y-77924028D01*
X53694667Y-77890891D01*
X53694667Y-79264667D01*
X55472667Y-79264667D01*
X55472667Y-76724667D01*
X53868168Y-76724667D01*
X53330999Y-76729485D01*
G36*
X67480190Y-72023833D02*
G01*
X67470175Y-72624313D01*
X67458972Y-73080575D01*
X67443971Y-73417726D01*
X67422563Y-73660876D01*
X67392140Y-73835132D01*
X67350091Y-73965604D01*
X67293809Y-74077399D01*
X67261166Y-74131486D01*
X66977191Y-74444595D01*
X66614025Y-74638648D01*
X66208984Y-74714674D01*
X65799383Y-74673700D01*
X65422539Y-74516755D01*
X65115768Y-74244866D01*
X65001942Y-74069242D01*
X64942677Y-73941923D01*
X64897761Y-73799144D01*
X64864723Y-73615051D01*
X64841091Y-73363792D01*
X64824396Y-73019513D01*
X64812166Y-72556362D01*
X64802415Y-71981500D01*
X64776496Y-70224667D01*
X63008000Y-70224667D01*
X63008000Y-72071966D01*
X63012018Y-72793156D01*
X63026823Y-73370089D01*
X63056542Y-73827712D01*
X63105302Y-74190971D01*
X63177230Y-74484810D01*
X63276455Y-74734177D01*
X63407103Y-74964017D01*
X63511596Y-75115817D01*
X63888032Y-75500818D01*
X64388461Y-75811242D01*
X64980749Y-76038071D01*
X65632762Y-76172285D01*
X66312365Y-76204866D01*
X66987424Y-76126795D01*
X67058742Y-76111355D01*
X67672773Y-75913484D01*
X68212036Y-75624693D01*
X68637670Y-75267311D01*
X68741997Y-75144104D01*
X68902853Y-74916229D01*
X69028202Y-74684290D01*
X69122300Y-74423669D01*
X69189406Y-74109748D01*
X69233776Y-73717910D01*
X69259669Y-73223537D01*
X69271343Y-72602011D01*
X69273334Y-72071966D01*
X69273334Y-70224667D01*
X67507380Y-70224667D01*
X67480190Y-72023833D01*
G37*
X67480190Y-72023833D02*
X67470175Y-72624313D01*
X67458972Y-73080575D01*
X67443971Y-73417726D01*
X67422563Y-73660876D01*
X67392140Y-73835132D01*
X67350091Y-73965604D01*
X67293809Y-74077399D01*
X67261166Y-74131486D01*
X66977191Y-74444595D01*
X66614025Y-74638648D01*
X66208984Y-74714674D01*
X65799383Y-74673700D01*
X65422539Y-74516755D01*
X65115768Y-74244866D01*
X65001942Y-74069242D01*
X64942677Y-73941923D01*
X64897761Y-73799144D01*
X64864723Y-73615051D01*
X64841091Y-73363792D01*
X64824396Y-73019513D01*
X64812166Y-72556362D01*
X64802415Y-71981500D01*
X64776496Y-70224667D01*
X63008000Y-70224667D01*
X63008000Y-72071966D01*
X63012018Y-72793156D01*
X63026823Y-73370089D01*
X63056542Y-73827712D01*
X63105302Y-74190971D01*
X63177230Y-74484810D01*
X63276455Y-74734177D01*
X63407103Y-74964017D01*
X63511596Y-75115817D01*
X63888032Y-75500818D01*
X64388461Y-75811242D01*
X64980749Y-76038071D01*
X65632762Y-76172285D01*
X66312365Y-76204866D01*
X66987424Y-76126795D01*
X67058742Y-76111355D01*
X67672773Y-75913484D01*
X68212036Y-75624693D01*
X68637670Y-75267311D01*
X68741997Y-75144104D01*
X68902853Y-74916229D01*
X69028202Y-74684290D01*
X69122300Y-74423669D01*
X69189406Y-74109748D01*
X69233776Y-73717910D01*
X69259669Y-73223537D01*
X69271343Y-72602011D01*
X69273334Y-72071966D01*
X69273334Y-70224667D01*
X67507380Y-70224667D01*
X67480190Y-72023833D01*
G36*
X72892834Y-70237669D02*
G01*
X72277628Y-70248021D01*
X71806066Y-70259205D01*
X71452471Y-70273904D01*
X71191163Y-70294799D01*
X70996465Y-70324574D01*
X70842697Y-70365910D01*
X70704181Y-70421491D01*
X70585790Y-70478667D01*
X70175970Y-70762052D01*
X69910153Y-71114799D01*
X69791606Y-71512099D01*
X69823600Y-71929140D01*
X70009404Y-72341115D01*
X70296470Y-72674056D01*
X70565130Y-72919439D01*
X70223568Y-73093691D01*
X69823462Y-73381396D01*
X69549004Y-73751791D01*
X69399773Y-74174513D01*
X69375349Y-74619200D01*
X69475309Y-75055490D01*
X69699234Y-75453022D01*
X70046702Y-75781434D01*
X70262581Y-75908243D01*
X70398169Y-75971355D01*
X70532391Y-76020094D01*
X70689310Y-76056697D01*
X70892994Y-76083397D01*
X71167505Y-76102430D01*
X71536910Y-76116030D01*
X72025274Y-76126433D01*
X72656662Y-76135872D01*
X72723500Y-76136780D01*
X74776667Y-76164560D01*
X74776667Y-73611333D01*
X72998667Y-73611333D01*
X72998667Y-75152710D01*
X72271668Y-75122853D01*
X71912732Y-75103984D01*
X71679254Y-75074816D01*
X71527373Y-75022755D01*
X71413232Y-74935209D01*
X71340335Y-74855444D01*
X71201935Y-74638027D01*
X71136741Y-74424352D01*
X71136000Y-74405379D01*
X71201063Y-74075206D01*
X71399385Y-73835486D01*
X71735670Y-73683271D01*
X72214620Y-73615610D01*
X72401796Y-73611333D01*
X72998667Y-73611333D01*
X74776667Y-73611333D01*
X74776667Y-71240667D01*
X72998667Y-71240667D01*
X72998667Y-72595333D01*
X72538512Y-72595333D01*
X72227672Y-72578564D01*
X71949238Y-72535847D01*
X71841735Y-72505370D01*
X71619628Y-72389019D01*
X71509546Y-72223536D01*
X71477485Y-71954120D01*
X71477260Y-71918000D01*
X71494542Y-71688705D01*
X71536608Y-71529089D01*
X71541187Y-71521130D01*
X71715507Y-71384988D01*
X72019759Y-71288849D01*
X72417162Y-71243058D01*
X72538512Y-71240667D01*
X72998667Y-71240667D01*
X74776667Y-71240667D01*
X74776667Y-70208337D01*
X72892834Y-70237669D01*
G37*
X72892834Y-70237669D02*
X72277628Y-70248021D01*
X71806066Y-70259205D01*
X71452471Y-70273904D01*
X71191163Y-70294799D01*
X70996465Y-70324574D01*
X70842697Y-70365910D01*
X70704181Y-70421491D01*
X70585790Y-70478667D01*
X70175970Y-70762052D01*
X69910153Y-71114799D01*
X69791606Y-71512099D01*
X69823600Y-71929140D01*
X70009404Y-72341115D01*
X70296470Y-72674056D01*
X70565130Y-72919439D01*
X70223568Y-73093691D01*
X69823462Y-73381396D01*
X69549004Y-73751791D01*
X69399773Y-74174513D01*
X69375349Y-74619200D01*
X69475309Y-75055490D01*
X69699234Y-75453022D01*
X70046702Y-75781434D01*
X70262581Y-75908243D01*
X70398169Y-75971355D01*
X70532391Y-76020094D01*
X70689310Y-76056697D01*
X70892994Y-76083397D01*
X71167505Y-76102430D01*
X71536910Y-76116030D01*
X72025274Y-76126433D01*
X72656662Y-76135872D01*
X72723500Y-76136780D01*
X74776667Y-76164560D01*
X74776667Y-73611333D01*
X72998667Y-73611333D01*
X72998667Y-75152710D01*
X72271668Y-75122853D01*
X71912732Y-75103984D01*
X71679254Y-75074816D01*
X71527373Y-75022755D01*
X71413232Y-74935209D01*
X71340335Y-74855444D01*
X71201935Y-74638027D01*
X71136741Y-74424352D01*
X71136000Y-74405379D01*
X71201063Y-74075206D01*
X71399385Y-73835486D01*
X71735670Y-73683271D01*
X72214620Y-73615610D01*
X72401796Y-73611333D01*
X72998667Y-73611333D01*
X74776667Y-73611333D01*
X74776667Y-71240667D01*
X72998667Y-71240667D01*
X72998667Y-72595333D01*
X72538512Y-72595333D01*
X72227672Y-72578564D01*
X71949238Y-72535847D01*
X71841735Y-72505370D01*
X71619628Y-72389019D01*
X71509546Y-72223536D01*
X71477485Y-71954120D01*
X71477260Y-71918000D01*
X71494542Y-71688705D01*
X71536608Y-71529089D01*
X71541187Y-71521130D01*
X71715507Y-71384988D01*
X72019759Y-71288849D01*
X72417162Y-71243058D01*
X72538512Y-71240667D01*
X72998667Y-71240667D01*
X74776667Y-71240667D01*
X74776667Y-70208337D01*
X72892834Y-70237669D01*
G36*
X60245981Y-71322250D02*
G01*
X59882209Y-71753033D01*
X59608888Y-72058464D01*
X59415453Y-72249091D01*
X59291340Y-72335465D01*
X59232157Y-72334547D01*
X59144611Y-72242009D01*
X58971207Y-72043291D01*
X58733240Y-71763326D01*
X58452010Y-71427051D01*
X58295863Y-71238357D01*
X57462334Y-70227455D01*
X55811334Y-70224667D01*
X55811334Y-76151333D01*
X57585898Y-76151333D01*
X57608783Y-74394571D01*
X57631667Y-72637809D01*
X58436000Y-73670807D01*
X58718316Y-74026709D01*
X58968521Y-74329640D01*
X59166780Y-74556545D01*
X59293258Y-74684370D01*
X59325000Y-74704088D01*
X59404112Y-74640925D01*
X59566426Y-74466580D01*
X59791889Y-74204076D01*
X60060443Y-73876438D01*
X60214000Y-73683482D01*
X61018334Y-72662591D01*
X61041218Y-74406962D01*
X61064103Y-76151333D01*
X62754000Y-76151333D01*
X62754000Y-70224667D01*
X61157042Y-70224667D01*
X60245981Y-71322250D01*
G37*
X60245981Y-71322250D02*
X59882209Y-71753033D01*
X59608888Y-72058464D01*
X59415453Y-72249091D01*
X59291340Y-72335465D01*
X59232157Y-72334547D01*
X59144611Y-72242009D01*
X58971207Y-72043291D01*
X58733240Y-71763326D01*
X58452010Y-71427051D01*
X58295863Y-71238357D01*
X57462334Y-70227455D01*
X55811334Y-70224667D01*
X55811334Y-76151333D01*
X57585898Y-76151333D01*
X57608783Y-74394571D01*
X57631667Y-72637809D01*
X58436000Y-73670807D01*
X58718316Y-74026709D01*
X58968521Y-74329640D01*
X59166780Y-74556545D01*
X59293258Y-74684370D01*
X59325000Y-74704088D01*
X59404112Y-74640925D01*
X59566426Y-74466580D01*
X59791889Y-74204076D01*
X60060443Y-73876438D01*
X60214000Y-73683482D01*
X61018334Y-72662591D01*
X61041218Y-74406962D01*
X61064103Y-76151333D01*
X62754000Y-76151333D01*
X62754000Y-70224667D01*
X61157042Y-70224667D01*
X60245981Y-71322250D01*
G36*
X53330999Y-70229485D02*
G01*
X52822381Y-70242865D01*
X52378337Y-70263195D01*
X52034887Y-70288862D01*
X51840455Y-70315429D01*
X51329807Y-70500072D01*
X50915498Y-70797921D01*
X50607178Y-71182327D01*
X50414495Y-71626639D01*
X50347101Y-72104206D01*
X50414643Y-72588377D01*
X50626772Y-73052502D01*
X50776734Y-73253302D01*
X51029721Y-73503493D01*
X51316965Y-73684828D01*
X51671509Y-73808698D01*
X52126397Y-73886493D01*
X52714672Y-73929603D01*
X52742167Y-73930797D01*
X53694667Y-73971308D01*
X53694667Y-76151333D01*
X55472667Y-76151333D01*
X55472667Y-72764667D01*
X53694667Y-72764667D01*
X53181101Y-72764667D01*
X52871659Y-72748886D01*
X52607695Y-72708126D01*
X52482601Y-72667325D01*
X52289316Y-72533783D01*
X52196744Y-72359663D01*
X52171980Y-72082673D01*
X52171964Y-72079289D01*
X52212845Y-71801774D01*
X52352032Y-71610814D01*
X52610177Y-71491957D01*
X53007932Y-71430747D01*
X53108220Y-71424028D01*
X53694667Y-71390891D01*
X53694667Y-72764667D01*
X55472667Y-72764667D01*
X55472667Y-70224667D01*
X53868168Y-70224667D01*
X53330999Y-70229485D01*
G37*
X53330999Y-70229485D02*
X52822381Y-70242865D01*
X52378337Y-70263195D01*
X52034887Y-70288862D01*
X51840455Y-70315429D01*
X51329807Y-70500072D01*
X50915498Y-70797921D01*
X50607178Y-71182327D01*
X50414495Y-71626639D01*
X50347101Y-72104206D01*
X50414643Y-72588377D01*
X50626772Y-73052502D01*
X50776734Y-73253302D01*
X51029721Y-73503493D01*
X51316965Y-73684828D01*
X51671509Y-73808698D01*
X52126397Y-73886493D01*
X52714672Y-73929603D01*
X52742167Y-73930797D01*
X53694667Y-73971308D01*
X53694667Y-76151333D01*
X55472667Y-76151333D01*
X55472667Y-72764667D01*
X53694667Y-72764667D01*
X53181101Y-72764667D01*
X52871659Y-72748886D01*
X52607695Y-72708126D01*
X52482601Y-72667325D01*
X52289316Y-72533783D01*
X52196744Y-72359663D01*
X52171980Y-72082673D01*
X52171964Y-72079289D01*
X52212845Y-71801774D01*
X52352032Y-71610814D01*
X52610177Y-71491957D01*
X53007932Y-71430747D01*
X53108220Y-71424028D01*
X53694667Y-71390891D01*
X53694667Y-72764667D01*
X55472667Y-72764667D01*
X55472667Y-70224667D01*
X53868168Y-70224667D01*
X53330999Y-70229485D01*
G36*
X67480190Y-65523833D02*
G01*
X67470175Y-66124313D01*
X67458972Y-66580575D01*
X67443971Y-66917726D01*
X67422563Y-67160876D01*
X67392140Y-67335132D01*
X67350091Y-67465604D01*
X67293809Y-67577399D01*
X67261166Y-67631486D01*
X66977191Y-67944595D01*
X66614025Y-68138648D01*
X66208984Y-68214674D01*
X65799383Y-68173700D01*
X65422539Y-68016755D01*
X65115768Y-67744866D01*
X65001942Y-67569242D01*
X64942677Y-67441923D01*
X64897761Y-67299144D01*
X64864723Y-67115051D01*
X64841091Y-66863792D01*
X64824396Y-66519513D01*
X64812166Y-66056362D01*
X64802415Y-65481500D01*
X64776496Y-63724667D01*
X63008000Y-63724667D01*
X63008000Y-65571966D01*
X63012018Y-66293156D01*
X63026823Y-66870089D01*
X63056542Y-67327712D01*
X63105302Y-67690971D01*
X63177230Y-67984810D01*
X63276455Y-68234177D01*
X63407103Y-68464017D01*
X63511596Y-68615817D01*
X63888032Y-69000818D01*
X64388461Y-69311242D01*
X64980749Y-69538071D01*
X65632762Y-69672285D01*
X66312365Y-69704866D01*
X66987424Y-69626795D01*
X67058742Y-69611355D01*
X67672773Y-69413484D01*
X68212036Y-69124693D01*
X68637670Y-68767311D01*
X68741997Y-68644104D01*
X68902853Y-68416229D01*
X69028202Y-68184290D01*
X69122300Y-67923669D01*
X69189406Y-67609748D01*
X69233776Y-67217910D01*
X69259669Y-66723537D01*
X69271343Y-66102011D01*
X69273334Y-65571966D01*
X69273334Y-63724667D01*
X67507380Y-63724667D01*
X67480190Y-65523833D01*
G37*
X67480190Y-65523833D02*
X67470175Y-66124313D01*
X67458972Y-66580575D01*
X67443971Y-66917726D01*
X67422563Y-67160876D01*
X67392140Y-67335132D01*
X67350091Y-67465604D01*
X67293809Y-67577399D01*
X67261166Y-67631486D01*
X66977191Y-67944595D01*
X66614025Y-68138648D01*
X66208984Y-68214674D01*
X65799383Y-68173700D01*
X65422539Y-68016755D01*
X65115768Y-67744866D01*
X65001942Y-67569242D01*
X64942677Y-67441923D01*
X64897761Y-67299144D01*
X64864723Y-67115051D01*
X64841091Y-66863792D01*
X64824396Y-66519513D01*
X64812166Y-66056362D01*
X64802415Y-65481500D01*
X64776496Y-63724667D01*
X63008000Y-63724667D01*
X63008000Y-65571966D01*
X63012018Y-66293156D01*
X63026823Y-66870089D01*
X63056542Y-67327712D01*
X63105302Y-67690971D01*
X63177230Y-67984810D01*
X63276455Y-68234177D01*
X63407103Y-68464017D01*
X63511596Y-68615817D01*
X63888032Y-69000818D01*
X64388461Y-69311242D01*
X64980749Y-69538071D01*
X65632762Y-69672285D01*
X66312365Y-69704866D01*
X66987424Y-69626795D01*
X67058742Y-69611355D01*
X67672773Y-69413484D01*
X68212036Y-69124693D01*
X68637670Y-68767311D01*
X68741997Y-68644104D01*
X68902853Y-68416229D01*
X69028202Y-68184290D01*
X69122300Y-67923669D01*
X69189406Y-67609748D01*
X69233776Y-67217910D01*
X69259669Y-66723537D01*
X69271343Y-66102011D01*
X69273334Y-65571966D01*
X69273334Y-63724667D01*
X67507380Y-63724667D01*
X67480190Y-65523833D01*
G36*
X72892834Y-63737669D02*
G01*
X72277628Y-63748021D01*
X71806066Y-63759205D01*
X71452471Y-63773904D01*
X71191163Y-63794799D01*
X70996465Y-63824574D01*
X70842697Y-63865910D01*
X70704181Y-63921491D01*
X70585790Y-63978667D01*
X70175970Y-64262052D01*
X69910153Y-64614799D01*
X69791606Y-65012099D01*
X69823600Y-65429140D01*
X70009404Y-65841115D01*
X70296470Y-66174056D01*
X70565130Y-66419439D01*
X70223568Y-66593691D01*
X69823462Y-66881396D01*
X69549004Y-67251791D01*
X69399773Y-67674513D01*
X69375349Y-68119200D01*
X69475309Y-68555490D01*
X69699234Y-68953022D01*
X70046702Y-69281434D01*
X70262581Y-69408243D01*
X70398169Y-69471355D01*
X70532391Y-69520094D01*
X70689310Y-69556697D01*
X70892994Y-69583397D01*
X71167505Y-69602430D01*
X71536910Y-69616030D01*
X72025274Y-69626433D01*
X72656662Y-69635872D01*
X72723500Y-69636780D01*
X74776667Y-69664560D01*
X74776667Y-67111333D01*
X72998667Y-67111333D01*
X72998667Y-68652710D01*
X72271668Y-68622853D01*
X71912732Y-68603984D01*
X71679254Y-68574816D01*
X71527373Y-68522755D01*
X71413232Y-68435209D01*
X71340335Y-68355444D01*
X71201935Y-68138027D01*
X71136741Y-67924352D01*
X71136000Y-67905379D01*
X71201063Y-67575206D01*
X71399385Y-67335486D01*
X71735670Y-67183271D01*
X72214620Y-67115610D01*
X72401796Y-67111333D01*
X72998667Y-67111333D01*
X74776667Y-67111333D01*
X74776667Y-64740667D01*
X72998667Y-64740667D01*
X72998667Y-66095333D01*
X72538512Y-66095333D01*
X72227672Y-66078564D01*
X71949238Y-66035847D01*
X71841735Y-66005370D01*
X71619628Y-65889019D01*
X71509546Y-65723536D01*
X71477485Y-65454120D01*
X71477260Y-65418000D01*
X71494542Y-65188705D01*
X71536608Y-65029089D01*
X71541187Y-65021130D01*
X71715507Y-64884988D01*
X72019759Y-64788849D01*
X72417162Y-64743058D01*
X72538512Y-64740667D01*
X72998667Y-64740667D01*
X74776667Y-64740667D01*
X74776667Y-63708337D01*
X72892834Y-63737669D01*
G37*
X72892834Y-63737669D02*
X72277628Y-63748021D01*
X71806066Y-63759205D01*
X71452471Y-63773904D01*
X71191163Y-63794799D01*
X70996465Y-63824574D01*
X70842697Y-63865910D01*
X70704181Y-63921491D01*
X70585790Y-63978667D01*
X70175970Y-64262052D01*
X69910153Y-64614799D01*
X69791606Y-65012099D01*
X69823600Y-65429140D01*
X70009404Y-65841115D01*
X70296470Y-66174056D01*
X70565130Y-66419439D01*
X70223568Y-66593691D01*
X69823462Y-66881396D01*
X69549004Y-67251791D01*
X69399773Y-67674513D01*
X69375349Y-68119200D01*
X69475309Y-68555490D01*
X69699234Y-68953022D01*
X70046702Y-69281434D01*
X70262581Y-69408243D01*
X70398169Y-69471355D01*
X70532391Y-69520094D01*
X70689310Y-69556697D01*
X70892994Y-69583397D01*
X71167505Y-69602430D01*
X71536910Y-69616030D01*
X72025274Y-69626433D01*
X72656662Y-69635872D01*
X72723500Y-69636780D01*
X74776667Y-69664560D01*
X74776667Y-67111333D01*
X72998667Y-67111333D01*
X72998667Y-68652710D01*
X72271668Y-68622853D01*
X71912732Y-68603984D01*
X71679254Y-68574816D01*
X71527373Y-68522755D01*
X71413232Y-68435209D01*
X71340335Y-68355444D01*
X71201935Y-68138027D01*
X71136741Y-67924352D01*
X71136000Y-67905379D01*
X71201063Y-67575206D01*
X71399385Y-67335486D01*
X71735670Y-67183271D01*
X72214620Y-67115610D01*
X72401796Y-67111333D01*
X72998667Y-67111333D01*
X74776667Y-67111333D01*
X74776667Y-64740667D01*
X72998667Y-64740667D01*
X72998667Y-66095333D01*
X72538512Y-66095333D01*
X72227672Y-66078564D01*
X71949238Y-66035847D01*
X71841735Y-66005370D01*
X71619628Y-65889019D01*
X71509546Y-65723536D01*
X71477485Y-65454120D01*
X71477260Y-65418000D01*
X71494542Y-65188705D01*
X71536608Y-65029089D01*
X71541187Y-65021130D01*
X71715507Y-64884988D01*
X72019759Y-64788849D01*
X72417162Y-64743058D01*
X72538512Y-64740667D01*
X72998667Y-64740667D01*
X74776667Y-64740667D01*
X74776667Y-63708337D01*
X72892834Y-63737669D01*
G36*
X60245981Y-64822250D02*
G01*
X59882209Y-65253033D01*
X59608888Y-65558464D01*
X59415453Y-65749091D01*
X59291340Y-65835465D01*
X59232157Y-65834547D01*
X59144611Y-65742009D01*
X58971207Y-65543291D01*
X58733240Y-65263326D01*
X58452010Y-64927051D01*
X58295863Y-64738357D01*
X57462334Y-63727455D01*
X55811334Y-63724667D01*
X55811334Y-69651333D01*
X57585898Y-69651333D01*
X57608783Y-67894571D01*
X57631667Y-66137809D01*
X58436000Y-67170807D01*
X58718316Y-67526709D01*
X58968521Y-67829640D01*
X59166780Y-68056545D01*
X59293258Y-68184370D01*
X59325000Y-68204088D01*
X59404112Y-68140925D01*
X59566426Y-67966580D01*
X59791889Y-67704076D01*
X60060443Y-67376438D01*
X60214000Y-67183482D01*
X61018334Y-66162591D01*
X61041218Y-67906962D01*
X61064103Y-69651333D01*
X62754000Y-69651333D01*
X62754000Y-63724667D01*
X61157042Y-63724667D01*
X60245981Y-64822250D01*
G37*
X60245981Y-64822250D02*
X59882209Y-65253033D01*
X59608888Y-65558464D01*
X59415453Y-65749091D01*
X59291340Y-65835465D01*
X59232157Y-65834547D01*
X59144611Y-65742009D01*
X58971207Y-65543291D01*
X58733240Y-65263326D01*
X58452010Y-64927051D01*
X58295863Y-64738357D01*
X57462334Y-63727455D01*
X55811334Y-63724667D01*
X55811334Y-69651333D01*
X57585898Y-69651333D01*
X57608783Y-67894571D01*
X57631667Y-66137809D01*
X58436000Y-67170807D01*
X58718316Y-67526709D01*
X58968521Y-67829640D01*
X59166780Y-68056545D01*
X59293258Y-68184370D01*
X59325000Y-68204088D01*
X59404112Y-68140925D01*
X59566426Y-67966580D01*
X59791889Y-67704076D01*
X60060443Y-67376438D01*
X60214000Y-67183482D01*
X61018334Y-66162591D01*
X61041218Y-67906962D01*
X61064103Y-69651333D01*
X62754000Y-69651333D01*
X62754000Y-63724667D01*
X61157042Y-63724667D01*
X60245981Y-64822250D01*
G36*
X53330999Y-63729485D02*
G01*
X52822381Y-63742865D01*
X52378337Y-63763195D01*
X52034887Y-63788862D01*
X51840455Y-63815429D01*
X51329807Y-64000072D01*
X50915498Y-64297921D01*
X50607178Y-64682327D01*
X50414495Y-65126639D01*
X50347101Y-65604206D01*
X50414643Y-66088377D01*
X50626772Y-66552502D01*
X50776734Y-66753302D01*
X51029721Y-67003493D01*
X51316965Y-67184828D01*
X51671509Y-67308698D01*
X52126397Y-67386493D01*
X52714672Y-67429603D01*
X52742167Y-67430797D01*
X53694667Y-67471308D01*
X53694667Y-69651333D01*
X55472667Y-69651333D01*
X55472667Y-66264667D01*
X53694667Y-66264667D01*
X53181101Y-66264667D01*
X52871659Y-66248886D01*
X52607695Y-66208126D01*
X52482601Y-66167325D01*
X52289316Y-66033783D01*
X52196744Y-65859663D01*
X52171980Y-65582673D01*
X52171964Y-65579289D01*
X52212845Y-65301774D01*
X52352032Y-65110814D01*
X52610177Y-64991957D01*
X53007932Y-64930747D01*
X53108220Y-64924028D01*
X53694667Y-64890891D01*
X53694667Y-66264667D01*
X55472667Y-66264667D01*
X55472667Y-63724667D01*
X53868168Y-63724667D01*
X53330999Y-63729485D01*
G37*
X53330999Y-63729485D02*
X52822381Y-63742865D01*
X52378337Y-63763195D01*
X52034887Y-63788862D01*
X51840455Y-63815429D01*
X51329807Y-64000072D01*
X50915498Y-64297921D01*
X50607178Y-64682327D01*
X50414495Y-65126639D01*
X50347101Y-65604206D01*
X50414643Y-66088377D01*
X50626772Y-66552502D01*
X50776734Y-66753302D01*
X51029721Y-67003493D01*
X51316965Y-67184828D01*
X51671509Y-67308698D01*
X52126397Y-67386493D01*
X52714672Y-67429603D01*
X52742167Y-67430797D01*
X53694667Y-67471308D01*
X53694667Y-69651333D01*
X55472667Y-69651333D01*
X55472667Y-66264667D01*
X53694667Y-66264667D01*
X53181101Y-66264667D01*
X52871659Y-66248886D01*
X52607695Y-66208126D01*
X52482601Y-66167325D01*
X52289316Y-66033783D01*
X52196744Y-65859663D01*
X52171980Y-65582673D01*
X52171964Y-65579289D01*
X52212845Y-65301774D01*
X52352032Y-65110814D01*
X52610177Y-64991957D01*
X53007932Y-64930747D01*
X53108220Y-64924028D01*
X53694667Y-64890891D01*
X53694667Y-66264667D01*
X55472667Y-66264667D01*
X55472667Y-63724667D01*
X53868168Y-63724667D01*
X53330999Y-63729485D01*
G36*
X67480190Y-59023833D02*
G01*
X67470175Y-59624313D01*
X67458972Y-60080575D01*
X67443971Y-60417726D01*
X67422563Y-60660876D01*
X67392140Y-60835132D01*
X67350091Y-60965604D01*
X67293809Y-61077399D01*
X67261166Y-61131486D01*
X66977191Y-61444595D01*
X66614025Y-61638648D01*
X66208984Y-61714674D01*
X65799383Y-61673700D01*
X65422539Y-61516755D01*
X65115768Y-61244866D01*
X65001942Y-61069242D01*
X64942677Y-60941923D01*
X64897761Y-60799144D01*
X64864723Y-60615051D01*
X64841091Y-60363792D01*
X64824396Y-60019513D01*
X64812166Y-59556362D01*
X64802415Y-58981500D01*
X64776496Y-57224667D01*
X63008000Y-57224667D01*
X63008000Y-59071966D01*
X63012018Y-59793156D01*
X63026823Y-60370089D01*
X63056542Y-60827712D01*
X63105302Y-61190971D01*
X63177230Y-61484810D01*
X63276455Y-61734177D01*
X63407103Y-61964017D01*
X63511596Y-62115817D01*
X63888032Y-62500818D01*
X64388461Y-62811242D01*
X64980749Y-63038071D01*
X65632762Y-63172285D01*
X66312365Y-63204866D01*
X66987424Y-63126795D01*
X67058742Y-63111355D01*
X67672773Y-62913484D01*
X68212036Y-62624693D01*
X68637670Y-62267311D01*
X68741997Y-62144104D01*
X68902853Y-61916229D01*
X69028202Y-61684290D01*
X69122300Y-61423669D01*
X69189406Y-61109748D01*
X69233776Y-60717910D01*
X69259669Y-60223537D01*
X69271343Y-59602011D01*
X69273334Y-59071966D01*
X69273334Y-57224667D01*
X67507380Y-57224667D01*
X67480190Y-59023833D01*
G37*
X67480190Y-59023833D02*
X67470175Y-59624313D01*
X67458972Y-60080575D01*
X67443971Y-60417726D01*
X67422563Y-60660876D01*
X67392140Y-60835132D01*
X67350091Y-60965604D01*
X67293809Y-61077399D01*
X67261166Y-61131486D01*
X66977191Y-61444595D01*
X66614025Y-61638648D01*
X66208984Y-61714674D01*
X65799383Y-61673700D01*
X65422539Y-61516755D01*
X65115768Y-61244866D01*
X65001942Y-61069242D01*
X64942677Y-60941923D01*
X64897761Y-60799144D01*
X64864723Y-60615051D01*
X64841091Y-60363792D01*
X64824396Y-60019513D01*
X64812166Y-59556362D01*
X64802415Y-58981500D01*
X64776496Y-57224667D01*
X63008000Y-57224667D01*
X63008000Y-59071966D01*
X63012018Y-59793156D01*
X63026823Y-60370089D01*
X63056542Y-60827712D01*
X63105302Y-61190971D01*
X63177230Y-61484810D01*
X63276455Y-61734177D01*
X63407103Y-61964017D01*
X63511596Y-62115817D01*
X63888032Y-62500818D01*
X64388461Y-62811242D01*
X64980749Y-63038071D01*
X65632762Y-63172285D01*
X66312365Y-63204866D01*
X66987424Y-63126795D01*
X67058742Y-63111355D01*
X67672773Y-62913484D01*
X68212036Y-62624693D01*
X68637670Y-62267311D01*
X68741997Y-62144104D01*
X68902853Y-61916229D01*
X69028202Y-61684290D01*
X69122300Y-61423669D01*
X69189406Y-61109748D01*
X69233776Y-60717910D01*
X69259669Y-60223537D01*
X69271343Y-59602011D01*
X69273334Y-59071966D01*
X69273334Y-57224667D01*
X67507380Y-57224667D01*
X67480190Y-59023833D01*
G36*
X72892834Y-57237669D02*
G01*
X72277628Y-57248021D01*
X71806066Y-57259205D01*
X71452471Y-57273904D01*
X71191163Y-57294799D01*
X70996465Y-57324574D01*
X70842697Y-57365910D01*
X70704181Y-57421491D01*
X70585790Y-57478667D01*
X70175970Y-57762052D01*
X69910153Y-58114799D01*
X69791606Y-58512099D01*
X69823600Y-58929140D01*
X70009404Y-59341115D01*
X70296470Y-59674056D01*
X70565130Y-59919439D01*
X70223568Y-60093691D01*
X69823462Y-60381396D01*
X69549004Y-60751791D01*
X69399773Y-61174513D01*
X69375349Y-61619200D01*
X69475309Y-62055490D01*
X69699234Y-62453022D01*
X70046702Y-62781434D01*
X70262581Y-62908243D01*
X70398169Y-62971355D01*
X70532391Y-63020094D01*
X70689310Y-63056697D01*
X70892994Y-63083397D01*
X71167505Y-63102430D01*
X71536910Y-63116030D01*
X72025274Y-63126433D01*
X72656662Y-63135872D01*
X72723500Y-63136780D01*
X74776667Y-63164560D01*
X74776667Y-60611333D01*
X72998667Y-60611333D01*
X72998667Y-62152710D01*
X72271668Y-62122853D01*
X71912732Y-62103984D01*
X71679254Y-62074816D01*
X71527373Y-62022755D01*
X71413232Y-61935209D01*
X71340335Y-61855444D01*
X71201935Y-61638027D01*
X71136741Y-61424352D01*
X71136000Y-61405379D01*
X71201063Y-61075206D01*
X71399385Y-60835486D01*
X71735670Y-60683271D01*
X72214620Y-60615610D01*
X72401796Y-60611333D01*
X72998667Y-60611333D01*
X74776667Y-60611333D01*
X74776667Y-58240667D01*
X72998667Y-58240667D01*
X72998667Y-59595333D01*
X72538512Y-59595333D01*
X72227672Y-59578564D01*
X71949238Y-59535847D01*
X71841735Y-59505370D01*
X71619628Y-59389019D01*
X71509546Y-59223536D01*
X71477485Y-58954120D01*
X71477260Y-58918000D01*
X71494542Y-58688705D01*
X71536608Y-58529089D01*
X71541187Y-58521130D01*
X71715507Y-58384988D01*
X72019759Y-58288849D01*
X72417162Y-58243058D01*
X72538512Y-58240667D01*
X72998667Y-58240667D01*
X74776667Y-58240667D01*
X74776667Y-57208337D01*
X72892834Y-57237669D01*
G37*
X72892834Y-57237669D02*
X72277628Y-57248021D01*
X71806066Y-57259205D01*
X71452471Y-57273904D01*
X71191163Y-57294799D01*
X70996465Y-57324574D01*
X70842697Y-57365910D01*
X70704181Y-57421491D01*
X70585790Y-57478667D01*
X70175970Y-57762052D01*
X69910153Y-58114799D01*
X69791606Y-58512099D01*
X69823600Y-58929140D01*
X70009404Y-59341115D01*
X70296470Y-59674056D01*
X70565130Y-59919439D01*
X70223568Y-60093691D01*
X69823462Y-60381396D01*
X69549004Y-60751791D01*
X69399773Y-61174513D01*
X69375349Y-61619200D01*
X69475309Y-62055490D01*
X69699234Y-62453022D01*
X70046702Y-62781434D01*
X70262581Y-62908243D01*
X70398169Y-62971355D01*
X70532391Y-63020094D01*
X70689310Y-63056697D01*
X70892994Y-63083397D01*
X71167505Y-63102430D01*
X71536910Y-63116030D01*
X72025274Y-63126433D01*
X72656662Y-63135872D01*
X72723500Y-63136780D01*
X74776667Y-63164560D01*
X74776667Y-60611333D01*
X72998667Y-60611333D01*
X72998667Y-62152710D01*
X72271668Y-62122853D01*
X71912732Y-62103984D01*
X71679254Y-62074816D01*
X71527373Y-62022755D01*
X71413232Y-61935209D01*
X71340335Y-61855444D01*
X71201935Y-61638027D01*
X71136741Y-61424352D01*
X71136000Y-61405379D01*
X71201063Y-61075206D01*
X71399385Y-60835486D01*
X71735670Y-60683271D01*
X72214620Y-60615610D01*
X72401796Y-60611333D01*
X72998667Y-60611333D01*
X74776667Y-60611333D01*
X74776667Y-58240667D01*
X72998667Y-58240667D01*
X72998667Y-59595333D01*
X72538512Y-59595333D01*
X72227672Y-59578564D01*
X71949238Y-59535847D01*
X71841735Y-59505370D01*
X71619628Y-59389019D01*
X71509546Y-59223536D01*
X71477485Y-58954120D01*
X71477260Y-58918000D01*
X71494542Y-58688705D01*
X71536608Y-58529089D01*
X71541187Y-58521130D01*
X71715507Y-58384988D01*
X72019759Y-58288849D01*
X72417162Y-58243058D01*
X72538512Y-58240667D01*
X72998667Y-58240667D01*
X74776667Y-58240667D01*
X74776667Y-57208337D01*
X72892834Y-57237669D01*
G36*
X60245981Y-58322250D02*
G01*
X59882209Y-58753033D01*
X59608888Y-59058464D01*
X59415453Y-59249091D01*
X59291340Y-59335465D01*
X59232157Y-59334547D01*
X59144611Y-59242009D01*
X58971207Y-59043291D01*
X58733240Y-58763326D01*
X58452010Y-58427051D01*
X58295863Y-58238357D01*
X57462334Y-57227455D01*
X55811334Y-57224667D01*
X55811334Y-63151333D01*
X57585898Y-63151333D01*
X57608783Y-61394571D01*
X57631667Y-59637809D01*
X58436000Y-60670807D01*
X58718316Y-61026709D01*
X58968521Y-61329640D01*
X59166780Y-61556545D01*
X59293258Y-61684370D01*
X59325000Y-61704088D01*
X59404112Y-61640925D01*
X59566426Y-61466580D01*
X59791889Y-61204076D01*
X60060443Y-60876438D01*
X60214000Y-60683482D01*
X61018334Y-59662591D01*
X61041218Y-61406962D01*
X61064103Y-63151333D01*
X62754000Y-63151333D01*
X62754000Y-57224667D01*
X61157042Y-57224667D01*
X60245981Y-58322250D01*
G37*
X60245981Y-58322250D02*
X59882209Y-58753033D01*
X59608888Y-59058464D01*
X59415453Y-59249091D01*
X59291340Y-59335465D01*
X59232157Y-59334547D01*
X59144611Y-59242009D01*
X58971207Y-59043291D01*
X58733240Y-58763326D01*
X58452010Y-58427051D01*
X58295863Y-58238357D01*
X57462334Y-57227455D01*
X55811334Y-57224667D01*
X55811334Y-63151333D01*
X57585898Y-63151333D01*
X57608783Y-61394571D01*
X57631667Y-59637809D01*
X58436000Y-60670807D01*
X58718316Y-61026709D01*
X58968521Y-61329640D01*
X59166780Y-61556545D01*
X59293258Y-61684370D01*
X59325000Y-61704088D01*
X59404112Y-61640925D01*
X59566426Y-61466580D01*
X59791889Y-61204076D01*
X60060443Y-60876438D01*
X60214000Y-60683482D01*
X61018334Y-59662591D01*
X61041218Y-61406962D01*
X61064103Y-63151333D01*
X62754000Y-63151333D01*
X62754000Y-57224667D01*
X61157042Y-57224667D01*
X60245981Y-58322250D01*
G36*
X53330999Y-57229485D02*
G01*
X52822381Y-57242865D01*
X52378337Y-57263195D01*
X52034887Y-57288862D01*
X51840455Y-57315429D01*
X51329807Y-57500072D01*
X50915498Y-57797921D01*
X50607178Y-58182327D01*
X50414495Y-58626639D01*
X50347101Y-59104206D01*
X50414643Y-59588377D01*
X50626772Y-60052502D01*
X50776734Y-60253302D01*
X51029721Y-60503493D01*
X51316965Y-60684828D01*
X51671509Y-60808698D01*
X52126397Y-60886493D01*
X52714672Y-60929603D01*
X52742167Y-60930797D01*
X53694667Y-60971308D01*
X53694667Y-63151333D01*
X55472667Y-63151333D01*
X55472667Y-59764667D01*
X53694667Y-59764667D01*
X53181101Y-59764667D01*
X52871659Y-59748886D01*
X52607695Y-59708126D01*
X52482601Y-59667325D01*
X52289316Y-59533783D01*
X52196744Y-59359663D01*
X52171980Y-59082673D01*
X52171964Y-59079289D01*
X52212845Y-58801774D01*
X52352032Y-58610814D01*
X52610177Y-58491957D01*
X53007932Y-58430747D01*
X53108220Y-58424028D01*
X53694667Y-58390891D01*
X53694667Y-59764667D01*
X55472667Y-59764667D01*
X55472667Y-57224667D01*
X53868168Y-57224667D01*
X53330999Y-57229485D01*
G37*
X53330999Y-57229485D02*
X52822381Y-57242865D01*
X52378337Y-57263195D01*
X52034887Y-57288862D01*
X51840455Y-57315429D01*
X51329807Y-57500072D01*
X50915498Y-57797921D01*
X50607178Y-58182327D01*
X50414495Y-58626639D01*
X50347101Y-59104206D01*
X50414643Y-59588377D01*
X50626772Y-60052502D01*
X50776734Y-60253302D01*
X51029721Y-60503493D01*
X51316965Y-60684828D01*
X51671509Y-60808698D01*
X52126397Y-60886493D01*
X52714672Y-60929603D01*
X52742167Y-60930797D01*
X53694667Y-60971308D01*
X53694667Y-63151333D01*
X55472667Y-63151333D01*
X55472667Y-59764667D01*
X53694667Y-59764667D01*
X53181101Y-59764667D01*
X52871659Y-59748886D01*
X52607695Y-59708126D01*
X52482601Y-59667325D01*
X52289316Y-59533783D01*
X52196744Y-59359663D01*
X52171980Y-59082673D01*
X52171964Y-59079289D01*
X52212845Y-58801774D01*
X52352032Y-58610814D01*
X52610177Y-58491957D01*
X53007932Y-58430747D01*
X53108220Y-58424028D01*
X53694667Y-58390891D01*
X53694667Y-59764667D01*
X55472667Y-59764667D01*
X55472667Y-57224667D01*
X53868168Y-57224667D01*
X53330999Y-57229485D01*
G36*
X67480190Y-52523833D02*
G01*
X67470175Y-53124313D01*
X67458972Y-53580575D01*
X67443971Y-53917726D01*
X67422563Y-54160876D01*
X67392140Y-54335132D01*
X67350091Y-54465604D01*
X67293809Y-54577399D01*
X67261166Y-54631486D01*
X66977191Y-54944595D01*
X66614025Y-55138648D01*
X66208984Y-55214674D01*
X65799383Y-55173700D01*
X65422539Y-55016755D01*
X65115768Y-54744866D01*
X65001942Y-54569242D01*
X64942677Y-54441923D01*
X64897761Y-54299144D01*
X64864723Y-54115051D01*
X64841091Y-53863792D01*
X64824396Y-53519513D01*
X64812166Y-53056362D01*
X64802415Y-52481500D01*
X64776496Y-50724667D01*
X63008000Y-50724667D01*
X63008000Y-52571966D01*
X63012018Y-53293156D01*
X63026823Y-53870089D01*
X63056542Y-54327712D01*
X63105302Y-54690971D01*
X63177230Y-54984810D01*
X63276455Y-55234177D01*
X63407103Y-55464017D01*
X63511596Y-55615817D01*
X63888032Y-56000818D01*
X64388461Y-56311242D01*
X64980749Y-56538071D01*
X65632762Y-56672285D01*
X66312365Y-56704866D01*
X66987424Y-56626795D01*
X67058742Y-56611355D01*
X67672773Y-56413484D01*
X68212036Y-56124693D01*
X68637670Y-55767311D01*
X68741997Y-55644104D01*
X68902853Y-55416229D01*
X69028202Y-55184290D01*
X69122300Y-54923669D01*
X69189406Y-54609748D01*
X69233776Y-54217910D01*
X69259669Y-53723537D01*
X69271343Y-53102011D01*
X69273334Y-52571966D01*
X69273334Y-50724667D01*
X67507380Y-50724667D01*
X67480190Y-52523833D01*
G37*
X67480190Y-52523833D02*
X67470175Y-53124313D01*
X67458972Y-53580575D01*
X67443971Y-53917726D01*
X67422563Y-54160876D01*
X67392140Y-54335132D01*
X67350091Y-54465604D01*
X67293809Y-54577399D01*
X67261166Y-54631486D01*
X66977191Y-54944595D01*
X66614025Y-55138648D01*
X66208984Y-55214674D01*
X65799383Y-55173700D01*
X65422539Y-55016755D01*
X65115768Y-54744866D01*
X65001942Y-54569242D01*
X64942677Y-54441923D01*
X64897761Y-54299144D01*
X64864723Y-54115051D01*
X64841091Y-53863792D01*
X64824396Y-53519513D01*
X64812166Y-53056362D01*
X64802415Y-52481500D01*
X64776496Y-50724667D01*
X63008000Y-50724667D01*
X63008000Y-52571966D01*
X63012018Y-53293156D01*
X63026823Y-53870089D01*
X63056542Y-54327712D01*
X63105302Y-54690971D01*
X63177230Y-54984810D01*
X63276455Y-55234177D01*
X63407103Y-55464017D01*
X63511596Y-55615817D01*
X63888032Y-56000818D01*
X64388461Y-56311242D01*
X64980749Y-56538071D01*
X65632762Y-56672285D01*
X66312365Y-56704866D01*
X66987424Y-56626795D01*
X67058742Y-56611355D01*
X67672773Y-56413484D01*
X68212036Y-56124693D01*
X68637670Y-55767311D01*
X68741997Y-55644104D01*
X68902853Y-55416229D01*
X69028202Y-55184290D01*
X69122300Y-54923669D01*
X69189406Y-54609748D01*
X69233776Y-54217910D01*
X69259669Y-53723537D01*
X69271343Y-53102011D01*
X69273334Y-52571966D01*
X69273334Y-50724667D01*
X67507380Y-50724667D01*
X67480190Y-52523833D01*
G36*
X72892834Y-50737669D02*
G01*
X72277628Y-50748021D01*
X71806066Y-50759205D01*
X71452471Y-50773904D01*
X71191163Y-50794799D01*
X70996465Y-50824574D01*
X70842697Y-50865910D01*
X70704181Y-50921491D01*
X70585790Y-50978667D01*
X70175970Y-51262052D01*
X69910153Y-51614799D01*
X69791606Y-52012099D01*
X69823600Y-52429140D01*
X70009404Y-52841115D01*
X70296470Y-53174056D01*
X70565130Y-53419439D01*
X70223568Y-53593691D01*
X69823462Y-53881396D01*
X69549004Y-54251791D01*
X69399773Y-54674513D01*
X69375349Y-55119200D01*
X69475309Y-55555490D01*
X69699234Y-55953022D01*
X70046702Y-56281434D01*
X70262581Y-56408243D01*
X70398169Y-56471355D01*
X70532391Y-56520094D01*
X70689310Y-56556697D01*
X70892994Y-56583397D01*
X71167505Y-56602430D01*
X71536910Y-56616030D01*
X72025274Y-56626433D01*
X72656662Y-56635872D01*
X72723500Y-56636780D01*
X74776667Y-56664560D01*
X74776667Y-54111333D01*
X72998667Y-54111333D01*
X72998667Y-55652710D01*
X72271668Y-55622853D01*
X71912732Y-55603984D01*
X71679254Y-55574816D01*
X71527373Y-55522755D01*
X71413232Y-55435209D01*
X71340335Y-55355444D01*
X71201935Y-55138027D01*
X71136741Y-54924352D01*
X71136000Y-54905379D01*
X71201063Y-54575206D01*
X71399385Y-54335486D01*
X71735670Y-54183271D01*
X72214620Y-54115610D01*
X72401796Y-54111333D01*
X72998667Y-54111333D01*
X74776667Y-54111333D01*
X74776667Y-51740667D01*
X72998667Y-51740667D01*
X72998667Y-53095333D01*
X72538512Y-53095333D01*
X72227672Y-53078564D01*
X71949238Y-53035847D01*
X71841735Y-53005370D01*
X71619628Y-52889019D01*
X71509546Y-52723536D01*
X71477485Y-52454120D01*
X71477260Y-52418000D01*
X71494542Y-52188705D01*
X71536608Y-52029089D01*
X71541187Y-52021130D01*
X71715507Y-51884988D01*
X72019759Y-51788849D01*
X72417162Y-51743058D01*
X72538512Y-51740667D01*
X72998667Y-51740667D01*
X74776667Y-51740667D01*
X74776667Y-50708337D01*
X72892834Y-50737669D01*
G37*
X72892834Y-50737669D02*
X72277628Y-50748021D01*
X71806066Y-50759205D01*
X71452471Y-50773904D01*
X71191163Y-50794799D01*
X70996465Y-50824574D01*
X70842697Y-50865910D01*
X70704181Y-50921491D01*
X70585790Y-50978667D01*
X70175970Y-51262052D01*
X69910153Y-51614799D01*
X69791606Y-52012099D01*
X69823600Y-52429140D01*
X70009404Y-52841115D01*
X70296470Y-53174056D01*
X70565130Y-53419439D01*
X70223568Y-53593691D01*
X69823462Y-53881396D01*
X69549004Y-54251791D01*
X69399773Y-54674513D01*
X69375349Y-55119200D01*
X69475309Y-55555490D01*
X69699234Y-55953022D01*
X70046702Y-56281434D01*
X70262581Y-56408243D01*
X70398169Y-56471355D01*
X70532391Y-56520094D01*
X70689310Y-56556697D01*
X70892994Y-56583397D01*
X71167505Y-56602430D01*
X71536910Y-56616030D01*
X72025274Y-56626433D01*
X72656662Y-56635872D01*
X72723500Y-56636780D01*
X74776667Y-56664560D01*
X74776667Y-54111333D01*
X72998667Y-54111333D01*
X72998667Y-55652710D01*
X72271668Y-55622853D01*
X71912732Y-55603984D01*
X71679254Y-55574816D01*
X71527373Y-55522755D01*
X71413232Y-55435209D01*
X71340335Y-55355444D01*
X71201935Y-55138027D01*
X71136741Y-54924352D01*
X71136000Y-54905379D01*
X71201063Y-54575206D01*
X71399385Y-54335486D01*
X71735670Y-54183271D01*
X72214620Y-54115610D01*
X72401796Y-54111333D01*
X72998667Y-54111333D01*
X74776667Y-54111333D01*
X74776667Y-51740667D01*
X72998667Y-51740667D01*
X72998667Y-53095333D01*
X72538512Y-53095333D01*
X72227672Y-53078564D01*
X71949238Y-53035847D01*
X71841735Y-53005370D01*
X71619628Y-52889019D01*
X71509546Y-52723536D01*
X71477485Y-52454120D01*
X71477260Y-52418000D01*
X71494542Y-52188705D01*
X71536608Y-52029089D01*
X71541187Y-52021130D01*
X71715507Y-51884988D01*
X72019759Y-51788849D01*
X72417162Y-51743058D01*
X72538512Y-51740667D01*
X72998667Y-51740667D01*
X74776667Y-51740667D01*
X74776667Y-50708337D01*
X72892834Y-50737669D01*
G36*
X60245981Y-51822250D02*
G01*
X59882209Y-52253033D01*
X59608888Y-52558464D01*
X59415453Y-52749091D01*
X59291340Y-52835465D01*
X59232157Y-52834547D01*
X59144611Y-52742009D01*
X58971207Y-52543291D01*
X58733240Y-52263326D01*
X58452010Y-51927051D01*
X58295863Y-51738357D01*
X57462334Y-50727455D01*
X55811334Y-50724667D01*
X55811334Y-56651333D01*
X57585898Y-56651333D01*
X57608783Y-54894571D01*
X57631667Y-53137809D01*
X58436000Y-54170807D01*
X58718316Y-54526709D01*
X58968521Y-54829640D01*
X59166780Y-55056545D01*
X59293258Y-55184370D01*
X59325000Y-55204088D01*
X59404112Y-55140925D01*
X59566426Y-54966580D01*
X59791889Y-54704076D01*
X60060443Y-54376438D01*
X60214000Y-54183482D01*
X61018334Y-53162591D01*
X61041218Y-54906962D01*
X61064103Y-56651333D01*
X62754000Y-56651333D01*
X62754000Y-50724667D01*
X61157042Y-50724667D01*
X60245981Y-51822250D01*
G37*
X60245981Y-51822250D02*
X59882209Y-52253033D01*
X59608888Y-52558464D01*
X59415453Y-52749091D01*
X59291340Y-52835465D01*
X59232157Y-52834547D01*
X59144611Y-52742009D01*
X58971207Y-52543291D01*
X58733240Y-52263326D01*
X58452010Y-51927051D01*
X58295863Y-51738357D01*
X57462334Y-50727455D01*
X55811334Y-50724667D01*
X55811334Y-56651333D01*
X57585898Y-56651333D01*
X57608783Y-54894571D01*
X57631667Y-53137809D01*
X58436000Y-54170807D01*
X58718316Y-54526709D01*
X58968521Y-54829640D01*
X59166780Y-55056545D01*
X59293258Y-55184370D01*
X59325000Y-55204088D01*
X59404112Y-55140925D01*
X59566426Y-54966580D01*
X59791889Y-54704076D01*
X60060443Y-54376438D01*
X60214000Y-54183482D01*
X61018334Y-53162591D01*
X61041218Y-54906962D01*
X61064103Y-56651333D01*
X62754000Y-56651333D01*
X62754000Y-50724667D01*
X61157042Y-50724667D01*
X60245981Y-51822250D01*
G36*
X53330999Y-50729485D02*
G01*
X52822381Y-50742865D01*
X52378337Y-50763195D01*
X52034887Y-50788862D01*
X51840455Y-50815429D01*
X51329807Y-51000072D01*
X50915498Y-51297921D01*
X50607178Y-51682327D01*
X50414495Y-52126639D01*
X50347101Y-52604206D01*
X50414643Y-53088377D01*
X50626772Y-53552502D01*
X50776734Y-53753302D01*
X51029721Y-54003493D01*
X51316965Y-54184828D01*
X51671509Y-54308698D01*
X52126397Y-54386493D01*
X52714672Y-54429603D01*
X52742167Y-54430797D01*
X53694667Y-54471308D01*
X53694667Y-56651333D01*
X55472667Y-56651333D01*
X55472667Y-53264667D01*
X53694667Y-53264667D01*
X53181101Y-53264667D01*
X52871659Y-53248886D01*
X52607695Y-53208126D01*
X52482601Y-53167325D01*
X52289316Y-53033783D01*
X52196744Y-52859663D01*
X52171980Y-52582673D01*
X52171964Y-52579289D01*
X52212845Y-52301774D01*
X52352032Y-52110814D01*
X52610177Y-51991957D01*
X53007932Y-51930747D01*
X53108220Y-51924028D01*
X53694667Y-51890891D01*
X53694667Y-53264667D01*
X55472667Y-53264667D01*
X55472667Y-50724667D01*
X53868168Y-50724667D01*
X53330999Y-50729485D01*
G37*
X53330999Y-50729485D02*
X52822381Y-50742865D01*
X52378337Y-50763195D01*
X52034887Y-50788862D01*
X51840455Y-50815429D01*
X51329807Y-51000072D01*
X50915498Y-51297921D01*
X50607178Y-51682327D01*
X50414495Y-52126639D01*
X50347101Y-52604206D01*
X50414643Y-53088377D01*
X50626772Y-53552502D01*
X50776734Y-53753302D01*
X51029721Y-54003493D01*
X51316965Y-54184828D01*
X51671509Y-54308698D01*
X52126397Y-54386493D01*
X52714672Y-54429603D01*
X52742167Y-54430797D01*
X53694667Y-54471308D01*
X53694667Y-56651333D01*
X55472667Y-56651333D01*
X55472667Y-53264667D01*
X53694667Y-53264667D01*
X53181101Y-53264667D01*
X52871659Y-53248886D01*
X52607695Y-53208126D01*
X52482601Y-53167325D01*
X52289316Y-53033783D01*
X52196744Y-52859663D01*
X52171980Y-52582673D01*
X52171964Y-52579289D01*
X52212845Y-52301774D01*
X52352032Y-52110814D01*
X52610177Y-51991957D01*
X53007932Y-51930747D01*
X53108220Y-51924028D01*
X53694667Y-51890891D01*
X53694667Y-53264667D01*
X55472667Y-53264667D01*
X55472667Y-50724667D01*
X53868168Y-50724667D01*
X53330999Y-50729485D01*
D12*
%TO.C,INPUT1*%
X59380000Y-117470000D02*
X59380000Y-123490000D01*
X59380000Y-123490000D02*
X54080000Y-123490000D01*
X54080000Y-123490000D02*
X54080000Y-117470000D01*
X54080000Y-117470000D02*
X59380000Y-117470000D01*
X59670000Y-118500000D02*
X59670000Y-122500000D01*
X58000000Y-123490000D02*
X58000000Y-122490000D01*
X58000000Y-122490000D02*
X55460000Y-122490000D01*
X55460000Y-122490000D02*
X55460000Y-123490000D01*
X58000000Y-122490000D02*
X57750000Y-121960000D01*
X57750000Y-121960000D02*
X55710000Y-121960000D01*
X55710000Y-121960000D02*
X55460000Y-122490000D01*
X57750000Y-123490000D02*
X57750000Y-122490000D01*
X55710000Y-123490000D02*
X55710000Y-122490000D01*
X58800000Y-117470000D02*
X58800000Y-118070000D01*
X58800000Y-118070000D02*
X57200000Y-118070000D01*
X57200000Y-118070000D02*
X57200000Y-117470000D01*
X56260000Y-117470000D02*
X56260000Y-118070000D01*
X56260000Y-118070000D02*
X54660000Y-118070000D01*
X54660000Y-118070000D02*
X54660000Y-117470000D01*
%TO.C,OUTPUT1*%
X66160000Y-129570000D02*
X66160000Y-128970000D01*
X67760000Y-129570000D02*
X66160000Y-129570000D01*
X67760000Y-128970000D02*
X67760000Y-129570000D01*
X68700000Y-129570000D02*
X68700000Y-128970000D01*
X70300000Y-129570000D02*
X68700000Y-129570000D01*
X70300000Y-128970000D02*
X70300000Y-129570000D01*
X67210000Y-134990000D02*
X67210000Y-133990000D01*
X69250000Y-134990000D02*
X69250000Y-133990000D01*
X67210000Y-133460000D02*
X66960000Y-133990000D01*
X69250000Y-133460000D02*
X67210000Y-133460000D01*
X69500000Y-133990000D02*
X69250000Y-133460000D01*
X66960000Y-133990000D02*
X66960000Y-134990000D01*
X69500000Y-133990000D02*
X66960000Y-133990000D01*
X69500000Y-134990000D02*
X69500000Y-133990000D01*
X71170000Y-130000000D02*
X71170000Y-134000000D01*
X65580000Y-128970000D02*
X70880000Y-128970000D01*
X65580000Y-134990000D02*
X65580000Y-128970000D01*
X70880000Y-134990000D02*
X65580000Y-134990000D01*
X70880000Y-128970000D02*
X70880000Y-134990000D01*
%TO.C,OUTPUT2*%
X59380000Y-128970000D02*
X59380000Y-134990000D01*
X59380000Y-134990000D02*
X54080000Y-134990000D01*
X54080000Y-134990000D02*
X54080000Y-128970000D01*
X54080000Y-128970000D02*
X59380000Y-128970000D01*
X59670000Y-130000000D02*
X59670000Y-134000000D01*
X58000000Y-134990000D02*
X58000000Y-133990000D01*
X58000000Y-133990000D02*
X55460000Y-133990000D01*
X55460000Y-133990000D02*
X55460000Y-134990000D01*
X58000000Y-133990000D02*
X57750000Y-133460000D01*
X57750000Y-133460000D02*
X55710000Y-133460000D01*
X55710000Y-133460000D02*
X55460000Y-133990000D01*
X57750000Y-134990000D02*
X57750000Y-133990000D01*
X55710000Y-134990000D02*
X55710000Y-133990000D01*
X58800000Y-128970000D02*
X58800000Y-129570000D01*
X58800000Y-129570000D02*
X57200000Y-129570000D01*
X57200000Y-129570000D02*
X57200000Y-128970000D01*
X56260000Y-128970000D02*
X56260000Y-129570000D01*
X56260000Y-129570000D02*
X54660000Y-129570000D01*
X54660000Y-129570000D02*
X54660000Y-128970000D01*
%TO.C,OUTPUT3*%
X66160000Y-141070000D02*
X66160000Y-140470000D01*
X67760000Y-141070000D02*
X66160000Y-141070000D01*
X67760000Y-140470000D02*
X67760000Y-141070000D01*
X68700000Y-141070000D02*
X68700000Y-140470000D01*
X70300000Y-141070000D02*
X68700000Y-141070000D01*
X70300000Y-140470000D02*
X70300000Y-141070000D01*
X67210000Y-146490000D02*
X67210000Y-145490000D01*
X69250000Y-146490000D02*
X69250000Y-145490000D01*
X67210000Y-144960000D02*
X66960000Y-145490000D01*
X69250000Y-144960000D02*
X67210000Y-144960000D01*
X69500000Y-145490000D02*
X69250000Y-144960000D01*
X66960000Y-145490000D02*
X66960000Y-146490000D01*
X69500000Y-145490000D02*
X66960000Y-145490000D01*
X69500000Y-146490000D02*
X69500000Y-145490000D01*
X71170000Y-141500000D02*
X71170000Y-145500000D01*
X65580000Y-140470000D02*
X70880000Y-140470000D01*
X65580000Y-146490000D02*
X65580000Y-140470000D01*
X70880000Y-146490000D02*
X65580000Y-146490000D01*
X70880000Y-140470000D02*
X70880000Y-146490000D01*
%TO.C,OUTPUT4*%
X59380000Y-140470000D02*
X59380000Y-146490000D01*
X59380000Y-146490000D02*
X54080000Y-146490000D01*
X54080000Y-146490000D02*
X54080000Y-140470000D01*
X54080000Y-140470000D02*
X59380000Y-140470000D01*
X59670000Y-141500000D02*
X59670000Y-145500000D01*
X58000000Y-146490000D02*
X58000000Y-145490000D01*
X58000000Y-145490000D02*
X55460000Y-145490000D01*
X55460000Y-145490000D02*
X55460000Y-146490000D01*
X58000000Y-145490000D02*
X57750000Y-144960000D01*
X57750000Y-144960000D02*
X55710000Y-144960000D01*
X55710000Y-144960000D02*
X55460000Y-145490000D01*
X57750000Y-146490000D02*
X57750000Y-145490000D01*
X55710000Y-146490000D02*
X55710000Y-145490000D01*
X58800000Y-140470000D02*
X58800000Y-141070000D01*
X58800000Y-141070000D02*
X57200000Y-141070000D01*
X57200000Y-141070000D02*
X57200000Y-140470000D01*
X56260000Y-140470000D02*
X56260000Y-141070000D01*
X56260000Y-141070000D02*
X54660000Y-141070000D01*
X54660000Y-141070000D02*
X54660000Y-140470000D01*
%TO.C,INPUT1*%
D13*
X58533571Y-116719285D02*
X58533571Y-115969285D01*
X58176428Y-116719285D02*
X58176428Y-115969285D01*
X57747857Y-116719285D01*
X57747857Y-115969285D01*
X57390714Y-116719285D02*
X57390714Y-115969285D01*
X57105000Y-115969285D01*
X57033571Y-116005000D01*
X56997857Y-116040714D01*
X56962142Y-116112142D01*
X56962142Y-116219285D01*
X56997857Y-116290714D01*
X57033571Y-116326428D01*
X57105000Y-116362142D01*
X57390714Y-116362142D01*
X56640714Y-115969285D02*
X56640714Y-116576428D01*
X56605000Y-116647857D01*
X56569285Y-116683571D01*
X56497857Y-116719285D01*
X56355000Y-116719285D01*
X56283571Y-116683571D01*
X56247857Y-116647857D01*
X56212142Y-116576428D01*
X56212142Y-115969285D01*
X55962142Y-115969285D02*
X55533571Y-115969285D01*
X55747857Y-116719285D02*
X55747857Y-115969285D01*
X54890714Y-116719285D02*
X55319285Y-116719285D01*
X55105000Y-116719285D02*
X55105000Y-115969285D01*
X55176428Y-116076428D01*
X55247857Y-116147857D01*
X55319285Y-116183571D01*
%TO.C,OUTPUT1*%
X70660714Y-127589285D02*
X70517857Y-127589285D01*
X70446428Y-127625000D01*
X70375000Y-127696428D01*
X70339285Y-127839285D01*
X70339285Y-128089285D01*
X70375000Y-128232142D01*
X70446428Y-128303571D01*
X70517857Y-128339285D01*
X70660714Y-128339285D01*
X70732142Y-128303571D01*
X70803571Y-128232142D01*
X70839285Y-128089285D01*
X70839285Y-127839285D01*
X70803571Y-127696428D01*
X70732142Y-127625000D01*
X70660714Y-127589285D01*
X70017857Y-127589285D02*
X70017857Y-128196428D01*
X69982142Y-128267857D01*
X69946428Y-128303571D01*
X69875000Y-128339285D01*
X69732142Y-128339285D01*
X69660714Y-128303571D01*
X69625000Y-128267857D01*
X69589285Y-128196428D01*
X69589285Y-127589285D01*
X69339285Y-127589285D02*
X68910714Y-127589285D01*
X69125000Y-128339285D02*
X69125000Y-127589285D01*
X68660714Y-128339285D02*
X68660714Y-127589285D01*
X68375000Y-127589285D01*
X68303571Y-127625000D01*
X68267857Y-127660714D01*
X68232142Y-127732142D01*
X68232142Y-127839285D01*
X68267857Y-127910714D01*
X68303571Y-127946428D01*
X68375000Y-127982142D01*
X68660714Y-127982142D01*
X67910714Y-127589285D02*
X67910714Y-128196428D01*
X67875000Y-128267857D01*
X67839285Y-128303571D01*
X67767857Y-128339285D01*
X67625000Y-128339285D01*
X67553571Y-128303571D01*
X67517857Y-128267857D01*
X67482142Y-128196428D01*
X67482142Y-127589285D01*
X67232142Y-127589285D02*
X66803571Y-127589285D01*
X67017857Y-128339285D02*
X67017857Y-127589285D01*
X66160714Y-128339285D02*
X66589285Y-128339285D01*
X66375000Y-128339285D02*
X66375000Y-127589285D01*
X66446428Y-127696428D01*
X66517857Y-127767857D01*
X66589285Y-127803571D01*
%TO.C,OUTPUT2*%
X58890714Y-127469285D02*
X58747857Y-127469285D01*
X58676428Y-127505000D01*
X58605000Y-127576428D01*
X58569285Y-127719285D01*
X58569285Y-127969285D01*
X58605000Y-128112142D01*
X58676428Y-128183571D01*
X58747857Y-128219285D01*
X58890714Y-128219285D01*
X58962142Y-128183571D01*
X59033571Y-128112142D01*
X59069285Y-127969285D01*
X59069285Y-127719285D01*
X59033571Y-127576428D01*
X58962142Y-127505000D01*
X58890714Y-127469285D01*
X58247857Y-127469285D02*
X58247857Y-128076428D01*
X58212142Y-128147857D01*
X58176428Y-128183571D01*
X58105000Y-128219285D01*
X57962142Y-128219285D01*
X57890714Y-128183571D01*
X57855000Y-128147857D01*
X57819285Y-128076428D01*
X57819285Y-127469285D01*
X57569285Y-127469285D02*
X57140714Y-127469285D01*
X57355000Y-128219285D02*
X57355000Y-127469285D01*
X56890714Y-128219285D02*
X56890714Y-127469285D01*
X56605000Y-127469285D01*
X56533571Y-127505000D01*
X56497857Y-127540714D01*
X56462142Y-127612142D01*
X56462142Y-127719285D01*
X56497857Y-127790714D01*
X56533571Y-127826428D01*
X56605000Y-127862142D01*
X56890714Y-127862142D01*
X56140714Y-127469285D02*
X56140714Y-128076428D01*
X56105000Y-128147857D01*
X56069285Y-128183571D01*
X55997857Y-128219285D01*
X55855000Y-128219285D01*
X55783571Y-128183571D01*
X55747857Y-128147857D01*
X55712142Y-128076428D01*
X55712142Y-127469285D01*
X55462142Y-127469285D02*
X55033571Y-127469285D01*
X55247857Y-128219285D02*
X55247857Y-127469285D01*
X54819285Y-127540714D02*
X54783571Y-127505000D01*
X54712142Y-127469285D01*
X54533571Y-127469285D01*
X54462142Y-127505000D01*
X54426428Y-127540714D01*
X54390714Y-127612142D01*
X54390714Y-127683571D01*
X54426428Y-127790714D01*
X54855000Y-128219285D01*
X54390714Y-128219285D01*
%TO.C,OUTPUT3*%
X70390714Y-138969285D02*
X70247857Y-138969285D01*
X70176428Y-139005000D01*
X70105000Y-139076428D01*
X70069285Y-139219285D01*
X70069285Y-139469285D01*
X70105000Y-139612142D01*
X70176428Y-139683571D01*
X70247857Y-139719285D01*
X70390714Y-139719285D01*
X70462142Y-139683571D01*
X70533571Y-139612142D01*
X70569285Y-139469285D01*
X70569285Y-139219285D01*
X70533571Y-139076428D01*
X70462142Y-139005000D01*
X70390714Y-138969285D01*
X69747857Y-138969285D02*
X69747857Y-139576428D01*
X69712142Y-139647857D01*
X69676428Y-139683571D01*
X69605000Y-139719285D01*
X69462142Y-139719285D01*
X69390714Y-139683571D01*
X69355000Y-139647857D01*
X69319285Y-139576428D01*
X69319285Y-138969285D01*
X69069285Y-138969285D02*
X68640714Y-138969285D01*
X68855000Y-139719285D02*
X68855000Y-138969285D01*
X68390714Y-139719285D02*
X68390714Y-138969285D01*
X68105000Y-138969285D01*
X68033571Y-139005000D01*
X67997857Y-139040714D01*
X67962142Y-139112142D01*
X67962142Y-139219285D01*
X67997857Y-139290714D01*
X68033571Y-139326428D01*
X68105000Y-139362142D01*
X68390714Y-139362142D01*
X67640714Y-138969285D02*
X67640714Y-139576428D01*
X67605000Y-139647857D01*
X67569285Y-139683571D01*
X67497857Y-139719285D01*
X67355000Y-139719285D01*
X67283571Y-139683571D01*
X67247857Y-139647857D01*
X67212142Y-139576428D01*
X67212142Y-138969285D01*
X66962142Y-138969285D02*
X66533571Y-138969285D01*
X66747857Y-139719285D02*
X66747857Y-138969285D01*
X66355000Y-138969285D02*
X65890714Y-138969285D01*
X66140714Y-139255000D01*
X66033571Y-139255000D01*
X65962142Y-139290714D01*
X65926428Y-139326428D01*
X65890714Y-139397857D01*
X65890714Y-139576428D01*
X65926428Y-139647857D01*
X65962142Y-139683571D01*
X66033571Y-139719285D01*
X66247857Y-139719285D01*
X66319285Y-139683571D01*
X66355000Y-139647857D01*
%TO.C,OUTPUT4*%
X58890714Y-138969285D02*
X58747857Y-138969285D01*
X58676428Y-139005000D01*
X58605000Y-139076428D01*
X58569285Y-139219285D01*
X58569285Y-139469285D01*
X58605000Y-139612142D01*
X58676428Y-139683571D01*
X58747857Y-139719285D01*
X58890714Y-139719285D01*
X58962142Y-139683571D01*
X59033571Y-139612142D01*
X59069285Y-139469285D01*
X59069285Y-139219285D01*
X59033571Y-139076428D01*
X58962142Y-139005000D01*
X58890714Y-138969285D01*
X58247857Y-138969285D02*
X58247857Y-139576428D01*
X58212142Y-139647857D01*
X58176428Y-139683571D01*
X58105000Y-139719285D01*
X57962142Y-139719285D01*
X57890714Y-139683571D01*
X57855000Y-139647857D01*
X57819285Y-139576428D01*
X57819285Y-138969285D01*
X57569285Y-138969285D02*
X57140714Y-138969285D01*
X57355000Y-139719285D02*
X57355000Y-138969285D01*
X56890714Y-139719285D02*
X56890714Y-138969285D01*
X56605000Y-138969285D01*
X56533571Y-139005000D01*
X56497857Y-139040714D01*
X56462142Y-139112142D01*
X56462142Y-139219285D01*
X56497857Y-139290714D01*
X56533571Y-139326428D01*
X56605000Y-139362142D01*
X56890714Y-139362142D01*
X56140714Y-138969285D02*
X56140714Y-139576428D01*
X56105000Y-139647857D01*
X56069285Y-139683571D01*
X55997857Y-139719285D01*
X55855000Y-139719285D01*
X55783571Y-139683571D01*
X55747857Y-139647857D01*
X55712142Y-139576428D01*
X55712142Y-138969285D01*
X55462142Y-138969285D02*
X55033571Y-138969285D01*
X55247857Y-139719285D02*
X55247857Y-138969285D01*
X54462142Y-139219285D02*
X54462142Y-139719285D01*
X54640714Y-138933571D02*
X54819285Y-139469285D01*
X54355000Y-139469285D01*
%TD*%
%LPC*%
D14*
%TO.C,C1*%
X67500000Y-66000000D03*
D15*
X65500000Y-66000000D03*
%TD*%
%TO.C,C2*%
X58000000Y-66000000D03*
D14*
X60000000Y-66000000D03*
%TD*%
%TO.C,C3*%
X53000000Y-71500000D03*
X55500000Y-71500000D03*
%TD*%
%TO.C,C4*%
X70500000Y-71500000D03*
X68000000Y-71500000D03*
%TD*%
D16*
%TO.C,H1*%
X53000000Y-77000000D03*
%TD*%
%TO.C,INPUT1*%
G36*
G01*
X58870000Y-119649999D02*
X58870000Y-121350001D01*
G75*
G02*
X58620001Y-121600000I-249999J0D01*
G01*
X57379999Y-121600000D01*
G75*
G02*
X57130000Y-121350001I0J249999D01*
G01*
X57130000Y-119649999D01*
G75*
G02*
X57379999Y-119400000I249999J0D01*
G01*
X58620001Y-119400000D01*
G75*
G02*
X58870000Y-119649999I0J-249999D01*
G01*
G37*
D17*
X55460000Y-120500000D03*
%TD*%
D18*
%TO.C,J1*%
X57500000Y-58000000D03*
D19*
X57500000Y-55460000D03*
X60040000Y-58000000D03*
X60040000Y-55460000D03*
X62580000Y-58000000D03*
X62580000Y-55460000D03*
X65120000Y-58000000D03*
X65120000Y-55460000D03*
X67660000Y-58000000D03*
X67660000Y-55460000D03*
%TD*%
D17*
%TO.C,OUTPUT1*%
X66960000Y-132000000D03*
G36*
G01*
X70370000Y-131149999D02*
X70370000Y-132850001D01*
G75*
G02*
X70120001Y-133100000I-249999J0D01*
G01*
X68879999Y-133100000D01*
G75*
G02*
X68630000Y-132850001I0J249999D01*
G01*
X68630000Y-131149999D01*
G75*
G02*
X68879999Y-130900000I249999J0D01*
G01*
X70120001Y-130900000D01*
G75*
G02*
X70370000Y-131149999I0J-249999D01*
G01*
G37*
%TD*%
%TO.C,OUTPUT2*%
G36*
G01*
X58870000Y-131149999D02*
X58870000Y-132850001D01*
G75*
G02*
X58620001Y-133100000I-249999J0D01*
G01*
X57379999Y-133100000D01*
G75*
G02*
X57130000Y-132850001I0J249999D01*
G01*
X57130000Y-131149999D01*
G75*
G02*
X57379999Y-130900000I249999J0D01*
G01*
X58620001Y-130900000D01*
G75*
G02*
X58870000Y-131149999I0J-249999D01*
G01*
G37*
X55460000Y-132000000D03*
%TD*%
%TO.C,OUTPUT3*%
X66960000Y-143500000D03*
G36*
G01*
X70370000Y-142649999D02*
X70370000Y-144350001D01*
G75*
G02*
X70120001Y-144600000I-249999J0D01*
G01*
X68879999Y-144600000D01*
G75*
G02*
X68630000Y-144350001I0J249999D01*
G01*
X68630000Y-142649999D01*
G75*
G02*
X68879999Y-142400000I249999J0D01*
G01*
X70120001Y-142400000D01*
G75*
G02*
X70370000Y-142649999I0J-249999D01*
G01*
G37*
%TD*%
%TO.C,OUTPUT4*%
G36*
G01*
X58870000Y-142649999D02*
X58870000Y-144350001D01*
G75*
G02*
X58620001Y-144600000I-249999J0D01*
G01*
X57379999Y-144600000D01*
G75*
G02*
X57130000Y-144350001I0J249999D01*
G01*
X57130000Y-142649999D01*
G75*
G02*
X57379999Y-142400000I249999J0D01*
G01*
X58620001Y-142400000D01*
G75*
G02*
X58870000Y-142649999I0J-249999D01*
G01*
G37*
X55460000Y-143500000D03*
%TD*%
D14*
%TO.C,R1*%
X63295001Y-100500000D03*
D20*
X70915001Y-100500000D03*
%TD*%
%TO.C,R2*%
X70915001Y-105000000D03*
D14*
X63295001Y-105000000D03*
%TD*%
%TO.C,R3*%
X63295001Y-109500000D03*
D20*
X70915001Y-109500000D03*
%TD*%
%TO.C,R4*%
X70915001Y-114000000D03*
D14*
X63295001Y-114000000D03*
%TD*%
%TO.C,R5*%
X63295001Y-118500000D03*
D20*
X70915001Y-118500000D03*
%TD*%
D21*
%TO.C,U1*%
X58500000Y-79500000D03*
D22*
X66120000Y-94740000D03*
X58500000Y-82040000D03*
X66120000Y-92200000D03*
X58500000Y-84580000D03*
X66120000Y-89660000D03*
X58500000Y-87120000D03*
X66120000Y-87120000D03*
X58500000Y-89660000D03*
X66120000Y-84580000D03*
X58500000Y-92200000D03*
X66120000Y-82040000D03*
X58500000Y-94740000D03*
X66120000Y-79500000D03*
%TD*%
M02*
