%TF.GenerationSoftware,KiCad,Pcbnew,(5.1.8-0-10_14)*%
%TF.CreationDate,2021-08-22T20:49:35-04:00*%
%TF.ProjectId,bump,62756d70-2e6b-4696-9361-645f70636258,rev?*%
%TF.SameCoordinates,Original*%
%TF.FileFunction,Copper,L2,Bot*%
%TF.FilePolarity,Positive*%
%FSLAX46Y46*%
G04 Gerber Fmt 4.6, Leading zero omitted, Abs format (unit mm)*
G04 Created by KiCad (PCBNEW (5.1.8-0-10_14)) date 2021-08-22 20:49:35*
%MOMM*%
%LPD*%
G01*
G04 APERTURE LIST*
%TA.AperFunction,ComponentPad*%
%ADD10C,1.600000*%
%TD*%
%TA.AperFunction,ComponentPad*%
%ADD11R,1.600000X1.600000*%
%TD*%
%TA.AperFunction,ComponentPad*%
%ADD12O,1.740000X2.200000*%
%TD*%
%TA.AperFunction,ComponentPad*%
%ADD13R,1.727200X1.727200*%
%TD*%
%TA.AperFunction,ComponentPad*%
%ADD14O,1.727200X1.727200*%
%TD*%
%TA.AperFunction,ComponentPad*%
%ADD15O,1.600000X1.600000*%
%TD*%
%TA.AperFunction,ComponentPad*%
%ADD16R,2.400000X1.600000*%
%TD*%
%TA.AperFunction,ComponentPad*%
%ADD17O,2.400000X1.600000*%
%TD*%
%TA.AperFunction,Conductor*%
%ADD18C,0.250000*%
%TD*%
G04 APERTURE END LIST*
D10*
%TO.P,C1,2*%
%TO.N,GND*%
X67500000Y-66000000D03*
D11*
%TO.P,C1,1*%
%TO.N,Net-(C1-Pad1)*%
X65500000Y-66000000D03*
%TD*%
%TO.P,C2,1*%
%TO.N,GND*%
X58000000Y-66000000D03*
D10*
%TO.P,C2,2*%
%TO.N,Net-(C2-Pad2)*%
X60000000Y-66000000D03*
%TD*%
%TO.P,C3,1*%
%TO.N,GND*%
X53000000Y-71500000D03*
%TO.P,C3,2*%
%TO.N,Net-(C1-Pad1)*%
X55500000Y-71500000D03*
%TD*%
%TO.P,C4,2*%
%TO.N,GND*%
X70500000Y-71500000D03*
%TO.P,C4,1*%
%TO.N,Net-(C2-Pad2)*%
X68000000Y-71500000D03*
%TD*%
%TO.P,INPUT1,1*%
%TO.N,Net-(INPUT1-Pad1)*%
%TA.AperFunction,ComponentPad*%
G36*
G01*
X58870000Y-119649999D02*
X58870000Y-121350001D01*
G75*
G02*
X58620001Y-121600000I-249999J0D01*
G01*
X57379999Y-121600000D01*
G75*
G02*
X57130000Y-121350001I0J249999D01*
G01*
X57130000Y-119649999D01*
G75*
G02*
X57379999Y-119400000I249999J0D01*
G01*
X58620001Y-119400000D01*
G75*
G02*
X58870000Y-119649999I0J-249999D01*
G01*
G37*
%TD.AperFunction*%
D12*
%TO.P,INPUT1,2*%
%TO.N,GND*%
X55460000Y-120500000D03*
%TD*%
D13*
%TO.P,J1,1*%
%TO.N,Net-(C2-Pad2)*%
X57500000Y-58000000D03*
D14*
%TO.P,J1,2*%
X57500000Y-55460000D03*
%TO.P,J1,3*%
%TO.N,GND*%
X60040000Y-58000000D03*
%TO.P,J1,4*%
X60040000Y-55460000D03*
%TO.P,J1,5*%
X62580000Y-58000000D03*
%TO.P,J1,6*%
X62580000Y-55460000D03*
%TO.P,J1,7*%
X65120000Y-58000000D03*
%TO.P,J1,8*%
X65120000Y-55460000D03*
%TO.P,J1,9*%
%TO.N,Net-(C1-Pad1)*%
X67660000Y-58000000D03*
%TO.P,J1,10*%
X67660000Y-55460000D03*
%TD*%
D12*
%TO.P,OUTPUT1,2*%
%TO.N,GND*%
X66960000Y-132000000D03*
%TO.P,OUTPUT1,1*%
%TO.N,Net-(OUTPUT1-Pad1)*%
%TA.AperFunction,ComponentPad*%
G36*
G01*
X70370000Y-131149999D02*
X70370000Y-132850001D01*
G75*
G02*
X70120001Y-133100000I-249999J0D01*
G01*
X68879999Y-133100000D01*
G75*
G02*
X68630000Y-132850001I0J249999D01*
G01*
X68630000Y-131149999D01*
G75*
G02*
X68879999Y-130900000I249999J0D01*
G01*
X70120001Y-130900000D01*
G75*
G02*
X70370000Y-131149999I0J-249999D01*
G01*
G37*
%TD.AperFunction*%
%TD*%
%TO.P,OUTPUT2,1*%
%TO.N,Net-(OUTPUT2-Pad1)*%
%TA.AperFunction,ComponentPad*%
G36*
G01*
X58870000Y-131149999D02*
X58870000Y-132850001D01*
G75*
G02*
X58620001Y-133100000I-249999J0D01*
G01*
X57379999Y-133100000D01*
G75*
G02*
X57130000Y-132850001I0J249999D01*
G01*
X57130000Y-131149999D01*
G75*
G02*
X57379999Y-130900000I249999J0D01*
G01*
X58620001Y-130900000D01*
G75*
G02*
X58870000Y-131149999I0J-249999D01*
G01*
G37*
%TD.AperFunction*%
%TO.P,OUTPUT2,2*%
%TO.N,GND*%
X55460000Y-132000000D03*
%TD*%
%TO.P,OUTPUT3,2*%
%TO.N,GND*%
X66960000Y-143500000D03*
%TO.P,OUTPUT3,1*%
%TO.N,Net-(OUTPUT3-Pad1)*%
%TA.AperFunction,ComponentPad*%
G36*
G01*
X70370000Y-142649999D02*
X70370000Y-144350001D01*
G75*
G02*
X70120001Y-144600000I-249999J0D01*
G01*
X68879999Y-144600000D01*
G75*
G02*
X68630000Y-144350001I0J249999D01*
G01*
X68630000Y-142649999D01*
G75*
G02*
X68879999Y-142400000I249999J0D01*
G01*
X70120001Y-142400000D01*
G75*
G02*
X70370000Y-142649999I0J-249999D01*
G01*
G37*
%TD.AperFunction*%
%TD*%
%TO.P,OUTPUT4,1*%
%TO.N,Net-(OUTPUT4-Pad1)*%
%TA.AperFunction,ComponentPad*%
G36*
G01*
X58870000Y-142649999D02*
X58870000Y-144350001D01*
G75*
G02*
X58620001Y-144600000I-249999J0D01*
G01*
X57379999Y-144600000D01*
G75*
G02*
X57130000Y-144350001I0J249999D01*
G01*
X57130000Y-142649999D01*
G75*
G02*
X57379999Y-142400000I249999J0D01*
G01*
X58620001Y-142400000D01*
G75*
G02*
X58870000Y-142649999I0J-249999D01*
G01*
G37*
%TD.AperFunction*%
%TO.P,OUTPUT4,2*%
%TO.N,GND*%
X55460000Y-143500000D03*
%TD*%
D10*
%TO.P,R1,1*%
%TO.N,Net-(INPUT1-Pad1)*%
X63295001Y-100500000D03*
D15*
%TO.P,R1,2*%
%TO.N,GND*%
X70915001Y-100500000D03*
%TD*%
%TO.P,R2,2*%
%TO.N,Net-(R2-Pad2)*%
X70915001Y-105000000D03*
D10*
%TO.P,R2,1*%
%TO.N,Net-(OUTPUT1-Pad1)*%
X63295001Y-105000000D03*
%TD*%
%TO.P,R3,1*%
%TO.N,Net-(OUTPUT2-Pad1)*%
X63295001Y-109500000D03*
D15*
%TO.P,R3,2*%
%TO.N,Net-(R3-Pad2)*%
X70915001Y-109500000D03*
%TD*%
%TO.P,R4,2*%
%TO.N,Net-(R4-Pad2)*%
X70915001Y-114000000D03*
D10*
%TO.P,R4,1*%
%TO.N,Net-(OUTPUT3-Pad1)*%
X63295001Y-114000000D03*
%TD*%
%TO.P,R5,1*%
%TO.N,Net-(OUTPUT4-Pad1)*%
X63295001Y-118500000D03*
D15*
%TO.P,R5,2*%
%TO.N,Net-(R5-Pad2)*%
X70915001Y-118500000D03*
%TD*%
D16*
%TO.P,U1,1*%
%TO.N,Net-(R2-Pad2)*%
X58500000Y-79500000D03*
D17*
%TO.P,U1,8*%
%TO.N,Net-(R4-Pad2)*%
X66120000Y-94740000D03*
%TO.P,U1,2*%
%TO.N,Net-(R2-Pad2)*%
X58500000Y-82040000D03*
%TO.P,U1,9*%
%TO.N,Net-(R4-Pad2)*%
X66120000Y-92200000D03*
%TO.P,U1,3*%
%TO.N,Net-(INPUT1-Pad1)*%
X58500000Y-84580000D03*
%TO.P,U1,10*%
X66120000Y-89660000D03*
%TO.P,U1,4*%
%TO.N,Net-(C1-Pad1)*%
X58500000Y-87120000D03*
%TO.P,U1,11*%
%TO.N,Net-(C2-Pad2)*%
X66120000Y-87120000D03*
%TO.P,U1,5*%
%TO.N,Net-(INPUT1-Pad1)*%
X58500000Y-89660000D03*
%TO.P,U1,12*%
X66120000Y-84580000D03*
%TO.P,U1,6*%
%TO.N,Net-(R3-Pad2)*%
X58500000Y-92200000D03*
%TO.P,U1,13*%
%TO.N,Net-(R5-Pad2)*%
X66120000Y-82040000D03*
%TO.P,U1,7*%
%TO.N,Net-(R3-Pad2)*%
X58500000Y-94740000D03*
%TO.P,U1,14*%
%TO.N,Net-(R5-Pad2)*%
X66120000Y-79500000D03*
%TD*%
D18*
%TO.N,GND*%
X67500000Y-64868630D02*
X65131370Y-62500000D01*
X67500000Y-66000000D02*
X67500000Y-64868630D01*
X65131370Y-62500000D02*
X64500000Y-62500000D01*
X62580000Y-60580000D02*
X62580000Y-58000000D01*
X64500000Y-62500000D02*
X62580000Y-60580000D01*
X58000000Y-62580000D02*
X62580000Y-58000000D01*
X58000000Y-66000000D02*
X58000000Y-62580000D01*
X60040000Y-58000000D02*
X60040000Y-55460000D01*
X60040000Y-55460000D02*
X62580000Y-55460000D01*
X62580000Y-55460000D02*
X65120000Y-55460000D01*
X62580000Y-55460000D02*
X62580000Y-58000000D01*
X62580000Y-58000000D02*
X65120000Y-58000000D01*
X56885010Y-133425010D02*
X55460000Y-132000000D01*
X65534990Y-133425010D02*
X56885010Y-133425010D01*
X66960000Y-132000000D02*
X65534990Y-133425010D01*
X64594990Y-77405010D02*
X70500000Y-71500000D01*
X64594990Y-95311359D02*
X64594990Y-77405010D01*
X69783631Y-100500000D02*
X64594990Y-95311359D01*
X70915001Y-100500000D02*
X69783631Y-100500000D01*
%TO.N,Net-(C1-Pad1)*%
X62131370Y-66000000D02*
X65500000Y-66000000D01*
X56631370Y-71500000D02*
X62131370Y-66000000D01*
X55500000Y-71500000D02*
X56631370Y-71500000D01*
%TO.N,Net-(INPUT1-Pad1)*%
X58000000Y-105795001D02*
X63295001Y-100500000D01*
X58000000Y-120500000D02*
X58000000Y-105795001D01*
X67645010Y-88134990D02*
X66120000Y-89660000D01*
X67645010Y-86105010D02*
X67645010Y-88134990D01*
X66120000Y-84580000D02*
X67645010Y-86105010D01*
X56974990Y-88134990D02*
X58500000Y-89660000D01*
X56974990Y-86105010D02*
X56974990Y-88134990D01*
X58500000Y-84580000D02*
X56974990Y-86105010D01*
%TO.N,Net-(OUTPUT1-Pad1)*%
X69500000Y-111204999D02*
X63295001Y-105000000D01*
X69500000Y-132000000D02*
X69500000Y-111204999D01*
%TO.N,Net-(R2-Pad2)*%
X70915001Y-105000000D02*
X61500000Y-95584999D01*
X61500000Y-85040000D02*
X58500000Y-82040000D01*
X61500000Y-95584999D02*
X61500000Y-85040000D01*
%TO.N,Net-(R3-Pad2)*%
X59200003Y-94740000D02*
X58500000Y-94740000D01*
X69790000Y-105329997D02*
X59200003Y-94740000D01*
X69790000Y-108374999D02*
X69790000Y-105329997D01*
X70915001Y-109500000D02*
X69790000Y-108374999D01*
%TO.N,Net-(R4-Pad2)*%
X72040002Y-112874999D02*
X72040002Y-94040002D01*
X70915001Y-114000000D02*
X72040002Y-112874999D01*
X70200000Y-92200000D02*
X66120000Y-92200000D01*
X72040002Y-94040002D02*
X70200000Y-92200000D01*
X66120000Y-94740000D02*
X66120000Y-92200000D01*
%TD*%
M02*
