M48
; DRILL file {KiCad (5.1.8-0-10_14)} date Sunday, August 22, 2021 at 08:14:01 PM
; FORMAT={-:-/ absolute / metric / decimal}
; #@! TF.CreationDate,2021-08-22T20:14:01-04:00
; #@! TF.GenerationSoftware,Kicad,Pcbnew,(5.1.8-0-10_14)
FMAT,2
METRIC
T1C0.800
T2C1.016
T3C1.200
T4C3.200
%
G90
G05
T1
X53.0Y-71.5
X55.5Y-71.5
X63.295Y-109.5
X70.915Y-109.5
X63.295Y-114.0
X70.915Y-114.0
X63.295Y-118.5
X70.915Y-118.5
X65.5Y-66.0
X67.5Y-66.0
X58.5Y-79.5
X58.5Y-82.04
X58.5Y-84.58
X58.5Y-87.12
X58.5Y-89.66
X58.5Y-92.2
X58.5Y-94.74
X66.12Y-79.5
X66.12Y-82.04
X66.12Y-84.58
X66.12Y-87.12
X66.12Y-89.66
X66.12Y-92.2
X66.12Y-94.74
X63.295Y-100.5
X70.915Y-100.5
X63.295Y-105.0
X70.915Y-105.0
X58.0Y-66.0
X60.0Y-66.0
X68.0Y-71.5
X70.5Y-71.5
T2
X57.5Y-55.46
X57.5Y-58.0
X60.04Y-55.46
X60.04Y-58.0
X62.58Y-55.46
X62.58Y-58.0
X65.12Y-55.46
X65.12Y-58.0
X67.66Y-55.46
X67.66Y-58.0
T3
X55.46Y-120.5
X58.0Y-120.5
X55.46Y-143.5
X58.0Y-143.5
X66.96Y-143.5
X55.46Y-132.0
X58.0Y-132.0
X66.96Y-132.0
X69.5Y-132.0
X69.5Y-143.5
T4
X53.0Y-77.0
T0
M30
