M48
; DRILL file {KiCad (5.1.12-1-10_14)} date 2023 August 06, Sunday 16:46:34
; FORMAT={-:-/ absolute / inch / decimal}
; #@! TF.CreationDate,2023-08-06T16:46:34+02:00
; #@! TF.GenerationSoftware,Kicad,Pcbnew,(5.1.12-1-10_14)
; #@! TF.FileFunction,Plated,1,2,PTH
FMAT,2
INCH
T1C0.0157
T2C0.0315
T3C0.0394
T4C0.0400
T5C0.0433
T6C0.0472
T7C0.0709
%
G90
G05
T1
X15.748Y-1.7323
X15.7874Y-2.0177
X15.8588Y-1.8825
X15.8661Y-0.8563
X16.25Y-0.8563
X16.4764Y-1.2106
T2
X15.0724Y-1.6535
X15.0787Y0.7579
X15.0787Y0.6594
X15.0787Y0.4331
X15.0787Y0.2461
X15.0787Y-1.4665
X15.102Y-3.0512
X15.102Y-3.2579
X15.1083Y-1.0728
X15.128Y-2.0114
X15.128Y-2.4114
X15.1378Y-1.8602
X15.1673Y1.2008
X15.1673Y0.9008
X15.2067Y-1.0728
X15.2165Y-2.7067
X15.2362Y-1.8602
X15.315Y-2.0114
X15.315Y-2.4114
X15.315Y-2.7067
X15.4232Y-1.2303
X15.4724Y-1.6535
X15.4787Y0.4331
X15.4787Y0.2461
X15.4787Y-1.4665
X15.502Y-3.0512
X15.502Y-3.2579
X15.5118Y-2.0276
X15.5118Y-2.126
X15.5217Y-1.2303
X15.6496Y0.5906
X15.6693Y-1.1516
X15.6693Y-1.2516
X15.6693Y-1.3516
X15.6693Y-1.4516
X15.6693Y-1.8504
X15.6693Y-1.9504
X15.6693Y-2.0504
X15.6693Y-2.1504
X15.6693Y-2.2504
X15.6693Y-2.3504
X15.6693Y-2.4504
X15.6693Y-2.5504
X15.748Y0.5906
X15.8563Y-3.0906
X15.8563Y-3.189
X15.9449Y0.5906
X15.9693Y-1.1516
X15.9693Y-1.2516
X15.9693Y-1.3516
X15.9693Y-1.4516
X15.9693Y-1.8504
X15.9693Y-1.9504
X15.9693Y-2.0504
X15.9693Y-2.1504
X15.9693Y-2.2504
X15.9693Y-2.3504
X15.9693Y-2.4504
X15.9693Y-2.5504
X16.0433Y0.5906
X16.1122Y-2.7559
X16.1516Y-3.2579
X16.2402Y-1.122
X16.2402Y-1.2205
X16.2402Y-2.5197
X16.2732Y-0.7283
X16.2992Y-1.4961
X16.3091Y-2.9823
X16.3189Y0.5512
X16.3224Y0.4035
X16.3287Y0.1673
X16.3386Y-2.5197
X16.4075Y-2.9823
X16.4665Y1.1858
X16.4665Y0.8858
X16.4961Y-0.9646
X16.5122Y-2.7559
X16.5516Y-3.2579
X16.5945Y-0.9646
X16.6732Y-0.7283
X16.6992Y-1.4961
X16.7028Y1.2106
X16.7028Y1.1122
X16.7028Y-2.4248
X16.7028Y-2.8248
X16.7189Y0.5512
X16.7224Y0.4035
X16.7287Y0.1673
T3
X15.3445Y1.4173
X15.3445Y-0.4921
X15.4429Y1.4173
X15.4429Y-0.4921
X15.5413Y1.4173
X15.5413Y-0.4921
X16.2795Y1.4173
X16.2795Y-0.4921
X16.2795Y-2.3327
X16.378Y1.4173
X16.378Y-0.4921
X16.378Y-2.3327
X16.4764Y1.4173
X16.4764Y-0.4921
X16.4764Y-2.3327
T4
X15.6496Y1.1236
X15.6496Y1.0236
X15.7496Y1.1236
X15.7496Y1.0236
X15.8496Y1.1236
X15.8496Y1.0236
X15.9496Y1.1236
X15.9496Y1.0236
X16.0496Y1.1236
X16.0496Y1.0236
T5
X15.2315Y-0.6693
X15.2461Y-0.8563
X15.5315Y-0.6693
X15.5461Y-0.8563
T6
X15.1575Y-3.5827
X15.2575Y-3.5827
X15.6201Y-3.5827
X15.7201Y-3.5827
X16.1024Y-3.5827
X16.2024Y-3.5827
X16.5945Y-3.5827
X16.6945Y-3.5827
T7
X15.2539Y1.7126
X15.2539Y-0.1969
X15.6319Y1.7126
X15.6319Y-0.1969
X16.189Y1.7126
X16.189Y-0.1969
X16.189Y-2.0374
X16.5669Y1.7126
X16.5669Y-0.1969
X16.5669Y-2.0374
T0
M30
