%TF.GenerationSoftware,KiCad,Pcbnew,(5.1.12-1-10_14)*%
%TF.CreationDate,2023-08-06T16:46:36+02:00*%
%TF.ProjectId,springy_board,73707269-6e67-4795-9f62-6f6172642e6b,rev?*%
%TF.SameCoordinates,Original*%
%TF.FileFunction,Legend,Bot*%
%TF.FilePolarity,Positive*%
%FSLAX46Y46*%
G04 Gerber Fmt 4.6, Leading zero omitted, Abs format (unit mm)*
G04 Created by KiCad (PCBNEW (5.1.12-1-10_14)) date 2023-08-06 16:46:36*
%MOMM*%
%LPD*%
G01*
G04 APERTURE LIST*
%ADD10C,0.010000*%
%ADD11C,0.120000*%
%ADD12C,0.150000*%
G04 APERTURE END LIST*
D10*
%TO.C,G\u002A\u002A\u002A*%
G36*
X404856254Y21717010D02*
G01*
X404970700Y21571738D01*
X405235928Y21339883D01*
X405459216Y21271146D01*
X405526223Y21358786D01*
X405389053Y21494007D01*
X405126573Y21654300D01*
X404856644Y21784550D01*
X404856254Y21717010D01*
G37*
X404856254Y21717010D02*
X404970700Y21571738D01*
X405235928Y21339883D01*
X405459216Y21271146D01*
X405526223Y21358786D01*
X405389053Y21494007D01*
X405126573Y21654300D01*
X404856644Y21784550D01*
X404856254Y21717010D01*
G36*
X390605944Y19055944D02*
G01*
X390694755Y18967133D01*
X390783566Y19055944D01*
X390694755Y19144756D01*
X390605944Y19055944D01*
G37*
X390605944Y19055944D02*
X390694755Y18967133D01*
X390783566Y19055944D01*
X390694755Y19144756D01*
X390605944Y19055944D01*
G36*
X405364620Y22574469D02*
G01*
X405395124Y22085891D01*
X405490800Y21763003D01*
X405533449Y21715815D01*
X405645257Y21474056D01*
X405622701Y21300378D01*
X405680296Y21004443D01*
X405920618Y20598056D01*
X406252545Y20197048D01*
X406584954Y19917252D01*
X406759567Y19855245D01*
X406956820Y19787388D01*
X406894859Y19635162D01*
X406630940Y19475584D01*
X406432398Y19415156D01*
X405976159Y19186654D01*
X405791893Y18912582D01*
X405690766Y18643056D01*
X405625389Y18702881D01*
X405578966Y18878322D01*
X405453915Y19261698D01*
X405353852Y19291193D01*
X405278722Y18966661D01*
X405228467Y18287954D01*
X405215774Y17933410D01*
X405209504Y17168998D01*
X405242411Y16726881D01*
X405313200Y16620906D01*
X405336227Y16647874D01*
X405451923Y16720521D01*
X405528462Y16482915D01*
X405559568Y16203818D01*
X405595153Y15884048D01*
X405633575Y15840377D01*
X405685625Y16098556D01*
X405762094Y16684339D01*
X405762575Y16688287D01*
X405887714Y17415024D01*
X406046289Y17856703D01*
X406157528Y17969326D01*
X406322855Y18186767D01*
X406305110Y18334602D01*
X406367711Y18615298D01*
X406664100Y18814235D01*
X407025125Y18938263D01*
X407216375Y18934790D01*
X407293307Y18727671D01*
X407410391Y18268331D01*
X407543021Y17653844D01*
X407550139Y17618175D01*
X407668209Y17095308D01*
X407760747Y16818594D01*
X407810974Y16834863D01*
X407814583Y16880070D01*
X407872608Y17208287D01*
X408062904Y17330004D01*
X408465949Y17273761D01*
X408723426Y17202348D01*
X409240064Y17158742D01*
X409591767Y17225023D01*
X409986103Y17318441D01*
X410104004Y17194701D01*
X409965231Y16832769D01*
X409963453Y16829442D01*
X409852844Y16560537D01*
X409950325Y16559060D01*
X410185157Y16815498D01*
X410441180Y17240797D01*
X410641862Y17687395D01*
X410710672Y18007728D01*
X410708649Y18021222D01*
X410796296Y18297947D01*
X410850184Y18342544D01*
X411002501Y18595344D01*
X411032517Y18806243D01*
X411075975Y19044654D01*
X411272143Y19024279D01*
X411411759Y18954291D01*
X411652879Y18761482D01*
X411577703Y18619502D01*
X411459221Y18377708D01*
X411360674Y17854886D01*
X411295785Y17125199D01*
X411293659Y17084398D01*
X411222912Y15681119D01*
X411444194Y16550871D01*
X411579218Y17049555D01*
X411674188Y17246213D01*
X411770944Y17184495D01*
X411869843Y16994927D01*
X411999746Y16753269D01*
X412061551Y16777965D01*
X412084803Y17107432D01*
X412088848Y17279721D01*
X412188899Y18022179D01*
X412431069Y18590836D01*
X412778041Y18907329D01*
X412878644Y18938229D01*
X413103523Y18919283D01*
X413074775Y18788865D01*
X413044916Y18663559D01*
X413266811Y18749545D01*
X413285093Y18759265D01*
X413503075Y18831096D01*
X413655554Y18712241D01*
X413803714Y18336490D01*
X413866423Y18130170D01*
X414000922Y17566713D01*
X413990546Y17197614D01*
X413888390Y16969562D01*
X413784587Y16743231D01*
X413861362Y16738749D01*
X414021368Y16700745D01*
X414058392Y16535308D01*
X414093448Y16363434D01*
X414213197Y16489723D01*
X414305577Y16648966D01*
X414694149Y17096941D01*
X415275227Y17317411D01*
X415709218Y17356048D01*
X416046134Y17334405D01*
X416153089Y17175323D01*
X416107992Y16791259D01*
X416047485Y16422597D01*
X416072075Y16378938D01*
X416200100Y16636370D01*
X416210160Y16658042D01*
X416416128Y17102098D01*
X416674402Y16036364D01*
X416695418Y16619360D01*
X416794470Y17094314D01*
X417086542Y17344538D01*
X417116084Y17356465D01*
X417373899Y17486572D01*
X417373680Y17486947D01*
X414703380Y17486947D01*
X414678997Y17381350D01*
X414584965Y17368532D01*
X414438761Y17433521D01*
X414466550Y17486947D01*
X414677346Y17508205D01*
X414703380Y17486947D01*
X417373680Y17486947D01*
X417313927Y17589025D01*
X417233371Y17625251D01*
X417013672Y17891624D01*
X416927941Y18353531D01*
X416955042Y18817786D01*
X417087970Y18944355D01*
X417332639Y18736457D01*
X417420066Y18621402D01*
X417662577Y18389089D01*
X417814522Y18365451D01*
X417952288Y18325147D01*
X417959790Y18271688D01*
X418103033Y18077608D01*
X418455829Y17835812D01*
X418537063Y17792365D01*
X419043859Y17485762D01*
X419297180Y17162353D01*
X419382538Y16699105D01*
X419387202Y16569231D01*
X419399074Y16036364D01*
X419670902Y16691291D01*
X419910805Y17133816D01*
X420153270Y17268634D01*
X420239023Y17254063D01*
X420406544Y17226509D01*
X420294269Y17356578D01*
X420194605Y17439860D01*
X419966498Y17702600D01*
X419993313Y18011128D01*
X420057580Y18164850D01*
X420172064Y18497471D01*
X420087825Y18613288D01*
X420043045Y18617537D01*
X419979082Y18702027D01*
X420135664Y18859147D01*
X420371132Y19219725D01*
X420403290Y19404503D01*
X419702552Y19404503D01*
X419667511Y18979683D01*
X419570976Y18501616D01*
X419440121Y18100086D01*
X419302117Y17904876D01*
X419283604Y17901399D01*
X419033363Y18027366D01*
X418691985Y18340565D01*
X418597258Y18447894D01*
X418305280Y18830801D01*
X418146847Y19108450D01*
X418137412Y19151254D01*
X418288971Y19288437D01*
X418652873Y19449907D01*
X419092962Y19591070D01*
X419473079Y19667332D01*
X419648928Y19646294D01*
X419702552Y19404503D01*
X420403290Y19404503D01*
X420446503Y19652799D01*
X420504503Y20039130D01*
X420645818Y20209952D01*
X420655088Y20210490D01*
X420677400Y20271524D01*
X419733588Y20271524D01*
X419599674Y20149859D01*
X419255609Y20191786D01*
X418795352Y20377279D01*
X418537063Y20526546D01*
X418203422Y20810467D01*
X418183240Y21005425D01*
X418476519Y21074688D01*
X418537063Y21072577D01*
X418993586Y21108292D01*
X419224209Y21173424D01*
X419478338Y21126379D01*
X419661557Y20796487D01*
X419733588Y20271524D01*
X420677400Y20271524D01*
X420694376Y20317957D01*
X420514780Y20580775D01*
X420477465Y20621588D01*
X420172235Y21033363D01*
X420107324Y21331466D01*
X420294521Y21455937D01*
X420313286Y21456566D01*
X420405751Y21517973D01*
X420268881Y21631469D01*
X420156649Y21752614D01*
X420348570Y21804747D01*
X420535314Y21811773D01*
X420876731Y21832803D01*
X420900950Y21904780D01*
X420739733Y22010796D01*
X420323887Y22119958D01*
X419912093Y22101860D01*
X419481989Y22097202D01*
X419313599Y22260801D01*
X419112494Y22491604D01*
X419009350Y22519581D01*
X418900287Y22448758D01*
X419019067Y22260928D01*
X419152489Y21968834D01*
X419131801Y21837351D01*
X418880364Y21682458D01*
X418393323Y21540950D01*
X417789971Y21441926D01*
X417397402Y21414272D01*
X417074623Y21373684D01*
X417044348Y21226242D01*
X417129290Y21072356D01*
X417344259Y20809089D01*
X417460498Y20743357D01*
X417663035Y20633688D01*
X417993635Y20365130D01*
X418043281Y20319788D01*
X418500320Y19896218D01*
X417874810Y19778872D01*
X417409333Y19651716D01*
X417268632Y19478406D01*
X417422239Y19212100D01*
X417471328Y19158538D01*
X417582742Y19013887D01*
X417438394Y19057009D01*
X417293706Y19129263D01*
X417030344Y19372394D01*
X416899524Y19687744D01*
X416929338Y19948573D01*
X417093427Y20032867D01*
X417197419Y20117191D01*
X417113937Y20254895D01*
X416952773Y20577731D01*
X416813198Y21046948D01*
X416811301Y21055746D01*
X416686722Y21416242D01*
X416543546Y21541413D01*
X416524357Y21533725D01*
X416397853Y21554545D01*
X416333563Y21839455D01*
X416325329Y22426097D01*
X416334056Y22697203D01*
X416342386Y23090373D01*
X416304520Y23158308D01*
X416193076Y22930519D01*
X416169240Y22874825D01*
X416071584Y22399893D01*
X416054096Y21733250D01*
X416110281Y21027699D01*
X416233642Y20436039D01*
X416278076Y20314569D01*
X416340103Y20081046D01*
X416197634Y20112991D01*
X416194722Y20114784D01*
X416049762Y20142857D01*
X416080049Y19904101D01*
X416100910Y19835851D01*
X416221594Y19074176D01*
X416202743Y18273520D01*
X416130021Y18144113D01*
X415910133Y18274011D01*
X415820677Y18352372D01*
X415575709Y18552347D01*
X415531132Y18504422D01*
X415568274Y18392862D01*
X415583503Y18189610D01*
X415345168Y18192589D01*
X415304504Y18202811D01*
X415022862Y18392237D01*
X415010779Y18589502D01*
X415098783Y18958232D01*
X415137487Y19144756D01*
X414762587Y19144756D01*
X414697598Y18998552D01*
X414644172Y19026341D01*
X414622914Y19237137D01*
X414644172Y19263170D01*
X414749768Y19238788D01*
X414762587Y19144756D01*
X415137487Y19144756D01*
X415203429Y19462538D01*
X415210666Y19500000D01*
X415275558Y19890133D01*
X415242291Y19977136D01*
X415089350Y19804757D01*
X415071990Y19781979D01*
X414741694Y19545410D01*
X414416368Y19628566D01*
X414238393Y19897590D01*
X413580920Y19897590D01*
X413551325Y19598646D01*
X413326747Y19539963D01*
X413263128Y19560269D01*
X412931940Y19549439D01*
X412792633Y19486287D01*
X412554628Y19347086D01*
X412502342Y19325098D01*
X412503078Y19411189D01*
X411387762Y19411189D01*
X411298951Y19322378D01*
X411210139Y19411189D01*
X411298951Y19500000D01*
X411387762Y19411189D01*
X412503078Y19411189D01*
X412503632Y19475923D01*
X412559916Y19847796D01*
X412569368Y19899651D01*
X412710096Y20377025D01*
X412898448Y20715261D01*
X412898825Y20715666D01*
X413075046Y20821222D01*
X413246593Y20672181D01*
X413406221Y20383252D01*
X413580920Y19897590D01*
X414238393Y19897590D01*
X414168991Y20002496D01*
X414122891Y20158478D01*
X413911009Y20664947D01*
X413633791Y21063551D01*
X413398085Y21367001D01*
X413408387Y21545495D01*
X413523885Y21638104D01*
X413669697Y21776028D01*
X413624918Y21806371D01*
X413609834Y21919517D01*
X413797008Y22188536D01*
X413802540Y22194868D01*
X413956719Y22415896D01*
X413876365Y22435417D01*
X413607853Y22269388D01*
X413297202Y22020978D01*
X413035803Y21854405D01*
X412800098Y21933210D01*
X412631118Y22075525D01*
X412357759Y22246082D01*
X412275466Y22165872D01*
X412429184Y21907930D01*
X412489021Y21844616D01*
X412610710Y21602909D01*
X412489021Y21418322D01*
X412328295Y21089635D01*
X412275874Y20718315D01*
X412215314Y20321277D01*
X412074303Y20111321D01*
X411913839Y20156751D01*
X411861011Y20253789D01*
X411795093Y20266111D01*
X411757841Y19991897D01*
X411757029Y19966713D01*
X411720303Y19628595D01*
X411601483Y19588740D01*
X411475358Y19678631D01*
X411412618Y19752348D01*
X410455270Y19752348D01*
X410453869Y19712076D01*
X410370135Y19205771D01*
X410109574Y18810932D01*
X409797196Y18534328D01*
X409167482Y18032615D01*
X409700349Y18157199D01*
X410042106Y18215984D01*
X410090958Y18148829D01*
X410020220Y18065097D01*
X409713353Y17890479D01*
X409230932Y17738647D01*
X409132108Y17717710D01*
X408470890Y17600126D01*
X408083689Y17580713D01*
X407897485Y17681726D01*
X407839258Y17925423D01*
X407835314Y18112970D01*
X407848347Y18482787D01*
X407920244Y18539776D01*
X408093636Y18334998D01*
X408257111Y18141614D01*
X408305426Y18202752D01*
X408262622Y18563116D01*
X408252283Y18630009D01*
X408222596Y19091073D01*
X408343325Y19325496D01*
X408460531Y19387969D01*
X408843791Y19383969D01*
X409039201Y19281428D01*
X409191882Y19191654D01*
X409256617Y19298241D01*
X409249086Y19662415D01*
X409220384Y19988853D01*
X409208718Y20611167D01*
X409255257Y20737785D01*
X408549885Y20737785D01*
X408540908Y20288712D01*
X408477929Y19909643D01*
X408365707Y19723684D01*
X408323776Y19723739D01*
X408172350Y19934775D01*
X408097634Y20349483D01*
X408096223Y20404625D01*
X408127732Y21049439D01*
X408238350Y21353257D01*
X408386794Y21353532D01*
X408500100Y21133760D01*
X408549885Y20737785D01*
X409255257Y20737785D01*
X409319771Y20913306D01*
X409547736Y20888476D01*
X409789160Y20654546D01*
X410086582Y20429082D01*
X410245554Y20388112D01*
X410412930Y20231085D01*
X410455270Y19752348D01*
X411412618Y19752348D01*
X411197949Y20004574D01*
X410985278Y20364846D01*
X410664720Y20777129D01*
X410231598Y21092422D01*
X409700349Y21355911D01*
X410322028Y21462480D01*
X410943706Y21569048D01*
X410451963Y21709149D01*
X409925930Y21787235D01*
X409536085Y21768172D01*
X409222562Y21770000D01*
X409049781Y21993145D01*
X408978608Y22236554D01*
X408845264Y22786014D01*
X408727403Y22075525D01*
X408646790Y21640586D01*
X408578147Y21519919D01*
X408480472Y21676521D01*
X408426129Y21803631D01*
X408242716Y22242226D01*
X407971607Y21724797D01*
X407700498Y21207367D01*
X407404714Y23141259D01*
X407299915Y22075525D01*
X407266198Y21503309D01*
X407284510Y21093650D01*
X407337593Y20950583D01*
X407447650Y20748821D01*
X407480070Y20465930D01*
X407447313Y20176063D01*
X407279380Y20144124D01*
X407031755Y20244749D01*
X406654511Y20559314D01*
X406475577Y20907025D01*
X406266900Y21407062D01*
X406050255Y21720280D01*
X405780882Y22140882D01*
X405564017Y22672044D01*
X405556719Y22697203D01*
X405380640Y23318881D01*
X405364620Y22574469D01*
G37*
X405364620Y22574469D02*
X405395124Y22085891D01*
X405490800Y21763003D01*
X405533449Y21715815D01*
X405645257Y21474056D01*
X405622701Y21300378D01*
X405680296Y21004443D01*
X405920618Y20598056D01*
X406252545Y20197048D01*
X406584954Y19917252D01*
X406759567Y19855245D01*
X406956820Y19787388D01*
X406894859Y19635162D01*
X406630940Y19475584D01*
X406432398Y19415156D01*
X405976159Y19186654D01*
X405791893Y18912582D01*
X405690766Y18643056D01*
X405625389Y18702881D01*
X405578966Y18878322D01*
X405453915Y19261698D01*
X405353852Y19291193D01*
X405278722Y18966661D01*
X405228467Y18287954D01*
X405215774Y17933410D01*
X405209504Y17168998D01*
X405242411Y16726881D01*
X405313200Y16620906D01*
X405336227Y16647874D01*
X405451923Y16720521D01*
X405528462Y16482915D01*
X405559568Y16203818D01*
X405595153Y15884048D01*
X405633575Y15840377D01*
X405685625Y16098556D01*
X405762094Y16684339D01*
X405762575Y16688287D01*
X405887714Y17415024D01*
X406046289Y17856703D01*
X406157528Y17969326D01*
X406322855Y18186767D01*
X406305110Y18334602D01*
X406367711Y18615298D01*
X406664100Y18814235D01*
X407025125Y18938263D01*
X407216375Y18934790D01*
X407293307Y18727671D01*
X407410391Y18268331D01*
X407543021Y17653844D01*
X407550139Y17618175D01*
X407668209Y17095308D01*
X407760747Y16818594D01*
X407810974Y16834863D01*
X407814583Y16880070D01*
X407872608Y17208287D01*
X408062904Y17330004D01*
X408465949Y17273761D01*
X408723426Y17202348D01*
X409240064Y17158742D01*
X409591767Y17225023D01*
X409986103Y17318441D01*
X410104004Y17194701D01*
X409965231Y16832769D01*
X409963453Y16829442D01*
X409852844Y16560537D01*
X409950325Y16559060D01*
X410185157Y16815498D01*
X410441180Y17240797D01*
X410641862Y17687395D01*
X410710672Y18007728D01*
X410708649Y18021222D01*
X410796296Y18297947D01*
X410850184Y18342544D01*
X411002501Y18595344D01*
X411032517Y18806243D01*
X411075975Y19044654D01*
X411272143Y19024279D01*
X411411759Y18954291D01*
X411652879Y18761482D01*
X411577703Y18619502D01*
X411459221Y18377708D01*
X411360674Y17854886D01*
X411295785Y17125199D01*
X411293659Y17084398D01*
X411222912Y15681119D01*
X411444194Y16550871D01*
X411579218Y17049555D01*
X411674188Y17246213D01*
X411770944Y17184495D01*
X411869843Y16994927D01*
X411999746Y16753269D01*
X412061551Y16777965D01*
X412084803Y17107432D01*
X412088848Y17279721D01*
X412188899Y18022179D01*
X412431069Y18590836D01*
X412778041Y18907329D01*
X412878644Y18938229D01*
X413103523Y18919283D01*
X413074775Y18788865D01*
X413044916Y18663559D01*
X413266811Y18749545D01*
X413285093Y18759265D01*
X413503075Y18831096D01*
X413655554Y18712241D01*
X413803714Y18336490D01*
X413866423Y18130170D01*
X414000922Y17566713D01*
X413990546Y17197614D01*
X413888390Y16969562D01*
X413784587Y16743231D01*
X413861362Y16738749D01*
X414021368Y16700745D01*
X414058392Y16535308D01*
X414093448Y16363434D01*
X414213197Y16489723D01*
X414305577Y16648966D01*
X414694149Y17096941D01*
X415275227Y17317411D01*
X415709218Y17356048D01*
X416046134Y17334405D01*
X416153089Y17175323D01*
X416107992Y16791259D01*
X416047485Y16422597D01*
X416072075Y16378938D01*
X416200100Y16636370D01*
X416210160Y16658042D01*
X416416128Y17102098D01*
X416674402Y16036364D01*
X416695418Y16619360D01*
X416794470Y17094314D01*
X417086542Y17344538D01*
X417116084Y17356465D01*
X417373899Y17486572D01*
X417373680Y17486947D01*
X414703380Y17486947D01*
X414678997Y17381350D01*
X414584965Y17368532D01*
X414438761Y17433521D01*
X414466550Y17486947D01*
X414677346Y17508205D01*
X414703380Y17486947D01*
X417373680Y17486947D01*
X417313927Y17589025D01*
X417233371Y17625251D01*
X417013672Y17891624D01*
X416927941Y18353531D01*
X416955042Y18817786D01*
X417087970Y18944355D01*
X417332639Y18736457D01*
X417420066Y18621402D01*
X417662577Y18389089D01*
X417814522Y18365451D01*
X417952288Y18325147D01*
X417959790Y18271688D01*
X418103033Y18077608D01*
X418455829Y17835812D01*
X418537063Y17792365D01*
X419043859Y17485762D01*
X419297180Y17162353D01*
X419382538Y16699105D01*
X419387202Y16569231D01*
X419399074Y16036364D01*
X419670902Y16691291D01*
X419910805Y17133816D01*
X420153270Y17268634D01*
X420239023Y17254063D01*
X420406544Y17226509D01*
X420294269Y17356578D01*
X420194605Y17439860D01*
X419966498Y17702600D01*
X419993313Y18011128D01*
X420057580Y18164850D01*
X420172064Y18497471D01*
X420087825Y18613288D01*
X420043045Y18617537D01*
X419979082Y18702027D01*
X420135664Y18859147D01*
X420371132Y19219725D01*
X420403290Y19404503D01*
X419702552Y19404503D01*
X419667511Y18979683D01*
X419570976Y18501616D01*
X419440121Y18100086D01*
X419302117Y17904876D01*
X419283604Y17901399D01*
X419033363Y18027366D01*
X418691985Y18340565D01*
X418597258Y18447894D01*
X418305280Y18830801D01*
X418146847Y19108450D01*
X418137412Y19151254D01*
X418288971Y19288437D01*
X418652873Y19449907D01*
X419092962Y19591070D01*
X419473079Y19667332D01*
X419648928Y19646294D01*
X419702552Y19404503D01*
X420403290Y19404503D01*
X420446503Y19652799D01*
X420504503Y20039130D01*
X420645818Y20209952D01*
X420655088Y20210490D01*
X420677400Y20271524D01*
X419733588Y20271524D01*
X419599674Y20149859D01*
X419255609Y20191786D01*
X418795352Y20377279D01*
X418537063Y20526546D01*
X418203422Y20810467D01*
X418183240Y21005425D01*
X418476519Y21074688D01*
X418537063Y21072577D01*
X418993586Y21108292D01*
X419224209Y21173424D01*
X419478338Y21126379D01*
X419661557Y20796487D01*
X419733588Y20271524D01*
X420677400Y20271524D01*
X420694376Y20317957D01*
X420514780Y20580775D01*
X420477465Y20621588D01*
X420172235Y21033363D01*
X420107324Y21331466D01*
X420294521Y21455937D01*
X420313286Y21456566D01*
X420405751Y21517973D01*
X420268881Y21631469D01*
X420156649Y21752614D01*
X420348570Y21804747D01*
X420535314Y21811773D01*
X420876731Y21832803D01*
X420900950Y21904780D01*
X420739733Y22010796D01*
X420323887Y22119958D01*
X419912093Y22101860D01*
X419481989Y22097202D01*
X419313599Y22260801D01*
X419112494Y22491604D01*
X419009350Y22519581D01*
X418900287Y22448758D01*
X419019067Y22260928D01*
X419152489Y21968834D01*
X419131801Y21837351D01*
X418880364Y21682458D01*
X418393323Y21540950D01*
X417789971Y21441926D01*
X417397402Y21414272D01*
X417074623Y21373684D01*
X417044348Y21226242D01*
X417129290Y21072356D01*
X417344259Y20809089D01*
X417460498Y20743357D01*
X417663035Y20633688D01*
X417993635Y20365130D01*
X418043281Y20319788D01*
X418500320Y19896218D01*
X417874810Y19778872D01*
X417409333Y19651716D01*
X417268632Y19478406D01*
X417422239Y19212100D01*
X417471328Y19158538D01*
X417582742Y19013887D01*
X417438394Y19057009D01*
X417293706Y19129263D01*
X417030344Y19372394D01*
X416899524Y19687744D01*
X416929338Y19948573D01*
X417093427Y20032867D01*
X417197419Y20117191D01*
X417113937Y20254895D01*
X416952773Y20577731D01*
X416813198Y21046948D01*
X416811301Y21055746D01*
X416686722Y21416242D01*
X416543546Y21541413D01*
X416524357Y21533725D01*
X416397853Y21554545D01*
X416333563Y21839455D01*
X416325329Y22426097D01*
X416334056Y22697203D01*
X416342386Y23090373D01*
X416304520Y23158308D01*
X416193076Y22930519D01*
X416169240Y22874825D01*
X416071584Y22399893D01*
X416054096Y21733250D01*
X416110281Y21027699D01*
X416233642Y20436039D01*
X416278076Y20314569D01*
X416340103Y20081046D01*
X416197634Y20112991D01*
X416194722Y20114784D01*
X416049762Y20142857D01*
X416080049Y19904101D01*
X416100910Y19835851D01*
X416221594Y19074176D01*
X416202743Y18273520D01*
X416130021Y18144113D01*
X415910133Y18274011D01*
X415820677Y18352372D01*
X415575709Y18552347D01*
X415531132Y18504422D01*
X415568274Y18392862D01*
X415583503Y18189610D01*
X415345168Y18192589D01*
X415304504Y18202811D01*
X415022862Y18392237D01*
X415010779Y18589502D01*
X415098783Y18958232D01*
X415137487Y19144756D01*
X414762587Y19144756D01*
X414697598Y18998552D01*
X414644172Y19026341D01*
X414622914Y19237137D01*
X414644172Y19263170D01*
X414749768Y19238788D01*
X414762587Y19144756D01*
X415137487Y19144756D01*
X415203429Y19462538D01*
X415210666Y19500000D01*
X415275558Y19890133D01*
X415242291Y19977136D01*
X415089350Y19804757D01*
X415071990Y19781979D01*
X414741694Y19545410D01*
X414416368Y19628566D01*
X414238393Y19897590D01*
X413580920Y19897590D01*
X413551325Y19598646D01*
X413326747Y19539963D01*
X413263128Y19560269D01*
X412931940Y19549439D01*
X412792633Y19486287D01*
X412554628Y19347086D01*
X412502342Y19325098D01*
X412503078Y19411189D01*
X411387762Y19411189D01*
X411298951Y19322378D01*
X411210139Y19411189D01*
X411298951Y19500000D01*
X411387762Y19411189D01*
X412503078Y19411189D01*
X412503632Y19475923D01*
X412559916Y19847796D01*
X412569368Y19899651D01*
X412710096Y20377025D01*
X412898448Y20715261D01*
X412898825Y20715666D01*
X413075046Y20821222D01*
X413246593Y20672181D01*
X413406221Y20383252D01*
X413580920Y19897590D01*
X414238393Y19897590D01*
X414168991Y20002496D01*
X414122891Y20158478D01*
X413911009Y20664947D01*
X413633791Y21063551D01*
X413398085Y21367001D01*
X413408387Y21545495D01*
X413523885Y21638104D01*
X413669697Y21776028D01*
X413624918Y21806371D01*
X413609834Y21919517D01*
X413797008Y22188536D01*
X413802540Y22194868D01*
X413956719Y22415896D01*
X413876365Y22435417D01*
X413607853Y22269388D01*
X413297202Y22020978D01*
X413035803Y21854405D01*
X412800098Y21933210D01*
X412631118Y22075525D01*
X412357759Y22246082D01*
X412275466Y22165872D01*
X412429184Y21907930D01*
X412489021Y21844616D01*
X412610710Y21602909D01*
X412489021Y21418322D01*
X412328295Y21089635D01*
X412275874Y20718315D01*
X412215314Y20321277D01*
X412074303Y20111321D01*
X411913839Y20156751D01*
X411861011Y20253789D01*
X411795093Y20266111D01*
X411757841Y19991897D01*
X411757029Y19966713D01*
X411720303Y19628595D01*
X411601483Y19588740D01*
X411475358Y19678631D01*
X411412618Y19752348D01*
X410455270Y19752348D01*
X410453869Y19712076D01*
X410370135Y19205771D01*
X410109574Y18810932D01*
X409797196Y18534328D01*
X409167482Y18032615D01*
X409700349Y18157199D01*
X410042106Y18215984D01*
X410090958Y18148829D01*
X410020220Y18065097D01*
X409713353Y17890479D01*
X409230932Y17738647D01*
X409132108Y17717710D01*
X408470890Y17600126D01*
X408083689Y17580713D01*
X407897485Y17681726D01*
X407839258Y17925423D01*
X407835314Y18112970D01*
X407848347Y18482787D01*
X407920244Y18539776D01*
X408093636Y18334998D01*
X408257111Y18141614D01*
X408305426Y18202752D01*
X408262622Y18563116D01*
X408252283Y18630009D01*
X408222596Y19091073D01*
X408343325Y19325496D01*
X408460531Y19387969D01*
X408843791Y19383969D01*
X409039201Y19281428D01*
X409191882Y19191654D01*
X409256617Y19298241D01*
X409249086Y19662415D01*
X409220384Y19988853D01*
X409208718Y20611167D01*
X409255257Y20737785D01*
X408549885Y20737785D01*
X408540908Y20288712D01*
X408477929Y19909643D01*
X408365707Y19723684D01*
X408323776Y19723739D01*
X408172350Y19934775D01*
X408097634Y20349483D01*
X408096223Y20404625D01*
X408127732Y21049439D01*
X408238350Y21353257D01*
X408386794Y21353532D01*
X408500100Y21133760D01*
X408549885Y20737785D01*
X409255257Y20737785D01*
X409319771Y20913306D01*
X409547736Y20888476D01*
X409789160Y20654546D01*
X410086582Y20429082D01*
X410245554Y20388112D01*
X410412930Y20231085D01*
X410455270Y19752348D01*
X411412618Y19752348D01*
X411197949Y20004574D01*
X410985278Y20364846D01*
X410664720Y20777129D01*
X410231598Y21092422D01*
X409700349Y21355911D01*
X410322028Y21462480D01*
X410943706Y21569048D01*
X410451963Y21709149D01*
X409925930Y21787235D01*
X409536085Y21768172D01*
X409222562Y21770000D01*
X409049781Y21993145D01*
X408978608Y22236554D01*
X408845264Y22786014D01*
X408727403Y22075525D01*
X408646790Y21640586D01*
X408578147Y21519919D01*
X408480472Y21676521D01*
X408426129Y21803631D01*
X408242716Y22242226D01*
X407971607Y21724797D01*
X407700498Y21207367D01*
X407404714Y23141259D01*
X407299915Y22075525D01*
X407266198Y21503309D01*
X407284510Y21093650D01*
X407337593Y20950583D01*
X407447650Y20748821D01*
X407480070Y20465930D01*
X407447313Y20176063D01*
X407279380Y20144124D01*
X407031755Y20244749D01*
X406654511Y20559314D01*
X406475577Y20907025D01*
X406266900Y21407062D01*
X406050255Y21720280D01*
X405780882Y22140882D01*
X405564017Y22672044D01*
X405556719Y22697203D01*
X405380640Y23318881D01*
X405364620Y22574469D01*
G36*
X388664038Y23380361D02*
G01*
X388513879Y23046911D01*
X388333387Y22511532D01*
X388227295Y22137005D01*
X388082189Y21607813D01*
X387985574Y21381844D01*
X387899869Y21417660D01*
X387793466Y21658620D01*
X387597300Y22043049D01*
X387426011Y22242474D01*
X387371397Y22173704D01*
X387452129Y21866608D01*
X387513547Y21709396D01*
X387682969Y21093483D01*
X387732434Y20462935D01*
X387729261Y20415053D01*
X387643702Y19957478D01*
X387413303Y19709138D01*
X387067212Y19569931D01*
X386459250Y19373428D01*
X387111618Y19251043D01*
X387506694Y19157939D01*
X387698129Y19001849D01*
X387760299Y18674001D01*
X387766706Y18293001D01*
X387793878Y17814098D01*
X387866852Y17649052D01*
X387919685Y17694386D01*
X388060979Y17750611D01*
X388187229Y17506533D01*
X388279255Y17017070D01*
X388312609Y16569231D01*
X388333216Y16036364D01*
X388468927Y16607299D01*
X388549050Y17057538D01*
X388554895Y17518976D01*
X388481283Y18115863D01*
X388383274Y18662120D01*
X388255131Y19334029D01*
X388982014Y19283798D01*
X389431294Y19233875D01*
X389661082Y19098168D01*
X389773415Y18774819D01*
X389828289Y18439026D01*
X389859988Y17753986D01*
X389787601Y17062535D01*
X389757186Y16930796D01*
X389635515Y16395091D01*
X389636791Y16184102D01*
X389752935Y16303308D01*
X389975874Y16758194D01*
X389984019Y16776834D01*
X390215373Y17291273D01*
X390415548Y17709829D01*
X390449791Y17776239D01*
X390534428Y18164610D01*
X390510034Y18674197D01*
X390503902Y18708757D01*
X390450150Y19118614D01*
X390541292Y19288198D01*
X390837970Y19322345D01*
X390858859Y19322378D01*
X391181510Y19356466D01*
X391217457Y19511615D01*
X391145060Y19665946D01*
X391134207Y19699798D01*
X390915036Y19699798D01*
X390784919Y19784929D01*
X390761525Y19807879D01*
X390621224Y20040763D01*
X390640248Y20126379D01*
X390772376Y20073075D01*
X390860957Y19907311D01*
X390915036Y19699798D01*
X391134207Y19699798D01*
X391001749Y20112915D01*
X390961188Y20486995D01*
X390995705Y20804969D01*
X391126403Y20820951D01*
X391196324Y20769332D01*
X391473555Y20670160D01*
X391628440Y20771168D01*
X391885939Y20878402D01*
X392163906Y20833038D01*
X392316602Y20680536D01*
X392292341Y20564092D01*
X392098736Y20448094D01*
X392045195Y20465630D01*
X391998293Y20351257D01*
X392007831Y19970783D01*
X392066494Y19447199D01*
X392159344Y18761963D01*
X392201662Y18273651D01*
X392193280Y17833599D01*
X392134030Y17293146D01*
X392063480Y16784537D01*
X391998779Y16102228D01*
X392045171Y15705482D01*
X392126843Y15583088D01*
X392248907Y15584784D01*
X392346577Y15846289D01*
X392431979Y16407880D01*
X392462798Y16698783D01*
X392534238Y17345471D01*
X392599395Y17684864D01*
X392675762Y17764116D01*
X392780829Y17630379D01*
X392797229Y17600331D01*
X392920021Y17409404D01*
X392979485Y17466940D01*
X392994618Y17817102D01*
X392992438Y18054169D01*
X392964494Y18588477D01*
X392907770Y18974404D01*
X392875663Y19064761D01*
X392831830Y19330440D01*
X392841394Y19807660D01*
X392864456Y20062354D01*
X392962525Y20606500D01*
X393129232Y20889792D01*
X393333017Y20988852D01*
X393755366Y20997169D01*
X393938526Y20749138D01*
X393874296Y20258305D01*
X393838787Y20153357D01*
X393676725Y19598254D01*
X393633890Y19200896D01*
X393712775Y19031012D01*
X393799476Y19053676D01*
X394074333Y19061554D01*
X394356339Y18956255D01*
X394599955Y18762295D01*
X394525955Y18619502D01*
X394407473Y18377708D01*
X394308926Y17854886D01*
X394244037Y17125199D01*
X394241911Y17084398D01*
X394171164Y15681119D01*
X394392446Y16550871D01*
X394527470Y17049555D01*
X394622440Y17246213D01*
X394719196Y17184495D01*
X394818094Y16994927D01*
X394947997Y16753269D01*
X395009803Y16777965D01*
X395033054Y17107432D01*
X395037100Y17279721D01*
X395137150Y18022179D01*
X395379320Y18590836D01*
X395726293Y18907329D01*
X395826895Y18938229D01*
X396051775Y18919283D01*
X396023027Y18788865D01*
X395992737Y18664060D01*
X396212237Y18748129D01*
X396241955Y18763873D01*
X396451808Y18839878D01*
X396590237Y18742700D01*
X396707345Y18405635D01*
X396795680Y18026699D01*
X396924735Y17404971D01*
X397025073Y16859004D01*
X397055507Y16658042D01*
X397101685Y16402961D01*
X397163808Y16438175D01*
X397276243Y16789596D01*
X397288998Y16834099D01*
X397433358Y17236316D01*
X397639567Y17397393D01*
X398040274Y17404294D01*
X398145597Y17395675D01*
X398685105Y17415150D01*
X398968760Y17569720D01*
X399140377Y17741252D01*
X399225882Y17636545D01*
X399200872Y17329203D01*
X399127533Y17090828D01*
X399009837Y16754218D01*
X399052772Y16705762D01*
X399270194Y16888959D01*
X399560869Y17075339D01*
X399723505Y17072882D01*
X399816031Y17121488D01*
X399842307Y17330879D01*
X399925770Y17605541D01*
X400233639Y17771034D01*
X400322299Y17791710D01*
X398564111Y17791710D01*
X398307946Y17733412D01*
X397996276Y17723777D01*
X397493703Y17808873D01*
X397285786Y18004737D01*
X397194046Y18364155D01*
X397189935Y18650037D01*
X397269243Y18744554D01*
X397311188Y18715501D01*
X397441997Y18425825D01*
X397444405Y18386350D01*
X397597660Y18214025D01*
X397971647Y18054527D01*
X398021678Y18040828D01*
X398468881Y17896581D01*
X398564111Y17791710D01*
X400322299Y17791710D01*
X400508391Y17835107D01*
X401174475Y17962536D01*
X400597202Y18114668D01*
X400156358Y18314180D01*
X400019930Y18616967D01*
X400132192Y18902267D01*
X400286363Y18967133D01*
X400522883Y18881317D01*
X400552797Y18808514D01*
X400693749Y18613075D01*
X400810185Y18551127D01*
X400987853Y18555855D01*
X400957544Y18754151D01*
X400966768Y18873689D01*
X401183617Y18708620D01*
X401280821Y18611888D01*
X401743208Y18121098D01*
X401988434Y17772363D01*
X402052651Y17458677D01*
X401972013Y17073036D01*
X401887484Y16816309D01*
X401740847Y16365766D01*
X401716679Y16204996D01*
X401814884Y16290337D01*
X401886525Y16381152D01*
X402091190Y16693322D01*
X402151398Y16850610D01*
X402286273Y17050587D01*
X402604026Y17084228D01*
X402974345Y16952863D01*
X403122976Y16840686D01*
X403488678Y16545419D01*
X403668575Y16509989D01*
X403641583Y16733894D01*
X403656278Y16911139D01*
X403943112Y16909364D01*
X403957997Y16906506D01*
X404232052Y16858744D01*
X404190764Y16901701D01*
X403932552Y17017156D01*
X403362933Y17374850D01*
X402993198Y17824324D01*
X402863496Y18288686D01*
X403013976Y18691043D01*
X403042610Y18721562D01*
X403261791Y19090638D01*
X403404734Y19593889D01*
X403432573Y20058375D01*
X403412157Y20132479D01*
X402685150Y20132479D01*
X402669214Y19580754D01*
X402599492Y19040017D01*
X402485203Y18621326D01*
X402335563Y18435740D01*
X402320399Y18434266D01*
X402135563Y18566517D01*
X401854627Y18895590D01*
X401770259Y19011539D01*
X401478762Y19394237D01*
X401259310Y19626171D01*
X401225297Y19648019D01*
X401088023Y19858536D01*
X401199906Y20194355D01*
X401440909Y20476923D01*
X401698147Y20691227D01*
X401786508Y20659322D01*
X401796153Y20464931D01*
X401818942Y20259279D01*
X401928879Y20330396D01*
X402074740Y20529184D01*
X402330114Y20786558D01*
X402518796Y20824657D01*
X402638084Y20584133D01*
X402685150Y20132479D01*
X403412157Y20132479D01*
X403383273Y20237315D01*
X403240808Y20607776D01*
X403146218Y20995120D01*
X403110828Y21309825D01*
X403219136Y21437698D01*
X403559636Y21440521D01*
X403758526Y21422591D01*
X404199470Y21390975D01*
X404443400Y21393757D01*
X404460489Y21402363D01*
X404312446Y21510075D01*
X403960781Y21662651D01*
X403544193Y21810003D01*
X403201381Y21902041D01*
X403074206Y21902995D01*
X402910179Y21949934D01*
X402733062Y22122691D01*
X402582078Y22278042D01*
X402592765Y22208742D01*
X402591205Y22011973D01*
X402517126Y21986714D01*
X402330988Y22084821D01*
X402322633Y22119930D01*
X402213361Y22329308D01*
X401949996Y22683153D01*
X401864754Y22786014D01*
X401413263Y23318881D01*
X401782331Y22571062D01*
X402002137Y22094646D01*
X402134236Y21748435D01*
X402151398Y21666515D01*
X402009532Y21490740D01*
X401656363Y21246484D01*
X401529720Y21174991D01*
X401134451Y20914974D01*
X400920507Y20682470D01*
X400908042Y20634870D01*
X400759210Y20431372D01*
X400539508Y20333171D01*
X400284420Y20205082D01*
X400322525Y19956888D01*
X400358632Y19886154D01*
X400451148Y19586506D01*
X400283110Y19434519D01*
X400092725Y19424315D01*
X400027688Y19625669D01*
X400079296Y20091867D01*
X400130944Y20365909D01*
X400300894Y20789120D01*
X400530594Y20935469D01*
X400581780Y21002443D01*
X400352496Y21151198D01*
X400242319Y21202264D01*
X399703320Y21595317D01*
X399400900Y22031481D01*
X399136392Y22608392D01*
X399227276Y22075525D01*
X399257298Y21703122D01*
X399112411Y21564732D01*
X398825339Y21548952D01*
X398299277Y21633795D01*
X397944544Y21770980D01*
X397597359Y21924563D01*
X397323557Y21986996D01*
X397210436Y21952630D01*
X397345293Y21815816D01*
X397355594Y21809091D01*
X397506941Y21673720D01*
X397333957Y21626247D01*
X397266783Y21622930D01*
X397037157Y21599396D01*
X397122208Y21527317D01*
X397311188Y21448311D01*
X397620301Y21223923D01*
X397710839Y21015514D01*
X397812752Y20774337D01*
X398007759Y20789174D01*
X398100826Y20936395D01*
X398316810Y21046635D01*
X398813224Y21007839D01*
X398824480Y21005745D01*
X399255018Y20896964D01*
X399429613Y20718181D01*
X399445173Y20358224D01*
X399441020Y20298464D01*
X399386199Y19910245D01*
X399224379Y19774729D01*
X398840047Y19805291D01*
X398793363Y19812779D01*
X398394965Y19831054D01*
X398305066Y19728824D01*
X398512558Y19540669D01*
X398950384Y19323957D01*
X399373309Y19041052D01*
X399487063Y18701677D01*
X399444885Y18453354D01*
X399256293Y18331924D01*
X398828192Y18289322D01*
X398681061Y18285519D01*
X398160278Y18303286D01*
X397869453Y18418791D01*
X397686183Y18684595D01*
X397669831Y18719768D01*
X397554263Y19085479D01*
X397655366Y19285963D01*
X397691547Y19310455D01*
X397782977Y19442904D01*
X397556320Y19545424D01*
X397234677Y19791051D01*
X397186613Y19897590D01*
X396529171Y19897590D01*
X396499577Y19598646D01*
X396274998Y19539963D01*
X396211380Y19560269D01*
X395880192Y19549439D01*
X395740885Y19486287D01*
X395502880Y19347086D01*
X395450594Y19325098D01*
X395451884Y19475923D01*
X395508168Y19847796D01*
X395517620Y19899651D01*
X395658348Y20377025D01*
X395750257Y20542073D01*
X395217059Y20542073D01*
X395131925Y20206481D01*
X395061674Y20131055D01*
X394863117Y20168402D01*
X394809263Y20253789D01*
X394750650Y20244229D01*
X394711471Y19952956D01*
X394705281Y19791836D01*
X394667598Y19350440D01*
X394555619Y19192460D01*
X394410297Y19214563D01*
X394064970Y19310623D01*
X393955759Y19322378D01*
X393864048Y19432437D01*
X393893748Y19502898D01*
X394100984Y19608957D01*
X394161690Y19586773D01*
X394292064Y19673882D01*
X394414001Y20012296D01*
X394433315Y20104466D01*
X394552206Y20515059D01*
X394726876Y20634652D01*
X394841940Y20609013D01*
X395035368Y20561075D01*
X394970455Y20699168D01*
X394887975Y20803204D01*
X394737617Y21099253D01*
X394807650Y21255134D01*
X395034686Y21194716D01*
X395183003Y20936212D01*
X395217059Y20542073D01*
X395750257Y20542073D01*
X395846700Y20715261D01*
X395847076Y20715666D01*
X396023298Y20821222D01*
X396194845Y20672181D01*
X396354472Y20383252D01*
X396529171Y19897590D01*
X397186613Y19897590D01*
X397073938Y20147340D01*
X396859297Y20663323D01*
X396582043Y21063551D01*
X396346337Y21367001D01*
X396356638Y21545495D01*
X396472137Y21638104D01*
X396617949Y21776028D01*
X396573170Y21806371D01*
X396558086Y21919517D01*
X396745260Y22188536D01*
X396750792Y22194868D01*
X396904971Y22415896D01*
X396824617Y22435417D01*
X396556105Y22269388D01*
X396245454Y22020978D01*
X395984054Y21854405D01*
X395748350Y21933210D01*
X395579370Y22075525D01*
X395306011Y22246082D01*
X395223718Y22165872D01*
X395377436Y21907930D01*
X395437272Y21844616D01*
X395547592Y21585636D01*
X395383300Y21403801D01*
X395024940Y21368347D01*
X394910223Y21391569D01*
X394601039Y21514468D01*
X394512754Y21607780D01*
X394410094Y21805520D01*
X394156626Y22154914D01*
X394078170Y22253147D01*
X393644469Y22786014D01*
X393679402Y22257560D01*
X393643817Y21874553D01*
X393507109Y21724693D01*
X393202826Y21617786D01*
X393166666Y21587063D01*
X392918397Y21457925D01*
X392774345Y21664303D01*
X392737412Y22075525D01*
X392688997Y22540957D01*
X392571389Y22676933D01*
X392426044Y22491570D01*
X392294418Y21992984D01*
X392293683Y21988645D01*
X392205860Y21571916D01*
X392073576Y21408615D01*
X391815324Y21481947D01*
X391718879Y21542658D01*
X390250699Y21542658D01*
X390161888Y21453846D01*
X390073077Y21542658D01*
X390161888Y21631469D01*
X390250699Y21542658D01*
X391718879Y21542658D01*
X391349597Y21775114D01*
X391327855Y21789606D01*
X391163854Y21961011D01*
X391260163Y22183718D01*
X391327855Y22268690D01*
X391482904Y22477155D01*
X391388741Y22470085D01*
X391183216Y22364789D01*
X390868680Y22262262D01*
X390785349Y22418805D01*
X390930563Y22841590D01*
X390973110Y22930908D01*
X391070376Y23154186D01*
X390999067Y23111087D01*
X390799437Y22874825D01*
X390542964Y22492660D01*
X390432328Y22192159D01*
X390432271Y22189738D01*
X390303575Y22028990D01*
X390172746Y22046780D01*
X389953513Y21994756D01*
X389844115Y21666133D01*
X389796677Y21526642D01*
X389754223Y21719837D01*
X389729178Y22075525D01*
X389695584Y22560748D01*
X389648616Y22721896D01*
X389575955Y22590138D01*
X389553682Y22519581D01*
X389499067Y22097881D01*
X389500796Y21485756D01*
X389535478Y21039888D01*
X389592637Y20463617D01*
X389583337Y20162652D01*
X389483716Y20059618D01*
X389269914Y20077139D01*
X389240305Y20082739D01*
X388926439Y20088106D01*
X388829720Y20008236D01*
X388685497Y19872399D01*
X388563286Y19855245D01*
X388339674Y19987289D01*
X388309983Y20267743D01*
X388414353Y20446405D01*
X388482538Y20675340D01*
X388536462Y21144625D01*
X388558812Y21586149D01*
X388597666Y22259537D01*
X388667836Y22871696D01*
X388718956Y23141259D01*
X388784943Y23466114D01*
X388734253Y23480200D01*
X388664038Y23380361D01*
G37*
X388664038Y23380361D02*
X388513879Y23046911D01*
X388333387Y22511532D01*
X388227295Y22137005D01*
X388082189Y21607813D01*
X387985574Y21381844D01*
X387899869Y21417660D01*
X387793466Y21658620D01*
X387597300Y22043049D01*
X387426011Y22242474D01*
X387371397Y22173704D01*
X387452129Y21866608D01*
X387513547Y21709396D01*
X387682969Y21093483D01*
X387732434Y20462935D01*
X387729261Y20415053D01*
X387643702Y19957478D01*
X387413303Y19709138D01*
X387067212Y19569931D01*
X386459250Y19373428D01*
X387111618Y19251043D01*
X387506694Y19157939D01*
X387698129Y19001849D01*
X387760299Y18674001D01*
X387766706Y18293001D01*
X387793878Y17814098D01*
X387866852Y17649052D01*
X387919685Y17694386D01*
X388060979Y17750611D01*
X388187229Y17506533D01*
X388279255Y17017070D01*
X388312609Y16569231D01*
X388333216Y16036364D01*
X388468927Y16607299D01*
X388549050Y17057538D01*
X388554895Y17518976D01*
X388481283Y18115863D01*
X388383274Y18662120D01*
X388255131Y19334029D01*
X388982014Y19283798D01*
X389431294Y19233875D01*
X389661082Y19098168D01*
X389773415Y18774819D01*
X389828289Y18439026D01*
X389859988Y17753986D01*
X389787601Y17062535D01*
X389757186Y16930796D01*
X389635515Y16395091D01*
X389636791Y16184102D01*
X389752935Y16303308D01*
X389975874Y16758194D01*
X389984019Y16776834D01*
X390215373Y17291273D01*
X390415548Y17709829D01*
X390449791Y17776239D01*
X390534428Y18164610D01*
X390510034Y18674197D01*
X390503902Y18708757D01*
X390450150Y19118614D01*
X390541292Y19288198D01*
X390837970Y19322345D01*
X390858859Y19322378D01*
X391181510Y19356466D01*
X391217457Y19511615D01*
X391145060Y19665946D01*
X391134207Y19699798D01*
X390915036Y19699798D01*
X390784919Y19784929D01*
X390761525Y19807879D01*
X390621224Y20040763D01*
X390640248Y20126379D01*
X390772376Y20073075D01*
X390860957Y19907311D01*
X390915036Y19699798D01*
X391134207Y19699798D01*
X391001749Y20112915D01*
X390961188Y20486995D01*
X390995705Y20804969D01*
X391126403Y20820951D01*
X391196324Y20769332D01*
X391473555Y20670160D01*
X391628440Y20771168D01*
X391885939Y20878402D01*
X392163906Y20833038D01*
X392316602Y20680536D01*
X392292341Y20564092D01*
X392098736Y20448094D01*
X392045195Y20465630D01*
X391998293Y20351257D01*
X392007831Y19970783D01*
X392066494Y19447199D01*
X392159344Y18761963D01*
X392201662Y18273651D01*
X392193280Y17833599D01*
X392134030Y17293146D01*
X392063480Y16784537D01*
X391998779Y16102228D01*
X392045171Y15705482D01*
X392126843Y15583088D01*
X392248907Y15584784D01*
X392346577Y15846289D01*
X392431979Y16407880D01*
X392462798Y16698783D01*
X392534238Y17345471D01*
X392599395Y17684864D01*
X392675762Y17764116D01*
X392780829Y17630379D01*
X392797229Y17600331D01*
X392920021Y17409404D01*
X392979485Y17466940D01*
X392994618Y17817102D01*
X392992438Y18054169D01*
X392964494Y18588477D01*
X392907770Y18974404D01*
X392875663Y19064761D01*
X392831830Y19330440D01*
X392841394Y19807660D01*
X392864456Y20062354D01*
X392962525Y20606500D01*
X393129232Y20889792D01*
X393333017Y20988852D01*
X393755366Y20997169D01*
X393938526Y20749138D01*
X393874296Y20258305D01*
X393838787Y20153357D01*
X393676725Y19598254D01*
X393633890Y19200896D01*
X393712775Y19031012D01*
X393799476Y19053676D01*
X394074333Y19061554D01*
X394356339Y18956255D01*
X394599955Y18762295D01*
X394525955Y18619502D01*
X394407473Y18377708D01*
X394308926Y17854886D01*
X394244037Y17125199D01*
X394241911Y17084398D01*
X394171164Y15681119D01*
X394392446Y16550871D01*
X394527470Y17049555D01*
X394622440Y17246213D01*
X394719196Y17184495D01*
X394818094Y16994927D01*
X394947997Y16753269D01*
X395009803Y16777965D01*
X395033054Y17107432D01*
X395037100Y17279721D01*
X395137150Y18022179D01*
X395379320Y18590836D01*
X395726293Y18907329D01*
X395826895Y18938229D01*
X396051775Y18919283D01*
X396023027Y18788865D01*
X395992737Y18664060D01*
X396212237Y18748129D01*
X396241955Y18763873D01*
X396451808Y18839878D01*
X396590237Y18742700D01*
X396707345Y18405635D01*
X396795680Y18026699D01*
X396924735Y17404971D01*
X397025073Y16859004D01*
X397055507Y16658042D01*
X397101685Y16402961D01*
X397163808Y16438175D01*
X397276243Y16789596D01*
X397288998Y16834099D01*
X397433358Y17236316D01*
X397639567Y17397393D01*
X398040274Y17404294D01*
X398145597Y17395675D01*
X398685105Y17415150D01*
X398968760Y17569720D01*
X399140377Y17741252D01*
X399225882Y17636545D01*
X399200872Y17329203D01*
X399127533Y17090828D01*
X399009837Y16754218D01*
X399052772Y16705762D01*
X399270194Y16888959D01*
X399560869Y17075339D01*
X399723505Y17072882D01*
X399816031Y17121488D01*
X399842307Y17330879D01*
X399925770Y17605541D01*
X400233639Y17771034D01*
X400322299Y17791710D01*
X398564111Y17791710D01*
X398307946Y17733412D01*
X397996276Y17723777D01*
X397493703Y17808873D01*
X397285786Y18004737D01*
X397194046Y18364155D01*
X397189935Y18650037D01*
X397269243Y18744554D01*
X397311188Y18715501D01*
X397441997Y18425825D01*
X397444405Y18386350D01*
X397597660Y18214025D01*
X397971647Y18054527D01*
X398021678Y18040828D01*
X398468881Y17896581D01*
X398564111Y17791710D01*
X400322299Y17791710D01*
X400508391Y17835107D01*
X401174475Y17962536D01*
X400597202Y18114668D01*
X400156358Y18314180D01*
X400019930Y18616967D01*
X400132192Y18902267D01*
X400286363Y18967133D01*
X400522883Y18881317D01*
X400552797Y18808514D01*
X400693749Y18613075D01*
X400810185Y18551127D01*
X400987853Y18555855D01*
X400957544Y18754151D01*
X400966768Y18873689D01*
X401183617Y18708620D01*
X401280821Y18611888D01*
X401743208Y18121098D01*
X401988434Y17772363D01*
X402052651Y17458677D01*
X401972013Y17073036D01*
X401887484Y16816309D01*
X401740847Y16365766D01*
X401716679Y16204996D01*
X401814884Y16290337D01*
X401886525Y16381152D01*
X402091190Y16693322D01*
X402151398Y16850610D01*
X402286273Y17050587D01*
X402604026Y17084228D01*
X402974345Y16952863D01*
X403122976Y16840686D01*
X403488678Y16545419D01*
X403668575Y16509989D01*
X403641583Y16733894D01*
X403656278Y16911139D01*
X403943112Y16909364D01*
X403957997Y16906506D01*
X404232052Y16858744D01*
X404190764Y16901701D01*
X403932552Y17017156D01*
X403362933Y17374850D01*
X402993198Y17824324D01*
X402863496Y18288686D01*
X403013976Y18691043D01*
X403042610Y18721562D01*
X403261791Y19090638D01*
X403404734Y19593889D01*
X403432573Y20058375D01*
X403412157Y20132479D01*
X402685150Y20132479D01*
X402669214Y19580754D01*
X402599492Y19040017D01*
X402485203Y18621326D01*
X402335563Y18435740D01*
X402320399Y18434266D01*
X402135563Y18566517D01*
X401854627Y18895590D01*
X401770259Y19011539D01*
X401478762Y19394237D01*
X401259310Y19626171D01*
X401225297Y19648019D01*
X401088023Y19858536D01*
X401199906Y20194355D01*
X401440909Y20476923D01*
X401698147Y20691227D01*
X401786508Y20659322D01*
X401796153Y20464931D01*
X401818942Y20259279D01*
X401928879Y20330396D01*
X402074740Y20529184D01*
X402330114Y20786558D01*
X402518796Y20824657D01*
X402638084Y20584133D01*
X402685150Y20132479D01*
X403412157Y20132479D01*
X403383273Y20237315D01*
X403240808Y20607776D01*
X403146218Y20995120D01*
X403110828Y21309825D01*
X403219136Y21437698D01*
X403559636Y21440521D01*
X403758526Y21422591D01*
X404199470Y21390975D01*
X404443400Y21393757D01*
X404460489Y21402363D01*
X404312446Y21510075D01*
X403960781Y21662651D01*
X403544193Y21810003D01*
X403201381Y21902041D01*
X403074206Y21902995D01*
X402910179Y21949934D01*
X402733062Y22122691D01*
X402582078Y22278042D01*
X402592765Y22208742D01*
X402591205Y22011973D01*
X402517126Y21986714D01*
X402330988Y22084821D01*
X402322633Y22119930D01*
X402213361Y22329308D01*
X401949996Y22683153D01*
X401864754Y22786014D01*
X401413263Y23318881D01*
X401782331Y22571062D01*
X402002137Y22094646D01*
X402134236Y21748435D01*
X402151398Y21666515D01*
X402009532Y21490740D01*
X401656363Y21246484D01*
X401529720Y21174991D01*
X401134451Y20914974D01*
X400920507Y20682470D01*
X400908042Y20634870D01*
X400759210Y20431372D01*
X400539508Y20333171D01*
X400284420Y20205082D01*
X400322525Y19956888D01*
X400358632Y19886154D01*
X400451148Y19586506D01*
X400283110Y19434519D01*
X400092725Y19424315D01*
X400027688Y19625669D01*
X400079296Y20091867D01*
X400130944Y20365909D01*
X400300894Y20789120D01*
X400530594Y20935469D01*
X400581780Y21002443D01*
X400352496Y21151198D01*
X400242319Y21202264D01*
X399703320Y21595317D01*
X399400900Y22031481D01*
X399136392Y22608392D01*
X399227276Y22075525D01*
X399257298Y21703122D01*
X399112411Y21564732D01*
X398825339Y21548952D01*
X398299277Y21633795D01*
X397944544Y21770980D01*
X397597359Y21924563D01*
X397323557Y21986996D01*
X397210436Y21952630D01*
X397345293Y21815816D01*
X397355594Y21809091D01*
X397506941Y21673720D01*
X397333957Y21626247D01*
X397266783Y21622930D01*
X397037157Y21599396D01*
X397122208Y21527317D01*
X397311188Y21448311D01*
X397620301Y21223923D01*
X397710839Y21015514D01*
X397812752Y20774337D01*
X398007759Y20789174D01*
X398100826Y20936395D01*
X398316810Y21046635D01*
X398813224Y21007839D01*
X398824480Y21005745D01*
X399255018Y20896964D01*
X399429613Y20718181D01*
X399445173Y20358224D01*
X399441020Y20298464D01*
X399386199Y19910245D01*
X399224379Y19774729D01*
X398840047Y19805291D01*
X398793363Y19812779D01*
X398394965Y19831054D01*
X398305066Y19728824D01*
X398512558Y19540669D01*
X398950384Y19323957D01*
X399373309Y19041052D01*
X399487063Y18701677D01*
X399444885Y18453354D01*
X399256293Y18331924D01*
X398828192Y18289322D01*
X398681061Y18285519D01*
X398160278Y18303286D01*
X397869453Y18418791D01*
X397686183Y18684595D01*
X397669831Y18719768D01*
X397554263Y19085479D01*
X397655366Y19285963D01*
X397691547Y19310455D01*
X397782977Y19442904D01*
X397556320Y19545424D01*
X397234677Y19791051D01*
X397186613Y19897590D01*
X396529171Y19897590D01*
X396499577Y19598646D01*
X396274998Y19539963D01*
X396211380Y19560269D01*
X395880192Y19549439D01*
X395740885Y19486287D01*
X395502880Y19347086D01*
X395450594Y19325098D01*
X395451884Y19475923D01*
X395508168Y19847796D01*
X395517620Y19899651D01*
X395658348Y20377025D01*
X395750257Y20542073D01*
X395217059Y20542073D01*
X395131925Y20206481D01*
X395061674Y20131055D01*
X394863117Y20168402D01*
X394809263Y20253789D01*
X394750650Y20244229D01*
X394711471Y19952956D01*
X394705281Y19791836D01*
X394667598Y19350440D01*
X394555619Y19192460D01*
X394410297Y19214563D01*
X394064970Y19310623D01*
X393955759Y19322378D01*
X393864048Y19432437D01*
X393893748Y19502898D01*
X394100984Y19608957D01*
X394161690Y19586773D01*
X394292064Y19673882D01*
X394414001Y20012296D01*
X394433315Y20104466D01*
X394552206Y20515059D01*
X394726876Y20634652D01*
X394841940Y20609013D01*
X395035368Y20561075D01*
X394970455Y20699168D01*
X394887975Y20803204D01*
X394737617Y21099253D01*
X394807650Y21255134D01*
X395034686Y21194716D01*
X395183003Y20936212D01*
X395217059Y20542073D01*
X395750257Y20542073D01*
X395846700Y20715261D01*
X395847076Y20715666D01*
X396023298Y20821222D01*
X396194845Y20672181D01*
X396354472Y20383252D01*
X396529171Y19897590D01*
X397186613Y19897590D01*
X397073938Y20147340D01*
X396859297Y20663323D01*
X396582043Y21063551D01*
X396346337Y21367001D01*
X396356638Y21545495D01*
X396472137Y21638104D01*
X396617949Y21776028D01*
X396573170Y21806371D01*
X396558086Y21919517D01*
X396745260Y22188536D01*
X396750792Y22194868D01*
X396904971Y22415896D01*
X396824617Y22435417D01*
X396556105Y22269388D01*
X396245454Y22020978D01*
X395984054Y21854405D01*
X395748350Y21933210D01*
X395579370Y22075525D01*
X395306011Y22246082D01*
X395223718Y22165872D01*
X395377436Y21907930D01*
X395437272Y21844616D01*
X395547592Y21585636D01*
X395383300Y21403801D01*
X395024940Y21368347D01*
X394910223Y21391569D01*
X394601039Y21514468D01*
X394512754Y21607780D01*
X394410094Y21805520D01*
X394156626Y22154914D01*
X394078170Y22253147D01*
X393644469Y22786014D01*
X393679402Y22257560D01*
X393643817Y21874553D01*
X393507109Y21724693D01*
X393202826Y21617786D01*
X393166666Y21587063D01*
X392918397Y21457925D01*
X392774345Y21664303D01*
X392737412Y22075525D01*
X392688997Y22540957D01*
X392571389Y22676933D01*
X392426044Y22491570D01*
X392294418Y21992984D01*
X392293683Y21988645D01*
X392205860Y21571916D01*
X392073576Y21408615D01*
X391815324Y21481947D01*
X391718879Y21542658D01*
X390250699Y21542658D01*
X390161888Y21453846D01*
X390073077Y21542658D01*
X390161888Y21631469D01*
X390250699Y21542658D01*
X391718879Y21542658D01*
X391349597Y21775114D01*
X391327855Y21789606D01*
X391163854Y21961011D01*
X391260163Y22183718D01*
X391327855Y22268690D01*
X391482904Y22477155D01*
X391388741Y22470085D01*
X391183216Y22364789D01*
X390868680Y22262262D01*
X390785349Y22418805D01*
X390930563Y22841590D01*
X390973110Y22930908D01*
X391070376Y23154186D01*
X390999067Y23111087D01*
X390799437Y22874825D01*
X390542964Y22492660D01*
X390432328Y22192159D01*
X390432271Y22189738D01*
X390303575Y22028990D01*
X390172746Y22046780D01*
X389953513Y21994756D01*
X389844115Y21666133D01*
X389796677Y21526642D01*
X389754223Y21719837D01*
X389729178Y22075525D01*
X389695584Y22560748D01*
X389648616Y22721896D01*
X389575955Y22590138D01*
X389553682Y22519581D01*
X389499067Y22097881D01*
X389500796Y21485756D01*
X389535478Y21039888D01*
X389592637Y20463617D01*
X389583337Y20162652D01*
X389483716Y20059618D01*
X389269914Y20077139D01*
X389240305Y20082739D01*
X388926439Y20088106D01*
X388829720Y20008236D01*
X388685497Y19872399D01*
X388563286Y19855245D01*
X388339674Y19987289D01*
X388309983Y20267743D01*
X388414353Y20446405D01*
X388482538Y20675340D01*
X388536462Y21144625D01*
X388558812Y21586149D01*
X388597666Y22259537D01*
X388667836Y22871696D01*
X388718956Y23141259D01*
X388784943Y23466114D01*
X388734253Y23480200D01*
X388664038Y23380361D01*
G36*
X394336014Y15503497D02*
G01*
X394424825Y15414686D01*
X394513636Y15503497D01*
X394424825Y15592308D01*
X394336014Y15503497D01*
G37*
X394336014Y15503497D02*
X394424825Y15414686D01*
X394513636Y15503497D01*
X394424825Y15592308D01*
X394336014Y15503497D01*
G36*
X411387762Y15503497D02*
G01*
X411476573Y15414686D01*
X411565384Y15503497D01*
X411476573Y15592308D01*
X411387762Y15503497D01*
G37*
X411387762Y15503497D02*
X411476573Y15414686D01*
X411565384Y15503497D01*
X411476573Y15592308D01*
X411387762Y15503497D01*
D11*
%TO.C,RV1*%
X390590000Y-11620000D02*
X391420000Y-11620000D01*
X393040000Y-11620000D02*
X393570000Y-11620000D01*
X395940000Y-11620000D02*
X397120000Y-11620000D01*
X387380000Y-11620000D02*
X387380000Y-6900000D01*
X397120000Y-3090000D02*
X397120000Y-30000D01*
X397130000Y-11620000D02*
X397130000Y-6900000D01*
X387380000Y-3090000D02*
X387380000Y-30000D01*
X387380000Y-11620000D02*
X388870000Y-11620000D01*
X387380000Y-30000D02*
X397120000Y-30000D01*
%TO.C,RV2*%
X414340000Y-58370000D02*
X415170000Y-58370000D01*
X416790000Y-58370000D02*
X417320000Y-58370000D01*
X419690000Y-58370000D02*
X420870000Y-58370000D01*
X411130000Y-58370000D02*
X411130000Y-53650000D01*
X420870000Y-49840000D02*
X420870000Y-46780000D01*
X420880000Y-58370000D02*
X420880000Y-53650000D01*
X411130000Y-49840000D02*
X411130000Y-46780000D01*
X411130000Y-58370000D02*
X412620000Y-58370000D01*
X411130000Y-46780000D02*
X420870000Y-46780000D01*
%TO.C,RV3*%
X411130000Y-30000D02*
X420870000Y-30000D01*
X411130000Y-11620000D02*
X412620000Y-11620000D01*
X411130000Y-3090000D02*
X411130000Y-30000D01*
X420880000Y-11620000D02*
X420880000Y-6900000D01*
X420870000Y-3090000D02*
X420870000Y-30000D01*
X411130000Y-11620000D02*
X411130000Y-6900000D01*
X419690000Y-11620000D02*
X420870000Y-11620000D01*
X416790000Y-11620000D02*
X417320000Y-11620000D01*
X414340000Y-11620000D02*
X415170000Y-11620000D01*
%TO.C,RV4*%
X414340000Y36880000D02*
X415170000Y36880000D01*
X416790000Y36880000D02*
X417320000Y36880000D01*
X419690000Y36880000D02*
X420870000Y36880000D01*
X411130000Y36880000D02*
X411130000Y41600000D01*
X420870000Y45410000D02*
X420870000Y48470000D01*
X420880000Y36880000D02*
X420880000Y41600000D01*
X411130000Y45410000D02*
X411130000Y48470000D01*
X411130000Y36880000D02*
X412620000Y36880000D01*
X411130000Y48470000D02*
X420870000Y48470000D01*
%TO.C,RV5*%
X387380000Y48470000D02*
X397120000Y48470000D01*
X387380000Y36880000D02*
X388870000Y36880000D01*
X387380000Y45410000D02*
X387380000Y48470000D01*
X397130000Y36880000D02*
X397130000Y41600000D01*
X397120000Y45410000D02*
X397120000Y48470000D01*
X387380000Y36880000D02*
X387380000Y41600000D01*
X395940000Y36880000D02*
X397120000Y36880000D01*
X393040000Y36880000D02*
X393570000Y36880000D01*
X390590000Y36880000D02*
X391420000Y36880000D01*
%TO.C,RV1*%
D12*
X400089285Y-12053571D02*
X399732142Y-11803571D01*
X400089285Y-11625000D02*
X399339285Y-11625000D01*
X399339285Y-11910714D01*
X399375000Y-11982142D01*
X399410714Y-12017857D01*
X399482142Y-12053571D01*
X399589285Y-12053571D01*
X399660714Y-12017857D01*
X399696428Y-11982142D01*
X399732142Y-11910714D01*
X399732142Y-11625000D01*
X399339285Y-12267857D02*
X400089285Y-12517857D01*
X399339285Y-12767857D01*
X400089285Y-13410714D02*
X400089285Y-12982142D01*
X400089285Y-13196428D02*
X399339285Y-13196428D01*
X399446428Y-13125000D01*
X399517857Y-13053571D01*
X399553571Y-12982142D01*
X399339285Y3428571D02*
X399339285Y3285714D01*
X399375000Y3214285D01*
X399446428Y3142857D01*
X399589285Y3107142D01*
X399839285Y3107142D01*
X399982142Y3142857D01*
X400053571Y3214285D01*
X400089285Y3285714D01*
X400089285Y3428571D01*
X400053571Y3500000D01*
X399982142Y3571428D01*
X399839285Y3607142D01*
X399589285Y3607142D01*
X399446428Y3571428D01*
X399375000Y3500000D01*
X399339285Y3428571D01*
X399339285Y2892857D02*
X400089285Y2642857D01*
X399339285Y2392857D01*
X399696428Y2142857D02*
X399696428Y1892857D01*
X400089285Y1785714D02*
X400089285Y2142857D01*
X399339285Y2142857D01*
X399339285Y1785714D01*
X400089285Y1035714D02*
X399732142Y1285714D01*
X400089285Y1464285D02*
X399339285Y1464285D01*
X399339285Y1178571D01*
X399375000Y1107142D01*
X399410714Y1071428D01*
X399482142Y1035714D01*
X399589285Y1035714D01*
X399660714Y1071428D01*
X399696428Y1107142D01*
X399732142Y1178571D01*
X399732142Y1464285D01*
X400089285Y714285D02*
X399339285Y714285D01*
X399339285Y535714D01*
X399375000Y428571D01*
X399446428Y357142D01*
X399517857Y321428D01*
X399660714Y285714D01*
X399767857Y285714D01*
X399910714Y321428D01*
X399982142Y357142D01*
X400053571Y428571D01*
X400089285Y535714D01*
X400089285Y714285D01*
X400089285Y-464285D02*
X399732142Y-214285D01*
X400089285Y-35714D02*
X399339285Y-35714D01*
X399339285Y-321428D01*
X399375000Y-392857D01*
X399410714Y-428571D01*
X399482142Y-464285D01*
X399589285Y-464285D01*
X399660714Y-428571D01*
X399696428Y-392857D01*
X399732142Y-321428D01*
X399732142Y-35714D01*
X400089285Y-785714D02*
X399339285Y-785714D01*
X399339285Y-1035714D02*
X400089285Y-1285714D01*
X399339285Y-1535714D01*
X399696428Y-1785714D02*
X399696428Y-2035714D01*
X400089285Y-2142857D02*
X400089285Y-1785714D01*
X399339285Y-1785714D01*
X399339285Y-2142857D01*
X400160714Y-2285714D02*
X400160714Y-2857142D01*
X400089285Y-3428571D02*
X400089285Y-3000000D01*
X400089285Y-3214285D02*
X399339285Y-3214285D01*
X399446428Y-3142857D01*
X399517857Y-3071428D01*
X399553571Y-3000000D01*
X399339285Y-3892857D02*
X399339285Y-3964285D01*
X399375000Y-4035714D01*
X399410714Y-4071428D01*
X399482142Y-4107142D01*
X399625000Y-4142857D01*
X399803571Y-4142857D01*
X399946428Y-4107142D01*
X400017857Y-4071428D01*
X400053571Y-4035714D01*
X400089285Y-3964285D01*
X400089285Y-3892857D01*
X400053571Y-3821428D01*
X400017857Y-3785714D01*
X399946428Y-3750000D01*
X399803571Y-3714285D01*
X399625000Y-3714285D01*
X399482142Y-3750000D01*
X399410714Y-3785714D01*
X399375000Y-3821428D01*
X399339285Y-3892857D01*
X399339285Y-4607142D02*
X399339285Y-4678571D01*
X399375000Y-4750000D01*
X399410714Y-4785714D01*
X399482142Y-4821428D01*
X399625000Y-4857142D01*
X399803571Y-4857142D01*
X399946428Y-4821428D01*
X400017857Y-4785714D01*
X400053571Y-4750000D01*
X400089285Y-4678571D01*
X400089285Y-4607142D01*
X400053571Y-4535714D01*
X400017857Y-4500000D01*
X399946428Y-4464285D01*
X399803571Y-4428571D01*
X399625000Y-4428571D01*
X399482142Y-4464285D01*
X399410714Y-4500000D01*
X399375000Y-4535714D01*
X399339285Y-4607142D01*
X400089285Y-5178571D02*
X399339285Y-5178571D01*
X400089285Y-5607142D02*
X399660714Y-5285714D01*
X399339285Y-5607142D02*
X399767857Y-5178571D01*
%TO.C,RV2*%
X423839285Y-58803571D02*
X423482142Y-58553571D01*
X423839285Y-58375000D02*
X423089285Y-58375000D01*
X423089285Y-58660714D01*
X423125000Y-58732142D01*
X423160714Y-58767857D01*
X423232142Y-58803571D01*
X423339285Y-58803571D01*
X423410714Y-58767857D01*
X423446428Y-58732142D01*
X423482142Y-58660714D01*
X423482142Y-58375000D01*
X423089285Y-59017857D02*
X423839285Y-59267857D01*
X423089285Y-59517857D01*
X423160714Y-59732142D02*
X423125000Y-59767857D01*
X423089285Y-59839285D01*
X423089285Y-60017857D01*
X423125000Y-60089285D01*
X423160714Y-60125000D01*
X423232142Y-60160714D01*
X423303571Y-60160714D01*
X423410714Y-60125000D01*
X423839285Y-59696428D01*
X423839285Y-60160714D01*
X423839285Y-45232142D02*
X423089285Y-45232142D01*
X423625000Y-45482142D01*
X423089285Y-45732142D01*
X423839285Y-45732142D01*
X423839285Y-46089285D02*
X423089285Y-46089285D01*
X423089285Y-46375000D02*
X423839285Y-46875000D01*
X423089285Y-46875000D02*
X423839285Y-46375000D01*
X423839285Y-48125000D02*
X423839285Y-47696428D01*
X423839285Y-47910714D02*
X423089285Y-47910714D01*
X423196428Y-47839285D01*
X423267857Y-47767857D01*
X423303571Y-47696428D01*
X423089285Y-48589285D02*
X423089285Y-48660714D01*
X423125000Y-48732142D01*
X423160714Y-48767857D01*
X423232142Y-48803571D01*
X423375000Y-48839285D01*
X423553571Y-48839285D01*
X423696428Y-48803571D01*
X423767857Y-48767857D01*
X423803571Y-48732142D01*
X423839285Y-48660714D01*
X423839285Y-48589285D01*
X423803571Y-48517857D01*
X423767857Y-48482142D01*
X423696428Y-48446428D01*
X423553571Y-48410714D01*
X423375000Y-48410714D01*
X423232142Y-48446428D01*
X423160714Y-48482142D01*
X423125000Y-48517857D01*
X423089285Y-48589285D01*
X423089285Y-49303571D02*
X423089285Y-49375000D01*
X423125000Y-49446428D01*
X423160714Y-49482142D01*
X423232142Y-49517857D01*
X423375000Y-49553571D01*
X423553571Y-49553571D01*
X423696428Y-49517857D01*
X423767857Y-49482142D01*
X423803571Y-49446428D01*
X423839285Y-49375000D01*
X423839285Y-49303571D01*
X423803571Y-49232142D01*
X423767857Y-49196428D01*
X423696428Y-49160714D01*
X423553571Y-49125000D01*
X423375000Y-49125000D01*
X423232142Y-49160714D01*
X423160714Y-49196428D01*
X423125000Y-49232142D01*
X423089285Y-49303571D01*
X423839285Y-49875000D02*
X423089285Y-49875000D01*
X423839285Y-50303571D02*
X423410714Y-49982142D01*
X423089285Y-50303571D02*
X423517857Y-49875000D01*
%TO.C,RV3*%
X423839285Y-12053571D02*
X423482142Y-11803571D01*
X423839285Y-11625000D02*
X423089285Y-11625000D01*
X423089285Y-11910714D01*
X423125000Y-11982142D01*
X423160714Y-12017857D01*
X423232142Y-12053571D01*
X423339285Y-12053571D01*
X423410714Y-12017857D01*
X423446428Y-11982142D01*
X423482142Y-11910714D01*
X423482142Y-11625000D01*
X423089285Y-12267857D02*
X423839285Y-12517857D01*
X423089285Y-12767857D01*
X423089285Y-12946428D02*
X423089285Y-13410714D01*
X423375000Y-13160714D01*
X423375000Y-13267857D01*
X423410714Y-13339285D01*
X423446428Y-13375000D01*
X423517857Y-13410714D01*
X423696428Y-13410714D01*
X423767857Y-13375000D01*
X423803571Y-13339285D01*
X423839285Y-13267857D01*
X423839285Y-13053571D01*
X423803571Y-12982142D01*
X423767857Y-12946428D01*
X423446428Y1750000D02*
X423446428Y2000000D01*
X423839285Y2000000D02*
X423089285Y2000000D01*
X423089285Y1642857D01*
X423839285Y1357142D02*
X423089285Y1357142D01*
X423089285Y1178571D01*
X423125000Y1071428D01*
X423196428Y1000000D01*
X423267857Y964285D01*
X423410714Y928571D01*
X423517857Y928571D01*
X423660714Y964285D01*
X423732142Y1000000D01*
X423803571Y1071428D01*
X423839285Y1178571D01*
X423839285Y1357142D01*
X423446428Y357142D02*
X423482142Y250000D01*
X423517857Y214285D01*
X423589285Y178571D01*
X423696428Y178571D01*
X423767857Y214285D01*
X423803571Y250000D01*
X423839285Y321428D01*
X423839285Y607142D01*
X423089285Y607142D01*
X423089285Y357142D01*
X423125000Y285714D01*
X423160714Y250000D01*
X423232142Y214285D01*
X423303571Y214285D01*
X423375000Y250000D01*
X423410714Y285714D01*
X423446428Y357142D01*
X423446428Y607142D01*
X423839285Y-142857D02*
X423089285Y-142857D01*
X423839285Y-571428D02*
X423410714Y-250000D01*
X423089285Y-571428D02*
X423517857Y-142857D01*
X423910714Y-714285D02*
X423910714Y-1285714D01*
X423839285Y-1857142D02*
X423839285Y-1428571D01*
X423839285Y-1642857D02*
X423089285Y-1642857D01*
X423196428Y-1571428D01*
X423267857Y-1500000D01*
X423303571Y-1428571D01*
X423089285Y-2321428D02*
X423089285Y-2392857D01*
X423125000Y-2464285D01*
X423160714Y-2500000D01*
X423232142Y-2535714D01*
X423375000Y-2571428D01*
X423553571Y-2571428D01*
X423696428Y-2535714D01*
X423767857Y-2500000D01*
X423803571Y-2464285D01*
X423839285Y-2392857D01*
X423839285Y-2321428D01*
X423803571Y-2250000D01*
X423767857Y-2214285D01*
X423696428Y-2178571D01*
X423553571Y-2142857D01*
X423375000Y-2142857D01*
X423232142Y-2178571D01*
X423160714Y-2214285D01*
X423125000Y-2250000D01*
X423089285Y-2321428D01*
X423089285Y-3035714D02*
X423089285Y-3107142D01*
X423125000Y-3178571D01*
X423160714Y-3214285D01*
X423232142Y-3250000D01*
X423375000Y-3285714D01*
X423553571Y-3285714D01*
X423696428Y-3250000D01*
X423767857Y-3214285D01*
X423803571Y-3178571D01*
X423839285Y-3107142D01*
X423839285Y-3035714D01*
X423803571Y-2964285D01*
X423767857Y-2928571D01*
X423696428Y-2892857D01*
X423553571Y-2857142D01*
X423375000Y-2857142D01*
X423232142Y-2892857D01*
X423160714Y-2928571D01*
X423125000Y-2964285D01*
X423089285Y-3035714D01*
X423839285Y-3607142D02*
X423089285Y-3607142D01*
X423839285Y-4035714D02*
X423410714Y-3714285D01*
X423089285Y-4035714D02*
X423517857Y-3607142D01*
%TO.C,RV4*%
X423839285Y36446428D02*
X423482142Y36696428D01*
X423839285Y36875000D02*
X423089285Y36875000D01*
X423089285Y36589285D01*
X423125000Y36517857D01*
X423160714Y36482142D01*
X423232142Y36446428D01*
X423339285Y36446428D01*
X423410714Y36482142D01*
X423446428Y36517857D01*
X423482142Y36589285D01*
X423482142Y36875000D01*
X423089285Y36232142D02*
X423839285Y35982142D01*
X423089285Y35732142D01*
X423339285Y35160714D02*
X423839285Y35160714D01*
X423053571Y35339285D02*
X423589285Y35517857D01*
X423589285Y35053571D01*
X423839285Y51803571D02*
X423089285Y51803571D01*
X423446428Y51803571D02*
X423446428Y51375000D01*
X423839285Y51375000D02*
X423089285Y51375000D01*
X423839285Y51017857D02*
X423089285Y51017857D01*
X423125000Y50267857D02*
X423089285Y50339285D01*
X423089285Y50446428D01*
X423125000Y50553571D01*
X423196428Y50625000D01*
X423267857Y50660714D01*
X423410714Y50696428D01*
X423517857Y50696428D01*
X423660714Y50660714D01*
X423732142Y50625000D01*
X423803571Y50553571D01*
X423839285Y50446428D01*
X423839285Y50375000D01*
X423803571Y50267857D01*
X423767857Y50232142D01*
X423517857Y50232142D01*
X423517857Y50375000D01*
X423839285Y49910714D02*
X423089285Y49910714D01*
X423446428Y49910714D02*
X423446428Y49482142D01*
X423839285Y49482142D02*
X423089285Y49482142D01*
X423839285Y49125000D02*
X423089285Y49125000D01*
X423089285Y48839285D01*
X423125000Y48767857D01*
X423160714Y48732142D01*
X423232142Y48696428D01*
X423339285Y48696428D01*
X423410714Y48732142D01*
X423446428Y48767857D01*
X423482142Y48839285D01*
X423482142Y49125000D01*
X423625000Y48410714D02*
X423625000Y48053571D01*
X423839285Y48482142D02*
X423089285Y48232142D01*
X423839285Y47982142D01*
X423803571Y47767857D02*
X423839285Y47660714D01*
X423839285Y47482142D01*
X423803571Y47410714D01*
X423767857Y47375000D01*
X423696428Y47339285D01*
X423625000Y47339285D01*
X423553571Y47375000D01*
X423517857Y47410714D01*
X423482142Y47482142D01*
X423446428Y47625000D01*
X423410714Y47696428D01*
X423375000Y47732142D01*
X423303571Y47767857D01*
X423232142Y47767857D01*
X423160714Y47732142D01*
X423125000Y47696428D01*
X423089285Y47625000D01*
X423089285Y47446428D01*
X423125000Y47339285D01*
X423803571Y47053571D02*
X423839285Y46946428D01*
X423839285Y46767857D01*
X423803571Y46696428D01*
X423767857Y46660714D01*
X423696428Y46625000D01*
X423625000Y46625000D01*
X423553571Y46660714D01*
X423517857Y46696428D01*
X423482142Y46767857D01*
X423446428Y46910714D01*
X423410714Y46982142D01*
X423375000Y47017857D01*
X423303571Y47053571D01*
X423232142Y47053571D01*
X423160714Y47017857D01*
X423125000Y46982142D01*
X423089285Y46910714D01*
X423089285Y46732142D01*
X423125000Y46625000D01*
X423910714Y46482142D02*
X423910714Y45910714D01*
X423839285Y45339285D02*
X423839285Y45767857D01*
X423839285Y45553571D02*
X423089285Y45553571D01*
X423196428Y45625000D01*
X423267857Y45696428D01*
X423303571Y45767857D01*
X423089285Y44875000D02*
X423089285Y44803571D01*
X423125000Y44732142D01*
X423160714Y44696428D01*
X423232142Y44660714D01*
X423375000Y44625000D01*
X423553571Y44625000D01*
X423696428Y44660714D01*
X423767857Y44696428D01*
X423803571Y44732142D01*
X423839285Y44803571D01*
X423839285Y44875000D01*
X423803571Y44946428D01*
X423767857Y44982142D01*
X423696428Y45017857D01*
X423553571Y45053571D01*
X423375000Y45053571D01*
X423232142Y45017857D01*
X423160714Y44982142D01*
X423125000Y44946428D01*
X423089285Y44875000D01*
X423089285Y44160714D02*
X423089285Y44089285D01*
X423125000Y44017857D01*
X423160714Y43982142D01*
X423232142Y43946428D01*
X423375000Y43910714D01*
X423553571Y43910714D01*
X423696428Y43946428D01*
X423767857Y43982142D01*
X423803571Y44017857D01*
X423839285Y44089285D01*
X423839285Y44160714D01*
X423803571Y44232142D01*
X423767857Y44267857D01*
X423696428Y44303571D01*
X423553571Y44339285D01*
X423375000Y44339285D01*
X423232142Y44303571D01*
X423160714Y44267857D01*
X423125000Y44232142D01*
X423089285Y44160714D01*
X423839285Y43589285D02*
X423089285Y43589285D01*
X423839285Y43160714D02*
X423410714Y43482142D01*
X423089285Y43160714D02*
X423517857Y43589285D01*
%TO.C,RV5*%
X400089285Y36446428D02*
X399732142Y36696428D01*
X400089285Y36875000D02*
X399339285Y36875000D01*
X399339285Y36589285D01*
X399375000Y36517857D01*
X399410714Y36482142D01*
X399482142Y36446428D01*
X399589285Y36446428D01*
X399660714Y36482142D01*
X399696428Y36517857D01*
X399732142Y36589285D01*
X399732142Y36875000D01*
X399339285Y36232142D02*
X400089285Y35982142D01*
X399339285Y35732142D01*
X399339285Y35125000D02*
X399339285Y35482142D01*
X399696428Y35517857D01*
X399660714Y35482142D01*
X399625000Y35410714D01*
X399625000Y35232142D01*
X399660714Y35160714D01*
X399696428Y35125000D01*
X399767857Y35089285D01*
X399946428Y35089285D01*
X400017857Y35125000D01*
X400053571Y35160714D01*
X400089285Y35232142D01*
X400089285Y35410714D01*
X400053571Y35482142D01*
X400017857Y35517857D01*
X400089285Y51232142D02*
X400089285Y51589285D01*
X399339285Y51589285D01*
X399339285Y50839285D02*
X399339285Y50696428D01*
X399375000Y50625000D01*
X399446428Y50553571D01*
X399589285Y50517857D01*
X399839285Y50517857D01*
X399982142Y50553571D01*
X400053571Y50625000D01*
X400089285Y50696428D01*
X400089285Y50839285D01*
X400053571Y50910714D01*
X399982142Y50982142D01*
X399839285Y51017857D01*
X399589285Y51017857D01*
X399446428Y50982142D01*
X399375000Y50910714D01*
X399339285Y50839285D01*
X399339285Y50267857D02*
X400089285Y50089285D01*
X399553571Y49946428D01*
X400089285Y49803571D01*
X399339285Y49625000D01*
X400089285Y49339285D02*
X399339285Y49339285D01*
X399339285Y49053571D01*
X399375000Y48982142D01*
X399410714Y48946428D01*
X399482142Y48910714D01*
X399589285Y48910714D01*
X399660714Y48946428D01*
X399696428Y48982142D01*
X399732142Y49053571D01*
X399732142Y49339285D01*
X399875000Y48625000D02*
X399875000Y48267857D01*
X400089285Y48696428D02*
X399339285Y48446428D01*
X400089285Y48196428D01*
X400053571Y47982142D02*
X400089285Y47875000D01*
X400089285Y47696428D01*
X400053571Y47625000D01*
X400017857Y47589285D01*
X399946428Y47553571D01*
X399875000Y47553571D01*
X399803571Y47589285D01*
X399767857Y47625000D01*
X399732142Y47696428D01*
X399696428Y47839285D01*
X399660714Y47910714D01*
X399625000Y47946428D01*
X399553571Y47982142D01*
X399482142Y47982142D01*
X399410714Y47946428D01*
X399375000Y47910714D01*
X399339285Y47839285D01*
X399339285Y47660714D01*
X399375000Y47553571D01*
X400053571Y47267857D02*
X400089285Y47160714D01*
X400089285Y46982142D01*
X400053571Y46910714D01*
X400017857Y46875000D01*
X399946428Y46839285D01*
X399875000Y46839285D01*
X399803571Y46875000D01*
X399767857Y46910714D01*
X399732142Y46982142D01*
X399696428Y47125000D01*
X399660714Y47196428D01*
X399625000Y47232142D01*
X399553571Y47267857D01*
X399482142Y47267857D01*
X399410714Y47232142D01*
X399375000Y47196428D01*
X399339285Y47125000D01*
X399339285Y46946428D01*
X399375000Y46839285D01*
X400160714Y46696428D02*
X400160714Y46125000D01*
X400089285Y45553571D02*
X400089285Y45982142D01*
X400089285Y45767857D02*
X399339285Y45767857D01*
X399446428Y45839285D01*
X399517857Y45910714D01*
X399553571Y45982142D01*
X399339285Y45089285D02*
X399339285Y45017857D01*
X399375000Y44946428D01*
X399410714Y44910714D01*
X399482142Y44875000D01*
X399625000Y44839285D01*
X399803571Y44839285D01*
X399946428Y44875000D01*
X400017857Y44910714D01*
X400053571Y44946428D01*
X400089285Y45017857D01*
X400089285Y45089285D01*
X400053571Y45160714D01*
X400017857Y45196428D01*
X399946428Y45232142D01*
X399803571Y45267857D01*
X399625000Y45267857D01*
X399482142Y45232142D01*
X399410714Y45196428D01*
X399375000Y45160714D01*
X399339285Y45089285D01*
X399339285Y44375000D02*
X399339285Y44303571D01*
X399375000Y44232142D01*
X399410714Y44196428D01*
X399482142Y44160714D01*
X399625000Y44125000D01*
X399803571Y44125000D01*
X399946428Y44160714D01*
X400017857Y44196428D01*
X400053571Y44232142D01*
X400089285Y44303571D01*
X400089285Y44375000D01*
X400053571Y44446428D01*
X400017857Y44482142D01*
X399946428Y44517857D01*
X399803571Y44553571D01*
X399625000Y44553571D01*
X399482142Y44517857D01*
X399410714Y44482142D01*
X399375000Y44446428D01*
X399339285Y44375000D01*
X400089285Y43803571D02*
X399339285Y43803571D01*
X400089285Y43375000D02*
X399660714Y43696428D01*
X399339285Y43375000D02*
X399767857Y43803571D01*
%TD*%
M02*
