%TF.GenerationSoftware,KiCad,Pcbnew,(5.1.12-1-10_14)*%
%TF.CreationDate,2023-08-06T16:43:41+02:00*%
%TF.ProjectId,springy_panel,73707269-6e67-4795-9f70-616e656c2e6b,rev?*%
%TF.SameCoordinates,Original*%
%TF.FileFunction,Legend,Bot*%
%TF.FilePolarity,Positive*%
%FSLAX46Y46*%
G04 Gerber Fmt 4.6, Leading zero omitted, Abs format (unit mm)*
G04 Created by KiCad (PCBNEW (5.1.12-1-10_14)) date 2023-08-06 16:43:41*
%MOMM*%
%LPD*%
G01*
G04 APERTURE LIST*
%ADD10C,0.010000*%
G04 APERTURE END LIST*
D10*
%TO.C,G\u002A\u002A\u002A*%
G36*
X329620069Y-43387739D02*
G01*
X328634898Y-43456282D01*
X327957347Y-43563221D01*
X327540246Y-43728922D01*
X327336428Y-43973753D01*
X327298723Y-44318081D01*
X327305355Y-44387244D01*
X327358741Y-44846504D01*
X329490209Y-44787710D01*
X331049031Y-44808785D01*
X332352427Y-44977783D01*
X333475226Y-45311737D01*
X334492253Y-45827680D01*
X334728287Y-45980058D01*
X335480980Y-46603689D01*
X335879198Y-47226670D01*
X335923697Y-47851291D01*
X335615235Y-48479840D01*
X335572894Y-48533362D01*
X335174126Y-49023017D01*
X334108391Y-48592906D01*
X332711432Y-48152745D01*
X331223831Y-47900269D01*
X329739240Y-47838792D01*
X328351312Y-47971629D01*
X327153701Y-48302094D01*
X327054636Y-48343281D01*
X326269294Y-48800982D01*
X325799569Y-49347115D01*
X325657137Y-49953401D01*
X325853677Y-50591559D01*
X326023248Y-50841094D01*
X326588267Y-51302148D01*
X327425825Y-51647656D01*
X328471423Y-51874342D01*
X329660562Y-51978930D01*
X330928743Y-51958142D01*
X332211466Y-51808702D01*
X333444234Y-51527335D01*
X334224236Y-51257698D01*
X335268020Y-50836094D01*
X335620723Y-51284484D01*
X335928569Y-51930898D01*
X335898548Y-52607687D01*
X335564448Y-53206356D01*
X335155469Y-53681822D01*
X334413689Y-53303394D01*
X333318746Y-52876146D01*
X332036012Y-52585305D01*
X330665903Y-52436365D01*
X329308833Y-52434819D01*
X328065219Y-52586162D01*
X327035476Y-52895888D01*
X327027718Y-52899308D01*
X326328504Y-53333291D01*
X325880980Y-53875249D01*
X325717774Y-54465651D01*
X325861436Y-55027358D01*
X326176379Y-55397925D01*
X326667495Y-55790116D01*
X326921372Y-55947902D01*
X327261193Y-56125525D01*
X327585988Y-56248083D01*
X327970059Y-56325512D01*
X328487709Y-56367750D01*
X329213240Y-56384731D01*
X330200699Y-56386438D01*
X331253984Y-56376578D01*
X332036785Y-56345923D01*
X332633691Y-56284760D01*
X333129289Y-56183378D01*
X333608169Y-56032062D01*
X333753146Y-55978529D01*
X334359342Y-55751842D01*
X334862161Y-55567697D01*
X335116265Y-55478390D01*
X335408787Y-55533946D01*
X335692204Y-55919307D01*
X335693538Y-55921884D01*
X335938629Y-56582268D01*
X335892982Y-57129239D01*
X335573776Y-57635404D01*
X335174126Y-58099358D01*
X334326279Y-57723977D01*
X332706749Y-57178360D01*
X330979433Y-56902952D01*
X329252865Y-56908419D01*
X328020007Y-57104135D01*
X327094168Y-57370841D01*
X326457144Y-57683122D01*
X326042536Y-58081866D01*
X325845364Y-58443274D01*
X325741039Y-59091394D01*
X325960550Y-59686020D01*
X326473757Y-60203631D01*
X327250518Y-60620705D01*
X328260692Y-60913720D01*
X329172187Y-61039477D01*
X330104508Y-61051332D01*
X331184900Y-60965076D01*
X332298564Y-60799258D01*
X333330700Y-60572428D01*
X334166508Y-60303135D01*
X334409225Y-60193290D01*
X334859937Y-59975487D01*
X335121700Y-59918605D01*
X335320315Y-60018854D01*
X335469990Y-60161327D01*
X335808210Y-60701752D01*
X335923763Y-61339706D01*
X335801920Y-61934133D01*
X335676293Y-62137029D01*
X335345759Y-62545222D01*
X333927774Y-62062034D01*
X332671567Y-61729617D01*
X331295387Y-61525976D01*
X329913328Y-61457552D01*
X328639484Y-61530780D01*
X327718494Y-61711677D01*
X326755662Y-62097618D01*
X326097275Y-62585699D01*
X325751025Y-63141537D01*
X325724605Y-63730746D01*
X326025708Y-64318944D01*
X326662028Y-64871744D01*
X326970828Y-65053427D01*
X327310949Y-65216865D01*
X327661502Y-65328405D01*
X328098433Y-65397580D01*
X328697691Y-65433921D01*
X329535222Y-65446961D01*
X330111888Y-65447672D01*
X331128555Y-65439613D01*
X331885012Y-65410156D01*
X332476182Y-65346915D01*
X332996984Y-65237503D01*
X333542340Y-65069536D01*
X333855311Y-64959210D01*
X334496544Y-64732705D01*
X335003587Y-64562621D01*
X335288651Y-64478130D01*
X335316135Y-64473776D01*
X335485142Y-64622677D01*
X335691245Y-64982265D01*
X335873192Y-65421866D01*
X335969732Y-65810807D01*
X335973426Y-65876030D01*
X335860609Y-66250663D01*
X335587733Y-66669737D01*
X335573776Y-66685865D01*
X335174126Y-67141540D01*
X334101996Y-66704063D01*
X332941017Y-66315541D01*
X331756260Y-66071149D01*
X330583023Y-65960411D01*
X329456604Y-65972850D01*
X328412300Y-66097988D01*
X327485411Y-66325349D01*
X326711234Y-66644457D01*
X326125066Y-67044833D01*
X325762207Y-67516002D01*
X325657955Y-68047487D01*
X325847606Y-68628810D01*
X326172206Y-69057714D01*
X326677537Y-69471752D01*
X327334398Y-69764606D01*
X328196654Y-69949604D01*
X329318170Y-70040075D01*
X330200699Y-70054519D01*
X331801312Y-69976372D01*
X333168526Y-69751256D01*
X334263432Y-69387036D01*
X334717835Y-69141695D01*
X335019169Y-68979847D01*
X335234757Y-69021150D01*
X335501301Y-69303869D01*
X335560660Y-69377623D01*
X335835940Y-69804007D01*
X335970041Y-70173322D01*
X335972544Y-70210919D01*
X335902139Y-70555764D01*
X335731784Y-70985534D01*
X335524909Y-71368062D01*
X335344943Y-71571179D01*
X335316135Y-71578671D01*
X335105053Y-71524233D01*
X334647401Y-71379720D01*
X334031585Y-71173338D01*
X333855311Y-71112621D01*
X332643688Y-70788914D01*
X331299695Y-70588746D01*
X329939807Y-70518655D01*
X328680500Y-70585177D01*
X327724846Y-70768572D01*
X326870897Y-71111564D01*
X326205988Y-71567094D01*
X325788383Y-72085230D01*
X325671328Y-72528303D01*
X325839091Y-73126623D01*
X326303278Y-73680084D01*
X327005244Y-74132809D01*
X327588089Y-74354497D01*
X328595070Y-74539272D01*
X329816235Y-74597041D01*
X331136586Y-74534353D01*
X332441122Y-74357758D01*
X333614844Y-74073804D01*
X333841958Y-73998329D01*
X335174126Y-73528827D01*
X335573776Y-73984633D01*
X335916397Y-74583655D01*
X335904103Y-75187465D01*
X335573776Y-75744607D01*
X335174126Y-76200282D01*
X334108391Y-75766478D01*
X332610151Y-75292828D01*
X331030618Y-75035569D01*
X329465692Y-74999341D01*
X328011273Y-75188787D01*
X327181119Y-75431206D01*
X326539591Y-75735811D01*
X326123213Y-76124176D01*
X325943188Y-76410692D01*
X325730487Y-76850477D01*
X325692665Y-77165395D01*
X325821067Y-77534740D01*
X325882594Y-77665969D01*
X326320454Y-78240754D01*
X326801735Y-78571396D01*
X327893714Y-78936508D01*
X329195492Y-79128623D01*
X330608671Y-79151409D01*
X332034851Y-79008538D01*
X333375631Y-78703680D01*
X334442977Y-78286381D01*
X334880316Y-78079916D01*
X335135661Y-78036094D01*
X335344602Y-78158378D01*
X335504675Y-78313494D01*
X335775719Y-78785297D01*
X335879045Y-79394066D01*
X335808414Y-79988315D01*
X335590067Y-80386406D01*
X335421608Y-80517937D01*
X335209216Y-80558980D01*
X334871711Y-80499875D01*
X334327909Y-80330961D01*
X333906691Y-80186087D01*
X332785741Y-79862171D01*
X331615657Y-79674610D01*
X330775962Y-79611642D01*
X329249370Y-79607125D01*
X327979463Y-79756149D01*
X326982322Y-80052396D01*
X326274026Y-80489549D01*
X325870653Y-81061292D01*
X325777902Y-81575232D01*
X325851705Y-82135480D01*
X326114825Y-82574468D01*
X326629823Y-82974993D01*
X326991614Y-83181514D01*
X327319825Y-83338293D01*
X327665404Y-83446303D01*
X328101572Y-83514348D01*
X328701547Y-83551232D01*
X329538547Y-83565760D01*
X330200699Y-83567405D01*
X331214471Y-83562228D01*
X331957866Y-83539842D01*
X332515705Y-83488866D01*
X332972808Y-83397915D01*
X333413995Y-83255606D01*
X333863699Y-83075821D01*
X334608865Y-82795684D01*
X335116368Y-82699433D01*
X335455850Y-82792733D01*
X335696953Y-83081250D01*
X335771745Y-83231066D01*
X335957590Y-83870632D01*
X335846278Y-84418709D01*
X335620723Y-84767964D01*
X335268020Y-85216353D01*
X334234601Y-84798937D01*
X332867322Y-84367718D01*
X331403035Y-84116324D01*
X329933930Y-84047358D01*
X328552192Y-84163421D01*
X327350011Y-84467117D01*
X327036881Y-84595785D01*
X326273248Y-85047304D01*
X325849920Y-85559198D01*
X325753768Y-86155982D01*
X325903901Y-86711742D01*
X326209520Y-87193736D01*
X326703862Y-87564265D01*
X327437515Y-87848057D01*
X328461069Y-88069842D01*
X328787737Y-88121416D01*
X330445526Y-88210854D01*
X332166933Y-88019433D01*
X333821125Y-87563597D01*
X334105868Y-87453013D01*
X335174126Y-87017265D01*
X335573776Y-87478502D01*
X335849924Y-87889433D01*
X335973012Y-88254978D01*
X335973426Y-88270553D01*
X336090229Y-88807174D01*
X336387253Y-89125860D01*
X336784424Y-89181556D01*
X337181258Y-88950140D01*
X337382143Y-88528007D01*
X336996468Y-88528007D01*
X336920746Y-88689627D01*
X336621338Y-88813346D01*
X336385629Y-88649670D01*
X336328007Y-88408392D01*
X336236372Y-87993205D01*
X336012303Y-87494943D01*
X335968879Y-87420790D01*
X335732652Y-86906055D01*
X335768625Y-86594178D01*
X336040013Y-86498951D01*
X336315603Y-86655908D01*
X336594752Y-87050985D01*
X336831752Y-87570488D01*
X336980893Y-88100727D01*
X336996468Y-88528007D01*
X337382143Y-88528007D01*
X337392995Y-88505205D01*
X337365362Y-87904727D01*
X337118047Y-87236241D01*
X336670740Y-86587285D01*
X336642829Y-86556206D01*
X336411791Y-86273099D01*
X336412036Y-86071257D01*
X336649097Y-85784922D01*
X336669307Y-85763223D01*
X337152466Y-84999048D01*
X337343236Y-84108321D01*
X337327018Y-83962127D01*
X337038497Y-83962127D01*
X336876658Y-84667521D01*
X336432659Y-85403575D01*
X335766085Y-86103946D01*
X334936520Y-86702289D01*
X334286014Y-87026847D01*
X332464235Y-87606377D01*
X330629746Y-87864090D01*
X328838601Y-87793313D01*
X328416275Y-87725759D01*
X327471740Y-87503285D01*
X326820909Y-87224729D01*
X326402980Y-86856891D01*
X326214340Y-86523443D01*
X326098924Y-85998568D01*
X326255942Y-85558719D01*
X326715094Y-85155277D01*
X327222514Y-84873247D01*
X327643237Y-84687080D01*
X328061016Y-84565683D01*
X328567408Y-84495916D01*
X329253970Y-84464638D01*
X330111888Y-84458545D01*
X331142480Y-84475485D01*
X331937804Y-84533738D01*
X332616865Y-84648382D01*
X333298669Y-84834493D01*
X333442307Y-84880469D01*
X334055545Y-85099865D01*
X334510276Y-85299793D01*
X334723647Y-85442898D01*
X334730070Y-85461065D01*
X334576957Y-85678388D01*
X334135453Y-85730325D01*
X333432305Y-85615459D01*
X333160161Y-85544295D01*
X331964365Y-85283994D01*
X330737303Y-85149416D01*
X329554228Y-85137756D01*
X328490393Y-85246208D01*
X327621053Y-85471968D01*
X327069315Y-85771362D01*
X326679982Y-86086626D01*
X327044462Y-86451106D01*
X327473848Y-86705334D01*
X328159466Y-86919607D01*
X329003041Y-87076845D01*
X329906298Y-87159967D01*
X330770962Y-87151893D01*
X330970640Y-87133504D01*
X332263701Y-86905738D01*
X333462280Y-86538767D01*
X334378546Y-86122184D01*
X333486713Y-86122184D01*
X333328315Y-86233171D01*
X332917493Y-86375733D01*
X332465384Y-86490575D01*
X331884053Y-86623596D01*
X331439564Y-86733306D01*
X331266433Y-86783273D01*
X330962808Y-86815064D01*
X330412719Y-86806901D01*
X329721651Y-86767128D01*
X328995087Y-86704089D01*
X328338510Y-86626126D01*
X327857404Y-86541584D01*
X327725063Y-86503163D01*
X327343421Y-86290304D01*
X327284356Y-86081338D01*
X327515311Y-85889040D01*
X328003730Y-85726181D01*
X328717055Y-85605535D01*
X329622730Y-85539876D01*
X330200699Y-85531880D01*
X331168445Y-85566338D01*
X332043557Y-85651142D01*
X332762938Y-85774956D01*
X333263489Y-85926444D01*
X333482112Y-86094273D01*
X333486713Y-86122184D01*
X334378546Y-86122184D01*
X334512812Y-86061140D01*
X335361735Y-85501406D01*
X335955483Y-84888115D01*
X336222507Y-84334332D01*
X336291463Y-83841456D01*
X336195060Y-83381254D01*
X335990181Y-82938772D01*
X335749449Y-82370036D01*
X335749325Y-82043090D01*
X335777978Y-82005169D01*
X336035034Y-81944836D01*
X336334835Y-82154795D01*
X336630124Y-82561682D01*
X336873647Y-83092133D01*
X337018148Y-83672785D01*
X337038497Y-83962127D01*
X337327018Y-83962127D01*
X337239119Y-83169823D01*
X336837620Y-82262332D01*
X336782920Y-82179122D01*
X336526739Y-81776983D01*
X336463547Y-81543140D01*
X336579546Y-81357032D01*
X336678211Y-81264253D01*
X336987788Y-80808638D01*
X337219968Y-80147445D01*
X337336553Y-79428173D01*
X337333551Y-79367030D01*
X337039160Y-79367030D01*
X336866168Y-80182272D01*
X336365326Y-80978593D01*
X335563835Y-81725338D01*
X334488894Y-82391855D01*
X334250759Y-82509380D01*
X333500192Y-82836924D01*
X332809027Y-83057488D01*
X332077110Y-83188148D01*
X331204283Y-83245982D01*
X330090392Y-83248065D01*
X329934265Y-83245352D01*
X328948104Y-83213544D01*
X328232987Y-83153467D01*
X327705089Y-83053215D01*
X327280587Y-82900884D01*
X327183614Y-82854673D01*
X326675430Y-82522753D01*
X326280730Y-82129356D01*
X326210338Y-82022126D01*
X326051348Y-81664848D01*
X326090227Y-81383958D01*
X326311179Y-81045203D01*
X326873196Y-80556853D01*
X327705942Y-80196275D01*
X328746391Y-79969556D01*
X329931519Y-79882781D01*
X331198301Y-79942036D01*
X332483713Y-80153407D01*
X333287737Y-80371544D01*
X333995369Y-80605207D01*
X334412176Y-80772952D01*
X334589240Y-80905292D01*
X334577644Y-81032740D01*
X334516003Y-81105225D01*
X334342307Y-81227856D01*
X334096467Y-81260032D01*
X333693395Y-81196139D01*
X333048003Y-81030563D01*
X332942326Y-81001404D01*
X331711540Y-80754415D01*
X330389624Y-80647712D01*
X329107973Y-80683777D01*
X327997985Y-80865094D01*
X327853503Y-80905243D01*
X327190917Y-81161812D01*
X326875966Y-81440015D01*
X326901226Y-81749954D01*
X327079811Y-81958272D01*
X327554404Y-82256803D01*
X328233494Y-82455019D01*
X329167036Y-82562963D01*
X330228107Y-82591259D01*
X331787222Y-82493066D01*
X333140764Y-82180615D01*
X334285568Y-81671296D01*
X333397464Y-81671296D01*
X333377175Y-81701088D01*
X332991756Y-81897975D01*
X332339900Y-82053525D01*
X331508489Y-82163344D01*
X330584406Y-82223043D01*
X329654531Y-82228230D01*
X328805747Y-82174512D01*
X328124936Y-82057500D01*
X327885903Y-81978644D01*
X327486733Y-81772130D01*
X327278537Y-81586856D01*
X327269930Y-81555674D01*
X327434454Y-81394873D01*
X327875890Y-81239993D01*
X328516038Y-81106555D01*
X329276695Y-81010077D01*
X330079659Y-80966079D01*
X330246617Y-80964960D01*
X330943939Y-81000318D01*
X331669709Y-81091505D01*
X332350936Y-81221360D01*
X332914630Y-81372718D01*
X333287803Y-81528418D01*
X333397464Y-81671296D01*
X334285568Y-81671296D01*
X334384920Y-81627095D01*
X334968161Y-81270127D01*
X335568122Y-80831346D01*
X335932482Y-80440162D01*
X336148899Y-79996852D01*
X336183996Y-79886996D01*
X336300125Y-79390774D01*
X336265037Y-79005265D01*
X336055916Y-78541478D01*
X336011712Y-78460019D01*
X335758902Y-77897281D01*
X335753457Y-77566196D01*
X335996457Y-77442408D01*
X336056875Y-77440210D01*
X336273275Y-77591947D01*
X336535798Y-77973707D01*
X336788277Y-78475314D01*
X336974545Y-78986593D01*
X337039160Y-79367030D01*
X337333551Y-79367030D01*
X337307409Y-78834739D01*
X337126080Y-78291113D01*
X336834014Y-77702386D01*
X336764149Y-77588815D01*
X336514334Y-77170510D01*
X336455782Y-76928591D01*
X336571681Y-76751518D01*
X336630283Y-76700704D01*
X336983960Y-76239143D01*
X337256736Y-75578500D01*
X337374205Y-74949500D01*
X336999465Y-74949500D01*
X336839358Y-75706544D01*
X336798193Y-75792363D01*
X336190922Y-76619361D01*
X335294679Y-77367283D01*
X334173408Y-77997642D01*
X332891054Y-78471950D01*
X332004155Y-78677848D01*
X331006975Y-78788997D01*
X329907085Y-78802413D01*
X328820662Y-78725738D01*
X327863886Y-78566613D01*
X327218351Y-78363091D01*
X326500741Y-77923465D01*
X326120694Y-77416497D01*
X326078316Y-76883821D01*
X326373712Y-76367070D01*
X327006986Y-75907878D01*
X327211905Y-75809691D01*
X328232381Y-75503603D01*
X329468790Y-75361231D01*
X330823971Y-75378449D01*
X332200762Y-75551131D01*
X333502002Y-75875153D01*
X334118533Y-76102925D01*
X334540602Y-76296808D01*
X334676581Y-76433032D01*
X334573715Y-76576766D01*
X334502096Y-76632016D01*
X334272608Y-76744960D01*
X333965654Y-76747631D01*
X333483799Y-76631269D01*
X333081117Y-76504255D01*
X332167988Y-76282436D01*
X331112893Y-76148035D01*
X330015654Y-76101787D01*
X328976090Y-76144431D01*
X328094024Y-76276704D01*
X327536363Y-76463287D01*
X327105684Y-76733521D01*
X326853324Y-76998020D01*
X326825874Y-77084965D01*
X326993968Y-77413398D01*
X327463282Y-77691533D01*
X328181363Y-77902451D01*
X329095757Y-78029234D01*
X329845454Y-78058922D01*
X331590444Y-77963058D01*
X333074347Y-77663271D01*
X334332267Y-77151778D01*
X334397656Y-77114663D01*
X333501747Y-77114663D01*
X333262304Y-77255602D01*
X332678466Y-77418315D01*
X332222126Y-77521328D01*
X330892996Y-77718125D01*
X329570656Y-77749314D01*
X328392426Y-77613618D01*
X328158042Y-77559132D01*
X327619082Y-77362800D01*
X327369705Y-77140839D01*
X327358741Y-77084965D01*
X327523984Y-76831552D01*
X327977106Y-76633517D01*
X328654197Y-76496810D01*
X329491347Y-76427385D01*
X330424644Y-76431191D01*
X331390179Y-76514182D01*
X332135844Y-76640095D01*
X332940303Y-76825147D01*
X333395008Y-76977257D01*
X333501747Y-77114663D01*
X334397656Y-77114663D01*
X334586221Y-77007635D01*
X335462684Y-76362257D01*
X336035256Y-75674966D01*
X336291788Y-74974270D01*
X336220130Y-74288677D01*
X335949453Y-73808817D01*
X335710289Y-73462085D01*
X335694267Y-73242043D01*
X335837746Y-73059206D01*
X336035785Y-72918397D01*
X336221824Y-72996478D01*
X336492468Y-73335495D01*
X336501416Y-73348046D01*
X336882081Y-74124323D01*
X336999465Y-74949500D01*
X337374205Y-74949500D01*
X337388242Y-74874342D01*
X337392266Y-74737174D01*
X337301246Y-74232310D01*
X337073451Y-73626613D01*
X336938833Y-73364662D01*
X336487540Y-72575129D01*
X336962012Y-71703368D01*
X337319736Y-70739799D01*
X337321850Y-70351462D01*
X337046351Y-70351462D01*
X336874164Y-71142304D01*
X336406043Y-71904956D01*
X335660576Y-72613334D01*
X334656352Y-73241353D01*
X333411959Y-73762930D01*
X332739261Y-73966619D01*
X332010742Y-74101108D01*
X331076629Y-74187411D01*
X330053660Y-74223643D01*
X329058573Y-74207916D01*
X328208105Y-74138341D01*
X327727983Y-74047649D01*
X327117055Y-73780316D01*
X326568442Y-73374049D01*
X326174261Y-72913212D01*
X326026573Y-72489486D01*
X326186974Y-72102187D01*
X326615676Y-71695960D01*
X327233931Y-71327733D01*
X327962987Y-71054433D01*
X328039428Y-71034397D01*
X328856329Y-70914107D01*
X329894682Y-70883088D01*
X331034124Y-70933867D01*
X332154289Y-71058968D01*
X333134814Y-71250919D01*
X333556037Y-71376960D01*
X334211710Y-71617069D01*
X334581257Y-71785531D01*
X334716499Y-71920196D01*
X334669259Y-72058914D01*
X334597445Y-72137589D01*
X334372316Y-72220863D01*
X333941378Y-72182564D01*
X333244899Y-72016919D01*
X333188308Y-72001412D01*
X332208995Y-71800677D01*
X331101084Y-71684628D01*
X329963814Y-71653157D01*
X328896427Y-71706157D01*
X327998163Y-71843520D01*
X327482269Y-72007576D01*
X326986859Y-72272304D01*
X326824849Y-72510567D01*
X326986361Y-72787317D01*
X327321444Y-73064875D01*
X327683299Y-73261590D01*
X328193569Y-73391994D01*
X328937620Y-73474490D01*
X329335195Y-73499009D01*
X331240198Y-73464124D01*
X332948209Y-73145706D01*
X334384680Y-72588951D01*
X334582574Y-72466578D01*
X333369849Y-72466578D01*
X333318426Y-72599794D01*
X332972562Y-72770583D01*
X332387770Y-72955444D01*
X331976923Y-73056283D01*
X331459282Y-73120563D01*
X330715954Y-73150854D01*
X329866559Y-73149193D01*
X329030721Y-73117617D01*
X328328060Y-73058163D01*
X327925008Y-72987272D01*
X327468021Y-72799240D01*
X327330954Y-72595535D01*
X327480009Y-72393398D01*
X327881389Y-72210075D01*
X328501297Y-72062808D01*
X329305936Y-71968840D01*
X329969928Y-71943942D01*
X330824552Y-71969371D01*
X331682201Y-72048502D01*
X332452861Y-72167497D01*
X333046518Y-72312519D01*
X333369849Y-72466578D01*
X334582574Y-72466578D01*
X335361158Y-71985121D01*
X335994663Y-71324602D01*
X336282348Y-70613357D01*
X336221364Y-69857347D01*
X335960952Y-69290272D01*
X335736438Y-68841321D01*
X335739145Y-68566945D01*
X335796349Y-68490971D01*
X336005533Y-68430578D01*
X336295052Y-68643338D01*
X336428570Y-68789550D01*
X336904016Y-69558516D01*
X337046351Y-70351462D01*
X337321850Y-70351462D01*
X337324776Y-69814325D01*
X336977355Y-68930615D01*
X336775811Y-68636157D01*
X336290945Y-68000466D01*
X336653221Y-67613694D01*
X337179829Y-66833697D01*
X337361622Y-65998963D01*
X337013906Y-65998963D01*
X336796634Y-66718601D01*
X336275786Y-67438955D01*
X336016641Y-67704872D01*
X334921326Y-68585522D01*
X333695417Y-69209106D01*
X332293664Y-69590264D01*
X330670820Y-69743634D01*
X329731101Y-69738447D01*
X328812101Y-69688429D01*
X328135464Y-69596929D01*
X327588888Y-69442784D01*
X327155576Y-69253111D01*
X326497052Y-68817568D01*
X326111351Y-68322254D01*
X326027629Y-67816412D01*
X326134445Y-67528389D01*
X326525015Y-67158924D01*
X327196689Y-66814268D01*
X328075401Y-66526677D01*
X328782417Y-66375149D01*
X329890330Y-66290109D01*
X331155122Y-66358271D01*
X332428842Y-66560872D01*
X333563543Y-66879152D01*
X333930769Y-67028006D01*
X334424843Y-67263581D01*
X334635447Y-67414159D01*
X334607394Y-67530493D01*
X334457977Y-67625113D01*
X334156491Y-67710406D01*
X333734395Y-67664204D01*
X333095815Y-67475024D01*
X333036998Y-67454916D01*
X332163651Y-67235431D01*
X331134739Y-67101552D01*
X330052139Y-67054063D01*
X329017729Y-67093753D01*
X328133386Y-67221406D01*
X327549179Y-67412555D01*
X327011143Y-67731516D01*
X326809514Y-68008787D01*
X326934919Y-68284118D01*
X327282993Y-68541068D01*
X328013231Y-68830169D01*
X328986572Y-68995093D01*
X330114444Y-69038900D01*
X331308274Y-68964650D01*
X332479489Y-68775403D01*
X333539514Y-68474217D01*
X333938874Y-68311149D01*
X334425383Y-68040464D01*
X333486713Y-68040464D01*
X333324129Y-68176548D01*
X332888864Y-68339349D01*
X332259649Y-68503540D01*
X331710489Y-68611898D01*
X330972338Y-68683604D01*
X330070004Y-68693699D01*
X329156977Y-68647019D01*
X328386750Y-68548400D01*
X328171243Y-68500391D01*
X327584594Y-68300029D01*
X327350708Y-68098582D01*
X327470153Y-67890744D01*
X327943493Y-67671207D01*
X328270736Y-67567583D01*
X329137315Y-67383332D01*
X330052553Y-67346653D01*
X330593560Y-67379396D01*
X331496831Y-67479643D01*
X332304549Y-67613151D01*
X332949561Y-67764577D01*
X333364714Y-67918577D01*
X333486713Y-68040464D01*
X334425383Y-68040464D01*
X335035589Y-67700957D01*
X335786431Y-67032367D01*
X336189818Y-66308028D01*
X336244167Y-65530588D01*
X336016288Y-64833095D01*
X335810966Y-64355705D01*
X335788730Y-64077518D01*
X335889890Y-63936531D01*
X336142002Y-63921033D01*
X336443335Y-64165311D01*
X336729465Y-64592568D01*
X336935967Y-65126003D01*
X336955231Y-65206493D01*
X337013906Y-65998963D01*
X337361622Y-65998963D01*
X337367412Y-65972378D01*
X337217080Y-65016989D01*
X336938717Y-64339570D01*
X336483030Y-63425123D01*
X336874885Y-62895111D01*
X337262020Y-62086934D01*
X337338647Y-61329800D01*
X337035260Y-61329800D01*
X336873862Y-62077791D01*
X336407721Y-62840270D01*
X335680931Y-63564568D01*
X334737586Y-64198017D01*
X334551296Y-64296741D01*
X333878548Y-64570608D01*
X332985257Y-64840191D01*
X332004776Y-65070292D01*
X331070461Y-65225715D01*
X331000000Y-65234063D01*
X330543288Y-65289365D01*
X330251146Y-65330445D01*
X330234723Y-65333462D01*
X329999655Y-65321996D01*
X329514437Y-65265247D01*
X328879531Y-65175121D01*
X328813744Y-65165050D01*
X327960860Y-65013401D01*
X327356770Y-64843282D01*
X326895726Y-64613853D01*
X326471982Y-64284276D01*
X326426223Y-64242996D01*
X326091078Y-63760851D01*
X326085821Y-63262543D01*
X326388964Y-62784217D01*
X326979024Y-62362017D01*
X327720949Y-62064891D01*
X328704155Y-61878050D01*
X329900044Y-61816305D01*
X331192118Y-61871184D01*
X332463878Y-62034221D01*
X333598827Y-62296946D01*
X334259615Y-62540221D01*
X334640520Y-62776295D01*
X334719479Y-62968950D01*
X334549160Y-63095858D01*
X334182236Y-63134690D01*
X333671376Y-63063116D01*
X333294301Y-62949452D01*
X332739348Y-62809475D01*
X331936141Y-62687573D01*
X330991652Y-62598440D01*
X330555944Y-62573255D01*
X329614584Y-62541422D01*
X328928563Y-62553149D01*
X328399715Y-62616876D01*
X327929876Y-62741038D01*
X327715452Y-62817402D01*
X327081575Y-63125571D01*
X326786095Y-63431219D01*
X326812343Y-63720549D01*
X327143650Y-63979765D01*
X327763346Y-64195069D01*
X328654764Y-64352664D01*
X329667832Y-64433415D01*
X331315201Y-64410395D01*
X332751753Y-64172580D01*
X334062367Y-63702058D01*
X334477886Y-63487049D01*
X333364065Y-63487049D01*
X333223647Y-63655502D01*
X332744099Y-63827779D01*
X331941433Y-63999156D01*
X331266433Y-64106055D01*
X330166868Y-64193194D01*
X329082921Y-64114412D01*
X328024825Y-63903833D01*
X327488551Y-63731171D01*
X327304766Y-63548482D01*
X327470752Y-63340670D01*
X327885903Y-63132545D01*
X328417139Y-62992530D01*
X329139884Y-62912456D01*
X329979718Y-62887508D01*
X330862220Y-62912869D01*
X331712972Y-62983723D01*
X332457552Y-63095256D01*
X333021540Y-63242650D01*
X333330518Y-63421090D01*
X333364065Y-63487049D01*
X334477886Y-63487049D01*
X334701826Y-63371172D01*
X335577987Y-62744667D01*
X336111799Y-62063150D01*
X336299750Y-61335284D01*
X336138329Y-60569732D01*
X335968879Y-60244566D01*
X335730252Y-59725468D01*
X335776072Y-59418060D01*
X336081404Y-59322727D01*
X336314637Y-59477935D01*
X336577173Y-59872219D01*
X336818158Y-60398575D01*
X336986737Y-60949995D01*
X337035260Y-61329800D01*
X337338647Y-61329800D01*
X337355488Y-61163399D01*
X337152565Y-60212988D01*
X336969809Y-59811189D01*
X336516288Y-58967483D01*
X336955347Y-58141727D01*
X337305311Y-57298311D01*
X337386227Y-56521981D01*
X337370759Y-56458688D01*
X337045350Y-56458688D01*
X336974094Y-57291706D01*
X336593467Y-58089902D01*
X335926268Y-58828819D01*
X334995292Y-59484000D01*
X333823339Y-60030988D01*
X332433205Y-60445327D01*
X332243356Y-60486970D01*
X331331244Y-60614326D01*
X330268486Y-60663363D01*
X329186172Y-60636455D01*
X328215395Y-60535980D01*
X327602695Y-60402865D01*
X327007639Y-60125878D01*
X326485190Y-59719406D01*
X326128972Y-59270631D01*
X326026573Y-58935188D01*
X326146356Y-58579705D01*
X326436013Y-58186840D01*
X326450211Y-58172452D01*
X327114488Y-57731657D01*
X328041056Y-57433910D01*
X329166689Y-57279998D01*
X330428163Y-57270709D01*
X331762252Y-57406828D01*
X333105731Y-57689145D01*
X334286014Y-58074886D01*
X334631642Y-58230998D01*
X334680912Y-58357255D01*
X334502096Y-58516220D01*
X334271276Y-58627979D01*
X333961053Y-58628948D01*
X333474232Y-58510200D01*
X333081117Y-58385739D01*
X332175249Y-58165545D01*
X331125715Y-58032139D01*
X330032365Y-57986191D01*
X328995051Y-58028369D01*
X328113623Y-58159342D01*
X327546037Y-58348668D01*
X327006889Y-58671487D01*
X326800342Y-58949963D01*
X326912938Y-59220023D01*
X327149529Y-59407174D01*
X327980298Y-59771706D01*
X329040966Y-59964516D01*
X330252901Y-59989978D01*
X331537473Y-59852463D01*
X332816051Y-59556344D01*
X334010005Y-59105994D01*
X334197202Y-59015267D01*
X334217832Y-59002812D01*
X333457448Y-59002812D01*
X333201738Y-59129242D01*
X332647330Y-59278727D01*
X331773164Y-59465808D01*
X331266433Y-59566808D01*
X330573285Y-59635925D01*
X329704302Y-59631832D01*
X328829757Y-59561387D01*
X328158042Y-59441650D01*
X327586718Y-59232694D01*
X327367692Y-59004208D01*
X327499647Y-58770631D01*
X327981264Y-58546401D01*
X328246853Y-58468948D01*
X329078197Y-58341411D01*
X330117357Y-58313069D01*
X331232355Y-58379496D01*
X332291211Y-58536263D01*
X332643007Y-58616448D01*
X333157021Y-58760955D01*
X333435522Y-58884897D01*
X333457448Y-59002812D01*
X334217832Y-59002812D01*
X335212190Y-58402498D01*
X335907195Y-57752884D01*
X336273805Y-57082281D01*
X336303605Y-56406546D01*
X335988182Y-55741537D01*
X335956225Y-55699943D01*
X335720027Y-55334430D01*
X335722865Y-55081703D01*
X335802169Y-54963310D01*
X336085686Y-54823216D01*
X336410571Y-55035322D01*
X336776023Y-55599096D01*
X336784439Y-55615306D01*
X337045350Y-56458688D01*
X337370759Y-56458688D01*
X337191037Y-55723294D01*
X336712684Y-54812805D01*
X336689822Y-54776380D01*
X336561909Y-54485388D01*
X336629067Y-54202252D01*
X336849186Y-53871129D01*
X337235272Y-53074767D01*
X337350662Y-52206431D01*
X337039160Y-52206431D01*
X336870672Y-53039190D01*
X336397032Y-53813233D01*
X335665977Y-54510685D01*
X334725243Y-55113676D01*
X333622569Y-55604330D01*
X332405691Y-55964776D01*
X331122346Y-56177141D01*
X329820271Y-56223551D01*
X328547203Y-56086134D01*
X327466056Y-55790647D01*
X326898484Y-55503106D01*
X326422589Y-55130518D01*
X326315157Y-55007244D01*
X326078874Y-54640799D01*
X326057721Y-54361746D01*
X326210338Y-54030321D01*
X326684809Y-53517681D01*
X327434145Y-53132507D01*
X328400309Y-52878271D01*
X329525265Y-52758443D01*
X330750975Y-52776493D01*
X332019403Y-52935892D01*
X333272511Y-53240111D01*
X334144806Y-53555861D01*
X334555892Y-53745257D01*
X334680263Y-53879302D01*
X334564194Y-54026404D01*
X334497530Y-54077313D01*
X334262709Y-54195353D01*
X333959602Y-54195130D01*
X333484257Y-54067358D01*
X333165362Y-53958340D01*
X332218152Y-53705532D01*
X331155039Y-53554132D01*
X330057205Y-53501951D01*
X329005832Y-53546803D01*
X328082103Y-53686498D01*
X327367199Y-53918848D01*
X327047698Y-54123239D01*
X326834267Y-54345995D01*
X326848342Y-54521196D01*
X327111253Y-54778223D01*
X327163035Y-54822857D01*
X327668411Y-55122741D01*
X328382420Y-55312322D01*
X329347453Y-55397895D01*
X330605900Y-55385750D01*
X330872042Y-55373408D01*
X332360755Y-55213565D01*
X333608640Y-54884546D01*
X334346571Y-54530768D01*
X333486713Y-54530768D01*
X333325358Y-54625641D01*
X332898729Y-54752590D01*
X332292978Y-54891753D01*
X331594259Y-55023271D01*
X330911188Y-55124499D01*
X330153793Y-55150745D01*
X329267010Y-55083238D01*
X328415803Y-54941306D01*
X327802797Y-54760324D01*
X327413811Y-54583203D01*
X327314218Y-54454168D01*
X327460288Y-54297905D01*
X327511822Y-54259205D01*
X327969740Y-54062160D01*
X328684780Y-53918539D01*
X329561321Y-53839652D01*
X330503746Y-53836811D01*
X330885554Y-53860136D01*
X331614310Y-53948353D01*
X332323433Y-54082166D01*
X332928219Y-54239738D01*
X333343965Y-54399230D01*
X333486713Y-54530768D01*
X334346571Y-54530768D01*
X334699430Y-54361601D01*
X335040678Y-54141228D01*
X335804128Y-53472794D01*
X336219141Y-52760859D01*
X336283770Y-52011632D01*
X335996062Y-51231323D01*
X335968879Y-51185825D01*
X335732652Y-50671090D01*
X335768625Y-50359213D01*
X336040013Y-50263986D01*
X336284452Y-50417848D01*
X336561933Y-50807006D01*
X336816573Y-51322824D01*
X336992493Y-51856663D01*
X337039160Y-52206431D01*
X337350662Y-52206431D01*
X337355674Y-52168721D01*
X337216016Y-51264278D01*
X336821922Y-50472726D01*
X336668121Y-50287953D01*
X336305511Y-49898736D01*
X336754079Y-49365643D01*
X337210141Y-48559963D01*
X337333407Y-47767941D01*
X337025162Y-47767941D01*
X336962663Y-48235506D01*
X336630108Y-48922745D01*
X336012714Y-49615756D01*
X335177110Y-50268663D01*
X334189928Y-50835593D01*
X333117798Y-51270673D01*
X332226830Y-51496015D01*
X331248846Y-51605431D01*
X330161761Y-51622035D01*
X329071660Y-51553833D01*
X328084633Y-51408825D01*
X327306765Y-51195016D01*
X327113062Y-51110228D01*
X326461835Y-50724332D01*
X326119282Y-50350376D01*
X326046112Y-49928760D01*
X326122205Y-49607275D01*
X326475493Y-49098190D01*
X327112861Y-48696985D01*
X327978484Y-48408275D01*
X329016538Y-48236672D01*
X330171199Y-48186789D01*
X331386642Y-48263239D01*
X332607044Y-48470634D01*
X333776579Y-48813588D01*
X334116562Y-48946679D01*
X334524919Y-49136869D01*
X334650038Y-49283092D01*
X334543607Y-49459805D01*
X334502210Y-49502235D01*
X334289534Y-49665821D01*
X334041438Y-49678586D01*
X333625688Y-49540678D01*
X333531432Y-49503303D01*
X332464027Y-49183809D01*
X331218582Y-48977147D01*
X329955808Y-48900937D01*
X328836421Y-48972798D01*
X328777694Y-48982142D01*
X327935952Y-49169673D01*
X327287362Y-49409875D01*
X326884415Y-49676918D01*
X326779604Y-49944973D01*
X326784699Y-49962840D01*
X326973337Y-50183397D01*
X327348976Y-50458968D01*
X327434425Y-50510676D01*
X327768707Y-50667675D01*
X328181232Y-50769669D01*
X328752882Y-50827537D01*
X329564535Y-50852159D01*
X329995690Y-50855201D01*
X331516122Y-50799517D01*
X332769617Y-50611350D01*
X333825199Y-50273671D01*
X334463866Y-49926166D01*
X333486713Y-49926166D01*
X333324507Y-50061316D01*
X332892375Y-50221524D01*
X332272043Y-50381466D01*
X331621678Y-50504053D01*
X331120124Y-50541616D01*
X330424851Y-50541547D01*
X329636300Y-50510208D01*
X328854910Y-50453956D01*
X328181122Y-50379150D01*
X327715377Y-50292151D01*
X327597696Y-50249280D01*
X327310568Y-50013401D01*
X327331889Y-49799398D01*
X327615179Y-49614237D01*
X328113955Y-49464879D01*
X328781736Y-49358289D01*
X329572042Y-49301430D01*
X330438389Y-49301265D01*
X331334296Y-49364758D01*
X332213282Y-49498871D01*
X332376573Y-49533362D01*
X332947276Y-49680962D01*
X333347899Y-49824649D01*
X333486713Y-49926166D01*
X334463866Y-49926166D01*
X334751891Y-49769449D01*
X334946225Y-49633823D01*
X335731117Y-48925318D01*
X336173192Y-48196793D01*
X336269688Y-47463412D01*
X336017846Y-46740341D01*
X335573398Y-46188930D01*
X334557203Y-45432723D01*
X333283603Y-44880128D01*
X331793950Y-44542552D01*
X330129595Y-44431400D01*
X329305812Y-44460156D01*
X328397847Y-44499667D01*
X327819329Y-44472657D01*
X327549727Y-44373548D01*
X327568509Y-44196762D01*
X327731743Y-44032465D01*
X328077943Y-43896441D01*
X328689211Y-43796126D01*
X329476855Y-43734788D01*
X330352183Y-43715696D01*
X331226504Y-43742117D01*
X332011124Y-43817319D01*
X332293417Y-43864399D01*
X333612010Y-44226311D01*
X334763674Y-44745877D01*
X335714616Y-45391459D01*
X336431041Y-46131422D01*
X336879155Y-46934128D01*
X337025162Y-47767941D01*
X337333407Y-47767941D01*
X337353450Y-47639165D01*
X337231753Y-46869082D01*
X336771111Y-45931476D01*
X336009264Y-45112285D01*
X334985794Y-44429613D01*
X333740283Y-43901565D01*
X332312314Y-43546244D01*
X330741469Y-43381753D01*
X329620069Y-43387739D01*
G37*
X329620069Y-43387739D02*
X328634898Y-43456282D01*
X327957347Y-43563221D01*
X327540246Y-43728922D01*
X327336428Y-43973753D01*
X327298723Y-44318081D01*
X327305355Y-44387244D01*
X327358741Y-44846504D01*
X329490209Y-44787710D01*
X331049031Y-44808785D01*
X332352427Y-44977783D01*
X333475226Y-45311737D01*
X334492253Y-45827680D01*
X334728287Y-45980058D01*
X335480980Y-46603689D01*
X335879198Y-47226670D01*
X335923697Y-47851291D01*
X335615235Y-48479840D01*
X335572894Y-48533362D01*
X335174126Y-49023017D01*
X334108391Y-48592906D01*
X332711432Y-48152745D01*
X331223831Y-47900269D01*
X329739240Y-47838792D01*
X328351312Y-47971629D01*
X327153701Y-48302094D01*
X327054636Y-48343281D01*
X326269294Y-48800982D01*
X325799569Y-49347115D01*
X325657137Y-49953401D01*
X325853677Y-50591559D01*
X326023248Y-50841094D01*
X326588267Y-51302148D01*
X327425825Y-51647656D01*
X328471423Y-51874342D01*
X329660562Y-51978930D01*
X330928743Y-51958142D01*
X332211466Y-51808702D01*
X333444234Y-51527335D01*
X334224236Y-51257698D01*
X335268020Y-50836094D01*
X335620723Y-51284484D01*
X335928569Y-51930898D01*
X335898548Y-52607687D01*
X335564448Y-53206356D01*
X335155469Y-53681822D01*
X334413689Y-53303394D01*
X333318746Y-52876146D01*
X332036012Y-52585305D01*
X330665903Y-52436365D01*
X329308833Y-52434819D01*
X328065219Y-52586162D01*
X327035476Y-52895888D01*
X327027718Y-52899308D01*
X326328504Y-53333291D01*
X325880980Y-53875249D01*
X325717774Y-54465651D01*
X325861436Y-55027358D01*
X326176379Y-55397925D01*
X326667495Y-55790116D01*
X326921372Y-55947902D01*
X327261193Y-56125525D01*
X327585988Y-56248083D01*
X327970059Y-56325512D01*
X328487709Y-56367750D01*
X329213240Y-56384731D01*
X330200699Y-56386438D01*
X331253984Y-56376578D01*
X332036785Y-56345923D01*
X332633691Y-56284760D01*
X333129289Y-56183378D01*
X333608169Y-56032062D01*
X333753146Y-55978529D01*
X334359342Y-55751842D01*
X334862161Y-55567697D01*
X335116265Y-55478390D01*
X335408787Y-55533946D01*
X335692204Y-55919307D01*
X335693538Y-55921884D01*
X335938629Y-56582268D01*
X335892982Y-57129239D01*
X335573776Y-57635404D01*
X335174126Y-58099358D01*
X334326279Y-57723977D01*
X332706749Y-57178360D01*
X330979433Y-56902952D01*
X329252865Y-56908419D01*
X328020007Y-57104135D01*
X327094168Y-57370841D01*
X326457144Y-57683122D01*
X326042536Y-58081866D01*
X325845364Y-58443274D01*
X325741039Y-59091394D01*
X325960550Y-59686020D01*
X326473757Y-60203631D01*
X327250518Y-60620705D01*
X328260692Y-60913720D01*
X329172187Y-61039477D01*
X330104508Y-61051332D01*
X331184900Y-60965076D01*
X332298564Y-60799258D01*
X333330700Y-60572428D01*
X334166508Y-60303135D01*
X334409225Y-60193290D01*
X334859937Y-59975487D01*
X335121700Y-59918605D01*
X335320315Y-60018854D01*
X335469990Y-60161327D01*
X335808210Y-60701752D01*
X335923763Y-61339706D01*
X335801920Y-61934133D01*
X335676293Y-62137029D01*
X335345759Y-62545222D01*
X333927774Y-62062034D01*
X332671567Y-61729617D01*
X331295387Y-61525976D01*
X329913328Y-61457552D01*
X328639484Y-61530780D01*
X327718494Y-61711677D01*
X326755662Y-62097618D01*
X326097275Y-62585699D01*
X325751025Y-63141537D01*
X325724605Y-63730746D01*
X326025708Y-64318944D01*
X326662028Y-64871744D01*
X326970828Y-65053427D01*
X327310949Y-65216865D01*
X327661502Y-65328405D01*
X328098433Y-65397580D01*
X328697691Y-65433921D01*
X329535222Y-65446961D01*
X330111888Y-65447672D01*
X331128555Y-65439613D01*
X331885012Y-65410156D01*
X332476182Y-65346915D01*
X332996984Y-65237503D01*
X333542340Y-65069536D01*
X333855311Y-64959210D01*
X334496544Y-64732705D01*
X335003587Y-64562621D01*
X335288651Y-64478130D01*
X335316135Y-64473776D01*
X335485142Y-64622677D01*
X335691245Y-64982265D01*
X335873192Y-65421866D01*
X335969732Y-65810807D01*
X335973426Y-65876030D01*
X335860609Y-66250663D01*
X335587733Y-66669737D01*
X335573776Y-66685865D01*
X335174126Y-67141540D01*
X334101996Y-66704063D01*
X332941017Y-66315541D01*
X331756260Y-66071149D01*
X330583023Y-65960411D01*
X329456604Y-65972850D01*
X328412300Y-66097988D01*
X327485411Y-66325349D01*
X326711234Y-66644457D01*
X326125066Y-67044833D01*
X325762207Y-67516002D01*
X325657955Y-68047487D01*
X325847606Y-68628810D01*
X326172206Y-69057714D01*
X326677537Y-69471752D01*
X327334398Y-69764606D01*
X328196654Y-69949604D01*
X329318170Y-70040075D01*
X330200699Y-70054519D01*
X331801312Y-69976372D01*
X333168526Y-69751256D01*
X334263432Y-69387036D01*
X334717835Y-69141695D01*
X335019169Y-68979847D01*
X335234757Y-69021150D01*
X335501301Y-69303869D01*
X335560660Y-69377623D01*
X335835940Y-69804007D01*
X335970041Y-70173322D01*
X335972544Y-70210919D01*
X335902139Y-70555764D01*
X335731784Y-70985534D01*
X335524909Y-71368062D01*
X335344943Y-71571179D01*
X335316135Y-71578671D01*
X335105053Y-71524233D01*
X334647401Y-71379720D01*
X334031585Y-71173338D01*
X333855311Y-71112621D01*
X332643688Y-70788914D01*
X331299695Y-70588746D01*
X329939807Y-70518655D01*
X328680500Y-70585177D01*
X327724846Y-70768572D01*
X326870897Y-71111564D01*
X326205988Y-71567094D01*
X325788383Y-72085230D01*
X325671328Y-72528303D01*
X325839091Y-73126623D01*
X326303278Y-73680084D01*
X327005244Y-74132809D01*
X327588089Y-74354497D01*
X328595070Y-74539272D01*
X329816235Y-74597041D01*
X331136586Y-74534353D01*
X332441122Y-74357758D01*
X333614844Y-74073804D01*
X333841958Y-73998329D01*
X335174126Y-73528827D01*
X335573776Y-73984633D01*
X335916397Y-74583655D01*
X335904103Y-75187465D01*
X335573776Y-75744607D01*
X335174126Y-76200282D01*
X334108391Y-75766478D01*
X332610151Y-75292828D01*
X331030618Y-75035569D01*
X329465692Y-74999341D01*
X328011273Y-75188787D01*
X327181119Y-75431206D01*
X326539591Y-75735811D01*
X326123213Y-76124176D01*
X325943188Y-76410692D01*
X325730487Y-76850477D01*
X325692665Y-77165395D01*
X325821067Y-77534740D01*
X325882594Y-77665969D01*
X326320454Y-78240754D01*
X326801735Y-78571396D01*
X327893714Y-78936508D01*
X329195492Y-79128623D01*
X330608671Y-79151409D01*
X332034851Y-79008538D01*
X333375631Y-78703680D01*
X334442977Y-78286381D01*
X334880316Y-78079916D01*
X335135661Y-78036094D01*
X335344602Y-78158378D01*
X335504675Y-78313494D01*
X335775719Y-78785297D01*
X335879045Y-79394066D01*
X335808414Y-79988315D01*
X335590067Y-80386406D01*
X335421608Y-80517937D01*
X335209216Y-80558980D01*
X334871711Y-80499875D01*
X334327909Y-80330961D01*
X333906691Y-80186087D01*
X332785741Y-79862171D01*
X331615657Y-79674610D01*
X330775962Y-79611642D01*
X329249370Y-79607125D01*
X327979463Y-79756149D01*
X326982322Y-80052396D01*
X326274026Y-80489549D01*
X325870653Y-81061292D01*
X325777902Y-81575232D01*
X325851705Y-82135480D01*
X326114825Y-82574468D01*
X326629823Y-82974993D01*
X326991614Y-83181514D01*
X327319825Y-83338293D01*
X327665404Y-83446303D01*
X328101572Y-83514348D01*
X328701547Y-83551232D01*
X329538547Y-83565760D01*
X330200699Y-83567405D01*
X331214471Y-83562228D01*
X331957866Y-83539842D01*
X332515705Y-83488866D01*
X332972808Y-83397915D01*
X333413995Y-83255606D01*
X333863699Y-83075821D01*
X334608865Y-82795684D01*
X335116368Y-82699433D01*
X335455850Y-82792733D01*
X335696953Y-83081250D01*
X335771745Y-83231066D01*
X335957590Y-83870632D01*
X335846278Y-84418709D01*
X335620723Y-84767964D01*
X335268020Y-85216353D01*
X334234601Y-84798937D01*
X332867322Y-84367718D01*
X331403035Y-84116324D01*
X329933930Y-84047358D01*
X328552192Y-84163421D01*
X327350011Y-84467117D01*
X327036881Y-84595785D01*
X326273248Y-85047304D01*
X325849920Y-85559198D01*
X325753768Y-86155982D01*
X325903901Y-86711742D01*
X326209520Y-87193736D01*
X326703862Y-87564265D01*
X327437515Y-87848057D01*
X328461069Y-88069842D01*
X328787737Y-88121416D01*
X330445526Y-88210854D01*
X332166933Y-88019433D01*
X333821125Y-87563597D01*
X334105868Y-87453013D01*
X335174126Y-87017265D01*
X335573776Y-87478502D01*
X335849924Y-87889433D01*
X335973012Y-88254978D01*
X335973426Y-88270553D01*
X336090229Y-88807174D01*
X336387253Y-89125860D01*
X336784424Y-89181556D01*
X337181258Y-88950140D01*
X337382143Y-88528007D01*
X336996468Y-88528007D01*
X336920746Y-88689627D01*
X336621338Y-88813346D01*
X336385629Y-88649670D01*
X336328007Y-88408392D01*
X336236372Y-87993205D01*
X336012303Y-87494943D01*
X335968879Y-87420790D01*
X335732652Y-86906055D01*
X335768625Y-86594178D01*
X336040013Y-86498951D01*
X336315603Y-86655908D01*
X336594752Y-87050985D01*
X336831752Y-87570488D01*
X336980893Y-88100727D01*
X336996468Y-88528007D01*
X337382143Y-88528007D01*
X337392995Y-88505205D01*
X337365362Y-87904727D01*
X337118047Y-87236241D01*
X336670740Y-86587285D01*
X336642829Y-86556206D01*
X336411791Y-86273099D01*
X336412036Y-86071257D01*
X336649097Y-85784922D01*
X336669307Y-85763223D01*
X337152466Y-84999048D01*
X337343236Y-84108321D01*
X337327018Y-83962127D01*
X337038497Y-83962127D01*
X336876658Y-84667521D01*
X336432659Y-85403575D01*
X335766085Y-86103946D01*
X334936520Y-86702289D01*
X334286014Y-87026847D01*
X332464235Y-87606377D01*
X330629746Y-87864090D01*
X328838601Y-87793313D01*
X328416275Y-87725759D01*
X327471740Y-87503285D01*
X326820909Y-87224729D01*
X326402980Y-86856891D01*
X326214340Y-86523443D01*
X326098924Y-85998568D01*
X326255942Y-85558719D01*
X326715094Y-85155277D01*
X327222514Y-84873247D01*
X327643237Y-84687080D01*
X328061016Y-84565683D01*
X328567408Y-84495916D01*
X329253970Y-84464638D01*
X330111888Y-84458545D01*
X331142480Y-84475485D01*
X331937804Y-84533738D01*
X332616865Y-84648382D01*
X333298669Y-84834493D01*
X333442307Y-84880469D01*
X334055545Y-85099865D01*
X334510276Y-85299793D01*
X334723647Y-85442898D01*
X334730070Y-85461065D01*
X334576957Y-85678388D01*
X334135453Y-85730325D01*
X333432305Y-85615459D01*
X333160161Y-85544295D01*
X331964365Y-85283994D01*
X330737303Y-85149416D01*
X329554228Y-85137756D01*
X328490393Y-85246208D01*
X327621053Y-85471968D01*
X327069315Y-85771362D01*
X326679982Y-86086626D01*
X327044462Y-86451106D01*
X327473848Y-86705334D01*
X328159466Y-86919607D01*
X329003041Y-87076845D01*
X329906298Y-87159967D01*
X330770962Y-87151893D01*
X330970640Y-87133504D01*
X332263701Y-86905738D01*
X333462280Y-86538767D01*
X334378546Y-86122184D01*
X333486713Y-86122184D01*
X333328315Y-86233171D01*
X332917493Y-86375733D01*
X332465384Y-86490575D01*
X331884053Y-86623596D01*
X331439564Y-86733306D01*
X331266433Y-86783273D01*
X330962808Y-86815064D01*
X330412719Y-86806901D01*
X329721651Y-86767128D01*
X328995087Y-86704089D01*
X328338510Y-86626126D01*
X327857404Y-86541584D01*
X327725063Y-86503163D01*
X327343421Y-86290304D01*
X327284356Y-86081338D01*
X327515311Y-85889040D01*
X328003730Y-85726181D01*
X328717055Y-85605535D01*
X329622730Y-85539876D01*
X330200699Y-85531880D01*
X331168445Y-85566338D01*
X332043557Y-85651142D01*
X332762938Y-85774956D01*
X333263489Y-85926444D01*
X333482112Y-86094273D01*
X333486713Y-86122184D01*
X334378546Y-86122184D01*
X334512812Y-86061140D01*
X335361735Y-85501406D01*
X335955483Y-84888115D01*
X336222507Y-84334332D01*
X336291463Y-83841456D01*
X336195060Y-83381254D01*
X335990181Y-82938772D01*
X335749449Y-82370036D01*
X335749325Y-82043090D01*
X335777978Y-82005169D01*
X336035034Y-81944836D01*
X336334835Y-82154795D01*
X336630124Y-82561682D01*
X336873647Y-83092133D01*
X337018148Y-83672785D01*
X337038497Y-83962127D01*
X337327018Y-83962127D01*
X337239119Y-83169823D01*
X336837620Y-82262332D01*
X336782920Y-82179122D01*
X336526739Y-81776983D01*
X336463547Y-81543140D01*
X336579546Y-81357032D01*
X336678211Y-81264253D01*
X336987788Y-80808638D01*
X337219968Y-80147445D01*
X337336553Y-79428173D01*
X337333551Y-79367030D01*
X337039160Y-79367030D01*
X336866168Y-80182272D01*
X336365326Y-80978593D01*
X335563835Y-81725338D01*
X334488894Y-82391855D01*
X334250759Y-82509380D01*
X333500192Y-82836924D01*
X332809027Y-83057488D01*
X332077110Y-83188148D01*
X331204283Y-83245982D01*
X330090392Y-83248065D01*
X329934265Y-83245352D01*
X328948104Y-83213544D01*
X328232987Y-83153467D01*
X327705089Y-83053215D01*
X327280587Y-82900884D01*
X327183614Y-82854673D01*
X326675430Y-82522753D01*
X326280730Y-82129356D01*
X326210338Y-82022126D01*
X326051348Y-81664848D01*
X326090227Y-81383958D01*
X326311179Y-81045203D01*
X326873196Y-80556853D01*
X327705942Y-80196275D01*
X328746391Y-79969556D01*
X329931519Y-79882781D01*
X331198301Y-79942036D01*
X332483713Y-80153407D01*
X333287737Y-80371544D01*
X333995369Y-80605207D01*
X334412176Y-80772952D01*
X334589240Y-80905292D01*
X334577644Y-81032740D01*
X334516003Y-81105225D01*
X334342307Y-81227856D01*
X334096467Y-81260032D01*
X333693395Y-81196139D01*
X333048003Y-81030563D01*
X332942326Y-81001404D01*
X331711540Y-80754415D01*
X330389624Y-80647712D01*
X329107973Y-80683777D01*
X327997985Y-80865094D01*
X327853503Y-80905243D01*
X327190917Y-81161812D01*
X326875966Y-81440015D01*
X326901226Y-81749954D01*
X327079811Y-81958272D01*
X327554404Y-82256803D01*
X328233494Y-82455019D01*
X329167036Y-82562963D01*
X330228107Y-82591259D01*
X331787222Y-82493066D01*
X333140764Y-82180615D01*
X334285568Y-81671296D01*
X333397464Y-81671296D01*
X333377175Y-81701088D01*
X332991756Y-81897975D01*
X332339900Y-82053525D01*
X331508489Y-82163344D01*
X330584406Y-82223043D01*
X329654531Y-82228230D01*
X328805747Y-82174512D01*
X328124936Y-82057500D01*
X327885903Y-81978644D01*
X327486733Y-81772130D01*
X327278537Y-81586856D01*
X327269930Y-81555674D01*
X327434454Y-81394873D01*
X327875890Y-81239993D01*
X328516038Y-81106555D01*
X329276695Y-81010077D01*
X330079659Y-80966079D01*
X330246617Y-80964960D01*
X330943939Y-81000318D01*
X331669709Y-81091505D01*
X332350936Y-81221360D01*
X332914630Y-81372718D01*
X333287803Y-81528418D01*
X333397464Y-81671296D01*
X334285568Y-81671296D01*
X334384920Y-81627095D01*
X334968161Y-81270127D01*
X335568122Y-80831346D01*
X335932482Y-80440162D01*
X336148899Y-79996852D01*
X336183996Y-79886996D01*
X336300125Y-79390774D01*
X336265037Y-79005265D01*
X336055916Y-78541478D01*
X336011712Y-78460019D01*
X335758902Y-77897281D01*
X335753457Y-77566196D01*
X335996457Y-77442408D01*
X336056875Y-77440210D01*
X336273275Y-77591947D01*
X336535798Y-77973707D01*
X336788277Y-78475314D01*
X336974545Y-78986593D01*
X337039160Y-79367030D01*
X337333551Y-79367030D01*
X337307409Y-78834739D01*
X337126080Y-78291113D01*
X336834014Y-77702386D01*
X336764149Y-77588815D01*
X336514334Y-77170510D01*
X336455782Y-76928591D01*
X336571681Y-76751518D01*
X336630283Y-76700704D01*
X336983960Y-76239143D01*
X337256736Y-75578500D01*
X337374205Y-74949500D01*
X336999465Y-74949500D01*
X336839358Y-75706544D01*
X336798193Y-75792363D01*
X336190922Y-76619361D01*
X335294679Y-77367283D01*
X334173408Y-77997642D01*
X332891054Y-78471950D01*
X332004155Y-78677848D01*
X331006975Y-78788997D01*
X329907085Y-78802413D01*
X328820662Y-78725738D01*
X327863886Y-78566613D01*
X327218351Y-78363091D01*
X326500741Y-77923465D01*
X326120694Y-77416497D01*
X326078316Y-76883821D01*
X326373712Y-76367070D01*
X327006986Y-75907878D01*
X327211905Y-75809691D01*
X328232381Y-75503603D01*
X329468790Y-75361231D01*
X330823971Y-75378449D01*
X332200762Y-75551131D01*
X333502002Y-75875153D01*
X334118533Y-76102925D01*
X334540602Y-76296808D01*
X334676581Y-76433032D01*
X334573715Y-76576766D01*
X334502096Y-76632016D01*
X334272608Y-76744960D01*
X333965654Y-76747631D01*
X333483799Y-76631269D01*
X333081117Y-76504255D01*
X332167988Y-76282436D01*
X331112893Y-76148035D01*
X330015654Y-76101787D01*
X328976090Y-76144431D01*
X328094024Y-76276704D01*
X327536363Y-76463287D01*
X327105684Y-76733521D01*
X326853324Y-76998020D01*
X326825874Y-77084965D01*
X326993968Y-77413398D01*
X327463282Y-77691533D01*
X328181363Y-77902451D01*
X329095757Y-78029234D01*
X329845454Y-78058922D01*
X331590444Y-77963058D01*
X333074347Y-77663271D01*
X334332267Y-77151778D01*
X334397656Y-77114663D01*
X333501747Y-77114663D01*
X333262304Y-77255602D01*
X332678466Y-77418315D01*
X332222126Y-77521328D01*
X330892996Y-77718125D01*
X329570656Y-77749314D01*
X328392426Y-77613618D01*
X328158042Y-77559132D01*
X327619082Y-77362800D01*
X327369705Y-77140839D01*
X327358741Y-77084965D01*
X327523984Y-76831552D01*
X327977106Y-76633517D01*
X328654197Y-76496810D01*
X329491347Y-76427385D01*
X330424644Y-76431191D01*
X331390179Y-76514182D01*
X332135844Y-76640095D01*
X332940303Y-76825147D01*
X333395008Y-76977257D01*
X333501747Y-77114663D01*
X334397656Y-77114663D01*
X334586221Y-77007635D01*
X335462684Y-76362257D01*
X336035256Y-75674966D01*
X336291788Y-74974270D01*
X336220130Y-74288677D01*
X335949453Y-73808817D01*
X335710289Y-73462085D01*
X335694267Y-73242043D01*
X335837746Y-73059206D01*
X336035785Y-72918397D01*
X336221824Y-72996478D01*
X336492468Y-73335495D01*
X336501416Y-73348046D01*
X336882081Y-74124323D01*
X336999465Y-74949500D01*
X337374205Y-74949500D01*
X337388242Y-74874342D01*
X337392266Y-74737174D01*
X337301246Y-74232310D01*
X337073451Y-73626613D01*
X336938833Y-73364662D01*
X336487540Y-72575129D01*
X336962012Y-71703368D01*
X337319736Y-70739799D01*
X337321850Y-70351462D01*
X337046351Y-70351462D01*
X336874164Y-71142304D01*
X336406043Y-71904956D01*
X335660576Y-72613334D01*
X334656352Y-73241353D01*
X333411959Y-73762930D01*
X332739261Y-73966619D01*
X332010742Y-74101108D01*
X331076629Y-74187411D01*
X330053660Y-74223643D01*
X329058573Y-74207916D01*
X328208105Y-74138341D01*
X327727983Y-74047649D01*
X327117055Y-73780316D01*
X326568442Y-73374049D01*
X326174261Y-72913212D01*
X326026573Y-72489486D01*
X326186974Y-72102187D01*
X326615676Y-71695960D01*
X327233931Y-71327733D01*
X327962987Y-71054433D01*
X328039428Y-71034397D01*
X328856329Y-70914107D01*
X329894682Y-70883088D01*
X331034124Y-70933867D01*
X332154289Y-71058968D01*
X333134814Y-71250919D01*
X333556037Y-71376960D01*
X334211710Y-71617069D01*
X334581257Y-71785531D01*
X334716499Y-71920196D01*
X334669259Y-72058914D01*
X334597445Y-72137589D01*
X334372316Y-72220863D01*
X333941378Y-72182564D01*
X333244899Y-72016919D01*
X333188308Y-72001412D01*
X332208995Y-71800677D01*
X331101084Y-71684628D01*
X329963814Y-71653157D01*
X328896427Y-71706157D01*
X327998163Y-71843520D01*
X327482269Y-72007576D01*
X326986859Y-72272304D01*
X326824849Y-72510567D01*
X326986361Y-72787317D01*
X327321444Y-73064875D01*
X327683299Y-73261590D01*
X328193569Y-73391994D01*
X328937620Y-73474490D01*
X329335195Y-73499009D01*
X331240198Y-73464124D01*
X332948209Y-73145706D01*
X334384680Y-72588951D01*
X334582574Y-72466578D01*
X333369849Y-72466578D01*
X333318426Y-72599794D01*
X332972562Y-72770583D01*
X332387770Y-72955444D01*
X331976923Y-73056283D01*
X331459282Y-73120563D01*
X330715954Y-73150854D01*
X329866559Y-73149193D01*
X329030721Y-73117617D01*
X328328060Y-73058163D01*
X327925008Y-72987272D01*
X327468021Y-72799240D01*
X327330954Y-72595535D01*
X327480009Y-72393398D01*
X327881389Y-72210075D01*
X328501297Y-72062808D01*
X329305936Y-71968840D01*
X329969928Y-71943942D01*
X330824552Y-71969371D01*
X331682201Y-72048502D01*
X332452861Y-72167497D01*
X333046518Y-72312519D01*
X333369849Y-72466578D01*
X334582574Y-72466578D01*
X335361158Y-71985121D01*
X335994663Y-71324602D01*
X336282348Y-70613357D01*
X336221364Y-69857347D01*
X335960952Y-69290272D01*
X335736438Y-68841321D01*
X335739145Y-68566945D01*
X335796349Y-68490971D01*
X336005533Y-68430578D01*
X336295052Y-68643338D01*
X336428570Y-68789550D01*
X336904016Y-69558516D01*
X337046351Y-70351462D01*
X337321850Y-70351462D01*
X337324776Y-69814325D01*
X336977355Y-68930615D01*
X336775811Y-68636157D01*
X336290945Y-68000466D01*
X336653221Y-67613694D01*
X337179829Y-66833697D01*
X337361622Y-65998963D01*
X337013906Y-65998963D01*
X336796634Y-66718601D01*
X336275786Y-67438955D01*
X336016641Y-67704872D01*
X334921326Y-68585522D01*
X333695417Y-69209106D01*
X332293664Y-69590264D01*
X330670820Y-69743634D01*
X329731101Y-69738447D01*
X328812101Y-69688429D01*
X328135464Y-69596929D01*
X327588888Y-69442784D01*
X327155576Y-69253111D01*
X326497052Y-68817568D01*
X326111351Y-68322254D01*
X326027629Y-67816412D01*
X326134445Y-67528389D01*
X326525015Y-67158924D01*
X327196689Y-66814268D01*
X328075401Y-66526677D01*
X328782417Y-66375149D01*
X329890330Y-66290109D01*
X331155122Y-66358271D01*
X332428842Y-66560872D01*
X333563543Y-66879152D01*
X333930769Y-67028006D01*
X334424843Y-67263581D01*
X334635447Y-67414159D01*
X334607394Y-67530493D01*
X334457977Y-67625113D01*
X334156491Y-67710406D01*
X333734395Y-67664204D01*
X333095815Y-67475024D01*
X333036998Y-67454916D01*
X332163651Y-67235431D01*
X331134739Y-67101552D01*
X330052139Y-67054063D01*
X329017729Y-67093753D01*
X328133386Y-67221406D01*
X327549179Y-67412555D01*
X327011143Y-67731516D01*
X326809514Y-68008787D01*
X326934919Y-68284118D01*
X327282993Y-68541068D01*
X328013231Y-68830169D01*
X328986572Y-68995093D01*
X330114444Y-69038900D01*
X331308274Y-68964650D01*
X332479489Y-68775403D01*
X333539514Y-68474217D01*
X333938874Y-68311149D01*
X334425383Y-68040464D01*
X333486713Y-68040464D01*
X333324129Y-68176548D01*
X332888864Y-68339349D01*
X332259649Y-68503540D01*
X331710489Y-68611898D01*
X330972338Y-68683604D01*
X330070004Y-68693699D01*
X329156977Y-68647019D01*
X328386750Y-68548400D01*
X328171243Y-68500391D01*
X327584594Y-68300029D01*
X327350708Y-68098582D01*
X327470153Y-67890744D01*
X327943493Y-67671207D01*
X328270736Y-67567583D01*
X329137315Y-67383332D01*
X330052553Y-67346653D01*
X330593560Y-67379396D01*
X331496831Y-67479643D01*
X332304549Y-67613151D01*
X332949561Y-67764577D01*
X333364714Y-67918577D01*
X333486713Y-68040464D01*
X334425383Y-68040464D01*
X335035589Y-67700957D01*
X335786431Y-67032367D01*
X336189818Y-66308028D01*
X336244167Y-65530588D01*
X336016288Y-64833095D01*
X335810966Y-64355705D01*
X335788730Y-64077518D01*
X335889890Y-63936531D01*
X336142002Y-63921033D01*
X336443335Y-64165311D01*
X336729465Y-64592568D01*
X336935967Y-65126003D01*
X336955231Y-65206493D01*
X337013906Y-65998963D01*
X337361622Y-65998963D01*
X337367412Y-65972378D01*
X337217080Y-65016989D01*
X336938717Y-64339570D01*
X336483030Y-63425123D01*
X336874885Y-62895111D01*
X337262020Y-62086934D01*
X337338647Y-61329800D01*
X337035260Y-61329800D01*
X336873862Y-62077791D01*
X336407721Y-62840270D01*
X335680931Y-63564568D01*
X334737586Y-64198017D01*
X334551296Y-64296741D01*
X333878548Y-64570608D01*
X332985257Y-64840191D01*
X332004776Y-65070292D01*
X331070461Y-65225715D01*
X331000000Y-65234063D01*
X330543288Y-65289365D01*
X330251146Y-65330445D01*
X330234723Y-65333462D01*
X329999655Y-65321996D01*
X329514437Y-65265247D01*
X328879531Y-65175121D01*
X328813744Y-65165050D01*
X327960860Y-65013401D01*
X327356770Y-64843282D01*
X326895726Y-64613853D01*
X326471982Y-64284276D01*
X326426223Y-64242996D01*
X326091078Y-63760851D01*
X326085821Y-63262543D01*
X326388964Y-62784217D01*
X326979024Y-62362017D01*
X327720949Y-62064891D01*
X328704155Y-61878050D01*
X329900044Y-61816305D01*
X331192118Y-61871184D01*
X332463878Y-62034221D01*
X333598827Y-62296946D01*
X334259615Y-62540221D01*
X334640520Y-62776295D01*
X334719479Y-62968950D01*
X334549160Y-63095858D01*
X334182236Y-63134690D01*
X333671376Y-63063116D01*
X333294301Y-62949452D01*
X332739348Y-62809475D01*
X331936141Y-62687573D01*
X330991652Y-62598440D01*
X330555944Y-62573255D01*
X329614584Y-62541422D01*
X328928563Y-62553149D01*
X328399715Y-62616876D01*
X327929876Y-62741038D01*
X327715452Y-62817402D01*
X327081575Y-63125571D01*
X326786095Y-63431219D01*
X326812343Y-63720549D01*
X327143650Y-63979765D01*
X327763346Y-64195069D01*
X328654764Y-64352664D01*
X329667832Y-64433415D01*
X331315201Y-64410395D01*
X332751753Y-64172580D01*
X334062367Y-63702058D01*
X334477886Y-63487049D01*
X333364065Y-63487049D01*
X333223647Y-63655502D01*
X332744099Y-63827779D01*
X331941433Y-63999156D01*
X331266433Y-64106055D01*
X330166868Y-64193194D01*
X329082921Y-64114412D01*
X328024825Y-63903833D01*
X327488551Y-63731171D01*
X327304766Y-63548482D01*
X327470752Y-63340670D01*
X327885903Y-63132545D01*
X328417139Y-62992530D01*
X329139884Y-62912456D01*
X329979718Y-62887508D01*
X330862220Y-62912869D01*
X331712972Y-62983723D01*
X332457552Y-63095256D01*
X333021540Y-63242650D01*
X333330518Y-63421090D01*
X333364065Y-63487049D01*
X334477886Y-63487049D01*
X334701826Y-63371172D01*
X335577987Y-62744667D01*
X336111799Y-62063150D01*
X336299750Y-61335284D01*
X336138329Y-60569732D01*
X335968879Y-60244566D01*
X335730252Y-59725468D01*
X335776072Y-59418060D01*
X336081404Y-59322727D01*
X336314637Y-59477935D01*
X336577173Y-59872219D01*
X336818158Y-60398575D01*
X336986737Y-60949995D01*
X337035260Y-61329800D01*
X337338647Y-61329800D01*
X337355488Y-61163399D01*
X337152565Y-60212988D01*
X336969809Y-59811189D01*
X336516288Y-58967483D01*
X336955347Y-58141727D01*
X337305311Y-57298311D01*
X337386227Y-56521981D01*
X337370759Y-56458688D01*
X337045350Y-56458688D01*
X336974094Y-57291706D01*
X336593467Y-58089902D01*
X335926268Y-58828819D01*
X334995292Y-59484000D01*
X333823339Y-60030988D01*
X332433205Y-60445327D01*
X332243356Y-60486970D01*
X331331244Y-60614326D01*
X330268486Y-60663363D01*
X329186172Y-60636455D01*
X328215395Y-60535980D01*
X327602695Y-60402865D01*
X327007639Y-60125878D01*
X326485190Y-59719406D01*
X326128972Y-59270631D01*
X326026573Y-58935188D01*
X326146356Y-58579705D01*
X326436013Y-58186840D01*
X326450211Y-58172452D01*
X327114488Y-57731657D01*
X328041056Y-57433910D01*
X329166689Y-57279998D01*
X330428163Y-57270709D01*
X331762252Y-57406828D01*
X333105731Y-57689145D01*
X334286014Y-58074886D01*
X334631642Y-58230998D01*
X334680912Y-58357255D01*
X334502096Y-58516220D01*
X334271276Y-58627979D01*
X333961053Y-58628948D01*
X333474232Y-58510200D01*
X333081117Y-58385739D01*
X332175249Y-58165545D01*
X331125715Y-58032139D01*
X330032365Y-57986191D01*
X328995051Y-58028369D01*
X328113623Y-58159342D01*
X327546037Y-58348668D01*
X327006889Y-58671487D01*
X326800342Y-58949963D01*
X326912938Y-59220023D01*
X327149529Y-59407174D01*
X327980298Y-59771706D01*
X329040966Y-59964516D01*
X330252901Y-59989978D01*
X331537473Y-59852463D01*
X332816051Y-59556344D01*
X334010005Y-59105994D01*
X334197202Y-59015267D01*
X334217832Y-59002812D01*
X333457448Y-59002812D01*
X333201738Y-59129242D01*
X332647330Y-59278727D01*
X331773164Y-59465808D01*
X331266433Y-59566808D01*
X330573285Y-59635925D01*
X329704302Y-59631832D01*
X328829757Y-59561387D01*
X328158042Y-59441650D01*
X327586718Y-59232694D01*
X327367692Y-59004208D01*
X327499647Y-58770631D01*
X327981264Y-58546401D01*
X328246853Y-58468948D01*
X329078197Y-58341411D01*
X330117357Y-58313069D01*
X331232355Y-58379496D01*
X332291211Y-58536263D01*
X332643007Y-58616448D01*
X333157021Y-58760955D01*
X333435522Y-58884897D01*
X333457448Y-59002812D01*
X334217832Y-59002812D01*
X335212190Y-58402498D01*
X335907195Y-57752884D01*
X336273805Y-57082281D01*
X336303605Y-56406546D01*
X335988182Y-55741537D01*
X335956225Y-55699943D01*
X335720027Y-55334430D01*
X335722865Y-55081703D01*
X335802169Y-54963310D01*
X336085686Y-54823216D01*
X336410571Y-55035322D01*
X336776023Y-55599096D01*
X336784439Y-55615306D01*
X337045350Y-56458688D01*
X337370759Y-56458688D01*
X337191037Y-55723294D01*
X336712684Y-54812805D01*
X336689822Y-54776380D01*
X336561909Y-54485388D01*
X336629067Y-54202252D01*
X336849186Y-53871129D01*
X337235272Y-53074767D01*
X337350662Y-52206431D01*
X337039160Y-52206431D01*
X336870672Y-53039190D01*
X336397032Y-53813233D01*
X335665977Y-54510685D01*
X334725243Y-55113676D01*
X333622569Y-55604330D01*
X332405691Y-55964776D01*
X331122346Y-56177141D01*
X329820271Y-56223551D01*
X328547203Y-56086134D01*
X327466056Y-55790647D01*
X326898484Y-55503106D01*
X326422589Y-55130518D01*
X326315157Y-55007244D01*
X326078874Y-54640799D01*
X326057721Y-54361746D01*
X326210338Y-54030321D01*
X326684809Y-53517681D01*
X327434145Y-53132507D01*
X328400309Y-52878271D01*
X329525265Y-52758443D01*
X330750975Y-52776493D01*
X332019403Y-52935892D01*
X333272511Y-53240111D01*
X334144806Y-53555861D01*
X334555892Y-53745257D01*
X334680263Y-53879302D01*
X334564194Y-54026404D01*
X334497530Y-54077313D01*
X334262709Y-54195353D01*
X333959602Y-54195130D01*
X333484257Y-54067358D01*
X333165362Y-53958340D01*
X332218152Y-53705532D01*
X331155039Y-53554132D01*
X330057205Y-53501951D01*
X329005832Y-53546803D01*
X328082103Y-53686498D01*
X327367199Y-53918848D01*
X327047698Y-54123239D01*
X326834267Y-54345995D01*
X326848342Y-54521196D01*
X327111253Y-54778223D01*
X327163035Y-54822857D01*
X327668411Y-55122741D01*
X328382420Y-55312322D01*
X329347453Y-55397895D01*
X330605900Y-55385750D01*
X330872042Y-55373408D01*
X332360755Y-55213565D01*
X333608640Y-54884546D01*
X334346571Y-54530768D01*
X333486713Y-54530768D01*
X333325358Y-54625641D01*
X332898729Y-54752590D01*
X332292978Y-54891753D01*
X331594259Y-55023271D01*
X330911188Y-55124499D01*
X330153793Y-55150745D01*
X329267010Y-55083238D01*
X328415803Y-54941306D01*
X327802797Y-54760324D01*
X327413811Y-54583203D01*
X327314218Y-54454168D01*
X327460288Y-54297905D01*
X327511822Y-54259205D01*
X327969740Y-54062160D01*
X328684780Y-53918539D01*
X329561321Y-53839652D01*
X330503746Y-53836811D01*
X330885554Y-53860136D01*
X331614310Y-53948353D01*
X332323433Y-54082166D01*
X332928219Y-54239738D01*
X333343965Y-54399230D01*
X333486713Y-54530768D01*
X334346571Y-54530768D01*
X334699430Y-54361601D01*
X335040678Y-54141228D01*
X335804128Y-53472794D01*
X336219141Y-52760859D01*
X336283770Y-52011632D01*
X335996062Y-51231323D01*
X335968879Y-51185825D01*
X335732652Y-50671090D01*
X335768625Y-50359213D01*
X336040013Y-50263986D01*
X336284452Y-50417848D01*
X336561933Y-50807006D01*
X336816573Y-51322824D01*
X336992493Y-51856663D01*
X337039160Y-52206431D01*
X337350662Y-52206431D01*
X337355674Y-52168721D01*
X337216016Y-51264278D01*
X336821922Y-50472726D01*
X336668121Y-50287953D01*
X336305511Y-49898736D01*
X336754079Y-49365643D01*
X337210141Y-48559963D01*
X337333407Y-47767941D01*
X337025162Y-47767941D01*
X336962663Y-48235506D01*
X336630108Y-48922745D01*
X336012714Y-49615756D01*
X335177110Y-50268663D01*
X334189928Y-50835593D01*
X333117798Y-51270673D01*
X332226830Y-51496015D01*
X331248846Y-51605431D01*
X330161761Y-51622035D01*
X329071660Y-51553833D01*
X328084633Y-51408825D01*
X327306765Y-51195016D01*
X327113062Y-51110228D01*
X326461835Y-50724332D01*
X326119282Y-50350376D01*
X326046112Y-49928760D01*
X326122205Y-49607275D01*
X326475493Y-49098190D01*
X327112861Y-48696985D01*
X327978484Y-48408275D01*
X329016538Y-48236672D01*
X330171199Y-48186789D01*
X331386642Y-48263239D01*
X332607044Y-48470634D01*
X333776579Y-48813588D01*
X334116562Y-48946679D01*
X334524919Y-49136869D01*
X334650038Y-49283092D01*
X334543607Y-49459805D01*
X334502210Y-49502235D01*
X334289534Y-49665821D01*
X334041438Y-49678586D01*
X333625688Y-49540678D01*
X333531432Y-49503303D01*
X332464027Y-49183809D01*
X331218582Y-48977147D01*
X329955808Y-48900937D01*
X328836421Y-48972798D01*
X328777694Y-48982142D01*
X327935952Y-49169673D01*
X327287362Y-49409875D01*
X326884415Y-49676918D01*
X326779604Y-49944973D01*
X326784699Y-49962840D01*
X326973337Y-50183397D01*
X327348976Y-50458968D01*
X327434425Y-50510676D01*
X327768707Y-50667675D01*
X328181232Y-50769669D01*
X328752882Y-50827537D01*
X329564535Y-50852159D01*
X329995690Y-50855201D01*
X331516122Y-50799517D01*
X332769617Y-50611350D01*
X333825199Y-50273671D01*
X334463866Y-49926166D01*
X333486713Y-49926166D01*
X333324507Y-50061316D01*
X332892375Y-50221524D01*
X332272043Y-50381466D01*
X331621678Y-50504053D01*
X331120124Y-50541616D01*
X330424851Y-50541547D01*
X329636300Y-50510208D01*
X328854910Y-50453956D01*
X328181122Y-50379150D01*
X327715377Y-50292151D01*
X327597696Y-50249280D01*
X327310568Y-50013401D01*
X327331889Y-49799398D01*
X327615179Y-49614237D01*
X328113955Y-49464879D01*
X328781736Y-49358289D01*
X329572042Y-49301430D01*
X330438389Y-49301265D01*
X331334296Y-49364758D01*
X332213282Y-49498871D01*
X332376573Y-49533362D01*
X332947276Y-49680962D01*
X333347899Y-49824649D01*
X333486713Y-49926166D01*
X334463866Y-49926166D01*
X334751891Y-49769449D01*
X334946225Y-49633823D01*
X335731117Y-48925318D01*
X336173192Y-48196793D01*
X336269688Y-47463412D01*
X336017846Y-46740341D01*
X335573398Y-46188930D01*
X334557203Y-45432723D01*
X333283603Y-44880128D01*
X331793950Y-44542552D01*
X330129595Y-44431400D01*
X329305812Y-44460156D01*
X328397847Y-44499667D01*
X327819329Y-44472657D01*
X327549727Y-44373548D01*
X327568509Y-44196762D01*
X327731743Y-44032465D01*
X328077943Y-43896441D01*
X328689211Y-43796126D01*
X329476855Y-43734788D01*
X330352183Y-43715696D01*
X331226504Y-43742117D01*
X332011124Y-43817319D01*
X332293417Y-43864399D01*
X333612010Y-44226311D01*
X334763674Y-44745877D01*
X335714616Y-45391459D01*
X336431041Y-46131422D01*
X336879155Y-46934128D01*
X337025162Y-47767941D01*
X337333407Y-47767941D01*
X337353450Y-47639165D01*
X337231753Y-46869082D01*
X336771111Y-45931476D01*
X336009264Y-45112285D01*
X334985794Y-44429613D01*
X333740283Y-43901565D01*
X332312314Y-43546244D01*
X330741469Y-43381753D01*
X329620069Y-43387739D01*
G36*
X356590304Y-71034233D02*
G01*
X356535709Y-71483824D01*
X356501636Y-72146037D01*
X356493357Y-72733567D01*
X356493357Y-74598602D01*
X356937413Y-74598602D01*
X357207345Y-74567222D01*
X357337887Y-74410740D01*
X357378918Y-74035643D01*
X357381469Y-73766069D01*
X357381469Y-72933537D01*
X357876748Y-73408044D01*
X358372026Y-73882551D01*
X358853671Y-73400907D01*
X359335315Y-72919263D01*
X359335315Y-73758932D01*
X359351723Y-74267741D01*
X359433791Y-74514845D01*
X359630789Y-74593404D01*
X359779371Y-74598602D01*
X360223427Y-74598602D01*
X360223427Y-72733567D01*
X360209575Y-71967978D01*
X360172117Y-71354687D01*
X360117198Y-70967062D01*
X360067201Y-70868532D01*
X359878665Y-70995740D01*
X359552233Y-71324885D01*
X359256009Y-71667832D01*
X358863538Y-72101064D01*
X358528822Y-72391333D01*
X358367897Y-72467133D01*
X358136267Y-72338674D01*
X357779485Y-72006594D01*
X357479785Y-71667832D01*
X357099764Y-71236294D01*
X356793629Y-70946074D01*
X356659088Y-70868532D01*
X356590304Y-71034233D01*
G37*
X356590304Y-71034233D02*
X356535709Y-71483824D01*
X356501636Y-72146037D01*
X356493357Y-72733567D01*
X356493357Y-74598602D01*
X356937413Y-74598602D01*
X357207345Y-74567222D01*
X357337887Y-74410740D01*
X357378918Y-74035643D01*
X357381469Y-73766069D01*
X357381469Y-72933537D01*
X357876748Y-73408044D01*
X358372026Y-73882551D01*
X358853671Y-73400907D01*
X359335315Y-72919263D01*
X359335315Y-73758932D01*
X359351723Y-74267741D01*
X359433791Y-74514845D01*
X359630789Y-74593404D01*
X359779371Y-74598602D01*
X360223427Y-74598602D01*
X360223427Y-72733567D01*
X360209575Y-71967978D01*
X360172117Y-71354687D01*
X360117198Y-70967062D01*
X360067201Y-70868532D01*
X359878665Y-70995740D01*
X359552233Y-71324885D01*
X359256009Y-71667832D01*
X358863538Y-72101064D01*
X358528822Y-72391333D01*
X358367897Y-72467133D01*
X358136267Y-72338674D01*
X357779485Y-72006594D01*
X357479785Y-71667832D01*
X357099764Y-71236294D01*
X356793629Y-70946074D01*
X356659088Y-70868532D01*
X356590304Y-71034233D01*
G36*
X354717133Y-74598602D02*
G01*
X355605245Y-74598602D01*
X355605245Y-70868532D01*
X354717133Y-70868532D01*
X354717133Y-74598602D01*
G37*
X354717133Y-74598602D02*
X355605245Y-74598602D01*
X355605245Y-70868532D01*
X354717133Y-70868532D01*
X354717133Y-74598602D01*
G36*
X353104674Y-70928194D02*
G01*
X352809692Y-71174804D01*
X352658581Y-71432136D01*
X352367130Y-71995741D01*
X352036291Y-71565353D01*
X351800229Y-71220158D01*
X351701502Y-71001749D01*
X351542339Y-70913882D01*
X351155811Y-70869751D01*
X351071155Y-70868532D01*
X350444758Y-70868532D01*
X351061071Y-71783704D01*
X351677384Y-72698875D01*
X351184828Y-73426711D01*
X350793495Y-74010309D01*
X350590526Y-74358636D01*
X350567756Y-74532354D01*
X350717020Y-74592122D01*
X351027095Y-74598602D01*
X351491286Y-74527490D01*
X351814054Y-74250142D01*
X351952081Y-74038057D01*
X352283203Y-73477512D01*
X352745273Y-74039658D01*
X353235613Y-74477422D01*
X353706287Y-74600203D01*
X354051979Y-74548720D01*
X354081525Y-74386932D01*
X354075710Y-74376574D01*
X353903915Y-74104649D01*
X353615335Y-73667217D01*
X353453634Y-73426711D01*
X352961079Y-72698875D01*
X353577391Y-71783704D01*
X354193704Y-70868532D01*
X353571868Y-70868532D01*
X353104674Y-70928194D01*
G37*
X353104674Y-70928194D02*
X352809692Y-71174804D01*
X352658581Y-71432136D01*
X352367130Y-71995741D01*
X352036291Y-71565353D01*
X351800229Y-71220158D01*
X351701502Y-71001749D01*
X351542339Y-70913882D01*
X351155811Y-70869751D01*
X351071155Y-70868532D01*
X350444758Y-70868532D01*
X351061071Y-71783704D01*
X351677384Y-72698875D01*
X351184828Y-73426711D01*
X350793495Y-74010309D01*
X350590526Y-74358636D01*
X350567756Y-74532354D01*
X350717020Y-74592122D01*
X351027095Y-74598602D01*
X351491286Y-74527490D01*
X351814054Y-74250142D01*
X351952081Y-74038057D01*
X352283203Y-73477512D01*
X352745273Y-74039658D01*
X353235613Y-74477422D01*
X353706287Y-74600203D01*
X354051979Y-74548720D01*
X354081525Y-74386932D01*
X354075710Y-74376574D01*
X353903915Y-74104649D01*
X353615335Y-73667217D01*
X353453634Y-73426711D01*
X352961079Y-72698875D01*
X353577391Y-71783704D01*
X354193704Y-70868532D01*
X353571868Y-70868532D01*
X353104674Y-70928194D01*
G36*
X335823776Y-26152062D02*
G01*
X334807395Y-26244939D01*
X334080088Y-26528431D01*
X333625387Y-27011921D01*
X333455098Y-27502020D01*
X333442791Y-28345672D01*
X333733900Y-29027856D01*
X334304587Y-29525320D01*
X335131014Y-29814811D01*
X335894449Y-29881468D01*
X336933916Y-29881468D01*
X336933916Y-27898019D01*
X336045804Y-27898019D01*
X336023146Y-28424207D01*
X335965585Y-28790647D01*
X335927389Y-28874942D01*
X335599448Y-28991332D01*
X335150907Y-28940312D01*
X334760490Y-28745794D01*
X334726323Y-28714236D01*
X334518263Y-28333915D01*
X334447203Y-27921184D01*
X334593820Y-27418282D01*
X335021736Y-27120702D01*
X335590071Y-27039510D01*
X335863794Y-27068047D01*
X335998161Y-27215292D01*
X336042252Y-27573701D01*
X336045804Y-27898019D01*
X336933916Y-27898019D01*
X336933916Y-26151399D01*
X335823776Y-26152062D01*
G37*
X335823776Y-26152062D02*
X334807395Y-26244939D01*
X334080088Y-26528431D01*
X333625387Y-27011921D01*
X333455098Y-27502020D01*
X333442791Y-28345672D01*
X333733900Y-29027856D01*
X334304587Y-29525320D01*
X335131014Y-29814811D01*
X335894449Y-29881468D01*
X336933916Y-29881468D01*
X336933916Y-27898019D01*
X336045804Y-27898019D01*
X336023146Y-28424207D01*
X335965585Y-28790647D01*
X335927389Y-28874942D01*
X335599448Y-28991332D01*
X335150907Y-28940312D01*
X334760490Y-28745794D01*
X334726323Y-28714236D01*
X334518263Y-28333915D01*
X334447203Y-27921184D01*
X334593820Y-27418282D01*
X335021736Y-27120702D01*
X335590071Y-27039510D01*
X335863794Y-27068047D01*
X335998161Y-27215292D01*
X336042252Y-27573701D01*
X336045804Y-27898019D01*
X336933916Y-27898019D01*
X336933916Y-26151399D01*
X335823776Y-26152062D01*
G36*
X331408258Y-26182660D02*
G01*
X330680801Y-26246496D01*
X330224580Y-26352406D01*
X329956118Y-26523018D01*
X329898468Y-26591898D01*
X329676060Y-27151080D01*
X329722489Y-27745223D01*
X329937611Y-28127101D01*
X330104589Y-28359575D01*
X330097066Y-28593719D01*
X329902186Y-28963161D01*
X329848800Y-29050164D01*
X329574123Y-29522290D01*
X329510303Y-29770585D01*
X329670641Y-29866462D01*
X330003651Y-29881468D01*
X330338195Y-29836660D01*
X330592564Y-29649648D01*
X330854390Y-29241551D01*
X330977927Y-29004486D01*
X331224581Y-28502295D01*
X331315926Y-28228115D01*
X331260075Y-28094533D01*
X331069730Y-28015593D01*
X330778045Y-27777718D01*
X330716737Y-27422938D01*
X330880979Y-27100575D01*
X331103202Y-26979984D01*
X331471248Y-26935675D01*
X331636069Y-26969750D01*
X331704909Y-27178078D01*
X331756446Y-27649815D01*
X331781708Y-28293222D01*
X331782867Y-28470972D01*
X331787685Y-29172557D01*
X331817408Y-29591650D01*
X331894938Y-29800996D01*
X332043178Y-29873344D01*
X332226923Y-29881468D01*
X332670979Y-29881468D01*
X332670979Y-26111310D01*
X331408258Y-26182660D01*
G37*
X331408258Y-26182660D02*
X330680801Y-26246496D01*
X330224580Y-26352406D01*
X329956118Y-26523018D01*
X329898468Y-26591898D01*
X329676060Y-27151080D01*
X329722489Y-27745223D01*
X329937611Y-28127101D01*
X330104589Y-28359575D01*
X330097066Y-28593719D01*
X329902186Y-28963161D01*
X329848800Y-29050164D01*
X329574123Y-29522290D01*
X329510303Y-29770585D01*
X329670641Y-29866462D01*
X330003651Y-29881468D01*
X330338195Y-29836660D01*
X330592564Y-29649648D01*
X330854390Y-29241551D01*
X330977927Y-29004486D01*
X331224581Y-28502295D01*
X331315926Y-28228115D01*
X331260075Y-28094533D01*
X331069730Y-28015593D01*
X330778045Y-27777718D01*
X330716737Y-27422938D01*
X330880979Y-27100575D01*
X331103202Y-26979984D01*
X331471248Y-26935675D01*
X331636069Y-26969750D01*
X331704909Y-27178078D01*
X331756446Y-27649815D01*
X331781708Y-28293222D01*
X331782867Y-28470972D01*
X331787685Y-29172557D01*
X331817408Y-29591650D01*
X331894938Y-29800996D01*
X332043178Y-29873344D01*
X332226923Y-29881468D01*
X332670979Y-29881468D01*
X332670979Y-26111310D01*
X331408258Y-26182660D01*
G36*
X328448458Y-26190956D02*
G01*
X328203288Y-26359295D01*
X327951751Y-26730914D01*
X327739727Y-27133064D01*
X327243340Y-28114729D01*
X326761887Y-27133064D01*
X326472077Y-26583366D01*
X326238399Y-26287034D01*
X325982332Y-26168698D01*
X325739172Y-26151399D01*
X325197912Y-26151399D01*
X326136893Y-27963756D01*
X326524064Y-28686691D01*
X326867025Y-29282502D01*
X327126454Y-29685666D01*
X327256851Y-29829910D01*
X327401730Y-29701777D01*
X327661317Y-29313144D01*
X327998489Y-28724674D01*
X328365929Y-28017552D01*
X329294030Y-26151399D01*
X328765072Y-26151399D01*
X328448458Y-26190956D01*
G37*
X328448458Y-26190956D02*
X328203288Y-26359295D01*
X327951751Y-26730914D01*
X327739727Y-27133064D01*
X327243340Y-28114729D01*
X326761887Y-27133064D01*
X326472077Y-26583366D01*
X326238399Y-26287034D01*
X325982332Y-26168698D01*
X325739172Y-26151399D01*
X325197912Y-26151399D01*
X326136893Y-27963756D01*
X326524064Y-28686691D01*
X326867025Y-29282502D01*
X327126454Y-29685666D01*
X327256851Y-29829910D01*
X327401730Y-29701777D01*
X327661317Y-29313144D01*
X327998489Y-28724674D01*
X328365929Y-28017552D01*
X329294030Y-26151399D01*
X328765072Y-26151399D01*
X328448458Y-26190956D01*
G36*
X358496529Y-25801688D02*
G01*
X358099338Y-25834919D01*
X357907723Y-25920789D01*
X357846855Y-26084242D01*
X357841958Y-26240210D01*
X357875087Y-26514227D01*
X358037930Y-26644054D01*
X358425670Y-26682570D01*
X358641259Y-26684266D01*
X359140758Y-26707509D01*
X359376957Y-26804025D01*
X359440254Y-27013990D01*
X359440559Y-27039510D01*
X359380978Y-27271924D01*
X359140163Y-27374642D01*
X358730070Y-27394755D01*
X358265242Y-27424546D01*
X358059806Y-27544954D01*
X358019580Y-27750000D01*
X358079161Y-27982414D01*
X358319977Y-28085132D01*
X358730070Y-28105245D01*
X359440559Y-28105245D01*
X359440559Y-28815734D01*
X359466260Y-29274980D01*
X359581674Y-29478962D01*
X359844268Y-29526198D01*
X359855012Y-29526224D01*
X360228038Y-29480310D01*
X360387879Y-29407809D01*
X360438317Y-29189980D01*
X360478063Y-28699775D01*
X360501858Y-28020019D01*
X360506294Y-27542774D01*
X360506294Y-25796154D01*
X359174126Y-25796154D01*
X358496529Y-25801688D01*
G37*
X358496529Y-25801688D02*
X358099338Y-25834919D01*
X357907723Y-25920789D01*
X357846855Y-26084242D01*
X357841958Y-26240210D01*
X357875087Y-26514227D01*
X358037930Y-26644054D01*
X358425670Y-26682570D01*
X358641259Y-26684266D01*
X359140758Y-26707509D01*
X359376957Y-26804025D01*
X359440254Y-27013990D01*
X359440559Y-27039510D01*
X359380978Y-27271924D01*
X359140163Y-27374642D01*
X358730070Y-27394755D01*
X358265242Y-27424546D01*
X358059806Y-27544954D01*
X358019580Y-27750000D01*
X358079161Y-27982414D01*
X358319977Y-28085132D01*
X358730070Y-28105245D01*
X359440559Y-28105245D01*
X359440559Y-28815734D01*
X359466260Y-29274980D01*
X359581674Y-29478962D01*
X359844268Y-29526198D01*
X359855012Y-29526224D01*
X360228038Y-29480310D01*
X360387879Y-29407809D01*
X360438317Y-29189980D01*
X360478063Y-28699775D01*
X360501858Y-28020019D01*
X360506294Y-27542774D01*
X360506294Y-25796154D01*
X359174126Y-25796154D01*
X358496529Y-25801688D01*
G36*
X355378011Y-25819317D02*
G01*
X354924274Y-25901929D01*
X354640553Y-26063676D01*
X354583473Y-26120979D01*
X354329170Y-26593660D01*
X354332913Y-27078980D01*
X354491239Y-27347812D01*
X354582196Y-27580632D01*
X354402427Y-27840080D01*
X354141597Y-28304132D01*
X354180505Y-28797381D01*
X354247825Y-28922360D01*
X354697542Y-29280441D01*
X355459233Y-29480810D01*
X356231679Y-29526224D01*
X357309091Y-29526224D01*
X357309091Y-28371678D01*
X356243357Y-28371678D01*
X356084486Y-28583201D01*
X355710489Y-28638112D01*
X355287443Y-28558677D01*
X355177622Y-28371678D01*
X355336493Y-28160155D01*
X355710489Y-28105245D01*
X356133536Y-28184680D01*
X356243357Y-28371678D01*
X357309091Y-28371678D01*
X357309091Y-26861888D01*
X356243357Y-26861888D01*
X356131325Y-27147127D01*
X355828904Y-27217133D01*
X355456603Y-27171850D01*
X355297578Y-27100259D01*
X355280143Y-26889835D01*
X355485791Y-26660045D01*
X355805212Y-26516871D01*
X355909861Y-26506643D01*
X356190716Y-26642358D01*
X356243357Y-26861888D01*
X357309091Y-26861888D01*
X357309091Y-25796154D01*
X356093263Y-25796154D01*
X355378011Y-25819317D01*
G37*
X355378011Y-25819317D02*
X354924274Y-25901929D01*
X354640553Y-26063676D01*
X354583473Y-26120979D01*
X354329170Y-26593660D01*
X354332913Y-27078980D01*
X354491239Y-27347812D01*
X354582196Y-27580632D01*
X354402427Y-27840080D01*
X354141597Y-28304132D01*
X354180505Y-28797381D01*
X354247825Y-28922360D01*
X354697542Y-29280441D01*
X355459233Y-29480810D01*
X356231679Y-29526224D01*
X357309091Y-29526224D01*
X357309091Y-28371678D01*
X356243357Y-28371678D01*
X356084486Y-28583201D01*
X355710489Y-28638112D01*
X355287443Y-28558677D01*
X355177622Y-28371678D01*
X355336493Y-28160155D01*
X355710489Y-28105245D01*
X356133536Y-28184680D01*
X356243357Y-28371678D01*
X357309091Y-28371678D01*
X357309091Y-26861888D01*
X356243357Y-26861888D01*
X356131325Y-27147127D01*
X355828904Y-27217133D01*
X355456603Y-27171850D01*
X355297578Y-27100259D01*
X355280143Y-26889835D01*
X355485791Y-26660045D01*
X355805212Y-26516871D01*
X355909861Y-26506643D01*
X356190716Y-26642358D01*
X356243357Y-26861888D01*
X357309091Y-26861888D01*
X357309091Y-25796154D01*
X356093263Y-25796154D01*
X355378011Y-25819317D01*
G36*
X352735985Y-25814057D02*
G01*
X352577999Y-25927491D01*
X352520877Y-26226039D01*
X352513287Y-26726300D01*
X352513287Y-27656447D01*
X351886889Y-26726300D01*
X351500388Y-26195818D01*
X351195178Y-25911257D01*
X350886621Y-25804428D01*
X350732344Y-25796154D01*
X350359949Y-25822590D01*
X350204199Y-25886187D01*
X350204196Y-25886503D01*
X350299725Y-26069838D01*
X350544060Y-26439854D01*
X350737063Y-26712454D01*
X351042138Y-27160898D01*
X351234955Y-27496821D01*
X351269930Y-27598617D01*
X351173345Y-27812438D01*
X350922286Y-28216448D01*
X350631590Y-28637701D01*
X349993249Y-29526224D01*
X350613073Y-29526224D01*
X350980737Y-29493076D01*
X351261785Y-29345884D01*
X351549698Y-29013024D01*
X351828686Y-28594831D01*
X352424475Y-27663438D01*
X352513287Y-28550425D01*
X352585010Y-29081763D01*
X352701017Y-29355089D01*
X352920624Y-29467314D01*
X353090559Y-29493616D01*
X353579021Y-29549820D01*
X353579021Y-25796154D01*
X353046154Y-25796154D01*
X352735985Y-25814057D01*
G37*
X352735985Y-25814057D02*
X352577999Y-25927491D01*
X352520877Y-26226039D01*
X352513287Y-26726300D01*
X352513287Y-27656447D01*
X351886889Y-26726300D01*
X351500388Y-26195818D01*
X351195178Y-25911257D01*
X350886621Y-25804428D01*
X350732344Y-25796154D01*
X350359949Y-25822590D01*
X350204199Y-25886187D01*
X350204196Y-25886503D01*
X350299725Y-26069838D01*
X350544060Y-26439854D01*
X350737063Y-26712454D01*
X351042138Y-27160898D01*
X351234955Y-27496821D01*
X351269930Y-27598617D01*
X351173345Y-27812438D01*
X350922286Y-28216448D01*
X350631590Y-28637701D01*
X349993249Y-29526224D01*
X350613073Y-29526224D01*
X350980737Y-29493076D01*
X351261785Y-29345884D01*
X351549698Y-29013024D01*
X351828686Y-28594831D01*
X352424475Y-27663438D01*
X352513287Y-28550425D01*
X352585010Y-29081763D01*
X352701017Y-29355089D01*
X352920624Y-29467314D01*
X353090559Y-29493616D01*
X353579021Y-29549820D01*
X353579021Y-25796154D01*
X353046154Y-25796154D01*
X352735985Y-25814057D01*
G36*
X334980070Y17967132D02*
G01*
X334180770Y17967132D01*
X333687538Y17948727D01*
X333453849Y17858259D01*
X333384522Y17642848D01*
X333381469Y17523076D01*
X333398071Y17297211D01*
X333497763Y17164814D01*
X333755375Y17100942D01*
X334245734Y17080653D01*
X334713637Y17079021D01*
X336045804Y17079021D01*
X336045804Y20809090D01*
X334980070Y20809090D01*
X334980070Y17967132D01*
G37*
X334980070Y17967132D02*
X334180770Y17967132D01*
X333687538Y17948727D01*
X333453849Y17858259D01*
X333384522Y17642848D01*
X333381469Y17523076D01*
X333398071Y17297211D01*
X333497763Y17164814D01*
X333755375Y17100942D01*
X334245734Y17080653D01*
X334713637Y17079021D01*
X336045804Y17079021D01*
X336045804Y20809090D01*
X334980070Y20809090D01*
X334980070Y17967132D01*
G36*
X331585881Y20777829D02*
G01*
X330761410Y20686870D01*
X330231837Y20498352D01*
X329941288Y20170901D01*
X329833887Y19663144D01*
X329829021Y19476923D01*
X329945192Y18827328D01*
X330313769Y18405267D01*
X330964853Y18179338D01*
X331091253Y18160088D01*
X331585013Y18067320D01*
X331826884Y17914893D01*
X331919967Y17629779D01*
X331927882Y17567482D01*
X332042407Y17200339D01*
X332331130Y17081635D01*
X332416344Y17079021D01*
X332607841Y17090127D01*
X332732316Y17165416D01*
X332804204Y17367845D01*
X332837941Y17760372D01*
X332847965Y18405953D01*
X332848602Y18964100D01*
X332848602Y19506526D01*
X331960490Y19506526D01*
X331913774Y19132580D01*
X331840121Y18971706D01*
X331583498Y18922819D01*
X331213412Y19019828D01*
X330910136Y19208833D01*
X330866784Y19262727D01*
X330808681Y19593751D01*
X331040911Y19837269D01*
X331446626Y19920979D01*
X331820753Y19866838D01*
X331952457Y19648712D01*
X331960490Y19506526D01*
X332848602Y19506526D01*
X332848602Y20849179D01*
X331585881Y20777829D01*
G37*
X331585881Y20777829D02*
X330761410Y20686870D01*
X330231837Y20498352D01*
X329941288Y20170901D01*
X329833887Y19663144D01*
X329829021Y19476923D01*
X329945192Y18827328D01*
X330313769Y18405267D01*
X330964853Y18179338D01*
X331091253Y18160088D01*
X331585013Y18067320D01*
X331826884Y17914893D01*
X331919967Y17629779D01*
X331927882Y17567482D01*
X332042407Y17200339D01*
X332331130Y17081635D01*
X332416344Y17079021D01*
X332607841Y17090127D01*
X332732316Y17165416D01*
X332804204Y17367845D01*
X332837941Y17760372D01*
X332847965Y18405953D01*
X332848602Y18964100D01*
X332848602Y19506526D01*
X331960490Y19506526D01*
X331913774Y19132580D01*
X331840121Y18971706D01*
X331583498Y18922819D01*
X331213412Y19019828D01*
X330910136Y19208833D01*
X330866784Y19262727D01*
X330808681Y19593751D01*
X331040911Y19837269D01*
X331446626Y19920979D01*
X331820753Y19866838D01*
X331952457Y19648712D01*
X331960490Y19506526D01*
X332848602Y19506526D01*
X332848602Y20849179D01*
X331585881Y20777829D01*
G36*
X327225589Y20802561D02*
G01*
X326853818Y20764540D01*
X326682452Y20667383D01*
X326634082Y20483443D01*
X326631818Y20365035D01*
X326664242Y20092644D01*
X326824527Y19962521D01*
X327207196Y19922995D01*
X327444143Y19920979D01*
X327944393Y19899051D01*
X328170076Y19811500D01*
X328200335Y19625672D01*
X328197561Y19610139D01*
X328008303Y19367332D01*
X327528183Y19249100D01*
X327474048Y19244172D01*
X327015859Y19161905D01*
X326827843Y18986022D01*
X326809441Y18855244D01*
X326897314Y18618073D01*
X327215745Y18497198D01*
X327475525Y18466316D01*
X327915280Y18401558D01*
X328114768Y18229704D01*
X328188881Y17835864D01*
X328196736Y17745104D01*
X328266791Y17302257D01*
X328426118Y17113938D01*
X328685198Y17079021D01*
X328878007Y17090182D01*
X329002983Y17165862D01*
X329074831Y17369356D01*
X329108258Y17763957D01*
X329117970Y18412959D01*
X329118532Y18944056D01*
X329118532Y20809090D01*
X327875175Y20809090D01*
X327225589Y20802561D01*
G37*
X327225589Y20802561D02*
X326853818Y20764540D01*
X326682452Y20667383D01*
X326634082Y20483443D01*
X326631818Y20365035D01*
X326664242Y20092644D01*
X326824527Y19962521D01*
X327207196Y19922995D01*
X327444143Y19920979D01*
X327944393Y19899051D01*
X328170076Y19811500D01*
X328200335Y19625672D01*
X328197561Y19610139D01*
X328008303Y19367332D01*
X327528183Y19249100D01*
X327474048Y19244172D01*
X327015859Y19161905D01*
X326827843Y18986022D01*
X326809441Y18855244D01*
X326897314Y18618073D01*
X327215745Y18497198D01*
X327475525Y18466316D01*
X327915280Y18401558D01*
X328114768Y18229704D01*
X328188881Y17835864D01*
X328196736Y17745104D01*
X328266791Y17302257D01*
X328426118Y17113938D01*
X328685198Y17079021D01*
X328878007Y17090182D01*
X329002983Y17165862D01*
X329074831Y17369356D01*
X329108258Y17763957D01*
X329117970Y18412959D01*
X329118532Y18944056D01*
X329118532Y20809090D01*
X327875175Y20809090D01*
X327225589Y20802561D01*
G36*
X359276503Y20603412D02*
G01*
X359124612Y20451371D01*
X359086155Y20073542D01*
X359085314Y19920979D01*
X359066494Y19466078D01*
X358950287Y19263917D01*
X358647078Y19212078D01*
X358463636Y19210489D01*
X358065597Y19231999D01*
X357888707Y19364806D01*
X357843348Y19711330D01*
X357841958Y19920979D01*
X357820915Y20376550D01*
X357706885Y20579071D01*
X357423513Y20630348D01*
X357309090Y20631468D01*
X356776223Y20631468D01*
X356776223Y16901399D01*
X357309090Y16901399D01*
X357650769Y16929455D01*
X357802660Y17081496D01*
X357841117Y17459325D01*
X357841958Y17611888D01*
X357860778Y18066789D01*
X357976985Y18268950D01*
X358280193Y18320789D01*
X358463636Y18322378D01*
X358861675Y18300868D01*
X359038565Y18168061D01*
X359083924Y17821537D01*
X359085314Y17611888D01*
X359106357Y17156317D01*
X359220387Y16953796D01*
X359503759Y16902520D01*
X359618181Y16901399D01*
X360151048Y16901399D01*
X360151048Y20631468D01*
X359618181Y20631468D01*
X359276503Y20603412D01*
G37*
X359276503Y20603412D02*
X359124612Y20451371D01*
X359086155Y20073542D01*
X359085314Y19920979D01*
X359066494Y19466078D01*
X358950287Y19263917D01*
X358647078Y19212078D01*
X358463636Y19210489D01*
X358065597Y19231999D01*
X357888707Y19364806D01*
X357843348Y19711330D01*
X357841958Y19920979D01*
X357820915Y20376550D01*
X357706885Y20579071D01*
X357423513Y20630348D01*
X357309090Y20631468D01*
X356776223Y20631468D01*
X356776223Y16901399D01*
X357309090Y16901399D01*
X357650769Y16929455D01*
X357802660Y17081496D01*
X357841117Y17459325D01*
X357841958Y17611888D01*
X357860778Y18066789D01*
X357976985Y18268950D01*
X358280193Y18320789D01*
X358463636Y18322378D01*
X358861675Y18300868D01*
X359038565Y18168061D01*
X359083924Y17821537D01*
X359085314Y17611888D01*
X359106357Y17156317D01*
X359220387Y16953796D01*
X359503759Y16902520D01*
X359618181Y16901399D01*
X360151048Y16901399D01*
X360151048Y20631468D01*
X359618181Y20631468D01*
X359276503Y20603412D01*
G36*
X354205068Y20598471D02*
G01*
X353707202Y20481295D01*
X353336541Y20263332D01*
X352965527Y19788593D01*
X352881552Y19246036D01*
X353048614Y18715635D01*
X353430710Y18277365D01*
X353991836Y18011201D01*
X354370247Y17967133D01*
X354791464Y17938395D01*
X354965656Y17791726D01*
X354999999Y17436438D01*
X355000000Y17434266D01*
X355049768Y17051379D01*
X355253011Y16912220D01*
X355414452Y16901399D01*
X355787478Y16947313D01*
X355947319Y17019813D01*
X355997757Y17237642D01*
X356037503Y17727847D01*
X356061298Y18407604D01*
X356065734Y18884848D01*
X356065734Y19340702D01*
X355000000Y19340702D01*
X354960140Y18968656D01*
X354893757Y18808209D01*
X354635934Y18760035D01*
X354311206Y18907022D01*
X354068143Y19161898D01*
X354023076Y19319648D01*
X354156352Y19600543D01*
X354511538Y19710749D01*
X354867022Y19702756D01*
X354991018Y19507660D01*
X355000000Y19340702D01*
X356065734Y19340702D01*
X356065734Y20631468D01*
X354935142Y20631468D01*
X354205068Y20598471D01*
G37*
X354205068Y20598471D02*
X353707202Y20481295D01*
X353336541Y20263332D01*
X352965527Y19788593D01*
X352881552Y19246036D01*
X353048614Y18715635D01*
X353430710Y18277365D01*
X353991836Y18011201D01*
X354370247Y17967133D01*
X354791464Y17938395D01*
X354965656Y17791726D01*
X354999999Y17436438D01*
X355000000Y17434266D01*
X355049768Y17051379D01*
X355253011Y16912220D01*
X355414452Y16901399D01*
X355787478Y16947313D01*
X355947319Y17019813D01*
X355997757Y17237642D01*
X356037503Y17727847D01*
X356061298Y18407604D01*
X356065734Y18884848D01*
X356065734Y19340702D01*
X355000000Y19340702D01*
X354960140Y18968656D01*
X354893757Y18808209D01*
X354635934Y18760035D01*
X354311206Y18907022D01*
X354068143Y19161898D01*
X354023076Y19319648D01*
X354156352Y19600543D01*
X354511538Y19710749D01*
X354867022Y19702756D01*
X354991018Y19507660D01*
X355000000Y19340702D01*
X356065734Y19340702D01*
X356065734Y20631468D01*
X354935142Y20631468D01*
X354205068Y20598471D01*
G36*
X350325900Y20625934D02*
G01*
X349928708Y20592704D01*
X349737093Y20506833D01*
X349676225Y20343380D01*
X349671328Y20187413D01*
X349704457Y19913395D01*
X349867301Y19783568D01*
X350255040Y19745053D01*
X350470629Y19743357D01*
X350970128Y19720113D01*
X351206327Y19623597D01*
X351269625Y19413632D01*
X351269930Y19388112D01*
X351210349Y19155698D01*
X350969533Y19052980D01*
X350559440Y19032867D01*
X350094612Y19003077D01*
X349889176Y18882669D01*
X349848951Y18677622D01*
X349908532Y18445208D01*
X350149347Y18342490D01*
X350559440Y18322378D01*
X351269930Y18322378D01*
X351269930Y17611888D01*
X351295630Y17152643D01*
X351411044Y16948660D01*
X351673638Y16901424D01*
X351684382Y16901399D01*
X352057408Y16947313D01*
X352217249Y17019813D01*
X352267687Y17237642D01*
X352307433Y17727847D01*
X352331228Y18407604D01*
X352335664Y18884848D01*
X352335664Y20631468D01*
X351003496Y20631468D01*
X350325900Y20625934D01*
G37*
X350325900Y20625934D02*
X349928708Y20592704D01*
X349737093Y20506833D01*
X349676225Y20343380D01*
X349671328Y20187413D01*
X349704457Y19913395D01*
X349867301Y19783568D01*
X350255040Y19745053D01*
X350470629Y19743357D01*
X350970128Y19720113D01*
X351206327Y19623597D01*
X351269625Y19413632D01*
X351269930Y19388112D01*
X351210349Y19155698D01*
X350969533Y19052980D01*
X350559440Y19032867D01*
X350094612Y19003077D01*
X349889176Y18882669D01*
X349848951Y18677622D01*
X349908532Y18445208D01*
X350149347Y18342490D01*
X350559440Y18322378D01*
X351269930Y18322378D01*
X351269930Y17611888D01*
X351295630Y17152643D01*
X351411044Y16948660D01*
X351673638Y16901424D01*
X351684382Y16901399D01*
X352057408Y16947313D01*
X352217249Y17019813D01*
X352267687Y17237642D01*
X352307433Y17727847D01*
X352331228Y18407604D01*
X352335664Y18884848D01*
X352335664Y20631468D01*
X351003496Y20631468D01*
X350325900Y20625934D01*
G36*
X323898806Y63121301D02*
G01*
X323876315Y62930832D01*
X323854515Y62441997D01*
X323834939Y61711674D01*
X323819116Y60796741D01*
X323808725Y59775381D01*
X323786035Y56496853D01*
X325504195Y56496853D01*
X325504195Y57784923D01*
X325519289Y58409880D01*
X325559117Y58867579D01*
X325615497Y59069769D01*
X325623571Y59072685D01*
X325796842Y58948552D01*
X326112273Y58630519D01*
X326351100Y58361888D01*
X326728565Y57960271D01*
X327035377Y57702688D01*
X327150400Y57651399D01*
X327365656Y57776645D01*
X327709624Y58097533D01*
X327949701Y58361888D01*
X328312048Y58761541D01*
X328584613Y59019266D01*
X328674031Y59072378D01*
X328729566Y58909257D01*
X328770646Y58477767D01*
X328789702Y57864716D01*
X328790209Y57740210D01*
X328790209Y56408042D01*
X330566433Y56408042D01*
X330566433Y59683573D01*
X330558225Y60726375D01*
X330535408Y61642810D01*
X330500690Y62375276D01*
X330456778Y62866170D01*
X330407803Y63057143D01*
X330232832Y62973065D01*
X329868667Y62672975D01*
X329366321Y62202589D01*
X328776805Y61607621D01*
X328696252Y61523327D01*
X327143331Y59891473D01*
X325554764Y61540083D01*
X324956609Y62150856D01*
X324450659Y62648606D01*
X324084808Y62987602D01*
X323906950Y63122109D01*
X323898806Y63121301D01*
G37*
X323898806Y63121301D02*
X323876315Y62930832D01*
X323854515Y62441997D01*
X323834939Y61711674D01*
X323819116Y60796741D01*
X323808725Y59775381D01*
X323786035Y56496853D01*
X325504195Y56496853D01*
X325504195Y57784923D01*
X325519289Y58409880D01*
X325559117Y58867579D01*
X325615497Y59069769D01*
X325623571Y59072685D01*
X325796842Y58948552D01*
X326112273Y58630519D01*
X326351100Y58361888D01*
X326728565Y57960271D01*
X327035377Y57702688D01*
X327150400Y57651399D01*
X327365656Y57776645D01*
X327709624Y58097533D01*
X327949701Y58361888D01*
X328312048Y58761541D01*
X328584613Y59019266D01*
X328674031Y59072378D01*
X328729566Y58909257D01*
X328770646Y58477767D01*
X328789702Y57864716D01*
X328790209Y57740210D01*
X328790209Y56408042D01*
X330566433Y56408042D01*
X330566433Y59683573D01*
X330558225Y60726375D01*
X330535408Y61642810D01*
X330500690Y62375276D01*
X330456778Y62866170D01*
X330407803Y63057143D01*
X330232832Y62973065D01*
X329868667Y62672975D01*
X329366321Y62202589D01*
X328776805Y61607621D01*
X328696252Y61523327D01*
X327143331Y59891473D01*
X325554764Y61540083D01*
X324956609Y62150856D01*
X324450659Y62648606D01*
X324084808Y62987602D01*
X323906950Y63122109D01*
X323898806Y63121301D01*
G36*
X334700401Y63104416D02*
G01*
X334532054Y62922659D01*
X334301552Y62579531D01*
X333989618Y62042141D01*
X333576974Y61277598D01*
X333044342Y60253010D01*
X332509538Y59205594D01*
X331088327Y56408042D01*
X338383595Y56408042D01*
X337507717Y58157955D01*
X335680242Y58157955D01*
X335599756Y57934609D01*
X335292738Y57845248D01*
X334740559Y57829021D01*
X334207374Y57850887D01*
X333856236Y57907301D01*
X333772382Y57962238D01*
X333847446Y58180369D01*
X334035258Y58621121D01*
X334282207Y59161189D01*
X334783285Y60226923D01*
X335248649Y59250000D01*
X335555953Y58576135D01*
X335680242Y58157955D01*
X337507717Y58157955D01*
X336694405Y59782867D01*
X336186330Y60781828D01*
X335722517Y61663402D01*
X335328689Y62381131D01*
X335030572Y62888555D01*
X334853886Y63139213D01*
X334825871Y63157692D01*
X334700401Y63104416D01*
G37*
X334700401Y63104416D02*
X334532054Y62922659D01*
X334301552Y62579531D01*
X333989618Y62042141D01*
X333576974Y61277598D01*
X333044342Y60253010D01*
X332509538Y59205594D01*
X331088327Y56408042D01*
X338383595Y56408042D01*
X337507717Y58157955D01*
X335680242Y58157955D01*
X335599756Y57934609D01*
X335292738Y57845248D01*
X334740559Y57829021D01*
X334207374Y57850887D01*
X333856236Y57907301D01*
X333772382Y57962238D01*
X333847446Y58180369D01*
X334035258Y58621121D01*
X334282207Y59161189D01*
X334783285Y60226923D01*
X335248649Y59250000D01*
X335555953Y58576135D01*
X335680242Y58157955D01*
X337507717Y58157955D01*
X336694405Y59782867D01*
X336186330Y60781828D01*
X335722517Y61663402D01*
X335328689Y62381131D01*
X335030572Y62888555D01*
X334853886Y63139213D01*
X334825871Y63157692D01*
X334700401Y63104416D01*
G36*
X341179370Y62940541D02*
G01*
X338648251Y62891259D01*
X338590669Y62288207D01*
X338600675Y61836867D01*
X338776609Y61562894D01*
X339178773Y61425660D01*
X339867467Y61384532D01*
X339932353Y61384188D01*
X340861210Y61381469D01*
X340306017Y60593809D01*
X339750823Y59806150D01*
X340309677Y58935252D01*
X340611084Y58446844D01*
X340813988Y58082238D01*
X340868531Y57946687D01*
X340706494Y57886760D01*
X340282541Y57844379D01*
X339713986Y57829021D01*
X338559440Y57829021D01*
X338559440Y56408042D01*
X341223776Y56408042D01*
X342150978Y56414516D01*
X342937843Y56432356D01*
X343522973Y56459187D01*
X343844972Y56492634D01*
X343888111Y56511099D01*
X343793658Y56690935D01*
X343537947Y57097998D01*
X343162452Y57667797D01*
X342802757Y58198817D01*
X341717402Y59783477D01*
X342713946Y61158413D01*
X343145708Y61776792D01*
X343483189Y62303293D01*
X343679577Y62662607D01*
X343710489Y62761586D01*
X343632305Y62853919D01*
X343368655Y62914591D01*
X342875897Y62946690D01*
X342110387Y62953301D01*
X341179370Y62940541D01*
G37*
X341179370Y62940541D02*
X338648251Y62891259D01*
X338590669Y62288207D01*
X338600675Y61836867D01*
X338776609Y61562894D01*
X339178773Y61425660D01*
X339867467Y61384532D01*
X339932353Y61384188D01*
X340861210Y61381469D01*
X340306017Y60593809D01*
X339750823Y59806150D01*
X340309677Y58935252D01*
X340611084Y58446844D01*
X340813988Y58082238D01*
X340868531Y57946687D01*
X340706494Y57886760D01*
X340282541Y57844379D01*
X339713986Y57829021D01*
X338559440Y57829021D01*
X338559440Y56408042D01*
X341223776Y56408042D01*
X342150978Y56414516D01*
X342937843Y56432356D01*
X343522973Y56459187D01*
X343844972Y56492634D01*
X343888111Y56511099D01*
X343793658Y56690935D01*
X343537947Y57097998D01*
X343162452Y57667797D01*
X342802757Y58198817D01*
X341717402Y59783477D01*
X342713946Y61158413D01*
X343145708Y61776792D01*
X343483189Y62303293D01*
X343679577Y62662607D01*
X343710489Y62761586D01*
X343632305Y62853919D01*
X343368655Y62914591D01*
X342875897Y62946690D01*
X342110387Y62953301D01*
X341179370Y62940541D01*
G36*
X348195454Y62970045D02*
G01*
X347370315Y62943814D01*
X346612181Y62881961D01*
X346037015Y62795503D01*
X345858594Y62748017D01*
X345180726Y62346479D01*
X344721747Y61745874D01*
X344503916Y61032400D01*
X344549490Y60292258D01*
X344880725Y59611647D01*
X345010037Y59461670D01*
X345510285Y58939524D01*
X344788009Y57759466D01*
X344446536Y57190256D01*
X344192170Y56744709D01*
X344070271Y56502866D01*
X344065734Y56484861D01*
X344226221Y56442177D01*
X344641098Y56429973D01*
X345064382Y56443584D01*
X346063031Y56496853D01*
X346831654Y57829021D01*
X347179781Y58444901D01*
X347447956Y58943089D01*
X347594258Y59244712D01*
X347609230Y59292022D01*
X347468083Y59437634D01*
X347107002Y59634290D01*
X346996503Y59682609D01*
X346571512Y59913433D01*
X346398335Y60200909D01*
X346374825Y60474221D01*
X346533066Y61018236D01*
X346960553Y61399487D01*
X347586430Y61557827D01*
X347652827Y61559091D01*
X348141295Y61559091D01*
X348190577Y59027972D01*
X348239860Y56496853D01*
X349083566Y56442715D01*
X349927272Y56388578D01*
X349927272Y62980070D01*
X348195454Y62970045D01*
G37*
X348195454Y62970045D02*
X347370315Y62943814D01*
X346612181Y62881961D01*
X346037015Y62795503D01*
X345858594Y62748017D01*
X345180726Y62346479D01*
X344721747Y61745874D01*
X344503916Y61032400D01*
X344549490Y60292258D01*
X344880725Y59611647D01*
X345010037Y59461670D01*
X345510285Y58939524D01*
X344788009Y57759466D01*
X344446536Y57190256D01*
X344192170Y56744709D01*
X344070271Y56502866D01*
X344065734Y56484861D01*
X344226221Y56442177D01*
X344641098Y56429973D01*
X345064382Y56443584D01*
X346063031Y56496853D01*
X346831654Y57829021D01*
X347179781Y58444901D01*
X347447956Y58943089D01*
X347594258Y59244712D01*
X347609230Y59292022D01*
X347468083Y59437634D01*
X347107002Y59634290D01*
X346996503Y59682609D01*
X346571512Y59913433D01*
X346398335Y60200909D01*
X346374825Y60474221D01*
X346533066Y61018236D01*
X346960553Y61399487D01*
X347586430Y61557827D01*
X347652827Y61559091D01*
X348141295Y61559091D01*
X348190577Y59027972D01*
X348239860Y56496853D01*
X349083566Y56442715D01*
X349927272Y56388578D01*
X349927272Y62980070D01*
X348195454Y62970045D01*
G36*
X352652650Y63008027D02*
G01*
X351739232Y62688711D01*
X351294722Y62393695D01*
X350814135Y62003147D01*
X351262572Y61437524D01*
X351711009Y60871900D01*
X352486701Y61215026D01*
X353336594Y61455385D01*
X354067730Y61364592D01*
X354698013Y60939402D01*
X354834383Y60789475D01*
X355127930Y60369533D01*
X355230806Y59951675D01*
X355203623Y59441661D01*
X354972822Y58662465D01*
X354511640Y58128755D01*
X353864178Y57860496D01*
X353074536Y57877654D01*
X352317354Y58134955D01*
X351897575Y58319288D01*
X351655487Y58329246D01*
X351449193Y58145570D01*
X351335750Y58001738D01*
X351079475Y57558845D01*
X351108973Y57202107D01*
X351447312Y56872776D01*
X351874349Y56630070D01*
X352836280Y56314794D01*
X353886846Y56248147D01*
X354877514Y56435627D01*
X355073036Y56511680D01*
X355836615Y56941102D01*
X356385743Y57518821D01*
X356695823Y58043973D01*
X356947592Y58832537D01*
X357024910Y59763544D01*
X356922378Y60666995D01*
X356792192Y61079109D01*
X356280488Y61872978D01*
X355532923Y62481398D01*
X354627255Y62885776D01*
X353641244Y63067517D01*
X352652650Y63008027D01*
G37*
X352652650Y63008027D02*
X351739232Y62688711D01*
X351294722Y62393695D01*
X350814135Y62003147D01*
X351262572Y61437524D01*
X351711009Y60871900D01*
X352486701Y61215026D01*
X353336594Y61455385D01*
X354067730Y61364592D01*
X354698013Y60939402D01*
X354834383Y60789475D01*
X355127930Y60369533D01*
X355230806Y59951675D01*
X355203623Y59441661D01*
X354972822Y58662465D01*
X354511640Y58128755D01*
X353864178Y57860496D01*
X353074536Y57877654D01*
X352317354Y58134955D01*
X351897575Y58319288D01*
X351655487Y58329246D01*
X351449193Y58145570D01*
X351335750Y58001738D01*
X351079475Y57558845D01*
X351108973Y57202107D01*
X351447312Y56872776D01*
X351874349Y56630070D01*
X352836280Y56314794D01*
X353886846Y56248147D01*
X354877514Y56435627D01*
X355073036Y56511680D01*
X355836615Y56941102D01*
X356385743Y57518821D01*
X356695823Y58043973D01*
X356947592Y58832537D01*
X357024910Y59763544D01*
X356922378Y60666995D01*
X356792192Y61079109D01*
X356280488Y61872978D01*
X355532923Y62481398D01*
X354627255Y62885776D01*
X353641244Y63067517D01*
X352652650Y63008027D01*
G36*
X359123793Y62922787D02*
G01*
X358491766Y62622344D01*
X358061430Y62291784D01*
X357953578Y61963536D01*
X358150891Y61542930D01*
X358265627Y61386374D01*
X358498600Y61113221D01*
X358707051Y61041985D01*
X359032492Y61153410D01*
X359244627Y61253157D01*
X359994326Y61513452D01*
X360582449Y61514887D01*
X360933402Y61300438D01*
X361068281Y61034475D01*
X360952385Y60813166D01*
X360549994Y60603620D01*
X359971466Y60414667D01*
X359313680Y60167732D01*
X358708614Y59849858D01*
X358464959Y59676739D01*
X358106941Y59310624D01*
X357950508Y58911758D01*
X357920279Y58423233D01*
X357989804Y57657457D01*
X358238425Y57127629D01*
X358726212Y56734986D01*
X359044750Y56574465D01*
X360117292Y56273110D01*
X361217261Y56304631D01*
X362189986Y56630070D01*
X362755754Y56975110D01*
X362996640Y57306851D01*
X362935731Y57683509D01*
X362732119Y57997052D01*
X362507074Y58261246D01*
X362304457Y58339177D01*
X361990769Y58246296D01*
X361697648Y58116783D01*
X361056903Y57907508D01*
X360470472Y57852401D01*
X360022490Y57944932D01*
X359797094Y58178572D01*
X359785314Y58265182D01*
X359867948Y58488549D01*
X360156719Y58696893D01*
X360712935Y58929758D01*
X360939860Y59009879D01*
X361875821Y59414482D01*
X362490947Y59888539D01*
X362817831Y60465624D01*
X362893706Y61022501D01*
X362736730Y61768724D01*
X362307609Y62373531D01*
X361669047Y62814131D01*
X360883753Y63067734D01*
X360014433Y63111549D01*
X359123793Y62922787D01*
G37*
X359123793Y62922787D02*
X358491766Y62622344D01*
X358061430Y62291784D01*
X357953578Y61963536D01*
X358150891Y61542930D01*
X358265627Y61386374D01*
X358498600Y61113221D01*
X358707051Y61041985D01*
X359032492Y61153410D01*
X359244627Y61253157D01*
X359994326Y61513452D01*
X360582449Y61514887D01*
X360933402Y61300438D01*
X361068281Y61034475D01*
X360952385Y60813166D01*
X360549994Y60603620D01*
X359971466Y60414667D01*
X359313680Y60167732D01*
X358708614Y59849858D01*
X358464959Y59676739D01*
X358106941Y59310624D01*
X357950508Y58911758D01*
X357920279Y58423233D01*
X357989804Y57657457D01*
X358238425Y57127629D01*
X358726212Y56734986D01*
X359044750Y56574465D01*
X360117292Y56273110D01*
X361217261Y56304631D01*
X362189986Y56630070D01*
X362755754Y56975110D01*
X362996640Y57306851D01*
X362935731Y57683509D01*
X362732119Y57997052D01*
X362507074Y58261246D01*
X362304457Y58339177D01*
X361990769Y58246296D01*
X361697648Y58116783D01*
X361056903Y57907508D01*
X360470472Y57852401D01*
X360022490Y57944932D01*
X359797094Y58178572D01*
X359785314Y58265182D01*
X359867948Y58488549D01*
X360156719Y58696893D01*
X360712935Y58929758D01*
X360939860Y59009879D01*
X361875821Y59414482D01*
X362490947Y59888539D01*
X362817831Y60465624D01*
X362893706Y61022501D01*
X362736730Y61768724D01*
X362307609Y62373531D01*
X361669047Y62814131D01*
X360883753Y63067734D01*
X360014433Y63111549D01*
X359123793Y62922787D01*
G36*
X323008457Y-100225669D02*
G01*
X322802428Y-100321051D01*
X322245226Y-100648085D01*
X321912308Y-101009335D01*
X321702170Y-101478318D01*
X321561553Y-102340484D01*
X321721148Y-103114818D01*
X322128627Y-103757247D01*
X322731660Y-104223697D01*
X323477920Y-104470093D01*
X324315079Y-104452362D01*
X324976923Y-104236517D01*
X325666592Y-103744157D01*
X326090324Y-103082622D01*
X326239254Y-102327911D01*
X326228210Y-102264638D01*
X325065734Y-102264638D01*
X324925867Y-102710203D01*
X324584635Y-103142294D01*
X324159588Y-103435806D01*
X323911189Y-103493357D01*
X323630125Y-103390939D01*
X323247099Y-103142684D01*
X323224653Y-103125220D01*
X322868871Y-102665986D01*
X322748081Y-102112379D01*
X322892580Y-101610507D01*
X323320580Y-101235907D01*
X323849408Y-101124041D01*
X324379789Y-101245026D01*
X324812449Y-101568982D01*
X325048114Y-102066026D01*
X325065734Y-102264638D01*
X326228210Y-102264638D01*
X326104519Y-101556025D01*
X325677256Y-100842965D01*
X325403894Y-100575468D01*
X324652692Y-100118422D01*
X323867719Y-100003143D01*
X323008457Y-100225669D01*
G37*
X323008457Y-100225669D02*
X322802428Y-100321051D01*
X322245226Y-100648085D01*
X321912308Y-101009335D01*
X321702170Y-101478318D01*
X321561553Y-102340484D01*
X321721148Y-103114818D01*
X322128627Y-103757247D01*
X322731660Y-104223697D01*
X323477920Y-104470093D01*
X324315079Y-104452362D01*
X324976923Y-104236517D01*
X325666592Y-103744157D01*
X326090324Y-103082622D01*
X326239254Y-102327911D01*
X326228210Y-102264638D01*
X325065734Y-102264638D01*
X324925867Y-102710203D01*
X324584635Y-103142294D01*
X324159588Y-103435806D01*
X323911189Y-103493357D01*
X323630125Y-103390939D01*
X323247099Y-103142684D01*
X323224653Y-103125220D01*
X322868871Y-102665986D01*
X322748081Y-102112379D01*
X322892580Y-101610507D01*
X323320580Y-101235907D01*
X323849408Y-101124041D01*
X324379789Y-101245026D01*
X324812449Y-101568982D01*
X325048114Y-102066026D01*
X325065734Y-102264638D01*
X326228210Y-102264638D01*
X326104519Y-101556025D01*
X325677256Y-100842965D01*
X325403894Y-100575468D01*
X324652692Y-100118422D01*
X323867719Y-100003143D01*
X323008457Y-100225669D01*
G36*
X323498049Y-101857841D02*
G01*
X323365611Y-102180408D01*
X323482977Y-102535496D01*
X323485817Y-102538947D01*
X323845768Y-102767331D01*
X324221943Y-102648865D01*
X324355245Y-102516434D01*
X324450645Y-102185460D01*
X324276551Y-101883153D01*
X323908594Y-101722374D01*
X323819632Y-101717133D01*
X323498049Y-101857841D01*
G37*
X323498049Y-101857841D02*
X323365611Y-102180408D01*
X323482977Y-102535496D01*
X323485817Y-102538947D01*
X323845768Y-102767331D01*
X324221943Y-102648865D01*
X324355245Y-102516434D01*
X324450645Y-102185460D01*
X324276551Y-101883153D01*
X323908594Y-101722374D01*
X323819632Y-101717133D01*
X323498049Y-101857841D01*
G36*
X346302305Y-99454192D02*
G01*
X346036837Y-99863937D01*
X345682165Y-100476290D01*
X345272797Y-101233523D01*
X345150764Y-101468125D01*
X344035095Y-103631468D01*
X348853017Y-103631468D01*
X348266282Y-102493757D01*
X347008500Y-102493757D01*
X346767714Y-102560451D01*
X346453296Y-102565734D01*
X346048175Y-102547493D01*
X345921900Y-102429131D01*
X345998101Y-102115189D01*
X346026730Y-102032540D01*
X346240313Y-101555353D01*
X346445539Y-101424094D01*
X346671609Y-101631437D01*
X346791736Y-101840616D01*
X347003431Y-102281828D01*
X347008500Y-102493757D01*
X348266282Y-102493757D01*
X347737347Y-101468125D01*
X347318701Y-100680134D01*
X346944901Y-100020549D01*
X346650457Y-99547099D01*
X346469882Y-99317510D01*
X346444056Y-99304782D01*
X346302305Y-99454192D01*
G37*
X346302305Y-99454192D02*
X346036837Y-99863937D01*
X345682165Y-100476290D01*
X345272797Y-101233523D01*
X345150764Y-101468125D01*
X344035095Y-103631468D01*
X348853017Y-103631468D01*
X348266282Y-102493757D01*
X347008500Y-102493757D01*
X346767714Y-102560451D01*
X346453296Y-102565734D01*
X346048175Y-102547493D01*
X345921900Y-102429131D01*
X345998101Y-102115189D01*
X346026730Y-102032540D01*
X346240313Y-101555353D01*
X346445539Y-101424094D01*
X346671609Y-101631437D01*
X346791736Y-101840616D01*
X347003431Y-102281828D01*
X347008500Y-102493757D01*
X348266282Y-102493757D01*
X347737347Y-101468125D01*
X347318701Y-100680134D01*
X346944901Y-100020549D01*
X346650457Y-99547099D01*
X346469882Y-99317510D01*
X346444056Y-99304782D01*
X346302305Y-99454192D01*
G36*
X344106254Y-120782990D02*
G01*
X344220700Y-120928262D01*
X344485928Y-121160117D01*
X344709216Y-121228854D01*
X344776223Y-121141214D01*
X344639053Y-121005993D01*
X344376573Y-120845700D01*
X344106644Y-120715450D01*
X344106254Y-120782990D01*
G37*
X344106254Y-120782990D02*
X344220700Y-120928262D01*
X344485928Y-121160117D01*
X344709216Y-121228854D01*
X344776223Y-121141214D01*
X344639053Y-121005993D01*
X344376573Y-120845700D01*
X344106644Y-120715450D01*
X344106254Y-120782990D01*
G36*
X329855944Y-123444056D02*
G01*
X329944755Y-123532867D01*
X330033566Y-123444056D01*
X329944755Y-123355244D01*
X329855944Y-123444056D01*
G37*
X329855944Y-123444056D02*
X329944755Y-123532867D01*
X330033566Y-123444056D01*
X329944755Y-123355244D01*
X329855944Y-123444056D01*
G36*
X344614620Y-119925531D02*
G01*
X344645124Y-120414109D01*
X344740800Y-120736997D01*
X344783449Y-120784185D01*
X344895257Y-121025944D01*
X344872701Y-121199622D01*
X344930296Y-121495557D01*
X345170618Y-121901944D01*
X345502545Y-122302952D01*
X345834954Y-122582748D01*
X346009567Y-122644755D01*
X346206820Y-122712612D01*
X346144859Y-122864838D01*
X345880940Y-123024416D01*
X345682398Y-123084844D01*
X345226159Y-123313346D01*
X345041893Y-123587418D01*
X344940766Y-123856944D01*
X344875389Y-123797119D01*
X344828966Y-123621678D01*
X344703915Y-123238302D01*
X344603852Y-123208807D01*
X344528722Y-123533339D01*
X344478467Y-124212046D01*
X344465774Y-124566590D01*
X344459504Y-125331002D01*
X344492411Y-125773119D01*
X344563200Y-125879094D01*
X344586227Y-125852126D01*
X344701923Y-125779479D01*
X344778462Y-126017085D01*
X344809568Y-126296182D01*
X344845153Y-126615952D01*
X344883575Y-126659623D01*
X344935625Y-126401444D01*
X345012094Y-125815661D01*
X345012575Y-125811713D01*
X345137714Y-125084976D01*
X345296289Y-124643297D01*
X345407528Y-124530674D01*
X345572855Y-124313233D01*
X345555110Y-124165398D01*
X345617711Y-123884702D01*
X345914100Y-123685765D01*
X346275125Y-123561737D01*
X346466375Y-123565210D01*
X346543307Y-123772329D01*
X346660391Y-124231669D01*
X346793021Y-124846156D01*
X346800139Y-124881825D01*
X346918209Y-125404692D01*
X347010747Y-125681406D01*
X347060974Y-125665137D01*
X347064583Y-125619930D01*
X347122608Y-125291713D01*
X347312904Y-125169996D01*
X347715949Y-125226239D01*
X347973426Y-125297652D01*
X348490064Y-125341258D01*
X348841767Y-125274977D01*
X349236103Y-125181559D01*
X349354004Y-125305299D01*
X349215231Y-125667231D01*
X349213453Y-125670558D01*
X349102844Y-125939463D01*
X349200325Y-125940940D01*
X349435157Y-125684502D01*
X349691180Y-125259203D01*
X349891862Y-124812605D01*
X349960672Y-124492272D01*
X349958649Y-124478778D01*
X350046296Y-124202053D01*
X350100184Y-124157456D01*
X350252501Y-123904656D01*
X350282517Y-123693757D01*
X350325975Y-123455346D01*
X350522143Y-123475721D01*
X350661759Y-123545709D01*
X350902879Y-123738518D01*
X350827703Y-123880498D01*
X350709221Y-124122292D01*
X350610674Y-124645114D01*
X350545785Y-125374801D01*
X350543659Y-125415602D01*
X350472912Y-126818881D01*
X350694194Y-125949129D01*
X350829218Y-125450445D01*
X350924188Y-125253787D01*
X351020944Y-125315505D01*
X351119843Y-125505073D01*
X351249746Y-125746731D01*
X351311551Y-125722035D01*
X351334803Y-125392568D01*
X351338848Y-125220279D01*
X351438899Y-124477821D01*
X351681069Y-123909164D01*
X352028041Y-123592671D01*
X352128644Y-123561771D01*
X352353523Y-123580717D01*
X352324775Y-123711135D01*
X352294916Y-123836441D01*
X352516811Y-123750455D01*
X352535093Y-123740735D01*
X352753075Y-123668904D01*
X352905554Y-123787759D01*
X353053714Y-124163510D01*
X353116423Y-124369830D01*
X353250922Y-124933287D01*
X353240546Y-125302386D01*
X353138390Y-125530438D01*
X353034587Y-125756769D01*
X353111362Y-125761251D01*
X353271368Y-125799255D01*
X353308392Y-125964692D01*
X353343448Y-126136566D01*
X353463197Y-126010277D01*
X353555577Y-125851034D01*
X353944149Y-125403059D01*
X354525227Y-125182589D01*
X354959218Y-125143952D01*
X355296134Y-125165595D01*
X355403089Y-125324677D01*
X355357992Y-125708741D01*
X355297485Y-126077403D01*
X355322075Y-126121062D01*
X355450100Y-125863630D01*
X355460160Y-125841958D01*
X355666128Y-125397902D01*
X355924402Y-126463636D01*
X355945418Y-125880640D01*
X356044470Y-125405686D01*
X356336542Y-125155462D01*
X356366084Y-125143535D01*
X356623899Y-125013428D01*
X356623680Y-125013053D01*
X353953380Y-125013053D01*
X353928997Y-125118650D01*
X353834965Y-125131468D01*
X353688761Y-125066479D01*
X353716550Y-125013053D01*
X353927346Y-124991795D01*
X353953380Y-125013053D01*
X356623680Y-125013053D01*
X356563927Y-124910975D01*
X356483371Y-124874749D01*
X356263672Y-124608376D01*
X356177941Y-124146469D01*
X356205042Y-123682214D01*
X356337970Y-123555645D01*
X356582639Y-123763543D01*
X356670066Y-123878598D01*
X356912577Y-124110911D01*
X357064522Y-124134549D01*
X357202288Y-124174853D01*
X357209790Y-124228312D01*
X357353033Y-124422392D01*
X357705829Y-124664188D01*
X357787063Y-124707635D01*
X358293859Y-125014238D01*
X358547180Y-125337647D01*
X358632538Y-125800895D01*
X358637202Y-125930769D01*
X358649074Y-126463636D01*
X358920902Y-125808709D01*
X359160805Y-125366184D01*
X359403270Y-125231366D01*
X359489023Y-125245937D01*
X359656544Y-125273491D01*
X359544269Y-125143422D01*
X359444605Y-125060140D01*
X359216498Y-124797400D01*
X359243313Y-124488872D01*
X359307580Y-124335150D01*
X359422064Y-124002529D01*
X359337825Y-123886712D01*
X359293045Y-123882463D01*
X359229082Y-123797973D01*
X359385664Y-123640853D01*
X359621132Y-123280275D01*
X359653290Y-123095497D01*
X358952552Y-123095497D01*
X358917511Y-123520317D01*
X358820976Y-123998384D01*
X358690121Y-124399914D01*
X358552117Y-124595124D01*
X358533604Y-124598601D01*
X358283363Y-124472634D01*
X357941985Y-124159435D01*
X357847258Y-124052106D01*
X357555280Y-123669199D01*
X357396847Y-123391550D01*
X357387412Y-123348746D01*
X357538971Y-123211563D01*
X357902873Y-123050093D01*
X358342962Y-122908930D01*
X358723079Y-122832668D01*
X358898928Y-122853706D01*
X358952552Y-123095497D01*
X359653290Y-123095497D01*
X359696503Y-122847201D01*
X359754503Y-122460870D01*
X359895818Y-122290048D01*
X359905088Y-122289510D01*
X359927400Y-122228476D01*
X358983588Y-122228476D01*
X358849674Y-122350141D01*
X358505609Y-122308214D01*
X358045352Y-122122721D01*
X357787063Y-121973454D01*
X357453422Y-121689533D01*
X357433240Y-121494575D01*
X357726519Y-121425312D01*
X357787063Y-121427423D01*
X358243586Y-121391708D01*
X358474209Y-121326576D01*
X358728338Y-121373621D01*
X358911557Y-121703513D01*
X358983588Y-122228476D01*
X359927400Y-122228476D01*
X359944376Y-122182043D01*
X359764780Y-121919225D01*
X359727465Y-121878412D01*
X359422235Y-121466637D01*
X359357324Y-121168534D01*
X359544521Y-121044063D01*
X359563286Y-121043434D01*
X359655751Y-120982027D01*
X359518881Y-120868531D01*
X359406649Y-120747386D01*
X359598570Y-120695253D01*
X359785314Y-120688227D01*
X360126731Y-120667197D01*
X360150950Y-120595220D01*
X359989733Y-120489204D01*
X359573887Y-120380042D01*
X359162093Y-120398140D01*
X358731989Y-120402798D01*
X358563599Y-120239199D01*
X358362494Y-120008396D01*
X358259350Y-119980419D01*
X358150287Y-120051242D01*
X358269067Y-120239072D01*
X358402489Y-120531166D01*
X358381801Y-120662649D01*
X358130364Y-120817542D01*
X357643323Y-120959050D01*
X357039971Y-121058074D01*
X356647402Y-121085728D01*
X356324623Y-121126316D01*
X356294348Y-121273758D01*
X356379290Y-121427644D01*
X356594259Y-121690911D01*
X356710498Y-121756643D01*
X356913035Y-121866312D01*
X357243635Y-122134870D01*
X357293281Y-122180212D01*
X357750320Y-122603782D01*
X357124810Y-122721128D01*
X356659333Y-122848284D01*
X356518632Y-123021594D01*
X356672239Y-123287900D01*
X356721328Y-123341462D01*
X356832742Y-123486113D01*
X356688394Y-123442991D01*
X356543706Y-123370737D01*
X356280344Y-123127606D01*
X356149524Y-122812256D01*
X356179338Y-122551427D01*
X356343427Y-122467133D01*
X356447419Y-122382809D01*
X356363937Y-122245105D01*
X356202773Y-121922269D01*
X356063198Y-121453052D01*
X356061301Y-121444254D01*
X355936722Y-121083758D01*
X355793546Y-120958587D01*
X355774357Y-120966275D01*
X355647853Y-120945455D01*
X355583563Y-120660545D01*
X355575329Y-120073903D01*
X355584056Y-119802797D01*
X355592386Y-119409627D01*
X355554520Y-119341692D01*
X355443076Y-119569481D01*
X355419240Y-119625175D01*
X355321584Y-120100107D01*
X355304096Y-120766750D01*
X355360281Y-121472301D01*
X355483642Y-122063961D01*
X355528076Y-122185431D01*
X355590103Y-122418954D01*
X355447634Y-122387009D01*
X355444722Y-122385216D01*
X355299762Y-122357143D01*
X355330049Y-122595899D01*
X355350910Y-122664149D01*
X355471594Y-123425824D01*
X355452743Y-124226480D01*
X355380021Y-124355887D01*
X355160133Y-124225989D01*
X355070677Y-124147628D01*
X354825709Y-123947653D01*
X354781132Y-123995578D01*
X354818274Y-124107138D01*
X354833503Y-124310390D01*
X354595168Y-124307411D01*
X354554504Y-124297189D01*
X354272862Y-124107763D01*
X354260779Y-123910498D01*
X354348783Y-123541768D01*
X354387487Y-123355244D01*
X354012587Y-123355244D01*
X353947598Y-123501448D01*
X353894172Y-123473659D01*
X353872914Y-123262863D01*
X353894172Y-123236830D01*
X353999768Y-123261212D01*
X354012587Y-123355244D01*
X354387487Y-123355244D01*
X354453429Y-123037462D01*
X354460666Y-123000000D01*
X354525558Y-122609867D01*
X354492291Y-122522864D01*
X354339350Y-122695243D01*
X354321990Y-122718021D01*
X353991694Y-122954590D01*
X353666368Y-122871434D01*
X353488393Y-122602410D01*
X352830920Y-122602410D01*
X352801325Y-122901354D01*
X352576747Y-122960037D01*
X352513128Y-122939731D01*
X352181940Y-122950561D01*
X352042633Y-123013713D01*
X351804628Y-123152914D01*
X351752342Y-123174902D01*
X351753078Y-123088811D01*
X350637762Y-123088811D01*
X350548951Y-123177622D01*
X350460139Y-123088811D01*
X350548951Y-123000000D01*
X350637762Y-123088811D01*
X351753078Y-123088811D01*
X351753632Y-123024077D01*
X351809916Y-122652204D01*
X351819368Y-122600349D01*
X351960096Y-122122975D01*
X352148448Y-121784739D01*
X352148825Y-121784334D01*
X352325046Y-121678778D01*
X352496593Y-121827819D01*
X352656221Y-122116748D01*
X352830920Y-122602410D01*
X353488393Y-122602410D01*
X353418991Y-122497504D01*
X353372891Y-122341522D01*
X353161009Y-121835053D01*
X352883791Y-121436449D01*
X352648085Y-121132999D01*
X352658387Y-120954505D01*
X352773885Y-120861896D01*
X352919697Y-120723972D01*
X352874918Y-120693629D01*
X352859834Y-120580483D01*
X353047008Y-120311464D01*
X353052540Y-120305132D01*
X353206719Y-120084104D01*
X353126365Y-120064583D01*
X352857853Y-120230612D01*
X352547202Y-120479022D01*
X352285803Y-120645595D01*
X352050098Y-120566790D01*
X351881118Y-120424475D01*
X351607759Y-120253918D01*
X351525466Y-120334128D01*
X351679184Y-120592070D01*
X351739021Y-120655384D01*
X351860710Y-120897091D01*
X351739021Y-121081678D01*
X351578295Y-121410365D01*
X351525874Y-121781685D01*
X351465314Y-122178723D01*
X351324303Y-122388679D01*
X351163839Y-122343249D01*
X351111011Y-122246211D01*
X351045093Y-122233889D01*
X351007841Y-122508103D01*
X351007029Y-122533287D01*
X350970303Y-122871405D01*
X350851483Y-122911260D01*
X350725358Y-122821369D01*
X350662618Y-122747652D01*
X349705270Y-122747652D01*
X349703869Y-122787924D01*
X349620135Y-123294229D01*
X349359574Y-123689068D01*
X349047196Y-123965672D01*
X348417482Y-124467385D01*
X348950349Y-124342801D01*
X349292106Y-124284016D01*
X349340958Y-124351171D01*
X349270220Y-124434903D01*
X348963353Y-124609521D01*
X348480932Y-124761353D01*
X348382108Y-124782290D01*
X347720890Y-124899874D01*
X347333689Y-124919287D01*
X347147485Y-124818274D01*
X347089258Y-124574577D01*
X347085314Y-124387030D01*
X347098347Y-124017213D01*
X347170244Y-123960224D01*
X347343636Y-124165002D01*
X347507111Y-124358386D01*
X347555426Y-124297248D01*
X347512622Y-123936884D01*
X347502283Y-123869991D01*
X347472596Y-123408927D01*
X347593325Y-123174504D01*
X347710531Y-123112031D01*
X348093791Y-123116031D01*
X348289201Y-123218572D01*
X348441882Y-123308346D01*
X348506617Y-123201759D01*
X348499086Y-122837585D01*
X348470384Y-122511147D01*
X348458718Y-121888833D01*
X348505257Y-121762215D01*
X347799885Y-121762215D01*
X347790908Y-122211288D01*
X347727929Y-122590357D01*
X347615707Y-122776316D01*
X347573776Y-122776261D01*
X347422350Y-122565225D01*
X347347634Y-122150517D01*
X347346223Y-122095375D01*
X347377732Y-121450561D01*
X347488350Y-121146743D01*
X347636794Y-121146468D01*
X347750100Y-121366240D01*
X347799885Y-121762215D01*
X348505257Y-121762215D01*
X348569771Y-121586694D01*
X348797736Y-121611524D01*
X349039160Y-121845454D01*
X349336582Y-122070918D01*
X349495554Y-122111888D01*
X349662930Y-122268915D01*
X349705270Y-122747652D01*
X350662618Y-122747652D01*
X350447949Y-122495426D01*
X350235278Y-122135154D01*
X349914720Y-121722871D01*
X349481598Y-121407578D01*
X348950349Y-121144089D01*
X349572028Y-121037520D01*
X350193706Y-120930952D01*
X349701963Y-120790851D01*
X349175930Y-120712765D01*
X348786085Y-120731828D01*
X348472562Y-120730000D01*
X348299781Y-120506855D01*
X348228608Y-120263446D01*
X348095264Y-119713986D01*
X347977403Y-120424475D01*
X347896790Y-120859414D01*
X347828147Y-120980081D01*
X347730472Y-120823479D01*
X347676129Y-120696369D01*
X347492716Y-120257774D01*
X347221607Y-120775203D01*
X346950498Y-121292633D01*
X346654714Y-119358741D01*
X346549915Y-120424475D01*
X346516198Y-120996691D01*
X346534510Y-121406350D01*
X346587593Y-121549417D01*
X346697650Y-121751179D01*
X346730070Y-122034070D01*
X346697313Y-122323937D01*
X346529380Y-122355876D01*
X346281755Y-122255251D01*
X345904511Y-121940686D01*
X345725577Y-121592975D01*
X345516900Y-121092938D01*
X345300255Y-120779720D01*
X345030882Y-120359118D01*
X344814017Y-119827956D01*
X344806719Y-119802797D01*
X344630640Y-119181119D01*
X344614620Y-119925531D01*
G37*
X344614620Y-119925531D02*
X344645124Y-120414109D01*
X344740800Y-120736997D01*
X344783449Y-120784185D01*
X344895257Y-121025944D01*
X344872701Y-121199622D01*
X344930296Y-121495557D01*
X345170618Y-121901944D01*
X345502545Y-122302952D01*
X345834954Y-122582748D01*
X346009567Y-122644755D01*
X346206820Y-122712612D01*
X346144859Y-122864838D01*
X345880940Y-123024416D01*
X345682398Y-123084844D01*
X345226159Y-123313346D01*
X345041893Y-123587418D01*
X344940766Y-123856944D01*
X344875389Y-123797119D01*
X344828966Y-123621678D01*
X344703915Y-123238302D01*
X344603852Y-123208807D01*
X344528722Y-123533339D01*
X344478467Y-124212046D01*
X344465774Y-124566590D01*
X344459504Y-125331002D01*
X344492411Y-125773119D01*
X344563200Y-125879094D01*
X344586227Y-125852126D01*
X344701923Y-125779479D01*
X344778462Y-126017085D01*
X344809568Y-126296182D01*
X344845153Y-126615952D01*
X344883575Y-126659623D01*
X344935625Y-126401444D01*
X345012094Y-125815661D01*
X345012575Y-125811713D01*
X345137714Y-125084976D01*
X345296289Y-124643297D01*
X345407528Y-124530674D01*
X345572855Y-124313233D01*
X345555110Y-124165398D01*
X345617711Y-123884702D01*
X345914100Y-123685765D01*
X346275125Y-123561737D01*
X346466375Y-123565210D01*
X346543307Y-123772329D01*
X346660391Y-124231669D01*
X346793021Y-124846156D01*
X346800139Y-124881825D01*
X346918209Y-125404692D01*
X347010747Y-125681406D01*
X347060974Y-125665137D01*
X347064583Y-125619930D01*
X347122608Y-125291713D01*
X347312904Y-125169996D01*
X347715949Y-125226239D01*
X347973426Y-125297652D01*
X348490064Y-125341258D01*
X348841767Y-125274977D01*
X349236103Y-125181559D01*
X349354004Y-125305299D01*
X349215231Y-125667231D01*
X349213453Y-125670558D01*
X349102844Y-125939463D01*
X349200325Y-125940940D01*
X349435157Y-125684502D01*
X349691180Y-125259203D01*
X349891862Y-124812605D01*
X349960672Y-124492272D01*
X349958649Y-124478778D01*
X350046296Y-124202053D01*
X350100184Y-124157456D01*
X350252501Y-123904656D01*
X350282517Y-123693757D01*
X350325975Y-123455346D01*
X350522143Y-123475721D01*
X350661759Y-123545709D01*
X350902879Y-123738518D01*
X350827703Y-123880498D01*
X350709221Y-124122292D01*
X350610674Y-124645114D01*
X350545785Y-125374801D01*
X350543659Y-125415602D01*
X350472912Y-126818881D01*
X350694194Y-125949129D01*
X350829218Y-125450445D01*
X350924188Y-125253787D01*
X351020944Y-125315505D01*
X351119843Y-125505073D01*
X351249746Y-125746731D01*
X351311551Y-125722035D01*
X351334803Y-125392568D01*
X351338848Y-125220279D01*
X351438899Y-124477821D01*
X351681069Y-123909164D01*
X352028041Y-123592671D01*
X352128644Y-123561771D01*
X352353523Y-123580717D01*
X352324775Y-123711135D01*
X352294916Y-123836441D01*
X352516811Y-123750455D01*
X352535093Y-123740735D01*
X352753075Y-123668904D01*
X352905554Y-123787759D01*
X353053714Y-124163510D01*
X353116423Y-124369830D01*
X353250922Y-124933287D01*
X353240546Y-125302386D01*
X353138390Y-125530438D01*
X353034587Y-125756769D01*
X353111362Y-125761251D01*
X353271368Y-125799255D01*
X353308392Y-125964692D01*
X353343448Y-126136566D01*
X353463197Y-126010277D01*
X353555577Y-125851034D01*
X353944149Y-125403059D01*
X354525227Y-125182589D01*
X354959218Y-125143952D01*
X355296134Y-125165595D01*
X355403089Y-125324677D01*
X355357992Y-125708741D01*
X355297485Y-126077403D01*
X355322075Y-126121062D01*
X355450100Y-125863630D01*
X355460160Y-125841958D01*
X355666128Y-125397902D01*
X355924402Y-126463636D01*
X355945418Y-125880640D01*
X356044470Y-125405686D01*
X356336542Y-125155462D01*
X356366084Y-125143535D01*
X356623899Y-125013428D01*
X356623680Y-125013053D01*
X353953380Y-125013053D01*
X353928997Y-125118650D01*
X353834965Y-125131468D01*
X353688761Y-125066479D01*
X353716550Y-125013053D01*
X353927346Y-124991795D01*
X353953380Y-125013053D01*
X356623680Y-125013053D01*
X356563927Y-124910975D01*
X356483371Y-124874749D01*
X356263672Y-124608376D01*
X356177941Y-124146469D01*
X356205042Y-123682214D01*
X356337970Y-123555645D01*
X356582639Y-123763543D01*
X356670066Y-123878598D01*
X356912577Y-124110911D01*
X357064522Y-124134549D01*
X357202288Y-124174853D01*
X357209790Y-124228312D01*
X357353033Y-124422392D01*
X357705829Y-124664188D01*
X357787063Y-124707635D01*
X358293859Y-125014238D01*
X358547180Y-125337647D01*
X358632538Y-125800895D01*
X358637202Y-125930769D01*
X358649074Y-126463636D01*
X358920902Y-125808709D01*
X359160805Y-125366184D01*
X359403270Y-125231366D01*
X359489023Y-125245937D01*
X359656544Y-125273491D01*
X359544269Y-125143422D01*
X359444605Y-125060140D01*
X359216498Y-124797400D01*
X359243313Y-124488872D01*
X359307580Y-124335150D01*
X359422064Y-124002529D01*
X359337825Y-123886712D01*
X359293045Y-123882463D01*
X359229082Y-123797973D01*
X359385664Y-123640853D01*
X359621132Y-123280275D01*
X359653290Y-123095497D01*
X358952552Y-123095497D01*
X358917511Y-123520317D01*
X358820976Y-123998384D01*
X358690121Y-124399914D01*
X358552117Y-124595124D01*
X358533604Y-124598601D01*
X358283363Y-124472634D01*
X357941985Y-124159435D01*
X357847258Y-124052106D01*
X357555280Y-123669199D01*
X357396847Y-123391550D01*
X357387412Y-123348746D01*
X357538971Y-123211563D01*
X357902873Y-123050093D01*
X358342962Y-122908930D01*
X358723079Y-122832668D01*
X358898928Y-122853706D01*
X358952552Y-123095497D01*
X359653290Y-123095497D01*
X359696503Y-122847201D01*
X359754503Y-122460870D01*
X359895818Y-122290048D01*
X359905088Y-122289510D01*
X359927400Y-122228476D01*
X358983588Y-122228476D01*
X358849674Y-122350141D01*
X358505609Y-122308214D01*
X358045352Y-122122721D01*
X357787063Y-121973454D01*
X357453422Y-121689533D01*
X357433240Y-121494575D01*
X357726519Y-121425312D01*
X357787063Y-121427423D01*
X358243586Y-121391708D01*
X358474209Y-121326576D01*
X358728338Y-121373621D01*
X358911557Y-121703513D01*
X358983588Y-122228476D01*
X359927400Y-122228476D01*
X359944376Y-122182043D01*
X359764780Y-121919225D01*
X359727465Y-121878412D01*
X359422235Y-121466637D01*
X359357324Y-121168534D01*
X359544521Y-121044063D01*
X359563286Y-121043434D01*
X359655751Y-120982027D01*
X359518881Y-120868531D01*
X359406649Y-120747386D01*
X359598570Y-120695253D01*
X359785314Y-120688227D01*
X360126731Y-120667197D01*
X360150950Y-120595220D01*
X359989733Y-120489204D01*
X359573887Y-120380042D01*
X359162093Y-120398140D01*
X358731989Y-120402798D01*
X358563599Y-120239199D01*
X358362494Y-120008396D01*
X358259350Y-119980419D01*
X358150287Y-120051242D01*
X358269067Y-120239072D01*
X358402489Y-120531166D01*
X358381801Y-120662649D01*
X358130364Y-120817542D01*
X357643323Y-120959050D01*
X357039971Y-121058074D01*
X356647402Y-121085728D01*
X356324623Y-121126316D01*
X356294348Y-121273758D01*
X356379290Y-121427644D01*
X356594259Y-121690911D01*
X356710498Y-121756643D01*
X356913035Y-121866312D01*
X357243635Y-122134870D01*
X357293281Y-122180212D01*
X357750320Y-122603782D01*
X357124810Y-122721128D01*
X356659333Y-122848284D01*
X356518632Y-123021594D01*
X356672239Y-123287900D01*
X356721328Y-123341462D01*
X356832742Y-123486113D01*
X356688394Y-123442991D01*
X356543706Y-123370737D01*
X356280344Y-123127606D01*
X356149524Y-122812256D01*
X356179338Y-122551427D01*
X356343427Y-122467133D01*
X356447419Y-122382809D01*
X356363937Y-122245105D01*
X356202773Y-121922269D01*
X356063198Y-121453052D01*
X356061301Y-121444254D01*
X355936722Y-121083758D01*
X355793546Y-120958587D01*
X355774357Y-120966275D01*
X355647853Y-120945455D01*
X355583563Y-120660545D01*
X355575329Y-120073903D01*
X355584056Y-119802797D01*
X355592386Y-119409627D01*
X355554520Y-119341692D01*
X355443076Y-119569481D01*
X355419240Y-119625175D01*
X355321584Y-120100107D01*
X355304096Y-120766750D01*
X355360281Y-121472301D01*
X355483642Y-122063961D01*
X355528076Y-122185431D01*
X355590103Y-122418954D01*
X355447634Y-122387009D01*
X355444722Y-122385216D01*
X355299762Y-122357143D01*
X355330049Y-122595899D01*
X355350910Y-122664149D01*
X355471594Y-123425824D01*
X355452743Y-124226480D01*
X355380021Y-124355887D01*
X355160133Y-124225989D01*
X355070677Y-124147628D01*
X354825709Y-123947653D01*
X354781132Y-123995578D01*
X354818274Y-124107138D01*
X354833503Y-124310390D01*
X354595168Y-124307411D01*
X354554504Y-124297189D01*
X354272862Y-124107763D01*
X354260779Y-123910498D01*
X354348783Y-123541768D01*
X354387487Y-123355244D01*
X354012587Y-123355244D01*
X353947598Y-123501448D01*
X353894172Y-123473659D01*
X353872914Y-123262863D01*
X353894172Y-123236830D01*
X353999768Y-123261212D01*
X354012587Y-123355244D01*
X354387487Y-123355244D01*
X354453429Y-123037462D01*
X354460666Y-123000000D01*
X354525558Y-122609867D01*
X354492291Y-122522864D01*
X354339350Y-122695243D01*
X354321990Y-122718021D01*
X353991694Y-122954590D01*
X353666368Y-122871434D01*
X353488393Y-122602410D01*
X352830920Y-122602410D01*
X352801325Y-122901354D01*
X352576747Y-122960037D01*
X352513128Y-122939731D01*
X352181940Y-122950561D01*
X352042633Y-123013713D01*
X351804628Y-123152914D01*
X351752342Y-123174902D01*
X351753078Y-123088811D01*
X350637762Y-123088811D01*
X350548951Y-123177622D01*
X350460139Y-123088811D01*
X350548951Y-123000000D01*
X350637762Y-123088811D01*
X351753078Y-123088811D01*
X351753632Y-123024077D01*
X351809916Y-122652204D01*
X351819368Y-122600349D01*
X351960096Y-122122975D01*
X352148448Y-121784739D01*
X352148825Y-121784334D01*
X352325046Y-121678778D01*
X352496593Y-121827819D01*
X352656221Y-122116748D01*
X352830920Y-122602410D01*
X353488393Y-122602410D01*
X353418991Y-122497504D01*
X353372891Y-122341522D01*
X353161009Y-121835053D01*
X352883791Y-121436449D01*
X352648085Y-121132999D01*
X352658387Y-120954505D01*
X352773885Y-120861896D01*
X352919697Y-120723972D01*
X352874918Y-120693629D01*
X352859834Y-120580483D01*
X353047008Y-120311464D01*
X353052540Y-120305132D01*
X353206719Y-120084104D01*
X353126365Y-120064583D01*
X352857853Y-120230612D01*
X352547202Y-120479022D01*
X352285803Y-120645595D01*
X352050098Y-120566790D01*
X351881118Y-120424475D01*
X351607759Y-120253918D01*
X351525466Y-120334128D01*
X351679184Y-120592070D01*
X351739021Y-120655384D01*
X351860710Y-120897091D01*
X351739021Y-121081678D01*
X351578295Y-121410365D01*
X351525874Y-121781685D01*
X351465314Y-122178723D01*
X351324303Y-122388679D01*
X351163839Y-122343249D01*
X351111011Y-122246211D01*
X351045093Y-122233889D01*
X351007841Y-122508103D01*
X351007029Y-122533287D01*
X350970303Y-122871405D01*
X350851483Y-122911260D01*
X350725358Y-122821369D01*
X350662618Y-122747652D01*
X349705270Y-122747652D01*
X349703869Y-122787924D01*
X349620135Y-123294229D01*
X349359574Y-123689068D01*
X349047196Y-123965672D01*
X348417482Y-124467385D01*
X348950349Y-124342801D01*
X349292106Y-124284016D01*
X349340958Y-124351171D01*
X349270220Y-124434903D01*
X348963353Y-124609521D01*
X348480932Y-124761353D01*
X348382108Y-124782290D01*
X347720890Y-124899874D01*
X347333689Y-124919287D01*
X347147485Y-124818274D01*
X347089258Y-124574577D01*
X347085314Y-124387030D01*
X347098347Y-124017213D01*
X347170244Y-123960224D01*
X347343636Y-124165002D01*
X347507111Y-124358386D01*
X347555426Y-124297248D01*
X347512622Y-123936884D01*
X347502283Y-123869991D01*
X347472596Y-123408927D01*
X347593325Y-123174504D01*
X347710531Y-123112031D01*
X348093791Y-123116031D01*
X348289201Y-123218572D01*
X348441882Y-123308346D01*
X348506617Y-123201759D01*
X348499086Y-122837585D01*
X348470384Y-122511147D01*
X348458718Y-121888833D01*
X348505257Y-121762215D01*
X347799885Y-121762215D01*
X347790908Y-122211288D01*
X347727929Y-122590357D01*
X347615707Y-122776316D01*
X347573776Y-122776261D01*
X347422350Y-122565225D01*
X347347634Y-122150517D01*
X347346223Y-122095375D01*
X347377732Y-121450561D01*
X347488350Y-121146743D01*
X347636794Y-121146468D01*
X347750100Y-121366240D01*
X347799885Y-121762215D01*
X348505257Y-121762215D01*
X348569771Y-121586694D01*
X348797736Y-121611524D01*
X349039160Y-121845454D01*
X349336582Y-122070918D01*
X349495554Y-122111888D01*
X349662930Y-122268915D01*
X349705270Y-122747652D01*
X350662618Y-122747652D01*
X350447949Y-122495426D01*
X350235278Y-122135154D01*
X349914720Y-121722871D01*
X349481598Y-121407578D01*
X348950349Y-121144089D01*
X349572028Y-121037520D01*
X350193706Y-120930952D01*
X349701963Y-120790851D01*
X349175930Y-120712765D01*
X348786085Y-120731828D01*
X348472562Y-120730000D01*
X348299781Y-120506855D01*
X348228608Y-120263446D01*
X348095264Y-119713986D01*
X347977403Y-120424475D01*
X347896790Y-120859414D01*
X347828147Y-120980081D01*
X347730472Y-120823479D01*
X347676129Y-120696369D01*
X347492716Y-120257774D01*
X347221607Y-120775203D01*
X346950498Y-121292633D01*
X346654714Y-119358741D01*
X346549915Y-120424475D01*
X346516198Y-120996691D01*
X346534510Y-121406350D01*
X346587593Y-121549417D01*
X346697650Y-121751179D01*
X346730070Y-122034070D01*
X346697313Y-122323937D01*
X346529380Y-122355876D01*
X346281755Y-122255251D01*
X345904511Y-121940686D01*
X345725577Y-121592975D01*
X345516900Y-121092938D01*
X345300255Y-120779720D01*
X345030882Y-120359118D01*
X344814017Y-119827956D01*
X344806719Y-119802797D01*
X344630640Y-119181119D01*
X344614620Y-119925531D01*
G36*
X327914038Y-119119639D02*
G01*
X327763879Y-119453089D01*
X327583387Y-119988468D01*
X327477295Y-120362995D01*
X327332189Y-120892187D01*
X327235574Y-121118156D01*
X327149869Y-121082340D01*
X327043466Y-120841380D01*
X326847300Y-120456951D01*
X326676011Y-120257526D01*
X326621397Y-120326296D01*
X326702129Y-120633392D01*
X326763547Y-120790604D01*
X326932969Y-121406517D01*
X326982434Y-122037065D01*
X326979261Y-122084947D01*
X326893702Y-122542522D01*
X326663303Y-122790862D01*
X326317212Y-122930069D01*
X325709250Y-123126572D01*
X326361618Y-123248957D01*
X326756694Y-123342061D01*
X326948129Y-123498151D01*
X327010299Y-123825999D01*
X327016706Y-124206999D01*
X327043878Y-124685902D01*
X327116852Y-124850948D01*
X327169685Y-124805614D01*
X327310979Y-124749389D01*
X327437229Y-124993467D01*
X327529255Y-125482930D01*
X327562609Y-125930769D01*
X327583216Y-126463636D01*
X327718927Y-125892701D01*
X327799050Y-125442462D01*
X327804895Y-124981024D01*
X327731283Y-124384137D01*
X327633274Y-123837880D01*
X327505131Y-123165971D01*
X328232014Y-123216202D01*
X328681294Y-123266125D01*
X328911082Y-123401832D01*
X329023415Y-123725181D01*
X329078289Y-124060974D01*
X329109988Y-124746014D01*
X329037601Y-125437465D01*
X329007186Y-125569204D01*
X328885515Y-126104909D01*
X328886791Y-126315898D01*
X329002935Y-126196692D01*
X329225874Y-125741806D01*
X329234019Y-125723166D01*
X329465373Y-125208727D01*
X329665548Y-124790171D01*
X329699791Y-124723761D01*
X329784428Y-124335390D01*
X329760034Y-123825803D01*
X329753902Y-123791243D01*
X329700150Y-123381386D01*
X329791292Y-123211802D01*
X330087970Y-123177655D01*
X330108859Y-123177622D01*
X330431510Y-123143534D01*
X330467457Y-122988385D01*
X330395060Y-122834054D01*
X330384207Y-122800202D01*
X330165036Y-122800202D01*
X330034919Y-122715071D01*
X330011525Y-122692121D01*
X329871224Y-122459237D01*
X329890248Y-122373621D01*
X330022376Y-122426925D01*
X330110957Y-122592689D01*
X330165036Y-122800202D01*
X330384207Y-122800202D01*
X330251749Y-122387085D01*
X330211188Y-122013005D01*
X330245705Y-121695031D01*
X330376403Y-121679049D01*
X330446324Y-121730668D01*
X330723555Y-121829840D01*
X330878440Y-121728832D01*
X331135939Y-121621598D01*
X331413906Y-121666962D01*
X331566602Y-121819464D01*
X331542341Y-121935908D01*
X331348736Y-122051906D01*
X331295195Y-122034370D01*
X331248293Y-122148743D01*
X331257831Y-122529217D01*
X331316494Y-123052801D01*
X331409344Y-123738037D01*
X331451662Y-124226349D01*
X331443280Y-124666401D01*
X331384030Y-125206854D01*
X331313480Y-125715463D01*
X331248779Y-126397772D01*
X331295171Y-126794518D01*
X331376843Y-126916912D01*
X331498907Y-126915216D01*
X331596577Y-126653711D01*
X331681979Y-126092120D01*
X331712798Y-125801217D01*
X331784238Y-125154529D01*
X331849395Y-124815136D01*
X331925762Y-124735884D01*
X332030829Y-124869621D01*
X332047229Y-124899669D01*
X332170021Y-125090596D01*
X332229485Y-125033060D01*
X332244618Y-124682898D01*
X332242438Y-124445831D01*
X332214494Y-123911523D01*
X332157770Y-123525596D01*
X332125663Y-123435239D01*
X332081830Y-123169560D01*
X332091394Y-122692340D01*
X332114456Y-122437646D01*
X332212525Y-121893500D01*
X332379232Y-121610208D01*
X332583017Y-121511148D01*
X333005366Y-121502831D01*
X333188526Y-121750862D01*
X333124296Y-122241695D01*
X333088787Y-122346643D01*
X332926725Y-122901746D01*
X332883890Y-123299104D01*
X332962775Y-123468988D01*
X333049476Y-123446324D01*
X333324333Y-123438446D01*
X333606339Y-123543745D01*
X333849955Y-123737705D01*
X333775955Y-123880498D01*
X333657473Y-124122292D01*
X333558926Y-124645114D01*
X333494037Y-125374801D01*
X333491911Y-125415602D01*
X333421164Y-126818881D01*
X333642446Y-125949129D01*
X333777470Y-125450445D01*
X333872440Y-125253787D01*
X333969196Y-125315505D01*
X334068094Y-125505073D01*
X334197997Y-125746731D01*
X334259803Y-125722035D01*
X334283054Y-125392568D01*
X334287100Y-125220279D01*
X334387150Y-124477821D01*
X334629320Y-123909164D01*
X334976293Y-123592671D01*
X335076895Y-123561771D01*
X335301775Y-123580717D01*
X335273027Y-123711135D01*
X335242737Y-123835940D01*
X335462237Y-123751871D01*
X335491955Y-123736127D01*
X335701808Y-123660122D01*
X335840237Y-123757300D01*
X335957345Y-124094365D01*
X336045680Y-124473301D01*
X336174735Y-125095029D01*
X336275073Y-125640996D01*
X336305507Y-125841958D01*
X336351685Y-126097039D01*
X336413808Y-126061825D01*
X336526243Y-125710404D01*
X336538998Y-125665901D01*
X336683358Y-125263684D01*
X336889567Y-125102607D01*
X337290274Y-125095706D01*
X337395597Y-125104325D01*
X337935105Y-125084850D01*
X338218760Y-124930280D01*
X338390377Y-124758748D01*
X338475882Y-124863455D01*
X338450872Y-125170797D01*
X338377533Y-125409172D01*
X338259837Y-125745782D01*
X338302772Y-125794238D01*
X338520194Y-125611041D01*
X338810869Y-125424661D01*
X338973505Y-125427118D01*
X339066031Y-125378512D01*
X339092307Y-125169121D01*
X339175770Y-124894459D01*
X339483639Y-124728966D01*
X339572299Y-124708290D01*
X337814111Y-124708290D01*
X337557946Y-124766588D01*
X337246276Y-124776223D01*
X336743703Y-124691127D01*
X336535786Y-124495263D01*
X336444046Y-124135845D01*
X336439935Y-123849963D01*
X336519243Y-123755446D01*
X336561188Y-123784499D01*
X336691997Y-124074175D01*
X336694405Y-124113650D01*
X336847660Y-124285975D01*
X337221647Y-124445473D01*
X337271678Y-124459172D01*
X337718881Y-124603419D01*
X337814111Y-124708290D01*
X339572299Y-124708290D01*
X339758391Y-124664893D01*
X340424475Y-124537464D01*
X339847202Y-124385332D01*
X339406358Y-124185820D01*
X339269930Y-123883033D01*
X339382192Y-123597733D01*
X339536363Y-123532867D01*
X339772883Y-123618683D01*
X339802797Y-123691486D01*
X339943749Y-123886925D01*
X340060185Y-123948873D01*
X340237853Y-123944145D01*
X340207544Y-123745849D01*
X340216768Y-123626311D01*
X340433617Y-123791380D01*
X340530821Y-123888112D01*
X340993208Y-124378902D01*
X341238434Y-124727637D01*
X341302651Y-125041323D01*
X341222013Y-125426964D01*
X341137484Y-125683691D01*
X340990847Y-126134234D01*
X340966679Y-126295004D01*
X341064884Y-126209663D01*
X341136525Y-126118848D01*
X341341190Y-125806678D01*
X341401398Y-125649390D01*
X341536273Y-125449413D01*
X341854026Y-125415772D01*
X342224345Y-125547137D01*
X342372976Y-125659314D01*
X342738678Y-125954581D01*
X342918575Y-125990011D01*
X342891583Y-125766106D01*
X342906278Y-125588861D01*
X343193112Y-125590636D01*
X343207997Y-125593494D01*
X343482052Y-125641256D01*
X343440764Y-125598299D01*
X343182552Y-125482844D01*
X342612933Y-125125150D01*
X342243198Y-124675676D01*
X342113496Y-124211314D01*
X342263976Y-123808957D01*
X342292610Y-123778438D01*
X342511791Y-123409362D01*
X342654734Y-122906111D01*
X342682573Y-122441625D01*
X342662157Y-122367521D01*
X341935150Y-122367521D01*
X341919214Y-122919246D01*
X341849492Y-123459983D01*
X341735203Y-123878674D01*
X341585563Y-124064260D01*
X341570399Y-124065734D01*
X341385563Y-123933483D01*
X341104627Y-123604410D01*
X341020259Y-123488461D01*
X340728762Y-123105763D01*
X340509310Y-122873829D01*
X340475297Y-122851981D01*
X340338023Y-122641464D01*
X340449906Y-122305645D01*
X340690909Y-122023077D01*
X340948147Y-121808773D01*
X341036508Y-121840678D01*
X341046153Y-122035069D01*
X341068942Y-122240721D01*
X341178879Y-122169604D01*
X341324740Y-121970816D01*
X341580114Y-121713442D01*
X341768796Y-121675343D01*
X341888084Y-121915867D01*
X341935150Y-122367521D01*
X342662157Y-122367521D01*
X342633273Y-122262685D01*
X342490808Y-121892224D01*
X342396218Y-121504880D01*
X342360828Y-121190175D01*
X342469136Y-121062302D01*
X342809636Y-121059479D01*
X343008526Y-121077409D01*
X343449470Y-121109025D01*
X343693400Y-121106243D01*
X343710489Y-121097637D01*
X343562446Y-120989925D01*
X343210781Y-120837349D01*
X342794193Y-120689997D01*
X342451381Y-120597959D01*
X342324206Y-120597005D01*
X342160179Y-120550066D01*
X341983062Y-120377309D01*
X341832078Y-120221958D01*
X341842765Y-120291258D01*
X341841205Y-120488027D01*
X341767126Y-120513286D01*
X341580988Y-120415179D01*
X341572633Y-120380070D01*
X341463361Y-120170692D01*
X341199996Y-119816847D01*
X341114754Y-119713986D01*
X340663263Y-119181119D01*
X341032331Y-119928938D01*
X341252137Y-120405354D01*
X341384236Y-120751565D01*
X341401398Y-120833485D01*
X341259532Y-121009260D01*
X340906363Y-121253516D01*
X340779720Y-121325009D01*
X340384451Y-121585026D01*
X340170507Y-121817530D01*
X340158042Y-121865130D01*
X340009210Y-122068628D01*
X339789508Y-122166829D01*
X339534420Y-122294918D01*
X339572525Y-122543112D01*
X339608632Y-122613846D01*
X339701148Y-122913494D01*
X339533110Y-123065481D01*
X339342725Y-123075685D01*
X339277688Y-122874331D01*
X339329296Y-122408133D01*
X339380944Y-122134091D01*
X339550894Y-121710880D01*
X339780594Y-121564531D01*
X339831780Y-121497557D01*
X339602496Y-121348802D01*
X339492319Y-121297736D01*
X338953320Y-120904683D01*
X338650900Y-120468519D01*
X338386392Y-119891608D01*
X338477276Y-120424475D01*
X338507298Y-120796878D01*
X338362411Y-120935268D01*
X338075339Y-120951048D01*
X337549277Y-120866205D01*
X337194544Y-120729020D01*
X336847359Y-120575437D01*
X336573557Y-120513004D01*
X336460436Y-120547370D01*
X336595293Y-120684184D01*
X336605594Y-120690909D01*
X336756941Y-120826280D01*
X336583957Y-120873753D01*
X336516783Y-120877070D01*
X336287157Y-120900604D01*
X336372208Y-120972683D01*
X336561188Y-121051689D01*
X336870301Y-121276077D01*
X336960839Y-121484486D01*
X337062752Y-121725663D01*
X337257759Y-121710826D01*
X337350826Y-121563605D01*
X337566810Y-121453365D01*
X338063224Y-121492161D01*
X338074480Y-121494255D01*
X338505018Y-121603036D01*
X338679613Y-121781819D01*
X338695173Y-122141776D01*
X338691020Y-122201536D01*
X338636199Y-122589755D01*
X338474379Y-122725271D01*
X338090047Y-122694709D01*
X338043363Y-122687221D01*
X337644965Y-122668946D01*
X337555066Y-122771176D01*
X337762558Y-122959331D01*
X338200384Y-123176043D01*
X338623309Y-123458948D01*
X338737063Y-123798323D01*
X338694885Y-124046646D01*
X338506293Y-124168076D01*
X338078192Y-124210678D01*
X337931061Y-124214481D01*
X337410278Y-124196714D01*
X337119453Y-124081209D01*
X336936183Y-123815405D01*
X336919831Y-123780232D01*
X336804263Y-123414521D01*
X336905366Y-123214037D01*
X336941547Y-123189545D01*
X337032977Y-123057096D01*
X336806320Y-122954576D01*
X336484677Y-122708949D01*
X336436613Y-122602410D01*
X335779171Y-122602410D01*
X335749577Y-122901354D01*
X335524998Y-122960037D01*
X335461380Y-122939731D01*
X335130192Y-122950561D01*
X334990885Y-123013713D01*
X334752880Y-123152914D01*
X334700594Y-123174902D01*
X334701884Y-123024077D01*
X334758168Y-122652204D01*
X334767620Y-122600349D01*
X334908348Y-122122975D01*
X335000257Y-121957927D01*
X334467059Y-121957927D01*
X334381925Y-122293519D01*
X334311674Y-122368945D01*
X334113117Y-122331598D01*
X334059263Y-122246211D01*
X334000650Y-122255771D01*
X333961471Y-122547044D01*
X333955281Y-122708164D01*
X333917598Y-123149560D01*
X333805619Y-123307540D01*
X333660297Y-123285437D01*
X333314970Y-123189377D01*
X333205759Y-123177622D01*
X333114048Y-123067563D01*
X333143748Y-122997102D01*
X333350984Y-122891043D01*
X333411690Y-122913227D01*
X333542064Y-122826118D01*
X333664001Y-122487704D01*
X333683315Y-122395534D01*
X333802206Y-121984941D01*
X333976876Y-121865348D01*
X334091940Y-121890987D01*
X334285368Y-121938925D01*
X334220455Y-121800832D01*
X334137975Y-121696796D01*
X333987617Y-121400747D01*
X334057650Y-121244866D01*
X334284686Y-121305284D01*
X334433003Y-121563788D01*
X334467059Y-121957927D01*
X335000257Y-121957927D01*
X335096700Y-121784739D01*
X335097076Y-121784334D01*
X335273298Y-121678778D01*
X335444845Y-121827819D01*
X335604472Y-122116748D01*
X335779171Y-122602410D01*
X336436613Y-122602410D01*
X336323938Y-122352660D01*
X336109297Y-121836677D01*
X335832043Y-121436449D01*
X335596337Y-121132999D01*
X335606638Y-120954505D01*
X335722137Y-120861896D01*
X335867949Y-120723972D01*
X335823170Y-120693629D01*
X335808086Y-120580483D01*
X335995260Y-120311464D01*
X336000792Y-120305132D01*
X336154971Y-120084104D01*
X336074617Y-120064583D01*
X335806105Y-120230612D01*
X335495454Y-120479022D01*
X335234054Y-120645595D01*
X334998350Y-120566790D01*
X334829370Y-120424475D01*
X334556011Y-120253918D01*
X334473718Y-120334128D01*
X334627436Y-120592070D01*
X334687272Y-120655384D01*
X334797592Y-120914364D01*
X334633300Y-121096199D01*
X334274940Y-121131653D01*
X334160223Y-121108431D01*
X333851039Y-120985532D01*
X333762754Y-120892220D01*
X333660094Y-120694480D01*
X333406626Y-120345086D01*
X333328170Y-120246853D01*
X332894469Y-119713986D01*
X332929402Y-120242440D01*
X332893817Y-120625447D01*
X332757109Y-120775307D01*
X332452826Y-120882214D01*
X332416666Y-120912937D01*
X332168397Y-121042075D01*
X332024345Y-120835697D01*
X331987412Y-120424475D01*
X331938997Y-119959043D01*
X331821389Y-119823067D01*
X331676044Y-120008430D01*
X331544418Y-120507016D01*
X331543683Y-120511355D01*
X331455860Y-120928084D01*
X331323576Y-121091385D01*
X331065324Y-121018053D01*
X330968879Y-120957342D01*
X329500699Y-120957342D01*
X329411888Y-121046154D01*
X329323077Y-120957342D01*
X329411888Y-120868531D01*
X329500699Y-120957342D01*
X330968879Y-120957342D01*
X330599597Y-120724886D01*
X330577855Y-120710394D01*
X330413854Y-120538989D01*
X330510163Y-120316282D01*
X330577855Y-120231310D01*
X330732904Y-120022845D01*
X330638741Y-120029915D01*
X330433216Y-120135211D01*
X330118680Y-120237738D01*
X330035349Y-120081195D01*
X330180563Y-119658410D01*
X330223110Y-119569092D01*
X330320376Y-119345814D01*
X330249067Y-119388913D01*
X330049437Y-119625175D01*
X329792964Y-120007340D01*
X329682328Y-120307841D01*
X329682271Y-120310262D01*
X329553575Y-120471010D01*
X329422746Y-120453220D01*
X329203513Y-120505244D01*
X329094115Y-120833867D01*
X329046677Y-120973358D01*
X329004223Y-120780163D01*
X328979178Y-120424475D01*
X328945584Y-119939252D01*
X328898616Y-119778104D01*
X328825955Y-119909862D01*
X328803682Y-119980419D01*
X328749067Y-120402119D01*
X328750796Y-121014244D01*
X328785478Y-121460112D01*
X328842637Y-122036383D01*
X328833337Y-122337348D01*
X328733716Y-122440382D01*
X328519914Y-122422861D01*
X328490305Y-122417261D01*
X328176439Y-122411894D01*
X328079720Y-122491764D01*
X327935497Y-122627601D01*
X327813286Y-122644755D01*
X327589674Y-122512711D01*
X327559983Y-122232257D01*
X327664353Y-122053595D01*
X327732538Y-121824660D01*
X327786462Y-121355375D01*
X327808812Y-120913851D01*
X327847666Y-120240463D01*
X327917836Y-119628304D01*
X327968956Y-119358741D01*
X328034943Y-119033886D01*
X327984253Y-119019800D01*
X327914038Y-119119639D01*
G37*
X327914038Y-119119639D02*
X327763879Y-119453089D01*
X327583387Y-119988468D01*
X327477295Y-120362995D01*
X327332189Y-120892187D01*
X327235574Y-121118156D01*
X327149869Y-121082340D01*
X327043466Y-120841380D01*
X326847300Y-120456951D01*
X326676011Y-120257526D01*
X326621397Y-120326296D01*
X326702129Y-120633392D01*
X326763547Y-120790604D01*
X326932969Y-121406517D01*
X326982434Y-122037065D01*
X326979261Y-122084947D01*
X326893702Y-122542522D01*
X326663303Y-122790862D01*
X326317212Y-122930069D01*
X325709250Y-123126572D01*
X326361618Y-123248957D01*
X326756694Y-123342061D01*
X326948129Y-123498151D01*
X327010299Y-123825999D01*
X327016706Y-124206999D01*
X327043878Y-124685902D01*
X327116852Y-124850948D01*
X327169685Y-124805614D01*
X327310979Y-124749389D01*
X327437229Y-124993467D01*
X327529255Y-125482930D01*
X327562609Y-125930769D01*
X327583216Y-126463636D01*
X327718927Y-125892701D01*
X327799050Y-125442462D01*
X327804895Y-124981024D01*
X327731283Y-124384137D01*
X327633274Y-123837880D01*
X327505131Y-123165971D01*
X328232014Y-123216202D01*
X328681294Y-123266125D01*
X328911082Y-123401832D01*
X329023415Y-123725181D01*
X329078289Y-124060974D01*
X329109988Y-124746014D01*
X329037601Y-125437465D01*
X329007186Y-125569204D01*
X328885515Y-126104909D01*
X328886791Y-126315898D01*
X329002935Y-126196692D01*
X329225874Y-125741806D01*
X329234019Y-125723166D01*
X329465373Y-125208727D01*
X329665548Y-124790171D01*
X329699791Y-124723761D01*
X329784428Y-124335390D01*
X329760034Y-123825803D01*
X329753902Y-123791243D01*
X329700150Y-123381386D01*
X329791292Y-123211802D01*
X330087970Y-123177655D01*
X330108859Y-123177622D01*
X330431510Y-123143534D01*
X330467457Y-122988385D01*
X330395060Y-122834054D01*
X330384207Y-122800202D01*
X330165036Y-122800202D01*
X330034919Y-122715071D01*
X330011525Y-122692121D01*
X329871224Y-122459237D01*
X329890248Y-122373621D01*
X330022376Y-122426925D01*
X330110957Y-122592689D01*
X330165036Y-122800202D01*
X330384207Y-122800202D01*
X330251749Y-122387085D01*
X330211188Y-122013005D01*
X330245705Y-121695031D01*
X330376403Y-121679049D01*
X330446324Y-121730668D01*
X330723555Y-121829840D01*
X330878440Y-121728832D01*
X331135939Y-121621598D01*
X331413906Y-121666962D01*
X331566602Y-121819464D01*
X331542341Y-121935908D01*
X331348736Y-122051906D01*
X331295195Y-122034370D01*
X331248293Y-122148743D01*
X331257831Y-122529217D01*
X331316494Y-123052801D01*
X331409344Y-123738037D01*
X331451662Y-124226349D01*
X331443280Y-124666401D01*
X331384030Y-125206854D01*
X331313480Y-125715463D01*
X331248779Y-126397772D01*
X331295171Y-126794518D01*
X331376843Y-126916912D01*
X331498907Y-126915216D01*
X331596577Y-126653711D01*
X331681979Y-126092120D01*
X331712798Y-125801217D01*
X331784238Y-125154529D01*
X331849395Y-124815136D01*
X331925762Y-124735884D01*
X332030829Y-124869621D01*
X332047229Y-124899669D01*
X332170021Y-125090596D01*
X332229485Y-125033060D01*
X332244618Y-124682898D01*
X332242438Y-124445831D01*
X332214494Y-123911523D01*
X332157770Y-123525596D01*
X332125663Y-123435239D01*
X332081830Y-123169560D01*
X332091394Y-122692340D01*
X332114456Y-122437646D01*
X332212525Y-121893500D01*
X332379232Y-121610208D01*
X332583017Y-121511148D01*
X333005366Y-121502831D01*
X333188526Y-121750862D01*
X333124296Y-122241695D01*
X333088787Y-122346643D01*
X332926725Y-122901746D01*
X332883890Y-123299104D01*
X332962775Y-123468988D01*
X333049476Y-123446324D01*
X333324333Y-123438446D01*
X333606339Y-123543745D01*
X333849955Y-123737705D01*
X333775955Y-123880498D01*
X333657473Y-124122292D01*
X333558926Y-124645114D01*
X333494037Y-125374801D01*
X333491911Y-125415602D01*
X333421164Y-126818881D01*
X333642446Y-125949129D01*
X333777470Y-125450445D01*
X333872440Y-125253787D01*
X333969196Y-125315505D01*
X334068094Y-125505073D01*
X334197997Y-125746731D01*
X334259803Y-125722035D01*
X334283054Y-125392568D01*
X334287100Y-125220279D01*
X334387150Y-124477821D01*
X334629320Y-123909164D01*
X334976293Y-123592671D01*
X335076895Y-123561771D01*
X335301775Y-123580717D01*
X335273027Y-123711135D01*
X335242737Y-123835940D01*
X335462237Y-123751871D01*
X335491955Y-123736127D01*
X335701808Y-123660122D01*
X335840237Y-123757300D01*
X335957345Y-124094365D01*
X336045680Y-124473301D01*
X336174735Y-125095029D01*
X336275073Y-125640996D01*
X336305507Y-125841958D01*
X336351685Y-126097039D01*
X336413808Y-126061825D01*
X336526243Y-125710404D01*
X336538998Y-125665901D01*
X336683358Y-125263684D01*
X336889567Y-125102607D01*
X337290274Y-125095706D01*
X337395597Y-125104325D01*
X337935105Y-125084850D01*
X338218760Y-124930280D01*
X338390377Y-124758748D01*
X338475882Y-124863455D01*
X338450872Y-125170797D01*
X338377533Y-125409172D01*
X338259837Y-125745782D01*
X338302772Y-125794238D01*
X338520194Y-125611041D01*
X338810869Y-125424661D01*
X338973505Y-125427118D01*
X339066031Y-125378512D01*
X339092307Y-125169121D01*
X339175770Y-124894459D01*
X339483639Y-124728966D01*
X339572299Y-124708290D01*
X337814111Y-124708290D01*
X337557946Y-124766588D01*
X337246276Y-124776223D01*
X336743703Y-124691127D01*
X336535786Y-124495263D01*
X336444046Y-124135845D01*
X336439935Y-123849963D01*
X336519243Y-123755446D01*
X336561188Y-123784499D01*
X336691997Y-124074175D01*
X336694405Y-124113650D01*
X336847660Y-124285975D01*
X337221647Y-124445473D01*
X337271678Y-124459172D01*
X337718881Y-124603419D01*
X337814111Y-124708290D01*
X339572299Y-124708290D01*
X339758391Y-124664893D01*
X340424475Y-124537464D01*
X339847202Y-124385332D01*
X339406358Y-124185820D01*
X339269930Y-123883033D01*
X339382192Y-123597733D01*
X339536363Y-123532867D01*
X339772883Y-123618683D01*
X339802797Y-123691486D01*
X339943749Y-123886925D01*
X340060185Y-123948873D01*
X340237853Y-123944145D01*
X340207544Y-123745849D01*
X340216768Y-123626311D01*
X340433617Y-123791380D01*
X340530821Y-123888112D01*
X340993208Y-124378902D01*
X341238434Y-124727637D01*
X341302651Y-125041323D01*
X341222013Y-125426964D01*
X341137484Y-125683691D01*
X340990847Y-126134234D01*
X340966679Y-126295004D01*
X341064884Y-126209663D01*
X341136525Y-126118848D01*
X341341190Y-125806678D01*
X341401398Y-125649390D01*
X341536273Y-125449413D01*
X341854026Y-125415772D01*
X342224345Y-125547137D01*
X342372976Y-125659314D01*
X342738678Y-125954581D01*
X342918575Y-125990011D01*
X342891583Y-125766106D01*
X342906278Y-125588861D01*
X343193112Y-125590636D01*
X343207997Y-125593494D01*
X343482052Y-125641256D01*
X343440764Y-125598299D01*
X343182552Y-125482844D01*
X342612933Y-125125150D01*
X342243198Y-124675676D01*
X342113496Y-124211314D01*
X342263976Y-123808957D01*
X342292610Y-123778438D01*
X342511791Y-123409362D01*
X342654734Y-122906111D01*
X342682573Y-122441625D01*
X342662157Y-122367521D01*
X341935150Y-122367521D01*
X341919214Y-122919246D01*
X341849492Y-123459983D01*
X341735203Y-123878674D01*
X341585563Y-124064260D01*
X341570399Y-124065734D01*
X341385563Y-123933483D01*
X341104627Y-123604410D01*
X341020259Y-123488461D01*
X340728762Y-123105763D01*
X340509310Y-122873829D01*
X340475297Y-122851981D01*
X340338023Y-122641464D01*
X340449906Y-122305645D01*
X340690909Y-122023077D01*
X340948147Y-121808773D01*
X341036508Y-121840678D01*
X341046153Y-122035069D01*
X341068942Y-122240721D01*
X341178879Y-122169604D01*
X341324740Y-121970816D01*
X341580114Y-121713442D01*
X341768796Y-121675343D01*
X341888084Y-121915867D01*
X341935150Y-122367521D01*
X342662157Y-122367521D01*
X342633273Y-122262685D01*
X342490808Y-121892224D01*
X342396218Y-121504880D01*
X342360828Y-121190175D01*
X342469136Y-121062302D01*
X342809636Y-121059479D01*
X343008526Y-121077409D01*
X343449470Y-121109025D01*
X343693400Y-121106243D01*
X343710489Y-121097637D01*
X343562446Y-120989925D01*
X343210781Y-120837349D01*
X342794193Y-120689997D01*
X342451381Y-120597959D01*
X342324206Y-120597005D01*
X342160179Y-120550066D01*
X341983062Y-120377309D01*
X341832078Y-120221958D01*
X341842765Y-120291258D01*
X341841205Y-120488027D01*
X341767126Y-120513286D01*
X341580988Y-120415179D01*
X341572633Y-120380070D01*
X341463361Y-120170692D01*
X341199996Y-119816847D01*
X341114754Y-119713986D01*
X340663263Y-119181119D01*
X341032331Y-119928938D01*
X341252137Y-120405354D01*
X341384236Y-120751565D01*
X341401398Y-120833485D01*
X341259532Y-121009260D01*
X340906363Y-121253516D01*
X340779720Y-121325009D01*
X340384451Y-121585026D01*
X340170507Y-121817530D01*
X340158042Y-121865130D01*
X340009210Y-122068628D01*
X339789508Y-122166829D01*
X339534420Y-122294918D01*
X339572525Y-122543112D01*
X339608632Y-122613846D01*
X339701148Y-122913494D01*
X339533110Y-123065481D01*
X339342725Y-123075685D01*
X339277688Y-122874331D01*
X339329296Y-122408133D01*
X339380944Y-122134091D01*
X339550894Y-121710880D01*
X339780594Y-121564531D01*
X339831780Y-121497557D01*
X339602496Y-121348802D01*
X339492319Y-121297736D01*
X338953320Y-120904683D01*
X338650900Y-120468519D01*
X338386392Y-119891608D01*
X338477276Y-120424475D01*
X338507298Y-120796878D01*
X338362411Y-120935268D01*
X338075339Y-120951048D01*
X337549277Y-120866205D01*
X337194544Y-120729020D01*
X336847359Y-120575437D01*
X336573557Y-120513004D01*
X336460436Y-120547370D01*
X336595293Y-120684184D01*
X336605594Y-120690909D01*
X336756941Y-120826280D01*
X336583957Y-120873753D01*
X336516783Y-120877070D01*
X336287157Y-120900604D01*
X336372208Y-120972683D01*
X336561188Y-121051689D01*
X336870301Y-121276077D01*
X336960839Y-121484486D01*
X337062752Y-121725663D01*
X337257759Y-121710826D01*
X337350826Y-121563605D01*
X337566810Y-121453365D01*
X338063224Y-121492161D01*
X338074480Y-121494255D01*
X338505018Y-121603036D01*
X338679613Y-121781819D01*
X338695173Y-122141776D01*
X338691020Y-122201536D01*
X338636199Y-122589755D01*
X338474379Y-122725271D01*
X338090047Y-122694709D01*
X338043363Y-122687221D01*
X337644965Y-122668946D01*
X337555066Y-122771176D01*
X337762558Y-122959331D01*
X338200384Y-123176043D01*
X338623309Y-123458948D01*
X338737063Y-123798323D01*
X338694885Y-124046646D01*
X338506293Y-124168076D01*
X338078192Y-124210678D01*
X337931061Y-124214481D01*
X337410278Y-124196714D01*
X337119453Y-124081209D01*
X336936183Y-123815405D01*
X336919831Y-123780232D01*
X336804263Y-123414521D01*
X336905366Y-123214037D01*
X336941547Y-123189545D01*
X337032977Y-123057096D01*
X336806320Y-122954576D01*
X336484677Y-122708949D01*
X336436613Y-122602410D01*
X335779171Y-122602410D01*
X335749577Y-122901354D01*
X335524998Y-122960037D01*
X335461380Y-122939731D01*
X335130192Y-122950561D01*
X334990885Y-123013713D01*
X334752880Y-123152914D01*
X334700594Y-123174902D01*
X334701884Y-123024077D01*
X334758168Y-122652204D01*
X334767620Y-122600349D01*
X334908348Y-122122975D01*
X335000257Y-121957927D01*
X334467059Y-121957927D01*
X334381925Y-122293519D01*
X334311674Y-122368945D01*
X334113117Y-122331598D01*
X334059263Y-122246211D01*
X334000650Y-122255771D01*
X333961471Y-122547044D01*
X333955281Y-122708164D01*
X333917598Y-123149560D01*
X333805619Y-123307540D01*
X333660297Y-123285437D01*
X333314970Y-123189377D01*
X333205759Y-123177622D01*
X333114048Y-123067563D01*
X333143748Y-122997102D01*
X333350984Y-122891043D01*
X333411690Y-122913227D01*
X333542064Y-122826118D01*
X333664001Y-122487704D01*
X333683315Y-122395534D01*
X333802206Y-121984941D01*
X333976876Y-121865348D01*
X334091940Y-121890987D01*
X334285368Y-121938925D01*
X334220455Y-121800832D01*
X334137975Y-121696796D01*
X333987617Y-121400747D01*
X334057650Y-121244866D01*
X334284686Y-121305284D01*
X334433003Y-121563788D01*
X334467059Y-121957927D01*
X335000257Y-121957927D01*
X335096700Y-121784739D01*
X335097076Y-121784334D01*
X335273298Y-121678778D01*
X335444845Y-121827819D01*
X335604472Y-122116748D01*
X335779171Y-122602410D01*
X336436613Y-122602410D01*
X336323938Y-122352660D01*
X336109297Y-121836677D01*
X335832043Y-121436449D01*
X335596337Y-121132999D01*
X335606638Y-120954505D01*
X335722137Y-120861896D01*
X335867949Y-120723972D01*
X335823170Y-120693629D01*
X335808086Y-120580483D01*
X335995260Y-120311464D01*
X336000792Y-120305132D01*
X336154971Y-120084104D01*
X336074617Y-120064583D01*
X335806105Y-120230612D01*
X335495454Y-120479022D01*
X335234054Y-120645595D01*
X334998350Y-120566790D01*
X334829370Y-120424475D01*
X334556011Y-120253918D01*
X334473718Y-120334128D01*
X334627436Y-120592070D01*
X334687272Y-120655384D01*
X334797592Y-120914364D01*
X334633300Y-121096199D01*
X334274940Y-121131653D01*
X334160223Y-121108431D01*
X333851039Y-120985532D01*
X333762754Y-120892220D01*
X333660094Y-120694480D01*
X333406626Y-120345086D01*
X333328170Y-120246853D01*
X332894469Y-119713986D01*
X332929402Y-120242440D01*
X332893817Y-120625447D01*
X332757109Y-120775307D01*
X332452826Y-120882214D01*
X332416666Y-120912937D01*
X332168397Y-121042075D01*
X332024345Y-120835697D01*
X331987412Y-120424475D01*
X331938997Y-119959043D01*
X331821389Y-119823067D01*
X331676044Y-120008430D01*
X331544418Y-120507016D01*
X331543683Y-120511355D01*
X331455860Y-120928084D01*
X331323576Y-121091385D01*
X331065324Y-121018053D01*
X330968879Y-120957342D01*
X329500699Y-120957342D01*
X329411888Y-121046154D01*
X329323077Y-120957342D01*
X329411888Y-120868531D01*
X329500699Y-120957342D01*
X330968879Y-120957342D01*
X330599597Y-120724886D01*
X330577855Y-120710394D01*
X330413854Y-120538989D01*
X330510163Y-120316282D01*
X330577855Y-120231310D01*
X330732904Y-120022845D01*
X330638741Y-120029915D01*
X330433216Y-120135211D01*
X330118680Y-120237738D01*
X330035349Y-120081195D01*
X330180563Y-119658410D01*
X330223110Y-119569092D01*
X330320376Y-119345814D01*
X330249067Y-119388913D01*
X330049437Y-119625175D01*
X329792964Y-120007340D01*
X329682328Y-120307841D01*
X329682271Y-120310262D01*
X329553575Y-120471010D01*
X329422746Y-120453220D01*
X329203513Y-120505244D01*
X329094115Y-120833867D01*
X329046677Y-120973358D01*
X329004223Y-120780163D01*
X328979178Y-120424475D01*
X328945584Y-119939252D01*
X328898616Y-119778104D01*
X328825955Y-119909862D01*
X328803682Y-119980419D01*
X328749067Y-120402119D01*
X328750796Y-121014244D01*
X328785478Y-121460112D01*
X328842637Y-122036383D01*
X328833337Y-122337348D01*
X328733716Y-122440382D01*
X328519914Y-122422861D01*
X328490305Y-122417261D01*
X328176439Y-122411894D01*
X328079720Y-122491764D01*
X327935497Y-122627601D01*
X327813286Y-122644755D01*
X327589674Y-122512711D01*
X327559983Y-122232257D01*
X327664353Y-122053595D01*
X327732538Y-121824660D01*
X327786462Y-121355375D01*
X327808812Y-120913851D01*
X327847666Y-120240463D01*
X327917836Y-119628304D01*
X327968956Y-119358741D01*
X328034943Y-119033886D01*
X327984253Y-119019800D01*
X327914038Y-119119639D01*
G36*
X333586014Y-126996503D02*
G01*
X333674825Y-127085314D01*
X333763636Y-126996503D01*
X333674825Y-126907692D01*
X333586014Y-126996503D01*
G37*
X333586014Y-126996503D02*
X333674825Y-127085314D01*
X333763636Y-126996503D01*
X333674825Y-126907692D01*
X333586014Y-126996503D01*
G36*
X350637762Y-126996503D02*
G01*
X350726573Y-127085314D01*
X350815384Y-126996503D01*
X350726573Y-126907692D01*
X350637762Y-126996503D01*
G37*
X350637762Y-126996503D02*
X350726573Y-127085314D01*
X350815384Y-126996503D01*
X350726573Y-126907692D01*
X350637762Y-126996503D01*
%TD*%
M02*
