%TF.GenerationSoftware,KiCad,Pcbnew,(5.1.12-1-10_14)*%
%TF.CreationDate,2023-08-06T16:51:14+02:00*%
%TF.ProjectId,xorcist_panel,786f7263-6973-4745-9f70-616e656c2e6b,rev?*%
%TF.SameCoordinates,Original*%
%TF.FileFunction,Copper,L2,Bot*%
%TF.FilePolarity,Positive*%
%FSLAX46Y46*%
G04 Gerber Fmt 4.6, Leading zero omitted, Abs format (unit mm)*
G04 Created by KiCad (PCBNEW (5.1.12-1-10_14)) date 2023-08-06 16:51:14*
%MOMM*%
%LPD*%
G01*
G04 APERTURE LIST*
%TA.AperFunction,ComponentPad*%
%ADD10C,9.000000*%
%TD*%
%TA.AperFunction,ComponentPad*%
%ADD11C,5.500000*%
%TD*%
%TA.AperFunction,ComponentPad*%
%ADD12C,14.000000*%
%TD*%
%TA.AperFunction,ComponentPad*%
%ADD13C,4.000000*%
%TD*%
%TA.AperFunction,Conductor*%
%ADD14C,0.254000*%
%TD*%
%TA.AperFunction,Conductor*%
%ADD15C,0.100000*%
%TD*%
G04 APERTURE END LIST*
D10*
%TO.P,REF\u002A\u002A,1*%
%TO.N,GND*%
X384750000Y-133000000D03*
%TD*%
%TO.P,REF\u002A\u002A,1*%
%TO.N,GND*%
X361000000Y-133000000D03*
%TD*%
%TO.P,REF\u002A\u002A,1*%
%TO.N,GND*%
X361000000Y-86500000D03*
%TD*%
%TO.P,REF\u002A\u002A,1*%
%TO.N,GND*%
X384750000Y-38000000D03*
%TD*%
%TO.P,REF\u002A\u002A,1*%
%TO.N,GND*%
X361000000Y-38250000D03*
%TD*%
D11*
%TO.P,REF\u002A\u002A,1*%
%TO.N,GND*%
X384750000Y-86750000D03*
%TD*%
D12*
%TO.P,REF\u002A\u002A,1*%
%TO.N,GND*%
X384250000Y-191250000D03*
%TD*%
%TO.P,REF\u002A\u002A,1*%
%TO.N,GND*%
X384000000Y-170750000D03*
%TD*%
%TO.P,REF\u002A\u002A,1*%
%TO.N,GND*%
X361500000Y-191250000D03*
%TD*%
%TO.P,REF\u002A\u002A,1*%
%TO.N,GND*%
X361500000Y-170750000D03*
%TD*%
D13*
%TO.P,REF\u002A\u002A,1*%
%TO.N,N/C*%
X394500000Y-12500000D03*
X394500000Y-206500000D03*
%TD*%
%TO.P,REF\u002A\u002A,1*%
%TO.N,N/C*%
X351000000Y-206500000D03*
X351000000Y-12500000D03*
%TD*%
D14*
%TO.N,GND*%
X392164893Y-11251859D02*
X391966261Y-11731399D01*
X391865000Y-12240475D01*
X391865000Y-12759525D01*
X391966261Y-13268601D01*
X392164893Y-13748141D01*
X392453262Y-14179715D01*
X392820285Y-14546738D01*
X393251859Y-14835107D01*
X393731399Y-15033739D01*
X394240475Y-15135000D01*
X394759525Y-15135000D01*
X395268601Y-15033739D01*
X395748141Y-14835107D01*
X396179715Y-14546738D01*
X396546738Y-14179715D01*
X396623000Y-14065581D01*
X396623000Y-204934419D01*
X396546738Y-204820285D01*
X396179715Y-204453262D01*
X395748141Y-204164893D01*
X395268601Y-203966261D01*
X394759525Y-203865000D01*
X394240475Y-203865000D01*
X393731399Y-203966261D01*
X393251859Y-204164893D01*
X392820285Y-204453262D01*
X392453262Y-204820285D01*
X392164893Y-205251859D01*
X391966261Y-205731399D01*
X391865000Y-206240475D01*
X391865000Y-206759525D01*
X391966261Y-207268601D01*
X392164893Y-207748141D01*
X392453262Y-208179715D01*
X392646547Y-208373000D01*
X352853453Y-208373000D01*
X353046738Y-208179715D01*
X353335107Y-207748141D01*
X353533739Y-207268601D01*
X353635000Y-206759525D01*
X353635000Y-206240475D01*
X353533739Y-205731399D01*
X353335107Y-205251859D01*
X353046738Y-204820285D01*
X352679715Y-204453262D01*
X352248141Y-204164893D01*
X351768601Y-203966261D01*
X351259525Y-203865000D01*
X350740475Y-203865000D01*
X350231399Y-203966261D01*
X349751859Y-204164893D01*
X349320285Y-204453262D01*
X349127000Y-204646547D01*
X349127000Y-196651674D01*
X356277932Y-196651674D01*
X357093908Y-197530530D01*
X358403840Y-198269437D01*
X359832756Y-198738591D01*
X361325743Y-198919963D01*
X362825428Y-198806583D01*
X364274176Y-198402807D01*
X365616314Y-197724153D01*
X365906092Y-197530530D01*
X366722068Y-196651674D01*
X379027932Y-196651674D01*
X379843908Y-197530530D01*
X381153840Y-198269437D01*
X382582756Y-198738591D01*
X384075743Y-198919963D01*
X385575428Y-198806583D01*
X387024176Y-198402807D01*
X388366314Y-197724153D01*
X388656092Y-197530530D01*
X389472068Y-196651674D01*
X384250000Y-191429605D01*
X379027932Y-196651674D01*
X366722068Y-196651674D01*
X361500000Y-191429605D01*
X356277932Y-196651674D01*
X349127000Y-196651674D01*
X349127000Y-191075743D01*
X353830037Y-191075743D01*
X353943417Y-192575428D01*
X354347193Y-194024176D01*
X355025847Y-195366314D01*
X355219470Y-195656092D01*
X356098326Y-196472068D01*
X361320395Y-191250000D01*
X361679605Y-191250000D01*
X366901674Y-196472068D01*
X367780530Y-195656092D01*
X368519437Y-194346160D01*
X368988591Y-192917244D01*
X369169963Y-191424257D01*
X369143615Y-191075743D01*
X376580037Y-191075743D01*
X376693417Y-192575428D01*
X377097193Y-194024176D01*
X377775847Y-195366314D01*
X377969470Y-195656092D01*
X378848326Y-196472068D01*
X384070395Y-191250000D01*
X384429605Y-191250000D01*
X389651674Y-196472068D01*
X390530530Y-195656092D01*
X391269437Y-194346160D01*
X391738591Y-192917244D01*
X391919963Y-191424257D01*
X391806583Y-189924572D01*
X391402807Y-188475824D01*
X390724153Y-187133686D01*
X390530530Y-186843908D01*
X389651674Y-186027932D01*
X384429605Y-191250000D01*
X384070395Y-191250000D01*
X378848326Y-186027932D01*
X377969470Y-186843908D01*
X377230563Y-188153840D01*
X376761409Y-189582756D01*
X376580037Y-191075743D01*
X369143615Y-191075743D01*
X369056583Y-189924572D01*
X368652807Y-188475824D01*
X367974153Y-187133686D01*
X367780530Y-186843908D01*
X366901674Y-186027932D01*
X361679605Y-191250000D01*
X361320395Y-191250000D01*
X356098326Y-186027932D01*
X355219470Y-186843908D01*
X354480563Y-188153840D01*
X354011409Y-189582756D01*
X353830037Y-191075743D01*
X349127000Y-191075743D01*
X349127000Y-185848326D01*
X356277932Y-185848326D01*
X361500000Y-191070395D01*
X366722068Y-185848326D01*
X379027932Y-185848326D01*
X384250000Y-191070395D01*
X389472068Y-185848326D01*
X388656092Y-184969470D01*
X387346160Y-184230563D01*
X385917244Y-183761409D01*
X384424257Y-183580037D01*
X382924572Y-183693417D01*
X381475824Y-184097193D01*
X380133686Y-184775847D01*
X379843908Y-184969470D01*
X379027932Y-185848326D01*
X366722068Y-185848326D01*
X365906092Y-184969470D01*
X364596160Y-184230563D01*
X363167244Y-183761409D01*
X361674257Y-183580037D01*
X360174572Y-183693417D01*
X358725824Y-184097193D01*
X357383686Y-184775847D01*
X357093908Y-184969470D01*
X356277932Y-185848326D01*
X349127000Y-185848326D01*
X349127000Y-176151674D01*
X356277932Y-176151674D01*
X357093908Y-177030530D01*
X358403840Y-177769437D01*
X359832756Y-178238591D01*
X361325743Y-178419963D01*
X362825428Y-178306583D01*
X364274176Y-177902807D01*
X365616314Y-177224153D01*
X365906092Y-177030530D01*
X366722068Y-176151674D01*
X378777932Y-176151674D01*
X379593908Y-177030530D01*
X380903840Y-177769437D01*
X382332756Y-178238591D01*
X383825743Y-178419963D01*
X385325428Y-178306583D01*
X386774176Y-177902807D01*
X388116314Y-177224153D01*
X388406092Y-177030530D01*
X389222068Y-176151674D01*
X384000000Y-170929605D01*
X378777932Y-176151674D01*
X366722068Y-176151674D01*
X361500000Y-170929605D01*
X356277932Y-176151674D01*
X349127000Y-176151674D01*
X349127000Y-170575743D01*
X353830037Y-170575743D01*
X353943417Y-172075428D01*
X354347193Y-173524176D01*
X355025847Y-174866314D01*
X355219470Y-175156092D01*
X356098326Y-175972068D01*
X361320395Y-170750000D01*
X361679605Y-170750000D01*
X366901674Y-175972068D01*
X367780530Y-175156092D01*
X368519437Y-173846160D01*
X368988591Y-172417244D01*
X369169963Y-170924257D01*
X369143615Y-170575743D01*
X376330037Y-170575743D01*
X376443417Y-172075428D01*
X376847193Y-173524176D01*
X377525847Y-174866314D01*
X377719470Y-175156092D01*
X378598326Y-175972068D01*
X383820395Y-170750000D01*
X384179605Y-170750000D01*
X389401674Y-175972068D01*
X390280530Y-175156092D01*
X391019437Y-173846160D01*
X391488591Y-172417244D01*
X391669963Y-170924257D01*
X391556583Y-169424572D01*
X391152807Y-167975824D01*
X390474153Y-166633686D01*
X390280530Y-166343908D01*
X389401674Y-165527932D01*
X384179605Y-170750000D01*
X383820395Y-170750000D01*
X378598326Y-165527932D01*
X377719470Y-166343908D01*
X376980563Y-167653840D01*
X376511409Y-169082756D01*
X376330037Y-170575743D01*
X369143615Y-170575743D01*
X369056583Y-169424572D01*
X368652807Y-167975824D01*
X367974153Y-166633686D01*
X367780530Y-166343908D01*
X366901674Y-165527932D01*
X361679605Y-170750000D01*
X361320395Y-170750000D01*
X356098326Y-165527932D01*
X355219470Y-166343908D01*
X354480563Y-167653840D01*
X354011409Y-169082756D01*
X353830037Y-170575743D01*
X349127000Y-170575743D01*
X349127000Y-165348326D01*
X356277932Y-165348326D01*
X361500000Y-170570395D01*
X366722068Y-165348326D01*
X378777932Y-165348326D01*
X384000000Y-170570395D01*
X389222068Y-165348326D01*
X388406092Y-164469470D01*
X387096160Y-163730563D01*
X385667244Y-163261409D01*
X384174257Y-163080037D01*
X382674572Y-163193417D01*
X381225824Y-163597193D01*
X379883686Y-164275847D01*
X379593908Y-164469470D01*
X378777932Y-165348326D01*
X366722068Y-165348326D01*
X365906092Y-164469470D01*
X364596160Y-163730563D01*
X363167244Y-163261409D01*
X361674257Y-163080037D01*
X360174572Y-163193417D01*
X358725824Y-163597193D01*
X357383686Y-164275847D01*
X357093908Y-164469470D01*
X356277932Y-165348326D01*
X349127000Y-165348326D01*
X349127000Y-145064344D01*
X355615000Y-145064344D01*
X355615000Y-145435656D01*
X355687439Y-145799834D01*
X355829534Y-146142882D01*
X356035825Y-146451618D01*
X356298382Y-146714175D01*
X356607118Y-146920466D01*
X356950166Y-147062561D01*
X357314344Y-147135000D01*
X357685656Y-147135000D01*
X358049834Y-147062561D01*
X358392882Y-146920466D01*
X358701618Y-146714175D01*
X358964175Y-146451618D01*
X359170466Y-146142882D01*
X359312561Y-145799834D01*
X359385000Y-145435656D01*
X359385000Y-145064344D01*
X379365000Y-145064344D01*
X379365000Y-145435656D01*
X379437439Y-145799834D01*
X379579534Y-146142882D01*
X379785825Y-146451618D01*
X380048382Y-146714175D01*
X380357118Y-146920466D01*
X380700166Y-147062561D01*
X381064344Y-147135000D01*
X381435656Y-147135000D01*
X381799834Y-147062561D01*
X382142882Y-146920466D01*
X382451618Y-146714175D01*
X382714175Y-146451618D01*
X382920466Y-146142882D01*
X383062561Y-145799834D01*
X383135000Y-145435656D01*
X383135000Y-145064344D01*
X383062561Y-144700166D01*
X382920466Y-144357118D01*
X382714175Y-144048382D01*
X382451618Y-143785825D01*
X382142882Y-143579534D01*
X381799834Y-143437439D01*
X381435656Y-143365000D01*
X381064344Y-143365000D01*
X380700166Y-143437439D01*
X380357118Y-143579534D01*
X380048382Y-143785825D01*
X379785825Y-144048382D01*
X379579534Y-144357118D01*
X379437439Y-144700166D01*
X379365000Y-145064344D01*
X359385000Y-145064344D01*
X359312561Y-144700166D01*
X359170466Y-144357118D01*
X358964175Y-144048382D01*
X358701618Y-143785825D01*
X358392882Y-143579534D01*
X358049834Y-143437439D01*
X357685656Y-143365000D01*
X357314344Y-143365000D01*
X356950166Y-143437439D01*
X356607118Y-143579534D01*
X356298382Y-143785825D01*
X356035825Y-144048382D01*
X355829534Y-144357118D01*
X355687439Y-144700166D01*
X355615000Y-145064344D01*
X349127000Y-145064344D01*
X349127000Y-136624971D01*
X357554634Y-136624971D01*
X358070783Y-137247788D01*
X358955768Y-137737630D01*
X359919314Y-138045407D01*
X360924389Y-138159293D01*
X361932370Y-138074910D01*
X362904520Y-137795501D01*
X363803481Y-137331803D01*
X363929217Y-137247788D01*
X364445366Y-136624971D01*
X381304634Y-136624971D01*
X381820783Y-137247788D01*
X382705768Y-137737630D01*
X383669314Y-138045407D01*
X384674389Y-138159293D01*
X385682370Y-138074910D01*
X386654520Y-137795501D01*
X387553481Y-137331803D01*
X387679217Y-137247788D01*
X388195366Y-136624971D01*
X384750000Y-133179605D01*
X381304634Y-136624971D01*
X364445366Y-136624971D01*
X361000000Y-133179605D01*
X357554634Y-136624971D01*
X349127000Y-136624971D01*
X349127000Y-132924389D01*
X355840707Y-132924389D01*
X355925090Y-133932370D01*
X356204499Y-134904520D01*
X356668197Y-135803481D01*
X356752212Y-135929217D01*
X357375029Y-136445366D01*
X360820395Y-133000000D01*
X361179605Y-133000000D01*
X364624971Y-136445366D01*
X365247788Y-135929217D01*
X365737630Y-135044232D01*
X366045407Y-134080686D01*
X366159293Y-133075611D01*
X366146634Y-132924389D01*
X379590707Y-132924389D01*
X379675090Y-133932370D01*
X379954499Y-134904520D01*
X380418197Y-135803481D01*
X380502212Y-135929217D01*
X381125029Y-136445366D01*
X384570395Y-133000000D01*
X384929605Y-133000000D01*
X388374971Y-136445366D01*
X388997788Y-135929217D01*
X389487630Y-135044232D01*
X389795407Y-134080686D01*
X389909293Y-133075611D01*
X389824910Y-132067630D01*
X389545501Y-131095480D01*
X389081803Y-130196519D01*
X388997788Y-130070783D01*
X388374971Y-129554634D01*
X384929605Y-133000000D01*
X384570395Y-133000000D01*
X381125029Y-129554634D01*
X380502212Y-130070783D01*
X380012370Y-130955768D01*
X379704593Y-131919314D01*
X379590707Y-132924389D01*
X366146634Y-132924389D01*
X366074910Y-132067630D01*
X365795501Y-131095480D01*
X365331803Y-130196519D01*
X365247788Y-130070783D01*
X364624971Y-129554634D01*
X361179605Y-133000000D01*
X360820395Y-133000000D01*
X357375029Y-129554634D01*
X356752212Y-130070783D01*
X356262370Y-130955768D01*
X355954593Y-131919314D01*
X355840707Y-132924389D01*
X349127000Y-132924389D01*
X349127000Y-129375029D01*
X357554634Y-129375029D01*
X361000000Y-132820395D01*
X364445366Y-129375029D01*
X381304634Y-129375029D01*
X384750000Y-132820395D01*
X388195366Y-129375029D01*
X387679217Y-128752212D01*
X386794232Y-128262370D01*
X385830686Y-127954593D01*
X384825611Y-127840707D01*
X383817630Y-127925090D01*
X382845480Y-128204499D01*
X381946519Y-128668197D01*
X381820783Y-128752212D01*
X381304634Y-129375029D01*
X364445366Y-129375029D01*
X363929217Y-128752212D01*
X363044232Y-128262370D01*
X362080686Y-127954593D01*
X361075611Y-127840707D01*
X360067630Y-127925090D01*
X359095480Y-128204499D01*
X358196519Y-128668197D01*
X358070783Y-128752212D01*
X357554634Y-129375029D01*
X349127000Y-129375029D01*
X349127000Y-90124971D01*
X357554634Y-90124971D01*
X358070783Y-90747788D01*
X358955768Y-91237630D01*
X359919314Y-91545407D01*
X360924389Y-91659293D01*
X361932370Y-91574910D01*
X362904520Y-91295501D01*
X363803481Y-90831803D01*
X363929217Y-90747788D01*
X364445366Y-90124971D01*
X361000000Y-86679605D01*
X357554634Y-90124971D01*
X349127000Y-90124971D01*
X349127000Y-86424389D01*
X355840707Y-86424389D01*
X355925090Y-87432370D01*
X356204499Y-88404520D01*
X356668197Y-89303481D01*
X356752212Y-89429217D01*
X357375029Y-89945366D01*
X360820395Y-86500000D01*
X361179605Y-86500000D01*
X364624971Y-89945366D01*
X365247788Y-89429217D01*
X365412891Y-89130928D01*
X382548677Y-89130928D01*
X382854859Y-89574503D01*
X383442306Y-89889954D01*
X384080008Y-90084740D01*
X384743457Y-90151372D01*
X385407158Y-90087292D01*
X386045605Y-89894962D01*
X386634262Y-89581772D01*
X386645141Y-89574503D01*
X386951323Y-89130928D01*
X384750000Y-86929605D01*
X382548677Y-89130928D01*
X365412891Y-89130928D01*
X365737630Y-88544232D01*
X366045407Y-87580686D01*
X366140274Y-86743457D01*
X381348628Y-86743457D01*
X381412708Y-87407158D01*
X381605038Y-88045605D01*
X381918228Y-88634262D01*
X381925497Y-88645141D01*
X382369072Y-88951323D01*
X384570395Y-86750000D01*
X384929605Y-86750000D01*
X387130928Y-88951323D01*
X387574503Y-88645141D01*
X387889954Y-88057694D01*
X388084740Y-87419992D01*
X388151372Y-86756543D01*
X388087292Y-86092842D01*
X387894962Y-85454395D01*
X387581772Y-84865738D01*
X387574503Y-84854859D01*
X387130928Y-84548677D01*
X384929605Y-86750000D01*
X384570395Y-86750000D01*
X382369072Y-84548677D01*
X381925497Y-84854859D01*
X381610046Y-85442306D01*
X381415260Y-86080008D01*
X381348628Y-86743457D01*
X366140274Y-86743457D01*
X366159293Y-86575611D01*
X366074910Y-85567630D01*
X365795501Y-84595480D01*
X365678717Y-84369072D01*
X382548677Y-84369072D01*
X384750000Y-86570395D01*
X386951323Y-84369072D01*
X386645141Y-83925497D01*
X386057694Y-83610046D01*
X385419992Y-83415260D01*
X384756543Y-83348628D01*
X384092842Y-83412708D01*
X383454395Y-83605038D01*
X382865738Y-83918228D01*
X382854859Y-83925497D01*
X382548677Y-84369072D01*
X365678717Y-84369072D01*
X365331803Y-83696519D01*
X365247788Y-83570783D01*
X364624971Y-83054634D01*
X361179605Y-86500000D01*
X360820395Y-86500000D01*
X357375029Y-83054634D01*
X356752212Y-83570783D01*
X356262370Y-84455768D01*
X355954593Y-85419314D01*
X355840707Y-86424389D01*
X349127000Y-86424389D01*
X349127000Y-82875029D01*
X357554634Y-82875029D01*
X361000000Y-86320395D01*
X364445366Y-82875029D01*
X363929217Y-82252212D01*
X363044232Y-81762370D01*
X362080686Y-81454593D01*
X361075611Y-81340707D01*
X360067630Y-81425090D01*
X359095480Y-81704499D01*
X358196519Y-82168197D01*
X358070783Y-82252212D01*
X357554634Y-82875029D01*
X349127000Y-82875029D01*
X349127000Y-41874971D01*
X357554634Y-41874971D01*
X358070783Y-42497788D01*
X358955768Y-42987630D01*
X359919314Y-43295407D01*
X360924389Y-43409293D01*
X361932370Y-43324910D01*
X362904520Y-43045501D01*
X363803481Y-42581803D01*
X363929217Y-42497788D01*
X364445366Y-41874971D01*
X361000000Y-38429605D01*
X357554634Y-41874971D01*
X349127000Y-41874971D01*
X349127000Y-38174389D01*
X355840707Y-38174389D01*
X355925090Y-39182370D01*
X356204499Y-40154520D01*
X356668197Y-41053481D01*
X356752212Y-41179217D01*
X357375029Y-41695366D01*
X360820395Y-38250000D01*
X361179605Y-38250000D01*
X364624971Y-41695366D01*
X364709913Y-41624971D01*
X381304634Y-41624971D01*
X381820783Y-42247788D01*
X382705768Y-42737630D01*
X383669314Y-43045407D01*
X384674389Y-43159293D01*
X385682370Y-43074910D01*
X386654520Y-42795501D01*
X387553481Y-42331803D01*
X387679217Y-42247788D01*
X388195366Y-41624971D01*
X384750000Y-38179605D01*
X381304634Y-41624971D01*
X364709913Y-41624971D01*
X365247788Y-41179217D01*
X365737630Y-40294232D01*
X366045407Y-39330686D01*
X366159293Y-38325611D01*
X366125705Y-37924389D01*
X379590707Y-37924389D01*
X379675090Y-38932370D01*
X379954499Y-39904520D01*
X380418197Y-40803481D01*
X380502212Y-40929217D01*
X381125029Y-41445366D01*
X384570395Y-38000000D01*
X384929605Y-38000000D01*
X388374971Y-41445366D01*
X388997788Y-40929217D01*
X389487630Y-40044232D01*
X389795407Y-39080686D01*
X389909293Y-38075611D01*
X389824910Y-37067630D01*
X389545501Y-36095480D01*
X389081803Y-35196519D01*
X388997788Y-35070783D01*
X388374971Y-34554634D01*
X384929605Y-38000000D01*
X384570395Y-38000000D01*
X381125029Y-34554634D01*
X380502212Y-35070783D01*
X380012370Y-35955768D01*
X379704593Y-36919314D01*
X379590707Y-37924389D01*
X366125705Y-37924389D01*
X366074910Y-37317630D01*
X365795501Y-36345480D01*
X365331803Y-35446519D01*
X365247788Y-35320783D01*
X364624971Y-34804634D01*
X361179605Y-38250000D01*
X360820395Y-38250000D01*
X357375029Y-34804634D01*
X356752212Y-35320783D01*
X356262370Y-36205768D01*
X355954593Y-37169314D01*
X355840707Y-38174389D01*
X349127000Y-38174389D01*
X349127000Y-34625029D01*
X357554634Y-34625029D01*
X361000000Y-38070395D01*
X364445366Y-34625029D01*
X364238183Y-34375029D01*
X381304634Y-34375029D01*
X384750000Y-37820395D01*
X388195366Y-34375029D01*
X387679217Y-33752212D01*
X386794232Y-33262370D01*
X385830686Y-32954593D01*
X384825611Y-32840707D01*
X383817630Y-32925090D01*
X382845480Y-33204499D01*
X381946519Y-33668197D01*
X381820783Y-33752212D01*
X381304634Y-34375029D01*
X364238183Y-34375029D01*
X363929217Y-34002212D01*
X363044232Y-33512370D01*
X362080686Y-33204593D01*
X361075611Y-33090707D01*
X360067630Y-33175090D01*
X359095480Y-33454499D01*
X358196519Y-33918197D01*
X358070783Y-34002212D01*
X357554634Y-34625029D01*
X349127000Y-34625029D01*
X349127000Y-14353453D01*
X349320285Y-14546738D01*
X349751859Y-14835107D01*
X350231399Y-15033739D01*
X350740475Y-15135000D01*
X351259525Y-15135000D01*
X351768601Y-15033739D01*
X352248141Y-14835107D01*
X352679715Y-14546738D01*
X353046738Y-14179715D01*
X353335107Y-13748141D01*
X353533739Y-13268601D01*
X353635000Y-12759525D01*
X353635000Y-12240475D01*
X353533739Y-11731399D01*
X353335107Y-11251859D01*
X353084634Y-10877000D01*
X392415366Y-10877000D01*
X392164893Y-11251859D01*
%TA.AperFunction,Conductor*%
D15*
G36*
X392164893Y-11251859D02*
G01*
X391966261Y-11731399D01*
X391865000Y-12240475D01*
X391865000Y-12759525D01*
X391966261Y-13268601D01*
X392164893Y-13748141D01*
X392453262Y-14179715D01*
X392820285Y-14546738D01*
X393251859Y-14835107D01*
X393731399Y-15033739D01*
X394240475Y-15135000D01*
X394759525Y-15135000D01*
X395268601Y-15033739D01*
X395748141Y-14835107D01*
X396179715Y-14546738D01*
X396546738Y-14179715D01*
X396623000Y-14065581D01*
X396623000Y-204934419D01*
X396546738Y-204820285D01*
X396179715Y-204453262D01*
X395748141Y-204164893D01*
X395268601Y-203966261D01*
X394759525Y-203865000D01*
X394240475Y-203865000D01*
X393731399Y-203966261D01*
X393251859Y-204164893D01*
X392820285Y-204453262D01*
X392453262Y-204820285D01*
X392164893Y-205251859D01*
X391966261Y-205731399D01*
X391865000Y-206240475D01*
X391865000Y-206759525D01*
X391966261Y-207268601D01*
X392164893Y-207748141D01*
X392453262Y-208179715D01*
X392646547Y-208373000D01*
X352853453Y-208373000D01*
X353046738Y-208179715D01*
X353335107Y-207748141D01*
X353533739Y-207268601D01*
X353635000Y-206759525D01*
X353635000Y-206240475D01*
X353533739Y-205731399D01*
X353335107Y-205251859D01*
X353046738Y-204820285D01*
X352679715Y-204453262D01*
X352248141Y-204164893D01*
X351768601Y-203966261D01*
X351259525Y-203865000D01*
X350740475Y-203865000D01*
X350231399Y-203966261D01*
X349751859Y-204164893D01*
X349320285Y-204453262D01*
X349127000Y-204646547D01*
X349127000Y-196651674D01*
X356277932Y-196651674D01*
X357093908Y-197530530D01*
X358403840Y-198269437D01*
X359832756Y-198738591D01*
X361325743Y-198919963D01*
X362825428Y-198806583D01*
X364274176Y-198402807D01*
X365616314Y-197724153D01*
X365906092Y-197530530D01*
X366722068Y-196651674D01*
X379027932Y-196651674D01*
X379843908Y-197530530D01*
X381153840Y-198269437D01*
X382582756Y-198738591D01*
X384075743Y-198919963D01*
X385575428Y-198806583D01*
X387024176Y-198402807D01*
X388366314Y-197724153D01*
X388656092Y-197530530D01*
X389472068Y-196651674D01*
X384250000Y-191429605D01*
X379027932Y-196651674D01*
X366722068Y-196651674D01*
X361500000Y-191429605D01*
X356277932Y-196651674D01*
X349127000Y-196651674D01*
X349127000Y-191075743D01*
X353830037Y-191075743D01*
X353943417Y-192575428D01*
X354347193Y-194024176D01*
X355025847Y-195366314D01*
X355219470Y-195656092D01*
X356098326Y-196472068D01*
X361320395Y-191250000D01*
X361679605Y-191250000D01*
X366901674Y-196472068D01*
X367780530Y-195656092D01*
X368519437Y-194346160D01*
X368988591Y-192917244D01*
X369169963Y-191424257D01*
X369143615Y-191075743D01*
X376580037Y-191075743D01*
X376693417Y-192575428D01*
X377097193Y-194024176D01*
X377775847Y-195366314D01*
X377969470Y-195656092D01*
X378848326Y-196472068D01*
X384070395Y-191250000D01*
X384429605Y-191250000D01*
X389651674Y-196472068D01*
X390530530Y-195656092D01*
X391269437Y-194346160D01*
X391738591Y-192917244D01*
X391919963Y-191424257D01*
X391806583Y-189924572D01*
X391402807Y-188475824D01*
X390724153Y-187133686D01*
X390530530Y-186843908D01*
X389651674Y-186027932D01*
X384429605Y-191250000D01*
X384070395Y-191250000D01*
X378848326Y-186027932D01*
X377969470Y-186843908D01*
X377230563Y-188153840D01*
X376761409Y-189582756D01*
X376580037Y-191075743D01*
X369143615Y-191075743D01*
X369056583Y-189924572D01*
X368652807Y-188475824D01*
X367974153Y-187133686D01*
X367780530Y-186843908D01*
X366901674Y-186027932D01*
X361679605Y-191250000D01*
X361320395Y-191250000D01*
X356098326Y-186027932D01*
X355219470Y-186843908D01*
X354480563Y-188153840D01*
X354011409Y-189582756D01*
X353830037Y-191075743D01*
X349127000Y-191075743D01*
X349127000Y-185848326D01*
X356277932Y-185848326D01*
X361500000Y-191070395D01*
X366722068Y-185848326D01*
X379027932Y-185848326D01*
X384250000Y-191070395D01*
X389472068Y-185848326D01*
X388656092Y-184969470D01*
X387346160Y-184230563D01*
X385917244Y-183761409D01*
X384424257Y-183580037D01*
X382924572Y-183693417D01*
X381475824Y-184097193D01*
X380133686Y-184775847D01*
X379843908Y-184969470D01*
X379027932Y-185848326D01*
X366722068Y-185848326D01*
X365906092Y-184969470D01*
X364596160Y-184230563D01*
X363167244Y-183761409D01*
X361674257Y-183580037D01*
X360174572Y-183693417D01*
X358725824Y-184097193D01*
X357383686Y-184775847D01*
X357093908Y-184969470D01*
X356277932Y-185848326D01*
X349127000Y-185848326D01*
X349127000Y-176151674D01*
X356277932Y-176151674D01*
X357093908Y-177030530D01*
X358403840Y-177769437D01*
X359832756Y-178238591D01*
X361325743Y-178419963D01*
X362825428Y-178306583D01*
X364274176Y-177902807D01*
X365616314Y-177224153D01*
X365906092Y-177030530D01*
X366722068Y-176151674D01*
X378777932Y-176151674D01*
X379593908Y-177030530D01*
X380903840Y-177769437D01*
X382332756Y-178238591D01*
X383825743Y-178419963D01*
X385325428Y-178306583D01*
X386774176Y-177902807D01*
X388116314Y-177224153D01*
X388406092Y-177030530D01*
X389222068Y-176151674D01*
X384000000Y-170929605D01*
X378777932Y-176151674D01*
X366722068Y-176151674D01*
X361500000Y-170929605D01*
X356277932Y-176151674D01*
X349127000Y-176151674D01*
X349127000Y-170575743D01*
X353830037Y-170575743D01*
X353943417Y-172075428D01*
X354347193Y-173524176D01*
X355025847Y-174866314D01*
X355219470Y-175156092D01*
X356098326Y-175972068D01*
X361320395Y-170750000D01*
X361679605Y-170750000D01*
X366901674Y-175972068D01*
X367780530Y-175156092D01*
X368519437Y-173846160D01*
X368988591Y-172417244D01*
X369169963Y-170924257D01*
X369143615Y-170575743D01*
X376330037Y-170575743D01*
X376443417Y-172075428D01*
X376847193Y-173524176D01*
X377525847Y-174866314D01*
X377719470Y-175156092D01*
X378598326Y-175972068D01*
X383820395Y-170750000D01*
X384179605Y-170750000D01*
X389401674Y-175972068D01*
X390280530Y-175156092D01*
X391019437Y-173846160D01*
X391488591Y-172417244D01*
X391669963Y-170924257D01*
X391556583Y-169424572D01*
X391152807Y-167975824D01*
X390474153Y-166633686D01*
X390280530Y-166343908D01*
X389401674Y-165527932D01*
X384179605Y-170750000D01*
X383820395Y-170750000D01*
X378598326Y-165527932D01*
X377719470Y-166343908D01*
X376980563Y-167653840D01*
X376511409Y-169082756D01*
X376330037Y-170575743D01*
X369143615Y-170575743D01*
X369056583Y-169424572D01*
X368652807Y-167975824D01*
X367974153Y-166633686D01*
X367780530Y-166343908D01*
X366901674Y-165527932D01*
X361679605Y-170750000D01*
X361320395Y-170750000D01*
X356098326Y-165527932D01*
X355219470Y-166343908D01*
X354480563Y-167653840D01*
X354011409Y-169082756D01*
X353830037Y-170575743D01*
X349127000Y-170575743D01*
X349127000Y-165348326D01*
X356277932Y-165348326D01*
X361500000Y-170570395D01*
X366722068Y-165348326D01*
X378777932Y-165348326D01*
X384000000Y-170570395D01*
X389222068Y-165348326D01*
X388406092Y-164469470D01*
X387096160Y-163730563D01*
X385667244Y-163261409D01*
X384174257Y-163080037D01*
X382674572Y-163193417D01*
X381225824Y-163597193D01*
X379883686Y-164275847D01*
X379593908Y-164469470D01*
X378777932Y-165348326D01*
X366722068Y-165348326D01*
X365906092Y-164469470D01*
X364596160Y-163730563D01*
X363167244Y-163261409D01*
X361674257Y-163080037D01*
X360174572Y-163193417D01*
X358725824Y-163597193D01*
X357383686Y-164275847D01*
X357093908Y-164469470D01*
X356277932Y-165348326D01*
X349127000Y-165348326D01*
X349127000Y-145064344D01*
X355615000Y-145064344D01*
X355615000Y-145435656D01*
X355687439Y-145799834D01*
X355829534Y-146142882D01*
X356035825Y-146451618D01*
X356298382Y-146714175D01*
X356607118Y-146920466D01*
X356950166Y-147062561D01*
X357314344Y-147135000D01*
X357685656Y-147135000D01*
X358049834Y-147062561D01*
X358392882Y-146920466D01*
X358701618Y-146714175D01*
X358964175Y-146451618D01*
X359170466Y-146142882D01*
X359312561Y-145799834D01*
X359385000Y-145435656D01*
X359385000Y-145064344D01*
X379365000Y-145064344D01*
X379365000Y-145435656D01*
X379437439Y-145799834D01*
X379579534Y-146142882D01*
X379785825Y-146451618D01*
X380048382Y-146714175D01*
X380357118Y-146920466D01*
X380700166Y-147062561D01*
X381064344Y-147135000D01*
X381435656Y-147135000D01*
X381799834Y-147062561D01*
X382142882Y-146920466D01*
X382451618Y-146714175D01*
X382714175Y-146451618D01*
X382920466Y-146142882D01*
X383062561Y-145799834D01*
X383135000Y-145435656D01*
X383135000Y-145064344D01*
X383062561Y-144700166D01*
X382920466Y-144357118D01*
X382714175Y-144048382D01*
X382451618Y-143785825D01*
X382142882Y-143579534D01*
X381799834Y-143437439D01*
X381435656Y-143365000D01*
X381064344Y-143365000D01*
X380700166Y-143437439D01*
X380357118Y-143579534D01*
X380048382Y-143785825D01*
X379785825Y-144048382D01*
X379579534Y-144357118D01*
X379437439Y-144700166D01*
X379365000Y-145064344D01*
X359385000Y-145064344D01*
X359312561Y-144700166D01*
X359170466Y-144357118D01*
X358964175Y-144048382D01*
X358701618Y-143785825D01*
X358392882Y-143579534D01*
X358049834Y-143437439D01*
X357685656Y-143365000D01*
X357314344Y-143365000D01*
X356950166Y-143437439D01*
X356607118Y-143579534D01*
X356298382Y-143785825D01*
X356035825Y-144048382D01*
X355829534Y-144357118D01*
X355687439Y-144700166D01*
X355615000Y-145064344D01*
X349127000Y-145064344D01*
X349127000Y-136624971D01*
X357554634Y-136624971D01*
X358070783Y-137247788D01*
X358955768Y-137737630D01*
X359919314Y-138045407D01*
X360924389Y-138159293D01*
X361932370Y-138074910D01*
X362904520Y-137795501D01*
X363803481Y-137331803D01*
X363929217Y-137247788D01*
X364445366Y-136624971D01*
X381304634Y-136624971D01*
X381820783Y-137247788D01*
X382705768Y-137737630D01*
X383669314Y-138045407D01*
X384674389Y-138159293D01*
X385682370Y-138074910D01*
X386654520Y-137795501D01*
X387553481Y-137331803D01*
X387679217Y-137247788D01*
X388195366Y-136624971D01*
X384750000Y-133179605D01*
X381304634Y-136624971D01*
X364445366Y-136624971D01*
X361000000Y-133179605D01*
X357554634Y-136624971D01*
X349127000Y-136624971D01*
X349127000Y-132924389D01*
X355840707Y-132924389D01*
X355925090Y-133932370D01*
X356204499Y-134904520D01*
X356668197Y-135803481D01*
X356752212Y-135929217D01*
X357375029Y-136445366D01*
X360820395Y-133000000D01*
X361179605Y-133000000D01*
X364624971Y-136445366D01*
X365247788Y-135929217D01*
X365737630Y-135044232D01*
X366045407Y-134080686D01*
X366159293Y-133075611D01*
X366146634Y-132924389D01*
X379590707Y-132924389D01*
X379675090Y-133932370D01*
X379954499Y-134904520D01*
X380418197Y-135803481D01*
X380502212Y-135929217D01*
X381125029Y-136445366D01*
X384570395Y-133000000D01*
X384929605Y-133000000D01*
X388374971Y-136445366D01*
X388997788Y-135929217D01*
X389487630Y-135044232D01*
X389795407Y-134080686D01*
X389909293Y-133075611D01*
X389824910Y-132067630D01*
X389545501Y-131095480D01*
X389081803Y-130196519D01*
X388997788Y-130070783D01*
X388374971Y-129554634D01*
X384929605Y-133000000D01*
X384570395Y-133000000D01*
X381125029Y-129554634D01*
X380502212Y-130070783D01*
X380012370Y-130955768D01*
X379704593Y-131919314D01*
X379590707Y-132924389D01*
X366146634Y-132924389D01*
X366074910Y-132067630D01*
X365795501Y-131095480D01*
X365331803Y-130196519D01*
X365247788Y-130070783D01*
X364624971Y-129554634D01*
X361179605Y-133000000D01*
X360820395Y-133000000D01*
X357375029Y-129554634D01*
X356752212Y-130070783D01*
X356262370Y-130955768D01*
X355954593Y-131919314D01*
X355840707Y-132924389D01*
X349127000Y-132924389D01*
X349127000Y-129375029D01*
X357554634Y-129375029D01*
X361000000Y-132820395D01*
X364445366Y-129375029D01*
X381304634Y-129375029D01*
X384750000Y-132820395D01*
X388195366Y-129375029D01*
X387679217Y-128752212D01*
X386794232Y-128262370D01*
X385830686Y-127954593D01*
X384825611Y-127840707D01*
X383817630Y-127925090D01*
X382845480Y-128204499D01*
X381946519Y-128668197D01*
X381820783Y-128752212D01*
X381304634Y-129375029D01*
X364445366Y-129375029D01*
X363929217Y-128752212D01*
X363044232Y-128262370D01*
X362080686Y-127954593D01*
X361075611Y-127840707D01*
X360067630Y-127925090D01*
X359095480Y-128204499D01*
X358196519Y-128668197D01*
X358070783Y-128752212D01*
X357554634Y-129375029D01*
X349127000Y-129375029D01*
X349127000Y-90124971D01*
X357554634Y-90124971D01*
X358070783Y-90747788D01*
X358955768Y-91237630D01*
X359919314Y-91545407D01*
X360924389Y-91659293D01*
X361932370Y-91574910D01*
X362904520Y-91295501D01*
X363803481Y-90831803D01*
X363929217Y-90747788D01*
X364445366Y-90124971D01*
X361000000Y-86679605D01*
X357554634Y-90124971D01*
X349127000Y-90124971D01*
X349127000Y-86424389D01*
X355840707Y-86424389D01*
X355925090Y-87432370D01*
X356204499Y-88404520D01*
X356668197Y-89303481D01*
X356752212Y-89429217D01*
X357375029Y-89945366D01*
X360820395Y-86500000D01*
X361179605Y-86500000D01*
X364624971Y-89945366D01*
X365247788Y-89429217D01*
X365412891Y-89130928D01*
X382548677Y-89130928D01*
X382854859Y-89574503D01*
X383442306Y-89889954D01*
X384080008Y-90084740D01*
X384743457Y-90151372D01*
X385407158Y-90087292D01*
X386045605Y-89894962D01*
X386634262Y-89581772D01*
X386645141Y-89574503D01*
X386951323Y-89130928D01*
X384750000Y-86929605D01*
X382548677Y-89130928D01*
X365412891Y-89130928D01*
X365737630Y-88544232D01*
X366045407Y-87580686D01*
X366140274Y-86743457D01*
X381348628Y-86743457D01*
X381412708Y-87407158D01*
X381605038Y-88045605D01*
X381918228Y-88634262D01*
X381925497Y-88645141D01*
X382369072Y-88951323D01*
X384570395Y-86750000D01*
X384929605Y-86750000D01*
X387130928Y-88951323D01*
X387574503Y-88645141D01*
X387889954Y-88057694D01*
X388084740Y-87419992D01*
X388151372Y-86756543D01*
X388087292Y-86092842D01*
X387894962Y-85454395D01*
X387581772Y-84865738D01*
X387574503Y-84854859D01*
X387130928Y-84548677D01*
X384929605Y-86750000D01*
X384570395Y-86750000D01*
X382369072Y-84548677D01*
X381925497Y-84854859D01*
X381610046Y-85442306D01*
X381415260Y-86080008D01*
X381348628Y-86743457D01*
X366140274Y-86743457D01*
X366159293Y-86575611D01*
X366074910Y-85567630D01*
X365795501Y-84595480D01*
X365678717Y-84369072D01*
X382548677Y-84369072D01*
X384750000Y-86570395D01*
X386951323Y-84369072D01*
X386645141Y-83925497D01*
X386057694Y-83610046D01*
X385419992Y-83415260D01*
X384756543Y-83348628D01*
X384092842Y-83412708D01*
X383454395Y-83605038D01*
X382865738Y-83918228D01*
X382854859Y-83925497D01*
X382548677Y-84369072D01*
X365678717Y-84369072D01*
X365331803Y-83696519D01*
X365247788Y-83570783D01*
X364624971Y-83054634D01*
X361179605Y-86500000D01*
X360820395Y-86500000D01*
X357375029Y-83054634D01*
X356752212Y-83570783D01*
X356262370Y-84455768D01*
X355954593Y-85419314D01*
X355840707Y-86424389D01*
X349127000Y-86424389D01*
X349127000Y-82875029D01*
X357554634Y-82875029D01*
X361000000Y-86320395D01*
X364445366Y-82875029D01*
X363929217Y-82252212D01*
X363044232Y-81762370D01*
X362080686Y-81454593D01*
X361075611Y-81340707D01*
X360067630Y-81425090D01*
X359095480Y-81704499D01*
X358196519Y-82168197D01*
X358070783Y-82252212D01*
X357554634Y-82875029D01*
X349127000Y-82875029D01*
X349127000Y-41874971D01*
X357554634Y-41874971D01*
X358070783Y-42497788D01*
X358955768Y-42987630D01*
X359919314Y-43295407D01*
X360924389Y-43409293D01*
X361932370Y-43324910D01*
X362904520Y-43045501D01*
X363803481Y-42581803D01*
X363929217Y-42497788D01*
X364445366Y-41874971D01*
X361000000Y-38429605D01*
X357554634Y-41874971D01*
X349127000Y-41874971D01*
X349127000Y-38174389D01*
X355840707Y-38174389D01*
X355925090Y-39182370D01*
X356204499Y-40154520D01*
X356668197Y-41053481D01*
X356752212Y-41179217D01*
X357375029Y-41695366D01*
X360820395Y-38250000D01*
X361179605Y-38250000D01*
X364624971Y-41695366D01*
X364709913Y-41624971D01*
X381304634Y-41624971D01*
X381820783Y-42247788D01*
X382705768Y-42737630D01*
X383669314Y-43045407D01*
X384674389Y-43159293D01*
X385682370Y-43074910D01*
X386654520Y-42795501D01*
X387553481Y-42331803D01*
X387679217Y-42247788D01*
X388195366Y-41624971D01*
X384750000Y-38179605D01*
X381304634Y-41624971D01*
X364709913Y-41624971D01*
X365247788Y-41179217D01*
X365737630Y-40294232D01*
X366045407Y-39330686D01*
X366159293Y-38325611D01*
X366125705Y-37924389D01*
X379590707Y-37924389D01*
X379675090Y-38932370D01*
X379954499Y-39904520D01*
X380418197Y-40803481D01*
X380502212Y-40929217D01*
X381125029Y-41445366D01*
X384570395Y-38000000D01*
X384929605Y-38000000D01*
X388374971Y-41445366D01*
X388997788Y-40929217D01*
X389487630Y-40044232D01*
X389795407Y-39080686D01*
X389909293Y-38075611D01*
X389824910Y-37067630D01*
X389545501Y-36095480D01*
X389081803Y-35196519D01*
X388997788Y-35070783D01*
X388374971Y-34554634D01*
X384929605Y-38000000D01*
X384570395Y-38000000D01*
X381125029Y-34554634D01*
X380502212Y-35070783D01*
X380012370Y-35955768D01*
X379704593Y-36919314D01*
X379590707Y-37924389D01*
X366125705Y-37924389D01*
X366074910Y-37317630D01*
X365795501Y-36345480D01*
X365331803Y-35446519D01*
X365247788Y-35320783D01*
X364624971Y-34804634D01*
X361179605Y-38250000D01*
X360820395Y-38250000D01*
X357375029Y-34804634D01*
X356752212Y-35320783D01*
X356262370Y-36205768D01*
X355954593Y-37169314D01*
X355840707Y-38174389D01*
X349127000Y-38174389D01*
X349127000Y-34625029D01*
X357554634Y-34625029D01*
X361000000Y-38070395D01*
X364445366Y-34625029D01*
X364238183Y-34375029D01*
X381304634Y-34375029D01*
X384750000Y-37820395D01*
X388195366Y-34375029D01*
X387679217Y-33752212D01*
X386794232Y-33262370D01*
X385830686Y-32954593D01*
X384825611Y-32840707D01*
X383817630Y-32925090D01*
X382845480Y-33204499D01*
X381946519Y-33668197D01*
X381820783Y-33752212D01*
X381304634Y-34375029D01*
X364238183Y-34375029D01*
X363929217Y-34002212D01*
X363044232Y-33512370D01*
X362080686Y-33204593D01*
X361075611Y-33090707D01*
X360067630Y-33175090D01*
X359095480Y-33454499D01*
X358196519Y-33918197D01*
X358070783Y-34002212D01*
X357554634Y-34625029D01*
X349127000Y-34625029D01*
X349127000Y-14353453D01*
X349320285Y-14546738D01*
X349751859Y-14835107D01*
X350231399Y-15033739D01*
X350740475Y-15135000D01*
X351259525Y-15135000D01*
X351768601Y-15033739D01*
X352248141Y-14835107D01*
X352679715Y-14546738D01*
X353046738Y-14179715D01*
X353335107Y-13748141D01*
X353533739Y-13268601D01*
X353635000Y-12759525D01*
X353635000Y-12240475D01*
X353533739Y-11731399D01*
X353335107Y-11251859D01*
X353084634Y-10877000D01*
X392415366Y-10877000D01*
X392164893Y-11251859D01*
G37*
%TD.AperFunction*%
%TD*%
M02*
