M48
; DRILL file {KiCad (5.1.12-1-10_14)} date 2023 August 06, Sunday 16:49:52
; FORMAT={-:-/ absolute / inch / decimal}
; #@! TF.CreationDate,2023-08-06T16:49:52+02:00
; #@! TF.GenerationSoftware,Kicad,Pcbnew,(5.1.12-1-10_14)
; #@! TF.FileFunction,Plated,1,2,PTH
FMAT,2
INCH
T1C0.0157
T2C0.0315
T3C0.0354
T4C0.0394
T5C0.0400
T6C0.0472
T7C0.0709
T8C0.0827
%
G90
G05
T1
X12.0472Y-5.0098
X12.0866Y-5.1181
X12.4508Y-5.0591
T2
X11.5453Y-3.2728
X11.5453Y-3.5728
X11.5453Y-3.7535
X11.5453Y-4.1535
X11.5551Y-4.3047
X11.5551Y-4.7047
X11.5551Y-4.7933
X11.5551Y-5.1933
X11.5551Y-5.2854
X11.5551Y-5.6854
X11.7224Y-3.9209
X11.7224Y-4.3209
X11.752Y-2.0571
X11.752Y-2.3571
X11.811Y-5.6791
X11.8996Y-3.9272
X11.8996Y-4.3272
X11.8996Y-4.4228
X11.8996Y-4.8228
X11.911Y-5.6791
X12.0079Y-2.5197
X12.011Y-5.6791
X12.0669Y-4.252
X12.0669Y-4.3504
X12.0768Y-4.813
X12.0768Y-4.9114
X12.1063Y-2.5197
X12.1161Y-2.9823
X12.1161Y-3.0807
X12.185Y-5.6594
X12.2343Y-3.9665
X12.2343Y-4.0665
X12.2343Y-4.1665
X12.2343Y-4.2665
X12.2343Y-4.3665
X12.2343Y-4.4665
X12.2343Y-4.5665
X12.2343Y-4.7638
X12.2343Y-4.8638
X12.2343Y-4.9638
X12.2343Y-5.0638
X12.2343Y-5.1638
X12.2343Y-5.2638
X12.2343Y-5.3638
X12.2343Y-5.4638
X12.2736Y-2.9429
X12.2933Y-3.1102
X12.2933Y-3.2102
X12.2933Y-3.3102
X12.2933Y-3.4102
X12.2933Y-3.5102
X12.2933Y-3.6102
X12.2933Y-3.7102
X12.372Y-2.9429
X12.5197Y-2.9429
X12.5343Y-3.9665
X12.5343Y-4.0665
X12.5343Y-4.1665
X12.5343Y-4.2665
X12.5343Y-4.3665
X12.5343Y-4.4665
X12.5343Y-4.5665
X12.5343Y-4.7638
X12.5343Y-4.8638
X12.5343Y-4.9638
X12.5343Y-5.0638
X12.5343Y-5.1638
X12.5343Y-5.2638
X12.5343Y-5.3638
X12.5343Y-5.4638
X12.585Y-5.6594
X12.5933Y-3.1102
X12.5933Y-3.2102
X12.5933Y-3.3102
X12.5933Y-3.4102
X12.5933Y-3.5102
X12.5933Y-3.6102
X12.5933Y-3.7102
X12.6083Y-2.5197
X12.6181Y-2.9429
X12.6969Y-4.0256
X12.6969Y-4.124
X12.7067Y-2.5197
X12.7067Y-4.7736
X12.7067Y-4.872
X12.7461Y-5.6791
X12.7657Y-3.061
X12.7657Y-3.1594
X12.8461Y-5.6791
X12.9035Y-2.0276
X12.9035Y-2.3276
X12.9134Y-4.4193
X12.9134Y-4.8193
X12.9429Y-3.8339
X12.9429Y-4.1339
X12.9461Y-5.6791
X13.1004Y-4.2618
X13.1004Y-4.3618
X13.1004Y-4.4618
X13.1594Y-2.687
X13.1594Y-3.087
X13.1594Y-3.1988
X13.1594Y-3.5988
X13.1693Y-3.7142
X13.1693Y-4.1142
X13.1693Y-4.5866
X13.1693Y-4.9866
X13.1693Y-5.1181
X13.1693Y-5.5181
X13.2283Y-2.0866
X13.2283Y-2.4866
T3
X12.7937Y-3.4252
X12.8937Y-3.4252
T4
X11.811Y-1.811
X11.811Y-3.7205
X11.9094Y-1.811
X11.9094Y-3.7205
X12.0079Y-1.811
X12.0079Y-3.7205
X12.7461Y-1.811
X12.8445Y-1.811
X12.9429Y-1.811
T5
X12.1654Y-2.1244
X12.1654Y-2.2244
X12.2654Y-2.1244
X12.2654Y-2.2244
X12.3654Y-2.1244
X12.3654Y-2.2244
X12.4654Y-2.1244
X12.4654Y-2.2244
X12.5654Y-2.1244
X12.5654Y-2.2244
T6
X11.6126Y-6.0728
X11.7126Y-6.0728
X12.026Y-6.0728
X12.126Y-6.0728
X12.6559Y-6.0728
X12.7559Y-6.0728
X13.0201Y-6.063
X13.1201Y-6.063
T7
X11.7205Y-1.5157
X11.7205Y-3.4252
X12.0984Y-1.5157
X12.0984Y-3.4252
X12.6555Y-1.5157
X13.0335Y-1.5157
T8
X11.9094Y-5.0512
X11.9094Y-5.2362
X11.9094Y-5.4213
X12.8445Y-5.0512
X12.8445Y-5.2362
X12.8445Y-5.4213
T0
M30
