%TF.GenerationSoftware,KiCad,Pcbnew,(5.1.12-1-10_14)*%
%TF.CreationDate,2023-08-05T21:53:33+02:00*%
%TF.ProjectId,niga,6e696761-2e6b-4696-9361-645f70636258,rev?*%
%TF.SameCoordinates,Original*%
%TF.FileFunction,Legend,Top*%
%TF.FilePolarity,Positive*%
%FSLAX46Y46*%
G04 Gerber Fmt 4.6, Leading zero omitted, Abs format (unit mm)*
G04 Created by KiCad (PCBNEW (5.1.12-1-10_14)) date 2023-08-05 21:53:33*
%MOMM*%
%LPD*%
G01*
G04 APERTURE LIST*
%ADD10C,0.200000*%
%ADD11C,0.010000*%
%ADD12C,0.120000*%
%ADD13C,0.150000*%
G04 APERTURE END LIST*
D10*
X201857142Y-117361904D02*
X201857142Y-116561904D01*
X202161904Y-116561904D01*
X202238095Y-116600000D01*
X202276190Y-116638095D01*
X202314285Y-116714285D01*
X202314285Y-116828571D01*
X202276190Y-116904761D01*
X202238095Y-116942857D01*
X202161904Y-116980952D01*
X201857142Y-116980952D01*
X203114285Y-117285714D02*
X203076190Y-117323809D01*
X202961904Y-117361904D01*
X202885714Y-117361904D01*
X202771428Y-117323809D01*
X202695238Y-117247619D01*
X202657142Y-117171428D01*
X202619047Y-117019047D01*
X202619047Y-116904761D01*
X202657142Y-116752380D01*
X202695238Y-116676190D01*
X202771428Y-116600000D01*
X202885714Y-116561904D01*
X202961904Y-116561904D01*
X203076190Y-116600000D01*
X203114285Y-116638095D01*
X203723809Y-116942857D02*
X203838095Y-116980952D01*
X203876190Y-117019047D01*
X203914285Y-117095238D01*
X203914285Y-117209523D01*
X203876190Y-117285714D01*
X203838095Y-117323809D01*
X203761904Y-117361904D01*
X203457142Y-117361904D01*
X203457142Y-116561904D01*
X203723809Y-116561904D01*
X203800000Y-116600000D01*
X203838095Y-116638095D01*
X203876190Y-116714285D01*
X203876190Y-116790476D01*
X203838095Y-116866666D01*
X203800000Y-116904761D01*
X203723809Y-116942857D01*
X203457142Y-116942857D01*
X204790476Y-116828571D02*
X204980952Y-117361904D01*
X205171428Y-116828571D01*
X205628571Y-116561904D02*
X205704761Y-116561904D01*
X205780952Y-116600000D01*
X205819047Y-116638095D01*
X205857142Y-116714285D01*
X205895238Y-116866666D01*
X205895238Y-117057142D01*
X205857142Y-117209523D01*
X205819047Y-117285714D01*
X205780952Y-117323809D01*
X205704761Y-117361904D01*
X205628571Y-117361904D01*
X205552380Y-117323809D01*
X205514285Y-117285714D01*
X205476190Y-117209523D01*
X205438095Y-117057142D01*
X205438095Y-116866666D01*
X205476190Y-116714285D01*
X205514285Y-116638095D01*
X205552380Y-116600000D01*
X205628571Y-116561904D01*
X206238095Y-117285714D02*
X206276190Y-117323809D01*
X206238095Y-117361904D01*
X206200000Y-117323809D01*
X206238095Y-117285714D01*
X206238095Y-117361904D01*
X207038095Y-117361904D02*
X206580952Y-117361904D01*
X206809523Y-117361904D02*
X206809523Y-116561904D01*
X206733333Y-116676190D01*
X206657142Y-116752380D01*
X206580952Y-116790476D01*
X207380952Y-117285714D02*
X207419047Y-117323809D01*
X207380952Y-117361904D01*
X207342857Y-117323809D01*
X207380952Y-117285714D01*
X207380952Y-117361904D01*
X207914285Y-116561904D02*
X207990476Y-116561904D01*
X208066666Y-116600000D01*
X208104761Y-116638095D01*
X208142857Y-116714285D01*
X208180952Y-116866666D01*
X208180952Y-117057142D01*
X208142857Y-117209523D01*
X208104761Y-117285714D01*
X208066666Y-117323809D01*
X207990476Y-117361904D01*
X207914285Y-117361904D01*
X207838095Y-117323809D01*
X207800000Y-117285714D01*
X207761904Y-117209523D01*
X207723809Y-117057142D01*
X207723809Y-116866666D01*
X207761904Y-116714285D01*
X207800000Y-116638095D01*
X207838095Y-116600000D01*
X207914285Y-116561904D01*
X218409523Y-116311904D02*
X218409523Y-116883333D01*
X218371428Y-116997619D01*
X218295238Y-117073809D01*
X218180952Y-117111904D01*
X218104761Y-117111904D01*
X219133333Y-116578571D02*
X219133333Y-117111904D01*
X218790476Y-116578571D02*
X218790476Y-116997619D01*
X218828571Y-117073809D01*
X218904761Y-117111904D01*
X219019047Y-117111904D01*
X219095238Y-117073809D01*
X219133333Y-117035714D01*
X219628571Y-117111904D02*
X219552380Y-117073809D01*
X219514285Y-116997619D01*
X219514285Y-116311904D01*
X219857142Y-116578571D02*
X220047619Y-117111904D01*
X220238095Y-116578571D02*
X220047619Y-117111904D01*
X219971428Y-117302380D01*
X219933333Y-117340476D01*
X219857142Y-117378571D01*
X221114285Y-116388095D02*
X221152380Y-116350000D01*
X221228571Y-116311904D01*
X221419047Y-116311904D01*
X221495238Y-116350000D01*
X221533333Y-116388095D01*
X221571428Y-116464285D01*
X221571428Y-116540476D01*
X221533333Y-116654761D01*
X221076190Y-117111904D01*
X221571428Y-117111904D01*
X222066666Y-116311904D02*
X222142857Y-116311904D01*
X222219047Y-116350000D01*
X222257142Y-116388095D01*
X222295238Y-116464285D01*
X222333333Y-116616666D01*
X222333333Y-116807142D01*
X222295238Y-116959523D01*
X222257142Y-117035714D01*
X222219047Y-117073809D01*
X222142857Y-117111904D01*
X222066666Y-117111904D01*
X221990476Y-117073809D01*
X221952380Y-117035714D01*
X221914285Y-116959523D01*
X221876190Y-116807142D01*
X221876190Y-116616666D01*
X221914285Y-116464285D01*
X221952380Y-116388095D01*
X221990476Y-116350000D01*
X222066666Y-116311904D01*
X222638095Y-116388095D02*
X222676190Y-116350000D01*
X222752380Y-116311904D01*
X222942857Y-116311904D01*
X223019047Y-116350000D01*
X223057142Y-116388095D01*
X223095238Y-116464285D01*
X223095238Y-116540476D01*
X223057142Y-116654761D01*
X222600000Y-117111904D01*
X223095238Y-117111904D01*
X223361904Y-116311904D02*
X223857142Y-116311904D01*
X223590476Y-116616666D01*
X223704761Y-116616666D01*
X223780952Y-116654761D01*
X223819047Y-116692857D01*
X223857142Y-116769047D01*
X223857142Y-116959523D01*
X223819047Y-117035714D01*
X223780952Y-117073809D01*
X223704761Y-117111904D01*
X223476190Y-117111904D01*
X223400000Y-117073809D01*
X223361904Y-117035714D01*
X205950000Y-101161904D02*
X205683333Y-100780952D01*
X205492857Y-101161904D02*
X205492857Y-100361904D01*
X205797619Y-100361904D01*
X205873809Y-100400000D01*
X205911904Y-100438095D01*
X205950000Y-100514285D01*
X205950000Y-100628571D01*
X205911904Y-100704761D01*
X205873809Y-100742857D01*
X205797619Y-100780952D01*
X205492857Y-100780952D01*
X206292857Y-101161904D02*
X206292857Y-100628571D01*
X206292857Y-100361904D02*
X206254761Y-100400000D01*
X206292857Y-100438095D01*
X206330952Y-100400000D01*
X206292857Y-100361904D01*
X206292857Y-100438095D01*
X207016666Y-101123809D02*
X206940476Y-101161904D01*
X206788095Y-101161904D01*
X206711904Y-101123809D01*
X206673809Y-101085714D01*
X206635714Y-101009523D01*
X206635714Y-100780952D01*
X206673809Y-100704761D01*
X206711904Y-100666666D01*
X206788095Y-100628571D01*
X206940476Y-100628571D01*
X207016666Y-100666666D01*
X207359523Y-101161904D02*
X207359523Y-100361904D01*
X207702380Y-101161904D02*
X207702380Y-100742857D01*
X207664285Y-100666666D01*
X207588095Y-100628571D01*
X207473809Y-100628571D01*
X207397619Y-100666666D01*
X207359523Y-100704761D01*
X208921428Y-100361904D02*
X208921428Y-100933333D01*
X208883333Y-101047619D01*
X208807142Y-101123809D01*
X208692857Y-101161904D01*
X208616666Y-101161904D01*
X209416666Y-101161904D02*
X209340476Y-101123809D01*
X209302380Y-101085714D01*
X209264285Y-101009523D01*
X209264285Y-100780952D01*
X209302380Y-100704761D01*
X209340476Y-100666666D01*
X209416666Y-100628571D01*
X209530952Y-100628571D01*
X209607142Y-100666666D01*
X209645238Y-100704761D01*
X209683333Y-100780952D01*
X209683333Y-101009523D01*
X209645238Y-101085714D01*
X209607142Y-101123809D01*
X209530952Y-101161904D01*
X209416666Y-101161904D01*
X210026190Y-100628571D02*
X210026190Y-101161904D01*
X210026190Y-100704761D02*
X210064285Y-100666666D01*
X210140476Y-100628571D01*
X210254761Y-100628571D01*
X210330952Y-100666666D01*
X210369047Y-100742857D01*
X210369047Y-101161904D01*
X211054761Y-101123809D02*
X210978571Y-101161904D01*
X210826190Y-101161904D01*
X210750000Y-101123809D01*
X210711904Y-101047619D01*
X210711904Y-100742857D01*
X210750000Y-100666666D01*
X210826190Y-100628571D01*
X210978571Y-100628571D01*
X211054761Y-100666666D01*
X211092857Y-100742857D01*
X211092857Y-100819047D01*
X210711904Y-100895238D01*
X211397619Y-101123809D02*
X211473809Y-101161904D01*
X211626190Y-101161904D01*
X211702380Y-101123809D01*
X211740476Y-101047619D01*
X211740476Y-101009523D01*
X211702380Y-100933333D01*
X211626190Y-100895238D01*
X211511904Y-100895238D01*
X211435714Y-100857142D01*
X211397619Y-100780952D01*
X211397619Y-100742857D01*
X211435714Y-100666666D01*
X211511904Y-100628571D01*
X211626190Y-100628571D01*
X211702380Y-100666666D01*
X213188095Y-100780952D02*
X213150000Y-100742857D01*
X213073809Y-100704761D01*
X212997619Y-100704761D01*
X212921428Y-100742857D01*
X212883333Y-100780952D01*
X212845238Y-100857142D01*
X212845238Y-100933333D01*
X212883333Y-101009523D01*
X212921428Y-101047619D01*
X212997619Y-101085714D01*
X213073809Y-101085714D01*
X213150000Y-101047619D01*
X213188095Y-101009523D01*
X213188095Y-100704761D02*
X213188095Y-101009523D01*
X213226190Y-101047619D01*
X213264285Y-101047619D01*
X213340476Y-101009523D01*
X213378571Y-100933333D01*
X213378571Y-100742857D01*
X213302380Y-100628571D01*
X213188095Y-100552380D01*
X213035714Y-100514285D01*
X212883333Y-100552380D01*
X212769047Y-100628571D01*
X212692857Y-100742857D01*
X212654761Y-100895238D01*
X212692857Y-101047619D01*
X212769047Y-101161904D01*
X212883333Y-101238095D01*
X213035714Y-101276190D01*
X213188095Y-101238095D01*
X213302380Y-101161904D01*
X213988095Y-100742857D02*
X214102380Y-100780952D01*
X214140476Y-100819047D01*
X214178571Y-100895238D01*
X214178571Y-101009523D01*
X214140476Y-101085714D01*
X214102380Y-101123809D01*
X214026190Y-101161904D01*
X213721428Y-101161904D01*
X213721428Y-100361904D01*
X213988095Y-100361904D01*
X214064285Y-100400000D01*
X214102380Y-100438095D01*
X214140476Y-100514285D01*
X214140476Y-100590476D01*
X214102380Y-100666666D01*
X214064285Y-100704761D01*
X213988095Y-100742857D01*
X213721428Y-100742857D01*
X214635714Y-101161904D02*
X214559523Y-101123809D01*
X214521428Y-101047619D01*
X214521428Y-100361904D01*
X215283333Y-101161904D02*
X215283333Y-100742857D01*
X215245238Y-100666666D01*
X215169047Y-100628571D01*
X215016666Y-100628571D01*
X214940476Y-100666666D01*
X215283333Y-101123809D02*
X215207142Y-101161904D01*
X215016666Y-101161904D01*
X214940476Y-101123809D01*
X214902380Y-101047619D01*
X214902380Y-100971428D01*
X214940476Y-100895238D01*
X215016666Y-100857142D01*
X215207142Y-100857142D01*
X215283333Y-100819047D01*
X216007142Y-101123809D02*
X215930952Y-101161904D01*
X215778571Y-101161904D01*
X215702380Y-101123809D01*
X215664285Y-101085714D01*
X215626190Y-101009523D01*
X215626190Y-100780952D01*
X215664285Y-100704761D01*
X215702380Y-100666666D01*
X215778571Y-100628571D01*
X215930952Y-100628571D01*
X216007142Y-100666666D01*
X216350000Y-101161904D02*
X216350000Y-100361904D01*
X216426190Y-100857142D02*
X216654761Y-101161904D01*
X216654761Y-100628571D02*
X216350000Y-100933333D01*
X216997619Y-101161904D02*
X216997619Y-100361904D01*
X217188095Y-100361904D01*
X217302380Y-100400000D01*
X217378571Y-100476190D01*
X217416666Y-100552380D01*
X217454761Y-100704761D01*
X217454761Y-100819047D01*
X217416666Y-100971428D01*
X217378571Y-101047619D01*
X217302380Y-101123809D01*
X217188095Y-101161904D01*
X216997619Y-101161904D01*
X218102380Y-101123809D02*
X218026190Y-101161904D01*
X217873809Y-101161904D01*
X217797619Y-101123809D01*
X217759523Y-101047619D01*
X217759523Y-100742857D01*
X217797619Y-100666666D01*
X217873809Y-100628571D01*
X218026190Y-100628571D01*
X218102380Y-100666666D01*
X218140476Y-100742857D01*
X218140476Y-100819047D01*
X217759523Y-100895238D01*
X218826190Y-101161904D02*
X218826190Y-100742857D01*
X218788095Y-100666666D01*
X218711904Y-100628571D01*
X218559523Y-100628571D01*
X218483333Y-100666666D01*
X218826190Y-101123809D02*
X218750000Y-101161904D01*
X218559523Y-101161904D01*
X218483333Y-101123809D01*
X218445238Y-101047619D01*
X218445238Y-100971428D01*
X218483333Y-100895238D01*
X218559523Y-100857142D01*
X218750000Y-100857142D01*
X218826190Y-100819047D01*
X219092857Y-100628571D02*
X219397619Y-100628571D01*
X219207142Y-100361904D02*
X219207142Y-101047619D01*
X219245238Y-101123809D01*
X219321428Y-101161904D01*
X219397619Y-101161904D01*
X219664285Y-101161904D02*
X219664285Y-100361904D01*
X220007142Y-101161904D02*
X220007142Y-100742857D01*
X219969047Y-100666666D01*
X219892857Y-100628571D01*
X219778571Y-100628571D01*
X219702380Y-100666666D01*
X219664285Y-100704761D01*
X207988095Y-102485714D02*
X207950000Y-102523809D01*
X207835714Y-102561904D01*
X207759523Y-102561904D01*
X207645238Y-102523809D01*
X207569047Y-102447619D01*
X207530952Y-102371428D01*
X207492857Y-102219047D01*
X207492857Y-102104761D01*
X207530952Y-101952380D01*
X207569047Y-101876190D01*
X207645238Y-101800000D01*
X207759523Y-101761904D01*
X207835714Y-101761904D01*
X207950000Y-101800000D01*
X207988095Y-101838095D01*
X208330952Y-102561904D02*
X208330952Y-102028571D01*
X208330952Y-101761904D02*
X208292857Y-101800000D01*
X208330952Y-101838095D01*
X208369047Y-101800000D01*
X208330952Y-101761904D01*
X208330952Y-101838095D01*
X208711904Y-102561904D02*
X208711904Y-102028571D01*
X208711904Y-102180952D02*
X208750000Y-102104761D01*
X208788095Y-102066666D01*
X208864285Y-102028571D01*
X208940476Y-102028571D01*
X209550000Y-102523809D02*
X209473809Y-102561904D01*
X209321428Y-102561904D01*
X209245238Y-102523809D01*
X209207142Y-102485714D01*
X209169047Y-102409523D01*
X209169047Y-102180952D01*
X209207142Y-102104761D01*
X209245238Y-102066666D01*
X209321428Y-102028571D01*
X209473809Y-102028571D01*
X209550000Y-102066666D01*
X210235714Y-102028571D02*
X210235714Y-102561904D01*
X209892857Y-102028571D02*
X209892857Y-102447619D01*
X209930952Y-102523809D01*
X210007142Y-102561904D01*
X210121428Y-102561904D01*
X210197619Y-102523809D01*
X210235714Y-102485714D01*
X210616666Y-102561904D02*
X210616666Y-102028571D01*
X210616666Y-101761904D02*
X210578571Y-101800000D01*
X210616666Y-101838095D01*
X210654761Y-101800000D01*
X210616666Y-101761904D01*
X210616666Y-101838095D01*
X210883333Y-102028571D02*
X211188095Y-102028571D01*
X210997619Y-101761904D02*
X210997619Y-102447619D01*
X211035714Y-102523809D01*
X211111904Y-102561904D01*
X211188095Y-102561904D01*
X212064285Y-102561904D02*
X212064285Y-101761904D01*
X212064285Y-102066666D02*
X212140476Y-102028571D01*
X212292857Y-102028571D01*
X212369047Y-102066666D01*
X212407142Y-102104761D01*
X212445238Y-102180952D01*
X212445238Y-102409523D01*
X212407142Y-102485714D01*
X212369047Y-102523809D01*
X212292857Y-102561904D01*
X212140476Y-102561904D01*
X212064285Y-102523809D01*
X212711904Y-102028571D02*
X212902380Y-102561904D01*
X213092857Y-102028571D02*
X212902380Y-102561904D01*
X212826190Y-102752380D01*
X212788095Y-102790476D01*
X212711904Y-102828571D01*
X214235714Y-101761904D02*
X214235714Y-102333333D01*
X214197619Y-102447619D01*
X214121428Y-102523809D01*
X214007142Y-102561904D01*
X213930952Y-102561904D01*
X214959523Y-102028571D02*
X214959523Y-102561904D01*
X214616666Y-102028571D02*
X214616666Y-102447619D01*
X214654761Y-102523809D01*
X214730952Y-102561904D01*
X214845238Y-102561904D01*
X214921428Y-102523809D01*
X214959523Y-102485714D01*
X215683333Y-102561904D02*
X215683333Y-102142857D01*
X215645238Y-102066666D01*
X215569047Y-102028571D01*
X215416666Y-102028571D01*
X215340476Y-102066666D01*
X215683333Y-102523809D02*
X215607142Y-102561904D01*
X215416666Y-102561904D01*
X215340476Y-102523809D01*
X215302380Y-102447619D01*
X215302380Y-102371428D01*
X215340476Y-102295238D01*
X215416666Y-102257142D01*
X215607142Y-102257142D01*
X215683333Y-102219047D01*
X216064285Y-102028571D02*
X216064285Y-102561904D01*
X216064285Y-102104761D02*
X216102380Y-102066666D01*
X216178571Y-102028571D01*
X216292857Y-102028571D01*
X216369047Y-102066666D01*
X216407142Y-102142857D01*
X216407142Y-102561904D01*
X216788095Y-102561904D02*
X216788095Y-102028571D01*
X216788095Y-101761904D02*
X216750000Y-101800000D01*
X216788095Y-101838095D01*
X216826190Y-101800000D01*
X216788095Y-101761904D01*
X216788095Y-101838095D01*
X217054761Y-102028571D02*
X217359523Y-102028571D01*
X217169047Y-101761904D02*
X217169047Y-102447619D01*
X217207142Y-102523809D01*
X217283333Y-102561904D01*
X217359523Y-102561904D01*
X217740476Y-102561904D02*
X217664285Y-102523809D01*
X217626190Y-102485714D01*
X217588095Y-102409523D01*
X217588095Y-102180952D01*
X217626190Y-102104761D01*
X217664285Y-102066666D01*
X217740476Y-102028571D01*
X217854761Y-102028571D01*
X217930952Y-102066666D01*
X217969047Y-102104761D01*
X218007142Y-102180952D01*
X218007142Y-102409523D01*
X217969047Y-102485714D01*
X217930952Y-102523809D01*
X217854761Y-102561904D01*
X217740476Y-102561904D01*
D11*
%TO.C,G\u002A\u002A\u002A*%
G36*
X218064736Y-91445387D02*
G01*
X218295871Y-91852454D01*
X218617291Y-92456404D01*
X218995757Y-93196289D01*
X219022727Y-93250000D01*
X220002618Y-95203847D01*
X217943675Y-95203847D01*
X217143361Y-95193176D01*
X216499024Y-95164148D01*
X216077768Y-95121236D01*
X215945738Y-95070630D01*
X216162103Y-94622075D01*
X216366834Y-94218103D01*
X217335314Y-94218103D01*
X217491741Y-94282482D01*
X217876667Y-94314835D01*
X217961554Y-94315735D01*
X218587794Y-94315735D01*
X218294209Y-93738462D01*
X218087866Y-93343549D01*
X217957802Y-93114448D01*
X217947500Y-93100277D01*
X217847019Y-93196975D01*
X217667612Y-93487620D01*
X217479610Y-93843791D01*
X217353343Y-94137067D01*
X217335314Y-94218103D01*
X216366834Y-94218103D01*
X216465325Y-94023765D01*
X216816757Y-93348219D01*
X217177754Y-92667961D01*
X217509668Y-92055513D01*
X217773852Y-91583397D01*
X217931662Y-91324135D01*
X217957128Y-91296154D01*
X218064736Y-91445387D01*
G37*
X218064736Y-91445387D02*
X218295871Y-91852454D01*
X218617291Y-92456404D01*
X218995757Y-93196289D01*
X219022727Y-93250000D01*
X220002618Y-95203847D01*
X217943675Y-95203847D01*
X217143361Y-95193176D01*
X216499024Y-95164148D01*
X216077768Y-95121236D01*
X215945738Y-95070630D01*
X216162103Y-94622075D01*
X216366834Y-94218103D01*
X217335314Y-94218103D01*
X217491741Y-94282482D01*
X217876667Y-94314835D01*
X217961554Y-94315735D01*
X218587794Y-94315735D01*
X218294209Y-93738462D01*
X218087866Y-93343549D01*
X217957802Y-93114448D01*
X217947500Y-93100277D01*
X217847019Y-93196975D01*
X217667612Y-93487620D01*
X217479610Y-93843791D01*
X217353343Y-94137067D01*
X217335314Y-94218103D01*
X216366834Y-94218103D01*
X216465325Y-94023765D01*
X216816757Y-93348219D01*
X217177754Y-92667961D01*
X217509668Y-92055513D01*
X217773852Y-91583397D01*
X217931662Y-91324135D01*
X217957128Y-91296154D01*
X218064736Y-91445387D01*
G36*
X214470668Y-91490870D02*
G01*
X215074101Y-91689195D01*
X215326899Y-91939075D01*
X215230053Y-92241494D01*
X215228513Y-92243355D01*
X214935404Y-92403804D01*
X214400373Y-92421611D01*
X214195972Y-92402292D01*
X213643790Y-92372299D01*
X213317278Y-92458397D01*
X213133568Y-92636058D01*
X212901924Y-93193684D01*
X212974279Y-93717743D01*
X213306323Y-94119592D01*
X213853749Y-94310588D01*
X213973176Y-94315735D01*
X214339192Y-94271719D01*
X214476253Y-94064866D01*
X214493356Y-93771069D01*
X214529872Y-93393973D01*
X214705911Y-93270150D01*
X214981818Y-93282608D01*
X215300191Y-93361953D01*
X215454774Y-93574214D01*
X215520784Y-94027552D01*
X215523313Y-94061265D01*
X215526872Y-94546587D01*
X215405307Y-94815495D01*
X215115305Y-94993782D01*
X214641871Y-95127213D01*
X214033746Y-95199564D01*
X213866123Y-95203847D01*
X213230203Y-95133815D01*
X212721884Y-94870949D01*
X212497907Y-94685550D01*
X212117118Y-94282741D01*
X211950775Y-93872394D01*
X211917832Y-93367692D01*
X212071968Y-92571196D01*
X212497075Y-91954831D01*
X213137197Y-91559733D01*
X213936380Y-91427040D01*
X214470668Y-91490870D01*
G37*
X214470668Y-91490870D02*
X215074101Y-91689195D01*
X215326899Y-91939075D01*
X215230053Y-92241494D01*
X215228513Y-92243355D01*
X214935404Y-92403804D01*
X214400373Y-92421611D01*
X214195972Y-92402292D01*
X213643790Y-92372299D01*
X213317278Y-92458397D01*
X213133568Y-92636058D01*
X212901924Y-93193684D01*
X212974279Y-93717743D01*
X213306323Y-94119592D01*
X213853749Y-94310588D01*
X213973176Y-94315735D01*
X214339192Y-94271719D01*
X214476253Y-94064866D01*
X214493356Y-93771069D01*
X214529872Y-93393973D01*
X214705911Y-93270150D01*
X214981818Y-93282608D01*
X215300191Y-93361953D01*
X215454774Y-93574214D01*
X215520784Y-94027552D01*
X215523313Y-94061265D01*
X215526872Y-94546587D01*
X215405307Y-94815495D01*
X215115305Y-94993782D01*
X214641871Y-95127213D01*
X214033746Y-95199564D01*
X213866123Y-95203847D01*
X213230203Y-95133815D01*
X212721884Y-94870949D01*
X212497907Y-94685550D01*
X212117118Y-94282741D01*
X211950775Y-93872394D01*
X211917832Y-93367692D01*
X212071968Y-92571196D01*
X212497075Y-91954831D01*
X213137197Y-91559733D01*
X213936380Y-91427040D01*
X214470668Y-91490870D01*
G36*
X211257962Y-93294406D02*
G01*
X211207342Y-95115035D01*
X210718881Y-95171239D01*
X210230419Y-95227443D01*
X210230419Y-91473777D01*
X211308581Y-91473777D01*
X211257962Y-93294406D01*
G37*
X211257962Y-93294406D02*
X211207342Y-95115035D01*
X210718881Y-95171239D01*
X210230419Y-95227443D01*
X210230419Y-91473777D01*
X211308581Y-91473777D01*
X211257962Y-93294406D01*
G36*
X209431119Y-91562588D02*
G01*
X209431119Y-95115035D01*
X208454195Y-95227443D01*
X208454195Y-92361889D01*
X207210839Y-92361889D01*
X207210839Y-95203847D01*
X206145105Y-95203847D01*
X206145105Y-91460446D01*
X209431119Y-91562588D01*
G37*
X209431119Y-91562588D02*
X209431119Y-95115035D01*
X208454195Y-95227443D01*
X208454195Y-92361889D01*
X207210839Y-92361889D01*
X207210839Y-95203847D01*
X206145105Y-95203847D01*
X206145105Y-91460446D01*
X209431119Y-91562588D01*
D12*
%TO.C,C1*%
X219935241Y-68404000D02*
X219935241Y-67774000D01*
X220250241Y-68089000D02*
X219620241Y-68089000D01*
X213509000Y-66652000D02*
X213509000Y-65848000D01*
X213549000Y-66883000D02*
X213549000Y-65617000D01*
X213589000Y-67052000D02*
X213589000Y-65448000D01*
X213629000Y-67190000D02*
X213629000Y-65310000D01*
X213669000Y-67309000D02*
X213669000Y-65191000D01*
X213709000Y-67415000D02*
X213709000Y-65085000D01*
X213749000Y-67512000D02*
X213749000Y-64988000D01*
X213789000Y-67600000D02*
X213789000Y-64900000D01*
X213829000Y-67682000D02*
X213829000Y-64818000D01*
X213869000Y-67759000D02*
X213869000Y-64741000D01*
X213909000Y-67831000D02*
X213909000Y-64669000D01*
X213949000Y-67900000D02*
X213949000Y-64600000D01*
X213989000Y-67964000D02*
X213989000Y-64536000D01*
X214029000Y-68026000D02*
X214029000Y-64474000D01*
X214069000Y-68084000D02*
X214069000Y-64416000D01*
X214109000Y-68140000D02*
X214109000Y-64360000D01*
X214149000Y-68194000D02*
X214149000Y-64306000D01*
X214189000Y-68245000D02*
X214189000Y-64255000D01*
X214229000Y-68294000D02*
X214229000Y-64206000D01*
X214269000Y-68342000D02*
X214269000Y-64158000D01*
X214309000Y-68387000D02*
X214309000Y-64113000D01*
X214349000Y-68432000D02*
X214349000Y-64068000D01*
X214389000Y-68474000D02*
X214389000Y-64026000D01*
X214429000Y-68515000D02*
X214429000Y-63985000D01*
X214469000Y-65210000D02*
X214469000Y-63945000D01*
X214469000Y-68555000D02*
X214469000Y-67290000D01*
X214509000Y-65210000D02*
X214509000Y-63907000D01*
X214509000Y-68593000D02*
X214509000Y-67290000D01*
X214549000Y-65210000D02*
X214549000Y-63870000D01*
X214549000Y-68630000D02*
X214549000Y-67290000D01*
X214589000Y-65210000D02*
X214589000Y-63834000D01*
X214589000Y-68666000D02*
X214589000Y-67290000D01*
X214629000Y-65210000D02*
X214629000Y-63800000D01*
X214629000Y-68700000D02*
X214629000Y-67290000D01*
X214669000Y-65210000D02*
X214669000Y-63766000D01*
X214669000Y-68734000D02*
X214669000Y-67290000D01*
X214709000Y-65210000D02*
X214709000Y-63734000D01*
X214709000Y-68766000D02*
X214709000Y-67290000D01*
X214749000Y-65210000D02*
X214749000Y-63702000D01*
X214749000Y-68798000D02*
X214749000Y-67290000D01*
X214789000Y-65210000D02*
X214789000Y-63672000D01*
X214789000Y-68828000D02*
X214789000Y-67290000D01*
X214829000Y-65210000D02*
X214829000Y-63643000D01*
X214829000Y-68857000D02*
X214829000Y-67290000D01*
X214869000Y-65210000D02*
X214869000Y-63614000D01*
X214869000Y-68886000D02*
X214869000Y-67290000D01*
X214909000Y-65210000D02*
X214909000Y-63586000D01*
X214909000Y-68914000D02*
X214909000Y-67290000D01*
X214949000Y-65210000D02*
X214949000Y-63560000D01*
X214949000Y-68940000D02*
X214949000Y-67290000D01*
X214989000Y-65210000D02*
X214989000Y-63534000D01*
X214989000Y-68966000D02*
X214989000Y-67290000D01*
X215029000Y-65210000D02*
X215029000Y-63508000D01*
X215029000Y-68992000D02*
X215029000Y-67290000D01*
X215069000Y-65210000D02*
X215069000Y-63484000D01*
X215069000Y-69016000D02*
X215069000Y-67290000D01*
X215109000Y-65210000D02*
X215109000Y-63460000D01*
X215109000Y-69040000D02*
X215109000Y-67290000D01*
X215149000Y-65210000D02*
X215149000Y-63438000D01*
X215149000Y-69062000D02*
X215149000Y-67290000D01*
X215189000Y-65210000D02*
X215189000Y-63416000D01*
X215189000Y-69084000D02*
X215189000Y-67290000D01*
X215229000Y-65210000D02*
X215229000Y-63394000D01*
X215229000Y-69106000D02*
X215229000Y-67290000D01*
X215269000Y-65210000D02*
X215269000Y-63374000D01*
X215269000Y-69126000D02*
X215269000Y-67290000D01*
X215309000Y-65210000D02*
X215309000Y-63354000D01*
X215309000Y-69146000D02*
X215309000Y-67290000D01*
X215349000Y-65210000D02*
X215349000Y-63334000D01*
X215349000Y-69166000D02*
X215349000Y-67290000D01*
X215389000Y-65210000D02*
X215389000Y-63316000D01*
X215389000Y-69184000D02*
X215389000Y-67290000D01*
X215429000Y-65210000D02*
X215429000Y-63298000D01*
X215429000Y-69202000D02*
X215429000Y-67290000D01*
X215469000Y-65210000D02*
X215469000Y-63280000D01*
X215469000Y-69220000D02*
X215469000Y-67290000D01*
X215509000Y-65210000D02*
X215509000Y-63264000D01*
X215509000Y-69236000D02*
X215509000Y-67290000D01*
X215549000Y-65210000D02*
X215549000Y-63248000D01*
X215549000Y-69252000D02*
X215549000Y-67290000D01*
X215589000Y-65210000D02*
X215589000Y-63232000D01*
X215589000Y-69268000D02*
X215589000Y-67290000D01*
X215629000Y-65210000D02*
X215629000Y-63217000D01*
X215629000Y-69283000D02*
X215629000Y-67290000D01*
X215669000Y-65210000D02*
X215669000Y-63203000D01*
X215669000Y-69297000D02*
X215669000Y-67290000D01*
X215709000Y-65210000D02*
X215709000Y-63189000D01*
X215709000Y-69311000D02*
X215709000Y-67290000D01*
X215749000Y-65210000D02*
X215749000Y-63176000D01*
X215749000Y-69324000D02*
X215749000Y-67290000D01*
X215789000Y-65210000D02*
X215789000Y-63164000D01*
X215789000Y-69336000D02*
X215789000Y-67290000D01*
X215829000Y-65210000D02*
X215829000Y-63152000D01*
X215829000Y-69348000D02*
X215829000Y-67290000D01*
X215869000Y-65210000D02*
X215869000Y-63140000D01*
X215869000Y-69360000D02*
X215869000Y-67290000D01*
X215909000Y-65210000D02*
X215909000Y-63129000D01*
X215909000Y-69371000D02*
X215909000Y-67290000D01*
X215949000Y-65210000D02*
X215949000Y-63119000D01*
X215949000Y-69381000D02*
X215949000Y-67290000D01*
X215989000Y-65210000D02*
X215989000Y-63109000D01*
X215989000Y-69391000D02*
X215989000Y-67290000D01*
X216029000Y-65210000D02*
X216029000Y-63100000D01*
X216029000Y-69400000D02*
X216029000Y-67290000D01*
X216070000Y-65210000D02*
X216070000Y-63091000D01*
X216070000Y-69409000D02*
X216070000Y-67290000D01*
X216110000Y-65210000D02*
X216110000Y-63083000D01*
X216110000Y-69417000D02*
X216110000Y-67290000D01*
X216150000Y-65210000D02*
X216150000Y-63075000D01*
X216150000Y-69425000D02*
X216150000Y-67290000D01*
X216190000Y-65210000D02*
X216190000Y-63068000D01*
X216190000Y-69432000D02*
X216190000Y-67290000D01*
X216230000Y-65210000D02*
X216230000Y-63061000D01*
X216230000Y-69439000D02*
X216230000Y-67290000D01*
X216270000Y-65210000D02*
X216270000Y-63055000D01*
X216270000Y-69445000D02*
X216270000Y-67290000D01*
X216310000Y-65210000D02*
X216310000Y-63049000D01*
X216310000Y-69451000D02*
X216310000Y-67290000D01*
X216350000Y-65210000D02*
X216350000Y-63044000D01*
X216350000Y-69456000D02*
X216350000Y-67290000D01*
X216390000Y-65210000D02*
X216390000Y-63039000D01*
X216390000Y-69461000D02*
X216390000Y-67290000D01*
X216430000Y-65210000D02*
X216430000Y-63035000D01*
X216430000Y-69465000D02*
X216430000Y-67290000D01*
X216470000Y-65210000D02*
X216470000Y-63032000D01*
X216470000Y-69468000D02*
X216470000Y-67290000D01*
X216510000Y-65210000D02*
X216510000Y-63028000D01*
X216510000Y-69472000D02*
X216510000Y-67290000D01*
X216550000Y-69474000D02*
X216550000Y-63026000D01*
X216590000Y-69477000D02*
X216590000Y-63023000D01*
X216630000Y-69478000D02*
X216630000Y-63022000D01*
X216670000Y-69480000D02*
X216670000Y-63020000D01*
X216710000Y-69480000D02*
X216710000Y-63020000D01*
X216750000Y-69480000D02*
X216750000Y-63020000D01*
X220020000Y-66250000D02*
G75*
G03*
X220020000Y-66250000I-3270000J0D01*
G01*
%TO.C,C2*%
X211770000Y-66000000D02*
G75*
G03*
X211770000Y-66000000I-3270000J0D01*
G01*
X208500000Y-62770000D02*
X208500000Y-69230000D01*
X208540000Y-62770000D02*
X208540000Y-69230000D01*
X208580000Y-62770000D02*
X208580000Y-69230000D01*
X208620000Y-62772000D02*
X208620000Y-69228000D01*
X208660000Y-62773000D02*
X208660000Y-69227000D01*
X208700000Y-62776000D02*
X208700000Y-69224000D01*
X208740000Y-62778000D02*
X208740000Y-64960000D01*
X208740000Y-67040000D02*
X208740000Y-69222000D01*
X208780000Y-62782000D02*
X208780000Y-64960000D01*
X208780000Y-67040000D02*
X208780000Y-69218000D01*
X208820000Y-62785000D02*
X208820000Y-64960000D01*
X208820000Y-67040000D02*
X208820000Y-69215000D01*
X208860000Y-62789000D02*
X208860000Y-64960000D01*
X208860000Y-67040000D02*
X208860000Y-69211000D01*
X208900000Y-62794000D02*
X208900000Y-64960000D01*
X208900000Y-67040000D02*
X208900000Y-69206000D01*
X208940000Y-62799000D02*
X208940000Y-64960000D01*
X208940000Y-67040000D02*
X208940000Y-69201000D01*
X208980000Y-62805000D02*
X208980000Y-64960000D01*
X208980000Y-67040000D02*
X208980000Y-69195000D01*
X209020000Y-62811000D02*
X209020000Y-64960000D01*
X209020000Y-67040000D02*
X209020000Y-69189000D01*
X209060000Y-62818000D02*
X209060000Y-64960000D01*
X209060000Y-67040000D02*
X209060000Y-69182000D01*
X209100000Y-62825000D02*
X209100000Y-64960000D01*
X209100000Y-67040000D02*
X209100000Y-69175000D01*
X209140000Y-62833000D02*
X209140000Y-64960000D01*
X209140000Y-67040000D02*
X209140000Y-69167000D01*
X209180000Y-62841000D02*
X209180000Y-64960000D01*
X209180000Y-67040000D02*
X209180000Y-69159000D01*
X209221000Y-62850000D02*
X209221000Y-64960000D01*
X209221000Y-67040000D02*
X209221000Y-69150000D01*
X209261000Y-62859000D02*
X209261000Y-64960000D01*
X209261000Y-67040000D02*
X209261000Y-69141000D01*
X209301000Y-62869000D02*
X209301000Y-64960000D01*
X209301000Y-67040000D02*
X209301000Y-69131000D01*
X209341000Y-62879000D02*
X209341000Y-64960000D01*
X209341000Y-67040000D02*
X209341000Y-69121000D01*
X209381000Y-62890000D02*
X209381000Y-64960000D01*
X209381000Y-67040000D02*
X209381000Y-69110000D01*
X209421000Y-62902000D02*
X209421000Y-64960000D01*
X209421000Y-67040000D02*
X209421000Y-69098000D01*
X209461000Y-62914000D02*
X209461000Y-64960000D01*
X209461000Y-67040000D02*
X209461000Y-69086000D01*
X209501000Y-62926000D02*
X209501000Y-64960000D01*
X209501000Y-67040000D02*
X209501000Y-69074000D01*
X209541000Y-62939000D02*
X209541000Y-64960000D01*
X209541000Y-67040000D02*
X209541000Y-69061000D01*
X209581000Y-62953000D02*
X209581000Y-64960000D01*
X209581000Y-67040000D02*
X209581000Y-69047000D01*
X209621000Y-62967000D02*
X209621000Y-64960000D01*
X209621000Y-67040000D02*
X209621000Y-69033000D01*
X209661000Y-62982000D02*
X209661000Y-64960000D01*
X209661000Y-67040000D02*
X209661000Y-69018000D01*
X209701000Y-62998000D02*
X209701000Y-64960000D01*
X209701000Y-67040000D02*
X209701000Y-69002000D01*
X209741000Y-63014000D02*
X209741000Y-64960000D01*
X209741000Y-67040000D02*
X209741000Y-68986000D01*
X209781000Y-63030000D02*
X209781000Y-64960000D01*
X209781000Y-67040000D02*
X209781000Y-68970000D01*
X209821000Y-63048000D02*
X209821000Y-64960000D01*
X209821000Y-67040000D02*
X209821000Y-68952000D01*
X209861000Y-63066000D02*
X209861000Y-64960000D01*
X209861000Y-67040000D02*
X209861000Y-68934000D01*
X209901000Y-63084000D02*
X209901000Y-64960000D01*
X209901000Y-67040000D02*
X209901000Y-68916000D01*
X209941000Y-63104000D02*
X209941000Y-64960000D01*
X209941000Y-67040000D02*
X209941000Y-68896000D01*
X209981000Y-63124000D02*
X209981000Y-64960000D01*
X209981000Y-67040000D02*
X209981000Y-68876000D01*
X210021000Y-63144000D02*
X210021000Y-64960000D01*
X210021000Y-67040000D02*
X210021000Y-68856000D01*
X210061000Y-63166000D02*
X210061000Y-64960000D01*
X210061000Y-67040000D02*
X210061000Y-68834000D01*
X210101000Y-63188000D02*
X210101000Y-64960000D01*
X210101000Y-67040000D02*
X210101000Y-68812000D01*
X210141000Y-63210000D02*
X210141000Y-64960000D01*
X210141000Y-67040000D02*
X210141000Y-68790000D01*
X210181000Y-63234000D02*
X210181000Y-64960000D01*
X210181000Y-67040000D02*
X210181000Y-68766000D01*
X210221000Y-63258000D02*
X210221000Y-64960000D01*
X210221000Y-67040000D02*
X210221000Y-68742000D01*
X210261000Y-63284000D02*
X210261000Y-64960000D01*
X210261000Y-67040000D02*
X210261000Y-68716000D01*
X210301000Y-63310000D02*
X210301000Y-64960000D01*
X210301000Y-67040000D02*
X210301000Y-68690000D01*
X210341000Y-63336000D02*
X210341000Y-64960000D01*
X210341000Y-67040000D02*
X210341000Y-68664000D01*
X210381000Y-63364000D02*
X210381000Y-64960000D01*
X210381000Y-67040000D02*
X210381000Y-68636000D01*
X210421000Y-63393000D02*
X210421000Y-64960000D01*
X210421000Y-67040000D02*
X210421000Y-68607000D01*
X210461000Y-63422000D02*
X210461000Y-64960000D01*
X210461000Y-67040000D02*
X210461000Y-68578000D01*
X210501000Y-63452000D02*
X210501000Y-64960000D01*
X210501000Y-67040000D02*
X210501000Y-68548000D01*
X210541000Y-63484000D02*
X210541000Y-64960000D01*
X210541000Y-67040000D02*
X210541000Y-68516000D01*
X210581000Y-63516000D02*
X210581000Y-64960000D01*
X210581000Y-67040000D02*
X210581000Y-68484000D01*
X210621000Y-63550000D02*
X210621000Y-64960000D01*
X210621000Y-67040000D02*
X210621000Y-68450000D01*
X210661000Y-63584000D02*
X210661000Y-64960000D01*
X210661000Y-67040000D02*
X210661000Y-68416000D01*
X210701000Y-63620000D02*
X210701000Y-64960000D01*
X210701000Y-67040000D02*
X210701000Y-68380000D01*
X210741000Y-63657000D02*
X210741000Y-64960000D01*
X210741000Y-67040000D02*
X210741000Y-68343000D01*
X210781000Y-63695000D02*
X210781000Y-64960000D01*
X210781000Y-67040000D02*
X210781000Y-68305000D01*
X210821000Y-63735000D02*
X210821000Y-68265000D01*
X210861000Y-63776000D02*
X210861000Y-68224000D01*
X210901000Y-63818000D02*
X210901000Y-68182000D01*
X210941000Y-63863000D02*
X210941000Y-68137000D01*
X210981000Y-63908000D02*
X210981000Y-68092000D01*
X211021000Y-63956000D02*
X211021000Y-68044000D01*
X211061000Y-64005000D02*
X211061000Y-67995000D01*
X211101000Y-64056000D02*
X211101000Y-67944000D01*
X211141000Y-64110000D02*
X211141000Y-67890000D01*
X211181000Y-64166000D02*
X211181000Y-67834000D01*
X211221000Y-64224000D02*
X211221000Y-67776000D01*
X211261000Y-64286000D02*
X211261000Y-67714000D01*
X211301000Y-64350000D02*
X211301000Y-67650000D01*
X211341000Y-64419000D02*
X211341000Y-67581000D01*
X211381000Y-64491000D02*
X211381000Y-67509000D01*
X211421000Y-64568000D02*
X211421000Y-67432000D01*
X211461000Y-64650000D02*
X211461000Y-67350000D01*
X211501000Y-64738000D02*
X211501000Y-67262000D01*
X211541000Y-64835000D02*
X211541000Y-67165000D01*
X211581000Y-64941000D02*
X211581000Y-67059000D01*
X211621000Y-65060000D02*
X211621000Y-66940000D01*
X211661000Y-65198000D02*
X211661000Y-66802000D01*
X211701000Y-65367000D02*
X211701000Y-66633000D01*
X211741000Y-65598000D02*
X211741000Y-66402000D01*
X204999759Y-64161000D02*
X205629759Y-64161000D01*
X205314759Y-63846000D02*
X205314759Y-64476000D01*
%TO.C,C3*%
X222170000Y-77379000D02*
X222170000Y-76121000D01*
X220330000Y-77379000D02*
X220330000Y-76121000D01*
%TO.C,C4*%
X222420000Y-81871000D02*
X222420000Y-83129000D01*
X220580000Y-81871000D02*
X220580000Y-83129000D01*
%TO.C,D1*%
X221630000Y-68060000D02*
X223870000Y-68060000D01*
X223870000Y-68060000D02*
X223870000Y-63820000D01*
X223870000Y-63820000D02*
X221630000Y-63820000D01*
X221630000Y-63820000D02*
X221630000Y-68060000D01*
X222750000Y-68710000D02*
X222750000Y-68060000D01*
X222750000Y-63170000D02*
X222750000Y-63820000D01*
X221630000Y-67340000D02*
X223870000Y-67340000D01*
X221630000Y-67220000D02*
X223870000Y-67220000D01*
X221630000Y-67460000D02*
X223870000Y-67460000D01*
%TO.C,D2*%
X203620000Y-64540000D02*
X201380000Y-64540000D01*
X203620000Y-64780000D02*
X201380000Y-64780000D01*
X203620000Y-64660000D02*
X201380000Y-64660000D01*
X202500000Y-68830000D02*
X202500000Y-68180000D01*
X202500000Y-63290000D02*
X202500000Y-63940000D01*
X203620000Y-68180000D02*
X203620000Y-63940000D01*
X201380000Y-68180000D02*
X203620000Y-68180000D01*
X201380000Y-63940000D02*
X201380000Y-68180000D01*
X203620000Y-63940000D02*
X201380000Y-63940000D01*
%TO.C,J3*%
X210580000Y-59350000D02*
X203200000Y-59350000D01*
X210580000Y-59850000D02*
X210580000Y-59370000D01*
X215080000Y-59350000D02*
X215080000Y-59860000D01*
X222450000Y-59350000D02*
X215100000Y-59350000D01*
X222450000Y-59350000D02*
X222950000Y-59850000D01*
X222450000Y-51600000D02*
X222450000Y-59350000D01*
X222450000Y-51600000D02*
X223000000Y-51050000D01*
X203200000Y-51600000D02*
X222450000Y-51600000D01*
X203200000Y-51600000D02*
X202650000Y-51050000D01*
X203200000Y-59350000D02*
X203200000Y-51600000D01*
X202650000Y-59900000D02*
X203200000Y-59350000D01*
X223000000Y-59900000D02*
X202650000Y-59900000D01*
X223000000Y-51050000D02*
X223000000Y-59900000D01*
X202650000Y-51050000D02*
X223000000Y-51050000D01*
X202650000Y-59900000D02*
X202650000Y-51050000D01*
X202400000Y-60155000D02*
X202400000Y-50805000D01*
X223260000Y-60155000D02*
X202400000Y-60155000D01*
X223260000Y-50805000D02*
X223260000Y-60155000D01*
X202400000Y-50805000D02*
X223260000Y-50805000D01*
%TO.C,R1*%
X201880000Y-84190000D02*
X204620000Y-84190000D01*
X204620000Y-84190000D02*
X204620000Y-77650000D01*
X204620000Y-77650000D02*
X201880000Y-77650000D01*
X201880000Y-77650000D02*
X201880000Y-84190000D01*
X203250000Y-84960000D02*
X203250000Y-84190000D01*
X203250000Y-76880000D02*
X203250000Y-77650000D01*
%TO.C,R2*%
X203250000Y-89880000D02*
X203250000Y-90650000D01*
X203250000Y-97960000D02*
X203250000Y-97190000D01*
X201880000Y-90650000D02*
X201880000Y-97190000D01*
X204620000Y-90650000D02*
X201880000Y-90650000D01*
X204620000Y-97190000D02*
X204620000Y-90650000D01*
X201880000Y-97190000D02*
X204620000Y-97190000D01*
%TO.C,R3*%
X223370000Y-88310000D02*
X220630000Y-88310000D01*
X220630000Y-88310000D02*
X220630000Y-94850000D01*
X220630000Y-94850000D02*
X223370000Y-94850000D01*
X223370000Y-94850000D02*
X223370000Y-88310000D01*
X222000000Y-87540000D02*
X222000000Y-88310000D01*
X222000000Y-95620000D02*
X222000000Y-94850000D01*
%TO.C,R4*%
X222000000Y-100880000D02*
X222000000Y-101650000D01*
X222000000Y-108960000D02*
X222000000Y-108190000D01*
X220630000Y-101650000D02*
X220630000Y-108190000D01*
X223370000Y-101650000D02*
X220630000Y-101650000D01*
X223370000Y-108190000D02*
X223370000Y-101650000D01*
X220630000Y-108190000D02*
X223370000Y-108190000D01*
%TO.C,U1*%
X211560000Y-72170000D02*
X210310000Y-72170000D01*
X210310000Y-72170000D02*
X210310000Y-82450000D01*
X210310000Y-82450000D02*
X214810000Y-82450000D01*
X214810000Y-82450000D02*
X214810000Y-72170000D01*
X214810000Y-72170000D02*
X213560000Y-72170000D01*
X207310000Y-72110000D02*
X207310000Y-82510000D01*
X207310000Y-82510000D02*
X217810000Y-82510000D01*
X217810000Y-82510000D02*
X217810000Y-72110000D01*
X217810000Y-72110000D02*
X207310000Y-72110000D01*
X213560000Y-72170000D02*
G75*
G02*
X211560000Y-72170000I-1000000J0D01*
G01*
%TO.C,C1*%
D13*
X218875000Y-70917857D02*
X218839285Y-70953571D01*
X218732142Y-70989285D01*
X218660714Y-70989285D01*
X218553571Y-70953571D01*
X218482142Y-70882142D01*
X218446428Y-70810714D01*
X218410714Y-70667857D01*
X218410714Y-70560714D01*
X218446428Y-70417857D01*
X218482142Y-70346428D01*
X218553571Y-70275000D01*
X218660714Y-70239285D01*
X218732142Y-70239285D01*
X218839285Y-70275000D01*
X218875000Y-70310714D01*
X219589285Y-70989285D02*
X219160714Y-70989285D01*
X219375000Y-70989285D02*
X219375000Y-70239285D01*
X219303571Y-70346428D01*
X219232142Y-70417857D01*
X219160714Y-70453571D01*
X213303571Y-71089285D02*
X212875000Y-71089285D01*
X213089285Y-71089285D02*
X213089285Y-70339285D01*
X213017857Y-70446428D01*
X212946428Y-70517857D01*
X212875000Y-70553571D01*
X213767857Y-70339285D02*
X213839285Y-70339285D01*
X213910714Y-70375000D01*
X213946428Y-70410714D01*
X213982142Y-70482142D01*
X214017857Y-70625000D01*
X214017857Y-70803571D01*
X213982142Y-70946428D01*
X213946428Y-71017857D01*
X213910714Y-71053571D01*
X213839285Y-71089285D01*
X213767857Y-71089285D01*
X213696428Y-71053571D01*
X213660714Y-71017857D01*
X213625000Y-70946428D01*
X213589285Y-70803571D01*
X213589285Y-70625000D01*
X213625000Y-70482142D01*
X213660714Y-70410714D01*
X213696428Y-70375000D01*
X213767857Y-70339285D01*
X214660714Y-70589285D02*
X214660714Y-71089285D01*
X214339285Y-70589285D02*
X214339285Y-70982142D01*
X214375000Y-71053571D01*
X214446428Y-71089285D01*
X214553571Y-71089285D01*
X214625000Y-71053571D01*
X214660714Y-71017857D01*
X214910714Y-70589285D02*
X215196428Y-70589285D01*
X215017857Y-71089285D02*
X215017857Y-70446428D01*
X215053571Y-70375000D01*
X215125000Y-70339285D01*
X215196428Y-70339285D01*
%TO.C,C2*%
X206125000Y-61867857D02*
X206089285Y-61903571D01*
X205982142Y-61939285D01*
X205910714Y-61939285D01*
X205803571Y-61903571D01*
X205732142Y-61832142D01*
X205696428Y-61760714D01*
X205660714Y-61617857D01*
X205660714Y-61510714D01*
X205696428Y-61367857D01*
X205732142Y-61296428D01*
X205803571Y-61225000D01*
X205910714Y-61189285D01*
X205982142Y-61189285D01*
X206089285Y-61225000D01*
X206125000Y-61260714D01*
X206410714Y-61260714D02*
X206446428Y-61225000D01*
X206517857Y-61189285D01*
X206696428Y-61189285D01*
X206767857Y-61225000D01*
X206803571Y-61260714D01*
X206839285Y-61332142D01*
X206839285Y-61403571D01*
X206803571Y-61510714D01*
X206375000Y-61939285D01*
X206839285Y-61939285D01*
X210553571Y-61839285D02*
X210125000Y-61839285D01*
X210339285Y-61839285D02*
X210339285Y-61089285D01*
X210267857Y-61196428D01*
X210196428Y-61267857D01*
X210125000Y-61303571D01*
X211017857Y-61089285D02*
X211089285Y-61089285D01*
X211160714Y-61125000D01*
X211196428Y-61160714D01*
X211232142Y-61232142D01*
X211267857Y-61375000D01*
X211267857Y-61553571D01*
X211232142Y-61696428D01*
X211196428Y-61767857D01*
X211160714Y-61803571D01*
X211089285Y-61839285D01*
X211017857Y-61839285D01*
X210946428Y-61803571D01*
X210910714Y-61767857D01*
X210875000Y-61696428D01*
X210839285Y-61553571D01*
X210839285Y-61375000D01*
X210875000Y-61232142D01*
X210910714Y-61160714D01*
X210946428Y-61125000D01*
X211017857Y-61089285D01*
X211910714Y-61339285D02*
X211910714Y-61839285D01*
X211589285Y-61339285D02*
X211589285Y-61732142D01*
X211625000Y-61803571D01*
X211696428Y-61839285D01*
X211803571Y-61839285D01*
X211875000Y-61803571D01*
X211910714Y-61767857D01*
X212160714Y-61339285D02*
X212446428Y-61339285D01*
X212267857Y-61839285D02*
X212267857Y-61196428D01*
X212303571Y-61125000D01*
X212375000Y-61089285D01*
X212446428Y-61089285D01*
%TO.C,C3*%
X219517857Y-78625000D02*
X219553571Y-78660714D01*
X219589285Y-78767857D01*
X219589285Y-78839285D01*
X219553571Y-78946428D01*
X219482142Y-79017857D01*
X219410714Y-79053571D01*
X219267857Y-79089285D01*
X219160714Y-79089285D01*
X219017857Y-79053571D01*
X218946428Y-79017857D01*
X218875000Y-78946428D01*
X218839285Y-78839285D01*
X218839285Y-78767857D01*
X218875000Y-78660714D01*
X218910714Y-78625000D01*
X218839285Y-78375000D02*
X218839285Y-77910714D01*
X219125000Y-78160714D01*
X219125000Y-78053571D01*
X219160714Y-77982142D01*
X219196428Y-77946428D01*
X219267857Y-77910714D01*
X219446428Y-77910714D01*
X219517857Y-77946428D01*
X219553571Y-77982142D01*
X219589285Y-78053571D01*
X219589285Y-78267857D01*
X219553571Y-78339285D01*
X219517857Y-78375000D01*
X219589285Y-76053571D02*
X219589285Y-76482142D01*
X219589285Y-76267857D02*
X218839285Y-76267857D01*
X218946428Y-76339285D01*
X219017857Y-76410714D01*
X219053571Y-76482142D01*
X218839285Y-75589285D02*
X218839285Y-75517857D01*
X218875000Y-75446428D01*
X218910714Y-75410714D01*
X218982142Y-75375000D01*
X219125000Y-75339285D01*
X219303571Y-75339285D01*
X219446428Y-75375000D01*
X219517857Y-75410714D01*
X219553571Y-75446428D01*
X219589285Y-75517857D01*
X219589285Y-75589285D01*
X219553571Y-75660714D01*
X219517857Y-75696428D01*
X219446428Y-75732142D01*
X219303571Y-75767857D01*
X219125000Y-75767857D01*
X218982142Y-75732142D01*
X218910714Y-75696428D01*
X218875000Y-75660714D01*
X218839285Y-75589285D01*
X218839285Y-74875000D02*
X218839285Y-74803571D01*
X218875000Y-74732142D01*
X218910714Y-74696428D01*
X218982142Y-74660714D01*
X219125000Y-74625000D01*
X219303571Y-74625000D01*
X219446428Y-74660714D01*
X219517857Y-74696428D01*
X219553571Y-74732142D01*
X219589285Y-74803571D01*
X219589285Y-74875000D01*
X219553571Y-74946428D01*
X219517857Y-74982142D01*
X219446428Y-75017857D01*
X219303571Y-75053571D01*
X219125000Y-75053571D01*
X218982142Y-75017857D01*
X218910714Y-74982142D01*
X218875000Y-74946428D01*
X218839285Y-74875000D01*
X219089285Y-74303571D02*
X219589285Y-74303571D01*
X219160714Y-74303571D02*
X219125000Y-74267857D01*
X219089285Y-74196428D01*
X219089285Y-74089285D01*
X219125000Y-74017857D01*
X219196428Y-73982142D01*
X219589285Y-73982142D01*
X219089285Y-73732142D02*
X219089285Y-73446428D01*
X219589285Y-73625000D02*
X218946428Y-73625000D01*
X218875000Y-73589285D01*
X218839285Y-73517857D01*
X218839285Y-73446428D01*
%TO.C,C4*%
X223767857Y-80875000D02*
X223803571Y-80910714D01*
X223839285Y-81017857D01*
X223839285Y-81089285D01*
X223803571Y-81196428D01*
X223732142Y-81267857D01*
X223660714Y-81303571D01*
X223517857Y-81339285D01*
X223410714Y-81339285D01*
X223267857Y-81303571D01*
X223196428Y-81267857D01*
X223125000Y-81196428D01*
X223089285Y-81089285D01*
X223089285Y-81017857D01*
X223125000Y-80910714D01*
X223160714Y-80875000D01*
X223339285Y-80232142D02*
X223839285Y-80232142D01*
X223053571Y-80410714D02*
X223589285Y-80589285D01*
X223589285Y-80125000D01*
X223839285Y-85303571D02*
X223839285Y-85732142D01*
X223839285Y-85517857D02*
X223089285Y-85517857D01*
X223196428Y-85589285D01*
X223267857Y-85660714D01*
X223303571Y-85732142D01*
X223089285Y-84839285D02*
X223089285Y-84767857D01*
X223125000Y-84696428D01*
X223160714Y-84660714D01*
X223232142Y-84625000D01*
X223375000Y-84589285D01*
X223553571Y-84589285D01*
X223696428Y-84625000D01*
X223767857Y-84660714D01*
X223803571Y-84696428D01*
X223839285Y-84767857D01*
X223839285Y-84839285D01*
X223803571Y-84910714D01*
X223767857Y-84946428D01*
X223696428Y-84982142D01*
X223553571Y-85017857D01*
X223375000Y-85017857D01*
X223232142Y-84982142D01*
X223160714Y-84946428D01*
X223125000Y-84910714D01*
X223089285Y-84839285D01*
X223089285Y-84125000D02*
X223089285Y-84053571D01*
X223125000Y-83982142D01*
X223160714Y-83946428D01*
X223232142Y-83910714D01*
X223375000Y-83875000D01*
X223553571Y-83875000D01*
X223696428Y-83910714D01*
X223767857Y-83946428D01*
X223803571Y-83982142D01*
X223839285Y-84053571D01*
X223839285Y-84125000D01*
X223803571Y-84196428D01*
X223767857Y-84232142D01*
X223696428Y-84267857D01*
X223553571Y-84303571D01*
X223375000Y-84303571D01*
X223232142Y-84267857D01*
X223160714Y-84232142D01*
X223125000Y-84196428D01*
X223089285Y-84125000D01*
X223339285Y-83553571D02*
X223839285Y-83553571D01*
X223410714Y-83553571D02*
X223375000Y-83517857D01*
X223339285Y-83446428D01*
X223339285Y-83339285D01*
X223375000Y-83267857D01*
X223446428Y-83232142D01*
X223839285Y-83232142D01*
X223339285Y-82982142D02*
X223339285Y-82696428D01*
X223839285Y-82875000D02*
X223196428Y-82875000D01*
X223125000Y-82839285D01*
X223089285Y-82767857D01*
X223089285Y-82696428D01*
%TO.C,D1*%
X221184285Y-65858571D02*
X220434285Y-65858571D01*
X220434285Y-65680000D01*
X220470000Y-65572857D01*
X220541428Y-65501428D01*
X220612857Y-65465714D01*
X220755714Y-65430000D01*
X220862857Y-65430000D01*
X221005714Y-65465714D01*
X221077142Y-65501428D01*
X221148571Y-65572857D01*
X221184285Y-65680000D01*
X221184285Y-65858571D01*
X221184285Y-64715714D02*
X221184285Y-65144285D01*
X221184285Y-64930000D02*
X220434285Y-64930000D01*
X220541428Y-65001428D01*
X220612857Y-65072857D01*
X220648571Y-65144285D01*
X223089285Y-67547142D02*
X223089285Y-67975714D01*
X223089285Y-67761428D02*
X222339285Y-67761428D01*
X222446428Y-67832857D01*
X222517857Y-67904285D01*
X222553571Y-67975714D01*
X223089285Y-67225714D02*
X222339285Y-67225714D01*
X223089285Y-66797142D01*
X222339285Y-66797142D01*
X222589285Y-66118571D02*
X223089285Y-66118571D01*
X222303571Y-66297142D02*
X222839285Y-66475714D01*
X222839285Y-66011428D01*
X223089285Y-65332857D02*
X223089285Y-65761428D01*
X223089285Y-65547142D02*
X222339285Y-65547142D01*
X222446428Y-65618571D01*
X222517857Y-65690000D01*
X222553571Y-65761428D01*
X222589285Y-64690000D02*
X223089285Y-64690000D01*
X222303571Y-64868571D02*
X222839285Y-65047142D01*
X222839285Y-64582857D01*
X222660714Y-64190000D02*
X222625000Y-64261428D01*
X222589285Y-64297142D01*
X222517857Y-64332857D01*
X222482142Y-64332857D01*
X222410714Y-64297142D01*
X222375000Y-64261428D01*
X222339285Y-64190000D01*
X222339285Y-64047142D01*
X222375000Y-63975714D01*
X222410714Y-63940000D01*
X222482142Y-63904285D01*
X222517857Y-63904285D01*
X222589285Y-63940000D01*
X222625000Y-63975714D01*
X222660714Y-64047142D01*
X222660714Y-64190000D01*
X222696428Y-64261428D01*
X222732142Y-64297142D01*
X222803571Y-64332857D01*
X222946428Y-64332857D01*
X223017857Y-64297142D01*
X223053571Y-64261428D01*
X223089285Y-64190000D01*
X223089285Y-64047142D01*
X223053571Y-63975714D01*
X223017857Y-63940000D01*
X222946428Y-63904285D01*
X222803571Y-63904285D01*
X222732142Y-63940000D01*
X222696428Y-63975714D01*
X222660714Y-64047142D01*
X221184285Y-69946428D02*
X220434285Y-69946428D01*
X221184285Y-69517857D02*
X220755714Y-69839285D01*
X220434285Y-69517857D02*
X220862857Y-69946428D01*
%TO.C,D2*%
X204744285Y-67248571D02*
X203994285Y-67248571D01*
X203994285Y-67070000D01*
X204030000Y-66962857D01*
X204101428Y-66891428D01*
X204172857Y-66855714D01*
X204315714Y-66820000D01*
X204422857Y-66820000D01*
X204565714Y-66855714D01*
X204637142Y-66891428D01*
X204708571Y-66962857D01*
X204744285Y-67070000D01*
X204744285Y-67248571D01*
X204065714Y-66534285D02*
X204030000Y-66498571D01*
X203994285Y-66427142D01*
X203994285Y-66248571D01*
X204030000Y-66177142D01*
X204065714Y-66141428D01*
X204137142Y-66105714D01*
X204208571Y-66105714D01*
X204315714Y-66141428D01*
X204744285Y-66570000D01*
X204744285Y-66105714D01*
X204744285Y-62446428D02*
X203994285Y-62446428D01*
X204744285Y-62017857D02*
X204315714Y-62339285D01*
X203994285Y-62017857D02*
X204422857Y-62446428D01*
X202839285Y-67667142D02*
X202839285Y-68095714D01*
X202839285Y-67881428D02*
X202089285Y-67881428D01*
X202196428Y-67952857D01*
X202267857Y-68024285D01*
X202303571Y-68095714D01*
X202839285Y-67345714D02*
X202089285Y-67345714D01*
X202839285Y-66917142D01*
X202089285Y-66917142D01*
X202339285Y-66238571D02*
X202839285Y-66238571D01*
X202053571Y-66417142D02*
X202589285Y-66595714D01*
X202589285Y-66131428D01*
X202839285Y-65452857D02*
X202839285Y-65881428D01*
X202839285Y-65667142D02*
X202089285Y-65667142D01*
X202196428Y-65738571D01*
X202267857Y-65810000D01*
X202303571Y-65881428D01*
X202339285Y-64810000D02*
X202839285Y-64810000D01*
X202053571Y-64988571D02*
X202589285Y-65167142D01*
X202589285Y-64702857D01*
X202410714Y-64310000D02*
X202375000Y-64381428D01*
X202339285Y-64417142D01*
X202267857Y-64452857D01*
X202232142Y-64452857D01*
X202160714Y-64417142D01*
X202125000Y-64381428D01*
X202089285Y-64310000D01*
X202089285Y-64167142D01*
X202125000Y-64095714D01*
X202160714Y-64060000D01*
X202232142Y-64024285D01*
X202267857Y-64024285D01*
X202339285Y-64060000D01*
X202375000Y-64095714D01*
X202410714Y-64167142D01*
X202410714Y-64310000D01*
X202446428Y-64381428D01*
X202482142Y-64417142D01*
X202553571Y-64452857D01*
X202696428Y-64452857D01*
X202767857Y-64417142D01*
X202803571Y-64381428D01*
X202839285Y-64310000D01*
X202839285Y-64167142D01*
X202803571Y-64095714D01*
X202767857Y-64060000D01*
X202696428Y-64024285D01*
X202553571Y-64024285D01*
X202482142Y-64060000D01*
X202446428Y-64095714D01*
X202410714Y-64167142D01*
%TO.C,J3*%
X213009285Y-62850000D02*
X213545000Y-62850000D01*
X213652142Y-62885714D01*
X213723571Y-62957142D01*
X213759285Y-63064285D01*
X213759285Y-63135714D01*
X213009285Y-62564285D02*
X213009285Y-62100000D01*
X213295000Y-62350000D01*
X213295000Y-62242857D01*
X213330714Y-62171428D01*
X213366428Y-62135714D01*
X213437857Y-62100000D01*
X213616428Y-62100000D01*
X213687857Y-62135714D01*
X213723571Y-62171428D01*
X213759285Y-62242857D01*
X213759285Y-62457142D01*
X213723571Y-62528571D01*
X213687857Y-62564285D01*
X224321428Y-57511904D02*
X224321428Y-56750000D01*
X224702380Y-57130952D02*
X223940476Y-57130952D01*
X224702380Y-55750000D02*
X224702380Y-56321428D01*
X224702380Y-56035714D02*
X223702380Y-56035714D01*
X223845238Y-56130952D01*
X223940476Y-56226190D01*
X223988095Y-56321428D01*
X223797619Y-55369047D02*
X223750000Y-55321428D01*
X223702380Y-55226190D01*
X223702380Y-54988095D01*
X223750000Y-54892857D01*
X223797619Y-54845238D01*
X223892857Y-54797619D01*
X223988095Y-54797619D01*
X224130952Y-54845238D01*
X224702380Y-55416666D01*
X224702380Y-54797619D01*
X223702380Y-54511904D02*
X224702380Y-54178571D01*
X223702380Y-53845238D01*
X200321428Y-57511904D02*
X200321428Y-56750000D01*
X200702380Y-55750000D02*
X200702380Y-56321428D01*
X200702380Y-56035714D02*
X199702380Y-56035714D01*
X199845238Y-56130952D01*
X199940476Y-56226190D01*
X199988095Y-56321428D01*
X199797619Y-55369047D02*
X199750000Y-55321428D01*
X199702380Y-55226190D01*
X199702380Y-54988095D01*
X199750000Y-54892857D01*
X199797619Y-54845238D01*
X199892857Y-54797619D01*
X199988095Y-54797619D01*
X200130952Y-54845238D01*
X200702380Y-55416666D01*
X200702380Y-54797619D01*
X199702380Y-54511904D02*
X200702380Y-54178571D01*
X199702380Y-53845238D01*
X202202380Y-58821428D02*
X201726190Y-59154761D01*
X202202380Y-59392857D02*
X201202380Y-59392857D01*
X201202380Y-59011904D01*
X201250000Y-58916666D01*
X201297619Y-58869047D01*
X201392857Y-58821428D01*
X201535714Y-58821428D01*
X201630952Y-58869047D01*
X201678571Y-58916666D01*
X201726190Y-59011904D01*
X201726190Y-59392857D01*
X201678571Y-58392857D02*
X201678571Y-58059523D01*
X202202380Y-57916666D02*
X202202380Y-58392857D01*
X201202380Y-58392857D01*
X201202380Y-57916666D01*
X202202380Y-57488095D02*
X201202380Y-57488095D01*
X201202380Y-57250000D01*
X201250000Y-57107142D01*
X201345238Y-57011904D01*
X201440476Y-56964285D01*
X201630952Y-56916666D01*
X201773809Y-56916666D01*
X201964285Y-56964285D01*
X202059523Y-57011904D01*
X202154761Y-57107142D01*
X202202380Y-57250000D01*
X202202380Y-57488095D01*
X202154761Y-55773809D02*
X202202380Y-55630952D01*
X202202380Y-55392857D01*
X202154761Y-55297619D01*
X202107142Y-55250000D01*
X202011904Y-55202380D01*
X201916666Y-55202380D01*
X201821428Y-55250000D01*
X201773809Y-55297619D01*
X201726190Y-55392857D01*
X201678571Y-55583333D01*
X201630952Y-55678571D01*
X201583333Y-55726190D01*
X201488095Y-55773809D01*
X201392857Y-55773809D01*
X201297619Y-55726190D01*
X201250000Y-55678571D01*
X201202380Y-55583333D01*
X201202380Y-55345238D01*
X201250000Y-55202380D01*
X201202380Y-54916666D02*
X201202380Y-54345238D01*
X202202380Y-54630952D02*
X201202380Y-54630952D01*
X202202380Y-53440476D02*
X201726190Y-53773809D01*
X202202380Y-54011904D02*
X201202380Y-54011904D01*
X201202380Y-53630952D01*
X201250000Y-53535714D01*
X201297619Y-53488095D01*
X201392857Y-53440476D01*
X201535714Y-53440476D01*
X201630952Y-53488095D01*
X201678571Y-53535714D01*
X201726190Y-53630952D01*
X201726190Y-54011904D01*
X202202380Y-53011904D02*
X201202380Y-53011904D01*
X202202380Y-52535714D02*
X201202380Y-52535714D01*
X201202380Y-52154761D01*
X201250000Y-52059523D01*
X201297619Y-52011904D01*
X201392857Y-51964285D01*
X201535714Y-51964285D01*
X201630952Y-52011904D01*
X201678571Y-52059523D01*
X201726190Y-52154761D01*
X201726190Y-52535714D01*
X201678571Y-51535714D02*
X201678571Y-51202380D01*
X202202380Y-51059523D02*
X202202380Y-51535714D01*
X201202380Y-51535714D01*
X201202380Y-51059523D01*
%TO.C,R1*%
X201219285Y-81045000D02*
X200862142Y-81295000D01*
X201219285Y-81473571D02*
X200469285Y-81473571D01*
X200469285Y-81187857D01*
X200505000Y-81116428D01*
X200540714Y-81080714D01*
X200612142Y-81045000D01*
X200719285Y-81045000D01*
X200790714Y-81080714D01*
X200826428Y-81116428D01*
X200862142Y-81187857D01*
X200862142Y-81473571D01*
X201219285Y-80330714D02*
X201219285Y-80759285D01*
X201219285Y-80545000D02*
X200469285Y-80545000D01*
X200576428Y-80616428D01*
X200647857Y-80687857D01*
X200683571Y-80759285D01*
X203589285Y-83973571D02*
X203589285Y-84402142D01*
X203589285Y-84187857D02*
X202839285Y-84187857D01*
X202946428Y-84259285D01*
X203017857Y-84330714D01*
X203053571Y-84402142D01*
X202839285Y-83509285D02*
X202839285Y-83437857D01*
X202875000Y-83366428D01*
X202910714Y-83330714D01*
X202982142Y-83295000D01*
X203125000Y-83259285D01*
X203303571Y-83259285D01*
X203446428Y-83295000D01*
X203517857Y-83330714D01*
X203553571Y-83366428D01*
X203589285Y-83437857D01*
X203589285Y-83509285D01*
X203553571Y-83580714D01*
X203517857Y-83616428D01*
X203446428Y-83652142D01*
X203303571Y-83687857D01*
X203125000Y-83687857D01*
X202982142Y-83652142D01*
X202910714Y-83616428D01*
X202875000Y-83580714D01*
X202839285Y-83509285D01*
X203589285Y-82937857D02*
X202839285Y-82937857D01*
X203589285Y-82509285D02*
X203160714Y-82830714D01*
X202839285Y-82509285D02*
X203267857Y-82937857D01*
X203303571Y-81616428D02*
X203303571Y-81045000D01*
X203553571Y-80152142D02*
X203589285Y-80045000D01*
X203589285Y-79866428D01*
X203553571Y-79795000D01*
X203517857Y-79759285D01*
X203446428Y-79723571D01*
X203375000Y-79723571D01*
X203303571Y-79759285D01*
X203267857Y-79795000D01*
X203232142Y-79866428D01*
X203196428Y-80009285D01*
X203160714Y-80080714D01*
X203125000Y-80116428D01*
X203053571Y-80152142D01*
X202982142Y-80152142D01*
X202910714Y-80116428D01*
X202875000Y-80080714D01*
X202839285Y-80009285D01*
X202839285Y-79830714D01*
X202875000Y-79723571D01*
X203589285Y-79402142D02*
X202839285Y-79402142D01*
X203303571Y-79330714D02*
X203589285Y-79116428D01*
X203089285Y-79116428D02*
X203375000Y-79402142D01*
X203589285Y-78795000D02*
X203089285Y-78795000D01*
X202839285Y-78795000D02*
X202875000Y-78830714D01*
X202910714Y-78795000D01*
X202875000Y-78759285D01*
X202839285Y-78795000D01*
X202910714Y-78795000D01*
X203089285Y-78437857D02*
X203839285Y-78437857D01*
X203125000Y-78437857D02*
X203089285Y-78366428D01*
X203089285Y-78223571D01*
X203125000Y-78152142D01*
X203160714Y-78116428D01*
X203232142Y-78080714D01*
X203446428Y-78080714D01*
X203517857Y-78116428D01*
X203553571Y-78152142D01*
X203589285Y-78223571D01*
X203589285Y-78366428D01*
X203553571Y-78437857D01*
X203517857Y-77652142D02*
X203553571Y-77616428D01*
X203589285Y-77652142D01*
X203553571Y-77687857D01*
X203517857Y-77652142D01*
X203589285Y-77652142D01*
X202875000Y-77795000D02*
X202839285Y-77723571D01*
X202839285Y-77545000D01*
X202875000Y-77473571D01*
X202946428Y-77437857D01*
X203017857Y-77437857D01*
X203089285Y-77473571D01*
X203125000Y-77509285D01*
X203160714Y-77580714D01*
X203196428Y-77616428D01*
X203267857Y-77652142D01*
X203303571Y-77652142D01*
%TO.C,R2*%
X201219285Y-94045000D02*
X200862142Y-94295000D01*
X201219285Y-94473571D02*
X200469285Y-94473571D01*
X200469285Y-94187857D01*
X200505000Y-94116428D01*
X200540714Y-94080714D01*
X200612142Y-94045000D01*
X200719285Y-94045000D01*
X200790714Y-94080714D01*
X200826428Y-94116428D01*
X200862142Y-94187857D01*
X200862142Y-94473571D01*
X200540714Y-93759285D02*
X200505000Y-93723571D01*
X200469285Y-93652142D01*
X200469285Y-93473571D01*
X200505000Y-93402142D01*
X200540714Y-93366428D01*
X200612142Y-93330714D01*
X200683571Y-93330714D01*
X200790714Y-93366428D01*
X201219285Y-93795000D01*
X201219285Y-93330714D01*
X203589285Y-94437857D02*
X203589285Y-94866428D01*
X203589285Y-94652142D02*
X202839285Y-94652142D01*
X202946428Y-94723571D01*
X203017857Y-94795000D01*
X203053571Y-94866428D01*
X202839285Y-93973571D02*
X202839285Y-93902142D01*
X202875000Y-93830714D01*
X202910714Y-93795000D01*
X202982142Y-93759285D01*
X203125000Y-93723571D01*
X203303571Y-93723571D01*
X203446428Y-93759285D01*
X203517857Y-93795000D01*
X203553571Y-93830714D01*
X203589285Y-93902142D01*
X203589285Y-93973571D01*
X203553571Y-94045000D01*
X203517857Y-94080714D01*
X203446428Y-94116428D01*
X203303571Y-94152142D01*
X203125000Y-94152142D01*
X202982142Y-94116428D01*
X202910714Y-94080714D01*
X202875000Y-94045000D01*
X202839285Y-93973571D01*
X203589285Y-93402142D02*
X202839285Y-93402142D01*
X203589285Y-92973571D02*
X203160714Y-93295000D01*
X202839285Y-92973571D02*
X203267857Y-93402142D01*
%TO.C,R3*%
X224709285Y-91705000D02*
X224352142Y-91955000D01*
X224709285Y-92133571D02*
X223959285Y-92133571D01*
X223959285Y-91847857D01*
X223995000Y-91776428D01*
X224030714Y-91740714D01*
X224102142Y-91705000D01*
X224209285Y-91705000D01*
X224280714Y-91740714D01*
X224316428Y-91776428D01*
X224352142Y-91847857D01*
X224352142Y-92133571D01*
X223959285Y-91455000D02*
X223959285Y-90990714D01*
X224245000Y-91240714D01*
X224245000Y-91133571D01*
X224280714Y-91062142D01*
X224316428Y-91026428D01*
X224387857Y-90990714D01*
X224566428Y-90990714D01*
X224637857Y-91026428D01*
X224673571Y-91062142D01*
X224709285Y-91133571D01*
X224709285Y-91347857D01*
X224673571Y-91419285D01*
X224637857Y-91455000D01*
X222339285Y-91740714D02*
X222339285Y-92169285D01*
X222339285Y-91955000D02*
X221589285Y-91955000D01*
X221696428Y-92026428D01*
X221767857Y-92097857D01*
X221803571Y-92169285D01*
X222339285Y-91419285D02*
X221589285Y-91419285D01*
X222339285Y-90990714D02*
X221910714Y-91312142D01*
X221589285Y-90990714D02*
X222017857Y-91419285D01*
%TO.C,R4*%
X219969285Y-105045000D02*
X219612142Y-105295000D01*
X219969285Y-105473571D02*
X219219285Y-105473571D01*
X219219285Y-105187857D01*
X219255000Y-105116428D01*
X219290714Y-105080714D01*
X219362142Y-105045000D01*
X219469285Y-105045000D01*
X219540714Y-105080714D01*
X219576428Y-105116428D01*
X219612142Y-105187857D01*
X219612142Y-105473571D01*
X219469285Y-104402142D02*
X219969285Y-104402142D01*
X219183571Y-104580714D02*
X219719285Y-104759285D01*
X219719285Y-104295000D01*
X222339285Y-106866428D02*
X222339285Y-107295000D01*
X222339285Y-107080714D02*
X221589285Y-107080714D01*
X221696428Y-107152142D01*
X221767857Y-107223571D01*
X221803571Y-107295000D01*
X222339285Y-106545000D02*
X221589285Y-106545000D01*
X222339285Y-106116428D02*
X221910714Y-106437857D01*
X221589285Y-106116428D02*
X222017857Y-106545000D01*
X222303571Y-105259285D02*
X222339285Y-105152142D01*
X222339285Y-104973571D01*
X222303571Y-104902142D01*
X222267857Y-104866428D01*
X222196428Y-104830714D01*
X222125000Y-104830714D01*
X222053571Y-104866428D01*
X222017857Y-104902142D01*
X221982142Y-104973571D01*
X221946428Y-105116428D01*
X221910714Y-105187857D01*
X221875000Y-105223571D01*
X221803571Y-105259285D01*
X221732142Y-105259285D01*
X221660714Y-105223571D01*
X221625000Y-105187857D01*
X221589285Y-105116428D01*
X221589285Y-104937857D01*
X221625000Y-104830714D01*
X222339285Y-104509285D02*
X221589285Y-104509285D01*
X222053571Y-104437857D02*
X222339285Y-104223571D01*
X221839285Y-104223571D02*
X222125000Y-104509285D01*
X222339285Y-103902142D02*
X221839285Y-103902142D01*
X221589285Y-103902142D02*
X221625000Y-103937857D01*
X221660714Y-103902142D01*
X221625000Y-103866428D01*
X221589285Y-103902142D01*
X221660714Y-103902142D01*
X221839285Y-103545000D02*
X222589285Y-103545000D01*
X221875000Y-103545000D02*
X221839285Y-103473571D01*
X221839285Y-103330714D01*
X221875000Y-103259285D01*
X221910714Y-103223571D01*
X221982142Y-103187857D01*
X222196428Y-103187857D01*
X222267857Y-103223571D01*
X222303571Y-103259285D01*
X222339285Y-103330714D01*
X222339285Y-103473571D01*
X222303571Y-103545000D01*
X222267857Y-102759285D02*
X222303571Y-102723571D01*
X222339285Y-102759285D01*
X222303571Y-102795000D01*
X222267857Y-102759285D01*
X222339285Y-102759285D01*
X221625000Y-102902142D02*
X221589285Y-102830714D01*
X221589285Y-102652142D01*
X221625000Y-102580714D01*
X221696428Y-102545000D01*
X221767857Y-102545000D01*
X221839285Y-102580714D01*
X221875000Y-102616428D01*
X221910714Y-102687857D01*
X221946428Y-102723571D01*
X222017857Y-102759285D01*
X222053571Y-102759285D01*
%TO.C,U1*%
X211988571Y-70759285D02*
X211988571Y-71366428D01*
X212024285Y-71437857D01*
X212060000Y-71473571D01*
X212131428Y-71509285D01*
X212274285Y-71509285D01*
X212345714Y-71473571D01*
X212381428Y-71437857D01*
X212417142Y-71366428D01*
X212417142Y-70759285D01*
X213167142Y-71509285D02*
X212738571Y-71509285D01*
X212952857Y-71509285D02*
X212952857Y-70759285D01*
X212881428Y-70866428D01*
X212810000Y-70937857D01*
X212738571Y-70973571D01*
X212149285Y-78899285D02*
X212149285Y-78470714D01*
X212899285Y-78685000D02*
X212149285Y-78685000D01*
X212899285Y-77863571D02*
X212899285Y-78220714D01*
X212149285Y-78220714D01*
X212149285Y-77470714D02*
X212149285Y-77399285D01*
X212185000Y-77327857D01*
X212220714Y-77292142D01*
X212292142Y-77256428D01*
X212435000Y-77220714D01*
X212613571Y-77220714D01*
X212756428Y-77256428D01*
X212827857Y-77292142D01*
X212863571Y-77327857D01*
X212899285Y-77399285D01*
X212899285Y-77470714D01*
X212863571Y-77542142D01*
X212827857Y-77577857D01*
X212756428Y-77613571D01*
X212613571Y-77649285D01*
X212435000Y-77649285D01*
X212292142Y-77613571D01*
X212220714Y-77577857D01*
X212185000Y-77542142D01*
X212149285Y-77470714D01*
X212149285Y-76970714D02*
X212149285Y-76470714D01*
X212899285Y-76792142D01*
X212220714Y-76220714D02*
X212185000Y-76185000D01*
X212149285Y-76113571D01*
X212149285Y-75935000D01*
X212185000Y-75863571D01*
X212220714Y-75827857D01*
X212292142Y-75792142D01*
X212363571Y-75792142D01*
X212470714Y-75827857D01*
X212899285Y-76256428D01*
X212899285Y-75792142D01*
%TD*%
M02*
