%TF.GenerationSoftware,KiCad,Pcbnew,(5.1.12-1-10_14)*%
%TF.CreationDate,2023-08-05T21:53:33+02:00*%
%TF.ProjectId,niga,6e696761-2e6b-4696-9361-645f70636258,rev?*%
%TF.SameCoordinates,Original*%
%TF.FileFunction,Soldermask,Bot*%
%TF.FilePolarity,Negative*%
%FSLAX46Y46*%
G04 Gerber Fmt 4.6, Leading zero omitted, Abs format (unit mm)*
G04 Created by KiCad (PCBNEW (5.1.12-1-10_14)) date 2023-08-05 21:53:33*
%MOMM*%
%LPD*%
G01*
G04 APERTURE LIST*
%ADD10R,1.600000X1.600000*%
%ADD11C,1.600000*%
%ADD12O,1.600000X1.600000*%
%ADD13O,1.740000X2.200000*%
%ADD14R,1.727200X1.727200*%
%ADD15O,1.727200X1.727200*%
%ADD16R,2.400000X1.600000*%
%ADD17O,2.400000X1.600000*%
G04 APERTURE END LIST*
D10*
%TO.C,C1*%
X218000000Y-66250000D03*
D11*
X215500000Y-66250000D03*
%TD*%
%TO.C,C2*%
X209750000Y-66000000D03*
D10*
X207250000Y-66000000D03*
%TD*%
D11*
%TO.C,C3*%
X221250000Y-78000000D03*
X221250000Y-75500000D03*
%TD*%
%TO.C,C4*%
X221500000Y-83750000D03*
X221500000Y-81250000D03*
%TD*%
D10*
%TO.C,D1*%
X222750000Y-69750000D03*
D12*
X222750000Y-62130000D03*
%TD*%
%TO.C,D2*%
X202500000Y-69870000D03*
D10*
X202500000Y-62250000D03*
%TD*%
%TO.C,IN*%
G36*
G01*
X219120000Y-112899999D02*
X219120000Y-114600001D01*
G75*
G02*
X218870001Y-114850000I-249999J0D01*
G01*
X217629999Y-114850000D01*
G75*
G02*
X217380000Y-114600001I0J249999D01*
G01*
X217380000Y-112899999D01*
G75*
G02*
X217629999Y-112650000I249999J0D01*
G01*
X218870001Y-112650000D01*
G75*
G02*
X219120000Y-112899999I0J-249999D01*
G01*
G37*
D13*
X215710000Y-113750000D03*
%TD*%
%TO.C,OUT*%
X204710000Y-113750000D03*
G36*
G01*
X208120000Y-112899999D02*
X208120000Y-114600001D01*
G75*
G02*
X207870001Y-114850000I-249999J0D01*
G01*
X206629999Y-114850000D01*
G75*
G02*
X206380000Y-114600001I0J249999D01*
G01*
X206380000Y-112899999D01*
G75*
G02*
X206629999Y-112650000I249999J0D01*
G01*
X207870001Y-112650000D01*
G75*
G02*
X208120000Y-112899999I0J-249999D01*
G01*
G37*
%TD*%
D14*
%TO.C,J3*%
X207750000Y-56750000D03*
D15*
X207750000Y-54210000D03*
X210290000Y-56750000D03*
X210290000Y-54210000D03*
X212830000Y-56750000D03*
X212830000Y-54210000D03*
X215370000Y-56750000D03*
X215370000Y-54210000D03*
X217910000Y-56750000D03*
X217910000Y-54210000D03*
%TD*%
D12*
%TO.C,R1*%
X203250000Y-75840000D03*
D11*
X203250000Y-86000000D03*
%TD*%
%TO.C,R2*%
X203250000Y-99000000D03*
D12*
X203250000Y-88840000D03*
%TD*%
%TO.C,R3*%
X222000000Y-96660000D03*
D11*
X222000000Y-86500000D03*
%TD*%
%TO.C,R4*%
X222000000Y-110000000D03*
D12*
X222000000Y-99840000D03*
%TD*%
%TO.C,10K*%
G36*
G01*
X215870000Y-88399999D02*
X215870000Y-90100001D01*
G75*
G02*
X215620001Y-90350000I-249999J0D01*
G01*
X214379999Y-90350000D01*
G75*
G02*
X214130000Y-90100001I0J249999D01*
G01*
X214130000Y-88399999D01*
G75*
G02*
X214379999Y-88150000I249999J0D01*
G01*
X215620001Y-88150000D01*
G75*
G02*
X215870000Y-88399999I0J-249999D01*
G01*
G37*
D13*
X212460000Y-89250000D03*
X209920000Y-89250000D03*
%TD*%
%TO.C,10K*%
X209920000Y-97500000D03*
X212460000Y-97500000D03*
G36*
G01*
X215870000Y-96649999D02*
X215870000Y-98350001D01*
G75*
G02*
X215620001Y-98600000I-249999J0D01*
G01*
X214379999Y-98600000D01*
G75*
G02*
X214130000Y-98350001I0J249999D01*
G01*
X214130000Y-96649999D01*
G75*
G02*
X214379999Y-96400000I249999J0D01*
G01*
X215620001Y-96400000D01*
G75*
G02*
X215870000Y-96649999I0J-249999D01*
G01*
G37*
%TD*%
%TO.C,10K*%
G36*
G01*
X215870000Y-104899999D02*
X215870000Y-106600001D01*
G75*
G02*
X215620001Y-106850000I-249999J0D01*
G01*
X214379999Y-106850000D01*
G75*
G02*
X214130000Y-106600001I0J249999D01*
G01*
X214130000Y-104899999D01*
G75*
G02*
X214379999Y-104650000I249999J0D01*
G01*
X215620001Y-104650000D01*
G75*
G02*
X215870000Y-104899999I0J-249999D01*
G01*
G37*
X212460000Y-105750000D03*
X209920000Y-105750000D03*
%TD*%
D16*
%TO.C,U1*%
X208750000Y-73500000D03*
D17*
X216370000Y-81120000D03*
X208750000Y-76040000D03*
X216370000Y-78580000D03*
X208750000Y-78580000D03*
X216370000Y-76040000D03*
X208750000Y-81120000D03*
X216370000Y-73500000D03*
%TD*%
M02*
