%TF.GenerationSoftware,KiCad,Pcbnew,(5.1.12-1-10_14)*%
%TF.CreationDate,2023-08-05T21:53:33+02:00*%
%TF.ProjectId,niga,6e696761-2e6b-4696-9361-645f70636258,rev?*%
%TF.SameCoordinates,Original*%
%TF.FileFunction,Copper,L1,Top*%
%TF.FilePolarity,Positive*%
%FSLAX46Y46*%
G04 Gerber Fmt 4.6, Leading zero omitted, Abs format (unit mm)*
G04 Created by KiCad (PCBNEW (5.1.12-1-10_14)) date 2023-08-05 21:53:33*
%MOMM*%
%LPD*%
G01*
G04 APERTURE LIST*
%TA.AperFunction,ComponentPad*%
%ADD10R,1.600000X1.600000*%
%TD*%
%TA.AperFunction,ComponentPad*%
%ADD11C,1.600000*%
%TD*%
%TA.AperFunction,ComponentPad*%
%ADD12O,1.600000X1.600000*%
%TD*%
%TA.AperFunction,ComponentPad*%
%ADD13O,1.740000X2.200000*%
%TD*%
%TA.AperFunction,ComponentPad*%
%ADD14R,1.727200X1.727200*%
%TD*%
%TA.AperFunction,ComponentPad*%
%ADD15O,1.727200X1.727200*%
%TD*%
%TA.AperFunction,ComponentPad*%
%ADD16R,2.400000X1.600000*%
%TD*%
%TA.AperFunction,ComponentPad*%
%ADD17O,2.400000X1.600000*%
%TD*%
%TA.AperFunction,Conductor*%
%ADD18C,0.250000*%
%TD*%
%TA.AperFunction,Conductor*%
%ADD19C,0.254000*%
%TD*%
%TA.AperFunction,Conductor*%
%ADD20C,0.100000*%
%TD*%
G04 APERTURE END LIST*
D10*
%TO.P,C1,1*%
%TO.N,Net-(C1-Pad1)*%
X218000000Y-66250000D03*
D11*
%TO.P,C1,2*%
%TO.N,GND*%
X215500000Y-66250000D03*
%TD*%
%TO.P,C2,2*%
%TO.N,Net-(C2-Pad2)*%
X209750000Y-66000000D03*
D10*
%TO.P,C2,1*%
%TO.N,GND*%
X207250000Y-66000000D03*
%TD*%
D11*
%TO.P,C3,1*%
%TO.N,GND*%
X221250000Y-78000000D03*
%TO.P,C3,2*%
%TO.N,Net-(C1-Pad1)*%
X221250000Y-75500000D03*
%TD*%
%TO.P,C4,2*%
%TO.N,GND*%
X221500000Y-83750000D03*
%TO.P,C4,1*%
%TO.N,Net-(C2-Pad2)*%
X221500000Y-81250000D03*
%TD*%
D10*
%TO.P,D1,1*%
%TO.N,Net-(C1-Pad1)*%
X222750000Y-69750000D03*
D12*
%TO.P,D1,2*%
%TO.N,Net-(D1-Pad2)*%
X222750000Y-62130000D03*
%TD*%
%TO.P,D2,2*%
%TO.N,Net-(C2-Pad2)*%
X202500000Y-69870000D03*
D10*
%TO.P,D2,1*%
%TO.N,Net-(D2-Pad1)*%
X202500000Y-62250000D03*
%TD*%
%TO.P,IN,1*%
%TO.N,Net-(J1-Pad1)*%
%TA.AperFunction,ComponentPad*%
G36*
G01*
X219120000Y-112899999D02*
X219120000Y-114600001D01*
G75*
G02*
X218870001Y-114850000I-249999J0D01*
G01*
X217629999Y-114850000D01*
G75*
G02*
X217380000Y-114600001I0J249999D01*
G01*
X217380000Y-112899999D01*
G75*
G02*
X217629999Y-112650000I249999J0D01*
G01*
X218870001Y-112650000D01*
G75*
G02*
X219120000Y-112899999I0J-249999D01*
G01*
G37*
%TD.AperFunction*%
D13*
%TO.P,IN,2*%
%TO.N,GND*%
X215710000Y-113750000D03*
%TD*%
%TO.P,OUT,2*%
%TO.N,GND*%
X204710000Y-113750000D03*
%TO.P,OUT,1*%
%TO.N,Net-(J2-Pad1)*%
%TA.AperFunction,ComponentPad*%
G36*
G01*
X208120000Y-112899999D02*
X208120000Y-114600001D01*
G75*
G02*
X207870001Y-114850000I-249999J0D01*
G01*
X206629999Y-114850000D01*
G75*
G02*
X206380000Y-114600001I0J249999D01*
G01*
X206380000Y-112899999D01*
G75*
G02*
X206629999Y-112650000I249999J0D01*
G01*
X207870001Y-112650000D01*
G75*
G02*
X208120000Y-112899999I0J-249999D01*
G01*
G37*
%TD.AperFunction*%
%TD*%
D14*
%TO.P,J3,1*%
%TO.N,Net-(D2-Pad1)*%
X207750000Y-56750000D03*
D15*
%TO.P,J3,2*%
X207750000Y-54210000D03*
%TO.P,J3,3*%
%TO.N,GND*%
X210290000Y-56750000D03*
%TO.P,J3,4*%
X210290000Y-54210000D03*
%TO.P,J3,5*%
X212830000Y-56750000D03*
%TO.P,J3,6*%
X212830000Y-54210000D03*
%TO.P,J3,7*%
X215370000Y-56750000D03*
%TO.P,J3,8*%
X215370000Y-54210000D03*
%TO.P,J3,9*%
%TO.N,Net-(D1-Pad2)*%
X217910000Y-56750000D03*
%TO.P,J3,10*%
X217910000Y-54210000D03*
%TD*%
D12*
%TO.P,R1,2*%
%TO.N,Net-(R1-Pad2)*%
X203250000Y-75840000D03*
D11*
%TO.P,R1,1*%
%TO.N,Net-(R1-Pad1)*%
X203250000Y-86000000D03*
%TD*%
%TO.P,R2,1*%
%TO.N,Net-(R2-Pad1)*%
X203250000Y-99000000D03*
D12*
%TO.P,R2,2*%
%TO.N,Net-(R1-Pad1)*%
X203250000Y-88840000D03*
%TD*%
%TO.P,R3,2*%
%TO.N,Net-(R3-Pad2)*%
X222000000Y-96660000D03*
D11*
%TO.P,R3,1*%
%TO.N,Net-(R3-Pad1)*%
X222000000Y-86500000D03*
%TD*%
%TO.P,R4,1*%
%TO.N,Net-(J2-Pad1)*%
X222000000Y-110000000D03*
D12*
%TO.P,R4,2*%
%TO.N,Net-(R4-Pad2)*%
X222000000Y-99840000D03*
%TD*%
%TO.P,10K,1*%
%TO.N,Net-(J1-Pad1)*%
%TA.AperFunction,ComponentPad*%
G36*
G01*
X215870000Y-88399999D02*
X215870000Y-90100001D01*
G75*
G02*
X215620001Y-90350000I-249999J0D01*
G01*
X214379999Y-90350000D01*
G75*
G02*
X214130000Y-90100001I0J249999D01*
G01*
X214130000Y-88399999D01*
G75*
G02*
X214379999Y-88150000I249999J0D01*
G01*
X215620001Y-88150000D01*
G75*
G02*
X215870000Y-88399999I0J-249999D01*
G01*
G37*
%TD.AperFunction*%
D13*
%TO.P,10K,2*%
%TO.N,Net-(RV1-Pad2)*%
X212460000Y-89250000D03*
%TO.P,10K,3*%
%TO.N,GND*%
X209920000Y-89250000D03*
%TD*%
%TO.P,10K,3*%
%TO.N,Net-(R1-Pad1)*%
X209920000Y-97500000D03*
%TO.P,10K,2*%
X212460000Y-97500000D03*
%TO.P,10K,1*%
%TO.N,GND*%
%TA.AperFunction,ComponentPad*%
G36*
G01*
X215870000Y-96649999D02*
X215870000Y-98350001D01*
G75*
G02*
X215620001Y-98600000I-249999J0D01*
G01*
X214379999Y-98600000D01*
G75*
G02*
X214130000Y-98350001I0J249999D01*
G01*
X214130000Y-96649999D01*
G75*
G02*
X214379999Y-96400000I249999J0D01*
G01*
X215620001Y-96400000D01*
G75*
G02*
X215870000Y-96649999I0J-249999D01*
G01*
G37*
%TD.AperFunction*%
%TD*%
%TO.P,10K,1*%
%TO.N,Net-(R2-Pad1)*%
%TA.AperFunction,ComponentPad*%
G36*
G01*
X215870000Y-104899999D02*
X215870000Y-106600001D01*
G75*
G02*
X215620001Y-106850000I-249999J0D01*
G01*
X214379999Y-106850000D01*
G75*
G02*
X214130000Y-106600001I0J249999D01*
G01*
X214130000Y-104899999D01*
G75*
G02*
X214379999Y-104650000I249999J0D01*
G01*
X215620001Y-104650000D01*
G75*
G02*
X215870000Y-104899999I0J-249999D01*
G01*
G37*
%TD.AperFunction*%
%TO.P,10K,2*%
%TO.N,Net-(R3-Pad2)*%
X212460000Y-105750000D03*
%TO.P,10K,3*%
%TO.N,GND*%
X209920000Y-105750000D03*
%TD*%
D16*
%TO.P,U1,1*%
%TO.N,Net-(R2-Pad1)*%
X208750000Y-73500000D03*
D17*
%TO.P,U1,5*%
%TO.N,Net-(R3-Pad1)*%
X216370000Y-81120000D03*
%TO.P,U1,2*%
%TO.N,Net-(R1-Pad2)*%
X208750000Y-76040000D03*
%TO.P,U1,6*%
%TO.N,Net-(R4-Pad2)*%
X216370000Y-78580000D03*
%TO.P,U1,3*%
%TO.N,Net-(RV1-Pad2)*%
X208750000Y-78580000D03*
%TO.P,U1,7*%
%TO.N,Net-(R4-Pad2)*%
X216370000Y-76040000D03*
%TO.P,U1,4*%
%TO.N,Net-(C2-Pad2)*%
X208750000Y-81120000D03*
%TO.P,U1,8*%
%TO.N,Net-(C1-Pad1)*%
X216370000Y-73500000D03*
%TD*%
D18*
%TO.N,GND*%
X210290000Y-54210000D02*
X210290000Y-56750000D01*
X210290000Y-56750000D02*
X212830000Y-56750000D01*
X212830000Y-56750000D02*
X215370000Y-56750000D01*
X215370000Y-56750000D02*
X215370000Y-54210000D01*
X215370000Y-54210000D02*
X212830000Y-54210000D01*
X212830000Y-54210000D02*
X210290000Y-54210000D01*
X212830000Y-54210000D02*
X212830000Y-56750000D01*
%TO.N,Net-(C2-Pad2)*%
X207224990Y-79594990D02*
X207224990Y-78114006D01*
X217704990Y-77454990D02*
X221500000Y-81250000D01*
X207884006Y-77454990D02*
X217704990Y-77454990D01*
X207224990Y-78114006D02*
X207884006Y-77454990D01*
X208750000Y-81120000D02*
X207224990Y-79594990D01*
%TO.N,Net-(J2-Pad1)*%
X211000000Y-110000000D02*
X222000000Y-110000000D01*
X207250000Y-113750000D02*
X211000000Y-110000000D01*
%TO.N,Net-(R1-Pad2)*%
X203450000Y-76040000D02*
X203250000Y-75840000D01*
X208750000Y-76040000D02*
X203450000Y-76040000D01*
%TO.N,Net-(R1-Pad1)*%
X203250000Y-86000000D02*
X203250000Y-88840000D01*
X209920000Y-97500000D02*
X209920000Y-94920000D01*
X203250000Y-88840000D02*
X208660000Y-94250000D01*
X209250000Y-94250000D02*
X209920000Y-94920000D01*
X208660000Y-94250000D02*
X209250000Y-94250000D01*
X212460000Y-97500000D02*
X209920000Y-97500000D01*
%TO.N,Net-(R2-Pad1)*%
X203250000Y-100999999D02*
X203250000Y-99000000D01*
X209425011Y-107175010D02*
X203250000Y-100999999D01*
X214674990Y-107175010D02*
X209425011Y-107175010D01*
X215000000Y-106850000D02*
X214674990Y-107175010D01*
X215000000Y-105750000D02*
X215000000Y-106850000D01*
%TO.N,Net-(R3-Pad2)*%
X212540000Y-105750000D02*
X212910000Y-105750000D01*
X221550000Y-96660000D02*
X212460000Y-105750000D01*
X222000000Y-96660000D02*
X221550000Y-96660000D01*
%TO.N,Net-(R3-Pad1)*%
X216620000Y-81120000D02*
X216370000Y-81120000D01*
X222000000Y-86500000D02*
X216620000Y-81120000D01*
%TO.N,Net-(RV1-Pad2)*%
X210200000Y-78580000D02*
X212540000Y-80920000D01*
X208750000Y-78580000D02*
X210200000Y-78580000D01*
X212540000Y-89170000D02*
X212460000Y-89250000D01*
X212540000Y-80920000D02*
X212540000Y-89170000D01*
%TD*%
D19*
%TO.N,GND*%
X224123000Y-61694881D02*
X224021680Y-61450273D01*
X223864637Y-61215241D01*
X223664759Y-61015363D01*
X223429727Y-60858320D01*
X223168574Y-60750147D01*
X222891335Y-60695000D01*
X222608665Y-60695000D01*
X222331426Y-60750147D01*
X222070273Y-60858320D01*
X221835241Y-61015363D01*
X221635363Y-61215241D01*
X221478320Y-61450273D01*
X221370147Y-61711426D01*
X221315000Y-61988665D01*
X221315000Y-62271335D01*
X221370147Y-62548574D01*
X221478320Y-62809727D01*
X221635363Y-63044759D01*
X221835241Y-63244637D01*
X222070273Y-63401680D01*
X222331426Y-63509853D01*
X222608665Y-63565000D01*
X222891335Y-63565000D01*
X223168574Y-63509853D01*
X223429727Y-63401680D01*
X223664759Y-63244637D01*
X223864637Y-63044759D01*
X224021680Y-62809727D01*
X224123000Y-62565119D01*
X224123000Y-68674947D01*
X224080537Y-68595506D01*
X224001185Y-68498815D01*
X223904494Y-68419463D01*
X223794180Y-68360498D01*
X223674482Y-68324188D01*
X223550000Y-68311928D01*
X221950000Y-68311928D01*
X221825518Y-68324188D01*
X221705820Y-68360498D01*
X221595506Y-68419463D01*
X221498815Y-68498815D01*
X221419463Y-68595506D01*
X221360498Y-68705820D01*
X221324188Y-68825518D01*
X221311928Y-68950000D01*
X221311928Y-70550000D01*
X221324188Y-70674482D01*
X221360498Y-70794180D01*
X221419463Y-70904494D01*
X221498815Y-71001185D01*
X221595506Y-71080537D01*
X221705820Y-71139502D01*
X221825518Y-71175812D01*
X221950000Y-71188072D01*
X223550000Y-71188072D01*
X223674482Y-71175812D01*
X223794180Y-71139502D01*
X223904494Y-71080537D01*
X224001185Y-71001185D01*
X224080537Y-70904494D01*
X224123000Y-70825053D01*
X224123000Y-118123000D01*
X201127000Y-118123000D01*
X201127000Y-114114380D01*
X203203134Y-114114380D01*
X203258304Y-114405773D01*
X203369262Y-114680804D01*
X203531744Y-114928903D01*
X203739506Y-115140536D01*
X203984563Y-115307571D01*
X204257498Y-115423588D01*
X204349969Y-115441302D01*
X204583000Y-115320246D01*
X204583000Y-113877000D01*
X203359414Y-113877000D01*
X203203134Y-114114380D01*
X201127000Y-114114380D01*
X201127000Y-113385620D01*
X203203134Y-113385620D01*
X203359414Y-113623000D01*
X204583000Y-113623000D01*
X204583000Y-112179754D01*
X204837000Y-112179754D01*
X204837000Y-113623000D01*
X204857000Y-113623000D01*
X204857000Y-113877000D01*
X204837000Y-113877000D01*
X204837000Y-115320246D01*
X205070031Y-115441302D01*
X205162502Y-115423588D01*
X205435437Y-115307571D01*
X205680494Y-115140536D01*
X205833493Y-114984686D01*
X205891595Y-115093387D01*
X206002038Y-115227962D01*
X206136613Y-115338405D01*
X206290149Y-115420472D01*
X206456745Y-115471008D01*
X206629999Y-115488072D01*
X207870001Y-115488072D01*
X208043255Y-115471008D01*
X208209851Y-115420472D01*
X208363387Y-115338405D01*
X208497962Y-115227962D01*
X208608405Y-115093387D01*
X208690472Y-114939851D01*
X208741008Y-114773255D01*
X208758072Y-114600001D01*
X208758072Y-114114380D01*
X214203134Y-114114380D01*
X214258304Y-114405773D01*
X214369262Y-114680804D01*
X214531744Y-114928903D01*
X214739506Y-115140536D01*
X214984563Y-115307571D01*
X215257498Y-115423588D01*
X215349969Y-115441302D01*
X215583000Y-115320246D01*
X215583000Y-113877000D01*
X214359414Y-113877000D01*
X214203134Y-114114380D01*
X208758072Y-114114380D01*
X208758072Y-113385620D01*
X214203134Y-113385620D01*
X214359414Y-113623000D01*
X215583000Y-113623000D01*
X215583000Y-112179754D01*
X215837000Y-112179754D01*
X215837000Y-113623000D01*
X215857000Y-113623000D01*
X215857000Y-113877000D01*
X215837000Y-113877000D01*
X215837000Y-115320246D01*
X216070031Y-115441302D01*
X216162502Y-115423588D01*
X216435437Y-115307571D01*
X216680494Y-115140536D01*
X216833493Y-114984686D01*
X216891595Y-115093387D01*
X217002038Y-115227962D01*
X217136613Y-115338405D01*
X217290149Y-115420472D01*
X217456745Y-115471008D01*
X217629999Y-115488072D01*
X218870001Y-115488072D01*
X219043255Y-115471008D01*
X219209851Y-115420472D01*
X219363387Y-115338405D01*
X219497962Y-115227962D01*
X219608405Y-115093387D01*
X219690472Y-114939851D01*
X219741008Y-114773255D01*
X219758072Y-114600001D01*
X219758072Y-112899999D01*
X219741008Y-112726745D01*
X219690472Y-112560149D01*
X219608405Y-112406613D01*
X219497962Y-112272038D01*
X219363387Y-112161595D01*
X219209851Y-112079528D01*
X219043255Y-112028992D01*
X218870001Y-112011928D01*
X217629999Y-112011928D01*
X217456745Y-112028992D01*
X217290149Y-112079528D01*
X217136613Y-112161595D01*
X217002038Y-112272038D01*
X216891595Y-112406613D01*
X216833493Y-112515314D01*
X216680494Y-112359464D01*
X216435437Y-112192429D01*
X216162502Y-112076412D01*
X216070031Y-112058698D01*
X215837000Y-112179754D01*
X215583000Y-112179754D01*
X215349969Y-112058698D01*
X215257498Y-112076412D01*
X214984563Y-112192429D01*
X214739506Y-112359464D01*
X214531744Y-112571097D01*
X214369262Y-112819196D01*
X214258304Y-113094227D01*
X214203134Y-113385620D01*
X208758072Y-113385620D01*
X208758072Y-113316729D01*
X211314802Y-110760000D01*
X220781957Y-110760000D01*
X220885363Y-110914759D01*
X221085241Y-111114637D01*
X221320273Y-111271680D01*
X221581426Y-111379853D01*
X221858665Y-111435000D01*
X222141335Y-111435000D01*
X222418574Y-111379853D01*
X222679727Y-111271680D01*
X222914759Y-111114637D01*
X223114637Y-110914759D01*
X223271680Y-110679727D01*
X223379853Y-110418574D01*
X223435000Y-110141335D01*
X223435000Y-109858665D01*
X223379853Y-109581426D01*
X223271680Y-109320273D01*
X223114637Y-109085241D01*
X222914759Y-108885363D01*
X222679727Y-108728320D01*
X222418574Y-108620147D01*
X222141335Y-108565000D01*
X221858665Y-108565000D01*
X221581426Y-108620147D01*
X221320273Y-108728320D01*
X221085241Y-108885363D01*
X220885363Y-109085241D01*
X220781957Y-109240000D01*
X211037323Y-109240000D01*
X211000000Y-109236324D01*
X210962677Y-109240000D01*
X210962667Y-109240000D01*
X210851014Y-109250997D01*
X210707753Y-109294454D01*
X210575724Y-109365026D01*
X210459999Y-109459999D01*
X210436201Y-109488997D01*
X207909391Y-112015808D01*
X207870001Y-112011928D01*
X206629999Y-112011928D01*
X206456745Y-112028992D01*
X206290149Y-112079528D01*
X206136613Y-112161595D01*
X206002038Y-112272038D01*
X205891595Y-112406613D01*
X205833493Y-112515314D01*
X205680494Y-112359464D01*
X205435437Y-112192429D01*
X205162502Y-112076412D01*
X205070031Y-112058698D01*
X204837000Y-112179754D01*
X204583000Y-112179754D01*
X204349969Y-112058698D01*
X204257498Y-112076412D01*
X203984563Y-112192429D01*
X203739506Y-112359464D01*
X203531744Y-112571097D01*
X203369262Y-112819196D01*
X203258304Y-113094227D01*
X203203134Y-113385620D01*
X201127000Y-113385620D01*
X201127000Y-106241964D01*
X201130115Y-106241964D01*
X201130115Y-106758036D01*
X201230795Y-107264192D01*
X201428288Y-107740981D01*
X201715002Y-108170080D01*
X202079920Y-108534998D01*
X202509019Y-108821712D01*
X202985808Y-109019205D01*
X203491964Y-109119885D01*
X204008036Y-109119885D01*
X204514192Y-109019205D01*
X204990981Y-108821712D01*
X205420080Y-108534998D01*
X205784998Y-108170080D01*
X206071712Y-107740981D01*
X206269205Y-107264192D01*
X206369885Y-106758036D01*
X206369885Y-106241964D01*
X206269205Y-105735808D01*
X206071712Y-105259019D01*
X205784998Y-104829920D01*
X205420080Y-104465002D01*
X204990981Y-104178288D01*
X204514192Y-103980795D01*
X204008036Y-103880115D01*
X203491964Y-103880115D01*
X202985808Y-103980795D01*
X202509019Y-104178288D01*
X202079920Y-104465002D01*
X201715002Y-104829920D01*
X201428288Y-105259019D01*
X201230795Y-105735808D01*
X201130115Y-106241964D01*
X201127000Y-106241964D01*
X201127000Y-98858665D01*
X201815000Y-98858665D01*
X201815000Y-99141335D01*
X201870147Y-99418574D01*
X201978320Y-99679727D01*
X202135363Y-99914759D01*
X202335241Y-100114637D01*
X202490000Y-100218044D01*
X202490000Y-100962676D01*
X202486324Y-100999999D01*
X202490000Y-101037321D01*
X202490000Y-101037331D01*
X202500997Y-101148984D01*
X202522495Y-101219853D01*
X202544454Y-101292245D01*
X202615026Y-101424275D01*
X202654871Y-101472825D01*
X202709999Y-101540000D01*
X202739003Y-101563803D01*
X208861212Y-107686013D01*
X208885010Y-107715011D01*
X209000735Y-107809984D01*
X209132764Y-107880556D01*
X209276025Y-107924013D01*
X209387678Y-107935010D01*
X209387687Y-107935010D01*
X209425010Y-107938686D01*
X209462333Y-107935010D01*
X214637668Y-107935010D01*
X214674990Y-107938686D01*
X214712312Y-107935010D01*
X214712323Y-107935010D01*
X214823976Y-107924013D01*
X214967237Y-107880556D01*
X215099266Y-107809984D01*
X215214991Y-107715011D01*
X215238794Y-107686007D01*
X215436729Y-107488072D01*
X215620001Y-107488072D01*
X215793255Y-107471008D01*
X215959851Y-107420472D01*
X216113387Y-107338405D01*
X216247962Y-107227962D01*
X216358405Y-107093387D01*
X216440472Y-106939851D01*
X216491008Y-106773255D01*
X216508072Y-106600001D01*
X216508072Y-104899999D01*
X216491008Y-104726745D01*
X216440472Y-104560149D01*
X216358405Y-104406613D01*
X216247962Y-104272038D01*
X216113387Y-104161595D01*
X215959851Y-104079528D01*
X215793255Y-104028992D01*
X215620001Y-104011928D01*
X215272873Y-104011928D01*
X219586136Y-99698665D01*
X220565000Y-99698665D01*
X220565000Y-99981335D01*
X220620147Y-100258574D01*
X220728320Y-100519727D01*
X220885363Y-100754759D01*
X221085241Y-100954637D01*
X221320273Y-101111680D01*
X221581426Y-101219853D01*
X221858665Y-101275000D01*
X222141335Y-101275000D01*
X222418574Y-101219853D01*
X222679727Y-101111680D01*
X222914759Y-100954637D01*
X223114637Y-100754759D01*
X223271680Y-100519727D01*
X223379853Y-100258574D01*
X223435000Y-99981335D01*
X223435000Y-99698665D01*
X223379853Y-99421426D01*
X223271680Y-99160273D01*
X223114637Y-98925241D01*
X222914759Y-98725363D01*
X222679727Y-98568320D01*
X222418574Y-98460147D01*
X222141335Y-98405000D01*
X221858665Y-98405000D01*
X221581426Y-98460147D01*
X221320273Y-98568320D01*
X221085241Y-98725363D01*
X220885363Y-98925241D01*
X220728320Y-99160273D01*
X220620147Y-99421426D01*
X220565000Y-99698665D01*
X219586136Y-99698665D01*
X221343501Y-97941301D01*
X221581426Y-98039853D01*
X221858665Y-98095000D01*
X222141335Y-98095000D01*
X222418574Y-98039853D01*
X222679727Y-97931680D01*
X222914759Y-97774637D01*
X223114637Y-97574759D01*
X223271680Y-97339727D01*
X223379853Y-97078574D01*
X223435000Y-96801335D01*
X223435000Y-96518665D01*
X223379853Y-96241426D01*
X223271680Y-95980273D01*
X223114637Y-95745241D01*
X222914759Y-95545363D01*
X222679727Y-95388320D01*
X222418574Y-95280147D01*
X222141335Y-95225000D01*
X221858665Y-95225000D01*
X221581426Y-95280147D01*
X221320273Y-95388320D01*
X221085241Y-95545363D01*
X220885363Y-95745241D01*
X220728320Y-95980273D01*
X220620147Y-96241426D01*
X220565000Y-96518665D01*
X220565000Y-96570198D01*
X213018500Y-104116699D01*
X212755032Y-104036776D01*
X212460000Y-104007718D01*
X212164969Y-104036776D01*
X211881276Y-104122834D01*
X211619822Y-104262583D01*
X211390655Y-104450655D01*
X211202583Y-104679821D01*
X211187698Y-104707669D01*
X211098256Y-104571097D01*
X210890494Y-104359464D01*
X210645437Y-104192429D01*
X210372502Y-104076412D01*
X210280031Y-104058698D01*
X210047000Y-104179754D01*
X210047000Y-105623000D01*
X210067000Y-105623000D01*
X210067000Y-105877000D01*
X210047000Y-105877000D01*
X210047000Y-105897000D01*
X209793000Y-105897000D01*
X209793000Y-105877000D01*
X209773000Y-105877000D01*
X209773000Y-105623000D01*
X209793000Y-105623000D01*
X209793000Y-104179754D01*
X209559969Y-104058698D01*
X209467498Y-104076412D01*
X209194563Y-104192429D01*
X208949506Y-104359464D01*
X208741744Y-104571097D01*
X208579262Y-104819196D01*
X208468304Y-105094227D01*
X208460460Y-105135657D01*
X204010000Y-100685198D01*
X204010000Y-100218043D01*
X204164759Y-100114637D01*
X204364637Y-99914759D01*
X204521680Y-99679727D01*
X204629853Y-99418574D01*
X204685000Y-99141335D01*
X204685000Y-98858665D01*
X204629853Y-98581426D01*
X204521680Y-98320273D01*
X204364637Y-98085241D01*
X204164759Y-97885363D01*
X203929727Y-97728320D01*
X203668574Y-97620147D01*
X203391335Y-97565000D01*
X203108665Y-97565000D01*
X202831426Y-97620147D01*
X202570273Y-97728320D01*
X202335241Y-97885363D01*
X202135363Y-98085241D01*
X201978320Y-98320273D01*
X201870147Y-98581426D01*
X201815000Y-98858665D01*
X201127000Y-98858665D01*
X201127000Y-85858665D01*
X201815000Y-85858665D01*
X201815000Y-86141335D01*
X201870147Y-86418574D01*
X201978320Y-86679727D01*
X202135363Y-86914759D01*
X202335241Y-87114637D01*
X202490000Y-87218044D01*
X202490001Y-87621956D01*
X202335241Y-87725363D01*
X202135363Y-87925241D01*
X201978320Y-88160273D01*
X201870147Y-88421426D01*
X201815000Y-88698665D01*
X201815000Y-88981335D01*
X201870147Y-89258574D01*
X201978320Y-89519727D01*
X202135363Y-89754759D01*
X202335241Y-89954637D01*
X202570273Y-90111680D01*
X202831426Y-90219853D01*
X203108665Y-90275000D01*
X203391335Y-90275000D01*
X203573887Y-90238688D01*
X208096200Y-94761002D01*
X208119999Y-94790001D01*
X208235724Y-94884974D01*
X208367753Y-94955546D01*
X208511014Y-94999003D01*
X208622667Y-95010000D01*
X208622676Y-95010000D01*
X208659999Y-95013676D01*
X208697322Y-95010000D01*
X208935199Y-95010000D01*
X209160001Y-95234803D01*
X209160001Y-95969727D01*
X209079822Y-96012583D01*
X208850655Y-96200655D01*
X208662583Y-96429821D01*
X208522834Y-96691275D01*
X208436776Y-96974968D01*
X208415000Y-97196064D01*
X208415000Y-97803935D01*
X208436776Y-98025031D01*
X208522834Y-98308724D01*
X208662583Y-98570178D01*
X208850655Y-98799345D01*
X209079821Y-98987417D01*
X209341275Y-99127166D01*
X209624968Y-99213224D01*
X209920000Y-99242282D01*
X210215031Y-99213224D01*
X210498724Y-99127166D01*
X210760178Y-98987417D01*
X210989345Y-98799345D01*
X211177417Y-98570179D01*
X211190000Y-98546637D01*
X211202583Y-98570178D01*
X211390655Y-98799345D01*
X211619821Y-98987417D01*
X211881275Y-99127166D01*
X212164968Y-99213224D01*
X212460000Y-99242282D01*
X212755031Y-99213224D01*
X213038724Y-99127166D01*
X213300178Y-98987417D01*
X213527385Y-98800953D01*
X213540498Y-98844180D01*
X213599463Y-98954494D01*
X213678815Y-99051185D01*
X213775506Y-99130537D01*
X213885820Y-99189502D01*
X214005518Y-99225812D01*
X214130000Y-99238072D01*
X214714250Y-99235000D01*
X214873000Y-99076250D01*
X214873000Y-97627000D01*
X215127000Y-97627000D01*
X215127000Y-99076250D01*
X215285750Y-99235000D01*
X215870000Y-99238072D01*
X215994482Y-99225812D01*
X216114180Y-99189502D01*
X216224494Y-99130537D01*
X216321185Y-99051185D01*
X216400537Y-98954494D01*
X216459502Y-98844180D01*
X216495812Y-98724482D01*
X216508072Y-98600000D01*
X216505000Y-97785750D01*
X216346250Y-97627000D01*
X215127000Y-97627000D01*
X214873000Y-97627000D01*
X214853000Y-97627000D01*
X214853000Y-97373000D01*
X214873000Y-97373000D01*
X214873000Y-95923750D01*
X215127000Y-95923750D01*
X215127000Y-97373000D01*
X216346250Y-97373000D01*
X216505000Y-97214250D01*
X216508072Y-96400000D01*
X216495812Y-96275518D01*
X216459502Y-96155820D01*
X216400537Y-96045506D01*
X216321185Y-95948815D01*
X216224494Y-95869463D01*
X216114180Y-95810498D01*
X215994482Y-95774188D01*
X215870000Y-95761928D01*
X215285750Y-95765000D01*
X215127000Y-95923750D01*
X214873000Y-95923750D01*
X214714250Y-95765000D01*
X214130000Y-95761928D01*
X214005518Y-95774188D01*
X213885820Y-95810498D01*
X213775506Y-95869463D01*
X213678815Y-95948815D01*
X213599463Y-96045506D01*
X213540498Y-96155820D01*
X213527385Y-96199047D01*
X213300179Y-96012583D01*
X213038725Y-95872834D01*
X212755032Y-95786776D01*
X212460000Y-95757718D01*
X212164969Y-95786776D01*
X211881276Y-95872834D01*
X211619822Y-96012583D01*
X211390655Y-96200655D01*
X211202583Y-96429821D01*
X211190000Y-96453362D01*
X211177417Y-96429821D01*
X210989345Y-96200655D01*
X210760179Y-96012583D01*
X210680000Y-95969727D01*
X210680000Y-94957322D01*
X210683676Y-94919999D01*
X210680000Y-94882676D01*
X210680000Y-94882667D01*
X210669003Y-94771014D01*
X210625546Y-94627753D01*
X210554974Y-94495723D01*
X210483799Y-94408997D01*
X210460001Y-94379999D01*
X210431002Y-94356200D01*
X209813803Y-93739002D01*
X209790001Y-93709999D01*
X209674276Y-93615026D01*
X209542247Y-93544454D01*
X209398986Y-93500997D01*
X209287333Y-93490000D01*
X209287322Y-93490000D01*
X209250000Y-93486324D01*
X209212678Y-93490000D01*
X208974802Y-93490000D01*
X205099182Y-89614380D01*
X208413134Y-89614380D01*
X208468304Y-89905773D01*
X208579262Y-90180804D01*
X208741744Y-90428903D01*
X208949506Y-90640536D01*
X209194563Y-90807571D01*
X209467498Y-90923588D01*
X209559969Y-90941302D01*
X209793000Y-90820246D01*
X209793000Y-89377000D01*
X208569414Y-89377000D01*
X208413134Y-89614380D01*
X205099182Y-89614380D01*
X204648688Y-89163887D01*
X204685000Y-88981335D01*
X204685000Y-88885620D01*
X208413134Y-88885620D01*
X208569414Y-89123000D01*
X209793000Y-89123000D01*
X209793000Y-87679754D01*
X209559969Y-87558698D01*
X209467498Y-87576412D01*
X209194563Y-87692429D01*
X208949506Y-87859464D01*
X208741744Y-88071097D01*
X208579262Y-88319196D01*
X208468304Y-88594227D01*
X208413134Y-88885620D01*
X204685000Y-88885620D01*
X204685000Y-88698665D01*
X204629853Y-88421426D01*
X204521680Y-88160273D01*
X204364637Y-87925241D01*
X204164759Y-87725363D01*
X204010000Y-87621957D01*
X204010000Y-87218043D01*
X204164759Y-87114637D01*
X204364637Y-86914759D01*
X204521680Y-86679727D01*
X204629853Y-86418574D01*
X204685000Y-86141335D01*
X204685000Y-85858665D01*
X204629853Y-85581426D01*
X204521680Y-85320273D01*
X204364637Y-85085241D01*
X204164759Y-84885363D01*
X203929727Y-84728320D01*
X203668574Y-84620147D01*
X203391335Y-84565000D01*
X203108665Y-84565000D01*
X202831426Y-84620147D01*
X202570273Y-84728320D01*
X202335241Y-84885363D01*
X202135363Y-85085241D01*
X201978320Y-85320273D01*
X201870147Y-85581426D01*
X201815000Y-85858665D01*
X201127000Y-85858665D01*
X201127000Y-75698665D01*
X201815000Y-75698665D01*
X201815000Y-75981335D01*
X201870147Y-76258574D01*
X201978320Y-76519727D01*
X202135363Y-76754759D01*
X202335241Y-76954637D01*
X202570273Y-77111680D01*
X202831426Y-77219853D01*
X203108665Y-77275000D01*
X203391335Y-77275000D01*
X203668574Y-77219853D01*
X203929727Y-77111680D01*
X204164759Y-76954637D01*
X204319396Y-76800000D01*
X207129099Y-76800000D01*
X207151068Y-76841101D01*
X207273684Y-76990510D01*
X206713988Y-77550207D01*
X206684990Y-77574005D01*
X206661192Y-77603003D01*
X206661191Y-77603004D01*
X206590016Y-77689730D01*
X206519444Y-77821760D01*
X206475988Y-77965021D01*
X206461314Y-78114006D01*
X206464991Y-78151338D01*
X206464990Y-79557667D01*
X206461314Y-79594990D01*
X206464990Y-79632312D01*
X206464990Y-79632322D01*
X206475987Y-79743975D01*
X206497532Y-79815000D01*
X206519444Y-79887236D01*
X206590016Y-80019266D01*
X206629861Y-80067816D01*
X206684989Y-80134991D01*
X206713993Y-80158794D01*
X207054592Y-80499393D01*
X207017818Y-80568192D01*
X206935764Y-80838691D01*
X206908057Y-81120000D01*
X206935764Y-81401309D01*
X207017818Y-81671808D01*
X207151068Y-81921101D01*
X207330392Y-82139608D01*
X207548899Y-82318932D01*
X207798192Y-82452182D01*
X208068691Y-82534236D01*
X208279508Y-82555000D01*
X209220492Y-82555000D01*
X209431309Y-82534236D01*
X209701808Y-82452182D01*
X209951101Y-82318932D01*
X210169608Y-82139608D01*
X210348932Y-81921101D01*
X210482182Y-81671808D01*
X210564236Y-81401309D01*
X210591943Y-81120000D01*
X210564236Y-80838691D01*
X210482182Y-80568192D01*
X210348932Y-80318899D01*
X210169608Y-80100392D01*
X209951101Y-79921068D01*
X209818142Y-79850000D01*
X209951101Y-79778932D01*
X210155986Y-79610787D01*
X211780000Y-81234802D01*
X211780001Y-87676966D01*
X211619822Y-87762583D01*
X211390655Y-87950655D01*
X211202583Y-88179821D01*
X211187698Y-88207669D01*
X211098256Y-88071097D01*
X210890494Y-87859464D01*
X210645437Y-87692429D01*
X210372502Y-87576412D01*
X210280031Y-87558698D01*
X210047000Y-87679754D01*
X210047000Y-89123000D01*
X210067000Y-89123000D01*
X210067000Y-89377000D01*
X210047000Y-89377000D01*
X210047000Y-90820246D01*
X210280031Y-90941302D01*
X210372502Y-90923588D01*
X210645437Y-90807571D01*
X210890494Y-90640536D01*
X211098256Y-90428903D01*
X211187698Y-90292331D01*
X211202583Y-90320178D01*
X211390655Y-90549345D01*
X211619821Y-90737417D01*
X211881275Y-90877166D01*
X212164968Y-90963224D01*
X212460000Y-90992282D01*
X212755031Y-90963224D01*
X213038724Y-90877166D01*
X213300178Y-90737417D01*
X213529345Y-90549345D01*
X213583066Y-90483886D01*
X213641595Y-90593387D01*
X213752038Y-90727962D01*
X213886613Y-90838405D01*
X214040149Y-90920472D01*
X214206745Y-90971008D01*
X214379999Y-90988072D01*
X215620001Y-90988072D01*
X215793255Y-90971008D01*
X215959851Y-90920472D01*
X216113387Y-90838405D01*
X216247962Y-90727962D01*
X216358405Y-90593387D01*
X216440472Y-90439851D01*
X216491008Y-90273255D01*
X216508072Y-90100001D01*
X216508072Y-88399999D01*
X216491008Y-88226745D01*
X216440472Y-88060149D01*
X216358405Y-87906613D01*
X216247962Y-87772038D01*
X216113387Y-87661595D01*
X215959851Y-87579528D01*
X215793255Y-87528992D01*
X215620001Y-87511928D01*
X214379999Y-87511928D01*
X214206745Y-87528992D01*
X214040149Y-87579528D01*
X213886613Y-87661595D01*
X213752038Y-87772038D01*
X213641595Y-87906613D01*
X213583066Y-88016114D01*
X213529345Y-87950655D01*
X213300179Y-87762583D01*
X213300000Y-87762487D01*
X213300000Y-80957325D01*
X213303676Y-80920000D01*
X213300000Y-80882675D01*
X213300000Y-80882667D01*
X213289003Y-80771014D01*
X213245546Y-80627753D01*
X213174974Y-80495724D01*
X213080001Y-80379999D01*
X213051004Y-80356202D01*
X210909791Y-78214990D01*
X214581154Y-78214990D01*
X214555764Y-78298691D01*
X214528057Y-78580000D01*
X214555764Y-78861309D01*
X214637818Y-79131808D01*
X214771068Y-79381101D01*
X214950392Y-79599608D01*
X215168899Y-79778932D01*
X215301858Y-79850000D01*
X215168899Y-79921068D01*
X214950392Y-80100392D01*
X214771068Y-80318899D01*
X214637818Y-80568192D01*
X214555764Y-80838691D01*
X214528057Y-81120000D01*
X214555764Y-81401309D01*
X214637818Y-81671808D01*
X214771068Y-81921101D01*
X214950392Y-82139608D01*
X215168899Y-82318932D01*
X215418192Y-82452182D01*
X215688691Y-82534236D01*
X215899508Y-82555000D01*
X216840492Y-82555000D01*
X216967672Y-82542474D01*
X220601312Y-86176114D01*
X220565000Y-86358665D01*
X220565000Y-86641335D01*
X220620147Y-86918574D01*
X220728320Y-87179727D01*
X220885363Y-87414759D01*
X221085241Y-87614637D01*
X221320273Y-87771680D01*
X221581426Y-87879853D01*
X221858665Y-87935000D01*
X222141335Y-87935000D01*
X222418574Y-87879853D01*
X222679727Y-87771680D01*
X222914759Y-87614637D01*
X223114637Y-87414759D01*
X223271680Y-87179727D01*
X223379853Y-86918574D01*
X223435000Y-86641335D01*
X223435000Y-86358665D01*
X223379853Y-86081426D01*
X223271680Y-85820273D01*
X223114637Y-85585241D01*
X222914759Y-85385363D01*
X222679727Y-85228320D01*
X222418574Y-85120147D01*
X222141335Y-85065000D01*
X222084423Y-85065000D01*
X222116292Y-85053603D01*
X222241514Y-84986671D01*
X222313097Y-84742702D01*
X221500000Y-83929605D01*
X221485858Y-83943748D01*
X221306253Y-83764143D01*
X221320395Y-83750000D01*
X221679605Y-83750000D01*
X222492702Y-84563097D01*
X222736671Y-84491514D01*
X222857571Y-84236004D01*
X222926300Y-83961816D01*
X222940217Y-83679488D01*
X222898787Y-83399870D01*
X222803603Y-83133708D01*
X222736671Y-83008486D01*
X222492702Y-82936903D01*
X221679605Y-83750000D01*
X221320395Y-83750000D01*
X220507298Y-82936903D01*
X220263329Y-83008486D01*
X220142429Y-83263996D01*
X220081574Y-83506772D01*
X218135796Y-81560995D01*
X218184236Y-81401309D01*
X218211943Y-81120000D01*
X218184236Y-80838691D01*
X218102182Y-80568192D01*
X217968932Y-80318899D01*
X217789608Y-80100392D01*
X217571101Y-79921068D01*
X217438142Y-79850000D01*
X217571101Y-79778932D01*
X217789608Y-79599608D01*
X217968932Y-79381101D01*
X218102182Y-79131808D01*
X218149853Y-78974655D01*
X220101312Y-80926114D01*
X220065000Y-81108665D01*
X220065000Y-81391335D01*
X220120147Y-81668574D01*
X220228320Y-81929727D01*
X220385363Y-82164759D01*
X220585241Y-82364637D01*
X220785869Y-82498692D01*
X220758486Y-82513329D01*
X220686903Y-82757298D01*
X221500000Y-83570395D01*
X222313097Y-82757298D01*
X222241514Y-82513329D01*
X222212659Y-82499676D01*
X222414759Y-82364637D01*
X222614637Y-82164759D01*
X222771680Y-81929727D01*
X222879853Y-81668574D01*
X222935000Y-81391335D01*
X222935000Y-81108665D01*
X222879853Y-80831426D01*
X222771680Y-80570273D01*
X222614637Y-80335241D01*
X222414759Y-80135363D01*
X222179727Y-79978320D01*
X221918574Y-79870147D01*
X221641335Y-79815000D01*
X221358665Y-79815000D01*
X221176114Y-79851312D01*
X220609063Y-79284261D01*
X220763996Y-79357571D01*
X221038184Y-79426300D01*
X221320512Y-79440217D01*
X221600130Y-79398787D01*
X221866292Y-79303603D01*
X221991514Y-79236671D01*
X222063097Y-78992702D01*
X221250000Y-78179605D01*
X221235858Y-78193748D01*
X221056253Y-78014143D01*
X221070395Y-78000000D01*
X221429605Y-78000000D01*
X222242702Y-78813097D01*
X222486671Y-78741514D01*
X222607571Y-78486004D01*
X222676300Y-78211816D01*
X222690217Y-77929488D01*
X222648787Y-77649870D01*
X222553603Y-77383708D01*
X222486671Y-77258486D01*
X222242702Y-77186903D01*
X221429605Y-78000000D01*
X221070395Y-78000000D01*
X220257298Y-77186903D01*
X220013329Y-77258486D01*
X219892429Y-77513996D01*
X219823700Y-77788184D01*
X219809783Y-78070512D01*
X219851213Y-78350130D01*
X219946397Y-78616292D01*
X219952487Y-78627685D01*
X218268794Y-76943993D01*
X218244991Y-76914989D01*
X218129266Y-76820016D01*
X218013327Y-76758044D01*
X218102182Y-76591808D01*
X218184236Y-76321309D01*
X218211943Y-76040000D01*
X218184236Y-75758691D01*
X218102182Y-75488192D01*
X218032949Y-75358665D01*
X219815000Y-75358665D01*
X219815000Y-75641335D01*
X219870147Y-75918574D01*
X219978320Y-76179727D01*
X220135363Y-76414759D01*
X220335241Y-76614637D01*
X220535869Y-76748692D01*
X220508486Y-76763329D01*
X220436903Y-77007298D01*
X221250000Y-77820395D01*
X222063097Y-77007298D01*
X221991514Y-76763329D01*
X221962659Y-76749676D01*
X222164759Y-76614637D01*
X222364637Y-76414759D01*
X222521680Y-76179727D01*
X222629853Y-75918574D01*
X222685000Y-75641335D01*
X222685000Y-75358665D01*
X222629853Y-75081426D01*
X222521680Y-74820273D01*
X222364637Y-74585241D01*
X222164759Y-74385363D01*
X221929727Y-74228320D01*
X221668574Y-74120147D01*
X221391335Y-74065000D01*
X221108665Y-74065000D01*
X220831426Y-74120147D01*
X220570273Y-74228320D01*
X220335241Y-74385363D01*
X220135363Y-74585241D01*
X219978320Y-74820273D01*
X219870147Y-75081426D01*
X219815000Y-75358665D01*
X218032949Y-75358665D01*
X217968932Y-75238899D01*
X217789608Y-75020392D01*
X217571101Y-74841068D01*
X217438142Y-74770000D01*
X217571101Y-74698932D01*
X217789608Y-74519608D01*
X217968932Y-74301101D01*
X218102182Y-74051808D01*
X218184236Y-73781309D01*
X218211943Y-73500000D01*
X218184236Y-73218691D01*
X218102182Y-72948192D01*
X217968932Y-72698899D01*
X217789608Y-72480392D01*
X217571101Y-72301068D01*
X217321808Y-72167818D01*
X217051309Y-72085764D01*
X216840492Y-72065000D01*
X215899508Y-72065000D01*
X215688691Y-72085764D01*
X215418192Y-72167818D01*
X215168899Y-72301068D01*
X214950392Y-72480392D01*
X214771068Y-72698899D01*
X214637818Y-72948192D01*
X214555764Y-73218691D01*
X214528057Y-73500000D01*
X214555764Y-73781309D01*
X214637818Y-74051808D01*
X214771068Y-74301101D01*
X214950392Y-74519608D01*
X215168899Y-74698932D01*
X215301858Y-74770000D01*
X215168899Y-74841068D01*
X214950392Y-75020392D01*
X214771068Y-75238899D01*
X214637818Y-75488192D01*
X214555764Y-75758691D01*
X214528057Y-76040000D01*
X214555764Y-76321309D01*
X214637818Y-76591808D01*
X214692970Y-76694990D01*
X210427030Y-76694990D01*
X210482182Y-76591808D01*
X210564236Y-76321309D01*
X210591943Y-76040000D01*
X210564236Y-75758691D01*
X210482182Y-75488192D01*
X210348932Y-75238899D01*
X210169608Y-75020392D01*
X210056518Y-74927581D01*
X210074482Y-74925812D01*
X210194180Y-74889502D01*
X210304494Y-74830537D01*
X210401185Y-74751185D01*
X210480537Y-74654494D01*
X210539502Y-74544180D01*
X210575812Y-74424482D01*
X210588072Y-74300000D01*
X210588072Y-72700000D01*
X210575812Y-72575518D01*
X210539502Y-72455820D01*
X210480537Y-72345506D01*
X210401185Y-72248815D01*
X210304494Y-72169463D01*
X210194180Y-72110498D01*
X210074482Y-72074188D01*
X209950000Y-72061928D01*
X207550000Y-72061928D01*
X207425518Y-72074188D01*
X207305820Y-72110498D01*
X207195506Y-72169463D01*
X207098815Y-72248815D01*
X207019463Y-72345506D01*
X206960498Y-72455820D01*
X206924188Y-72575518D01*
X206911928Y-72700000D01*
X206911928Y-74300000D01*
X206924188Y-74424482D01*
X206960498Y-74544180D01*
X207019463Y-74654494D01*
X207098815Y-74751185D01*
X207195506Y-74830537D01*
X207305820Y-74889502D01*
X207425518Y-74925812D01*
X207443482Y-74927581D01*
X207330392Y-75020392D01*
X207151068Y-75238899D01*
X207129099Y-75280000D01*
X204571272Y-75280000D01*
X204521680Y-75160273D01*
X204364637Y-74925241D01*
X204164759Y-74725363D01*
X203929727Y-74568320D01*
X203668574Y-74460147D01*
X203391335Y-74405000D01*
X203108665Y-74405000D01*
X202831426Y-74460147D01*
X202570273Y-74568320D01*
X202335241Y-74725363D01*
X202135363Y-74925241D01*
X201978320Y-75160273D01*
X201870147Y-75421426D01*
X201815000Y-75698665D01*
X201127000Y-75698665D01*
X201127000Y-70305119D01*
X201228320Y-70549727D01*
X201385363Y-70784759D01*
X201585241Y-70984637D01*
X201820273Y-71141680D01*
X202081426Y-71249853D01*
X202358665Y-71305000D01*
X202641335Y-71305000D01*
X202918574Y-71249853D01*
X203179727Y-71141680D01*
X203414759Y-70984637D01*
X203614637Y-70784759D01*
X203771680Y-70549727D01*
X203879853Y-70288574D01*
X203935000Y-70011335D01*
X203935000Y-69728665D01*
X203879853Y-69451426D01*
X203771680Y-69190273D01*
X203614637Y-68955241D01*
X203414759Y-68755363D01*
X203179727Y-68598320D01*
X202918574Y-68490147D01*
X202641335Y-68435000D01*
X202358665Y-68435000D01*
X202081426Y-68490147D01*
X201820273Y-68598320D01*
X201585241Y-68755363D01*
X201385363Y-68955241D01*
X201228320Y-69190273D01*
X201127000Y-69434881D01*
X201127000Y-66800000D01*
X205811928Y-66800000D01*
X205824188Y-66924482D01*
X205860498Y-67044180D01*
X205919463Y-67154494D01*
X205998815Y-67251185D01*
X206095506Y-67330537D01*
X206205820Y-67389502D01*
X206325518Y-67425812D01*
X206450000Y-67438072D01*
X206964250Y-67435000D01*
X207123000Y-67276250D01*
X207123000Y-66127000D01*
X205973750Y-66127000D01*
X205815000Y-66285750D01*
X205811928Y-66800000D01*
X201127000Y-66800000D01*
X201127000Y-65200000D01*
X205811928Y-65200000D01*
X205815000Y-65714250D01*
X205973750Y-65873000D01*
X207123000Y-65873000D01*
X207123000Y-64723750D01*
X207377000Y-64723750D01*
X207377000Y-65873000D01*
X207397000Y-65873000D01*
X207397000Y-66127000D01*
X207377000Y-66127000D01*
X207377000Y-67276250D01*
X207535750Y-67435000D01*
X208050000Y-67438072D01*
X208174482Y-67425812D01*
X208294180Y-67389502D01*
X208404494Y-67330537D01*
X208501185Y-67251185D01*
X208580537Y-67154494D01*
X208639502Y-67044180D01*
X208668661Y-66948057D01*
X208835241Y-67114637D01*
X209070273Y-67271680D01*
X209331426Y-67379853D01*
X209608665Y-67435000D01*
X209891335Y-67435000D01*
X210168574Y-67379853D01*
X210429727Y-67271680D01*
X210473095Y-67242702D01*
X214686903Y-67242702D01*
X214758486Y-67486671D01*
X215013996Y-67607571D01*
X215288184Y-67676300D01*
X215570512Y-67690217D01*
X215850130Y-67648787D01*
X216116292Y-67553603D01*
X216241514Y-67486671D01*
X216313097Y-67242702D01*
X215500000Y-66429605D01*
X214686903Y-67242702D01*
X210473095Y-67242702D01*
X210664759Y-67114637D01*
X210864637Y-66914759D01*
X211021680Y-66679727D01*
X211129853Y-66418574D01*
X211149359Y-66320512D01*
X214059783Y-66320512D01*
X214101213Y-66600130D01*
X214196397Y-66866292D01*
X214263329Y-66991514D01*
X214507298Y-67063097D01*
X215320395Y-66250000D01*
X215679605Y-66250000D01*
X216492702Y-67063097D01*
X216561928Y-67042785D01*
X216561928Y-67050000D01*
X216574188Y-67174482D01*
X216610498Y-67294180D01*
X216669463Y-67404494D01*
X216748815Y-67501185D01*
X216845506Y-67580537D01*
X216955820Y-67639502D01*
X217075518Y-67675812D01*
X217200000Y-67688072D01*
X218800000Y-67688072D01*
X218924482Y-67675812D01*
X219044180Y-67639502D01*
X219154494Y-67580537D01*
X219251185Y-67501185D01*
X219330537Y-67404494D01*
X219389502Y-67294180D01*
X219425812Y-67174482D01*
X219438072Y-67050000D01*
X219438072Y-65450000D01*
X219425812Y-65325518D01*
X219389502Y-65205820D01*
X219330537Y-65095506D01*
X219251185Y-64998815D01*
X219154494Y-64919463D01*
X219044180Y-64860498D01*
X218924482Y-64824188D01*
X218800000Y-64811928D01*
X217200000Y-64811928D01*
X217075518Y-64824188D01*
X216955820Y-64860498D01*
X216845506Y-64919463D01*
X216748815Y-64998815D01*
X216669463Y-65095506D01*
X216610498Y-65205820D01*
X216574188Y-65325518D01*
X216561928Y-65450000D01*
X216561928Y-65457215D01*
X216492702Y-65436903D01*
X215679605Y-66250000D01*
X215320395Y-66250000D01*
X214507298Y-65436903D01*
X214263329Y-65508486D01*
X214142429Y-65763996D01*
X214073700Y-66038184D01*
X214059783Y-66320512D01*
X211149359Y-66320512D01*
X211185000Y-66141335D01*
X211185000Y-65858665D01*
X211129853Y-65581426D01*
X211021680Y-65320273D01*
X210979602Y-65257298D01*
X214686903Y-65257298D01*
X215500000Y-66070395D01*
X216313097Y-65257298D01*
X216241514Y-65013329D01*
X215986004Y-64892429D01*
X215711816Y-64823700D01*
X215429488Y-64809783D01*
X215149870Y-64851213D01*
X214883708Y-64946397D01*
X214758486Y-65013329D01*
X214686903Y-65257298D01*
X210979602Y-65257298D01*
X210864637Y-65085241D01*
X210664759Y-64885363D01*
X210429727Y-64728320D01*
X210168574Y-64620147D01*
X209891335Y-64565000D01*
X209608665Y-64565000D01*
X209331426Y-64620147D01*
X209070273Y-64728320D01*
X208835241Y-64885363D01*
X208668661Y-65051943D01*
X208639502Y-64955820D01*
X208580537Y-64845506D01*
X208501185Y-64748815D01*
X208404494Y-64669463D01*
X208294180Y-64610498D01*
X208174482Y-64574188D01*
X208050000Y-64561928D01*
X207535750Y-64565000D01*
X207377000Y-64723750D01*
X207123000Y-64723750D01*
X206964250Y-64565000D01*
X206450000Y-64561928D01*
X206325518Y-64574188D01*
X206205820Y-64610498D01*
X206095506Y-64669463D01*
X205998815Y-64748815D01*
X205919463Y-64845506D01*
X205860498Y-64955820D01*
X205824188Y-65075518D01*
X205811928Y-65200000D01*
X201127000Y-65200000D01*
X201127000Y-63325053D01*
X201169463Y-63404494D01*
X201248815Y-63501185D01*
X201345506Y-63580537D01*
X201455820Y-63639502D01*
X201575518Y-63675812D01*
X201700000Y-63688072D01*
X203300000Y-63688072D01*
X203424482Y-63675812D01*
X203544180Y-63639502D01*
X203654494Y-63580537D01*
X203751185Y-63501185D01*
X203830537Y-63404494D01*
X203889502Y-63294180D01*
X203925812Y-63174482D01*
X203938072Y-63050000D01*
X203938072Y-61450000D01*
X203925812Y-61325518D01*
X203889502Y-61205820D01*
X203830537Y-61095506D01*
X203751185Y-60998815D01*
X203654494Y-60919463D01*
X203544180Y-60860498D01*
X203424482Y-60824188D01*
X203300000Y-60811928D01*
X201700000Y-60811928D01*
X201575518Y-60824188D01*
X201455820Y-60860498D01*
X201345506Y-60919463D01*
X201248815Y-60998815D01*
X201169463Y-61095506D01*
X201127000Y-61174947D01*
X201127000Y-55886400D01*
X206248328Y-55886400D01*
X206248328Y-57613600D01*
X206260588Y-57738082D01*
X206296898Y-57857780D01*
X206355863Y-57968094D01*
X206435215Y-58064785D01*
X206531906Y-58144137D01*
X206642220Y-58203102D01*
X206761918Y-58239412D01*
X206886400Y-58251672D01*
X208613600Y-58251672D01*
X208738082Y-58239412D01*
X208857780Y-58203102D01*
X208968094Y-58144137D01*
X209064785Y-58064785D01*
X209144137Y-57968094D01*
X209203102Y-57857780D01*
X209222624Y-57793426D01*
X209279707Y-57856854D01*
X209515056Y-58032684D01*
X209780186Y-58159222D01*
X209930974Y-58204958D01*
X210163000Y-58083817D01*
X210163000Y-56877000D01*
X210417000Y-56877000D01*
X210417000Y-58083817D01*
X210649026Y-58204958D01*
X210799814Y-58159222D01*
X211064944Y-58032684D01*
X211300293Y-57856854D01*
X211496817Y-57638488D01*
X211560000Y-57532230D01*
X211623183Y-57638488D01*
X211819707Y-57856854D01*
X212055056Y-58032684D01*
X212320186Y-58159222D01*
X212470974Y-58204958D01*
X212703000Y-58083817D01*
X212703000Y-56877000D01*
X212957000Y-56877000D01*
X212957000Y-58083817D01*
X213189026Y-58204958D01*
X213339814Y-58159222D01*
X213604944Y-58032684D01*
X213840293Y-57856854D01*
X214036817Y-57638488D01*
X214100000Y-57532230D01*
X214163183Y-57638488D01*
X214359707Y-57856854D01*
X214595056Y-58032684D01*
X214860186Y-58159222D01*
X215010974Y-58204958D01*
X215243000Y-58083817D01*
X215243000Y-56877000D01*
X212957000Y-56877000D01*
X212703000Y-56877000D01*
X210417000Y-56877000D01*
X210163000Y-56877000D01*
X210143000Y-56877000D01*
X210143000Y-56623000D01*
X210163000Y-56623000D01*
X210163000Y-54337000D01*
X210417000Y-54337000D01*
X210417000Y-56623000D01*
X212703000Y-56623000D01*
X212703000Y-54337000D01*
X212957000Y-54337000D01*
X212957000Y-56623000D01*
X215243000Y-56623000D01*
X215243000Y-54337000D01*
X212957000Y-54337000D01*
X212703000Y-54337000D01*
X210417000Y-54337000D01*
X210163000Y-54337000D01*
X210143000Y-54337000D01*
X210143000Y-54083000D01*
X210163000Y-54083000D01*
X210163000Y-52876183D01*
X210417000Y-52876183D01*
X210417000Y-54083000D01*
X212703000Y-54083000D01*
X212703000Y-52876183D01*
X212957000Y-52876183D01*
X212957000Y-54083000D01*
X215243000Y-54083000D01*
X215243000Y-52876183D01*
X215497000Y-52876183D01*
X215497000Y-54083000D01*
X215517000Y-54083000D01*
X215517000Y-54337000D01*
X215497000Y-54337000D01*
X215497000Y-56623000D01*
X215517000Y-56623000D01*
X215517000Y-56877000D01*
X215497000Y-56877000D01*
X215497000Y-58083817D01*
X215729026Y-58204958D01*
X215879814Y-58159222D01*
X216144944Y-58032684D01*
X216380293Y-57856854D01*
X216576817Y-57638488D01*
X216635441Y-57539897D01*
X216745961Y-57705302D01*
X216954698Y-57914039D01*
X217200147Y-58078042D01*
X217472875Y-58191010D01*
X217762401Y-58248600D01*
X218057599Y-58248600D01*
X218347125Y-58191010D01*
X218619853Y-58078042D01*
X218865302Y-57914039D01*
X219074039Y-57705302D01*
X219238042Y-57459853D01*
X219351010Y-57187125D01*
X219408600Y-56897599D01*
X219408600Y-56602401D01*
X219351010Y-56312875D01*
X219238042Y-56040147D01*
X219074039Y-55794698D01*
X218865302Y-55585961D01*
X218706719Y-55480000D01*
X218865302Y-55374039D01*
X219074039Y-55165302D01*
X219238042Y-54919853D01*
X219351010Y-54647125D01*
X219408600Y-54357599D01*
X219408600Y-54062401D01*
X219351010Y-53772875D01*
X219238042Y-53500147D01*
X219074039Y-53254698D01*
X218865302Y-53045961D01*
X218619853Y-52881958D01*
X218347125Y-52768990D01*
X218057599Y-52711400D01*
X217762401Y-52711400D01*
X217472875Y-52768990D01*
X217200147Y-52881958D01*
X216954698Y-53045961D01*
X216745961Y-53254698D01*
X216635441Y-53420103D01*
X216576817Y-53321512D01*
X216380293Y-53103146D01*
X216144944Y-52927316D01*
X215879814Y-52800778D01*
X215729026Y-52755042D01*
X215497000Y-52876183D01*
X215243000Y-52876183D01*
X215010974Y-52755042D01*
X214860186Y-52800778D01*
X214595056Y-52927316D01*
X214359707Y-53103146D01*
X214163183Y-53321512D01*
X214100000Y-53427770D01*
X214036817Y-53321512D01*
X213840293Y-53103146D01*
X213604944Y-52927316D01*
X213339814Y-52800778D01*
X213189026Y-52755042D01*
X212957000Y-52876183D01*
X212703000Y-52876183D01*
X212470974Y-52755042D01*
X212320186Y-52800778D01*
X212055056Y-52927316D01*
X211819707Y-53103146D01*
X211623183Y-53321512D01*
X211560000Y-53427770D01*
X211496817Y-53321512D01*
X211300293Y-53103146D01*
X211064944Y-52927316D01*
X210799814Y-52800778D01*
X210649026Y-52755042D01*
X210417000Y-52876183D01*
X210163000Y-52876183D01*
X209930974Y-52755042D01*
X209780186Y-52800778D01*
X209515056Y-52927316D01*
X209279707Y-53103146D01*
X209083183Y-53321512D01*
X209024559Y-53420103D01*
X208914039Y-53254698D01*
X208705302Y-53045961D01*
X208459853Y-52881958D01*
X208187125Y-52768990D01*
X207897599Y-52711400D01*
X207602401Y-52711400D01*
X207312875Y-52768990D01*
X207040147Y-52881958D01*
X206794698Y-53045961D01*
X206585961Y-53254698D01*
X206421958Y-53500147D01*
X206308990Y-53772875D01*
X206251400Y-54062401D01*
X206251400Y-54357599D01*
X206308990Y-54647125D01*
X206421958Y-54919853D01*
X206585961Y-55165302D01*
X206700023Y-55279364D01*
X206642220Y-55296898D01*
X206531906Y-55355863D01*
X206435215Y-55435215D01*
X206355863Y-55531906D01*
X206296898Y-55642220D01*
X206260588Y-55761918D01*
X206248328Y-55886400D01*
X201127000Y-55886400D01*
X201127000Y-50877000D01*
X224123000Y-50877000D01*
X224123000Y-61694881D01*
%TA.AperFunction,Conductor*%
D20*
G36*
X224123000Y-61694881D02*
G01*
X224021680Y-61450273D01*
X223864637Y-61215241D01*
X223664759Y-61015363D01*
X223429727Y-60858320D01*
X223168574Y-60750147D01*
X222891335Y-60695000D01*
X222608665Y-60695000D01*
X222331426Y-60750147D01*
X222070273Y-60858320D01*
X221835241Y-61015363D01*
X221635363Y-61215241D01*
X221478320Y-61450273D01*
X221370147Y-61711426D01*
X221315000Y-61988665D01*
X221315000Y-62271335D01*
X221370147Y-62548574D01*
X221478320Y-62809727D01*
X221635363Y-63044759D01*
X221835241Y-63244637D01*
X222070273Y-63401680D01*
X222331426Y-63509853D01*
X222608665Y-63565000D01*
X222891335Y-63565000D01*
X223168574Y-63509853D01*
X223429727Y-63401680D01*
X223664759Y-63244637D01*
X223864637Y-63044759D01*
X224021680Y-62809727D01*
X224123000Y-62565119D01*
X224123000Y-68674947D01*
X224080537Y-68595506D01*
X224001185Y-68498815D01*
X223904494Y-68419463D01*
X223794180Y-68360498D01*
X223674482Y-68324188D01*
X223550000Y-68311928D01*
X221950000Y-68311928D01*
X221825518Y-68324188D01*
X221705820Y-68360498D01*
X221595506Y-68419463D01*
X221498815Y-68498815D01*
X221419463Y-68595506D01*
X221360498Y-68705820D01*
X221324188Y-68825518D01*
X221311928Y-68950000D01*
X221311928Y-70550000D01*
X221324188Y-70674482D01*
X221360498Y-70794180D01*
X221419463Y-70904494D01*
X221498815Y-71001185D01*
X221595506Y-71080537D01*
X221705820Y-71139502D01*
X221825518Y-71175812D01*
X221950000Y-71188072D01*
X223550000Y-71188072D01*
X223674482Y-71175812D01*
X223794180Y-71139502D01*
X223904494Y-71080537D01*
X224001185Y-71001185D01*
X224080537Y-70904494D01*
X224123000Y-70825053D01*
X224123000Y-118123000D01*
X201127000Y-118123000D01*
X201127000Y-114114380D01*
X203203134Y-114114380D01*
X203258304Y-114405773D01*
X203369262Y-114680804D01*
X203531744Y-114928903D01*
X203739506Y-115140536D01*
X203984563Y-115307571D01*
X204257498Y-115423588D01*
X204349969Y-115441302D01*
X204583000Y-115320246D01*
X204583000Y-113877000D01*
X203359414Y-113877000D01*
X203203134Y-114114380D01*
X201127000Y-114114380D01*
X201127000Y-113385620D01*
X203203134Y-113385620D01*
X203359414Y-113623000D01*
X204583000Y-113623000D01*
X204583000Y-112179754D01*
X204837000Y-112179754D01*
X204837000Y-113623000D01*
X204857000Y-113623000D01*
X204857000Y-113877000D01*
X204837000Y-113877000D01*
X204837000Y-115320246D01*
X205070031Y-115441302D01*
X205162502Y-115423588D01*
X205435437Y-115307571D01*
X205680494Y-115140536D01*
X205833493Y-114984686D01*
X205891595Y-115093387D01*
X206002038Y-115227962D01*
X206136613Y-115338405D01*
X206290149Y-115420472D01*
X206456745Y-115471008D01*
X206629999Y-115488072D01*
X207870001Y-115488072D01*
X208043255Y-115471008D01*
X208209851Y-115420472D01*
X208363387Y-115338405D01*
X208497962Y-115227962D01*
X208608405Y-115093387D01*
X208690472Y-114939851D01*
X208741008Y-114773255D01*
X208758072Y-114600001D01*
X208758072Y-114114380D01*
X214203134Y-114114380D01*
X214258304Y-114405773D01*
X214369262Y-114680804D01*
X214531744Y-114928903D01*
X214739506Y-115140536D01*
X214984563Y-115307571D01*
X215257498Y-115423588D01*
X215349969Y-115441302D01*
X215583000Y-115320246D01*
X215583000Y-113877000D01*
X214359414Y-113877000D01*
X214203134Y-114114380D01*
X208758072Y-114114380D01*
X208758072Y-113385620D01*
X214203134Y-113385620D01*
X214359414Y-113623000D01*
X215583000Y-113623000D01*
X215583000Y-112179754D01*
X215837000Y-112179754D01*
X215837000Y-113623000D01*
X215857000Y-113623000D01*
X215857000Y-113877000D01*
X215837000Y-113877000D01*
X215837000Y-115320246D01*
X216070031Y-115441302D01*
X216162502Y-115423588D01*
X216435437Y-115307571D01*
X216680494Y-115140536D01*
X216833493Y-114984686D01*
X216891595Y-115093387D01*
X217002038Y-115227962D01*
X217136613Y-115338405D01*
X217290149Y-115420472D01*
X217456745Y-115471008D01*
X217629999Y-115488072D01*
X218870001Y-115488072D01*
X219043255Y-115471008D01*
X219209851Y-115420472D01*
X219363387Y-115338405D01*
X219497962Y-115227962D01*
X219608405Y-115093387D01*
X219690472Y-114939851D01*
X219741008Y-114773255D01*
X219758072Y-114600001D01*
X219758072Y-112899999D01*
X219741008Y-112726745D01*
X219690472Y-112560149D01*
X219608405Y-112406613D01*
X219497962Y-112272038D01*
X219363387Y-112161595D01*
X219209851Y-112079528D01*
X219043255Y-112028992D01*
X218870001Y-112011928D01*
X217629999Y-112011928D01*
X217456745Y-112028992D01*
X217290149Y-112079528D01*
X217136613Y-112161595D01*
X217002038Y-112272038D01*
X216891595Y-112406613D01*
X216833493Y-112515314D01*
X216680494Y-112359464D01*
X216435437Y-112192429D01*
X216162502Y-112076412D01*
X216070031Y-112058698D01*
X215837000Y-112179754D01*
X215583000Y-112179754D01*
X215349969Y-112058698D01*
X215257498Y-112076412D01*
X214984563Y-112192429D01*
X214739506Y-112359464D01*
X214531744Y-112571097D01*
X214369262Y-112819196D01*
X214258304Y-113094227D01*
X214203134Y-113385620D01*
X208758072Y-113385620D01*
X208758072Y-113316729D01*
X211314802Y-110760000D01*
X220781957Y-110760000D01*
X220885363Y-110914759D01*
X221085241Y-111114637D01*
X221320273Y-111271680D01*
X221581426Y-111379853D01*
X221858665Y-111435000D01*
X222141335Y-111435000D01*
X222418574Y-111379853D01*
X222679727Y-111271680D01*
X222914759Y-111114637D01*
X223114637Y-110914759D01*
X223271680Y-110679727D01*
X223379853Y-110418574D01*
X223435000Y-110141335D01*
X223435000Y-109858665D01*
X223379853Y-109581426D01*
X223271680Y-109320273D01*
X223114637Y-109085241D01*
X222914759Y-108885363D01*
X222679727Y-108728320D01*
X222418574Y-108620147D01*
X222141335Y-108565000D01*
X221858665Y-108565000D01*
X221581426Y-108620147D01*
X221320273Y-108728320D01*
X221085241Y-108885363D01*
X220885363Y-109085241D01*
X220781957Y-109240000D01*
X211037323Y-109240000D01*
X211000000Y-109236324D01*
X210962677Y-109240000D01*
X210962667Y-109240000D01*
X210851014Y-109250997D01*
X210707753Y-109294454D01*
X210575724Y-109365026D01*
X210459999Y-109459999D01*
X210436201Y-109488997D01*
X207909391Y-112015808D01*
X207870001Y-112011928D01*
X206629999Y-112011928D01*
X206456745Y-112028992D01*
X206290149Y-112079528D01*
X206136613Y-112161595D01*
X206002038Y-112272038D01*
X205891595Y-112406613D01*
X205833493Y-112515314D01*
X205680494Y-112359464D01*
X205435437Y-112192429D01*
X205162502Y-112076412D01*
X205070031Y-112058698D01*
X204837000Y-112179754D01*
X204583000Y-112179754D01*
X204349969Y-112058698D01*
X204257498Y-112076412D01*
X203984563Y-112192429D01*
X203739506Y-112359464D01*
X203531744Y-112571097D01*
X203369262Y-112819196D01*
X203258304Y-113094227D01*
X203203134Y-113385620D01*
X201127000Y-113385620D01*
X201127000Y-106241964D01*
X201130115Y-106241964D01*
X201130115Y-106758036D01*
X201230795Y-107264192D01*
X201428288Y-107740981D01*
X201715002Y-108170080D01*
X202079920Y-108534998D01*
X202509019Y-108821712D01*
X202985808Y-109019205D01*
X203491964Y-109119885D01*
X204008036Y-109119885D01*
X204514192Y-109019205D01*
X204990981Y-108821712D01*
X205420080Y-108534998D01*
X205784998Y-108170080D01*
X206071712Y-107740981D01*
X206269205Y-107264192D01*
X206369885Y-106758036D01*
X206369885Y-106241964D01*
X206269205Y-105735808D01*
X206071712Y-105259019D01*
X205784998Y-104829920D01*
X205420080Y-104465002D01*
X204990981Y-104178288D01*
X204514192Y-103980795D01*
X204008036Y-103880115D01*
X203491964Y-103880115D01*
X202985808Y-103980795D01*
X202509019Y-104178288D01*
X202079920Y-104465002D01*
X201715002Y-104829920D01*
X201428288Y-105259019D01*
X201230795Y-105735808D01*
X201130115Y-106241964D01*
X201127000Y-106241964D01*
X201127000Y-98858665D01*
X201815000Y-98858665D01*
X201815000Y-99141335D01*
X201870147Y-99418574D01*
X201978320Y-99679727D01*
X202135363Y-99914759D01*
X202335241Y-100114637D01*
X202490000Y-100218044D01*
X202490000Y-100962676D01*
X202486324Y-100999999D01*
X202490000Y-101037321D01*
X202490000Y-101037331D01*
X202500997Y-101148984D01*
X202522495Y-101219853D01*
X202544454Y-101292245D01*
X202615026Y-101424275D01*
X202654871Y-101472825D01*
X202709999Y-101540000D01*
X202739003Y-101563803D01*
X208861212Y-107686013D01*
X208885010Y-107715011D01*
X209000735Y-107809984D01*
X209132764Y-107880556D01*
X209276025Y-107924013D01*
X209387678Y-107935010D01*
X209387687Y-107935010D01*
X209425010Y-107938686D01*
X209462333Y-107935010D01*
X214637668Y-107935010D01*
X214674990Y-107938686D01*
X214712312Y-107935010D01*
X214712323Y-107935010D01*
X214823976Y-107924013D01*
X214967237Y-107880556D01*
X215099266Y-107809984D01*
X215214991Y-107715011D01*
X215238794Y-107686007D01*
X215436729Y-107488072D01*
X215620001Y-107488072D01*
X215793255Y-107471008D01*
X215959851Y-107420472D01*
X216113387Y-107338405D01*
X216247962Y-107227962D01*
X216358405Y-107093387D01*
X216440472Y-106939851D01*
X216491008Y-106773255D01*
X216508072Y-106600001D01*
X216508072Y-104899999D01*
X216491008Y-104726745D01*
X216440472Y-104560149D01*
X216358405Y-104406613D01*
X216247962Y-104272038D01*
X216113387Y-104161595D01*
X215959851Y-104079528D01*
X215793255Y-104028992D01*
X215620001Y-104011928D01*
X215272873Y-104011928D01*
X219586136Y-99698665D01*
X220565000Y-99698665D01*
X220565000Y-99981335D01*
X220620147Y-100258574D01*
X220728320Y-100519727D01*
X220885363Y-100754759D01*
X221085241Y-100954637D01*
X221320273Y-101111680D01*
X221581426Y-101219853D01*
X221858665Y-101275000D01*
X222141335Y-101275000D01*
X222418574Y-101219853D01*
X222679727Y-101111680D01*
X222914759Y-100954637D01*
X223114637Y-100754759D01*
X223271680Y-100519727D01*
X223379853Y-100258574D01*
X223435000Y-99981335D01*
X223435000Y-99698665D01*
X223379853Y-99421426D01*
X223271680Y-99160273D01*
X223114637Y-98925241D01*
X222914759Y-98725363D01*
X222679727Y-98568320D01*
X222418574Y-98460147D01*
X222141335Y-98405000D01*
X221858665Y-98405000D01*
X221581426Y-98460147D01*
X221320273Y-98568320D01*
X221085241Y-98725363D01*
X220885363Y-98925241D01*
X220728320Y-99160273D01*
X220620147Y-99421426D01*
X220565000Y-99698665D01*
X219586136Y-99698665D01*
X221343501Y-97941301D01*
X221581426Y-98039853D01*
X221858665Y-98095000D01*
X222141335Y-98095000D01*
X222418574Y-98039853D01*
X222679727Y-97931680D01*
X222914759Y-97774637D01*
X223114637Y-97574759D01*
X223271680Y-97339727D01*
X223379853Y-97078574D01*
X223435000Y-96801335D01*
X223435000Y-96518665D01*
X223379853Y-96241426D01*
X223271680Y-95980273D01*
X223114637Y-95745241D01*
X222914759Y-95545363D01*
X222679727Y-95388320D01*
X222418574Y-95280147D01*
X222141335Y-95225000D01*
X221858665Y-95225000D01*
X221581426Y-95280147D01*
X221320273Y-95388320D01*
X221085241Y-95545363D01*
X220885363Y-95745241D01*
X220728320Y-95980273D01*
X220620147Y-96241426D01*
X220565000Y-96518665D01*
X220565000Y-96570198D01*
X213018500Y-104116699D01*
X212755032Y-104036776D01*
X212460000Y-104007718D01*
X212164969Y-104036776D01*
X211881276Y-104122834D01*
X211619822Y-104262583D01*
X211390655Y-104450655D01*
X211202583Y-104679821D01*
X211187698Y-104707669D01*
X211098256Y-104571097D01*
X210890494Y-104359464D01*
X210645437Y-104192429D01*
X210372502Y-104076412D01*
X210280031Y-104058698D01*
X210047000Y-104179754D01*
X210047000Y-105623000D01*
X210067000Y-105623000D01*
X210067000Y-105877000D01*
X210047000Y-105877000D01*
X210047000Y-105897000D01*
X209793000Y-105897000D01*
X209793000Y-105877000D01*
X209773000Y-105877000D01*
X209773000Y-105623000D01*
X209793000Y-105623000D01*
X209793000Y-104179754D01*
X209559969Y-104058698D01*
X209467498Y-104076412D01*
X209194563Y-104192429D01*
X208949506Y-104359464D01*
X208741744Y-104571097D01*
X208579262Y-104819196D01*
X208468304Y-105094227D01*
X208460460Y-105135657D01*
X204010000Y-100685198D01*
X204010000Y-100218043D01*
X204164759Y-100114637D01*
X204364637Y-99914759D01*
X204521680Y-99679727D01*
X204629853Y-99418574D01*
X204685000Y-99141335D01*
X204685000Y-98858665D01*
X204629853Y-98581426D01*
X204521680Y-98320273D01*
X204364637Y-98085241D01*
X204164759Y-97885363D01*
X203929727Y-97728320D01*
X203668574Y-97620147D01*
X203391335Y-97565000D01*
X203108665Y-97565000D01*
X202831426Y-97620147D01*
X202570273Y-97728320D01*
X202335241Y-97885363D01*
X202135363Y-98085241D01*
X201978320Y-98320273D01*
X201870147Y-98581426D01*
X201815000Y-98858665D01*
X201127000Y-98858665D01*
X201127000Y-85858665D01*
X201815000Y-85858665D01*
X201815000Y-86141335D01*
X201870147Y-86418574D01*
X201978320Y-86679727D01*
X202135363Y-86914759D01*
X202335241Y-87114637D01*
X202490000Y-87218044D01*
X202490001Y-87621956D01*
X202335241Y-87725363D01*
X202135363Y-87925241D01*
X201978320Y-88160273D01*
X201870147Y-88421426D01*
X201815000Y-88698665D01*
X201815000Y-88981335D01*
X201870147Y-89258574D01*
X201978320Y-89519727D01*
X202135363Y-89754759D01*
X202335241Y-89954637D01*
X202570273Y-90111680D01*
X202831426Y-90219853D01*
X203108665Y-90275000D01*
X203391335Y-90275000D01*
X203573887Y-90238688D01*
X208096200Y-94761002D01*
X208119999Y-94790001D01*
X208235724Y-94884974D01*
X208367753Y-94955546D01*
X208511014Y-94999003D01*
X208622667Y-95010000D01*
X208622676Y-95010000D01*
X208659999Y-95013676D01*
X208697322Y-95010000D01*
X208935199Y-95010000D01*
X209160001Y-95234803D01*
X209160001Y-95969727D01*
X209079822Y-96012583D01*
X208850655Y-96200655D01*
X208662583Y-96429821D01*
X208522834Y-96691275D01*
X208436776Y-96974968D01*
X208415000Y-97196064D01*
X208415000Y-97803935D01*
X208436776Y-98025031D01*
X208522834Y-98308724D01*
X208662583Y-98570178D01*
X208850655Y-98799345D01*
X209079821Y-98987417D01*
X209341275Y-99127166D01*
X209624968Y-99213224D01*
X209920000Y-99242282D01*
X210215031Y-99213224D01*
X210498724Y-99127166D01*
X210760178Y-98987417D01*
X210989345Y-98799345D01*
X211177417Y-98570179D01*
X211190000Y-98546637D01*
X211202583Y-98570178D01*
X211390655Y-98799345D01*
X211619821Y-98987417D01*
X211881275Y-99127166D01*
X212164968Y-99213224D01*
X212460000Y-99242282D01*
X212755031Y-99213224D01*
X213038724Y-99127166D01*
X213300178Y-98987417D01*
X213527385Y-98800953D01*
X213540498Y-98844180D01*
X213599463Y-98954494D01*
X213678815Y-99051185D01*
X213775506Y-99130537D01*
X213885820Y-99189502D01*
X214005518Y-99225812D01*
X214130000Y-99238072D01*
X214714250Y-99235000D01*
X214873000Y-99076250D01*
X214873000Y-97627000D01*
X215127000Y-97627000D01*
X215127000Y-99076250D01*
X215285750Y-99235000D01*
X215870000Y-99238072D01*
X215994482Y-99225812D01*
X216114180Y-99189502D01*
X216224494Y-99130537D01*
X216321185Y-99051185D01*
X216400537Y-98954494D01*
X216459502Y-98844180D01*
X216495812Y-98724482D01*
X216508072Y-98600000D01*
X216505000Y-97785750D01*
X216346250Y-97627000D01*
X215127000Y-97627000D01*
X214873000Y-97627000D01*
X214853000Y-97627000D01*
X214853000Y-97373000D01*
X214873000Y-97373000D01*
X214873000Y-95923750D01*
X215127000Y-95923750D01*
X215127000Y-97373000D01*
X216346250Y-97373000D01*
X216505000Y-97214250D01*
X216508072Y-96400000D01*
X216495812Y-96275518D01*
X216459502Y-96155820D01*
X216400537Y-96045506D01*
X216321185Y-95948815D01*
X216224494Y-95869463D01*
X216114180Y-95810498D01*
X215994482Y-95774188D01*
X215870000Y-95761928D01*
X215285750Y-95765000D01*
X215127000Y-95923750D01*
X214873000Y-95923750D01*
X214714250Y-95765000D01*
X214130000Y-95761928D01*
X214005518Y-95774188D01*
X213885820Y-95810498D01*
X213775506Y-95869463D01*
X213678815Y-95948815D01*
X213599463Y-96045506D01*
X213540498Y-96155820D01*
X213527385Y-96199047D01*
X213300179Y-96012583D01*
X213038725Y-95872834D01*
X212755032Y-95786776D01*
X212460000Y-95757718D01*
X212164969Y-95786776D01*
X211881276Y-95872834D01*
X211619822Y-96012583D01*
X211390655Y-96200655D01*
X211202583Y-96429821D01*
X211190000Y-96453362D01*
X211177417Y-96429821D01*
X210989345Y-96200655D01*
X210760179Y-96012583D01*
X210680000Y-95969727D01*
X210680000Y-94957322D01*
X210683676Y-94919999D01*
X210680000Y-94882676D01*
X210680000Y-94882667D01*
X210669003Y-94771014D01*
X210625546Y-94627753D01*
X210554974Y-94495723D01*
X210483799Y-94408997D01*
X210460001Y-94379999D01*
X210431002Y-94356200D01*
X209813803Y-93739002D01*
X209790001Y-93709999D01*
X209674276Y-93615026D01*
X209542247Y-93544454D01*
X209398986Y-93500997D01*
X209287333Y-93490000D01*
X209287322Y-93490000D01*
X209250000Y-93486324D01*
X209212678Y-93490000D01*
X208974802Y-93490000D01*
X205099182Y-89614380D01*
X208413134Y-89614380D01*
X208468304Y-89905773D01*
X208579262Y-90180804D01*
X208741744Y-90428903D01*
X208949506Y-90640536D01*
X209194563Y-90807571D01*
X209467498Y-90923588D01*
X209559969Y-90941302D01*
X209793000Y-90820246D01*
X209793000Y-89377000D01*
X208569414Y-89377000D01*
X208413134Y-89614380D01*
X205099182Y-89614380D01*
X204648688Y-89163887D01*
X204685000Y-88981335D01*
X204685000Y-88885620D01*
X208413134Y-88885620D01*
X208569414Y-89123000D01*
X209793000Y-89123000D01*
X209793000Y-87679754D01*
X209559969Y-87558698D01*
X209467498Y-87576412D01*
X209194563Y-87692429D01*
X208949506Y-87859464D01*
X208741744Y-88071097D01*
X208579262Y-88319196D01*
X208468304Y-88594227D01*
X208413134Y-88885620D01*
X204685000Y-88885620D01*
X204685000Y-88698665D01*
X204629853Y-88421426D01*
X204521680Y-88160273D01*
X204364637Y-87925241D01*
X204164759Y-87725363D01*
X204010000Y-87621957D01*
X204010000Y-87218043D01*
X204164759Y-87114637D01*
X204364637Y-86914759D01*
X204521680Y-86679727D01*
X204629853Y-86418574D01*
X204685000Y-86141335D01*
X204685000Y-85858665D01*
X204629853Y-85581426D01*
X204521680Y-85320273D01*
X204364637Y-85085241D01*
X204164759Y-84885363D01*
X203929727Y-84728320D01*
X203668574Y-84620147D01*
X203391335Y-84565000D01*
X203108665Y-84565000D01*
X202831426Y-84620147D01*
X202570273Y-84728320D01*
X202335241Y-84885363D01*
X202135363Y-85085241D01*
X201978320Y-85320273D01*
X201870147Y-85581426D01*
X201815000Y-85858665D01*
X201127000Y-85858665D01*
X201127000Y-75698665D01*
X201815000Y-75698665D01*
X201815000Y-75981335D01*
X201870147Y-76258574D01*
X201978320Y-76519727D01*
X202135363Y-76754759D01*
X202335241Y-76954637D01*
X202570273Y-77111680D01*
X202831426Y-77219853D01*
X203108665Y-77275000D01*
X203391335Y-77275000D01*
X203668574Y-77219853D01*
X203929727Y-77111680D01*
X204164759Y-76954637D01*
X204319396Y-76800000D01*
X207129099Y-76800000D01*
X207151068Y-76841101D01*
X207273684Y-76990510D01*
X206713988Y-77550207D01*
X206684990Y-77574005D01*
X206661192Y-77603003D01*
X206661191Y-77603004D01*
X206590016Y-77689730D01*
X206519444Y-77821760D01*
X206475988Y-77965021D01*
X206461314Y-78114006D01*
X206464991Y-78151338D01*
X206464990Y-79557667D01*
X206461314Y-79594990D01*
X206464990Y-79632312D01*
X206464990Y-79632322D01*
X206475987Y-79743975D01*
X206497532Y-79815000D01*
X206519444Y-79887236D01*
X206590016Y-80019266D01*
X206629861Y-80067816D01*
X206684989Y-80134991D01*
X206713993Y-80158794D01*
X207054592Y-80499393D01*
X207017818Y-80568192D01*
X206935764Y-80838691D01*
X206908057Y-81120000D01*
X206935764Y-81401309D01*
X207017818Y-81671808D01*
X207151068Y-81921101D01*
X207330392Y-82139608D01*
X207548899Y-82318932D01*
X207798192Y-82452182D01*
X208068691Y-82534236D01*
X208279508Y-82555000D01*
X209220492Y-82555000D01*
X209431309Y-82534236D01*
X209701808Y-82452182D01*
X209951101Y-82318932D01*
X210169608Y-82139608D01*
X210348932Y-81921101D01*
X210482182Y-81671808D01*
X210564236Y-81401309D01*
X210591943Y-81120000D01*
X210564236Y-80838691D01*
X210482182Y-80568192D01*
X210348932Y-80318899D01*
X210169608Y-80100392D01*
X209951101Y-79921068D01*
X209818142Y-79850000D01*
X209951101Y-79778932D01*
X210155986Y-79610787D01*
X211780000Y-81234802D01*
X211780001Y-87676966D01*
X211619822Y-87762583D01*
X211390655Y-87950655D01*
X211202583Y-88179821D01*
X211187698Y-88207669D01*
X211098256Y-88071097D01*
X210890494Y-87859464D01*
X210645437Y-87692429D01*
X210372502Y-87576412D01*
X210280031Y-87558698D01*
X210047000Y-87679754D01*
X210047000Y-89123000D01*
X210067000Y-89123000D01*
X210067000Y-89377000D01*
X210047000Y-89377000D01*
X210047000Y-90820246D01*
X210280031Y-90941302D01*
X210372502Y-90923588D01*
X210645437Y-90807571D01*
X210890494Y-90640536D01*
X211098256Y-90428903D01*
X211187698Y-90292331D01*
X211202583Y-90320178D01*
X211390655Y-90549345D01*
X211619821Y-90737417D01*
X211881275Y-90877166D01*
X212164968Y-90963224D01*
X212460000Y-90992282D01*
X212755031Y-90963224D01*
X213038724Y-90877166D01*
X213300178Y-90737417D01*
X213529345Y-90549345D01*
X213583066Y-90483886D01*
X213641595Y-90593387D01*
X213752038Y-90727962D01*
X213886613Y-90838405D01*
X214040149Y-90920472D01*
X214206745Y-90971008D01*
X214379999Y-90988072D01*
X215620001Y-90988072D01*
X215793255Y-90971008D01*
X215959851Y-90920472D01*
X216113387Y-90838405D01*
X216247962Y-90727962D01*
X216358405Y-90593387D01*
X216440472Y-90439851D01*
X216491008Y-90273255D01*
X216508072Y-90100001D01*
X216508072Y-88399999D01*
X216491008Y-88226745D01*
X216440472Y-88060149D01*
X216358405Y-87906613D01*
X216247962Y-87772038D01*
X216113387Y-87661595D01*
X215959851Y-87579528D01*
X215793255Y-87528992D01*
X215620001Y-87511928D01*
X214379999Y-87511928D01*
X214206745Y-87528992D01*
X214040149Y-87579528D01*
X213886613Y-87661595D01*
X213752038Y-87772038D01*
X213641595Y-87906613D01*
X213583066Y-88016114D01*
X213529345Y-87950655D01*
X213300179Y-87762583D01*
X213300000Y-87762487D01*
X213300000Y-80957325D01*
X213303676Y-80920000D01*
X213300000Y-80882675D01*
X213300000Y-80882667D01*
X213289003Y-80771014D01*
X213245546Y-80627753D01*
X213174974Y-80495724D01*
X213080001Y-80379999D01*
X213051004Y-80356202D01*
X210909791Y-78214990D01*
X214581154Y-78214990D01*
X214555764Y-78298691D01*
X214528057Y-78580000D01*
X214555764Y-78861309D01*
X214637818Y-79131808D01*
X214771068Y-79381101D01*
X214950392Y-79599608D01*
X215168899Y-79778932D01*
X215301858Y-79850000D01*
X215168899Y-79921068D01*
X214950392Y-80100392D01*
X214771068Y-80318899D01*
X214637818Y-80568192D01*
X214555764Y-80838691D01*
X214528057Y-81120000D01*
X214555764Y-81401309D01*
X214637818Y-81671808D01*
X214771068Y-81921101D01*
X214950392Y-82139608D01*
X215168899Y-82318932D01*
X215418192Y-82452182D01*
X215688691Y-82534236D01*
X215899508Y-82555000D01*
X216840492Y-82555000D01*
X216967672Y-82542474D01*
X220601312Y-86176114D01*
X220565000Y-86358665D01*
X220565000Y-86641335D01*
X220620147Y-86918574D01*
X220728320Y-87179727D01*
X220885363Y-87414759D01*
X221085241Y-87614637D01*
X221320273Y-87771680D01*
X221581426Y-87879853D01*
X221858665Y-87935000D01*
X222141335Y-87935000D01*
X222418574Y-87879853D01*
X222679727Y-87771680D01*
X222914759Y-87614637D01*
X223114637Y-87414759D01*
X223271680Y-87179727D01*
X223379853Y-86918574D01*
X223435000Y-86641335D01*
X223435000Y-86358665D01*
X223379853Y-86081426D01*
X223271680Y-85820273D01*
X223114637Y-85585241D01*
X222914759Y-85385363D01*
X222679727Y-85228320D01*
X222418574Y-85120147D01*
X222141335Y-85065000D01*
X222084423Y-85065000D01*
X222116292Y-85053603D01*
X222241514Y-84986671D01*
X222313097Y-84742702D01*
X221500000Y-83929605D01*
X221485858Y-83943748D01*
X221306253Y-83764143D01*
X221320395Y-83750000D01*
X221679605Y-83750000D01*
X222492702Y-84563097D01*
X222736671Y-84491514D01*
X222857571Y-84236004D01*
X222926300Y-83961816D01*
X222940217Y-83679488D01*
X222898787Y-83399870D01*
X222803603Y-83133708D01*
X222736671Y-83008486D01*
X222492702Y-82936903D01*
X221679605Y-83750000D01*
X221320395Y-83750000D01*
X220507298Y-82936903D01*
X220263329Y-83008486D01*
X220142429Y-83263996D01*
X220081574Y-83506772D01*
X218135796Y-81560995D01*
X218184236Y-81401309D01*
X218211943Y-81120000D01*
X218184236Y-80838691D01*
X218102182Y-80568192D01*
X217968932Y-80318899D01*
X217789608Y-80100392D01*
X217571101Y-79921068D01*
X217438142Y-79850000D01*
X217571101Y-79778932D01*
X217789608Y-79599608D01*
X217968932Y-79381101D01*
X218102182Y-79131808D01*
X218149853Y-78974655D01*
X220101312Y-80926114D01*
X220065000Y-81108665D01*
X220065000Y-81391335D01*
X220120147Y-81668574D01*
X220228320Y-81929727D01*
X220385363Y-82164759D01*
X220585241Y-82364637D01*
X220785869Y-82498692D01*
X220758486Y-82513329D01*
X220686903Y-82757298D01*
X221500000Y-83570395D01*
X222313097Y-82757298D01*
X222241514Y-82513329D01*
X222212659Y-82499676D01*
X222414759Y-82364637D01*
X222614637Y-82164759D01*
X222771680Y-81929727D01*
X222879853Y-81668574D01*
X222935000Y-81391335D01*
X222935000Y-81108665D01*
X222879853Y-80831426D01*
X222771680Y-80570273D01*
X222614637Y-80335241D01*
X222414759Y-80135363D01*
X222179727Y-79978320D01*
X221918574Y-79870147D01*
X221641335Y-79815000D01*
X221358665Y-79815000D01*
X221176114Y-79851312D01*
X220609063Y-79284261D01*
X220763996Y-79357571D01*
X221038184Y-79426300D01*
X221320512Y-79440217D01*
X221600130Y-79398787D01*
X221866292Y-79303603D01*
X221991514Y-79236671D01*
X222063097Y-78992702D01*
X221250000Y-78179605D01*
X221235858Y-78193748D01*
X221056253Y-78014143D01*
X221070395Y-78000000D01*
X221429605Y-78000000D01*
X222242702Y-78813097D01*
X222486671Y-78741514D01*
X222607571Y-78486004D01*
X222676300Y-78211816D01*
X222690217Y-77929488D01*
X222648787Y-77649870D01*
X222553603Y-77383708D01*
X222486671Y-77258486D01*
X222242702Y-77186903D01*
X221429605Y-78000000D01*
X221070395Y-78000000D01*
X220257298Y-77186903D01*
X220013329Y-77258486D01*
X219892429Y-77513996D01*
X219823700Y-77788184D01*
X219809783Y-78070512D01*
X219851213Y-78350130D01*
X219946397Y-78616292D01*
X219952487Y-78627685D01*
X218268794Y-76943993D01*
X218244991Y-76914989D01*
X218129266Y-76820016D01*
X218013327Y-76758044D01*
X218102182Y-76591808D01*
X218184236Y-76321309D01*
X218211943Y-76040000D01*
X218184236Y-75758691D01*
X218102182Y-75488192D01*
X218032949Y-75358665D01*
X219815000Y-75358665D01*
X219815000Y-75641335D01*
X219870147Y-75918574D01*
X219978320Y-76179727D01*
X220135363Y-76414759D01*
X220335241Y-76614637D01*
X220535869Y-76748692D01*
X220508486Y-76763329D01*
X220436903Y-77007298D01*
X221250000Y-77820395D01*
X222063097Y-77007298D01*
X221991514Y-76763329D01*
X221962659Y-76749676D01*
X222164759Y-76614637D01*
X222364637Y-76414759D01*
X222521680Y-76179727D01*
X222629853Y-75918574D01*
X222685000Y-75641335D01*
X222685000Y-75358665D01*
X222629853Y-75081426D01*
X222521680Y-74820273D01*
X222364637Y-74585241D01*
X222164759Y-74385363D01*
X221929727Y-74228320D01*
X221668574Y-74120147D01*
X221391335Y-74065000D01*
X221108665Y-74065000D01*
X220831426Y-74120147D01*
X220570273Y-74228320D01*
X220335241Y-74385363D01*
X220135363Y-74585241D01*
X219978320Y-74820273D01*
X219870147Y-75081426D01*
X219815000Y-75358665D01*
X218032949Y-75358665D01*
X217968932Y-75238899D01*
X217789608Y-75020392D01*
X217571101Y-74841068D01*
X217438142Y-74770000D01*
X217571101Y-74698932D01*
X217789608Y-74519608D01*
X217968932Y-74301101D01*
X218102182Y-74051808D01*
X218184236Y-73781309D01*
X218211943Y-73500000D01*
X218184236Y-73218691D01*
X218102182Y-72948192D01*
X217968932Y-72698899D01*
X217789608Y-72480392D01*
X217571101Y-72301068D01*
X217321808Y-72167818D01*
X217051309Y-72085764D01*
X216840492Y-72065000D01*
X215899508Y-72065000D01*
X215688691Y-72085764D01*
X215418192Y-72167818D01*
X215168899Y-72301068D01*
X214950392Y-72480392D01*
X214771068Y-72698899D01*
X214637818Y-72948192D01*
X214555764Y-73218691D01*
X214528057Y-73500000D01*
X214555764Y-73781309D01*
X214637818Y-74051808D01*
X214771068Y-74301101D01*
X214950392Y-74519608D01*
X215168899Y-74698932D01*
X215301858Y-74770000D01*
X215168899Y-74841068D01*
X214950392Y-75020392D01*
X214771068Y-75238899D01*
X214637818Y-75488192D01*
X214555764Y-75758691D01*
X214528057Y-76040000D01*
X214555764Y-76321309D01*
X214637818Y-76591808D01*
X214692970Y-76694990D01*
X210427030Y-76694990D01*
X210482182Y-76591808D01*
X210564236Y-76321309D01*
X210591943Y-76040000D01*
X210564236Y-75758691D01*
X210482182Y-75488192D01*
X210348932Y-75238899D01*
X210169608Y-75020392D01*
X210056518Y-74927581D01*
X210074482Y-74925812D01*
X210194180Y-74889502D01*
X210304494Y-74830537D01*
X210401185Y-74751185D01*
X210480537Y-74654494D01*
X210539502Y-74544180D01*
X210575812Y-74424482D01*
X210588072Y-74300000D01*
X210588072Y-72700000D01*
X210575812Y-72575518D01*
X210539502Y-72455820D01*
X210480537Y-72345506D01*
X210401185Y-72248815D01*
X210304494Y-72169463D01*
X210194180Y-72110498D01*
X210074482Y-72074188D01*
X209950000Y-72061928D01*
X207550000Y-72061928D01*
X207425518Y-72074188D01*
X207305820Y-72110498D01*
X207195506Y-72169463D01*
X207098815Y-72248815D01*
X207019463Y-72345506D01*
X206960498Y-72455820D01*
X206924188Y-72575518D01*
X206911928Y-72700000D01*
X206911928Y-74300000D01*
X206924188Y-74424482D01*
X206960498Y-74544180D01*
X207019463Y-74654494D01*
X207098815Y-74751185D01*
X207195506Y-74830537D01*
X207305820Y-74889502D01*
X207425518Y-74925812D01*
X207443482Y-74927581D01*
X207330392Y-75020392D01*
X207151068Y-75238899D01*
X207129099Y-75280000D01*
X204571272Y-75280000D01*
X204521680Y-75160273D01*
X204364637Y-74925241D01*
X204164759Y-74725363D01*
X203929727Y-74568320D01*
X203668574Y-74460147D01*
X203391335Y-74405000D01*
X203108665Y-74405000D01*
X202831426Y-74460147D01*
X202570273Y-74568320D01*
X202335241Y-74725363D01*
X202135363Y-74925241D01*
X201978320Y-75160273D01*
X201870147Y-75421426D01*
X201815000Y-75698665D01*
X201127000Y-75698665D01*
X201127000Y-70305119D01*
X201228320Y-70549727D01*
X201385363Y-70784759D01*
X201585241Y-70984637D01*
X201820273Y-71141680D01*
X202081426Y-71249853D01*
X202358665Y-71305000D01*
X202641335Y-71305000D01*
X202918574Y-71249853D01*
X203179727Y-71141680D01*
X203414759Y-70984637D01*
X203614637Y-70784759D01*
X203771680Y-70549727D01*
X203879853Y-70288574D01*
X203935000Y-70011335D01*
X203935000Y-69728665D01*
X203879853Y-69451426D01*
X203771680Y-69190273D01*
X203614637Y-68955241D01*
X203414759Y-68755363D01*
X203179727Y-68598320D01*
X202918574Y-68490147D01*
X202641335Y-68435000D01*
X202358665Y-68435000D01*
X202081426Y-68490147D01*
X201820273Y-68598320D01*
X201585241Y-68755363D01*
X201385363Y-68955241D01*
X201228320Y-69190273D01*
X201127000Y-69434881D01*
X201127000Y-66800000D01*
X205811928Y-66800000D01*
X205824188Y-66924482D01*
X205860498Y-67044180D01*
X205919463Y-67154494D01*
X205998815Y-67251185D01*
X206095506Y-67330537D01*
X206205820Y-67389502D01*
X206325518Y-67425812D01*
X206450000Y-67438072D01*
X206964250Y-67435000D01*
X207123000Y-67276250D01*
X207123000Y-66127000D01*
X205973750Y-66127000D01*
X205815000Y-66285750D01*
X205811928Y-66800000D01*
X201127000Y-66800000D01*
X201127000Y-65200000D01*
X205811928Y-65200000D01*
X205815000Y-65714250D01*
X205973750Y-65873000D01*
X207123000Y-65873000D01*
X207123000Y-64723750D01*
X207377000Y-64723750D01*
X207377000Y-65873000D01*
X207397000Y-65873000D01*
X207397000Y-66127000D01*
X207377000Y-66127000D01*
X207377000Y-67276250D01*
X207535750Y-67435000D01*
X208050000Y-67438072D01*
X208174482Y-67425812D01*
X208294180Y-67389502D01*
X208404494Y-67330537D01*
X208501185Y-67251185D01*
X208580537Y-67154494D01*
X208639502Y-67044180D01*
X208668661Y-66948057D01*
X208835241Y-67114637D01*
X209070273Y-67271680D01*
X209331426Y-67379853D01*
X209608665Y-67435000D01*
X209891335Y-67435000D01*
X210168574Y-67379853D01*
X210429727Y-67271680D01*
X210473095Y-67242702D01*
X214686903Y-67242702D01*
X214758486Y-67486671D01*
X215013996Y-67607571D01*
X215288184Y-67676300D01*
X215570512Y-67690217D01*
X215850130Y-67648787D01*
X216116292Y-67553603D01*
X216241514Y-67486671D01*
X216313097Y-67242702D01*
X215500000Y-66429605D01*
X214686903Y-67242702D01*
X210473095Y-67242702D01*
X210664759Y-67114637D01*
X210864637Y-66914759D01*
X211021680Y-66679727D01*
X211129853Y-66418574D01*
X211149359Y-66320512D01*
X214059783Y-66320512D01*
X214101213Y-66600130D01*
X214196397Y-66866292D01*
X214263329Y-66991514D01*
X214507298Y-67063097D01*
X215320395Y-66250000D01*
X215679605Y-66250000D01*
X216492702Y-67063097D01*
X216561928Y-67042785D01*
X216561928Y-67050000D01*
X216574188Y-67174482D01*
X216610498Y-67294180D01*
X216669463Y-67404494D01*
X216748815Y-67501185D01*
X216845506Y-67580537D01*
X216955820Y-67639502D01*
X217075518Y-67675812D01*
X217200000Y-67688072D01*
X218800000Y-67688072D01*
X218924482Y-67675812D01*
X219044180Y-67639502D01*
X219154494Y-67580537D01*
X219251185Y-67501185D01*
X219330537Y-67404494D01*
X219389502Y-67294180D01*
X219425812Y-67174482D01*
X219438072Y-67050000D01*
X219438072Y-65450000D01*
X219425812Y-65325518D01*
X219389502Y-65205820D01*
X219330537Y-65095506D01*
X219251185Y-64998815D01*
X219154494Y-64919463D01*
X219044180Y-64860498D01*
X218924482Y-64824188D01*
X218800000Y-64811928D01*
X217200000Y-64811928D01*
X217075518Y-64824188D01*
X216955820Y-64860498D01*
X216845506Y-64919463D01*
X216748815Y-64998815D01*
X216669463Y-65095506D01*
X216610498Y-65205820D01*
X216574188Y-65325518D01*
X216561928Y-65450000D01*
X216561928Y-65457215D01*
X216492702Y-65436903D01*
X215679605Y-66250000D01*
X215320395Y-66250000D01*
X214507298Y-65436903D01*
X214263329Y-65508486D01*
X214142429Y-65763996D01*
X214073700Y-66038184D01*
X214059783Y-66320512D01*
X211149359Y-66320512D01*
X211185000Y-66141335D01*
X211185000Y-65858665D01*
X211129853Y-65581426D01*
X211021680Y-65320273D01*
X210979602Y-65257298D01*
X214686903Y-65257298D01*
X215500000Y-66070395D01*
X216313097Y-65257298D01*
X216241514Y-65013329D01*
X215986004Y-64892429D01*
X215711816Y-64823700D01*
X215429488Y-64809783D01*
X215149870Y-64851213D01*
X214883708Y-64946397D01*
X214758486Y-65013329D01*
X214686903Y-65257298D01*
X210979602Y-65257298D01*
X210864637Y-65085241D01*
X210664759Y-64885363D01*
X210429727Y-64728320D01*
X210168574Y-64620147D01*
X209891335Y-64565000D01*
X209608665Y-64565000D01*
X209331426Y-64620147D01*
X209070273Y-64728320D01*
X208835241Y-64885363D01*
X208668661Y-65051943D01*
X208639502Y-64955820D01*
X208580537Y-64845506D01*
X208501185Y-64748815D01*
X208404494Y-64669463D01*
X208294180Y-64610498D01*
X208174482Y-64574188D01*
X208050000Y-64561928D01*
X207535750Y-64565000D01*
X207377000Y-64723750D01*
X207123000Y-64723750D01*
X206964250Y-64565000D01*
X206450000Y-64561928D01*
X206325518Y-64574188D01*
X206205820Y-64610498D01*
X206095506Y-64669463D01*
X205998815Y-64748815D01*
X205919463Y-64845506D01*
X205860498Y-64955820D01*
X205824188Y-65075518D01*
X205811928Y-65200000D01*
X201127000Y-65200000D01*
X201127000Y-63325053D01*
X201169463Y-63404494D01*
X201248815Y-63501185D01*
X201345506Y-63580537D01*
X201455820Y-63639502D01*
X201575518Y-63675812D01*
X201700000Y-63688072D01*
X203300000Y-63688072D01*
X203424482Y-63675812D01*
X203544180Y-63639502D01*
X203654494Y-63580537D01*
X203751185Y-63501185D01*
X203830537Y-63404494D01*
X203889502Y-63294180D01*
X203925812Y-63174482D01*
X203938072Y-63050000D01*
X203938072Y-61450000D01*
X203925812Y-61325518D01*
X203889502Y-61205820D01*
X203830537Y-61095506D01*
X203751185Y-60998815D01*
X203654494Y-60919463D01*
X203544180Y-60860498D01*
X203424482Y-60824188D01*
X203300000Y-60811928D01*
X201700000Y-60811928D01*
X201575518Y-60824188D01*
X201455820Y-60860498D01*
X201345506Y-60919463D01*
X201248815Y-60998815D01*
X201169463Y-61095506D01*
X201127000Y-61174947D01*
X201127000Y-55886400D01*
X206248328Y-55886400D01*
X206248328Y-57613600D01*
X206260588Y-57738082D01*
X206296898Y-57857780D01*
X206355863Y-57968094D01*
X206435215Y-58064785D01*
X206531906Y-58144137D01*
X206642220Y-58203102D01*
X206761918Y-58239412D01*
X206886400Y-58251672D01*
X208613600Y-58251672D01*
X208738082Y-58239412D01*
X208857780Y-58203102D01*
X208968094Y-58144137D01*
X209064785Y-58064785D01*
X209144137Y-57968094D01*
X209203102Y-57857780D01*
X209222624Y-57793426D01*
X209279707Y-57856854D01*
X209515056Y-58032684D01*
X209780186Y-58159222D01*
X209930974Y-58204958D01*
X210163000Y-58083817D01*
X210163000Y-56877000D01*
X210417000Y-56877000D01*
X210417000Y-58083817D01*
X210649026Y-58204958D01*
X210799814Y-58159222D01*
X211064944Y-58032684D01*
X211300293Y-57856854D01*
X211496817Y-57638488D01*
X211560000Y-57532230D01*
X211623183Y-57638488D01*
X211819707Y-57856854D01*
X212055056Y-58032684D01*
X212320186Y-58159222D01*
X212470974Y-58204958D01*
X212703000Y-58083817D01*
X212703000Y-56877000D01*
X212957000Y-56877000D01*
X212957000Y-58083817D01*
X213189026Y-58204958D01*
X213339814Y-58159222D01*
X213604944Y-58032684D01*
X213840293Y-57856854D01*
X214036817Y-57638488D01*
X214100000Y-57532230D01*
X214163183Y-57638488D01*
X214359707Y-57856854D01*
X214595056Y-58032684D01*
X214860186Y-58159222D01*
X215010974Y-58204958D01*
X215243000Y-58083817D01*
X215243000Y-56877000D01*
X212957000Y-56877000D01*
X212703000Y-56877000D01*
X210417000Y-56877000D01*
X210163000Y-56877000D01*
X210143000Y-56877000D01*
X210143000Y-56623000D01*
X210163000Y-56623000D01*
X210163000Y-54337000D01*
X210417000Y-54337000D01*
X210417000Y-56623000D01*
X212703000Y-56623000D01*
X212703000Y-54337000D01*
X212957000Y-54337000D01*
X212957000Y-56623000D01*
X215243000Y-56623000D01*
X215243000Y-54337000D01*
X212957000Y-54337000D01*
X212703000Y-54337000D01*
X210417000Y-54337000D01*
X210163000Y-54337000D01*
X210143000Y-54337000D01*
X210143000Y-54083000D01*
X210163000Y-54083000D01*
X210163000Y-52876183D01*
X210417000Y-52876183D01*
X210417000Y-54083000D01*
X212703000Y-54083000D01*
X212703000Y-52876183D01*
X212957000Y-52876183D01*
X212957000Y-54083000D01*
X215243000Y-54083000D01*
X215243000Y-52876183D01*
X215497000Y-52876183D01*
X215497000Y-54083000D01*
X215517000Y-54083000D01*
X215517000Y-54337000D01*
X215497000Y-54337000D01*
X215497000Y-56623000D01*
X215517000Y-56623000D01*
X215517000Y-56877000D01*
X215497000Y-56877000D01*
X215497000Y-58083817D01*
X215729026Y-58204958D01*
X215879814Y-58159222D01*
X216144944Y-58032684D01*
X216380293Y-57856854D01*
X216576817Y-57638488D01*
X216635441Y-57539897D01*
X216745961Y-57705302D01*
X216954698Y-57914039D01*
X217200147Y-58078042D01*
X217472875Y-58191010D01*
X217762401Y-58248600D01*
X218057599Y-58248600D01*
X218347125Y-58191010D01*
X218619853Y-58078042D01*
X218865302Y-57914039D01*
X219074039Y-57705302D01*
X219238042Y-57459853D01*
X219351010Y-57187125D01*
X219408600Y-56897599D01*
X219408600Y-56602401D01*
X219351010Y-56312875D01*
X219238042Y-56040147D01*
X219074039Y-55794698D01*
X218865302Y-55585961D01*
X218706719Y-55480000D01*
X218865302Y-55374039D01*
X219074039Y-55165302D01*
X219238042Y-54919853D01*
X219351010Y-54647125D01*
X219408600Y-54357599D01*
X219408600Y-54062401D01*
X219351010Y-53772875D01*
X219238042Y-53500147D01*
X219074039Y-53254698D01*
X218865302Y-53045961D01*
X218619853Y-52881958D01*
X218347125Y-52768990D01*
X218057599Y-52711400D01*
X217762401Y-52711400D01*
X217472875Y-52768990D01*
X217200147Y-52881958D01*
X216954698Y-53045961D01*
X216745961Y-53254698D01*
X216635441Y-53420103D01*
X216576817Y-53321512D01*
X216380293Y-53103146D01*
X216144944Y-52927316D01*
X215879814Y-52800778D01*
X215729026Y-52755042D01*
X215497000Y-52876183D01*
X215243000Y-52876183D01*
X215010974Y-52755042D01*
X214860186Y-52800778D01*
X214595056Y-52927316D01*
X214359707Y-53103146D01*
X214163183Y-53321512D01*
X214100000Y-53427770D01*
X214036817Y-53321512D01*
X213840293Y-53103146D01*
X213604944Y-52927316D01*
X213339814Y-52800778D01*
X213189026Y-52755042D01*
X212957000Y-52876183D01*
X212703000Y-52876183D01*
X212470974Y-52755042D01*
X212320186Y-52800778D01*
X212055056Y-52927316D01*
X211819707Y-53103146D01*
X211623183Y-53321512D01*
X211560000Y-53427770D01*
X211496817Y-53321512D01*
X211300293Y-53103146D01*
X211064944Y-52927316D01*
X210799814Y-52800778D01*
X210649026Y-52755042D01*
X210417000Y-52876183D01*
X210163000Y-52876183D01*
X209930974Y-52755042D01*
X209780186Y-52800778D01*
X209515056Y-52927316D01*
X209279707Y-53103146D01*
X209083183Y-53321512D01*
X209024559Y-53420103D01*
X208914039Y-53254698D01*
X208705302Y-53045961D01*
X208459853Y-52881958D01*
X208187125Y-52768990D01*
X207897599Y-52711400D01*
X207602401Y-52711400D01*
X207312875Y-52768990D01*
X207040147Y-52881958D01*
X206794698Y-53045961D01*
X206585961Y-53254698D01*
X206421958Y-53500147D01*
X206308990Y-53772875D01*
X206251400Y-54062401D01*
X206251400Y-54357599D01*
X206308990Y-54647125D01*
X206421958Y-54919853D01*
X206585961Y-55165302D01*
X206700023Y-55279364D01*
X206642220Y-55296898D01*
X206531906Y-55355863D01*
X206435215Y-55435215D01*
X206355863Y-55531906D01*
X206296898Y-55642220D01*
X206260588Y-55761918D01*
X206248328Y-55886400D01*
X201127000Y-55886400D01*
X201127000Y-50877000D01*
X224123000Y-50877000D01*
X224123000Y-61694881D01*
G37*
%TD.AperFunction*%
%TD*%
M02*
