M48
; DRILL file {KiCad (5.1.12-1-10_14)} date 2023 August 05, Saturday 21:53:31
; FORMAT={-:-/ absolute / inch / decimal}
; #@! TF.CreationDate,2023-08-05T21:53:31+02:00
; #@! TF.GenerationSoftware,Kicad,Pcbnew,(5.1.12-1-10_14)
; #@! TF.FileFunction,Plated,1,2,PTH
FMAT,2
INCH
T1C0.0315
T2C0.0400
T3C0.0472
%
G90
G05
T1
X7.9724Y-2.4508
X7.9724Y-2.7508
X8.002Y-2.9858
X8.002Y-3.3858
X8.002Y-3.4976
X8.002Y-3.8976
X8.1594Y-2.5984
X8.2185Y-2.8937
X8.2185Y-2.9937
X8.2185Y-3.0937
X8.2185Y-3.1937
X8.2579Y-2.5984
X8.4843Y-2.6083
X8.5185Y-2.8937
X8.5185Y-2.9937
X8.5185Y-3.0937
X8.5185Y-3.1937
X8.5827Y-2.6083
X8.7106Y-2.9724
X8.7106Y-3.0709
X8.7205Y-3.1988
X8.7205Y-3.2972
X8.7402Y-3.4055
X8.7402Y-3.8055
X8.7402Y-3.9307
X8.7402Y-4.3307
X8.7697Y-2.4461
X8.7697Y-2.7461
T2
X8.1791Y-2.1343
X8.1791Y-2.2343
X8.2791Y-2.1343
X8.2791Y-2.2343
X8.3791Y-2.1343
X8.3791Y-2.2343
X8.4791Y-2.1343
X8.4791Y-2.2343
X8.5791Y-2.1343
X8.5791Y-2.2343
T3
X8.0594Y-4.4783
X8.1594Y-4.4783
X8.2646Y-3.5138
X8.2646Y-3.8386
X8.2646Y-4.1634
X8.3646Y-3.5138
X8.3646Y-3.8386
X8.3646Y-4.1634
X8.4646Y-3.5138
X8.4646Y-3.8386
X8.4646Y-4.1634
X8.4925Y-4.4783
X8.5925Y-4.4783
T0
M30
