%TF.GenerationSoftware,KiCad,Pcbnew,(5.1.8-0-10_14)*%
%TF.CreationDate,2021-07-07T10:12:16-04:00*%
%TF.ProjectId,fwr,6677722e-6b69-4636-9164-5f7063625858,rev?*%
%TF.SameCoordinates,Original*%
%TF.FileFunction,Legend,Top*%
%TF.FilePolarity,Positive*%
%FSLAX46Y46*%
G04 Gerber Fmt 4.6, Leading zero omitted, Abs format (unit mm)*
G04 Created by KiCad (PCBNEW (5.1.8-0-10_14)) date 2021-07-07 10:12:16*
%MOMM*%
%LPD*%
G01*
G04 APERTURE LIST*
%ADD10C,0.300000*%
%ADD11C,0.120000*%
%ADD12C,0.150000*%
G04 APERTURE END LIST*
D10*
X116142857Y-142617857D02*
X115642857Y-142617857D01*
X115642857Y-143403571D02*
X115642857Y-141903571D01*
X116357142Y-141903571D01*
X116785714Y-141903571D02*
X117142857Y-143403571D01*
X117428571Y-142332142D01*
X117714285Y-143403571D01*
X118071428Y-141903571D01*
X119500000Y-143403571D02*
X119000000Y-142689285D01*
X118642857Y-143403571D02*
X118642857Y-141903571D01*
X119214285Y-141903571D01*
X119357142Y-141975000D01*
X119428571Y-142046428D01*
X119500000Y-142189285D01*
X119500000Y-142403571D01*
X119428571Y-142546428D01*
X119357142Y-142617857D01*
X119214285Y-142689285D01*
X118642857Y-142689285D01*
X120142857Y-143260714D02*
X120214285Y-143332142D01*
X120142857Y-143403571D01*
X120071428Y-143332142D01*
X120142857Y-143260714D01*
X120142857Y-143403571D01*
X120142857Y-142832142D02*
X120071428Y-141975000D01*
X120142857Y-141903571D01*
X120214285Y-141975000D01*
X120142857Y-142832142D01*
X120142857Y-141903571D01*
X122857142Y-143403571D02*
X122357142Y-142689285D01*
X122000000Y-143403571D02*
X122000000Y-141903571D01*
X122571428Y-141903571D01*
X122714285Y-141975000D01*
X122785714Y-142046428D01*
X122857142Y-142189285D01*
X122857142Y-142403571D01*
X122785714Y-142546428D01*
X122714285Y-142617857D01*
X122571428Y-142689285D01*
X122000000Y-142689285D01*
X123500000Y-143403571D02*
X123500000Y-142403571D01*
X123500000Y-141903571D02*
X123428571Y-141975000D01*
X123500000Y-142046428D01*
X123571428Y-141975000D01*
X123500000Y-141903571D01*
X123500000Y-142046428D01*
X124857142Y-143332142D02*
X124714285Y-143403571D01*
X124428571Y-143403571D01*
X124285714Y-143332142D01*
X124214285Y-143260714D01*
X124142857Y-143117857D01*
X124142857Y-142689285D01*
X124214285Y-142546428D01*
X124285714Y-142475000D01*
X124428571Y-142403571D01*
X124714285Y-142403571D01*
X124857142Y-142475000D01*
X125500000Y-143403571D02*
X125500000Y-141903571D01*
X126142857Y-143403571D02*
X126142857Y-142617857D01*
X126071428Y-142475000D01*
X125928571Y-142403571D01*
X125714285Y-142403571D01*
X125571428Y-142475000D01*
X125500000Y-142546428D01*
X128428571Y-141903571D02*
X128428571Y-142975000D01*
X128357142Y-143189285D01*
X128214285Y-143332142D01*
X128000000Y-143403571D01*
X127857142Y-143403571D01*
X129357142Y-143403571D02*
X129214285Y-143332142D01*
X129142857Y-143260714D01*
X129071428Y-143117857D01*
X129071428Y-142689285D01*
X129142857Y-142546428D01*
X129214285Y-142475000D01*
X129357142Y-142403571D01*
X129571428Y-142403571D01*
X129714285Y-142475000D01*
X129785714Y-142546428D01*
X129857142Y-142689285D01*
X129857142Y-143117857D01*
X129785714Y-143260714D01*
X129714285Y-143332142D01*
X129571428Y-143403571D01*
X129357142Y-143403571D01*
X130500000Y-142403571D02*
X130500000Y-143403571D01*
X130500000Y-142546428D02*
X130571428Y-142475000D01*
X130714285Y-142403571D01*
X130928571Y-142403571D01*
X131071428Y-142475000D01*
X131142857Y-142617857D01*
X131142857Y-143403571D01*
X132428571Y-143332142D02*
X132285714Y-143403571D01*
X132000000Y-143403571D01*
X131857142Y-143332142D01*
X131785714Y-143189285D01*
X131785714Y-142617857D01*
X131857142Y-142475000D01*
X132000000Y-142403571D01*
X132285714Y-142403571D01*
X132428571Y-142475000D01*
X132500000Y-142617857D01*
X132500000Y-142760714D01*
X131785714Y-142903571D01*
X133071428Y-143332142D02*
X133214285Y-143403571D01*
X133500000Y-143403571D01*
X133642857Y-143332142D01*
X133714285Y-143189285D01*
X133714285Y-143117857D01*
X133642857Y-142975000D01*
X133500000Y-142903571D01*
X133285714Y-142903571D01*
X133142857Y-142832142D01*
X133071428Y-142689285D01*
X133071428Y-142617857D01*
X133142857Y-142475000D01*
X133285714Y-142403571D01*
X133500000Y-142403571D01*
X133642857Y-142475000D01*
X134357142Y-143260714D02*
X134428571Y-143332142D01*
X134357142Y-143403571D01*
X134285714Y-143332142D01*
X134357142Y-143260714D01*
X134357142Y-143403571D01*
X134357142Y-142832142D02*
X134285714Y-141975000D01*
X134357142Y-141903571D01*
X134428571Y-141975000D01*
X134357142Y-142832142D01*
X134357142Y-141903571D01*
X116464285Y-145953571D02*
X115750000Y-145953571D01*
X115750000Y-144453571D01*
X116964285Y-145953571D02*
X116964285Y-144453571D01*
X117464285Y-145525000D01*
X117964285Y-144453571D01*
X117964285Y-145953571D01*
X118678571Y-145953571D02*
X118678571Y-144453571D01*
X119535714Y-145953571D01*
X119535714Y-144453571D01*
X121107142Y-145810714D02*
X121035714Y-145882142D01*
X120821428Y-145953571D01*
X120678571Y-145953571D01*
X120464285Y-145882142D01*
X120321428Y-145739285D01*
X120250000Y-145596428D01*
X120178571Y-145310714D01*
X120178571Y-145096428D01*
X120250000Y-144810714D01*
X120321428Y-144667857D01*
X120464285Y-144525000D01*
X120678571Y-144453571D01*
X120821428Y-144453571D01*
X121035714Y-144525000D01*
X121107142Y-144596428D01*
X123678571Y-144525000D02*
X123535714Y-144453571D01*
X123321428Y-144453571D01*
X123107142Y-144525000D01*
X122964285Y-144667857D01*
X122892857Y-144810714D01*
X122821428Y-145096428D01*
X122821428Y-145310714D01*
X122892857Y-145596428D01*
X122964285Y-145739285D01*
X123107142Y-145882142D01*
X123321428Y-145953571D01*
X123464285Y-145953571D01*
X123678571Y-145882142D01*
X123750000Y-145810714D01*
X123750000Y-145310714D01*
X123464285Y-145310714D01*
X124607142Y-145953571D02*
X124464285Y-145882142D01*
X124392857Y-145810714D01*
X124321428Y-145667857D01*
X124321428Y-145239285D01*
X124392857Y-145096428D01*
X124464285Y-145025000D01*
X124607142Y-144953571D01*
X124821428Y-144953571D01*
X124964285Y-145025000D01*
X125035714Y-145096428D01*
X125107142Y-145239285D01*
X125107142Y-145667857D01*
X125035714Y-145810714D01*
X124964285Y-145882142D01*
X124821428Y-145953571D01*
X124607142Y-145953571D01*
X125964285Y-145953571D02*
X125821428Y-145882142D01*
X125750000Y-145739285D01*
X125750000Y-144453571D01*
X126321428Y-144953571D02*
X126892857Y-144953571D01*
X126535714Y-145953571D02*
X126535714Y-144667857D01*
X126607142Y-144525000D01*
X126750000Y-144453571D01*
X126892857Y-144453571D01*
X128464285Y-144596428D02*
X128535714Y-144525000D01*
X128678571Y-144453571D01*
X129035714Y-144453571D01*
X129178571Y-144525000D01*
X129250000Y-144596428D01*
X129321428Y-144739285D01*
X129321428Y-144882142D01*
X129250000Y-145096428D01*
X128392857Y-145953571D01*
X129321428Y-145953571D01*
X130250000Y-144453571D02*
X130392857Y-144453571D01*
X130535714Y-144525000D01*
X130607142Y-144596428D01*
X130678571Y-144739285D01*
X130750000Y-145025000D01*
X130750000Y-145382142D01*
X130678571Y-145667857D01*
X130607142Y-145810714D01*
X130535714Y-145882142D01*
X130392857Y-145953571D01*
X130250000Y-145953571D01*
X130107142Y-145882142D01*
X130035714Y-145810714D01*
X129964285Y-145667857D01*
X129892857Y-145382142D01*
X129892857Y-145025000D01*
X129964285Y-144739285D01*
X130035714Y-144596428D01*
X130107142Y-144525000D01*
X130250000Y-144453571D01*
X131321428Y-144596428D02*
X131392857Y-144525000D01*
X131535714Y-144453571D01*
X131892857Y-144453571D01*
X132035714Y-144525000D01*
X132107142Y-144596428D01*
X132178571Y-144739285D01*
X132178571Y-144882142D01*
X132107142Y-145096428D01*
X131250000Y-145953571D01*
X132178571Y-145953571D01*
X133607142Y-145953571D02*
X132750000Y-145953571D01*
X133178571Y-145953571D02*
X133178571Y-144453571D01*
X133035714Y-144667857D01*
X132892857Y-144810714D01*
X132750000Y-144882142D01*
X134250000Y-145810714D02*
X134321428Y-145882142D01*
X134250000Y-145953571D01*
X134178571Y-145882142D01*
X134250000Y-145810714D01*
X134250000Y-145953571D01*
X134250000Y-145382142D02*
X134178571Y-144525000D01*
X134250000Y-144453571D01*
X134321428Y-144525000D01*
X134250000Y-145382142D01*
X134250000Y-144453571D01*
D11*
%TO.C,C1*%
X135780000Y-80630000D02*
X143220000Y-80630000D01*
X135780000Y-83370000D02*
X143220000Y-83370000D01*
X135780000Y-80630000D02*
X135780000Y-83370000D01*
X143220000Y-80630000D02*
X143220000Y-83370000D01*
%TO.C,C2*%
X119121000Y-118580000D02*
X120379000Y-118580000D01*
X119121000Y-120420000D02*
X120379000Y-120420000D01*
%TO.C,C3*%
X119121000Y-123920000D02*
X120379000Y-123920000D01*
X119121000Y-122080000D02*
X120379000Y-122080000D01*
%TO.C,C4*%
X143220000Y-75630000D02*
X143220000Y-78370000D01*
X135780000Y-75630000D02*
X135780000Y-78370000D01*
X135780000Y-78370000D02*
X143220000Y-78370000D01*
X135780000Y-75630000D02*
X143220000Y-75630000D01*
%TO.C,C5*%
X127945225Y-122275000D02*
X127945225Y-122775000D01*
X127695225Y-122525000D02*
X128195225Y-122525000D01*
X133101000Y-123716000D02*
X133101000Y-124284000D01*
X133061000Y-123482000D02*
X133061000Y-124518000D01*
X133021000Y-123323000D02*
X133021000Y-124677000D01*
X132981000Y-123195000D02*
X132981000Y-124805000D01*
X132941000Y-123085000D02*
X132941000Y-124915000D01*
X132901000Y-122989000D02*
X132901000Y-125011000D01*
X132861000Y-122902000D02*
X132861000Y-125098000D01*
X132821000Y-122822000D02*
X132821000Y-125178000D01*
X132781000Y-122749000D02*
X132781000Y-125251000D01*
X132741000Y-122681000D02*
X132741000Y-125319000D01*
X132701000Y-122617000D02*
X132701000Y-125383000D01*
X132661000Y-122557000D02*
X132661000Y-125443000D01*
X132621000Y-122500000D02*
X132621000Y-125500000D01*
X132581000Y-122446000D02*
X132581000Y-125554000D01*
X132541000Y-122395000D02*
X132541000Y-125605000D01*
X132501000Y-125040000D02*
X132501000Y-125653000D01*
X132501000Y-122347000D02*
X132501000Y-122960000D01*
X132461000Y-125040000D02*
X132461000Y-125699000D01*
X132461000Y-122301000D02*
X132461000Y-122960000D01*
X132421000Y-125040000D02*
X132421000Y-125743000D01*
X132421000Y-122257000D02*
X132421000Y-122960000D01*
X132381000Y-125040000D02*
X132381000Y-125785000D01*
X132381000Y-122215000D02*
X132381000Y-122960000D01*
X132341000Y-125040000D02*
X132341000Y-125826000D01*
X132341000Y-122174000D02*
X132341000Y-122960000D01*
X132301000Y-125040000D02*
X132301000Y-125864000D01*
X132301000Y-122136000D02*
X132301000Y-122960000D01*
X132261000Y-125040000D02*
X132261000Y-125901000D01*
X132261000Y-122099000D02*
X132261000Y-122960000D01*
X132221000Y-125040000D02*
X132221000Y-125937000D01*
X132221000Y-122063000D02*
X132221000Y-122960000D01*
X132181000Y-125040000D02*
X132181000Y-125971000D01*
X132181000Y-122029000D02*
X132181000Y-122960000D01*
X132141000Y-125040000D02*
X132141000Y-126004000D01*
X132141000Y-121996000D02*
X132141000Y-122960000D01*
X132101000Y-125040000D02*
X132101000Y-126035000D01*
X132101000Y-121965000D02*
X132101000Y-122960000D01*
X132061000Y-125040000D02*
X132061000Y-126065000D01*
X132061000Y-121935000D02*
X132061000Y-122960000D01*
X132021000Y-125040000D02*
X132021000Y-126095000D01*
X132021000Y-121905000D02*
X132021000Y-122960000D01*
X131981000Y-125040000D02*
X131981000Y-126122000D01*
X131981000Y-121878000D02*
X131981000Y-122960000D01*
X131941000Y-125040000D02*
X131941000Y-126149000D01*
X131941000Y-121851000D02*
X131941000Y-122960000D01*
X131901000Y-125040000D02*
X131901000Y-126175000D01*
X131901000Y-121825000D02*
X131901000Y-122960000D01*
X131861000Y-125040000D02*
X131861000Y-126200000D01*
X131861000Y-121800000D02*
X131861000Y-122960000D01*
X131821000Y-125040000D02*
X131821000Y-126224000D01*
X131821000Y-121776000D02*
X131821000Y-122960000D01*
X131781000Y-125040000D02*
X131781000Y-126247000D01*
X131781000Y-121753000D02*
X131781000Y-122960000D01*
X131741000Y-125040000D02*
X131741000Y-126268000D01*
X131741000Y-121732000D02*
X131741000Y-122960000D01*
X131701000Y-125040000D02*
X131701000Y-126290000D01*
X131701000Y-121710000D02*
X131701000Y-122960000D01*
X131661000Y-125040000D02*
X131661000Y-126310000D01*
X131661000Y-121690000D02*
X131661000Y-122960000D01*
X131621000Y-125040000D02*
X131621000Y-126329000D01*
X131621000Y-121671000D02*
X131621000Y-122960000D01*
X131581000Y-125040000D02*
X131581000Y-126348000D01*
X131581000Y-121652000D02*
X131581000Y-122960000D01*
X131541000Y-125040000D02*
X131541000Y-126365000D01*
X131541000Y-121635000D02*
X131541000Y-122960000D01*
X131501000Y-125040000D02*
X131501000Y-126382000D01*
X131501000Y-121618000D02*
X131501000Y-122960000D01*
X131461000Y-125040000D02*
X131461000Y-126398000D01*
X131461000Y-121602000D02*
X131461000Y-122960000D01*
X131421000Y-125040000D02*
X131421000Y-126414000D01*
X131421000Y-121586000D02*
X131421000Y-122960000D01*
X131381000Y-125040000D02*
X131381000Y-126428000D01*
X131381000Y-121572000D02*
X131381000Y-122960000D01*
X131341000Y-125040000D02*
X131341000Y-126442000D01*
X131341000Y-121558000D02*
X131341000Y-122960000D01*
X131301000Y-125040000D02*
X131301000Y-126455000D01*
X131301000Y-121545000D02*
X131301000Y-122960000D01*
X131261000Y-125040000D02*
X131261000Y-126468000D01*
X131261000Y-121532000D02*
X131261000Y-122960000D01*
X131221000Y-125040000D02*
X131221000Y-126480000D01*
X131221000Y-121520000D02*
X131221000Y-122960000D01*
X131180000Y-125040000D02*
X131180000Y-126491000D01*
X131180000Y-121509000D02*
X131180000Y-122960000D01*
X131140000Y-125040000D02*
X131140000Y-126501000D01*
X131140000Y-121499000D02*
X131140000Y-122960000D01*
X131100000Y-125040000D02*
X131100000Y-126511000D01*
X131100000Y-121489000D02*
X131100000Y-122960000D01*
X131060000Y-125040000D02*
X131060000Y-126520000D01*
X131060000Y-121480000D02*
X131060000Y-122960000D01*
X131020000Y-125040000D02*
X131020000Y-126528000D01*
X131020000Y-121472000D02*
X131020000Y-122960000D01*
X130980000Y-125040000D02*
X130980000Y-126536000D01*
X130980000Y-121464000D02*
X130980000Y-122960000D01*
X130940000Y-125040000D02*
X130940000Y-126543000D01*
X130940000Y-121457000D02*
X130940000Y-122960000D01*
X130900000Y-125040000D02*
X130900000Y-126550000D01*
X130900000Y-121450000D02*
X130900000Y-122960000D01*
X130860000Y-125040000D02*
X130860000Y-126556000D01*
X130860000Y-121444000D02*
X130860000Y-122960000D01*
X130820000Y-125040000D02*
X130820000Y-126561000D01*
X130820000Y-121439000D02*
X130820000Y-122960000D01*
X130780000Y-125040000D02*
X130780000Y-126565000D01*
X130780000Y-121435000D02*
X130780000Y-122960000D01*
X130740000Y-125040000D02*
X130740000Y-126569000D01*
X130740000Y-121431000D02*
X130740000Y-122960000D01*
X130700000Y-125040000D02*
X130700000Y-126573000D01*
X130700000Y-121427000D02*
X130700000Y-122960000D01*
X130660000Y-125040000D02*
X130660000Y-126576000D01*
X130660000Y-121424000D02*
X130660000Y-122960000D01*
X130620000Y-125040000D02*
X130620000Y-126578000D01*
X130620000Y-121422000D02*
X130620000Y-122960000D01*
X130580000Y-125040000D02*
X130580000Y-126579000D01*
X130580000Y-121421000D02*
X130580000Y-122960000D01*
X130540000Y-121420000D02*
X130540000Y-122960000D01*
X130540000Y-125040000D02*
X130540000Y-126580000D01*
X130500000Y-121420000D02*
X130500000Y-122960000D01*
X130500000Y-125040000D02*
X130500000Y-126580000D01*
X133120000Y-124000000D02*
G75*
G03*
X133120000Y-124000000I-2620000J0D01*
G01*
%TO.C,C6*%
X133120000Y-103000000D02*
G75*
G03*
X133120000Y-103000000I-2620000J0D01*
G01*
X130500000Y-104040000D02*
X130500000Y-105580000D01*
X130500000Y-100420000D02*
X130500000Y-101960000D01*
X130540000Y-104040000D02*
X130540000Y-105580000D01*
X130540000Y-100420000D02*
X130540000Y-101960000D01*
X130580000Y-100421000D02*
X130580000Y-101960000D01*
X130580000Y-104040000D02*
X130580000Y-105579000D01*
X130620000Y-100422000D02*
X130620000Y-101960000D01*
X130620000Y-104040000D02*
X130620000Y-105578000D01*
X130660000Y-100424000D02*
X130660000Y-101960000D01*
X130660000Y-104040000D02*
X130660000Y-105576000D01*
X130700000Y-100427000D02*
X130700000Y-101960000D01*
X130700000Y-104040000D02*
X130700000Y-105573000D01*
X130740000Y-100431000D02*
X130740000Y-101960000D01*
X130740000Y-104040000D02*
X130740000Y-105569000D01*
X130780000Y-100435000D02*
X130780000Y-101960000D01*
X130780000Y-104040000D02*
X130780000Y-105565000D01*
X130820000Y-100439000D02*
X130820000Y-101960000D01*
X130820000Y-104040000D02*
X130820000Y-105561000D01*
X130860000Y-100444000D02*
X130860000Y-101960000D01*
X130860000Y-104040000D02*
X130860000Y-105556000D01*
X130900000Y-100450000D02*
X130900000Y-101960000D01*
X130900000Y-104040000D02*
X130900000Y-105550000D01*
X130940000Y-100457000D02*
X130940000Y-101960000D01*
X130940000Y-104040000D02*
X130940000Y-105543000D01*
X130980000Y-100464000D02*
X130980000Y-101960000D01*
X130980000Y-104040000D02*
X130980000Y-105536000D01*
X131020000Y-100472000D02*
X131020000Y-101960000D01*
X131020000Y-104040000D02*
X131020000Y-105528000D01*
X131060000Y-100480000D02*
X131060000Y-101960000D01*
X131060000Y-104040000D02*
X131060000Y-105520000D01*
X131100000Y-100489000D02*
X131100000Y-101960000D01*
X131100000Y-104040000D02*
X131100000Y-105511000D01*
X131140000Y-100499000D02*
X131140000Y-101960000D01*
X131140000Y-104040000D02*
X131140000Y-105501000D01*
X131180000Y-100509000D02*
X131180000Y-101960000D01*
X131180000Y-104040000D02*
X131180000Y-105491000D01*
X131221000Y-100520000D02*
X131221000Y-101960000D01*
X131221000Y-104040000D02*
X131221000Y-105480000D01*
X131261000Y-100532000D02*
X131261000Y-101960000D01*
X131261000Y-104040000D02*
X131261000Y-105468000D01*
X131301000Y-100545000D02*
X131301000Y-101960000D01*
X131301000Y-104040000D02*
X131301000Y-105455000D01*
X131341000Y-100558000D02*
X131341000Y-101960000D01*
X131341000Y-104040000D02*
X131341000Y-105442000D01*
X131381000Y-100572000D02*
X131381000Y-101960000D01*
X131381000Y-104040000D02*
X131381000Y-105428000D01*
X131421000Y-100586000D02*
X131421000Y-101960000D01*
X131421000Y-104040000D02*
X131421000Y-105414000D01*
X131461000Y-100602000D02*
X131461000Y-101960000D01*
X131461000Y-104040000D02*
X131461000Y-105398000D01*
X131501000Y-100618000D02*
X131501000Y-101960000D01*
X131501000Y-104040000D02*
X131501000Y-105382000D01*
X131541000Y-100635000D02*
X131541000Y-101960000D01*
X131541000Y-104040000D02*
X131541000Y-105365000D01*
X131581000Y-100652000D02*
X131581000Y-101960000D01*
X131581000Y-104040000D02*
X131581000Y-105348000D01*
X131621000Y-100671000D02*
X131621000Y-101960000D01*
X131621000Y-104040000D02*
X131621000Y-105329000D01*
X131661000Y-100690000D02*
X131661000Y-101960000D01*
X131661000Y-104040000D02*
X131661000Y-105310000D01*
X131701000Y-100710000D02*
X131701000Y-101960000D01*
X131701000Y-104040000D02*
X131701000Y-105290000D01*
X131741000Y-100732000D02*
X131741000Y-101960000D01*
X131741000Y-104040000D02*
X131741000Y-105268000D01*
X131781000Y-100753000D02*
X131781000Y-101960000D01*
X131781000Y-104040000D02*
X131781000Y-105247000D01*
X131821000Y-100776000D02*
X131821000Y-101960000D01*
X131821000Y-104040000D02*
X131821000Y-105224000D01*
X131861000Y-100800000D02*
X131861000Y-101960000D01*
X131861000Y-104040000D02*
X131861000Y-105200000D01*
X131901000Y-100825000D02*
X131901000Y-101960000D01*
X131901000Y-104040000D02*
X131901000Y-105175000D01*
X131941000Y-100851000D02*
X131941000Y-101960000D01*
X131941000Y-104040000D02*
X131941000Y-105149000D01*
X131981000Y-100878000D02*
X131981000Y-101960000D01*
X131981000Y-104040000D02*
X131981000Y-105122000D01*
X132021000Y-100905000D02*
X132021000Y-101960000D01*
X132021000Y-104040000D02*
X132021000Y-105095000D01*
X132061000Y-100935000D02*
X132061000Y-101960000D01*
X132061000Y-104040000D02*
X132061000Y-105065000D01*
X132101000Y-100965000D02*
X132101000Y-101960000D01*
X132101000Y-104040000D02*
X132101000Y-105035000D01*
X132141000Y-100996000D02*
X132141000Y-101960000D01*
X132141000Y-104040000D02*
X132141000Y-105004000D01*
X132181000Y-101029000D02*
X132181000Y-101960000D01*
X132181000Y-104040000D02*
X132181000Y-104971000D01*
X132221000Y-101063000D02*
X132221000Y-101960000D01*
X132221000Y-104040000D02*
X132221000Y-104937000D01*
X132261000Y-101099000D02*
X132261000Y-101960000D01*
X132261000Y-104040000D02*
X132261000Y-104901000D01*
X132301000Y-101136000D02*
X132301000Y-101960000D01*
X132301000Y-104040000D02*
X132301000Y-104864000D01*
X132341000Y-101174000D02*
X132341000Y-101960000D01*
X132341000Y-104040000D02*
X132341000Y-104826000D01*
X132381000Y-101215000D02*
X132381000Y-101960000D01*
X132381000Y-104040000D02*
X132381000Y-104785000D01*
X132421000Y-101257000D02*
X132421000Y-101960000D01*
X132421000Y-104040000D02*
X132421000Y-104743000D01*
X132461000Y-101301000D02*
X132461000Y-101960000D01*
X132461000Y-104040000D02*
X132461000Y-104699000D01*
X132501000Y-101347000D02*
X132501000Y-101960000D01*
X132501000Y-104040000D02*
X132501000Y-104653000D01*
X132541000Y-101395000D02*
X132541000Y-104605000D01*
X132581000Y-101446000D02*
X132581000Y-104554000D01*
X132621000Y-101500000D02*
X132621000Y-104500000D01*
X132661000Y-101557000D02*
X132661000Y-104443000D01*
X132701000Y-101617000D02*
X132701000Y-104383000D01*
X132741000Y-101681000D02*
X132741000Y-104319000D01*
X132781000Y-101749000D02*
X132781000Y-104251000D01*
X132821000Y-101822000D02*
X132821000Y-104178000D01*
X132861000Y-101902000D02*
X132861000Y-104098000D01*
X132901000Y-101989000D02*
X132901000Y-104011000D01*
X132941000Y-102085000D02*
X132941000Y-103915000D01*
X132981000Y-102195000D02*
X132981000Y-103805000D01*
X133021000Y-102323000D02*
X133021000Y-103677000D01*
X133061000Y-102482000D02*
X133061000Y-103518000D01*
X133101000Y-102716000D02*
X133101000Y-103284000D01*
X127695225Y-101525000D02*
X128195225Y-101525000D01*
X127945225Y-101275000D02*
X127945225Y-101775000D01*
%TO.C,1N4148*%
X129190000Y-136380000D02*
X129190000Y-138620000D01*
X129190000Y-138620000D02*
X133430000Y-138620000D01*
X133430000Y-138620000D02*
X133430000Y-136380000D01*
X133430000Y-136380000D02*
X129190000Y-136380000D01*
X128540000Y-137500000D02*
X129190000Y-137500000D01*
X134080000Y-137500000D02*
X133430000Y-137500000D01*
X129910000Y-136380000D02*
X129910000Y-138620000D01*
X130030000Y-136380000D02*
X130030000Y-138620000D01*
X129790000Y-136380000D02*
X129790000Y-138620000D01*
X118290000Y-136380000D02*
X118290000Y-138620000D01*
X118530000Y-136380000D02*
X118530000Y-138620000D01*
X118410000Y-136380000D02*
X118410000Y-138620000D01*
X122580000Y-137500000D02*
X121930000Y-137500000D01*
X117040000Y-137500000D02*
X117690000Y-137500000D01*
X121930000Y-136380000D02*
X117690000Y-136380000D01*
X121930000Y-138620000D02*
X121930000Y-136380000D01*
X117690000Y-138620000D02*
X121930000Y-138620000D01*
X117690000Y-136380000D02*
X117690000Y-138620000D01*
%TO.C,1N4733*%
X121640000Y-63530000D02*
X121640000Y-66470000D01*
X121880000Y-63530000D02*
X121880000Y-66470000D01*
X121760000Y-63530000D02*
X121760000Y-66470000D01*
X127320000Y-65000000D02*
X126300000Y-65000000D01*
X119840000Y-65000000D02*
X120860000Y-65000000D01*
X126300000Y-63530000D02*
X120860000Y-63530000D01*
X126300000Y-66470000D02*
X126300000Y-63530000D01*
X120860000Y-66470000D02*
X126300000Y-66470000D01*
X120860000Y-63530000D02*
X120860000Y-66470000D01*
X120860000Y-68530000D02*
X120860000Y-71470000D01*
X120860000Y-71470000D02*
X126300000Y-71470000D01*
X126300000Y-71470000D02*
X126300000Y-68530000D01*
X126300000Y-68530000D02*
X120860000Y-68530000D01*
X119840000Y-70000000D02*
X120860000Y-70000000D01*
X127320000Y-70000000D02*
X126300000Y-70000000D01*
X121760000Y-68530000D02*
X121760000Y-71470000D01*
X121880000Y-68530000D02*
X121880000Y-71470000D01*
X121640000Y-68530000D02*
X121640000Y-71470000D01*
%TO.C,FB1*%
X131580000Y-116370000D02*
X131580000Y-116040000D01*
X125040000Y-116370000D02*
X131580000Y-116370000D01*
X125040000Y-116040000D02*
X125040000Y-116370000D01*
X131580000Y-113630000D02*
X131580000Y-113960000D01*
X125040000Y-113630000D02*
X131580000Y-113630000D01*
X125040000Y-113960000D02*
X125040000Y-113630000D01*
%TO.C,FB2*%
X125040000Y-109460000D02*
X125040000Y-109130000D01*
X125040000Y-109130000D02*
X131580000Y-109130000D01*
X131580000Y-109130000D02*
X131580000Y-109460000D01*
X125040000Y-111540000D02*
X125040000Y-111870000D01*
X125040000Y-111870000D02*
X131580000Y-111870000D01*
X131580000Y-111870000D02*
X131580000Y-111540000D01*
%TO.C,J3*%
X144445000Y-103150000D02*
X144445000Y-124010000D01*
X144445000Y-124010000D02*
X135095000Y-124010000D01*
X135095000Y-124010000D02*
X135095000Y-103150000D01*
X135095000Y-103150000D02*
X144445000Y-103150000D01*
X135350000Y-103400000D02*
X144200000Y-103400000D01*
X144200000Y-103400000D02*
X144200000Y-123750000D01*
X144200000Y-123750000D02*
X135350000Y-123750000D01*
X135350000Y-123750000D02*
X135350000Y-103400000D01*
X135350000Y-103400000D02*
X135900000Y-103950000D01*
X135900000Y-103950000D02*
X143650000Y-103950000D01*
X143650000Y-103950000D02*
X144200000Y-103400000D01*
X143650000Y-103950000D02*
X143650000Y-123200000D01*
X143650000Y-123200000D02*
X144200000Y-123750000D01*
X143650000Y-123200000D02*
X135900000Y-123200000D01*
X135900000Y-123200000D02*
X135400000Y-123700000D01*
X135900000Y-123200000D02*
X135900000Y-115850000D01*
X135900000Y-115830000D02*
X135390000Y-115830000D01*
X135400000Y-111330000D02*
X135880000Y-111330000D01*
X135900000Y-111330000D02*
X135900000Y-103950000D01*
%TO.C,R1*%
X136040000Y-85460000D02*
X136040000Y-85130000D01*
X136040000Y-85130000D02*
X142580000Y-85130000D01*
X142580000Y-85130000D02*
X142580000Y-85460000D01*
X136040000Y-87540000D02*
X136040000Y-87870000D01*
X136040000Y-87870000D02*
X142580000Y-87870000D01*
X142580000Y-87870000D02*
X142580000Y-87540000D01*
%TO.C,R2*%
X112080000Y-92370000D02*
X112080000Y-92040000D01*
X105540000Y-92370000D02*
X112080000Y-92370000D01*
X105540000Y-92040000D02*
X105540000Y-92370000D01*
X112080000Y-89630000D02*
X112080000Y-89960000D01*
X105540000Y-89630000D02*
X112080000Y-89630000D01*
X105540000Y-89960000D02*
X105540000Y-89630000D01*
%TO.C,R3*%
X112080000Y-87870000D02*
X112080000Y-87540000D01*
X105540000Y-87870000D02*
X112080000Y-87870000D01*
X105540000Y-87540000D02*
X105540000Y-87870000D01*
X112080000Y-85130000D02*
X112080000Y-85460000D01*
X105540000Y-85130000D02*
X112080000Y-85130000D01*
X105540000Y-85460000D02*
X105540000Y-85130000D01*
%TO.C,R4*%
X120875001Y-89035001D02*
X120875001Y-88705001D01*
X120875001Y-88705001D02*
X127415001Y-88705001D01*
X127415001Y-88705001D02*
X127415001Y-89035001D01*
X120875001Y-91115001D02*
X120875001Y-91445001D01*
X120875001Y-91445001D02*
X127415001Y-91445001D01*
X127415001Y-91445001D02*
X127415001Y-91115001D01*
%TO.C,R5*%
X128040000Y-131460000D02*
X128040000Y-131130000D01*
X128040000Y-131130000D02*
X134580000Y-131130000D01*
X134580000Y-131130000D02*
X134580000Y-131460000D01*
X128040000Y-133540000D02*
X128040000Y-133870000D01*
X128040000Y-133870000D02*
X134580000Y-133870000D01*
X134580000Y-133870000D02*
X134580000Y-133540000D01*
%TO.C,R6*%
X127415001Y-87395001D02*
X127415001Y-87065001D01*
X120875001Y-87395001D02*
X127415001Y-87395001D01*
X120875001Y-87065001D02*
X120875001Y-87395001D01*
X127415001Y-84655001D02*
X127415001Y-84985001D01*
X120875001Y-84655001D02*
X127415001Y-84655001D01*
X120875001Y-84985001D02*
X120875001Y-84655001D01*
%TO.C,R7*%
X127565001Y-82995001D02*
X127565001Y-82665001D01*
X121025001Y-82995001D02*
X127565001Y-82995001D01*
X121025001Y-82665001D02*
X121025001Y-82995001D01*
X127565001Y-80255001D02*
X127565001Y-80585001D01*
X121025001Y-80255001D02*
X127565001Y-80255001D01*
X121025001Y-80585001D02*
X121025001Y-80255001D01*
%TO.C,R8*%
X121025001Y-76535001D02*
X121025001Y-76205001D01*
X121025001Y-76205001D02*
X127565001Y-76205001D01*
X127565001Y-76205001D02*
X127565001Y-76535001D01*
X121025001Y-78615001D02*
X121025001Y-78945001D01*
X121025001Y-78945001D02*
X127565001Y-78945001D01*
X127565001Y-78945001D02*
X127565001Y-78615001D01*
%TO.C,R9*%
X105540000Y-76460000D02*
X105540000Y-76130000D01*
X105540000Y-76130000D02*
X112080000Y-76130000D01*
X112080000Y-76130000D02*
X112080000Y-76460000D01*
X105540000Y-78540000D02*
X105540000Y-78870000D01*
X105540000Y-78870000D02*
X112080000Y-78870000D01*
X112080000Y-78870000D02*
X112080000Y-78540000D01*
%TO.C,R10*%
X142580000Y-96870000D02*
X142580000Y-96540000D01*
X136040000Y-96870000D02*
X142580000Y-96870000D01*
X136040000Y-96540000D02*
X136040000Y-96870000D01*
X142580000Y-94130000D02*
X142580000Y-94460000D01*
X136040000Y-94130000D02*
X142580000Y-94130000D01*
X136040000Y-94460000D02*
X136040000Y-94130000D01*
%TO.C,R11*%
X123080000Y-133870000D02*
X123080000Y-133540000D01*
X116540000Y-133870000D02*
X123080000Y-133870000D01*
X116540000Y-133540000D02*
X116540000Y-133870000D01*
X123080000Y-131130000D02*
X123080000Y-131460000D01*
X116540000Y-131130000D02*
X123080000Y-131130000D01*
X116540000Y-131460000D02*
X116540000Y-131130000D01*
%TO.C,R12*%
X142580000Y-92370000D02*
X142580000Y-92040000D01*
X136040000Y-92370000D02*
X142580000Y-92370000D01*
X136040000Y-92040000D02*
X136040000Y-92370000D01*
X142580000Y-89630000D02*
X142580000Y-89960000D01*
X136040000Y-89630000D02*
X142580000Y-89630000D01*
X136040000Y-89960000D02*
X136040000Y-89630000D01*
%TO.C,R13*%
X105540000Y-94460000D02*
X105540000Y-94130000D01*
X105540000Y-94130000D02*
X112080000Y-94130000D01*
X112080000Y-94130000D02*
X112080000Y-94460000D01*
X105540000Y-96540000D02*
X105540000Y-96870000D01*
X105540000Y-96870000D02*
X112080000Y-96870000D01*
X112080000Y-96870000D02*
X112080000Y-96540000D01*
%TO.C,R14*%
X105540000Y-80960000D02*
X105540000Y-80630000D01*
X105540000Y-80630000D02*
X112080000Y-80630000D01*
X112080000Y-80630000D02*
X112080000Y-80960000D01*
X105540000Y-83040000D02*
X105540000Y-83370000D01*
X105540000Y-83370000D02*
X112080000Y-83370000D01*
X112080000Y-83370000D02*
X112080000Y-83040000D01*
%TO.C,U1*%
X114060000Y-104610000D02*
X103560000Y-104610000D01*
X114060000Y-122630000D02*
X114060000Y-104610000D01*
X103560000Y-122630000D02*
X114060000Y-122630000D01*
X103560000Y-104610000D02*
X103560000Y-122630000D01*
X111060000Y-104670000D02*
X109810000Y-104670000D01*
X111060000Y-122570000D02*
X111060000Y-104670000D01*
X106560000Y-122570000D02*
X111060000Y-122570000D01*
X106560000Y-104670000D02*
X106560000Y-122570000D01*
X107810000Y-104670000D02*
X106560000Y-104670000D01*
X109810000Y-104670000D02*
G75*
G02*
X107810000Y-104670000I-1000000J0D01*
G01*
%TO.C,C1*%
D12*
X139375000Y-79767857D02*
X139339285Y-79803571D01*
X139232142Y-79839285D01*
X139160714Y-79839285D01*
X139053571Y-79803571D01*
X138982142Y-79732142D01*
X138946428Y-79660714D01*
X138910714Y-79517857D01*
X138910714Y-79410714D01*
X138946428Y-79267857D01*
X138982142Y-79196428D01*
X139053571Y-79125000D01*
X139160714Y-79089285D01*
X139232142Y-79089285D01*
X139339285Y-79125000D01*
X139375000Y-79160714D01*
X140089285Y-79839285D02*
X139660714Y-79839285D01*
X139875000Y-79839285D02*
X139875000Y-79089285D01*
X139803571Y-79196428D01*
X139732142Y-79267857D01*
X139660714Y-79303571D01*
X138629285Y-82267857D02*
X138665000Y-82303571D01*
X138629285Y-82339285D01*
X138593571Y-82303571D01*
X138629285Y-82267857D01*
X138629285Y-82339285D01*
X139379285Y-82339285D02*
X138950714Y-82339285D01*
X139165000Y-82339285D02*
X139165000Y-81589285D01*
X139093571Y-81696428D01*
X139022142Y-81767857D01*
X138950714Y-81803571D01*
X140022142Y-81839285D02*
X140022142Y-82339285D01*
X139700714Y-81839285D02*
X139700714Y-82232142D01*
X139736428Y-82303571D01*
X139807857Y-82339285D01*
X139915000Y-82339285D01*
X139986428Y-82303571D01*
X140022142Y-82267857D01*
X140272142Y-81839285D02*
X140557857Y-81839285D01*
X140379285Y-82339285D02*
X140379285Y-81696428D01*
X140415000Y-81625000D01*
X140486428Y-81589285D01*
X140557857Y-81589285D01*
%TO.C,C2*%
X117875000Y-117767857D02*
X117839285Y-117803571D01*
X117732142Y-117839285D01*
X117660714Y-117839285D01*
X117553571Y-117803571D01*
X117482142Y-117732142D01*
X117446428Y-117660714D01*
X117410714Y-117517857D01*
X117410714Y-117410714D01*
X117446428Y-117267857D01*
X117482142Y-117196428D01*
X117553571Y-117125000D01*
X117660714Y-117089285D01*
X117732142Y-117089285D01*
X117839285Y-117125000D01*
X117875000Y-117160714D01*
X118160714Y-117160714D02*
X118196428Y-117125000D01*
X118267857Y-117089285D01*
X118446428Y-117089285D01*
X118517857Y-117125000D01*
X118553571Y-117160714D01*
X118589285Y-117232142D01*
X118589285Y-117303571D01*
X118553571Y-117410714D01*
X118125000Y-117839285D01*
X118589285Y-117839285D01*
X120446428Y-117839285D02*
X120017857Y-117839285D01*
X120232142Y-117839285D02*
X120232142Y-117089285D01*
X120160714Y-117196428D01*
X120089285Y-117267857D01*
X120017857Y-117303571D01*
X120910714Y-117089285D02*
X120982142Y-117089285D01*
X121053571Y-117125000D01*
X121089285Y-117160714D01*
X121125000Y-117232142D01*
X121160714Y-117375000D01*
X121160714Y-117553571D01*
X121125000Y-117696428D01*
X121089285Y-117767857D01*
X121053571Y-117803571D01*
X120982142Y-117839285D01*
X120910714Y-117839285D01*
X120839285Y-117803571D01*
X120803571Y-117767857D01*
X120767857Y-117696428D01*
X120732142Y-117553571D01*
X120732142Y-117375000D01*
X120767857Y-117232142D01*
X120803571Y-117160714D01*
X120839285Y-117125000D01*
X120910714Y-117089285D01*
X121625000Y-117089285D02*
X121696428Y-117089285D01*
X121767857Y-117125000D01*
X121803571Y-117160714D01*
X121839285Y-117232142D01*
X121875000Y-117375000D01*
X121875000Y-117553571D01*
X121839285Y-117696428D01*
X121803571Y-117767857D01*
X121767857Y-117803571D01*
X121696428Y-117839285D01*
X121625000Y-117839285D01*
X121553571Y-117803571D01*
X121517857Y-117767857D01*
X121482142Y-117696428D01*
X121446428Y-117553571D01*
X121446428Y-117375000D01*
X121482142Y-117232142D01*
X121517857Y-117160714D01*
X121553571Y-117125000D01*
X121625000Y-117089285D01*
X122196428Y-117339285D02*
X122196428Y-117839285D01*
X122196428Y-117410714D02*
X122232142Y-117375000D01*
X122303571Y-117339285D01*
X122410714Y-117339285D01*
X122482142Y-117375000D01*
X122517857Y-117446428D01*
X122517857Y-117839285D01*
X122767857Y-117339285D02*
X123053571Y-117339285D01*
X122875000Y-117839285D02*
X122875000Y-117196428D01*
X122910714Y-117125000D01*
X122982142Y-117089285D01*
X123053571Y-117089285D01*
%TO.C,C3*%
X117875000Y-121267857D02*
X117839285Y-121303571D01*
X117732142Y-121339285D01*
X117660714Y-121339285D01*
X117553571Y-121303571D01*
X117482142Y-121232142D01*
X117446428Y-121160714D01*
X117410714Y-121017857D01*
X117410714Y-120910714D01*
X117446428Y-120767857D01*
X117482142Y-120696428D01*
X117553571Y-120625000D01*
X117660714Y-120589285D01*
X117732142Y-120589285D01*
X117839285Y-120625000D01*
X117875000Y-120660714D01*
X118125000Y-120589285D02*
X118589285Y-120589285D01*
X118339285Y-120875000D01*
X118446428Y-120875000D01*
X118517857Y-120910714D01*
X118553571Y-120946428D01*
X118589285Y-121017857D01*
X118589285Y-121196428D01*
X118553571Y-121267857D01*
X118517857Y-121303571D01*
X118446428Y-121339285D01*
X118232142Y-121339285D01*
X118160714Y-121303571D01*
X118125000Y-121267857D01*
X120446428Y-121339285D02*
X120017857Y-121339285D01*
X120232142Y-121339285D02*
X120232142Y-120589285D01*
X120160714Y-120696428D01*
X120089285Y-120767857D01*
X120017857Y-120803571D01*
X120910714Y-120589285D02*
X120982142Y-120589285D01*
X121053571Y-120625000D01*
X121089285Y-120660714D01*
X121125000Y-120732142D01*
X121160714Y-120875000D01*
X121160714Y-121053571D01*
X121125000Y-121196428D01*
X121089285Y-121267857D01*
X121053571Y-121303571D01*
X120982142Y-121339285D01*
X120910714Y-121339285D01*
X120839285Y-121303571D01*
X120803571Y-121267857D01*
X120767857Y-121196428D01*
X120732142Y-121053571D01*
X120732142Y-120875000D01*
X120767857Y-120732142D01*
X120803571Y-120660714D01*
X120839285Y-120625000D01*
X120910714Y-120589285D01*
X121625000Y-120589285D02*
X121696428Y-120589285D01*
X121767857Y-120625000D01*
X121803571Y-120660714D01*
X121839285Y-120732142D01*
X121875000Y-120875000D01*
X121875000Y-121053571D01*
X121839285Y-121196428D01*
X121803571Y-121267857D01*
X121767857Y-121303571D01*
X121696428Y-121339285D01*
X121625000Y-121339285D01*
X121553571Y-121303571D01*
X121517857Y-121267857D01*
X121482142Y-121196428D01*
X121446428Y-121053571D01*
X121446428Y-120875000D01*
X121482142Y-120732142D01*
X121517857Y-120660714D01*
X121553571Y-120625000D01*
X121625000Y-120589285D01*
X122196428Y-120839285D02*
X122196428Y-121339285D01*
X122196428Y-120910714D02*
X122232142Y-120875000D01*
X122303571Y-120839285D01*
X122410714Y-120839285D01*
X122482142Y-120875000D01*
X122517857Y-120946428D01*
X122517857Y-121339285D01*
X122767857Y-120839285D02*
X123053571Y-120839285D01*
X122875000Y-121339285D02*
X122875000Y-120696428D01*
X122910714Y-120625000D01*
X122982142Y-120589285D01*
X123053571Y-120589285D01*
%TO.C,C4*%
X139375000Y-74767857D02*
X139339285Y-74803571D01*
X139232142Y-74839285D01*
X139160714Y-74839285D01*
X139053571Y-74803571D01*
X138982142Y-74732142D01*
X138946428Y-74660714D01*
X138910714Y-74517857D01*
X138910714Y-74410714D01*
X138946428Y-74267857D01*
X138982142Y-74196428D01*
X139053571Y-74125000D01*
X139160714Y-74089285D01*
X139232142Y-74089285D01*
X139339285Y-74125000D01*
X139375000Y-74160714D01*
X140017857Y-74339285D02*
X140017857Y-74839285D01*
X139839285Y-74053571D02*
X139660714Y-74589285D01*
X140125000Y-74589285D01*
X138629285Y-77267857D02*
X138665000Y-77303571D01*
X138629285Y-77339285D01*
X138593571Y-77303571D01*
X138629285Y-77267857D01*
X138629285Y-77339285D01*
X139379285Y-77339285D02*
X138950714Y-77339285D01*
X139165000Y-77339285D02*
X139165000Y-76589285D01*
X139093571Y-76696428D01*
X139022142Y-76767857D01*
X138950714Y-76803571D01*
X140022142Y-76839285D02*
X140022142Y-77339285D01*
X139700714Y-76839285D02*
X139700714Y-77232142D01*
X139736428Y-77303571D01*
X139807857Y-77339285D01*
X139915000Y-77339285D01*
X139986428Y-77303571D01*
X140022142Y-77267857D01*
X140272142Y-76839285D02*
X140557857Y-76839285D01*
X140379285Y-77339285D02*
X140379285Y-76696428D01*
X140415000Y-76625000D01*
X140486428Y-76589285D01*
X140557857Y-76589285D01*
%TO.C,C5*%
X128375000Y-120767857D02*
X128339285Y-120803571D01*
X128232142Y-120839285D01*
X128160714Y-120839285D01*
X128053571Y-120803571D01*
X127982142Y-120732142D01*
X127946428Y-120660714D01*
X127910714Y-120517857D01*
X127910714Y-120410714D01*
X127946428Y-120267857D01*
X127982142Y-120196428D01*
X128053571Y-120125000D01*
X128160714Y-120089285D01*
X128232142Y-120089285D01*
X128339285Y-120125000D01*
X128375000Y-120160714D01*
X129053571Y-120089285D02*
X128696428Y-120089285D01*
X128660714Y-120446428D01*
X128696428Y-120410714D01*
X128767857Y-120375000D01*
X128946428Y-120375000D01*
X129017857Y-120410714D01*
X129053571Y-120446428D01*
X129089285Y-120517857D01*
X129089285Y-120696428D01*
X129053571Y-120767857D01*
X129017857Y-120803571D01*
X128946428Y-120839285D01*
X128767857Y-120839285D01*
X128696428Y-120803571D01*
X128660714Y-120767857D01*
X131803571Y-120839285D02*
X131375000Y-120839285D01*
X131589285Y-120839285D02*
X131589285Y-120089285D01*
X131517857Y-120196428D01*
X131446428Y-120267857D01*
X131375000Y-120303571D01*
X132267857Y-120089285D02*
X132339285Y-120089285D01*
X132410714Y-120125000D01*
X132446428Y-120160714D01*
X132482142Y-120232142D01*
X132517857Y-120375000D01*
X132517857Y-120553571D01*
X132482142Y-120696428D01*
X132446428Y-120767857D01*
X132410714Y-120803571D01*
X132339285Y-120839285D01*
X132267857Y-120839285D01*
X132196428Y-120803571D01*
X132160714Y-120767857D01*
X132125000Y-120696428D01*
X132089285Y-120553571D01*
X132089285Y-120375000D01*
X132125000Y-120232142D01*
X132160714Y-120160714D01*
X132196428Y-120125000D01*
X132267857Y-120089285D01*
X133160714Y-120339285D02*
X133160714Y-120839285D01*
X132839285Y-120339285D02*
X132839285Y-120732142D01*
X132875000Y-120803571D01*
X132946428Y-120839285D01*
X133053571Y-120839285D01*
X133125000Y-120803571D01*
X133160714Y-120767857D01*
X133410714Y-120339285D02*
X133696428Y-120339285D01*
X133517857Y-120839285D02*
X133517857Y-120196428D01*
X133553571Y-120125000D01*
X133625000Y-120089285D01*
X133696428Y-120089285D01*
%TO.C,C6*%
X128375000Y-99767857D02*
X128339285Y-99803571D01*
X128232142Y-99839285D01*
X128160714Y-99839285D01*
X128053571Y-99803571D01*
X127982142Y-99732142D01*
X127946428Y-99660714D01*
X127910714Y-99517857D01*
X127910714Y-99410714D01*
X127946428Y-99267857D01*
X127982142Y-99196428D01*
X128053571Y-99125000D01*
X128160714Y-99089285D01*
X128232142Y-99089285D01*
X128339285Y-99125000D01*
X128375000Y-99160714D01*
X129017857Y-99089285D02*
X128875000Y-99089285D01*
X128803571Y-99125000D01*
X128767857Y-99160714D01*
X128696428Y-99267857D01*
X128660714Y-99410714D01*
X128660714Y-99696428D01*
X128696428Y-99767857D01*
X128732142Y-99803571D01*
X128803571Y-99839285D01*
X128946428Y-99839285D01*
X129017857Y-99803571D01*
X129053571Y-99767857D01*
X129089285Y-99696428D01*
X129089285Y-99517857D01*
X129053571Y-99446428D01*
X129017857Y-99410714D01*
X128946428Y-99375000D01*
X128803571Y-99375000D01*
X128732142Y-99410714D01*
X128696428Y-99446428D01*
X128660714Y-99517857D01*
X131803571Y-99839285D02*
X131375000Y-99839285D01*
X131589285Y-99839285D02*
X131589285Y-99089285D01*
X131517857Y-99196428D01*
X131446428Y-99267857D01*
X131375000Y-99303571D01*
X132267857Y-99089285D02*
X132339285Y-99089285D01*
X132410714Y-99125000D01*
X132446428Y-99160714D01*
X132482142Y-99232142D01*
X132517857Y-99375000D01*
X132517857Y-99553571D01*
X132482142Y-99696428D01*
X132446428Y-99767857D01*
X132410714Y-99803571D01*
X132339285Y-99839285D01*
X132267857Y-99839285D01*
X132196428Y-99803571D01*
X132160714Y-99767857D01*
X132125000Y-99696428D01*
X132089285Y-99553571D01*
X132089285Y-99375000D01*
X132125000Y-99232142D01*
X132160714Y-99160714D01*
X132196428Y-99125000D01*
X132267857Y-99089285D01*
X133160714Y-99339285D02*
X133160714Y-99839285D01*
X132839285Y-99339285D02*
X132839285Y-99732142D01*
X132875000Y-99803571D01*
X132946428Y-99839285D01*
X133053571Y-99839285D01*
X133125000Y-99803571D01*
X133160714Y-99767857D01*
X133410714Y-99339285D02*
X133696428Y-99339285D01*
X133517857Y-99839285D02*
X133517857Y-99196428D01*
X133553571Y-99125000D01*
X133625000Y-99089285D01*
X133696428Y-99089285D01*
%TO.C,1N4148*%
X129167142Y-135832380D02*
X128595714Y-135832380D01*
X128881428Y-135832380D02*
X128881428Y-134832380D01*
X128786190Y-134975238D01*
X128690952Y-135070476D01*
X128595714Y-135118095D01*
X129595714Y-135832380D02*
X129595714Y-134832380D01*
X130167142Y-135832380D01*
X130167142Y-134832380D01*
X131071904Y-135165714D02*
X131071904Y-135832380D01*
X130833809Y-134784761D02*
X130595714Y-135499047D01*
X131214761Y-135499047D01*
X132119523Y-135832380D02*
X131548095Y-135832380D01*
X131833809Y-135832380D02*
X131833809Y-134832380D01*
X131738571Y-134975238D01*
X131643333Y-135070476D01*
X131548095Y-135118095D01*
X132976666Y-135165714D02*
X132976666Y-135832380D01*
X132738571Y-134784761D02*
X132500476Y-135499047D01*
X133119523Y-135499047D01*
X133643333Y-135260952D02*
X133548095Y-135213333D01*
X133500476Y-135165714D01*
X133452857Y-135070476D01*
X133452857Y-135022857D01*
X133500476Y-134927619D01*
X133548095Y-134880000D01*
X133643333Y-134832380D01*
X133833809Y-134832380D01*
X133929047Y-134880000D01*
X133976666Y-134927619D01*
X134024285Y-135022857D01*
X134024285Y-135070476D01*
X133976666Y-135165714D01*
X133929047Y-135213333D01*
X133833809Y-135260952D01*
X133643333Y-135260952D01*
X133548095Y-135308571D01*
X133500476Y-135356190D01*
X133452857Y-135451428D01*
X133452857Y-135641904D01*
X133500476Y-135737142D01*
X133548095Y-135784761D01*
X133643333Y-135832380D01*
X133833809Y-135832380D01*
X133929047Y-135784761D01*
X133976666Y-135737142D01*
X134024285Y-135641904D01*
X134024285Y-135451428D01*
X133976666Y-135356190D01*
X133929047Y-135308571D01*
X133833809Y-135260952D01*
X127238095Y-136152380D02*
X127238095Y-135152380D01*
X127809523Y-136152380D02*
X127380952Y-135580952D01*
X127809523Y-135152380D02*
X127238095Y-135723809D01*
X117667142Y-135832380D02*
X117095714Y-135832380D01*
X117381428Y-135832380D02*
X117381428Y-134832380D01*
X117286190Y-134975238D01*
X117190952Y-135070476D01*
X117095714Y-135118095D01*
X118095714Y-135832380D02*
X118095714Y-134832380D01*
X118667142Y-135832380D01*
X118667142Y-134832380D01*
X119571904Y-135165714D02*
X119571904Y-135832380D01*
X119333809Y-134784761D02*
X119095714Y-135499047D01*
X119714761Y-135499047D01*
X120619523Y-135832380D02*
X120048095Y-135832380D01*
X120333809Y-135832380D02*
X120333809Y-134832380D01*
X120238571Y-134975238D01*
X120143333Y-135070476D01*
X120048095Y-135118095D01*
X121476666Y-135165714D02*
X121476666Y-135832380D01*
X121238571Y-134784761D02*
X121000476Y-135499047D01*
X121619523Y-135499047D01*
X122143333Y-135260952D02*
X122048095Y-135213333D01*
X122000476Y-135165714D01*
X121952857Y-135070476D01*
X121952857Y-135022857D01*
X122000476Y-134927619D01*
X122048095Y-134880000D01*
X122143333Y-134832380D01*
X122333809Y-134832380D01*
X122429047Y-134880000D01*
X122476666Y-134927619D01*
X122524285Y-135022857D01*
X122524285Y-135070476D01*
X122476666Y-135165714D01*
X122429047Y-135213333D01*
X122333809Y-135260952D01*
X122143333Y-135260952D01*
X122048095Y-135308571D01*
X122000476Y-135356190D01*
X121952857Y-135451428D01*
X121952857Y-135641904D01*
X122000476Y-135737142D01*
X122048095Y-135784761D01*
X122143333Y-135832380D01*
X122333809Y-135832380D01*
X122429047Y-135784761D01*
X122476666Y-135737142D01*
X122524285Y-135641904D01*
X122524285Y-135451428D01*
X122476666Y-135356190D01*
X122429047Y-135308571D01*
X122333809Y-135260952D01*
X115738095Y-136152380D02*
X115738095Y-135152380D01*
X116309523Y-136152380D02*
X115880952Y-135580952D01*
X116309523Y-135152380D02*
X115738095Y-135723809D01*
%TO.C,1N4733*%
X121437142Y-62982380D02*
X120865714Y-62982380D01*
X121151428Y-62982380D02*
X121151428Y-61982380D01*
X121056190Y-62125238D01*
X120960952Y-62220476D01*
X120865714Y-62268095D01*
X121865714Y-62982380D02*
X121865714Y-61982380D01*
X122437142Y-62982380D01*
X122437142Y-61982380D01*
X123341904Y-62315714D02*
X123341904Y-62982380D01*
X123103809Y-61934761D02*
X122865714Y-62649047D01*
X123484761Y-62649047D01*
X123770476Y-61982380D02*
X124437142Y-61982380D01*
X124008571Y-62982380D01*
X124722857Y-61982380D02*
X125341904Y-61982380D01*
X125008571Y-62363333D01*
X125151428Y-62363333D01*
X125246666Y-62410952D01*
X125294285Y-62458571D01*
X125341904Y-62553809D01*
X125341904Y-62791904D01*
X125294285Y-62887142D01*
X125246666Y-62934761D01*
X125151428Y-62982380D01*
X124865714Y-62982380D01*
X124770476Y-62934761D01*
X124722857Y-62887142D01*
X125675238Y-61982380D02*
X126294285Y-61982380D01*
X125960952Y-62363333D01*
X126103809Y-62363333D01*
X126199047Y-62410952D01*
X126246666Y-62458571D01*
X126294285Y-62553809D01*
X126294285Y-62791904D01*
X126246666Y-62887142D01*
X126199047Y-62934761D01*
X126103809Y-62982380D01*
X125818095Y-62982380D01*
X125722857Y-62934761D01*
X125675238Y-62887142D01*
X118238095Y-63352380D02*
X118238095Y-62352380D01*
X118809523Y-63352380D02*
X118380952Y-62780952D01*
X118809523Y-62352380D02*
X118238095Y-62923809D01*
X121437142Y-67982380D02*
X120865714Y-67982380D01*
X121151428Y-67982380D02*
X121151428Y-66982380D01*
X121056190Y-67125238D01*
X120960952Y-67220476D01*
X120865714Y-67268095D01*
X121865714Y-67982380D02*
X121865714Y-66982380D01*
X122437142Y-67982380D01*
X122437142Y-66982380D01*
X123341904Y-67315714D02*
X123341904Y-67982380D01*
X123103809Y-66934761D02*
X122865714Y-67649047D01*
X123484761Y-67649047D01*
X123770476Y-66982380D02*
X124437142Y-66982380D01*
X124008571Y-67982380D01*
X124722857Y-66982380D02*
X125341904Y-66982380D01*
X125008571Y-67363333D01*
X125151428Y-67363333D01*
X125246666Y-67410952D01*
X125294285Y-67458571D01*
X125341904Y-67553809D01*
X125341904Y-67791904D01*
X125294285Y-67887142D01*
X125246666Y-67934761D01*
X125151428Y-67982380D01*
X124865714Y-67982380D01*
X124770476Y-67934761D01*
X124722857Y-67887142D01*
X125675238Y-66982380D02*
X126294285Y-66982380D01*
X125960952Y-67363333D01*
X126103809Y-67363333D01*
X126199047Y-67410952D01*
X126246666Y-67458571D01*
X126294285Y-67553809D01*
X126294285Y-67791904D01*
X126246666Y-67887142D01*
X126199047Y-67934761D01*
X126103809Y-67982380D01*
X125818095Y-67982380D01*
X125722857Y-67934761D01*
X125675238Y-67887142D01*
X118238095Y-68352380D02*
X118238095Y-67352380D01*
X118809523Y-68352380D02*
X118380952Y-67780952D01*
X118809523Y-67352380D02*
X118238095Y-67923809D01*
%TO.C,FB1*%
X127685000Y-112914428D02*
X127435000Y-112914428D01*
X127435000Y-113307285D02*
X127435000Y-112557285D01*
X127792142Y-112557285D01*
X128327857Y-112914428D02*
X128435000Y-112950142D01*
X128470714Y-112985857D01*
X128506428Y-113057285D01*
X128506428Y-113164428D01*
X128470714Y-113235857D01*
X128435000Y-113271571D01*
X128363571Y-113307285D01*
X128077857Y-113307285D01*
X128077857Y-112557285D01*
X128327857Y-112557285D01*
X128399285Y-112593000D01*
X128435000Y-112628714D01*
X128470714Y-112700142D01*
X128470714Y-112771571D01*
X128435000Y-112843000D01*
X128399285Y-112878714D01*
X128327857Y-112914428D01*
X128077857Y-112914428D01*
X129220714Y-113307285D02*
X128792142Y-113307285D01*
X129006428Y-113307285D02*
X129006428Y-112557285D01*
X128935000Y-112664428D01*
X128863571Y-112735857D01*
X128792142Y-112771571D01*
X125542142Y-114946428D02*
X125292142Y-114946428D01*
X125292142Y-115339285D02*
X125292142Y-114589285D01*
X125649285Y-114589285D01*
X126220714Y-115303571D02*
X126149285Y-115339285D01*
X126006428Y-115339285D01*
X125935000Y-115303571D01*
X125899285Y-115232142D01*
X125899285Y-114946428D01*
X125935000Y-114875000D01*
X126006428Y-114839285D01*
X126149285Y-114839285D01*
X126220714Y-114875000D01*
X126256428Y-114946428D01*
X126256428Y-115017857D01*
X125899285Y-115089285D01*
X126577857Y-115339285D02*
X126577857Y-114839285D01*
X126577857Y-114982142D02*
X126613571Y-114910714D01*
X126649285Y-114875000D01*
X126720714Y-114839285D01*
X126792142Y-114839285D01*
X127042142Y-115339285D02*
X127042142Y-114839285D01*
X127042142Y-114982142D02*
X127077857Y-114910714D01*
X127113571Y-114875000D01*
X127185000Y-114839285D01*
X127256428Y-114839285D01*
X127506428Y-115339285D02*
X127506428Y-114839285D01*
X127506428Y-114589285D02*
X127470714Y-114625000D01*
X127506428Y-114660714D01*
X127542142Y-114625000D01*
X127506428Y-114589285D01*
X127506428Y-114660714D01*
X127756428Y-114839285D02*
X128042142Y-114839285D01*
X127863571Y-114589285D02*
X127863571Y-115232142D01*
X127899285Y-115303571D01*
X127970714Y-115339285D01*
X128042142Y-115339285D01*
X128577857Y-115303571D02*
X128506428Y-115339285D01*
X128363571Y-115339285D01*
X128292142Y-115303571D01*
X128256428Y-115232142D01*
X128256428Y-114946428D01*
X128292142Y-114875000D01*
X128363571Y-114839285D01*
X128506428Y-114839285D01*
X128577857Y-114875000D01*
X128613571Y-114946428D01*
X128613571Y-115017857D01*
X128256428Y-115089285D01*
X129185000Y-114946428D02*
X129292142Y-114982142D01*
X129327857Y-115017857D01*
X129363571Y-115089285D01*
X129363571Y-115196428D01*
X129327857Y-115267857D01*
X129292142Y-115303571D01*
X129220714Y-115339285D01*
X128935000Y-115339285D01*
X128935000Y-114589285D01*
X129185000Y-114589285D01*
X129256428Y-114625000D01*
X129292142Y-114660714D01*
X129327857Y-114732142D01*
X129327857Y-114803571D01*
X129292142Y-114875000D01*
X129256428Y-114910714D01*
X129185000Y-114946428D01*
X128935000Y-114946428D01*
X129970714Y-115303571D02*
X129899285Y-115339285D01*
X129756428Y-115339285D01*
X129685000Y-115303571D01*
X129649285Y-115232142D01*
X129649285Y-114946428D01*
X129685000Y-114875000D01*
X129756428Y-114839285D01*
X129899285Y-114839285D01*
X129970714Y-114875000D01*
X130006428Y-114946428D01*
X130006428Y-115017857D01*
X129649285Y-115089285D01*
X130649285Y-115339285D02*
X130649285Y-114946428D01*
X130613571Y-114875000D01*
X130542142Y-114839285D01*
X130399285Y-114839285D01*
X130327857Y-114875000D01*
X130649285Y-115303571D02*
X130577857Y-115339285D01*
X130399285Y-115339285D01*
X130327857Y-115303571D01*
X130292142Y-115232142D01*
X130292142Y-115160714D01*
X130327857Y-115089285D01*
X130399285Y-115053571D01*
X130577857Y-115053571D01*
X130649285Y-115017857D01*
X131327857Y-115339285D02*
X131327857Y-114589285D01*
X131327857Y-115303571D02*
X131256428Y-115339285D01*
X131113571Y-115339285D01*
X131042142Y-115303571D01*
X131006428Y-115267857D01*
X130970714Y-115196428D01*
X130970714Y-114982142D01*
X131006428Y-114910714D01*
X131042142Y-114875000D01*
X131113571Y-114839285D01*
X131256428Y-114839285D01*
X131327857Y-114875000D01*
%TO.C,FB2*%
X127685000Y-108414428D02*
X127435000Y-108414428D01*
X127435000Y-108807285D02*
X127435000Y-108057285D01*
X127792142Y-108057285D01*
X128327857Y-108414428D02*
X128435000Y-108450142D01*
X128470714Y-108485857D01*
X128506428Y-108557285D01*
X128506428Y-108664428D01*
X128470714Y-108735857D01*
X128435000Y-108771571D01*
X128363571Y-108807285D01*
X128077857Y-108807285D01*
X128077857Y-108057285D01*
X128327857Y-108057285D01*
X128399285Y-108093000D01*
X128435000Y-108128714D01*
X128470714Y-108200142D01*
X128470714Y-108271571D01*
X128435000Y-108343000D01*
X128399285Y-108378714D01*
X128327857Y-108414428D01*
X128077857Y-108414428D01*
X128792142Y-108128714D02*
X128827857Y-108093000D01*
X128899285Y-108057285D01*
X129077857Y-108057285D01*
X129149285Y-108093000D01*
X129185000Y-108128714D01*
X129220714Y-108200142D01*
X129220714Y-108271571D01*
X129185000Y-108378714D01*
X128756428Y-108807285D01*
X129220714Y-108807285D01*
X125542142Y-110446428D02*
X125292142Y-110446428D01*
X125292142Y-110839285D02*
X125292142Y-110089285D01*
X125649285Y-110089285D01*
X126220714Y-110803571D02*
X126149285Y-110839285D01*
X126006428Y-110839285D01*
X125935000Y-110803571D01*
X125899285Y-110732142D01*
X125899285Y-110446428D01*
X125935000Y-110375000D01*
X126006428Y-110339285D01*
X126149285Y-110339285D01*
X126220714Y-110375000D01*
X126256428Y-110446428D01*
X126256428Y-110517857D01*
X125899285Y-110589285D01*
X126577857Y-110839285D02*
X126577857Y-110339285D01*
X126577857Y-110482142D02*
X126613571Y-110410714D01*
X126649285Y-110375000D01*
X126720714Y-110339285D01*
X126792142Y-110339285D01*
X127042142Y-110839285D02*
X127042142Y-110339285D01*
X127042142Y-110482142D02*
X127077857Y-110410714D01*
X127113571Y-110375000D01*
X127185000Y-110339285D01*
X127256428Y-110339285D01*
X127506428Y-110839285D02*
X127506428Y-110339285D01*
X127506428Y-110089285D02*
X127470714Y-110125000D01*
X127506428Y-110160714D01*
X127542142Y-110125000D01*
X127506428Y-110089285D01*
X127506428Y-110160714D01*
X127756428Y-110339285D02*
X128042142Y-110339285D01*
X127863571Y-110089285D02*
X127863571Y-110732142D01*
X127899285Y-110803571D01*
X127970714Y-110839285D01*
X128042142Y-110839285D01*
X128577857Y-110803571D02*
X128506428Y-110839285D01*
X128363571Y-110839285D01*
X128292142Y-110803571D01*
X128256428Y-110732142D01*
X128256428Y-110446428D01*
X128292142Y-110375000D01*
X128363571Y-110339285D01*
X128506428Y-110339285D01*
X128577857Y-110375000D01*
X128613571Y-110446428D01*
X128613571Y-110517857D01*
X128256428Y-110589285D01*
X129185000Y-110446428D02*
X129292142Y-110482142D01*
X129327857Y-110517857D01*
X129363571Y-110589285D01*
X129363571Y-110696428D01*
X129327857Y-110767857D01*
X129292142Y-110803571D01*
X129220714Y-110839285D01*
X128935000Y-110839285D01*
X128935000Y-110089285D01*
X129185000Y-110089285D01*
X129256428Y-110125000D01*
X129292142Y-110160714D01*
X129327857Y-110232142D01*
X129327857Y-110303571D01*
X129292142Y-110375000D01*
X129256428Y-110410714D01*
X129185000Y-110446428D01*
X128935000Y-110446428D01*
X129970714Y-110803571D02*
X129899285Y-110839285D01*
X129756428Y-110839285D01*
X129685000Y-110803571D01*
X129649285Y-110732142D01*
X129649285Y-110446428D01*
X129685000Y-110375000D01*
X129756428Y-110339285D01*
X129899285Y-110339285D01*
X129970714Y-110375000D01*
X130006428Y-110446428D01*
X130006428Y-110517857D01*
X129649285Y-110589285D01*
X130649285Y-110839285D02*
X130649285Y-110446428D01*
X130613571Y-110375000D01*
X130542142Y-110339285D01*
X130399285Y-110339285D01*
X130327857Y-110375000D01*
X130649285Y-110803571D02*
X130577857Y-110839285D01*
X130399285Y-110839285D01*
X130327857Y-110803571D01*
X130292142Y-110732142D01*
X130292142Y-110660714D01*
X130327857Y-110589285D01*
X130399285Y-110553571D01*
X130577857Y-110553571D01*
X130649285Y-110517857D01*
X131327857Y-110839285D02*
X131327857Y-110089285D01*
X131327857Y-110803571D02*
X131256428Y-110839285D01*
X131113571Y-110839285D01*
X131042142Y-110803571D01*
X131006428Y-110767857D01*
X130970714Y-110696428D01*
X130970714Y-110482142D01*
X131006428Y-110410714D01*
X131042142Y-110375000D01*
X131113571Y-110339285D01*
X131256428Y-110339285D01*
X131327857Y-110375000D01*
%TO.C,J3*%
X132400000Y-113759285D02*
X132400000Y-114295000D01*
X132364285Y-114402142D01*
X132292857Y-114473571D01*
X132185714Y-114509285D01*
X132114285Y-114509285D01*
X132685714Y-113759285D02*
X133150000Y-113759285D01*
X132900000Y-114045000D01*
X133007142Y-114045000D01*
X133078571Y-114080714D01*
X133114285Y-114116428D01*
X133150000Y-114187857D01*
X133150000Y-114366428D01*
X133114285Y-114437857D01*
X133078571Y-114473571D01*
X133007142Y-114509285D01*
X132792857Y-114509285D01*
X132721428Y-114473571D01*
X132685714Y-114437857D01*
X137738095Y-125071428D02*
X138500000Y-125071428D01*
X138119047Y-125452380D02*
X138119047Y-124690476D01*
X139500000Y-125452380D02*
X138928571Y-125452380D01*
X139214285Y-125452380D02*
X139214285Y-124452380D01*
X139119047Y-124595238D01*
X139023809Y-124690476D01*
X138928571Y-124738095D01*
X139880952Y-124547619D02*
X139928571Y-124500000D01*
X140023809Y-124452380D01*
X140261904Y-124452380D01*
X140357142Y-124500000D01*
X140404761Y-124547619D01*
X140452380Y-124642857D01*
X140452380Y-124738095D01*
X140404761Y-124880952D01*
X139833333Y-125452380D01*
X140452380Y-125452380D01*
X140738095Y-124452380D02*
X141071428Y-125452380D01*
X141404761Y-124452380D01*
X137738095Y-101071428D02*
X138500000Y-101071428D01*
X139500000Y-101452380D02*
X138928571Y-101452380D01*
X139214285Y-101452380D02*
X139214285Y-100452380D01*
X139119047Y-100595238D01*
X139023809Y-100690476D01*
X138928571Y-100738095D01*
X139880952Y-100547619D02*
X139928571Y-100500000D01*
X140023809Y-100452380D01*
X140261904Y-100452380D01*
X140357142Y-100500000D01*
X140404761Y-100547619D01*
X140452380Y-100642857D01*
X140452380Y-100738095D01*
X140404761Y-100880952D01*
X139833333Y-101452380D01*
X140452380Y-101452380D01*
X140738095Y-100452380D02*
X141071428Y-101452380D01*
X141404761Y-100452380D01*
X136428571Y-102952380D02*
X136095238Y-102476190D01*
X135857142Y-102952380D02*
X135857142Y-101952380D01*
X136238095Y-101952380D01*
X136333333Y-102000000D01*
X136380952Y-102047619D01*
X136428571Y-102142857D01*
X136428571Y-102285714D01*
X136380952Y-102380952D01*
X136333333Y-102428571D01*
X136238095Y-102476190D01*
X135857142Y-102476190D01*
X136857142Y-102428571D02*
X137190476Y-102428571D01*
X137333333Y-102952380D02*
X136857142Y-102952380D01*
X136857142Y-101952380D01*
X137333333Y-101952380D01*
X137761904Y-102952380D02*
X137761904Y-101952380D01*
X138000000Y-101952380D01*
X138142857Y-102000000D01*
X138238095Y-102095238D01*
X138285714Y-102190476D01*
X138333333Y-102380952D01*
X138333333Y-102523809D01*
X138285714Y-102714285D01*
X138238095Y-102809523D01*
X138142857Y-102904761D01*
X138000000Y-102952380D01*
X137761904Y-102952380D01*
X139476190Y-102904761D02*
X139619047Y-102952380D01*
X139857142Y-102952380D01*
X139952380Y-102904761D01*
X140000000Y-102857142D01*
X140047619Y-102761904D01*
X140047619Y-102666666D01*
X140000000Y-102571428D01*
X139952380Y-102523809D01*
X139857142Y-102476190D01*
X139666666Y-102428571D01*
X139571428Y-102380952D01*
X139523809Y-102333333D01*
X139476190Y-102238095D01*
X139476190Y-102142857D01*
X139523809Y-102047619D01*
X139571428Y-102000000D01*
X139666666Y-101952380D01*
X139904761Y-101952380D01*
X140047619Y-102000000D01*
X140333333Y-101952380D02*
X140904761Y-101952380D01*
X140619047Y-102952380D02*
X140619047Y-101952380D01*
X141809523Y-102952380D02*
X141476190Y-102476190D01*
X141238095Y-102952380D02*
X141238095Y-101952380D01*
X141619047Y-101952380D01*
X141714285Y-102000000D01*
X141761904Y-102047619D01*
X141809523Y-102142857D01*
X141809523Y-102285714D01*
X141761904Y-102380952D01*
X141714285Y-102428571D01*
X141619047Y-102476190D01*
X141238095Y-102476190D01*
X142238095Y-102952380D02*
X142238095Y-101952380D01*
X142714285Y-102952380D02*
X142714285Y-101952380D01*
X143095238Y-101952380D01*
X143190476Y-102000000D01*
X143238095Y-102047619D01*
X143285714Y-102142857D01*
X143285714Y-102285714D01*
X143238095Y-102380952D01*
X143190476Y-102428571D01*
X143095238Y-102476190D01*
X142714285Y-102476190D01*
X143714285Y-102428571D02*
X144047619Y-102428571D01*
X144190476Y-102952380D02*
X143714285Y-102952380D01*
X143714285Y-101952380D01*
X144190476Y-101952380D01*
%TO.C,R1*%
X139185000Y-84807285D02*
X138935000Y-84450142D01*
X138756428Y-84807285D02*
X138756428Y-84057285D01*
X139042142Y-84057285D01*
X139113571Y-84093000D01*
X139149285Y-84128714D01*
X139185000Y-84200142D01*
X139185000Y-84307285D01*
X139149285Y-84378714D01*
X139113571Y-84414428D01*
X139042142Y-84450142D01*
X138756428Y-84450142D01*
X139899285Y-84807285D02*
X139470714Y-84807285D01*
X139685000Y-84807285D02*
X139685000Y-84057285D01*
X139613571Y-84164428D01*
X139542142Y-84235857D01*
X139470714Y-84271571D01*
X138435000Y-86839285D02*
X138006428Y-86839285D01*
X138220714Y-86839285D02*
X138220714Y-86089285D01*
X138149285Y-86196428D01*
X138077857Y-86267857D01*
X138006428Y-86303571D01*
X138899285Y-86089285D02*
X138970714Y-86089285D01*
X139042142Y-86125000D01*
X139077857Y-86160714D01*
X139113571Y-86232142D01*
X139149285Y-86375000D01*
X139149285Y-86553571D01*
X139113571Y-86696428D01*
X139077857Y-86767857D01*
X139042142Y-86803571D01*
X138970714Y-86839285D01*
X138899285Y-86839285D01*
X138827857Y-86803571D01*
X138792142Y-86767857D01*
X138756428Y-86696428D01*
X138720714Y-86553571D01*
X138720714Y-86375000D01*
X138756428Y-86232142D01*
X138792142Y-86160714D01*
X138827857Y-86125000D01*
X138899285Y-86089285D01*
X139613571Y-86089285D02*
X139685000Y-86089285D01*
X139756428Y-86125000D01*
X139792142Y-86160714D01*
X139827857Y-86232142D01*
X139863571Y-86375000D01*
X139863571Y-86553571D01*
X139827857Y-86696428D01*
X139792142Y-86767857D01*
X139756428Y-86803571D01*
X139685000Y-86839285D01*
X139613571Y-86839285D01*
X139542142Y-86803571D01*
X139506428Y-86767857D01*
X139470714Y-86696428D01*
X139435000Y-86553571D01*
X139435000Y-86375000D01*
X139470714Y-86232142D01*
X139506428Y-86160714D01*
X139542142Y-86125000D01*
X139613571Y-86089285D01*
X140185000Y-86839285D02*
X140185000Y-86089285D01*
X140613571Y-86839285D02*
X140292142Y-86410714D01*
X140613571Y-86089285D02*
X140185000Y-86517857D01*
%TO.C,R2*%
X108685000Y-89307285D02*
X108435000Y-88950142D01*
X108256428Y-89307285D02*
X108256428Y-88557285D01*
X108542142Y-88557285D01*
X108613571Y-88593000D01*
X108649285Y-88628714D01*
X108685000Y-88700142D01*
X108685000Y-88807285D01*
X108649285Y-88878714D01*
X108613571Y-88914428D01*
X108542142Y-88950142D01*
X108256428Y-88950142D01*
X108970714Y-88628714D02*
X109006428Y-88593000D01*
X109077857Y-88557285D01*
X109256428Y-88557285D01*
X109327857Y-88593000D01*
X109363571Y-88628714D01*
X109399285Y-88700142D01*
X109399285Y-88771571D01*
X109363571Y-88878714D01*
X108935000Y-89307285D01*
X109399285Y-89307285D01*
X107506428Y-90660714D02*
X107542142Y-90625000D01*
X107613571Y-90589285D01*
X107792142Y-90589285D01*
X107863571Y-90625000D01*
X107899285Y-90660714D01*
X107935000Y-90732142D01*
X107935000Y-90803571D01*
X107899285Y-90910714D01*
X107470714Y-91339285D01*
X107935000Y-91339285D01*
X108399285Y-90589285D02*
X108470714Y-90589285D01*
X108542142Y-90625000D01*
X108577857Y-90660714D01*
X108613571Y-90732142D01*
X108649285Y-90875000D01*
X108649285Y-91053571D01*
X108613571Y-91196428D01*
X108577857Y-91267857D01*
X108542142Y-91303571D01*
X108470714Y-91339285D01*
X108399285Y-91339285D01*
X108327857Y-91303571D01*
X108292142Y-91267857D01*
X108256428Y-91196428D01*
X108220714Y-91053571D01*
X108220714Y-90875000D01*
X108256428Y-90732142D01*
X108292142Y-90660714D01*
X108327857Y-90625000D01*
X108399285Y-90589285D01*
X109113571Y-90589285D02*
X109185000Y-90589285D01*
X109256428Y-90625000D01*
X109292142Y-90660714D01*
X109327857Y-90732142D01*
X109363571Y-90875000D01*
X109363571Y-91053571D01*
X109327857Y-91196428D01*
X109292142Y-91267857D01*
X109256428Y-91303571D01*
X109185000Y-91339285D01*
X109113571Y-91339285D01*
X109042142Y-91303571D01*
X109006428Y-91267857D01*
X108970714Y-91196428D01*
X108935000Y-91053571D01*
X108935000Y-90875000D01*
X108970714Y-90732142D01*
X109006428Y-90660714D01*
X109042142Y-90625000D01*
X109113571Y-90589285D01*
X109685000Y-91339285D02*
X109685000Y-90589285D01*
X110113571Y-91339285D02*
X109792142Y-90910714D01*
X110113571Y-90589285D02*
X109685000Y-91017857D01*
%TO.C,R3*%
X108685000Y-84807285D02*
X108435000Y-84450142D01*
X108256428Y-84807285D02*
X108256428Y-84057285D01*
X108542142Y-84057285D01*
X108613571Y-84093000D01*
X108649285Y-84128714D01*
X108685000Y-84200142D01*
X108685000Y-84307285D01*
X108649285Y-84378714D01*
X108613571Y-84414428D01*
X108542142Y-84450142D01*
X108256428Y-84450142D01*
X108935000Y-84057285D02*
X109399285Y-84057285D01*
X109149285Y-84343000D01*
X109256428Y-84343000D01*
X109327857Y-84378714D01*
X109363571Y-84414428D01*
X109399285Y-84485857D01*
X109399285Y-84664428D01*
X109363571Y-84735857D01*
X109327857Y-84771571D01*
X109256428Y-84807285D01*
X109042142Y-84807285D01*
X108970714Y-84771571D01*
X108935000Y-84735857D01*
X107506428Y-86160714D02*
X107542142Y-86125000D01*
X107613571Y-86089285D01*
X107792142Y-86089285D01*
X107863571Y-86125000D01*
X107899285Y-86160714D01*
X107935000Y-86232142D01*
X107935000Y-86303571D01*
X107899285Y-86410714D01*
X107470714Y-86839285D01*
X107935000Y-86839285D01*
X108399285Y-86089285D02*
X108470714Y-86089285D01*
X108542142Y-86125000D01*
X108577857Y-86160714D01*
X108613571Y-86232142D01*
X108649285Y-86375000D01*
X108649285Y-86553571D01*
X108613571Y-86696428D01*
X108577857Y-86767857D01*
X108542142Y-86803571D01*
X108470714Y-86839285D01*
X108399285Y-86839285D01*
X108327857Y-86803571D01*
X108292142Y-86767857D01*
X108256428Y-86696428D01*
X108220714Y-86553571D01*
X108220714Y-86375000D01*
X108256428Y-86232142D01*
X108292142Y-86160714D01*
X108327857Y-86125000D01*
X108399285Y-86089285D01*
X109113571Y-86089285D02*
X109185000Y-86089285D01*
X109256428Y-86125000D01*
X109292142Y-86160714D01*
X109327857Y-86232142D01*
X109363571Y-86375000D01*
X109363571Y-86553571D01*
X109327857Y-86696428D01*
X109292142Y-86767857D01*
X109256428Y-86803571D01*
X109185000Y-86839285D01*
X109113571Y-86839285D01*
X109042142Y-86803571D01*
X109006428Y-86767857D01*
X108970714Y-86696428D01*
X108935000Y-86553571D01*
X108935000Y-86375000D01*
X108970714Y-86232142D01*
X109006428Y-86160714D01*
X109042142Y-86125000D01*
X109113571Y-86089285D01*
X109685000Y-86839285D02*
X109685000Y-86089285D01*
X110113571Y-86839285D02*
X109792142Y-86410714D01*
X110113571Y-86089285D02*
X109685000Y-86517857D01*
%TO.C,R4*%
X124020001Y-88382286D02*
X123770001Y-88025143D01*
X123591429Y-88382286D02*
X123591429Y-87632286D01*
X123877143Y-87632286D01*
X123948572Y-87668001D01*
X123984286Y-87703715D01*
X124020001Y-87775143D01*
X124020001Y-87882286D01*
X123984286Y-87953715D01*
X123948572Y-87989429D01*
X123877143Y-88025143D01*
X123591429Y-88025143D01*
X124662858Y-87882286D02*
X124662858Y-88382286D01*
X124484286Y-87596572D02*
X124305715Y-88132286D01*
X124770001Y-88132286D01*
X123270001Y-90414286D02*
X122841429Y-90414286D01*
X123055715Y-90414286D02*
X123055715Y-89664286D01*
X122984286Y-89771429D01*
X122912858Y-89842858D01*
X122841429Y-89878572D01*
X123734286Y-89664286D02*
X123805715Y-89664286D01*
X123877143Y-89700001D01*
X123912858Y-89735715D01*
X123948572Y-89807143D01*
X123984286Y-89950001D01*
X123984286Y-90128572D01*
X123948572Y-90271429D01*
X123912858Y-90342858D01*
X123877143Y-90378572D01*
X123805715Y-90414286D01*
X123734286Y-90414286D01*
X123662858Y-90378572D01*
X123627143Y-90342858D01*
X123591429Y-90271429D01*
X123555715Y-90128572D01*
X123555715Y-89950001D01*
X123591429Y-89807143D01*
X123627143Y-89735715D01*
X123662858Y-89700001D01*
X123734286Y-89664286D01*
X124448572Y-89664286D02*
X124520001Y-89664286D01*
X124591429Y-89700001D01*
X124627143Y-89735715D01*
X124662858Y-89807143D01*
X124698572Y-89950001D01*
X124698572Y-90128572D01*
X124662858Y-90271429D01*
X124627143Y-90342858D01*
X124591429Y-90378572D01*
X124520001Y-90414286D01*
X124448572Y-90414286D01*
X124377143Y-90378572D01*
X124341429Y-90342858D01*
X124305715Y-90271429D01*
X124270001Y-90128572D01*
X124270001Y-89950001D01*
X124305715Y-89807143D01*
X124341429Y-89735715D01*
X124377143Y-89700001D01*
X124448572Y-89664286D01*
X125020001Y-90414286D02*
X125020001Y-89664286D01*
X125448572Y-90414286D02*
X125127143Y-89985715D01*
X125448572Y-89664286D02*
X125020001Y-90092858D01*
%TO.C,R5*%
X131185000Y-130807285D02*
X130935000Y-130450142D01*
X130756428Y-130807285D02*
X130756428Y-130057285D01*
X131042142Y-130057285D01*
X131113571Y-130093000D01*
X131149285Y-130128714D01*
X131185000Y-130200142D01*
X131185000Y-130307285D01*
X131149285Y-130378714D01*
X131113571Y-130414428D01*
X131042142Y-130450142D01*
X130756428Y-130450142D01*
X131863571Y-130057285D02*
X131506428Y-130057285D01*
X131470714Y-130414428D01*
X131506428Y-130378714D01*
X131577857Y-130343000D01*
X131756428Y-130343000D01*
X131827857Y-130378714D01*
X131863571Y-130414428D01*
X131899285Y-130485857D01*
X131899285Y-130664428D01*
X131863571Y-130735857D01*
X131827857Y-130771571D01*
X131756428Y-130807285D01*
X131577857Y-130807285D01*
X131506428Y-130771571D01*
X131470714Y-130735857D01*
X130435000Y-132839285D02*
X130006428Y-132839285D01*
X130220714Y-132839285D02*
X130220714Y-132089285D01*
X130149285Y-132196428D01*
X130077857Y-132267857D01*
X130006428Y-132303571D01*
X130899285Y-132089285D02*
X130970714Y-132089285D01*
X131042142Y-132125000D01*
X131077857Y-132160714D01*
X131113571Y-132232142D01*
X131149285Y-132375000D01*
X131149285Y-132553571D01*
X131113571Y-132696428D01*
X131077857Y-132767857D01*
X131042142Y-132803571D01*
X130970714Y-132839285D01*
X130899285Y-132839285D01*
X130827857Y-132803571D01*
X130792142Y-132767857D01*
X130756428Y-132696428D01*
X130720714Y-132553571D01*
X130720714Y-132375000D01*
X130756428Y-132232142D01*
X130792142Y-132160714D01*
X130827857Y-132125000D01*
X130899285Y-132089285D01*
X131613571Y-132089285D02*
X131685000Y-132089285D01*
X131756428Y-132125000D01*
X131792142Y-132160714D01*
X131827857Y-132232142D01*
X131863571Y-132375000D01*
X131863571Y-132553571D01*
X131827857Y-132696428D01*
X131792142Y-132767857D01*
X131756428Y-132803571D01*
X131685000Y-132839285D01*
X131613571Y-132839285D01*
X131542142Y-132803571D01*
X131506428Y-132767857D01*
X131470714Y-132696428D01*
X131435000Y-132553571D01*
X131435000Y-132375000D01*
X131470714Y-132232142D01*
X131506428Y-132160714D01*
X131542142Y-132125000D01*
X131613571Y-132089285D01*
X132185000Y-132839285D02*
X132185000Y-132089285D01*
X132613571Y-132839285D02*
X132292142Y-132410714D01*
X132613571Y-132089285D02*
X132185000Y-132517857D01*
%TO.C,R6*%
X124020001Y-84332286D02*
X123770001Y-83975143D01*
X123591429Y-84332286D02*
X123591429Y-83582286D01*
X123877143Y-83582286D01*
X123948572Y-83618001D01*
X123984286Y-83653715D01*
X124020001Y-83725143D01*
X124020001Y-83832286D01*
X123984286Y-83903715D01*
X123948572Y-83939429D01*
X123877143Y-83975143D01*
X123591429Y-83975143D01*
X124662858Y-83582286D02*
X124520001Y-83582286D01*
X124448572Y-83618001D01*
X124412858Y-83653715D01*
X124341429Y-83760858D01*
X124305715Y-83903715D01*
X124305715Y-84189429D01*
X124341429Y-84260858D01*
X124377143Y-84296572D01*
X124448572Y-84332286D01*
X124591429Y-84332286D01*
X124662858Y-84296572D01*
X124698572Y-84260858D01*
X124734286Y-84189429D01*
X124734286Y-84010858D01*
X124698572Y-83939429D01*
X124662858Y-83903715D01*
X124591429Y-83868001D01*
X124448572Y-83868001D01*
X124377143Y-83903715D01*
X124341429Y-83939429D01*
X124305715Y-84010858D01*
X122841429Y-85685715D02*
X122877143Y-85650001D01*
X122948572Y-85614286D01*
X123127143Y-85614286D01*
X123198572Y-85650001D01*
X123234286Y-85685715D01*
X123270001Y-85757143D01*
X123270001Y-85828572D01*
X123234286Y-85935715D01*
X122805715Y-86364286D01*
X123270001Y-86364286D01*
X123734286Y-85614286D02*
X123805715Y-85614286D01*
X123877143Y-85650001D01*
X123912858Y-85685715D01*
X123948572Y-85757143D01*
X123984286Y-85900001D01*
X123984286Y-86078572D01*
X123948572Y-86221429D01*
X123912858Y-86292858D01*
X123877143Y-86328572D01*
X123805715Y-86364286D01*
X123734286Y-86364286D01*
X123662858Y-86328572D01*
X123627143Y-86292858D01*
X123591429Y-86221429D01*
X123555715Y-86078572D01*
X123555715Y-85900001D01*
X123591429Y-85757143D01*
X123627143Y-85685715D01*
X123662858Y-85650001D01*
X123734286Y-85614286D01*
X124448572Y-85614286D02*
X124520001Y-85614286D01*
X124591429Y-85650001D01*
X124627143Y-85685715D01*
X124662858Y-85757143D01*
X124698572Y-85900001D01*
X124698572Y-86078572D01*
X124662858Y-86221429D01*
X124627143Y-86292858D01*
X124591429Y-86328572D01*
X124520001Y-86364286D01*
X124448572Y-86364286D01*
X124377143Y-86328572D01*
X124341429Y-86292858D01*
X124305715Y-86221429D01*
X124270001Y-86078572D01*
X124270001Y-85900001D01*
X124305715Y-85757143D01*
X124341429Y-85685715D01*
X124377143Y-85650001D01*
X124448572Y-85614286D01*
X125020001Y-86364286D02*
X125020001Y-85614286D01*
X125448572Y-86364286D02*
X125127143Y-85935715D01*
X125448572Y-85614286D02*
X125020001Y-86042858D01*
%TO.C,R7*%
X124170001Y-79932286D02*
X123920001Y-79575143D01*
X123741429Y-79932286D02*
X123741429Y-79182286D01*
X124027143Y-79182286D01*
X124098572Y-79218001D01*
X124134286Y-79253715D01*
X124170001Y-79325143D01*
X124170001Y-79432286D01*
X124134286Y-79503715D01*
X124098572Y-79539429D01*
X124027143Y-79575143D01*
X123741429Y-79575143D01*
X124420001Y-79182286D02*
X124920001Y-79182286D01*
X124598572Y-79932286D01*
X123420001Y-81964286D02*
X122991429Y-81964286D01*
X123205715Y-81964286D02*
X123205715Y-81214286D01*
X123134286Y-81321429D01*
X123062858Y-81392858D01*
X122991429Y-81428572D01*
X123884286Y-81214286D02*
X123955715Y-81214286D01*
X124027143Y-81250001D01*
X124062858Y-81285715D01*
X124098572Y-81357143D01*
X124134286Y-81500001D01*
X124134286Y-81678572D01*
X124098572Y-81821429D01*
X124062858Y-81892858D01*
X124027143Y-81928572D01*
X123955715Y-81964286D01*
X123884286Y-81964286D01*
X123812858Y-81928572D01*
X123777143Y-81892858D01*
X123741429Y-81821429D01*
X123705715Y-81678572D01*
X123705715Y-81500001D01*
X123741429Y-81357143D01*
X123777143Y-81285715D01*
X123812858Y-81250001D01*
X123884286Y-81214286D01*
X124598572Y-81214286D02*
X124670001Y-81214286D01*
X124741429Y-81250001D01*
X124777143Y-81285715D01*
X124812858Y-81357143D01*
X124848572Y-81500001D01*
X124848572Y-81678572D01*
X124812858Y-81821429D01*
X124777143Y-81892858D01*
X124741429Y-81928572D01*
X124670001Y-81964286D01*
X124598572Y-81964286D01*
X124527143Y-81928572D01*
X124491429Y-81892858D01*
X124455715Y-81821429D01*
X124420001Y-81678572D01*
X124420001Y-81500001D01*
X124455715Y-81357143D01*
X124491429Y-81285715D01*
X124527143Y-81250001D01*
X124598572Y-81214286D01*
X125170001Y-81964286D02*
X125170001Y-81214286D01*
X125598572Y-81964286D02*
X125277143Y-81535715D01*
X125598572Y-81214286D02*
X125170001Y-81642858D01*
%TO.C,R8*%
X124170001Y-75882286D02*
X123920001Y-75525143D01*
X123741429Y-75882286D02*
X123741429Y-75132286D01*
X124027143Y-75132286D01*
X124098572Y-75168001D01*
X124134286Y-75203715D01*
X124170001Y-75275143D01*
X124170001Y-75382286D01*
X124134286Y-75453715D01*
X124098572Y-75489429D01*
X124027143Y-75525143D01*
X123741429Y-75525143D01*
X124598572Y-75453715D02*
X124527143Y-75418001D01*
X124491429Y-75382286D01*
X124455715Y-75310858D01*
X124455715Y-75275143D01*
X124491429Y-75203715D01*
X124527143Y-75168001D01*
X124598572Y-75132286D01*
X124741429Y-75132286D01*
X124812858Y-75168001D01*
X124848572Y-75203715D01*
X124884286Y-75275143D01*
X124884286Y-75310858D01*
X124848572Y-75382286D01*
X124812858Y-75418001D01*
X124741429Y-75453715D01*
X124598572Y-75453715D01*
X124527143Y-75489429D01*
X124491429Y-75525143D01*
X124455715Y-75596572D01*
X124455715Y-75739429D01*
X124491429Y-75810858D01*
X124527143Y-75846572D01*
X124598572Y-75882286D01*
X124741429Y-75882286D01*
X124812858Y-75846572D01*
X124848572Y-75810858D01*
X124884286Y-75739429D01*
X124884286Y-75596572D01*
X124848572Y-75525143D01*
X124812858Y-75489429D01*
X124741429Y-75453715D01*
X122991429Y-77235715D02*
X123027143Y-77200001D01*
X123098572Y-77164286D01*
X123277143Y-77164286D01*
X123348572Y-77200001D01*
X123384286Y-77235715D01*
X123420001Y-77307143D01*
X123420001Y-77378572D01*
X123384286Y-77485715D01*
X122955715Y-77914286D01*
X123420001Y-77914286D01*
X123884286Y-77164286D02*
X123955715Y-77164286D01*
X124027143Y-77200001D01*
X124062858Y-77235715D01*
X124098572Y-77307143D01*
X124134286Y-77450001D01*
X124134286Y-77628572D01*
X124098572Y-77771429D01*
X124062858Y-77842858D01*
X124027143Y-77878572D01*
X123955715Y-77914286D01*
X123884286Y-77914286D01*
X123812858Y-77878572D01*
X123777143Y-77842858D01*
X123741429Y-77771429D01*
X123705715Y-77628572D01*
X123705715Y-77450001D01*
X123741429Y-77307143D01*
X123777143Y-77235715D01*
X123812858Y-77200001D01*
X123884286Y-77164286D01*
X124598572Y-77164286D02*
X124670001Y-77164286D01*
X124741429Y-77200001D01*
X124777143Y-77235715D01*
X124812858Y-77307143D01*
X124848572Y-77450001D01*
X124848572Y-77628572D01*
X124812858Y-77771429D01*
X124777143Y-77842858D01*
X124741429Y-77878572D01*
X124670001Y-77914286D01*
X124598572Y-77914286D01*
X124527143Y-77878572D01*
X124491429Y-77842858D01*
X124455715Y-77771429D01*
X124420001Y-77628572D01*
X124420001Y-77450001D01*
X124455715Y-77307143D01*
X124491429Y-77235715D01*
X124527143Y-77200001D01*
X124598572Y-77164286D01*
X125170001Y-77914286D02*
X125170001Y-77164286D01*
X125598572Y-77914286D02*
X125277143Y-77485715D01*
X125598572Y-77164286D02*
X125170001Y-77592858D01*
%TO.C,R9*%
X108685000Y-75807285D02*
X108435000Y-75450142D01*
X108256428Y-75807285D02*
X108256428Y-75057285D01*
X108542142Y-75057285D01*
X108613571Y-75093000D01*
X108649285Y-75128714D01*
X108685000Y-75200142D01*
X108685000Y-75307285D01*
X108649285Y-75378714D01*
X108613571Y-75414428D01*
X108542142Y-75450142D01*
X108256428Y-75450142D01*
X109042142Y-75807285D02*
X109185000Y-75807285D01*
X109256428Y-75771571D01*
X109292142Y-75735857D01*
X109363571Y-75628714D01*
X109399285Y-75485857D01*
X109399285Y-75200142D01*
X109363571Y-75128714D01*
X109327857Y-75093000D01*
X109256428Y-75057285D01*
X109113571Y-75057285D01*
X109042142Y-75093000D01*
X109006428Y-75128714D01*
X108970714Y-75200142D01*
X108970714Y-75378714D01*
X109006428Y-75450142D01*
X109042142Y-75485857D01*
X109113571Y-75521571D01*
X109256428Y-75521571D01*
X109327857Y-75485857D01*
X109363571Y-75450142D01*
X109399285Y-75378714D01*
X107935000Y-77839285D02*
X107506428Y-77839285D01*
X107720714Y-77839285D02*
X107720714Y-77089285D01*
X107649285Y-77196428D01*
X107577857Y-77267857D01*
X107506428Y-77303571D01*
X108399285Y-77089285D02*
X108470714Y-77089285D01*
X108542142Y-77125000D01*
X108577857Y-77160714D01*
X108613571Y-77232142D01*
X108649285Y-77375000D01*
X108649285Y-77553571D01*
X108613571Y-77696428D01*
X108577857Y-77767857D01*
X108542142Y-77803571D01*
X108470714Y-77839285D01*
X108399285Y-77839285D01*
X108327857Y-77803571D01*
X108292142Y-77767857D01*
X108256428Y-77696428D01*
X108220714Y-77553571D01*
X108220714Y-77375000D01*
X108256428Y-77232142D01*
X108292142Y-77160714D01*
X108327857Y-77125000D01*
X108399285Y-77089285D01*
X109113571Y-77089285D02*
X109185000Y-77089285D01*
X109256428Y-77125000D01*
X109292142Y-77160714D01*
X109327857Y-77232142D01*
X109363571Y-77375000D01*
X109363571Y-77553571D01*
X109327857Y-77696428D01*
X109292142Y-77767857D01*
X109256428Y-77803571D01*
X109185000Y-77839285D01*
X109113571Y-77839285D01*
X109042142Y-77803571D01*
X109006428Y-77767857D01*
X108970714Y-77696428D01*
X108935000Y-77553571D01*
X108935000Y-77375000D01*
X108970714Y-77232142D01*
X109006428Y-77160714D01*
X109042142Y-77125000D01*
X109113571Y-77089285D01*
X109685000Y-77839285D02*
X109685000Y-77089285D01*
X110113571Y-77839285D02*
X109792142Y-77410714D01*
X110113571Y-77089285D02*
X109685000Y-77517857D01*
%TO.C,R10*%
X138827857Y-93807285D02*
X138577857Y-93450142D01*
X138399285Y-93807285D02*
X138399285Y-93057285D01*
X138685000Y-93057285D01*
X138756428Y-93093000D01*
X138792142Y-93128714D01*
X138827857Y-93200142D01*
X138827857Y-93307285D01*
X138792142Y-93378714D01*
X138756428Y-93414428D01*
X138685000Y-93450142D01*
X138399285Y-93450142D01*
X139542142Y-93807285D02*
X139113571Y-93807285D01*
X139327857Y-93807285D02*
X139327857Y-93057285D01*
X139256428Y-93164428D01*
X139185000Y-93235857D01*
X139113571Y-93271571D01*
X140006428Y-93057285D02*
X140077857Y-93057285D01*
X140149285Y-93093000D01*
X140185000Y-93128714D01*
X140220714Y-93200142D01*
X140256428Y-93343000D01*
X140256428Y-93521571D01*
X140220714Y-93664428D01*
X140185000Y-93735857D01*
X140149285Y-93771571D01*
X140077857Y-93807285D01*
X140006428Y-93807285D01*
X139935000Y-93771571D01*
X139899285Y-93735857D01*
X139863571Y-93664428D01*
X139827857Y-93521571D01*
X139827857Y-93343000D01*
X139863571Y-93200142D01*
X139899285Y-93128714D01*
X139935000Y-93093000D01*
X140006428Y-93057285D01*
X138435000Y-95839285D02*
X138006428Y-95839285D01*
X138220714Y-95839285D02*
X138220714Y-95089285D01*
X138149285Y-95196428D01*
X138077857Y-95267857D01*
X138006428Y-95303571D01*
X138899285Y-95089285D02*
X138970714Y-95089285D01*
X139042142Y-95125000D01*
X139077857Y-95160714D01*
X139113571Y-95232142D01*
X139149285Y-95375000D01*
X139149285Y-95553571D01*
X139113571Y-95696428D01*
X139077857Y-95767857D01*
X139042142Y-95803571D01*
X138970714Y-95839285D01*
X138899285Y-95839285D01*
X138827857Y-95803571D01*
X138792142Y-95767857D01*
X138756428Y-95696428D01*
X138720714Y-95553571D01*
X138720714Y-95375000D01*
X138756428Y-95232142D01*
X138792142Y-95160714D01*
X138827857Y-95125000D01*
X138899285Y-95089285D01*
X139613571Y-95089285D02*
X139685000Y-95089285D01*
X139756428Y-95125000D01*
X139792142Y-95160714D01*
X139827857Y-95232142D01*
X139863571Y-95375000D01*
X139863571Y-95553571D01*
X139827857Y-95696428D01*
X139792142Y-95767857D01*
X139756428Y-95803571D01*
X139685000Y-95839285D01*
X139613571Y-95839285D01*
X139542142Y-95803571D01*
X139506428Y-95767857D01*
X139470714Y-95696428D01*
X139435000Y-95553571D01*
X139435000Y-95375000D01*
X139470714Y-95232142D01*
X139506428Y-95160714D01*
X139542142Y-95125000D01*
X139613571Y-95089285D01*
X140185000Y-95839285D02*
X140185000Y-95089285D01*
X140613571Y-95839285D02*
X140292142Y-95410714D01*
X140613571Y-95089285D02*
X140185000Y-95517857D01*
%TO.C,R11*%
X119327857Y-130807285D02*
X119077857Y-130450142D01*
X118899285Y-130807285D02*
X118899285Y-130057285D01*
X119185000Y-130057285D01*
X119256428Y-130093000D01*
X119292142Y-130128714D01*
X119327857Y-130200142D01*
X119327857Y-130307285D01*
X119292142Y-130378714D01*
X119256428Y-130414428D01*
X119185000Y-130450142D01*
X118899285Y-130450142D01*
X120042142Y-130807285D02*
X119613571Y-130807285D01*
X119827857Y-130807285D02*
X119827857Y-130057285D01*
X119756428Y-130164428D01*
X119685000Y-130235857D01*
X119613571Y-130271571D01*
X120756428Y-130807285D02*
X120327857Y-130807285D01*
X120542142Y-130807285D02*
X120542142Y-130057285D01*
X120470714Y-130164428D01*
X120399285Y-130235857D01*
X120327857Y-130271571D01*
X118935000Y-132839285D02*
X118506428Y-132839285D01*
X118720714Y-132839285D02*
X118720714Y-132089285D01*
X118649285Y-132196428D01*
X118577857Y-132267857D01*
X118506428Y-132303571D01*
X119399285Y-132089285D02*
X119470714Y-132089285D01*
X119542142Y-132125000D01*
X119577857Y-132160714D01*
X119613571Y-132232142D01*
X119649285Y-132375000D01*
X119649285Y-132553571D01*
X119613571Y-132696428D01*
X119577857Y-132767857D01*
X119542142Y-132803571D01*
X119470714Y-132839285D01*
X119399285Y-132839285D01*
X119327857Y-132803571D01*
X119292142Y-132767857D01*
X119256428Y-132696428D01*
X119220714Y-132553571D01*
X119220714Y-132375000D01*
X119256428Y-132232142D01*
X119292142Y-132160714D01*
X119327857Y-132125000D01*
X119399285Y-132089285D01*
X120113571Y-132089285D02*
X120185000Y-132089285D01*
X120256428Y-132125000D01*
X120292142Y-132160714D01*
X120327857Y-132232142D01*
X120363571Y-132375000D01*
X120363571Y-132553571D01*
X120327857Y-132696428D01*
X120292142Y-132767857D01*
X120256428Y-132803571D01*
X120185000Y-132839285D01*
X120113571Y-132839285D01*
X120042142Y-132803571D01*
X120006428Y-132767857D01*
X119970714Y-132696428D01*
X119935000Y-132553571D01*
X119935000Y-132375000D01*
X119970714Y-132232142D01*
X120006428Y-132160714D01*
X120042142Y-132125000D01*
X120113571Y-132089285D01*
X120685000Y-132839285D02*
X120685000Y-132089285D01*
X121113571Y-132839285D02*
X120792142Y-132410714D01*
X121113571Y-132089285D02*
X120685000Y-132517857D01*
%TO.C,R12*%
X138827857Y-89307285D02*
X138577857Y-88950142D01*
X138399285Y-89307285D02*
X138399285Y-88557285D01*
X138685000Y-88557285D01*
X138756428Y-88593000D01*
X138792142Y-88628714D01*
X138827857Y-88700142D01*
X138827857Y-88807285D01*
X138792142Y-88878714D01*
X138756428Y-88914428D01*
X138685000Y-88950142D01*
X138399285Y-88950142D01*
X139542142Y-89307285D02*
X139113571Y-89307285D01*
X139327857Y-89307285D02*
X139327857Y-88557285D01*
X139256428Y-88664428D01*
X139185000Y-88735857D01*
X139113571Y-88771571D01*
X139827857Y-88628714D02*
X139863571Y-88593000D01*
X139935000Y-88557285D01*
X140113571Y-88557285D01*
X140185000Y-88593000D01*
X140220714Y-88628714D01*
X140256428Y-88700142D01*
X140256428Y-88771571D01*
X140220714Y-88878714D01*
X139792142Y-89307285D01*
X140256428Y-89307285D01*
X138006428Y-90660714D02*
X138042142Y-90625000D01*
X138113571Y-90589285D01*
X138292142Y-90589285D01*
X138363571Y-90625000D01*
X138399285Y-90660714D01*
X138435000Y-90732142D01*
X138435000Y-90803571D01*
X138399285Y-90910714D01*
X137970714Y-91339285D01*
X138435000Y-91339285D01*
X138899285Y-90589285D02*
X138970714Y-90589285D01*
X139042142Y-90625000D01*
X139077857Y-90660714D01*
X139113571Y-90732142D01*
X139149285Y-90875000D01*
X139149285Y-91053571D01*
X139113571Y-91196428D01*
X139077857Y-91267857D01*
X139042142Y-91303571D01*
X138970714Y-91339285D01*
X138899285Y-91339285D01*
X138827857Y-91303571D01*
X138792142Y-91267857D01*
X138756428Y-91196428D01*
X138720714Y-91053571D01*
X138720714Y-90875000D01*
X138756428Y-90732142D01*
X138792142Y-90660714D01*
X138827857Y-90625000D01*
X138899285Y-90589285D01*
X139613571Y-90589285D02*
X139685000Y-90589285D01*
X139756428Y-90625000D01*
X139792142Y-90660714D01*
X139827857Y-90732142D01*
X139863571Y-90875000D01*
X139863571Y-91053571D01*
X139827857Y-91196428D01*
X139792142Y-91267857D01*
X139756428Y-91303571D01*
X139685000Y-91339285D01*
X139613571Y-91339285D01*
X139542142Y-91303571D01*
X139506428Y-91267857D01*
X139470714Y-91196428D01*
X139435000Y-91053571D01*
X139435000Y-90875000D01*
X139470714Y-90732142D01*
X139506428Y-90660714D01*
X139542142Y-90625000D01*
X139613571Y-90589285D01*
X140185000Y-91339285D02*
X140185000Y-90589285D01*
X140613571Y-91339285D02*
X140292142Y-90910714D01*
X140613571Y-90589285D02*
X140185000Y-91017857D01*
%TO.C,R13*%
X108327857Y-93807285D02*
X108077857Y-93450142D01*
X107899285Y-93807285D02*
X107899285Y-93057285D01*
X108185000Y-93057285D01*
X108256428Y-93093000D01*
X108292142Y-93128714D01*
X108327857Y-93200142D01*
X108327857Y-93307285D01*
X108292142Y-93378714D01*
X108256428Y-93414428D01*
X108185000Y-93450142D01*
X107899285Y-93450142D01*
X109042142Y-93807285D02*
X108613571Y-93807285D01*
X108827857Y-93807285D02*
X108827857Y-93057285D01*
X108756428Y-93164428D01*
X108685000Y-93235857D01*
X108613571Y-93271571D01*
X109292142Y-93057285D02*
X109756428Y-93057285D01*
X109506428Y-93343000D01*
X109613571Y-93343000D01*
X109685000Y-93378714D01*
X109720714Y-93414428D01*
X109756428Y-93485857D01*
X109756428Y-93664428D01*
X109720714Y-93735857D01*
X109685000Y-93771571D01*
X109613571Y-93807285D01*
X109399285Y-93807285D01*
X109327857Y-93771571D01*
X109292142Y-93735857D01*
X108649285Y-95839285D02*
X108220714Y-95839285D01*
X108435000Y-95839285D02*
X108435000Y-95089285D01*
X108363571Y-95196428D01*
X108292142Y-95267857D01*
X108220714Y-95303571D01*
X108970714Y-95839285D02*
X108970714Y-95089285D01*
X109399285Y-95839285D02*
X109077857Y-95410714D01*
X109399285Y-95089285D02*
X108970714Y-95517857D01*
%TO.C,R14*%
X108327857Y-80307285D02*
X108077857Y-79950142D01*
X107899285Y-80307285D02*
X107899285Y-79557285D01*
X108185000Y-79557285D01*
X108256428Y-79593000D01*
X108292142Y-79628714D01*
X108327857Y-79700142D01*
X108327857Y-79807285D01*
X108292142Y-79878714D01*
X108256428Y-79914428D01*
X108185000Y-79950142D01*
X107899285Y-79950142D01*
X109042142Y-80307285D02*
X108613571Y-80307285D01*
X108827857Y-80307285D02*
X108827857Y-79557285D01*
X108756428Y-79664428D01*
X108685000Y-79735857D01*
X108613571Y-79771571D01*
X109685000Y-79807285D02*
X109685000Y-80307285D01*
X109506428Y-79521571D02*
X109327857Y-80057285D01*
X109792142Y-80057285D01*
X107506428Y-81660714D02*
X107542142Y-81625000D01*
X107613571Y-81589285D01*
X107792142Y-81589285D01*
X107863571Y-81625000D01*
X107899285Y-81660714D01*
X107935000Y-81732142D01*
X107935000Y-81803571D01*
X107899285Y-81910714D01*
X107470714Y-82339285D01*
X107935000Y-82339285D01*
X108399285Y-81589285D02*
X108470714Y-81589285D01*
X108542142Y-81625000D01*
X108577857Y-81660714D01*
X108613571Y-81732142D01*
X108649285Y-81875000D01*
X108649285Y-82053571D01*
X108613571Y-82196428D01*
X108577857Y-82267857D01*
X108542142Y-82303571D01*
X108470714Y-82339285D01*
X108399285Y-82339285D01*
X108327857Y-82303571D01*
X108292142Y-82267857D01*
X108256428Y-82196428D01*
X108220714Y-82053571D01*
X108220714Y-81875000D01*
X108256428Y-81732142D01*
X108292142Y-81660714D01*
X108327857Y-81625000D01*
X108399285Y-81589285D01*
X109113571Y-81589285D02*
X109185000Y-81589285D01*
X109256428Y-81625000D01*
X109292142Y-81660714D01*
X109327857Y-81732142D01*
X109363571Y-81875000D01*
X109363571Y-82053571D01*
X109327857Y-82196428D01*
X109292142Y-82267857D01*
X109256428Y-82303571D01*
X109185000Y-82339285D01*
X109113571Y-82339285D01*
X109042142Y-82303571D01*
X109006428Y-82267857D01*
X108970714Y-82196428D01*
X108935000Y-82053571D01*
X108935000Y-81875000D01*
X108970714Y-81732142D01*
X109006428Y-81660714D01*
X109042142Y-81625000D01*
X109113571Y-81589285D01*
X109685000Y-82339285D02*
X109685000Y-81589285D01*
X110113571Y-82339285D02*
X109792142Y-81910714D01*
X110113571Y-81589285D02*
X109685000Y-82017857D01*
%TO.C,U1*%
X108238571Y-103259285D02*
X108238571Y-103866428D01*
X108274285Y-103937857D01*
X108310000Y-103973571D01*
X108381428Y-104009285D01*
X108524285Y-104009285D01*
X108595714Y-103973571D01*
X108631428Y-103937857D01*
X108667142Y-103866428D01*
X108667142Y-103259285D01*
X109417142Y-104009285D02*
X108988571Y-104009285D01*
X109202857Y-104009285D02*
X109202857Y-103259285D01*
X109131428Y-103366428D01*
X109060000Y-103437857D01*
X108988571Y-103473571D01*
X108399285Y-115209285D02*
X108399285Y-114780714D01*
X109149285Y-114995000D02*
X108399285Y-114995000D01*
X109149285Y-114173571D02*
X109149285Y-114530714D01*
X108399285Y-114530714D01*
X108399285Y-113780714D02*
X108399285Y-113709285D01*
X108435000Y-113637857D01*
X108470714Y-113602142D01*
X108542142Y-113566428D01*
X108685000Y-113530714D01*
X108863571Y-113530714D01*
X109006428Y-113566428D01*
X109077857Y-113602142D01*
X109113571Y-113637857D01*
X109149285Y-113709285D01*
X109149285Y-113780714D01*
X109113571Y-113852142D01*
X109077857Y-113887857D01*
X109006428Y-113923571D01*
X108863571Y-113959285D01*
X108685000Y-113959285D01*
X108542142Y-113923571D01*
X108470714Y-113887857D01*
X108435000Y-113852142D01*
X108399285Y-113780714D01*
X108399285Y-113280714D02*
X108399285Y-112780714D01*
X109149285Y-113102142D01*
X108649285Y-112173571D02*
X109149285Y-112173571D01*
X108363571Y-112352142D02*
X108899285Y-112530714D01*
X108899285Y-112066428D01*
%TD*%
M02*
