%TF.GenerationSoftware,KiCad,Pcbnew,(5.1.8-0-10_14)*%
%TF.CreationDate,2021-07-07T10:12:16-04:00*%
%TF.ProjectId,fwr,6677722e-6b69-4636-9164-5f7063625858,rev?*%
%TF.SameCoordinates,Original*%
%TF.FileFunction,Copper,L2,Bot*%
%TF.FilePolarity,Positive*%
%FSLAX46Y46*%
G04 Gerber Fmt 4.6, Leading zero omitted, Abs format (unit mm)*
G04 Created by KiCad (PCBNEW (5.1.8-0-10_14)) date 2021-07-07 10:12:16*
%MOMM*%
%LPD*%
G01*
G04 APERTURE LIST*
%TA.AperFunction,ComponentPad*%
%ADD10O,1.740000X2.200000*%
%TD*%
%TA.AperFunction,ComponentPad*%
%ADD11C,1.600000*%
%TD*%
%TA.AperFunction,ComponentPad*%
%ADD12R,1.600000X1.600000*%
%TD*%
%TA.AperFunction,ComponentPad*%
%ADD13O,1.600000X1.600000*%
%TD*%
%TA.AperFunction,ComponentPad*%
%ADD14O,2.200000X2.200000*%
%TD*%
%TA.AperFunction,ComponentPad*%
%ADD15R,2.200000X2.200000*%
%TD*%
%TA.AperFunction,ComponentPad*%
%ADD16R,1.727200X1.727200*%
%TD*%
%TA.AperFunction,ComponentPad*%
%ADD17O,1.727200X1.727200*%
%TD*%
%TA.AperFunction,ComponentPad*%
%ADD18R,2.400000X1.600000*%
%TD*%
%TA.AperFunction,ComponentPad*%
%ADD19O,2.400000X1.600000*%
%TD*%
%TA.AperFunction,Conductor*%
%ADD20C,0.250000*%
%TD*%
G04 APERTURE END LIST*
%TO.P,Bias,1*%
%TO.N,-12V*%
%TA.AperFunction,ComponentPad*%
G36*
G01*
X105630000Y-56850001D02*
X105630000Y-55149999D01*
G75*
G02*
X105879999Y-54900000I249999J0D01*
G01*
X107120001Y-54900000D01*
G75*
G02*
X107370000Y-55149999I0J-249999D01*
G01*
X107370000Y-56850001D01*
G75*
G02*
X107120001Y-57100000I-249999J0D01*
G01*
X105879999Y-57100000D01*
G75*
G02*
X105630000Y-56850001I0J249999D01*
G01*
G37*
%TD.AperFunction*%
D10*
%TO.P,Bias,2*%
%TO.N,Net-(Bias1-Pad2)*%
X109040000Y-56000000D03*
%TO.P,Bias,3*%
%TO.N,+12V*%
X111580000Y-56000000D03*
%TD*%
D11*
%TO.P,C1,2*%
%TO.N,Net-(C1-Pad2)*%
X142000000Y-82000000D03*
%TO.P,C1,1*%
%TO.N,Net-(C1-Pad1)*%
X137000000Y-82000000D03*
%TD*%
%TO.P,C2,1*%
%TO.N,-12V*%
X118500000Y-119500000D03*
%TO.P,C2,2*%
%TO.N,+12V*%
X121000000Y-119500000D03*
%TD*%
%TO.P,C3,2*%
%TO.N,-12V*%
X121000000Y-123000000D03*
%TO.P,C3,1*%
X118500000Y-123000000D03*
%TD*%
%TO.P,C4,1*%
%TO.N,Net-(C4-Pad1)*%
X137000000Y-77000000D03*
%TO.P,C4,2*%
%TO.N,Net-(C4-Pad2)*%
X142000000Y-77000000D03*
%TD*%
%TO.P,C5,2*%
%TO.N,-12V*%
X131500000Y-124000000D03*
D12*
%TO.P,C5,1*%
%TO.N,+12V*%
X129500000Y-124000000D03*
%TD*%
%TO.P,C6,1*%
%TO.N,-12V*%
X129500000Y-103000000D03*
D11*
%TO.P,C6,2*%
X131500000Y-103000000D03*
%TD*%
D10*
%TO.P,CV_Amount,3*%
%TO.N,Net-(CV_Amount1-Pad3)*%
X126080000Y-56000000D03*
%TO.P,CV_Amount,2*%
%TO.N,Net-(CV_Amount1-Pad2)*%
X123540000Y-56000000D03*
%TO.P,CV_Amount,1*%
%TO.N,-12V*%
%TA.AperFunction,ComponentPad*%
G36*
G01*
X120130000Y-56850001D02*
X120130000Y-55149999D01*
G75*
G02*
X120379999Y-54900000I249999J0D01*
G01*
X121620001Y-54900000D01*
G75*
G02*
X121870000Y-55149999I0J-249999D01*
G01*
X121870000Y-56850001D01*
G75*
G02*
X121620001Y-57100000I-249999J0D01*
G01*
X120379999Y-57100000D01*
G75*
G02*
X120130000Y-56850001I0J249999D01*
G01*
G37*
%TD.AperFunction*%
%TD*%
D12*
%TO.P,1N4148,1*%
%TO.N,Net-(D1-Pad1)*%
X127500000Y-137500000D03*
D13*
%TO.P,1N4148,2*%
%TO.N,Net-(D1-Pad2)*%
X135120000Y-137500000D03*
%TD*%
%TO.P,1N4148,2*%
%TO.N,Net-(D1-Pad1)*%
X123620000Y-137500000D03*
D12*
%TO.P,1N4148,1*%
%TO.N,Net-(D2-Pad1)*%
X116000000Y-137500000D03*
%TD*%
D14*
%TO.P,1N4733,2*%
%TO.N,Net-(D3-Pad2)*%
X128660000Y-65000000D03*
D15*
%TO.P,1N4733,1*%
%TO.N,Net-(D3-Pad1)*%
X118500000Y-65000000D03*
%TD*%
%TO.P,1N4733,1*%
%TO.N,Net-(D3-Pad1)*%
X118500000Y-70000000D03*
D14*
%TO.P,1N4733,2*%
%TO.N,Net-(D4-Pad2)*%
X128660000Y-70000000D03*
%TD*%
D11*
%TO.P,FB1,1*%
%TO.N,-12V*%
X124500000Y-115000000D03*
D13*
%TO.P,FB1,2*%
%TO.N,Net-(FB1-Pad2)*%
X132120000Y-115000000D03*
%TD*%
%TO.P,FB2,2*%
%TO.N,Net-(FB2-Pad2)*%
X132120000Y-110500000D03*
D11*
%TO.P,FB2,1*%
%TO.N,+12V*%
X124500000Y-110500000D03*
%TD*%
%TO.P,Feedback,1*%
%TO.N,-12V*%
%TA.AperFunction,ComponentPad*%
G36*
G01*
X134630000Y-56850001D02*
X134630000Y-55149999D01*
G75*
G02*
X134879999Y-54900000I249999J0D01*
G01*
X136120001Y-54900000D01*
G75*
G02*
X136370000Y-55149999I0J-249999D01*
G01*
X136370000Y-56850001D01*
G75*
G02*
X136120001Y-57100000I-249999J0D01*
G01*
X134879999Y-57100000D01*
G75*
G02*
X134630000Y-56850001I0J249999D01*
G01*
G37*
%TD.AperFunction*%
D10*
%TO.P,Feedback,2*%
%TO.N,Net-(C1-Pad2)*%
X138040000Y-56000000D03*
%TO.P,Feedback,3*%
%TO.N,Net-(Feedback1-Pad3)*%
X140580000Y-56000000D03*
%TD*%
%TO.P,J1,2*%
%TO.N,-12V*%
X110540000Y-66500000D03*
%TO.P,J1,1*%
%TO.N,Net-(CV_Amount1-Pad3)*%
%TA.AperFunction,ComponentPad*%
G36*
G01*
X107130000Y-67350001D02*
X107130000Y-65649999D01*
G75*
G02*
X107379999Y-65400000I249999J0D01*
G01*
X108620001Y-65400000D01*
G75*
G02*
X108870000Y-65649999I0J-249999D01*
G01*
X108870000Y-67350001D01*
G75*
G02*
X108620001Y-67600000I-249999J0D01*
G01*
X107379999Y-67600000D01*
G75*
G02*
X107130000Y-67350001I0J249999D01*
G01*
G37*
%TD.AperFunction*%
%TD*%
%TO.P,J2,1*%
%TO.N,Net-(C1-Pad2)*%
%TA.AperFunction,ComponentPad*%
G36*
G01*
X135630000Y-67350001D02*
X135630000Y-65649999D01*
G75*
G02*
X135879999Y-65400000I249999J0D01*
G01*
X137120001Y-65400000D01*
G75*
G02*
X137370000Y-65649999I0J-249999D01*
G01*
X137370000Y-67350001D01*
G75*
G02*
X137120001Y-67600000I-249999J0D01*
G01*
X135879999Y-67600000D01*
G75*
G02*
X135630000Y-67350001I0J249999D01*
G01*
G37*
%TD.AperFunction*%
%TO.P,J2,2*%
%TO.N,-12V*%
X139040000Y-66500000D03*
%TD*%
D16*
%TO.P,J3,1*%
%TO.N,Net-(FB1-Pad2)*%
X138500000Y-108500000D03*
D17*
%TO.P,J3,2*%
X141040000Y-108500000D03*
%TO.P,J3,3*%
%TO.N,-12V*%
X138500000Y-111040000D03*
%TO.P,J3,4*%
X141040000Y-111040000D03*
%TO.P,J3,5*%
X138500000Y-113580000D03*
%TO.P,J3,6*%
X141040000Y-113580000D03*
%TO.P,J3,7*%
X138500000Y-116120000D03*
%TO.P,J3,8*%
X141040000Y-116120000D03*
%TO.P,J3,9*%
%TO.N,Net-(FB2-Pad2)*%
X138500000Y-118660000D03*
%TO.P,J3,10*%
X141040000Y-118660000D03*
%TD*%
%TO.P,J4,1*%
%TO.N,Net-(Feedback1-Pad3)*%
%TA.AperFunction,ComponentPad*%
G36*
G01*
X105630000Y-143850001D02*
X105630000Y-142149999D01*
G75*
G02*
X105879999Y-141900000I249999J0D01*
G01*
X107120001Y-141900000D01*
G75*
G02*
X107370000Y-142149999I0J-249999D01*
G01*
X107370000Y-143850001D01*
G75*
G02*
X107120001Y-144100000I-249999J0D01*
G01*
X105879999Y-144100000D01*
G75*
G02*
X105630000Y-143850001I0J249999D01*
G01*
G37*
%TD.AperFunction*%
D10*
%TO.P,J4,2*%
%TO.N,-12V*%
X109040000Y-143000000D03*
%TD*%
D13*
%TO.P,R1,2*%
%TO.N,Net-(C1-Pad2)*%
X143120000Y-86500000D03*
D11*
%TO.P,R1,1*%
%TO.N,-12V*%
X135500000Y-86500000D03*
%TD*%
%TO.P,R2,1*%
%TO.N,Net-(R2-Pad1)*%
X105000000Y-91000000D03*
D13*
%TO.P,R2,2*%
%TO.N,Net-(Bias1-Pad2)*%
X112620000Y-91000000D03*
%TD*%
D11*
%TO.P,R3,1*%
%TO.N,Net-(R2-Pad1)*%
X105000000Y-86500000D03*
D13*
%TO.P,R3,2*%
%TO.N,Net-(CV_Amount1-Pad2)*%
X112620000Y-86500000D03*
%TD*%
%TO.P,R4,2*%
%TO.N,Net-(C1-Pad1)*%
X127955001Y-90075001D03*
D11*
%TO.P,R4,1*%
%TO.N,Net-(R2-Pad1)*%
X120335001Y-90075001D03*
%TD*%
D13*
%TO.P,R5,2*%
%TO.N,Net-(D2-Pad1)*%
X135120000Y-132500000D03*
D11*
%TO.P,R5,1*%
%TO.N,Net-(R5-Pad1)*%
X127500000Y-132500000D03*
%TD*%
%TO.P,R6,1*%
%TO.N,Net-(R5-Pad1)*%
X120335001Y-86025001D03*
D13*
%TO.P,R6,2*%
%TO.N,Net-(R6-Pad2)*%
X127955001Y-86025001D03*
%TD*%
D11*
%TO.P,R7,1*%
%TO.N,Net-(R6-Pad2)*%
X120485001Y-81625001D03*
D13*
%TO.P,R7,2*%
%TO.N,Net-(R2-Pad1)*%
X128105001Y-81625001D03*
%TD*%
%TO.P,R8,2*%
%TO.N,Net-(R5-Pad1)*%
X128105001Y-77575001D03*
D11*
%TO.P,R8,1*%
%TO.N,Net-(C4-Pad2)*%
X120485001Y-77575001D03*
%TD*%
D13*
%TO.P,R9,2*%
%TO.N,Net-(R6-Pad2)*%
X112620000Y-77500000D03*
D11*
%TO.P,R9,1*%
%TO.N,Net-(D1-Pad2)*%
X105000000Y-77500000D03*
%TD*%
%TO.P,R10,1*%
%TO.N,Net-(D3-Pad2)*%
X135500000Y-95500000D03*
D13*
%TO.P,R10,2*%
%TO.N,Net-(C4-Pad1)*%
X143120000Y-95500000D03*
%TD*%
D11*
%TO.P,R11,1*%
%TO.N,Net-(D2-Pad1)*%
X116000000Y-132500000D03*
D13*
%TO.P,R11,2*%
%TO.N,Net-(D1-Pad2)*%
X123620000Y-132500000D03*
%TD*%
D11*
%TO.P,R12,1*%
%TO.N,Net-(R12-Pad1)*%
X135500000Y-91000000D03*
D13*
%TO.P,R12,2*%
%TO.N,Net-(D3-Pad2)*%
X143120000Y-91000000D03*
%TD*%
%TO.P,R13,2*%
%TO.N,Net-(R12-Pad1)*%
X112620000Y-95500000D03*
D11*
%TO.P,R13,1*%
%TO.N,Net-(Feedback1-Pad3)*%
X105000000Y-95500000D03*
%TD*%
D13*
%TO.P,R14,2*%
%TO.N,Net-(D4-Pad2)*%
X112620000Y-82000000D03*
D11*
%TO.P,R14,1*%
%TO.N,Net-(R12-Pad1)*%
X105000000Y-82000000D03*
%TD*%
D18*
%TO.P,U1,1*%
%TO.N,Net-(R6-Pad2)*%
X105000000Y-106000000D03*
D19*
%TO.P,U1,8*%
%TO.N,Net-(C4-Pad2)*%
X112620000Y-121240000D03*
%TO.P,U1,2*%
%TO.N,Net-(R2-Pad1)*%
X105000000Y-108540000D03*
%TO.P,U1,9*%
%TO.N,Net-(R5-Pad1)*%
X112620000Y-118700000D03*
%TO.P,U1,3*%
%TO.N,-12V*%
X105000000Y-111080000D03*
%TO.P,U1,10*%
X112620000Y-116160000D03*
%TO.P,U1,4*%
%TO.N,+12V*%
X105000000Y-113620000D03*
%TO.P,U1,11*%
%TO.N,-12V*%
X112620000Y-113620000D03*
%TO.P,U1,5*%
X105000000Y-116160000D03*
%TO.P,U1,12*%
X112620000Y-111080000D03*
%TO.P,U1,6*%
%TO.N,Net-(D1-Pad2)*%
X105000000Y-118700000D03*
%TO.P,U1,13*%
%TO.N,Net-(D3-Pad2)*%
X112620000Y-108540000D03*
%TO.P,U1,7*%
%TO.N,Net-(D1-Pad1)*%
X105000000Y-121240000D03*
%TO.P,U1,14*%
%TO.N,Net-(R12-Pad1)*%
X112620000Y-106000000D03*
%TD*%
D20*
%TO.N,+12V*%
X125500000Y-124000000D02*
X121000000Y-119500000D01*
X129500000Y-124000000D02*
X125500000Y-124000000D01*
X121000000Y-114000000D02*
X124500000Y-110500000D01*
X121000000Y-119500000D02*
X121000000Y-114000000D01*
X120254990Y-114745010D02*
X124500000Y-110500000D01*
X106125010Y-114745010D02*
X120254990Y-114745010D01*
X105000000Y-113620000D02*
X106125010Y-114745010D01*
%TO.N,-12V*%
X115960000Y-119500000D02*
X112620000Y-116160000D01*
X118500000Y-119500000D02*
X115960000Y-119500000D01*
X112620000Y-116160000D02*
X105000000Y-116160000D01*
X112620000Y-111080000D02*
X105000000Y-111080000D01*
X122425010Y-54574990D02*
X121000000Y-56000000D01*
X134074990Y-54574990D02*
X122425010Y-54574990D01*
X135500000Y-56000000D02*
X134074990Y-54574990D01*
X119574990Y-54574990D02*
X107925010Y-54574990D01*
X107925010Y-54574990D02*
X106500000Y-56000000D01*
X121000000Y-56000000D02*
X119574990Y-54574990D01*
X124500000Y-115868630D02*
X124500000Y-115000000D01*
X131500000Y-122868630D02*
X124500000Y-115868630D01*
X131500000Y-124000000D02*
X131500000Y-122868630D01*
%TO.N,Net-(C1-Pad2)*%
X136500000Y-57540000D02*
X138040000Y-56000000D01*
X136500000Y-66500000D02*
X136500000Y-57540000D01*
%TO.N,Net-(C1-Pad1)*%
X136030002Y-82000000D02*
X137000000Y-82000000D01*
X127955001Y-90075001D02*
X136030002Y-82000000D01*
%TO.N,Net-(C4-Pad1)*%
X137000000Y-78714998D02*
X137000000Y-77000000D01*
X144245001Y-85959999D02*
X137000000Y-78714998D01*
X144245001Y-94374999D02*
X144245001Y-85959999D01*
X143120000Y-95500000D02*
X144245001Y-94374999D01*
%TO.N,Net-(C4-Pad2)*%
X140874999Y-75874999D02*
X122185003Y-75874999D01*
X122185003Y-75874999D02*
X120485001Y-77575001D01*
X142000000Y-77000000D02*
X140874999Y-75874999D01*
%TO.N,Net-(CV_Amount1-Pad2)*%
X112219978Y-86900022D02*
X112620000Y-86500000D01*
X103874999Y-82540001D02*
X108235020Y-86900022D01*
X103874999Y-81459999D02*
X103874999Y-82540001D01*
X123540000Y-70443590D02*
X113108591Y-80874999D01*
X123540000Y-56000000D02*
X123540000Y-70443590D01*
X104459999Y-80874999D02*
X103874999Y-81459999D01*
X108235020Y-86900022D02*
X112219978Y-86900022D01*
X113108591Y-80874999D02*
X104459999Y-80874999D01*
%TO.N,Net-(D1-Pad1)*%
X127500000Y-137500000D02*
X123620000Y-137500000D01*
X107360000Y-121240000D02*
X105000000Y-121240000D01*
X123620000Y-137500000D02*
X107360000Y-121240000D01*
%TO.N,Net-(D1-Pad2)*%
X127494999Y-136374999D02*
X123620000Y-132500000D01*
X133994999Y-136374999D02*
X127494999Y-136374999D01*
X135120000Y-137500000D02*
X133994999Y-136374999D01*
X121888996Y-132500000D02*
X123620000Y-132500000D01*
X108088996Y-118700000D02*
X121888996Y-132500000D01*
X105000000Y-118700000D02*
X108088996Y-118700000D01*
%TO.N,Net-(D2-Pad1)*%
X136245001Y-138040001D02*
X135660001Y-138625001D01*
X135660001Y-138625001D02*
X117125001Y-138625001D01*
X136245001Y-133625001D02*
X136245001Y-138040001D01*
X117125001Y-138625001D02*
X116000000Y-137500000D01*
X135120000Y-132500000D02*
X136245001Y-133625001D01*
%TO.N,Net-(D3-Pad2)*%
X138620000Y-95500000D02*
X143120000Y-91000000D01*
X135500000Y-95500000D02*
X138620000Y-95500000D01*
X112620000Y-108540000D02*
X121328630Y-108540000D01*
X121328630Y-108540000D02*
X134368630Y-95500000D01*
X134368630Y-95500000D02*
X135500000Y-95500000D01*
%TO.N,Net-(D4-Pad2)*%
X124620000Y-70000000D02*
X112620000Y-82000000D01*
X128660000Y-70000000D02*
X124620000Y-70000000D01*
%TO.N,Net-(FB1-Pad2)*%
X138500000Y-108500000D02*
X141040000Y-108500000D01*
X130994999Y-113874999D02*
X132120000Y-115000000D01*
X130994999Y-109959999D02*
X130994999Y-113874999D01*
X132454998Y-108500000D02*
X130994999Y-109959999D01*
X138500000Y-108500000D02*
X132454998Y-108500000D01*
%TO.N,Net-(FB2-Pad2)*%
X132120000Y-112280000D02*
X138500000Y-118660000D01*
X132120000Y-110500000D02*
X132120000Y-112280000D01*
X138500000Y-118660000D02*
X141040000Y-118660000D01*
%TO.N,Net-(Feedback1-Pad3)*%
X104200001Y-94700001D02*
X105000000Y-95500000D01*
X103874999Y-80823589D02*
X103424988Y-81273599D01*
X140580000Y-56000000D02*
X138704979Y-54124979D01*
X103424988Y-81273599D02*
X103424988Y-93924988D01*
X106091831Y-54124979D02*
X103874999Y-56341811D01*
X103874999Y-56341811D02*
X103874999Y-80823589D01*
X138704979Y-54124979D02*
X106091831Y-54124979D01*
X103424988Y-93924988D02*
X104200001Y-94700001D01*
%TO.N,Net-(R2-Pad1)*%
X105000000Y-91000000D02*
X106575012Y-89424988D01*
X106575012Y-89424988D02*
X118553618Y-89424988D01*
X118553618Y-89424988D02*
X119203631Y-90075001D01*
X119203631Y-90075001D02*
X120335001Y-90075001D01*
X106575012Y-88075012D02*
X105000000Y-86500000D01*
X106575012Y-89424988D02*
X106575012Y-88075012D01*
X106525001Y-107014999D02*
X105000000Y-108540000D01*
X106525001Y-92525001D02*
X106525001Y-107014999D01*
X105000000Y-91000000D02*
X106525001Y-92525001D01*
%TO.N,Net-(R5-Pad1)*%
X121460002Y-87150002D02*
X128495002Y-87150002D01*
X128495002Y-87150002D02*
X130500000Y-85145004D01*
X120335001Y-86025001D02*
X121460002Y-87150002D01*
X130500000Y-79970000D02*
X128105001Y-77575001D01*
X130500000Y-85145004D02*
X130500000Y-79970000D01*
X126334998Y-132500000D02*
X127500000Y-132500000D01*
X112620000Y-118785002D02*
X126334998Y-132500000D01*
X112620000Y-118700000D02*
X112620000Y-118785002D01*
%TO.N,Net-(R6-Pad2)*%
X124885001Y-86025001D02*
X120485001Y-81625001D01*
X127955001Y-86025001D02*
X124885001Y-86025001D01*
%TO.N,Net-(R12-Pad1)*%
X135500000Y-91000000D02*
X134700001Y-91799999D01*
X112620000Y-95500000D02*
X112620000Y-106000000D01*
X131000000Y-95500000D02*
X135500000Y-91000000D01*
X112620000Y-95500000D02*
X131000000Y-95500000D01*
X109450011Y-86450011D02*
X105000000Y-82000000D01*
X111450011Y-86186400D02*
X111186400Y-86450011D01*
X112620000Y-95500000D02*
X116575004Y-95500000D01*
X111186400Y-86450011D02*
X109450011Y-86450011D01*
X115050003Y-83125001D02*
X114011410Y-83125001D01*
X121460002Y-89535000D02*
X115050003Y-83125001D01*
X116575004Y-95500000D02*
X121460002Y-90615002D01*
X111450011Y-85686400D02*
X111450011Y-86186400D01*
X121460002Y-90615002D02*
X121460002Y-89535000D01*
X114011410Y-83125001D02*
X111450011Y-85686400D01*
%TD*%
M02*
