M48
; DRILL file {KiCad (5.1.8-0-10_14)} date Wednesday, July 07, 2021 at 10:11:29 AM
; FORMAT={-:-/ absolute / metric / decimal}
; #@! TF.CreationDate,2021-07-07T10:11:29-04:00
; #@! TF.GenerationSoftware,Kicad,Pcbnew,(5.1.8-0-10_14)
FMAT,2
METRIC
T1C0.800
T2C1.016
T3C1.100
T4C1.200
T5C3.200
%
G90
G05
T1
X135.5Y-91.0
X143.12Y-91.0
X120.485Y-81.625
X128.105Y-81.625
X118.5Y-119.5
X121.0Y-119.5
X127.5Y-137.5
X135.12Y-137.5
X129.5Y-124.0
X131.5Y-124.0
X124.5Y-115.0
X132.12Y-115.0
X135.5Y-86.5
X143.12Y-86.5
X105.0Y-95.5
X112.62Y-95.5
X120.485Y-77.575
X128.105Y-77.575
X137.0Y-77.0
X142.0Y-77.0
X137.0Y-82.0
X142.0Y-82.0
X124.5Y-110.5
X132.12Y-110.5
X105.0Y-91.0
X112.62Y-91.0
X105.0Y-82.0
X112.62Y-82.0
X129.5Y-103.0
X131.5Y-103.0
X105.0Y-86.5
X112.62Y-86.5
X116.0Y-137.5
X123.62Y-137.5
X105.0Y-106.0
X105.0Y-108.54
X105.0Y-111.08
X105.0Y-113.62
X105.0Y-116.16
X105.0Y-118.7
X105.0Y-121.24
X112.62Y-106.0
X112.62Y-108.54
X112.62Y-111.08
X112.62Y-113.62
X112.62Y-116.16
X112.62Y-118.7
X112.62Y-121.24
X105.0Y-77.5
X112.62Y-77.5
X120.335Y-90.075
X127.955Y-90.075
X135.5Y-95.5
X143.12Y-95.5
X127.5Y-132.5
X135.12Y-132.5
X116.0Y-132.5
X123.62Y-132.5
X118.5Y-123.0
X121.0Y-123.0
X120.335Y-86.025
X127.955Y-86.025
T2
X138.5Y-108.5
X138.5Y-111.04
X138.5Y-113.58
X138.5Y-116.12
X138.5Y-118.66
X141.04Y-108.5
X141.04Y-111.04
X141.04Y-113.58
X141.04Y-116.12
X141.04Y-118.66
T3
X118.5Y-70.0
X128.66Y-70.0
X118.5Y-65.0
X128.66Y-65.0
T4
X106.5Y-143.0
X109.04Y-143.0
X136.5Y-66.5
X139.04Y-66.5
X135.5Y-56.0
X138.04Y-56.0
X140.58Y-56.0
X108.0Y-66.5
X110.54Y-66.5
X121.0Y-56.0
X123.54Y-56.0
X126.08Y-56.0
X106.5Y-56.0
X109.04Y-56.0
X111.58Y-56.0
T5
X143.5Y-143.0
X145.5Y-54.0
T0
M30
