%TF.GenerationSoftware,KiCad,Pcbnew,(5.1.8-0-10_14)*%
%TF.CreationDate,2021-07-20T21:06:28-04:00*%
%TF.ProjectId,fwr2,66777232-2e6b-4696-9361-645f70636258,rev?*%
%TF.SameCoordinates,Original*%
%TF.FileFunction,Copper,L2,Bot*%
%TF.FilePolarity,Positive*%
%FSLAX46Y46*%
G04 Gerber Fmt 4.6, Leading zero omitted, Abs format (unit mm)*
G04 Created by KiCad (PCBNEW (5.1.8-0-10_14)) date 2021-07-20 21:06:28*
%MOMM*%
%LPD*%
G01*
G04 APERTURE LIST*
%TA.AperFunction,ComponentPad*%
%ADD10O,1.740000X2.200000*%
%TD*%
%TA.AperFunction,ComponentPad*%
%ADD11R,1.600000X1.600000*%
%TD*%
%TA.AperFunction,ComponentPad*%
%ADD12C,1.600000*%
%TD*%
%TA.AperFunction,ComponentPad*%
%ADD13R,2.200000X2.200000*%
%TD*%
%TA.AperFunction,ComponentPad*%
%ADD14O,2.200000X2.200000*%
%TD*%
%TA.AperFunction,ComponentPad*%
%ADD15O,1.600000X1.600000*%
%TD*%
%TA.AperFunction,ComponentPad*%
%ADD16R,1.727200X1.727200*%
%TD*%
%TA.AperFunction,ComponentPad*%
%ADD17O,1.727200X1.727200*%
%TD*%
%TA.AperFunction,ComponentPad*%
%ADD18R,2.400000X1.600000*%
%TD*%
%TA.AperFunction,ComponentPad*%
%ADD19O,2.400000X1.600000*%
%TD*%
%TA.AperFunction,Conductor*%
%ADD20C,0.250000*%
%TD*%
G04 APERTURE END LIST*
%TO.P,J4,1*%
%TO.N,Net-(Feedback1-Pad3)*%
%TA.AperFunction,ComponentPad*%
G36*
G01*
X105630000Y-134350001D02*
X105630000Y-132649999D01*
G75*
G02*
X105879999Y-132400000I249999J0D01*
G01*
X107120001Y-132400000D01*
G75*
G02*
X107370000Y-132649999I0J-249999D01*
G01*
X107370000Y-134350001D01*
G75*
G02*
X107120001Y-134600000I-249999J0D01*
G01*
X105879999Y-134600000D01*
G75*
G02*
X105630000Y-134350001I0J249999D01*
G01*
G37*
%TD.AperFunction*%
D10*
%TO.P,J4,2*%
%TO.N,GND*%
X109040000Y-133500000D03*
%TD*%
D11*
%TO.P,C6,1*%
%TO.N,GND*%
X133000000Y-92000000D03*
D12*
%TO.P,C6,2*%
X135000000Y-92000000D03*
%TD*%
D13*
%TO.P,1N4733,1*%
%TO.N,Net-(D3-Pad1)*%
X104375001Y-94855001D03*
D14*
%TO.P,1N4733,2*%
%TO.N,Net-(D4-Pad2)*%
X114535001Y-94855001D03*
%TD*%
%TO.P,Bias,1*%
%TO.N,GND*%
%TA.AperFunction,ComponentPad*%
G36*
G01*
X134630000Y-57350001D02*
X134630000Y-55649999D01*
G75*
G02*
X134879999Y-55400000I249999J0D01*
G01*
X136120001Y-55400000D01*
G75*
G02*
X136370000Y-55649999I0J-249999D01*
G01*
X136370000Y-57350001D01*
G75*
G02*
X136120001Y-57600000I-249999J0D01*
G01*
X134879999Y-57600000D01*
G75*
G02*
X134630000Y-57350001I0J249999D01*
G01*
G37*
%TD.AperFunction*%
D10*
%TO.P,Bias,2*%
%TO.N,Net-(Bias1-Pad2)*%
X138040000Y-56500000D03*
%TO.P,Bias,3*%
%TO.N,Net-(Bias1-Pad3)*%
X140580000Y-56500000D03*
%TD*%
D12*
%TO.P,C1,2*%
%TO.N,Net-(C1-Pad2)*%
X137000000Y-80500000D03*
%TO.P,C1,1*%
%TO.N,Net-(C1-Pad1)*%
X132000000Y-80500000D03*
%TD*%
%TO.P,C2,1*%
%TO.N,GND*%
X141000000Y-78500000D03*
%TO.P,C2,2*%
%TO.N,Net-(Bias1-Pad3)*%
X143500000Y-78500000D03*
%TD*%
%TO.P,C3,2*%
%TO.N,GND*%
X143500000Y-75000000D03*
%TO.P,C3,1*%
X141000000Y-75000000D03*
%TD*%
%TO.P,C4,1*%
%TO.N,Net-(C4-Pad1)*%
X131500000Y-117000000D03*
%TO.P,C4,2*%
%TO.N,Net-(C4-Pad2)*%
X136500000Y-117000000D03*
%TD*%
D10*
%TO.P,CV_Amount,3*%
%TO.N,Net-(CV_Amount1-Pad3)*%
X126580000Y-56500000D03*
%TO.P,CV_Amount,2*%
%TO.N,Net-(CV_Amount1-Pad2)*%
X124040000Y-56500000D03*
%TO.P,CV_Amount,1*%
%TO.N,GND*%
%TA.AperFunction,ComponentPad*%
G36*
G01*
X120630000Y-57350001D02*
X120630000Y-55649999D01*
G75*
G02*
X120879999Y-55400000I249999J0D01*
G01*
X122120001Y-55400000D01*
G75*
G02*
X122370000Y-55649999I0J-249999D01*
G01*
X122370000Y-57350001D01*
G75*
G02*
X122120001Y-57600000I-249999J0D01*
G01*
X120879999Y-57600000D01*
G75*
G02*
X120630000Y-57350001I0J249999D01*
G01*
G37*
%TD.AperFunction*%
%TD*%
D11*
%TO.P,1N4148,1*%
%TO.N,Net-(D1-Pad1)*%
X105500000Y-107000000D03*
D15*
%TO.P,1N4148,2*%
%TO.N,Net-(D1-Pad2)*%
X113120000Y-107000000D03*
%TD*%
%TO.P,1N4148,2*%
%TO.N,Net-(D1-Pad1)*%
X113120000Y-111000000D03*
D11*
%TO.P,1N4148,1*%
%TO.N,Net-(D2-Pad1)*%
X105500000Y-111000000D03*
%TD*%
D14*
%TO.P,1N4733,2*%
%TO.N,Net-(D3-Pad2)*%
X114535001Y-100000000D03*
D13*
%TO.P,1N4733,1*%
%TO.N,Net-(D3-Pad1)*%
X104375001Y-100000000D03*
%TD*%
D12*
%TO.P,FB1,1*%
%TO.N,GND*%
X139000000Y-84500000D03*
D15*
%TO.P,FB1,2*%
%TO.N,Net-(FB1-Pad2)*%
X146620000Y-84500000D03*
%TD*%
%TO.P,FB2,2*%
%TO.N,Net-(FB2-Pad2)*%
X146120000Y-113000000D03*
D12*
%TO.P,FB2,1*%
%TO.N,Net-(Bias1-Pad3)*%
X138500000Y-113000000D03*
%TD*%
%TO.P,Feedback,1*%
%TO.N,GND*%
%TA.AperFunction,ComponentPad*%
G36*
G01*
X104630000Y-57350001D02*
X104630000Y-55649999D01*
G75*
G02*
X104879999Y-55400000I249999J0D01*
G01*
X106120001Y-55400000D01*
G75*
G02*
X106370000Y-55649999I0J-249999D01*
G01*
X106370000Y-57350001D01*
G75*
G02*
X106120001Y-57600000I-249999J0D01*
G01*
X104879999Y-57600000D01*
G75*
G02*
X104630000Y-57350001I0J249999D01*
G01*
G37*
%TD.AperFunction*%
D10*
%TO.P,Feedback,2*%
%TO.N,Net-(C1-Pad2)*%
X108040000Y-56500000D03*
%TO.P,Feedback,3*%
%TO.N,Net-(Feedback1-Pad3)*%
X110580000Y-56500000D03*
%TD*%
D16*
%TO.P,J3,1*%
%TO.N,Net-(FB1-Pad2)*%
X141500000Y-94500000D03*
D17*
%TO.P,J3,2*%
X144040000Y-94500000D03*
%TO.P,J3,3*%
%TO.N,GND*%
X141500000Y-97040000D03*
%TO.P,J3,4*%
X144040000Y-97040000D03*
%TO.P,J3,5*%
X141500000Y-99580000D03*
%TO.P,J3,6*%
X144040000Y-99580000D03*
%TO.P,J3,7*%
X141500000Y-102120000D03*
%TO.P,J3,8*%
X144040000Y-102120000D03*
%TO.P,J3,9*%
%TO.N,Net-(FB2-Pad2)*%
X141500000Y-104660000D03*
%TO.P,J3,10*%
X144040000Y-104660000D03*
%TD*%
D15*
%TO.P,R1,2*%
%TO.N,Net-(C1-Pad2)*%
X127120000Y-83500000D03*
D12*
%TO.P,R1,1*%
%TO.N,GND*%
X119500000Y-83500000D03*
%TD*%
%TO.P,R2,1*%
%TO.N,Net-(R2-Pad1)*%
X119500000Y-68000000D03*
D15*
%TO.P,R2,2*%
%TO.N,Net-(Bias1-Pad2)*%
X127120000Y-68000000D03*
%TD*%
D12*
%TO.P,R3,1*%
%TO.N,Net-(R2-Pad1)*%
X119500000Y-73000000D03*
D15*
%TO.P,R3,2*%
%TO.N,Net-(CV_Amount1-Pad2)*%
X127120000Y-73000000D03*
%TD*%
%TO.P,R4,2*%
%TO.N,Net-(C1-Pad1)*%
X140120000Y-126000000D03*
D12*
%TO.P,R4,1*%
%TO.N,Net-(R2-Pad1)*%
X132500000Y-126000000D03*
%TD*%
D15*
%TO.P,R5,2*%
%TO.N,Net-(D2-Pad1)*%
X127120000Y-131000000D03*
D12*
%TO.P,R5,1*%
%TO.N,Net-(R5-Pad1)*%
X119500000Y-131000000D03*
%TD*%
%TO.P,R6,1*%
%TO.N,Net-(R5-Pad1)*%
X132500000Y-135500000D03*
D15*
%TO.P,R6,2*%
%TO.N,Net-(R6-Pad2)*%
X140120000Y-135500000D03*
%TD*%
D12*
%TO.P,R7,1*%
%TO.N,Net-(R6-Pad2)*%
X132500000Y-131000000D03*
D15*
%TO.P,R7,2*%
%TO.N,Net-(R2-Pad1)*%
X140120000Y-131000000D03*
%TD*%
%TO.P,R8,2*%
%TO.N,Net-(R5-Pad1)*%
X127120000Y-135500000D03*
D12*
%TO.P,R8,1*%
%TO.N,Net-(C4-Pad2)*%
X119500000Y-135500000D03*
%TD*%
D15*
%TO.P,R9,2*%
%TO.N,Net-(R6-Pad2)*%
X140120000Y-140000000D03*
D12*
%TO.P,R9,1*%
%TO.N,Net-(D1-Pad2)*%
X132500000Y-140000000D03*
%TD*%
%TO.P,R10,1*%
%TO.N,Net-(D3-Pad2)*%
X119500000Y-126000000D03*
D15*
%TO.P,R10,2*%
%TO.N,Net-(C4-Pad1)*%
X127120000Y-126000000D03*
%TD*%
D12*
%TO.P,R11,1*%
%TO.N,Net-(D2-Pad1)*%
X119500000Y-140000000D03*
D15*
%TO.P,R11,2*%
%TO.N,Net-(D1-Pad2)*%
X127120000Y-140000000D03*
%TD*%
D12*
%TO.P,R12,1*%
%TO.N,Net-(R12-Pad1)*%
X119500000Y-88500000D03*
D15*
%TO.P,R12,2*%
%TO.N,Net-(D3-Pad2)*%
X127120000Y-88500000D03*
%TD*%
%TO.P,R13,2*%
%TO.N,Net-(R12-Pad1)*%
X113120000Y-78000000D03*
D12*
%TO.P,R13,1*%
%TO.N,Net-(Feedback1-Pad3)*%
X105500000Y-78000000D03*
%TD*%
D15*
%TO.P,R14,2*%
%TO.N,Net-(D4-Pad2)*%
X127120000Y-78000000D03*
D12*
%TO.P,R14,1*%
%TO.N,Net-(R12-Pad1)*%
X119500000Y-78000000D03*
%TD*%
D18*
%TO.P,U1,1*%
%TO.N,Net-(R6-Pad2)*%
X119500000Y-97500000D03*
D19*
%TO.P,U1,8*%
%TO.N,Net-(C4-Pad2)*%
X127120000Y-112740000D03*
%TO.P,U1,2*%
%TO.N,Net-(R2-Pad1)*%
X119500000Y-100040000D03*
%TO.P,U1,9*%
%TO.N,Net-(R5-Pad1)*%
X127120000Y-110200000D03*
%TO.P,U1,3*%
%TO.N,GND*%
X119500000Y-102580000D03*
%TO.P,U1,10*%
X127120000Y-107660000D03*
%TO.P,U1,4*%
%TO.N,Net-(Bias1-Pad3)*%
X119500000Y-105120000D03*
%TO.P,U1,11*%
%TO.N,GND*%
X127120000Y-105120000D03*
%TO.P,U1,5*%
X119500000Y-107660000D03*
%TO.P,U1,12*%
X127120000Y-102580000D03*
%TO.P,U1,6*%
%TO.N,Net-(D1-Pad2)*%
X119500000Y-110200000D03*
%TO.P,U1,13*%
%TO.N,Net-(D3-Pad2)*%
X127120000Y-100040000D03*
%TO.P,U1,7*%
%TO.N,Net-(D1-Pad1)*%
X119500000Y-112740000D03*
%TO.P,U1,14*%
%TO.N,Net-(R12-Pad1)*%
X127120000Y-97500000D03*
%TD*%
D11*
%TO.P,C5,1*%
%TO.N,Net-(Bias1-Pad3)*%
X133000000Y-100500000D03*
D12*
%TO.P,C5,2*%
%TO.N,GND*%
X135000000Y-100500000D03*
%TD*%
D10*
%TO.P,J1,2*%
%TO.N,GND*%
X110540000Y-68000000D03*
%TO.P,J1,1*%
%TO.N,Net-(CV_Amount1-Pad3)*%
%TA.AperFunction,ComponentPad*%
G36*
G01*
X107130000Y-68850001D02*
X107130000Y-67149999D01*
G75*
G02*
X107379999Y-66900000I249999J0D01*
G01*
X108620001Y-66900000D01*
G75*
G02*
X108870000Y-67149999I0J-249999D01*
G01*
X108870000Y-68850001D01*
G75*
G02*
X108620001Y-69100000I-249999J0D01*
G01*
X107379999Y-69100000D01*
G75*
G02*
X107130000Y-68850001I0J249999D01*
G01*
G37*
%TD.AperFunction*%
%TD*%
%TO.P,J2,1*%
%TO.N,Net-(C1-Pad2)*%
%TA.AperFunction,ComponentPad*%
G36*
G01*
X134630000Y-68850001D02*
X134630000Y-67149999D01*
G75*
G02*
X134879999Y-66900000I249999J0D01*
G01*
X136120001Y-66900000D01*
G75*
G02*
X136370000Y-67149999I0J-249999D01*
G01*
X136370000Y-68850001D01*
G75*
G02*
X136120001Y-69100000I-249999J0D01*
G01*
X134879999Y-69100000D01*
G75*
G02*
X134630000Y-68850001I0J249999D01*
G01*
G37*
%TD.AperFunction*%
%TO.P,J2,2*%
%TO.N,GND*%
X138040000Y-68000000D03*
%TD*%
D20*
%TO.N,Net-(C1-Pad2)*%
X135500000Y-68000000D02*
X135500000Y-69100000D01*
X135500000Y-69100000D02*
X135174990Y-69425010D01*
X111221389Y-69875021D02*
X107591831Y-69875021D01*
X135174990Y-69425010D02*
X111671399Y-69425010D01*
X105500000Y-67783190D02*
X105500000Y-59040000D01*
X111671399Y-69425010D02*
X111221389Y-69875021D01*
X105500000Y-59040000D02*
X108040000Y-56500000D01*
X134000000Y-83500000D02*
X137000000Y-80500000D01*
X127120000Y-83500000D02*
X134000000Y-83500000D01*
X107591831Y-69875021D02*
X105500000Y-67783190D01*
%TO.N,Net-(C4-Pad1)*%
X127120000Y-126000000D02*
X129500000Y-126000000D01*
X131500000Y-124000000D02*
X131500000Y-117000000D01*
X129500000Y-126000000D02*
X131500000Y-124000000D01*
%TO.N,Net-(C4-Pad2)*%
X132240000Y-112740000D02*
X127120000Y-112740000D01*
X136500000Y-117000000D02*
X132240000Y-112740000D01*
X121500000Y-127045002D02*
X121500000Y-118360000D01*
X123000000Y-128545002D02*
X121500000Y-127045002D01*
X123000000Y-133000000D02*
X123000000Y-128545002D01*
X123500000Y-133500000D02*
X123000000Y-133000000D01*
X133500000Y-133500000D02*
X123500000Y-133500000D01*
X122000000Y-138000000D02*
X133500000Y-138000000D01*
X135000000Y-135000000D02*
X133500000Y-133500000D01*
X135000000Y-136500000D02*
X135000000Y-135000000D01*
X121500000Y-118360000D02*
X127120000Y-112740000D01*
X133500000Y-138000000D02*
X135000000Y-136500000D01*
X119500000Y-135500000D02*
X122000000Y-138000000D01*
%TO.N,Net-(CV_Amount1-Pad3)*%
X125154990Y-57925010D02*
X126580000Y-56500000D01*
X122534989Y-57925010D02*
X125154990Y-57925010D01*
X108325010Y-69425010D02*
X111034989Y-69425010D01*
X108000000Y-69100000D02*
X108325010Y-69425010D01*
X111034989Y-69425010D02*
X122534989Y-57925010D01*
X108000000Y-68000000D02*
X108000000Y-69100000D01*
%TO.N,Net-(D1-Pad1)*%
X105500000Y-107000000D02*
X109500000Y-111000000D01*
X109500000Y-111000000D02*
X113120000Y-111000000D01*
X113120000Y-111000000D02*
X115120000Y-113000000D01*
X119240000Y-113000000D02*
X119500000Y-112740000D01*
X115120000Y-113000000D02*
X119240000Y-113000000D01*
%TO.N,Net-(D1-Pad2)*%
X127120000Y-140000000D02*
X132500000Y-140000000D01*
X116300000Y-107000000D02*
X119500000Y-110200000D01*
X113120000Y-107000000D02*
X116300000Y-107000000D01*
%TO.N,Net-(D2-Pad1)*%
X136160001Y-129874999D02*
X142500000Y-136214998D01*
X128245001Y-129874999D02*
X136160001Y-129874999D01*
X127120000Y-131000000D02*
X128245001Y-129874999D01*
X142500000Y-136214998D02*
X142500000Y-141000000D01*
X142500000Y-141000000D02*
X139000000Y-144500000D01*
X139000000Y-144500000D02*
X108500000Y-144500000D01*
X108500000Y-144500000D02*
X103500000Y-139500000D01*
X103500000Y-113000000D02*
X105500000Y-111000000D01*
X103500000Y-139500000D02*
X103500000Y-113000000D01*
%TO.N,Net-(D3-Pad2)*%
X125994990Y-98914990D02*
X115620011Y-98914990D01*
X115620011Y-98914990D02*
X114535001Y-100000000D01*
X127120000Y-100040000D02*
X125994990Y-98914990D01*
X111994999Y-118494999D02*
X119500000Y-126000000D01*
X106185002Y-109500000D02*
X111994999Y-115309997D01*
X105000000Y-109500000D02*
X106185002Y-109500000D01*
X114535001Y-100000000D02*
X110314998Y-100000000D01*
X104374999Y-105939999D02*
X104374999Y-108874999D01*
X110314998Y-100000000D02*
X104374999Y-105939999D01*
X111994999Y-115309997D02*
X111994999Y-118494999D01*
X104374999Y-108874999D02*
X105000000Y-109500000D01*
%TO.N,Net-(FB1-Pad2)*%
X144040000Y-94500000D02*
X141500000Y-94500000D01*
%TO.N,Net-(FB2-Pad2)*%
X144040000Y-104660000D02*
X141500000Y-104660000D01*
%TO.N,Net-(R2-Pad1)*%
X135120000Y-126000000D02*
X132500000Y-126000000D01*
X140120000Y-131000000D02*
X135120000Y-126000000D01*
%TO.N,Net-(R5-Pad1)*%
X127120000Y-135500000D02*
X132500000Y-135500000D01*
X124000000Y-135500000D02*
X119500000Y-131000000D01*
X127120000Y-135500000D02*
X124000000Y-135500000D01*
X120625001Y-129874999D02*
X120625001Y-113874999D01*
X119500000Y-131000000D02*
X120625001Y-129874999D01*
X124300000Y-110200000D02*
X127120000Y-110200000D01*
X120625001Y-113874999D02*
X124300000Y-110200000D01*
%TO.N,Net-(R6-Pad2)*%
X137000000Y-135500000D02*
X132500000Y-131000000D01*
X140120000Y-135500000D02*
X137000000Y-135500000D01*
%TO.N,Net-(R12-Pad1)*%
X113120000Y-78000000D02*
X119500000Y-78000000D01*
%TO.N,GND*%
X134074990Y-55074990D02*
X135500000Y-56500000D01*
X121500000Y-55400000D02*
X121825010Y-55074990D01*
X121500000Y-56500000D02*
X121500000Y-55400000D01*
X138874999Y-84625001D02*
X139000000Y-84500000D01*
X120625001Y-84625001D02*
X138874999Y-84625001D01*
X119500000Y-83500000D02*
X120625001Y-84625001D01*
X144040000Y-97040000D02*
X141500000Y-97040000D01*
X141000000Y-82500000D02*
X139000000Y-84500000D01*
X141000000Y-78500000D02*
X141000000Y-82500000D01*
X140580000Y-100500000D02*
X141500000Y-99580000D01*
X135000000Y-100500000D02*
X140580000Y-100500000D01*
X122040000Y-105120000D02*
X119500000Y-102580000D01*
X127120000Y-105120000D02*
X122040000Y-105120000D01*
X139880000Y-100500000D02*
X141500000Y-102120000D01*
X135000000Y-100500000D02*
X139880000Y-100500000D01*
X127120000Y-102580000D02*
X128420000Y-102580000D01*
X134060001Y-99374999D02*
X135000000Y-100314998D01*
X131625001Y-99374999D02*
X134060001Y-99374999D01*
X135000000Y-100314998D02*
X135000000Y-100500000D01*
X128420000Y-102580000D02*
X131625001Y-99374999D01*
X121825010Y-55074990D02*
X134074990Y-55074990D01*
%TO.N,Net-(Bias1-Pad3)*%
X133000000Y-101231004D02*
X133000000Y-100500000D01*
X127985994Y-106245010D02*
X133000000Y-101231004D01*
X120625010Y-106245010D02*
X127985994Y-106245010D01*
X119500000Y-105120000D02*
X120625010Y-106245010D01*
%TD*%
M02*
