M48
; DRILL file {KiCad (5.1.8-0-10_14)} date Tuesday, July 20, 2021 at 09:06:20 PM
; FORMAT={-:-/ absolute / metric / decimal}
; #@! TF.CreationDate,2021-07-20T21:06:20-04:00
; #@! TF.GenerationSoftware,Kicad,Pcbnew,(5.1.8-0-10_14)
FMAT,2
METRIC
T1C0.800
T2C1.016
T3C1.100
T4C1.200
T5C3.200
%
G90
G05
T1
X119.5Y-73.0
X127.12Y-73.0
X119.5Y-97.5
X119.5Y-100.04
X119.5Y-102.58
X119.5Y-105.12
X119.5Y-107.66
X119.5Y-110.2
X119.5Y-112.74
X127.12Y-97.5
X127.12Y-100.04
X127.12Y-102.58
X127.12Y-105.12
X127.12Y-107.66
X127.12Y-110.2
X127.12Y-112.74
X105.5Y-107.0
X113.12Y-107.0
X105.5Y-78.0
X113.12Y-78.0
X133.0Y-92.0
X135.0Y-92.0
X119.5Y-135.5
X127.12Y-135.5
X119.5Y-140.0
X127.12Y-140.0
X132.0Y-80.5
X137.0Y-80.5
X119.5Y-68.0
X127.12Y-68.0
X132.5Y-131.0
X140.12Y-131.0
X138.5Y-113.0
X146.12Y-113.0
X105.5Y-111.0
X113.12Y-111.0
X133.0Y-100.5
X135.0Y-100.5
X119.5Y-83.5
X127.12Y-83.5
X132.5Y-135.5
X140.12Y-135.5
X119.5Y-78.0
X127.12Y-78.0
X119.5Y-131.0
X127.12Y-131.0
X119.5Y-88.5
X127.12Y-88.5
X131.5Y-117.0
X136.5Y-117.0
X132.5Y-140.0
X140.12Y-140.0
X141.0Y-78.5
X143.5Y-78.5
X141.0Y-75.0
X143.5Y-75.0
X119.5Y-126.0
X127.12Y-126.0
X132.5Y-126.0
X140.12Y-126.0
X139.0Y-84.5
X146.62Y-84.5
T2
X141.5Y-94.5
X141.5Y-97.04
X141.5Y-99.58
X141.5Y-102.12
X141.5Y-104.66
X144.04Y-94.5
X144.04Y-97.04
X144.04Y-99.58
X144.04Y-102.12
X144.04Y-104.66
T3
X104.375Y-100.0
X114.535Y-100.0
X104.375Y-94.855
X114.535Y-94.855
T4
X108.0Y-68.0
X110.54Y-68.0
X121.5Y-56.5
X124.04Y-56.5
X126.58Y-56.5
X135.5Y-68.0
X138.04Y-68.0
X105.5Y-56.5
X108.04Y-56.5
X110.58Y-56.5
X135.5Y-56.5
X138.04Y-56.5
X140.58Y-56.5
X106.5Y-133.5
X109.04Y-133.5
T5
X145.5Y-54.0
X103.5Y-145.5
T0
M30
