%TF.GenerationSoftware,KiCad,Pcbnew,(5.1.8-0-10_14)*%
%TF.CreationDate,2021-07-20T21:06:28-04:00*%
%TF.ProjectId,fwr2,66777232-2e6b-4696-9361-645f70636258,rev?*%
%TF.SameCoordinates,Original*%
%TF.FileFunction,Legend,Top*%
%TF.FilePolarity,Positive*%
%FSLAX46Y46*%
G04 Gerber Fmt 4.6, Leading zero omitted, Abs format (unit mm)*
G04 Created by KiCad (PCBNEW (5.1.8-0-10_14)) date 2021-07-20 21:06:28*
%MOMM*%
%LPD*%
G01*
G04 APERTURE LIST*
%ADD10C,0.150000*%
%ADD11C,0.375000*%
%ADD12C,0.120000*%
G04 APERTURE END LIST*
D10*
X132071428Y-145952380D02*
X132071428Y-144952380D01*
X132452380Y-144952380D01*
X132547619Y-145000000D01*
X132595238Y-145047619D01*
X132642857Y-145142857D01*
X132642857Y-145285714D01*
X132595238Y-145380952D01*
X132547619Y-145428571D01*
X132452380Y-145476190D01*
X132071428Y-145476190D01*
X133642857Y-145857142D02*
X133595238Y-145904761D01*
X133452380Y-145952380D01*
X133357142Y-145952380D01*
X133214285Y-145904761D01*
X133119047Y-145809523D01*
X133071428Y-145714285D01*
X133023809Y-145523809D01*
X133023809Y-145380952D01*
X133071428Y-145190476D01*
X133119047Y-145095238D01*
X133214285Y-145000000D01*
X133357142Y-144952380D01*
X133452380Y-144952380D01*
X133595238Y-145000000D01*
X133642857Y-145047619D01*
X134404761Y-145428571D02*
X134547619Y-145476190D01*
X134595238Y-145523809D01*
X134642857Y-145619047D01*
X134642857Y-145761904D01*
X134595238Y-145857142D01*
X134547619Y-145904761D01*
X134452380Y-145952380D01*
X134071428Y-145952380D01*
X134071428Y-144952380D01*
X134404761Y-144952380D01*
X134500000Y-145000000D01*
X134547619Y-145047619D01*
X134595238Y-145142857D01*
X134595238Y-145238095D01*
X134547619Y-145333333D01*
X134500000Y-145380952D01*
X134404761Y-145428571D01*
X134071428Y-145428571D01*
X135690476Y-144952380D02*
X136023809Y-145952380D01*
X136357142Y-144952380D01*
X137071428Y-145904761D02*
X136976190Y-145952380D01*
X136785714Y-145952380D01*
X136690476Y-145904761D01*
X136642857Y-145809523D01*
X136642857Y-145428571D01*
X136690476Y-145333333D01*
X136785714Y-145285714D01*
X136976190Y-145285714D01*
X137071428Y-145333333D01*
X137119047Y-145428571D01*
X137119047Y-145523809D01*
X136642857Y-145619047D01*
X137547619Y-145952380D02*
X137547619Y-145285714D01*
X137547619Y-145476190D02*
X137595238Y-145380952D01*
X137642857Y-145333333D01*
X137738095Y-145285714D01*
X137833333Y-145285714D01*
X138119047Y-145904761D02*
X138214285Y-145952380D01*
X138404761Y-145952380D01*
X138500000Y-145904761D01*
X138547619Y-145809523D01*
X138547619Y-145761904D01*
X138500000Y-145666666D01*
X138404761Y-145619047D01*
X138261904Y-145619047D01*
X138166666Y-145571428D01*
X138119047Y-145476190D01*
X138119047Y-145428571D01*
X138166666Y-145333333D01*
X138261904Y-145285714D01*
X138404761Y-145285714D01*
X138500000Y-145333333D01*
X138976190Y-145952380D02*
X138976190Y-145285714D01*
X138976190Y-144952380D02*
X138928571Y-145000000D01*
X138976190Y-145047619D01*
X139023809Y-145000000D01*
X138976190Y-144952380D01*
X138976190Y-145047619D01*
X139595238Y-145952380D02*
X139500000Y-145904761D01*
X139452380Y-145857142D01*
X139404761Y-145761904D01*
X139404761Y-145476190D01*
X139452380Y-145380952D01*
X139500000Y-145333333D01*
X139595238Y-145285714D01*
X139738095Y-145285714D01*
X139833333Y-145333333D01*
X139880952Y-145380952D01*
X139928571Y-145476190D01*
X139928571Y-145761904D01*
X139880952Y-145857142D01*
X139833333Y-145904761D01*
X139738095Y-145952380D01*
X139595238Y-145952380D01*
X140357142Y-145285714D02*
X140357142Y-145952380D01*
X140357142Y-145380952D02*
X140404761Y-145333333D01*
X140500000Y-145285714D01*
X140642857Y-145285714D01*
X140738095Y-145333333D01*
X140785714Y-145428571D01*
X140785714Y-145952380D01*
X142214285Y-144952380D02*
X142309523Y-144952380D01*
X142404761Y-145000000D01*
X142452380Y-145047619D01*
X142500000Y-145142857D01*
X142547619Y-145333333D01*
X142547619Y-145571428D01*
X142500000Y-145761904D01*
X142452380Y-145857142D01*
X142404761Y-145904761D01*
X142309523Y-145952380D01*
X142214285Y-145952380D01*
X142119047Y-145904761D01*
X142071428Y-145857142D01*
X142023809Y-145761904D01*
X141976190Y-145571428D01*
X141976190Y-145333333D01*
X142023809Y-145142857D01*
X142071428Y-145047619D01*
X142119047Y-145000000D01*
X142214285Y-144952380D01*
X142976190Y-145857142D02*
X143023809Y-145904761D01*
X142976190Y-145952380D01*
X142928571Y-145904761D01*
X142976190Y-145857142D01*
X142976190Y-145952380D01*
X143404761Y-145047619D02*
X143452380Y-145000000D01*
X143547619Y-144952380D01*
X143785714Y-144952380D01*
X143880952Y-145000000D01*
X143928571Y-145047619D01*
X143976190Y-145142857D01*
X143976190Y-145238095D01*
X143928571Y-145380952D01*
X143357142Y-145952380D01*
X143976190Y-145952380D01*
X104261904Y-60627380D02*
X104500000Y-61627380D01*
X104690476Y-60913095D01*
X104880952Y-61627380D01*
X105119047Y-60627380D01*
X105500000Y-61627380D02*
X105500000Y-60627380D01*
X105928571Y-61627380D02*
X105928571Y-61103571D01*
X105880952Y-61008333D01*
X105785714Y-60960714D01*
X105642857Y-60960714D01*
X105547619Y-61008333D01*
X105500000Y-61055952D01*
X106547619Y-61627380D02*
X106452380Y-61579761D01*
X106404761Y-61532142D01*
X106357142Y-61436904D01*
X106357142Y-61151190D01*
X106404761Y-61055952D01*
X106452380Y-61008333D01*
X106547619Y-60960714D01*
X106690476Y-60960714D01*
X106785714Y-61008333D01*
X106833333Y-61055952D01*
X106880952Y-61151190D01*
X106880952Y-61436904D01*
X106833333Y-61532142D01*
X106785714Y-61579761D01*
X106690476Y-61627380D01*
X106547619Y-61627380D01*
X108071428Y-61627380D02*
X108071428Y-60627380D01*
X108166666Y-61246428D02*
X108452380Y-61627380D01*
X108452380Y-60960714D02*
X108071428Y-61341666D01*
X108880952Y-60960714D02*
X108880952Y-61627380D01*
X108880952Y-61055952D02*
X108928571Y-61008333D01*
X109023809Y-60960714D01*
X109166666Y-60960714D01*
X109261904Y-61008333D01*
X109309523Y-61103571D01*
X109309523Y-61627380D01*
X109928571Y-61627380D02*
X109833333Y-61579761D01*
X109785714Y-61532142D01*
X109738095Y-61436904D01*
X109738095Y-61151190D01*
X109785714Y-61055952D01*
X109833333Y-61008333D01*
X109928571Y-60960714D01*
X110071428Y-60960714D01*
X110166666Y-61008333D01*
X110214285Y-61055952D01*
X110261904Y-61151190D01*
X110261904Y-61436904D01*
X110214285Y-61532142D01*
X110166666Y-61579761D01*
X110071428Y-61627380D01*
X109928571Y-61627380D01*
X110595238Y-60960714D02*
X110785714Y-61627380D01*
X110976190Y-61151190D01*
X111166666Y-61627380D01*
X111357142Y-60960714D01*
X111690476Y-61579761D02*
X111785714Y-61627380D01*
X111976190Y-61627380D01*
X112071428Y-61579761D01*
X112119047Y-61484523D01*
X112119047Y-61436904D01*
X112071428Y-61341666D01*
X111976190Y-61294047D01*
X111833333Y-61294047D01*
X111738095Y-61246428D01*
X111690476Y-61151190D01*
X111690476Y-61103571D01*
X111738095Y-61008333D01*
X111833333Y-60960714D01*
X111976190Y-60960714D01*
X112071428Y-61008333D01*
X113309523Y-61627380D02*
X113309523Y-60960714D01*
X113309523Y-60627380D02*
X113261904Y-60675000D01*
X113309523Y-60722619D01*
X113357142Y-60675000D01*
X113309523Y-60627380D01*
X113309523Y-60722619D01*
X113642857Y-60960714D02*
X114023809Y-60960714D01*
X113785714Y-61627380D02*
X113785714Y-60770238D01*
X113833333Y-60675000D01*
X113928571Y-60627380D01*
X114023809Y-60627380D01*
X101523809Y-62610714D02*
X101904761Y-62610714D01*
X101666666Y-62277380D02*
X101666666Y-63134523D01*
X101714285Y-63229761D01*
X101809523Y-63277380D01*
X101904761Y-63277380D01*
X102238095Y-63277380D02*
X102238095Y-62277380D01*
X102666666Y-63277380D02*
X102666666Y-62753571D01*
X102619047Y-62658333D01*
X102523809Y-62610714D01*
X102380952Y-62610714D01*
X102285714Y-62658333D01*
X102238095Y-62705952D01*
X103523809Y-63229761D02*
X103428571Y-63277380D01*
X103238095Y-63277380D01*
X103142857Y-63229761D01*
X103095238Y-63134523D01*
X103095238Y-62753571D01*
X103142857Y-62658333D01*
X103238095Y-62610714D01*
X103428571Y-62610714D01*
X103523809Y-62658333D01*
X103571428Y-62753571D01*
X103571428Y-62848809D01*
X103095238Y-62944047D01*
X104619047Y-62610714D02*
X105000000Y-62610714D01*
X104761904Y-63277380D02*
X104761904Y-62420238D01*
X104809523Y-62325000D01*
X104904761Y-62277380D01*
X105000000Y-62277380D01*
X105714285Y-63229761D02*
X105619047Y-63277380D01*
X105428571Y-63277380D01*
X105333333Y-63229761D01*
X105285714Y-63134523D01*
X105285714Y-62753571D01*
X105333333Y-62658333D01*
X105428571Y-62610714D01*
X105619047Y-62610714D01*
X105714285Y-62658333D01*
X105761904Y-62753571D01*
X105761904Y-62848809D01*
X105285714Y-62944047D01*
X106571428Y-63229761D02*
X106476190Y-63277380D01*
X106285714Y-63277380D01*
X106190476Y-63229761D01*
X106142857Y-63134523D01*
X106142857Y-62753571D01*
X106190476Y-62658333D01*
X106285714Y-62610714D01*
X106476190Y-62610714D01*
X106571428Y-62658333D01*
X106619047Y-62753571D01*
X106619047Y-62848809D01*
X106142857Y-62944047D01*
X107476190Y-63277380D02*
X107476190Y-62277380D01*
X107476190Y-63229761D02*
X107380952Y-63277380D01*
X107190476Y-63277380D01*
X107095238Y-63229761D01*
X107047619Y-63182142D01*
X107000000Y-63086904D01*
X107000000Y-62801190D01*
X107047619Y-62705952D01*
X107095238Y-62658333D01*
X107190476Y-62610714D01*
X107380952Y-62610714D01*
X107476190Y-62658333D01*
X107952380Y-63277380D02*
X107952380Y-62277380D01*
X107952380Y-62658333D02*
X108047619Y-62610714D01*
X108238095Y-62610714D01*
X108333333Y-62658333D01*
X108380952Y-62705952D01*
X108428571Y-62801190D01*
X108428571Y-63086904D01*
X108380952Y-63182142D01*
X108333333Y-63229761D01*
X108238095Y-63277380D01*
X108047619Y-63277380D01*
X107952380Y-63229761D01*
X109285714Y-63277380D02*
X109285714Y-62753571D01*
X109238095Y-62658333D01*
X109142857Y-62610714D01*
X108952380Y-62610714D01*
X108857142Y-62658333D01*
X109285714Y-63229761D02*
X109190476Y-63277380D01*
X108952380Y-63277380D01*
X108857142Y-63229761D01*
X108809523Y-63134523D01*
X108809523Y-63039285D01*
X108857142Y-62944047D01*
X108952380Y-62896428D01*
X109190476Y-62896428D01*
X109285714Y-62848809D01*
X110190476Y-63229761D02*
X110095238Y-63277380D01*
X109904761Y-63277380D01*
X109809523Y-63229761D01*
X109761904Y-63182142D01*
X109714285Y-63086904D01*
X109714285Y-62801190D01*
X109761904Y-62705952D01*
X109809523Y-62658333D01*
X109904761Y-62610714D01*
X110095238Y-62610714D01*
X110190476Y-62658333D01*
X110619047Y-63277380D02*
X110619047Y-62277380D01*
X110714285Y-62896428D02*
X111000000Y-63277380D01*
X111000000Y-62610714D02*
X110619047Y-62991666D01*
X112095238Y-62610714D02*
X112285714Y-63277380D01*
X112476190Y-62801190D01*
X112666666Y-63277380D01*
X112857142Y-62610714D01*
X113380952Y-63277380D02*
X113285714Y-63229761D01*
X113238095Y-63182142D01*
X113190476Y-63086904D01*
X113190476Y-62801190D01*
X113238095Y-62705952D01*
X113285714Y-62658333D01*
X113380952Y-62610714D01*
X113523809Y-62610714D01*
X113619047Y-62658333D01*
X113666666Y-62705952D01*
X113714285Y-62801190D01*
X113714285Y-63086904D01*
X113666666Y-63182142D01*
X113619047Y-63229761D01*
X113523809Y-63277380D01*
X113380952Y-63277380D01*
X114142857Y-63277380D02*
X114142857Y-62610714D01*
X114142857Y-62801190D02*
X114190476Y-62705952D01*
X114238095Y-62658333D01*
X114333333Y-62610714D01*
X114428571Y-62610714D01*
X114761904Y-63277380D02*
X114761904Y-62277380D01*
X114857142Y-62896428D02*
X115142857Y-63277380D01*
X115142857Y-62610714D02*
X114761904Y-62991666D01*
X115523809Y-63229761D02*
X115619047Y-63277380D01*
X115809523Y-63277380D01*
X115904761Y-63229761D01*
X115952380Y-63134523D01*
X115952380Y-63086904D01*
X115904761Y-62991666D01*
X115809523Y-62944047D01*
X115666666Y-62944047D01*
X115571428Y-62896428D01*
X115523809Y-62801190D01*
X115523809Y-62753571D01*
X115571428Y-62658333D01*
X115666666Y-62610714D01*
X115809523Y-62610714D01*
X115904761Y-62658333D01*
X116380952Y-63182142D02*
X116428571Y-63229761D01*
X116380952Y-63277380D01*
X116333333Y-63229761D01*
X116380952Y-63182142D01*
X116380952Y-63277380D01*
X116380952Y-62896428D02*
X116333333Y-62325000D01*
X116380952Y-62277380D01*
X116428571Y-62325000D01*
X116380952Y-62896428D01*
X116380952Y-62277380D01*
X116857142Y-63182142D02*
X116904761Y-63229761D01*
X116857142Y-63277380D01*
X116809523Y-63229761D01*
X116857142Y-63182142D01*
X116857142Y-63277380D01*
X117333333Y-63182142D02*
X117380952Y-63229761D01*
X117333333Y-63277380D01*
X117285714Y-63229761D01*
X117333333Y-63182142D01*
X117333333Y-63277380D01*
X104127380Y-132500000D02*
X103651190Y-132833333D01*
X104127380Y-133071428D02*
X103127380Y-133071428D01*
X103127380Y-132690476D01*
X103175000Y-132595238D01*
X103222619Y-132547619D01*
X103317857Y-132500000D01*
X103460714Y-132500000D01*
X103555952Y-132547619D01*
X103603571Y-132595238D01*
X103651190Y-132690476D01*
X103651190Y-133071428D01*
X104127380Y-132071428D02*
X103460714Y-132071428D01*
X103127380Y-132071428D02*
X103175000Y-132119047D01*
X103222619Y-132071428D01*
X103175000Y-132023809D01*
X103127380Y-132071428D01*
X103222619Y-132071428D01*
X104079761Y-131166666D02*
X104127380Y-131261904D01*
X104127380Y-131452380D01*
X104079761Y-131547619D01*
X104032142Y-131595238D01*
X103936904Y-131642857D01*
X103651190Y-131642857D01*
X103555952Y-131595238D01*
X103508333Y-131547619D01*
X103460714Y-131452380D01*
X103460714Y-131261904D01*
X103508333Y-131166666D01*
X104127380Y-130738095D02*
X103127380Y-130738095D01*
X104127380Y-130309523D02*
X103603571Y-130309523D01*
X103508333Y-130357142D01*
X103460714Y-130452380D01*
X103460714Y-130595238D01*
X103508333Y-130690476D01*
X103555952Y-130738095D01*
X103127380Y-128785714D02*
X103841666Y-128785714D01*
X103984523Y-128833333D01*
X104079761Y-128928571D01*
X104127380Y-129071428D01*
X104127380Y-129166666D01*
X104127380Y-128166666D02*
X104079761Y-128261904D01*
X104032142Y-128309523D01*
X103936904Y-128357142D01*
X103651190Y-128357142D01*
X103555952Y-128309523D01*
X103508333Y-128261904D01*
X103460714Y-128166666D01*
X103460714Y-128023809D01*
X103508333Y-127928571D01*
X103555952Y-127880952D01*
X103651190Y-127833333D01*
X103936904Y-127833333D01*
X104032142Y-127880952D01*
X104079761Y-127928571D01*
X104127380Y-128023809D01*
X104127380Y-128166666D01*
X103460714Y-127404761D02*
X104127380Y-127404761D01*
X103555952Y-127404761D02*
X103508333Y-127357142D01*
X103460714Y-127261904D01*
X103460714Y-127119047D01*
X103508333Y-127023809D01*
X103603571Y-126976190D01*
X104127380Y-126976190D01*
X104079761Y-126119047D02*
X104127380Y-126214285D01*
X104127380Y-126404761D01*
X104079761Y-126500000D01*
X103984523Y-126547619D01*
X103603571Y-126547619D01*
X103508333Y-126500000D01*
X103460714Y-126404761D01*
X103460714Y-126214285D01*
X103508333Y-126119047D01*
X103603571Y-126071428D01*
X103698809Y-126071428D01*
X103794047Y-126547619D01*
X104079761Y-125690476D02*
X104127380Y-125595238D01*
X104127380Y-125404761D01*
X104079761Y-125309523D01*
X103984523Y-125261904D01*
X103936904Y-125261904D01*
X103841666Y-125309523D01*
X103794047Y-125404761D01*
X103794047Y-125547619D01*
X103746428Y-125642857D01*
X103651190Y-125690476D01*
X103603571Y-125690476D01*
X103508333Y-125642857D01*
X103460714Y-125547619D01*
X103460714Y-125404761D01*
X103508333Y-125309523D01*
X103651190Y-123452380D02*
X103603571Y-123500000D01*
X103555952Y-123595238D01*
X103555952Y-123690476D01*
X103603571Y-123785714D01*
X103651190Y-123833333D01*
X103746428Y-123880952D01*
X103841666Y-123880952D01*
X103936904Y-123833333D01*
X103984523Y-123785714D01*
X104032142Y-123690476D01*
X104032142Y-123595238D01*
X103984523Y-123500000D01*
X103936904Y-123452380D01*
X103555952Y-123452380D02*
X103936904Y-123452380D01*
X103984523Y-123404761D01*
X103984523Y-123357142D01*
X103936904Y-123261904D01*
X103841666Y-123214285D01*
X103603571Y-123214285D01*
X103460714Y-123309523D01*
X103365476Y-123452380D01*
X103317857Y-123642857D01*
X103365476Y-123833333D01*
X103460714Y-123976190D01*
X103603571Y-124071428D01*
X103794047Y-124119047D01*
X103984523Y-124071428D01*
X104127380Y-123976190D01*
X104222619Y-123833333D01*
X104270238Y-123642857D01*
X104222619Y-123452380D01*
X104127380Y-123309523D01*
X103603571Y-122452380D02*
X103651190Y-122309523D01*
X103698809Y-122261904D01*
X103794047Y-122214285D01*
X103936904Y-122214285D01*
X104032142Y-122261904D01*
X104079761Y-122309523D01*
X104127380Y-122404761D01*
X104127380Y-122785714D01*
X103127380Y-122785714D01*
X103127380Y-122452380D01*
X103175000Y-122357142D01*
X103222619Y-122309523D01*
X103317857Y-122261904D01*
X103413095Y-122261904D01*
X103508333Y-122309523D01*
X103555952Y-122357142D01*
X103603571Y-122452380D01*
X103603571Y-122785714D01*
X104127380Y-121642857D02*
X104079761Y-121738095D01*
X103984523Y-121785714D01*
X103127380Y-121785714D01*
X104127380Y-120833333D02*
X103603571Y-120833333D01*
X103508333Y-120880952D01*
X103460714Y-120976190D01*
X103460714Y-121166666D01*
X103508333Y-121261904D01*
X104079761Y-120833333D02*
X104127380Y-120928571D01*
X104127380Y-121166666D01*
X104079761Y-121261904D01*
X103984523Y-121309523D01*
X103889285Y-121309523D01*
X103794047Y-121261904D01*
X103746428Y-121166666D01*
X103746428Y-120928571D01*
X103698809Y-120833333D01*
X104079761Y-119928571D02*
X104127380Y-120023809D01*
X104127380Y-120214285D01*
X104079761Y-120309523D01*
X104032142Y-120357142D01*
X103936904Y-120404761D01*
X103651190Y-120404761D01*
X103555952Y-120357142D01*
X103508333Y-120309523D01*
X103460714Y-120214285D01*
X103460714Y-120023809D01*
X103508333Y-119928571D01*
X104127380Y-119500000D02*
X103127380Y-119500000D01*
X103746428Y-119404761D02*
X104127380Y-119119047D01*
X103460714Y-119119047D02*
X103841666Y-119500000D01*
X104127380Y-118690476D02*
X103127380Y-118690476D01*
X103127380Y-118452380D01*
X103175000Y-118309523D01*
X103270238Y-118214285D01*
X103365476Y-118166666D01*
X103555952Y-118119047D01*
X103698809Y-118119047D01*
X103889285Y-118166666D01*
X103984523Y-118214285D01*
X104079761Y-118309523D01*
X104127380Y-118452380D01*
X104127380Y-118690476D01*
X104079761Y-117309523D02*
X104127380Y-117404761D01*
X104127380Y-117595238D01*
X104079761Y-117690476D01*
X103984523Y-117738095D01*
X103603571Y-117738095D01*
X103508333Y-117690476D01*
X103460714Y-117595238D01*
X103460714Y-117404761D01*
X103508333Y-117309523D01*
X103603571Y-117261904D01*
X103698809Y-117261904D01*
X103794047Y-117738095D01*
X104127380Y-116404761D02*
X103603571Y-116404761D01*
X103508333Y-116452380D01*
X103460714Y-116547619D01*
X103460714Y-116738095D01*
X103508333Y-116833333D01*
X104079761Y-116404761D02*
X104127380Y-116500000D01*
X104127380Y-116738095D01*
X104079761Y-116833333D01*
X103984523Y-116880952D01*
X103889285Y-116880952D01*
X103794047Y-116833333D01*
X103746428Y-116738095D01*
X103746428Y-116500000D01*
X103698809Y-116404761D01*
X103460714Y-116071428D02*
X103460714Y-115690476D01*
X103127380Y-115928571D02*
X103984523Y-115928571D01*
X104079761Y-115880952D01*
X104127380Y-115785714D01*
X104127380Y-115690476D01*
X104127380Y-115357142D02*
X103127380Y-115357142D01*
X104127380Y-114928571D02*
X103603571Y-114928571D01*
X103508333Y-114976190D01*
X103460714Y-115071428D01*
X103460714Y-115214285D01*
X103508333Y-115309523D01*
X103555952Y-115357142D01*
X105777380Y-129690476D02*
X105777380Y-130166666D01*
X104777380Y-130166666D01*
X105777380Y-129357142D02*
X104777380Y-129357142D01*
X105491666Y-129023809D01*
X104777380Y-128690476D01*
X105777380Y-128690476D01*
X105777380Y-128214285D02*
X104777380Y-128214285D01*
X105777380Y-127642857D01*
X104777380Y-127642857D01*
X105682142Y-126595238D02*
X105729761Y-126642857D01*
X105777380Y-126785714D01*
X105777380Y-126880952D01*
X105729761Y-127023809D01*
X105634523Y-127119047D01*
X105539285Y-127166666D01*
X105348809Y-127214285D01*
X105205952Y-127214285D01*
X105015476Y-127166666D01*
X104920238Y-127119047D01*
X104825000Y-127023809D01*
X104777380Y-126880952D01*
X104777380Y-126785714D01*
X104825000Y-126642857D01*
X104872619Y-126595238D01*
X104825000Y-124880952D02*
X104777380Y-124976190D01*
X104777380Y-125119047D01*
X104825000Y-125261904D01*
X104920238Y-125357142D01*
X105015476Y-125404761D01*
X105205952Y-125452380D01*
X105348809Y-125452380D01*
X105539285Y-125404761D01*
X105634523Y-125357142D01*
X105729761Y-125261904D01*
X105777380Y-125119047D01*
X105777380Y-125023809D01*
X105729761Y-124880952D01*
X105682142Y-124833333D01*
X105348809Y-124833333D01*
X105348809Y-125023809D01*
X105777380Y-124261904D02*
X105729761Y-124357142D01*
X105682142Y-124404761D01*
X105586904Y-124452380D01*
X105301190Y-124452380D01*
X105205952Y-124404761D01*
X105158333Y-124357142D01*
X105110714Y-124261904D01*
X105110714Y-124119047D01*
X105158333Y-124023809D01*
X105205952Y-123976190D01*
X105301190Y-123928571D01*
X105586904Y-123928571D01*
X105682142Y-123976190D01*
X105729761Y-124023809D01*
X105777380Y-124119047D01*
X105777380Y-124261904D01*
X105777380Y-123357142D02*
X105729761Y-123452380D01*
X105634523Y-123500000D01*
X104777380Y-123500000D01*
X105110714Y-123119047D02*
X105110714Y-122738095D01*
X105777380Y-122976190D02*
X104920238Y-122976190D01*
X104825000Y-122928571D01*
X104777380Y-122833333D01*
X104777380Y-122738095D01*
X104872619Y-121690476D02*
X104825000Y-121642857D01*
X104777380Y-121547619D01*
X104777380Y-121309523D01*
X104825000Y-121214285D01*
X104872619Y-121166666D01*
X104967857Y-121119047D01*
X105063095Y-121119047D01*
X105205952Y-121166666D01*
X105777380Y-121738095D01*
X105777380Y-121119047D01*
X104777380Y-120500000D02*
X104777380Y-120404761D01*
X104825000Y-120309523D01*
X104872619Y-120261904D01*
X104967857Y-120214285D01*
X105158333Y-120166666D01*
X105396428Y-120166666D01*
X105586904Y-120214285D01*
X105682142Y-120261904D01*
X105729761Y-120309523D01*
X105777380Y-120404761D01*
X105777380Y-120500000D01*
X105729761Y-120595238D01*
X105682142Y-120642857D01*
X105586904Y-120690476D01*
X105396428Y-120738095D01*
X105158333Y-120738095D01*
X104967857Y-120690476D01*
X104872619Y-120642857D01*
X104825000Y-120595238D01*
X104777380Y-120500000D01*
X104872619Y-119785714D02*
X104825000Y-119738095D01*
X104777380Y-119642857D01*
X104777380Y-119404761D01*
X104825000Y-119309523D01*
X104872619Y-119261904D01*
X104967857Y-119214285D01*
X105063095Y-119214285D01*
X105205952Y-119261904D01*
X105777380Y-119833333D01*
X105777380Y-119214285D01*
X105777380Y-118261904D02*
X105777380Y-118833333D01*
X105777380Y-118547619D02*
X104777380Y-118547619D01*
X104920238Y-118642857D01*
X105015476Y-118738095D01*
X105063095Y-118833333D01*
X105682142Y-117833333D02*
X105729761Y-117785714D01*
X105777380Y-117833333D01*
X105729761Y-117880952D01*
X105682142Y-117833333D01*
X105777380Y-117833333D01*
X105396428Y-117833333D02*
X104825000Y-117880952D01*
X104777380Y-117833333D01*
X104825000Y-117785714D01*
X105396428Y-117833333D01*
X104777380Y-117833333D01*
D11*
X113892857Y-138778236D02*
X113892857Y-139278236D01*
X114678571Y-139376450D02*
X113178571Y-139188950D01*
X113178571Y-138474665D01*
X113678571Y-137322879D02*
X114678571Y-137447879D01*
X113678571Y-137965736D02*
X114464285Y-138063950D01*
X114607142Y-138010379D01*
X114678571Y-137876450D01*
X114678571Y-137662165D01*
X114607142Y-137510379D01*
X114535714Y-137430022D01*
X114678571Y-136519308D02*
X114607142Y-136653236D01*
X114464285Y-136706808D01*
X113178571Y-136546093D01*
X114678571Y-135733593D02*
X114607142Y-135867522D01*
X114464285Y-135921093D01*
X113178571Y-135760379D01*
X113178571Y-133974665D02*
X114678571Y-133805022D01*
X113607142Y-133385379D01*
X114678571Y-133233593D01*
X113178571Y-132688950D01*
X114678571Y-131662165D02*
X113892857Y-131563950D01*
X113750000Y-131617522D01*
X113678571Y-131751450D01*
X113678571Y-132037165D01*
X113750000Y-132188950D01*
X114607142Y-131653236D02*
X114678571Y-131805022D01*
X114678571Y-132162165D01*
X114607142Y-132296093D01*
X114464285Y-132349665D01*
X114321428Y-132331808D01*
X114178571Y-132242522D01*
X114107142Y-132090736D01*
X114107142Y-131733593D01*
X114035714Y-131581808D01*
X113678571Y-130965736D02*
X114678571Y-130733593D01*
X113678571Y-130251450D01*
X114607142Y-129224665D02*
X114678571Y-129376450D01*
X114678571Y-129662165D01*
X114607142Y-129796093D01*
X114464285Y-129849665D01*
X113892857Y-129778236D01*
X113750000Y-129688950D01*
X113678571Y-129537165D01*
X113678571Y-129251450D01*
X113750000Y-129117522D01*
X113892857Y-129063950D01*
X114035714Y-129081808D01*
X114178571Y-129813950D01*
X114678571Y-126519308D02*
X113964285Y-126930022D01*
X114678571Y-127376450D02*
X113178571Y-127188950D01*
X113178571Y-126617522D01*
X113250000Y-126483593D01*
X113321428Y-126421093D01*
X113464285Y-126367522D01*
X113678571Y-126394308D01*
X113821428Y-126483593D01*
X113892857Y-126563950D01*
X113964285Y-126715736D01*
X113964285Y-127287165D01*
X114607142Y-125296093D02*
X114678571Y-125447879D01*
X114678571Y-125733593D01*
X114607142Y-125867522D01*
X114464285Y-125921093D01*
X113892857Y-125849665D01*
X113750000Y-125760379D01*
X113678571Y-125608593D01*
X113678571Y-125322879D01*
X113750000Y-125188950D01*
X113892857Y-125135379D01*
X114035714Y-125153236D01*
X114178571Y-125885379D01*
X114607142Y-123938950D02*
X114678571Y-124090736D01*
X114678571Y-124376450D01*
X114607142Y-124510379D01*
X114535714Y-124572879D01*
X114392857Y-124626450D01*
X113964285Y-124572879D01*
X113821428Y-124483593D01*
X113750000Y-124403236D01*
X113678571Y-124251450D01*
X113678571Y-123965736D01*
X113750000Y-123831808D01*
X113678571Y-123394308D02*
X113678571Y-122822879D01*
X113178571Y-123117522D02*
X114464285Y-123278236D01*
X114607142Y-123224665D01*
X114678571Y-123090736D01*
X114678571Y-122947879D01*
X114678571Y-122447879D02*
X113678571Y-122322879D01*
X113178571Y-122260379D02*
X113250000Y-122340736D01*
X113321428Y-122278236D01*
X113250000Y-122197879D01*
X113178571Y-122260379D01*
X113321428Y-122278236D01*
X113678571Y-121822879D02*
X113678571Y-121251450D01*
X114678571Y-121733593D02*
X113392857Y-121572879D01*
X113250000Y-121483593D01*
X113178571Y-121331808D01*
X113178571Y-121188950D01*
X114678571Y-120876450D02*
X113678571Y-120751450D01*
X113178571Y-120688950D02*
X113250000Y-120769308D01*
X113321428Y-120706808D01*
X113250000Y-120626450D01*
X113178571Y-120688950D01*
X113321428Y-120706808D01*
X114607142Y-119581808D02*
X114678571Y-119733593D01*
X114678571Y-120019308D01*
X114607142Y-120153236D01*
X114464285Y-120206808D01*
X113892857Y-120135379D01*
X113750000Y-120046093D01*
X113678571Y-119894308D01*
X113678571Y-119608593D01*
X113750000Y-119474665D01*
X113892857Y-119421093D01*
X114035714Y-119438950D01*
X114178571Y-120171093D01*
X114678571Y-118876450D02*
X113678571Y-118751450D01*
X113964285Y-118787165D02*
X113821428Y-118697879D01*
X113750000Y-118617522D01*
X113678571Y-118465736D01*
X113678571Y-118322879D01*
X114535714Y-117930022D02*
X114607142Y-117867522D01*
X114678571Y-117947879D01*
X114607142Y-118010379D01*
X114535714Y-117930022D01*
X114678571Y-117947879D01*
X114107142Y-117876450D02*
X113250000Y-117840736D01*
X113178571Y-117760379D01*
X113250000Y-117697879D01*
X114107142Y-117876450D01*
X113178571Y-117760379D01*
D12*
%TO.C,C6*%
X136620000Y-92000000D02*
G75*
G03*
X136620000Y-92000000I-2620000J0D01*
G01*
X134000000Y-93040000D02*
X134000000Y-94580000D01*
X134000000Y-89420000D02*
X134000000Y-90960000D01*
X134040000Y-93040000D02*
X134040000Y-94580000D01*
X134040000Y-89420000D02*
X134040000Y-90960000D01*
X134080000Y-89421000D02*
X134080000Y-90960000D01*
X134080000Y-93040000D02*
X134080000Y-94579000D01*
X134120000Y-89422000D02*
X134120000Y-90960000D01*
X134120000Y-93040000D02*
X134120000Y-94578000D01*
X134160000Y-89424000D02*
X134160000Y-90960000D01*
X134160000Y-93040000D02*
X134160000Y-94576000D01*
X134200000Y-89427000D02*
X134200000Y-90960000D01*
X134200000Y-93040000D02*
X134200000Y-94573000D01*
X134240000Y-89431000D02*
X134240000Y-90960000D01*
X134240000Y-93040000D02*
X134240000Y-94569000D01*
X134280000Y-89435000D02*
X134280000Y-90960000D01*
X134280000Y-93040000D02*
X134280000Y-94565000D01*
X134320000Y-89439000D02*
X134320000Y-90960000D01*
X134320000Y-93040000D02*
X134320000Y-94561000D01*
X134360000Y-89444000D02*
X134360000Y-90960000D01*
X134360000Y-93040000D02*
X134360000Y-94556000D01*
X134400000Y-89450000D02*
X134400000Y-90960000D01*
X134400000Y-93040000D02*
X134400000Y-94550000D01*
X134440000Y-89457000D02*
X134440000Y-90960000D01*
X134440000Y-93040000D02*
X134440000Y-94543000D01*
X134480000Y-89464000D02*
X134480000Y-90960000D01*
X134480000Y-93040000D02*
X134480000Y-94536000D01*
X134520000Y-89472000D02*
X134520000Y-90960000D01*
X134520000Y-93040000D02*
X134520000Y-94528000D01*
X134560000Y-89480000D02*
X134560000Y-90960000D01*
X134560000Y-93040000D02*
X134560000Y-94520000D01*
X134600000Y-89489000D02*
X134600000Y-90960000D01*
X134600000Y-93040000D02*
X134600000Y-94511000D01*
X134640000Y-89499000D02*
X134640000Y-90960000D01*
X134640000Y-93040000D02*
X134640000Y-94501000D01*
X134680000Y-89509000D02*
X134680000Y-90960000D01*
X134680000Y-93040000D02*
X134680000Y-94491000D01*
X134721000Y-89520000D02*
X134721000Y-90960000D01*
X134721000Y-93040000D02*
X134721000Y-94480000D01*
X134761000Y-89532000D02*
X134761000Y-90960000D01*
X134761000Y-93040000D02*
X134761000Y-94468000D01*
X134801000Y-89545000D02*
X134801000Y-90960000D01*
X134801000Y-93040000D02*
X134801000Y-94455000D01*
X134841000Y-89558000D02*
X134841000Y-90960000D01*
X134841000Y-93040000D02*
X134841000Y-94442000D01*
X134881000Y-89572000D02*
X134881000Y-90960000D01*
X134881000Y-93040000D02*
X134881000Y-94428000D01*
X134921000Y-89586000D02*
X134921000Y-90960000D01*
X134921000Y-93040000D02*
X134921000Y-94414000D01*
X134961000Y-89602000D02*
X134961000Y-90960000D01*
X134961000Y-93040000D02*
X134961000Y-94398000D01*
X135001000Y-89618000D02*
X135001000Y-90960000D01*
X135001000Y-93040000D02*
X135001000Y-94382000D01*
X135041000Y-89635000D02*
X135041000Y-90960000D01*
X135041000Y-93040000D02*
X135041000Y-94365000D01*
X135081000Y-89652000D02*
X135081000Y-90960000D01*
X135081000Y-93040000D02*
X135081000Y-94348000D01*
X135121000Y-89671000D02*
X135121000Y-90960000D01*
X135121000Y-93040000D02*
X135121000Y-94329000D01*
X135161000Y-89690000D02*
X135161000Y-90960000D01*
X135161000Y-93040000D02*
X135161000Y-94310000D01*
X135201000Y-89710000D02*
X135201000Y-90960000D01*
X135201000Y-93040000D02*
X135201000Y-94290000D01*
X135241000Y-89732000D02*
X135241000Y-90960000D01*
X135241000Y-93040000D02*
X135241000Y-94268000D01*
X135281000Y-89753000D02*
X135281000Y-90960000D01*
X135281000Y-93040000D02*
X135281000Y-94247000D01*
X135321000Y-89776000D02*
X135321000Y-90960000D01*
X135321000Y-93040000D02*
X135321000Y-94224000D01*
X135361000Y-89800000D02*
X135361000Y-90960000D01*
X135361000Y-93040000D02*
X135361000Y-94200000D01*
X135401000Y-89825000D02*
X135401000Y-90960000D01*
X135401000Y-93040000D02*
X135401000Y-94175000D01*
X135441000Y-89851000D02*
X135441000Y-90960000D01*
X135441000Y-93040000D02*
X135441000Y-94149000D01*
X135481000Y-89878000D02*
X135481000Y-90960000D01*
X135481000Y-93040000D02*
X135481000Y-94122000D01*
X135521000Y-89905000D02*
X135521000Y-90960000D01*
X135521000Y-93040000D02*
X135521000Y-94095000D01*
X135561000Y-89935000D02*
X135561000Y-90960000D01*
X135561000Y-93040000D02*
X135561000Y-94065000D01*
X135601000Y-89965000D02*
X135601000Y-90960000D01*
X135601000Y-93040000D02*
X135601000Y-94035000D01*
X135641000Y-89996000D02*
X135641000Y-90960000D01*
X135641000Y-93040000D02*
X135641000Y-94004000D01*
X135681000Y-90029000D02*
X135681000Y-90960000D01*
X135681000Y-93040000D02*
X135681000Y-93971000D01*
X135721000Y-90063000D02*
X135721000Y-90960000D01*
X135721000Y-93040000D02*
X135721000Y-93937000D01*
X135761000Y-90099000D02*
X135761000Y-90960000D01*
X135761000Y-93040000D02*
X135761000Y-93901000D01*
X135801000Y-90136000D02*
X135801000Y-90960000D01*
X135801000Y-93040000D02*
X135801000Y-93864000D01*
X135841000Y-90174000D02*
X135841000Y-90960000D01*
X135841000Y-93040000D02*
X135841000Y-93826000D01*
X135881000Y-90215000D02*
X135881000Y-90960000D01*
X135881000Y-93040000D02*
X135881000Y-93785000D01*
X135921000Y-90257000D02*
X135921000Y-90960000D01*
X135921000Y-93040000D02*
X135921000Y-93743000D01*
X135961000Y-90301000D02*
X135961000Y-90960000D01*
X135961000Y-93040000D02*
X135961000Y-93699000D01*
X136001000Y-90347000D02*
X136001000Y-90960000D01*
X136001000Y-93040000D02*
X136001000Y-93653000D01*
X136041000Y-90395000D02*
X136041000Y-93605000D01*
X136081000Y-90446000D02*
X136081000Y-93554000D01*
X136121000Y-90500000D02*
X136121000Y-93500000D01*
X136161000Y-90557000D02*
X136161000Y-93443000D01*
X136201000Y-90617000D02*
X136201000Y-93383000D01*
X136241000Y-90681000D02*
X136241000Y-93319000D01*
X136281000Y-90749000D02*
X136281000Y-93251000D01*
X136321000Y-90822000D02*
X136321000Y-93178000D01*
X136361000Y-90902000D02*
X136361000Y-93098000D01*
X136401000Y-90989000D02*
X136401000Y-93011000D01*
X136441000Y-91085000D02*
X136441000Y-92915000D01*
X136481000Y-91195000D02*
X136481000Y-92805000D01*
X136521000Y-91323000D02*
X136521000Y-92677000D01*
X136561000Y-91482000D02*
X136561000Y-92518000D01*
X136601000Y-91716000D02*
X136601000Y-92284000D01*
X131195225Y-90525000D02*
X131695225Y-90525000D01*
X131445225Y-90275000D02*
X131445225Y-90775000D01*
%TO.C,1N4733*%
X106735001Y-93385001D02*
X106735001Y-96325001D01*
X106735001Y-96325001D02*
X112175001Y-96325001D01*
X112175001Y-96325001D02*
X112175001Y-93385001D01*
X112175001Y-93385001D02*
X106735001Y-93385001D01*
X105715001Y-94855001D02*
X106735001Y-94855001D01*
X113195001Y-94855001D02*
X112175001Y-94855001D01*
X107635001Y-93385001D02*
X107635001Y-96325001D01*
X107755001Y-93385001D02*
X107755001Y-96325001D01*
X107515001Y-93385001D02*
X107515001Y-96325001D01*
%TO.C,C1*%
X130780000Y-79130000D02*
X138220000Y-79130000D01*
X130780000Y-81870000D02*
X138220000Y-81870000D01*
X130780000Y-79130000D02*
X130780000Y-81870000D01*
X138220000Y-79130000D02*
X138220000Y-81870000D01*
%TO.C,C2*%
X141621000Y-77580000D02*
X142879000Y-77580000D01*
X141621000Y-79420000D02*
X142879000Y-79420000D01*
%TO.C,C3*%
X141621000Y-75920000D02*
X142879000Y-75920000D01*
X141621000Y-74080000D02*
X142879000Y-74080000D01*
%TO.C,C4*%
X137720000Y-115630000D02*
X137720000Y-118370000D01*
X130280000Y-115630000D02*
X130280000Y-118370000D01*
X130280000Y-118370000D02*
X137720000Y-118370000D01*
X130280000Y-115630000D02*
X137720000Y-115630000D01*
%TO.C,1N4148*%
X107190000Y-105880000D02*
X107190000Y-108120000D01*
X107190000Y-108120000D02*
X111430000Y-108120000D01*
X111430000Y-108120000D02*
X111430000Y-105880000D01*
X111430000Y-105880000D02*
X107190000Y-105880000D01*
X106540000Y-107000000D02*
X107190000Y-107000000D01*
X112080000Y-107000000D02*
X111430000Y-107000000D01*
X107910000Y-105880000D02*
X107910000Y-108120000D01*
X108030000Y-105880000D02*
X108030000Y-108120000D01*
X107790000Y-105880000D02*
X107790000Y-108120000D01*
X107790000Y-109880000D02*
X107790000Y-112120000D01*
X108030000Y-109880000D02*
X108030000Y-112120000D01*
X107910000Y-109880000D02*
X107910000Y-112120000D01*
X112080000Y-111000000D02*
X111430000Y-111000000D01*
X106540000Y-111000000D02*
X107190000Y-111000000D01*
X111430000Y-109880000D02*
X107190000Y-109880000D01*
X111430000Y-112120000D02*
X111430000Y-109880000D01*
X107190000Y-112120000D02*
X111430000Y-112120000D01*
X107190000Y-109880000D02*
X107190000Y-112120000D01*
%TO.C,1N4733*%
X107515001Y-98530000D02*
X107515001Y-101470000D01*
X107755001Y-98530000D02*
X107755001Y-101470000D01*
X107635001Y-98530000D02*
X107635001Y-101470000D01*
X113195001Y-100000000D02*
X112175001Y-100000000D01*
X105715001Y-100000000D02*
X106735001Y-100000000D01*
X112175001Y-98530000D02*
X106735001Y-98530000D01*
X112175001Y-101470000D02*
X112175001Y-98530000D01*
X106735001Y-101470000D02*
X112175001Y-101470000D01*
X106735001Y-98530000D02*
X106735001Y-101470000D01*
%TO.C,FB1*%
X146080000Y-85870000D02*
X146080000Y-85540000D01*
X139540000Y-85870000D02*
X146080000Y-85870000D01*
X139540000Y-85540000D02*
X139540000Y-85870000D01*
X146080000Y-83130000D02*
X146080000Y-83460000D01*
X139540000Y-83130000D02*
X146080000Y-83130000D01*
X139540000Y-83460000D02*
X139540000Y-83130000D01*
%TO.C,FB2*%
X139040000Y-111960000D02*
X139040000Y-111630000D01*
X139040000Y-111630000D02*
X145580000Y-111630000D01*
X145580000Y-111630000D02*
X145580000Y-111960000D01*
X139040000Y-114040000D02*
X139040000Y-114370000D01*
X139040000Y-114370000D02*
X145580000Y-114370000D01*
X145580000Y-114370000D02*
X145580000Y-114040000D01*
%TO.C,J3*%
X147445000Y-89150000D02*
X147445000Y-110010000D01*
X147445000Y-110010000D02*
X138095000Y-110010000D01*
X138095000Y-110010000D02*
X138095000Y-89150000D01*
X138095000Y-89150000D02*
X147445000Y-89150000D01*
X138350000Y-89400000D02*
X147200000Y-89400000D01*
X147200000Y-89400000D02*
X147200000Y-109750000D01*
X147200000Y-109750000D02*
X138350000Y-109750000D01*
X138350000Y-109750000D02*
X138350000Y-89400000D01*
X138350000Y-89400000D02*
X138900000Y-89950000D01*
X138900000Y-89950000D02*
X146650000Y-89950000D01*
X146650000Y-89950000D02*
X147200000Y-89400000D01*
X146650000Y-89950000D02*
X146650000Y-109200000D01*
X146650000Y-109200000D02*
X147200000Y-109750000D01*
X146650000Y-109200000D02*
X138900000Y-109200000D01*
X138900000Y-109200000D02*
X138400000Y-109700000D01*
X138900000Y-109200000D02*
X138900000Y-101850000D01*
X138900000Y-101830000D02*
X138390000Y-101830000D01*
X138400000Y-97330000D02*
X138880000Y-97330000D01*
X138900000Y-97330000D02*
X138900000Y-89950000D01*
%TO.C,R1*%
X120040000Y-82460000D02*
X120040000Y-82130000D01*
X120040000Y-82130000D02*
X126580000Y-82130000D01*
X126580000Y-82130000D02*
X126580000Y-82460000D01*
X120040000Y-84540000D02*
X120040000Y-84870000D01*
X120040000Y-84870000D02*
X126580000Y-84870000D01*
X126580000Y-84870000D02*
X126580000Y-84540000D01*
%TO.C,R2*%
X126580000Y-69370000D02*
X126580000Y-69040000D01*
X120040000Y-69370000D02*
X126580000Y-69370000D01*
X120040000Y-69040000D02*
X120040000Y-69370000D01*
X126580000Y-66630000D02*
X126580000Y-66960000D01*
X120040000Y-66630000D02*
X126580000Y-66630000D01*
X120040000Y-66960000D02*
X120040000Y-66630000D01*
%TO.C,R3*%
X126580000Y-74370000D02*
X126580000Y-74040000D01*
X120040000Y-74370000D02*
X126580000Y-74370000D01*
X120040000Y-74040000D02*
X120040000Y-74370000D01*
X126580000Y-71630000D02*
X126580000Y-71960000D01*
X120040000Y-71630000D02*
X126580000Y-71630000D01*
X120040000Y-71960000D02*
X120040000Y-71630000D01*
%TO.C,R4*%
X133040000Y-124960000D02*
X133040000Y-124630000D01*
X133040000Y-124630000D02*
X139580000Y-124630000D01*
X139580000Y-124630000D02*
X139580000Y-124960000D01*
X133040000Y-127040000D02*
X133040000Y-127370000D01*
X133040000Y-127370000D02*
X139580000Y-127370000D01*
X139580000Y-127370000D02*
X139580000Y-127040000D01*
%TO.C,R5*%
X120040000Y-129960000D02*
X120040000Y-129630000D01*
X120040000Y-129630000D02*
X126580000Y-129630000D01*
X126580000Y-129630000D02*
X126580000Y-129960000D01*
X120040000Y-132040000D02*
X120040000Y-132370000D01*
X120040000Y-132370000D02*
X126580000Y-132370000D01*
X126580000Y-132370000D02*
X126580000Y-132040000D01*
%TO.C,R6*%
X139580000Y-136870000D02*
X139580000Y-136540000D01*
X133040000Y-136870000D02*
X139580000Y-136870000D01*
X133040000Y-136540000D02*
X133040000Y-136870000D01*
X139580000Y-134130000D02*
X139580000Y-134460000D01*
X133040000Y-134130000D02*
X139580000Y-134130000D01*
X133040000Y-134460000D02*
X133040000Y-134130000D01*
%TO.C,R7*%
X139580000Y-132370000D02*
X139580000Y-132040000D01*
X133040000Y-132370000D02*
X139580000Y-132370000D01*
X133040000Y-132040000D02*
X133040000Y-132370000D01*
X139580000Y-129630000D02*
X139580000Y-129960000D01*
X133040000Y-129630000D02*
X139580000Y-129630000D01*
X133040000Y-129960000D02*
X133040000Y-129630000D01*
%TO.C,R8*%
X120040000Y-134460000D02*
X120040000Y-134130000D01*
X120040000Y-134130000D02*
X126580000Y-134130000D01*
X126580000Y-134130000D02*
X126580000Y-134460000D01*
X120040000Y-136540000D02*
X120040000Y-136870000D01*
X120040000Y-136870000D02*
X126580000Y-136870000D01*
X126580000Y-136870000D02*
X126580000Y-136540000D01*
%TO.C,R9*%
X133040000Y-138960000D02*
X133040000Y-138630000D01*
X133040000Y-138630000D02*
X139580000Y-138630000D01*
X139580000Y-138630000D02*
X139580000Y-138960000D01*
X133040000Y-141040000D02*
X133040000Y-141370000D01*
X133040000Y-141370000D02*
X139580000Y-141370000D01*
X139580000Y-141370000D02*
X139580000Y-141040000D01*
%TO.C,R10*%
X126580000Y-127370000D02*
X126580000Y-127040000D01*
X120040000Y-127370000D02*
X126580000Y-127370000D01*
X120040000Y-127040000D02*
X120040000Y-127370000D01*
X126580000Y-124630000D02*
X126580000Y-124960000D01*
X120040000Y-124630000D02*
X126580000Y-124630000D01*
X120040000Y-124960000D02*
X120040000Y-124630000D01*
%TO.C,R11*%
X126580000Y-141370000D02*
X126580000Y-141040000D01*
X120040000Y-141370000D02*
X126580000Y-141370000D01*
X120040000Y-141040000D02*
X120040000Y-141370000D01*
X126580000Y-138630000D02*
X126580000Y-138960000D01*
X120040000Y-138630000D02*
X126580000Y-138630000D01*
X120040000Y-138960000D02*
X120040000Y-138630000D01*
%TO.C,R12*%
X126580000Y-89870000D02*
X126580000Y-89540000D01*
X120040000Y-89870000D02*
X126580000Y-89870000D01*
X120040000Y-89540000D02*
X120040000Y-89870000D01*
X126580000Y-87130000D02*
X126580000Y-87460000D01*
X120040000Y-87130000D02*
X126580000Y-87130000D01*
X120040000Y-87460000D02*
X120040000Y-87130000D01*
%TO.C,R13*%
X106040000Y-76960000D02*
X106040000Y-76630000D01*
X106040000Y-76630000D02*
X112580000Y-76630000D01*
X112580000Y-76630000D02*
X112580000Y-76960000D01*
X106040000Y-79040000D02*
X106040000Y-79370000D01*
X106040000Y-79370000D02*
X112580000Y-79370000D01*
X112580000Y-79370000D02*
X112580000Y-79040000D01*
%TO.C,R14*%
X120040000Y-76960000D02*
X120040000Y-76630000D01*
X120040000Y-76630000D02*
X126580000Y-76630000D01*
X126580000Y-76630000D02*
X126580000Y-76960000D01*
X120040000Y-79040000D02*
X120040000Y-79370000D01*
X120040000Y-79370000D02*
X126580000Y-79370000D01*
X126580000Y-79370000D02*
X126580000Y-79040000D01*
%TO.C,U1*%
X128560000Y-96110000D02*
X118060000Y-96110000D01*
X128560000Y-114130000D02*
X128560000Y-96110000D01*
X118060000Y-114130000D02*
X128560000Y-114130000D01*
X118060000Y-96110000D02*
X118060000Y-114130000D01*
X125560000Y-96170000D02*
X124310000Y-96170000D01*
X125560000Y-114070000D02*
X125560000Y-96170000D01*
X121060000Y-114070000D02*
X125560000Y-114070000D01*
X121060000Y-96170000D02*
X121060000Y-114070000D01*
X122310000Y-96170000D02*
X121060000Y-96170000D01*
X124310000Y-96170000D02*
G75*
G02*
X122310000Y-96170000I-1000000J0D01*
G01*
%TO.C,C5*%
X136620000Y-100500000D02*
G75*
G03*
X136620000Y-100500000I-2620000J0D01*
G01*
X134000000Y-101540000D02*
X134000000Y-103080000D01*
X134000000Y-97920000D02*
X134000000Y-99460000D01*
X134040000Y-101540000D02*
X134040000Y-103080000D01*
X134040000Y-97920000D02*
X134040000Y-99460000D01*
X134080000Y-97921000D02*
X134080000Y-99460000D01*
X134080000Y-101540000D02*
X134080000Y-103079000D01*
X134120000Y-97922000D02*
X134120000Y-99460000D01*
X134120000Y-101540000D02*
X134120000Y-103078000D01*
X134160000Y-97924000D02*
X134160000Y-99460000D01*
X134160000Y-101540000D02*
X134160000Y-103076000D01*
X134200000Y-97927000D02*
X134200000Y-99460000D01*
X134200000Y-101540000D02*
X134200000Y-103073000D01*
X134240000Y-97931000D02*
X134240000Y-99460000D01*
X134240000Y-101540000D02*
X134240000Y-103069000D01*
X134280000Y-97935000D02*
X134280000Y-99460000D01*
X134280000Y-101540000D02*
X134280000Y-103065000D01*
X134320000Y-97939000D02*
X134320000Y-99460000D01*
X134320000Y-101540000D02*
X134320000Y-103061000D01*
X134360000Y-97944000D02*
X134360000Y-99460000D01*
X134360000Y-101540000D02*
X134360000Y-103056000D01*
X134400000Y-97950000D02*
X134400000Y-99460000D01*
X134400000Y-101540000D02*
X134400000Y-103050000D01*
X134440000Y-97957000D02*
X134440000Y-99460000D01*
X134440000Y-101540000D02*
X134440000Y-103043000D01*
X134480000Y-97964000D02*
X134480000Y-99460000D01*
X134480000Y-101540000D02*
X134480000Y-103036000D01*
X134520000Y-97972000D02*
X134520000Y-99460000D01*
X134520000Y-101540000D02*
X134520000Y-103028000D01*
X134560000Y-97980000D02*
X134560000Y-99460000D01*
X134560000Y-101540000D02*
X134560000Y-103020000D01*
X134600000Y-97989000D02*
X134600000Y-99460000D01*
X134600000Y-101540000D02*
X134600000Y-103011000D01*
X134640000Y-97999000D02*
X134640000Y-99460000D01*
X134640000Y-101540000D02*
X134640000Y-103001000D01*
X134680000Y-98009000D02*
X134680000Y-99460000D01*
X134680000Y-101540000D02*
X134680000Y-102991000D01*
X134721000Y-98020000D02*
X134721000Y-99460000D01*
X134721000Y-101540000D02*
X134721000Y-102980000D01*
X134761000Y-98032000D02*
X134761000Y-99460000D01*
X134761000Y-101540000D02*
X134761000Y-102968000D01*
X134801000Y-98045000D02*
X134801000Y-99460000D01*
X134801000Y-101540000D02*
X134801000Y-102955000D01*
X134841000Y-98058000D02*
X134841000Y-99460000D01*
X134841000Y-101540000D02*
X134841000Y-102942000D01*
X134881000Y-98072000D02*
X134881000Y-99460000D01*
X134881000Y-101540000D02*
X134881000Y-102928000D01*
X134921000Y-98086000D02*
X134921000Y-99460000D01*
X134921000Y-101540000D02*
X134921000Y-102914000D01*
X134961000Y-98102000D02*
X134961000Y-99460000D01*
X134961000Y-101540000D02*
X134961000Y-102898000D01*
X135001000Y-98118000D02*
X135001000Y-99460000D01*
X135001000Y-101540000D02*
X135001000Y-102882000D01*
X135041000Y-98135000D02*
X135041000Y-99460000D01*
X135041000Y-101540000D02*
X135041000Y-102865000D01*
X135081000Y-98152000D02*
X135081000Y-99460000D01*
X135081000Y-101540000D02*
X135081000Y-102848000D01*
X135121000Y-98171000D02*
X135121000Y-99460000D01*
X135121000Y-101540000D02*
X135121000Y-102829000D01*
X135161000Y-98190000D02*
X135161000Y-99460000D01*
X135161000Y-101540000D02*
X135161000Y-102810000D01*
X135201000Y-98210000D02*
X135201000Y-99460000D01*
X135201000Y-101540000D02*
X135201000Y-102790000D01*
X135241000Y-98232000D02*
X135241000Y-99460000D01*
X135241000Y-101540000D02*
X135241000Y-102768000D01*
X135281000Y-98253000D02*
X135281000Y-99460000D01*
X135281000Y-101540000D02*
X135281000Y-102747000D01*
X135321000Y-98276000D02*
X135321000Y-99460000D01*
X135321000Y-101540000D02*
X135321000Y-102724000D01*
X135361000Y-98300000D02*
X135361000Y-99460000D01*
X135361000Y-101540000D02*
X135361000Y-102700000D01*
X135401000Y-98325000D02*
X135401000Y-99460000D01*
X135401000Y-101540000D02*
X135401000Y-102675000D01*
X135441000Y-98351000D02*
X135441000Y-99460000D01*
X135441000Y-101540000D02*
X135441000Y-102649000D01*
X135481000Y-98378000D02*
X135481000Y-99460000D01*
X135481000Y-101540000D02*
X135481000Y-102622000D01*
X135521000Y-98405000D02*
X135521000Y-99460000D01*
X135521000Y-101540000D02*
X135521000Y-102595000D01*
X135561000Y-98435000D02*
X135561000Y-99460000D01*
X135561000Y-101540000D02*
X135561000Y-102565000D01*
X135601000Y-98465000D02*
X135601000Y-99460000D01*
X135601000Y-101540000D02*
X135601000Y-102535000D01*
X135641000Y-98496000D02*
X135641000Y-99460000D01*
X135641000Y-101540000D02*
X135641000Y-102504000D01*
X135681000Y-98529000D02*
X135681000Y-99460000D01*
X135681000Y-101540000D02*
X135681000Y-102471000D01*
X135721000Y-98563000D02*
X135721000Y-99460000D01*
X135721000Y-101540000D02*
X135721000Y-102437000D01*
X135761000Y-98599000D02*
X135761000Y-99460000D01*
X135761000Y-101540000D02*
X135761000Y-102401000D01*
X135801000Y-98636000D02*
X135801000Y-99460000D01*
X135801000Y-101540000D02*
X135801000Y-102364000D01*
X135841000Y-98674000D02*
X135841000Y-99460000D01*
X135841000Y-101540000D02*
X135841000Y-102326000D01*
X135881000Y-98715000D02*
X135881000Y-99460000D01*
X135881000Y-101540000D02*
X135881000Y-102285000D01*
X135921000Y-98757000D02*
X135921000Y-99460000D01*
X135921000Y-101540000D02*
X135921000Y-102243000D01*
X135961000Y-98801000D02*
X135961000Y-99460000D01*
X135961000Y-101540000D02*
X135961000Y-102199000D01*
X136001000Y-98847000D02*
X136001000Y-99460000D01*
X136001000Y-101540000D02*
X136001000Y-102153000D01*
X136041000Y-98895000D02*
X136041000Y-102105000D01*
X136081000Y-98946000D02*
X136081000Y-102054000D01*
X136121000Y-99000000D02*
X136121000Y-102000000D01*
X136161000Y-99057000D02*
X136161000Y-101943000D01*
X136201000Y-99117000D02*
X136201000Y-101883000D01*
X136241000Y-99181000D02*
X136241000Y-101819000D01*
X136281000Y-99249000D02*
X136281000Y-101751000D01*
X136321000Y-99322000D02*
X136321000Y-101678000D01*
X136361000Y-99402000D02*
X136361000Y-101598000D01*
X136401000Y-99489000D02*
X136401000Y-101511000D01*
X136441000Y-99585000D02*
X136441000Y-101415000D01*
X136481000Y-99695000D02*
X136481000Y-101305000D01*
X136521000Y-99823000D02*
X136521000Y-101177000D01*
X136561000Y-99982000D02*
X136561000Y-101018000D01*
X136601000Y-100216000D02*
X136601000Y-100784000D01*
X131195225Y-99025000D02*
X131695225Y-99025000D01*
X131445225Y-98775000D02*
X131445225Y-99275000D01*
%TO.C,C6*%
D10*
X131875000Y-88767857D02*
X131839285Y-88803571D01*
X131732142Y-88839285D01*
X131660714Y-88839285D01*
X131553571Y-88803571D01*
X131482142Y-88732142D01*
X131446428Y-88660714D01*
X131410714Y-88517857D01*
X131410714Y-88410714D01*
X131446428Y-88267857D01*
X131482142Y-88196428D01*
X131553571Y-88125000D01*
X131660714Y-88089285D01*
X131732142Y-88089285D01*
X131839285Y-88125000D01*
X131875000Y-88160714D01*
X132517857Y-88089285D02*
X132375000Y-88089285D01*
X132303571Y-88125000D01*
X132267857Y-88160714D01*
X132196428Y-88267857D01*
X132160714Y-88410714D01*
X132160714Y-88696428D01*
X132196428Y-88767857D01*
X132232142Y-88803571D01*
X132303571Y-88839285D01*
X132446428Y-88839285D01*
X132517857Y-88803571D01*
X132553571Y-88767857D01*
X132589285Y-88696428D01*
X132589285Y-88517857D01*
X132553571Y-88446428D01*
X132517857Y-88410714D01*
X132446428Y-88375000D01*
X132303571Y-88375000D01*
X132232142Y-88410714D01*
X132196428Y-88446428D01*
X132160714Y-88517857D01*
X135303571Y-88839285D02*
X134875000Y-88839285D01*
X135089285Y-88839285D02*
X135089285Y-88089285D01*
X135017857Y-88196428D01*
X134946428Y-88267857D01*
X134875000Y-88303571D01*
X135767857Y-88089285D02*
X135839285Y-88089285D01*
X135910714Y-88125000D01*
X135946428Y-88160714D01*
X135982142Y-88232142D01*
X136017857Y-88375000D01*
X136017857Y-88553571D01*
X135982142Y-88696428D01*
X135946428Y-88767857D01*
X135910714Y-88803571D01*
X135839285Y-88839285D01*
X135767857Y-88839285D01*
X135696428Y-88803571D01*
X135660714Y-88767857D01*
X135625000Y-88696428D01*
X135589285Y-88553571D01*
X135589285Y-88375000D01*
X135625000Y-88232142D01*
X135660714Y-88160714D01*
X135696428Y-88125000D01*
X135767857Y-88089285D01*
X136660714Y-88339285D02*
X136660714Y-88839285D01*
X136339285Y-88339285D02*
X136339285Y-88732142D01*
X136375000Y-88803571D01*
X136446428Y-88839285D01*
X136553571Y-88839285D01*
X136625000Y-88803571D01*
X136660714Y-88767857D01*
X136910714Y-88339285D02*
X137196428Y-88339285D01*
X137017857Y-88839285D02*
X137017857Y-88196428D01*
X137053571Y-88125000D01*
X137125000Y-88089285D01*
X137196428Y-88089285D01*
%TO.C,1N4733*%
X107312143Y-92837381D02*
X106740715Y-92837381D01*
X107026429Y-92837381D02*
X107026429Y-91837381D01*
X106931191Y-91980239D01*
X106835953Y-92075477D01*
X106740715Y-92123096D01*
X107740715Y-92837381D02*
X107740715Y-91837381D01*
X108312143Y-92837381D01*
X108312143Y-91837381D01*
X109216905Y-92170715D02*
X109216905Y-92837381D01*
X108978810Y-91789762D02*
X108740715Y-92504048D01*
X109359762Y-92504048D01*
X109645477Y-91837381D02*
X110312143Y-91837381D01*
X109883572Y-92837381D01*
X110597858Y-91837381D02*
X111216905Y-91837381D01*
X110883572Y-92218334D01*
X111026429Y-92218334D01*
X111121667Y-92265953D01*
X111169286Y-92313572D01*
X111216905Y-92408810D01*
X111216905Y-92646905D01*
X111169286Y-92742143D01*
X111121667Y-92789762D01*
X111026429Y-92837381D01*
X110740715Y-92837381D01*
X110645477Y-92789762D01*
X110597858Y-92742143D01*
X111550239Y-91837381D02*
X112169286Y-91837381D01*
X111835953Y-92218334D01*
X111978810Y-92218334D01*
X112074048Y-92265953D01*
X112121667Y-92313572D01*
X112169286Y-92408810D01*
X112169286Y-92646905D01*
X112121667Y-92742143D01*
X112074048Y-92789762D01*
X111978810Y-92837381D01*
X111693096Y-92837381D01*
X111597858Y-92789762D01*
X111550239Y-92742143D01*
X104113096Y-93207381D02*
X104113096Y-92207381D01*
X104684524Y-93207381D02*
X104255953Y-92635953D01*
X104684524Y-92207381D02*
X104113096Y-92778810D01*
%TO.C,C1*%
X134375000Y-78267857D02*
X134339285Y-78303571D01*
X134232142Y-78339285D01*
X134160714Y-78339285D01*
X134053571Y-78303571D01*
X133982142Y-78232142D01*
X133946428Y-78160714D01*
X133910714Y-78017857D01*
X133910714Y-77910714D01*
X133946428Y-77767857D01*
X133982142Y-77696428D01*
X134053571Y-77625000D01*
X134160714Y-77589285D01*
X134232142Y-77589285D01*
X134339285Y-77625000D01*
X134375000Y-77660714D01*
X135089285Y-78339285D02*
X134660714Y-78339285D01*
X134875000Y-78339285D02*
X134875000Y-77589285D01*
X134803571Y-77696428D01*
X134732142Y-77767857D01*
X134660714Y-77803571D01*
X133629285Y-80767857D02*
X133665000Y-80803571D01*
X133629285Y-80839285D01*
X133593571Y-80803571D01*
X133629285Y-80767857D01*
X133629285Y-80839285D01*
X134379285Y-80839285D02*
X133950714Y-80839285D01*
X134165000Y-80839285D02*
X134165000Y-80089285D01*
X134093571Y-80196428D01*
X134022142Y-80267857D01*
X133950714Y-80303571D01*
X135022142Y-80339285D02*
X135022142Y-80839285D01*
X134700714Y-80339285D02*
X134700714Y-80732142D01*
X134736428Y-80803571D01*
X134807857Y-80839285D01*
X134915000Y-80839285D01*
X134986428Y-80803571D01*
X135022142Y-80767857D01*
X135272142Y-80339285D02*
X135557857Y-80339285D01*
X135379285Y-80839285D02*
X135379285Y-80196428D01*
X135415000Y-80125000D01*
X135486428Y-80089285D01*
X135557857Y-80089285D01*
%TO.C,C2*%
X140375000Y-76767857D02*
X140339285Y-76803571D01*
X140232142Y-76839285D01*
X140160714Y-76839285D01*
X140053571Y-76803571D01*
X139982142Y-76732142D01*
X139946428Y-76660714D01*
X139910714Y-76517857D01*
X139910714Y-76410714D01*
X139946428Y-76267857D01*
X139982142Y-76196428D01*
X140053571Y-76125000D01*
X140160714Y-76089285D01*
X140232142Y-76089285D01*
X140339285Y-76125000D01*
X140375000Y-76160714D01*
X140660714Y-76160714D02*
X140696428Y-76125000D01*
X140767857Y-76089285D01*
X140946428Y-76089285D01*
X141017857Y-76125000D01*
X141053571Y-76160714D01*
X141089285Y-76232142D01*
X141089285Y-76303571D01*
X141053571Y-76410714D01*
X140625000Y-76839285D01*
X141089285Y-76839285D01*
X142946428Y-76839285D02*
X142517857Y-76839285D01*
X142732142Y-76839285D02*
X142732142Y-76089285D01*
X142660714Y-76196428D01*
X142589285Y-76267857D01*
X142517857Y-76303571D01*
X143410714Y-76089285D02*
X143482142Y-76089285D01*
X143553571Y-76125000D01*
X143589285Y-76160714D01*
X143625000Y-76232142D01*
X143660714Y-76375000D01*
X143660714Y-76553571D01*
X143625000Y-76696428D01*
X143589285Y-76767857D01*
X143553571Y-76803571D01*
X143482142Y-76839285D01*
X143410714Y-76839285D01*
X143339285Y-76803571D01*
X143303571Y-76767857D01*
X143267857Y-76696428D01*
X143232142Y-76553571D01*
X143232142Y-76375000D01*
X143267857Y-76232142D01*
X143303571Y-76160714D01*
X143339285Y-76125000D01*
X143410714Y-76089285D01*
X144125000Y-76089285D02*
X144196428Y-76089285D01*
X144267857Y-76125000D01*
X144303571Y-76160714D01*
X144339285Y-76232142D01*
X144375000Y-76375000D01*
X144375000Y-76553571D01*
X144339285Y-76696428D01*
X144303571Y-76767857D01*
X144267857Y-76803571D01*
X144196428Y-76839285D01*
X144125000Y-76839285D01*
X144053571Y-76803571D01*
X144017857Y-76767857D01*
X143982142Y-76696428D01*
X143946428Y-76553571D01*
X143946428Y-76375000D01*
X143982142Y-76232142D01*
X144017857Y-76160714D01*
X144053571Y-76125000D01*
X144125000Y-76089285D01*
X144696428Y-76339285D02*
X144696428Y-76839285D01*
X144696428Y-76410714D02*
X144732142Y-76375000D01*
X144803571Y-76339285D01*
X144910714Y-76339285D01*
X144982142Y-76375000D01*
X145017857Y-76446428D01*
X145017857Y-76839285D01*
X145267857Y-76339285D02*
X145553571Y-76339285D01*
X145375000Y-76839285D02*
X145375000Y-76196428D01*
X145410714Y-76125000D01*
X145482142Y-76089285D01*
X145553571Y-76089285D01*
%TO.C,C3*%
X140375000Y-73267857D02*
X140339285Y-73303571D01*
X140232142Y-73339285D01*
X140160714Y-73339285D01*
X140053571Y-73303571D01*
X139982142Y-73232142D01*
X139946428Y-73160714D01*
X139910714Y-73017857D01*
X139910714Y-72910714D01*
X139946428Y-72767857D01*
X139982142Y-72696428D01*
X140053571Y-72625000D01*
X140160714Y-72589285D01*
X140232142Y-72589285D01*
X140339285Y-72625000D01*
X140375000Y-72660714D01*
X140625000Y-72589285D02*
X141089285Y-72589285D01*
X140839285Y-72875000D01*
X140946428Y-72875000D01*
X141017857Y-72910714D01*
X141053571Y-72946428D01*
X141089285Y-73017857D01*
X141089285Y-73196428D01*
X141053571Y-73267857D01*
X141017857Y-73303571D01*
X140946428Y-73339285D01*
X140732142Y-73339285D01*
X140660714Y-73303571D01*
X140625000Y-73267857D01*
X142946428Y-73339285D02*
X142517857Y-73339285D01*
X142732142Y-73339285D02*
X142732142Y-72589285D01*
X142660714Y-72696428D01*
X142589285Y-72767857D01*
X142517857Y-72803571D01*
X143410714Y-72589285D02*
X143482142Y-72589285D01*
X143553571Y-72625000D01*
X143589285Y-72660714D01*
X143625000Y-72732142D01*
X143660714Y-72875000D01*
X143660714Y-73053571D01*
X143625000Y-73196428D01*
X143589285Y-73267857D01*
X143553571Y-73303571D01*
X143482142Y-73339285D01*
X143410714Y-73339285D01*
X143339285Y-73303571D01*
X143303571Y-73267857D01*
X143267857Y-73196428D01*
X143232142Y-73053571D01*
X143232142Y-72875000D01*
X143267857Y-72732142D01*
X143303571Y-72660714D01*
X143339285Y-72625000D01*
X143410714Y-72589285D01*
X144125000Y-72589285D02*
X144196428Y-72589285D01*
X144267857Y-72625000D01*
X144303571Y-72660714D01*
X144339285Y-72732142D01*
X144375000Y-72875000D01*
X144375000Y-73053571D01*
X144339285Y-73196428D01*
X144303571Y-73267857D01*
X144267857Y-73303571D01*
X144196428Y-73339285D01*
X144125000Y-73339285D01*
X144053571Y-73303571D01*
X144017857Y-73267857D01*
X143982142Y-73196428D01*
X143946428Y-73053571D01*
X143946428Y-72875000D01*
X143982142Y-72732142D01*
X144017857Y-72660714D01*
X144053571Y-72625000D01*
X144125000Y-72589285D01*
X144696428Y-72839285D02*
X144696428Y-73339285D01*
X144696428Y-72910714D02*
X144732142Y-72875000D01*
X144803571Y-72839285D01*
X144910714Y-72839285D01*
X144982142Y-72875000D01*
X145017857Y-72946428D01*
X145017857Y-73339285D01*
X145267857Y-72839285D02*
X145553571Y-72839285D01*
X145375000Y-73339285D02*
X145375000Y-72696428D01*
X145410714Y-72625000D01*
X145482142Y-72589285D01*
X145553571Y-72589285D01*
%TO.C,C4*%
X133875000Y-114767857D02*
X133839285Y-114803571D01*
X133732142Y-114839285D01*
X133660714Y-114839285D01*
X133553571Y-114803571D01*
X133482142Y-114732142D01*
X133446428Y-114660714D01*
X133410714Y-114517857D01*
X133410714Y-114410714D01*
X133446428Y-114267857D01*
X133482142Y-114196428D01*
X133553571Y-114125000D01*
X133660714Y-114089285D01*
X133732142Y-114089285D01*
X133839285Y-114125000D01*
X133875000Y-114160714D01*
X134517857Y-114339285D02*
X134517857Y-114839285D01*
X134339285Y-114053571D02*
X134160714Y-114589285D01*
X134625000Y-114589285D01*
X133129285Y-117267857D02*
X133165000Y-117303571D01*
X133129285Y-117339285D01*
X133093571Y-117303571D01*
X133129285Y-117267857D01*
X133129285Y-117339285D01*
X133879285Y-117339285D02*
X133450714Y-117339285D01*
X133665000Y-117339285D02*
X133665000Y-116589285D01*
X133593571Y-116696428D01*
X133522142Y-116767857D01*
X133450714Y-116803571D01*
X134522142Y-116839285D02*
X134522142Y-117339285D01*
X134200714Y-116839285D02*
X134200714Y-117232142D01*
X134236428Y-117303571D01*
X134307857Y-117339285D01*
X134415000Y-117339285D01*
X134486428Y-117303571D01*
X134522142Y-117267857D01*
X134772142Y-116839285D02*
X135057857Y-116839285D01*
X134879285Y-117339285D02*
X134879285Y-116696428D01*
X134915000Y-116625000D01*
X134986428Y-116589285D01*
X135057857Y-116589285D01*
%TO.C,1N4148*%
X107167142Y-105332380D02*
X106595714Y-105332380D01*
X106881428Y-105332380D02*
X106881428Y-104332380D01*
X106786190Y-104475238D01*
X106690952Y-104570476D01*
X106595714Y-104618095D01*
X107595714Y-105332380D02*
X107595714Y-104332380D01*
X108167142Y-105332380D01*
X108167142Y-104332380D01*
X109071904Y-104665714D02*
X109071904Y-105332380D01*
X108833809Y-104284761D02*
X108595714Y-104999047D01*
X109214761Y-104999047D01*
X110119523Y-105332380D02*
X109548095Y-105332380D01*
X109833809Y-105332380D02*
X109833809Y-104332380D01*
X109738571Y-104475238D01*
X109643333Y-104570476D01*
X109548095Y-104618095D01*
X110976666Y-104665714D02*
X110976666Y-105332380D01*
X110738571Y-104284761D02*
X110500476Y-104999047D01*
X111119523Y-104999047D01*
X111643333Y-104760952D02*
X111548095Y-104713333D01*
X111500476Y-104665714D01*
X111452857Y-104570476D01*
X111452857Y-104522857D01*
X111500476Y-104427619D01*
X111548095Y-104380000D01*
X111643333Y-104332380D01*
X111833809Y-104332380D01*
X111929047Y-104380000D01*
X111976666Y-104427619D01*
X112024285Y-104522857D01*
X112024285Y-104570476D01*
X111976666Y-104665714D01*
X111929047Y-104713333D01*
X111833809Y-104760952D01*
X111643333Y-104760952D01*
X111548095Y-104808571D01*
X111500476Y-104856190D01*
X111452857Y-104951428D01*
X111452857Y-105141904D01*
X111500476Y-105237142D01*
X111548095Y-105284761D01*
X111643333Y-105332380D01*
X111833809Y-105332380D01*
X111929047Y-105284761D01*
X111976666Y-105237142D01*
X112024285Y-105141904D01*
X112024285Y-104951428D01*
X111976666Y-104856190D01*
X111929047Y-104808571D01*
X111833809Y-104760952D01*
X105238095Y-105652380D02*
X105238095Y-104652380D01*
X105809523Y-105652380D02*
X105380952Y-105080952D01*
X105809523Y-104652380D02*
X105238095Y-105223809D01*
X107167142Y-109332380D02*
X106595714Y-109332380D01*
X106881428Y-109332380D02*
X106881428Y-108332380D01*
X106786190Y-108475238D01*
X106690952Y-108570476D01*
X106595714Y-108618095D01*
X107595714Y-109332380D02*
X107595714Y-108332380D01*
X108167142Y-109332380D01*
X108167142Y-108332380D01*
X109071904Y-108665714D02*
X109071904Y-109332380D01*
X108833809Y-108284761D02*
X108595714Y-108999047D01*
X109214761Y-108999047D01*
X110119523Y-109332380D02*
X109548095Y-109332380D01*
X109833809Y-109332380D02*
X109833809Y-108332380D01*
X109738571Y-108475238D01*
X109643333Y-108570476D01*
X109548095Y-108618095D01*
X110976666Y-108665714D02*
X110976666Y-109332380D01*
X110738571Y-108284761D02*
X110500476Y-108999047D01*
X111119523Y-108999047D01*
X111643333Y-108760952D02*
X111548095Y-108713333D01*
X111500476Y-108665714D01*
X111452857Y-108570476D01*
X111452857Y-108522857D01*
X111500476Y-108427619D01*
X111548095Y-108380000D01*
X111643333Y-108332380D01*
X111833809Y-108332380D01*
X111929047Y-108380000D01*
X111976666Y-108427619D01*
X112024285Y-108522857D01*
X112024285Y-108570476D01*
X111976666Y-108665714D01*
X111929047Y-108713333D01*
X111833809Y-108760952D01*
X111643333Y-108760952D01*
X111548095Y-108808571D01*
X111500476Y-108856190D01*
X111452857Y-108951428D01*
X111452857Y-109141904D01*
X111500476Y-109237142D01*
X111548095Y-109284761D01*
X111643333Y-109332380D01*
X111833809Y-109332380D01*
X111929047Y-109284761D01*
X111976666Y-109237142D01*
X112024285Y-109141904D01*
X112024285Y-108951428D01*
X111976666Y-108856190D01*
X111929047Y-108808571D01*
X111833809Y-108760952D01*
X105238095Y-109652380D02*
X105238095Y-108652380D01*
X105809523Y-109652380D02*
X105380952Y-109080952D01*
X105809523Y-108652380D02*
X105238095Y-109223809D01*
%TO.C,1N4733*%
X107312143Y-97982380D02*
X106740715Y-97982380D01*
X107026429Y-97982380D02*
X107026429Y-96982380D01*
X106931191Y-97125238D01*
X106835953Y-97220476D01*
X106740715Y-97268095D01*
X107740715Y-97982380D02*
X107740715Y-96982380D01*
X108312143Y-97982380D01*
X108312143Y-96982380D01*
X109216905Y-97315714D02*
X109216905Y-97982380D01*
X108978810Y-96934761D02*
X108740715Y-97649047D01*
X109359762Y-97649047D01*
X109645477Y-96982380D02*
X110312143Y-96982380D01*
X109883572Y-97982380D01*
X110597858Y-96982380D02*
X111216905Y-96982380D01*
X110883572Y-97363333D01*
X111026429Y-97363333D01*
X111121667Y-97410952D01*
X111169286Y-97458571D01*
X111216905Y-97553809D01*
X111216905Y-97791904D01*
X111169286Y-97887142D01*
X111121667Y-97934761D01*
X111026429Y-97982380D01*
X110740715Y-97982380D01*
X110645477Y-97934761D01*
X110597858Y-97887142D01*
X111550239Y-96982380D02*
X112169286Y-96982380D01*
X111835953Y-97363333D01*
X111978810Y-97363333D01*
X112074048Y-97410952D01*
X112121667Y-97458571D01*
X112169286Y-97553809D01*
X112169286Y-97791904D01*
X112121667Y-97887142D01*
X112074048Y-97934761D01*
X111978810Y-97982380D01*
X111693096Y-97982380D01*
X111597858Y-97934761D01*
X111550239Y-97887142D01*
X104113096Y-98352380D02*
X104113096Y-97352380D01*
X104684524Y-98352380D02*
X104255953Y-97780952D01*
X104684524Y-97352380D02*
X104113096Y-97923809D01*
%TO.C,FB1*%
X142185000Y-82414428D02*
X141935000Y-82414428D01*
X141935000Y-82807285D02*
X141935000Y-82057285D01*
X142292142Y-82057285D01*
X142827857Y-82414428D02*
X142935000Y-82450142D01*
X142970714Y-82485857D01*
X143006428Y-82557285D01*
X143006428Y-82664428D01*
X142970714Y-82735857D01*
X142935000Y-82771571D01*
X142863571Y-82807285D01*
X142577857Y-82807285D01*
X142577857Y-82057285D01*
X142827857Y-82057285D01*
X142899285Y-82093000D01*
X142935000Y-82128714D01*
X142970714Y-82200142D01*
X142970714Y-82271571D01*
X142935000Y-82343000D01*
X142899285Y-82378714D01*
X142827857Y-82414428D01*
X142577857Y-82414428D01*
X143720714Y-82807285D02*
X143292142Y-82807285D01*
X143506428Y-82807285D02*
X143506428Y-82057285D01*
X143435000Y-82164428D01*
X143363571Y-82235857D01*
X143292142Y-82271571D01*
X140042142Y-84446428D02*
X139792142Y-84446428D01*
X139792142Y-84839285D02*
X139792142Y-84089285D01*
X140149285Y-84089285D01*
X140720714Y-84803571D02*
X140649285Y-84839285D01*
X140506428Y-84839285D01*
X140435000Y-84803571D01*
X140399285Y-84732142D01*
X140399285Y-84446428D01*
X140435000Y-84375000D01*
X140506428Y-84339285D01*
X140649285Y-84339285D01*
X140720714Y-84375000D01*
X140756428Y-84446428D01*
X140756428Y-84517857D01*
X140399285Y-84589285D01*
X141077857Y-84839285D02*
X141077857Y-84339285D01*
X141077857Y-84482142D02*
X141113571Y-84410714D01*
X141149285Y-84375000D01*
X141220714Y-84339285D01*
X141292142Y-84339285D01*
X141542142Y-84839285D02*
X141542142Y-84339285D01*
X141542142Y-84482142D02*
X141577857Y-84410714D01*
X141613571Y-84375000D01*
X141685000Y-84339285D01*
X141756428Y-84339285D01*
X142006428Y-84839285D02*
X142006428Y-84339285D01*
X142006428Y-84089285D02*
X141970714Y-84125000D01*
X142006428Y-84160714D01*
X142042142Y-84125000D01*
X142006428Y-84089285D01*
X142006428Y-84160714D01*
X142256428Y-84339285D02*
X142542142Y-84339285D01*
X142363571Y-84089285D02*
X142363571Y-84732142D01*
X142399285Y-84803571D01*
X142470714Y-84839285D01*
X142542142Y-84839285D01*
X143077857Y-84803571D02*
X143006428Y-84839285D01*
X142863571Y-84839285D01*
X142792142Y-84803571D01*
X142756428Y-84732142D01*
X142756428Y-84446428D01*
X142792142Y-84375000D01*
X142863571Y-84339285D01*
X143006428Y-84339285D01*
X143077857Y-84375000D01*
X143113571Y-84446428D01*
X143113571Y-84517857D01*
X142756428Y-84589285D01*
X143685000Y-84446428D02*
X143792142Y-84482142D01*
X143827857Y-84517857D01*
X143863571Y-84589285D01*
X143863571Y-84696428D01*
X143827857Y-84767857D01*
X143792142Y-84803571D01*
X143720714Y-84839285D01*
X143435000Y-84839285D01*
X143435000Y-84089285D01*
X143685000Y-84089285D01*
X143756428Y-84125000D01*
X143792142Y-84160714D01*
X143827857Y-84232142D01*
X143827857Y-84303571D01*
X143792142Y-84375000D01*
X143756428Y-84410714D01*
X143685000Y-84446428D01*
X143435000Y-84446428D01*
X144470714Y-84803571D02*
X144399285Y-84839285D01*
X144256428Y-84839285D01*
X144185000Y-84803571D01*
X144149285Y-84732142D01*
X144149285Y-84446428D01*
X144185000Y-84375000D01*
X144256428Y-84339285D01*
X144399285Y-84339285D01*
X144470714Y-84375000D01*
X144506428Y-84446428D01*
X144506428Y-84517857D01*
X144149285Y-84589285D01*
X145149285Y-84839285D02*
X145149285Y-84446428D01*
X145113571Y-84375000D01*
X145042142Y-84339285D01*
X144899285Y-84339285D01*
X144827857Y-84375000D01*
X145149285Y-84803571D02*
X145077857Y-84839285D01*
X144899285Y-84839285D01*
X144827857Y-84803571D01*
X144792142Y-84732142D01*
X144792142Y-84660714D01*
X144827857Y-84589285D01*
X144899285Y-84553571D01*
X145077857Y-84553571D01*
X145149285Y-84517857D01*
X145827857Y-84839285D02*
X145827857Y-84089285D01*
X145827857Y-84803571D02*
X145756428Y-84839285D01*
X145613571Y-84839285D01*
X145542142Y-84803571D01*
X145506428Y-84767857D01*
X145470714Y-84696428D01*
X145470714Y-84482142D01*
X145506428Y-84410714D01*
X145542142Y-84375000D01*
X145613571Y-84339285D01*
X145756428Y-84339285D01*
X145827857Y-84375000D01*
%TO.C,FB2*%
X139542142Y-112946428D02*
X139292142Y-112946428D01*
X139292142Y-113339285D02*
X139292142Y-112589285D01*
X139649285Y-112589285D01*
X140220714Y-113303571D02*
X140149285Y-113339285D01*
X140006428Y-113339285D01*
X139935000Y-113303571D01*
X139899285Y-113232142D01*
X139899285Y-112946428D01*
X139935000Y-112875000D01*
X140006428Y-112839285D01*
X140149285Y-112839285D01*
X140220714Y-112875000D01*
X140256428Y-112946428D01*
X140256428Y-113017857D01*
X139899285Y-113089285D01*
X140577857Y-113339285D02*
X140577857Y-112839285D01*
X140577857Y-112982142D02*
X140613571Y-112910714D01*
X140649285Y-112875000D01*
X140720714Y-112839285D01*
X140792142Y-112839285D01*
X141042142Y-113339285D02*
X141042142Y-112839285D01*
X141042142Y-112982142D02*
X141077857Y-112910714D01*
X141113571Y-112875000D01*
X141185000Y-112839285D01*
X141256428Y-112839285D01*
X141506428Y-113339285D02*
X141506428Y-112839285D01*
X141506428Y-112589285D02*
X141470714Y-112625000D01*
X141506428Y-112660714D01*
X141542142Y-112625000D01*
X141506428Y-112589285D01*
X141506428Y-112660714D01*
X141756428Y-112839285D02*
X142042142Y-112839285D01*
X141863571Y-112589285D02*
X141863571Y-113232142D01*
X141899285Y-113303571D01*
X141970714Y-113339285D01*
X142042142Y-113339285D01*
X142577857Y-113303571D02*
X142506428Y-113339285D01*
X142363571Y-113339285D01*
X142292142Y-113303571D01*
X142256428Y-113232142D01*
X142256428Y-112946428D01*
X142292142Y-112875000D01*
X142363571Y-112839285D01*
X142506428Y-112839285D01*
X142577857Y-112875000D01*
X142613571Y-112946428D01*
X142613571Y-113017857D01*
X142256428Y-113089285D01*
X143185000Y-112946428D02*
X143292142Y-112982142D01*
X143327857Y-113017857D01*
X143363571Y-113089285D01*
X143363571Y-113196428D01*
X143327857Y-113267857D01*
X143292142Y-113303571D01*
X143220714Y-113339285D01*
X142935000Y-113339285D01*
X142935000Y-112589285D01*
X143185000Y-112589285D01*
X143256428Y-112625000D01*
X143292142Y-112660714D01*
X143327857Y-112732142D01*
X143327857Y-112803571D01*
X143292142Y-112875000D01*
X143256428Y-112910714D01*
X143185000Y-112946428D01*
X142935000Y-112946428D01*
X143970714Y-113303571D02*
X143899285Y-113339285D01*
X143756428Y-113339285D01*
X143685000Y-113303571D01*
X143649285Y-113232142D01*
X143649285Y-112946428D01*
X143685000Y-112875000D01*
X143756428Y-112839285D01*
X143899285Y-112839285D01*
X143970714Y-112875000D01*
X144006428Y-112946428D01*
X144006428Y-113017857D01*
X143649285Y-113089285D01*
X144649285Y-113339285D02*
X144649285Y-112946428D01*
X144613571Y-112875000D01*
X144542142Y-112839285D01*
X144399285Y-112839285D01*
X144327857Y-112875000D01*
X144649285Y-113303571D02*
X144577857Y-113339285D01*
X144399285Y-113339285D01*
X144327857Y-113303571D01*
X144292142Y-113232142D01*
X144292142Y-113160714D01*
X144327857Y-113089285D01*
X144399285Y-113053571D01*
X144577857Y-113053571D01*
X144649285Y-113017857D01*
X145327857Y-113339285D02*
X145327857Y-112589285D01*
X145327857Y-113303571D02*
X145256428Y-113339285D01*
X145113571Y-113339285D01*
X145042142Y-113303571D01*
X145006428Y-113267857D01*
X144970714Y-113196428D01*
X144970714Y-112982142D01*
X145006428Y-112910714D01*
X145042142Y-112875000D01*
X145113571Y-112839285D01*
X145256428Y-112839285D01*
X145327857Y-112875000D01*
%TO.C,J3*%
X135400000Y-99759285D02*
X135400000Y-100295000D01*
X135364285Y-100402142D01*
X135292857Y-100473571D01*
X135185714Y-100509285D01*
X135114285Y-100509285D01*
X135685714Y-99759285D02*
X136150000Y-99759285D01*
X135900000Y-100045000D01*
X136007142Y-100045000D01*
X136078571Y-100080714D01*
X136114285Y-100116428D01*
X136150000Y-100187857D01*
X136150000Y-100366428D01*
X136114285Y-100437857D01*
X136078571Y-100473571D01*
X136007142Y-100509285D01*
X135792857Y-100509285D01*
X135721428Y-100473571D01*
X135685714Y-100437857D01*
X140738095Y-111071428D02*
X141500000Y-111071428D01*
X141119047Y-111452380D02*
X141119047Y-110690476D01*
X142500000Y-111452380D02*
X141928571Y-111452380D01*
X142214285Y-111452380D02*
X142214285Y-110452380D01*
X142119047Y-110595238D01*
X142023809Y-110690476D01*
X141928571Y-110738095D01*
X142880952Y-110547619D02*
X142928571Y-110500000D01*
X143023809Y-110452380D01*
X143261904Y-110452380D01*
X143357142Y-110500000D01*
X143404761Y-110547619D01*
X143452380Y-110642857D01*
X143452380Y-110738095D01*
X143404761Y-110880952D01*
X142833333Y-111452380D01*
X143452380Y-111452380D01*
X143738095Y-110452380D02*
X144071428Y-111452380D01*
X144404761Y-110452380D01*
X140738095Y-87071428D02*
X141500000Y-87071428D01*
X142500000Y-87452380D02*
X141928571Y-87452380D01*
X142214285Y-87452380D02*
X142214285Y-86452380D01*
X142119047Y-86595238D01*
X142023809Y-86690476D01*
X141928571Y-86738095D01*
X142880952Y-86547619D02*
X142928571Y-86500000D01*
X143023809Y-86452380D01*
X143261904Y-86452380D01*
X143357142Y-86500000D01*
X143404761Y-86547619D01*
X143452380Y-86642857D01*
X143452380Y-86738095D01*
X143404761Y-86880952D01*
X142833333Y-87452380D01*
X143452380Y-87452380D01*
X143738095Y-86452380D02*
X144071428Y-87452380D01*
X144404761Y-86452380D01*
X139428571Y-88952380D02*
X139095238Y-88476190D01*
X138857142Y-88952380D02*
X138857142Y-87952380D01*
X139238095Y-87952380D01*
X139333333Y-88000000D01*
X139380952Y-88047619D01*
X139428571Y-88142857D01*
X139428571Y-88285714D01*
X139380952Y-88380952D01*
X139333333Y-88428571D01*
X139238095Y-88476190D01*
X138857142Y-88476190D01*
X139857142Y-88428571D02*
X140190476Y-88428571D01*
X140333333Y-88952380D02*
X139857142Y-88952380D01*
X139857142Y-87952380D01*
X140333333Y-87952380D01*
X140761904Y-88952380D02*
X140761904Y-87952380D01*
X141000000Y-87952380D01*
X141142857Y-88000000D01*
X141238095Y-88095238D01*
X141285714Y-88190476D01*
X141333333Y-88380952D01*
X141333333Y-88523809D01*
X141285714Y-88714285D01*
X141238095Y-88809523D01*
X141142857Y-88904761D01*
X141000000Y-88952380D01*
X140761904Y-88952380D01*
X142476190Y-88904761D02*
X142619047Y-88952380D01*
X142857142Y-88952380D01*
X142952380Y-88904761D01*
X143000000Y-88857142D01*
X143047619Y-88761904D01*
X143047619Y-88666666D01*
X143000000Y-88571428D01*
X142952380Y-88523809D01*
X142857142Y-88476190D01*
X142666666Y-88428571D01*
X142571428Y-88380952D01*
X142523809Y-88333333D01*
X142476190Y-88238095D01*
X142476190Y-88142857D01*
X142523809Y-88047619D01*
X142571428Y-88000000D01*
X142666666Y-87952380D01*
X142904761Y-87952380D01*
X143047619Y-88000000D01*
X143333333Y-87952380D02*
X143904761Y-87952380D01*
X143619047Y-88952380D02*
X143619047Y-87952380D01*
X144809523Y-88952380D02*
X144476190Y-88476190D01*
X144238095Y-88952380D02*
X144238095Y-87952380D01*
X144619047Y-87952380D01*
X144714285Y-88000000D01*
X144761904Y-88047619D01*
X144809523Y-88142857D01*
X144809523Y-88285714D01*
X144761904Y-88380952D01*
X144714285Y-88428571D01*
X144619047Y-88476190D01*
X144238095Y-88476190D01*
X145238095Y-88952380D02*
X145238095Y-87952380D01*
X145714285Y-88952380D02*
X145714285Y-87952380D01*
X146095238Y-87952380D01*
X146190476Y-88000000D01*
X146238095Y-88047619D01*
X146285714Y-88142857D01*
X146285714Y-88285714D01*
X146238095Y-88380952D01*
X146190476Y-88428571D01*
X146095238Y-88476190D01*
X145714285Y-88476190D01*
X146714285Y-88428571D02*
X147047619Y-88428571D01*
X147190476Y-88952380D02*
X146714285Y-88952380D01*
X146714285Y-87952380D01*
X147190476Y-87952380D01*
%TO.C,R1*%
X123185000Y-81807285D02*
X122935000Y-81450142D01*
X122756428Y-81807285D02*
X122756428Y-81057285D01*
X123042142Y-81057285D01*
X123113571Y-81093000D01*
X123149285Y-81128714D01*
X123185000Y-81200142D01*
X123185000Y-81307285D01*
X123149285Y-81378714D01*
X123113571Y-81414428D01*
X123042142Y-81450142D01*
X122756428Y-81450142D01*
X123899285Y-81807285D02*
X123470714Y-81807285D01*
X123685000Y-81807285D02*
X123685000Y-81057285D01*
X123613571Y-81164428D01*
X123542142Y-81235857D01*
X123470714Y-81271571D01*
X122435000Y-83839285D02*
X122006428Y-83839285D01*
X122220714Y-83839285D02*
X122220714Y-83089285D01*
X122149285Y-83196428D01*
X122077857Y-83267857D01*
X122006428Y-83303571D01*
X122899285Y-83089285D02*
X122970714Y-83089285D01*
X123042142Y-83125000D01*
X123077857Y-83160714D01*
X123113571Y-83232142D01*
X123149285Y-83375000D01*
X123149285Y-83553571D01*
X123113571Y-83696428D01*
X123077857Y-83767857D01*
X123042142Y-83803571D01*
X122970714Y-83839285D01*
X122899285Y-83839285D01*
X122827857Y-83803571D01*
X122792142Y-83767857D01*
X122756428Y-83696428D01*
X122720714Y-83553571D01*
X122720714Y-83375000D01*
X122756428Y-83232142D01*
X122792142Y-83160714D01*
X122827857Y-83125000D01*
X122899285Y-83089285D01*
X123613571Y-83089285D02*
X123685000Y-83089285D01*
X123756428Y-83125000D01*
X123792142Y-83160714D01*
X123827857Y-83232142D01*
X123863571Y-83375000D01*
X123863571Y-83553571D01*
X123827857Y-83696428D01*
X123792142Y-83767857D01*
X123756428Y-83803571D01*
X123685000Y-83839285D01*
X123613571Y-83839285D01*
X123542142Y-83803571D01*
X123506428Y-83767857D01*
X123470714Y-83696428D01*
X123435000Y-83553571D01*
X123435000Y-83375000D01*
X123470714Y-83232142D01*
X123506428Y-83160714D01*
X123542142Y-83125000D01*
X123613571Y-83089285D01*
X124185000Y-83839285D02*
X124185000Y-83089285D01*
X124613571Y-83839285D02*
X124292142Y-83410714D01*
X124613571Y-83089285D02*
X124185000Y-83517857D01*
%TO.C,R2*%
X123185000Y-66307285D02*
X122935000Y-65950142D01*
X122756428Y-66307285D02*
X122756428Y-65557285D01*
X123042142Y-65557285D01*
X123113571Y-65593000D01*
X123149285Y-65628714D01*
X123185000Y-65700142D01*
X123185000Y-65807285D01*
X123149285Y-65878714D01*
X123113571Y-65914428D01*
X123042142Y-65950142D01*
X122756428Y-65950142D01*
X123470714Y-65628714D02*
X123506428Y-65593000D01*
X123577857Y-65557285D01*
X123756428Y-65557285D01*
X123827857Y-65593000D01*
X123863571Y-65628714D01*
X123899285Y-65700142D01*
X123899285Y-65771571D01*
X123863571Y-65878714D01*
X123435000Y-66307285D01*
X123899285Y-66307285D01*
X122006428Y-67660714D02*
X122042142Y-67625000D01*
X122113571Y-67589285D01*
X122292142Y-67589285D01*
X122363571Y-67625000D01*
X122399285Y-67660714D01*
X122435000Y-67732142D01*
X122435000Y-67803571D01*
X122399285Y-67910714D01*
X121970714Y-68339285D01*
X122435000Y-68339285D01*
X122899285Y-67589285D02*
X122970714Y-67589285D01*
X123042142Y-67625000D01*
X123077857Y-67660714D01*
X123113571Y-67732142D01*
X123149285Y-67875000D01*
X123149285Y-68053571D01*
X123113571Y-68196428D01*
X123077857Y-68267857D01*
X123042142Y-68303571D01*
X122970714Y-68339285D01*
X122899285Y-68339285D01*
X122827857Y-68303571D01*
X122792142Y-68267857D01*
X122756428Y-68196428D01*
X122720714Y-68053571D01*
X122720714Y-67875000D01*
X122756428Y-67732142D01*
X122792142Y-67660714D01*
X122827857Y-67625000D01*
X122899285Y-67589285D01*
X123613571Y-67589285D02*
X123685000Y-67589285D01*
X123756428Y-67625000D01*
X123792142Y-67660714D01*
X123827857Y-67732142D01*
X123863571Y-67875000D01*
X123863571Y-68053571D01*
X123827857Y-68196428D01*
X123792142Y-68267857D01*
X123756428Y-68303571D01*
X123685000Y-68339285D01*
X123613571Y-68339285D01*
X123542142Y-68303571D01*
X123506428Y-68267857D01*
X123470714Y-68196428D01*
X123435000Y-68053571D01*
X123435000Y-67875000D01*
X123470714Y-67732142D01*
X123506428Y-67660714D01*
X123542142Y-67625000D01*
X123613571Y-67589285D01*
X124185000Y-68339285D02*
X124185000Y-67589285D01*
X124613571Y-68339285D02*
X124292142Y-67910714D01*
X124613571Y-67589285D02*
X124185000Y-68017857D01*
%TO.C,R3*%
X123185000Y-71307285D02*
X122935000Y-70950142D01*
X122756428Y-71307285D02*
X122756428Y-70557285D01*
X123042142Y-70557285D01*
X123113571Y-70593000D01*
X123149285Y-70628714D01*
X123185000Y-70700142D01*
X123185000Y-70807285D01*
X123149285Y-70878714D01*
X123113571Y-70914428D01*
X123042142Y-70950142D01*
X122756428Y-70950142D01*
X123435000Y-70557285D02*
X123899285Y-70557285D01*
X123649285Y-70843000D01*
X123756428Y-70843000D01*
X123827857Y-70878714D01*
X123863571Y-70914428D01*
X123899285Y-70985857D01*
X123899285Y-71164428D01*
X123863571Y-71235857D01*
X123827857Y-71271571D01*
X123756428Y-71307285D01*
X123542142Y-71307285D01*
X123470714Y-71271571D01*
X123435000Y-71235857D01*
X122006428Y-72660714D02*
X122042142Y-72625000D01*
X122113571Y-72589285D01*
X122292142Y-72589285D01*
X122363571Y-72625000D01*
X122399285Y-72660714D01*
X122435000Y-72732142D01*
X122435000Y-72803571D01*
X122399285Y-72910714D01*
X121970714Y-73339285D01*
X122435000Y-73339285D01*
X122899285Y-72589285D02*
X122970714Y-72589285D01*
X123042142Y-72625000D01*
X123077857Y-72660714D01*
X123113571Y-72732142D01*
X123149285Y-72875000D01*
X123149285Y-73053571D01*
X123113571Y-73196428D01*
X123077857Y-73267857D01*
X123042142Y-73303571D01*
X122970714Y-73339285D01*
X122899285Y-73339285D01*
X122827857Y-73303571D01*
X122792142Y-73267857D01*
X122756428Y-73196428D01*
X122720714Y-73053571D01*
X122720714Y-72875000D01*
X122756428Y-72732142D01*
X122792142Y-72660714D01*
X122827857Y-72625000D01*
X122899285Y-72589285D01*
X123613571Y-72589285D02*
X123685000Y-72589285D01*
X123756428Y-72625000D01*
X123792142Y-72660714D01*
X123827857Y-72732142D01*
X123863571Y-72875000D01*
X123863571Y-73053571D01*
X123827857Y-73196428D01*
X123792142Y-73267857D01*
X123756428Y-73303571D01*
X123685000Y-73339285D01*
X123613571Y-73339285D01*
X123542142Y-73303571D01*
X123506428Y-73267857D01*
X123470714Y-73196428D01*
X123435000Y-73053571D01*
X123435000Y-72875000D01*
X123470714Y-72732142D01*
X123506428Y-72660714D01*
X123542142Y-72625000D01*
X123613571Y-72589285D01*
X124185000Y-73339285D02*
X124185000Y-72589285D01*
X124613571Y-73339285D02*
X124292142Y-72910714D01*
X124613571Y-72589285D02*
X124185000Y-73017857D01*
%TO.C,R4*%
X136185000Y-124307285D02*
X135935000Y-123950142D01*
X135756428Y-124307285D02*
X135756428Y-123557285D01*
X136042142Y-123557285D01*
X136113571Y-123593000D01*
X136149285Y-123628714D01*
X136185000Y-123700142D01*
X136185000Y-123807285D01*
X136149285Y-123878714D01*
X136113571Y-123914428D01*
X136042142Y-123950142D01*
X135756428Y-123950142D01*
X136827857Y-123807285D02*
X136827857Y-124307285D01*
X136649285Y-123521571D02*
X136470714Y-124057285D01*
X136935000Y-124057285D01*
X135435000Y-126339285D02*
X135006428Y-126339285D01*
X135220714Y-126339285D02*
X135220714Y-125589285D01*
X135149285Y-125696428D01*
X135077857Y-125767857D01*
X135006428Y-125803571D01*
X135899285Y-125589285D02*
X135970714Y-125589285D01*
X136042142Y-125625000D01*
X136077857Y-125660714D01*
X136113571Y-125732142D01*
X136149285Y-125875000D01*
X136149285Y-126053571D01*
X136113571Y-126196428D01*
X136077857Y-126267857D01*
X136042142Y-126303571D01*
X135970714Y-126339285D01*
X135899285Y-126339285D01*
X135827857Y-126303571D01*
X135792142Y-126267857D01*
X135756428Y-126196428D01*
X135720714Y-126053571D01*
X135720714Y-125875000D01*
X135756428Y-125732142D01*
X135792142Y-125660714D01*
X135827857Y-125625000D01*
X135899285Y-125589285D01*
X136613571Y-125589285D02*
X136685000Y-125589285D01*
X136756428Y-125625000D01*
X136792142Y-125660714D01*
X136827857Y-125732142D01*
X136863571Y-125875000D01*
X136863571Y-126053571D01*
X136827857Y-126196428D01*
X136792142Y-126267857D01*
X136756428Y-126303571D01*
X136685000Y-126339285D01*
X136613571Y-126339285D01*
X136542142Y-126303571D01*
X136506428Y-126267857D01*
X136470714Y-126196428D01*
X136435000Y-126053571D01*
X136435000Y-125875000D01*
X136470714Y-125732142D01*
X136506428Y-125660714D01*
X136542142Y-125625000D01*
X136613571Y-125589285D01*
X137185000Y-126339285D02*
X137185000Y-125589285D01*
X137613571Y-126339285D02*
X137292142Y-125910714D01*
X137613571Y-125589285D02*
X137185000Y-126017857D01*
%TO.C,R5*%
X123185000Y-129307285D02*
X122935000Y-128950142D01*
X122756428Y-129307285D02*
X122756428Y-128557285D01*
X123042142Y-128557285D01*
X123113571Y-128593000D01*
X123149285Y-128628714D01*
X123185000Y-128700142D01*
X123185000Y-128807285D01*
X123149285Y-128878714D01*
X123113571Y-128914428D01*
X123042142Y-128950142D01*
X122756428Y-128950142D01*
X123863571Y-128557285D02*
X123506428Y-128557285D01*
X123470714Y-128914428D01*
X123506428Y-128878714D01*
X123577857Y-128843000D01*
X123756428Y-128843000D01*
X123827857Y-128878714D01*
X123863571Y-128914428D01*
X123899285Y-128985857D01*
X123899285Y-129164428D01*
X123863571Y-129235857D01*
X123827857Y-129271571D01*
X123756428Y-129307285D01*
X123577857Y-129307285D01*
X123506428Y-129271571D01*
X123470714Y-129235857D01*
X122435000Y-131339285D02*
X122006428Y-131339285D01*
X122220714Y-131339285D02*
X122220714Y-130589285D01*
X122149285Y-130696428D01*
X122077857Y-130767857D01*
X122006428Y-130803571D01*
X122899285Y-130589285D02*
X122970714Y-130589285D01*
X123042142Y-130625000D01*
X123077857Y-130660714D01*
X123113571Y-130732142D01*
X123149285Y-130875000D01*
X123149285Y-131053571D01*
X123113571Y-131196428D01*
X123077857Y-131267857D01*
X123042142Y-131303571D01*
X122970714Y-131339285D01*
X122899285Y-131339285D01*
X122827857Y-131303571D01*
X122792142Y-131267857D01*
X122756428Y-131196428D01*
X122720714Y-131053571D01*
X122720714Y-130875000D01*
X122756428Y-130732142D01*
X122792142Y-130660714D01*
X122827857Y-130625000D01*
X122899285Y-130589285D01*
X123613571Y-130589285D02*
X123685000Y-130589285D01*
X123756428Y-130625000D01*
X123792142Y-130660714D01*
X123827857Y-130732142D01*
X123863571Y-130875000D01*
X123863571Y-131053571D01*
X123827857Y-131196428D01*
X123792142Y-131267857D01*
X123756428Y-131303571D01*
X123685000Y-131339285D01*
X123613571Y-131339285D01*
X123542142Y-131303571D01*
X123506428Y-131267857D01*
X123470714Y-131196428D01*
X123435000Y-131053571D01*
X123435000Y-130875000D01*
X123470714Y-130732142D01*
X123506428Y-130660714D01*
X123542142Y-130625000D01*
X123613571Y-130589285D01*
X124185000Y-131339285D02*
X124185000Y-130589285D01*
X124613571Y-131339285D02*
X124292142Y-130910714D01*
X124613571Y-130589285D02*
X124185000Y-131017857D01*
%TO.C,R6*%
X136185000Y-133807285D02*
X135935000Y-133450142D01*
X135756428Y-133807285D02*
X135756428Y-133057285D01*
X136042142Y-133057285D01*
X136113571Y-133093000D01*
X136149285Y-133128714D01*
X136185000Y-133200142D01*
X136185000Y-133307285D01*
X136149285Y-133378714D01*
X136113571Y-133414428D01*
X136042142Y-133450142D01*
X135756428Y-133450142D01*
X136827857Y-133057285D02*
X136685000Y-133057285D01*
X136613571Y-133093000D01*
X136577857Y-133128714D01*
X136506428Y-133235857D01*
X136470714Y-133378714D01*
X136470714Y-133664428D01*
X136506428Y-133735857D01*
X136542142Y-133771571D01*
X136613571Y-133807285D01*
X136756428Y-133807285D01*
X136827857Y-133771571D01*
X136863571Y-133735857D01*
X136899285Y-133664428D01*
X136899285Y-133485857D01*
X136863571Y-133414428D01*
X136827857Y-133378714D01*
X136756428Y-133343000D01*
X136613571Y-133343000D01*
X136542142Y-133378714D01*
X136506428Y-133414428D01*
X136470714Y-133485857D01*
X135006428Y-135160714D02*
X135042142Y-135125000D01*
X135113571Y-135089285D01*
X135292142Y-135089285D01*
X135363571Y-135125000D01*
X135399285Y-135160714D01*
X135435000Y-135232142D01*
X135435000Y-135303571D01*
X135399285Y-135410714D01*
X134970714Y-135839285D01*
X135435000Y-135839285D01*
X135899285Y-135089285D02*
X135970714Y-135089285D01*
X136042142Y-135125000D01*
X136077857Y-135160714D01*
X136113571Y-135232142D01*
X136149285Y-135375000D01*
X136149285Y-135553571D01*
X136113571Y-135696428D01*
X136077857Y-135767857D01*
X136042142Y-135803571D01*
X135970714Y-135839285D01*
X135899285Y-135839285D01*
X135827857Y-135803571D01*
X135792142Y-135767857D01*
X135756428Y-135696428D01*
X135720714Y-135553571D01*
X135720714Y-135375000D01*
X135756428Y-135232142D01*
X135792142Y-135160714D01*
X135827857Y-135125000D01*
X135899285Y-135089285D01*
X136613571Y-135089285D02*
X136685000Y-135089285D01*
X136756428Y-135125000D01*
X136792142Y-135160714D01*
X136827857Y-135232142D01*
X136863571Y-135375000D01*
X136863571Y-135553571D01*
X136827857Y-135696428D01*
X136792142Y-135767857D01*
X136756428Y-135803571D01*
X136685000Y-135839285D01*
X136613571Y-135839285D01*
X136542142Y-135803571D01*
X136506428Y-135767857D01*
X136470714Y-135696428D01*
X136435000Y-135553571D01*
X136435000Y-135375000D01*
X136470714Y-135232142D01*
X136506428Y-135160714D01*
X136542142Y-135125000D01*
X136613571Y-135089285D01*
X137185000Y-135839285D02*
X137185000Y-135089285D01*
X137613571Y-135839285D02*
X137292142Y-135410714D01*
X137613571Y-135089285D02*
X137185000Y-135517857D01*
%TO.C,R7*%
X136185000Y-129307285D02*
X135935000Y-128950142D01*
X135756428Y-129307285D02*
X135756428Y-128557285D01*
X136042142Y-128557285D01*
X136113571Y-128593000D01*
X136149285Y-128628714D01*
X136185000Y-128700142D01*
X136185000Y-128807285D01*
X136149285Y-128878714D01*
X136113571Y-128914428D01*
X136042142Y-128950142D01*
X135756428Y-128950142D01*
X136435000Y-128557285D02*
X136935000Y-128557285D01*
X136613571Y-129307285D01*
X135435000Y-131339285D02*
X135006428Y-131339285D01*
X135220714Y-131339285D02*
X135220714Y-130589285D01*
X135149285Y-130696428D01*
X135077857Y-130767857D01*
X135006428Y-130803571D01*
X135899285Y-130589285D02*
X135970714Y-130589285D01*
X136042142Y-130625000D01*
X136077857Y-130660714D01*
X136113571Y-130732142D01*
X136149285Y-130875000D01*
X136149285Y-131053571D01*
X136113571Y-131196428D01*
X136077857Y-131267857D01*
X136042142Y-131303571D01*
X135970714Y-131339285D01*
X135899285Y-131339285D01*
X135827857Y-131303571D01*
X135792142Y-131267857D01*
X135756428Y-131196428D01*
X135720714Y-131053571D01*
X135720714Y-130875000D01*
X135756428Y-130732142D01*
X135792142Y-130660714D01*
X135827857Y-130625000D01*
X135899285Y-130589285D01*
X136613571Y-130589285D02*
X136685000Y-130589285D01*
X136756428Y-130625000D01*
X136792142Y-130660714D01*
X136827857Y-130732142D01*
X136863571Y-130875000D01*
X136863571Y-131053571D01*
X136827857Y-131196428D01*
X136792142Y-131267857D01*
X136756428Y-131303571D01*
X136685000Y-131339285D01*
X136613571Y-131339285D01*
X136542142Y-131303571D01*
X136506428Y-131267857D01*
X136470714Y-131196428D01*
X136435000Y-131053571D01*
X136435000Y-130875000D01*
X136470714Y-130732142D01*
X136506428Y-130660714D01*
X136542142Y-130625000D01*
X136613571Y-130589285D01*
X137185000Y-131339285D02*
X137185000Y-130589285D01*
X137613571Y-131339285D02*
X137292142Y-130910714D01*
X137613571Y-130589285D02*
X137185000Y-131017857D01*
%TO.C,R8*%
X123185000Y-133807285D02*
X122935000Y-133450142D01*
X122756428Y-133807285D02*
X122756428Y-133057285D01*
X123042142Y-133057285D01*
X123113571Y-133093000D01*
X123149285Y-133128714D01*
X123185000Y-133200142D01*
X123185000Y-133307285D01*
X123149285Y-133378714D01*
X123113571Y-133414428D01*
X123042142Y-133450142D01*
X122756428Y-133450142D01*
X123613571Y-133378714D02*
X123542142Y-133343000D01*
X123506428Y-133307285D01*
X123470714Y-133235857D01*
X123470714Y-133200142D01*
X123506428Y-133128714D01*
X123542142Y-133093000D01*
X123613571Y-133057285D01*
X123756428Y-133057285D01*
X123827857Y-133093000D01*
X123863571Y-133128714D01*
X123899285Y-133200142D01*
X123899285Y-133235857D01*
X123863571Y-133307285D01*
X123827857Y-133343000D01*
X123756428Y-133378714D01*
X123613571Y-133378714D01*
X123542142Y-133414428D01*
X123506428Y-133450142D01*
X123470714Y-133521571D01*
X123470714Y-133664428D01*
X123506428Y-133735857D01*
X123542142Y-133771571D01*
X123613571Y-133807285D01*
X123756428Y-133807285D01*
X123827857Y-133771571D01*
X123863571Y-133735857D01*
X123899285Y-133664428D01*
X123899285Y-133521571D01*
X123863571Y-133450142D01*
X123827857Y-133414428D01*
X123756428Y-133378714D01*
X122006428Y-135160714D02*
X122042142Y-135125000D01*
X122113571Y-135089285D01*
X122292142Y-135089285D01*
X122363571Y-135125000D01*
X122399285Y-135160714D01*
X122435000Y-135232142D01*
X122435000Y-135303571D01*
X122399285Y-135410714D01*
X121970714Y-135839285D01*
X122435000Y-135839285D01*
X122899285Y-135089285D02*
X122970714Y-135089285D01*
X123042142Y-135125000D01*
X123077857Y-135160714D01*
X123113571Y-135232142D01*
X123149285Y-135375000D01*
X123149285Y-135553571D01*
X123113571Y-135696428D01*
X123077857Y-135767857D01*
X123042142Y-135803571D01*
X122970714Y-135839285D01*
X122899285Y-135839285D01*
X122827857Y-135803571D01*
X122792142Y-135767857D01*
X122756428Y-135696428D01*
X122720714Y-135553571D01*
X122720714Y-135375000D01*
X122756428Y-135232142D01*
X122792142Y-135160714D01*
X122827857Y-135125000D01*
X122899285Y-135089285D01*
X123613571Y-135089285D02*
X123685000Y-135089285D01*
X123756428Y-135125000D01*
X123792142Y-135160714D01*
X123827857Y-135232142D01*
X123863571Y-135375000D01*
X123863571Y-135553571D01*
X123827857Y-135696428D01*
X123792142Y-135767857D01*
X123756428Y-135803571D01*
X123685000Y-135839285D01*
X123613571Y-135839285D01*
X123542142Y-135803571D01*
X123506428Y-135767857D01*
X123470714Y-135696428D01*
X123435000Y-135553571D01*
X123435000Y-135375000D01*
X123470714Y-135232142D01*
X123506428Y-135160714D01*
X123542142Y-135125000D01*
X123613571Y-135089285D01*
X124185000Y-135839285D02*
X124185000Y-135089285D01*
X124613571Y-135839285D02*
X124292142Y-135410714D01*
X124613571Y-135089285D02*
X124185000Y-135517857D01*
%TO.C,R9*%
X136185000Y-138307285D02*
X135935000Y-137950142D01*
X135756428Y-138307285D02*
X135756428Y-137557285D01*
X136042142Y-137557285D01*
X136113571Y-137593000D01*
X136149285Y-137628714D01*
X136185000Y-137700142D01*
X136185000Y-137807285D01*
X136149285Y-137878714D01*
X136113571Y-137914428D01*
X136042142Y-137950142D01*
X135756428Y-137950142D01*
X136542142Y-138307285D02*
X136685000Y-138307285D01*
X136756428Y-138271571D01*
X136792142Y-138235857D01*
X136863571Y-138128714D01*
X136899285Y-137985857D01*
X136899285Y-137700142D01*
X136863571Y-137628714D01*
X136827857Y-137593000D01*
X136756428Y-137557285D01*
X136613571Y-137557285D01*
X136542142Y-137593000D01*
X136506428Y-137628714D01*
X136470714Y-137700142D01*
X136470714Y-137878714D01*
X136506428Y-137950142D01*
X136542142Y-137985857D01*
X136613571Y-138021571D01*
X136756428Y-138021571D01*
X136827857Y-137985857D01*
X136863571Y-137950142D01*
X136899285Y-137878714D01*
X135435000Y-140339285D02*
X135006428Y-140339285D01*
X135220714Y-140339285D02*
X135220714Y-139589285D01*
X135149285Y-139696428D01*
X135077857Y-139767857D01*
X135006428Y-139803571D01*
X135899285Y-139589285D02*
X135970714Y-139589285D01*
X136042142Y-139625000D01*
X136077857Y-139660714D01*
X136113571Y-139732142D01*
X136149285Y-139875000D01*
X136149285Y-140053571D01*
X136113571Y-140196428D01*
X136077857Y-140267857D01*
X136042142Y-140303571D01*
X135970714Y-140339285D01*
X135899285Y-140339285D01*
X135827857Y-140303571D01*
X135792142Y-140267857D01*
X135756428Y-140196428D01*
X135720714Y-140053571D01*
X135720714Y-139875000D01*
X135756428Y-139732142D01*
X135792142Y-139660714D01*
X135827857Y-139625000D01*
X135899285Y-139589285D01*
X136613571Y-139589285D02*
X136685000Y-139589285D01*
X136756428Y-139625000D01*
X136792142Y-139660714D01*
X136827857Y-139732142D01*
X136863571Y-139875000D01*
X136863571Y-140053571D01*
X136827857Y-140196428D01*
X136792142Y-140267857D01*
X136756428Y-140303571D01*
X136685000Y-140339285D01*
X136613571Y-140339285D01*
X136542142Y-140303571D01*
X136506428Y-140267857D01*
X136470714Y-140196428D01*
X136435000Y-140053571D01*
X136435000Y-139875000D01*
X136470714Y-139732142D01*
X136506428Y-139660714D01*
X136542142Y-139625000D01*
X136613571Y-139589285D01*
X137185000Y-140339285D02*
X137185000Y-139589285D01*
X137613571Y-140339285D02*
X137292142Y-139910714D01*
X137613571Y-139589285D02*
X137185000Y-140017857D01*
%TO.C,R10*%
X122827857Y-124307285D02*
X122577857Y-123950142D01*
X122399285Y-124307285D02*
X122399285Y-123557285D01*
X122685000Y-123557285D01*
X122756428Y-123593000D01*
X122792142Y-123628714D01*
X122827857Y-123700142D01*
X122827857Y-123807285D01*
X122792142Y-123878714D01*
X122756428Y-123914428D01*
X122685000Y-123950142D01*
X122399285Y-123950142D01*
X123542142Y-124307285D02*
X123113571Y-124307285D01*
X123327857Y-124307285D02*
X123327857Y-123557285D01*
X123256428Y-123664428D01*
X123185000Y-123735857D01*
X123113571Y-123771571D01*
X124006428Y-123557285D02*
X124077857Y-123557285D01*
X124149285Y-123593000D01*
X124185000Y-123628714D01*
X124220714Y-123700142D01*
X124256428Y-123843000D01*
X124256428Y-124021571D01*
X124220714Y-124164428D01*
X124185000Y-124235857D01*
X124149285Y-124271571D01*
X124077857Y-124307285D01*
X124006428Y-124307285D01*
X123935000Y-124271571D01*
X123899285Y-124235857D01*
X123863571Y-124164428D01*
X123827857Y-124021571D01*
X123827857Y-123843000D01*
X123863571Y-123700142D01*
X123899285Y-123628714D01*
X123935000Y-123593000D01*
X124006428Y-123557285D01*
X122435000Y-126339285D02*
X122006428Y-126339285D01*
X122220714Y-126339285D02*
X122220714Y-125589285D01*
X122149285Y-125696428D01*
X122077857Y-125767857D01*
X122006428Y-125803571D01*
X122899285Y-125589285D02*
X122970714Y-125589285D01*
X123042142Y-125625000D01*
X123077857Y-125660714D01*
X123113571Y-125732142D01*
X123149285Y-125875000D01*
X123149285Y-126053571D01*
X123113571Y-126196428D01*
X123077857Y-126267857D01*
X123042142Y-126303571D01*
X122970714Y-126339285D01*
X122899285Y-126339285D01*
X122827857Y-126303571D01*
X122792142Y-126267857D01*
X122756428Y-126196428D01*
X122720714Y-126053571D01*
X122720714Y-125875000D01*
X122756428Y-125732142D01*
X122792142Y-125660714D01*
X122827857Y-125625000D01*
X122899285Y-125589285D01*
X123613571Y-125589285D02*
X123685000Y-125589285D01*
X123756428Y-125625000D01*
X123792142Y-125660714D01*
X123827857Y-125732142D01*
X123863571Y-125875000D01*
X123863571Y-126053571D01*
X123827857Y-126196428D01*
X123792142Y-126267857D01*
X123756428Y-126303571D01*
X123685000Y-126339285D01*
X123613571Y-126339285D01*
X123542142Y-126303571D01*
X123506428Y-126267857D01*
X123470714Y-126196428D01*
X123435000Y-126053571D01*
X123435000Y-125875000D01*
X123470714Y-125732142D01*
X123506428Y-125660714D01*
X123542142Y-125625000D01*
X123613571Y-125589285D01*
X124185000Y-126339285D02*
X124185000Y-125589285D01*
X124613571Y-126339285D02*
X124292142Y-125910714D01*
X124613571Y-125589285D02*
X124185000Y-126017857D01*
%TO.C,R11*%
X122827857Y-138307285D02*
X122577857Y-137950142D01*
X122399285Y-138307285D02*
X122399285Y-137557285D01*
X122685000Y-137557285D01*
X122756428Y-137593000D01*
X122792142Y-137628714D01*
X122827857Y-137700142D01*
X122827857Y-137807285D01*
X122792142Y-137878714D01*
X122756428Y-137914428D01*
X122685000Y-137950142D01*
X122399285Y-137950142D01*
X123542142Y-138307285D02*
X123113571Y-138307285D01*
X123327857Y-138307285D02*
X123327857Y-137557285D01*
X123256428Y-137664428D01*
X123185000Y-137735857D01*
X123113571Y-137771571D01*
X124256428Y-138307285D02*
X123827857Y-138307285D01*
X124042142Y-138307285D02*
X124042142Y-137557285D01*
X123970714Y-137664428D01*
X123899285Y-137735857D01*
X123827857Y-137771571D01*
X122435000Y-140339285D02*
X122006428Y-140339285D01*
X122220714Y-140339285D02*
X122220714Y-139589285D01*
X122149285Y-139696428D01*
X122077857Y-139767857D01*
X122006428Y-139803571D01*
X122899285Y-139589285D02*
X122970714Y-139589285D01*
X123042142Y-139625000D01*
X123077857Y-139660714D01*
X123113571Y-139732142D01*
X123149285Y-139875000D01*
X123149285Y-140053571D01*
X123113571Y-140196428D01*
X123077857Y-140267857D01*
X123042142Y-140303571D01*
X122970714Y-140339285D01*
X122899285Y-140339285D01*
X122827857Y-140303571D01*
X122792142Y-140267857D01*
X122756428Y-140196428D01*
X122720714Y-140053571D01*
X122720714Y-139875000D01*
X122756428Y-139732142D01*
X122792142Y-139660714D01*
X122827857Y-139625000D01*
X122899285Y-139589285D01*
X123613571Y-139589285D02*
X123685000Y-139589285D01*
X123756428Y-139625000D01*
X123792142Y-139660714D01*
X123827857Y-139732142D01*
X123863571Y-139875000D01*
X123863571Y-140053571D01*
X123827857Y-140196428D01*
X123792142Y-140267857D01*
X123756428Y-140303571D01*
X123685000Y-140339285D01*
X123613571Y-140339285D01*
X123542142Y-140303571D01*
X123506428Y-140267857D01*
X123470714Y-140196428D01*
X123435000Y-140053571D01*
X123435000Y-139875000D01*
X123470714Y-139732142D01*
X123506428Y-139660714D01*
X123542142Y-139625000D01*
X123613571Y-139589285D01*
X124185000Y-140339285D02*
X124185000Y-139589285D01*
X124613571Y-140339285D02*
X124292142Y-139910714D01*
X124613571Y-139589285D02*
X124185000Y-140017857D01*
%TO.C,R12*%
X122827857Y-86807285D02*
X122577857Y-86450142D01*
X122399285Y-86807285D02*
X122399285Y-86057285D01*
X122685000Y-86057285D01*
X122756428Y-86093000D01*
X122792142Y-86128714D01*
X122827857Y-86200142D01*
X122827857Y-86307285D01*
X122792142Y-86378714D01*
X122756428Y-86414428D01*
X122685000Y-86450142D01*
X122399285Y-86450142D01*
X123542142Y-86807285D02*
X123113571Y-86807285D01*
X123327857Y-86807285D02*
X123327857Y-86057285D01*
X123256428Y-86164428D01*
X123185000Y-86235857D01*
X123113571Y-86271571D01*
X123827857Y-86128714D02*
X123863571Y-86093000D01*
X123935000Y-86057285D01*
X124113571Y-86057285D01*
X124185000Y-86093000D01*
X124220714Y-86128714D01*
X124256428Y-86200142D01*
X124256428Y-86271571D01*
X124220714Y-86378714D01*
X123792142Y-86807285D01*
X124256428Y-86807285D01*
X122006428Y-88160714D02*
X122042142Y-88125000D01*
X122113571Y-88089285D01*
X122292142Y-88089285D01*
X122363571Y-88125000D01*
X122399285Y-88160714D01*
X122435000Y-88232142D01*
X122435000Y-88303571D01*
X122399285Y-88410714D01*
X121970714Y-88839285D01*
X122435000Y-88839285D01*
X122899285Y-88089285D02*
X122970714Y-88089285D01*
X123042142Y-88125000D01*
X123077857Y-88160714D01*
X123113571Y-88232142D01*
X123149285Y-88375000D01*
X123149285Y-88553571D01*
X123113571Y-88696428D01*
X123077857Y-88767857D01*
X123042142Y-88803571D01*
X122970714Y-88839285D01*
X122899285Y-88839285D01*
X122827857Y-88803571D01*
X122792142Y-88767857D01*
X122756428Y-88696428D01*
X122720714Y-88553571D01*
X122720714Y-88375000D01*
X122756428Y-88232142D01*
X122792142Y-88160714D01*
X122827857Y-88125000D01*
X122899285Y-88089285D01*
X123613571Y-88089285D02*
X123685000Y-88089285D01*
X123756428Y-88125000D01*
X123792142Y-88160714D01*
X123827857Y-88232142D01*
X123863571Y-88375000D01*
X123863571Y-88553571D01*
X123827857Y-88696428D01*
X123792142Y-88767857D01*
X123756428Y-88803571D01*
X123685000Y-88839285D01*
X123613571Y-88839285D01*
X123542142Y-88803571D01*
X123506428Y-88767857D01*
X123470714Y-88696428D01*
X123435000Y-88553571D01*
X123435000Y-88375000D01*
X123470714Y-88232142D01*
X123506428Y-88160714D01*
X123542142Y-88125000D01*
X123613571Y-88089285D01*
X124185000Y-88839285D02*
X124185000Y-88089285D01*
X124613571Y-88839285D02*
X124292142Y-88410714D01*
X124613571Y-88089285D02*
X124185000Y-88517857D01*
%TO.C,R13*%
X108827857Y-76307285D02*
X108577857Y-75950142D01*
X108399285Y-76307285D02*
X108399285Y-75557285D01*
X108685000Y-75557285D01*
X108756428Y-75593000D01*
X108792142Y-75628714D01*
X108827857Y-75700142D01*
X108827857Y-75807285D01*
X108792142Y-75878714D01*
X108756428Y-75914428D01*
X108685000Y-75950142D01*
X108399285Y-75950142D01*
X109542142Y-76307285D02*
X109113571Y-76307285D01*
X109327857Y-76307285D02*
X109327857Y-75557285D01*
X109256428Y-75664428D01*
X109185000Y-75735857D01*
X109113571Y-75771571D01*
X109792142Y-75557285D02*
X110256428Y-75557285D01*
X110006428Y-75843000D01*
X110113571Y-75843000D01*
X110185000Y-75878714D01*
X110220714Y-75914428D01*
X110256428Y-75985857D01*
X110256428Y-76164428D01*
X110220714Y-76235857D01*
X110185000Y-76271571D01*
X110113571Y-76307285D01*
X109899285Y-76307285D01*
X109827857Y-76271571D01*
X109792142Y-76235857D01*
X109149285Y-78339285D02*
X108720714Y-78339285D01*
X108935000Y-78339285D02*
X108935000Y-77589285D01*
X108863571Y-77696428D01*
X108792142Y-77767857D01*
X108720714Y-77803571D01*
X109470714Y-78339285D02*
X109470714Y-77589285D01*
X109899285Y-78339285D02*
X109577857Y-77910714D01*
X109899285Y-77589285D02*
X109470714Y-78017857D01*
%TO.C,R14*%
X122827857Y-76307285D02*
X122577857Y-75950142D01*
X122399285Y-76307285D02*
X122399285Y-75557285D01*
X122685000Y-75557285D01*
X122756428Y-75593000D01*
X122792142Y-75628714D01*
X122827857Y-75700142D01*
X122827857Y-75807285D01*
X122792142Y-75878714D01*
X122756428Y-75914428D01*
X122685000Y-75950142D01*
X122399285Y-75950142D01*
X123542142Y-76307285D02*
X123113571Y-76307285D01*
X123327857Y-76307285D02*
X123327857Y-75557285D01*
X123256428Y-75664428D01*
X123185000Y-75735857D01*
X123113571Y-75771571D01*
X124185000Y-75807285D02*
X124185000Y-76307285D01*
X124006428Y-75521571D02*
X123827857Y-76057285D01*
X124292142Y-76057285D01*
X122006428Y-77660714D02*
X122042142Y-77625000D01*
X122113571Y-77589285D01*
X122292142Y-77589285D01*
X122363571Y-77625000D01*
X122399285Y-77660714D01*
X122435000Y-77732142D01*
X122435000Y-77803571D01*
X122399285Y-77910714D01*
X121970714Y-78339285D01*
X122435000Y-78339285D01*
X122899285Y-77589285D02*
X122970714Y-77589285D01*
X123042142Y-77625000D01*
X123077857Y-77660714D01*
X123113571Y-77732142D01*
X123149285Y-77875000D01*
X123149285Y-78053571D01*
X123113571Y-78196428D01*
X123077857Y-78267857D01*
X123042142Y-78303571D01*
X122970714Y-78339285D01*
X122899285Y-78339285D01*
X122827857Y-78303571D01*
X122792142Y-78267857D01*
X122756428Y-78196428D01*
X122720714Y-78053571D01*
X122720714Y-77875000D01*
X122756428Y-77732142D01*
X122792142Y-77660714D01*
X122827857Y-77625000D01*
X122899285Y-77589285D01*
X123613571Y-77589285D02*
X123685000Y-77589285D01*
X123756428Y-77625000D01*
X123792142Y-77660714D01*
X123827857Y-77732142D01*
X123863571Y-77875000D01*
X123863571Y-78053571D01*
X123827857Y-78196428D01*
X123792142Y-78267857D01*
X123756428Y-78303571D01*
X123685000Y-78339285D01*
X123613571Y-78339285D01*
X123542142Y-78303571D01*
X123506428Y-78267857D01*
X123470714Y-78196428D01*
X123435000Y-78053571D01*
X123435000Y-77875000D01*
X123470714Y-77732142D01*
X123506428Y-77660714D01*
X123542142Y-77625000D01*
X123613571Y-77589285D01*
X124185000Y-78339285D02*
X124185000Y-77589285D01*
X124613571Y-78339285D02*
X124292142Y-77910714D01*
X124613571Y-77589285D02*
X124185000Y-78017857D01*
%TO.C,U1*%
X122738571Y-94759285D02*
X122738571Y-95366428D01*
X122774285Y-95437857D01*
X122810000Y-95473571D01*
X122881428Y-95509285D01*
X123024285Y-95509285D01*
X123095714Y-95473571D01*
X123131428Y-95437857D01*
X123167142Y-95366428D01*
X123167142Y-94759285D01*
X123917142Y-95509285D02*
X123488571Y-95509285D01*
X123702857Y-95509285D02*
X123702857Y-94759285D01*
X123631428Y-94866428D01*
X123560000Y-94937857D01*
X123488571Y-94973571D01*
X122899285Y-106709285D02*
X122899285Y-106280714D01*
X123649285Y-106495000D02*
X122899285Y-106495000D01*
X123649285Y-105673571D02*
X123649285Y-106030714D01*
X122899285Y-106030714D01*
X122899285Y-105280714D02*
X122899285Y-105209285D01*
X122935000Y-105137857D01*
X122970714Y-105102142D01*
X123042142Y-105066428D01*
X123185000Y-105030714D01*
X123363571Y-105030714D01*
X123506428Y-105066428D01*
X123577857Y-105102142D01*
X123613571Y-105137857D01*
X123649285Y-105209285D01*
X123649285Y-105280714D01*
X123613571Y-105352142D01*
X123577857Y-105387857D01*
X123506428Y-105423571D01*
X123363571Y-105459285D01*
X123185000Y-105459285D01*
X123042142Y-105423571D01*
X122970714Y-105387857D01*
X122935000Y-105352142D01*
X122899285Y-105280714D01*
X122899285Y-104780714D02*
X122899285Y-104280714D01*
X123649285Y-104602142D01*
X123149285Y-103673571D02*
X123649285Y-103673571D01*
X122863571Y-103852142D02*
X123399285Y-104030714D01*
X123399285Y-103566428D01*
%TO.C,C5*%
X131875000Y-97267857D02*
X131839285Y-97303571D01*
X131732142Y-97339285D01*
X131660714Y-97339285D01*
X131553571Y-97303571D01*
X131482142Y-97232142D01*
X131446428Y-97160714D01*
X131410714Y-97017857D01*
X131410714Y-96910714D01*
X131446428Y-96767857D01*
X131482142Y-96696428D01*
X131553571Y-96625000D01*
X131660714Y-96589285D01*
X131732142Y-96589285D01*
X131839285Y-96625000D01*
X131875000Y-96660714D01*
X132553571Y-96589285D02*
X132196428Y-96589285D01*
X132160714Y-96946428D01*
X132196428Y-96910714D01*
X132267857Y-96875000D01*
X132446428Y-96875000D01*
X132517857Y-96910714D01*
X132553571Y-96946428D01*
X132589285Y-97017857D01*
X132589285Y-97196428D01*
X132553571Y-97267857D01*
X132517857Y-97303571D01*
X132446428Y-97339285D01*
X132267857Y-97339285D01*
X132196428Y-97303571D01*
X132160714Y-97267857D01*
X135303571Y-97339285D02*
X134875000Y-97339285D01*
X135089285Y-97339285D02*
X135089285Y-96589285D01*
X135017857Y-96696428D01*
X134946428Y-96767857D01*
X134875000Y-96803571D01*
X135767857Y-96589285D02*
X135839285Y-96589285D01*
X135910714Y-96625000D01*
X135946428Y-96660714D01*
X135982142Y-96732142D01*
X136017857Y-96875000D01*
X136017857Y-97053571D01*
X135982142Y-97196428D01*
X135946428Y-97267857D01*
X135910714Y-97303571D01*
X135839285Y-97339285D01*
X135767857Y-97339285D01*
X135696428Y-97303571D01*
X135660714Y-97267857D01*
X135625000Y-97196428D01*
X135589285Y-97053571D01*
X135589285Y-96875000D01*
X135625000Y-96732142D01*
X135660714Y-96660714D01*
X135696428Y-96625000D01*
X135767857Y-96589285D01*
X136660714Y-96839285D02*
X136660714Y-97339285D01*
X136339285Y-96839285D02*
X136339285Y-97232142D01*
X136375000Y-97303571D01*
X136446428Y-97339285D01*
X136553571Y-97339285D01*
X136625000Y-97303571D01*
X136660714Y-97267857D01*
X136910714Y-96839285D02*
X137196428Y-96839285D01*
X137017857Y-97339285D02*
X137017857Y-96696428D01*
X137053571Y-96625000D01*
X137125000Y-96589285D01*
X137196428Y-96589285D01*
%TD*%
M02*
