%TF.GenerationSoftware,KiCad,Pcbnew,(5.1.8-0-10_14)*%
%TF.CreationDate,2021-07-03T12:07:01-04:00*%
%TF.ProjectId,unity,756e6974-792e-46b6-9963-61645f706362,rev?*%
%TF.SameCoordinates,Original*%
%TF.FileFunction,Legend,Bot*%
%TF.FilePolarity,Positive*%
%FSLAX46Y46*%
G04 Gerber Fmt 4.6, Leading zero omitted, Abs format (unit mm)*
G04 Created by KiCad (PCBNEW (5.1.8-0-10_14)) date 2021-07-03 12:07:01*
%MOMM*%
%LPD*%
G01*
G04 APERTURE LIST*
%ADD10C,0.150000*%
%ADD11C,0.120000*%
G04 APERTURE END LIST*
D10*
X170976190Y-170627380D02*
X171309523Y-170151190D01*
X171547619Y-170627380D02*
X171547619Y-169627380D01*
X171166666Y-169627380D01*
X171071428Y-169675000D01*
X171023809Y-169722619D01*
X170976190Y-169817857D01*
X170976190Y-169960714D01*
X171023809Y-170055952D01*
X171071428Y-170103571D01*
X171166666Y-170151190D01*
X171547619Y-170151190D01*
X170547619Y-170627380D02*
X170547619Y-169960714D01*
X170547619Y-169627380D02*
X170595238Y-169675000D01*
X170547619Y-169722619D01*
X170500000Y-169675000D01*
X170547619Y-169627380D01*
X170547619Y-169722619D01*
X169642857Y-170579761D02*
X169738095Y-170627380D01*
X169928571Y-170627380D01*
X170023809Y-170579761D01*
X170071428Y-170532142D01*
X170119047Y-170436904D01*
X170119047Y-170151190D01*
X170071428Y-170055952D01*
X170023809Y-170008333D01*
X169928571Y-169960714D01*
X169738095Y-169960714D01*
X169642857Y-170008333D01*
X169214285Y-170627380D02*
X169214285Y-169627380D01*
X168785714Y-170627380D02*
X168785714Y-170103571D01*
X168833333Y-170008333D01*
X168928571Y-169960714D01*
X169071428Y-169960714D01*
X169166666Y-170008333D01*
X169214285Y-170055952D01*
X167261904Y-169627380D02*
X167261904Y-170341666D01*
X167309523Y-170484523D01*
X167404761Y-170579761D01*
X167547619Y-170627380D01*
X167642857Y-170627380D01*
X166642857Y-170627380D02*
X166738095Y-170579761D01*
X166785714Y-170532142D01*
X166833333Y-170436904D01*
X166833333Y-170151190D01*
X166785714Y-170055952D01*
X166738095Y-170008333D01*
X166642857Y-169960714D01*
X166500000Y-169960714D01*
X166404761Y-170008333D01*
X166357142Y-170055952D01*
X166309523Y-170151190D01*
X166309523Y-170436904D01*
X166357142Y-170532142D01*
X166404761Y-170579761D01*
X166500000Y-170627380D01*
X166642857Y-170627380D01*
X165880952Y-169960714D02*
X165880952Y-170627380D01*
X165880952Y-170055952D02*
X165833333Y-170008333D01*
X165738095Y-169960714D01*
X165595238Y-169960714D01*
X165500000Y-170008333D01*
X165452380Y-170103571D01*
X165452380Y-170627380D01*
X164595238Y-170579761D02*
X164690476Y-170627380D01*
X164880952Y-170627380D01*
X164976190Y-170579761D01*
X165023809Y-170484523D01*
X165023809Y-170103571D01*
X164976190Y-170008333D01*
X164880952Y-169960714D01*
X164690476Y-169960714D01*
X164595238Y-170008333D01*
X164547619Y-170103571D01*
X164547619Y-170198809D01*
X165023809Y-170294047D01*
X164166666Y-170579761D02*
X164071428Y-170627380D01*
X163880952Y-170627380D01*
X163785714Y-170579761D01*
X163738095Y-170484523D01*
X163738095Y-170436904D01*
X163785714Y-170341666D01*
X163880952Y-170294047D01*
X164023809Y-170294047D01*
X164119047Y-170246428D01*
X164166666Y-170151190D01*
X164166666Y-170103571D01*
X164119047Y-170008333D01*
X164023809Y-169960714D01*
X163880952Y-169960714D01*
X163785714Y-170008333D01*
X163309523Y-170532142D02*
X163261904Y-170579761D01*
X163309523Y-170627380D01*
X163357142Y-170579761D01*
X163309523Y-170532142D01*
X163309523Y-170627380D01*
X163309523Y-170246428D02*
X163357142Y-169675000D01*
X163309523Y-169627380D01*
X163261904Y-169675000D01*
X163309523Y-170246428D01*
X163309523Y-169627380D01*
X161452380Y-170151190D02*
X161500000Y-170103571D01*
X161595238Y-170055952D01*
X161690476Y-170055952D01*
X161785714Y-170103571D01*
X161833333Y-170151190D01*
X161880952Y-170246428D01*
X161880952Y-170341666D01*
X161833333Y-170436904D01*
X161785714Y-170484523D01*
X161690476Y-170532142D01*
X161595238Y-170532142D01*
X161500000Y-170484523D01*
X161452380Y-170436904D01*
X161452380Y-170055952D02*
X161452380Y-170436904D01*
X161404761Y-170484523D01*
X161357142Y-170484523D01*
X161261904Y-170436904D01*
X161214285Y-170341666D01*
X161214285Y-170103571D01*
X161309523Y-169960714D01*
X161452380Y-169865476D01*
X161642857Y-169817857D01*
X161833333Y-169865476D01*
X161976190Y-169960714D01*
X162071428Y-170103571D01*
X162119047Y-170294047D01*
X162071428Y-170484523D01*
X161976190Y-170627380D01*
X161833333Y-170722619D01*
X161642857Y-170770238D01*
X161452380Y-170722619D01*
X161309523Y-170627380D01*
X160452380Y-170103571D02*
X160309523Y-170151190D01*
X160261904Y-170198809D01*
X160214285Y-170294047D01*
X160214285Y-170436904D01*
X160261904Y-170532142D01*
X160309523Y-170579761D01*
X160404761Y-170627380D01*
X160785714Y-170627380D01*
X160785714Y-169627380D01*
X160452380Y-169627380D01*
X160357142Y-169675000D01*
X160309523Y-169722619D01*
X160261904Y-169817857D01*
X160261904Y-169913095D01*
X160309523Y-170008333D01*
X160357142Y-170055952D01*
X160452380Y-170103571D01*
X160785714Y-170103571D01*
X159642857Y-170627380D02*
X159738095Y-170579761D01*
X159785714Y-170484523D01*
X159785714Y-169627380D01*
X158833333Y-170627380D02*
X158833333Y-170103571D01*
X158880952Y-170008333D01*
X158976190Y-169960714D01*
X159166666Y-169960714D01*
X159261904Y-170008333D01*
X158833333Y-170579761D02*
X158928571Y-170627380D01*
X159166666Y-170627380D01*
X159261904Y-170579761D01*
X159309523Y-170484523D01*
X159309523Y-170389285D01*
X159261904Y-170294047D01*
X159166666Y-170246428D01*
X158928571Y-170246428D01*
X158833333Y-170198809D01*
X157928571Y-170579761D02*
X158023809Y-170627380D01*
X158214285Y-170627380D01*
X158309523Y-170579761D01*
X158357142Y-170532142D01*
X158404761Y-170436904D01*
X158404761Y-170151190D01*
X158357142Y-170055952D01*
X158309523Y-170008333D01*
X158214285Y-169960714D01*
X158023809Y-169960714D01*
X157928571Y-170008333D01*
X157500000Y-170627380D02*
X157500000Y-169627380D01*
X157404761Y-170246428D02*
X157119047Y-170627380D01*
X157119047Y-169960714D02*
X157500000Y-170341666D01*
X156690476Y-170627380D02*
X156690476Y-169627380D01*
X156452380Y-169627380D01*
X156309523Y-169675000D01*
X156214285Y-169770238D01*
X156166666Y-169865476D01*
X156119047Y-170055952D01*
X156119047Y-170198809D01*
X156166666Y-170389285D01*
X156214285Y-170484523D01*
X156309523Y-170579761D01*
X156452380Y-170627380D01*
X156690476Y-170627380D01*
X155309523Y-170579761D02*
X155404761Y-170627380D01*
X155595238Y-170627380D01*
X155690476Y-170579761D01*
X155738095Y-170484523D01*
X155738095Y-170103571D01*
X155690476Y-170008333D01*
X155595238Y-169960714D01*
X155404761Y-169960714D01*
X155309523Y-170008333D01*
X155261904Y-170103571D01*
X155261904Y-170198809D01*
X155738095Y-170294047D01*
X154404761Y-170627380D02*
X154404761Y-170103571D01*
X154452380Y-170008333D01*
X154547619Y-169960714D01*
X154738095Y-169960714D01*
X154833333Y-170008333D01*
X154404761Y-170579761D02*
X154500000Y-170627380D01*
X154738095Y-170627380D01*
X154833333Y-170579761D01*
X154880952Y-170484523D01*
X154880952Y-170389285D01*
X154833333Y-170294047D01*
X154738095Y-170246428D01*
X154500000Y-170246428D01*
X154404761Y-170198809D01*
X154071428Y-169960714D02*
X153690476Y-169960714D01*
X153928571Y-169627380D02*
X153928571Y-170484523D01*
X153880952Y-170579761D01*
X153785714Y-170627380D01*
X153690476Y-170627380D01*
X153357142Y-170627380D02*
X153357142Y-169627380D01*
X152928571Y-170627380D02*
X152928571Y-170103571D01*
X152976190Y-170008333D01*
X153071428Y-169960714D01*
X153214285Y-169960714D01*
X153309523Y-170008333D01*
X153357142Y-170055952D01*
X152452380Y-170532142D02*
X152404761Y-170579761D01*
X152452380Y-170627380D01*
X152500000Y-170579761D01*
X152452380Y-170532142D01*
X152452380Y-170627380D01*
X152452380Y-170246428D02*
X152500000Y-169675000D01*
X152452380Y-169627380D01*
X152404761Y-169675000D01*
X152452380Y-170246428D01*
X152452380Y-169627380D01*
X168214285Y-171372619D02*
X168166666Y-171325000D01*
X168071428Y-171277380D01*
X167833333Y-171277380D01*
X167738095Y-171325000D01*
X167690476Y-171372619D01*
X167642857Y-171467857D01*
X167642857Y-171563095D01*
X167690476Y-171705952D01*
X168261904Y-172277380D01*
X167642857Y-172277380D01*
X167023809Y-171277380D02*
X166928571Y-171277380D01*
X166833333Y-171325000D01*
X166785714Y-171372619D01*
X166738095Y-171467857D01*
X166690476Y-171658333D01*
X166690476Y-171896428D01*
X166738095Y-172086904D01*
X166785714Y-172182142D01*
X166833333Y-172229761D01*
X166928571Y-172277380D01*
X167023809Y-172277380D01*
X167119047Y-172229761D01*
X167166666Y-172182142D01*
X167214285Y-172086904D01*
X167261904Y-171896428D01*
X167261904Y-171658333D01*
X167214285Y-171467857D01*
X167166666Y-171372619D01*
X167119047Y-171325000D01*
X167023809Y-171277380D01*
X166309523Y-171372619D02*
X166261904Y-171325000D01*
X166166666Y-171277380D01*
X165928571Y-171277380D01*
X165833333Y-171325000D01*
X165785714Y-171372619D01*
X165738095Y-171467857D01*
X165738095Y-171563095D01*
X165785714Y-171705952D01*
X166357142Y-172277380D01*
X165738095Y-172277380D01*
X164785714Y-172277380D02*
X165357142Y-172277380D01*
X165071428Y-172277380D02*
X165071428Y-171277380D01*
X165166666Y-171420238D01*
X165261904Y-171515476D01*
X165357142Y-171563095D01*
X163119047Y-172277380D02*
X163595238Y-172277380D01*
X163595238Y-171277380D01*
X162785714Y-172277380D02*
X162785714Y-171277380D01*
X162452380Y-171991666D01*
X162119047Y-171277380D01*
X162119047Y-172277380D01*
X161642857Y-172277380D02*
X161642857Y-171277380D01*
X161071428Y-172277380D01*
X161071428Y-171277380D01*
X160023809Y-172182142D02*
X160071428Y-172229761D01*
X160214285Y-172277380D01*
X160309523Y-172277380D01*
X160452380Y-172229761D01*
X160547619Y-172134523D01*
X160595238Y-172039285D01*
X160642857Y-171848809D01*
X160642857Y-171705952D01*
X160595238Y-171515476D01*
X160547619Y-171420238D01*
X160452380Y-171325000D01*
X160309523Y-171277380D01*
X160214285Y-171277380D01*
X160071428Y-171325000D01*
X160023809Y-171372619D01*
X158309523Y-171325000D02*
X158404761Y-171277380D01*
X158547619Y-171277380D01*
X158690476Y-171325000D01*
X158785714Y-171420238D01*
X158833333Y-171515476D01*
X158880952Y-171705952D01*
X158880952Y-171848809D01*
X158833333Y-172039285D01*
X158785714Y-172134523D01*
X158690476Y-172229761D01*
X158547619Y-172277380D01*
X158452380Y-172277380D01*
X158309523Y-172229761D01*
X158261904Y-172182142D01*
X158261904Y-171848809D01*
X158452380Y-171848809D01*
X157690476Y-172277380D02*
X157785714Y-172229761D01*
X157833333Y-172182142D01*
X157880952Y-172086904D01*
X157880952Y-171801190D01*
X157833333Y-171705952D01*
X157785714Y-171658333D01*
X157690476Y-171610714D01*
X157547619Y-171610714D01*
X157452380Y-171658333D01*
X157404761Y-171705952D01*
X157357142Y-171801190D01*
X157357142Y-172086904D01*
X157404761Y-172182142D01*
X157452380Y-172229761D01*
X157547619Y-172277380D01*
X157690476Y-172277380D01*
X156785714Y-172277380D02*
X156880952Y-172229761D01*
X156928571Y-172134523D01*
X156928571Y-171277380D01*
X156547619Y-171610714D02*
X156166666Y-171610714D01*
X156404761Y-172277380D02*
X156404761Y-171420238D01*
X156357142Y-171325000D01*
X156261904Y-171277380D01*
X156166666Y-171277380D01*
X155833333Y-172182142D02*
X155785714Y-172229761D01*
X155833333Y-172277380D01*
X155880952Y-172229761D01*
X155833333Y-172182142D01*
X155833333Y-172277380D01*
X155833333Y-171896428D02*
X155880952Y-171325000D01*
X155833333Y-171277380D01*
X155785714Y-171325000D01*
X155833333Y-171896428D01*
X155833333Y-171277380D01*
D11*
%TO.C,R9*%
X170580000Y-76130000D02*
X170580000Y-76460000D01*
X164040000Y-76130000D02*
X170580000Y-76130000D01*
X164040000Y-76460000D02*
X164040000Y-76130000D01*
X170580000Y-78870000D02*
X170580000Y-78540000D01*
X164040000Y-78870000D02*
X170580000Y-78870000D01*
X164040000Y-78540000D02*
X164040000Y-78870000D01*
%TO.C,R5*%
X164040000Y-64540000D02*
X164040000Y-64870000D01*
X164040000Y-64870000D02*
X170580000Y-64870000D01*
X170580000Y-64870000D02*
X170580000Y-64540000D01*
X164040000Y-62460000D02*
X164040000Y-62130000D01*
X164040000Y-62130000D02*
X170580000Y-62130000D01*
X170580000Y-62130000D02*
X170580000Y-62460000D01*
%TO.C,J6*%
X164170000Y-93100000D02*
X171550000Y-93100000D01*
X164170000Y-93600000D02*
X164170000Y-93120000D01*
X159670000Y-93100000D02*
X159670000Y-93610000D01*
X152300000Y-93100000D02*
X159650000Y-93100000D01*
X152300000Y-93100000D02*
X151800000Y-93600000D01*
X152300000Y-85350000D02*
X152300000Y-93100000D01*
X152300000Y-85350000D02*
X151750000Y-84800000D01*
X171550000Y-85350000D02*
X152300000Y-85350000D01*
X171550000Y-85350000D02*
X172100000Y-84800000D01*
X171550000Y-93100000D02*
X171550000Y-85350000D01*
X172100000Y-93650000D02*
X171550000Y-93100000D01*
X151750000Y-93650000D02*
X172100000Y-93650000D01*
X151750000Y-84800000D02*
X151750000Y-93650000D01*
X172100000Y-84800000D02*
X151750000Y-84800000D01*
X172100000Y-93650000D02*
X172100000Y-84800000D01*
X172350000Y-93905000D02*
X172350000Y-84555000D01*
X151490000Y-93905000D02*
X172350000Y-93905000D01*
X151490000Y-84555000D02*
X151490000Y-93905000D01*
X172350000Y-84555000D02*
X151490000Y-84555000D01*
%TO.C,R17*%
X160080000Y-143130000D02*
X160080000Y-143460000D01*
X153540000Y-143130000D02*
X160080000Y-143130000D01*
X153540000Y-143460000D02*
X153540000Y-143130000D01*
X160080000Y-145870000D02*
X160080000Y-145540000D01*
X153540000Y-145870000D02*
X160080000Y-145870000D01*
X153540000Y-145540000D02*
X153540000Y-145870000D01*
%TO.C,C1*%
X156621000Y-115080000D02*
X157879000Y-115080000D01*
X156621000Y-116920000D02*
X157879000Y-116920000D01*
%TO.C,C2*%
X167121000Y-116920000D02*
X168379000Y-116920000D01*
X167121000Y-115080000D02*
X168379000Y-115080000D01*
%TO.C,C3*%
X154945225Y-110225000D02*
X154945225Y-109725000D01*
X154695225Y-109975000D02*
X155195225Y-109975000D01*
X160101000Y-108784000D02*
X160101000Y-108216000D01*
X160061000Y-109018000D02*
X160061000Y-107982000D01*
X160021000Y-109177000D02*
X160021000Y-107823000D01*
X159981000Y-109305000D02*
X159981000Y-107695000D01*
X159941000Y-109415000D02*
X159941000Y-107585000D01*
X159901000Y-109511000D02*
X159901000Y-107489000D01*
X159861000Y-109598000D02*
X159861000Y-107402000D01*
X159821000Y-109678000D02*
X159821000Y-107322000D01*
X159781000Y-109751000D02*
X159781000Y-107249000D01*
X159741000Y-109819000D02*
X159741000Y-107181000D01*
X159701000Y-109883000D02*
X159701000Y-107117000D01*
X159661000Y-109943000D02*
X159661000Y-107057000D01*
X159621000Y-110000000D02*
X159621000Y-107000000D01*
X159581000Y-110054000D02*
X159581000Y-106946000D01*
X159541000Y-110105000D02*
X159541000Y-106895000D01*
X159501000Y-107460000D02*
X159501000Y-106847000D01*
X159501000Y-110153000D02*
X159501000Y-109540000D01*
X159461000Y-107460000D02*
X159461000Y-106801000D01*
X159461000Y-110199000D02*
X159461000Y-109540000D01*
X159421000Y-107460000D02*
X159421000Y-106757000D01*
X159421000Y-110243000D02*
X159421000Y-109540000D01*
X159381000Y-107460000D02*
X159381000Y-106715000D01*
X159381000Y-110285000D02*
X159381000Y-109540000D01*
X159341000Y-107460000D02*
X159341000Y-106674000D01*
X159341000Y-110326000D02*
X159341000Y-109540000D01*
X159301000Y-107460000D02*
X159301000Y-106636000D01*
X159301000Y-110364000D02*
X159301000Y-109540000D01*
X159261000Y-107460000D02*
X159261000Y-106599000D01*
X159261000Y-110401000D02*
X159261000Y-109540000D01*
X159221000Y-107460000D02*
X159221000Y-106563000D01*
X159221000Y-110437000D02*
X159221000Y-109540000D01*
X159181000Y-107460000D02*
X159181000Y-106529000D01*
X159181000Y-110471000D02*
X159181000Y-109540000D01*
X159141000Y-107460000D02*
X159141000Y-106496000D01*
X159141000Y-110504000D02*
X159141000Y-109540000D01*
X159101000Y-107460000D02*
X159101000Y-106465000D01*
X159101000Y-110535000D02*
X159101000Y-109540000D01*
X159061000Y-107460000D02*
X159061000Y-106435000D01*
X159061000Y-110565000D02*
X159061000Y-109540000D01*
X159021000Y-107460000D02*
X159021000Y-106405000D01*
X159021000Y-110595000D02*
X159021000Y-109540000D01*
X158981000Y-107460000D02*
X158981000Y-106378000D01*
X158981000Y-110622000D02*
X158981000Y-109540000D01*
X158941000Y-107460000D02*
X158941000Y-106351000D01*
X158941000Y-110649000D02*
X158941000Y-109540000D01*
X158901000Y-107460000D02*
X158901000Y-106325000D01*
X158901000Y-110675000D02*
X158901000Y-109540000D01*
X158861000Y-107460000D02*
X158861000Y-106300000D01*
X158861000Y-110700000D02*
X158861000Y-109540000D01*
X158821000Y-107460000D02*
X158821000Y-106276000D01*
X158821000Y-110724000D02*
X158821000Y-109540000D01*
X158781000Y-107460000D02*
X158781000Y-106253000D01*
X158781000Y-110747000D02*
X158781000Y-109540000D01*
X158741000Y-107460000D02*
X158741000Y-106232000D01*
X158741000Y-110768000D02*
X158741000Y-109540000D01*
X158701000Y-107460000D02*
X158701000Y-106210000D01*
X158701000Y-110790000D02*
X158701000Y-109540000D01*
X158661000Y-107460000D02*
X158661000Y-106190000D01*
X158661000Y-110810000D02*
X158661000Y-109540000D01*
X158621000Y-107460000D02*
X158621000Y-106171000D01*
X158621000Y-110829000D02*
X158621000Y-109540000D01*
X158581000Y-107460000D02*
X158581000Y-106152000D01*
X158581000Y-110848000D02*
X158581000Y-109540000D01*
X158541000Y-107460000D02*
X158541000Y-106135000D01*
X158541000Y-110865000D02*
X158541000Y-109540000D01*
X158501000Y-107460000D02*
X158501000Y-106118000D01*
X158501000Y-110882000D02*
X158501000Y-109540000D01*
X158461000Y-107460000D02*
X158461000Y-106102000D01*
X158461000Y-110898000D02*
X158461000Y-109540000D01*
X158421000Y-107460000D02*
X158421000Y-106086000D01*
X158421000Y-110914000D02*
X158421000Y-109540000D01*
X158381000Y-107460000D02*
X158381000Y-106072000D01*
X158381000Y-110928000D02*
X158381000Y-109540000D01*
X158341000Y-107460000D02*
X158341000Y-106058000D01*
X158341000Y-110942000D02*
X158341000Y-109540000D01*
X158301000Y-107460000D02*
X158301000Y-106045000D01*
X158301000Y-110955000D02*
X158301000Y-109540000D01*
X158261000Y-107460000D02*
X158261000Y-106032000D01*
X158261000Y-110968000D02*
X158261000Y-109540000D01*
X158221000Y-107460000D02*
X158221000Y-106020000D01*
X158221000Y-110980000D02*
X158221000Y-109540000D01*
X158180000Y-107460000D02*
X158180000Y-106009000D01*
X158180000Y-110991000D02*
X158180000Y-109540000D01*
X158140000Y-107460000D02*
X158140000Y-105999000D01*
X158140000Y-111001000D02*
X158140000Y-109540000D01*
X158100000Y-107460000D02*
X158100000Y-105989000D01*
X158100000Y-111011000D02*
X158100000Y-109540000D01*
X158060000Y-107460000D02*
X158060000Y-105980000D01*
X158060000Y-111020000D02*
X158060000Y-109540000D01*
X158020000Y-107460000D02*
X158020000Y-105972000D01*
X158020000Y-111028000D02*
X158020000Y-109540000D01*
X157980000Y-107460000D02*
X157980000Y-105964000D01*
X157980000Y-111036000D02*
X157980000Y-109540000D01*
X157940000Y-107460000D02*
X157940000Y-105957000D01*
X157940000Y-111043000D02*
X157940000Y-109540000D01*
X157900000Y-107460000D02*
X157900000Y-105950000D01*
X157900000Y-111050000D02*
X157900000Y-109540000D01*
X157860000Y-107460000D02*
X157860000Y-105944000D01*
X157860000Y-111056000D02*
X157860000Y-109540000D01*
X157820000Y-107460000D02*
X157820000Y-105939000D01*
X157820000Y-111061000D02*
X157820000Y-109540000D01*
X157780000Y-107460000D02*
X157780000Y-105935000D01*
X157780000Y-111065000D02*
X157780000Y-109540000D01*
X157740000Y-107460000D02*
X157740000Y-105931000D01*
X157740000Y-111069000D02*
X157740000Y-109540000D01*
X157700000Y-107460000D02*
X157700000Y-105927000D01*
X157700000Y-111073000D02*
X157700000Y-109540000D01*
X157660000Y-107460000D02*
X157660000Y-105924000D01*
X157660000Y-111076000D02*
X157660000Y-109540000D01*
X157620000Y-107460000D02*
X157620000Y-105922000D01*
X157620000Y-111078000D02*
X157620000Y-109540000D01*
X157580000Y-107460000D02*
X157580000Y-105921000D01*
X157580000Y-111079000D02*
X157580000Y-109540000D01*
X157540000Y-111080000D02*
X157540000Y-109540000D01*
X157540000Y-107460000D02*
X157540000Y-105920000D01*
X157500000Y-111080000D02*
X157500000Y-109540000D01*
X157500000Y-107460000D02*
X157500000Y-105920000D01*
X160120000Y-108500000D02*
G75*
G03*
X160120000Y-108500000I-2620000J0D01*
G01*
%TO.C,C4*%
X170120000Y-108500000D02*
G75*
G03*
X170120000Y-108500000I-2620000J0D01*
G01*
X167500000Y-107460000D02*
X167500000Y-105920000D01*
X167500000Y-111080000D02*
X167500000Y-109540000D01*
X167540000Y-107460000D02*
X167540000Y-105920000D01*
X167540000Y-111080000D02*
X167540000Y-109540000D01*
X167580000Y-111079000D02*
X167580000Y-109540000D01*
X167580000Y-107460000D02*
X167580000Y-105921000D01*
X167620000Y-111078000D02*
X167620000Y-109540000D01*
X167620000Y-107460000D02*
X167620000Y-105922000D01*
X167660000Y-111076000D02*
X167660000Y-109540000D01*
X167660000Y-107460000D02*
X167660000Y-105924000D01*
X167700000Y-111073000D02*
X167700000Y-109540000D01*
X167700000Y-107460000D02*
X167700000Y-105927000D01*
X167740000Y-111069000D02*
X167740000Y-109540000D01*
X167740000Y-107460000D02*
X167740000Y-105931000D01*
X167780000Y-111065000D02*
X167780000Y-109540000D01*
X167780000Y-107460000D02*
X167780000Y-105935000D01*
X167820000Y-111061000D02*
X167820000Y-109540000D01*
X167820000Y-107460000D02*
X167820000Y-105939000D01*
X167860000Y-111056000D02*
X167860000Y-109540000D01*
X167860000Y-107460000D02*
X167860000Y-105944000D01*
X167900000Y-111050000D02*
X167900000Y-109540000D01*
X167900000Y-107460000D02*
X167900000Y-105950000D01*
X167940000Y-111043000D02*
X167940000Y-109540000D01*
X167940000Y-107460000D02*
X167940000Y-105957000D01*
X167980000Y-111036000D02*
X167980000Y-109540000D01*
X167980000Y-107460000D02*
X167980000Y-105964000D01*
X168020000Y-111028000D02*
X168020000Y-109540000D01*
X168020000Y-107460000D02*
X168020000Y-105972000D01*
X168060000Y-111020000D02*
X168060000Y-109540000D01*
X168060000Y-107460000D02*
X168060000Y-105980000D01*
X168100000Y-111011000D02*
X168100000Y-109540000D01*
X168100000Y-107460000D02*
X168100000Y-105989000D01*
X168140000Y-111001000D02*
X168140000Y-109540000D01*
X168140000Y-107460000D02*
X168140000Y-105999000D01*
X168180000Y-110991000D02*
X168180000Y-109540000D01*
X168180000Y-107460000D02*
X168180000Y-106009000D01*
X168221000Y-110980000D02*
X168221000Y-109540000D01*
X168221000Y-107460000D02*
X168221000Y-106020000D01*
X168261000Y-110968000D02*
X168261000Y-109540000D01*
X168261000Y-107460000D02*
X168261000Y-106032000D01*
X168301000Y-110955000D02*
X168301000Y-109540000D01*
X168301000Y-107460000D02*
X168301000Y-106045000D01*
X168341000Y-110942000D02*
X168341000Y-109540000D01*
X168341000Y-107460000D02*
X168341000Y-106058000D01*
X168381000Y-110928000D02*
X168381000Y-109540000D01*
X168381000Y-107460000D02*
X168381000Y-106072000D01*
X168421000Y-110914000D02*
X168421000Y-109540000D01*
X168421000Y-107460000D02*
X168421000Y-106086000D01*
X168461000Y-110898000D02*
X168461000Y-109540000D01*
X168461000Y-107460000D02*
X168461000Y-106102000D01*
X168501000Y-110882000D02*
X168501000Y-109540000D01*
X168501000Y-107460000D02*
X168501000Y-106118000D01*
X168541000Y-110865000D02*
X168541000Y-109540000D01*
X168541000Y-107460000D02*
X168541000Y-106135000D01*
X168581000Y-110848000D02*
X168581000Y-109540000D01*
X168581000Y-107460000D02*
X168581000Y-106152000D01*
X168621000Y-110829000D02*
X168621000Y-109540000D01*
X168621000Y-107460000D02*
X168621000Y-106171000D01*
X168661000Y-110810000D02*
X168661000Y-109540000D01*
X168661000Y-107460000D02*
X168661000Y-106190000D01*
X168701000Y-110790000D02*
X168701000Y-109540000D01*
X168701000Y-107460000D02*
X168701000Y-106210000D01*
X168741000Y-110768000D02*
X168741000Y-109540000D01*
X168741000Y-107460000D02*
X168741000Y-106232000D01*
X168781000Y-110747000D02*
X168781000Y-109540000D01*
X168781000Y-107460000D02*
X168781000Y-106253000D01*
X168821000Y-110724000D02*
X168821000Y-109540000D01*
X168821000Y-107460000D02*
X168821000Y-106276000D01*
X168861000Y-110700000D02*
X168861000Y-109540000D01*
X168861000Y-107460000D02*
X168861000Y-106300000D01*
X168901000Y-110675000D02*
X168901000Y-109540000D01*
X168901000Y-107460000D02*
X168901000Y-106325000D01*
X168941000Y-110649000D02*
X168941000Y-109540000D01*
X168941000Y-107460000D02*
X168941000Y-106351000D01*
X168981000Y-110622000D02*
X168981000Y-109540000D01*
X168981000Y-107460000D02*
X168981000Y-106378000D01*
X169021000Y-110595000D02*
X169021000Y-109540000D01*
X169021000Y-107460000D02*
X169021000Y-106405000D01*
X169061000Y-110565000D02*
X169061000Y-109540000D01*
X169061000Y-107460000D02*
X169061000Y-106435000D01*
X169101000Y-110535000D02*
X169101000Y-109540000D01*
X169101000Y-107460000D02*
X169101000Y-106465000D01*
X169141000Y-110504000D02*
X169141000Y-109540000D01*
X169141000Y-107460000D02*
X169141000Y-106496000D01*
X169181000Y-110471000D02*
X169181000Y-109540000D01*
X169181000Y-107460000D02*
X169181000Y-106529000D01*
X169221000Y-110437000D02*
X169221000Y-109540000D01*
X169221000Y-107460000D02*
X169221000Y-106563000D01*
X169261000Y-110401000D02*
X169261000Y-109540000D01*
X169261000Y-107460000D02*
X169261000Y-106599000D01*
X169301000Y-110364000D02*
X169301000Y-109540000D01*
X169301000Y-107460000D02*
X169301000Y-106636000D01*
X169341000Y-110326000D02*
X169341000Y-109540000D01*
X169341000Y-107460000D02*
X169341000Y-106674000D01*
X169381000Y-110285000D02*
X169381000Y-109540000D01*
X169381000Y-107460000D02*
X169381000Y-106715000D01*
X169421000Y-110243000D02*
X169421000Y-109540000D01*
X169421000Y-107460000D02*
X169421000Y-106757000D01*
X169461000Y-110199000D02*
X169461000Y-109540000D01*
X169461000Y-107460000D02*
X169461000Y-106801000D01*
X169501000Y-110153000D02*
X169501000Y-109540000D01*
X169501000Y-107460000D02*
X169501000Y-106847000D01*
X169541000Y-110105000D02*
X169541000Y-106895000D01*
X169581000Y-110054000D02*
X169581000Y-106946000D01*
X169621000Y-110000000D02*
X169621000Y-107000000D01*
X169661000Y-109943000D02*
X169661000Y-107057000D01*
X169701000Y-109883000D02*
X169701000Y-107117000D01*
X169741000Y-109819000D02*
X169741000Y-107181000D01*
X169781000Y-109751000D02*
X169781000Y-107249000D01*
X169821000Y-109678000D02*
X169821000Y-107322000D01*
X169861000Y-109598000D02*
X169861000Y-107402000D01*
X169901000Y-109511000D02*
X169901000Y-107489000D01*
X169941000Y-109415000D02*
X169941000Y-107585000D01*
X169981000Y-109305000D02*
X169981000Y-107695000D01*
X170021000Y-109177000D02*
X170021000Y-107823000D01*
X170061000Y-109018000D02*
X170061000Y-107982000D01*
X170101000Y-108784000D02*
X170101000Y-108216000D01*
X164695225Y-109975000D02*
X165195225Y-109975000D01*
X164945225Y-110225000D02*
X164945225Y-109725000D01*
%TO.C,R1*%
X153040000Y-60040000D02*
X153040000Y-60370000D01*
X153040000Y-60370000D02*
X159580000Y-60370000D01*
X159580000Y-60370000D02*
X159580000Y-60040000D01*
X153040000Y-57960000D02*
X153040000Y-57630000D01*
X153040000Y-57630000D02*
X159580000Y-57630000D01*
X159580000Y-57630000D02*
X159580000Y-57960000D01*
%TO.C,R2*%
X153040000Y-64540000D02*
X153040000Y-64870000D01*
X153040000Y-64870000D02*
X159580000Y-64870000D01*
X159580000Y-64870000D02*
X159580000Y-64540000D01*
X153040000Y-62460000D02*
X153040000Y-62130000D01*
X153040000Y-62130000D02*
X159580000Y-62130000D01*
X159580000Y-62130000D02*
X159580000Y-62460000D01*
%TO.C,R3*%
X164040000Y-69040000D02*
X164040000Y-69370000D01*
X164040000Y-69370000D02*
X170580000Y-69370000D01*
X170580000Y-69370000D02*
X170580000Y-69040000D01*
X164040000Y-66960000D02*
X164040000Y-66630000D01*
X164040000Y-66630000D02*
X170580000Y-66630000D01*
X170580000Y-66630000D02*
X170580000Y-66960000D01*
%TO.C,R4*%
X153040000Y-78540000D02*
X153040000Y-78870000D01*
X153040000Y-78870000D02*
X159580000Y-78870000D01*
X159580000Y-78870000D02*
X159580000Y-78540000D01*
X153040000Y-76460000D02*
X153040000Y-76130000D01*
X153040000Y-76130000D02*
X159580000Y-76130000D01*
X159580000Y-76130000D02*
X159580000Y-76460000D01*
%TO.C,R6*%
X159580000Y-71130000D02*
X159580000Y-71460000D01*
X153040000Y-71130000D02*
X159580000Y-71130000D01*
X153040000Y-71460000D02*
X153040000Y-71130000D01*
X159580000Y-73870000D02*
X159580000Y-73540000D01*
X153040000Y-73870000D02*
X159580000Y-73870000D01*
X153040000Y-73540000D02*
X153040000Y-73870000D01*
%TO.C,R7*%
X159580000Y-66630000D02*
X159580000Y-66960000D01*
X153040000Y-66630000D02*
X159580000Y-66630000D01*
X153040000Y-66960000D02*
X153040000Y-66630000D01*
X159580000Y-69370000D02*
X159580000Y-69040000D01*
X153040000Y-69370000D02*
X159580000Y-69370000D01*
X153040000Y-69040000D02*
X153040000Y-69370000D01*
%TO.C,R8*%
X170580000Y-71130000D02*
X170580000Y-71460000D01*
X164040000Y-71130000D02*
X170580000Y-71130000D01*
X164040000Y-71460000D02*
X164040000Y-71130000D01*
X170580000Y-73870000D02*
X170580000Y-73540000D01*
X164040000Y-73870000D02*
X170580000Y-73870000D01*
X164040000Y-73540000D02*
X164040000Y-73870000D01*
%TO.C,R10*%
X170580000Y-57630000D02*
X170580000Y-57960000D01*
X164040000Y-57630000D02*
X170580000Y-57630000D01*
X164040000Y-57960000D02*
X164040000Y-57630000D01*
X170580000Y-60370000D02*
X170580000Y-60040000D01*
X164040000Y-60370000D02*
X170580000Y-60370000D01*
X164040000Y-60040000D02*
X164040000Y-60370000D01*
%TO.C,R11*%
X168130000Y-125420000D02*
X168460000Y-125420000D01*
X168130000Y-131960000D02*
X168130000Y-125420000D01*
X168460000Y-131960000D02*
X168130000Y-131960000D01*
X170870000Y-125420000D02*
X170540000Y-125420000D01*
X170870000Y-131960000D02*
X170870000Y-125420000D01*
X170540000Y-131960000D02*
X170870000Y-131960000D01*
%TO.C,R12*%
X171080000Y-137630000D02*
X171080000Y-137960000D01*
X164540000Y-137630000D02*
X171080000Y-137630000D01*
X164540000Y-137960000D02*
X164540000Y-137630000D01*
X171080000Y-140370000D02*
X171080000Y-140040000D01*
X164540000Y-140370000D02*
X171080000Y-140370000D01*
X164540000Y-140040000D02*
X164540000Y-140370000D01*
%TO.C,R13*%
X153540000Y-140040000D02*
X153540000Y-140370000D01*
X153540000Y-140370000D02*
X160080000Y-140370000D01*
X160080000Y-140370000D02*
X160080000Y-140040000D01*
X153540000Y-137960000D02*
X153540000Y-137630000D01*
X153540000Y-137630000D02*
X160080000Y-137630000D01*
X160080000Y-137630000D02*
X160080000Y-137960000D01*
%TO.C,R14*%
X164540000Y-145540000D02*
X164540000Y-145870000D01*
X164540000Y-145870000D02*
X171080000Y-145870000D01*
X171080000Y-145870000D02*
X171080000Y-145540000D01*
X164540000Y-143460000D02*
X164540000Y-143130000D01*
X164540000Y-143130000D02*
X171080000Y-143130000D01*
X171080000Y-143130000D02*
X171080000Y-143460000D01*
%TO.C,R15*%
X154040000Y-102040000D02*
X154040000Y-102370000D01*
X154040000Y-102370000D02*
X160580000Y-102370000D01*
X160580000Y-102370000D02*
X160580000Y-102040000D01*
X154040000Y-99960000D02*
X154040000Y-99630000D01*
X154040000Y-99630000D02*
X160580000Y-99630000D01*
X160580000Y-99630000D02*
X160580000Y-99960000D01*
%TO.C,R16*%
X171080000Y-99630000D02*
X171080000Y-99960000D01*
X164540000Y-99630000D02*
X171080000Y-99630000D01*
X164540000Y-99960000D02*
X164540000Y-99630000D01*
X171080000Y-102370000D02*
X171080000Y-102040000D01*
X164540000Y-102370000D02*
X171080000Y-102370000D01*
X164540000Y-102040000D02*
X164540000Y-102370000D01*
%TO.C,U1*%
X153440000Y-122110000D02*
X163940000Y-122110000D01*
X153440000Y-132510000D02*
X153440000Y-122110000D01*
X163940000Y-132510000D02*
X153440000Y-132510000D01*
X163940000Y-122110000D02*
X163940000Y-132510000D01*
X156440000Y-122170000D02*
X157690000Y-122170000D01*
X156440000Y-132450000D02*
X156440000Y-122170000D01*
X160940000Y-132450000D02*
X156440000Y-132450000D01*
X160940000Y-122170000D02*
X160940000Y-132450000D01*
X159690000Y-122170000D02*
X160940000Y-122170000D01*
X157690000Y-122170000D02*
G75*
G03*
X159690000Y-122170000I1000000J0D01*
G01*
%TO.C,R9*%
D10*
X167435000Y-79871285D02*
X167685000Y-79514142D01*
X167863571Y-79871285D02*
X167863571Y-79121285D01*
X167577857Y-79121285D01*
X167506428Y-79157000D01*
X167470714Y-79192714D01*
X167435000Y-79264142D01*
X167435000Y-79371285D01*
X167470714Y-79442714D01*
X167506428Y-79478428D01*
X167577857Y-79514142D01*
X167863571Y-79514142D01*
X167077857Y-79871285D02*
X166935000Y-79871285D01*
X166863571Y-79835571D01*
X166827857Y-79799857D01*
X166756428Y-79692714D01*
X166720714Y-79549857D01*
X166720714Y-79264142D01*
X166756428Y-79192714D01*
X166792142Y-79157000D01*
X166863571Y-79121285D01*
X167006428Y-79121285D01*
X167077857Y-79157000D01*
X167113571Y-79192714D01*
X167149285Y-79264142D01*
X167149285Y-79442714D01*
X167113571Y-79514142D01*
X167077857Y-79549857D01*
X167006428Y-79585571D01*
X166863571Y-79585571D01*
X166792142Y-79549857D01*
X166756428Y-79514142D01*
X166720714Y-79442714D01*
X168185000Y-77839285D02*
X168613571Y-77839285D01*
X168399285Y-77839285D02*
X168399285Y-77089285D01*
X168470714Y-77196428D01*
X168542142Y-77267857D01*
X168613571Y-77303571D01*
X167720714Y-77089285D02*
X167649285Y-77089285D01*
X167577857Y-77125000D01*
X167542142Y-77160714D01*
X167506428Y-77232142D01*
X167470714Y-77375000D01*
X167470714Y-77553571D01*
X167506428Y-77696428D01*
X167542142Y-77767857D01*
X167577857Y-77803571D01*
X167649285Y-77839285D01*
X167720714Y-77839285D01*
X167792142Y-77803571D01*
X167827857Y-77767857D01*
X167863571Y-77696428D01*
X167899285Y-77553571D01*
X167899285Y-77375000D01*
X167863571Y-77232142D01*
X167827857Y-77160714D01*
X167792142Y-77125000D01*
X167720714Y-77089285D01*
X167006428Y-77089285D02*
X166935000Y-77089285D01*
X166863571Y-77125000D01*
X166827857Y-77160714D01*
X166792142Y-77232142D01*
X166756428Y-77375000D01*
X166756428Y-77553571D01*
X166792142Y-77696428D01*
X166827857Y-77767857D01*
X166863571Y-77803571D01*
X166935000Y-77839285D01*
X167006428Y-77839285D01*
X167077857Y-77803571D01*
X167113571Y-77767857D01*
X167149285Y-77696428D01*
X167185000Y-77553571D01*
X167185000Y-77375000D01*
X167149285Y-77232142D01*
X167113571Y-77160714D01*
X167077857Y-77125000D01*
X167006428Y-77089285D01*
X166435000Y-77839285D02*
X166435000Y-77089285D01*
X166006428Y-77839285D02*
X166327857Y-77410714D01*
X166006428Y-77089285D02*
X166435000Y-77517857D01*
%TO.C,R5*%
X167435000Y-65871285D02*
X167685000Y-65514142D01*
X167863571Y-65871285D02*
X167863571Y-65121285D01*
X167577857Y-65121285D01*
X167506428Y-65157000D01*
X167470714Y-65192714D01*
X167435000Y-65264142D01*
X167435000Y-65371285D01*
X167470714Y-65442714D01*
X167506428Y-65478428D01*
X167577857Y-65514142D01*
X167863571Y-65514142D01*
X166756428Y-65121285D02*
X167113571Y-65121285D01*
X167149285Y-65478428D01*
X167113571Y-65442714D01*
X167042142Y-65407000D01*
X166863571Y-65407000D01*
X166792142Y-65442714D01*
X166756428Y-65478428D01*
X166720714Y-65549857D01*
X166720714Y-65728428D01*
X166756428Y-65799857D01*
X166792142Y-65835571D01*
X166863571Y-65871285D01*
X167042142Y-65871285D01*
X167113571Y-65835571D01*
X167149285Y-65799857D01*
X168185000Y-63839285D02*
X168613571Y-63839285D01*
X168399285Y-63839285D02*
X168399285Y-63089285D01*
X168470714Y-63196428D01*
X168542142Y-63267857D01*
X168613571Y-63303571D01*
X167720714Y-63089285D02*
X167649285Y-63089285D01*
X167577857Y-63125000D01*
X167542142Y-63160714D01*
X167506428Y-63232142D01*
X167470714Y-63375000D01*
X167470714Y-63553571D01*
X167506428Y-63696428D01*
X167542142Y-63767857D01*
X167577857Y-63803571D01*
X167649285Y-63839285D01*
X167720714Y-63839285D01*
X167792142Y-63803571D01*
X167827857Y-63767857D01*
X167863571Y-63696428D01*
X167899285Y-63553571D01*
X167899285Y-63375000D01*
X167863571Y-63232142D01*
X167827857Y-63160714D01*
X167792142Y-63125000D01*
X167720714Y-63089285D01*
X167006428Y-63089285D02*
X166935000Y-63089285D01*
X166863571Y-63125000D01*
X166827857Y-63160714D01*
X166792142Y-63232142D01*
X166756428Y-63375000D01*
X166756428Y-63553571D01*
X166792142Y-63696428D01*
X166827857Y-63767857D01*
X166863571Y-63803571D01*
X166935000Y-63839285D01*
X167006428Y-63839285D01*
X167077857Y-63803571D01*
X167113571Y-63767857D01*
X167149285Y-63696428D01*
X167185000Y-63553571D01*
X167185000Y-63375000D01*
X167149285Y-63232142D01*
X167113571Y-63160714D01*
X167077857Y-63125000D01*
X167006428Y-63089285D01*
X166435000Y-63839285D02*
X166435000Y-63089285D01*
X166006428Y-63839285D02*
X166327857Y-63410714D01*
X166006428Y-63089285D02*
X166435000Y-63517857D01*
%TO.C,J6*%
X161740714Y-96600000D02*
X161205000Y-96600000D01*
X161097857Y-96635714D01*
X161026428Y-96707142D01*
X160990714Y-96814285D01*
X160990714Y-96885714D01*
X161740714Y-95921428D02*
X161740714Y-96064285D01*
X161705000Y-96135714D01*
X161669285Y-96171428D01*
X161562142Y-96242857D01*
X161419285Y-96278571D01*
X161133571Y-96278571D01*
X161062142Y-96242857D01*
X161026428Y-96207142D01*
X160990714Y-96135714D01*
X160990714Y-95992857D01*
X161026428Y-95921428D01*
X161062142Y-95885714D01*
X161133571Y-95850000D01*
X161312142Y-95850000D01*
X161383571Y-95885714D01*
X161419285Y-95921428D01*
X161455000Y-95992857D01*
X161455000Y-96135714D01*
X161419285Y-96207142D01*
X161383571Y-96242857D01*
X161312142Y-96278571D01*
X172547619Y-92571428D02*
X173023809Y-92904761D01*
X172547619Y-93142857D02*
X173547619Y-93142857D01*
X173547619Y-92761904D01*
X173500000Y-92666666D01*
X173452380Y-92619047D01*
X173357142Y-92571428D01*
X173214285Y-92571428D01*
X173119047Y-92619047D01*
X173071428Y-92666666D01*
X173023809Y-92761904D01*
X173023809Y-93142857D01*
X173071428Y-92142857D02*
X173071428Y-91809523D01*
X172547619Y-91666666D02*
X172547619Y-92142857D01*
X173547619Y-92142857D01*
X173547619Y-91666666D01*
X172547619Y-91238095D02*
X173547619Y-91238095D01*
X173547619Y-91000000D01*
X173500000Y-90857142D01*
X173404761Y-90761904D01*
X173309523Y-90714285D01*
X173119047Y-90666666D01*
X172976190Y-90666666D01*
X172785714Y-90714285D01*
X172690476Y-90761904D01*
X172595238Y-90857142D01*
X172547619Y-91000000D01*
X172547619Y-91238095D01*
X172595238Y-89523809D02*
X172547619Y-89380952D01*
X172547619Y-89142857D01*
X172595238Y-89047619D01*
X172642857Y-89000000D01*
X172738095Y-88952380D01*
X172833333Y-88952380D01*
X172928571Y-89000000D01*
X172976190Y-89047619D01*
X173023809Y-89142857D01*
X173071428Y-89333333D01*
X173119047Y-89428571D01*
X173166666Y-89476190D01*
X173261904Y-89523809D01*
X173357142Y-89523809D01*
X173452380Y-89476190D01*
X173500000Y-89428571D01*
X173547619Y-89333333D01*
X173547619Y-89095238D01*
X173500000Y-88952380D01*
X173547619Y-88666666D02*
X173547619Y-88095238D01*
X172547619Y-88380952D02*
X173547619Y-88380952D01*
X172547619Y-87190476D02*
X173023809Y-87523809D01*
X172547619Y-87761904D02*
X173547619Y-87761904D01*
X173547619Y-87380952D01*
X173500000Y-87285714D01*
X173452380Y-87238095D01*
X173357142Y-87190476D01*
X173214285Y-87190476D01*
X173119047Y-87238095D01*
X173071428Y-87285714D01*
X173023809Y-87380952D01*
X173023809Y-87761904D01*
X172547619Y-86761904D02*
X173547619Y-86761904D01*
X172547619Y-86285714D02*
X173547619Y-86285714D01*
X173547619Y-85904761D01*
X173500000Y-85809523D01*
X173452380Y-85761904D01*
X173357142Y-85714285D01*
X173214285Y-85714285D01*
X173119047Y-85761904D01*
X173071428Y-85809523D01*
X173023809Y-85904761D01*
X173023809Y-86285714D01*
X173071428Y-85285714D02*
X173071428Y-84952380D01*
X172547619Y-84809523D02*
X172547619Y-85285714D01*
X173547619Y-85285714D01*
X173547619Y-84809523D01*
%TO.C,R17*%
X157292142Y-146871285D02*
X157542142Y-146514142D01*
X157720714Y-146871285D02*
X157720714Y-146121285D01*
X157435000Y-146121285D01*
X157363571Y-146157000D01*
X157327857Y-146192714D01*
X157292142Y-146264142D01*
X157292142Y-146371285D01*
X157327857Y-146442714D01*
X157363571Y-146478428D01*
X157435000Y-146514142D01*
X157720714Y-146514142D01*
X156577857Y-146871285D02*
X157006428Y-146871285D01*
X156792142Y-146871285D02*
X156792142Y-146121285D01*
X156863571Y-146228428D01*
X156935000Y-146299857D01*
X157006428Y-146335571D01*
X156327857Y-146121285D02*
X155827857Y-146121285D01*
X156149285Y-146871285D01*
X156970714Y-144839285D02*
X157399285Y-144839285D01*
X157185000Y-144839285D02*
X157185000Y-144089285D01*
X157256428Y-144196428D01*
X157327857Y-144267857D01*
X157399285Y-144303571D01*
X156649285Y-144839285D02*
X156649285Y-144089285D01*
X156220714Y-144839285D02*
X156542142Y-144410714D01*
X156220714Y-144089285D02*
X156649285Y-144517857D01*
%TO.C,C1*%
X155625000Y-118267857D02*
X155660714Y-118303571D01*
X155767857Y-118339285D01*
X155839285Y-118339285D01*
X155946428Y-118303571D01*
X156017857Y-118232142D01*
X156053571Y-118160714D01*
X156089285Y-118017857D01*
X156089285Y-117910714D01*
X156053571Y-117767857D01*
X156017857Y-117696428D01*
X155946428Y-117625000D01*
X155839285Y-117589285D01*
X155767857Y-117589285D01*
X155660714Y-117625000D01*
X155625000Y-117660714D01*
X154910714Y-118339285D02*
X155339285Y-118339285D01*
X155125000Y-118339285D02*
X155125000Y-117589285D01*
X155196428Y-117696428D01*
X155267857Y-117767857D01*
X155339285Y-117803571D01*
X160267857Y-118267857D02*
X160232142Y-118303571D01*
X160267857Y-118339285D01*
X160303571Y-118303571D01*
X160267857Y-118267857D01*
X160267857Y-118339285D01*
X159767857Y-117589285D02*
X159696428Y-117589285D01*
X159625000Y-117625000D01*
X159589285Y-117660714D01*
X159553571Y-117732142D01*
X159517857Y-117875000D01*
X159517857Y-118053571D01*
X159553571Y-118196428D01*
X159589285Y-118267857D01*
X159625000Y-118303571D01*
X159696428Y-118339285D01*
X159767857Y-118339285D01*
X159839285Y-118303571D01*
X159875000Y-118267857D01*
X159910714Y-118196428D01*
X159946428Y-118053571D01*
X159946428Y-117875000D01*
X159910714Y-117732142D01*
X159875000Y-117660714D01*
X159839285Y-117625000D01*
X159767857Y-117589285D01*
X158803571Y-118339285D02*
X159232142Y-118339285D01*
X159017857Y-118339285D02*
X159017857Y-117589285D01*
X159089285Y-117696428D01*
X159160714Y-117767857D01*
X159232142Y-117803571D01*
X158160714Y-117839285D02*
X158160714Y-118339285D01*
X158482142Y-117839285D02*
X158482142Y-118232142D01*
X158446428Y-118303571D01*
X158375000Y-118339285D01*
X158267857Y-118339285D01*
X158196428Y-118303571D01*
X158160714Y-118267857D01*
X157910714Y-117839285D02*
X157625000Y-117839285D01*
X157803571Y-118339285D02*
X157803571Y-117696428D01*
X157767857Y-117625000D01*
X157696428Y-117589285D01*
X157625000Y-117589285D01*
%TO.C,C2*%
X166125000Y-118267857D02*
X166160714Y-118303571D01*
X166267857Y-118339285D01*
X166339285Y-118339285D01*
X166446428Y-118303571D01*
X166517857Y-118232142D01*
X166553571Y-118160714D01*
X166589285Y-118017857D01*
X166589285Y-117910714D01*
X166553571Y-117767857D01*
X166517857Y-117696428D01*
X166446428Y-117625000D01*
X166339285Y-117589285D01*
X166267857Y-117589285D01*
X166160714Y-117625000D01*
X166125000Y-117660714D01*
X165839285Y-117660714D02*
X165803571Y-117625000D01*
X165732142Y-117589285D01*
X165553571Y-117589285D01*
X165482142Y-117625000D01*
X165446428Y-117660714D01*
X165410714Y-117732142D01*
X165410714Y-117803571D01*
X165446428Y-117910714D01*
X165875000Y-118339285D01*
X165410714Y-118339285D01*
X170767857Y-118267857D02*
X170732142Y-118303571D01*
X170767857Y-118339285D01*
X170803571Y-118303571D01*
X170767857Y-118267857D01*
X170767857Y-118339285D01*
X170267857Y-117589285D02*
X170196428Y-117589285D01*
X170125000Y-117625000D01*
X170089285Y-117660714D01*
X170053571Y-117732142D01*
X170017857Y-117875000D01*
X170017857Y-118053571D01*
X170053571Y-118196428D01*
X170089285Y-118267857D01*
X170125000Y-118303571D01*
X170196428Y-118339285D01*
X170267857Y-118339285D01*
X170339285Y-118303571D01*
X170375000Y-118267857D01*
X170410714Y-118196428D01*
X170446428Y-118053571D01*
X170446428Y-117875000D01*
X170410714Y-117732142D01*
X170375000Y-117660714D01*
X170339285Y-117625000D01*
X170267857Y-117589285D01*
X169303571Y-118339285D02*
X169732142Y-118339285D01*
X169517857Y-118339285D02*
X169517857Y-117589285D01*
X169589285Y-117696428D01*
X169660714Y-117767857D01*
X169732142Y-117803571D01*
X168660714Y-117839285D02*
X168660714Y-118339285D01*
X168982142Y-117839285D02*
X168982142Y-118232142D01*
X168946428Y-118303571D01*
X168875000Y-118339285D01*
X168767857Y-118339285D01*
X168696428Y-118303571D01*
X168660714Y-118267857D01*
X168410714Y-117839285D02*
X168125000Y-117839285D01*
X168303571Y-118339285D02*
X168303571Y-117696428D01*
X168267857Y-117625000D01*
X168196428Y-117589285D01*
X168125000Y-117589285D01*
%TO.C,C3*%
X155625000Y-112267857D02*
X155660714Y-112303571D01*
X155767857Y-112339285D01*
X155839285Y-112339285D01*
X155946428Y-112303571D01*
X156017857Y-112232142D01*
X156053571Y-112160714D01*
X156089285Y-112017857D01*
X156089285Y-111910714D01*
X156053571Y-111767857D01*
X156017857Y-111696428D01*
X155946428Y-111625000D01*
X155839285Y-111589285D01*
X155767857Y-111589285D01*
X155660714Y-111625000D01*
X155625000Y-111660714D01*
X155375000Y-111589285D02*
X154910714Y-111589285D01*
X155160714Y-111875000D01*
X155053571Y-111875000D01*
X154982142Y-111910714D01*
X154946428Y-111946428D01*
X154910714Y-112017857D01*
X154910714Y-112196428D01*
X154946428Y-112267857D01*
X154982142Y-112303571D01*
X155053571Y-112339285D01*
X155267857Y-112339285D01*
X155339285Y-112303571D01*
X155375000Y-112267857D01*
X160196428Y-112339285D02*
X160625000Y-112339285D01*
X160410714Y-112339285D02*
X160410714Y-111589285D01*
X160482142Y-111696428D01*
X160553571Y-111767857D01*
X160625000Y-111803571D01*
X159732142Y-111589285D02*
X159660714Y-111589285D01*
X159589285Y-111625000D01*
X159553571Y-111660714D01*
X159517857Y-111732142D01*
X159482142Y-111875000D01*
X159482142Y-112053571D01*
X159517857Y-112196428D01*
X159553571Y-112267857D01*
X159589285Y-112303571D01*
X159660714Y-112339285D01*
X159732142Y-112339285D01*
X159803571Y-112303571D01*
X159839285Y-112267857D01*
X159875000Y-112196428D01*
X159910714Y-112053571D01*
X159910714Y-111875000D01*
X159875000Y-111732142D01*
X159839285Y-111660714D01*
X159803571Y-111625000D01*
X159732142Y-111589285D01*
X158839285Y-111839285D02*
X158839285Y-112339285D01*
X159160714Y-111839285D02*
X159160714Y-112232142D01*
X159125000Y-112303571D01*
X159053571Y-112339285D01*
X158946428Y-112339285D01*
X158875000Y-112303571D01*
X158839285Y-112267857D01*
X158589285Y-111839285D02*
X158303571Y-111839285D01*
X158482142Y-112339285D02*
X158482142Y-111696428D01*
X158446428Y-111625000D01*
X158375000Y-111589285D01*
X158303571Y-111589285D01*
%TO.C,C4*%
X165625000Y-112267857D02*
X165660714Y-112303571D01*
X165767857Y-112339285D01*
X165839285Y-112339285D01*
X165946428Y-112303571D01*
X166017857Y-112232142D01*
X166053571Y-112160714D01*
X166089285Y-112017857D01*
X166089285Y-111910714D01*
X166053571Y-111767857D01*
X166017857Y-111696428D01*
X165946428Y-111625000D01*
X165839285Y-111589285D01*
X165767857Y-111589285D01*
X165660714Y-111625000D01*
X165625000Y-111660714D01*
X164982142Y-111839285D02*
X164982142Y-112339285D01*
X165160714Y-111553571D02*
X165339285Y-112089285D01*
X164875000Y-112089285D01*
X170196428Y-112339285D02*
X170625000Y-112339285D01*
X170410714Y-112339285D02*
X170410714Y-111589285D01*
X170482142Y-111696428D01*
X170553571Y-111767857D01*
X170625000Y-111803571D01*
X169732142Y-111589285D02*
X169660714Y-111589285D01*
X169589285Y-111625000D01*
X169553571Y-111660714D01*
X169517857Y-111732142D01*
X169482142Y-111875000D01*
X169482142Y-112053571D01*
X169517857Y-112196428D01*
X169553571Y-112267857D01*
X169589285Y-112303571D01*
X169660714Y-112339285D01*
X169732142Y-112339285D01*
X169803571Y-112303571D01*
X169839285Y-112267857D01*
X169875000Y-112196428D01*
X169910714Y-112053571D01*
X169910714Y-111875000D01*
X169875000Y-111732142D01*
X169839285Y-111660714D01*
X169803571Y-111625000D01*
X169732142Y-111589285D01*
X168839285Y-111839285D02*
X168839285Y-112339285D01*
X169160714Y-111839285D02*
X169160714Y-112232142D01*
X169125000Y-112303571D01*
X169053571Y-112339285D01*
X168946428Y-112339285D01*
X168875000Y-112303571D01*
X168839285Y-112267857D01*
X168589285Y-111839285D02*
X168303571Y-111839285D01*
X168482142Y-112339285D02*
X168482142Y-111696428D01*
X168446428Y-111625000D01*
X168375000Y-111589285D01*
X168303571Y-111589285D01*
%TO.C,R1*%
X156435000Y-61371285D02*
X156685000Y-61014142D01*
X156863571Y-61371285D02*
X156863571Y-60621285D01*
X156577857Y-60621285D01*
X156506428Y-60657000D01*
X156470714Y-60692714D01*
X156435000Y-60764142D01*
X156435000Y-60871285D01*
X156470714Y-60942714D01*
X156506428Y-60978428D01*
X156577857Y-61014142D01*
X156863571Y-61014142D01*
X155720714Y-61371285D02*
X156149285Y-61371285D01*
X155935000Y-61371285D02*
X155935000Y-60621285D01*
X156006428Y-60728428D01*
X156077857Y-60799857D01*
X156149285Y-60835571D01*
X157185000Y-59339285D02*
X157613571Y-59339285D01*
X157399285Y-59339285D02*
X157399285Y-58589285D01*
X157470714Y-58696428D01*
X157542142Y-58767857D01*
X157613571Y-58803571D01*
X156720714Y-58589285D02*
X156649285Y-58589285D01*
X156577857Y-58625000D01*
X156542142Y-58660714D01*
X156506428Y-58732142D01*
X156470714Y-58875000D01*
X156470714Y-59053571D01*
X156506428Y-59196428D01*
X156542142Y-59267857D01*
X156577857Y-59303571D01*
X156649285Y-59339285D01*
X156720714Y-59339285D01*
X156792142Y-59303571D01*
X156827857Y-59267857D01*
X156863571Y-59196428D01*
X156899285Y-59053571D01*
X156899285Y-58875000D01*
X156863571Y-58732142D01*
X156827857Y-58660714D01*
X156792142Y-58625000D01*
X156720714Y-58589285D01*
X156006428Y-58589285D02*
X155935000Y-58589285D01*
X155863571Y-58625000D01*
X155827857Y-58660714D01*
X155792142Y-58732142D01*
X155756428Y-58875000D01*
X155756428Y-59053571D01*
X155792142Y-59196428D01*
X155827857Y-59267857D01*
X155863571Y-59303571D01*
X155935000Y-59339285D01*
X156006428Y-59339285D01*
X156077857Y-59303571D01*
X156113571Y-59267857D01*
X156149285Y-59196428D01*
X156185000Y-59053571D01*
X156185000Y-58875000D01*
X156149285Y-58732142D01*
X156113571Y-58660714D01*
X156077857Y-58625000D01*
X156006428Y-58589285D01*
X155435000Y-59339285D02*
X155435000Y-58589285D01*
X155006428Y-59339285D02*
X155327857Y-58910714D01*
X155006428Y-58589285D02*
X155435000Y-59017857D01*
%TO.C,R2*%
X156435000Y-65871285D02*
X156685000Y-65514142D01*
X156863571Y-65871285D02*
X156863571Y-65121285D01*
X156577857Y-65121285D01*
X156506428Y-65157000D01*
X156470714Y-65192714D01*
X156435000Y-65264142D01*
X156435000Y-65371285D01*
X156470714Y-65442714D01*
X156506428Y-65478428D01*
X156577857Y-65514142D01*
X156863571Y-65514142D01*
X156149285Y-65192714D02*
X156113571Y-65157000D01*
X156042142Y-65121285D01*
X155863571Y-65121285D01*
X155792142Y-65157000D01*
X155756428Y-65192714D01*
X155720714Y-65264142D01*
X155720714Y-65335571D01*
X155756428Y-65442714D01*
X156185000Y-65871285D01*
X155720714Y-65871285D01*
X157185000Y-63839285D02*
X157613571Y-63839285D01*
X157399285Y-63839285D02*
X157399285Y-63089285D01*
X157470714Y-63196428D01*
X157542142Y-63267857D01*
X157613571Y-63303571D01*
X156720714Y-63089285D02*
X156649285Y-63089285D01*
X156577857Y-63125000D01*
X156542142Y-63160714D01*
X156506428Y-63232142D01*
X156470714Y-63375000D01*
X156470714Y-63553571D01*
X156506428Y-63696428D01*
X156542142Y-63767857D01*
X156577857Y-63803571D01*
X156649285Y-63839285D01*
X156720714Y-63839285D01*
X156792142Y-63803571D01*
X156827857Y-63767857D01*
X156863571Y-63696428D01*
X156899285Y-63553571D01*
X156899285Y-63375000D01*
X156863571Y-63232142D01*
X156827857Y-63160714D01*
X156792142Y-63125000D01*
X156720714Y-63089285D01*
X156006428Y-63089285D02*
X155935000Y-63089285D01*
X155863571Y-63125000D01*
X155827857Y-63160714D01*
X155792142Y-63232142D01*
X155756428Y-63375000D01*
X155756428Y-63553571D01*
X155792142Y-63696428D01*
X155827857Y-63767857D01*
X155863571Y-63803571D01*
X155935000Y-63839285D01*
X156006428Y-63839285D01*
X156077857Y-63803571D01*
X156113571Y-63767857D01*
X156149285Y-63696428D01*
X156185000Y-63553571D01*
X156185000Y-63375000D01*
X156149285Y-63232142D01*
X156113571Y-63160714D01*
X156077857Y-63125000D01*
X156006428Y-63089285D01*
X155435000Y-63839285D02*
X155435000Y-63089285D01*
X155006428Y-63839285D02*
X155327857Y-63410714D01*
X155006428Y-63089285D02*
X155435000Y-63517857D01*
%TO.C,R3*%
X167435000Y-70371285D02*
X167685000Y-70014142D01*
X167863571Y-70371285D02*
X167863571Y-69621285D01*
X167577857Y-69621285D01*
X167506428Y-69657000D01*
X167470714Y-69692714D01*
X167435000Y-69764142D01*
X167435000Y-69871285D01*
X167470714Y-69942714D01*
X167506428Y-69978428D01*
X167577857Y-70014142D01*
X167863571Y-70014142D01*
X167185000Y-69621285D02*
X166720714Y-69621285D01*
X166970714Y-69907000D01*
X166863571Y-69907000D01*
X166792142Y-69942714D01*
X166756428Y-69978428D01*
X166720714Y-70049857D01*
X166720714Y-70228428D01*
X166756428Y-70299857D01*
X166792142Y-70335571D01*
X166863571Y-70371285D01*
X167077857Y-70371285D01*
X167149285Y-70335571D01*
X167185000Y-70299857D01*
X168185000Y-68339285D02*
X168613571Y-68339285D01*
X168399285Y-68339285D02*
X168399285Y-67589285D01*
X168470714Y-67696428D01*
X168542142Y-67767857D01*
X168613571Y-67803571D01*
X167720714Y-67589285D02*
X167649285Y-67589285D01*
X167577857Y-67625000D01*
X167542142Y-67660714D01*
X167506428Y-67732142D01*
X167470714Y-67875000D01*
X167470714Y-68053571D01*
X167506428Y-68196428D01*
X167542142Y-68267857D01*
X167577857Y-68303571D01*
X167649285Y-68339285D01*
X167720714Y-68339285D01*
X167792142Y-68303571D01*
X167827857Y-68267857D01*
X167863571Y-68196428D01*
X167899285Y-68053571D01*
X167899285Y-67875000D01*
X167863571Y-67732142D01*
X167827857Y-67660714D01*
X167792142Y-67625000D01*
X167720714Y-67589285D01*
X167006428Y-67589285D02*
X166935000Y-67589285D01*
X166863571Y-67625000D01*
X166827857Y-67660714D01*
X166792142Y-67732142D01*
X166756428Y-67875000D01*
X166756428Y-68053571D01*
X166792142Y-68196428D01*
X166827857Y-68267857D01*
X166863571Y-68303571D01*
X166935000Y-68339285D01*
X167006428Y-68339285D01*
X167077857Y-68303571D01*
X167113571Y-68267857D01*
X167149285Y-68196428D01*
X167185000Y-68053571D01*
X167185000Y-67875000D01*
X167149285Y-67732142D01*
X167113571Y-67660714D01*
X167077857Y-67625000D01*
X167006428Y-67589285D01*
X166435000Y-68339285D02*
X166435000Y-67589285D01*
X166006428Y-68339285D02*
X166327857Y-67910714D01*
X166006428Y-67589285D02*
X166435000Y-68017857D01*
%TO.C,R4*%
X156435000Y-79871285D02*
X156685000Y-79514142D01*
X156863571Y-79871285D02*
X156863571Y-79121285D01*
X156577857Y-79121285D01*
X156506428Y-79157000D01*
X156470714Y-79192714D01*
X156435000Y-79264142D01*
X156435000Y-79371285D01*
X156470714Y-79442714D01*
X156506428Y-79478428D01*
X156577857Y-79514142D01*
X156863571Y-79514142D01*
X155792142Y-79371285D02*
X155792142Y-79871285D01*
X155970714Y-79085571D02*
X156149285Y-79621285D01*
X155685000Y-79621285D01*
X157185000Y-77839285D02*
X157613571Y-77839285D01*
X157399285Y-77839285D02*
X157399285Y-77089285D01*
X157470714Y-77196428D01*
X157542142Y-77267857D01*
X157613571Y-77303571D01*
X156720714Y-77089285D02*
X156649285Y-77089285D01*
X156577857Y-77125000D01*
X156542142Y-77160714D01*
X156506428Y-77232142D01*
X156470714Y-77375000D01*
X156470714Y-77553571D01*
X156506428Y-77696428D01*
X156542142Y-77767857D01*
X156577857Y-77803571D01*
X156649285Y-77839285D01*
X156720714Y-77839285D01*
X156792142Y-77803571D01*
X156827857Y-77767857D01*
X156863571Y-77696428D01*
X156899285Y-77553571D01*
X156899285Y-77375000D01*
X156863571Y-77232142D01*
X156827857Y-77160714D01*
X156792142Y-77125000D01*
X156720714Y-77089285D01*
X156006428Y-77089285D02*
X155935000Y-77089285D01*
X155863571Y-77125000D01*
X155827857Y-77160714D01*
X155792142Y-77232142D01*
X155756428Y-77375000D01*
X155756428Y-77553571D01*
X155792142Y-77696428D01*
X155827857Y-77767857D01*
X155863571Y-77803571D01*
X155935000Y-77839285D01*
X156006428Y-77839285D01*
X156077857Y-77803571D01*
X156113571Y-77767857D01*
X156149285Y-77696428D01*
X156185000Y-77553571D01*
X156185000Y-77375000D01*
X156149285Y-77232142D01*
X156113571Y-77160714D01*
X156077857Y-77125000D01*
X156006428Y-77089285D01*
X155435000Y-77839285D02*
X155435000Y-77089285D01*
X155006428Y-77839285D02*
X155327857Y-77410714D01*
X155006428Y-77089285D02*
X155435000Y-77517857D01*
%TO.C,R6*%
X156435000Y-74871285D02*
X156685000Y-74514142D01*
X156863571Y-74871285D02*
X156863571Y-74121285D01*
X156577857Y-74121285D01*
X156506428Y-74157000D01*
X156470714Y-74192714D01*
X156435000Y-74264142D01*
X156435000Y-74371285D01*
X156470714Y-74442714D01*
X156506428Y-74478428D01*
X156577857Y-74514142D01*
X156863571Y-74514142D01*
X155792142Y-74121285D02*
X155935000Y-74121285D01*
X156006428Y-74157000D01*
X156042142Y-74192714D01*
X156113571Y-74299857D01*
X156149285Y-74442714D01*
X156149285Y-74728428D01*
X156113571Y-74799857D01*
X156077857Y-74835571D01*
X156006428Y-74871285D01*
X155863571Y-74871285D01*
X155792142Y-74835571D01*
X155756428Y-74799857D01*
X155720714Y-74728428D01*
X155720714Y-74549857D01*
X155756428Y-74478428D01*
X155792142Y-74442714D01*
X155863571Y-74407000D01*
X156006428Y-74407000D01*
X156077857Y-74442714D01*
X156113571Y-74478428D01*
X156149285Y-74549857D01*
X157185000Y-72839285D02*
X157613571Y-72839285D01*
X157399285Y-72839285D02*
X157399285Y-72089285D01*
X157470714Y-72196428D01*
X157542142Y-72267857D01*
X157613571Y-72303571D01*
X156720714Y-72089285D02*
X156649285Y-72089285D01*
X156577857Y-72125000D01*
X156542142Y-72160714D01*
X156506428Y-72232142D01*
X156470714Y-72375000D01*
X156470714Y-72553571D01*
X156506428Y-72696428D01*
X156542142Y-72767857D01*
X156577857Y-72803571D01*
X156649285Y-72839285D01*
X156720714Y-72839285D01*
X156792142Y-72803571D01*
X156827857Y-72767857D01*
X156863571Y-72696428D01*
X156899285Y-72553571D01*
X156899285Y-72375000D01*
X156863571Y-72232142D01*
X156827857Y-72160714D01*
X156792142Y-72125000D01*
X156720714Y-72089285D01*
X156006428Y-72089285D02*
X155935000Y-72089285D01*
X155863571Y-72125000D01*
X155827857Y-72160714D01*
X155792142Y-72232142D01*
X155756428Y-72375000D01*
X155756428Y-72553571D01*
X155792142Y-72696428D01*
X155827857Y-72767857D01*
X155863571Y-72803571D01*
X155935000Y-72839285D01*
X156006428Y-72839285D01*
X156077857Y-72803571D01*
X156113571Y-72767857D01*
X156149285Y-72696428D01*
X156185000Y-72553571D01*
X156185000Y-72375000D01*
X156149285Y-72232142D01*
X156113571Y-72160714D01*
X156077857Y-72125000D01*
X156006428Y-72089285D01*
X155435000Y-72839285D02*
X155435000Y-72089285D01*
X155006428Y-72839285D02*
X155327857Y-72410714D01*
X155006428Y-72089285D02*
X155435000Y-72517857D01*
%TO.C,R7*%
X156435000Y-70371285D02*
X156685000Y-70014142D01*
X156863571Y-70371285D02*
X156863571Y-69621285D01*
X156577857Y-69621285D01*
X156506428Y-69657000D01*
X156470714Y-69692714D01*
X156435000Y-69764142D01*
X156435000Y-69871285D01*
X156470714Y-69942714D01*
X156506428Y-69978428D01*
X156577857Y-70014142D01*
X156863571Y-70014142D01*
X156185000Y-69621285D02*
X155685000Y-69621285D01*
X156006428Y-70371285D01*
X157185000Y-68339285D02*
X157613571Y-68339285D01*
X157399285Y-68339285D02*
X157399285Y-67589285D01*
X157470714Y-67696428D01*
X157542142Y-67767857D01*
X157613571Y-67803571D01*
X156720714Y-67589285D02*
X156649285Y-67589285D01*
X156577857Y-67625000D01*
X156542142Y-67660714D01*
X156506428Y-67732142D01*
X156470714Y-67875000D01*
X156470714Y-68053571D01*
X156506428Y-68196428D01*
X156542142Y-68267857D01*
X156577857Y-68303571D01*
X156649285Y-68339285D01*
X156720714Y-68339285D01*
X156792142Y-68303571D01*
X156827857Y-68267857D01*
X156863571Y-68196428D01*
X156899285Y-68053571D01*
X156899285Y-67875000D01*
X156863571Y-67732142D01*
X156827857Y-67660714D01*
X156792142Y-67625000D01*
X156720714Y-67589285D01*
X156006428Y-67589285D02*
X155935000Y-67589285D01*
X155863571Y-67625000D01*
X155827857Y-67660714D01*
X155792142Y-67732142D01*
X155756428Y-67875000D01*
X155756428Y-68053571D01*
X155792142Y-68196428D01*
X155827857Y-68267857D01*
X155863571Y-68303571D01*
X155935000Y-68339285D01*
X156006428Y-68339285D01*
X156077857Y-68303571D01*
X156113571Y-68267857D01*
X156149285Y-68196428D01*
X156185000Y-68053571D01*
X156185000Y-67875000D01*
X156149285Y-67732142D01*
X156113571Y-67660714D01*
X156077857Y-67625000D01*
X156006428Y-67589285D01*
X155435000Y-68339285D02*
X155435000Y-67589285D01*
X155006428Y-68339285D02*
X155327857Y-67910714D01*
X155006428Y-67589285D02*
X155435000Y-68017857D01*
%TO.C,R8*%
X167435000Y-74871285D02*
X167685000Y-74514142D01*
X167863571Y-74871285D02*
X167863571Y-74121285D01*
X167577857Y-74121285D01*
X167506428Y-74157000D01*
X167470714Y-74192714D01*
X167435000Y-74264142D01*
X167435000Y-74371285D01*
X167470714Y-74442714D01*
X167506428Y-74478428D01*
X167577857Y-74514142D01*
X167863571Y-74514142D01*
X167006428Y-74442714D02*
X167077857Y-74407000D01*
X167113571Y-74371285D01*
X167149285Y-74299857D01*
X167149285Y-74264142D01*
X167113571Y-74192714D01*
X167077857Y-74157000D01*
X167006428Y-74121285D01*
X166863571Y-74121285D01*
X166792142Y-74157000D01*
X166756428Y-74192714D01*
X166720714Y-74264142D01*
X166720714Y-74299857D01*
X166756428Y-74371285D01*
X166792142Y-74407000D01*
X166863571Y-74442714D01*
X167006428Y-74442714D01*
X167077857Y-74478428D01*
X167113571Y-74514142D01*
X167149285Y-74585571D01*
X167149285Y-74728428D01*
X167113571Y-74799857D01*
X167077857Y-74835571D01*
X167006428Y-74871285D01*
X166863571Y-74871285D01*
X166792142Y-74835571D01*
X166756428Y-74799857D01*
X166720714Y-74728428D01*
X166720714Y-74585571D01*
X166756428Y-74514142D01*
X166792142Y-74478428D01*
X166863571Y-74442714D01*
X168185000Y-72839285D02*
X168613571Y-72839285D01*
X168399285Y-72839285D02*
X168399285Y-72089285D01*
X168470714Y-72196428D01*
X168542142Y-72267857D01*
X168613571Y-72303571D01*
X167720714Y-72089285D02*
X167649285Y-72089285D01*
X167577857Y-72125000D01*
X167542142Y-72160714D01*
X167506428Y-72232142D01*
X167470714Y-72375000D01*
X167470714Y-72553571D01*
X167506428Y-72696428D01*
X167542142Y-72767857D01*
X167577857Y-72803571D01*
X167649285Y-72839285D01*
X167720714Y-72839285D01*
X167792142Y-72803571D01*
X167827857Y-72767857D01*
X167863571Y-72696428D01*
X167899285Y-72553571D01*
X167899285Y-72375000D01*
X167863571Y-72232142D01*
X167827857Y-72160714D01*
X167792142Y-72125000D01*
X167720714Y-72089285D01*
X167006428Y-72089285D02*
X166935000Y-72089285D01*
X166863571Y-72125000D01*
X166827857Y-72160714D01*
X166792142Y-72232142D01*
X166756428Y-72375000D01*
X166756428Y-72553571D01*
X166792142Y-72696428D01*
X166827857Y-72767857D01*
X166863571Y-72803571D01*
X166935000Y-72839285D01*
X167006428Y-72839285D01*
X167077857Y-72803571D01*
X167113571Y-72767857D01*
X167149285Y-72696428D01*
X167185000Y-72553571D01*
X167185000Y-72375000D01*
X167149285Y-72232142D01*
X167113571Y-72160714D01*
X167077857Y-72125000D01*
X167006428Y-72089285D01*
X166435000Y-72839285D02*
X166435000Y-72089285D01*
X166006428Y-72839285D02*
X166327857Y-72410714D01*
X166006428Y-72089285D02*
X166435000Y-72517857D01*
%TO.C,R10*%
X167792142Y-61371285D02*
X168042142Y-61014142D01*
X168220714Y-61371285D02*
X168220714Y-60621285D01*
X167935000Y-60621285D01*
X167863571Y-60657000D01*
X167827857Y-60692714D01*
X167792142Y-60764142D01*
X167792142Y-60871285D01*
X167827857Y-60942714D01*
X167863571Y-60978428D01*
X167935000Y-61014142D01*
X168220714Y-61014142D01*
X167077857Y-61371285D02*
X167506428Y-61371285D01*
X167292142Y-61371285D02*
X167292142Y-60621285D01*
X167363571Y-60728428D01*
X167435000Y-60799857D01*
X167506428Y-60835571D01*
X166613571Y-60621285D02*
X166542142Y-60621285D01*
X166470714Y-60657000D01*
X166435000Y-60692714D01*
X166399285Y-60764142D01*
X166363571Y-60907000D01*
X166363571Y-61085571D01*
X166399285Y-61228428D01*
X166435000Y-61299857D01*
X166470714Y-61335571D01*
X166542142Y-61371285D01*
X166613571Y-61371285D01*
X166685000Y-61335571D01*
X166720714Y-61299857D01*
X166756428Y-61228428D01*
X166792142Y-61085571D01*
X166792142Y-60907000D01*
X166756428Y-60764142D01*
X166720714Y-60692714D01*
X166685000Y-60657000D01*
X166613571Y-60621285D01*
X168185000Y-59339285D02*
X168613571Y-59339285D01*
X168399285Y-59339285D02*
X168399285Y-58589285D01*
X168470714Y-58696428D01*
X168542142Y-58767857D01*
X168613571Y-58803571D01*
X167720714Y-58589285D02*
X167649285Y-58589285D01*
X167577857Y-58625000D01*
X167542142Y-58660714D01*
X167506428Y-58732142D01*
X167470714Y-58875000D01*
X167470714Y-59053571D01*
X167506428Y-59196428D01*
X167542142Y-59267857D01*
X167577857Y-59303571D01*
X167649285Y-59339285D01*
X167720714Y-59339285D01*
X167792142Y-59303571D01*
X167827857Y-59267857D01*
X167863571Y-59196428D01*
X167899285Y-59053571D01*
X167899285Y-58875000D01*
X167863571Y-58732142D01*
X167827857Y-58660714D01*
X167792142Y-58625000D01*
X167720714Y-58589285D01*
X167006428Y-58589285D02*
X166935000Y-58589285D01*
X166863571Y-58625000D01*
X166827857Y-58660714D01*
X166792142Y-58732142D01*
X166756428Y-58875000D01*
X166756428Y-59053571D01*
X166792142Y-59196428D01*
X166827857Y-59267857D01*
X166863571Y-59303571D01*
X166935000Y-59339285D01*
X167006428Y-59339285D01*
X167077857Y-59303571D01*
X167113571Y-59267857D01*
X167149285Y-59196428D01*
X167185000Y-59053571D01*
X167185000Y-58875000D01*
X167149285Y-58732142D01*
X167113571Y-58660714D01*
X167077857Y-58625000D01*
X167006428Y-58589285D01*
X166435000Y-59339285D02*
X166435000Y-58589285D01*
X166006428Y-59339285D02*
X166327857Y-58910714D01*
X166006428Y-58589285D02*
X166435000Y-59017857D01*
%TO.C,R11*%
X171871285Y-128207857D02*
X171514142Y-127957857D01*
X171871285Y-127779285D02*
X171121285Y-127779285D01*
X171121285Y-128065000D01*
X171157000Y-128136428D01*
X171192714Y-128172142D01*
X171264142Y-128207857D01*
X171371285Y-128207857D01*
X171442714Y-128172142D01*
X171478428Y-128136428D01*
X171514142Y-128065000D01*
X171514142Y-127779285D01*
X171871285Y-128922142D02*
X171871285Y-128493571D01*
X171871285Y-128707857D02*
X171121285Y-128707857D01*
X171228428Y-128636428D01*
X171299857Y-128565000D01*
X171335571Y-128493571D01*
X171871285Y-129636428D02*
X171871285Y-129207857D01*
X171871285Y-129422142D02*
X171121285Y-129422142D01*
X171228428Y-129350714D01*
X171299857Y-129279285D01*
X171335571Y-129207857D01*
X169839285Y-127815000D02*
X169839285Y-127386428D01*
X169839285Y-127600714D02*
X169089285Y-127600714D01*
X169196428Y-127529285D01*
X169267857Y-127457857D01*
X169303571Y-127386428D01*
X169089285Y-128279285D02*
X169089285Y-128350714D01*
X169125000Y-128422142D01*
X169160714Y-128457857D01*
X169232142Y-128493571D01*
X169375000Y-128529285D01*
X169553571Y-128529285D01*
X169696428Y-128493571D01*
X169767857Y-128457857D01*
X169803571Y-128422142D01*
X169839285Y-128350714D01*
X169839285Y-128279285D01*
X169803571Y-128207857D01*
X169767857Y-128172142D01*
X169696428Y-128136428D01*
X169553571Y-128100714D01*
X169375000Y-128100714D01*
X169232142Y-128136428D01*
X169160714Y-128172142D01*
X169125000Y-128207857D01*
X169089285Y-128279285D01*
X169089285Y-128993571D02*
X169089285Y-129065000D01*
X169125000Y-129136428D01*
X169160714Y-129172142D01*
X169232142Y-129207857D01*
X169375000Y-129243571D01*
X169553571Y-129243571D01*
X169696428Y-129207857D01*
X169767857Y-129172142D01*
X169803571Y-129136428D01*
X169839285Y-129065000D01*
X169839285Y-128993571D01*
X169803571Y-128922142D01*
X169767857Y-128886428D01*
X169696428Y-128850714D01*
X169553571Y-128815000D01*
X169375000Y-128815000D01*
X169232142Y-128850714D01*
X169160714Y-128886428D01*
X169125000Y-128922142D01*
X169089285Y-128993571D01*
X169839285Y-129565000D02*
X169089285Y-129565000D01*
X169839285Y-129993571D02*
X169410714Y-129672142D01*
X169089285Y-129993571D02*
X169517857Y-129565000D01*
%TO.C,R12*%
X168292142Y-141371285D02*
X168542142Y-141014142D01*
X168720714Y-141371285D02*
X168720714Y-140621285D01*
X168435000Y-140621285D01*
X168363571Y-140657000D01*
X168327857Y-140692714D01*
X168292142Y-140764142D01*
X168292142Y-140871285D01*
X168327857Y-140942714D01*
X168363571Y-140978428D01*
X168435000Y-141014142D01*
X168720714Y-141014142D01*
X167577857Y-141371285D02*
X168006428Y-141371285D01*
X167792142Y-141371285D02*
X167792142Y-140621285D01*
X167863571Y-140728428D01*
X167935000Y-140799857D01*
X168006428Y-140835571D01*
X167292142Y-140692714D02*
X167256428Y-140657000D01*
X167185000Y-140621285D01*
X167006428Y-140621285D01*
X166935000Y-140657000D01*
X166899285Y-140692714D01*
X166863571Y-140764142D01*
X166863571Y-140835571D01*
X166899285Y-140942714D01*
X167327857Y-141371285D01*
X166863571Y-141371285D01*
X168685000Y-139339285D02*
X169113571Y-139339285D01*
X168899285Y-139339285D02*
X168899285Y-138589285D01*
X168970714Y-138696428D01*
X169042142Y-138767857D01*
X169113571Y-138803571D01*
X168220714Y-138589285D02*
X168149285Y-138589285D01*
X168077857Y-138625000D01*
X168042142Y-138660714D01*
X168006428Y-138732142D01*
X167970714Y-138875000D01*
X167970714Y-139053571D01*
X168006428Y-139196428D01*
X168042142Y-139267857D01*
X168077857Y-139303571D01*
X168149285Y-139339285D01*
X168220714Y-139339285D01*
X168292142Y-139303571D01*
X168327857Y-139267857D01*
X168363571Y-139196428D01*
X168399285Y-139053571D01*
X168399285Y-138875000D01*
X168363571Y-138732142D01*
X168327857Y-138660714D01*
X168292142Y-138625000D01*
X168220714Y-138589285D01*
X167506428Y-138589285D02*
X167435000Y-138589285D01*
X167363571Y-138625000D01*
X167327857Y-138660714D01*
X167292142Y-138732142D01*
X167256428Y-138875000D01*
X167256428Y-139053571D01*
X167292142Y-139196428D01*
X167327857Y-139267857D01*
X167363571Y-139303571D01*
X167435000Y-139339285D01*
X167506428Y-139339285D01*
X167577857Y-139303571D01*
X167613571Y-139267857D01*
X167649285Y-139196428D01*
X167685000Y-139053571D01*
X167685000Y-138875000D01*
X167649285Y-138732142D01*
X167613571Y-138660714D01*
X167577857Y-138625000D01*
X167506428Y-138589285D01*
X166935000Y-139339285D02*
X166935000Y-138589285D01*
X166506428Y-139339285D02*
X166827857Y-138910714D01*
X166506428Y-138589285D02*
X166935000Y-139017857D01*
%TO.C,R13*%
X157292142Y-141371285D02*
X157542142Y-141014142D01*
X157720714Y-141371285D02*
X157720714Y-140621285D01*
X157435000Y-140621285D01*
X157363571Y-140657000D01*
X157327857Y-140692714D01*
X157292142Y-140764142D01*
X157292142Y-140871285D01*
X157327857Y-140942714D01*
X157363571Y-140978428D01*
X157435000Y-141014142D01*
X157720714Y-141014142D01*
X156577857Y-141371285D02*
X157006428Y-141371285D01*
X156792142Y-141371285D02*
X156792142Y-140621285D01*
X156863571Y-140728428D01*
X156935000Y-140799857D01*
X157006428Y-140835571D01*
X156327857Y-140621285D02*
X155863571Y-140621285D01*
X156113571Y-140907000D01*
X156006428Y-140907000D01*
X155935000Y-140942714D01*
X155899285Y-140978428D01*
X155863571Y-141049857D01*
X155863571Y-141228428D01*
X155899285Y-141299857D01*
X155935000Y-141335571D01*
X156006428Y-141371285D01*
X156220714Y-141371285D01*
X156292142Y-141335571D01*
X156327857Y-141299857D01*
X157685000Y-139339285D02*
X158113571Y-139339285D01*
X157899285Y-139339285D02*
X157899285Y-138589285D01*
X157970714Y-138696428D01*
X158042142Y-138767857D01*
X158113571Y-138803571D01*
X157220714Y-138589285D02*
X157149285Y-138589285D01*
X157077857Y-138625000D01*
X157042142Y-138660714D01*
X157006428Y-138732142D01*
X156970714Y-138875000D01*
X156970714Y-139053571D01*
X157006428Y-139196428D01*
X157042142Y-139267857D01*
X157077857Y-139303571D01*
X157149285Y-139339285D01*
X157220714Y-139339285D01*
X157292142Y-139303571D01*
X157327857Y-139267857D01*
X157363571Y-139196428D01*
X157399285Y-139053571D01*
X157399285Y-138875000D01*
X157363571Y-138732142D01*
X157327857Y-138660714D01*
X157292142Y-138625000D01*
X157220714Y-138589285D01*
X156506428Y-138589285D02*
X156435000Y-138589285D01*
X156363571Y-138625000D01*
X156327857Y-138660714D01*
X156292142Y-138732142D01*
X156256428Y-138875000D01*
X156256428Y-139053571D01*
X156292142Y-139196428D01*
X156327857Y-139267857D01*
X156363571Y-139303571D01*
X156435000Y-139339285D01*
X156506428Y-139339285D01*
X156577857Y-139303571D01*
X156613571Y-139267857D01*
X156649285Y-139196428D01*
X156685000Y-139053571D01*
X156685000Y-138875000D01*
X156649285Y-138732142D01*
X156613571Y-138660714D01*
X156577857Y-138625000D01*
X156506428Y-138589285D01*
X155935000Y-139339285D02*
X155935000Y-138589285D01*
X155506428Y-139339285D02*
X155827857Y-138910714D01*
X155506428Y-138589285D02*
X155935000Y-139017857D01*
%TO.C,R14*%
X168292142Y-146871285D02*
X168542142Y-146514142D01*
X168720714Y-146871285D02*
X168720714Y-146121285D01*
X168435000Y-146121285D01*
X168363571Y-146157000D01*
X168327857Y-146192714D01*
X168292142Y-146264142D01*
X168292142Y-146371285D01*
X168327857Y-146442714D01*
X168363571Y-146478428D01*
X168435000Y-146514142D01*
X168720714Y-146514142D01*
X167577857Y-146871285D02*
X168006428Y-146871285D01*
X167792142Y-146871285D02*
X167792142Y-146121285D01*
X167863571Y-146228428D01*
X167935000Y-146299857D01*
X168006428Y-146335571D01*
X166935000Y-146371285D02*
X166935000Y-146871285D01*
X167113571Y-146085571D02*
X167292142Y-146621285D01*
X166827857Y-146621285D01*
X167970714Y-144839285D02*
X168399285Y-144839285D01*
X168185000Y-144839285D02*
X168185000Y-144089285D01*
X168256428Y-144196428D01*
X168327857Y-144267857D01*
X168399285Y-144303571D01*
X167649285Y-144839285D02*
X167649285Y-144089285D01*
X167220714Y-144839285D02*
X167542142Y-144410714D01*
X167220714Y-144089285D02*
X167649285Y-144517857D01*
%TO.C,R15*%
X157792142Y-103371285D02*
X158042142Y-103014142D01*
X158220714Y-103371285D02*
X158220714Y-102621285D01*
X157935000Y-102621285D01*
X157863571Y-102657000D01*
X157827857Y-102692714D01*
X157792142Y-102764142D01*
X157792142Y-102871285D01*
X157827857Y-102942714D01*
X157863571Y-102978428D01*
X157935000Y-103014142D01*
X158220714Y-103014142D01*
X157077857Y-103371285D02*
X157506428Y-103371285D01*
X157292142Y-103371285D02*
X157292142Y-102621285D01*
X157363571Y-102728428D01*
X157435000Y-102799857D01*
X157506428Y-102835571D01*
X156399285Y-102621285D02*
X156756428Y-102621285D01*
X156792142Y-102978428D01*
X156756428Y-102942714D01*
X156685000Y-102907000D01*
X156506428Y-102907000D01*
X156435000Y-102942714D01*
X156399285Y-102978428D01*
X156363571Y-103049857D01*
X156363571Y-103228428D01*
X156399285Y-103299857D01*
X156435000Y-103335571D01*
X156506428Y-103371285D01*
X156685000Y-103371285D01*
X156756428Y-103335571D01*
X156792142Y-103299857D01*
X157452857Y-101339285D02*
X157881428Y-101339285D01*
X157667142Y-101339285D02*
X157667142Y-100589285D01*
X157738571Y-100696428D01*
X157810000Y-100767857D01*
X157881428Y-100803571D01*
X156988571Y-100589285D02*
X156917142Y-100589285D01*
X156845714Y-100625000D01*
X156810000Y-100660714D01*
X156774285Y-100732142D01*
X156738571Y-100875000D01*
X156738571Y-101053571D01*
X156774285Y-101196428D01*
X156810000Y-101267857D01*
X156845714Y-101303571D01*
X156917142Y-101339285D01*
X156988571Y-101339285D01*
X157060000Y-101303571D01*
X157095714Y-101267857D01*
X157131428Y-101196428D01*
X157167142Y-101053571D01*
X157167142Y-100875000D01*
X157131428Y-100732142D01*
X157095714Y-100660714D01*
X157060000Y-100625000D01*
X156988571Y-100589285D01*
%TO.C,R16*%
X168292142Y-103371285D02*
X168542142Y-103014142D01*
X168720714Y-103371285D02*
X168720714Y-102621285D01*
X168435000Y-102621285D01*
X168363571Y-102657000D01*
X168327857Y-102692714D01*
X168292142Y-102764142D01*
X168292142Y-102871285D01*
X168327857Y-102942714D01*
X168363571Y-102978428D01*
X168435000Y-103014142D01*
X168720714Y-103014142D01*
X167577857Y-103371285D02*
X168006428Y-103371285D01*
X167792142Y-103371285D02*
X167792142Y-102621285D01*
X167863571Y-102728428D01*
X167935000Y-102799857D01*
X168006428Y-102835571D01*
X166935000Y-102621285D02*
X167077857Y-102621285D01*
X167149285Y-102657000D01*
X167185000Y-102692714D01*
X167256428Y-102799857D01*
X167292142Y-102942714D01*
X167292142Y-103228428D01*
X167256428Y-103299857D01*
X167220714Y-103335571D01*
X167149285Y-103371285D01*
X167006428Y-103371285D01*
X166935000Y-103335571D01*
X166899285Y-103299857D01*
X166863571Y-103228428D01*
X166863571Y-103049857D01*
X166899285Y-102978428D01*
X166935000Y-102942714D01*
X167006428Y-102907000D01*
X167149285Y-102907000D01*
X167220714Y-102942714D01*
X167256428Y-102978428D01*
X167292142Y-103049857D01*
X167952857Y-101339285D02*
X168381428Y-101339285D01*
X168167142Y-101339285D02*
X168167142Y-100589285D01*
X168238571Y-100696428D01*
X168310000Y-100767857D01*
X168381428Y-100803571D01*
X167488571Y-100589285D02*
X167417142Y-100589285D01*
X167345714Y-100625000D01*
X167310000Y-100660714D01*
X167274285Y-100732142D01*
X167238571Y-100875000D01*
X167238571Y-101053571D01*
X167274285Y-101196428D01*
X167310000Y-101267857D01*
X167345714Y-101303571D01*
X167417142Y-101339285D01*
X167488571Y-101339285D01*
X167560000Y-101303571D01*
X167595714Y-101267857D01*
X167631428Y-101196428D01*
X167667142Y-101053571D01*
X167667142Y-100875000D01*
X167631428Y-100732142D01*
X167595714Y-100660714D01*
X167560000Y-100625000D01*
X167488571Y-100589285D01*
%TO.C,U1*%
X159261428Y-120759285D02*
X159261428Y-121366428D01*
X159225714Y-121437857D01*
X159190000Y-121473571D01*
X159118571Y-121509285D01*
X158975714Y-121509285D01*
X158904285Y-121473571D01*
X158868571Y-121437857D01*
X158832857Y-121366428D01*
X158832857Y-120759285D01*
X158082857Y-121509285D02*
X158511428Y-121509285D01*
X158297142Y-121509285D02*
X158297142Y-120759285D01*
X158368571Y-120866428D01*
X158440000Y-120937857D01*
X158511428Y-120973571D01*
X159100714Y-128899285D02*
X159100714Y-128470714D01*
X158350714Y-128685000D02*
X159100714Y-128685000D01*
X158350714Y-127863571D02*
X158350714Y-128220714D01*
X159100714Y-128220714D01*
X159100714Y-127470714D02*
X159100714Y-127399285D01*
X159065000Y-127327857D01*
X159029285Y-127292142D01*
X158957857Y-127256428D01*
X158815000Y-127220714D01*
X158636428Y-127220714D01*
X158493571Y-127256428D01*
X158422142Y-127292142D01*
X158386428Y-127327857D01*
X158350714Y-127399285D01*
X158350714Y-127470714D01*
X158386428Y-127542142D01*
X158422142Y-127577857D01*
X158493571Y-127613571D01*
X158636428Y-127649285D01*
X158815000Y-127649285D01*
X158957857Y-127613571D01*
X159029285Y-127577857D01*
X159065000Y-127542142D01*
X159100714Y-127470714D01*
X159100714Y-126970714D02*
X159100714Y-126470714D01*
X158350714Y-126792142D01*
X159029285Y-126220714D02*
X159065000Y-126185000D01*
X159100714Y-126113571D01*
X159100714Y-125935000D01*
X159065000Y-125863571D01*
X159029285Y-125827857D01*
X158957857Y-125792142D01*
X158886428Y-125792142D01*
X158779285Y-125827857D01*
X158350714Y-126256428D01*
X158350714Y-125792142D01*
%TD*%
M02*
