%TF.GenerationSoftware,KiCad,Pcbnew,(5.1.8-0-10_14)*%
%TF.CreationDate,2021-07-03T12:07:01-04:00*%
%TF.ProjectId,unity,756e6974-792e-46b6-9963-61645f706362,rev?*%
%TF.SameCoordinates,Original*%
%TF.FileFunction,Soldermask,Top*%
%TF.FilePolarity,Negative*%
%FSLAX46Y46*%
G04 Gerber Fmt 4.6, Leading zero omitted, Abs format (unit mm)*
G04 Created by KiCad (PCBNEW (5.1.8-0-10_14)) date 2021-07-03 12:07:01*
%MOMM*%
%LPD*%
G01*
G04 APERTURE LIST*
%ADD10O,1.740000X2.200000*%
%ADD11O,1.600000X1.600000*%
%ADD12C,1.600000*%
%ADD13R,1.727200X1.727200*%
%ADD14O,1.727200X1.727200*%
%ADD15R,1.600000X1.600000*%
%ADD16O,2.400000X1.600000*%
%ADD17R,2.400000X1.600000*%
G04 APERTURE END LIST*
D10*
%TO.C,J2*%
X163040000Y-41000000D03*
G36*
G01*
X159630000Y-41850001D02*
X159630000Y-40149999D01*
G75*
G02*
X159879999Y-39900000I249999J0D01*
G01*
X161120001Y-39900000D01*
G75*
G02*
X161370000Y-40149999I0J-249999D01*
G01*
X161370000Y-41850001D01*
G75*
G02*
X161120001Y-42100000I-249999J0D01*
G01*
X159879999Y-42100000D01*
G75*
G02*
X159630000Y-41850001I0J249999D01*
G01*
G37*
%TD*%
%TO.C,J5*%
G36*
G01*
X163630000Y-51850001D02*
X163630000Y-50149999D01*
G75*
G02*
X163879999Y-49900000I249999J0D01*
G01*
X165120001Y-49900000D01*
G75*
G02*
X165370000Y-50149999I0J-249999D01*
G01*
X165370000Y-51850001D01*
G75*
G02*
X165120001Y-52100000I-249999J0D01*
G01*
X163879999Y-52100000D01*
G75*
G02*
X163630000Y-51850001I0J249999D01*
G01*
G37*
X167040000Y-51000000D03*
%TD*%
%TO.C,J4*%
X159040000Y-51000000D03*
G36*
G01*
X155630000Y-51850001D02*
X155630000Y-50149999D01*
G75*
G02*
X155879999Y-49900000I249999J0D01*
G01*
X157120001Y-49900000D01*
G75*
G02*
X157370000Y-50149999I0J-249999D01*
G01*
X157370000Y-51850001D01*
G75*
G02*
X157120001Y-52100000I-249999J0D01*
G01*
X155879999Y-52100000D01*
G75*
G02*
X155630000Y-51850001I0J249999D01*
G01*
G37*
%TD*%
D11*
%TO.C,R9*%
X171120000Y-77500000D03*
D12*
X163500000Y-77500000D03*
%TD*%
%TO.C,R5*%
X163500000Y-63500000D03*
D11*
X171120000Y-63500000D03*
%TD*%
D13*
%TO.C,J6*%
X167000000Y-90500000D03*
D14*
X167000000Y-87960000D03*
X164460000Y-90500000D03*
X164460000Y-87960000D03*
X161920000Y-90500000D03*
X161920000Y-87960000D03*
X159380000Y-90500000D03*
X159380000Y-87960000D03*
X156840000Y-90500000D03*
X156840000Y-87960000D03*
%TD*%
D11*
%TO.C,R17*%
X160620000Y-144500000D03*
D12*
X153000000Y-144500000D03*
%TD*%
%TO.C,C1*%
X156000000Y-116000000D03*
X158500000Y-116000000D03*
%TD*%
%TO.C,C2*%
X169000000Y-116000000D03*
X166500000Y-116000000D03*
%TD*%
D15*
%TO.C,C3*%
X156500000Y-108500000D03*
D12*
X158500000Y-108500000D03*
%TD*%
%TO.C,C4*%
X168500000Y-108500000D03*
D15*
X166500000Y-108500000D03*
%TD*%
%TO.C,J1*%
G36*
G01*
X152130000Y-41850001D02*
X152130000Y-40149999D01*
G75*
G02*
X152379999Y-39900000I249999J0D01*
G01*
X153620001Y-39900000D01*
G75*
G02*
X153870000Y-40149999I0J-249999D01*
G01*
X153870000Y-41850001D01*
G75*
G02*
X153620001Y-42100000I-249999J0D01*
G01*
X152379999Y-42100000D01*
G75*
G02*
X152130000Y-41850001I0J249999D01*
G01*
G37*
D10*
X155540000Y-41000000D03*
%TD*%
%TO.C,J3*%
G36*
G01*
X167130000Y-41945002D02*
X167130000Y-40245000D01*
G75*
G02*
X167379999Y-39995001I249999J0D01*
G01*
X168620001Y-39995001D01*
G75*
G02*
X168870000Y-40245000I0J-249999D01*
G01*
X168870000Y-41945002D01*
G75*
G02*
X168620001Y-42195001I-249999J0D01*
G01*
X167379999Y-42195001D01*
G75*
G02*
X167130000Y-41945002I0J249999D01*
G01*
G37*
X170540000Y-41095001D03*
%TD*%
%TO.C,J7*%
G36*
G01*
X165130000Y-160850001D02*
X165130000Y-159149999D01*
G75*
G02*
X165379999Y-158900000I249999J0D01*
G01*
X166620001Y-158900000D01*
G75*
G02*
X166870000Y-159149999I0J-249999D01*
G01*
X166870000Y-160850001D01*
G75*
G02*
X166620001Y-161100000I-249999J0D01*
G01*
X165379999Y-161100000D01*
G75*
G02*
X165130000Y-160850001I0J249999D01*
G01*
G37*
X168540000Y-160000000D03*
%TD*%
%TO.C,J8*%
X158540000Y-160000000D03*
G36*
G01*
X155130000Y-160850001D02*
X155130000Y-159149999D01*
G75*
G02*
X155379999Y-158900000I249999J0D01*
G01*
X156620001Y-158900000D01*
G75*
G02*
X156870000Y-159149999I0J-249999D01*
G01*
X156870000Y-160850001D01*
G75*
G02*
X156620001Y-161100000I-249999J0D01*
G01*
X155379999Y-161100000D01*
G75*
G02*
X155130000Y-160850001I0J249999D01*
G01*
G37*
%TD*%
D12*
%TO.C,R1*%
X152500000Y-59000000D03*
D11*
X160120000Y-59000000D03*
%TD*%
D12*
%TO.C,R2*%
X152500000Y-63500000D03*
D11*
X160120000Y-63500000D03*
%TD*%
D12*
%TO.C,R3*%
X163500000Y-68000000D03*
D11*
X171120000Y-68000000D03*
%TD*%
D12*
%TO.C,R4*%
X152500000Y-77500000D03*
D11*
X160120000Y-77500000D03*
%TD*%
%TO.C,R6*%
X160120000Y-72500000D03*
D12*
X152500000Y-72500000D03*
%TD*%
D11*
%TO.C,R7*%
X160120000Y-68000000D03*
D12*
X152500000Y-68000000D03*
%TD*%
D11*
%TO.C,R8*%
X171120000Y-72500000D03*
D12*
X163500000Y-72500000D03*
%TD*%
D11*
%TO.C,R10*%
X171120000Y-59000000D03*
D12*
X163500000Y-59000000D03*
%TD*%
D11*
%TO.C,R11*%
X169500000Y-124880000D03*
D12*
X169500000Y-132500000D03*
%TD*%
D11*
%TO.C,R12*%
X171620000Y-139000000D03*
D12*
X164000000Y-139000000D03*
%TD*%
%TO.C,R13*%
X153000000Y-139000000D03*
D11*
X160620000Y-139000000D03*
%TD*%
D12*
%TO.C,R14*%
X164000000Y-144500000D03*
D11*
X171620000Y-144500000D03*
%TD*%
D12*
%TO.C,R15*%
X153500000Y-101000000D03*
D11*
X161120000Y-101000000D03*
%TD*%
%TO.C,R16*%
X171620000Y-101000000D03*
D12*
X164000000Y-101000000D03*
%TD*%
D16*
%TO.C,U1*%
X154880000Y-123500000D03*
X162500000Y-131120000D03*
X154880000Y-126040000D03*
X162500000Y-128580000D03*
X154880000Y-128580000D03*
X162500000Y-126040000D03*
X154880000Y-131120000D03*
D17*
X162500000Y-123500000D03*
%TD*%
M02*
