%TF.GenerationSoftware,KiCad,Pcbnew,(5.1.8-0-10_14)*%
%TF.CreationDate,2021-07-03T12:07:01-04:00*%
%TF.ProjectId,unity,756e6974-792e-46b6-9963-61645f706362,rev?*%
%TF.SameCoordinates,Original*%
%TF.FileFunction,Copper,L1,Top*%
%TF.FilePolarity,Positive*%
%FSLAX46Y46*%
G04 Gerber Fmt 4.6, Leading zero omitted, Abs format (unit mm)*
G04 Created by KiCad (PCBNEW (5.1.8-0-10_14)) date 2021-07-03 12:07:01*
%MOMM*%
%LPD*%
G01*
G04 APERTURE LIST*
%TA.AperFunction,ComponentPad*%
%ADD10O,1.740000X2.200000*%
%TD*%
%TA.AperFunction,ComponentPad*%
%ADD11O,1.600000X1.600000*%
%TD*%
%TA.AperFunction,ComponentPad*%
%ADD12C,1.600000*%
%TD*%
%TA.AperFunction,ComponentPad*%
%ADD13R,1.727200X1.727200*%
%TD*%
%TA.AperFunction,ComponentPad*%
%ADD14O,1.727200X1.727200*%
%TD*%
%TA.AperFunction,ComponentPad*%
%ADD15R,1.600000X1.600000*%
%TD*%
%TA.AperFunction,ComponentPad*%
%ADD16O,2.400000X1.600000*%
%TD*%
%TA.AperFunction,ComponentPad*%
%ADD17R,2.400000X1.600000*%
%TD*%
%TA.AperFunction,Conductor*%
%ADD18C,0.250000*%
%TD*%
G04 APERTURE END LIST*
D10*
%TO.P,J2,2*%
%TO.N,GND*%
X163040000Y-41000000D03*
%TO.P,J2,1*%
%TO.N,Net-(J2-Pad1)*%
%TA.AperFunction,ComponentPad*%
G36*
G01*
X159630000Y-41850001D02*
X159630000Y-40149999D01*
G75*
G02*
X159879999Y-39900000I249999J0D01*
G01*
X161120001Y-39900000D01*
G75*
G02*
X161370000Y-40149999I0J-249999D01*
G01*
X161370000Y-41850001D01*
G75*
G02*
X161120001Y-42100000I-249999J0D01*
G01*
X159879999Y-42100000D01*
G75*
G02*
X159630000Y-41850001I0J249999D01*
G01*
G37*
%TD.AperFunction*%
%TD*%
%TO.P,J5,1*%
%TO.N,Net-(J5-Pad1)*%
%TA.AperFunction,ComponentPad*%
G36*
G01*
X163630000Y-51850001D02*
X163630000Y-50149999D01*
G75*
G02*
X163879999Y-49900000I249999J0D01*
G01*
X165120001Y-49900000D01*
G75*
G02*
X165370000Y-50149999I0J-249999D01*
G01*
X165370000Y-51850001D01*
G75*
G02*
X165120001Y-52100000I-249999J0D01*
G01*
X163879999Y-52100000D01*
G75*
G02*
X163630000Y-51850001I0J249999D01*
G01*
G37*
%TD.AperFunction*%
%TO.P,J5,2*%
%TO.N,GND*%
X167040000Y-51000000D03*
%TD*%
%TO.P,J4,2*%
%TO.N,GND*%
X159040000Y-51000000D03*
%TO.P,J4,1*%
%TO.N,Net-(J4-Pad1)*%
%TA.AperFunction,ComponentPad*%
G36*
G01*
X155630000Y-51850001D02*
X155630000Y-50149999D01*
G75*
G02*
X155879999Y-49900000I249999J0D01*
G01*
X157120001Y-49900000D01*
G75*
G02*
X157370000Y-50149999I0J-249999D01*
G01*
X157370000Y-51850001D01*
G75*
G02*
X157120001Y-52100000I-249999J0D01*
G01*
X155879999Y-52100000D01*
G75*
G02*
X155630000Y-51850001I0J249999D01*
G01*
G37*
%TD.AperFunction*%
%TD*%
D11*
%TO.P,R9,2*%
%TO.N,Net-(J4-Pad1)*%
X171120000Y-77500000D03*
D12*
%TO.P,R9,1*%
%TO.N,Net-(R10-Pad1)*%
X163500000Y-77500000D03*
%TD*%
%TO.P,R5,1*%
%TO.N,GND*%
X163500000Y-63500000D03*
D11*
%TO.P,R5,2*%
%TO.N,Net-(J5-Pad1)*%
X171120000Y-63500000D03*
%TD*%
D13*
%TO.P,J6,1*%
%TO.N,Net-(J6-Pad1)*%
X167000000Y-90500000D03*
D14*
%TO.P,J6,2*%
X167000000Y-87960000D03*
%TO.P,J6,3*%
%TO.N,GND*%
X164460000Y-90500000D03*
%TO.P,J6,4*%
X164460000Y-87960000D03*
%TO.P,J6,5*%
X161920000Y-90500000D03*
%TO.P,J6,6*%
X161920000Y-87960000D03*
%TO.P,J6,7*%
X159380000Y-90500000D03*
%TO.P,J6,8*%
X159380000Y-87960000D03*
%TO.P,J6,9*%
%TO.N,Net-(J6-Pad10)*%
X156840000Y-90500000D03*
%TO.P,J6,10*%
X156840000Y-87960000D03*
%TD*%
D11*
%TO.P,R17,2*%
%TO.N,Net-(R13-Pad1)*%
X160620000Y-144500000D03*
D12*
%TO.P,R17,1*%
%TO.N,Net-(J7-Pad1)*%
X153000000Y-144500000D03*
%TD*%
%TO.P,C1,1*%
%TO.N,Net-(C1-Pad1)*%
X156000000Y-116000000D03*
%TO.P,C1,2*%
%TO.N,GND*%
X158500000Y-116000000D03*
%TD*%
%TO.P,C2,2*%
%TO.N,Net-(C2-Pad2)*%
X169000000Y-116000000D03*
%TO.P,C2,1*%
%TO.N,GND*%
X166500000Y-116000000D03*
%TD*%
D15*
%TO.P,C3,1*%
%TO.N,Net-(C1-Pad1)*%
X156500000Y-108500000D03*
D12*
%TO.P,C3,2*%
%TO.N,GND*%
X158500000Y-108500000D03*
%TD*%
%TO.P,C4,2*%
%TO.N,Net-(C2-Pad2)*%
X168500000Y-108500000D03*
D15*
%TO.P,C4,1*%
%TO.N,GND*%
X166500000Y-108500000D03*
%TD*%
%TO.P,J1,1*%
%TO.N,Net-(J1-Pad1)*%
%TA.AperFunction,ComponentPad*%
G36*
G01*
X152130000Y-41850001D02*
X152130000Y-40149999D01*
G75*
G02*
X152379999Y-39900000I249999J0D01*
G01*
X153620001Y-39900000D01*
G75*
G02*
X153870000Y-40149999I0J-249999D01*
G01*
X153870000Y-41850001D01*
G75*
G02*
X153620001Y-42100000I-249999J0D01*
G01*
X152379999Y-42100000D01*
G75*
G02*
X152130000Y-41850001I0J249999D01*
G01*
G37*
%TD.AperFunction*%
D10*
%TO.P,J1,2*%
%TO.N,GND*%
X155540000Y-41000000D03*
%TD*%
%TO.P,J3,1*%
%TO.N,Net-(J3-Pad1)*%
%TA.AperFunction,ComponentPad*%
G36*
G01*
X167130000Y-41945002D02*
X167130000Y-40245000D01*
G75*
G02*
X167379999Y-39995001I249999J0D01*
G01*
X168620001Y-39995001D01*
G75*
G02*
X168870000Y-40245000I0J-249999D01*
G01*
X168870000Y-41945002D01*
G75*
G02*
X168620001Y-42195001I-249999J0D01*
G01*
X167379999Y-42195001D01*
G75*
G02*
X167130000Y-41945002I0J249999D01*
G01*
G37*
%TD.AperFunction*%
%TO.P,J3,2*%
%TO.N,GND*%
X170540000Y-41095001D03*
%TD*%
%TO.P,J7,1*%
%TO.N,Net-(J7-Pad1)*%
%TA.AperFunction,ComponentPad*%
G36*
G01*
X165130000Y-160850001D02*
X165130000Y-159149999D01*
G75*
G02*
X165379999Y-158900000I249999J0D01*
G01*
X166620001Y-158900000D01*
G75*
G02*
X166870000Y-159149999I0J-249999D01*
G01*
X166870000Y-160850001D01*
G75*
G02*
X166620001Y-161100000I-249999J0D01*
G01*
X165379999Y-161100000D01*
G75*
G02*
X165130000Y-160850001I0J249999D01*
G01*
G37*
%TD.AperFunction*%
%TO.P,J7,2*%
%TO.N,GND*%
X168540000Y-160000000D03*
%TD*%
%TO.P,J8,2*%
%TO.N,GND*%
X158540000Y-160000000D03*
%TO.P,J8,1*%
%TO.N,Net-(J8-Pad1)*%
%TA.AperFunction,ComponentPad*%
G36*
G01*
X155130000Y-160850001D02*
X155130000Y-159149999D01*
G75*
G02*
X155379999Y-158900000I249999J0D01*
G01*
X156620001Y-158900000D01*
G75*
G02*
X156870000Y-159149999I0J-249999D01*
G01*
X156870000Y-160850001D01*
G75*
G02*
X156620001Y-161100000I-249999J0D01*
G01*
X155379999Y-161100000D01*
G75*
G02*
X155130000Y-160850001I0J249999D01*
G01*
G37*
%TD.AperFunction*%
%TD*%
D12*
%TO.P,R1,1*%
%TO.N,GND*%
X152500000Y-59000000D03*
D11*
%TO.P,R1,2*%
%TO.N,Net-(J1-Pad1)*%
X160120000Y-59000000D03*
%TD*%
D12*
%TO.P,R2,1*%
%TO.N,GND*%
X152500000Y-63500000D03*
D11*
%TO.P,R2,2*%
%TO.N,Net-(J2-Pad1)*%
X160120000Y-63500000D03*
%TD*%
D12*
%TO.P,R3,1*%
%TO.N,GND*%
X163500000Y-68000000D03*
D11*
%TO.P,R3,2*%
%TO.N,Net-(J3-Pad1)*%
X171120000Y-68000000D03*
%TD*%
D12*
%TO.P,R4,1*%
%TO.N,GND*%
X152500000Y-77500000D03*
D11*
%TO.P,R4,2*%
%TO.N,Net-(J4-Pad1)*%
X160120000Y-77500000D03*
%TD*%
%TO.P,R6,2*%
%TO.N,Net-(J1-Pad1)*%
X160120000Y-72500000D03*
D12*
%TO.P,R6,1*%
%TO.N,Net-(R10-Pad1)*%
X152500000Y-72500000D03*
%TD*%
D11*
%TO.P,R7,2*%
%TO.N,Net-(J2-Pad1)*%
X160120000Y-68000000D03*
D12*
%TO.P,R7,1*%
%TO.N,Net-(R10-Pad1)*%
X152500000Y-68000000D03*
%TD*%
D11*
%TO.P,R8,2*%
%TO.N,Net-(J3-Pad1)*%
X171120000Y-72500000D03*
D12*
%TO.P,R8,1*%
%TO.N,Net-(R10-Pad1)*%
X163500000Y-72500000D03*
%TD*%
D11*
%TO.P,R10,2*%
%TO.N,Net-(J5-Pad1)*%
X171120000Y-59000000D03*
D12*
%TO.P,R10,1*%
%TO.N,Net-(R10-Pad1)*%
X163500000Y-59000000D03*
%TD*%
D11*
%TO.P,R11,2*%
%TO.N,Net-(R10-Pad1)*%
X169500000Y-124880000D03*
D12*
%TO.P,R11,1*%
%TO.N,Net-(R11-Pad1)*%
X169500000Y-132500000D03*
%TD*%
D11*
%TO.P,R12,2*%
%TO.N,Net-(R11-Pad1)*%
X171620000Y-139000000D03*
D12*
%TO.P,R12,1*%
%TO.N,Net-(R12-Pad1)*%
X164000000Y-139000000D03*
%TD*%
%TO.P,R13,1*%
%TO.N,Net-(R13-Pad1)*%
X153000000Y-139000000D03*
D11*
%TO.P,R13,2*%
%TO.N,Net-(R12-Pad1)*%
X160620000Y-139000000D03*
%TD*%
D12*
%TO.P,R14,1*%
%TO.N,Net-(J8-Pad1)*%
X164000000Y-144500000D03*
D11*
%TO.P,R14,2*%
%TO.N,Net-(R11-Pad1)*%
X171620000Y-144500000D03*
%TD*%
D12*
%TO.P,R15,1*%
%TO.N,Net-(C1-Pad1)*%
X153500000Y-101000000D03*
D11*
%TO.P,R15,2*%
%TO.N,Net-(J6-Pad10)*%
X161120000Y-101000000D03*
%TD*%
%TO.P,R16,2*%
%TO.N,Net-(J6-Pad1)*%
X171620000Y-101000000D03*
D12*
%TO.P,R16,1*%
%TO.N,Net-(C2-Pad2)*%
X164000000Y-101000000D03*
%TD*%
D16*
%TO.P,U1,8*%
%TO.N,Net-(C1-Pad1)*%
X154880000Y-123500000D03*
%TO.P,U1,4*%
%TO.N,Net-(C2-Pad2)*%
X162500000Y-131120000D03*
%TO.P,U1,7*%
%TO.N,Net-(R13-Pad1)*%
X154880000Y-126040000D03*
%TO.P,U1,3*%
%TO.N,GND*%
X162500000Y-128580000D03*
%TO.P,U1,6*%
%TO.N,Net-(R12-Pad1)*%
X154880000Y-128580000D03*
%TO.P,U1,2*%
%TO.N,Net-(R10-Pad1)*%
X162500000Y-126040000D03*
%TO.P,U1,5*%
%TO.N,GND*%
X154880000Y-131120000D03*
D17*
%TO.P,U1,1*%
%TO.N,Net-(R11-Pad1)*%
X162500000Y-123500000D03*
%TD*%
D18*
%TO.N,Net-(C1-Pad1)*%
X153500000Y-101500000D02*
X153500000Y-101000000D01*
X156000000Y-116500000D02*
X156000000Y-116000000D01*
%TO.N,GND*%
X159040000Y-50460000D02*
X159475000Y-50025000D01*
X159040000Y-51000000D02*
X159040000Y-50460000D01*
X161614990Y-42425010D02*
X163040000Y-41000000D01*
X156965010Y-42425010D02*
X161614990Y-42425010D01*
X155540000Y-41000000D02*
X156965010Y-42425010D01*
X169114990Y-42520011D02*
X170540000Y-41095001D01*
X164560011Y-42520011D02*
X169114990Y-42520011D01*
X163040000Y-41000000D02*
X164560011Y-42520011D01*
X160465010Y-49574990D02*
X159040000Y-51000000D01*
X165614990Y-49574990D02*
X160465010Y-49574990D01*
X167040000Y-51000000D02*
X165614990Y-49574990D01*
X152000000Y-59000000D02*
X152500000Y-59000000D01*
X162374999Y-64625001D02*
X163500000Y-63500000D01*
X153625001Y-64625001D02*
X162374999Y-64625001D01*
X152500000Y-63500000D02*
X153625001Y-64625001D01*
X158500000Y-116000000D02*
X166500000Y-116000000D01*
X166500000Y-108500000D02*
X158500000Y-108500000D01*
X154880000Y-137094998D02*
X154880000Y-131120000D01*
X161745001Y-143959999D02*
X154880000Y-137094998D01*
X159660000Y-160000000D02*
X161745001Y-157914999D01*
X161745001Y-157914999D02*
X161745001Y-143959999D01*
X158540000Y-160000000D02*
X159660000Y-160000000D01*
X164460000Y-87960000D02*
X159380000Y-87960000D01*
X159380000Y-90500000D02*
X164460000Y-90500000D01*
X159040000Y-44500000D02*
X155540000Y-41000000D01*
X159040000Y-51000000D02*
X159040000Y-44500000D01*
X163040000Y-47000000D02*
X167040000Y-51000000D01*
X163040000Y-41000000D02*
X163040000Y-47000000D01*
X167040000Y-44595001D02*
X170540000Y-41095001D01*
X167040000Y-51000000D02*
X167040000Y-44595001D01*
X159040000Y-51000000D02*
X159000000Y-51000000D01*
X157500000Y-117000000D02*
X158500000Y-116000000D01*
X157500000Y-128500000D02*
X157500000Y-117000000D01*
X154880000Y-131120000D02*
X157500000Y-128500000D01*
X158500000Y-124580000D02*
X158500000Y-116000000D01*
X162500000Y-128580000D02*
X158500000Y-124580000D01*
X166500000Y-92540000D02*
X166500000Y-108500000D01*
X164460000Y-90500000D02*
X166500000Y-92540000D01*
X167114990Y-161425010D02*
X168540000Y-160000000D01*
X159965010Y-161425010D02*
X167114990Y-161425010D01*
X158540000Y-160000000D02*
X159965010Y-161425010D01*
%TO.N,Net-(R10-Pad1)*%
X153625001Y-73625001D02*
X152500000Y-72500000D01*
X162374999Y-73625001D02*
X153625001Y-73625001D01*
X163500000Y-72500000D02*
X162374999Y-73625001D01*
X164000000Y-77500000D02*
X163500000Y-77500000D01*
X168340000Y-126040000D02*
X169500000Y-124880000D01*
X162500000Y-126040000D02*
X168340000Y-126040000D01*
X162500000Y-126000000D02*
X162500000Y-126040000D01*
%TO.N,Net-(R11-Pad1)*%
X169500000Y-132500000D02*
X170000000Y-132500000D01*
%TO.N,Net-(R12-Pad1)*%
X164000000Y-139000000D02*
X160620000Y-139000000D01*
X154580000Y-128580000D02*
X154880000Y-128580000D01*
%TO.N,Net-(R13-Pad1)*%
X158500000Y-144500000D02*
X153000000Y-139000000D01*
X160620000Y-144500000D02*
X158500000Y-144500000D01*
%TO.N,Net-(J1-Pad1)*%
X153000000Y-40500000D02*
X153000000Y-41000000D01*
%TO.N,Net-(J2-Pad1)*%
X159074990Y-39574990D02*
X160500000Y-41000000D01*
X155045011Y-39574990D02*
X159074990Y-39574990D01*
X157844990Y-45224989D02*
X154344990Y-41724989D01*
X157844990Y-61224990D02*
X157844990Y-45224989D01*
X154344990Y-40275011D02*
X155045011Y-39574990D01*
X154344990Y-41724989D02*
X154344990Y-40275011D01*
X160120000Y-63500000D02*
X157844990Y-61224990D01*
%TO.N,Net-(J3-Pad1)*%
X168000000Y-41095001D02*
X168000000Y-41000000D01*
%TO.N,Net-(J4-Pad1)*%
X169994999Y-76374999D02*
X171120000Y-77500000D01*
X161245001Y-76374999D02*
X169994999Y-76374999D01*
X160120000Y-77500000D02*
X161245001Y-76374999D01*
X155834998Y-77500000D02*
X160120000Y-77500000D01*
X151374999Y-73040001D02*
X155834998Y-77500000D01*
X151374999Y-55255001D02*
X151374999Y-73040001D01*
X155630000Y-51000000D02*
X151374999Y-55255001D01*
X156500000Y-51000000D02*
X155630000Y-51000000D01*
%TD*%
M02*
