M48
; DRILL file {KiCad (5.1.8-0-10_14)} date Saturday, July 03, 2021 at 12:10:47 PM
; FORMAT={-:-/ absolute / metric / decimal}
; #@! TF.CreationDate,2021-07-03T12:10:47-04:00
; #@! TF.GenerationSoftware,Kicad,Pcbnew,(5.1.8-0-10_14)
; #@! TF.FileFunction,Plated,1,2,PTH
FMAT,2
METRIC
T1C0.800
T2C1.016
T3C1.200
%
G90
G05
T1
X163.5Y-68.0
X171.12Y-68.0
X164.0Y-144.5
X171.62Y-144.5
X152.5Y-77.5
X160.12Y-77.5
X153.5Y-101.0
X161.12Y-101.0
X152.5Y-72.5
X160.12Y-72.5
X166.5Y-116.0
X169.0Y-116.0
X164.0Y-101.0
X171.62Y-101.0
X153.0Y-144.5
X160.62Y-144.5
X163.5Y-59.0
X171.12Y-59.0
X154.88Y-123.5
X154.88Y-126.04
X154.88Y-128.58
X154.88Y-131.12
X162.5Y-123.5
X162.5Y-126.04
X162.5Y-128.58
X162.5Y-131.12
X152.5Y-68.0
X160.12Y-68.0
X163.5Y-77.5
X171.12Y-77.5
X156.0Y-116.0
X158.5Y-116.0
X169.5Y-124.88
X169.5Y-132.5
X163.5Y-72.5
X171.12Y-72.5
X152.5Y-59.0
X160.12Y-59.0
X163.5Y-63.5
X171.12Y-63.5
X164.0Y-139.0
X171.62Y-139.0
X156.5Y-108.5
X158.5Y-108.5
X152.5Y-63.5
X160.12Y-63.5
X153.0Y-139.0
X160.62Y-139.0
X166.5Y-108.5
X168.5Y-108.5
T2
X156.84Y-87.96
X156.84Y-90.5
X159.38Y-87.96
X159.38Y-90.5
X161.92Y-87.96
X161.92Y-90.5
X164.46Y-87.96
X164.46Y-90.5
X167.0Y-87.96
X167.0Y-90.5
T3
X156.5Y-51.0
X159.04Y-51.0
X168.0Y-41.095
X170.54Y-41.095
X156.0Y-160.0
X158.54Y-160.0
X153.0Y-41.0
X155.54Y-41.0
X166.0Y-160.0
X168.54Y-160.0
X160.5Y-41.0
X163.04Y-41.0
X164.5Y-51.0
X167.04Y-51.0
T0
M30
