%TF.GenerationSoftware,KiCad,Pcbnew,(5.1.12-1-10_14)*%
%TF.CreationDate,2021-12-12T18:06:01+01:00*%
%TF.ProjectId,sub_destroyer_panel,7375625f-6465-4737-9472-6f7965725f70,rev?*%
%TF.SameCoordinates,Original*%
%TF.FileFunction,Copper,L1,Top*%
%TF.FilePolarity,Positive*%
%FSLAX46Y46*%
G04 Gerber Fmt 4.6, Leading zero omitted, Abs format (unit mm)*
G04 Created by KiCad (PCBNEW (5.1.12-1-10_14)) date 2021-12-12 18:06:01*
%MOMM*%
%LPD*%
G01*
G04 APERTURE LIST*
%TA.AperFunction,ComponentPad*%
%ADD10C,4.000000*%
%TD*%
%TA.AperFunction,ComponentPad*%
%ADD11C,9.000000*%
%TD*%
%TA.AperFunction,ComponentPad*%
%ADD12C,5.500000*%
%TD*%
%TA.AperFunction,ComponentPad*%
%ADD13C,14.000000*%
%TD*%
%TA.AperFunction,NonConductor*%
%ADD14C,0.254000*%
%TD*%
%TA.AperFunction,NonConductor*%
%ADD15C,0.100000*%
%TD*%
G04 APERTURE END LIST*
D10*
%TO.P,REF\u002A\u002A,1*%
%TO.N,GND*%
X254100000Y-203000000D03*
X254100000Y-9000000D03*
%TD*%
%TO.P,REF\u002A\u002A,1*%
%TO.N,GND*%
X210900000Y-203000000D03*
X210900000Y-9000000D03*
%TD*%
D11*
%TO.P,REF\u002A\u002A,1*%
%TO.N,GND*%
X232500000Y-27300000D03*
%TD*%
%TO.P,REF\u002A\u002A,1*%
%TO.N,GND*%
X232500000Y-59800000D03*
%TD*%
%TO.P,REF\u002A\u002A,1*%
%TO.N,GND*%
X232500000Y-92300000D03*
%TD*%
%TO.P,REF\u002A\u002A,1*%
%TO.N,GND*%
X232500000Y-126300000D03*
%TD*%
%TO.P,REF\u002A\u002A,1*%
%TO.N,GND*%
X232500000Y-160900000D03*
%TD*%
%TO.P,REF\u002A\u002A,1*%
%TO.N,GND*%
X249000000Y-144300000D03*
%TD*%
D12*
%TO.P,REF\u002A\u002A,1*%
%TO.N,GND*%
X216700000Y-110700000D03*
%TD*%
%TO.P,REF\u002A\u002A,1*%
%TO.N,GND*%
X216700000Y-144800000D03*
%TD*%
D13*
%TO.P,REF\u002A\u002A,1*%
%TO.N,GND*%
X217900000Y-181400000D03*
%TD*%
%TO.P,REF\u002A\u002A,1*%
%TO.N,GND*%
X247200000Y-181300000D03*
%TD*%
D14*
X208564893Y-204248141D02*
X208853262Y-204679715D01*
X209078547Y-204905000D01*
X208527000Y-204905000D01*
X208527000Y-204156659D01*
X208564893Y-204248141D01*
%TA.AperFunction,NonConductor*%
D15*
G36*
X208564893Y-204248141D02*
G01*
X208853262Y-204679715D01*
X209078547Y-204905000D01*
X208527000Y-204905000D01*
X208527000Y-204156659D01*
X208564893Y-204248141D01*
G37*
%TD.AperFunction*%
D14*
X256373000Y-204905000D02*
X255921453Y-204905000D01*
X256146738Y-204679715D01*
X256373000Y-204341091D01*
X256373000Y-204905000D01*
%TA.AperFunction,NonConductor*%
D15*
G36*
X256373000Y-204905000D02*
G01*
X255921453Y-204905000D01*
X256146738Y-204679715D01*
X256373000Y-204341091D01*
X256373000Y-204905000D01*
G37*
%TD.AperFunction*%
D14*
X252851859Y-6664893D02*
X252420285Y-6953262D01*
X252053262Y-7320285D01*
X251764893Y-7751859D01*
X251566261Y-8231399D01*
X251465000Y-8740475D01*
X251465000Y-9259525D01*
X251566261Y-9768601D01*
X251764893Y-10248141D01*
X252053262Y-10679715D01*
X252420285Y-11046738D01*
X252851859Y-11335107D01*
X253331399Y-11533739D01*
X253840475Y-11635000D01*
X254359525Y-11635000D01*
X254868601Y-11533739D01*
X255348141Y-11335107D01*
X255779715Y-11046738D01*
X256146738Y-10679715D01*
X256373000Y-10341091D01*
X256373000Y-201658909D01*
X256146738Y-201320285D01*
X255779715Y-200953262D01*
X255348141Y-200664893D01*
X254868601Y-200466261D01*
X254359525Y-200365000D01*
X253840475Y-200365000D01*
X253331399Y-200466261D01*
X252851859Y-200664893D01*
X252420285Y-200953262D01*
X252053262Y-201320285D01*
X251764893Y-201751859D01*
X251566261Y-202231399D01*
X251465000Y-202740475D01*
X251465000Y-203259525D01*
X251566261Y-203768601D01*
X251764893Y-204248141D01*
X252053262Y-204679715D01*
X252278547Y-204905000D01*
X212721453Y-204905000D01*
X212946738Y-204679715D01*
X213235107Y-204248141D01*
X213433739Y-203768601D01*
X213535000Y-203259525D01*
X213535000Y-202740475D01*
X213433739Y-202231399D01*
X213235107Y-201751859D01*
X212946738Y-201320285D01*
X212579715Y-200953262D01*
X212148141Y-200664893D01*
X211668601Y-200466261D01*
X211159525Y-200365000D01*
X210640475Y-200365000D01*
X210131399Y-200466261D01*
X209651859Y-200664893D01*
X209220285Y-200953262D01*
X208853262Y-201320285D01*
X208564893Y-201751859D01*
X208527000Y-201843341D01*
X208527000Y-180648018D01*
X210265000Y-180648018D01*
X210265000Y-182151982D01*
X210558408Y-183627047D01*
X211133950Y-185016529D01*
X211969508Y-186267029D01*
X213032971Y-187330492D01*
X214283471Y-188166050D01*
X215672953Y-188741592D01*
X217148018Y-189035000D01*
X218651982Y-189035000D01*
X220127047Y-188741592D01*
X221516529Y-188166050D01*
X222767029Y-187330492D01*
X223830492Y-186267029D01*
X224666050Y-185016529D01*
X225241592Y-183627047D01*
X225535000Y-182151982D01*
X225535000Y-180648018D01*
X225515109Y-180548018D01*
X239565000Y-180548018D01*
X239565000Y-182051982D01*
X239858408Y-183527047D01*
X240433950Y-184916529D01*
X241269508Y-186167029D01*
X242332971Y-187230492D01*
X243583471Y-188066050D01*
X244972953Y-188641592D01*
X246448018Y-188935000D01*
X247951982Y-188935000D01*
X249427047Y-188641592D01*
X250816529Y-188066050D01*
X252067029Y-187230492D01*
X253130492Y-186167029D01*
X253966050Y-184916529D01*
X254541592Y-183527047D01*
X254835000Y-182051982D01*
X254835000Y-180548018D01*
X254541592Y-179072953D01*
X253966050Y-177683471D01*
X253130492Y-176432971D01*
X252067029Y-175369508D01*
X250816529Y-174533950D01*
X249427047Y-173958408D01*
X247951982Y-173665000D01*
X246448018Y-173665000D01*
X244972953Y-173958408D01*
X243583471Y-174533950D01*
X242332971Y-175369508D01*
X241269508Y-176432971D01*
X240433950Y-177683471D01*
X239858408Y-179072953D01*
X239565000Y-180548018D01*
X225515109Y-180548018D01*
X225241592Y-179172953D01*
X224666050Y-177783471D01*
X223830492Y-176532971D01*
X222767029Y-175469508D01*
X221516529Y-174633950D01*
X220127047Y-174058408D01*
X218651982Y-173765000D01*
X217148018Y-173765000D01*
X215672953Y-174058408D01*
X214283471Y-174633950D01*
X213032971Y-175469508D01*
X211969508Y-176532971D01*
X211133950Y-177783471D01*
X210558408Y-179172953D01*
X210265000Y-180648018D01*
X208527000Y-180648018D01*
X208527000Y-160394247D01*
X227365000Y-160394247D01*
X227365000Y-161405753D01*
X227562335Y-162397824D01*
X227949422Y-163332335D01*
X228511385Y-164173372D01*
X229226628Y-164888615D01*
X230067665Y-165450578D01*
X231002176Y-165837665D01*
X231994247Y-166035000D01*
X233005753Y-166035000D01*
X233997824Y-165837665D01*
X234932335Y-165450578D01*
X235773372Y-164888615D01*
X236488615Y-164173372D01*
X237050578Y-163332335D01*
X237437665Y-162397824D01*
X237635000Y-161405753D01*
X237635000Y-160394247D01*
X237437665Y-159402176D01*
X237050578Y-158467665D01*
X236488615Y-157626628D01*
X235773372Y-156911385D01*
X234932335Y-156349422D01*
X233997824Y-155962335D01*
X233005753Y-155765000D01*
X231994247Y-155765000D01*
X231002176Y-155962335D01*
X230067665Y-156349422D01*
X229226628Y-156911385D01*
X228511385Y-157626628D01*
X227949422Y-158467665D01*
X227562335Y-159402176D01*
X227365000Y-160394247D01*
X208527000Y-160394247D01*
X208527000Y-144466607D01*
X213315000Y-144466607D01*
X213315000Y-145133393D01*
X213445083Y-145787368D01*
X213700252Y-146403399D01*
X214070698Y-146957812D01*
X214542188Y-147429302D01*
X215096601Y-147799748D01*
X215712632Y-148054917D01*
X216366607Y-148185000D01*
X217033393Y-148185000D01*
X217687368Y-148054917D01*
X218303399Y-147799748D01*
X218857812Y-147429302D01*
X219329302Y-146957812D01*
X219699748Y-146403399D01*
X219954917Y-145787368D01*
X220085000Y-145133393D01*
X220085000Y-144466607D01*
X219954917Y-143812632D01*
X219947302Y-143794247D01*
X243865000Y-143794247D01*
X243865000Y-144805753D01*
X244062335Y-145797824D01*
X244449422Y-146732335D01*
X245011385Y-147573372D01*
X245726628Y-148288615D01*
X246567665Y-148850578D01*
X247502176Y-149237665D01*
X248494247Y-149435000D01*
X249505753Y-149435000D01*
X250497824Y-149237665D01*
X251432335Y-148850578D01*
X252273372Y-148288615D01*
X252988615Y-147573372D01*
X253550578Y-146732335D01*
X253937665Y-145797824D01*
X254135000Y-144805753D01*
X254135000Y-143794247D01*
X253937665Y-142802176D01*
X253550578Y-141867665D01*
X252988615Y-141026628D01*
X252273372Y-140311385D01*
X251432335Y-139749422D01*
X250497824Y-139362335D01*
X249505753Y-139165000D01*
X248494247Y-139165000D01*
X247502176Y-139362335D01*
X246567665Y-139749422D01*
X245726628Y-140311385D01*
X245011385Y-141026628D01*
X244449422Y-141867665D01*
X244062335Y-142802176D01*
X243865000Y-143794247D01*
X219947302Y-143794247D01*
X219699748Y-143196601D01*
X219329302Y-142642188D01*
X218857812Y-142170698D01*
X218303399Y-141800252D01*
X217687368Y-141545083D01*
X217033393Y-141415000D01*
X216366607Y-141415000D01*
X215712632Y-141545083D01*
X215096601Y-141800252D01*
X214542188Y-142170698D01*
X214070698Y-142642188D01*
X213700252Y-143196601D01*
X213445083Y-143812632D01*
X213315000Y-144466607D01*
X208527000Y-144466607D01*
X208527000Y-125794247D01*
X227365000Y-125794247D01*
X227365000Y-126805753D01*
X227562335Y-127797824D01*
X227949422Y-128732335D01*
X228511385Y-129573372D01*
X229226628Y-130288615D01*
X230067665Y-130850578D01*
X231002176Y-131237665D01*
X231994247Y-131435000D01*
X233005753Y-131435000D01*
X233997824Y-131237665D01*
X234932335Y-130850578D01*
X235773372Y-130288615D01*
X236488615Y-129573372D01*
X237050578Y-128732335D01*
X237437665Y-127797824D01*
X237635000Y-126805753D01*
X237635000Y-125794247D01*
X237437665Y-124802176D01*
X237050578Y-123867665D01*
X236488615Y-123026628D01*
X235773372Y-122311385D01*
X234932335Y-121749422D01*
X233997824Y-121362335D01*
X233005753Y-121165000D01*
X231994247Y-121165000D01*
X231002176Y-121362335D01*
X230067665Y-121749422D01*
X229226628Y-122311385D01*
X228511385Y-123026628D01*
X227949422Y-123867665D01*
X227562335Y-124802176D01*
X227365000Y-125794247D01*
X208527000Y-125794247D01*
X208527000Y-110366607D01*
X213315000Y-110366607D01*
X213315000Y-111033393D01*
X213445083Y-111687368D01*
X213700252Y-112303399D01*
X214070698Y-112857812D01*
X214542188Y-113329302D01*
X215096601Y-113699748D01*
X215712632Y-113954917D01*
X216366607Y-114085000D01*
X217033393Y-114085000D01*
X217687368Y-113954917D01*
X218303399Y-113699748D01*
X218857812Y-113329302D01*
X219329302Y-112857812D01*
X219699748Y-112303399D01*
X219954917Y-111687368D01*
X220085000Y-111033393D01*
X220085000Y-110366607D01*
X219954917Y-109712632D01*
X219699748Y-109096601D01*
X219329302Y-108542188D01*
X218857812Y-108070698D01*
X218303399Y-107700252D01*
X217687368Y-107445083D01*
X217033393Y-107315000D01*
X216366607Y-107315000D01*
X215712632Y-107445083D01*
X215096601Y-107700252D01*
X214542188Y-108070698D01*
X214070698Y-108542188D01*
X213700252Y-109096601D01*
X213445083Y-109712632D01*
X213315000Y-110366607D01*
X208527000Y-110366607D01*
X208527000Y-91794247D01*
X227365000Y-91794247D01*
X227365000Y-92805753D01*
X227562335Y-93797824D01*
X227949422Y-94732335D01*
X228511385Y-95573372D01*
X229226628Y-96288615D01*
X230067665Y-96850578D01*
X231002176Y-97237665D01*
X231994247Y-97435000D01*
X233005753Y-97435000D01*
X233997824Y-97237665D01*
X234932335Y-96850578D01*
X235773372Y-96288615D01*
X236488615Y-95573372D01*
X237050578Y-94732335D01*
X237437665Y-93797824D01*
X237635000Y-92805753D01*
X237635000Y-91794247D01*
X237437665Y-90802176D01*
X237050578Y-89867665D01*
X236488615Y-89026628D01*
X235773372Y-88311385D01*
X234932335Y-87749422D01*
X233997824Y-87362335D01*
X233005753Y-87165000D01*
X231994247Y-87165000D01*
X231002176Y-87362335D01*
X230067665Y-87749422D01*
X229226628Y-88311385D01*
X228511385Y-89026628D01*
X227949422Y-89867665D01*
X227562335Y-90802176D01*
X227365000Y-91794247D01*
X208527000Y-91794247D01*
X208527000Y-59294247D01*
X227365000Y-59294247D01*
X227365000Y-60305753D01*
X227562335Y-61297824D01*
X227949422Y-62232335D01*
X228511385Y-63073372D01*
X229226628Y-63788615D01*
X230067665Y-64350578D01*
X231002176Y-64737665D01*
X231994247Y-64935000D01*
X233005753Y-64935000D01*
X233997824Y-64737665D01*
X234932335Y-64350578D01*
X235773372Y-63788615D01*
X236488615Y-63073372D01*
X237050578Y-62232335D01*
X237437665Y-61297824D01*
X237635000Y-60305753D01*
X237635000Y-59294247D01*
X237437665Y-58302176D01*
X237050578Y-57367665D01*
X236488615Y-56526628D01*
X235773372Y-55811385D01*
X234932335Y-55249422D01*
X233997824Y-54862335D01*
X233005753Y-54665000D01*
X231994247Y-54665000D01*
X231002176Y-54862335D01*
X230067665Y-55249422D01*
X229226628Y-55811385D01*
X228511385Y-56526628D01*
X227949422Y-57367665D01*
X227562335Y-58302176D01*
X227365000Y-59294247D01*
X208527000Y-59294247D01*
X208527000Y-52214344D01*
X226715000Y-52214344D01*
X226715000Y-52585656D01*
X226787439Y-52949834D01*
X226929534Y-53292882D01*
X227135825Y-53601618D01*
X227398382Y-53864175D01*
X227707118Y-54070466D01*
X228050166Y-54212561D01*
X228414344Y-54285000D01*
X228785656Y-54285000D01*
X229149834Y-54212561D01*
X229492882Y-54070466D01*
X229801618Y-53864175D01*
X230064175Y-53601618D01*
X230270466Y-53292882D01*
X230412561Y-52949834D01*
X230485000Y-52585656D01*
X230485000Y-52214344D01*
X230412561Y-51850166D01*
X230270466Y-51507118D01*
X230064175Y-51198382D01*
X229801618Y-50935825D01*
X229492882Y-50729534D01*
X229149834Y-50587439D01*
X228785656Y-50515000D01*
X228414344Y-50515000D01*
X228050166Y-50587439D01*
X227707118Y-50729534D01*
X227398382Y-50935825D01*
X227135825Y-51198382D01*
X226929534Y-51507118D01*
X226787439Y-51850166D01*
X226715000Y-52214344D01*
X208527000Y-52214344D01*
X208527000Y-26794247D01*
X227365000Y-26794247D01*
X227365000Y-27805753D01*
X227562335Y-28797824D01*
X227949422Y-29732335D01*
X228511385Y-30573372D01*
X229226628Y-31288615D01*
X230067665Y-31850578D01*
X231002176Y-32237665D01*
X231994247Y-32435000D01*
X233005753Y-32435000D01*
X233997824Y-32237665D01*
X234932335Y-31850578D01*
X235773372Y-31288615D01*
X236488615Y-30573372D01*
X237050578Y-29732335D01*
X237437665Y-28797824D01*
X237635000Y-27805753D01*
X237635000Y-26794247D01*
X237437665Y-25802176D01*
X237050578Y-24867665D01*
X236488615Y-24026628D01*
X235773372Y-23311385D01*
X234932335Y-22749422D01*
X233997824Y-22362335D01*
X233005753Y-22165000D01*
X231994247Y-22165000D01*
X231002176Y-22362335D01*
X230067665Y-22749422D01*
X229226628Y-23311385D01*
X228511385Y-24026628D01*
X227949422Y-24867665D01*
X227562335Y-25802176D01*
X227365000Y-26794247D01*
X208527000Y-26794247D01*
X208527000Y-10156659D01*
X208564893Y-10248141D01*
X208853262Y-10679715D01*
X209220285Y-11046738D01*
X209651859Y-11335107D01*
X210131399Y-11533739D01*
X210640475Y-11635000D01*
X211159525Y-11635000D01*
X211668601Y-11533739D01*
X212148141Y-11335107D01*
X212579715Y-11046738D01*
X212946738Y-10679715D01*
X213235107Y-10248141D01*
X213433739Y-9768601D01*
X213535000Y-9259525D01*
X213535000Y-8740475D01*
X213433739Y-8231399D01*
X213235107Y-7751859D01*
X212946738Y-7320285D01*
X212579715Y-6953262D01*
X212148141Y-6664893D01*
X211815238Y-6527000D01*
X253184762Y-6527000D01*
X252851859Y-6664893D01*
%TA.AperFunction,NonConductor*%
D15*
G36*
X252851859Y-6664893D02*
G01*
X252420285Y-6953262D01*
X252053262Y-7320285D01*
X251764893Y-7751859D01*
X251566261Y-8231399D01*
X251465000Y-8740475D01*
X251465000Y-9259525D01*
X251566261Y-9768601D01*
X251764893Y-10248141D01*
X252053262Y-10679715D01*
X252420285Y-11046738D01*
X252851859Y-11335107D01*
X253331399Y-11533739D01*
X253840475Y-11635000D01*
X254359525Y-11635000D01*
X254868601Y-11533739D01*
X255348141Y-11335107D01*
X255779715Y-11046738D01*
X256146738Y-10679715D01*
X256373000Y-10341091D01*
X256373000Y-201658909D01*
X256146738Y-201320285D01*
X255779715Y-200953262D01*
X255348141Y-200664893D01*
X254868601Y-200466261D01*
X254359525Y-200365000D01*
X253840475Y-200365000D01*
X253331399Y-200466261D01*
X252851859Y-200664893D01*
X252420285Y-200953262D01*
X252053262Y-201320285D01*
X251764893Y-201751859D01*
X251566261Y-202231399D01*
X251465000Y-202740475D01*
X251465000Y-203259525D01*
X251566261Y-203768601D01*
X251764893Y-204248141D01*
X252053262Y-204679715D01*
X252278547Y-204905000D01*
X212721453Y-204905000D01*
X212946738Y-204679715D01*
X213235107Y-204248141D01*
X213433739Y-203768601D01*
X213535000Y-203259525D01*
X213535000Y-202740475D01*
X213433739Y-202231399D01*
X213235107Y-201751859D01*
X212946738Y-201320285D01*
X212579715Y-200953262D01*
X212148141Y-200664893D01*
X211668601Y-200466261D01*
X211159525Y-200365000D01*
X210640475Y-200365000D01*
X210131399Y-200466261D01*
X209651859Y-200664893D01*
X209220285Y-200953262D01*
X208853262Y-201320285D01*
X208564893Y-201751859D01*
X208527000Y-201843341D01*
X208527000Y-180648018D01*
X210265000Y-180648018D01*
X210265000Y-182151982D01*
X210558408Y-183627047D01*
X211133950Y-185016529D01*
X211969508Y-186267029D01*
X213032971Y-187330492D01*
X214283471Y-188166050D01*
X215672953Y-188741592D01*
X217148018Y-189035000D01*
X218651982Y-189035000D01*
X220127047Y-188741592D01*
X221516529Y-188166050D01*
X222767029Y-187330492D01*
X223830492Y-186267029D01*
X224666050Y-185016529D01*
X225241592Y-183627047D01*
X225535000Y-182151982D01*
X225535000Y-180648018D01*
X225515109Y-180548018D01*
X239565000Y-180548018D01*
X239565000Y-182051982D01*
X239858408Y-183527047D01*
X240433950Y-184916529D01*
X241269508Y-186167029D01*
X242332971Y-187230492D01*
X243583471Y-188066050D01*
X244972953Y-188641592D01*
X246448018Y-188935000D01*
X247951982Y-188935000D01*
X249427047Y-188641592D01*
X250816529Y-188066050D01*
X252067029Y-187230492D01*
X253130492Y-186167029D01*
X253966050Y-184916529D01*
X254541592Y-183527047D01*
X254835000Y-182051982D01*
X254835000Y-180548018D01*
X254541592Y-179072953D01*
X253966050Y-177683471D01*
X253130492Y-176432971D01*
X252067029Y-175369508D01*
X250816529Y-174533950D01*
X249427047Y-173958408D01*
X247951982Y-173665000D01*
X246448018Y-173665000D01*
X244972953Y-173958408D01*
X243583471Y-174533950D01*
X242332971Y-175369508D01*
X241269508Y-176432971D01*
X240433950Y-177683471D01*
X239858408Y-179072953D01*
X239565000Y-180548018D01*
X225515109Y-180548018D01*
X225241592Y-179172953D01*
X224666050Y-177783471D01*
X223830492Y-176532971D01*
X222767029Y-175469508D01*
X221516529Y-174633950D01*
X220127047Y-174058408D01*
X218651982Y-173765000D01*
X217148018Y-173765000D01*
X215672953Y-174058408D01*
X214283471Y-174633950D01*
X213032971Y-175469508D01*
X211969508Y-176532971D01*
X211133950Y-177783471D01*
X210558408Y-179172953D01*
X210265000Y-180648018D01*
X208527000Y-180648018D01*
X208527000Y-160394247D01*
X227365000Y-160394247D01*
X227365000Y-161405753D01*
X227562335Y-162397824D01*
X227949422Y-163332335D01*
X228511385Y-164173372D01*
X229226628Y-164888615D01*
X230067665Y-165450578D01*
X231002176Y-165837665D01*
X231994247Y-166035000D01*
X233005753Y-166035000D01*
X233997824Y-165837665D01*
X234932335Y-165450578D01*
X235773372Y-164888615D01*
X236488615Y-164173372D01*
X237050578Y-163332335D01*
X237437665Y-162397824D01*
X237635000Y-161405753D01*
X237635000Y-160394247D01*
X237437665Y-159402176D01*
X237050578Y-158467665D01*
X236488615Y-157626628D01*
X235773372Y-156911385D01*
X234932335Y-156349422D01*
X233997824Y-155962335D01*
X233005753Y-155765000D01*
X231994247Y-155765000D01*
X231002176Y-155962335D01*
X230067665Y-156349422D01*
X229226628Y-156911385D01*
X228511385Y-157626628D01*
X227949422Y-158467665D01*
X227562335Y-159402176D01*
X227365000Y-160394247D01*
X208527000Y-160394247D01*
X208527000Y-144466607D01*
X213315000Y-144466607D01*
X213315000Y-145133393D01*
X213445083Y-145787368D01*
X213700252Y-146403399D01*
X214070698Y-146957812D01*
X214542188Y-147429302D01*
X215096601Y-147799748D01*
X215712632Y-148054917D01*
X216366607Y-148185000D01*
X217033393Y-148185000D01*
X217687368Y-148054917D01*
X218303399Y-147799748D01*
X218857812Y-147429302D01*
X219329302Y-146957812D01*
X219699748Y-146403399D01*
X219954917Y-145787368D01*
X220085000Y-145133393D01*
X220085000Y-144466607D01*
X219954917Y-143812632D01*
X219947302Y-143794247D01*
X243865000Y-143794247D01*
X243865000Y-144805753D01*
X244062335Y-145797824D01*
X244449422Y-146732335D01*
X245011385Y-147573372D01*
X245726628Y-148288615D01*
X246567665Y-148850578D01*
X247502176Y-149237665D01*
X248494247Y-149435000D01*
X249505753Y-149435000D01*
X250497824Y-149237665D01*
X251432335Y-148850578D01*
X252273372Y-148288615D01*
X252988615Y-147573372D01*
X253550578Y-146732335D01*
X253937665Y-145797824D01*
X254135000Y-144805753D01*
X254135000Y-143794247D01*
X253937665Y-142802176D01*
X253550578Y-141867665D01*
X252988615Y-141026628D01*
X252273372Y-140311385D01*
X251432335Y-139749422D01*
X250497824Y-139362335D01*
X249505753Y-139165000D01*
X248494247Y-139165000D01*
X247502176Y-139362335D01*
X246567665Y-139749422D01*
X245726628Y-140311385D01*
X245011385Y-141026628D01*
X244449422Y-141867665D01*
X244062335Y-142802176D01*
X243865000Y-143794247D01*
X219947302Y-143794247D01*
X219699748Y-143196601D01*
X219329302Y-142642188D01*
X218857812Y-142170698D01*
X218303399Y-141800252D01*
X217687368Y-141545083D01*
X217033393Y-141415000D01*
X216366607Y-141415000D01*
X215712632Y-141545083D01*
X215096601Y-141800252D01*
X214542188Y-142170698D01*
X214070698Y-142642188D01*
X213700252Y-143196601D01*
X213445083Y-143812632D01*
X213315000Y-144466607D01*
X208527000Y-144466607D01*
X208527000Y-125794247D01*
X227365000Y-125794247D01*
X227365000Y-126805753D01*
X227562335Y-127797824D01*
X227949422Y-128732335D01*
X228511385Y-129573372D01*
X229226628Y-130288615D01*
X230067665Y-130850578D01*
X231002176Y-131237665D01*
X231994247Y-131435000D01*
X233005753Y-131435000D01*
X233997824Y-131237665D01*
X234932335Y-130850578D01*
X235773372Y-130288615D01*
X236488615Y-129573372D01*
X237050578Y-128732335D01*
X237437665Y-127797824D01*
X237635000Y-126805753D01*
X237635000Y-125794247D01*
X237437665Y-124802176D01*
X237050578Y-123867665D01*
X236488615Y-123026628D01*
X235773372Y-122311385D01*
X234932335Y-121749422D01*
X233997824Y-121362335D01*
X233005753Y-121165000D01*
X231994247Y-121165000D01*
X231002176Y-121362335D01*
X230067665Y-121749422D01*
X229226628Y-122311385D01*
X228511385Y-123026628D01*
X227949422Y-123867665D01*
X227562335Y-124802176D01*
X227365000Y-125794247D01*
X208527000Y-125794247D01*
X208527000Y-110366607D01*
X213315000Y-110366607D01*
X213315000Y-111033393D01*
X213445083Y-111687368D01*
X213700252Y-112303399D01*
X214070698Y-112857812D01*
X214542188Y-113329302D01*
X215096601Y-113699748D01*
X215712632Y-113954917D01*
X216366607Y-114085000D01*
X217033393Y-114085000D01*
X217687368Y-113954917D01*
X218303399Y-113699748D01*
X218857812Y-113329302D01*
X219329302Y-112857812D01*
X219699748Y-112303399D01*
X219954917Y-111687368D01*
X220085000Y-111033393D01*
X220085000Y-110366607D01*
X219954917Y-109712632D01*
X219699748Y-109096601D01*
X219329302Y-108542188D01*
X218857812Y-108070698D01*
X218303399Y-107700252D01*
X217687368Y-107445083D01*
X217033393Y-107315000D01*
X216366607Y-107315000D01*
X215712632Y-107445083D01*
X215096601Y-107700252D01*
X214542188Y-108070698D01*
X214070698Y-108542188D01*
X213700252Y-109096601D01*
X213445083Y-109712632D01*
X213315000Y-110366607D01*
X208527000Y-110366607D01*
X208527000Y-91794247D01*
X227365000Y-91794247D01*
X227365000Y-92805753D01*
X227562335Y-93797824D01*
X227949422Y-94732335D01*
X228511385Y-95573372D01*
X229226628Y-96288615D01*
X230067665Y-96850578D01*
X231002176Y-97237665D01*
X231994247Y-97435000D01*
X233005753Y-97435000D01*
X233997824Y-97237665D01*
X234932335Y-96850578D01*
X235773372Y-96288615D01*
X236488615Y-95573372D01*
X237050578Y-94732335D01*
X237437665Y-93797824D01*
X237635000Y-92805753D01*
X237635000Y-91794247D01*
X237437665Y-90802176D01*
X237050578Y-89867665D01*
X236488615Y-89026628D01*
X235773372Y-88311385D01*
X234932335Y-87749422D01*
X233997824Y-87362335D01*
X233005753Y-87165000D01*
X231994247Y-87165000D01*
X231002176Y-87362335D01*
X230067665Y-87749422D01*
X229226628Y-88311385D01*
X228511385Y-89026628D01*
X227949422Y-89867665D01*
X227562335Y-90802176D01*
X227365000Y-91794247D01*
X208527000Y-91794247D01*
X208527000Y-59294247D01*
X227365000Y-59294247D01*
X227365000Y-60305753D01*
X227562335Y-61297824D01*
X227949422Y-62232335D01*
X228511385Y-63073372D01*
X229226628Y-63788615D01*
X230067665Y-64350578D01*
X231002176Y-64737665D01*
X231994247Y-64935000D01*
X233005753Y-64935000D01*
X233997824Y-64737665D01*
X234932335Y-64350578D01*
X235773372Y-63788615D01*
X236488615Y-63073372D01*
X237050578Y-62232335D01*
X237437665Y-61297824D01*
X237635000Y-60305753D01*
X237635000Y-59294247D01*
X237437665Y-58302176D01*
X237050578Y-57367665D01*
X236488615Y-56526628D01*
X235773372Y-55811385D01*
X234932335Y-55249422D01*
X233997824Y-54862335D01*
X233005753Y-54665000D01*
X231994247Y-54665000D01*
X231002176Y-54862335D01*
X230067665Y-55249422D01*
X229226628Y-55811385D01*
X228511385Y-56526628D01*
X227949422Y-57367665D01*
X227562335Y-58302176D01*
X227365000Y-59294247D01*
X208527000Y-59294247D01*
X208527000Y-52214344D01*
X226715000Y-52214344D01*
X226715000Y-52585656D01*
X226787439Y-52949834D01*
X226929534Y-53292882D01*
X227135825Y-53601618D01*
X227398382Y-53864175D01*
X227707118Y-54070466D01*
X228050166Y-54212561D01*
X228414344Y-54285000D01*
X228785656Y-54285000D01*
X229149834Y-54212561D01*
X229492882Y-54070466D01*
X229801618Y-53864175D01*
X230064175Y-53601618D01*
X230270466Y-53292882D01*
X230412561Y-52949834D01*
X230485000Y-52585656D01*
X230485000Y-52214344D01*
X230412561Y-51850166D01*
X230270466Y-51507118D01*
X230064175Y-51198382D01*
X229801618Y-50935825D01*
X229492882Y-50729534D01*
X229149834Y-50587439D01*
X228785656Y-50515000D01*
X228414344Y-50515000D01*
X228050166Y-50587439D01*
X227707118Y-50729534D01*
X227398382Y-50935825D01*
X227135825Y-51198382D01*
X226929534Y-51507118D01*
X226787439Y-51850166D01*
X226715000Y-52214344D01*
X208527000Y-52214344D01*
X208527000Y-26794247D01*
X227365000Y-26794247D01*
X227365000Y-27805753D01*
X227562335Y-28797824D01*
X227949422Y-29732335D01*
X228511385Y-30573372D01*
X229226628Y-31288615D01*
X230067665Y-31850578D01*
X231002176Y-32237665D01*
X231994247Y-32435000D01*
X233005753Y-32435000D01*
X233997824Y-32237665D01*
X234932335Y-31850578D01*
X235773372Y-31288615D01*
X236488615Y-30573372D01*
X237050578Y-29732335D01*
X237437665Y-28797824D01*
X237635000Y-27805753D01*
X237635000Y-26794247D01*
X237437665Y-25802176D01*
X237050578Y-24867665D01*
X236488615Y-24026628D01*
X235773372Y-23311385D01*
X234932335Y-22749422D01*
X233997824Y-22362335D01*
X233005753Y-22165000D01*
X231994247Y-22165000D01*
X231002176Y-22362335D01*
X230067665Y-22749422D01*
X229226628Y-23311385D01*
X228511385Y-24026628D01*
X227949422Y-24867665D01*
X227562335Y-25802176D01*
X227365000Y-26794247D01*
X208527000Y-26794247D01*
X208527000Y-10156659D01*
X208564893Y-10248141D01*
X208853262Y-10679715D01*
X209220285Y-11046738D01*
X209651859Y-11335107D01*
X210131399Y-11533739D01*
X210640475Y-11635000D01*
X211159525Y-11635000D01*
X211668601Y-11533739D01*
X212148141Y-11335107D01*
X212579715Y-11046738D01*
X212946738Y-10679715D01*
X213235107Y-10248141D01*
X213433739Y-9768601D01*
X213535000Y-9259525D01*
X213535000Y-8740475D01*
X213433739Y-8231399D01*
X213235107Y-7751859D01*
X212946738Y-7320285D01*
X212579715Y-6953262D01*
X212148141Y-6664893D01*
X211815238Y-6527000D01*
X253184762Y-6527000D01*
X252851859Y-6664893D01*
G37*
%TD.AperFunction*%
D14*
X209651859Y-6664893D02*
X209220285Y-6953262D01*
X208853262Y-7320285D01*
X208564893Y-7751859D01*
X208527000Y-7843341D01*
X208527000Y-6527000D01*
X209984762Y-6527000D01*
X209651859Y-6664893D01*
%TA.AperFunction,NonConductor*%
D15*
G36*
X209651859Y-6664893D02*
G01*
X209220285Y-6953262D01*
X208853262Y-7320285D01*
X208564893Y-7751859D01*
X208527000Y-7843341D01*
X208527000Y-6527000D01*
X209984762Y-6527000D01*
X209651859Y-6664893D01*
G37*
%TD.AperFunction*%
D14*
X256373000Y-7658909D02*
X256146738Y-7320285D01*
X255779715Y-6953262D01*
X255348141Y-6664893D01*
X255015238Y-6527000D01*
X256373000Y-6527000D01*
X256373000Y-7658909D01*
%TA.AperFunction,NonConductor*%
D15*
G36*
X256373000Y-7658909D02*
G01*
X256146738Y-7320285D01*
X255779715Y-6953262D01*
X255348141Y-6664893D01*
X255015238Y-6527000D01*
X256373000Y-6527000D01*
X256373000Y-7658909D01*
G37*
%TD.AperFunction*%
M02*
