M48
; DRILL file {KiCad (5.1.8-0-10_14)} date Monday, September 13, 2021 at 06:22:48 PM
; FORMAT={-:-/ absolute / metric / decimal}
; #@! TF.CreationDate,2021-09-13T18:22:48-04:00
; #@! TF.GenerationSoftware,Kicad,Pcbnew,(5.1.8-0-10_14)
FMAT,2
METRIC
T1C0.550
T2C0.800
T3C0.813
T4C0.900
T5C1.000
T6C1.016
T7C1.200
T8C1.300
T9C1.800
T10C2.100
T11C3.200
%
G90
G05
T1
X-562.44Y-77.0
X-561.8Y-62.0
X-558.0Y-62.0
X-557.36Y-77.0
X-576.44Y-77.0
X-575.8Y-62.0
X-572.0Y-62.0
X-571.36Y-77.0
T2
X-590.5Y-3.42
X-590.5Y-5.96
X-590.5Y-8.5
X-552.54Y-24.5
X-550.0Y-24.5
X-547.46Y-24.5
X-584.0Y-10.5
X-576.38Y-10.5
X-558.5Y-42.88
X-558.5Y-50.5
X-519.62Y-27.5
X-512.0Y-27.5
X-592.12Y-54.0
X-584.5Y-54.0
X-592.155Y-65.141
X-584.535Y-65.141
X-563.5Y-42.88
X-563.5Y-50.5
X-582.5Y0.5
X-577.5Y0.5
X-590.5Y-27.42
X-590.5Y-29.96
X-590.5Y-32.5
X-537.5Y-85.88
X-537.5Y-93.5
X-552.54Y-13.5
X-550.0Y-13.5
X-547.46Y-13.5
X-541.0Y-42.0
X-541.0Y-47.0
X-584.0Y-20.5
X-576.38Y-20.5
X-563.5Y-32.38
X-563.5Y-40.0
X-514.5Y8.5
X-512.5Y8.5
X-536.5Y-42.88
X-536.5Y-50.5
X-584.12Y15.5
X-576.5Y15.5
X-536.5Y-32.5
X-536.5Y-40.12
X-553.62Y-86.0
X-546.0Y-86.0
X-584.0Y9.5
X-576.38Y9.5
X-536.0Y-65.5
X-536.0Y-73.12
X-560.0Y-86.0
X-560.0Y-93.62
X-592.12Y-70.153
X-584.5Y-70.153
X-591.0Y-60.0
X-586.0Y-60.0
X-519.62Y-32.5
X-512.0Y-32.5
X-507.5Y-8.0
X-507.5Y-13.0
X-584.0Y-15.5
X-576.38Y-15.5
X-541.0Y-65.5
X-541.0Y-73.12
X-519.62Y-18.0
X-512.0Y-18.0
X-519.62Y-13.0
X-512.0Y-13.0
X-592.5Y-43.0
X-584.88Y-43.0
X-584.0Y-25.5
X-576.38Y-25.5
X-506.5Y12.12
X-506.5Y4.5
X-558.5Y-32.38
X-558.5Y-40.0
X-584.0Y4.5
X-576.38Y4.5
X-541.0Y-33.0
X-541.0Y-38.0
X-584.12Y20.5
X-576.5Y20.5
X-553.804Y-34.452
X-553.804Y-36.992
X-553.804Y-39.532
X-553.804Y-42.072
X-553.804Y-44.612
X-553.804Y-47.152
X-553.804Y-49.692
X-546.184Y-34.452
X-546.184Y-36.992
X-546.184Y-39.532
X-546.184Y-42.072
X-546.184Y-44.612
X-546.184Y-47.152
X-546.184Y-49.692
X-584.0Y-5.5
X-576.38Y-5.5
X-519.5Y-3.0
X-511.88Y-3.0
X-583.0Y-35.5
X-578.0Y-35.5
X-519.5Y-23.0
X-511.88Y-23.0
X-591.0Y-48.5
X-586.0Y-48.5
X-519.62Y-8.0
X-512.0Y-8.0
X-529.0Y12.0
X-529.0Y4.38
X-583.0Y-30.5
X-578.0Y-30.5
X-523.0Y8.5
X-521.0Y8.5
T3
X-580.5Y-62.0
X-566.5Y-62.0
T4
X-551.04Y-68.0
X-548.5Y-68.0
T5
X-529.0Y-95.5
X-526.5Y-95.5
X-524.0Y-95.5
X-576.0Y-95.5
X-573.5Y-95.5
X-571.0Y-95.5
X-552.5Y-6.5
X-550.0Y-6.5
X-547.5Y-6.5
X-529.0Y-55.5
X-526.5Y-55.5
X-524.0Y-55.5
T6
X-523.5Y20.04
X-523.5Y17.5
X-520.96Y20.04
X-520.96Y17.5
X-518.42Y20.04
X-518.42Y17.5
X-515.88Y20.04
X-515.88Y17.5
X-513.34Y20.04
X-513.34Y17.5
T7
X-592.5Y-92.0
X-589.96Y-92.0
X-511.0Y-92.0
X-508.46Y-92.0
X-552.5Y-92.5
X-549.96Y-92.5
X-547.42Y-92.5
T8
X-526.5Y-68.5
X-521.5Y-68.5
T9
X-578.3Y-88.0
X-568.7Y-88.0
X-554.8Y1.0
X-545.2Y1.0
X-531.3Y-48.0
X-521.7Y-48.0
X-531.3Y-88.0
X-521.7Y-88.0
T10
X-575.915Y-43.3
X-575.915Y-48.0
X-575.915Y-52.7
X-571.085Y-43.3
X-571.085Y-48.0
X-571.085Y-52.7
T11
X-507.0Y-81.5
X-593.5Y24.0
T0
M30
