%FSLAX45Y45*%
G04 Gerber Fmt 4.5, Leading zero omitted, Abs format (unit mm)*
G04 Created by KiCad (PCBNEW (5.1.8-0-10_14)) date 2021-09-13 18:22:47*
%MOMM*%
%LPD*%
G01*
G04 APERTURE LIST*
%TA.AperFunction,Profile*%
%ADD10C,0.050000*%
%TD*%
%ADD11C,0.200000*%
%ADD12C,0.300000*%
G04 APERTURE END LIST*
D10*
X-59900000Y-10000000D02*
X-50100000Y-10000000D01*
X-59900000Y3000000D02*
X-50100000Y3000000D01*
X-50100000Y-10000000D02*
X-50100000Y3000000D01*
X-59900000Y3000000D02*
X-59900000Y-10000000D01*
D11*
X-56271500Y-7672500D02*
X-56216500Y-7727500D01*
X-56216500Y-7672500D02*
X-56271500Y-7727500D01*
X-56207500Y-6172500D02*
X-56152500Y-6227500D01*
X-56152500Y-6172500D02*
X-56207500Y-6227500D01*
X-55827500Y-6172500D02*
X-55772500Y-6227500D01*
X-55772500Y-6172500D02*
X-55827500Y-6227500D01*
X-55763500Y-7672500D02*
X-55708500Y-7727500D01*
X-55708500Y-7672500D02*
X-55763500Y-7727500D01*
X-57671500Y-7672500D02*
X-57616500Y-7727500D01*
X-57616500Y-7672500D02*
X-57671500Y-7727500D01*
X-57607500Y-6172500D02*
X-57552500Y-6227500D01*
X-57552500Y-6172500D02*
X-57607500Y-6227500D01*
X-57227500Y-6172500D02*
X-57172500Y-6227500D01*
X-57172500Y-6172500D02*
X-57227500Y-6227500D01*
X-57163500Y-7672500D02*
X-57108500Y-7727500D01*
X-57108500Y-7672500D02*
X-57163500Y-7727500D01*
X-59010000Y-342000D02*
G75*
G03*
X-59010000Y-342000I-40000J0D01*
G01*
X-59010000Y-596000D02*
G75*
G03*
X-59010000Y-596000I-40000J0D01*
G01*
X-59010000Y-850000D02*
G75*
G03*
X-59010000Y-850000I-40000J0D01*
G01*
X-55214000Y-2450000D02*
G75*
G03*
X-55214000Y-2450000I-40000J0D01*
G01*
X-54960000Y-2450000D02*
G75*
G03*
X-54960000Y-2450000I-40000J0D01*
G01*
X-54706000Y-2450000D02*
G75*
G03*
X-54706000Y-2450000I-40000J0D01*
G01*
X-58360000Y-1050000D02*
G75*
G03*
X-58360000Y-1050000I-40000J0D01*
G01*
X-57598000Y-1050000D02*
G75*
G03*
X-57598000Y-1050000I-40000J0D01*
G01*
X-55810000Y-4288000D02*
G75*
G03*
X-55810000Y-4288000I-40000J0D01*
G01*
X-55810000Y-5050000D02*
G75*
G03*
X-55810000Y-5050000I-40000J0D01*
G01*
X-51922000Y-2750000D02*
G75*
G03*
X-51922000Y-2750000I-40000J0D01*
G01*
X-51160000Y-2750000D02*
G75*
G03*
X-51160000Y-2750000I-40000J0D01*
G01*
X-59172000Y-5400000D02*
G75*
G03*
X-59172000Y-5400000I-40000J0D01*
G01*
X-58410000Y-5400000D02*
G75*
G03*
X-58410000Y-5400000I-40000J0D01*
G01*
X-59175456Y-6514118D02*
G75*
G03*
X-59175456Y-6514118I-40000J0D01*
G01*
X-58413456Y-6514118D02*
G75*
G03*
X-58413456Y-6514118I-40000J0D01*
G01*
X-56310000Y-4288000D02*
G75*
G03*
X-56310000Y-4288000I-40000J0D01*
G01*
X-56310000Y-5050000D02*
G75*
G03*
X-56310000Y-5050000I-40000J0D01*
G01*
X-58210000Y50000D02*
G75*
G03*
X-58210000Y50000I-40000J0D01*
G01*
X-57710000Y50000D02*
G75*
G03*
X-57710000Y50000I-40000J0D01*
G01*
X-59010000Y-2742000D02*
G75*
G03*
X-59010000Y-2742000I-40000J0D01*
G01*
X-59010000Y-2996000D02*
G75*
G03*
X-59010000Y-2996000I-40000J0D01*
G01*
X-59010000Y-3250000D02*
G75*
G03*
X-59010000Y-3250000I-40000J0D01*
G01*
X-53710000Y-8588000D02*
G75*
G03*
X-53710000Y-8588000I-40000J0D01*
G01*
X-53710000Y-9350000D02*
G75*
G03*
X-53710000Y-9350000I-40000J0D01*
G01*
X-55214000Y-1350000D02*
G75*
G03*
X-55214000Y-1350000I-40000J0D01*
G01*
X-54960000Y-1350000D02*
G75*
G03*
X-54960000Y-1350000I-40000J0D01*
G01*
X-54706000Y-1350000D02*
G75*
G03*
X-54706000Y-1350000I-40000J0D01*
G01*
X-54060000Y-4200000D02*
G75*
G03*
X-54060000Y-4200000I-40000J0D01*
G01*
X-54060000Y-4700000D02*
G75*
G03*
X-54060000Y-4700000I-40000J0D01*
G01*
X-58360000Y-2050000D02*
G75*
G03*
X-58360000Y-2050000I-40000J0D01*
G01*
X-57598000Y-2050000D02*
G75*
G03*
X-57598000Y-2050000I-40000J0D01*
G01*
X-56310000Y-3238000D02*
G75*
G03*
X-56310000Y-3238000I-40000J0D01*
G01*
X-56310000Y-4000000D02*
G75*
G03*
X-56310000Y-4000000I-40000J0D01*
G01*
X-51410000Y850000D02*
G75*
G03*
X-51410000Y850000I-40000J0D01*
G01*
X-51210000Y850000D02*
G75*
G03*
X-51210000Y850000I-40000J0D01*
G01*
X-53610000Y-4288000D02*
G75*
G03*
X-53610000Y-4288000I-40000J0D01*
G01*
X-53610000Y-5050000D02*
G75*
G03*
X-53610000Y-5050000I-40000J0D01*
G01*
X-58372000Y1550000D02*
G75*
G03*
X-58372000Y1550000I-40000J0D01*
G01*
X-57610000Y1550000D02*
G75*
G03*
X-57610000Y1550000I-40000J0D01*
G01*
X-53610000Y-3250000D02*
G75*
G03*
X-53610000Y-3250000I-40000J0D01*
G01*
X-53610000Y-4012000D02*
G75*
G03*
X-53610000Y-4012000I-40000J0D01*
G01*
X-55322000Y-8600000D02*
G75*
G03*
X-55322000Y-8600000I-40000J0D01*
G01*
X-54560000Y-8600000D02*
G75*
G03*
X-54560000Y-8600000I-40000J0D01*
G01*
X-58360000Y950000D02*
G75*
G03*
X-58360000Y950000I-40000J0D01*
G01*
X-57598000Y950000D02*
G75*
G03*
X-57598000Y950000I-40000J0D01*
G01*
X-53560000Y-6550000D02*
G75*
G03*
X-53560000Y-6550000I-40000J0D01*
G01*
X-53560000Y-7312000D02*
G75*
G03*
X-53560000Y-7312000I-40000J0D01*
G01*
X-55960000Y-8600000D02*
G75*
G03*
X-55960000Y-8600000I-40000J0D01*
G01*
X-55960000Y-9362000D02*
G75*
G03*
X-55960000Y-9362000I-40000J0D01*
G01*
X-59172000Y-7015270D02*
G75*
G03*
X-59172000Y-7015270I-40000J0D01*
G01*
X-58410000Y-7015270D02*
G75*
G03*
X-58410000Y-7015270I-40000J0D01*
G01*
X-59060000Y-6000000D02*
G75*
G03*
X-59060000Y-6000000I-40000J0D01*
G01*
X-58560000Y-6000000D02*
G75*
G03*
X-58560000Y-6000000I-40000J0D01*
G01*
X-51922000Y-3250000D02*
G75*
G03*
X-51922000Y-3250000I-40000J0D01*
G01*
X-51160000Y-3250000D02*
G75*
G03*
X-51160000Y-3250000I-40000J0D01*
G01*
X-50710000Y-800000D02*
G75*
G03*
X-50710000Y-800000I-40000J0D01*
G01*
X-50710000Y-1300000D02*
G75*
G03*
X-50710000Y-1300000I-40000J0D01*
G01*
X-58360000Y-1550000D02*
G75*
G03*
X-58360000Y-1550000I-40000J0D01*
G01*
X-57598000Y-1550000D02*
G75*
G03*
X-57598000Y-1550000I-40000J0D01*
G01*
X-54060000Y-6550000D02*
G75*
G03*
X-54060000Y-6550000I-40000J0D01*
G01*
X-54060000Y-7312000D02*
G75*
G03*
X-54060000Y-7312000I-40000J0D01*
G01*
X-51922000Y-1800000D02*
G75*
G03*
X-51922000Y-1800000I-40000J0D01*
G01*
X-51160000Y-1800000D02*
G75*
G03*
X-51160000Y-1800000I-40000J0D01*
G01*
X-51922000Y-1300000D02*
G75*
G03*
X-51922000Y-1300000I-40000J0D01*
G01*
X-51160000Y-1300000D02*
G75*
G03*
X-51160000Y-1300000I-40000J0D01*
G01*
X-59210000Y-4300000D02*
G75*
G03*
X-59210000Y-4300000I-40000J0D01*
G01*
X-58448000Y-4300000D02*
G75*
G03*
X-58448000Y-4300000I-40000J0D01*
G01*
X-58360000Y-2550000D02*
G75*
G03*
X-58360000Y-2550000I-40000J0D01*
G01*
X-57598000Y-2550000D02*
G75*
G03*
X-57598000Y-2550000I-40000J0D01*
G01*
X-50610000Y1212000D02*
G75*
G03*
X-50610000Y1212000I-40000J0D01*
G01*
X-50610000Y450000D02*
G75*
G03*
X-50610000Y450000I-40000J0D01*
G01*
X-55810000Y-3238000D02*
G75*
G03*
X-55810000Y-3238000I-40000J0D01*
G01*
X-55810000Y-4000000D02*
G75*
G03*
X-55810000Y-4000000I-40000J0D01*
G01*
X-58360000Y450000D02*
G75*
G03*
X-58360000Y450000I-40000J0D01*
G01*
X-57598000Y450000D02*
G75*
G03*
X-57598000Y450000I-40000J0D01*
G01*
X-54060000Y-3300000D02*
G75*
G03*
X-54060000Y-3300000I-40000J0D01*
G01*
X-54060000Y-3800000D02*
G75*
G03*
X-54060000Y-3800000I-40000J0D01*
G01*
X-58372000Y2050000D02*
G75*
G03*
X-58372000Y2050000I-40000J0D01*
G01*
X-57610000Y2050000D02*
G75*
G03*
X-57610000Y2050000I-40000J0D01*
G01*
X-55340438Y-3445242D02*
G75*
G03*
X-55340438Y-3445242I-40000J0D01*
G01*
X-55340438Y-3699242D02*
G75*
G03*
X-55340438Y-3699242I-40000J0D01*
G01*
X-55340438Y-3953242D02*
G75*
G03*
X-55340438Y-3953242I-40000J0D01*
G01*
X-55340438Y-4207242D02*
G75*
G03*
X-55340438Y-4207242I-40000J0D01*
G01*
X-55340438Y-4461242D02*
G75*
G03*
X-55340438Y-4461242I-40000J0D01*
G01*
X-55340438Y-4715242D02*
G75*
G03*
X-55340438Y-4715242I-40000J0D01*
G01*
X-55340438Y-4969242D02*
G75*
G03*
X-55340438Y-4969242I-40000J0D01*
G01*
X-54578438Y-3445242D02*
G75*
G03*
X-54578438Y-3445242I-40000J0D01*
G01*
X-54578438Y-3699242D02*
G75*
G03*
X-54578438Y-3699242I-40000J0D01*
G01*
X-54578438Y-3953242D02*
G75*
G03*
X-54578438Y-3953242I-40000J0D01*
G01*
X-54578438Y-4207242D02*
G75*
G03*
X-54578438Y-4207242I-40000J0D01*
G01*
X-54578438Y-4461242D02*
G75*
G03*
X-54578438Y-4461242I-40000J0D01*
G01*
X-54578438Y-4715242D02*
G75*
G03*
X-54578438Y-4715242I-40000J0D01*
G01*
X-54578438Y-4969242D02*
G75*
G03*
X-54578438Y-4969242I-40000J0D01*
G01*
X-58360000Y-550000D02*
G75*
G03*
X-58360000Y-550000I-40000J0D01*
G01*
X-57598000Y-550000D02*
G75*
G03*
X-57598000Y-550000I-40000J0D01*
G01*
X-51910000Y-300000D02*
G75*
G03*
X-51910000Y-300000I-40000J0D01*
G01*
X-51148000Y-300000D02*
G75*
G03*
X-51148000Y-300000I-40000J0D01*
G01*
X-58260000Y-3550000D02*
G75*
G03*
X-58260000Y-3550000I-40000J0D01*
G01*
X-57760000Y-3550000D02*
G75*
G03*
X-57760000Y-3550000I-40000J0D01*
G01*
X-51910000Y-2300000D02*
G75*
G03*
X-51910000Y-2300000I-40000J0D01*
G01*
X-51148000Y-2300000D02*
G75*
G03*
X-51148000Y-2300000I-40000J0D01*
G01*
X-59060000Y-4850000D02*
G75*
G03*
X-59060000Y-4850000I-40000J0D01*
G01*
X-58560000Y-4850000D02*
G75*
G03*
X-58560000Y-4850000I-40000J0D01*
G01*
X-51922000Y-800000D02*
G75*
G03*
X-51922000Y-800000I-40000J0D01*
G01*
X-51160000Y-800000D02*
G75*
G03*
X-51160000Y-800000I-40000J0D01*
G01*
X-52860000Y1200000D02*
G75*
G03*
X-52860000Y1200000I-40000J0D01*
G01*
X-52860000Y438000D02*
G75*
G03*
X-52860000Y438000I-40000J0D01*
G01*
X-58260000Y-3050000D02*
G75*
G03*
X-58260000Y-3050000I-40000J0D01*
G01*
X-57760000Y-3050000D02*
G75*
G03*
X-57760000Y-3050000I-40000J0D01*
G01*
X-52260000Y850000D02*
G75*
G03*
X-52260000Y850000I-40000J0D01*
G01*
X-52060000Y850000D02*
G75*
G03*
X-52060000Y850000I-40000J0D01*
G01*
X-58050000Y-6159360D02*
X-58050000Y-6240640D01*
X-58090640Y-6200000D02*
X-58009360Y-6200000D01*
X-56650000Y-6159360D02*
X-56650000Y-6240640D01*
X-56690640Y-6200000D02*
X-56609360Y-6200000D01*
X-55072180Y-6831820D02*
X-55072180Y-6768180D01*
X-55135820Y-6768180D01*
X-55135820Y-6831820D01*
X-55072180Y-6831820D01*
X-54818180Y-6831820D02*
X-54818180Y-6768180D01*
X-54881820Y-6768180D01*
X-54881820Y-6831820D01*
X-54818180Y-6831820D01*
X-52900000Y-9600000D02*
X-52850000Y-9550000D01*
X-52900000Y-9500000D01*
X-52950000Y-9550000D01*
X-52900000Y-9600000D01*
X-52650000Y-9600000D02*
X-52600000Y-9550000D01*
X-52650000Y-9500000D01*
X-52700000Y-9550000D01*
X-52650000Y-9600000D01*
X-52400000Y-9600000D02*
X-52350000Y-9550000D01*
X-52400000Y-9500000D01*
X-52450000Y-9550000D01*
X-52400000Y-9600000D01*
X-57600000Y-9600000D02*
X-57550000Y-9550000D01*
X-57600000Y-9500000D01*
X-57650000Y-9550000D01*
X-57600000Y-9600000D01*
X-57350000Y-9600000D02*
X-57300000Y-9550000D01*
X-57350000Y-9500000D01*
X-57400000Y-9550000D01*
X-57350000Y-9600000D01*
X-57100000Y-9600000D02*
X-57050000Y-9550000D01*
X-57100000Y-9500000D01*
X-57150000Y-9550000D01*
X-57100000Y-9600000D01*
X-55250000Y-700000D02*
X-55200000Y-650000D01*
X-55250000Y-600000D01*
X-55300000Y-650000D01*
X-55250000Y-700000D01*
X-55000000Y-700000D02*
X-54950000Y-650000D01*
X-55000000Y-600000D01*
X-55050000Y-650000D01*
X-55000000Y-700000D01*
X-54750000Y-700000D02*
X-54700000Y-650000D01*
X-54750000Y-600000D01*
X-54800000Y-650000D01*
X-54750000Y-700000D01*
X-52900000Y-5600000D02*
X-52850000Y-5550000D01*
X-52900000Y-5500000D01*
X-52950000Y-5550000D01*
X-52900000Y-5600000D01*
X-52650000Y-5600000D02*
X-52600000Y-5550000D01*
X-52650000Y-5500000D01*
X-52700000Y-5550000D01*
X-52650000Y-5600000D01*
X-52400000Y-5600000D02*
X-52350000Y-5550000D01*
X-52400000Y-5500000D01*
X-52450000Y-5550000D01*
X-52400000Y-5600000D01*
X-52400800Y2054800D02*
X-52299200Y1953200D01*
X-52299200Y2054800D02*
X-52400800Y1953200D01*
X-52299200Y2004000D02*
G75*
G03*
X-52299200Y2004000I-50800J0D01*
G01*
X-52400800Y1800800D02*
X-52299200Y1699200D01*
X-52299200Y1800800D02*
X-52400800Y1699200D01*
X-52299200Y1750000D02*
G75*
G03*
X-52299200Y1750000I-50800J0D01*
G01*
X-52146800Y2054800D02*
X-52045200Y1953200D01*
X-52045200Y2054800D02*
X-52146800Y1953200D01*
X-52045200Y2004000D02*
G75*
G03*
X-52045200Y2004000I-50800J0D01*
G01*
X-52146800Y1800800D02*
X-52045200Y1699200D01*
X-52045200Y1800800D02*
X-52146800Y1699200D01*
X-52045200Y1750000D02*
G75*
G03*
X-52045200Y1750000I-50800J0D01*
G01*
X-51892800Y2054800D02*
X-51791200Y1953200D01*
X-51791200Y2054800D02*
X-51892800Y1953200D01*
X-51791200Y2004000D02*
G75*
G03*
X-51791200Y2004000I-50800J0D01*
G01*
X-51892800Y1800800D02*
X-51791200Y1699200D01*
X-51791200Y1800800D02*
X-51892800Y1699200D01*
X-51791200Y1750000D02*
G75*
G03*
X-51791200Y1750000I-50800J0D01*
G01*
X-51638800Y2054800D02*
X-51537200Y1953200D01*
X-51537200Y2054800D02*
X-51638800Y1953200D01*
X-51537200Y2004000D02*
G75*
G03*
X-51537200Y2004000I-50800J0D01*
G01*
X-51638800Y1800800D02*
X-51537200Y1699200D01*
X-51537200Y1800800D02*
X-51638800Y1699200D01*
X-51537200Y1750000D02*
G75*
G03*
X-51537200Y1750000I-50800J0D01*
G01*
X-51384800Y2054800D02*
X-51283200Y1953200D01*
X-51283200Y2054800D02*
X-51384800Y1953200D01*
X-51283200Y2004000D02*
G75*
G03*
X-51283200Y2004000I-50800J0D01*
G01*
X-51384800Y1800800D02*
X-51283200Y1699200D01*
X-51283200Y1800800D02*
X-51384800Y1699200D01*
X-51283200Y1750000D02*
G75*
G03*
X-51283200Y1750000I-50800J0D01*
G01*
X-59310000Y-9140000D02*
X-59190000Y-9260000D01*
X-59190000Y-9140000D02*
X-59310000Y-9260000D01*
X-59250000Y-9140000D02*
X-59250000Y-9260000D01*
X-59310000Y-9200000D02*
X-59190000Y-9200000D01*
X-59056000Y-9140000D02*
X-58936000Y-9260000D01*
X-58936000Y-9140000D02*
X-59056000Y-9260000D01*
X-58996000Y-9140000D02*
X-58996000Y-9260000D01*
X-59056000Y-9200000D02*
X-58936000Y-9200000D01*
X-51160000Y-9140000D02*
X-51040000Y-9260000D01*
X-51040000Y-9140000D02*
X-51160000Y-9260000D01*
X-51100000Y-9140000D02*
X-51100000Y-9260000D01*
X-51160000Y-9200000D02*
X-51040000Y-9200000D01*
X-50906000Y-9140000D02*
X-50786000Y-9260000D01*
X-50786000Y-9140000D02*
X-50906000Y-9260000D01*
X-50846000Y-9140000D02*
X-50846000Y-9260000D01*
X-50906000Y-9200000D02*
X-50786000Y-9200000D01*
X-55310000Y-9190000D02*
X-55190000Y-9310000D01*
X-55190000Y-9190000D02*
X-55310000Y-9310000D01*
X-55250000Y-9190000D02*
X-55250000Y-9310000D01*
X-55310000Y-9250000D02*
X-55190000Y-9250000D01*
X-55056000Y-9190000D02*
X-54936000Y-9310000D01*
X-54936000Y-9190000D02*
X-55056000Y-9310000D01*
X-54996000Y-9190000D02*
X-54996000Y-9310000D01*
X-55056000Y-9250000D02*
X-54936000Y-9250000D01*
X-54802000Y-9190000D02*
X-54682000Y-9310000D01*
X-54682000Y-9190000D02*
X-54802000Y-9310000D01*
X-54742000Y-9190000D02*
X-54742000Y-9310000D01*
X-54802000Y-9250000D02*
X-54682000Y-9250000D01*
X-52715000Y-6785000D02*
X-52585000Y-6915000D01*
X-52585000Y-6785000D02*
X-52715000Y-6915000D01*
X-52604038Y-6895962D02*
X-52604038Y-6804038D01*
X-52695962Y-6804038D01*
X-52695962Y-6895962D01*
X-52604038Y-6895962D01*
X-52215000Y-6785000D02*
X-52085000Y-6915000D01*
X-52085000Y-6785000D02*
X-52215000Y-6915000D01*
X-52104038Y-6895962D02*
X-52104038Y-6804038D01*
X-52195962Y-6804038D01*
X-52195962Y-6895962D01*
X-52104038Y-6895962D01*
X-57920000Y-8710000D02*
X-57740000Y-8890000D01*
X-57740000Y-8710000D02*
X-57920000Y-8890000D01*
X-57830000Y-8890000D02*
X-57740000Y-8800000D01*
X-57830000Y-8710000D01*
X-57920000Y-8800000D01*
X-57830000Y-8890000D01*
X-56960000Y-8710000D02*
X-56780000Y-8890000D01*
X-56780000Y-8710000D02*
X-56960000Y-8890000D01*
X-56870000Y-8890000D02*
X-56780000Y-8800000D01*
X-56870000Y-8710000D01*
X-56960000Y-8800000D01*
X-56870000Y-8890000D01*
X-55570000Y190000D02*
X-55390000Y10000D01*
X-55390000Y190000D02*
X-55570000Y10000D01*
X-55480000Y10000D02*
X-55390000Y100000D01*
X-55480000Y190000D01*
X-55570000Y100000D01*
X-55480000Y10000D01*
X-54610000Y190000D02*
X-54430000Y10000D01*
X-54430000Y190000D02*
X-54610000Y10000D01*
X-54520000Y10000D02*
X-54430000Y100000D01*
X-54520000Y190000D01*
X-54610000Y100000D01*
X-54520000Y10000D01*
X-53220000Y-4710000D02*
X-53040000Y-4890000D01*
X-53040000Y-4710000D02*
X-53220000Y-4890000D01*
X-53130000Y-4890000D02*
X-53040000Y-4800000D01*
X-53130000Y-4710000D01*
X-53220000Y-4800000D01*
X-53130000Y-4890000D01*
X-52260000Y-4710000D02*
X-52080000Y-4890000D01*
X-52080000Y-4710000D02*
X-52260000Y-4890000D01*
X-52170000Y-4890000D02*
X-52080000Y-4800000D01*
X-52170000Y-4710000D01*
X-52260000Y-4800000D01*
X-52170000Y-4890000D01*
X-53220000Y-8710000D02*
X-53040000Y-8890000D01*
X-53040000Y-8710000D02*
X-53220000Y-8890000D01*
X-53130000Y-8890000D02*
X-53040000Y-8800000D01*
X-53130000Y-8710000D01*
X-53220000Y-8800000D01*
X-53130000Y-8890000D01*
X-52260000Y-8710000D02*
X-52080000Y-8890000D01*
X-52080000Y-8710000D02*
X-52260000Y-8890000D01*
X-52170000Y-8890000D02*
X-52080000Y-8800000D01*
X-52170000Y-8710000D01*
X-52260000Y-8800000D01*
X-52170000Y-8890000D01*
X-57591500Y-4225000D02*
X-57591500Y-4435000D01*
X-57696500Y-4330000D02*
X-57486500Y-4330000D01*
X-57486500Y-4330000D02*
G75*
G03*
X-57486500Y-4330000I-105000J0D01*
G01*
X-57591500Y-4695000D02*
X-57591500Y-4905000D01*
X-57696500Y-4800000D02*
X-57486500Y-4800000D01*
X-57486500Y-4800000D02*
G75*
G03*
X-57486500Y-4800000I-105000J0D01*
G01*
X-57591500Y-5165000D02*
X-57591500Y-5375000D01*
X-57696500Y-5270000D02*
X-57486500Y-5270000D01*
X-57486500Y-5270000D02*
G75*
G03*
X-57486500Y-5270000I-105000J0D01*
G01*
X-57108500Y-4225000D02*
X-57108500Y-4435000D01*
X-57213500Y-4330000D02*
X-57003500Y-4330000D01*
X-57003500Y-4330000D02*
G75*
G03*
X-57003500Y-4330000I-105000J0D01*
G01*
X-57108500Y-4695000D02*
X-57108500Y-4905000D01*
X-57213500Y-4800000D02*
X-57003500Y-4800000D01*
X-57003500Y-4800000D02*
G75*
G03*
X-57003500Y-4800000I-105000J0D01*
G01*
X-57108500Y-5165000D02*
X-57108500Y-5375000D01*
X-57213500Y-5270000D02*
X-57003500Y-5270000D01*
X-57003500Y-5270000D02*
G75*
G03*
X-57003500Y-5270000I-105000J0D01*
G01*
X-50586862Y-8263138D02*
X-50586862Y-8036862D01*
X-50813138Y-8036862D01*
X-50813138Y-8263138D01*
X-50586862Y-8263138D01*
X-50540000Y-8150000D02*
G75*
G03*
X-50540000Y-8150000I-160000J0D01*
G01*
X-59236862Y2286862D02*
X-59236862Y2513138D01*
X-59463138Y2513138D01*
X-59463138Y2286862D01*
X-59236862Y2286862D01*
X-59190000Y2400000D02*
G75*
G03*
X-59190000Y2400000I-160000J0D01*
G01*
D12*
X-59616071Y-10468214D02*
X-59616071Y-10168214D01*
X-59544643Y-10168214D01*
X-59501786Y-10182500D01*
X-59473214Y-10211072D01*
X-59458929Y-10239643D01*
X-59444643Y-10296786D01*
X-59444643Y-10339643D01*
X-59458929Y-10396786D01*
X-59473214Y-10425357D01*
X-59501786Y-10453929D01*
X-59544643Y-10468214D01*
X-59616071Y-10468214D01*
X-59316071Y-10468214D02*
X-59316071Y-10268214D01*
X-59316071Y-10325357D02*
X-59301786Y-10296786D01*
X-59287500Y-10282500D01*
X-59258929Y-10268214D01*
X-59230357Y-10268214D01*
X-59130357Y-10468214D02*
X-59130357Y-10268214D01*
X-59130357Y-10168214D02*
X-59144643Y-10182500D01*
X-59130357Y-10196786D01*
X-59116071Y-10182500D01*
X-59130357Y-10168214D01*
X-59130357Y-10196786D01*
X-58944643Y-10468214D02*
X-58973214Y-10453929D01*
X-58987500Y-10425357D01*
X-58987500Y-10168214D01*
X-58787500Y-10468214D02*
X-58816071Y-10453929D01*
X-58830357Y-10425357D01*
X-58830357Y-10168214D01*
X-58444643Y-10468214D02*
X-58444643Y-10168214D01*
X-58344643Y-10382500D01*
X-58244643Y-10168214D01*
X-58244643Y-10468214D01*
X-57973214Y-10468214D02*
X-57973214Y-10311072D01*
X-57987500Y-10282500D01*
X-58016071Y-10268214D01*
X-58073214Y-10268214D01*
X-58101786Y-10282500D01*
X-57973214Y-10453929D02*
X-58001786Y-10468214D01*
X-58073214Y-10468214D01*
X-58101786Y-10453929D01*
X-58116071Y-10425357D01*
X-58116071Y-10396786D01*
X-58101786Y-10368214D01*
X-58073214Y-10353929D01*
X-58001786Y-10353929D01*
X-57973214Y-10339643D01*
X-57830357Y-10268214D02*
X-57830357Y-10568214D01*
X-57830357Y-10282500D02*
X-57801786Y-10268214D01*
X-57744643Y-10268214D01*
X-57716071Y-10282500D01*
X-57701786Y-10296786D01*
X-57687500Y-10325357D01*
X-57687500Y-10411072D01*
X-57701786Y-10439643D01*
X-57716071Y-10453929D01*
X-57744643Y-10468214D01*
X-57801786Y-10468214D01*
X-57830357Y-10453929D01*
X-57558929Y-10439643D02*
X-57544643Y-10453929D01*
X-57558929Y-10468214D01*
X-57573214Y-10453929D01*
X-57558929Y-10439643D01*
X-57558929Y-10468214D01*
X-57558929Y-10282500D02*
X-57544643Y-10296786D01*
X-57558929Y-10311072D01*
X-57573214Y-10296786D01*
X-57558929Y-10282500D01*
X-57558929Y-10311072D01*
X-59957500Y-10935000D02*
X-59902500Y-10990000D01*
X-59902500Y-10935000D02*
X-59957500Y-10990000D01*
X-59558929Y-10798214D02*
X-59530357Y-10798214D01*
X-59501786Y-10812500D01*
X-59487500Y-10826786D01*
X-59473214Y-10855357D01*
X-59458929Y-10912500D01*
X-59458929Y-10983929D01*
X-59473214Y-11041072D01*
X-59487500Y-11069643D01*
X-59501786Y-11083929D01*
X-59530357Y-11098214D01*
X-59558929Y-11098214D01*
X-59587500Y-11083929D01*
X-59601786Y-11069643D01*
X-59616071Y-11041072D01*
X-59630357Y-10983929D01*
X-59630357Y-10912500D01*
X-59616071Y-10855357D01*
X-59601786Y-10826786D01*
X-59587500Y-10812500D01*
X-59558929Y-10798214D01*
X-59330357Y-11069643D02*
X-59316071Y-11083929D01*
X-59330357Y-11098214D01*
X-59344643Y-11083929D01*
X-59330357Y-11069643D01*
X-59330357Y-11098214D01*
X-59044643Y-10798214D02*
X-59187500Y-10798214D01*
X-59201786Y-10941072D01*
X-59187500Y-10926786D01*
X-59158929Y-10912500D01*
X-59087500Y-10912500D01*
X-59058929Y-10926786D01*
X-59044643Y-10941072D01*
X-59030357Y-10969643D01*
X-59030357Y-11041072D01*
X-59044643Y-11069643D01*
X-59058929Y-11083929D01*
X-59087500Y-11098214D01*
X-59158929Y-11098214D01*
X-59187500Y-11083929D01*
X-59201786Y-11069643D01*
X-58758929Y-10798214D02*
X-58901786Y-10798214D01*
X-58916071Y-10941072D01*
X-58901786Y-10926786D01*
X-58873214Y-10912500D01*
X-58801786Y-10912500D01*
X-58773214Y-10926786D01*
X-58758929Y-10941072D01*
X-58744643Y-10969643D01*
X-58744643Y-11041072D01*
X-58758929Y-11069643D01*
X-58773214Y-11083929D01*
X-58801786Y-11098214D01*
X-58873214Y-11098214D01*
X-58901786Y-11083929D01*
X-58916071Y-11069643D01*
X-58616071Y-11098214D02*
X-58616071Y-10898214D01*
X-58616071Y-10926786D02*
X-58601786Y-10912500D01*
X-58573214Y-10898214D01*
X-58530357Y-10898214D01*
X-58501786Y-10912500D01*
X-58487500Y-10941072D01*
X-58487500Y-11098214D01*
X-58487500Y-10941072D02*
X-58473214Y-10912500D01*
X-58444643Y-10898214D01*
X-58401786Y-10898214D01*
X-58373214Y-10912500D01*
X-58358929Y-10941072D01*
X-58358929Y-11098214D01*
X-58216071Y-11098214D02*
X-58216071Y-10898214D01*
X-58216071Y-10926786D02*
X-58201786Y-10912500D01*
X-58173214Y-10898214D01*
X-58130357Y-10898214D01*
X-58101786Y-10912500D01*
X-58087500Y-10941072D01*
X-58087500Y-11098214D01*
X-58087500Y-10941072D02*
X-58073214Y-10912500D01*
X-58044643Y-10898214D01*
X-58001786Y-10898214D01*
X-57973214Y-10912500D01*
X-57958929Y-10941072D01*
X-57958929Y-11098214D01*
X-57373214Y-10783929D02*
X-57630357Y-11169643D01*
X-56987500Y-10798214D02*
X-56958929Y-10798214D01*
X-56930357Y-10812500D01*
X-56916071Y-10826786D01*
X-56901786Y-10855357D01*
X-56887500Y-10912500D01*
X-56887500Y-10983929D01*
X-56901786Y-11041072D01*
X-56916071Y-11069643D01*
X-56930357Y-11083929D01*
X-56958929Y-11098214D01*
X-56987500Y-11098214D01*
X-57016071Y-11083929D01*
X-57030357Y-11069643D01*
X-57044643Y-11041072D01*
X-57058929Y-10983929D01*
X-57058929Y-10912500D01*
X-57044643Y-10855357D01*
X-57030357Y-10826786D01*
X-57016071Y-10812500D01*
X-56987500Y-10798214D01*
X-56758929Y-11069643D02*
X-56744643Y-11083929D01*
X-56758929Y-11098214D01*
X-56773214Y-11083929D01*
X-56758929Y-11069643D01*
X-56758929Y-11098214D01*
X-56558929Y-10798214D02*
X-56530357Y-10798214D01*
X-56501786Y-10812500D01*
X-56487500Y-10826786D01*
X-56473214Y-10855357D01*
X-56458929Y-10912500D01*
X-56458929Y-10983929D01*
X-56473214Y-11041072D01*
X-56487500Y-11069643D01*
X-56501786Y-11083929D01*
X-56530357Y-11098214D01*
X-56558929Y-11098214D01*
X-56587500Y-11083929D01*
X-56601786Y-11069643D01*
X-56616071Y-11041072D01*
X-56630357Y-10983929D01*
X-56630357Y-10912500D01*
X-56616071Y-10855357D01*
X-56601786Y-10826786D01*
X-56587500Y-10812500D01*
X-56558929Y-10798214D01*
X-56344643Y-10826786D02*
X-56330357Y-10812500D01*
X-56301786Y-10798214D01*
X-56230357Y-10798214D01*
X-56201786Y-10812500D01*
X-56187500Y-10826786D01*
X-56173214Y-10855357D01*
X-56173214Y-10883929D01*
X-56187500Y-10926786D01*
X-56358929Y-11098214D01*
X-56173214Y-11098214D01*
X-56058929Y-10826786D02*
X-56044643Y-10812500D01*
X-56016071Y-10798214D01*
X-55944643Y-10798214D01*
X-55916071Y-10812500D01*
X-55901786Y-10826786D01*
X-55887500Y-10855357D01*
X-55887500Y-10883929D01*
X-55901786Y-10926786D01*
X-56073214Y-11098214D01*
X-55887500Y-11098214D01*
X-55773214Y-10798214D02*
X-55773214Y-10855357D01*
X-55658929Y-10798214D02*
X-55658929Y-10855357D01*
X-55216071Y-11212500D02*
X-55230357Y-11198214D01*
X-55258929Y-11155357D01*
X-55273214Y-11126786D01*
X-55287500Y-11083929D01*
X-55301786Y-11012500D01*
X-55301786Y-10955357D01*
X-55287500Y-10883929D01*
X-55273214Y-10841072D01*
X-55258929Y-10812500D01*
X-55230357Y-10769643D01*
X-55216071Y-10755357D01*
X-55058929Y-10926786D02*
X-55087500Y-10912500D01*
X-55101786Y-10898214D01*
X-55116071Y-10869643D01*
X-55116071Y-10855357D01*
X-55101786Y-10826786D01*
X-55087500Y-10812500D01*
X-55058929Y-10798214D01*
X-55001786Y-10798214D01*
X-54973214Y-10812500D01*
X-54958929Y-10826786D01*
X-54944643Y-10855357D01*
X-54944643Y-10869643D01*
X-54958929Y-10898214D01*
X-54973214Y-10912500D01*
X-55001786Y-10926786D01*
X-55058929Y-10926786D01*
X-55087500Y-10941072D01*
X-55101786Y-10955357D01*
X-55116071Y-10983929D01*
X-55116071Y-11041072D01*
X-55101786Y-11069643D01*
X-55087500Y-11083929D01*
X-55058929Y-11098214D01*
X-55001786Y-11098214D01*
X-54973214Y-11083929D01*
X-54958929Y-11069643D01*
X-54944643Y-11041072D01*
X-54944643Y-10983929D01*
X-54958929Y-10955357D01*
X-54973214Y-10941072D01*
X-55001786Y-10926786D01*
X-54587500Y-11098214D02*
X-54587500Y-10798214D01*
X-54458929Y-11098214D02*
X-54458929Y-10941072D01*
X-54473214Y-10912500D01*
X-54501786Y-10898214D01*
X-54544643Y-10898214D01*
X-54573214Y-10912500D01*
X-54587500Y-10926786D01*
X-54273214Y-11098214D02*
X-54301786Y-11083929D01*
X-54316071Y-11069643D01*
X-54330357Y-11041072D01*
X-54330357Y-10955357D01*
X-54316071Y-10926786D01*
X-54301786Y-10912500D01*
X-54273214Y-10898214D01*
X-54230357Y-10898214D01*
X-54201786Y-10912500D01*
X-54187500Y-10926786D01*
X-54173214Y-10955357D01*
X-54173214Y-11041072D01*
X-54187500Y-11069643D01*
X-54201786Y-11083929D01*
X-54230357Y-11098214D01*
X-54273214Y-11098214D01*
X-54001786Y-11098214D02*
X-54030357Y-11083929D01*
X-54044643Y-11055357D01*
X-54044643Y-10798214D01*
X-53773214Y-11083929D02*
X-53801786Y-11098214D01*
X-53858929Y-11098214D01*
X-53887500Y-11083929D01*
X-53901786Y-11055357D01*
X-53901786Y-10941072D01*
X-53887500Y-10912500D01*
X-53858929Y-10898214D01*
X-53801786Y-10898214D01*
X-53773214Y-10912500D01*
X-53758929Y-10941072D01*
X-53758929Y-10969643D01*
X-53901786Y-10998214D01*
X-53644643Y-11083929D02*
X-53616071Y-11098214D01*
X-53558929Y-11098214D01*
X-53530357Y-11083929D01*
X-53516071Y-11055357D01*
X-53516071Y-11041072D01*
X-53530357Y-11012500D01*
X-53558929Y-10998214D01*
X-53601786Y-10998214D01*
X-53630357Y-10983929D01*
X-53644643Y-10955357D01*
X-53644643Y-10941072D01*
X-53630357Y-10912500D01*
X-53601786Y-10898214D01*
X-53558929Y-10898214D01*
X-53530357Y-10912500D01*
X-53416071Y-11212500D02*
X-53401786Y-11198214D01*
X-53373214Y-11155357D01*
X-53358929Y-11126786D01*
X-53344643Y-11083929D01*
X-53330357Y-11012500D01*
X-53330357Y-10955357D01*
X-53344643Y-10883929D01*
X-53358929Y-10841072D01*
X-53373214Y-10812500D01*
X-53401786Y-10769643D01*
X-53416071Y-10755357D01*
X-59902500Y-11358500D02*
G75*
G03*
X-59902500Y-11358500I-40000J0D01*
G01*
X-59558929Y-11194214D02*
X-59530357Y-11194214D01*
X-59501786Y-11208500D01*
X-59487500Y-11222786D01*
X-59473214Y-11251357D01*
X-59458929Y-11308500D01*
X-59458929Y-11379929D01*
X-59473214Y-11437071D01*
X-59487500Y-11465643D01*
X-59501786Y-11479929D01*
X-59530357Y-11494214D01*
X-59558929Y-11494214D01*
X-59587500Y-11479929D01*
X-59601786Y-11465643D01*
X-59616071Y-11437071D01*
X-59630357Y-11379929D01*
X-59630357Y-11308500D01*
X-59616071Y-11251357D01*
X-59601786Y-11222786D01*
X-59587500Y-11208500D01*
X-59558929Y-11194214D01*
X-59330357Y-11465643D02*
X-59316071Y-11479929D01*
X-59330357Y-11494214D01*
X-59344643Y-11479929D01*
X-59330357Y-11465643D01*
X-59330357Y-11494214D01*
X-59144643Y-11322786D02*
X-59173214Y-11308500D01*
X-59187500Y-11294214D01*
X-59201786Y-11265643D01*
X-59201786Y-11251357D01*
X-59187500Y-11222786D01*
X-59173214Y-11208500D01*
X-59144643Y-11194214D01*
X-59087500Y-11194214D01*
X-59058929Y-11208500D01*
X-59044643Y-11222786D01*
X-59030357Y-11251357D01*
X-59030357Y-11265643D01*
X-59044643Y-11294214D01*
X-59058929Y-11308500D01*
X-59087500Y-11322786D01*
X-59144643Y-11322786D01*
X-59173214Y-11337071D01*
X-59187500Y-11351357D01*
X-59201786Y-11379929D01*
X-59201786Y-11437071D01*
X-59187500Y-11465643D01*
X-59173214Y-11479929D01*
X-59144643Y-11494214D01*
X-59087500Y-11494214D01*
X-59058929Y-11479929D01*
X-59044643Y-11465643D01*
X-59030357Y-11437071D01*
X-59030357Y-11379929D01*
X-59044643Y-11351357D01*
X-59058929Y-11337071D01*
X-59087500Y-11322786D01*
X-58844643Y-11194214D02*
X-58816071Y-11194214D01*
X-58787500Y-11208500D01*
X-58773214Y-11222786D01*
X-58758929Y-11251357D01*
X-58744643Y-11308500D01*
X-58744643Y-11379929D01*
X-58758929Y-11437071D01*
X-58773214Y-11465643D01*
X-58787500Y-11479929D01*
X-58816071Y-11494214D01*
X-58844643Y-11494214D01*
X-58873214Y-11479929D01*
X-58887500Y-11465643D01*
X-58901786Y-11437071D01*
X-58916071Y-11379929D01*
X-58916071Y-11308500D01*
X-58901786Y-11251357D01*
X-58887500Y-11222786D01*
X-58873214Y-11208500D01*
X-58844643Y-11194214D01*
X-58616071Y-11494214D02*
X-58616071Y-11294214D01*
X-58616071Y-11322786D02*
X-58601786Y-11308500D01*
X-58573214Y-11294214D01*
X-58530357Y-11294214D01*
X-58501786Y-11308500D01*
X-58487500Y-11337071D01*
X-58487500Y-11494214D01*
X-58487500Y-11337071D02*
X-58473214Y-11308500D01*
X-58444643Y-11294214D01*
X-58401786Y-11294214D01*
X-58373214Y-11308500D01*
X-58358929Y-11337071D01*
X-58358929Y-11494214D01*
X-58216071Y-11494214D02*
X-58216071Y-11294214D01*
X-58216071Y-11322786D02*
X-58201786Y-11308500D01*
X-58173214Y-11294214D01*
X-58130357Y-11294214D01*
X-58101786Y-11308500D01*
X-58087500Y-11337071D01*
X-58087500Y-11494214D01*
X-58087500Y-11337071D02*
X-58073214Y-11308500D01*
X-58044643Y-11294214D01*
X-58001786Y-11294214D01*
X-57973214Y-11308500D01*
X-57958929Y-11337071D01*
X-57958929Y-11494214D01*
X-57373214Y-11179929D02*
X-57630357Y-11565643D01*
X-56987500Y-11194214D02*
X-56958929Y-11194214D01*
X-56930357Y-11208500D01*
X-56916071Y-11222786D01*
X-56901786Y-11251357D01*
X-56887500Y-11308500D01*
X-56887500Y-11379929D01*
X-56901786Y-11437071D01*
X-56916071Y-11465643D01*
X-56930357Y-11479929D01*
X-56958929Y-11494214D01*
X-56987500Y-11494214D01*
X-57016071Y-11479929D01*
X-57030357Y-11465643D01*
X-57044643Y-11437071D01*
X-57058929Y-11379929D01*
X-57058929Y-11308500D01*
X-57044643Y-11251357D01*
X-57030357Y-11222786D01*
X-57016071Y-11208500D01*
X-56987500Y-11194214D01*
X-56758929Y-11465643D02*
X-56744643Y-11479929D01*
X-56758929Y-11494214D01*
X-56773214Y-11479929D01*
X-56758929Y-11465643D01*
X-56758929Y-11494214D01*
X-56558929Y-11194214D02*
X-56530357Y-11194214D01*
X-56501786Y-11208500D01*
X-56487500Y-11222786D01*
X-56473214Y-11251357D01*
X-56458929Y-11308500D01*
X-56458929Y-11379929D01*
X-56473214Y-11437071D01*
X-56487500Y-11465643D01*
X-56501786Y-11479929D01*
X-56530357Y-11494214D01*
X-56558929Y-11494214D01*
X-56587500Y-11479929D01*
X-56601786Y-11465643D01*
X-56616071Y-11437071D01*
X-56630357Y-11379929D01*
X-56630357Y-11308500D01*
X-56616071Y-11251357D01*
X-56601786Y-11222786D01*
X-56587500Y-11208500D01*
X-56558929Y-11194214D01*
X-56358929Y-11194214D02*
X-56173214Y-11194214D01*
X-56273214Y-11308500D01*
X-56230357Y-11308500D01*
X-56201786Y-11322786D01*
X-56187500Y-11337071D01*
X-56173214Y-11365643D01*
X-56173214Y-11437071D01*
X-56187500Y-11465643D01*
X-56201786Y-11479929D01*
X-56230357Y-11494214D01*
X-56316071Y-11494214D01*
X-56344643Y-11479929D01*
X-56358929Y-11465643D01*
X-55887500Y-11494214D02*
X-56058929Y-11494214D01*
X-55973214Y-11494214D02*
X-55973214Y-11194214D01*
X-56001786Y-11237071D01*
X-56030357Y-11265643D01*
X-56058929Y-11279929D01*
X-55773214Y-11194214D02*
X-55773214Y-11251357D01*
X-55658929Y-11194214D02*
X-55658929Y-11251357D01*
X-55216071Y-11608500D02*
X-55230357Y-11594214D01*
X-55258929Y-11551357D01*
X-55273214Y-11522786D01*
X-55287500Y-11479929D01*
X-55301786Y-11408500D01*
X-55301786Y-11351357D01*
X-55287500Y-11279929D01*
X-55273214Y-11237071D01*
X-55258929Y-11208500D01*
X-55230357Y-11165643D01*
X-55216071Y-11151357D01*
X-54944643Y-11494214D02*
X-55116071Y-11494214D01*
X-55030357Y-11494214D02*
X-55030357Y-11194214D01*
X-55058929Y-11237071D01*
X-55087500Y-11265643D01*
X-55116071Y-11279929D01*
X-54658929Y-11494214D02*
X-54830357Y-11494214D01*
X-54744643Y-11494214D02*
X-54744643Y-11194214D01*
X-54773214Y-11237071D01*
X-54801786Y-11265643D01*
X-54830357Y-11279929D01*
X-54544643Y-11222786D02*
X-54530357Y-11208500D01*
X-54501786Y-11194214D01*
X-54430357Y-11194214D01*
X-54401786Y-11208500D01*
X-54387500Y-11222786D01*
X-54373214Y-11251357D01*
X-54373214Y-11279929D01*
X-54387500Y-11322786D01*
X-54558929Y-11494214D01*
X-54373214Y-11494214D01*
X-54016071Y-11494214D02*
X-54016071Y-11194214D01*
X-53887500Y-11494214D02*
X-53887500Y-11337071D01*
X-53901786Y-11308500D01*
X-53930357Y-11294214D01*
X-53973214Y-11294214D01*
X-54001786Y-11308500D01*
X-54016071Y-11322786D01*
X-53701786Y-11494214D02*
X-53730357Y-11479929D01*
X-53744643Y-11465643D01*
X-53758929Y-11437071D01*
X-53758929Y-11351357D01*
X-53744643Y-11322786D01*
X-53730357Y-11308500D01*
X-53701786Y-11294214D01*
X-53658929Y-11294214D01*
X-53630357Y-11308500D01*
X-53616071Y-11322786D01*
X-53601786Y-11351357D01*
X-53601786Y-11437071D01*
X-53616071Y-11465643D01*
X-53630357Y-11479929D01*
X-53658929Y-11494214D01*
X-53701786Y-11494214D01*
X-53430357Y-11494214D02*
X-53458929Y-11479929D01*
X-53473214Y-11451357D01*
X-53473214Y-11194214D01*
X-53201786Y-11479929D02*
X-53230357Y-11494214D01*
X-53287500Y-11494214D01*
X-53316071Y-11479929D01*
X-53330357Y-11451357D01*
X-53330357Y-11337071D01*
X-53316071Y-11308500D01*
X-53287500Y-11294214D01*
X-53230357Y-11294214D01*
X-53201786Y-11308500D01*
X-53187500Y-11337071D01*
X-53187500Y-11365643D01*
X-53330357Y-11394214D01*
X-53073214Y-11479929D02*
X-53044643Y-11494214D01*
X-52987500Y-11494214D01*
X-52958929Y-11479929D01*
X-52944643Y-11451357D01*
X-52944643Y-11437071D01*
X-52958929Y-11408500D01*
X-52987500Y-11394214D01*
X-53030357Y-11394214D01*
X-53058929Y-11379929D01*
X-53073214Y-11351357D01*
X-53073214Y-11337071D01*
X-53058929Y-11308500D01*
X-53030357Y-11294214D01*
X-52987500Y-11294214D01*
X-52958929Y-11308500D01*
X-52844643Y-11608500D02*
X-52830357Y-11594214D01*
X-52801786Y-11551357D01*
X-52787500Y-11522786D01*
X-52773214Y-11479929D01*
X-52758929Y-11408500D01*
X-52758929Y-11351357D01*
X-52773214Y-11279929D01*
X-52787500Y-11237071D01*
X-52801786Y-11208500D01*
X-52830357Y-11165643D01*
X-52844643Y-11151357D01*
X-59943140Y-11713860D02*
X-59943140Y-11795140D01*
X-59983780Y-11754500D02*
X-59902500Y-11754500D01*
X-59558929Y-11590214D02*
X-59530357Y-11590214D01*
X-59501786Y-11604500D01*
X-59487500Y-11618786D01*
X-59473214Y-11647357D01*
X-59458929Y-11704500D01*
X-59458929Y-11775929D01*
X-59473214Y-11833071D01*
X-59487500Y-11861643D01*
X-59501786Y-11875929D01*
X-59530357Y-11890214D01*
X-59558929Y-11890214D01*
X-59587500Y-11875929D01*
X-59601786Y-11861643D01*
X-59616071Y-11833071D01*
X-59630357Y-11775929D01*
X-59630357Y-11704500D01*
X-59616071Y-11647357D01*
X-59601786Y-11618786D01*
X-59587500Y-11604500D01*
X-59558929Y-11590214D01*
X-59330357Y-11861643D02*
X-59316071Y-11875929D01*
X-59330357Y-11890214D01*
X-59344643Y-11875929D01*
X-59330357Y-11861643D01*
X-59330357Y-11890214D01*
X-59144643Y-11718786D02*
X-59173214Y-11704500D01*
X-59187500Y-11690214D01*
X-59201786Y-11661643D01*
X-59201786Y-11647357D01*
X-59187500Y-11618786D01*
X-59173214Y-11604500D01*
X-59144643Y-11590214D01*
X-59087500Y-11590214D01*
X-59058929Y-11604500D01*
X-59044643Y-11618786D01*
X-59030357Y-11647357D01*
X-59030357Y-11661643D01*
X-59044643Y-11690214D01*
X-59058929Y-11704500D01*
X-59087500Y-11718786D01*
X-59144643Y-11718786D01*
X-59173214Y-11733071D01*
X-59187500Y-11747357D01*
X-59201786Y-11775929D01*
X-59201786Y-11833071D01*
X-59187500Y-11861643D01*
X-59173214Y-11875929D01*
X-59144643Y-11890214D01*
X-59087500Y-11890214D01*
X-59058929Y-11875929D01*
X-59044643Y-11861643D01*
X-59030357Y-11833071D01*
X-59030357Y-11775929D01*
X-59044643Y-11747357D01*
X-59058929Y-11733071D01*
X-59087500Y-11718786D01*
X-58744643Y-11890214D02*
X-58916071Y-11890214D01*
X-58830357Y-11890214D02*
X-58830357Y-11590214D01*
X-58858929Y-11633071D01*
X-58887500Y-11661643D01*
X-58916071Y-11675929D01*
X-58616071Y-11890214D02*
X-58616071Y-11690214D01*
X-58616071Y-11718786D02*
X-58601786Y-11704500D01*
X-58573214Y-11690214D01*
X-58530357Y-11690214D01*
X-58501786Y-11704500D01*
X-58487500Y-11733071D01*
X-58487500Y-11890214D01*
X-58487500Y-11733071D02*
X-58473214Y-11704500D01*
X-58444643Y-11690214D01*
X-58401786Y-11690214D01*
X-58373214Y-11704500D01*
X-58358929Y-11733071D01*
X-58358929Y-11890214D01*
X-58216071Y-11890214D02*
X-58216071Y-11690214D01*
X-58216071Y-11718786D02*
X-58201786Y-11704500D01*
X-58173214Y-11690214D01*
X-58130357Y-11690214D01*
X-58101786Y-11704500D01*
X-58087500Y-11733071D01*
X-58087500Y-11890214D01*
X-58087500Y-11733071D02*
X-58073214Y-11704500D01*
X-58044643Y-11690214D01*
X-58001786Y-11690214D01*
X-57973214Y-11704500D01*
X-57958929Y-11733071D01*
X-57958929Y-11890214D01*
X-57373214Y-11575929D02*
X-57630357Y-11961643D01*
X-56987500Y-11590214D02*
X-56958929Y-11590214D01*
X-56930357Y-11604500D01*
X-56916071Y-11618786D01*
X-56901786Y-11647357D01*
X-56887500Y-11704500D01*
X-56887500Y-11775929D01*
X-56901786Y-11833071D01*
X-56916071Y-11861643D01*
X-56930357Y-11875929D01*
X-56958929Y-11890214D01*
X-56987500Y-11890214D01*
X-57016071Y-11875929D01*
X-57030357Y-11861643D01*
X-57044643Y-11833071D01*
X-57058929Y-11775929D01*
X-57058929Y-11704500D01*
X-57044643Y-11647357D01*
X-57030357Y-11618786D01*
X-57016071Y-11604500D01*
X-56987500Y-11590214D01*
X-56758929Y-11861643D02*
X-56744643Y-11875929D01*
X-56758929Y-11890214D01*
X-56773214Y-11875929D01*
X-56758929Y-11861643D01*
X-56758929Y-11890214D01*
X-56558929Y-11590214D02*
X-56530357Y-11590214D01*
X-56501786Y-11604500D01*
X-56487500Y-11618786D01*
X-56473214Y-11647357D01*
X-56458929Y-11704500D01*
X-56458929Y-11775929D01*
X-56473214Y-11833071D01*
X-56487500Y-11861643D01*
X-56501786Y-11875929D01*
X-56530357Y-11890214D01*
X-56558929Y-11890214D01*
X-56587500Y-11875929D01*
X-56601786Y-11861643D01*
X-56616071Y-11833071D01*
X-56630357Y-11775929D01*
X-56630357Y-11704500D01*
X-56616071Y-11647357D01*
X-56601786Y-11618786D01*
X-56587500Y-11604500D01*
X-56558929Y-11590214D01*
X-56358929Y-11590214D02*
X-56173214Y-11590214D01*
X-56273214Y-11704500D01*
X-56230357Y-11704500D01*
X-56201786Y-11718786D01*
X-56187500Y-11733071D01*
X-56173214Y-11761643D01*
X-56173214Y-11833071D01*
X-56187500Y-11861643D01*
X-56201786Y-11875929D01*
X-56230357Y-11890214D01*
X-56316071Y-11890214D01*
X-56344643Y-11875929D01*
X-56358929Y-11861643D01*
X-56058929Y-11618786D02*
X-56044643Y-11604500D01*
X-56016071Y-11590214D01*
X-55944643Y-11590214D01*
X-55916071Y-11604500D01*
X-55901786Y-11618786D01*
X-55887500Y-11647357D01*
X-55887500Y-11675929D01*
X-55901786Y-11718786D01*
X-56073214Y-11890214D01*
X-55887500Y-11890214D01*
X-55773214Y-11590214D02*
X-55773214Y-11647357D01*
X-55658929Y-11590214D02*
X-55658929Y-11647357D01*
X-55216071Y-12004500D02*
X-55230357Y-11990214D01*
X-55258929Y-11947357D01*
X-55273214Y-11918786D01*
X-55287500Y-11875929D01*
X-55301786Y-11804500D01*
X-55301786Y-11747357D01*
X-55287500Y-11675929D01*
X-55273214Y-11633071D01*
X-55258929Y-11604500D01*
X-55230357Y-11561643D01*
X-55216071Y-11547357D01*
X-55116071Y-11618786D02*
X-55101786Y-11604500D01*
X-55073214Y-11590214D01*
X-55001786Y-11590214D01*
X-54973214Y-11604500D01*
X-54958929Y-11618786D01*
X-54944643Y-11647357D01*
X-54944643Y-11675929D01*
X-54958929Y-11718786D01*
X-55130357Y-11890214D01*
X-54944643Y-11890214D01*
X-54587500Y-11890214D02*
X-54587500Y-11590214D01*
X-54458929Y-11890214D02*
X-54458929Y-11733071D01*
X-54473214Y-11704500D01*
X-54501786Y-11690214D01*
X-54544643Y-11690214D01*
X-54573214Y-11704500D01*
X-54587500Y-11718786D01*
X-54273214Y-11890214D02*
X-54301786Y-11875929D01*
X-54316071Y-11861643D01*
X-54330357Y-11833071D01*
X-54330357Y-11747357D01*
X-54316071Y-11718786D01*
X-54301786Y-11704500D01*
X-54273214Y-11690214D01*
X-54230357Y-11690214D01*
X-54201786Y-11704500D01*
X-54187500Y-11718786D01*
X-54173214Y-11747357D01*
X-54173214Y-11833071D01*
X-54187500Y-11861643D01*
X-54201786Y-11875929D01*
X-54230357Y-11890214D01*
X-54273214Y-11890214D01*
X-54001786Y-11890214D02*
X-54030357Y-11875929D01*
X-54044643Y-11847357D01*
X-54044643Y-11590214D01*
X-53773214Y-11875929D02*
X-53801786Y-11890214D01*
X-53858929Y-11890214D01*
X-53887500Y-11875929D01*
X-53901786Y-11847357D01*
X-53901786Y-11733071D01*
X-53887500Y-11704500D01*
X-53858929Y-11690214D01*
X-53801786Y-11690214D01*
X-53773214Y-11704500D01*
X-53758929Y-11733071D01*
X-53758929Y-11761643D01*
X-53901786Y-11790214D01*
X-53644643Y-11875929D02*
X-53616071Y-11890214D01*
X-53558929Y-11890214D01*
X-53530357Y-11875929D01*
X-53516071Y-11847357D01*
X-53516071Y-11833071D01*
X-53530357Y-11804500D01*
X-53558929Y-11790214D01*
X-53601786Y-11790214D01*
X-53630357Y-11775929D01*
X-53644643Y-11747357D01*
X-53644643Y-11733071D01*
X-53630357Y-11704500D01*
X-53601786Y-11690214D01*
X-53558929Y-11690214D01*
X-53530357Y-11704500D01*
X-53416071Y-12004500D02*
X-53401786Y-11990214D01*
X-53373214Y-11947357D01*
X-53358929Y-11918786D01*
X-53344643Y-11875929D01*
X-53330357Y-11804500D01*
X-53330357Y-11747357D01*
X-53344643Y-11675929D01*
X-53358929Y-11633071D01*
X-53373214Y-11604500D01*
X-53401786Y-11561643D01*
X-53416071Y-11547357D01*
X-59915680Y-12182320D02*
X-59915680Y-12118680D01*
X-59979320Y-12118680D01*
X-59979320Y-12182320D01*
X-59915680Y-12182320D01*
X-59558929Y-11986214D02*
X-59530357Y-11986214D01*
X-59501786Y-12000500D01*
X-59487500Y-12014786D01*
X-59473214Y-12043357D01*
X-59458929Y-12100500D01*
X-59458929Y-12171929D01*
X-59473214Y-12229071D01*
X-59487500Y-12257643D01*
X-59501786Y-12271929D01*
X-59530357Y-12286214D01*
X-59558929Y-12286214D01*
X-59587500Y-12271929D01*
X-59601786Y-12257643D01*
X-59616071Y-12229071D01*
X-59630357Y-12171929D01*
X-59630357Y-12100500D01*
X-59616071Y-12043357D01*
X-59601786Y-12014786D01*
X-59587500Y-12000500D01*
X-59558929Y-11986214D01*
X-59330357Y-12257643D02*
X-59316071Y-12271929D01*
X-59330357Y-12286214D01*
X-59344643Y-12271929D01*
X-59330357Y-12257643D01*
X-59330357Y-12286214D01*
X-59173214Y-12286214D02*
X-59116071Y-12286214D01*
X-59087500Y-12271929D01*
X-59073214Y-12257643D01*
X-59044643Y-12214786D01*
X-59030357Y-12157643D01*
X-59030357Y-12043357D01*
X-59044643Y-12014786D01*
X-59058929Y-12000500D01*
X-59087500Y-11986214D01*
X-59144643Y-11986214D01*
X-59173214Y-12000500D01*
X-59187500Y-12014786D01*
X-59201786Y-12043357D01*
X-59201786Y-12114786D01*
X-59187500Y-12143357D01*
X-59173214Y-12157643D01*
X-59144643Y-12171929D01*
X-59087500Y-12171929D01*
X-59058929Y-12157643D01*
X-59044643Y-12143357D01*
X-59030357Y-12114786D01*
X-58844643Y-11986214D02*
X-58816071Y-11986214D01*
X-58787500Y-12000500D01*
X-58773214Y-12014786D01*
X-58758929Y-12043357D01*
X-58744643Y-12100500D01*
X-58744643Y-12171929D01*
X-58758929Y-12229071D01*
X-58773214Y-12257643D01*
X-58787500Y-12271929D01*
X-58816071Y-12286214D01*
X-58844643Y-12286214D01*
X-58873214Y-12271929D01*
X-58887500Y-12257643D01*
X-58901786Y-12229071D01*
X-58916071Y-12171929D01*
X-58916071Y-12100500D01*
X-58901786Y-12043357D01*
X-58887500Y-12014786D01*
X-58873214Y-12000500D01*
X-58844643Y-11986214D01*
X-58616071Y-12286214D02*
X-58616071Y-12086214D01*
X-58616071Y-12114786D02*
X-58601786Y-12100500D01*
X-58573214Y-12086214D01*
X-58530357Y-12086214D01*
X-58501786Y-12100500D01*
X-58487500Y-12129071D01*
X-58487500Y-12286214D01*
X-58487500Y-12129071D02*
X-58473214Y-12100500D01*
X-58444643Y-12086214D01*
X-58401786Y-12086214D01*
X-58373214Y-12100500D01*
X-58358929Y-12129071D01*
X-58358929Y-12286214D01*
X-58216071Y-12286214D02*
X-58216071Y-12086214D01*
X-58216071Y-12114786D02*
X-58201786Y-12100500D01*
X-58173214Y-12086214D01*
X-58130357Y-12086214D01*
X-58101786Y-12100500D01*
X-58087500Y-12129071D01*
X-58087500Y-12286214D01*
X-58087500Y-12129071D02*
X-58073214Y-12100500D01*
X-58044643Y-12086214D01*
X-58001786Y-12086214D01*
X-57973214Y-12100500D01*
X-57958929Y-12129071D01*
X-57958929Y-12286214D01*
X-57373214Y-11971929D02*
X-57630357Y-12357643D01*
X-56987500Y-11986214D02*
X-56958929Y-11986214D01*
X-56930357Y-12000500D01*
X-56916071Y-12014786D01*
X-56901786Y-12043357D01*
X-56887500Y-12100500D01*
X-56887500Y-12171929D01*
X-56901786Y-12229071D01*
X-56916071Y-12257643D01*
X-56930357Y-12271929D01*
X-56958929Y-12286214D01*
X-56987500Y-12286214D01*
X-57016071Y-12271929D01*
X-57030357Y-12257643D01*
X-57044643Y-12229071D01*
X-57058929Y-12171929D01*
X-57058929Y-12100500D01*
X-57044643Y-12043357D01*
X-57030357Y-12014786D01*
X-57016071Y-12000500D01*
X-56987500Y-11986214D01*
X-56758929Y-12257643D02*
X-56744643Y-12271929D01*
X-56758929Y-12286214D01*
X-56773214Y-12271929D01*
X-56758929Y-12257643D01*
X-56758929Y-12286214D01*
X-56558929Y-11986214D02*
X-56530357Y-11986214D01*
X-56501786Y-12000500D01*
X-56487500Y-12014786D01*
X-56473214Y-12043357D01*
X-56458929Y-12100500D01*
X-56458929Y-12171929D01*
X-56473214Y-12229071D01*
X-56487500Y-12257643D01*
X-56501786Y-12271929D01*
X-56530357Y-12286214D01*
X-56558929Y-12286214D01*
X-56587500Y-12271929D01*
X-56601786Y-12257643D01*
X-56616071Y-12229071D01*
X-56630357Y-12171929D01*
X-56630357Y-12100500D01*
X-56616071Y-12043357D01*
X-56601786Y-12014786D01*
X-56587500Y-12000500D01*
X-56558929Y-11986214D01*
X-56358929Y-11986214D02*
X-56173214Y-11986214D01*
X-56273214Y-12100500D01*
X-56230357Y-12100500D01*
X-56201786Y-12114786D01*
X-56187500Y-12129071D01*
X-56173214Y-12157643D01*
X-56173214Y-12229071D01*
X-56187500Y-12257643D01*
X-56201786Y-12271929D01*
X-56230357Y-12286214D01*
X-56316071Y-12286214D01*
X-56344643Y-12271929D01*
X-56358929Y-12257643D01*
X-55901786Y-11986214D02*
X-56044643Y-11986214D01*
X-56058929Y-12129071D01*
X-56044643Y-12114786D01*
X-56016071Y-12100500D01*
X-55944643Y-12100500D01*
X-55916071Y-12114786D01*
X-55901786Y-12129071D01*
X-55887500Y-12157643D01*
X-55887500Y-12229071D01*
X-55901786Y-12257643D01*
X-55916071Y-12271929D01*
X-55944643Y-12286214D01*
X-56016071Y-12286214D01*
X-56044643Y-12271929D01*
X-56058929Y-12257643D01*
X-55773214Y-11986214D02*
X-55773214Y-12043357D01*
X-55658929Y-11986214D02*
X-55658929Y-12043357D01*
X-55216071Y-12400500D02*
X-55230357Y-12386214D01*
X-55258929Y-12343357D01*
X-55273214Y-12314786D01*
X-55287500Y-12271929D01*
X-55301786Y-12200500D01*
X-55301786Y-12143357D01*
X-55287500Y-12071929D01*
X-55273214Y-12029071D01*
X-55258929Y-12000500D01*
X-55230357Y-11957643D01*
X-55216071Y-11943357D01*
X-55116071Y-12014786D02*
X-55101786Y-12000500D01*
X-55073214Y-11986214D01*
X-55001786Y-11986214D01*
X-54973214Y-12000500D01*
X-54958929Y-12014786D01*
X-54944643Y-12043357D01*
X-54944643Y-12071929D01*
X-54958929Y-12114786D01*
X-55130357Y-12286214D01*
X-54944643Y-12286214D01*
X-54587500Y-12286214D02*
X-54587500Y-11986214D01*
X-54458929Y-12286214D02*
X-54458929Y-12129071D01*
X-54473214Y-12100500D01*
X-54501786Y-12086214D01*
X-54544643Y-12086214D01*
X-54573214Y-12100500D01*
X-54587500Y-12114786D01*
X-54273214Y-12286214D02*
X-54301786Y-12271929D01*
X-54316071Y-12257643D01*
X-54330357Y-12229071D01*
X-54330357Y-12143357D01*
X-54316071Y-12114786D01*
X-54301786Y-12100500D01*
X-54273214Y-12086214D01*
X-54230357Y-12086214D01*
X-54201786Y-12100500D01*
X-54187500Y-12114786D01*
X-54173214Y-12143357D01*
X-54173214Y-12229071D01*
X-54187500Y-12257643D01*
X-54201786Y-12271929D01*
X-54230357Y-12286214D01*
X-54273214Y-12286214D01*
X-54001786Y-12286214D02*
X-54030357Y-12271929D01*
X-54044643Y-12243357D01*
X-54044643Y-11986214D01*
X-53773214Y-12271929D02*
X-53801786Y-12286214D01*
X-53858929Y-12286214D01*
X-53887500Y-12271929D01*
X-53901786Y-12243357D01*
X-53901786Y-12129071D01*
X-53887500Y-12100500D01*
X-53858929Y-12086214D01*
X-53801786Y-12086214D01*
X-53773214Y-12100500D01*
X-53758929Y-12129071D01*
X-53758929Y-12157643D01*
X-53901786Y-12186214D01*
X-53644643Y-12271929D02*
X-53616071Y-12286214D01*
X-53558929Y-12286214D01*
X-53530357Y-12271929D01*
X-53516071Y-12243357D01*
X-53516071Y-12229071D01*
X-53530357Y-12200500D01*
X-53558929Y-12186214D01*
X-53601786Y-12186214D01*
X-53630357Y-12171929D01*
X-53644643Y-12143357D01*
X-53644643Y-12129071D01*
X-53630357Y-12100500D01*
X-53601786Y-12086214D01*
X-53558929Y-12086214D01*
X-53530357Y-12100500D01*
X-53416071Y-12400500D02*
X-53401786Y-12386214D01*
X-53373214Y-12343357D01*
X-53358929Y-12314786D01*
X-53344643Y-12271929D01*
X-53330357Y-12200500D01*
X-53330357Y-12143357D01*
X-53344643Y-12071929D01*
X-53358929Y-12029071D01*
X-53373214Y-12000500D01*
X-53401786Y-11957643D01*
X-53416071Y-11943357D01*
X-59952500Y-12596500D02*
X-59902500Y-12546500D01*
X-59952500Y-12496500D01*
X-60002500Y-12546500D01*
X-59952500Y-12596500D01*
X-59458929Y-12682214D02*
X-59630357Y-12682214D01*
X-59544643Y-12682214D02*
X-59544643Y-12382214D01*
X-59573214Y-12425071D01*
X-59601786Y-12453643D01*
X-59630357Y-12467929D01*
X-59330357Y-12653643D02*
X-59316071Y-12667929D01*
X-59330357Y-12682214D01*
X-59344643Y-12667929D01*
X-59330357Y-12653643D01*
X-59330357Y-12682214D01*
X-59130357Y-12382214D02*
X-59101786Y-12382214D01*
X-59073214Y-12396500D01*
X-59058929Y-12410786D01*
X-59044643Y-12439357D01*
X-59030357Y-12496500D01*
X-59030357Y-12567929D01*
X-59044643Y-12625071D01*
X-59058929Y-12653643D01*
X-59073214Y-12667929D01*
X-59101786Y-12682214D01*
X-59130357Y-12682214D01*
X-59158929Y-12667929D01*
X-59173214Y-12653643D01*
X-59187500Y-12625071D01*
X-59201786Y-12567929D01*
X-59201786Y-12496500D01*
X-59187500Y-12439357D01*
X-59173214Y-12410786D01*
X-59158929Y-12396500D01*
X-59130357Y-12382214D01*
X-58844643Y-12382214D02*
X-58816071Y-12382214D01*
X-58787500Y-12396500D01*
X-58773214Y-12410786D01*
X-58758929Y-12439357D01*
X-58744643Y-12496500D01*
X-58744643Y-12567929D01*
X-58758929Y-12625071D01*
X-58773214Y-12653643D01*
X-58787500Y-12667929D01*
X-58816071Y-12682214D01*
X-58844643Y-12682214D01*
X-58873214Y-12667929D01*
X-58887500Y-12653643D01*
X-58901786Y-12625071D01*
X-58916071Y-12567929D01*
X-58916071Y-12496500D01*
X-58901786Y-12439357D01*
X-58887500Y-12410786D01*
X-58873214Y-12396500D01*
X-58844643Y-12382214D01*
X-58616071Y-12682214D02*
X-58616071Y-12482214D01*
X-58616071Y-12510786D02*
X-58601786Y-12496500D01*
X-58573214Y-12482214D01*
X-58530357Y-12482214D01*
X-58501786Y-12496500D01*
X-58487500Y-12525071D01*
X-58487500Y-12682214D01*
X-58487500Y-12525071D02*
X-58473214Y-12496500D01*
X-58444643Y-12482214D01*
X-58401786Y-12482214D01*
X-58373214Y-12496500D01*
X-58358929Y-12525071D01*
X-58358929Y-12682214D01*
X-58216071Y-12682214D02*
X-58216071Y-12482214D01*
X-58216071Y-12510786D02*
X-58201786Y-12496500D01*
X-58173214Y-12482214D01*
X-58130357Y-12482214D01*
X-58101786Y-12496500D01*
X-58087500Y-12525071D01*
X-58087500Y-12682214D01*
X-58087500Y-12525071D02*
X-58073214Y-12496500D01*
X-58044643Y-12482214D01*
X-58001786Y-12482214D01*
X-57973214Y-12496500D01*
X-57958929Y-12525071D01*
X-57958929Y-12682214D01*
X-57373214Y-12367929D02*
X-57630357Y-12753643D01*
X-56987500Y-12382214D02*
X-56958929Y-12382214D01*
X-56930357Y-12396500D01*
X-56916071Y-12410786D01*
X-56901786Y-12439357D01*
X-56887500Y-12496500D01*
X-56887500Y-12567929D01*
X-56901786Y-12625071D01*
X-56916071Y-12653643D01*
X-56930357Y-12667929D01*
X-56958929Y-12682214D01*
X-56987500Y-12682214D01*
X-57016071Y-12667929D01*
X-57030357Y-12653643D01*
X-57044643Y-12625071D01*
X-57058929Y-12567929D01*
X-57058929Y-12496500D01*
X-57044643Y-12439357D01*
X-57030357Y-12410786D01*
X-57016071Y-12396500D01*
X-56987500Y-12382214D01*
X-56758929Y-12653643D02*
X-56744643Y-12667929D01*
X-56758929Y-12682214D01*
X-56773214Y-12667929D01*
X-56758929Y-12653643D01*
X-56758929Y-12682214D01*
X-56558929Y-12382214D02*
X-56530357Y-12382214D01*
X-56501786Y-12396500D01*
X-56487500Y-12410786D01*
X-56473214Y-12439357D01*
X-56458929Y-12496500D01*
X-56458929Y-12567929D01*
X-56473214Y-12625071D01*
X-56487500Y-12653643D01*
X-56501786Y-12667929D01*
X-56530357Y-12682214D01*
X-56558929Y-12682214D01*
X-56587500Y-12667929D01*
X-56601786Y-12653643D01*
X-56616071Y-12625071D01*
X-56630357Y-12567929D01*
X-56630357Y-12496500D01*
X-56616071Y-12439357D01*
X-56601786Y-12410786D01*
X-56587500Y-12396500D01*
X-56558929Y-12382214D01*
X-56358929Y-12382214D02*
X-56173214Y-12382214D01*
X-56273214Y-12496500D01*
X-56230357Y-12496500D01*
X-56201786Y-12510786D01*
X-56187500Y-12525071D01*
X-56173214Y-12553643D01*
X-56173214Y-12625071D01*
X-56187500Y-12653643D01*
X-56201786Y-12667929D01*
X-56230357Y-12682214D01*
X-56316071Y-12682214D01*
X-56344643Y-12667929D01*
X-56358929Y-12653643D01*
X-56030357Y-12682214D02*
X-55973214Y-12682214D01*
X-55944643Y-12667929D01*
X-55930357Y-12653643D01*
X-55901786Y-12610786D01*
X-55887500Y-12553643D01*
X-55887500Y-12439357D01*
X-55901786Y-12410786D01*
X-55916071Y-12396500D01*
X-55944643Y-12382214D01*
X-56001786Y-12382214D01*
X-56030357Y-12396500D01*
X-56044643Y-12410786D01*
X-56058929Y-12439357D01*
X-56058929Y-12510786D01*
X-56044643Y-12539357D01*
X-56030357Y-12553643D01*
X-56001786Y-12567929D01*
X-55944643Y-12567929D01*
X-55916071Y-12553643D01*
X-55901786Y-12539357D01*
X-55887500Y-12510786D01*
X-55773214Y-12382214D02*
X-55773214Y-12439357D01*
X-55658929Y-12382214D02*
X-55658929Y-12439357D01*
X-55216071Y-12796500D02*
X-55230357Y-12782214D01*
X-55258929Y-12739357D01*
X-55273214Y-12710786D01*
X-55287500Y-12667929D01*
X-55301786Y-12596500D01*
X-55301786Y-12539357D01*
X-55287500Y-12467929D01*
X-55273214Y-12425071D01*
X-55258929Y-12396500D01*
X-55230357Y-12353643D01*
X-55216071Y-12339357D01*
X-54944643Y-12682214D02*
X-55116071Y-12682214D01*
X-55030357Y-12682214D02*
X-55030357Y-12382214D01*
X-55058929Y-12425071D01*
X-55087500Y-12453643D01*
X-55116071Y-12467929D01*
X-54830357Y-12410786D02*
X-54816071Y-12396500D01*
X-54787500Y-12382214D01*
X-54716071Y-12382214D01*
X-54687500Y-12396500D01*
X-54673214Y-12410786D01*
X-54658929Y-12439357D01*
X-54658929Y-12467929D01*
X-54673214Y-12510786D01*
X-54844643Y-12682214D01*
X-54658929Y-12682214D01*
X-54301786Y-12682214D02*
X-54301786Y-12382214D01*
X-54173214Y-12682214D02*
X-54173214Y-12525071D01*
X-54187500Y-12496500D01*
X-54216071Y-12482214D01*
X-54258929Y-12482214D01*
X-54287500Y-12496500D01*
X-54301786Y-12510786D01*
X-53987500Y-12682214D02*
X-54016071Y-12667929D01*
X-54030357Y-12653643D01*
X-54044643Y-12625071D01*
X-54044643Y-12539357D01*
X-54030357Y-12510786D01*
X-54016071Y-12496500D01*
X-53987500Y-12482214D01*
X-53944643Y-12482214D01*
X-53916071Y-12496500D01*
X-53901786Y-12510786D01*
X-53887500Y-12539357D01*
X-53887500Y-12625071D01*
X-53901786Y-12653643D01*
X-53916071Y-12667929D01*
X-53944643Y-12682214D01*
X-53987500Y-12682214D01*
X-53716071Y-12682214D02*
X-53744643Y-12667929D01*
X-53758929Y-12639357D01*
X-53758929Y-12382214D01*
X-53487500Y-12667929D02*
X-53516071Y-12682214D01*
X-53573214Y-12682214D01*
X-53601786Y-12667929D01*
X-53616071Y-12639357D01*
X-53616071Y-12525071D01*
X-53601786Y-12496500D01*
X-53573214Y-12482214D01*
X-53516071Y-12482214D01*
X-53487500Y-12496500D01*
X-53473214Y-12525071D01*
X-53473214Y-12553643D01*
X-53616071Y-12582214D01*
X-53358929Y-12667929D02*
X-53330357Y-12682214D01*
X-53273214Y-12682214D01*
X-53244643Y-12667929D01*
X-53230357Y-12639357D01*
X-53230357Y-12625071D01*
X-53244643Y-12596500D01*
X-53273214Y-12582214D01*
X-53316071Y-12582214D01*
X-53344643Y-12567929D01*
X-53358929Y-12539357D01*
X-53358929Y-12525071D01*
X-53344643Y-12496500D01*
X-53316071Y-12482214D01*
X-53273214Y-12482214D01*
X-53244643Y-12496500D01*
X-53130357Y-12796500D02*
X-53116071Y-12782214D01*
X-53087500Y-12739357D01*
X-53073214Y-12710786D01*
X-53058929Y-12667929D01*
X-53044643Y-12596500D01*
X-53044643Y-12539357D01*
X-53058929Y-12467929D01*
X-53073214Y-12425071D01*
X-53087500Y-12396500D01*
X-53116071Y-12353643D01*
X-53130357Y-12339357D01*
X-60004100Y-12891700D02*
X-59902500Y-12993300D01*
X-59902500Y-12891700D02*
X-60004100Y-12993300D01*
X-59902500Y-12942500D02*
G75*
G03*
X-59902500Y-12942500I-50800J0D01*
G01*
X-59458929Y-13078214D02*
X-59630357Y-13078214D01*
X-59544643Y-13078214D02*
X-59544643Y-12778214D01*
X-59573214Y-12821071D01*
X-59601786Y-12849643D01*
X-59630357Y-12863929D01*
X-59330357Y-13049643D02*
X-59316071Y-13063929D01*
X-59330357Y-13078214D01*
X-59344643Y-13063929D01*
X-59330357Y-13049643D01*
X-59330357Y-13078214D01*
X-59130357Y-12778214D02*
X-59101786Y-12778214D01*
X-59073214Y-12792500D01*
X-59058929Y-12806786D01*
X-59044643Y-12835357D01*
X-59030357Y-12892500D01*
X-59030357Y-12963929D01*
X-59044643Y-13021071D01*
X-59058929Y-13049643D01*
X-59073214Y-13063929D01*
X-59101786Y-13078214D01*
X-59130357Y-13078214D01*
X-59158929Y-13063929D01*
X-59173214Y-13049643D01*
X-59187500Y-13021071D01*
X-59201786Y-12963929D01*
X-59201786Y-12892500D01*
X-59187500Y-12835357D01*
X-59173214Y-12806786D01*
X-59158929Y-12792500D01*
X-59130357Y-12778214D01*
X-58916071Y-12806786D02*
X-58901786Y-12792500D01*
X-58873214Y-12778214D01*
X-58801786Y-12778214D01*
X-58773214Y-12792500D01*
X-58758929Y-12806786D01*
X-58744643Y-12835357D01*
X-58744643Y-12863929D01*
X-58758929Y-12906786D01*
X-58930357Y-13078214D01*
X-58744643Y-13078214D01*
X-58616071Y-13078214D02*
X-58616071Y-12878214D01*
X-58616071Y-12906786D02*
X-58601786Y-12892500D01*
X-58573214Y-12878214D01*
X-58530357Y-12878214D01*
X-58501786Y-12892500D01*
X-58487500Y-12921071D01*
X-58487500Y-13078214D01*
X-58487500Y-12921071D02*
X-58473214Y-12892500D01*
X-58444643Y-12878214D01*
X-58401786Y-12878214D01*
X-58373214Y-12892500D01*
X-58358929Y-12921071D01*
X-58358929Y-13078214D01*
X-58216071Y-13078214D02*
X-58216071Y-12878214D01*
X-58216071Y-12906786D02*
X-58201786Y-12892500D01*
X-58173214Y-12878214D01*
X-58130357Y-12878214D01*
X-58101786Y-12892500D01*
X-58087500Y-12921071D01*
X-58087500Y-13078214D01*
X-58087500Y-12921071D02*
X-58073214Y-12892500D01*
X-58044643Y-12878214D01*
X-58001786Y-12878214D01*
X-57973214Y-12892500D01*
X-57958929Y-12921071D01*
X-57958929Y-13078214D01*
X-57373214Y-12763929D02*
X-57630357Y-13149643D01*
X-56987500Y-12778214D02*
X-56958929Y-12778214D01*
X-56930357Y-12792500D01*
X-56916071Y-12806786D01*
X-56901786Y-12835357D01*
X-56887500Y-12892500D01*
X-56887500Y-12963929D01*
X-56901786Y-13021071D01*
X-56916071Y-13049643D01*
X-56930357Y-13063929D01*
X-56958929Y-13078214D01*
X-56987500Y-13078214D01*
X-57016071Y-13063929D01*
X-57030357Y-13049643D01*
X-57044643Y-13021071D01*
X-57058929Y-12963929D01*
X-57058929Y-12892500D01*
X-57044643Y-12835357D01*
X-57030357Y-12806786D01*
X-57016071Y-12792500D01*
X-56987500Y-12778214D01*
X-56758929Y-13049643D02*
X-56744643Y-13063929D01*
X-56758929Y-13078214D01*
X-56773214Y-13063929D01*
X-56758929Y-13049643D01*
X-56758929Y-13078214D01*
X-56558929Y-12778214D02*
X-56530357Y-12778214D01*
X-56501786Y-12792500D01*
X-56487500Y-12806786D01*
X-56473214Y-12835357D01*
X-56458929Y-12892500D01*
X-56458929Y-12963929D01*
X-56473214Y-13021071D01*
X-56487500Y-13049643D01*
X-56501786Y-13063929D01*
X-56530357Y-13078214D01*
X-56558929Y-13078214D01*
X-56587500Y-13063929D01*
X-56601786Y-13049643D01*
X-56616071Y-13021071D01*
X-56630357Y-12963929D01*
X-56630357Y-12892500D01*
X-56616071Y-12835357D01*
X-56601786Y-12806786D01*
X-56587500Y-12792500D01*
X-56558929Y-12778214D01*
X-56201786Y-12878214D02*
X-56201786Y-13078214D01*
X-56273214Y-12763929D02*
X-56344643Y-12978214D01*
X-56158929Y-12978214D01*
X-55987500Y-12778214D02*
X-55958929Y-12778214D01*
X-55930357Y-12792500D01*
X-55916071Y-12806786D01*
X-55901786Y-12835357D01*
X-55887500Y-12892500D01*
X-55887500Y-12963929D01*
X-55901786Y-13021071D01*
X-55916071Y-13049643D01*
X-55930357Y-13063929D01*
X-55958929Y-13078214D01*
X-55987500Y-13078214D01*
X-56016071Y-13063929D01*
X-56030357Y-13049643D01*
X-56044643Y-13021071D01*
X-56058929Y-12963929D01*
X-56058929Y-12892500D01*
X-56044643Y-12835357D01*
X-56030357Y-12806786D01*
X-56016071Y-12792500D01*
X-55987500Y-12778214D01*
X-55773214Y-12778214D02*
X-55773214Y-12835357D01*
X-55658929Y-12778214D02*
X-55658929Y-12835357D01*
X-55216071Y-13192500D02*
X-55230357Y-13178214D01*
X-55258929Y-13135357D01*
X-55273214Y-13106786D01*
X-55287500Y-13063929D01*
X-55301786Y-12992500D01*
X-55301786Y-12935357D01*
X-55287500Y-12863929D01*
X-55273214Y-12821071D01*
X-55258929Y-12792500D01*
X-55230357Y-12749643D01*
X-55216071Y-12735357D01*
X-54944643Y-13078214D02*
X-55116071Y-13078214D01*
X-55030357Y-13078214D02*
X-55030357Y-12778214D01*
X-55058929Y-12821071D01*
X-55087500Y-12849643D01*
X-55116071Y-12863929D01*
X-54758929Y-12778214D02*
X-54730357Y-12778214D01*
X-54701786Y-12792500D01*
X-54687500Y-12806786D01*
X-54673214Y-12835357D01*
X-54658929Y-12892500D01*
X-54658929Y-12963929D01*
X-54673214Y-13021071D01*
X-54687500Y-13049643D01*
X-54701786Y-13063929D01*
X-54730357Y-13078214D01*
X-54758929Y-13078214D01*
X-54787500Y-13063929D01*
X-54801786Y-13049643D01*
X-54816071Y-13021071D01*
X-54830357Y-12963929D01*
X-54830357Y-12892500D01*
X-54816071Y-12835357D01*
X-54801786Y-12806786D01*
X-54787500Y-12792500D01*
X-54758929Y-12778214D01*
X-54301786Y-13078214D02*
X-54301786Y-12778214D01*
X-54173214Y-13078214D02*
X-54173214Y-12921071D01*
X-54187500Y-12892500D01*
X-54216071Y-12878214D01*
X-54258929Y-12878214D01*
X-54287500Y-12892500D01*
X-54301786Y-12906786D01*
X-53987500Y-13078214D02*
X-54016071Y-13063929D01*
X-54030357Y-13049643D01*
X-54044643Y-13021071D01*
X-54044643Y-12935357D01*
X-54030357Y-12906786D01*
X-54016071Y-12892500D01*
X-53987500Y-12878214D01*
X-53944643Y-12878214D01*
X-53916071Y-12892500D01*
X-53901786Y-12906786D01*
X-53887500Y-12935357D01*
X-53887500Y-13021071D01*
X-53901786Y-13049643D01*
X-53916071Y-13063929D01*
X-53944643Y-13078214D01*
X-53987500Y-13078214D01*
X-53716071Y-13078214D02*
X-53744643Y-13063929D01*
X-53758929Y-13035357D01*
X-53758929Y-12778214D01*
X-53487500Y-13063929D02*
X-53516071Y-13078214D01*
X-53573214Y-13078214D01*
X-53601786Y-13063929D01*
X-53616071Y-13035357D01*
X-53616071Y-12921071D01*
X-53601786Y-12892500D01*
X-53573214Y-12878214D01*
X-53516071Y-12878214D01*
X-53487500Y-12892500D01*
X-53473214Y-12921071D01*
X-53473214Y-12949643D01*
X-53616071Y-12978214D01*
X-53358929Y-13063929D02*
X-53330357Y-13078214D01*
X-53273214Y-13078214D01*
X-53244643Y-13063929D01*
X-53230357Y-13035357D01*
X-53230357Y-13021071D01*
X-53244643Y-12992500D01*
X-53273214Y-12978214D01*
X-53316071Y-12978214D01*
X-53344643Y-12963929D01*
X-53358929Y-12935357D01*
X-53358929Y-12921071D01*
X-53344643Y-12892500D01*
X-53316071Y-12878214D01*
X-53273214Y-12878214D01*
X-53244643Y-12892500D01*
X-53130357Y-13192500D02*
X-53116071Y-13178214D01*
X-53087500Y-13135357D01*
X-53073214Y-13106786D01*
X-53058929Y-13063929D01*
X-53044643Y-12992500D01*
X-53044643Y-12935357D01*
X-53058929Y-12863929D01*
X-53073214Y-12821071D01*
X-53087500Y-12792500D01*
X-53116071Y-12749643D01*
X-53130357Y-12735357D01*
X-60022500Y-13278500D02*
X-59902500Y-13398500D01*
X-59902500Y-13278500D02*
X-60022500Y-13398500D01*
X-59962500Y-13278500D02*
X-59962500Y-13398500D01*
X-60022500Y-13338500D02*
X-59902500Y-13338500D01*
X-59458929Y-13474214D02*
X-59630357Y-13474214D01*
X-59544643Y-13474214D02*
X-59544643Y-13174214D01*
X-59573214Y-13217071D01*
X-59601786Y-13245643D01*
X-59630357Y-13259929D01*
X-59330357Y-13445643D02*
X-59316071Y-13459929D01*
X-59330357Y-13474214D01*
X-59344643Y-13459929D01*
X-59330357Y-13445643D01*
X-59330357Y-13474214D01*
X-59201786Y-13202786D02*
X-59187500Y-13188500D01*
X-59158929Y-13174214D01*
X-59087500Y-13174214D01*
X-59058929Y-13188500D01*
X-59044643Y-13202786D01*
X-59030357Y-13231357D01*
X-59030357Y-13259929D01*
X-59044643Y-13302786D01*
X-59216071Y-13474214D01*
X-59030357Y-13474214D01*
X-58844643Y-13174214D02*
X-58816071Y-13174214D01*
X-58787500Y-13188500D01*
X-58773214Y-13202786D01*
X-58758929Y-13231357D01*
X-58744643Y-13288500D01*
X-58744643Y-13359929D01*
X-58758929Y-13417071D01*
X-58773214Y-13445643D01*
X-58787500Y-13459929D01*
X-58816071Y-13474214D01*
X-58844643Y-13474214D01*
X-58873214Y-13459929D01*
X-58887500Y-13445643D01*
X-58901786Y-13417071D01*
X-58916071Y-13359929D01*
X-58916071Y-13288500D01*
X-58901786Y-13231357D01*
X-58887500Y-13202786D01*
X-58873214Y-13188500D01*
X-58844643Y-13174214D01*
X-58616071Y-13474214D02*
X-58616071Y-13274214D01*
X-58616071Y-13302786D02*
X-58601786Y-13288500D01*
X-58573214Y-13274214D01*
X-58530357Y-13274214D01*
X-58501786Y-13288500D01*
X-58487500Y-13317071D01*
X-58487500Y-13474214D01*
X-58487500Y-13317071D02*
X-58473214Y-13288500D01*
X-58444643Y-13274214D01*
X-58401786Y-13274214D01*
X-58373214Y-13288500D01*
X-58358929Y-13317071D01*
X-58358929Y-13474214D01*
X-58216071Y-13474214D02*
X-58216071Y-13274214D01*
X-58216071Y-13302786D02*
X-58201786Y-13288500D01*
X-58173214Y-13274214D01*
X-58130357Y-13274214D01*
X-58101786Y-13288500D01*
X-58087500Y-13317071D01*
X-58087500Y-13474214D01*
X-58087500Y-13317071D02*
X-58073214Y-13288500D01*
X-58044643Y-13274214D01*
X-58001786Y-13274214D01*
X-57973214Y-13288500D01*
X-57958929Y-13317071D01*
X-57958929Y-13474214D01*
X-57373214Y-13159929D02*
X-57630357Y-13545643D01*
X-56987500Y-13174214D02*
X-56958929Y-13174214D01*
X-56930357Y-13188500D01*
X-56916071Y-13202786D01*
X-56901786Y-13231357D01*
X-56887500Y-13288500D01*
X-56887500Y-13359929D01*
X-56901786Y-13417071D01*
X-56916071Y-13445643D01*
X-56930357Y-13459929D01*
X-56958929Y-13474214D01*
X-56987500Y-13474214D01*
X-57016071Y-13459929D01*
X-57030357Y-13445643D01*
X-57044643Y-13417071D01*
X-57058929Y-13359929D01*
X-57058929Y-13288500D01*
X-57044643Y-13231357D01*
X-57030357Y-13202786D01*
X-57016071Y-13188500D01*
X-56987500Y-13174214D01*
X-56758929Y-13445643D02*
X-56744643Y-13459929D01*
X-56758929Y-13474214D01*
X-56773214Y-13459929D01*
X-56758929Y-13445643D01*
X-56758929Y-13474214D01*
X-56558929Y-13174214D02*
X-56530357Y-13174214D01*
X-56501786Y-13188500D01*
X-56487500Y-13202786D01*
X-56473214Y-13231357D01*
X-56458929Y-13288500D01*
X-56458929Y-13359929D01*
X-56473214Y-13417071D01*
X-56487500Y-13445643D01*
X-56501786Y-13459929D01*
X-56530357Y-13474214D01*
X-56558929Y-13474214D01*
X-56587500Y-13459929D01*
X-56601786Y-13445643D01*
X-56616071Y-13417071D01*
X-56630357Y-13359929D01*
X-56630357Y-13288500D01*
X-56616071Y-13231357D01*
X-56601786Y-13202786D01*
X-56587500Y-13188500D01*
X-56558929Y-13174214D01*
X-56201786Y-13274214D02*
X-56201786Y-13474214D01*
X-56273214Y-13159929D02*
X-56344643Y-13374214D01*
X-56158929Y-13374214D01*
X-56073214Y-13174214D02*
X-55873214Y-13174214D01*
X-56001786Y-13474214D01*
X-55773214Y-13174214D02*
X-55773214Y-13231357D01*
X-55658929Y-13174214D02*
X-55658929Y-13231357D01*
X-55216071Y-13588500D02*
X-55230357Y-13574214D01*
X-55258929Y-13531357D01*
X-55273214Y-13502786D01*
X-55287500Y-13459929D01*
X-55301786Y-13388500D01*
X-55301786Y-13331357D01*
X-55287500Y-13259929D01*
X-55273214Y-13217071D01*
X-55258929Y-13188500D01*
X-55230357Y-13145643D01*
X-55216071Y-13131357D01*
X-55130357Y-13174214D02*
X-54930357Y-13174214D01*
X-55058929Y-13474214D01*
X-54587500Y-13474214D02*
X-54587500Y-13174214D01*
X-54458929Y-13474214D02*
X-54458929Y-13317071D01*
X-54473214Y-13288500D01*
X-54501786Y-13274214D01*
X-54544643Y-13274214D01*
X-54573214Y-13288500D01*
X-54587500Y-13302786D01*
X-54273214Y-13474214D02*
X-54301786Y-13459929D01*
X-54316071Y-13445643D01*
X-54330357Y-13417071D01*
X-54330357Y-13331357D01*
X-54316071Y-13302786D01*
X-54301786Y-13288500D01*
X-54273214Y-13274214D01*
X-54230357Y-13274214D01*
X-54201786Y-13288500D01*
X-54187500Y-13302786D01*
X-54173214Y-13331357D01*
X-54173214Y-13417071D01*
X-54187500Y-13445643D01*
X-54201786Y-13459929D01*
X-54230357Y-13474214D01*
X-54273214Y-13474214D01*
X-54001786Y-13474214D02*
X-54030357Y-13459929D01*
X-54044643Y-13431357D01*
X-54044643Y-13174214D01*
X-53773214Y-13459929D02*
X-53801786Y-13474214D01*
X-53858929Y-13474214D01*
X-53887500Y-13459929D01*
X-53901786Y-13431357D01*
X-53901786Y-13317071D01*
X-53887500Y-13288500D01*
X-53858929Y-13274214D01*
X-53801786Y-13274214D01*
X-53773214Y-13288500D01*
X-53758929Y-13317071D01*
X-53758929Y-13345643D01*
X-53901786Y-13374214D01*
X-53644643Y-13459929D02*
X-53616071Y-13474214D01*
X-53558929Y-13474214D01*
X-53530357Y-13459929D01*
X-53516071Y-13431357D01*
X-53516071Y-13417071D01*
X-53530357Y-13388500D01*
X-53558929Y-13374214D01*
X-53601786Y-13374214D01*
X-53630357Y-13359929D01*
X-53644643Y-13331357D01*
X-53644643Y-13317071D01*
X-53630357Y-13288500D01*
X-53601786Y-13274214D01*
X-53558929Y-13274214D01*
X-53530357Y-13288500D01*
X-53416071Y-13588500D02*
X-53401786Y-13574214D01*
X-53373214Y-13531357D01*
X-53358929Y-13502786D01*
X-53344643Y-13459929D01*
X-53330357Y-13388500D01*
X-53330357Y-13331357D01*
X-53344643Y-13259929D01*
X-53358929Y-13217071D01*
X-53373214Y-13188500D01*
X-53401786Y-13145643D01*
X-53416071Y-13131357D01*
X-60032500Y-13669500D02*
X-59902500Y-13799500D01*
X-59902500Y-13669500D02*
X-60032500Y-13799500D01*
X-59921538Y-13780462D02*
X-59921538Y-13688538D01*
X-60013462Y-13688538D01*
X-60013462Y-13780462D01*
X-59921538Y-13780462D01*
X-59458929Y-13870214D02*
X-59630357Y-13870214D01*
X-59544643Y-13870214D02*
X-59544643Y-13570214D01*
X-59573214Y-13613071D01*
X-59601786Y-13641643D01*
X-59630357Y-13655929D01*
X-59330357Y-13841643D02*
X-59316071Y-13855929D01*
X-59330357Y-13870214D01*
X-59344643Y-13855929D01*
X-59330357Y-13841643D01*
X-59330357Y-13870214D01*
X-59216071Y-13570214D02*
X-59030357Y-13570214D01*
X-59130357Y-13684500D01*
X-59087500Y-13684500D01*
X-59058929Y-13698786D01*
X-59044643Y-13713071D01*
X-59030357Y-13741643D01*
X-59030357Y-13813071D01*
X-59044643Y-13841643D01*
X-59058929Y-13855929D01*
X-59087500Y-13870214D01*
X-59173214Y-13870214D01*
X-59201786Y-13855929D01*
X-59216071Y-13841643D01*
X-58844643Y-13570214D02*
X-58816071Y-13570214D01*
X-58787500Y-13584500D01*
X-58773214Y-13598786D01*
X-58758929Y-13627357D01*
X-58744643Y-13684500D01*
X-58744643Y-13755929D01*
X-58758929Y-13813071D01*
X-58773214Y-13841643D01*
X-58787500Y-13855929D01*
X-58816071Y-13870214D01*
X-58844643Y-13870214D01*
X-58873214Y-13855929D01*
X-58887500Y-13841643D01*
X-58901786Y-13813071D01*
X-58916071Y-13755929D01*
X-58916071Y-13684500D01*
X-58901786Y-13627357D01*
X-58887500Y-13598786D01*
X-58873214Y-13584500D01*
X-58844643Y-13570214D01*
X-58616071Y-13870214D02*
X-58616071Y-13670214D01*
X-58616071Y-13698786D02*
X-58601786Y-13684500D01*
X-58573214Y-13670214D01*
X-58530357Y-13670214D01*
X-58501786Y-13684500D01*
X-58487500Y-13713071D01*
X-58487500Y-13870214D01*
X-58487500Y-13713071D02*
X-58473214Y-13684500D01*
X-58444643Y-13670214D01*
X-58401786Y-13670214D01*
X-58373214Y-13684500D01*
X-58358929Y-13713071D01*
X-58358929Y-13870214D01*
X-58216071Y-13870214D02*
X-58216071Y-13670214D01*
X-58216071Y-13698786D02*
X-58201786Y-13684500D01*
X-58173214Y-13670214D01*
X-58130357Y-13670214D01*
X-58101786Y-13684500D01*
X-58087500Y-13713071D01*
X-58087500Y-13870214D01*
X-58087500Y-13713071D02*
X-58073214Y-13684500D01*
X-58044643Y-13670214D01*
X-58001786Y-13670214D01*
X-57973214Y-13684500D01*
X-57958929Y-13713071D01*
X-57958929Y-13870214D01*
X-57373214Y-13555929D02*
X-57630357Y-13941643D01*
X-56987500Y-13570214D02*
X-56958929Y-13570214D01*
X-56930357Y-13584500D01*
X-56916071Y-13598786D01*
X-56901786Y-13627357D01*
X-56887500Y-13684500D01*
X-56887500Y-13755929D01*
X-56901786Y-13813071D01*
X-56916071Y-13841643D01*
X-56930357Y-13855929D01*
X-56958929Y-13870214D01*
X-56987500Y-13870214D01*
X-57016071Y-13855929D01*
X-57030357Y-13841643D01*
X-57044643Y-13813071D01*
X-57058929Y-13755929D01*
X-57058929Y-13684500D01*
X-57044643Y-13627357D01*
X-57030357Y-13598786D01*
X-57016071Y-13584500D01*
X-56987500Y-13570214D01*
X-56758929Y-13841643D02*
X-56744643Y-13855929D01*
X-56758929Y-13870214D01*
X-56773214Y-13855929D01*
X-56758929Y-13841643D01*
X-56758929Y-13870214D01*
X-56558929Y-13570214D02*
X-56530357Y-13570214D01*
X-56501786Y-13584500D01*
X-56487500Y-13598786D01*
X-56473214Y-13627357D01*
X-56458929Y-13684500D01*
X-56458929Y-13755929D01*
X-56473214Y-13813071D01*
X-56487500Y-13841643D01*
X-56501786Y-13855929D01*
X-56530357Y-13870214D01*
X-56558929Y-13870214D01*
X-56587500Y-13855929D01*
X-56601786Y-13841643D01*
X-56616071Y-13813071D01*
X-56630357Y-13755929D01*
X-56630357Y-13684500D01*
X-56616071Y-13627357D01*
X-56601786Y-13598786D01*
X-56587500Y-13584500D01*
X-56558929Y-13570214D01*
X-56187500Y-13570214D02*
X-56330357Y-13570214D01*
X-56344643Y-13713071D01*
X-56330357Y-13698786D01*
X-56301786Y-13684500D01*
X-56230357Y-13684500D01*
X-56201786Y-13698786D01*
X-56187500Y-13713071D01*
X-56173214Y-13741643D01*
X-56173214Y-13813071D01*
X-56187500Y-13841643D01*
X-56201786Y-13855929D01*
X-56230357Y-13870214D01*
X-56301786Y-13870214D01*
X-56330357Y-13855929D01*
X-56344643Y-13841643D01*
X-55887500Y-13870214D02*
X-56058929Y-13870214D01*
X-55973214Y-13870214D02*
X-55973214Y-13570214D01*
X-56001786Y-13613071D01*
X-56030357Y-13641643D01*
X-56058929Y-13655929D01*
X-55773214Y-13570214D02*
X-55773214Y-13627357D01*
X-55658929Y-13570214D02*
X-55658929Y-13627357D01*
X-55216071Y-13984500D02*
X-55230357Y-13970214D01*
X-55258929Y-13927357D01*
X-55273214Y-13898786D01*
X-55287500Y-13855929D01*
X-55301786Y-13784500D01*
X-55301786Y-13727357D01*
X-55287500Y-13655929D01*
X-55273214Y-13613071D01*
X-55258929Y-13584500D01*
X-55230357Y-13541643D01*
X-55216071Y-13527357D01*
X-55116071Y-13598786D02*
X-55101786Y-13584500D01*
X-55073214Y-13570214D01*
X-55001786Y-13570214D01*
X-54973214Y-13584500D01*
X-54958929Y-13598786D01*
X-54944643Y-13627357D01*
X-54944643Y-13655929D01*
X-54958929Y-13698786D01*
X-55130357Y-13870214D01*
X-54944643Y-13870214D01*
X-54587500Y-13870214D02*
X-54587500Y-13570214D01*
X-54458929Y-13870214D02*
X-54458929Y-13713071D01*
X-54473214Y-13684500D01*
X-54501786Y-13670214D01*
X-54544643Y-13670214D01*
X-54573214Y-13684500D01*
X-54587500Y-13698786D01*
X-54273214Y-13870214D02*
X-54301786Y-13855929D01*
X-54316071Y-13841643D01*
X-54330357Y-13813071D01*
X-54330357Y-13727357D01*
X-54316071Y-13698786D01*
X-54301786Y-13684500D01*
X-54273214Y-13670214D01*
X-54230357Y-13670214D01*
X-54201786Y-13684500D01*
X-54187500Y-13698786D01*
X-54173214Y-13727357D01*
X-54173214Y-13813071D01*
X-54187500Y-13841643D01*
X-54201786Y-13855929D01*
X-54230357Y-13870214D01*
X-54273214Y-13870214D01*
X-54001786Y-13870214D02*
X-54030357Y-13855929D01*
X-54044643Y-13827357D01*
X-54044643Y-13570214D01*
X-53773214Y-13855929D02*
X-53801786Y-13870214D01*
X-53858929Y-13870214D01*
X-53887500Y-13855929D01*
X-53901786Y-13827357D01*
X-53901786Y-13713071D01*
X-53887500Y-13684500D01*
X-53858929Y-13670214D01*
X-53801786Y-13670214D01*
X-53773214Y-13684500D01*
X-53758929Y-13713071D01*
X-53758929Y-13741643D01*
X-53901786Y-13770214D01*
X-53644643Y-13855929D02*
X-53616071Y-13870214D01*
X-53558929Y-13870214D01*
X-53530357Y-13855929D01*
X-53516071Y-13827357D01*
X-53516071Y-13813071D01*
X-53530357Y-13784500D01*
X-53558929Y-13770214D01*
X-53601786Y-13770214D01*
X-53630357Y-13755929D01*
X-53644643Y-13727357D01*
X-53644643Y-13713071D01*
X-53630357Y-13684500D01*
X-53601786Y-13670214D01*
X-53558929Y-13670214D01*
X-53530357Y-13684500D01*
X-53416071Y-13984500D02*
X-53401786Y-13970214D01*
X-53373214Y-13927357D01*
X-53358929Y-13898786D01*
X-53344643Y-13855929D01*
X-53330357Y-13784500D01*
X-53330357Y-13727357D01*
X-53344643Y-13655929D01*
X-53358929Y-13613071D01*
X-53373214Y-13584500D01*
X-53401786Y-13541643D01*
X-53416071Y-13527357D01*
X-60082500Y-14040500D02*
X-59902500Y-14220500D01*
X-59902500Y-14040500D02*
X-60082500Y-14220500D01*
X-59992500Y-14220500D02*
X-59902500Y-14130500D01*
X-59992500Y-14040500D01*
X-60082500Y-14130500D01*
X-59992500Y-14220500D01*
X-59458929Y-14266214D02*
X-59630357Y-14266214D01*
X-59544643Y-14266214D02*
X-59544643Y-13966214D01*
X-59573214Y-14009071D01*
X-59601786Y-14037643D01*
X-59630357Y-14051929D01*
X-59330357Y-14237643D02*
X-59316071Y-14251929D01*
X-59330357Y-14266214D01*
X-59344643Y-14251929D01*
X-59330357Y-14237643D01*
X-59330357Y-14266214D01*
X-59144643Y-14094786D02*
X-59173214Y-14080500D01*
X-59187500Y-14066214D01*
X-59201786Y-14037643D01*
X-59201786Y-14023357D01*
X-59187500Y-13994786D01*
X-59173214Y-13980500D01*
X-59144643Y-13966214D01*
X-59087500Y-13966214D01*
X-59058929Y-13980500D01*
X-59044643Y-13994786D01*
X-59030357Y-14023357D01*
X-59030357Y-14037643D01*
X-59044643Y-14066214D01*
X-59058929Y-14080500D01*
X-59087500Y-14094786D01*
X-59144643Y-14094786D01*
X-59173214Y-14109071D01*
X-59187500Y-14123357D01*
X-59201786Y-14151929D01*
X-59201786Y-14209071D01*
X-59187500Y-14237643D01*
X-59173214Y-14251929D01*
X-59144643Y-14266214D01*
X-59087500Y-14266214D01*
X-59058929Y-14251929D01*
X-59044643Y-14237643D01*
X-59030357Y-14209071D01*
X-59030357Y-14151929D01*
X-59044643Y-14123357D01*
X-59058929Y-14109071D01*
X-59087500Y-14094786D01*
X-58844643Y-13966214D02*
X-58816071Y-13966214D01*
X-58787500Y-13980500D01*
X-58773214Y-13994786D01*
X-58758929Y-14023357D01*
X-58744643Y-14080500D01*
X-58744643Y-14151929D01*
X-58758929Y-14209071D01*
X-58773214Y-14237643D01*
X-58787500Y-14251929D01*
X-58816071Y-14266214D01*
X-58844643Y-14266214D01*
X-58873214Y-14251929D01*
X-58887500Y-14237643D01*
X-58901786Y-14209071D01*
X-58916071Y-14151929D01*
X-58916071Y-14080500D01*
X-58901786Y-14023357D01*
X-58887500Y-13994786D01*
X-58873214Y-13980500D01*
X-58844643Y-13966214D01*
X-58616071Y-14266214D02*
X-58616071Y-14066214D01*
X-58616071Y-14094786D02*
X-58601786Y-14080500D01*
X-58573214Y-14066214D01*
X-58530357Y-14066214D01*
X-58501786Y-14080500D01*
X-58487500Y-14109071D01*
X-58487500Y-14266214D01*
X-58487500Y-14109071D02*
X-58473214Y-14080500D01*
X-58444643Y-14066214D01*
X-58401786Y-14066214D01*
X-58373214Y-14080500D01*
X-58358929Y-14109071D01*
X-58358929Y-14266214D01*
X-58216071Y-14266214D02*
X-58216071Y-14066214D01*
X-58216071Y-14094786D02*
X-58201786Y-14080500D01*
X-58173214Y-14066214D01*
X-58130357Y-14066214D01*
X-58101786Y-14080500D01*
X-58087500Y-14109071D01*
X-58087500Y-14266214D01*
X-58087500Y-14109071D02*
X-58073214Y-14080500D01*
X-58044643Y-14066214D01*
X-58001786Y-14066214D01*
X-57973214Y-14080500D01*
X-57958929Y-14109071D01*
X-57958929Y-14266214D01*
X-57373214Y-13951929D02*
X-57630357Y-14337643D01*
X-56987500Y-13966214D02*
X-56958929Y-13966214D01*
X-56930357Y-13980500D01*
X-56916071Y-13994786D01*
X-56901786Y-14023357D01*
X-56887500Y-14080500D01*
X-56887500Y-14151929D01*
X-56901786Y-14209071D01*
X-56916071Y-14237643D01*
X-56930357Y-14251929D01*
X-56958929Y-14266214D01*
X-56987500Y-14266214D01*
X-57016071Y-14251929D01*
X-57030357Y-14237643D01*
X-57044643Y-14209071D01*
X-57058929Y-14151929D01*
X-57058929Y-14080500D01*
X-57044643Y-14023357D01*
X-57030357Y-13994786D01*
X-57016071Y-13980500D01*
X-56987500Y-13966214D01*
X-56758929Y-14237643D02*
X-56744643Y-14251929D01*
X-56758929Y-14266214D01*
X-56773214Y-14251929D01*
X-56758929Y-14237643D01*
X-56758929Y-14266214D01*
X-56558929Y-13966214D02*
X-56530357Y-13966214D01*
X-56501786Y-13980500D01*
X-56487500Y-13994786D01*
X-56473214Y-14023357D01*
X-56458929Y-14080500D01*
X-56458929Y-14151929D01*
X-56473214Y-14209071D01*
X-56487500Y-14237643D01*
X-56501786Y-14251929D01*
X-56530357Y-14266214D01*
X-56558929Y-14266214D01*
X-56587500Y-14251929D01*
X-56601786Y-14237643D01*
X-56616071Y-14209071D01*
X-56630357Y-14151929D01*
X-56630357Y-14080500D01*
X-56616071Y-14023357D01*
X-56601786Y-13994786D01*
X-56587500Y-13980500D01*
X-56558929Y-13966214D01*
X-56358929Y-13966214D02*
X-56158929Y-13966214D01*
X-56287500Y-14266214D01*
X-55887500Y-14266214D02*
X-56058929Y-14266214D01*
X-55973214Y-14266214D02*
X-55973214Y-13966214D01*
X-56001786Y-14009071D01*
X-56030357Y-14037643D01*
X-56058929Y-14051929D01*
X-55773214Y-13966214D02*
X-55773214Y-14023357D01*
X-55658929Y-13966214D02*
X-55658929Y-14023357D01*
X-55216071Y-14380500D02*
X-55230357Y-14366214D01*
X-55258929Y-14323357D01*
X-55273214Y-14294786D01*
X-55287500Y-14251929D01*
X-55301786Y-14180500D01*
X-55301786Y-14123357D01*
X-55287500Y-14051929D01*
X-55273214Y-14009071D01*
X-55258929Y-13980500D01*
X-55230357Y-13937643D01*
X-55216071Y-13923357D01*
X-55058929Y-14094786D02*
X-55087500Y-14080500D01*
X-55101786Y-14066214D01*
X-55116071Y-14037643D01*
X-55116071Y-14023357D01*
X-55101786Y-13994786D01*
X-55087500Y-13980500D01*
X-55058929Y-13966214D01*
X-55001786Y-13966214D01*
X-54973214Y-13980500D01*
X-54958929Y-13994786D01*
X-54944643Y-14023357D01*
X-54944643Y-14037643D01*
X-54958929Y-14066214D01*
X-54973214Y-14080500D01*
X-55001786Y-14094786D01*
X-55058929Y-14094786D01*
X-55087500Y-14109071D01*
X-55101786Y-14123357D01*
X-55116071Y-14151929D01*
X-55116071Y-14209071D01*
X-55101786Y-14237643D01*
X-55087500Y-14251929D01*
X-55058929Y-14266214D01*
X-55001786Y-14266214D01*
X-54973214Y-14251929D01*
X-54958929Y-14237643D01*
X-54944643Y-14209071D01*
X-54944643Y-14151929D01*
X-54958929Y-14123357D01*
X-54973214Y-14109071D01*
X-55001786Y-14094786D01*
X-54587500Y-14266214D02*
X-54587500Y-13966214D01*
X-54458929Y-14266214D02*
X-54458929Y-14109071D01*
X-54473214Y-14080500D01*
X-54501786Y-14066214D01*
X-54544643Y-14066214D01*
X-54573214Y-14080500D01*
X-54587500Y-14094786D01*
X-54273214Y-14266214D02*
X-54301786Y-14251929D01*
X-54316071Y-14237643D01*
X-54330357Y-14209071D01*
X-54330357Y-14123357D01*
X-54316071Y-14094786D01*
X-54301786Y-14080500D01*
X-54273214Y-14066214D01*
X-54230357Y-14066214D01*
X-54201786Y-14080500D01*
X-54187500Y-14094786D01*
X-54173214Y-14123357D01*
X-54173214Y-14209071D01*
X-54187500Y-14237643D01*
X-54201786Y-14251929D01*
X-54230357Y-14266214D01*
X-54273214Y-14266214D01*
X-54001786Y-14266214D02*
X-54030357Y-14251929D01*
X-54044643Y-14223357D01*
X-54044643Y-13966214D01*
X-53773214Y-14251929D02*
X-53801786Y-14266214D01*
X-53858929Y-14266214D01*
X-53887500Y-14251929D01*
X-53901786Y-14223357D01*
X-53901786Y-14109071D01*
X-53887500Y-14080500D01*
X-53858929Y-14066214D01*
X-53801786Y-14066214D01*
X-53773214Y-14080500D01*
X-53758929Y-14109071D01*
X-53758929Y-14137643D01*
X-53901786Y-14166214D01*
X-53644643Y-14251929D02*
X-53616071Y-14266214D01*
X-53558929Y-14266214D01*
X-53530357Y-14251929D01*
X-53516071Y-14223357D01*
X-53516071Y-14209071D01*
X-53530357Y-14180500D01*
X-53558929Y-14166214D01*
X-53601786Y-14166214D01*
X-53630357Y-14151929D01*
X-53644643Y-14123357D01*
X-53644643Y-14109071D01*
X-53630357Y-14080500D01*
X-53601786Y-14066214D01*
X-53558929Y-14066214D01*
X-53530357Y-14080500D01*
X-53416071Y-14380500D02*
X-53401786Y-14366214D01*
X-53373214Y-14323357D01*
X-53358929Y-14294786D01*
X-53344643Y-14251929D01*
X-53330357Y-14180500D01*
X-53330357Y-14123357D01*
X-53344643Y-14051929D01*
X-53358929Y-14009071D01*
X-53373214Y-13980500D01*
X-53401786Y-13937643D01*
X-53416071Y-13923357D01*
X-60007500Y-14421500D02*
X-60007500Y-14631500D01*
X-60112500Y-14526500D02*
X-59902500Y-14526500D01*
X-59902500Y-14526500D02*
G75*
G03*
X-59902500Y-14526500I-105000J0D01*
G01*
X-59630357Y-14390786D02*
X-59616071Y-14376500D01*
X-59587500Y-14362214D01*
X-59516071Y-14362214D01*
X-59487500Y-14376500D01*
X-59473214Y-14390786D01*
X-59458929Y-14419357D01*
X-59458929Y-14447929D01*
X-59473214Y-14490786D01*
X-59644643Y-14662214D01*
X-59458929Y-14662214D01*
X-59330357Y-14633643D02*
X-59316071Y-14647929D01*
X-59330357Y-14662214D01*
X-59344643Y-14647929D01*
X-59330357Y-14633643D01*
X-59330357Y-14662214D01*
X-59030357Y-14662214D02*
X-59201786Y-14662214D01*
X-59116071Y-14662214D02*
X-59116071Y-14362214D01*
X-59144643Y-14405071D01*
X-59173214Y-14433643D01*
X-59201786Y-14447929D01*
X-58844643Y-14362214D02*
X-58816071Y-14362214D01*
X-58787500Y-14376500D01*
X-58773214Y-14390786D01*
X-58758929Y-14419357D01*
X-58744643Y-14476500D01*
X-58744643Y-14547929D01*
X-58758929Y-14605071D01*
X-58773214Y-14633643D01*
X-58787500Y-14647929D01*
X-58816071Y-14662214D01*
X-58844643Y-14662214D01*
X-58873214Y-14647929D01*
X-58887500Y-14633643D01*
X-58901786Y-14605071D01*
X-58916071Y-14547929D01*
X-58916071Y-14476500D01*
X-58901786Y-14419357D01*
X-58887500Y-14390786D01*
X-58873214Y-14376500D01*
X-58844643Y-14362214D01*
X-58616071Y-14662214D02*
X-58616071Y-14462214D01*
X-58616071Y-14490786D02*
X-58601786Y-14476500D01*
X-58573214Y-14462214D01*
X-58530357Y-14462214D01*
X-58501786Y-14476500D01*
X-58487500Y-14505071D01*
X-58487500Y-14662214D01*
X-58487500Y-14505071D02*
X-58473214Y-14476500D01*
X-58444643Y-14462214D01*
X-58401786Y-14462214D01*
X-58373214Y-14476500D01*
X-58358929Y-14505071D01*
X-58358929Y-14662214D01*
X-58216071Y-14662214D02*
X-58216071Y-14462214D01*
X-58216071Y-14490786D02*
X-58201786Y-14476500D01*
X-58173214Y-14462214D01*
X-58130357Y-14462214D01*
X-58101786Y-14476500D01*
X-58087500Y-14505071D01*
X-58087500Y-14662214D01*
X-58087500Y-14505071D02*
X-58073214Y-14476500D01*
X-58044643Y-14462214D01*
X-58001786Y-14462214D01*
X-57973214Y-14476500D01*
X-57958929Y-14505071D01*
X-57958929Y-14662214D01*
X-57373214Y-14347929D02*
X-57630357Y-14733643D01*
X-56987500Y-14362214D02*
X-56958929Y-14362214D01*
X-56930357Y-14376500D01*
X-56916071Y-14390786D01*
X-56901786Y-14419357D01*
X-56887500Y-14476500D01*
X-56887500Y-14547929D01*
X-56901786Y-14605071D01*
X-56916071Y-14633643D01*
X-56930357Y-14647929D01*
X-56958929Y-14662214D01*
X-56987500Y-14662214D01*
X-57016071Y-14647929D01*
X-57030357Y-14633643D01*
X-57044643Y-14605071D01*
X-57058929Y-14547929D01*
X-57058929Y-14476500D01*
X-57044643Y-14419357D01*
X-57030357Y-14390786D01*
X-57016071Y-14376500D01*
X-56987500Y-14362214D01*
X-56758929Y-14633643D02*
X-56744643Y-14647929D01*
X-56758929Y-14662214D01*
X-56773214Y-14647929D01*
X-56758929Y-14633643D01*
X-56758929Y-14662214D01*
X-56558929Y-14362214D02*
X-56530357Y-14362214D01*
X-56501786Y-14376500D01*
X-56487500Y-14390786D01*
X-56473214Y-14419357D01*
X-56458929Y-14476500D01*
X-56458929Y-14547929D01*
X-56473214Y-14605071D01*
X-56487500Y-14633643D01*
X-56501786Y-14647929D01*
X-56530357Y-14662214D01*
X-56558929Y-14662214D01*
X-56587500Y-14647929D01*
X-56601786Y-14633643D01*
X-56616071Y-14605071D01*
X-56630357Y-14547929D01*
X-56630357Y-14476500D01*
X-56616071Y-14419357D01*
X-56601786Y-14390786D01*
X-56587500Y-14376500D01*
X-56558929Y-14362214D01*
X-56287500Y-14490786D02*
X-56316071Y-14476500D01*
X-56330357Y-14462214D01*
X-56344643Y-14433643D01*
X-56344643Y-14419357D01*
X-56330357Y-14390786D01*
X-56316071Y-14376500D01*
X-56287500Y-14362214D01*
X-56230357Y-14362214D01*
X-56201786Y-14376500D01*
X-56187500Y-14390786D01*
X-56173214Y-14419357D01*
X-56173214Y-14433643D01*
X-56187500Y-14462214D01*
X-56201786Y-14476500D01*
X-56230357Y-14490786D01*
X-56287500Y-14490786D01*
X-56316071Y-14505071D01*
X-56330357Y-14519357D01*
X-56344643Y-14547929D01*
X-56344643Y-14605071D01*
X-56330357Y-14633643D01*
X-56316071Y-14647929D01*
X-56287500Y-14662214D01*
X-56230357Y-14662214D01*
X-56201786Y-14647929D01*
X-56187500Y-14633643D01*
X-56173214Y-14605071D01*
X-56173214Y-14547929D01*
X-56187500Y-14519357D01*
X-56201786Y-14505071D01*
X-56230357Y-14490786D01*
X-56073214Y-14362214D02*
X-55887500Y-14362214D01*
X-55987500Y-14476500D01*
X-55944643Y-14476500D01*
X-55916071Y-14490786D01*
X-55901786Y-14505071D01*
X-55887500Y-14533643D01*
X-55887500Y-14605071D01*
X-55901786Y-14633643D01*
X-55916071Y-14647929D01*
X-55944643Y-14662214D01*
X-56030357Y-14662214D01*
X-56058929Y-14647929D01*
X-56073214Y-14633643D01*
X-55773214Y-14362214D02*
X-55773214Y-14419357D01*
X-55658929Y-14362214D02*
X-55658929Y-14419357D01*
X-55216071Y-14776500D02*
X-55230357Y-14762214D01*
X-55258929Y-14719357D01*
X-55273214Y-14690786D01*
X-55287500Y-14647929D01*
X-55301786Y-14576500D01*
X-55301786Y-14519357D01*
X-55287500Y-14447929D01*
X-55273214Y-14405071D01*
X-55258929Y-14376500D01*
X-55230357Y-14333643D01*
X-55216071Y-14319357D01*
X-54973214Y-14362214D02*
X-55030357Y-14362214D01*
X-55058929Y-14376500D01*
X-55073214Y-14390786D01*
X-55101786Y-14433643D01*
X-55116071Y-14490786D01*
X-55116071Y-14605071D01*
X-55101786Y-14633643D01*
X-55087500Y-14647929D01*
X-55058929Y-14662214D01*
X-55001786Y-14662214D01*
X-54973214Y-14647929D01*
X-54958929Y-14633643D01*
X-54944643Y-14605071D01*
X-54944643Y-14533643D01*
X-54958929Y-14505071D01*
X-54973214Y-14490786D01*
X-55001786Y-14476500D01*
X-55058929Y-14476500D01*
X-55087500Y-14490786D01*
X-55101786Y-14505071D01*
X-55116071Y-14533643D01*
X-54587500Y-14662214D02*
X-54587500Y-14362214D01*
X-54458929Y-14662214D02*
X-54458929Y-14505071D01*
X-54473214Y-14476500D01*
X-54501786Y-14462214D01*
X-54544643Y-14462214D01*
X-54573214Y-14476500D01*
X-54587500Y-14490786D01*
X-54273214Y-14662214D02*
X-54301786Y-14647929D01*
X-54316071Y-14633643D01*
X-54330357Y-14605071D01*
X-54330357Y-14519357D01*
X-54316071Y-14490786D01*
X-54301786Y-14476500D01*
X-54273214Y-14462214D01*
X-54230357Y-14462214D01*
X-54201786Y-14476500D01*
X-54187500Y-14490786D01*
X-54173214Y-14519357D01*
X-54173214Y-14605071D01*
X-54187500Y-14633643D01*
X-54201786Y-14647929D01*
X-54230357Y-14662214D01*
X-54273214Y-14662214D01*
X-54001786Y-14662214D02*
X-54030357Y-14647929D01*
X-54044643Y-14619357D01*
X-54044643Y-14362214D01*
X-53773214Y-14647929D02*
X-53801786Y-14662214D01*
X-53858929Y-14662214D01*
X-53887500Y-14647929D01*
X-53901786Y-14619357D01*
X-53901786Y-14505071D01*
X-53887500Y-14476500D01*
X-53858929Y-14462214D01*
X-53801786Y-14462214D01*
X-53773214Y-14476500D01*
X-53758929Y-14505071D01*
X-53758929Y-14533643D01*
X-53901786Y-14562214D01*
X-53644643Y-14647929D02*
X-53616071Y-14662214D01*
X-53558929Y-14662214D01*
X-53530357Y-14647929D01*
X-53516071Y-14619357D01*
X-53516071Y-14605071D01*
X-53530357Y-14576500D01*
X-53558929Y-14562214D01*
X-53601786Y-14562214D01*
X-53630357Y-14547929D01*
X-53644643Y-14519357D01*
X-53644643Y-14505071D01*
X-53630357Y-14476500D01*
X-53601786Y-14462214D01*
X-53558929Y-14462214D01*
X-53530357Y-14476500D01*
X-53416071Y-14776500D02*
X-53401786Y-14762214D01*
X-53373214Y-14719357D01*
X-53358929Y-14690786D01*
X-53344643Y-14647929D01*
X-53330357Y-14576500D01*
X-53330357Y-14519357D01*
X-53344643Y-14447929D01*
X-53358929Y-14405071D01*
X-53373214Y-14376500D01*
X-53401786Y-14333643D01*
X-53416071Y-14319357D01*
X-59949362Y-15035638D02*
X-59949362Y-14809362D01*
X-60175638Y-14809362D01*
X-60175638Y-15035638D01*
X-59949362Y-15035638D01*
X-59902500Y-14922500D02*
G75*
G03*
X-59902500Y-14922500I-160000J0D01*
G01*
X-59644643Y-14758214D02*
X-59458929Y-14758214D01*
X-59558929Y-14872500D01*
X-59516071Y-14872500D01*
X-59487500Y-14886786D01*
X-59473214Y-14901071D01*
X-59458929Y-14929643D01*
X-59458929Y-15001071D01*
X-59473214Y-15029643D01*
X-59487500Y-15043929D01*
X-59516071Y-15058214D01*
X-59601786Y-15058214D01*
X-59630357Y-15043929D01*
X-59644643Y-15029643D01*
X-59330357Y-15029643D02*
X-59316071Y-15043929D01*
X-59330357Y-15058214D01*
X-59344643Y-15043929D01*
X-59330357Y-15029643D01*
X-59330357Y-15058214D01*
X-59201786Y-14786786D02*
X-59187500Y-14772500D01*
X-59158929Y-14758214D01*
X-59087500Y-14758214D01*
X-59058929Y-14772500D01*
X-59044643Y-14786786D01*
X-59030357Y-14815357D01*
X-59030357Y-14843929D01*
X-59044643Y-14886786D01*
X-59216071Y-15058214D01*
X-59030357Y-15058214D01*
X-58844643Y-14758214D02*
X-58816071Y-14758214D01*
X-58787500Y-14772500D01*
X-58773214Y-14786786D01*
X-58758929Y-14815357D01*
X-58744643Y-14872500D01*
X-58744643Y-14943929D01*
X-58758929Y-15001071D01*
X-58773214Y-15029643D01*
X-58787500Y-15043929D01*
X-58816071Y-15058214D01*
X-58844643Y-15058214D01*
X-58873214Y-15043929D01*
X-58887500Y-15029643D01*
X-58901786Y-15001071D01*
X-58916071Y-14943929D01*
X-58916071Y-14872500D01*
X-58901786Y-14815357D01*
X-58887500Y-14786786D01*
X-58873214Y-14772500D01*
X-58844643Y-14758214D01*
X-58616071Y-15058214D02*
X-58616071Y-14858214D01*
X-58616071Y-14886786D02*
X-58601786Y-14872500D01*
X-58573214Y-14858214D01*
X-58530357Y-14858214D01*
X-58501786Y-14872500D01*
X-58487500Y-14901071D01*
X-58487500Y-15058214D01*
X-58487500Y-14901071D02*
X-58473214Y-14872500D01*
X-58444643Y-14858214D01*
X-58401786Y-14858214D01*
X-58373214Y-14872500D01*
X-58358929Y-14901071D01*
X-58358929Y-15058214D01*
X-58216071Y-15058214D02*
X-58216071Y-14858214D01*
X-58216071Y-14886786D02*
X-58201786Y-14872500D01*
X-58173214Y-14858214D01*
X-58130357Y-14858214D01*
X-58101786Y-14872500D01*
X-58087500Y-14901071D01*
X-58087500Y-15058214D01*
X-58087500Y-14901071D02*
X-58073214Y-14872500D01*
X-58044643Y-14858214D01*
X-58001786Y-14858214D01*
X-57973214Y-14872500D01*
X-57958929Y-14901071D01*
X-57958929Y-15058214D01*
X-57373214Y-14743929D02*
X-57630357Y-15129643D01*
X-56987500Y-14758214D02*
X-56958929Y-14758214D01*
X-56930357Y-14772500D01*
X-56916071Y-14786786D01*
X-56901786Y-14815357D01*
X-56887500Y-14872500D01*
X-56887500Y-14943929D01*
X-56901786Y-15001071D01*
X-56916071Y-15029643D01*
X-56930357Y-15043929D01*
X-56958929Y-15058214D01*
X-56987500Y-15058214D01*
X-57016071Y-15043929D01*
X-57030357Y-15029643D01*
X-57044643Y-15001071D01*
X-57058929Y-14943929D01*
X-57058929Y-14872500D01*
X-57044643Y-14815357D01*
X-57030357Y-14786786D01*
X-57016071Y-14772500D01*
X-56987500Y-14758214D01*
X-56758929Y-15029643D02*
X-56744643Y-15043929D01*
X-56758929Y-15058214D01*
X-56773214Y-15043929D01*
X-56758929Y-15029643D01*
X-56758929Y-15058214D01*
X-56458929Y-15058214D02*
X-56630357Y-15058214D01*
X-56544643Y-15058214D02*
X-56544643Y-14758214D01*
X-56573214Y-14801071D01*
X-56601786Y-14829643D01*
X-56630357Y-14843929D01*
X-56344643Y-14786786D02*
X-56330357Y-14772500D01*
X-56301786Y-14758214D01*
X-56230357Y-14758214D01*
X-56201786Y-14772500D01*
X-56187500Y-14786786D01*
X-56173214Y-14815357D01*
X-56173214Y-14843929D01*
X-56187500Y-14886786D01*
X-56358929Y-15058214D01*
X-56173214Y-15058214D01*
X-55916071Y-14758214D02*
X-55973214Y-14758214D01*
X-56001786Y-14772500D01*
X-56016071Y-14786786D01*
X-56044643Y-14829643D01*
X-56058929Y-14886786D01*
X-56058929Y-15001071D01*
X-56044643Y-15029643D01*
X-56030357Y-15043929D01*
X-56001786Y-15058214D01*
X-55944643Y-15058214D01*
X-55916071Y-15043929D01*
X-55901786Y-15029643D01*
X-55887500Y-15001071D01*
X-55887500Y-14929643D01*
X-55901786Y-14901071D01*
X-55916071Y-14886786D01*
X-55944643Y-14872500D01*
X-56001786Y-14872500D01*
X-56030357Y-14886786D01*
X-56044643Y-14901071D01*
X-56058929Y-14929643D01*
X-55773214Y-14758214D02*
X-55773214Y-14815357D01*
X-55658929Y-14758214D02*
X-55658929Y-14815357D01*
X-55216071Y-15172500D02*
X-55230357Y-15158214D01*
X-55258929Y-15115357D01*
X-55273214Y-15086786D01*
X-55287500Y-15043929D01*
X-55301786Y-14972500D01*
X-55301786Y-14915357D01*
X-55287500Y-14843929D01*
X-55273214Y-14801071D01*
X-55258929Y-14772500D01*
X-55230357Y-14729643D01*
X-55216071Y-14715357D01*
X-55116071Y-14786786D02*
X-55101786Y-14772500D01*
X-55073214Y-14758214D01*
X-55001786Y-14758214D01*
X-54973214Y-14772500D01*
X-54958929Y-14786786D01*
X-54944643Y-14815357D01*
X-54944643Y-14843929D01*
X-54958929Y-14886786D01*
X-55130357Y-15058214D01*
X-54944643Y-15058214D01*
X-54587500Y-15058214D02*
X-54587500Y-14758214D01*
X-54458929Y-15058214D02*
X-54458929Y-14901071D01*
X-54473214Y-14872500D01*
X-54501786Y-14858214D01*
X-54544643Y-14858214D01*
X-54573214Y-14872500D01*
X-54587500Y-14886786D01*
X-54273214Y-15058214D02*
X-54301786Y-15043929D01*
X-54316071Y-15029643D01*
X-54330357Y-15001071D01*
X-54330357Y-14915357D01*
X-54316071Y-14886786D01*
X-54301786Y-14872500D01*
X-54273214Y-14858214D01*
X-54230357Y-14858214D01*
X-54201786Y-14872500D01*
X-54187500Y-14886786D01*
X-54173214Y-14915357D01*
X-54173214Y-15001071D01*
X-54187500Y-15029643D01*
X-54201786Y-15043929D01*
X-54230357Y-15058214D01*
X-54273214Y-15058214D01*
X-54001786Y-15058214D02*
X-54030357Y-15043929D01*
X-54044643Y-15015357D01*
X-54044643Y-14758214D01*
X-53773214Y-15043929D02*
X-53801786Y-15058214D01*
X-53858929Y-15058214D01*
X-53887500Y-15043929D01*
X-53901786Y-15015357D01*
X-53901786Y-14901071D01*
X-53887500Y-14872500D01*
X-53858929Y-14858214D01*
X-53801786Y-14858214D01*
X-53773214Y-14872500D01*
X-53758929Y-14901071D01*
X-53758929Y-14929643D01*
X-53901786Y-14958214D01*
X-53644643Y-15043929D02*
X-53616071Y-15058214D01*
X-53558929Y-15058214D01*
X-53530357Y-15043929D01*
X-53516071Y-15015357D01*
X-53516071Y-15001071D01*
X-53530357Y-14972500D01*
X-53558929Y-14958214D01*
X-53601786Y-14958214D01*
X-53630357Y-14943929D01*
X-53644643Y-14915357D01*
X-53644643Y-14901071D01*
X-53630357Y-14872500D01*
X-53601786Y-14858214D01*
X-53558929Y-14858214D01*
X-53530357Y-14872500D01*
X-53416071Y-15172500D02*
X-53401786Y-15158214D01*
X-53373214Y-15115357D01*
X-53358929Y-15086786D01*
X-53344643Y-15043929D01*
X-53330357Y-14972500D01*
X-53330357Y-14915357D01*
X-53344643Y-14843929D01*
X-53358929Y-14801071D01*
X-53373214Y-14772500D01*
X-53401786Y-14729643D01*
X-53416071Y-14715357D01*
X-52873214Y-15172500D02*
X-52887500Y-15158214D01*
X-52916071Y-15115357D01*
X-52930357Y-15086786D01*
X-52944643Y-15043929D01*
X-52958929Y-14972500D01*
X-52958929Y-14915357D01*
X-52944643Y-14843929D01*
X-52930357Y-14801071D01*
X-52916071Y-14772500D01*
X-52887500Y-14729643D01*
X-52873214Y-14715357D01*
X-52758929Y-14858214D02*
X-52758929Y-15058214D01*
X-52758929Y-14886786D02*
X-52744643Y-14872500D01*
X-52716071Y-14858214D01*
X-52673214Y-14858214D01*
X-52644643Y-14872500D01*
X-52630357Y-14901071D01*
X-52630357Y-15058214D01*
X-52444643Y-15058214D02*
X-52473214Y-15043929D01*
X-52487500Y-15029643D01*
X-52501786Y-15001071D01*
X-52501786Y-14915357D01*
X-52487500Y-14886786D01*
X-52473214Y-14872500D01*
X-52444643Y-14858214D01*
X-52401786Y-14858214D01*
X-52373214Y-14872500D01*
X-52358929Y-14886786D01*
X-52344643Y-14915357D01*
X-52344643Y-15001071D01*
X-52358929Y-15029643D01*
X-52373214Y-15043929D01*
X-52401786Y-15058214D01*
X-52444643Y-15058214D01*
X-52258929Y-14858214D02*
X-52144643Y-14858214D01*
X-52216071Y-14758214D02*
X-52216071Y-15015357D01*
X-52201786Y-15043929D01*
X-52173214Y-15058214D01*
X-52144643Y-15058214D01*
X-51816071Y-14858214D02*
X-51816071Y-15158214D01*
X-51816071Y-14872500D02*
X-51787500Y-14858214D01*
X-51730357Y-14858214D01*
X-51701786Y-14872500D01*
X-51687500Y-14886786D01*
X-51673214Y-14915357D01*
X-51673214Y-15001071D01*
X-51687500Y-15029643D01*
X-51701786Y-15043929D01*
X-51730357Y-15058214D01*
X-51787500Y-15058214D01*
X-51816071Y-15043929D01*
X-51501786Y-15058214D02*
X-51530357Y-15043929D01*
X-51544643Y-15015357D01*
X-51544643Y-14758214D01*
X-51258929Y-15058214D02*
X-51258929Y-14901071D01*
X-51273214Y-14872500D01*
X-51301786Y-14858214D01*
X-51358929Y-14858214D01*
X-51387500Y-14872500D01*
X-51258929Y-15043929D02*
X-51287500Y-15058214D01*
X-51358929Y-15058214D01*
X-51387500Y-15043929D01*
X-51401786Y-15015357D01*
X-51401786Y-14986786D01*
X-51387500Y-14958214D01*
X-51358929Y-14943929D01*
X-51287500Y-14943929D01*
X-51258929Y-14929643D01*
X-51158929Y-14858214D02*
X-51044643Y-14858214D01*
X-51116071Y-14758214D02*
X-51116071Y-15015357D01*
X-51101786Y-15043929D01*
X-51073214Y-15058214D01*
X-51044643Y-15058214D01*
X-50830357Y-15043929D02*
X-50858929Y-15058214D01*
X-50916071Y-15058214D01*
X-50944643Y-15043929D01*
X-50958929Y-15015357D01*
X-50958929Y-14901071D01*
X-50944643Y-14872500D01*
X-50916071Y-14858214D01*
X-50858929Y-14858214D01*
X-50830357Y-14872500D01*
X-50816071Y-14901071D01*
X-50816071Y-14929643D01*
X-50958929Y-14958214D01*
X-50558929Y-15058214D02*
X-50558929Y-14758214D01*
X-50558929Y-15043929D02*
X-50587500Y-15058214D01*
X-50644643Y-15058214D01*
X-50673214Y-15043929D01*
X-50687500Y-15029643D01*
X-50701786Y-15001071D01*
X-50701786Y-14915357D01*
X-50687500Y-14886786D01*
X-50673214Y-14872500D01*
X-50644643Y-14858214D01*
X-50587500Y-14858214D01*
X-50558929Y-14872500D01*
X-50444643Y-15172500D02*
X-50430357Y-15158214D01*
X-50401786Y-15115357D01*
X-50387500Y-15086786D01*
X-50373214Y-15043929D01*
X-50358929Y-14972500D01*
X-50358929Y-14915357D01*
X-50373214Y-14843929D01*
X-50387500Y-14801071D01*
X-50401786Y-14772500D01*
X-50430357Y-14729643D01*
X-50444643Y-14715357D01*
M02*
