%TF.GenerationSoftware,KiCad,Pcbnew,(5.1.12-1-10_14)*%
%TF.CreationDate,2021-12-12T17:04:58+01:00*%
%TF.ProjectId,envy,656e7679-2e6b-4696-9361-645f70636258,rev?*%
%TF.SameCoordinates,Original*%
%TF.FileFunction,Copper,L2,Bot*%
%TF.FilePolarity,Positive*%
%FSLAX46Y46*%
G04 Gerber Fmt 4.6, Leading zero omitted, Abs format (unit mm)*
G04 Created by KiCad (PCBNEW (5.1.12-1-10_14)) date 2021-12-12 17:04:58*
%MOMM*%
%LPD*%
G01*
G04 APERTURE LIST*
%TA.AperFunction,ComponentPad*%
%ADD10R,1.600000X1.600000*%
%TD*%
%TA.AperFunction,ComponentPad*%
%ADD11O,1.600000X1.600000*%
%TD*%
%TA.AperFunction,ComponentPad*%
%ADD12C,1.600000*%
%TD*%
%TA.AperFunction,ComponentPad*%
%ADD13R,1.727200X1.727200*%
%TD*%
%TA.AperFunction,ComponentPad*%
%ADD14O,1.727200X1.727200*%
%TD*%
%TA.AperFunction,ComponentPad*%
%ADD15R,1.800000X1.800000*%
%TD*%
%TA.AperFunction,ComponentPad*%
%ADD16C,1.800000*%
%TD*%
%TA.AperFunction,ComponentPad*%
%ADD17C,3.240000*%
%TD*%
%TA.AperFunction,ComponentPad*%
%ADD18O,1.740000X2.200000*%
%TD*%
%TA.AperFunction,ComponentPad*%
%ADD19R,1.600000X2.400000*%
%TD*%
%TA.AperFunction,ComponentPad*%
%ADD20O,1.600000X2.400000*%
%TD*%
%TA.AperFunction,Conductor*%
%ADD21C,0.250000*%
%TD*%
%TA.AperFunction,Conductor*%
%ADD22C,0.254000*%
%TD*%
%TA.AperFunction,Conductor*%
%ADD23C,0.100000*%
%TD*%
G04 APERTURE END LIST*
D10*
%TO.P,D4,1*%
%TO.N,Net-(D4-Pad1)*%
X76400000Y-45500000D03*
D11*
%TO.P,D4,2*%
%TO.N,Net-(C2-Pad2)*%
X76400000Y-53120000D03*
%TD*%
%TO.P,D3,2*%
%TO.N,Net-(D3-Pad2)*%
X83400000Y-45380000D03*
D10*
%TO.P,D3,1*%
%TO.N,Net-(C1-Pad1)*%
X83400000Y-53000000D03*
%TD*%
%TO.P,C2,1*%
%TO.N,GND*%
X70900000Y-48500000D03*
D12*
%TO.P,C2,2*%
%TO.N,Net-(C2-Pad2)*%
X72900000Y-48500000D03*
%TD*%
%TO.P,C1,2*%
%TO.N,GND*%
X88900000Y-48500000D03*
D10*
%TO.P,C1,1*%
%TO.N,Net-(C1-Pad1)*%
X86900000Y-48500000D03*
%TD*%
D13*
%TO.P,J5,1*%
%TO.N,Net-(D4-Pad1)*%
X75000000Y-40500000D03*
D14*
%TO.P,J5,2*%
X75000000Y-37960000D03*
%TO.P,J5,3*%
%TO.N,GND*%
X77540000Y-40500000D03*
%TO.P,J5,4*%
X77540000Y-37960000D03*
%TO.P,J5,5*%
X80080000Y-40500000D03*
%TO.P,J5,6*%
X80080000Y-37960000D03*
%TO.P,J5,7*%
X82620000Y-40500000D03*
%TO.P,J5,8*%
X82620000Y-37960000D03*
%TO.P,J5,9*%
%TO.N,Net-(D3-Pad2)*%
X85160000Y-40500000D03*
%TO.P,J5,10*%
X85160000Y-37960000D03*
%TD*%
D15*
%TO.P,RV3,1*%
%TO.N,Net-(R2-Pad1)*%
X82700000Y-128500000D03*
D16*
%TO.P,RV3,2*%
X80200000Y-128500000D03*
%TO.P,RV3,3*%
%TO.N,Net-(R9-Pad2)*%
X77700000Y-128500000D03*
D17*
%TO.P,RV3,*%
%TO.N,*%
X75400000Y-121000000D03*
X85000000Y-121000000D03*
%TD*%
D15*
%TO.P,RV1,1*%
%TO.N,Net-(RV1-Pad1)*%
X82700000Y-99000000D03*
D16*
%TO.P,RV1,2*%
%TO.N,Net-(D2-Pad2)*%
X80200000Y-99000000D03*
%TO.P,RV1,3*%
X77700000Y-99000000D03*
D17*
%TO.P,RV1,*%
%TO.N,*%
X75400000Y-91500000D03*
X85000000Y-91500000D03*
%TD*%
%TO.P,RV2,*%
%TO.N,*%
X85050000Y-60000000D03*
X75450000Y-60000000D03*
D16*
%TO.P,RV2,3*%
%TO.N,Net-(C6-Pad1)*%
X77750000Y-67500000D03*
%TO.P,RV2,2*%
%TO.N,Net-(D2-Pad1)*%
X80250000Y-67500000D03*
D15*
%TO.P,RV2,1*%
X82750000Y-67500000D03*
%TD*%
D12*
%TO.P,C3,1*%
%TO.N,Net-(C1-Pad1)*%
X80750000Y-78000000D03*
%TO.P,C3,2*%
%TO.N,GND*%
X78250000Y-78000000D03*
%TD*%
%TO.P,C4,2*%
%TO.N,Net-(C2-Pad2)*%
X87750000Y-76500000D03*
%TO.P,C4,1*%
%TO.N,GND*%
X85250000Y-76500000D03*
%TD*%
%TO.P,C5,1*%
%TO.N,Net-(C5-Pad1)*%
X88000000Y-85500000D03*
%TO.P,C5,2*%
%TO.N,Net-(C5-Pad2)*%
X90500000Y-85500000D03*
%TD*%
%TO.P,C6,2*%
%TO.N,GND*%
X70750000Y-53500000D03*
%TO.P,C6,1*%
%TO.N,Net-(C6-Pad1)*%
X73250000Y-53500000D03*
%TD*%
D15*
%TO.P,D1,1*%
%TO.N,Net-(D1-Pad1)*%
X81500000Y-106800000D03*
D16*
%TO.P,D1,2*%
%TO.N,Net-(D1-Pad2)*%
X78960000Y-106800000D03*
%TD*%
D10*
%TO.P,D2,1*%
%TO.N,Net-(D2-Pad1)*%
X88750000Y-52750000D03*
D11*
%TO.P,D2,2*%
%TO.N,Net-(D2-Pad2)*%
X88750000Y-60370000D03*
%TD*%
%TO.P,IN,1*%
%TO.N,Net-(C5-Pad2)*%
%TA.AperFunction,ComponentPad*%
G36*
G01*
X86630000Y-133850001D02*
X86630000Y-132149999D01*
G75*
G02*
X86879999Y-131900000I249999J0D01*
G01*
X88120001Y-131900000D01*
G75*
G02*
X88370000Y-132149999I0J-249999D01*
G01*
X88370000Y-133850001D01*
G75*
G02*
X88120001Y-134100000I-249999J0D01*
G01*
X86879999Y-134100000D01*
G75*
G02*
X86630000Y-133850001I0J249999D01*
G01*
G37*
%TD.AperFunction*%
D18*
%TO.P,IN,2*%
%TO.N,GND*%
X90040000Y-133000000D03*
%TD*%
%TO.P,J2,2*%
%TO.N,GND*%
X81040000Y-133000000D03*
%TO.P,J2,1*%
%TO.N,Net-(J2-Pad1)*%
%TA.AperFunction,ComponentPad*%
G36*
G01*
X77630000Y-133850001D02*
X77630000Y-132149999D01*
G75*
G02*
X77879999Y-131900000I249999J0D01*
G01*
X79120001Y-131900000D01*
G75*
G02*
X79370000Y-132149999I0J-249999D01*
G01*
X79370000Y-133850001D01*
G75*
G02*
X79120001Y-134100000I-249999J0D01*
G01*
X77879999Y-134100000D01*
G75*
G02*
X77630000Y-133850001I0J249999D01*
G01*
G37*
%TD.AperFunction*%
%TD*%
%TO.P,INV,1*%
%TO.N,Net-(J3-Pad1)*%
%TA.AperFunction,ComponentPad*%
G36*
G01*
X69130000Y-133850001D02*
X69130000Y-132149999D01*
G75*
G02*
X69379999Y-131900000I249999J0D01*
G01*
X70620001Y-131900000D01*
G75*
G02*
X70870000Y-132149999I0J-249999D01*
G01*
X70870000Y-133850001D01*
G75*
G02*
X70620001Y-134100000I-249999J0D01*
G01*
X69379999Y-134100000D01*
G75*
G02*
X69130000Y-133850001I0J249999D01*
G01*
G37*
%TD.AperFunction*%
%TO.P,INV,2*%
%TO.N,GND*%
X72540000Y-133000000D03*
%TD*%
D12*
%TO.P,R1,1*%
%TO.N,Net-(C5-Pad1)*%
X89500000Y-97250000D03*
D11*
%TO.P,R1,2*%
%TO.N,GND*%
X89500000Y-89630000D03*
%TD*%
%TO.P,R2,2*%
%TO.N,Net-(D1-Pad2)*%
X70000000Y-81370000D03*
D12*
%TO.P,R2,1*%
%TO.N,Net-(R2-Pad1)*%
X70000000Y-73750000D03*
%TD*%
D11*
%TO.P,R3,2*%
%TO.N,Net-(D1-Pad1)*%
X71250000Y-65120000D03*
D12*
%TO.P,R3,1*%
%TO.N,GND*%
X71250000Y-57500000D03*
%TD*%
%TO.P,R4,1*%
%TO.N,Net-(D1-Pad2)*%
X76500000Y-113250000D03*
D11*
%TO.P,R4,2*%
%TO.N,Net-(J2-Pad1)*%
X84120000Y-113250000D03*
%TD*%
D12*
%TO.P,R5,1*%
%TO.N,Net-(D1-Pad2)*%
X76250000Y-84500000D03*
D11*
%TO.P,R5,2*%
%TO.N,Net-(R5-Pad2)*%
X83870000Y-84500000D03*
%TD*%
%TO.P,R6,2*%
%TO.N,Net-(R6-Pad2)*%
X71000000Y-92870000D03*
D12*
%TO.P,R6,1*%
%TO.N,Net-(R5-Pad2)*%
X71000000Y-85250000D03*
%TD*%
D11*
%TO.P,R7,2*%
%TO.N,Net-(R7-Pad2)*%
X88750000Y-70370000D03*
D12*
%TO.P,R7,1*%
%TO.N,Net-(D2-Pad1)*%
X88750000Y-62750000D03*
%TD*%
%TO.P,R8,1*%
%TO.N,Net-(R6-Pad2)*%
X71000000Y-95250000D03*
D11*
%TO.P,R8,2*%
%TO.N,Net-(J3-Pad1)*%
X71000000Y-102870000D03*
%TD*%
D12*
%TO.P,R9,1*%
%TO.N,Net-(R7-Pad2)*%
X78000000Y-70300000D03*
D11*
%TO.P,R9,2*%
%TO.N,Net-(R9-Pad2)*%
X70380000Y-70300000D03*
%TD*%
D19*
%TO.P,U1,1*%
%TO.N,Net-(RV1-Pad1)*%
X88750000Y-73500000D03*
D20*
%TO.P,U1,8*%
%TO.N,Net-(D1-Pad2)*%
X73510000Y-81120000D03*
%TO.P,U1,2*%
%TO.N,Net-(RV1-Pad1)*%
X86210000Y-73500000D03*
%TO.P,U1,9*%
%TO.N,Net-(R2-Pad1)*%
X76050000Y-81120000D03*
%TO.P,U1,3*%
%TO.N,Net-(C5-Pad1)*%
X83670000Y-73500000D03*
%TO.P,U1,10*%
%TO.N,GND*%
X78590000Y-81120000D03*
%TO.P,U1,4*%
%TO.N,Net-(C1-Pad1)*%
X81130000Y-73500000D03*
%TO.P,U1,11*%
%TO.N,Net-(C2-Pad2)*%
X81130000Y-81120000D03*
%TO.P,U1,5*%
%TO.N,GND*%
X78590000Y-73500000D03*
%TO.P,U1,12*%
X83670000Y-81120000D03*
%TO.P,U1,6*%
%TO.N,Net-(R7-Pad2)*%
X76050000Y-73500000D03*
%TO.P,U1,13*%
%TO.N,Net-(R5-Pad2)*%
X86210000Y-81120000D03*
%TO.P,U1,7*%
%TO.N,Net-(R9-Pad2)*%
X73510000Y-73500000D03*
%TO.P,U1,14*%
%TO.N,Net-(R6-Pad2)*%
X88750000Y-81120000D03*
%TD*%
D21*
%TO.N,Net-(C2-Pad2)*%
X84655010Y-79594990D02*
X87750000Y-76500000D01*
X82655010Y-79594990D02*
X84655010Y-79594990D01*
X81130000Y-81120000D02*
X82655010Y-79594990D01*
X73504999Y-56015001D02*
X76400000Y-53120000D01*
X73504999Y-67670001D02*
X73504999Y-56015001D01*
X84795010Y-72634006D02*
X83786005Y-71625001D01*
X84795010Y-74076014D02*
X84795010Y-72634006D01*
X86624999Y-75374999D02*
X86093995Y-75374999D01*
X86093995Y-75374999D02*
X84795010Y-74076014D01*
X87750000Y-76500000D02*
X86624999Y-75374999D01*
X83786005Y-71625001D02*
X77459999Y-71625001D01*
X77459999Y-71625001D02*
X73504999Y-67670001D01*
%TO.N,GND*%
X77540000Y-40500000D02*
X77540000Y-37960000D01*
X77540000Y-37960000D02*
X80080000Y-37960000D01*
X80080000Y-37960000D02*
X82620000Y-37960000D01*
X82620000Y-40500000D02*
X80080000Y-40500000D01*
X80080000Y-40500000D02*
X77540000Y-40500000D01*
X80080000Y-37960000D02*
X80080000Y-40500000D01*
X78250000Y-80780000D02*
X78590000Y-81120000D01*
X78250000Y-78000000D02*
X78250000Y-80780000D01*
X81590000Y-76500000D02*
X78590000Y-73500000D01*
X85250000Y-76500000D02*
X81590000Y-76500000D01*
X79750000Y-76500000D02*
X78250000Y-78000000D01*
X85250000Y-76500000D02*
X79750000Y-76500000D01*
%TO.N,Net-(D4-Pad1)*%
X76400000Y-45500000D02*
X76400000Y-44400000D01*
X75000000Y-43000000D02*
X75000000Y-40500000D01*
X76400000Y-44400000D02*
X75000000Y-43000000D01*
X75000000Y-37960000D02*
X75000000Y-40500000D01*
%TO.N,Net-(C5-Pad2)*%
X87500000Y-133000000D02*
X87500000Y-132900000D01*
X90625001Y-85625001D02*
X90500000Y-85500000D01*
X90625001Y-129774999D02*
X90625001Y-85625001D01*
X87500000Y-132900000D02*
X90625001Y-129774999D01*
%TO.N,Net-(D3-Pad2)*%
X85160000Y-43620000D02*
X83400000Y-45380000D01*
X85160000Y-40500000D02*
X85160000Y-43620000D01*
X85160000Y-40500000D02*
X85160000Y-37960000D01*
%TO.N,Net-(R5-Pad2)*%
X72875001Y-83374999D02*
X71000000Y-85250000D01*
X82744999Y-83374999D02*
X72875001Y-83374999D01*
X83870000Y-84500000D02*
X82744999Y-83374999D01*
X86210000Y-82160000D02*
X83870000Y-84500000D01*
X86210000Y-81120000D02*
X86210000Y-82160000D01*
%TO.N,Net-(R6-Pad2)*%
X88750000Y-81520000D02*
X88750000Y-81120000D01*
X86424988Y-83845012D02*
X88750000Y-81520000D01*
X71000000Y-92870000D02*
X71799999Y-93669999D01*
X77650001Y-93669999D02*
X86424988Y-84895012D01*
X71799999Y-93669999D02*
X77650001Y-93669999D01*
X86424988Y-84895012D02*
X86424988Y-83845012D01*
%TO.N,Net-(R7-Pad2)*%
X78130000Y-70370000D02*
X78000000Y-70500000D01*
X78070000Y-70370000D02*
X78000000Y-70300000D01*
X88750000Y-70370000D02*
X78070000Y-70370000D01*
%TO.N,Net-(D2-Pad1)*%
X82750000Y-67500000D02*
X80250000Y-67500000D01*
%TO.N,Net-(D2-Pad2)*%
X87459999Y-84374999D02*
X88425001Y-84374999D01*
X80200000Y-92700000D02*
X86874999Y-86025001D01*
X80200000Y-99000000D02*
X80200000Y-92700000D01*
X86874999Y-84959999D02*
X87459999Y-84374999D01*
X86874999Y-86025001D02*
X86874999Y-84959999D01*
X88425001Y-84374999D02*
X90900000Y-81900000D01*
X90900000Y-62520000D02*
X88750000Y-60370000D01*
X90900000Y-81900000D02*
X90900000Y-62520000D01*
X80200000Y-99000000D02*
X77700000Y-99000000D01*
%TO.N,Net-(R2-Pad1)*%
X80200000Y-128500000D02*
X82700000Y-128500000D01*
%TO.N,Net-(R9-Pad2)*%
X73510000Y-73500000D02*
X73380000Y-73500000D01*
X73510000Y-73430000D02*
X70380000Y-70300000D01*
X73510000Y-73500000D02*
X73510000Y-73430000D01*
%TO.N,Net-(RV1-Pad1)*%
X88750000Y-73500000D02*
X86210000Y-73500000D01*
%TD*%
D22*
%TO.N,Net-(D1-Pad2)*%
X91267134Y-61812332D02*
X90148688Y-60693886D01*
X90185000Y-60511335D01*
X90185000Y-60228665D01*
X90129853Y-59951426D01*
X90021680Y-59690273D01*
X89864637Y-59455241D01*
X89664759Y-59255363D01*
X89429727Y-59098320D01*
X89168574Y-58990147D01*
X88891335Y-58935000D01*
X88608665Y-58935000D01*
X88331426Y-58990147D01*
X88070273Y-59098320D01*
X87835241Y-59255363D01*
X87635363Y-59455241D01*
X87478320Y-59690273D01*
X87370147Y-59951426D01*
X87315000Y-60228665D01*
X87315000Y-60511335D01*
X87370147Y-60788574D01*
X87478320Y-61049727D01*
X87635363Y-61284759D01*
X87835241Y-61484637D01*
X87948030Y-61560000D01*
X87835241Y-61635363D01*
X87635363Y-61835241D01*
X87478320Y-62070273D01*
X87370147Y-62331426D01*
X87315000Y-62608665D01*
X87315000Y-62891335D01*
X87370147Y-63168574D01*
X87478320Y-63429727D01*
X87635363Y-63664759D01*
X87835241Y-63864637D01*
X88070273Y-64021680D01*
X88331426Y-64129853D01*
X88608665Y-64185000D01*
X88891335Y-64185000D01*
X89168574Y-64129853D01*
X89429727Y-64021680D01*
X89664759Y-63864637D01*
X89864637Y-63664759D01*
X90021680Y-63429727D01*
X90129853Y-63168574D01*
X90140001Y-63117557D01*
X90140001Y-70002441D01*
X90129853Y-69951426D01*
X90021680Y-69690273D01*
X89864637Y-69455241D01*
X89664759Y-69255363D01*
X89429727Y-69098320D01*
X89168574Y-68990147D01*
X88891335Y-68935000D01*
X88608665Y-68935000D01*
X88331426Y-68990147D01*
X88070273Y-69098320D01*
X87835241Y-69255363D01*
X87635363Y-69455241D01*
X87531957Y-69610000D01*
X79264816Y-69610000D01*
X79114637Y-69385241D01*
X78914759Y-69185363D01*
X78679727Y-69028320D01*
X78418574Y-68920147D01*
X78360499Y-68908595D01*
X78477095Y-68860299D01*
X78728505Y-68692312D01*
X78942312Y-68478505D01*
X79000000Y-68392169D01*
X79057688Y-68478505D01*
X79271495Y-68692312D01*
X79522905Y-68860299D01*
X79802257Y-68976011D01*
X80098816Y-69035000D01*
X80401184Y-69035000D01*
X80697743Y-68976011D01*
X80977095Y-68860299D01*
X81228505Y-68692312D01*
X81266120Y-68654697D01*
X81319463Y-68754494D01*
X81398815Y-68851185D01*
X81495506Y-68930537D01*
X81605820Y-68989502D01*
X81725518Y-69025812D01*
X81850000Y-69038072D01*
X83650000Y-69038072D01*
X83774482Y-69025812D01*
X83894180Y-68989502D01*
X84004494Y-68930537D01*
X84101185Y-68851185D01*
X84180537Y-68754494D01*
X84239502Y-68644180D01*
X84275812Y-68524482D01*
X84288072Y-68400000D01*
X84288072Y-66600000D01*
X84275812Y-66475518D01*
X84239502Y-66355820D01*
X84180537Y-66245506D01*
X84101185Y-66148815D01*
X84004494Y-66069463D01*
X83894180Y-66010498D01*
X83774482Y-65974188D01*
X83650000Y-65961928D01*
X81850000Y-65961928D01*
X81725518Y-65974188D01*
X81605820Y-66010498D01*
X81495506Y-66069463D01*
X81398815Y-66148815D01*
X81319463Y-66245506D01*
X81266120Y-66345303D01*
X81228505Y-66307688D01*
X80977095Y-66139701D01*
X80697743Y-66023989D01*
X80401184Y-65965000D01*
X80098816Y-65965000D01*
X79802257Y-66023989D01*
X79522905Y-66139701D01*
X79271495Y-66307688D01*
X79057688Y-66521495D01*
X79000000Y-66607831D01*
X78942312Y-66521495D01*
X78728505Y-66307688D01*
X78477095Y-66139701D01*
X78197743Y-66023989D01*
X77901184Y-65965000D01*
X77598816Y-65965000D01*
X77302257Y-66023989D01*
X77022905Y-66139701D01*
X76771495Y-66307688D01*
X76557688Y-66521495D01*
X76389701Y-66772905D01*
X76273989Y-67052257D01*
X76215000Y-67348816D01*
X76215000Y-67651184D01*
X76273989Y-67947743D01*
X76389701Y-68227095D01*
X76557688Y-68478505D01*
X76771495Y-68692312D01*
X77022905Y-68860299D01*
X77302257Y-68976011D01*
X77399744Y-68995402D01*
X77320273Y-69028320D01*
X77085241Y-69185363D01*
X76885363Y-69385241D01*
X76728320Y-69620273D01*
X76670255Y-69760455D01*
X74264999Y-67355200D01*
X74264999Y-61920273D01*
X74381857Y-61998355D01*
X74792241Y-62168342D01*
X75227902Y-62255000D01*
X75672098Y-62255000D01*
X76107759Y-62168342D01*
X76518143Y-61998355D01*
X76887479Y-61751573D01*
X77201573Y-61437479D01*
X77448355Y-61068143D01*
X77618342Y-60657759D01*
X77705000Y-60222098D01*
X77705000Y-59777902D01*
X82795000Y-59777902D01*
X82795000Y-60222098D01*
X82881658Y-60657759D01*
X83051645Y-61068143D01*
X83298427Y-61437479D01*
X83612521Y-61751573D01*
X83981857Y-61998355D01*
X84392241Y-62168342D01*
X84827902Y-62255000D01*
X85272098Y-62255000D01*
X85707759Y-62168342D01*
X86118143Y-61998355D01*
X86487479Y-61751573D01*
X86801573Y-61437479D01*
X87048355Y-61068143D01*
X87218342Y-60657759D01*
X87305000Y-60222098D01*
X87305000Y-59777902D01*
X87218342Y-59342241D01*
X87048355Y-58931857D01*
X86801573Y-58562521D01*
X86487479Y-58248427D01*
X86118143Y-58001645D01*
X85707759Y-57831658D01*
X85272098Y-57745000D01*
X84827902Y-57745000D01*
X84392241Y-57831658D01*
X83981857Y-58001645D01*
X83612521Y-58248427D01*
X83298427Y-58562521D01*
X83051645Y-58931857D01*
X82881658Y-59342241D01*
X82795000Y-59777902D01*
X77705000Y-59777902D01*
X77618342Y-59342241D01*
X77448355Y-58931857D01*
X77201573Y-58562521D01*
X76887479Y-58248427D01*
X76518143Y-58001645D01*
X76107759Y-57831658D01*
X75672098Y-57745000D01*
X75227902Y-57745000D01*
X74792241Y-57831658D01*
X74381857Y-58001645D01*
X74264999Y-58079727D01*
X74264999Y-56329802D01*
X76076114Y-54518688D01*
X76258665Y-54555000D01*
X76541335Y-54555000D01*
X76818574Y-54499853D01*
X77079727Y-54391680D01*
X77314759Y-54234637D01*
X77514637Y-54034759D01*
X77671680Y-53799727D01*
X77779853Y-53538574D01*
X77835000Y-53261335D01*
X77835000Y-52978665D01*
X77779853Y-52701426D01*
X77671680Y-52440273D01*
X77514637Y-52205241D01*
X77509396Y-52200000D01*
X81961928Y-52200000D01*
X81961928Y-53800000D01*
X81974188Y-53924482D01*
X82010498Y-54044180D01*
X82069463Y-54154494D01*
X82148815Y-54251185D01*
X82245506Y-54330537D01*
X82355820Y-54389502D01*
X82475518Y-54425812D01*
X82600000Y-54438072D01*
X84200000Y-54438072D01*
X84324482Y-54425812D01*
X84444180Y-54389502D01*
X84554494Y-54330537D01*
X84651185Y-54251185D01*
X84730537Y-54154494D01*
X84789502Y-54044180D01*
X84825812Y-53924482D01*
X84838072Y-53800000D01*
X84838072Y-52200000D01*
X84825812Y-52075518D01*
X84789502Y-51955820D01*
X84786392Y-51950000D01*
X87311928Y-51950000D01*
X87311928Y-53550000D01*
X87324188Y-53674482D01*
X87360498Y-53794180D01*
X87419463Y-53904494D01*
X87498815Y-54001185D01*
X87595506Y-54080537D01*
X87705820Y-54139502D01*
X87825518Y-54175812D01*
X87950000Y-54188072D01*
X89550000Y-54188072D01*
X89674482Y-54175812D01*
X89794180Y-54139502D01*
X89904494Y-54080537D01*
X90001185Y-54001185D01*
X90080537Y-53904494D01*
X90139502Y-53794180D01*
X90175812Y-53674482D01*
X90188072Y-53550000D01*
X90188072Y-51950000D01*
X90175812Y-51825518D01*
X90139502Y-51705820D01*
X90080537Y-51595506D01*
X90001185Y-51498815D01*
X89904494Y-51419463D01*
X89794180Y-51360498D01*
X89674482Y-51324188D01*
X89550000Y-51311928D01*
X87950000Y-51311928D01*
X87825518Y-51324188D01*
X87705820Y-51360498D01*
X87595506Y-51419463D01*
X87498815Y-51498815D01*
X87419463Y-51595506D01*
X87360498Y-51705820D01*
X87324188Y-51825518D01*
X87311928Y-51950000D01*
X84786392Y-51950000D01*
X84730537Y-51845506D01*
X84651185Y-51748815D01*
X84554494Y-51669463D01*
X84444180Y-51610498D01*
X84324482Y-51574188D01*
X84200000Y-51561928D01*
X82600000Y-51561928D01*
X82475518Y-51574188D01*
X82355820Y-51610498D01*
X82245506Y-51669463D01*
X82148815Y-51748815D01*
X82069463Y-51845506D01*
X82010498Y-51955820D01*
X81974188Y-52075518D01*
X81961928Y-52200000D01*
X77509396Y-52200000D01*
X77314759Y-52005363D01*
X77079727Y-51848320D01*
X76818574Y-51740147D01*
X76541335Y-51685000D01*
X76258665Y-51685000D01*
X75981426Y-51740147D01*
X75720273Y-51848320D01*
X75485241Y-52005363D01*
X75285363Y-52205241D01*
X75128320Y-52440273D01*
X75020147Y-52701426D01*
X74965000Y-52978665D01*
X74965000Y-53261335D01*
X75001312Y-53443886D01*
X74655485Y-53789713D01*
X74685000Y-53641335D01*
X74685000Y-53358665D01*
X74629853Y-53081426D01*
X74521680Y-52820273D01*
X74364637Y-52585241D01*
X74164759Y-52385363D01*
X73929727Y-52228320D01*
X73668574Y-52120147D01*
X73391335Y-52065000D01*
X73108665Y-52065000D01*
X72831426Y-52120147D01*
X72570273Y-52228320D01*
X72335241Y-52385363D01*
X72135363Y-52585241D01*
X72000000Y-52787827D01*
X71864637Y-52585241D01*
X71664759Y-52385363D01*
X71429727Y-52228320D01*
X71168574Y-52120147D01*
X70891335Y-52065000D01*
X70608665Y-52065000D01*
X70331426Y-52120147D01*
X70070273Y-52228320D01*
X69835241Y-52385363D01*
X69635363Y-52585241D01*
X69478320Y-52820273D01*
X69370147Y-53081426D01*
X69315000Y-53358665D01*
X69315000Y-53641335D01*
X69370147Y-53918574D01*
X69478320Y-54179727D01*
X69635363Y-54414759D01*
X69835241Y-54614637D01*
X70070273Y-54771680D01*
X70331426Y-54879853D01*
X70608665Y-54935000D01*
X70891335Y-54935000D01*
X71168574Y-54879853D01*
X71429727Y-54771680D01*
X71664759Y-54614637D01*
X71864637Y-54414759D01*
X72000000Y-54212173D01*
X72135363Y-54414759D01*
X72335241Y-54614637D01*
X72570273Y-54771680D01*
X72831426Y-54879853D01*
X73108665Y-54935000D01*
X73391335Y-54935000D01*
X73539714Y-54905485D01*
X72993997Y-55451202D01*
X72964999Y-55475000D01*
X72941201Y-55503998D01*
X72941200Y-55503999D01*
X72870025Y-55590725D01*
X72799453Y-55722755D01*
X72755997Y-55866016D01*
X72741323Y-56015001D01*
X72745000Y-56052333D01*
X72744999Y-67632679D01*
X72741323Y-67670001D01*
X72744999Y-67707323D01*
X72744999Y-67707333D01*
X72755996Y-67818986D01*
X72787935Y-67924276D01*
X72799453Y-67962247D01*
X72870025Y-68094277D01*
X72903425Y-68134974D01*
X72964998Y-68210002D01*
X72994002Y-68233805D01*
X76495882Y-71735686D01*
X76331309Y-71685764D01*
X76050000Y-71658057D01*
X75768692Y-71685764D01*
X75498193Y-71767818D01*
X75248900Y-71901068D01*
X75030393Y-72080392D01*
X74851068Y-72298899D01*
X74780000Y-72431858D01*
X74708932Y-72298899D01*
X74529608Y-72080392D01*
X74311101Y-71901068D01*
X74061808Y-71767818D01*
X73791309Y-71685764D01*
X73510000Y-71658057D01*
X73228692Y-71685764D01*
X72958193Y-71767818D01*
X72935011Y-71780209D01*
X71778688Y-70623886D01*
X71815000Y-70441335D01*
X71815000Y-70158665D01*
X71759853Y-69881426D01*
X71651680Y-69620273D01*
X71494637Y-69385241D01*
X71294759Y-69185363D01*
X71059727Y-69028320D01*
X70798574Y-68920147D01*
X70521335Y-68865000D01*
X70238665Y-68865000D01*
X69961426Y-68920147D01*
X69700273Y-69028320D01*
X69465241Y-69185363D01*
X69265363Y-69385241D01*
X69108320Y-69620273D01*
X69000147Y-69881426D01*
X68945000Y-70158665D01*
X68945000Y-70441335D01*
X69000147Y-70718574D01*
X69108320Y-70979727D01*
X69265363Y-71214759D01*
X69465241Y-71414637D01*
X69700273Y-71571680D01*
X69961426Y-71679853D01*
X70238665Y-71735000D01*
X70521335Y-71735000D01*
X70703886Y-71698688D01*
X72075000Y-73069802D01*
X72075000Y-73970491D01*
X72095764Y-74181308D01*
X72177818Y-74451807D01*
X72311068Y-74701100D01*
X72490392Y-74919607D01*
X72708899Y-75098932D01*
X72958192Y-75232182D01*
X73228691Y-75314236D01*
X73510000Y-75341943D01*
X73791308Y-75314236D01*
X74061807Y-75232182D01*
X74311100Y-75098932D01*
X74529607Y-74919608D01*
X74708932Y-74701101D01*
X74780000Y-74568142D01*
X74851068Y-74701100D01*
X75030392Y-74919607D01*
X75248899Y-75098932D01*
X75498192Y-75232182D01*
X75768691Y-75314236D01*
X76050000Y-75341943D01*
X76331308Y-75314236D01*
X76601807Y-75232182D01*
X76851100Y-75098932D01*
X77069607Y-74919608D01*
X77248932Y-74701101D01*
X77320000Y-74568142D01*
X77391068Y-74701100D01*
X77570392Y-74919607D01*
X77788899Y-75098932D01*
X78038192Y-75232182D01*
X78308691Y-75314236D01*
X78590000Y-75341943D01*
X78871308Y-75314236D01*
X79141807Y-75232182D01*
X79210606Y-75195408D01*
X79751689Y-75736490D01*
X79749999Y-75736324D01*
X79712676Y-75740000D01*
X79712667Y-75740000D01*
X79601014Y-75750997D01*
X79457753Y-75794454D01*
X79325724Y-75865026D01*
X79209999Y-75959999D01*
X79186201Y-75988997D01*
X78573886Y-76601312D01*
X78391335Y-76565000D01*
X78108665Y-76565000D01*
X77831426Y-76620147D01*
X77570273Y-76728320D01*
X77335241Y-76885363D01*
X77135363Y-77085241D01*
X76978320Y-77320273D01*
X76870147Y-77581426D01*
X76815000Y-77858665D01*
X76815000Y-78141335D01*
X76870147Y-78418574D01*
X76978320Y-78679727D01*
X77135363Y-78914759D01*
X77335241Y-79114637D01*
X77490000Y-79218044D01*
X77490001Y-79798350D01*
X77391068Y-79918899D01*
X77320000Y-80051858D01*
X77248932Y-79918899D01*
X77069608Y-79700392D01*
X76851101Y-79521068D01*
X76601808Y-79387818D01*
X76331309Y-79305764D01*
X76050000Y-79278057D01*
X75768692Y-79305764D01*
X75498193Y-79387818D01*
X75248900Y-79521068D01*
X75030393Y-79700392D01*
X74851068Y-79918899D01*
X74782735Y-80046741D01*
X74632601Y-79817161D01*
X74434895Y-79615500D01*
X74201646Y-79456285D01*
X73941818Y-79345633D01*
X73859039Y-79328096D01*
X73637000Y-79450085D01*
X73637000Y-80993000D01*
X73657000Y-80993000D01*
X73657000Y-81247000D01*
X73637000Y-81247000D01*
X73637000Y-81267000D01*
X73383000Y-81267000D01*
X73383000Y-81247000D01*
X72075000Y-81247000D01*
X72075000Y-81647000D01*
X72127350Y-81924514D01*
X72232834Y-82186483D01*
X72387399Y-82422839D01*
X72585105Y-82624500D01*
X72629976Y-82655129D01*
X72582754Y-82669453D01*
X72450725Y-82740025D01*
X72335000Y-82834998D01*
X72311202Y-82863996D01*
X71323886Y-83851312D01*
X71141335Y-83815000D01*
X70858665Y-83815000D01*
X70581426Y-83870147D01*
X70320273Y-83978320D01*
X70085241Y-84135363D01*
X69885363Y-84335241D01*
X69728320Y-84570273D01*
X69620147Y-84831426D01*
X69565000Y-85108665D01*
X69565000Y-85391335D01*
X69620147Y-85668574D01*
X69728320Y-85929727D01*
X69885363Y-86164759D01*
X70085241Y-86364637D01*
X70320273Y-86521680D01*
X70581426Y-86629853D01*
X70858665Y-86685000D01*
X71141335Y-86685000D01*
X71418574Y-86629853D01*
X71679727Y-86521680D01*
X71914759Y-86364637D01*
X72114637Y-86164759D01*
X72271680Y-85929727D01*
X72379853Y-85668574D01*
X72414836Y-85492702D01*
X75436903Y-85492702D01*
X75508486Y-85736671D01*
X75763996Y-85857571D01*
X76038184Y-85926300D01*
X76320512Y-85940217D01*
X76600130Y-85898787D01*
X76866292Y-85803603D01*
X76991514Y-85736671D01*
X77063097Y-85492702D01*
X76250000Y-84679605D01*
X75436903Y-85492702D01*
X72414836Y-85492702D01*
X72435000Y-85391335D01*
X72435000Y-85108665D01*
X72398688Y-84926114D01*
X73189803Y-84134999D01*
X74862098Y-84134999D01*
X74823700Y-84288184D01*
X74809783Y-84570512D01*
X74851213Y-84850130D01*
X74946397Y-85116292D01*
X75013329Y-85241514D01*
X75257298Y-85313097D01*
X76070395Y-84500000D01*
X76056253Y-84485858D01*
X76235858Y-84306253D01*
X76250000Y-84320395D01*
X76264143Y-84306253D01*
X76443748Y-84485858D01*
X76429605Y-84500000D01*
X77242702Y-85313097D01*
X77486671Y-85241514D01*
X77607571Y-84986004D01*
X77676300Y-84711816D01*
X77690217Y-84429488D01*
X77648787Y-84149870D01*
X77643469Y-84134999D01*
X82430198Y-84134999D01*
X82471312Y-84176113D01*
X82435000Y-84358665D01*
X82435000Y-84641335D01*
X82490147Y-84918574D01*
X82598320Y-85179727D01*
X82755363Y-85414759D01*
X82955241Y-85614637D01*
X83190273Y-85771680D01*
X83451426Y-85879853D01*
X83728665Y-85935000D01*
X84011335Y-85935000D01*
X84288574Y-85879853D01*
X84419630Y-85825568D01*
X77335200Y-92909999D01*
X77169935Y-92909999D01*
X77398355Y-92568143D01*
X77568342Y-92157759D01*
X77655000Y-91722098D01*
X77655000Y-91277902D01*
X77568342Y-90842241D01*
X77398355Y-90431857D01*
X77151573Y-90062521D01*
X76837479Y-89748427D01*
X76468143Y-89501645D01*
X76057759Y-89331658D01*
X75622098Y-89245000D01*
X75177902Y-89245000D01*
X74742241Y-89331658D01*
X74331857Y-89501645D01*
X73962521Y-89748427D01*
X73648427Y-90062521D01*
X73401645Y-90431857D01*
X73231658Y-90842241D01*
X73145000Y-91277902D01*
X73145000Y-91722098D01*
X73231658Y-92157759D01*
X73401645Y-92568143D01*
X73630065Y-92909999D01*
X72435000Y-92909999D01*
X72435000Y-92728665D01*
X72379853Y-92451426D01*
X72271680Y-92190273D01*
X72114637Y-91955241D01*
X71914759Y-91755363D01*
X71679727Y-91598320D01*
X71418574Y-91490147D01*
X71141335Y-91435000D01*
X70858665Y-91435000D01*
X70581426Y-91490147D01*
X70320273Y-91598320D01*
X70085241Y-91755363D01*
X69885363Y-91955241D01*
X69728320Y-92190273D01*
X69620147Y-92451426D01*
X69565000Y-92728665D01*
X69565000Y-93011335D01*
X69620147Y-93288574D01*
X69728320Y-93549727D01*
X69885363Y-93784759D01*
X70085241Y-93984637D01*
X70198030Y-94060000D01*
X70085241Y-94135363D01*
X69885363Y-94335241D01*
X69728320Y-94570273D01*
X69620147Y-94831426D01*
X69565000Y-95108665D01*
X69565000Y-95391335D01*
X69620147Y-95668574D01*
X69728320Y-95929727D01*
X69885363Y-96164759D01*
X70085241Y-96364637D01*
X70320273Y-96521680D01*
X70581426Y-96629853D01*
X70858665Y-96685000D01*
X71141335Y-96685000D01*
X71418574Y-96629853D01*
X71679727Y-96521680D01*
X71914759Y-96364637D01*
X72114637Y-96164759D01*
X72271680Y-95929727D01*
X72379853Y-95668574D01*
X72435000Y-95391335D01*
X72435000Y-95108665D01*
X72379853Y-94831426D01*
X72271680Y-94570273D01*
X72177952Y-94429999D01*
X77612679Y-94429999D01*
X77650001Y-94433675D01*
X77687323Y-94429999D01*
X77687334Y-94429999D01*
X77798987Y-94419002D01*
X77942248Y-94375545D01*
X78074277Y-94304973D01*
X78190002Y-94210000D01*
X78213805Y-94180996D01*
X79440001Y-92954800D01*
X79440000Y-97661687D01*
X79221495Y-97807688D01*
X79007688Y-98021495D01*
X78950000Y-98107831D01*
X78892312Y-98021495D01*
X78678505Y-97807688D01*
X78427095Y-97639701D01*
X78147743Y-97523989D01*
X77851184Y-97465000D01*
X77548816Y-97465000D01*
X77252257Y-97523989D01*
X76972905Y-97639701D01*
X76721495Y-97807688D01*
X76507688Y-98021495D01*
X76339701Y-98272905D01*
X76223989Y-98552257D01*
X76165000Y-98848816D01*
X76165000Y-99151184D01*
X76223989Y-99447743D01*
X76339701Y-99727095D01*
X76507688Y-99978505D01*
X76721495Y-100192312D01*
X76972905Y-100360299D01*
X77252257Y-100476011D01*
X77548816Y-100535000D01*
X77851184Y-100535000D01*
X78147743Y-100476011D01*
X78427095Y-100360299D01*
X78678505Y-100192312D01*
X78892312Y-99978505D01*
X78950000Y-99892169D01*
X79007688Y-99978505D01*
X79221495Y-100192312D01*
X79472905Y-100360299D01*
X79752257Y-100476011D01*
X80048816Y-100535000D01*
X80351184Y-100535000D01*
X80647743Y-100476011D01*
X80927095Y-100360299D01*
X81178505Y-100192312D01*
X81216120Y-100154697D01*
X81269463Y-100254494D01*
X81348815Y-100351185D01*
X81445506Y-100430537D01*
X81555820Y-100489502D01*
X81675518Y-100525812D01*
X81800000Y-100538072D01*
X83600000Y-100538072D01*
X83724482Y-100525812D01*
X83844180Y-100489502D01*
X83954494Y-100430537D01*
X84051185Y-100351185D01*
X84130537Y-100254494D01*
X84189502Y-100144180D01*
X84225812Y-100024482D01*
X84238072Y-99900000D01*
X84238072Y-98100000D01*
X84225812Y-97975518D01*
X84189502Y-97855820D01*
X84130537Y-97745506D01*
X84051185Y-97648815D01*
X83954494Y-97569463D01*
X83844180Y-97510498D01*
X83724482Y-97474188D01*
X83600000Y-97461928D01*
X81800000Y-97461928D01*
X81675518Y-97474188D01*
X81555820Y-97510498D01*
X81445506Y-97569463D01*
X81348815Y-97648815D01*
X81269463Y-97745506D01*
X81216120Y-97845303D01*
X81178505Y-97807688D01*
X80960000Y-97661687D01*
X80960000Y-93014801D01*
X82756943Y-91217858D01*
X82745000Y-91277902D01*
X82745000Y-91722098D01*
X82831658Y-92157759D01*
X83001645Y-92568143D01*
X83248427Y-92937479D01*
X83562521Y-93251573D01*
X83931857Y-93498355D01*
X84342241Y-93668342D01*
X84777902Y-93755000D01*
X85222098Y-93755000D01*
X85657759Y-93668342D01*
X86068143Y-93498355D01*
X86437479Y-93251573D01*
X86751573Y-92937479D01*
X86998355Y-92568143D01*
X87168342Y-92157759D01*
X87255000Y-91722098D01*
X87255000Y-91277902D01*
X87168342Y-90842241D01*
X86998355Y-90431857D01*
X86751573Y-90062521D01*
X86437479Y-89748427D01*
X86068143Y-89501645D01*
X85657759Y-89331658D01*
X85222098Y-89245000D01*
X84777902Y-89245000D01*
X84717858Y-89256943D01*
X87250046Y-86724756D01*
X87320273Y-86771680D01*
X87581426Y-86879853D01*
X87858665Y-86935000D01*
X88141335Y-86935000D01*
X88418574Y-86879853D01*
X88679727Y-86771680D01*
X88914759Y-86614637D01*
X89114637Y-86414759D01*
X89250000Y-86212173D01*
X89385363Y-86414759D01*
X89585241Y-86614637D01*
X89820273Y-86771680D01*
X89865002Y-86790207D01*
X89865002Y-88239491D01*
X89641335Y-88195000D01*
X89358665Y-88195000D01*
X89081426Y-88250147D01*
X88820273Y-88358320D01*
X88585241Y-88515363D01*
X88385363Y-88715241D01*
X88228320Y-88950273D01*
X88120147Y-89211426D01*
X88065000Y-89488665D01*
X88065000Y-89771335D01*
X88120147Y-90048574D01*
X88228320Y-90309727D01*
X88385363Y-90544759D01*
X88585241Y-90744637D01*
X88820273Y-90901680D01*
X89081426Y-91009853D01*
X89358665Y-91065000D01*
X89641335Y-91065000D01*
X89865002Y-91020509D01*
X89865002Y-95859491D01*
X89641335Y-95815000D01*
X89358665Y-95815000D01*
X89081426Y-95870147D01*
X88820273Y-95978320D01*
X88585241Y-96135363D01*
X88385363Y-96335241D01*
X88228320Y-96570273D01*
X88120147Y-96831426D01*
X88065000Y-97108665D01*
X88065000Y-97391335D01*
X88120147Y-97668574D01*
X88228320Y-97929727D01*
X88385363Y-98164759D01*
X88585241Y-98364637D01*
X88820273Y-98521680D01*
X89081426Y-98629853D01*
X89358665Y-98685000D01*
X89641335Y-98685000D01*
X89865002Y-98640509D01*
X89865002Y-104018279D01*
X89736038Y-103825271D01*
X89424729Y-103513962D01*
X89058669Y-103269369D01*
X88651925Y-103100890D01*
X88220128Y-103015000D01*
X87779872Y-103015000D01*
X87348075Y-103100890D01*
X86941331Y-103269369D01*
X86575271Y-103513962D01*
X86263962Y-103825271D01*
X86019369Y-104191331D01*
X85850890Y-104598075D01*
X85765000Y-105029872D01*
X85765000Y-105470128D01*
X85850890Y-105901925D01*
X86019369Y-106308669D01*
X86263962Y-106674729D01*
X86575271Y-106986038D01*
X86941331Y-107230631D01*
X87348075Y-107399110D01*
X87779872Y-107485000D01*
X88220128Y-107485000D01*
X88651925Y-107399110D01*
X89058669Y-107230631D01*
X89424729Y-106986038D01*
X89736038Y-106674729D01*
X89865002Y-106481721D01*
X89865001Y-129460197D01*
X88063271Y-131261928D01*
X86879999Y-131261928D01*
X86706745Y-131278992D01*
X86540149Y-131329528D01*
X86386613Y-131411595D01*
X86252038Y-131522038D01*
X86141595Y-131656613D01*
X86059528Y-131810149D01*
X86008992Y-131976745D01*
X85991928Y-132149999D01*
X85991928Y-133850001D01*
X86008992Y-134023255D01*
X86059528Y-134189851D01*
X86141595Y-134343387D01*
X86252038Y-134477962D01*
X86386613Y-134588405D01*
X86540149Y-134670472D01*
X86706745Y-134721008D01*
X86879999Y-134738072D01*
X88120001Y-134738072D01*
X88293255Y-134721008D01*
X88459851Y-134670472D01*
X88613387Y-134588405D01*
X88747962Y-134477962D01*
X88858405Y-134343387D01*
X88916934Y-134233886D01*
X88970655Y-134299345D01*
X89199822Y-134487417D01*
X89461276Y-134627166D01*
X89744969Y-134713224D01*
X90040000Y-134742282D01*
X90335032Y-134713224D01*
X90618725Y-134627166D01*
X90880179Y-134487417D01*
X91109345Y-134299345D01*
X91297417Y-134070179D01*
X91337556Y-133995083D01*
X91339356Y-135840000D01*
X68560000Y-135840000D01*
X68560000Y-134190734D01*
X68641595Y-134343387D01*
X68752038Y-134477962D01*
X68886613Y-134588405D01*
X69040149Y-134670472D01*
X69206745Y-134721008D01*
X69379999Y-134738072D01*
X70620001Y-134738072D01*
X70793255Y-134721008D01*
X70959851Y-134670472D01*
X71113387Y-134588405D01*
X71247962Y-134477962D01*
X71358405Y-134343387D01*
X71416934Y-134233886D01*
X71470655Y-134299345D01*
X71699822Y-134487417D01*
X71961276Y-134627166D01*
X72244969Y-134713224D01*
X72540000Y-134742282D01*
X72835032Y-134713224D01*
X73118725Y-134627166D01*
X73380179Y-134487417D01*
X73609345Y-134299345D01*
X73797417Y-134070179D01*
X73937166Y-133808724D01*
X74023224Y-133525031D01*
X74045000Y-133303935D01*
X74045000Y-132696064D01*
X74023224Y-132474968D01*
X73937166Y-132191275D01*
X73915104Y-132149999D01*
X76991928Y-132149999D01*
X76991928Y-133850001D01*
X77008992Y-134023255D01*
X77059528Y-134189851D01*
X77141595Y-134343387D01*
X77252038Y-134477962D01*
X77386613Y-134588405D01*
X77540149Y-134670472D01*
X77706745Y-134721008D01*
X77879999Y-134738072D01*
X79120001Y-134738072D01*
X79293255Y-134721008D01*
X79459851Y-134670472D01*
X79613387Y-134588405D01*
X79747962Y-134477962D01*
X79858405Y-134343387D01*
X79916934Y-134233886D01*
X79970655Y-134299345D01*
X80199822Y-134487417D01*
X80461276Y-134627166D01*
X80744969Y-134713224D01*
X81040000Y-134742282D01*
X81335032Y-134713224D01*
X81618725Y-134627166D01*
X81880179Y-134487417D01*
X82109345Y-134299345D01*
X82297417Y-134070179D01*
X82437166Y-133808724D01*
X82523224Y-133525031D01*
X82545000Y-133303935D01*
X82545000Y-132696064D01*
X82523224Y-132474968D01*
X82437166Y-132191275D01*
X82297417Y-131929821D01*
X82109345Y-131700655D01*
X81880178Y-131512583D01*
X81618724Y-131372834D01*
X81335031Y-131286776D01*
X81040000Y-131257718D01*
X80744968Y-131286776D01*
X80461275Y-131372834D01*
X80199821Y-131512583D01*
X79970655Y-131700655D01*
X79916935Y-131766114D01*
X79858405Y-131656613D01*
X79747962Y-131522038D01*
X79613387Y-131411595D01*
X79459851Y-131329528D01*
X79293255Y-131278992D01*
X79120001Y-131261928D01*
X77879999Y-131261928D01*
X77706745Y-131278992D01*
X77540149Y-131329528D01*
X77386613Y-131411595D01*
X77252038Y-131522038D01*
X77141595Y-131656613D01*
X77059528Y-131810149D01*
X77008992Y-131976745D01*
X76991928Y-132149999D01*
X73915104Y-132149999D01*
X73797417Y-131929821D01*
X73609345Y-131700655D01*
X73380178Y-131512583D01*
X73118724Y-131372834D01*
X72835031Y-131286776D01*
X72540000Y-131257718D01*
X72244968Y-131286776D01*
X71961275Y-131372834D01*
X71699821Y-131512583D01*
X71470655Y-131700655D01*
X71416935Y-131766114D01*
X71358405Y-131656613D01*
X71247962Y-131522038D01*
X71113387Y-131411595D01*
X70959851Y-131329528D01*
X70793255Y-131278992D01*
X70620001Y-131261928D01*
X69379999Y-131261928D01*
X69206745Y-131278992D01*
X69040149Y-131329528D01*
X68886613Y-131411595D01*
X68752038Y-131522038D01*
X68641595Y-131656613D01*
X68560000Y-131809266D01*
X68560000Y-128348816D01*
X76165000Y-128348816D01*
X76165000Y-128651184D01*
X76223989Y-128947743D01*
X76339701Y-129227095D01*
X76507688Y-129478505D01*
X76721495Y-129692312D01*
X76972905Y-129860299D01*
X77252257Y-129976011D01*
X77548816Y-130035000D01*
X77851184Y-130035000D01*
X78147743Y-129976011D01*
X78427095Y-129860299D01*
X78678505Y-129692312D01*
X78892312Y-129478505D01*
X78950000Y-129392169D01*
X79007688Y-129478505D01*
X79221495Y-129692312D01*
X79472905Y-129860299D01*
X79752257Y-129976011D01*
X80048816Y-130035000D01*
X80351184Y-130035000D01*
X80647743Y-129976011D01*
X80927095Y-129860299D01*
X81178505Y-129692312D01*
X81216120Y-129654697D01*
X81269463Y-129754494D01*
X81348815Y-129851185D01*
X81445506Y-129930537D01*
X81555820Y-129989502D01*
X81675518Y-130025812D01*
X81800000Y-130038072D01*
X83600000Y-130038072D01*
X83724482Y-130025812D01*
X83844180Y-129989502D01*
X83954494Y-129930537D01*
X84051185Y-129851185D01*
X84130537Y-129754494D01*
X84189502Y-129644180D01*
X84225812Y-129524482D01*
X84238072Y-129400000D01*
X84238072Y-127600000D01*
X84225812Y-127475518D01*
X84189502Y-127355820D01*
X84130537Y-127245506D01*
X84051185Y-127148815D01*
X83954494Y-127069463D01*
X83844180Y-127010498D01*
X83724482Y-126974188D01*
X83600000Y-126961928D01*
X81800000Y-126961928D01*
X81675518Y-126974188D01*
X81555820Y-127010498D01*
X81445506Y-127069463D01*
X81348815Y-127148815D01*
X81269463Y-127245506D01*
X81216120Y-127345303D01*
X81178505Y-127307688D01*
X80927095Y-127139701D01*
X80647743Y-127023989D01*
X80351184Y-126965000D01*
X80048816Y-126965000D01*
X79752257Y-127023989D01*
X79472905Y-127139701D01*
X79221495Y-127307688D01*
X79007688Y-127521495D01*
X78950000Y-127607831D01*
X78892312Y-127521495D01*
X78678505Y-127307688D01*
X78427095Y-127139701D01*
X78147743Y-127023989D01*
X77851184Y-126965000D01*
X77548816Y-126965000D01*
X77252257Y-127023989D01*
X76972905Y-127139701D01*
X76721495Y-127307688D01*
X76507688Y-127521495D01*
X76339701Y-127772905D01*
X76223989Y-128052257D01*
X76165000Y-128348816D01*
X68560000Y-128348816D01*
X68560000Y-120777902D01*
X73145000Y-120777902D01*
X73145000Y-121222098D01*
X73231658Y-121657759D01*
X73401645Y-122068143D01*
X73648427Y-122437479D01*
X73962521Y-122751573D01*
X74331857Y-122998355D01*
X74742241Y-123168342D01*
X75177902Y-123255000D01*
X75622098Y-123255000D01*
X76057759Y-123168342D01*
X76468143Y-122998355D01*
X76837479Y-122751573D01*
X77151573Y-122437479D01*
X77398355Y-122068143D01*
X77568342Y-121657759D01*
X77655000Y-121222098D01*
X77655000Y-120777902D01*
X82745000Y-120777902D01*
X82745000Y-121222098D01*
X82831658Y-121657759D01*
X83001645Y-122068143D01*
X83248427Y-122437479D01*
X83562521Y-122751573D01*
X83931857Y-122998355D01*
X84342241Y-123168342D01*
X84777902Y-123255000D01*
X85222098Y-123255000D01*
X85657759Y-123168342D01*
X86068143Y-122998355D01*
X86437479Y-122751573D01*
X86751573Y-122437479D01*
X86998355Y-122068143D01*
X87168342Y-121657759D01*
X87255000Y-121222098D01*
X87255000Y-120777902D01*
X87168342Y-120342241D01*
X86998355Y-119931857D01*
X86751573Y-119562521D01*
X86437479Y-119248427D01*
X86068143Y-119001645D01*
X85657759Y-118831658D01*
X85222098Y-118745000D01*
X84777902Y-118745000D01*
X84342241Y-118831658D01*
X83931857Y-119001645D01*
X83562521Y-119248427D01*
X83248427Y-119562521D01*
X83001645Y-119931857D01*
X82831658Y-120342241D01*
X82745000Y-120777902D01*
X77655000Y-120777902D01*
X77568342Y-120342241D01*
X77398355Y-119931857D01*
X77151573Y-119562521D01*
X76837479Y-119248427D01*
X76468143Y-119001645D01*
X76057759Y-118831658D01*
X75622098Y-118745000D01*
X75177902Y-118745000D01*
X74742241Y-118831658D01*
X74331857Y-119001645D01*
X73962521Y-119248427D01*
X73648427Y-119562521D01*
X73401645Y-119931857D01*
X73231658Y-120342241D01*
X73145000Y-120777902D01*
X68560000Y-120777902D01*
X68560000Y-114242702D01*
X75686903Y-114242702D01*
X75758486Y-114486671D01*
X76013996Y-114607571D01*
X76288184Y-114676300D01*
X76570512Y-114690217D01*
X76850130Y-114648787D01*
X77116292Y-114553603D01*
X77241514Y-114486671D01*
X77313097Y-114242702D01*
X76500000Y-113429605D01*
X75686903Y-114242702D01*
X68560000Y-114242702D01*
X68560000Y-113320512D01*
X75059783Y-113320512D01*
X75101213Y-113600130D01*
X75196397Y-113866292D01*
X75263329Y-113991514D01*
X75507298Y-114063097D01*
X76320395Y-113250000D01*
X76679605Y-113250000D01*
X77492702Y-114063097D01*
X77736671Y-113991514D01*
X77857571Y-113736004D01*
X77926300Y-113461816D01*
X77940217Y-113179488D01*
X77929724Y-113108665D01*
X82685000Y-113108665D01*
X82685000Y-113391335D01*
X82740147Y-113668574D01*
X82848320Y-113929727D01*
X83005363Y-114164759D01*
X83205241Y-114364637D01*
X83440273Y-114521680D01*
X83701426Y-114629853D01*
X83978665Y-114685000D01*
X84261335Y-114685000D01*
X84538574Y-114629853D01*
X84799727Y-114521680D01*
X85034759Y-114364637D01*
X85234637Y-114164759D01*
X85391680Y-113929727D01*
X85499853Y-113668574D01*
X85555000Y-113391335D01*
X85555000Y-113108665D01*
X85499853Y-112831426D01*
X85391680Y-112570273D01*
X85234637Y-112335241D01*
X85034759Y-112135363D01*
X84799727Y-111978320D01*
X84538574Y-111870147D01*
X84261335Y-111815000D01*
X83978665Y-111815000D01*
X83701426Y-111870147D01*
X83440273Y-111978320D01*
X83205241Y-112135363D01*
X83005363Y-112335241D01*
X82848320Y-112570273D01*
X82740147Y-112831426D01*
X82685000Y-113108665D01*
X77929724Y-113108665D01*
X77898787Y-112899870D01*
X77803603Y-112633708D01*
X77736671Y-112508486D01*
X77492702Y-112436903D01*
X76679605Y-113250000D01*
X76320395Y-113250000D01*
X75507298Y-112436903D01*
X75263329Y-112508486D01*
X75142429Y-112763996D01*
X75073700Y-113038184D01*
X75059783Y-113320512D01*
X68560000Y-113320512D01*
X68560000Y-112257298D01*
X75686903Y-112257298D01*
X76500000Y-113070395D01*
X77313097Y-112257298D01*
X77241514Y-112013329D01*
X76986004Y-111892429D01*
X76711816Y-111823700D01*
X76429488Y-111809783D01*
X76149870Y-111851213D01*
X75883708Y-111946397D01*
X75758486Y-112013329D01*
X75686903Y-112257298D01*
X68560000Y-112257298D01*
X68560000Y-106866553D01*
X77419009Y-106866553D01*
X77461603Y-107165907D01*
X77561778Y-107451199D01*
X77641739Y-107600792D01*
X77895920Y-107684475D01*
X78780395Y-106800000D01*
X77895920Y-105915525D01*
X77641739Y-105999208D01*
X77510842Y-106271775D01*
X77435635Y-106564642D01*
X77419009Y-106866553D01*
X68560000Y-106866553D01*
X68560000Y-105735920D01*
X78075525Y-105735920D01*
X78960000Y-106620395D01*
X78974143Y-106606253D01*
X79153748Y-106785858D01*
X79139605Y-106800000D01*
X79153748Y-106814143D01*
X78974143Y-106993748D01*
X78960000Y-106979605D01*
X78075525Y-107864080D01*
X78159208Y-108118261D01*
X78431775Y-108249158D01*
X78724642Y-108324365D01*
X79026553Y-108340991D01*
X79325907Y-108298397D01*
X79611199Y-108198222D01*
X79760792Y-108118261D01*
X79844474Y-107864082D01*
X79960422Y-107980030D01*
X80007187Y-107933265D01*
X80010498Y-107944180D01*
X80069463Y-108054494D01*
X80148815Y-108151185D01*
X80245506Y-108230537D01*
X80355820Y-108289502D01*
X80475518Y-108325812D01*
X80600000Y-108338072D01*
X82400000Y-108338072D01*
X82524482Y-108325812D01*
X82644180Y-108289502D01*
X82754494Y-108230537D01*
X82851185Y-108151185D01*
X82930537Y-108054494D01*
X82989502Y-107944180D01*
X83025812Y-107824482D01*
X83038072Y-107700000D01*
X83038072Y-105900000D01*
X83025812Y-105775518D01*
X82989502Y-105655820D01*
X82930537Y-105545506D01*
X82851185Y-105448815D01*
X82754494Y-105369463D01*
X82644180Y-105310498D01*
X82524482Y-105274188D01*
X82400000Y-105261928D01*
X80600000Y-105261928D01*
X80475518Y-105274188D01*
X80355820Y-105310498D01*
X80245506Y-105369463D01*
X80148815Y-105448815D01*
X80069463Y-105545506D01*
X80010498Y-105655820D01*
X80007187Y-105666735D01*
X79960422Y-105619970D01*
X79844474Y-105735918D01*
X79760792Y-105481739D01*
X79488225Y-105350842D01*
X79195358Y-105275635D01*
X78893447Y-105259009D01*
X78594093Y-105301603D01*
X78308801Y-105401778D01*
X78159208Y-105481739D01*
X78075525Y-105735920D01*
X68560000Y-105735920D01*
X68560000Y-102728665D01*
X69565000Y-102728665D01*
X69565000Y-103011335D01*
X69620147Y-103288574D01*
X69728320Y-103549727D01*
X69885363Y-103784759D01*
X70085241Y-103984637D01*
X70320273Y-104141680D01*
X70581426Y-104249853D01*
X70858665Y-104305000D01*
X71141335Y-104305000D01*
X71418574Y-104249853D01*
X71679727Y-104141680D01*
X71914759Y-103984637D01*
X72114637Y-103784759D01*
X72271680Y-103549727D01*
X72379853Y-103288574D01*
X72435000Y-103011335D01*
X72435000Y-102728665D01*
X72379853Y-102451426D01*
X72271680Y-102190273D01*
X72114637Y-101955241D01*
X71914759Y-101755363D01*
X71679727Y-101598320D01*
X71418574Y-101490147D01*
X71141335Y-101435000D01*
X70858665Y-101435000D01*
X70581426Y-101490147D01*
X70320273Y-101598320D01*
X70085241Y-101755363D01*
X69885363Y-101955241D01*
X69728320Y-102190273D01*
X69620147Y-102451426D01*
X69565000Y-102728665D01*
X68560000Y-102728665D01*
X68560000Y-81719040D01*
X68608091Y-81719040D01*
X68702930Y-81983881D01*
X68847615Y-82225131D01*
X69036586Y-82433519D01*
X69262580Y-82601037D01*
X69516913Y-82721246D01*
X69650961Y-82761904D01*
X69873000Y-82639915D01*
X69873000Y-81497000D01*
X70127000Y-81497000D01*
X70127000Y-82639915D01*
X70349039Y-82761904D01*
X70483087Y-82721246D01*
X70737420Y-82601037D01*
X70963414Y-82433519D01*
X71152385Y-82225131D01*
X71297070Y-81983881D01*
X71391909Y-81719040D01*
X71270624Y-81497000D01*
X70127000Y-81497000D01*
X69873000Y-81497000D01*
X68729376Y-81497000D01*
X68608091Y-81719040D01*
X68560000Y-81719040D01*
X68560000Y-81020960D01*
X68608091Y-81020960D01*
X68729376Y-81243000D01*
X69873000Y-81243000D01*
X69873000Y-80100085D01*
X70127000Y-80100085D01*
X70127000Y-81243000D01*
X71270624Y-81243000D01*
X71391909Y-81020960D01*
X71297070Y-80756119D01*
X71199243Y-80593000D01*
X72075000Y-80593000D01*
X72075000Y-80993000D01*
X73383000Y-80993000D01*
X73383000Y-79450085D01*
X73160961Y-79328096D01*
X73078182Y-79345633D01*
X72818354Y-79456285D01*
X72585105Y-79615500D01*
X72387399Y-79817161D01*
X72232834Y-80053517D01*
X72127350Y-80315486D01*
X72075000Y-80593000D01*
X71199243Y-80593000D01*
X71152385Y-80514869D01*
X70963414Y-80306481D01*
X70737420Y-80138963D01*
X70483087Y-80018754D01*
X70349039Y-79978096D01*
X70127000Y-80100085D01*
X69873000Y-80100085D01*
X69650961Y-79978096D01*
X69516913Y-80018754D01*
X69262580Y-80138963D01*
X69036586Y-80306481D01*
X68847615Y-80514869D01*
X68702930Y-80756119D01*
X68608091Y-81020960D01*
X68560000Y-81020960D01*
X68560000Y-73608665D01*
X68565000Y-73608665D01*
X68565000Y-73891335D01*
X68620147Y-74168574D01*
X68728320Y-74429727D01*
X68885363Y-74664759D01*
X69085241Y-74864637D01*
X69320273Y-75021680D01*
X69581426Y-75129853D01*
X69858665Y-75185000D01*
X70141335Y-75185000D01*
X70418574Y-75129853D01*
X70679727Y-75021680D01*
X70914759Y-74864637D01*
X71114637Y-74664759D01*
X71271680Y-74429727D01*
X71379853Y-74168574D01*
X71435000Y-73891335D01*
X71435000Y-73608665D01*
X71379853Y-73331426D01*
X71271680Y-73070273D01*
X71114637Y-72835241D01*
X70914759Y-72635363D01*
X70679727Y-72478320D01*
X70418574Y-72370147D01*
X70141335Y-72315000D01*
X69858665Y-72315000D01*
X69581426Y-72370147D01*
X69320273Y-72478320D01*
X69085241Y-72635363D01*
X68885363Y-72835241D01*
X68728320Y-73070273D01*
X68620147Y-73331426D01*
X68565000Y-73608665D01*
X68560000Y-73608665D01*
X68560000Y-64978665D01*
X69815000Y-64978665D01*
X69815000Y-65261335D01*
X69870147Y-65538574D01*
X69978320Y-65799727D01*
X70135363Y-66034759D01*
X70335241Y-66234637D01*
X70570273Y-66391680D01*
X70831426Y-66499853D01*
X71108665Y-66555000D01*
X71391335Y-66555000D01*
X71668574Y-66499853D01*
X71929727Y-66391680D01*
X72164759Y-66234637D01*
X72364637Y-66034759D01*
X72521680Y-65799727D01*
X72629853Y-65538574D01*
X72685000Y-65261335D01*
X72685000Y-64978665D01*
X72629853Y-64701426D01*
X72521680Y-64440273D01*
X72364637Y-64205241D01*
X72164759Y-64005363D01*
X71929727Y-63848320D01*
X71668574Y-63740147D01*
X71391335Y-63685000D01*
X71108665Y-63685000D01*
X70831426Y-63740147D01*
X70570273Y-63848320D01*
X70335241Y-64005363D01*
X70135363Y-64205241D01*
X69978320Y-64440273D01*
X69870147Y-64701426D01*
X69815000Y-64978665D01*
X68560000Y-64978665D01*
X68560000Y-57358665D01*
X69815000Y-57358665D01*
X69815000Y-57641335D01*
X69870147Y-57918574D01*
X69978320Y-58179727D01*
X70135363Y-58414759D01*
X70335241Y-58614637D01*
X70570273Y-58771680D01*
X70831426Y-58879853D01*
X71108665Y-58935000D01*
X71391335Y-58935000D01*
X71668574Y-58879853D01*
X71929727Y-58771680D01*
X72164759Y-58614637D01*
X72364637Y-58414759D01*
X72521680Y-58179727D01*
X72629853Y-57918574D01*
X72685000Y-57641335D01*
X72685000Y-57358665D01*
X72629853Y-57081426D01*
X72521680Y-56820273D01*
X72364637Y-56585241D01*
X72164759Y-56385363D01*
X71929727Y-56228320D01*
X71668574Y-56120147D01*
X71391335Y-56065000D01*
X71108665Y-56065000D01*
X70831426Y-56120147D01*
X70570273Y-56228320D01*
X70335241Y-56385363D01*
X70135363Y-56585241D01*
X69978320Y-56820273D01*
X69870147Y-57081426D01*
X69815000Y-57358665D01*
X68560000Y-57358665D01*
X68560000Y-47700000D01*
X69461928Y-47700000D01*
X69461928Y-49300000D01*
X69474188Y-49424482D01*
X69510498Y-49544180D01*
X69569463Y-49654494D01*
X69648815Y-49751185D01*
X69745506Y-49830537D01*
X69855820Y-49889502D01*
X69975518Y-49925812D01*
X70100000Y-49938072D01*
X71700000Y-49938072D01*
X71824482Y-49925812D01*
X71944180Y-49889502D01*
X72054494Y-49830537D01*
X72151185Y-49751185D01*
X72164790Y-49734607D01*
X72220273Y-49771680D01*
X72481426Y-49879853D01*
X72758665Y-49935000D01*
X73041335Y-49935000D01*
X73318574Y-49879853D01*
X73579727Y-49771680D01*
X73814759Y-49614637D01*
X74014637Y-49414759D01*
X74171680Y-49179727D01*
X74279853Y-48918574D01*
X74335000Y-48641335D01*
X74335000Y-48358665D01*
X74279853Y-48081426D01*
X74171680Y-47820273D01*
X74091317Y-47700000D01*
X85461928Y-47700000D01*
X85461928Y-49300000D01*
X85474188Y-49424482D01*
X85510498Y-49544180D01*
X85569463Y-49654494D01*
X85648815Y-49751185D01*
X85745506Y-49830537D01*
X85855820Y-49889502D01*
X85975518Y-49925812D01*
X86100000Y-49938072D01*
X87700000Y-49938072D01*
X87824482Y-49925812D01*
X87944180Y-49889502D01*
X88054494Y-49830537D01*
X88151185Y-49751185D01*
X88164790Y-49734607D01*
X88220273Y-49771680D01*
X88481426Y-49879853D01*
X88758665Y-49935000D01*
X89041335Y-49935000D01*
X89318574Y-49879853D01*
X89579727Y-49771680D01*
X89814759Y-49614637D01*
X90014637Y-49414759D01*
X90171680Y-49179727D01*
X90279853Y-48918574D01*
X90335000Y-48641335D01*
X90335000Y-48358665D01*
X90279853Y-48081426D01*
X90171680Y-47820273D01*
X90014637Y-47585241D01*
X89814759Y-47385363D01*
X89579727Y-47228320D01*
X89318574Y-47120147D01*
X89041335Y-47065000D01*
X88758665Y-47065000D01*
X88481426Y-47120147D01*
X88220273Y-47228320D01*
X88164790Y-47265393D01*
X88151185Y-47248815D01*
X88054494Y-47169463D01*
X87944180Y-47110498D01*
X87824482Y-47074188D01*
X87700000Y-47061928D01*
X86100000Y-47061928D01*
X85975518Y-47074188D01*
X85855820Y-47110498D01*
X85745506Y-47169463D01*
X85648815Y-47248815D01*
X85569463Y-47345506D01*
X85510498Y-47455820D01*
X85474188Y-47575518D01*
X85461928Y-47700000D01*
X74091317Y-47700000D01*
X74014637Y-47585241D01*
X73814759Y-47385363D01*
X73579727Y-47228320D01*
X73318574Y-47120147D01*
X73041335Y-47065000D01*
X72758665Y-47065000D01*
X72481426Y-47120147D01*
X72220273Y-47228320D01*
X72164790Y-47265393D01*
X72151185Y-47248815D01*
X72054494Y-47169463D01*
X71944180Y-47110498D01*
X71824482Y-47074188D01*
X71700000Y-47061928D01*
X70100000Y-47061928D01*
X69975518Y-47074188D01*
X69855820Y-47110498D01*
X69745506Y-47169463D01*
X69648815Y-47248815D01*
X69569463Y-47345506D01*
X69510498Y-47455820D01*
X69474188Y-47575518D01*
X69461928Y-47700000D01*
X68560000Y-47700000D01*
X68560000Y-39636400D01*
X73498328Y-39636400D01*
X73498328Y-41363600D01*
X73510588Y-41488082D01*
X73546898Y-41607780D01*
X73605863Y-41718094D01*
X73685215Y-41814785D01*
X73781906Y-41894137D01*
X73892220Y-41953102D01*
X74011918Y-41989412D01*
X74136400Y-42001672D01*
X74240000Y-42001672D01*
X74240000Y-42962677D01*
X74236324Y-43000000D01*
X74240000Y-43037322D01*
X74240000Y-43037332D01*
X74250997Y-43148985D01*
X74294454Y-43292246D01*
X74365026Y-43424276D01*
X74403383Y-43471014D01*
X74459999Y-43540001D01*
X74489003Y-43563804D01*
X75162655Y-44237457D01*
X75148815Y-44248815D01*
X75069463Y-44345506D01*
X75010498Y-44455820D01*
X74974188Y-44575518D01*
X74961928Y-44700000D01*
X74961928Y-46300000D01*
X74974188Y-46424482D01*
X75010498Y-46544180D01*
X75069463Y-46654494D01*
X75148815Y-46751185D01*
X75245506Y-46830537D01*
X75355820Y-46889502D01*
X75475518Y-46925812D01*
X75600000Y-46938072D01*
X77200000Y-46938072D01*
X77324482Y-46925812D01*
X77444180Y-46889502D01*
X77554494Y-46830537D01*
X77651185Y-46751185D01*
X77730537Y-46654494D01*
X77789502Y-46544180D01*
X77825812Y-46424482D01*
X77838072Y-46300000D01*
X77838072Y-44700000D01*
X77825812Y-44575518D01*
X77789502Y-44455820D01*
X77730537Y-44345506D01*
X77651185Y-44248815D01*
X77554494Y-44169463D01*
X77444180Y-44110498D01*
X77324482Y-44074188D01*
X77200000Y-44061928D01*
X77081052Y-44061928D01*
X77034974Y-43975723D01*
X76963799Y-43888997D01*
X76940001Y-43859999D01*
X76911003Y-43836201D01*
X75760000Y-42685199D01*
X75760000Y-42001672D01*
X75863600Y-42001672D01*
X75988082Y-41989412D01*
X76107780Y-41953102D01*
X76218094Y-41894137D01*
X76314785Y-41814785D01*
X76394137Y-41718094D01*
X76453102Y-41607780D01*
X76470636Y-41549977D01*
X76584698Y-41664039D01*
X76830147Y-41828042D01*
X77102875Y-41941010D01*
X77392401Y-41998600D01*
X77687599Y-41998600D01*
X77977125Y-41941010D01*
X78249853Y-41828042D01*
X78495302Y-41664039D01*
X78704039Y-41455302D01*
X78810000Y-41296719D01*
X78915961Y-41455302D01*
X79124698Y-41664039D01*
X79370147Y-41828042D01*
X79642875Y-41941010D01*
X79932401Y-41998600D01*
X80227599Y-41998600D01*
X80517125Y-41941010D01*
X80789853Y-41828042D01*
X81035302Y-41664039D01*
X81244039Y-41455302D01*
X81350000Y-41296719D01*
X81455961Y-41455302D01*
X81664698Y-41664039D01*
X81910147Y-41828042D01*
X82182875Y-41941010D01*
X82472401Y-41998600D01*
X82767599Y-41998600D01*
X83057125Y-41941010D01*
X83329853Y-41828042D01*
X83575302Y-41664039D01*
X83784039Y-41455302D01*
X83890000Y-41296719D01*
X83995961Y-41455302D01*
X84204698Y-41664039D01*
X84400000Y-41794535D01*
X84400001Y-43305197D01*
X83723886Y-43981312D01*
X83541335Y-43945000D01*
X83258665Y-43945000D01*
X82981426Y-44000147D01*
X82720273Y-44108320D01*
X82485241Y-44265363D01*
X82285363Y-44465241D01*
X82128320Y-44700273D01*
X82020147Y-44961426D01*
X81965000Y-45238665D01*
X81965000Y-45521335D01*
X82020147Y-45798574D01*
X82128320Y-46059727D01*
X82285363Y-46294759D01*
X82485241Y-46494637D01*
X82720273Y-46651680D01*
X82981426Y-46759853D01*
X83258665Y-46815000D01*
X83541335Y-46815000D01*
X83818574Y-46759853D01*
X84079727Y-46651680D01*
X84314759Y-46494637D01*
X84514637Y-46294759D01*
X84671680Y-46059727D01*
X84779853Y-45798574D01*
X84835000Y-45521335D01*
X84835000Y-45238665D01*
X84798688Y-45056114D01*
X85671003Y-44183799D01*
X85700001Y-44160001D01*
X85794974Y-44044276D01*
X85865546Y-43912247D01*
X85909003Y-43768986D01*
X85920000Y-43657333D01*
X85920000Y-43657323D01*
X85923676Y-43620000D01*
X85920000Y-43582677D01*
X85920000Y-41794535D01*
X86115302Y-41664039D01*
X86324039Y-41455302D01*
X86488042Y-41209853D01*
X86601010Y-40937125D01*
X86658600Y-40647599D01*
X86658600Y-40352401D01*
X86601010Y-40062875D01*
X86488042Y-39790147D01*
X86324039Y-39544698D01*
X86115302Y-39335961D01*
X85956719Y-39230000D01*
X86115302Y-39124039D01*
X86324039Y-38915302D01*
X86488042Y-38669853D01*
X86601010Y-38397125D01*
X86658600Y-38107599D01*
X86658600Y-37812401D01*
X86601010Y-37522875D01*
X86488042Y-37250147D01*
X86324039Y-37004698D01*
X86115302Y-36795961D01*
X85869853Y-36631958D01*
X85597125Y-36518990D01*
X85307599Y-36461400D01*
X85012401Y-36461400D01*
X84722875Y-36518990D01*
X84450147Y-36631958D01*
X84204698Y-36795961D01*
X83995961Y-37004698D01*
X83890000Y-37163281D01*
X83784039Y-37004698D01*
X83575302Y-36795961D01*
X83329853Y-36631958D01*
X83057125Y-36518990D01*
X82767599Y-36461400D01*
X82472401Y-36461400D01*
X82182875Y-36518990D01*
X81910147Y-36631958D01*
X81664698Y-36795961D01*
X81455961Y-37004698D01*
X81350000Y-37163281D01*
X81244039Y-37004698D01*
X81035302Y-36795961D01*
X80789853Y-36631958D01*
X80517125Y-36518990D01*
X80227599Y-36461400D01*
X79932401Y-36461400D01*
X79642875Y-36518990D01*
X79370147Y-36631958D01*
X79124698Y-36795961D01*
X78915961Y-37004698D01*
X78810000Y-37163281D01*
X78704039Y-37004698D01*
X78495302Y-36795961D01*
X78249853Y-36631958D01*
X77977125Y-36518990D01*
X77687599Y-36461400D01*
X77392401Y-36461400D01*
X77102875Y-36518990D01*
X76830147Y-36631958D01*
X76584698Y-36795961D01*
X76375961Y-37004698D01*
X76270000Y-37163281D01*
X76164039Y-37004698D01*
X75955302Y-36795961D01*
X75709853Y-36631958D01*
X75437125Y-36518990D01*
X75147599Y-36461400D01*
X74852401Y-36461400D01*
X74562875Y-36518990D01*
X74290147Y-36631958D01*
X74044698Y-36795961D01*
X73835961Y-37004698D01*
X73671958Y-37250147D01*
X73558990Y-37522875D01*
X73501400Y-37812401D01*
X73501400Y-38107599D01*
X73558990Y-38397125D01*
X73671958Y-38669853D01*
X73835961Y-38915302D01*
X73950023Y-39029364D01*
X73892220Y-39046898D01*
X73781906Y-39105863D01*
X73685215Y-39185215D01*
X73605863Y-39281906D01*
X73546898Y-39392220D01*
X73510588Y-39511918D01*
X73498328Y-39636400D01*
X68560000Y-39636400D01*
X68560000Y-34660000D01*
X91240644Y-34660000D01*
X91267134Y-61812332D01*
%TA.AperFunction,Conductor*%
D23*
G36*
X91267134Y-61812332D02*
G01*
X90148688Y-60693886D01*
X90185000Y-60511335D01*
X90185000Y-60228665D01*
X90129853Y-59951426D01*
X90021680Y-59690273D01*
X89864637Y-59455241D01*
X89664759Y-59255363D01*
X89429727Y-59098320D01*
X89168574Y-58990147D01*
X88891335Y-58935000D01*
X88608665Y-58935000D01*
X88331426Y-58990147D01*
X88070273Y-59098320D01*
X87835241Y-59255363D01*
X87635363Y-59455241D01*
X87478320Y-59690273D01*
X87370147Y-59951426D01*
X87315000Y-60228665D01*
X87315000Y-60511335D01*
X87370147Y-60788574D01*
X87478320Y-61049727D01*
X87635363Y-61284759D01*
X87835241Y-61484637D01*
X87948030Y-61560000D01*
X87835241Y-61635363D01*
X87635363Y-61835241D01*
X87478320Y-62070273D01*
X87370147Y-62331426D01*
X87315000Y-62608665D01*
X87315000Y-62891335D01*
X87370147Y-63168574D01*
X87478320Y-63429727D01*
X87635363Y-63664759D01*
X87835241Y-63864637D01*
X88070273Y-64021680D01*
X88331426Y-64129853D01*
X88608665Y-64185000D01*
X88891335Y-64185000D01*
X89168574Y-64129853D01*
X89429727Y-64021680D01*
X89664759Y-63864637D01*
X89864637Y-63664759D01*
X90021680Y-63429727D01*
X90129853Y-63168574D01*
X90140001Y-63117557D01*
X90140001Y-70002441D01*
X90129853Y-69951426D01*
X90021680Y-69690273D01*
X89864637Y-69455241D01*
X89664759Y-69255363D01*
X89429727Y-69098320D01*
X89168574Y-68990147D01*
X88891335Y-68935000D01*
X88608665Y-68935000D01*
X88331426Y-68990147D01*
X88070273Y-69098320D01*
X87835241Y-69255363D01*
X87635363Y-69455241D01*
X87531957Y-69610000D01*
X79264816Y-69610000D01*
X79114637Y-69385241D01*
X78914759Y-69185363D01*
X78679727Y-69028320D01*
X78418574Y-68920147D01*
X78360499Y-68908595D01*
X78477095Y-68860299D01*
X78728505Y-68692312D01*
X78942312Y-68478505D01*
X79000000Y-68392169D01*
X79057688Y-68478505D01*
X79271495Y-68692312D01*
X79522905Y-68860299D01*
X79802257Y-68976011D01*
X80098816Y-69035000D01*
X80401184Y-69035000D01*
X80697743Y-68976011D01*
X80977095Y-68860299D01*
X81228505Y-68692312D01*
X81266120Y-68654697D01*
X81319463Y-68754494D01*
X81398815Y-68851185D01*
X81495506Y-68930537D01*
X81605820Y-68989502D01*
X81725518Y-69025812D01*
X81850000Y-69038072D01*
X83650000Y-69038072D01*
X83774482Y-69025812D01*
X83894180Y-68989502D01*
X84004494Y-68930537D01*
X84101185Y-68851185D01*
X84180537Y-68754494D01*
X84239502Y-68644180D01*
X84275812Y-68524482D01*
X84288072Y-68400000D01*
X84288072Y-66600000D01*
X84275812Y-66475518D01*
X84239502Y-66355820D01*
X84180537Y-66245506D01*
X84101185Y-66148815D01*
X84004494Y-66069463D01*
X83894180Y-66010498D01*
X83774482Y-65974188D01*
X83650000Y-65961928D01*
X81850000Y-65961928D01*
X81725518Y-65974188D01*
X81605820Y-66010498D01*
X81495506Y-66069463D01*
X81398815Y-66148815D01*
X81319463Y-66245506D01*
X81266120Y-66345303D01*
X81228505Y-66307688D01*
X80977095Y-66139701D01*
X80697743Y-66023989D01*
X80401184Y-65965000D01*
X80098816Y-65965000D01*
X79802257Y-66023989D01*
X79522905Y-66139701D01*
X79271495Y-66307688D01*
X79057688Y-66521495D01*
X79000000Y-66607831D01*
X78942312Y-66521495D01*
X78728505Y-66307688D01*
X78477095Y-66139701D01*
X78197743Y-66023989D01*
X77901184Y-65965000D01*
X77598816Y-65965000D01*
X77302257Y-66023989D01*
X77022905Y-66139701D01*
X76771495Y-66307688D01*
X76557688Y-66521495D01*
X76389701Y-66772905D01*
X76273989Y-67052257D01*
X76215000Y-67348816D01*
X76215000Y-67651184D01*
X76273989Y-67947743D01*
X76389701Y-68227095D01*
X76557688Y-68478505D01*
X76771495Y-68692312D01*
X77022905Y-68860299D01*
X77302257Y-68976011D01*
X77399744Y-68995402D01*
X77320273Y-69028320D01*
X77085241Y-69185363D01*
X76885363Y-69385241D01*
X76728320Y-69620273D01*
X76670255Y-69760455D01*
X74264999Y-67355200D01*
X74264999Y-61920273D01*
X74381857Y-61998355D01*
X74792241Y-62168342D01*
X75227902Y-62255000D01*
X75672098Y-62255000D01*
X76107759Y-62168342D01*
X76518143Y-61998355D01*
X76887479Y-61751573D01*
X77201573Y-61437479D01*
X77448355Y-61068143D01*
X77618342Y-60657759D01*
X77705000Y-60222098D01*
X77705000Y-59777902D01*
X82795000Y-59777902D01*
X82795000Y-60222098D01*
X82881658Y-60657759D01*
X83051645Y-61068143D01*
X83298427Y-61437479D01*
X83612521Y-61751573D01*
X83981857Y-61998355D01*
X84392241Y-62168342D01*
X84827902Y-62255000D01*
X85272098Y-62255000D01*
X85707759Y-62168342D01*
X86118143Y-61998355D01*
X86487479Y-61751573D01*
X86801573Y-61437479D01*
X87048355Y-61068143D01*
X87218342Y-60657759D01*
X87305000Y-60222098D01*
X87305000Y-59777902D01*
X87218342Y-59342241D01*
X87048355Y-58931857D01*
X86801573Y-58562521D01*
X86487479Y-58248427D01*
X86118143Y-58001645D01*
X85707759Y-57831658D01*
X85272098Y-57745000D01*
X84827902Y-57745000D01*
X84392241Y-57831658D01*
X83981857Y-58001645D01*
X83612521Y-58248427D01*
X83298427Y-58562521D01*
X83051645Y-58931857D01*
X82881658Y-59342241D01*
X82795000Y-59777902D01*
X77705000Y-59777902D01*
X77618342Y-59342241D01*
X77448355Y-58931857D01*
X77201573Y-58562521D01*
X76887479Y-58248427D01*
X76518143Y-58001645D01*
X76107759Y-57831658D01*
X75672098Y-57745000D01*
X75227902Y-57745000D01*
X74792241Y-57831658D01*
X74381857Y-58001645D01*
X74264999Y-58079727D01*
X74264999Y-56329802D01*
X76076114Y-54518688D01*
X76258665Y-54555000D01*
X76541335Y-54555000D01*
X76818574Y-54499853D01*
X77079727Y-54391680D01*
X77314759Y-54234637D01*
X77514637Y-54034759D01*
X77671680Y-53799727D01*
X77779853Y-53538574D01*
X77835000Y-53261335D01*
X77835000Y-52978665D01*
X77779853Y-52701426D01*
X77671680Y-52440273D01*
X77514637Y-52205241D01*
X77509396Y-52200000D01*
X81961928Y-52200000D01*
X81961928Y-53800000D01*
X81974188Y-53924482D01*
X82010498Y-54044180D01*
X82069463Y-54154494D01*
X82148815Y-54251185D01*
X82245506Y-54330537D01*
X82355820Y-54389502D01*
X82475518Y-54425812D01*
X82600000Y-54438072D01*
X84200000Y-54438072D01*
X84324482Y-54425812D01*
X84444180Y-54389502D01*
X84554494Y-54330537D01*
X84651185Y-54251185D01*
X84730537Y-54154494D01*
X84789502Y-54044180D01*
X84825812Y-53924482D01*
X84838072Y-53800000D01*
X84838072Y-52200000D01*
X84825812Y-52075518D01*
X84789502Y-51955820D01*
X84786392Y-51950000D01*
X87311928Y-51950000D01*
X87311928Y-53550000D01*
X87324188Y-53674482D01*
X87360498Y-53794180D01*
X87419463Y-53904494D01*
X87498815Y-54001185D01*
X87595506Y-54080537D01*
X87705820Y-54139502D01*
X87825518Y-54175812D01*
X87950000Y-54188072D01*
X89550000Y-54188072D01*
X89674482Y-54175812D01*
X89794180Y-54139502D01*
X89904494Y-54080537D01*
X90001185Y-54001185D01*
X90080537Y-53904494D01*
X90139502Y-53794180D01*
X90175812Y-53674482D01*
X90188072Y-53550000D01*
X90188072Y-51950000D01*
X90175812Y-51825518D01*
X90139502Y-51705820D01*
X90080537Y-51595506D01*
X90001185Y-51498815D01*
X89904494Y-51419463D01*
X89794180Y-51360498D01*
X89674482Y-51324188D01*
X89550000Y-51311928D01*
X87950000Y-51311928D01*
X87825518Y-51324188D01*
X87705820Y-51360498D01*
X87595506Y-51419463D01*
X87498815Y-51498815D01*
X87419463Y-51595506D01*
X87360498Y-51705820D01*
X87324188Y-51825518D01*
X87311928Y-51950000D01*
X84786392Y-51950000D01*
X84730537Y-51845506D01*
X84651185Y-51748815D01*
X84554494Y-51669463D01*
X84444180Y-51610498D01*
X84324482Y-51574188D01*
X84200000Y-51561928D01*
X82600000Y-51561928D01*
X82475518Y-51574188D01*
X82355820Y-51610498D01*
X82245506Y-51669463D01*
X82148815Y-51748815D01*
X82069463Y-51845506D01*
X82010498Y-51955820D01*
X81974188Y-52075518D01*
X81961928Y-52200000D01*
X77509396Y-52200000D01*
X77314759Y-52005363D01*
X77079727Y-51848320D01*
X76818574Y-51740147D01*
X76541335Y-51685000D01*
X76258665Y-51685000D01*
X75981426Y-51740147D01*
X75720273Y-51848320D01*
X75485241Y-52005363D01*
X75285363Y-52205241D01*
X75128320Y-52440273D01*
X75020147Y-52701426D01*
X74965000Y-52978665D01*
X74965000Y-53261335D01*
X75001312Y-53443886D01*
X74655485Y-53789713D01*
X74685000Y-53641335D01*
X74685000Y-53358665D01*
X74629853Y-53081426D01*
X74521680Y-52820273D01*
X74364637Y-52585241D01*
X74164759Y-52385363D01*
X73929727Y-52228320D01*
X73668574Y-52120147D01*
X73391335Y-52065000D01*
X73108665Y-52065000D01*
X72831426Y-52120147D01*
X72570273Y-52228320D01*
X72335241Y-52385363D01*
X72135363Y-52585241D01*
X72000000Y-52787827D01*
X71864637Y-52585241D01*
X71664759Y-52385363D01*
X71429727Y-52228320D01*
X71168574Y-52120147D01*
X70891335Y-52065000D01*
X70608665Y-52065000D01*
X70331426Y-52120147D01*
X70070273Y-52228320D01*
X69835241Y-52385363D01*
X69635363Y-52585241D01*
X69478320Y-52820273D01*
X69370147Y-53081426D01*
X69315000Y-53358665D01*
X69315000Y-53641335D01*
X69370147Y-53918574D01*
X69478320Y-54179727D01*
X69635363Y-54414759D01*
X69835241Y-54614637D01*
X70070273Y-54771680D01*
X70331426Y-54879853D01*
X70608665Y-54935000D01*
X70891335Y-54935000D01*
X71168574Y-54879853D01*
X71429727Y-54771680D01*
X71664759Y-54614637D01*
X71864637Y-54414759D01*
X72000000Y-54212173D01*
X72135363Y-54414759D01*
X72335241Y-54614637D01*
X72570273Y-54771680D01*
X72831426Y-54879853D01*
X73108665Y-54935000D01*
X73391335Y-54935000D01*
X73539714Y-54905485D01*
X72993997Y-55451202D01*
X72964999Y-55475000D01*
X72941201Y-55503998D01*
X72941200Y-55503999D01*
X72870025Y-55590725D01*
X72799453Y-55722755D01*
X72755997Y-55866016D01*
X72741323Y-56015001D01*
X72745000Y-56052333D01*
X72744999Y-67632679D01*
X72741323Y-67670001D01*
X72744999Y-67707323D01*
X72744999Y-67707333D01*
X72755996Y-67818986D01*
X72787935Y-67924276D01*
X72799453Y-67962247D01*
X72870025Y-68094277D01*
X72903425Y-68134974D01*
X72964998Y-68210002D01*
X72994002Y-68233805D01*
X76495882Y-71735686D01*
X76331309Y-71685764D01*
X76050000Y-71658057D01*
X75768692Y-71685764D01*
X75498193Y-71767818D01*
X75248900Y-71901068D01*
X75030393Y-72080392D01*
X74851068Y-72298899D01*
X74780000Y-72431858D01*
X74708932Y-72298899D01*
X74529608Y-72080392D01*
X74311101Y-71901068D01*
X74061808Y-71767818D01*
X73791309Y-71685764D01*
X73510000Y-71658057D01*
X73228692Y-71685764D01*
X72958193Y-71767818D01*
X72935011Y-71780209D01*
X71778688Y-70623886D01*
X71815000Y-70441335D01*
X71815000Y-70158665D01*
X71759853Y-69881426D01*
X71651680Y-69620273D01*
X71494637Y-69385241D01*
X71294759Y-69185363D01*
X71059727Y-69028320D01*
X70798574Y-68920147D01*
X70521335Y-68865000D01*
X70238665Y-68865000D01*
X69961426Y-68920147D01*
X69700273Y-69028320D01*
X69465241Y-69185363D01*
X69265363Y-69385241D01*
X69108320Y-69620273D01*
X69000147Y-69881426D01*
X68945000Y-70158665D01*
X68945000Y-70441335D01*
X69000147Y-70718574D01*
X69108320Y-70979727D01*
X69265363Y-71214759D01*
X69465241Y-71414637D01*
X69700273Y-71571680D01*
X69961426Y-71679853D01*
X70238665Y-71735000D01*
X70521335Y-71735000D01*
X70703886Y-71698688D01*
X72075000Y-73069802D01*
X72075000Y-73970491D01*
X72095764Y-74181308D01*
X72177818Y-74451807D01*
X72311068Y-74701100D01*
X72490392Y-74919607D01*
X72708899Y-75098932D01*
X72958192Y-75232182D01*
X73228691Y-75314236D01*
X73510000Y-75341943D01*
X73791308Y-75314236D01*
X74061807Y-75232182D01*
X74311100Y-75098932D01*
X74529607Y-74919608D01*
X74708932Y-74701101D01*
X74780000Y-74568142D01*
X74851068Y-74701100D01*
X75030392Y-74919607D01*
X75248899Y-75098932D01*
X75498192Y-75232182D01*
X75768691Y-75314236D01*
X76050000Y-75341943D01*
X76331308Y-75314236D01*
X76601807Y-75232182D01*
X76851100Y-75098932D01*
X77069607Y-74919608D01*
X77248932Y-74701101D01*
X77320000Y-74568142D01*
X77391068Y-74701100D01*
X77570392Y-74919607D01*
X77788899Y-75098932D01*
X78038192Y-75232182D01*
X78308691Y-75314236D01*
X78590000Y-75341943D01*
X78871308Y-75314236D01*
X79141807Y-75232182D01*
X79210606Y-75195408D01*
X79751689Y-75736490D01*
X79749999Y-75736324D01*
X79712676Y-75740000D01*
X79712667Y-75740000D01*
X79601014Y-75750997D01*
X79457753Y-75794454D01*
X79325724Y-75865026D01*
X79209999Y-75959999D01*
X79186201Y-75988997D01*
X78573886Y-76601312D01*
X78391335Y-76565000D01*
X78108665Y-76565000D01*
X77831426Y-76620147D01*
X77570273Y-76728320D01*
X77335241Y-76885363D01*
X77135363Y-77085241D01*
X76978320Y-77320273D01*
X76870147Y-77581426D01*
X76815000Y-77858665D01*
X76815000Y-78141335D01*
X76870147Y-78418574D01*
X76978320Y-78679727D01*
X77135363Y-78914759D01*
X77335241Y-79114637D01*
X77490000Y-79218044D01*
X77490001Y-79798350D01*
X77391068Y-79918899D01*
X77320000Y-80051858D01*
X77248932Y-79918899D01*
X77069608Y-79700392D01*
X76851101Y-79521068D01*
X76601808Y-79387818D01*
X76331309Y-79305764D01*
X76050000Y-79278057D01*
X75768692Y-79305764D01*
X75498193Y-79387818D01*
X75248900Y-79521068D01*
X75030393Y-79700392D01*
X74851068Y-79918899D01*
X74782735Y-80046741D01*
X74632601Y-79817161D01*
X74434895Y-79615500D01*
X74201646Y-79456285D01*
X73941818Y-79345633D01*
X73859039Y-79328096D01*
X73637000Y-79450085D01*
X73637000Y-80993000D01*
X73657000Y-80993000D01*
X73657000Y-81247000D01*
X73637000Y-81247000D01*
X73637000Y-81267000D01*
X73383000Y-81267000D01*
X73383000Y-81247000D01*
X72075000Y-81247000D01*
X72075000Y-81647000D01*
X72127350Y-81924514D01*
X72232834Y-82186483D01*
X72387399Y-82422839D01*
X72585105Y-82624500D01*
X72629976Y-82655129D01*
X72582754Y-82669453D01*
X72450725Y-82740025D01*
X72335000Y-82834998D01*
X72311202Y-82863996D01*
X71323886Y-83851312D01*
X71141335Y-83815000D01*
X70858665Y-83815000D01*
X70581426Y-83870147D01*
X70320273Y-83978320D01*
X70085241Y-84135363D01*
X69885363Y-84335241D01*
X69728320Y-84570273D01*
X69620147Y-84831426D01*
X69565000Y-85108665D01*
X69565000Y-85391335D01*
X69620147Y-85668574D01*
X69728320Y-85929727D01*
X69885363Y-86164759D01*
X70085241Y-86364637D01*
X70320273Y-86521680D01*
X70581426Y-86629853D01*
X70858665Y-86685000D01*
X71141335Y-86685000D01*
X71418574Y-86629853D01*
X71679727Y-86521680D01*
X71914759Y-86364637D01*
X72114637Y-86164759D01*
X72271680Y-85929727D01*
X72379853Y-85668574D01*
X72414836Y-85492702D01*
X75436903Y-85492702D01*
X75508486Y-85736671D01*
X75763996Y-85857571D01*
X76038184Y-85926300D01*
X76320512Y-85940217D01*
X76600130Y-85898787D01*
X76866292Y-85803603D01*
X76991514Y-85736671D01*
X77063097Y-85492702D01*
X76250000Y-84679605D01*
X75436903Y-85492702D01*
X72414836Y-85492702D01*
X72435000Y-85391335D01*
X72435000Y-85108665D01*
X72398688Y-84926114D01*
X73189803Y-84134999D01*
X74862098Y-84134999D01*
X74823700Y-84288184D01*
X74809783Y-84570512D01*
X74851213Y-84850130D01*
X74946397Y-85116292D01*
X75013329Y-85241514D01*
X75257298Y-85313097D01*
X76070395Y-84500000D01*
X76056253Y-84485858D01*
X76235858Y-84306253D01*
X76250000Y-84320395D01*
X76264143Y-84306253D01*
X76443748Y-84485858D01*
X76429605Y-84500000D01*
X77242702Y-85313097D01*
X77486671Y-85241514D01*
X77607571Y-84986004D01*
X77676300Y-84711816D01*
X77690217Y-84429488D01*
X77648787Y-84149870D01*
X77643469Y-84134999D01*
X82430198Y-84134999D01*
X82471312Y-84176113D01*
X82435000Y-84358665D01*
X82435000Y-84641335D01*
X82490147Y-84918574D01*
X82598320Y-85179727D01*
X82755363Y-85414759D01*
X82955241Y-85614637D01*
X83190273Y-85771680D01*
X83451426Y-85879853D01*
X83728665Y-85935000D01*
X84011335Y-85935000D01*
X84288574Y-85879853D01*
X84419630Y-85825568D01*
X77335200Y-92909999D01*
X77169935Y-92909999D01*
X77398355Y-92568143D01*
X77568342Y-92157759D01*
X77655000Y-91722098D01*
X77655000Y-91277902D01*
X77568342Y-90842241D01*
X77398355Y-90431857D01*
X77151573Y-90062521D01*
X76837479Y-89748427D01*
X76468143Y-89501645D01*
X76057759Y-89331658D01*
X75622098Y-89245000D01*
X75177902Y-89245000D01*
X74742241Y-89331658D01*
X74331857Y-89501645D01*
X73962521Y-89748427D01*
X73648427Y-90062521D01*
X73401645Y-90431857D01*
X73231658Y-90842241D01*
X73145000Y-91277902D01*
X73145000Y-91722098D01*
X73231658Y-92157759D01*
X73401645Y-92568143D01*
X73630065Y-92909999D01*
X72435000Y-92909999D01*
X72435000Y-92728665D01*
X72379853Y-92451426D01*
X72271680Y-92190273D01*
X72114637Y-91955241D01*
X71914759Y-91755363D01*
X71679727Y-91598320D01*
X71418574Y-91490147D01*
X71141335Y-91435000D01*
X70858665Y-91435000D01*
X70581426Y-91490147D01*
X70320273Y-91598320D01*
X70085241Y-91755363D01*
X69885363Y-91955241D01*
X69728320Y-92190273D01*
X69620147Y-92451426D01*
X69565000Y-92728665D01*
X69565000Y-93011335D01*
X69620147Y-93288574D01*
X69728320Y-93549727D01*
X69885363Y-93784759D01*
X70085241Y-93984637D01*
X70198030Y-94060000D01*
X70085241Y-94135363D01*
X69885363Y-94335241D01*
X69728320Y-94570273D01*
X69620147Y-94831426D01*
X69565000Y-95108665D01*
X69565000Y-95391335D01*
X69620147Y-95668574D01*
X69728320Y-95929727D01*
X69885363Y-96164759D01*
X70085241Y-96364637D01*
X70320273Y-96521680D01*
X70581426Y-96629853D01*
X70858665Y-96685000D01*
X71141335Y-96685000D01*
X71418574Y-96629853D01*
X71679727Y-96521680D01*
X71914759Y-96364637D01*
X72114637Y-96164759D01*
X72271680Y-95929727D01*
X72379853Y-95668574D01*
X72435000Y-95391335D01*
X72435000Y-95108665D01*
X72379853Y-94831426D01*
X72271680Y-94570273D01*
X72177952Y-94429999D01*
X77612679Y-94429999D01*
X77650001Y-94433675D01*
X77687323Y-94429999D01*
X77687334Y-94429999D01*
X77798987Y-94419002D01*
X77942248Y-94375545D01*
X78074277Y-94304973D01*
X78190002Y-94210000D01*
X78213805Y-94180996D01*
X79440001Y-92954800D01*
X79440000Y-97661687D01*
X79221495Y-97807688D01*
X79007688Y-98021495D01*
X78950000Y-98107831D01*
X78892312Y-98021495D01*
X78678505Y-97807688D01*
X78427095Y-97639701D01*
X78147743Y-97523989D01*
X77851184Y-97465000D01*
X77548816Y-97465000D01*
X77252257Y-97523989D01*
X76972905Y-97639701D01*
X76721495Y-97807688D01*
X76507688Y-98021495D01*
X76339701Y-98272905D01*
X76223989Y-98552257D01*
X76165000Y-98848816D01*
X76165000Y-99151184D01*
X76223989Y-99447743D01*
X76339701Y-99727095D01*
X76507688Y-99978505D01*
X76721495Y-100192312D01*
X76972905Y-100360299D01*
X77252257Y-100476011D01*
X77548816Y-100535000D01*
X77851184Y-100535000D01*
X78147743Y-100476011D01*
X78427095Y-100360299D01*
X78678505Y-100192312D01*
X78892312Y-99978505D01*
X78950000Y-99892169D01*
X79007688Y-99978505D01*
X79221495Y-100192312D01*
X79472905Y-100360299D01*
X79752257Y-100476011D01*
X80048816Y-100535000D01*
X80351184Y-100535000D01*
X80647743Y-100476011D01*
X80927095Y-100360299D01*
X81178505Y-100192312D01*
X81216120Y-100154697D01*
X81269463Y-100254494D01*
X81348815Y-100351185D01*
X81445506Y-100430537D01*
X81555820Y-100489502D01*
X81675518Y-100525812D01*
X81800000Y-100538072D01*
X83600000Y-100538072D01*
X83724482Y-100525812D01*
X83844180Y-100489502D01*
X83954494Y-100430537D01*
X84051185Y-100351185D01*
X84130537Y-100254494D01*
X84189502Y-100144180D01*
X84225812Y-100024482D01*
X84238072Y-99900000D01*
X84238072Y-98100000D01*
X84225812Y-97975518D01*
X84189502Y-97855820D01*
X84130537Y-97745506D01*
X84051185Y-97648815D01*
X83954494Y-97569463D01*
X83844180Y-97510498D01*
X83724482Y-97474188D01*
X83600000Y-97461928D01*
X81800000Y-97461928D01*
X81675518Y-97474188D01*
X81555820Y-97510498D01*
X81445506Y-97569463D01*
X81348815Y-97648815D01*
X81269463Y-97745506D01*
X81216120Y-97845303D01*
X81178505Y-97807688D01*
X80960000Y-97661687D01*
X80960000Y-93014801D01*
X82756943Y-91217858D01*
X82745000Y-91277902D01*
X82745000Y-91722098D01*
X82831658Y-92157759D01*
X83001645Y-92568143D01*
X83248427Y-92937479D01*
X83562521Y-93251573D01*
X83931857Y-93498355D01*
X84342241Y-93668342D01*
X84777902Y-93755000D01*
X85222098Y-93755000D01*
X85657759Y-93668342D01*
X86068143Y-93498355D01*
X86437479Y-93251573D01*
X86751573Y-92937479D01*
X86998355Y-92568143D01*
X87168342Y-92157759D01*
X87255000Y-91722098D01*
X87255000Y-91277902D01*
X87168342Y-90842241D01*
X86998355Y-90431857D01*
X86751573Y-90062521D01*
X86437479Y-89748427D01*
X86068143Y-89501645D01*
X85657759Y-89331658D01*
X85222098Y-89245000D01*
X84777902Y-89245000D01*
X84717858Y-89256943D01*
X87250046Y-86724756D01*
X87320273Y-86771680D01*
X87581426Y-86879853D01*
X87858665Y-86935000D01*
X88141335Y-86935000D01*
X88418574Y-86879853D01*
X88679727Y-86771680D01*
X88914759Y-86614637D01*
X89114637Y-86414759D01*
X89250000Y-86212173D01*
X89385363Y-86414759D01*
X89585241Y-86614637D01*
X89820273Y-86771680D01*
X89865002Y-86790207D01*
X89865002Y-88239491D01*
X89641335Y-88195000D01*
X89358665Y-88195000D01*
X89081426Y-88250147D01*
X88820273Y-88358320D01*
X88585241Y-88515363D01*
X88385363Y-88715241D01*
X88228320Y-88950273D01*
X88120147Y-89211426D01*
X88065000Y-89488665D01*
X88065000Y-89771335D01*
X88120147Y-90048574D01*
X88228320Y-90309727D01*
X88385363Y-90544759D01*
X88585241Y-90744637D01*
X88820273Y-90901680D01*
X89081426Y-91009853D01*
X89358665Y-91065000D01*
X89641335Y-91065000D01*
X89865002Y-91020509D01*
X89865002Y-95859491D01*
X89641335Y-95815000D01*
X89358665Y-95815000D01*
X89081426Y-95870147D01*
X88820273Y-95978320D01*
X88585241Y-96135363D01*
X88385363Y-96335241D01*
X88228320Y-96570273D01*
X88120147Y-96831426D01*
X88065000Y-97108665D01*
X88065000Y-97391335D01*
X88120147Y-97668574D01*
X88228320Y-97929727D01*
X88385363Y-98164759D01*
X88585241Y-98364637D01*
X88820273Y-98521680D01*
X89081426Y-98629853D01*
X89358665Y-98685000D01*
X89641335Y-98685000D01*
X89865002Y-98640509D01*
X89865002Y-104018279D01*
X89736038Y-103825271D01*
X89424729Y-103513962D01*
X89058669Y-103269369D01*
X88651925Y-103100890D01*
X88220128Y-103015000D01*
X87779872Y-103015000D01*
X87348075Y-103100890D01*
X86941331Y-103269369D01*
X86575271Y-103513962D01*
X86263962Y-103825271D01*
X86019369Y-104191331D01*
X85850890Y-104598075D01*
X85765000Y-105029872D01*
X85765000Y-105470128D01*
X85850890Y-105901925D01*
X86019369Y-106308669D01*
X86263962Y-106674729D01*
X86575271Y-106986038D01*
X86941331Y-107230631D01*
X87348075Y-107399110D01*
X87779872Y-107485000D01*
X88220128Y-107485000D01*
X88651925Y-107399110D01*
X89058669Y-107230631D01*
X89424729Y-106986038D01*
X89736038Y-106674729D01*
X89865002Y-106481721D01*
X89865001Y-129460197D01*
X88063271Y-131261928D01*
X86879999Y-131261928D01*
X86706745Y-131278992D01*
X86540149Y-131329528D01*
X86386613Y-131411595D01*
X86252038Y-131522038D01*
X86141595Y-131656613D01*
X86059528Y-131810149D01*
X86008992Y-131976745D01*
X85991928Y-132149999D01*
X85991928Y-133850001D01*
X86008992Y-134023255D01*
X86059528Y-134189851D01*
X86141595Y-134343387D01*
X86252038Y-134477962D01*
X86386613Y-134588405D01*
X86540149Y-134670472D01*
X86706745Y-134721008D01*
X86879999Y-134738072D01*
X88120001Y-134738072D01*
X88293255Y-134721008D01*
X88459851Y-134670472D01*
X88613387Y-134588405D01*
X88747962Y-134477962D01*
X88858405Y-134343387D01*
X88916934Y-134233886D01*
X88970655Y-134299345D01*
X89199822Y-134487417D01*
X89461276Y-134627166D01*
X89744969Y-134713224D01*
X90040000Y-134742282D01*
X90335032Y-134713224D01*
X90618725Y-134627166D01*
X90880179Y-134487417D01*
X91109345Y-134299345D01*
X91297417Y-134070179D01*
X91337556Y-133995083D01*
X91339356Y-135840000D01*
X68560000Y-135840000D01*
X68560000Y-134190734D01*
X68641595Y-134343387D01*
X68752038Y-134477962D01*
X68886613Y-134588405D01*
X69040149Y-134670472D01*
X69206745Y-134721008D01*
X69379999Y-134738072D01*
X70620001Y-134738072D01*
X70793255Y-134721008D01*
X70959851Y-134670472D01*
X71113387Y-134588405D01*
X71247962Y-134477962D01*
X71358405Y-134343387D01*
X71416934Y-134233886D01*
X71470655Y-134299345D01*
X71699822Y-134487417D01*
X71961276Y-134627166D01*
X72244969Y-134713224D01*
X72540000Y-134742282D01*
X72835032Y-134713224D01*
X73118725Y-134627166D01*
X73380179Y-134487417D01*
X73609345Y-134299345D01*
X73797417Y-134070179D01*
X73937166Y-133808724D01*
X74023224Y-133525031D01*
X74045000Y-133303935D01*
X74045000Y-132696064D01*
X74023224Y-132474968D01*
X73937166Y-132191275D01*
X73915104Y-132149999D01*
X76991928Y-132149999D01*
X76991928Y-133850001D01*
X77008992Y-134023255D01*
X77059528Y-134189851D01*
X77141595Y-134343387D01*
X77252038Y-134477962D01*
X77386613Y-134588405D01*
X77540149Y-134670472D01*
X77706745Y-134721008D01*
X77879999Y-134738072D01*
X79120001Y-134738072D01*
X79293255Y-134721008D01*
X79459851Y-134670472D01*
X79613387Y-134588405D01*
X79747962Y-134477962D01*
X79858405Y-134343387D01*
X79916934Y-134233886D01*
X79970655Y-134299345D01*
X80199822Y-134487417D01*
X80461276Y-134627166D01*
X80744969Y-134713224D01*
X81040000Y-134742282D01*
X81335032Y-134713224D01*
X81618725Y-134627166D01*
X81880179Y-134487417D01*
X82109345Y-134299345D01*
X82297417Y-134070179D01*
X82437166Y-133808724D01*
X82523224Y-133525031D01*
X82545000Y-133303935D01*
X82545000Y-132696064D01*
X82523224Y-132474968D01*
X82437166Y-132191275D01*
X82297417Y-131929821D01*
X82109345Y-131700655D01*
X81880178Y-131512583D01*
X81618724Y-131372834D01*
X81335031Y-131286776D01*
X81040000Y-131257718D01*
X80744968Y-131286776D01*
X80461275Y-131372834D01*
X80199821Y-131512583D01*
X79970655Y-131700655D01*
X79916935Y-131766114D01*
X79858405Y-131656613D01*
X79747962Y-131522038D01*
X79613387Y-131411595D01*
X79459851Y-131329528D01*
X79293255Y-131278992D01*
X79120001Y-131261928D01*
X77879999Y-131261928D01*
X77706745Y-131278992D01*
X77540149Y-131329528D01*
X77386613Y-131411595D01*
X77252038Y-131522038D01*
X77141595Y-131656613D01*
X77059528Y-131810149D01*
X77008992Y-131976745D01*
X76991928Y-132149999D01*
X73915104Y-132149999D01*
X73797417Y-131929821D01*
X73609345Y-131700655D01*
X73380178Y-131512583D01*
X73118724Y-131372834D01*
X72835031Y-131286776D01*
X72540000Y-131257718D01*
X72244968Y-131286776D01*
X71961275Y-131372834D01*
X71699821Y-131512583D01*
X71470655Y-131700655D01*
X71416935Y-131766114D01*
X71358405Y-131656613D01*
X71247962Y-131522038D01*
X71113387Y-131411595D01*
X70959851Y-131329528D01*
X70793255Y-131278992D01*
X70620001Y-131261928D01*
X69379999Y-131261928D01*
X69206745Y-131278992D01*
X69040149Y-131329528D01*
X68886613Y-131411595D01*
X68752038Y-131522038D01*
X68641595Y-131656613D01*
X68560000Y-131809266D01*
X68560000Y-128348816D01*
X76165000Y-128348816D01*
X76165000Y-128651184D01*
X76223989Y-128947743D01*
X76339701Y-129227095D01*
X76507688Y-129478505D01*
X76721495Y-129692312D01*
X76972905Y-129860299D01*
X77252257Y-129976011D01*
X77548816Y-130035000D01*
X77851184Y-130035000D01*
X78147743Y-129976011D01*
X78427095Y-129860299D01*
X78678505Y-129692312D01*
X78892312Y-129478505D01*
X78950000Y-129392169D01*
X79007688Y-129478505D01*
X79221495Y-129692312D01*
X79472905Y-129860299D01*
X79752257Y-129976011D01*
X80048816Y-130035000D01*
X80351184Y-130035000D01*
X80647743Y-129976011D01*
X80927095Y-129860299D01*
X81178505Y-129692312D01*
X81216120Y-129654697D01*
X81269463Y-129754494D01*
X81348815Y-129851185D01*
X81445506Y-129930537D01*
X81555820Y-129989502D01*
X81675518Y-130025812D01*
X81800000Y-130038072D01*
X83600000Y-130038072D01*
X83724482Y-130025812D01*
X83844180Y-129989502D01*
X83954494Y-129930537D01*
X84051185Y-129851185D01*
X84130537Y-129754494D01*
X84189502Y-129644180D01*
X84225812Y-129524482D01*
X84238072Y-129400000D01*
X84238072Y-127600000D01*
X84225812Y-127475518D01*
X84189502Y-127355820D01*
X84130537Y-127245506D01*
X84051185Y-127148815D01*
X83954494Y-127069463D01*
X83844180Y-127010498D01*
X83724482Y-126974188D01*
X83600000Y-126961928D01*
X81800000Y-126961928D01*
X81675518Y-126974188D01*
X81555820Y-127010498D01*
X81445506Y-127069463D01*
X81348815Y-127148815D01*
X81269463Y-127245506D01*
X81216120Y-127345303D01*
X81178505Y-127307688D01*
X80927095Y-127139701D01*
X80647743Y-127023989D01*
X80351184Y-126965000D01*
X80048816Y-126965000D01*
X79752257Y-127023989D01*
X79472905Y-127139701D01*
X79221495Y-127307688D01*
X79007688Y-127521495D01*
X78950000Y-127607831D01*
X78892312Y-127521495D01*
X78678505Y-127307688D01*
X78427095Y-127139701D01*
X78147743Y-127023989D01*
X77851184Y-126965000D01*
X77548816Y-126965000D01*
X77252257Y-127023989D01*
X76972905Y-127139701D01*
X76721495Y-127307688D01*
X76507688Y-127521495D01*
X76339701Y-127772905D01*
X76223989Y-128052257D01*
X76165000Y-128348816D01*
X68560000Y-128348816D01*
X68560000Y-120777902D01*
X73145000Y-120777902D01*
X73145000Y-121222098D01*
X73231658Y-121657759D01*
X73401645Y-122068143D01*
X73648427Y-122437479D01*
X73962521Y-122751573D01*
X74331857Y-122998355D01*
X74742241Y-123168342D01*
X75177902Y-123255000D01*
X75622098Y-123255000D01*
X76057759Y-123168342D01*
X76468143Y-122998355D01*
X76837479Y-122751573D01*
X77151573Y-122437479D01*
X77398355Y-122068143D01*
X77568342Y-121657759D01*
X77655000Y-121222098D01*
X77655000Y-120777902D01*
X82745000Y-120777902D01*
X82745000Y-121222098D01*
X82831658Y-121657759D01*
X83001645Y-122068143D01*
X83248427Y-122437479D01*
X83562521Y-122751573D01*
X83931857Y-122998355D01*
X84342241Y-123168342D01*
X84777902Y-123255000D01*
X85222098Y-123255000D01*
X85657759Y-123168342D01*
X86068143Y-122998355D01*
X86437479Y-122751573D01*
X86751573Y-122437479D01*
X86998355Y-122068143D01*
X87168342Y-121657759D01*
X87255000Y-121222098D01*
X87255000Y-120777902D01*
X87168342Y-120342241D01*
X86998355Y-119931857D01*
X86751573Y-119562521D01*
X86437479Y-119248427D01*
X86068143Y-119001645D01*
X85657759Y-118831658D01*
X85222098Y-118745000D01*
X84777902Y-118745000D01*
X84342241Y-118831658D01*
X83931857Y-119001645D01*
X83562521Y-119248427D01*
X83248427Y-119562521D01*
X83001645Y-119931857D01*
X82831658Y-120342241D01*
X82745000Y-120777902D01*
X77655000Y-120777902D01*
X77568342Y-120342241D01*
X77398355Y-119931857D01*
X77151573Y-119562521D01*
X76837479Y-119248427D01*
X76468143Y-119001645D01*
X76057759Y-118831658D01*
X75622098Y-118745000D01*
X75177902Y-118745000D01*
X74742241Y-118831658D01*
X74331857Y-119001645D01*
X73962521Y-119248427D01*
X73648427Y-119562521D01*
X73401645Y-119931857D01*
X73231658Y-120342241D01*
X73145000Y-120777902D01*
X68560000Y-120777902D01*
X68560000Y-114242702D01*
X75686903Y-114242702D01*
X75758486Y-114486671D01*
X76013996Y-114607571D01*
X76288184Y-114676300D01*
X76570512Y-114690217D01*
X76850130Y-114648787D01*
X77116292Y-114553603D01*
X77241514Y-114486671D01*
X77313097Y-114242702D01*
X76500000Y-113429605D01*
X75686903Y-114242702D01*
X68560000Y-114242702D01*
X68560000Y-113320512D01*
X75059783Y-113320512D01*
X75101213Y-113600130D01*
X75196397Y-113866292D01*
X75263329Y-113991514D01*
X75507298Y-114063097D01*
X76320395Y-113250000D01*
X76679605Y-113250000D01*
X77492702Y-114063097D01*
X77736671Y-113991514D01*
X77857571Y-113736004D01*
X77926300Y-113461816D01*
X77940217Y-113179488D01*
X77929724Y-113108665D01*
X82685000Y-113108665D01*
X82685000Y-113391335D01*
X82740147Y-113668574D01*
X82848320Y-113929727D01*
X83005363Y-114164759D01*
X83205241Y-114364637D01*
X83440273Y-114521680D01*
X83701426Y-114629853D01*
X83978665Y-114685000D01*
X84261335Y-114685000D01*
X84538574Y-114629853D01*
X84799727Y-114521680D01*
X85034759Y-114364637D01*
X85234637Y-114164759D01*
X85391680Y-113929727D01*
X85499853Y-113668574D01*
X85555000Y-113391335D01*
X85555000Y-113108665D01*
X85499853Y-112831426D01*
X85391680Y-112570273D01*
X85234637Y-112335241D01*
X85034759Y-112135363D01*
X84799727Y-111978320D01*
X84538574Y-111870147D01*
X84261335Y-111815000D01*
X83978665Y-111815000D01*
X83701426Y-111870147D01*
X83440273Y-111978320D01*
X83205241Y-112135363D01*
X83005363Y-112335241D01*
X82848320Y-112570273D01*
X82740147Y-112831426D01*
X82685000Y-113108665D01*
X77929724Y-113108665D01*
X77898787Y-112899870D01*
X77803603Y-112633708D01*
X77736671Y-112508486D01*
X77492702Y-112436903D01*
X76679605Y-113250000D01*
X76320395Y-113250000D01*
X75507298Y-112436903D01*
X75263329Y-112508486D01*
X75142429Y-112763996D01*
X75073700Y-113038184D01*
X75059783Y-113320512D01*
X68560000Y-113320512D01*
X68560000Y-112257298D01*
X75686903Y-112257298D01*
X76500000Y-113070395D01*
X77313097Y-112257298D01*
X77241514Y-112013329D01*
X76986004Y-111892429D01*
X76711816Y-111823700D01*
X76429488Y-111809783D01*
X76149870Y-111851213D01*
X75883708Y-111946397D01*
X75758486Y-112013329D01*
X75686903Y-112257298D01*
X68560000Y-112257298D01*
X68560000Y-106866553D01*
X77419009Y-106866553D01*
X77461603Y-107165907D01*
X77561778Y-107451199D01*
X77641739Y-107600792D01*
X77895920Y-107684475D01*
X78780395Y-106800000D01*
X77895920Y-105915525D01*
X77641739Y-105999208D01*
X77510842Y-106271775D01*
X77435635Y-106564642D01*
X77419009Y-106866553D01*
X68560000Y-106866553D01*
X68560000Y-105735920D01*
X78075525Y-105735920D01*
X78960000Y-106620395D01*
X78974143Y-106606253D01*
X79153748Y-106785858D01*
X79139605Y-106800000D01*
X79153748Y-106814143D01*
X78974143Y-106993748D01*
X78960000Y-106979605D01*
X78075525Y-107864080D01*
X78159208Y-108118261D01*
X78431775Y-108249158D01*
X78724642Y-108324365D01*
X79026553Y-108340991D01*
X79325907Y-108298397D01*
X79611199Y-108198222D01*
X79760792Y-108118261D01*
X79844474Y-107864082D01*
X79960422Y-107980030D01*
X80007187Y-107933265D01*
X80010498Y-107944180D01*
X80069463Y-108054494D01*
X80148815Y-108151185D01*
X80245506Y-108230537D01*
X80355820Y-108289502D01*
X80475518Y-108325812D01*
X80600000Y-108338072D01*
X82400000Y-108338072D01*
X82524482Y-108325812D01*
X82644180Y-108289502D01*
X82754494Y-108230537D01*
X82851185Y-108151185D01*
X82930537Y-108054494D01*
X82989502Y-107944180D01*
X83025812Y-107824482D01*
X83038072Y-107700000D01*
X83038072Y-105900000D01*
X83025812Y-105775518D01*
X82989502Y-105655820D01*
X82930537Y-105545506D01*
X82851185Y-105448815D01*
X82754494Y-105369463D01*
X82644180Y-105310498D01*
X82524482Y-105274188D01*
X82400000Y-105261928D01*
X80600000Y-105261928D01*
X80475518Y-105274188D01*
X80355820Y-105310498D01*
X80245506Y-105369463D01*
X80148815Y-105448815D01*
X80069463Y-105545506D01*
X80010498Y-105655820D01*
X80007187Y-105666735D01*
X79960422Y-105619970D01*
X79844474Y-105735918D01*
X79760792Y-105481739D01*
X79488225Y-105350842D01*
X79195358Y-105275635D01*
X78893447Y-105259009D01*
X78594093Y-105301603D01*
X78308801Y-105401778D01*
X78159208Y-105481739D01*
X78075525Y-105735920D01*
X68560000Y-105735920D01*
X68560000Y-102728665D01*
X69565000Y-102728665D01*
X69565000Y-103011335D01*
X69620147Y-103288574D01*
X69728320Y-103549727D01*
X69885363Y-103784759D01*
X70085241Y-103984637D01*
X70320273Y-104141680D01*
X70581426Y-104249853D01*
X70858665Y-104305000D01*
X71141335Y-104305000D01*
X71418574Y-104249853D01*
X71679727Y-104141680D01*
X71914759Y-103984637D01*
X72114637Y-103784759D01*
X72271680Y-103549727D01*
X72379853Y-103288574D01*
X72435000Y-103011335D01*
X72435000Y-102728665D01*
X72379853Y-102451426D01*
X72271680Y-102190273D01*
X72114637Y-101955241D01*
X71914759Y-101755363D01*
X71679727Y-101598320D01*
X71418574Y-101490147D01*
X71141335Y-101435000D01*
X70858665Y-101435000D01*
X70581426Y-101490147D01*
X70320273Y-101598320D01*
X70085241Y-101755363D01*
X69885363Y-101955241D01*
X69728320Y-102190273D01*
X69620147Y-102451426D01*
X69565000Y-102728665D01*
X68560000Y-102728665D01*
X68560000Y-81719040D01*
X68608091Y-81719040D01*
X68702930Y-81983881D01*
X68847615Y-82225131D01*
X69036586Y-82433519D01*
X69262580Y-82601037D01*
X69516913Y-82721246D01*
X69650961Y-82761904D01*
X69873000Y-82639915D01*
X69873000Y-81497000D01*
X70127000Y-81497000D01*
X70127000Y-82639915D01*
X70349039Y-82761904D01*
X70483087Y-82721246D01*
X70737420Y-82601037D01*
X70963414Y-82433519D01*
X71152385Y-82225131D01*
X71297070Y-81983881D01*
X71391909Y-81719040D01*
X71270624Y-81497000D01*
X70127000Y-81497000D01*
X69873000Y-81497000D01*
X68729376Y-81497000D01*
X68608091Y-81719040D01*
X68560000Y-81719040D01*
X68560000Y-81020960D01*
X68608091Y-81020960D01*
X68729376Y-81243000D01*
X69873000Y-81243000D01*
X69873000Y-80100085D01*
X70127000Y-80100085D01*
X70127000Y-81243000D01*
X71270624Y-81243000D01*
X71391909Y-81020960D01*
X71297070Y-80756119D01*
X71199243Y-80593000D01*
X72075000Y-80593000D01*
X72075000Y-80993000D01*
X73383000Y-80993000D01*
X73383000Y-79450085D01*
X73160961Y-79328096D01*
X73078182Y-79345633D01*
X72818354Y-79456285D01*
X72585105Y-79615500D01*
X72387399Y-79817161D01*
X72232834Y-80053517D01*
X72127350Y-80315486D01*
X72075000Y-80593000D01*
X71199243Y-80593000D01*
X71152385Y-80514869D01*
X70963414Y-80306481D01*
X70737420Y-80138963D01*
X70483087Y-80018754D01*
X70349039Y-79978096D01*
X70127000Y-80100085D01*
X69873000Y-80100085D01*
X69650961Y-79978096D01*
X69516913Y-80018754D01*
X69262580Y-80138963D01*
X69036586Y-80306481D01*
X68847615Y-80514869D01*
X68702930Y-80756119D01*
X68608091Y-81020960D01*
X68560000Y-81020960D01*
X68560000Y-73608665D01*
X68565000Y-73608665D01*
X68565000Y-73891335D01*
X68620147Y-74168574D01*
X68728320Y-74429727D01*
X68885363Y-74664759D01*
X69085241Y-74864637D01*
X69320273Y-75021680D01*
X69581426Y-75129853D01*
X69858665Y-75185000D01*
X70141335Y-75185000D01*
X70418574Y-75129853D01*
X70679727Y-75021680D01*
X70914759Y-74864637D01*
X71114637Y-74664759D01*
X71271680Y-74429727D01*
X71379853Y-74168574D01*
X71435000Y-73891335D01*
X71435000Y-73608665D01*
X71379853Y-73331426D01*
X71271680Y-73070273D01*
X71114637Y-72835241D01*
X70914759Y-72635363D01*
X70679727Y-72478320D01*
X70418574Y-72370147D01*
X70141335Y-72315000D01*
X69858665Y-72315000D01*
X69581426Y-72370147D01*
X69320273Y-72478320D01*
X69085241Y-72635363D01*
X68885363Y-72835241D01*
X68728320Y-73070273D01*
X68620147Y-73331426D01*
X68565000Y-73608665D01*
X68560000Y-73608665D01*
X68560000Y-64978665D01*
X69815000Y-64978665D01*
X69815000Y-65261335D01*
X69870147Y-65538574D01*
X69978320Y-65799727D01*
X70135363Y-66034759D01*
X70335241Y-66234637D01*
X70570273Y-66391680D01*
X70831426Y-66499853D01*
X71108665Y-66555000D01*
X71391335Y-66555000D01*
X71668574Y-66499853D01*
X71929727Y-66391680D01*
X72164759Y-66234637D01*
X72364637Y-66034759D01*
X72521680Y-65799727D01*
X72629853Y-65538574D01*
X72685000Y-65261335D01*
X72685000Y-64978665D01*
X72629853Y-64701426D01*
X72521680Y-64440273D01*
X72364637Y-64205241D01*
X72164759Y-64005363D01*
X71929727Y-63848320D01*
X71668574Y-63740147D01*
X71391335Y-63685000D01*
X71108665Y-63685000D01*
X70831426Y-63740147D01*
X70570273Y-63848320D01*
X70335241Y-64005363D01*
X70135363Y-64205241D01*
X69978320Y-64440273D01*
X69870147Y-64701426D01*
X69815000Y-64978665D01*
X68560000Y-64978665D01*
X68560000Y-57358665D01*
X69815000Y-57358665D01*
X69815000Y-57641335D01*
X69870147Y-57918574D01*
X69978320Y-58179727D01*
X70135363Y-58414759D01*
X70335241Y-58614637D01*
X70570273Y-58771680D01*
X70831426Y-58879853D01*
X71108665Y-58935000D01*
X71391335Y-58935000D01*
X71668574Y-58879853D01*
X71929727Y-58771680D01*
X72164759Y-58614637D01*
X72364637Y-58414759D01*
X72521680Y-58179727D01*
X72629853Y-57918574D01*
X72685000Y-57641335D01*
X72685000Y-57358665D01*
X72629853Y-57081426D01*
X72521680Y-56820273D01*
X72364637Y-56585241D01*
X72164759Y-56385363D01*
X71929727Y-56228320D01*
X71668574Y-56120147D01*
X71391335Y-56065000D01*
X71108665Y-56065000D01*
X70831426Y-56120147D01*
X70570273Y-56228320D01*
X70335241Y-56385363D01*
X70135363Y-56585241D01*
X69978320Y-56820273D01*
X69870147Y-57081426D01*
X69815000Y-57358665D01*
X68560000Y-57358665D01*
X68560000Y-47700000D01*
X69461928Y-47700000D01*
X69461928Y-49300000D01*
X69474188Y-49424482D01*
X69510498Y-49544180D01*
X69569463Y-49654494D01*
X69648815Y-49751185D01*
X69745506Y-49830537D01*
X69855820Y-49889502D01*
X69975518Y-49925812D01*
X70100000Y-49938072D01*
X71700000Y-49938072D01*
X71824482Y-49925812D01*
X71944180Y-49889502D01*
X72054494Y-49830537D01*
X72151185Y-49751185D01*
X72164790Y-49734607D01*
X72220273Y-49771680D01*
X72481426Y-49879853D01*
X72758665Y-49935000D01*
X73041335Y-49935000D01*
X73318574Y-49879853D01*
X73579727Y-49771680D01*
X73814759Y-49614637D01*
X74014637Y-49414759D01*
X74171680Y-49179727D01*
X74279853Y-48918574D01*
X74335000Y-48641335D01*
X74335000Y-48358665D01*
X74279853Y-48081426D01*
X74171680Y-47820273D01*
X74091317Y-47700000D01*
X85461928Y-47700000D01*
X85461928Y-49300000D01*
X85474188Y-49424482D01*
X85510498Y-49544180D01*
X85569463Y-49654494D01*
X85648815Y-49751185D01*
X85745506Y-49830537D01*
X85855820Y-49889502D01*
X85975518Y-49925812D01*
X86100000Y-49938072D01*
X87700000Y-49938072D01*
X87824482Y-49925812D01*
X87944180Y-49889502D01*
X88054494Y-49830537D01*
X88151185Y-49751185D01*
X88164790Y-49734607D01*
X88220273Y-49771680D01*
X88481426Y-49879853D01*
X88758665Y-49935000D01*
X89041335Y-49935000D01*
X89318574Y-49879853D01*
X89579727Y-49771680D01*
X89814759Y-49614637D01*
X90014637Y-49414759D01*
X90171680Y-49179727D01*
X90279853Y-48918574D01*
X90335000Y-48641335D01*
X90335000Y-48358665D01*
X90279853Y-48081426D01*
X90171680Y-47820273D01*
X90014637Y-47585241D01*
X89814759Y-47385363D01*
X89579727Y-47228320D01*
X89318574Y-47120147D01*
X89041335Y-47065000D01*
X88758665Y-47065000D01*
X88481426Y-47120147D01*
X88220273Y-47228320D01*
X88164790Y-47265393D01*
X88151185Y-47248815D01*
X88054494Y-47169463D01*
X87944180Y-47110498D01*
X87824482Y-47074188D01*
X87700000Y-47061928D01*
X86100000Y-47061928D01*
X85975518Y-47074188D01*
X85855820Y-47110498D01*
X85745506Y-47169463D01*
X85648815Y-47248815D01*
X85569463Y-47345506D01*
X85510498Y-47455820D01*
X85474188Y-47575518D01*
X85461928Y-47700000D01*
X74091317Y-47700000D01*
X74014637Y-47585241D01*
X73814759Y-47385363D01*
X73579727Y-47228320D01*
X73318574Y-47120147D01*
X73041335Y-47065000D01*
X72758665Y-47065000D01*
X72481426Y-47120147D01*
X72220273Y-47228320D01*
X72164790Y-47265393D01*
X72151185Y-47248815D01*
X72054494Y-47169463D01*
X71944180Y-47110498D01*
X71824482Y-47074188D01*
X71700000Y-47061928D01*
X70100000Y-47061928D01*
X69975518Y-47074188D01*
X69855820Y-47110498D01*
X69745506Y-47169463D01*
X69648815Y-47248815D01*
X69569463Y-47345506D01*
X69510498Y-47455820D01*
X69474188Y-47575518D01*
X69461928Y-47700000D01*
X68560000Y-47700000D01*
X68560000Y-39636400D01*
X73498328Y-39636400D01*
X73498328Y-41363600D01*
X73510588Y-41488082D01*
X73546898Y-41607780D01*
X73605863Y-41718094D01*
X73685215Y-41814785D01*
X73781906Y-41894137D01*
X73892220Y-41953102D01*
X74011918Y-41989412D01*
X74136400Y-42001672D01*
X74240000Y-42001672D01*
X74240000Y-42962677D01*
X74236324Y-43000000D01*
X74240000Y-43037322D01*
X74240000Y-43037332D01*
X74250997Y-43148985D01*
X74294454Y-43292246D01*
X74365026Y-43424276D01*
X74403383Y-43471014D01*
X74459999Y-43540001D01*
X74489003Y-43563804D01*
X75162655Y-44237457D01*
X75148815Y-44248815D01*
X75069463Y-44345506D01*
X75010498Y-44455820D01*
X74974188Y-44575518D01*
X74961928Y-44700000D01*
X74961928Y-46300000D01*
X74974188Y-46424482D01*
X75010498Y-46544180D01*
X75069463Y-46654494D01*
X75148815Y-46751185D01*
X75245506Y-46830537D01*
X75355820Y-46889502D01*
X75475518Y-46925812D01*
X75600000Y-46938072D01*
X77200000Y-46938072D01*
X77324482Y-46925812D01*
X77444180Y-46889502D01*
X77554494Y-46830537D01*
X77651185Y-46751185D01*
X77730537Y-46654494D01*
X77789502Y-46544180D01*
X77825812Y-46424482D01*
X77838072Y-46300000D01*
X77838072Y-44700000D01*
X77825812Y-44575518D01*
X77789502Y-44455820D01*
X77730537Y-44345506D01*
X77651185Y-44248815D01*
X77554494Y-44169463D01*
X77444180Y-44110498D01*
X77324482Y-44074188D01*
X77200000Y-44061928D01*
X77081052Y-44061928D01*
X77034974Y-43975723D01*
X76963799Y-43888997D01*
X76940001Y-43859999D01*
X76911003Y-43836201D01*
X75760000Y-42685199D01*
X75760000Y-42001672D01*
X75863600Y-42001672D01*
X75988082Y-41989412D01*
X76107780Y-41953102D01*
X76218094Y-41894137D01*
X76314785Y-41814785D01*
X76394137Y-41718094D01*
X76453102Y-41607780D01*
X76470636Y-41549977D01*
X76584698Y-41664039D01*
X76830147Y-41828042D01*
X77102875Y-41941010D01*
X77392401Y-41998600D01*
X77687599Y-41998600D01*
X77977125Y-41941010D01*
X78249853Y-41828042D01*
X78495302Y-41664039D01*
X78704039Y-41455302D01*
X78810000Y-41296719D01*
X78915961Y-41455302D01*
X79124698Y-41664039D01*
X79370147Y-41828042D01*
X79642875Y-41941010D01*
X79932401Y-41998600D01*
X80227599Y-41998600D01*
X80517125Y-41941010D01*
X80789853Y-41828042D01*
X81035302Y-41664039D01*
X81244039Y-41455302D01*
X81350000Y-41296719D01*
X81455961Y-41455302D01*
X81664698Y-41664039D01*
X81910147Y-41828042D01*
X82182875Y-41941010D01*
X82472401Y-41998600D01*
X82767599Y-41998600D01*
X83057125Y-41941010D01*
X83329853Y-41828042D01*
X83575302Y-41664039D01*
X83784039Y-41455302D01*
X83890000Y-41296719D01*
X83995961Y-41455302D01*
X84204698Y-41664039D01*
X84400000Y-41794535D01*
X84400001Y-43305197D01*
X83723886Y-43981312D01*
X83541335Y-43945000D01*
X83258665Y-43945000D01*
X82981426Y-44000147D01*
X82720273Y-44108320D01*
X82485241Y-44265363D01*
X82285363Y-44465241D01*
X82128320Y-44700273D01*
X82020147Y-44961426D01*
X81965000Y-45238665D01*
X81965000Y-45521335D01*
X82020147Y-45798574D01*
X82128320Y-46059727D01*
X82285363Y-46294759D01*
X82485241Y-46494637D01*
X82720273Y-46651680D01*
X82981426Y-46759853D01*
X83258665Y-46815000D01*
X83541335Y-46815000D01*
X83818574Y-46759853D01*
X84079727Y-46651680D01*
X84314759Y-46494637D01*
X84514637Y-46294759D01*
X84671680Y-46059727D01*
X84779853Y-45798574D01*
X84835000Y-45521335D01*
X84835000Y-45238665D01*
X84798688Y-45056114D01*
X85671003Y-44183799D01*
X85700001Y-44160001D01*
X85794974Y-44044276D01*
X85865546Y-43912247D01*
X85909003Y-43768986D01*
X85920000Y-43657333D01*
X85920000Y-43657323D01*
X85923676Y-43620000D01*
X85920000Y-43582677D01*
X85920000Y-41794535D01*
X86115302Y-41664039D01*
X86324039Y-41455302D01*
X86488042Y-41209853D01*
X86601010Y-40937125D01*
X86658600Y-40647599D01*
X86658600Y-40352401D01*
X86601010Y-40062875D01*
X86488042Y-39790147D01*
X86324039Y-39544698D01*
X86115302Y-39335961D01*
X85956719Y-39230000D01*
X86115302Y-39124039D01*
X86324039Y-38915302D01*
X86488042Y-38669853D01*
X86601010Y-38397125D01*
X86658600Y-38107599D01*
X86658600Y-37812401D01*
X86601010Y-37522875D01*
X86488042Y-37250147D01*
X86324039Y-37004698D01*
X86115302Y-36795961D01*
X85869853Y-36631958D01*
X85597125Y-36518990D01*
X85307599Y-36461400D01*
X85012401Y-36461400D01*
X84722875Y-36518990D01*
X84450147Y-36631958D01*
X84204698Y-36795961D01*
X83995961Y-37004698D01*
X83890000Y-37163281D01*
X83784039Y-37004698D01*
X83575302Y-36795961D01*
X83329853Y-36631958D01*
X83057125Y-36518990D01*
X82767599Y-36461400D01*
X82472401Y-36461400D01*
X82182875Y-36518990D01*
X81910147Y-36631958D01*
X81664698Y-36795961D01*
X81455961Y-37004698D01*
X81350000Y-37163281D01*
X81244039Y-37004698D01*
X81035302Y-36795961D01*
X80789853Y-36631958D01*
X80517125Y-36518990D01*
X80227599Y-36461400D01*
X79932401Y-36461400D01*
X79642875Y-36518990D01*
X79370147Y-36631958D01*
X79124698Y-36795961D01*
X78915961Y-37004698D01*
X78810000Y-37163281D01*
X78704039Y-37004698D01*
X78495302Y-36795961D01*
X78249853Y-36631958D01*
X77977125Y-36518990D01*
X77687599Y-36461400D01*
X77392401Y-36461400D01*
X77102875Y-36518990D01*
X76830147Y-36631958D01*
X76584698Y-36795961D01*
X76375961Y-37004698D01*
X76270000Y-37163281D01*
X76164039Y-37004698D01*
X75955302Y-36795961D01*
X75709853Y-36631958D01*
X75437125Y-36518990D01*
X75147599Y-36461400D01*
X74852401Y-36461400D01*
X74562875Y-36518990D01*
X74290147Y-36631958D01*
X74044698Y-36795961D01*
X73835961Y-37004698D01*
X73671958Y-37250147D01*
X73558990Y-37522875D01*
X73501400Y-37812401D01*
X73501400Y-38107599D01*
X73558990Y-38397125D01*
X73671958Y-38669853D01*
X73835961Y-38915302D01*
X73950023Y-39029364D01*
X73892220Y-39046898D01*
X73781906Y-39105863D01*
X73685215Y-39185215D01*
X73605863Y-39281906D01*
X73546898Y-39392220D01*
X73510588Y-39511918D01*
X73498328Y-39636400D01*
X68560000Y-39636400D01*
X68560000Y-34660000D01*
X91240644Y-34660000D01*
X91267134Y-61812332D01*
G37*
%TD.AperFunction*%
%TD*%
M02*
