%TF.GenerationSoftware,KiCad,Pcbnew,(5.1.12-1-10_14)*%
%TF.CreationDate,2021-12-12T17:04:58+01:00*%
%TF.ProjectId,envy,656e7679-2e6b-4696-9361-645f70636258,rev?*%
%TF.SameCoordinates,Original*%
%TF.FileFunction,Soldermask,Top*%
%TF.FilePolarity,Negative*%
%FSLAX46Y46*%
G04 Gerber Fmt 4.6, Leading zero omitted, Abs format (unit mm)*
G04 Created by KiCad (PCBNEW (5.1.12-1-10_14)) date 2021-12-12 17:04:58*
%MOMM*%
%LPD*%
G01*
G04 APERTURE LIST*
%ADD10R,1.600000X1.600000*%
%ADD11O,1.600000X1.600000*%
%ADD12C,1.600000*%
%ADD13R,1.727200X1.727200*%
%ADD14O,1.727200X1.727200*%
%ADD15R,1.800000X1.800000*%
%ADD16C,1.800000*%
%ADD17C,3.240000*%
%ADD18C,3.200000*%
%ADD19O,1.740000X2.200000*%
%ADD20R,1.600000X2.400000*%
%ADD21O,1.600000X2.400000*%
G04 APERTURE END LIST*
D10*
%TO.C,D4*%
X76400000Y-45500000D03*
D11*
X76400000Y-53120000D03*
%TD*%
%TO.C,D3*%
X83400000Y-45380000D03*
D10*
X83400000Y-53000000D03*
%TD*%
%TO.C,C2*%
X70900000Y-48500000D03*
D12*
X72900000Y-48500000D03*
%TD*%
%TO.C,C1*%
X88900000Y-48500000D03*
D10*
X86900000Y-48500000D03*
%TD*%
D13*
%TO.C,J5*%
X75000000Y-40500000D03*
D14*
X75000000Y-37960000D03*
X77540000Y-40500000D03*
X77540000Y-37960000D03*
X80080000Y-40500000D03*
X80080000Y-37960000D03*
X82620000Y-40500000D03*
X82620000Y-37960000D03*
X85160000Y-40500000D03*
X85160000Y-37960000D03*
%TD*%
D15*
%TO.C,RV3*%
X82700000Y-128500000D03*
D16*
X80200000Y-128500000D03*
X77700000Y-128500000D03*
D17*
X75400000Y-121000000D03*
X85000000Y-121000000D03*
%TD*%
D15*
%TO.C,RV1*%
X82700000Y-99000000D03*
D16*
X80200000Y-99000000D03*
X77700000Y-99000000D03*
D17*
X75400000Y-91500000D03*
X85000000Y-91500000D03*
%TD*%
%TO.C,RV2*%
X85050000Y-60000000D03*
X75450000Y-60000000D03*
D16*
X77750000Y-67500000D03*
X80250000Y-67500000D03*
D15*
X82750000Y-67500000D03*
%TD*%
D12*
%TO.C,C3*%
X80750000Y-78000000D03*
X78250000Y-78000000D03*
%TD*%
%TO.C,C4*%
X87750000Y-76500000D03*
X85250000Y-76500000D03*
%TD*%
%TO.C,C5*%
X88000000Y-85500000D03*
X90500000Y-85500000D03*
%TD*%
%TO.C,C6*%
X70750000Y-53500000D03*
X73250000Y-53500000D03*
%TD*%
D15*
%TO.C,D1*%
X81500000Y-106800000D03*
D16*
X78960000Y-106800000D03*
%TD*%
D10*
%TO.C,D2*%
X88750000Y-52750000D03*
D11*
X88750000Y-60370000D03*
%TD*%
D18*
%TO.C,H1*%
X88000000Y-105250000D03*
%TD*%
%TO.C,IN*%
G36*
G01*
X86630000Y-133850001D02*
X86630000Y-132149999D01*
G75*
G02*
X86879999Y-131900000I249999J0D01*
G01*
X88120001Y-131900000D01*
G75*
G02*
X88370000Y-132149999I0J-249999D01*
G01*
X88370000Y-133850001D01*
G75*
G02*
X88120001Y-134100000I-249999J0D01*
G01*
X86879999Y-134100000D01*
G75*
G02*
X86630000Y-133850001I0J249999D01*
G01*
G37*
D19*
X90040000Y-133000000D03*
%TD*%
%TO.C,J2*%
X81040000Y-133000000D03*
G36*
G01*
X77630000Y-133850001D02*
X77630000Y-132149999D01*
G75*
G02*
X77879999Y-131900000I249999J0D01*
G01*
X79120001Y-131900000D01*
G75*
G02*
X79370000Y-132149999I0J-249999D01*
G01*
X79370000Y-133850001D01*
G75*
G02*
X79120001Y-134100000I-249999J0D01*
G01*
X77879999Y-134100000D01*
G75*
G02*
X77630000Y-133850001I0J249999D01*
G01*
G37*
%TD*%
%TO.C,INV*%
G36*
G01*
X69130000Y-133850001D02*
X69130000Y-132149999D01*
G75*
G02*
X69379999Y-131900000I249999J0D01*
G01*
X70620001Y-131900000D01*
G75*
G02*
X70870000Y-132149999I0J-249999D01*
G01*
X70870000Y-133850001D01*
G75*
G02*
X70620001Y-134100000I-249999J0D01*
G01*
X69379999Y-134100000D01*
G75*
G02*
X69130000Y-133850001I0J249999D01*
G01*
G37*
X72540000Y-133000000D03*
%TD*%
D12*
%TO.C,R1*%
X89500000Y-97250000D03*
D11*
X89500000Y-89630000D03*
%TD*%
%TO.C,R2*%
X70000000Y-81370000D03*
D12*
X70000000Y-73750000D03*
%TD*%
D11*
%TO.C,R3*%
X71250000Y-65120000D03*
D12*
X71250000Y-57500000D03*
%TD*%
%TO.C,R4*%
X76500000Y-113250000D03*
D11*
X84120000Y-113250000D03*
%TD*%
D12*
%TO.C,R5*%
X76250000Y-84500000D03*
D11*
X83870000Y-84500000D03*
%TD*%
%TO.C,R6*%
X71000000Y-92870000D03*
D12*
X71000000Y-85250000D03*
%TD*%
D11*
%TO.C,R7*%
X88750000Y-70370000D03*
D12*
X88750000Y-62750000D03*
%TD*%
%TO.C,R8*%
X71000000Y-95250000D03*
D11*
X71000000Y-102870000D03*
%TD*%
D12*
%TO.C,R9*%
X78000000Y-70300000D03*
D11*
X70380000Y-70300000D03*
%TD*%
D20*
%TO.C,U1*%
X88750000Y-73500000D03*
D21*
X73510000Y-81120000D03*
X86210000Y-73500000D03*
X76050000Y-81120000D03*
X83670000Y-73500000D03*
X78590000Y-81120000D03*
X81130000Y-73500000D03*
X81130000Y-81120000D03*
X78590000Y-73500000D03*
X83670000Y-81120000D03*
X76050000Y-73500000D03*
X86210000Y-81120000D03*
X73510000Y-73500000D03*
X88750000Y-81120000D03*
%TD*%
M02*
