M48
; DRILL file {KiCad (5.1.12-1-10_14)} date 2021 December 12, Sunday 17:01:29
; FORMAT={-:-/ absolute / inch / decimal}
; #@! TF.CreationDate,2021-12-12T17:01:29+01:00
; #@! TF.GenerationSoftware,Kicad,Pcbnew,(5.1.12-1-10_14)
; #@! TF.FileFunction,Plated,1,2,PTH
FMAT,2
INCH
T1C0.0315
T2C0.0354
T3C0.0394
T4C0.0400
T5C0.0472
T6C0.0709
%
G90
G05
T1
X2.7559Y-2.9035
X2.7559Y-3.2035
X2.7709Y-2.7677
X2.7854Y-2.1063
X2.7913Y-1.9094
X2.7953Y-3.3563
X2.7953Y-3.6563
X2.7953Y-3.75
X2.7953Y-4.05
X2.8051Y-2.2638
X2.8051Y-2.5638
X2.8701Y-1.9094
X2.8839Y-2.1063
X2.8941Y-2.8937
X2.8941Y-3.1937
X2.9941Y-2.8937
X2.9941Y-3.1937
X3.002Y-3.3268
X3.0079Y-1.7913
X3.0079Y-2.0913
X3.0118Y-4.4587
X3.0709Y-2.7677
X3.0807Y-3.0709
X3.0941Y-2.8937
X3.0941Y-3.1937
X3.1791Y-3.0709
X3.1941Y-2.8937
X3.1941Y-3.1937
X3.2835Y-1.7866
X3.2835Y-2.0866
X3.2941Y-2.8937
X3.2941Y-3.1937
X3.302Y-3.3268
X3.3118Y-4.4587
X3.3563Y-3.0118
X3.3941Y-2.8937
X3.3941Y-3.1937
X3.4213Y-1.9094
X3.4547Y-3.0118
X3.4646Y-3.3661
X3.4941Y-2.0768
X3.4941Y-2.3768
X3.4941Y-2.4705
X3.4941Y-2.7705
X3.4941Y-2.8937
X3.4941Y-3.1937
X3.5Y-1.9094
X3.5236Y-3.5287
X3.5236Y-3.8287
X3.563Y-3.3661
T2
X3.1087Y-4.2047
X3.2087Y-4.2047
T3
X3.0591Y-3.8976
X3.0591Y-5.0591
X3.061Y-2.6575
X3.1575Y-3.8976
X3.1575Y-5.0591
X3.1594Y-2.6575
X3.2559Y-3.8976
X3.2559Y-5.0591
X3.2579Y-2.6575
T4
X2.9528Y-1.4945
X2.9528Y-1.5945
X3.0528Y-1.4945
X3.0528Y-1.5945
X3.1528Y-1.4945
X3.1528Y-1.5945
X3.2528Y-1.4945
X3.2528Y-1.5945
X3.3528Y-1.4945
X3.3528Y-1.5945
T5
X2.7559Y-5.2362
X2.8559Y-5.2362
X3.0906Y-5.2362
X3.1906Y-5.2362
X3.4449Y-5.2362
X3.5449Y-5.2362
T6
X2.9685Y-3.6024
X2.9685Y-4.7638
X2.9705Y-2.3622
X3.3465Y-3.6024
X3.3465Y-4.7638
X3.3484Y-2.3622
T0
M30
