%TF.GenerationSoftware,KiCad,Pcbnew,(5.1.12-1-10_14)*%
%TF.CreationDate,2021-12-12T17:04:58+01:00*%
%TF.ProjectId,envy,656e7679-2e6b-4696-9361-645f70636258,rev?*%
%TF.SameCoordinates,Original*%
%TF.FileFunction,Legend,Top*%
%TF.FilePolarity,Positive*%
%FSLAX46Y46*%
G04 Gerber Fmt 4.6, Leading zero omitted, Abs format (unit mm)*
G04 Created by KiCad (PCBNEW (5.1.12-1-10_14)) date 2021-12-12 17:04:58*
%MOMM*%
%LPD*%
G01*
G04 APERTURE LIST*
%ADD10C,0.300000*%
%ADD11C,0.250000*%
%ADD12C,0.187500*%
%ADD13C,0.120000*%
%ADD14C,0.150000*%
%ADD15R,1.600000X1.600000*%
%ADD16O,1.600000X1.600000*%
%ADD17C,1.600000*%
%ADD18R,1.727200X1.727200*%
%ADD19O,1.727200X1.727200*%
%ADD20R,1.800000X1.800000*%
%ADD21C,1.800000*%
%ADD22C,3.240000*%
%ADD23C,3.200000*%
%ADD24O,1.740000X2.200000*%
%ADD25R,1.600000X2.400000*%
%ADD26O,1.600000X2.400000*%
G04 APERTURE END LIST*
D10*
X73171428Y-124878571D02*
X73171428Y-125950000D01*
X73100000Y-126164285D01*
X72957142Y-126307142D01*
X72742857Y-126378571D01*
X72600000Y-126378571D01*
X74600000Y-126378571D02*
X73885714Y-126378571D01*
X73885714Y-124878571D01*
X75957142Y-126235714D02*
X75885714Y-126307142D01*
X75671428Y-126378571D01*
X75528571Y-126378571D01*
X75314285Y-126307142D01*
X75171428Y-126164285D01*
X75100000Y-126021428D01*
X75028571Y-125735714D01*
X75028571Y-125521428D01*
X75100000Y-125235714D01*
X75171428Y-125092857D01*
X75314285Y-124950000D01*
X75528571Y-124878571D01*
X75671428Y-124878571D01*
X75885714Y-124950000D01*
X75957142Y-125021428D01*
X77028571Y-124878571D02*
X77028571Y-125950000D01*
X76957142Y-126164285D01*
X76814285Y-126307142D01*
X76600000Y-126378571D01*
X76457142Y-126378571D01*
X78457142Y-126378571D02*
X77742857Y-126378571D01*
X77742857Y-124878571D01*
X79814285Y-126235714D02*
X79742857Y-126307142D01*
X79528571Y-126378571D01*
X79385714Y-126378571D01*
X79171428Y-126307142D01*
X79028571Y-126164285D01*
X78957142Y-126021428D01*
X78885714Y-125735714D01*
X78885714Y-125521428D01*
X78957142Y-125235714D01*
X79028571Y-125092857D01*
X79171428Y-124950000D01*
X79385714Y-124878571D01*
X79528571Y-124878571D01*
X79742857Y-124950000D01*
X79814285Y-125021428D01*
X80885714Y-124878571D02*
X80885714Y-125950000D01*
X80814285Y-126164285D01*
X80671428Y-126307142D01*
X80457142Y-126378571D01*
X80314285Y-126378571D01*
X82314285Y-126378571D02*
X81600000Y-126378571D01*
X81600000Y-124878571D01*
X83671428Y-126235714D02*
X83600000Y-126307142D01*
X83385714Y-126378571D01*
X83242857Y-126378571D01*
X83028571Y-126307142D01*
X82885714Y-126164285D01*
X82814285Y-126021428D01*
X82742857Y-125735714D01*
X82742857Y-125521428D01*
X82814285Y-125235714D01*
X82885714Y-125092857D01*
X83028571Y-124950000D01*
X83242857Y-124878571D01*
X83385714Y-124878571D01*
X83600000Y-124950000D01*
X83671428Y-125021428D01*
X84742857Y-124878571D02*
X84742857Y-125950000D01*
X84671428Y-126164285D01*
X84528571Y-126307142D01*
X84314285Y-126378571D01*
X84171428Y-126378571D01*
X86171428Y-126378571D02*
X85457142Y-126378571D01*
X85457142Y-124878571D01*
X87528571Y-126235714D02*
X87457142Y-126307142D01*
X87242857Y-126378571D01*
X87100000Y-126378571D01*
X86885714Y-126307142D01*
X86742857Y-126164285D01*
X86671428Y-126021428D01*
X86600000Y-125735714D01*
X86600000Y-125521428D01*
X86671428Y-125235714D01*
X86742857Y-125092857D01*
X86885714Y-124950000D01*
X87100000Y-124878571D01*
X87242857Y-124878571D01*
X87457142Y-124950000D01*
X87528571Y-125021428D01*
D11*
X88577380Y-120522395D02*
X87577380Y-120397395D01*
X88529761Y-120516443D02*
X88577380Y-120617633D01*
X88577380Y-120808110D01*
X88529761Y-120897395D01*
X88482142Y-120939062D01*
X88386904Y-120974776D01*
X88101190Y-120939062D01*
X88005952Y-120879538D01*
X87958333Y-120825967D01*
X87910714Y-120724776D01*
X87910714Y-120534300D01*
X87958333Y-120445014D01*
X88529761Y-119659300D02*
X88577380Y-119760491D01*
X88577380Y-119950967D01*
X88529761Y-120040252D01*
X88434523Y-120075967D01*
X88053571Y-120028348D01*
X87958333Y-119968824D01*
X87910714Y-119867633D01*
X87910714Y-119677157D01*
X87958333Y-119587872D01*
X88053571Y-119552157D01*
X88148809Y-119564062D01*
X88244047Y-120052157D01*
X88529761Y-119230729D02*
X88577380Y-119141443D01*
X88577380Y-118950967D01*
X88529761Y-118849776D01*
X88434523Y-118790252D01*
X88386904Y-118784300D01*
X88291666Y-118820014D01*
X88244047Y-118909300D01*
X88244047Y-119052157D01*
X88196428Y-119141443D01*
X88101190Y-119177157D01*
X88053571Y-119171205D01*
X87958333Y-119111681D01*
X87910714Y-119010491D01*
X87910714Y-118867633D01*
X87958333Y-118778348D01*
X88577380Y-118379538D02*
X87910714Y-118296205D01*
X87577380Y-118254538D02*
X87625000Y-118308110D01*
X87672619Y-118266443D01*
X87625000Y-118212872D01*
X87577380Y-118254538D01*
X87672619Y-118266443D01*
X87910714Y-117391443D02*
X88720238Y-117492633D01*
X88815476Y-117552157D01*
X88863095Y-117605729D01*
X88910714Y-117706919D01*
X88910714Y-117849776D01*
X88863095Y-117939062D01*
X88529761Y-117468824D02*
X88577380Y-117570014D01*
X88577380Y-117760491D01*
X88529761Y-117849776D01*
X88482142Y-117891443D01*
X88386904Y-117927157D01*
X88101190Y-117891443D01*
X88005952Y-117831919D01*
X87958333Y-117778348D01*
X87910714Y-117677157D01*
X87910714Y-117486681D01*
X87958333Y-117397395D01*
X87910714Y-116915252D02*
X88577380Y-116998586D01*
X88005952Y-116927157D02*
X87958333Y-116873586D01*
X87910714Y-116772395D01*
X87910714Y-116629538D01*
X87958333Y-116540252D01*
X88053571Y-116504538D01*
X88577380Y-116570014D01*
X88529761Y-115706919D02*
X88577380Y-115808110D01*
X88577380Y-115998586D01*
X88529761Y-116087872D01*
X88434523Y-116123586D01*
X88053571Y-116075967D01*
X87958333Y-116016443D01*
X87910714Y-115915252D01*
X87910714Y-115724776D01*
X87958333Y-115635491D01*
X88053571Y-115599776D01*
X88148809Y-115611681D01*
X88244047Y-116099776D01*
X88577380Y-114808110D02*
X87577380Y-114683110D01*
X88529761Y-114802157D02*
X88577380Y-114903348D01*
X88577380Y-115093824D01*
X88529761Y-115183110D01*
X88482142Y-115224776D01*
X88386904Y-115260491D01*
X88101190Y-115224776D01*
X88005952Y-115165252D01*
X87958333Y-115111681D01*
X87910714Y-115010491D01*
X87910714Y-114820014D01*
X87958333Y-114730729D01*
X88577380Y-113570014D02*
X87910714Y-113486681D01*
X87577380Y-113445014D02*
X87625000Y-113498586D01*
X87672619Y-113456919D01*
X87625000Y-113403348D01*
X87577380Y-113445014D01*
X87672619Y-113456919D01*
X87910714Y-113010491D02*
X88577380Y-113093824D01*
X88005952Y-113022395D02*
X87958333Y-112968824D01*
X87910714Y-112867633D01*
X87910714Y-112724776D01*
X87958333Y-112635491D01*
X88053571Y-112599776D01*
X88577380Y-112665252D01*
X89803571Y-122004538D02*
X89851190Y-121867633D01*
X89898809Y-121825967D01*
X89994047Y-121790252D01*
X90136904Y-121808110D01*
X90232142Y-121867633D01*
X90279761Y-121921205D01*
X90327380Y-122022395D01*
X90327380Y-122403348D01*
X89327380Y-122278348D01*
X89327380Y-121945014D01*
X89375000Y-121855729D01*
X89422619Y-121814062D01*
X89517857Y-121778348D01*
X89613095Y-121790252D01*
X89708333Y-121849776D01*
X89755952Y-121903348D01*
X89803571Y-122004538D01*
X89803571Y-122337872D01*
X90279761Y-121016443D02*
X90327380Y-121117633D01*
X90327380Y-121308110D01*
X90279761Y-121397395D01*
X90184523Y-121433110D01*
X89803571Y-121385491D01*
X89708333Y-121325967D01*
X89660714Y-121224776D01*
X89660714Y-121034300D01*
X89708333Y-120945014D01*
X89803571Y-120909300D01*
X89898809Y-120921205D01*
X89994047Y-121409300D01*
X90327380Y-120546205D02*
X89660714Y-120462872D01*
X89851190Y-120486681D02*
X89755952Y-120427157D01*
X89708333Y-120373586D01*
X89660714Y-120272395D01*
X89660714Y-120177157D01*
X89660714Y-119415252D02*
X90470238Y-119516443D01*
X90565476Y-119575967D01*
X90613095Y-119629538D01*
X90660714Y-119730729D01*
X90660714Y-119873586D01*
X90613095Y-119962872D01*
X90279761Y-119492633D02*
X90327380Y-119593824D01*
X90327380Y-119784300D01*
X90279761Y-119873586D01*
X90232142Y-119915252D01*
X90136904Y-119950967D01*
X89851190Y-119915252D01*
X89755952Y-119855729D01*
X89708333Y-119802157D01*
X89660714Y-119700967D01*
X89660714Y-119510491D01*
X89708333Y-119421205D01*
X90279761Y-118635491D02*
X90327380Y-118736681D01*
X90327380Y-118927157D01*
X90279761Y-119016443D01*
X90184523Y-119052157D01*
X89803571Y-119004538D01*
X89708333Y-118945014D01*
X89660714Y-118843824D01*
X89660714Y-118653348D01*
X89708333Y-118564062D01*
X89803571Y-118528348D01*
X89898809Y-118540252D01*
X89994047Y-119028348D01*
X89660714Y-118081919D02*
X90327380Y-118165252D01*
X89755952Y-118093824D02*
X89708333Y-118040252D01*
X89660714Y-117939062D01*
X89660714Y-117796205D01*
X89708333Y-117706919D01*
X89803571Y-117671205D01*
X90327380Y-117736681D01*
X90279761Y-117206919D02*
X90327380Y-117212872D01*
X90422619Y-117272395D01*
X90470238Y-117325967D01*
X90327380Y-116022395D02*
X89327380Y-115897395D01*
X90327380Y-115450967D01*
X89327380Y-115325967D01*
X90327380Y-114831919D02*
X90279761Y-114921205D01*
X90232142Y-114962872D01*
X90136904Y-114998586D01*
X89851190Y-114962872D01*
X89755952Y-114903348D01*
X89708333Y-114849776D01*
X89660714Y-114748586D01*
X89660714Y-114605729D01*
X89708333Y-114516443D01*
X89755952Y-114474776D01*
X89851190Y-114439062D01*
X90136904Y-114474776D01*
X90232142Y-114534300D01*
X90279761Y-114587872D01*
X90327380Y-114689062D01*
X90327380Y-114831919D01*
X90327380Y-114070014D02*
X89660714Y-113986681D01*
X89851190Y-114010491D02*
X89755952Y-113950967D01*
X89708333Y-113897395D01*
X89660714Y-113796205D01*
X89660714Y-113700967D01*
X89660714Y-113462872D02*
X90327380Y-113355729D01*
X89851190Y-113105729D01*
X90327380Y-112974776D01*
X89660714Y-112700967D01*
X90327380Y-111974776D02*
X89803571Y-111909300D01*
X89708333Y-111945014D01*
X89660714Y-112034300D01*
X89660714Y-112224776D01*
X89708333Y-112325967D01*
X90279761Y-111968824D02*
X90327380Y-112070014D01*
X90327380Y-112308110D01*
X90279761Y-112397395D01*
X90184523Y-112433110D01*
X90089285Y-112421205D01*
X89994047Y-112361681D01*
X89946428Y-112260491D01*
X89946428Y-112022395D01*
X89898809Y-111921205D01*
X89660714Y-111510491D02*
X90327380Y-111355729D01*
X89660714Y-111034300D02*
X90327380Y-111355729D01*
X90565476Y-111480729D01*
X90613095Y-111534300D01*
X90660714Y-111635491D01*
D12*
X73822321Y-106600446D02*
X73822321Y-106850446D01*
X73429464Y-106957589D02*
X73429464Y-106600446D01*
X74179464Y-106600446D01*
X74179464Y-106957589D01*
X73429464Y-107279017D02*
X74179464Y-107279017D01*
X73429464Y-107707589D01*
X74179464Y-107707589D01*
X74179464Y-107957589D02*
X73429464Y-108207589D01*
X74179464Y-108457589D01*
X73786607Y-108850446D02*
X73429464Y-108850446D01*
X74179464Y-108600446D02*
X73786607Y-108850446D01*
X74179464Y-109100446D01*
X73929464Y-109850446D02*
X73429464Y-110029017D01*
X73929464Y-110207589D01*
X74179464Y-110636160D02*
X74179464Y-110707589D01*
X74143750Y-110779017D01*
X74108035Y-110814732D01*
X74036607Y-110850446D01*
X73893750Y-110886160D01*
X73715178Y-110886160D01*
X73572321Y-110850446D01*
X73500892Y-110814732D01*
X73465178Y-110779017D01*
X73429464Y-110707589D01*
X73429464Y-110636160D01*
X73465178Y-110564732D01*
X73500892Y-110529017D01*
X73572321Y-110493303D01*
X73715178Y-110457589D01*
X73893750Y-110457589D01*
X74036607Y-110493303D01*
X74108035Y-110529017D01*
X74143750Y-110564732D01*
X74179464Y-110636160D01*
X73500892Y-111207589D02*
X73465178Y-111243303D01*
X73429464Y-111207589D01*
X73465178Y-111171875D01*
X73500892Y-111207589D01*
X73429464Y-111207589D01*
X73429464Y-111957589D02*
X73429464Y-111529017D01*
X73429464Y-111743303D02*
X74179464Y-111743303D01*
X74072321Y-111671875D01*
X74000892Y-111600446D01*
X73965178Y-111529017D01*
X72474107Y-107064732D02*
X72509821Y-107029017D01*
X72545535Y-106957589D01*
X72545535Y-106886160D01*
X72509821Y-106814732D01*
X72474107Y-106779017D01*
X72402678Y-106743303D01*
X72331250Y-106743303D01*
X72259821Y-106779017D01*
X72224107Y-106814732D01*
X72188392Y-106886160D01*
X72188392Y-106957589D01*
X72224107Y-107029017D01*
X72259821Y-107064732D01*
X72545535Y-107064732D02*
X72259821Y-107064732D01*
X72224107Y-107100446D01*
X72224107Y-107136160D01*
X72259821Y-107207589D01*
X72331250Y-107243303D01*
X72509821Y-107243303D01*
X72616964Y-107171875D01*
X72688392Y-107064732D01*
X72724107Y-106921875D01*
X72688392Y-106779017D01*
X72616964Y-106671875D01*
X72509821Y-106600446D01*
X72366964Y-106564732D01*
X72224107Y-106600446D01*
X72116964Y-106671875D01*
X72045535Y-106779017D01*
X72009821Y-106921875D01*
X72045535Y-107064732D01*
X72116964Y-107171875D01*
X72509821Y-107814732D02*
X72474107Y-107921875D01*
X72438392Y-107957589D01*
X72366964Y-107993303D01*
X72259821Y-107993303D01*
X72188392Y-107957589D01*
X72152678Y-107921875D01*
X72116964Y-107850446D01*
X72116964Y-107564732D01*
X72866964Y-107564732D01*
X72866964Y-107814732D01*
X72831250Y-107886160D01*
X72795535Y-107921875D01*
X72724107Y-107957589D01*
X72652678Y-107957589D01*
X72581250Y-107921875D01*
X72545535Y-107886160D01*
X72509821Y-107814732D01*
X72509821Y-107564732D01*
X72116964Y-108421875D02*
X72152678Y-108350446D01*
X72224107Y-108314732D01*
X72866964Y-108314732D01*
X72116964Y-109029017D02*
X72509821Y-109029017D01*
X72581250Y-108993303D01*
X72616964Y-108921875D01*
X72616964Y-108779017D01*
X72581250Y-108707589D01*
X72152678Y-109029017D02*
X72116964Y-108957589D01*
X72116964Y-108779017D01*
X72152678Y-108707589D01*
X72224107Y-108671875D01*
X72295535Y-108671875D01*
X72366964Y-108707589D01*
X72402678Y-108779017D01*
X72402678Y-108957589D01*
X72438392Y-109029017D01*
X72152678Y-109707589D02*
X72116964Y-109636160D01*
X72116964Y-109493303D01*
X72152678Y-109421875D01*
X72188392Y-109386160D01*
X72259821Y-109350446D01*
X72474107Y-109350446D01*
X72545535Y-109386160D01*
X72581250Y-109421875D01*
X72616964Y-109493303D01*
X72616964Y-109636160D01*
X72581250Y-109707589D01*
X72116964Y-110029017D02*
X72866964Y-110029017D01*
X72402678Y-110100446D02*
X72116964Y-110314732D01*
X72616964Y-110314732D02*
X72331250Y-110029017D01*
X72116964Y-110636160D02*
X72866964Y-110636160D01*
X72866964Y-110814732D01*
X72831250Y-110921875D01*
X72759821Y-110993303D01*
X72688392Y-111029017D01*
X72545535Y-111064732D01*
X72438392Y-111064732D01*
X72295535Y-111029017D01*
X72224107Y-110993303D01*
X72152678Y-110921875D01*
X72116964Y-110814732D01*
X72116964Y-110636160D01*
X72152678Y-111671875D02*
X72116964Y-111600446D01*
X72116964Y-111457589D01*
X72152678Y-111386160D01*
X72224107Y-111350446D01*
X72509821Y-111350446D01*
X72581250Y-111386160D01*
X72616964Y-111457589D01*
X72616964Y-111600446D01*
X72581250Y-111671875D01*
X72509821Y-111707589D01*
X72438392Y-111707589D01*
X72366964Y-111350446D01*
X72116964Y-112350446D02*
X72509821Y-112350446D01*
X72581250Y-112314732D01*
X72616964Y-112243303D01*
X72616964Y-112100446D01*
X72581250Y-112029017D01*
X72152678Y-112350446D02*
X72116964Y-112279017D01*
X72116964Y-112100446D01*
X72152678Y-112029017D01*
X72224107Y-111993303D01*
X72295535Y-111993303D01*
X72366964Y-112029017D01*
X72402678Y-112100446D01*
X72402678Y-112279017D01*
X72438392Y-112350446D01*
X72616964Y-112600446D02*
X72616964Y-112886160D01*
X72866964Y-112707589D02*
X72224107Y-112707589D01*
X72152678Y-112743303D01*
X72116964Y-112814732D01*
X72116964Y-112886160D01*
X72116964Y-113136160D02*
X72866964Y-113136160D01*
X72116964Y-113457589D02*
X72509821Y-113457589D01*
X72581250Y-113421875D01*
X72616964Y-113350446D01*
X72616964Y-113243303D01*
X72581250Y-113171875D01*
X72545535Y-113136160D01*
X71197321Y-106850446D02*
X71161607Y-106957589D01*
X71125892Y-106993303D01*
X71054464Y-107029017D01*
X70947321Y-107029017D01*
X70875892Y-106993303D01*
X70840178Y-106957589D01*
X70804464Y-106886160D01*
X70804464Y-106600446D01*
X71554464Y-106600446D01*
X71554464Y-106850446D01*
X71518750Y-106921875D01*
X71483035Y-106957589D01*
X71411607Y-106993303D01*
X71340178Y-106993303D01*
X71268750Y-106957589D01*
X71233035Y-106921875D01*
X71197321Y-106850446D01*
X71197321Y-106600446D01*
X71304464Y-107671875D02*
X70804464Y-107671875D01*
X71304464Y-107350446D02*
X70911607Y-107350446D01*
X70840178Y-107386160D01*
X70804464Y-107457589D01*
X70804464Y-107564732D01*
X70840178Y-107636160D01*
X70875892Y-107671875D01*
X70804464Y-108029017D02*
X71304464Y-108029017D01*
X71233035Y-108029017D02*
X71268750Y-108064732D01*
X71304464Y-108136160D01*
X71304464Y-108243303D01*
X71268750Y-108314732D01*
X71197321Y-108350446D01*
X70804464Y-108350446D01*
X71197321Y-108350446D02*
X71268750Y-108386160D01*
X71304464Y-108457589D01*
X71304464Y-108564732D01*
X71268750Y-108636160D01*
X71197321Y-108671875D01*
X70804464Y-108671875D01*
X70804464Y-109029017D02*
X71304464Y-109029017D01*
X71233035Y-109029017D02*
X71268750Y-109064732D01*
X71304464Y-109136160D01*
X71304464Y-109243303D01*
X71268750Y-109314732D01*
X71197321Y-109350446D01*
X70804464Y-109350446D01*
X71197321Y-109350446D02*
X71268750Y-109386160D01*
X71304464Y-109457589D01*
X71304464Y-109564732D01*
X71268750Y-109636160D01*
X71197321Y-109671875D01*
X70804464Y-109671875D01*
X71197321Y-110850446D02*
X71161607Y-110957589D01*
X71125892Y-110993303D01*
X71054464Y-111029017D01*
X70947321Y-111029017D01*
X70875892Y-110993303D01*
X70840178Y-110957589D01*
X70804464Y-110886160D01*
X70804464Y-110600446D01*
X71554464Y-110600446D01*
X71554464Y-110850446D01*
X71518750Y-110921875D01*
X71483035Y-110957589D01*
X71411607Y-110993303D01*
X71340178Y-110993303D01*
X71268750Y-110957589D01*
X71233035Y-110921875D01*
X71197321Y-110850446D01*
X71197321Y-110600446D01*
X71304464Y-111671875D02*
X70804464Y-111671875D01*
X71304464Y-111350446D02*
X70911607Y-111350446D01*
X70840178Y-111386160D01*
X70804464Y-111457589D01*
X70804464Y-111564732D01*
X70840178Y-111636160D01*
X70875892Y-111671875D01*
X70804464Y-112029017D02*
X71304464Y-112029017D01*
X71233035Y-112029017D02*
X71268750Y-112064732D01*
X71304464Y-112136160D01*
X71304464Y-112243303D01*
X71268750Y-112314732D01*
X71197321Y-112350446D01*
X70804464Y-112350446D01*
X71197321Y-112350446D02*
X71268750Y-112386160D01*
X71304464Y-112457589D01*
X71304464Y-112564732D01*
X71268750Y-112636160D01*
X71197321Y-112671875D01*
X70804464Y-112671875D01*
X70804464Y-113029017D02*
X71304464Y-113029017D01*
X71233035Y-113029017D02*
X71268750Y-113064732D01*
X71304464Y-113136160D01*
X71304464Y-113243303D01*
X71268750Y-113314732D01*
X71197321Y-113350446D01*
X70804464Y-113350446D01*
X71197321Y-113350446D02*
X71268750Y-113386160D01*
X71304464Y-113457589D01*
X71304464Y-113564732D01*
X71268750Y-113636160D01*
X71197321Y-113671875D01*
X70804464Y-113671875D01*
X71518750Y-114993303D02*
X71554464Y-114921875D01*
X71554464Y-114814732D01*
X71518750Y-114707589D01*
X71447321Y-114636160D01*
X71375892Y-114600446D01*
X71233035Y-114564732D01*
X71125892Y-114564732D01*
X70983035Y-114600446D01*
X70911607Y-114636160D01*
X70840178Y-114707589D01*
X70804464Y-114814732D01*
X70804464Y-114886160D01*
X70840178Y-114993303D01*
X70875892Y-115029017D01*
X71125892Y-115029017D01*
X71125892Y-114886160D01*
X70804464Y-115671875D02*
X71197321Y-115671875D01*
X71268750Y-115636160D01*
X71304464Y-115564732D01*
X71304464Y-115421875D01*
X71268750Y-115350446D01*
X70840178Y-115671875D02*
X70804464Y-115600446D01*
X70804464Y-115421875D01*
X70840178Y-115350446D01*
X70911607Y-115314732D01*
X70983035Y-115314732D01*
X71054464Y-115350446D01*
X71090178Y-115421875D01*
X71090178Y-115600446D01*
X71125892Y-115671875D01*
X70804464Y-116029017D02*
X71304464Y-116029017D01*
X71161607Y-116029017D02*
X71233035Y-116064732D01*
X71268750Y-116100446D01*
X71304464Y-116171875D01*
X71304464Y-116243303D01*
X70804464Y-116814732D02*
X71197321Y-116814732D01*
X71268750Y-116779017D01*
X71304464Y-116707589D01*
X71304464Y-116564732D01*
X71268750Y-116493303D01*
X70840178Y-116814732D02*
X70804464Y-116743303D01*
X70804464Y-116564732D01*
X70840178Y-116493303D01*
X70911607Y-116457589D01*
X70983035Y-116457589D01*
X71054464Y-116493303D01*
X71090178Y-116564732D01*
X71090178Y-116743303D01*
X71125892Y-116814732D01*
X71304464Y-117493303D02*
X70697321Y-117493303D01*
X70625892Y-117457589D01*
X70590178Y-117421875D01*
X70554464Y-117350446D01*
X70554464Y-117243303D01*
X70590178Y-117171875D01*
X70840178Y-117493303D02*
X70804464Y-117421875D01*
X70804464Y-117279017D01*
X70840178Y-117207589D01*
X70875892Y-117171875D01*
X70947321Y-117136160D01*
X71161607Y-117136160D01*
X71233035Y-117171875D01*
X71268750Y-117207589D01*
X71304464Y-117279017D01*
X71304464Y-117421875D01*
X71268750Y-117493303D01*
X70840178Y-118136160D02*
X70804464Y-118064732D01*
X70804464Y-117921875D01*
X70840178Y-117850446D01*
X70911607Y-117814732D01*
X71197321Y-117814732D01*
X71268750Y-117850446D01*
X71304464Y-117921875D01*
X71304464Y-118064732D01*
X71268750Y-118136160D01*
X71197321Y-118171875D01*
X71125892Y-118171875D01*
X71054464Y-117814732D01*
X70170535Y-106564732D02*
X70206250Y-106600446D01*
X70241964Y-106671875D01*
X70241964Y-106850446D01*
X70206250Y-106921875D01*
X70170535Y-106957589D01*
X70099107Y-106993303D01*
X70027678Y-106993303D01*
X69920535Y-106957589D01*
X69491964Y-106529017D01*
X69491964Y-106993303D01*
X70241964Y-107457589D02*
X70241964Y-107529017D01*
X70206250Y-107600446D01*
X70170535Y-107636160D01*
X70099107Y-107671875D01*
X69956250Y-107707589D01*
X69777678Y-107707589D01*
X69634821Y-107671875D01*
X69563392Y-107636160D01*
X69527678Y-107600446D01*
X69491964Y-107529017D01*
X69491964Y-107457589D01*
X69527678Y-107386160D01*
X69563392Y-107350446D01*
X69634821Y-107314732D01*
X69777678Y-107279017D01*
X69956250Y-107279017D01*
X70099107Y-107314732D01*
X70170535Y-107350446D01*
X70206250Y-107386160D01*
X70241964Y-107457589D01*
X70170535Y-107993303D02*
X70206250Y-108029017D01*
X70241964Y-108100446D01*
X70241964Y-108279017D01*
X70206250Y-108350446D01*
X70170535Y-108386160D01*
X70099107Y-108421875D01*
X70027678Y-108421875D01*
X69920535Y-108386160D01*
X69491964Y-107957589D01*
X69491964Y-108421875D01*
X69491964Y-109136160D02*
X69491964Y-108707589D01*
X69491964Y-108921875D02*
X70241964Y-108921875D01*
X70134821Y-108850446D01*
X70063392Y-108779017D01*
X70027678Y-108707589D01*
D13*
%TO.C,D4*%
X77520000Y-47190000D02*
X75280000Y-47190000D01*
X75280000Y-47190000D02*
X75280000Y-51430000D01*
X75280000Y-51430000D02*
X77520000Y-51430000D01*
X77520000Y-51430000D02*
X77520000Y-47190000D01*
X76400000Y-46540000D02*
X76400000Y-47190000D01*
X76400000Y-52080000D02*
X76400000Y-51430000D01*
X77520000Y-47910000D02*
X75280000Y-47910000D01*
X77520000Y-48030000D02*
X75280000Y-48030000D01*
X77520000Y-47790000D02*
X75280000Y-47790000D01*
%TO.C,D3*%
X82280000Y-50710000D02*
X84520000Y-50710000D01*
X82280000Y-50470000D02*
X84520000Y-50470000D01*
X82280000Y-50590000D02*
X84520000Y-50590000D01*
X83400000Y-46420000D02*
X83400000Y-47070000D01*
X83400000Y-51960000D02*
X83400000Y-51310000D01*
X82280000Y-47070000D02*
X82280000Y-51310000D01*
X84520000Y-47070000D02*
X82280000Y-47070000D01*
X84520000Y-51310000D02*
X84520000Y-47070000D01*
X82280000Y-51310000D02*
X84520000Y-51310000D01*
%TO.C,C2*%
X69345225Y-46775000D02*
X69345225Y-47275000D01*
X69095225Y-47025000D02*
X69595225Y-47025000D01*
X74501000Y-48216000D02*
X74501000Y-48784000D01*
X74461000Y-47982000D02*
X74461000Y-49018000D01*
X74421000Y-47823000D02*
X74421000Y-49177000D01*
X74381000Y-47695000D02*
X74381000Y-49305000D01*
X74341000Y-47585000D02*
X74341000Y-49415000D01*
X74301000Y-47489000D02*
X74301000Y-49511000D01*
X74261000Y-47402000D02*
X74261000Y-49598000D01*
X74221000Y-47322000D02*
X74221000Y-49678000D01*
X74181000Y-47249000D02*
X74181000Y-49751000D01*
X74141000Y-47181000D02*
X74141000Y-49819000D01*
X74101000Y-47117000D02*
X74101000Y-49883000D01*
X74061000Y-47057000D02*
X74061000Y-49943000D01*
X74021000Y-47000000D02*
X74021000Y-50000000D01*
X73981000Y-46946000D02*
X73981000Y-50054000D01*
X73941000Y-46895000D02*
X73941000Y-50105000D01*
X73901000Y-49540000D02*
X73901000Y-50153000D01*
X73901000Y-46847000D02*
X73901000Y-47460000D01*
X73861000Y-49540000D02*
X73861000Y-50199000D01*
X73861000Y-46801000D02*
X73861000Y-47460000D01*
X73821000Y-49540000D02*
X73821000Y-50243000D01*
X73821000Y-46757000D02*
X73821000Y-47460000D01*
X73781000Y-49540000D02*
X73781000Y-50285000D01*
X73781000Y-46715000D02*
X73781000Y-47460000D01*
X73741000Y-49540000D02*
X73741000Y-50326000D01*
X73741000Y-46674000D02*
X73741000Y-47460000D01*
X73701000Y-49540000D02*
X73701000Y-50364000D01*
X73701000Y-46636000D02*
X73701000Y-47460000D01*
X73661000Y-49540000D02*
X73661000Y-50401000D01*
X73661000Y-46599000D02*
X73661000Y-47460000D01*
X73621000Y-49540000D02*
X73621000Y-50437000D01*
X73621000Y-46563000D02*
X73621000Y-47460000D01*
X73581000Y-49540000D02*
X73581000Y-50471000D01*
X73581000Y-46529000D02*
X73581000Y-47460000D01*
X73541000Y-49540000D02*
X73541000Y-50504000D01*
X73541000Y-46496000D02*
X73541000Y-47460000D01*
X73501000Y-49540000D02*
X73501000Y-50535000D01*
X73501000Y-46465000D02*
X73501000Y-47460000D01*
X73461000Y-49540000D02*
X73461000Y-50565000D01*
X73461000Y-46435000D02*
X73461000Y-47460000D01*
X73421000Y-49540000D02*
X73421000Y-50595000D01*
X73421000Y-46405000D02*
X73421000Y-47460000D01*
X73381000Y-49540000D02*
X73381000Y-50622000D01*
X73381000Y-46378000D02*
X73381000Y-47460000D01*
X73341000Y-49540000D02*
X73341000Y-50649000D01*
X73341000Y-46351000D02*
X73341000Y-47460000D01*
X73301000Y-49540000D02*
X73301000Y-50675000D01*
X73301000Y-46325000D02*
X73301000Y-47460000D01*
X73261000Y-49540000D02*
X73261000Y-50700000D01*
X73261000Y-46300000D02*
X73261000Y-47460000D01*
X73221000Y-49540000D02*
X73221000Y-50724000D01*
X73221000Y-46276000D02*
X73221000Y-47460000D01*
X73181000Y-49540000D02*
X73181000Y-50747000D01*
X73181000Y-46253000D02*
X73181000Y-47460000D01*
X73141000Y-49540000D02*
X73141000Y-50768000D01*
X73141000Y-46232000D02*
X73141000Y-47460000D01*
X73101000Y-49540000D02*
X73101000Y-50790000D01*
X73101000Y-46210000D02*
X73101000Y-47460000D01*
X73061000Y-49540000D02*
X73061000Y-50810000D01*
X73061000Y-46190000D02*
X73061000Y-47460000D01*
X73021000Y-49540000D02*
X73021000Y-50829000D01*
X73021000Y-46171000D02*
X73021000Y-47460000D01*
X72981000Y-49540000D02*
X72981000Y-50848000D01*
X72981000Y-46152000D02*
X72981000Y-47460000D01*
X72941000Y-49540000D02*
X72941000Y-50865000D01*
X72941000Y-46135000D02*
X72941000Y-47460000D01*
X72901000Y-49540000D02*
X72901000Y-50882000D01*
X72901000Y-46118000D02*
X72901000Y-47460000D01*
X72861000Y-49540000D02*
X72861000Y-50898000D01*
X72861000Y-46102000D02*
X72861000Y-47460000D01*
X72821000Y-49540000D02*
X72821000Y-50914000D01*
X72821000Y-46086000D02*
X72821000Y-47460000D01*
X72781000Y-49540000D02*
X72781000Y-50928000D01*
X72781000Y-46072000D02*
X72781000Y-47460000D01*
X72741000Y-49540000D02*
X72741000Y-50942000D01*
X72741000Y-46058000D02*
X72741000Y-47460000D01*
X72701000Y-49540000D02*
X72701000Y-50955000D01*
X72701000Y-46045000D02*
X72701000Y-47460000D01*
X72661000Y-49540000D02*
X72661000Y-50968000D01*
X72661000Y-46032000D02*
X72661000Y-47460000D01*
X72621000Y-49540000D02*
X72621000Y-50980000D01*
X72621000Y-46020000D02*
X72621000Y-47460000D01*
X72580000Y-49540000D02*
X72580000Y-50991000D01*
X72580000Y-46009000D02*
X72580000Y-47460000D01*
X72540000Y-49540000D02*
X72540000Y-51001000D01*
X72540000Y-45999000D02*
X72540000Y-47460000D01*
X72500000Y-49540000D02*
X72500000Y-51011000D01*
X72500000Y-45989000D02*
X72500000Y-47460000D01*
X72460000Y-49540000D02*
X72460000Y-51020000D01*
X72460000Y-45980000D02*
X72460000Y-47460000D01*
X72420000Y-49540000D02*
X72420000Y-51028000D01*
X72420000Y-45972000D02*
X72420000Y-47460000D01*
X72380000Y-49540000D02*
X72380000Y-51036000D01*
X72380000Y-45964000D02*
X72380000Y-47460000D01*
X72340000Y-49540000D02*
X72340000Y-51043000D01*
X72340000Y-45957000D02*
X72340000Y-47460000D01*
X72300000Y-49540000D02*
X72300000Y-51050000D01*
X72300000Y-45950000D02*
X72300000Y-47460000D01*
X72260000Y-49540000D02*
X72260000Y-51056000D01*
X72260000Y-45944000D02*
X72260000Y-47460000D01*
X72220000Y-49540000D02*
X72220000Y-51061000D01*
X72220000Y-45939000D02*
X72220000Y-47460000D01*
X72180000Y-49540000D02*
X72180000Y-51065000D01*
X72180000Y-45935000D02*
X72180000Y-47460000D01*
X72140000Y-49540000D02*
X72140000Y-51069000D01*
X72140000Y-45931000D02*
X72140000Y-47460000D01*
X72100000Y-49540000D02*
X72100000Y-51073000D01*
X72100000Y-45927000D02*
X72100000Y-47460000D01*
X72060000Y-49540000D02*
X72060000Y-51076000D01*
X72060000Y-45924000D02*
X72060000Y-47460000D01*
X72020000Y-49540000D02*
X72020000Y-51078000D01*
X72020000Y-45922000D02*
X72020000Y-47460000D01*
X71980000Y-49540000D02*
X71980000Y-51079000D01*
X71980000Y-45921000D02*
X71980000Y-47460000D01*
X71940000Y-45920000D02*
X71940000Y-47460000D01*
X71940000Y-49540000D02*
X71940000Y-51080000D01*
X71900000Y-45920000D02*
X71900000Y-47460000D01*
X71900000Y-49540000D02*
X71900000Y-51080000D01*
X74520000Y-48500000D02*
G75*
G03*
X74520000Y-48500000I-2620000J0D01*
G01*
%TO.C,C1*%
X90520000Y-48500000D02*
G75*
G03*
X90520000Y-48500000I-2620000J0D01*
G01*
X87900000Y-49540000D02*
X87900000Y-51080000D01*
X87900000Y-45920000D02*
X87900000Y-47460000D01*
X87940000Y-49540000D02*
X87940000Y-51080000D01*
X87940000Y-45920000D02*
X87940000Y-47460000D01*
X87980000Y-45921000D02*
X87980000Y-47460000D01*
X87980000Y-49540000D02*
X87980000Y-51079000D01*
X88020000Y-45922000D02*
X88020000Y-47460000D01*
X88020000Y-49540000D02*
X88020000Y-51078000D01*
X88060000Y-45924000D02*
X88060000Y-47460000D01*
X88060000Y-49540000D02*
X88060000Y-51076000D01*
X88100000Y-45927000D02*
X88100000Y-47460000D01*
X88100000Y-49540000D02*
X88100000Y-51073000D01*
X88140000Y-45931000D02*
X88140000Y-47460000D01*
X88140000Y-49540000D02*
X88140000Y-51069000D01*
X88180000Y-45935000D02*
X88180000Y-47460000D01*
X88180000Y-49540000D02*
X88180000Y-51065000D01*
X88220000Y-45939000D02*
X88220000Y-47460000D01*
X88220000Y-49540000D02*
X88220000Y-51061000D01*
X88260000Y-45944000D02*
X88260000Y-47460000D01*
X88260000Y-49540000D02*
X88260000Y-51056000D01*
X88300000Y-45950000D02*
X88300000Y-47460000D01*
X88300000Y-49540000D02*
X88300000Y-51050000D01*
X88340000Y-45957000D02*
X88340000Y-47460000D01*
X88340000Y-49540000D02*
X88340000Y-51043000D01*
X88380000Y-45964000D02*
X88380000Y-47460000D01*
X88380000Y-49540000D02*
X88380000Y-51036000D01*
X88420000Y-45972000D02*
X88420000Y-47460000D01*
X88420000Y-49540000D02*
X88420000Y-51028000D01*
X88460000Y-45980000D02*
X88460000Y-47460000D01*
X88460000Y-49540000D02*
X88460000Y-51020000D01*
X88500000Y-45989000D02*
X88500000Y-47460000D01*
X88500000Y-49540000D02*
X88500000Y-51011000D01*
X88540000Y-45999000D02*
X88540000Y-47460000D01*
X88540000Y-49540000D02*
X88540000Y-51001000D01*
X88580000Y-46009000D02*
X88580000Y-47460000D01*
X88580000Y-49540000D02*
X88580000Y-50991000D01*
X88621000Y-46020000D02*
X88621000Y-47460000D01*
X88621000Y-49540000D02*
X88621000Y-50980000D01*
X88661000Y-46032000D02*
X88661000Y-47460000D01*
X88661000Y-49540000D02*
X88661000Y-50968000D01*
X88701000Y-46045000D02*
X88701000Y-47460000D01*
X88701000Y-49540000D02*
X88701000Y-50955000D01*
X88741000Y-46058000D02*
X88741000Y-47460000D01*
X88741000Y-49540000D02*
X88741000Y-50942000D01*
X88781000Y-46072000D02*
X88781000Y-47460000D01*
X88781000Y-49540000D02*
X88781000Y-50928000D01*
X88821000Y-46086000D02*
X88821000Y-47460000D01*
X88821000Y-49540000D02*
X88821000Y-50914000D01*
X88861000Y-46102000D02*
X88861000Y-47460000D01*
X88861000Y-49540000D02*
X88861000Y-50898000D01*
X88901000Y-46118000D02*
X88901000Y-47460000D01*
X88901000Y-49540000D02*
X88901000Y-50882000D01*
X88941000Y-46135000D02*
X88941000Y-47460000D01*
X88941000Y-49540000D02*
X88941000Y-50865000D01*
X88981000Y-46152000D02*
X88981000Y-47460000D01*
X88981000Y-49540000D02*
X88981000Y-50848000D01*
X89021000Y-46171000D02*
X89021000Y-47460000D01*
X89021000Y-49540000D02*
X89021000Y-50829000D01*
X89061000Y-46190000D02*
X89061000Y-47460000D01*
X89061000Y-49540000D02*
X89061000Y-50810000D01*
X89101000Y-46210000D02*
X89101000Y-47460000D01*
X89101000Y-49540000D02*
X89101000Y-50790000D01*
X89141000Y-46232000D02*
X89141000Y-47460000D01*
X89141000Y-49540000D02*
X89141000Y-50768000D01*
X89181000Y-46253000D02*
X89181000Y-47460000D01*
X89181000Y-49540000D02*
X89181000Y-50747000D01*
X89221000Y-46276000D02*
X89221000Y-47460000D01*
X89221000Y-49540000D02*
X89221000Y-50724000D01*
X89261000Y-46300000D02*
X89261000Y-47460000D01*
X89261000Y-49540000D02*
X89261000Y-50700000D01*
X89301000Y-46325000D02*
X89301000Y-47460000D01*
X89301000Y-49540000D02*
X89301000Y-50675000D01*
X89341000Y-46351000D02*
X89341000Y-47460000D01*
X89341000Y-49540000D02*
X89341000Y-50649000D01*
X89381000Y-46378000D02*
X89381000Y-47460000D01*
X89381000Y-49540000D02*
X89381000Y-50622000D01*
X89421000Y-46405000D02*
X89421000Y-47460000D01*
X89421000Y-49540000D02*
X89421000Y-50595000D01*
X89461000Y-46435000D02*
X89461000Y-47460000D01*
X89461000Y-49540000D02*
X89461000Y-50565000D01*
X89501000Y-46465000D02*
X89501000Y-47460000D01*
X89501000Y-49540000D02*
X89501000Y-50535000D01*
X89541000Y-46496000D02*
X89541000Y-47460000D01*
X89541000Y-49540000D02*
X89541000Y-50504000D01*
X89581000Y-46529000D02*
X89581000Y-47460000D01*
X89581000Y-49540000D02*
X89581000Y-50471000D01*
X89621000Y-46563000D02*
X89621000Y-47460000D01*
X89621000Y-49540000D02*
X89621000Y-50437000D01*
X89661000Y-46599000D02*
X89661000Y-47460000D01*
X89661000Y-49540000D02*
X89661000Y-50401000D01*
X89701000Y-46636000D02*
X89701000Y-47460000D01*
X89701000Y-49540000D02*
X89701000Y-50364000D01*
X89741000Y-46674000D02*
X89741000Y-47460000D01*
X89741000Y-49540000D02*
X89741000Y-50326000D01*
X89781000Y-46715000D02*
X89781000Y-47460000D01*
X89781000Y-49540000D02*
X89781000Y-50285000D01*
X89821000Y-46757000D02*
X89821000Y-47460000D01*
X89821000Y-49540000D02*
X89821000Y-50243000D01*
X89861000Y-46801000D02*
X89861000Y-47460000D01*
X89861000Y-49540000D02*
X89861000Y-50199000D01*
X89901000Y-46847000D02*
X89901000Y-47460000D01*
X89901000Y-49540000D02*
X89901000Y-50153000D01*
X89941000Y-46895000D02*
X89941000Y-50105000D01*
X89981000Y-46946000D02*
X89981000Y-50054000D01*
X90021000Y-47000000D02*
X90021000Y-50000000D01*
X90061000Y-47057000D02*
X90061000Y-49943000D01*
X90101000Y-47117000D02*
X90101000Y-49883000D01*
X90141000Y-47181000D02*
X90141000Y-49819000D01*
X90181000Y-47249000D02*
X90181000Y-49751000D01*
X90221000Y-47322000D02*
X90221000Y-49678000D01*
X90261000Y-47402000D02*
X90261000Y-49598000D01*
X90301000Y-47489000D02*
X90301000Y-49511000D01*
X90341000Y-47585000D02*
X90341000Y-49415000D01*
X90381000Y-47695000D02*
X90381000Y-49305000D01*
X90421000Y-47823000D02*
X90421000Y-49177000D01*
X90461000Y-47982000D02*
X90461000Y-49018000D01*
X90501000Y-48216000D02*
X90501000Y-48784000D01*
X85095225Y-47025000D02*
X85595225Y-47025000D01*
X85345225Y-46775000D02*
X85345225Y-47275000D01*
%TO.C,J5*%
X77830000Y-43100000D02*
X70450000Y-43100000D01*
X77830000Y-43600000D02*
X77830000Y-43120000D01*
X82330000Y-43100000D02*
X82330000Y-43610000D01*
X89700000Y-43100000D02*
X82350000Y-43100000D01*
X89700000Y-43100000D02*
X90200000Y-43600000D01*
X89700000Y-35350000D02*
X89700000Y-43100000D01*
X89700000Y-35350000D02*
X90250000Y-34800000D01*
X70450000Y-35350000D02*
X89700000Y-35350000D01*
X70450000Y-35350000D02*
X69900000Y-34800000D01*
X70450000Y-43100000D02*
X70450000Y-35350000D01*
X69900000Y-43650000D02*
X70450000Y-43100000D01*
X90250000Y-43650000D02*
X69900000Y-43650000D01*
X90250000Y-34800000D02*
X90250000Y-43650000D01*
X69900000Y-34800000D02*
X90250000Y-34800000D01*
X69900000Y-43650000D02*
X69900000Y-34800000D01*
X69650000Y-43905000D02*
X69650000Y-34555000D01*
X90510000Y-43905000D02*
X69650000Y-43905000D01*
X90510000Y-34555000D02*
X90510000Y-43905000D01*
X69650000Y-34555000D02*
X90510000Y-34555000D01*
%TO.C,C5*%
X88621000Y-86420000D02*
X89879000Y-86420000D01*
X88621000Y-84580000D02*
X89879000Y-84580000D01*
%TO.C,C6*%
X72629000Y-54420000D02*
X71371000Y-54420000D01*
X72629000Y-52580000D02*
X71371000Y-52580000D01*
%TO.C,D2*%
X89870000Y-54440000D02*
X87630000Y-54440000D01*
X87630000Y-54440000D02*
X87630000Y-58680000D01*
X87630000Y-58680000D02*
X89870000Y-58680000D01*
X89870000Y-58680000D02*
X89870000Y-54440000D01*
X88750000Y-53790000D02*
X88750000Y-54440000D01*
X88750000Y-59330000D02*
X88750000Y-58680000D01*
X89870000Y-55160000D02*
X87630000Y-55160000D01*
X89870000Y-55280000D02*
X87630000Y-55280000D01*
X89870000Y-55040000D02*
X87630000Y-55040000D01*
%TO.C,IN*%
X86120000Y-129970000D02*
X86120000Y-135990000D01*
X86120000Y-135990000D02*
X91420000Y-135990000D01*
X91420000Y-135990000D02*
X91420000Y-129970000D01*
X91420000Y-129970000D02*
X86120000Y-129970000D01*
X85830000Y-131000000D02*
X85830000Y-135000000D01*
X87500000Y-135990000D02*
X87500000Y-134990000D01*
X87500000Y-134990000D02*
X90040000Y-134990000D01*
X90040000Y-134990000D02*
X90040000Y-135990000D01*
X87500000Y-134990000D02*
X87750000Y-134460000D01*
X87750000Y-134460000D02*
X89790000Y-134460000D01*
X89790000Y-134460000D02*
X90040000Y-134990000D01*
X87750000Y-135990000D02*
X87750000Y-134990000D01*
X89790000Y-135990000D02*
X89790000Y-134990000D01*
X86700000Y-129970000D02*
X86700000Y-130570000D01*
X86700000Y-130570000D02*
X88300000Y-130570000D01*
X88300000Y-130570000D02*
X88300000Y-129970000D01*
X89240000Y-129970000D02*
X89240000Y-130570000D01*
X89240000Y-130570000D02*
X90840000Y-130570000D01*
X90840000Y-130570000D02*
X90840000Y-129970000D01*
%TO.C,J2*%
X81840000Y-130570000D02*
X81840000Y-129970000D01*
X80240000Y-130570000D02*
X81840000Y-130570000D01*
X80240000Y-129970000D02*
X80240000Y-130570000D01*
X79300000Y-130570000D02*
X79300000Y-129970000D01*
X77700000Y-130570000D02*
X79300000Y-130570000D01*
X77700000Y-129970000D02*
X77700000Y-130570000D01*
X80790000Y-135990000D02*
X80790000Y-134990000D01*
X78750000Y-135990000D02*
X78750000Y-134990000D01*
X80790000Y-134460000D02*
X81040000Y-134990000D01*
X78750000Y-134460000D02*
X80790000Y-134460000D01*
X78500000Y-134990000D02*
X78750000Y-134460000D01*
X81040000Y-134990000D02*
X81040000Y-135990000D01*
X78500000Y-134990000D02*
X81040000Y-134990000D01*
X78500000Y-135990000D02*
X78500000Y-134990000D01*
X76830000Y-131000000D02*
X76830000Y-135000000D01*
X82420000Y-129970000D02*
X77120000Y-129970000D01*
X82420000Y-135990000D02*
X82420000Y-129970000D01*
X77120000Y-135990000D02*
X82420000Y-135990000D01*
X77120000Y-129970000D02*
X77120000Y-135990000D01*
%TO.C,INV*%
X68620000Y-129970000D02*
X68620000Y-135990000D01*
X68620000Y-135990000D02*
X73920000Y-135990000D01*
X73920000Y-135990000D02*
X73920000Y-129970000D01*
X73920000Y-129970000D02*
X68620000Y-129970000D01*
X68330000Y-131000000D02*
X68330000Y-135000000D01*
X70000000Y-135990000D02*
X70000000Y-134990000D01*
X70000000Y-134990000D02*
X72540000Y-134990000D01*
X72540000Y-134990000D02*
X72540000Y-135990000D01*
X70000000Y-134990000D02*
X70250000Y-134460000D01*
X70250000Y-134460000D02*
X72290000Y-134460000D01*
X72290000Y-134460000D02*
X72540000Y-134990000D01*
X70250000Y-135990000D02*
X70250000Y-134990000D01*
X72290000Y-135990000D02*
X72290000Y-134990000D01*
X69200000Y-129970000D02*
X69200000Y-130570000D01*
X69200000Y-130570000D02*
X70800000Y-130570000D01*
X70800000Y-130570000D02*
X70800000Y-129970000D01*
X71740000Y-129970000D02*
X71740000Y-130570000D01*
X71740000Y-130570000D02*
X73340000Y-130570000D01*
X73340000Y-130570000D02*
X73340000Y-129970000D01*
%TO.C,R1*%
X88460000Y-96710000D02*
X88130000Y-96710000D01*
X88130000Y-96710000D02*
X88130000Y-90170000D01*
X88130000Y-90170000D02*
X88460000Y-90170000D01*
X90540000Y-96710000D02*
X90870000Y-96710000D01*
X90870000Y-96710000D02*
X90870000Y-90170000D01*
X90870000Y-90170000D02*
X90540000Y-90170000D01*
%TO.C,R2*%
X68630000Y-80830000D02*
X68960000Y-80830000D01*
X68630000Y-74290000D02*
X68630000Y-80830000D01*
X68960000Y-74290000D02*
X68630000Y-74290000D01*
X71370000Y-80830000D02*
X71040000Y-80830000D01*
X71370000Y-74290000D02*
X71370000Y-80830000D01*
X71040000Y-74290000D02*
X71370000Y-74290000D01*
%TO.C,R3*%
X69880000Y-64580000D02*
X70210000Y-64580000D01*
X69880000Y-58040000D02*
X69880000Y-64580000D01*
X70210000Y-58040000D02*
X69880000Y-58040000D01*
X72620000Y-64580000D02*
X72290000Y-64580000D01*
X72620000Y-58040000D02*
X72620000Y-64580000D01*
X72290000Y-58040000D02*
X72620000Y-58040000D01*
%TO.C,R4*%
X77040000Y-112210000D02*
X77040000Y-111880000D01*
X77040000Y-111880000D02*
X83580000Y-111880000D01*
X83580000Y-111880000D02*
X83580000Y-112210000D01*
X77040000Y-114290000D02*
X77040000Y-114620000D01*
X77040000Y-114620000D02*
X83580000Y-114620000D01*
X83580000Y-114620000D02*
X83580000Y-114290000D01*
%TO.C,R5*%
X76790000Y-83460000D02*
X76790000Y-83130000D01*
X76790000Y-83130000D02*
X83330000Y-83130000D01*
X83330000Y-83130000D02*
X83330000Y-83460000D01*
X76790000Y-85540000D02*
X76790000Y-85870000D01*
X76790000Y-85870000D02*
X83330000Y-85870000D01*
X83330000Y-85870000D02*
X83330000Y-85540000D01*
%TO.C,R6*%
X69630000Y-92330000D02*
X69960000Y-92330000D01*
X69630000Y-85790000D02*
X69630000Y-92330000D01*
X69960000Y-85790000D02*
X69630000Y-85790000D01*
X72370000Y-92330000D02*
X72040000Y-92330000D01*
X72370000Y-85790000D02*
X72370000Y-92330000D01*
X72040000Y-85790000D02*
X72370000Y-85790000D01*
%TO.C,R7*%
X87380000Y-69830000D02*
X87710000Y-69830000D01*
X87380000Y-63290000D02*
X87380000Y-69830000D01*
X87710000Y-63290000D02*
X87380000Y-63290000D01*
X90120000Y-69830000D02*
X89790000Y-69830000D01*
X90120000Y-63290000D02*
X90120000Y-69830000D01*
X89790000Y-63290000D02*
X90120000Y-63290000D01*
%TO.C,R8*%
X72040000Y-95790000D02*
X72370000Y-95790000D01*
X72370000Y-95790000D02*
X72370000Y-102330000D01*
X72370000Y-102330000D02*
X72040000Y-102330000D01*
X69960000Y-95790000D02*
X69630000Y-95790000D01*
X69630000Y-95790000D02*
X69630000Y-102330000D01*
X69630000Y-102330000D02*
X69960000Y-102330000D01*
%TO.C,R9*%
X77460000Y-71340000D02*
X77460000Y-71670000D01*
X77460000Y-71670000D02*
X70920000Y-71670000D01*
X70920000Y-71670000D02*
X70920000Y-71340000D01*
X77460000Y-69260000D02*
X77460000Y-68930000D01*
X77460000Y-68930000D02*
X70920000Y-68930000D01*
X70920000Y-68930000D02*
X70920000Y-69260000D01*
%TO.C,U1*%
X90080000Y-76310000D02*
X90080000Y-75060000D01*
X90080000Y-75060000D02*
X72180000Y-75060000D01*
X72180000Y-75060000D02*
X72180000Y-79560000D01*
X72180000Y-79560000D02*
X90080000Y-79560000D01*
X90080000Y-79560000D02*
X90080000Y-78310000D01*
X90140000Y-72060000D02*
X72120000Y-72060000D01*
X72120000Y-72060000D02*
X72120000Y-82560000D01*
X72120000Y-82560000D02*
X90140000Y-82560000D01*
X90140000Y-82560000D02*
X90140000Y-72060000D01*
X90080000Y-78310000D02*
G75*
G02*
X90080000Y-76310000I0J1000000D01*
G01*
%TO.C,D4*%
D14*
X78644285Y-50498571D02*
X77894285Y-50498571D01*
X77894285Y-50320000D01*
X77930000Y-50212857D01*
X78001428Y-50141428D01*
X78072857Y-50105714D01*
X78215714Y-50070000D01*
X78322857Y-50070000D01*
X78465714Y-50105714D01*
X78537142Y-50141428D01*
X78608571Y-50212857D01*
X78644285Y-50320000D01*
X78644285Y-50498571D01*
X78144285Y-49427142D02*
X78644285Y-49427142D01*
X77858571Y-49605714D02*
X78394285Y-49784285D01*
X78394285Y-49320000D01*
X76739285Y-50917142D02*
X76739285Y-51345714D01*
X76739285Y-51131428D02*
X75989285Y-51131428D01*
X76096428Y-51202857D01*
X76167857Y-51274285D01*
X76203571Y-51345714D01*
X76739285Y-50595714D02*
X75989285Y-50595714D01*
X76739285Y-50167142D01*
X75989285Y-50167142D01*
X76239285Y-49488571D02*
X76739285Y-49488571D01*
X75953571Y-49667142D02*
X76489285Y-49845714D01*
X76489285Y-49381428D01*
X76739285Y-48702857D02*
X76739285Y-49131428D01*
X76739285Y-48917142D02*
X75989285Y-48917142D01*
X76096428Y-48988571D01*
X76167857Y-49060000D01*
X76203571Y-49131428D01*
X76239285Y-48060000D02*
X76739285Y-48060000D01*
X75953571Y-48238571D02*
X76489285Y-48417142D01*
X76489285Y-47952857D01*
X76310714Y-47560000D02*
X76275000Y-47631428D01*
X76239285Y-47667142D01*
X76167857Y-47702857D01*
X76132142Y-47702857D01*
X76060714Y-47667142D01*
X76025000Y-47631428D01*
X75989285Y-47560000D01*
X75989285Y-47417142D01*
X76025000Y-47345714D01*
X76060714Y-47310000D01*
X76132142Y-47274285D01*
X76167857Y-47274285D01*
X76239285Y-47310000D01*
X76275000Y-47345714D01*
X76310714Y-47417142D01*
X76310714Y-47560000D01*
X76346428Y-47631428D01*
X76382142Y-47667142D01*
X76453571Y-47702857D01*
X76596428Y-47702857D01*
X76667857Y-47667142D01*
X76703571Y-47631428D01*
X76739285Y-47560000D01*
X76739285Y-47417142D01*
X76703571Y-47345714D01*
X76667857Y-47310000D01*
X76596428Y-47274285D01*
X76453571Y-47274285D01*
X76382142Y-47310000D01*
X76346428Y-47345714D01*
X76310714Y-47417142D01*
X78644285Y-45696428D02*
X77894285Y-45696428D01*
X78644285Y-45267857D02*
X78215714Y-45589285D01*
X77894285Y-45267857D02*
X78322857Y-45696428D01*
%TO.C,D3*%
X81834285Y-49108571D02*
X81084285Y-49108571D01*
X81084285Y-48930000D01*
X81120000Y-48822857D01*
X81191428Y-48751428D01*
X81262857Y-48715714D01*
X81405714Y-48680000D01*
X81512857Y-48680000D01*
X81655714Y-48715714D01*
X81727142Y-48751428D01*
X81798571Y-48822857D01*
X81834285Y-48930000D01*
X81834285Y-49108571D01*
X81084285Y-48430000D02*
X81084285Y-47965714D01*
X81370000Y-48215714D01*
X81370000Y-48108571D01*
X81405714Y-48037142D01*
X81441428Y-48001428D01*
X81512857Y-47965714D01*
X81691428Y-47965714D01*
X81762857Y-48001428D01*
X81798571Y-48037142D01*
X81834285Y-48108571D01*
X81834285Y-48322857D01*
X81798571Y-48394285D01*
X81762857Y-48430000D01*
X81834285Y-53196428D02*
X81084285Y-53196428D01*
X81834285Y-52767857D02*
X81405714Y-53089285D01*
X81084285Y-52767857D02*
X81512857Y-53196428D01*
X83739285Y-50797142D02*
X83739285Y-51225714D01*
X83739285Y-51011428D02*
X82989285Y-51011428D01*
X83096428Y-51082857D01*
X83167857Y-51154285D01*
X83203571Y-51225714D01*
X83739285Y-50475714D02*
X82989285Y-50475714D01*
X83739285Y-50047142D01*
X82989285Y-50047142D01*
X83239285Y-49368571D02*
X83739285Y-49368571D01*
X82953571Y-49547142D02*
X83489285Y-49725714D01*
X83489285Y-49261428D01*
X83739285Y-48582857D02*
X83739285Y-49011428D01*
X83739285Y-48797142D02*
X82989285Y-48797142D01*
X83096428Y-48868571D01*
X83167857Y-48940000D01*
X83203571Y-49011428D01*
X83239285Y-47940000D02*
X83739285Y-47940000D01*
X82953571Y-48118571D02*
X83489285Y-48297142D01*
X83489285Y-47832857D01*
X83310714Y-47440000D02*
X83275000Y-47511428D01*
X83239285Y-47547142D01*
X83167857Y-47582857D01*
X83132142Y-47582857D01*
X83060714Y-47547142D01*
X83025000Y-47511428D01*
X82989285Y-47440000D01*
X82989285Y-47297142D01*
X83025000Y-47225714D01*
X83060714Y-47190000D01*
X83132142Y-47154285D01*
X83167857Y-47154285D01*
X83239285Y-47190000D01*
X83275000Y-47225714D01*
X83310714Y-47297142D01*
X83310714Y-47440000D01*
X83346428Y-47511428D01*
X83382142Y-47547142D01*
X83453571Y-47582857D01*
X83596428Y-47582857D01*
X83667857Y-47547142D01*
X83703571Y-47511428D01*
X83739285Y-47440000D01*
X83739285Y-47297142D01*
X83703571Y-47225714D01*
X83667857Y-47190000D01*
X83596428Y-47154285D01*
X83453571Y-47154285D01*
X83382142Y-47190000D01*
X83346428Y-47225714D01*
X83310714Y-47297142D01*
%TO.C,C2*%
X69775000Y-45267857D02*
X69739285Y-45303571D01*
X69632142Y-45339285D01*
X69560714Y-45339285D01*
X69453571Y-45303571D01*
X69382142Y-45232142D01*
X69346428Y-45160714D01*
X69310714Y-45017857D01*
X69310714Y-44910714D01*
X69346428Y-44767857D01*
X69382142Y-44696428D01*
X69453571Y-44625000D01*
X69560714Y-44589285D01*
X69632142Y-44589285D01*
X69739285Y-44625000D01*
X69775000Y-44660714D01*
X70060714Y-44660714D02*
X70096428Y-44625000D01*
X70167857Y-44589285D01*
X70346428Y-44589285D01*
X70417857Y-44625000D01*
X70453571Y-44660714D01*
X70489285Y-44732142D01*
X70489285Y-44803571D01*
X70453571Y-44910714D01*
X70025000Y-45339285D01*
X70489285Y-45339285D01*
X73203571Y-45339285D02*
X72775000Y-45339285D01*
X72989285Y-45339285D02*
X72989285Y-44589285D01*
X72917857Y-44696428D01*
X72846428Y-44767857D01*
X72775000Y-44803571D01*
X73667857Y-44589285D02*
X73739285Y-44589285D01*
X73810714Y-44625000D01*
X73846428Y-44660714D01*
X73882142Y-44732142D01*
X73917857Y-44875000D01*
X73917857Y-45053571D01*
X73882142Y-45196428D01*
X73846428Y-45267857D01*
X73810714Y-45303571D01*
X73739285Y-45339285D01*
X73667857Y-45339285D01*
X73596428Y-45303571D01*
X73560714Y-45267857D01*
X73525000Y-45196428D01*
X73489285Y-45053571D01*
X73489285Y-44875000D01*
X73525000Y-44732142D01*
X73560714Y-44660714D01*
X73596428Y-44625000D01*
X73667857Y-44589285D01*
X74560714Y-44839285D02*
X74560714Y-45339285D01*
X74239285Y-44839285D02*
X74239285Y-45232142D01*
X74275000Y-45303571D01*
X74346428Y-45339285D01*
X74453571Y-45339285D01*
X74525000Y-45303571D01*
X74560714Y-45267857D01*
X74810714Y-44839285D02*
X75096428Y-44839285D01*
X74917857Y-45339285D02*
X74917857Y-44696428D01*
X74953571Y-44625000D01*
X75025000Y-44589285D01*
X75096428Y-44589285D01*
%TO.C,C1*%
X85775000Y-45267857D02*
X85739285Y-45303571D01*
X85632142Y-45339285D01*
X85560714Y-45339285D01*
X85453571Y-45303571D01*
X85382142Y-45232142D01*
X85346428Y-45160714D01*
X85310714Y-45017857D01*
X85310714Y-44910714D01*
X85346428Y-44767857D01*
X85382142Y-44696428D01*
X85453571Y-44625000D01*
X85560714Y-44589285D01*
X85632142Y-44589285D01*
X85739285Y-44625000D01*
X85775000Y-44660714D01*
X86489285Y-45339285D02*
X86060714Y-45339285D01*
X86275000Y-45339285D02*
X86275000Y-44589285D01*
X86203571Y-44696428D01*
X86132142Y-44767857D01*
X86060714Y-44803571D01*
X89203571Y-45339285D02*
X88775000Y-45339285D01*
X88989285Y-45339285D02*
X88989285Y-44589285D01*
X88917857Y-44696428D01*
X88846428Y-44767857D01*
X88775000Y-44803571D01*
X89667857Y-44589285D02*
X89739285Y-44589285D01*
X89810714Y-44625000D01*
X89846428Y-44660714D01*
X89882142Y-44732142D01*
X89917857Y-44875000D01*
X89917857Y-45053571D01*
X89882142Y-45196428D01*
X89846428Y-45267857D01*
X89810714Y-45303571D01*
X89739285Y-45339285D01*
X89667857Y-45339285D01*
X89596428Y-45303571D01*
X89560714Y-45267857D01*
X89525000Y-45196428D01*
X89489285Y-45053571D01*
X89489285Y-44875000D01*
X89525000Y-44732142D01*
X89560714Y-44660714D01*
X89596428Y-44625000D01*
X89667857Y-44589285D01*
X90560714Y-44839285D02*
X90560714Y-45339285D01*
X90239285Y-44839285D02*
X90239285Y-45232142D01*
X90275000Y-45303571D01*
X90346428Y-45339285D01*
X90453571Y-45339285D01*
X90525000Y-45303571D01*
X90560714Y-45267857D01*
X90810714Y-44839285D02*
X91096428Y-44839285D01*
X90917857Y-45339285D02*
X90917857Y-44696428D01*
X90953571Y-44625000D01*
X91025000Y-44589285D01*
X91096428Y-44589285D01*
%TO.C,J5*%
X80259285Y-46600000D02*
X80795000Y-46600000D01*
X80902142Y-46635714D01*
X80973571Y-46707142D01*
X81009285Y-46814285D01*
X81009285Y-46885714D01*
X80259285Y-45885714D02*
X80259285Y-46242857D01*
X80616428Y-46278571D01*
X80580714Y-46242857D01*
X80545000Y-46171428D01*
X80545000Y-45992857D01*
X80580714Y-45921428D01*
X80616428Y-45885714D01*
X80687857Y-45850000D01*
X80866428Y-45850000D01*
X80937857Y-45885714D01*
X80973571Y-45921428D01*
X81009285Y-45992857D01*
X81009285Y-46171428D01*
X80973571Y-46242857D01*
X80937857Y-46278571D01*
X91571428Y-41261904D02*
X91571428Y-40500000D01*
X91952380Y-40880952D02*
X91190476Y-40880952D01*
X91952380Y-39500000D02*
X91952380Y-40071428D01*
X91952380Y-39785714D02*
X90952380Y-39785714D01*
X91095238Y-39880952D01*
X91190476Y-39976190D01*
X91238095Y-40071428D01*
X91047619Y-39119047D02*
X91000000Y-39071428D01*
X90952380Y-38976190D01*
X90952380Y-38738095D01*
X91000000Y-38642857D01*
X91047619Y-38595238D01*
X91142857Y-38547619D01*
X91238095Y-38547619D01*
X91380952Y-38595238D01*
X91952380Y-39166666D01*
X91952380Y-38547619D01*
X90952380Y-38261904D02*
X91952380Y-37928571D01*
X90952380Y-37595238D01*
X69452380Y-42571428D02*
X68976190Y-42904761D01*
X69452380Y-43142857D02*
X68452380Y-43142857D01*
X68452380Y-42761904D01*
X68500000Y-42666666D01*
X68547619Y-42619047D01*
X68642857Y-42571428D01*
X68785714Y-42571428D01*
X68880952Y-42619047D01*
X68928571Y-42666666D01*
X68976190Y-42761904D01*
X68976190Y-43142857D01*
X68928571Y-42142857D02*
X68928571Y-41809523D01*
X69452380Y-41666666D02*
X69452380Y-42142857D01*
X68452380Y-42142857D01*
X68452380Y-41666666D01*
X69452380Y-41238095D02*
X68452380Y-41238095D01*
X68452380Y-41000000D01*
X68500000Y-40857142D01*
X68595238Y-40761904D01*
X68690476Y-40714285D01*
X68880952Y-40666666D01*
X69023809Y-40666666D01*
X69214285Y-40714285D01*
X69309523Y-40761904D01*
X69404761Y-40857142D01*
X69452380Y-41000000D01*
X69452380Y-41238095D01*
X69404761Y-39523809D02*
X69452380Y-39380952D01*
X69452380Y-39142857D01*
X69404761Y-39047619D01*
X69357142Y-39000000D01*
X69261904Y-38952380D01*
X69166666Y-38952380D01*
X69071428Y-39000000D01*
X69023809Y-39047619D01*
X68976190Y-39142857D01*
X68928571Y-39333333D01*
X68880952Y-39428571D01*
X68833333Y-39476190D01*
X68738095Y-39523809D01*
X68642857Y-39523809D01*
X68547619Y-39476190D01*
X68500000Y-39428571D01*
X68452380Y-39333333D01*
X68452380Y-39095238D01*
X68500000Y-38952380D01*
X68452380Y-38666666D02*
X68452380Y-38095238D01*
X69452380Y-38380952D02*
X68452380Y-38380952D01*
X69452380Y-37190476D02*
X68976190Y-37523809D01*
X69452380Y-37761904D02*
X68452380Y-37761904D01*
X68452380Y-37380952D01*
X68500000Y-37285714D01*
X68547619Y-37238095D01*
X68642857Y-37190476D01*
X68785714Y-37190476D01*
X68880952Y-37238095D01*
X68928571Y-37285714D01*
X68976190Y-37380952D01*
X68976190Y-37761904D01*
X69452380Y-36761904D02*
X68452380Y-36761904D01*
X69452380Y-36285714D02*
X68452380Y-36285714D01*
X68452380Y-35904761D01*
X68500000Y-35809523D01*
X68547619Y-35761904D01*
X68642857Y-35714285D01*
X68785714Y-35714285D01*
X68880952Y-35761904D01*
X68928571Y-35809523D01*
X68976190Y-35904761D01*
X68976190Y-36285714D01*
X68928571Y-35285714D02*
X68928571Y-34952380D01*
X69452380Y-34809523D02*
X69452380Y-35285714D01*
X68452380Y-35285714D01*
X68452380Y-34809523D01*
%TO.C,C5*%
X87375000Y-83767857D02*
X87339285Y-83803571D01*
X87232142Y-83839285D01*
X87160714Y-83839285D01*
X87053571Y-83803571D01*
X86982142Y-83732142D01*
X86946428Y-83660714D01*
X86910714Y-83517857D01*
X86910714Y-83410714D01*
X86946428Y-83267857D01*
X86982142Y-83196428D01*
X87053571Y-83125000D01*
X87160714Y-83089285D01*
X87232142Y-83089285D01*
X87339285Y-83125000D01*
X87375000Y-83160714D01*
X88053571Y-83089285D02*
X87696428Y-83089285D01*
X87660714Y-83446428D01*
X87696428Y-83410714D01*
X87767857Y-83375000D01*
X87946428Y-83375000D01*
X88017857Y-83410714D01*
X88053571Y-83446428D01*
X88089285Y-83517857D01*
X88089285Y-83696428D01*
X88053571Y-83767857D01*
X88017857Y-83803571D01*
X87946428Y-83839285D01*
X87767857Y-83839285D01*
X87696428Y-83803571D01*
X87660714Y-83767857D01*
X89946428Y-83839285D02*
X89517857Y-83839285D01*
X89732142Y-83839285D02*
X89732142Y-83089285D01*
X89660714Y-83196428D01*
X89589285Y-83267857D01*
X89517857Y-83303571D01*
X90410714Y-83089285D02*
X90482142Y-83089285D01*
X90553571Y-83125000D01*
X90589285Y-83160714D01*
X90625000Y-83232142D01*
X90660714Y-83375000D01*
X90660714Y-83553571D01*
X90625000Y-83696428D01*
X90589285Y-83767857D01*
X90553571Y-83803571D01*
X90482142Y-83839285D01*
X90410714Y-83839285D01*
X90339285Y-83803571D01*
X90303571Y-83767857D01*
X90267857Y-83696428D01*
X90232142Y-83553571D01*
X90232142Y-83375000D01*
X90267857Y-83232142D01*
X90303571Y-83160714D01*
X90339285Y-83125000D01*
X90410714Y-83089285D01*
X91125000Y-83089285D02*
X91196428Y-83089285D01*
X91267857Y-83125000D01*
X91303571Y-83160714D01*
X91339285Y-83232142D01*
X91375000Y-83375000D01*
X91375000Y-83553571D01*
X91339285Y-83696428D01*
X91303571Y-83767857D01*
X91267857Y-83803571D01*
X91196428Y-83839285D01*
X91125000Y-83839285D01*
X91053571Y-83803571D01*
X91017857Y-83767857D01*
X90982142Y-83696428D01*
X90946428Y-83553571D01*
X90946428Y-83375000D01*
X90982142Y-83232142D01*
X91017857Y-83160714D01*
X91053571Y-83125000D01*
X91125000Y-83089285D01*
X91696428Y-83339285D02*
X91696428Y-83839285D01*
X91696428Y-83410714D02*
X91732142Y-83375000D01*
X91803571Y-83339285D01*
X91910714Y-83339285D01*
X91982142Y-83375000D01*
X92017857Y-83446428D01*
X92017857Y-83839285D01*
X92267857Y-83339285D02*
X92553571Y-83339285D01*
X92375000Y-83839285D02*
X92375000Y-83196428D01*
X92410714Y-83125000D01*
X92482142Y-83089285D01*
X92553571Y-83089285D01*
%TO.C,C6*%
X73625000Y-55767857D02*
X73589285Y-55803571D01*
X73482142Y-55839285D01*
X73410714Y-55839285D01*
X73303571Y-55803571D01*
X73232142Y-55732142D01*
X73196428Y-55660714D01*
X73160714Y-55517857D01*
X73160714Y-55410714D01*
X73196428Y-55267857D01*
X73232142Y-55196428D01*
X73303571Y-55125000D01*
X73410714Y-55089285D01*
X73482142Y-55089285D01*
X73589285Y-55125000D01*
X73625000Y-55160714D01*
X74267857Y-55089285D02*
X74125000Y-55089285D01*
X74053571Y-55125000D01*
X74017857Y-55160714D01*
X73946428Y-55267857D01*
X73910714Y-55410714D01*
X73910714Y-55696428D01*
X73946428Y-55767857D01*
X73982142Y-55803571D01*
X74053571Y-55839285D01*
X74196428Y-55839285D01*
X74267857Y-55803571D01*
X74303571Y-55767857D01*
X74339285Y-55696428D01*
X74339285Y-55517857D01*
X74303571Y-55446428D01*
X74267857Y-55410714D01*
X74196428Y-55375000D01*
X74053571Y-55375000D01*
X73982142Y-55410714D01*
X73946428Y-55446428D01*
X73910714Y-55517857D01*
X69196428Y-55839285D02*
X68767857Y-55839285D01*
X68982142Y-55839285D02*
X68982142Y-55089285D01*
X68910714Y-55196428D01*
X68839285Y-55267857D01*
X68767857Y-55303571D01*
X69660714Y-55089285D02*
X69732142Y-55089285D01*
X69803571Y-55125000D01*
X69839285Y-55160714D01*
X69875000Y-55232142D01*
X69910714Y-55375000D01*
X69910714Y-55553571D01*
X69875000Y-55696428D01*
X69839285Y-55767857D01*
X69803571Y-55803571D01*
X69732142Y-55839285D01*
X69660714Y-55839285D01*
X69589285Y-55803571D01*
X69553571Y-55767857D01*
X69517857Y-55696428D01*
X69482142Y-55553571D01*
X69482142Y-55375000D01*
X69517857Y-55232142D01*
X69553571Y-55160714D01*
X69589285Y-55125000D01*
X69660714Y-55089285D01*
X70375000Y-55089285D02*
X70446428Y-55089285D01*
X70517857Y-55125000D01*
X70553571Y-55160714D01*
X70589285Y-55232142D01*
X70625000Y-55375000D01*
X70625000Y-55553571D01*
X70589285Y-55696428D01*
X70553571Y-55767857D01*
X70517857Y-55803571D01*
X70446428Y-55839285D01*
X70375000Y-55839285D01*
X70303571Y-55803571D01*
X70267857Y-55767857D01*
X70232142Y-55696428D01*
X70196428Y-55553571D01*
X70196428Y-55375000D01*
X70232142Y-55232142D01*
X70267857Y-55160714D01*
X70303571Y-55125000D01*
X70375000Y-55089285D01*
X70946428Y-55339285D02*
X70946428Y-55839285D01*
X70946428Y-55410714D02*
X70982142Y-55375000D01*
X71053571Y-55339285D01*
X71160714Y-55339285D01*
X71232142Y-55375000D01*
X71267857Y-55446428D01*
X71267857Y-55839285D01*
X71517857Y-55339285D02*
X71803571Y-55339285D01*
X71625000Y-55839285D02*
X71625000Y-55196428D01*
X71660714Y-55125000D01*
X71732142Y-55089285D01*
X71803571Y-55089285D01*
%TO.C,D2*%
X90994285Y-57748571D02*
X90244285Y-57748571D01*
X90244285Y-57570000D01*
X90280000Y-57462857D01*
X90351428Y-57391428D01*
X90422857Y-57355714D01*
X90565714Y-57320000D01*
X90672857Y-57320000D01*
X90815714Y-57355714D01*
X90887142Y-57391428D01*
X90958571Y-57462857D01*
X90994285Y-57570000D01*
X90994285Y-57748571D01*
X90315714Y-57034285D02*
X90280000Y-56998571D01*
X90244285Y-56927142D01*
X90244285Y-56748571D01*
X90280000Y-56677142D01*
X90315714Y-56641428D01*
X90387142Y-56605714D01*
X90458571Y-56605714D01*
X90565714Y-56641428D01*
X90994285Y-57070000D01*
X90994285Y-56605714D01*
X89089285Y-58167142D02*
X89089285Y-58595714D01*
X89089285Y-58381428D02*
X88339285Y-58381428D01*
X88446428Y-58452857D01*
X88517857Y-58524285D01*
X88553571Y-58595714D01*
X89089285Y-57845714D02*
X88339285Y-57845714D01*
X89089285Y-57417142D01*
X88339285Y-57417142D01*
X88589285Y-56738571D02*
X89089285Y-56738571D01*
X88303571Y-56917142D02*
X88839285Y-57095714D01*
X88839285Y-56631428D01*
X89089285Y-55952857D02*
X89089285Y-56381428D01*
X89089285Y-56167142D02*
X88339285Y-56167142D01*
X88446428Y-56238571D01*
X88517857Y-56310000D01*
X88553571Y-56381428D01*
X88589285Y-55310000D02*
X89089285Y-55310000D01*
X88303571Y-55488571D02*
X88839285Y-55667142D01*
X88839285Y-55202857D01*
X88660714Y-54810000D02*
X88625000Y-54881428D01*
X88589285Y-54917142D01*
X88517857Y-54952857D01*
X88482142Y-54952857D01*
X88410714Y-54917142D01*
X88375000Y-54881428D01*
X88339285Y-54810000D01*
X88339285Y-54667142D01*
X88375000Y-54595714D01*
X88410714Y-54560000D01*
X88482142Y-54524285D01*
X88517857Y-54524285D01*
X88589285Y-54560000D01*
X88625000Y-54595714D01*
X88660714Y-54667142D01*
X88660714Y-54810000D01*
X88696428Y-54881428D01*
X88732142Y-54917142D01*
X88803571Y-54952857D01*
X88946428Y-54952857D01*
X89017857Y-54917142D01*
X89053571Y-54881428D01*
X89089285Y-54810000D01*
X89089285Y-54667142D01*
X89053571Y-54595714D01*
X89017857Y-54560000D01*
X88946428Y-54524285D01*
X88803571Y-54524285D01*
X88732142Y-54560000D01*
X88696428Y-54595714D01*
X88660714Y-54667142D01*
X90994285Y-52946428D02*
X90244285Y-52946428D01*
X90994285Y-52517857D02*
X90565714Y-52839285D01*
X90244285Y-52517857D02*
X90672857Y-52946428D01*
%TO.C,IN*%
X88377142Y-129219285D02*
X88377142Y-128469285D01*
X88734285Y-129219285D02*
X88734285Y-128469285D01*
X89162857Y-129219285D01*
X89162857Y-128469285D01*
%TO.C,J2*%
X79520000Y-128469285D02*
X79520000Y-129005000D01*
X79484285Y-129112142D01*
X79412857Y-129183571D01*
X79305714Y-129219285D01*
X79234285Y-129219285D01*
X79841428Y-128540714D02*
X79877142Y-128505000D01*
X79948571Y-128469285D01*
X80127142Y-128469285D01*
X80198571Y-128505000D01*
X80234285Y-128540714D01*
X80270000Y-128612142D01*
X80270000Y-128683571D01*
X80234285Y-128790714D01*
X79805714Y-129219285D01*
X80270000Y-129219285D01*
%TO.C,INV*%
X70555714Y-129219285D02*
X70555714Y-128469285D01*
X70912857Y-129219285D02*
X70912857Y-128469285D01*
X71341428Y-129219285D01*
X71341428Y-128469285D01*
X71591428Y-128469285D02*
X71841428Y-129219285D01*
X72091428Y-128469285D01*
%TO.C,R1*%
X87807285Y-93565000D02*
X87450142Y-93815000D01*
X87807285Y-93993571D02*
X87057285Y-93993571D01*
X87057285Y-93707857D01*
X87093000Y-93636428D01*
X87128714Y-93600714D01*
X87200142Y-93565000D01*
X87307285Y-93565000D01*
X87378714Y-93600714D01*
X87414428Y-93636428D01*
X87450142Y-93707857D01*
X87450142Y-93993571D01*
X87807285Y-92850714D02*
X87807285Y-93279285D01*
X87807285Y-93065000D02*
X87057285Y-93065000D01*
X87164428Y-93136428D01*
X87235857Y-93207857D01*
X87271571Y-93279285D01*
X89839285Y-94243571D02*
X89839285Y-94672142D01*
X89839285Y-94457857D02*
X89089285Y-94457857D01*
X89196428Y-94529285D01*
X89267857Y-94600714D01*
X89303571Y-94672142D01*
X89089285Y-93779285D02*
X89089285Y-93707857D01*
X89125000Y-93636428D01*
X89160714Y-93600714D01*
X89232142Y-93565000D01*
X89375000Y-93529285D01*
X89553571Y-93529285D01*
X89696428Y-93565000D01*
X89767857Y-93600714D01*
X89803571Y-93636428D01*
X89839285Y-93707857D01*
X89839285Y-93779285D01*
X89803571Y-93850714D01*
X89767857Y-93886428D01*
X89696428Y-93922142D01*
X89553571Y-93957857D01*
X89375000Y-93957857D01*
X89232142Y-93922142D01*
X89160714Y-93886428D01*
X89125000Y-93850714D01*
X89089285Y-93779285D01*
X89089285Y-93065000D02*
X89089285Y-92993571D01*
X89125000Y-92922142D01*
X89160714Y-92886428D01*
X89232142Y-92850714D01*
X89375000Y-92815000D01*
X89553571Y-92815000D01*
X89696428Y-92850714D01*
X89767857Y-92886428D01*
X89803571Y-92922142D01*
X89839285Y-92993571D01*
X89839285Y-93065000D01*
X89803571Y-93136428D01*
X89767857Y-93172142D01*
X89696428Y-93207857D01*
X89553571Y-93243571D01*
X89375000Y-93243571D01*
X89232142Y-93207857D01*
X89160714Y-93172142D01*
X89125000Y-93136428D01*
X89089285Y-93065000D01*
X89839285Y-92493571D02*
X89089285Y-92493571D01*
X89553571Y-92422142D02*
X89839285Y-92207857D01*
X89339285Y-92207857D02*
X89625000Y-92493571D01*
%TO.C,R2*%
X72371285Y-77685000D02*
X72014142Y-77935000D01*
X72371285Y-78113571D02*
X71621285Y-78113571D01*
X71621285Y-77827857D01*
X71657000Y-77756428D01*
X71692714Y-77720714D01*
X71764142Y-77685000D01*
X71871285Y-77685000D01*
X71942714Y-77720714D01*
X71978428Y-77756428D01*
X72014142Y-77827857D01*
X72014142Y-78113571D01*
X71692714Y-77399285D02*
X71657000Y-77363571D01*
X71621285Y-77292142D01*
X71621285Y-77113571D01*
X71657000Y-77042142D01*
X71692714Y-77006428D01*
X71764142Y-76970714D01*
X71835571Y-76970714D01*
X71942714Y-77006428D01*
X72371285Y-77435000D01*
X72371285Y-76970714D01*
X70339285Y-77774285D02*
X70339285Y-78202857D01*
X70339285Y-77988571D02*
X69589285Y-77988571D01*
X69696428Y-78060000D01*
X69767857Y-78131428D01*
X69803571Y-78202857D01*
X70339285Y-77452857D02*
X69589285Y-77452857D01*
X70125000Y-77202857D01*
X69589285Y-76952857D01*
X70339285Y-76952857D01*
%TO.C,R3*%
X73621285Y-61435000D02*
X73264142Y-61685000D01*
X73621285Y-61863571D02*
X72871285Y-61863571D01*
X72871285Y-61577857D01*
X72907000Y-61506428D01*
X72942714Y-61470714D01*
X73014142Y-61435000D01*
X73121285Y-61435000D01*
X73192714Y-61470714D01*
X73228428Y-61506428D01*
X73264142Y-61577857D01*
X73264142Y-61863571D01*
X72871285Y-61185000D02*
X72871285Y-60720714D01*
X73157000Y-60970714D01*
X73157000Y-60863571D01*
X73192714Y-60792142D01*
X73228428Y-60756428D01*
X73299857Y-60720714D01*
X73478428Y-60720714D01*
X73549857Y-60756428D01*
X73585571Y-60792142D01*
X73621285Y-60863571D01*
X73621285Y-61077857D01*
X73585571Y-61149285D01*
X73549857Y-61185000D01*
X71589285Y-61470714D02*
X71589285Y-61899285D01*
X71589285Y-61685000D02*
X70839285Y-61685000D01*
X70946428Y-61756428D01*
X71017857Y-61827857D01*
X71053571Y-61899285D01*
X71589285Y-61149285D02*
X70839285Y-61149285D01*
X71589285Y-60720714D02*
X71160714Y-61042142D01*
X70839285Y-60720714D02*
X71267857Y-61149285D01*
%TO.C,R4*%
X80185000Y-111557285D02*
X79935000Y-111200142D01*
X79756428Y-111557285D02*
X79756428Y-110807285D01*
X80042142Y-110807285D01*
X80113571Y-110843000D01*
X80149285Y-110878714D01*
X80185000Y-110950142D01*
X80185000Y-111057285D01*
X80149285Y-111128714D01*
X80113571Y-111164428D01*
X80042142Y-111200142D01*
X79756428Y-111200142D01*
X80827857Y-111057285D02*
X80827857Y-111557285D01*
X80649285Y-110771571D02*
X80470714Y-111307285D01*
X80935000Y-111307285D01*
X80149285Y-113589285D02*
X79720714Y-113589285D01*
X79935000Y-113589285D02*
X79935000Y-112839285D01*
X79863571Y-112946428D01*
X79792142Y-113017857D01*
X79720714Y-113053571D01*
X80470714Y-113589285D02*
X80470714Y-112839285D01*
X80899285Y-113589285D02*
X80577857Y-113160714D01*
X80899285Y-112839285D02*
X80470714Y-113267857D01*
%TO.C,R5*%
X79935000Y-82807285D02*
X79685000Y-82450142D01*
X79506428Y-82807285D02*
X79506428Y-82057285D01*
X79792142Y-82057285D01*
X79863571Y-82093000D01*
X79899285Y-82128714D01*
X79935000Y-82200142D01*
X79935000Y-82307285D01*
X79899285Y-82378714D01*
X79863571Y-82414428D01*
X79792142Y-82450142D01*
X79506428Y-82450142D01*
X80613571Y-82057285D02*
X80256428Y-82057285D01*
X80220714Y-82414428D01*
X80256428Y-82378714D01*
X80327857Y-82343000D01*
X80506428Y-82343000D01*
X80577857Y-82378714D01*
X80613571Y-82414428D01*
X80649285Y-82485857D01*
X80649285Y-82664428D01*
X80613571Y-82735857D01*
X80577857Y-82771571D01*
X80506428Y-82807285D01*
X80327857Y-82807285D01*
X80256428Y-82771571D01*
X80220714Y-82735857D01*
X79185000Y-84839285D02*
X78756428Y-84839285D01*
X78970714Y-84839285D02*
X78970714Y-84089285D01*
X78899285Y-84196428D01*
X78827857Y-84267857D01*
X78756428Y-84303571D01*
X79649285Y-84089285D02*
X79720714Y-84089285D01*
X79792142Y-84125000D01*
X79827857Y-84160714D01*
X79863571Y-84232142D01*
X79899285Y-84375000D01*
X79899285Y-84553571D01*
X79863571Y-84696428D01*
X79827857Y-84767857D01*
X79792142Y-84803571D01*
X79720714Y-84839285D01*
X79649285Y-84839285D01*
X79577857Y-84803571D01*
X79542142Y-84767857D01*
X79506428Y-84696428D01*
X79470714Y-84553571D01*
X79470714Y-84375000D01*
X79506428Y-84232142D01*
X79542142Y-84160714D01*
X79577857Y-84125000D01*
X79649285Y-84089285D01*
X80363571Y-84089285D02*
X80435000Y-84089285D01*
X80506428Y-84125000D01*
X80542142Y-84160714D01*
X80577857Y-84232142D01*
X80613571Y-84375000D01*
X80613571Y-84553571D01*
X80577857Y-84696428D01*
X80542142Y-84767857D01*
X80506428Y-84803571D01*
X80435000Y-84839285D01*
X80363571Y-84839285D01*
X80292142Y-84803571D01*
X80256428Y-84767857D01*
X80220714Y-84696428D01*
X80185000Y-84553571D01*
X80185000Y-84375000D01*
X80220714Y-84232142D01*
X80256428Y-84160714D01*
X80292142Y-84125000D01*
X80363571Y-84089285D01*
X80935000Y-84839285D02*
X80935000Y-84089285D01*
X81363571Y-84839285D02*
X81042142Y-84410714D01*
X81363571Y-84089285D02*
X80935000Y-84517857D01*
%TO.C,R6*%
X73371285Y-89185000D02*
X73014142Y-89435000D01*
X73371285Y-89613571D02*
X72621285Y-89613571D01*
X72621285Y-89327857D01*
X72657000Y-89256428D01*
X72692714Y-89220714D01*
X72764142Y-89185000D01*
X72871285Y-89185000D01*
X72942714Y-89220714D01*
X72978428Y-89256428D01*
X73014142Y-89327857D01*
X73014142Y-89613571D01*
X72621285Y-88542142D02*
X72621285Y-88685000D01*
X72657000Y-88756428D01*
X72692714Y-88792142D01*
X72799857Y-88863571D01*
X72942714Y-88899285D01*
X73228428Y-88899285D01*
X73299857Y-88863571D01*
X73335571Y-88827857D01*
X73371285Y-88756428D01*
X73371285Y-88613571D01*
X73335571Y-88542142D01*
X73299857Y-88506428D01*
X73228428Y-88470714D01*
X73049857Y-88470714D01*
X72978428Y-88506428D01*
X72942714Y-88542142D01*
X72907000Y-88613571D01*
X72907000Y-88756428D01*
X72942714Y-88827857D01*
X72978428Y-88863571D01*
X73049857Y-88899285D01*
X71339285Y-89935000D02*
X71339285Y-90363571D01*
X71339285Y-90149285D02*
X70589285Y-90149285D01*
X70696428Y-90220714D01*
X70767857Y-90292142D01*
X70803571Y-90363571D01*
X70589285Y-89470714D02*
X70589285Y-89399285D01*
X70625000Y-89327857D01*
X70660714Y-89292142D01*
X70732142Y-89256428D01*
X70875000Y-89220714D01*
X71053571Y-89220714D01*
X71196428Y-89256428D01*
X71267857Y-89292142D01*
X71303571Y-89327857D01*
X71339285Y-89399285D01*
X71339285Y-89470714D01*
X71303571Y-89542142D01*
X71267857Y-89577857D01*
X71196428Y-89613571D01*
X71053571Y-89649285D01*
X70875000Y-89649285D01*
X70732142Y-89613571D01*
X70660714Y-89577857D01*
X70625000Y-89542142D01*
X70589285Y-89470714D01*
X70589285Y-88756428D02*
X70589285Y-88685000D01*
X70625000Y-88613571D01*
X70660714Y-88577857D01*
X70732142Y-88542142D01*
X70875000Y-88506428D01*
X71053571Y-88506428D01*
X71196428Y-88542142D01*
X71267857Y-88577857D01*
X71303571Y-88613571D01*
X71339285Y-88685000D01*
X71339285Y-88756428D01*
X71303571Y-88827857D01*
X71267857Y-88863571D01*
X71196428Y-88899285D01*
X71053571Y-88935000D01*
X70875000Y-88935000D01*
X70732142Y-88899285D01*
X70660714Y-88863571D01*
X70625000Y-88827857D01*
X70589285Y-88756428D01*
X71339285Y-88185000D02*
X70589285Y-88185000D01*
X71339285Y-87756428D02*
X70910714Y-88077857D01*
X70589285Y-87756428D02*
X71017857Y-88185000D01*
%TO.C,R7*%
X91121285Y-66685000D02*
X90764142Y-66935000D01*
X91121285Y-67113571D02*
X90371285Y-67113571D01*
X90371285Y-66827857D01*
X90407000Y-66756428D01*
X90442714Y-66720714D01*
X90514142Y-66685000D01*
X90621285Y-66685000D01*
X90692714Y-66720714D01*
X90728428Y-66756428D01*
X90764142Y-66827857D01*
X90764142Y-67113571D01*
X90371285Y-66435000D02*
X90371285Y-65935000D01*
X91121285Y-66256428D01*
X89089285Y-66774285D02*
X89089285Y-67202857D01*
X89089285Y-66988571D02*
X88339285Y-66988571D01*
X88446428Y-67060000D01*
X88517857Y-67131428D01*
X88553571Y-67202857D01*
X89089285Y-66452857D02*
X88339285Y-66452857D01*
X88875000Y-66202857D01*
X88339285Y-65952857D01*
X89089285Y-65952857D01*
%TO.C,R8*%
X73371285Y-99185000D02*
X73014142Y-99435000D01*
X73371285Y-99613571D02*
X72621285Y-99613571D01*
X72621285Y-99327857D01*
X72657000Y-99256428D01*
X72692714Y-99220714D01*
X72764142Y-99185000D01*
X72871285Y-99185000D01*
X72942714Y-99220714D01*
X72978428Y-99256428D01*
X73014142Y-99327857D01*
X73014142Y-99613571D01*
X72942714Y-98756428D02*
X72907000Y-98827857D01*
X72871285Y-98863571D01*
X72799857Y-98899285D01*
X72764142Y-98899285D01*
X72692714Y-98863571D01*
X72657000Y-98827857D01*
X72621285Y-98756428D01*
X72621285Y-98613571D01*
X72657000Y-98542142D01*
X72692714Y-98506428D01*
X72764142Y-98470714D01*
X72799857Y-98470714D01*
X72871285Y-98506428D01*
X72907000Y-98542142D01*
X72942714Y-98613571D01*
X72942714Y-98756428D01*
X72978428Y-98827857D01*
X73014142Y-98863571D01*
X73085571Y-98899285D01*
X73228428Y-98899285D01*
X73299857Y-98863571D01*
X73335571Y-98827857D01*
X73371285Y-98756428D01*
X73371285Y-98613571D01*
X73335571Y-98542142D01*
X73299857Y-98506428D01*
X73228428Y-98470714D01*
X73085571Y-98470714D01*
X73014142Y-98506428D01*
X72978428Y-98542142D01*
X72942714Y-98613571D01*
X71339285Y-99220714D02*
X71339285Y-99649285D01*
X71339285Y-99435000D02*
X70589285Y-99435000D01*
X70696428Y-99506428D01*
X70767857Y-99577857D01*
X70803571Y-99649285D01*
X71339285Y-98899285D02*
X70589285Y-98899285D01*
X71339285Y-98470714D02*
X70910714Y-98792142D01*
X70589285Y-98470714D02*
X71017857Y-98899285D01*
%TO.C,R9*%
X74065000Y-72671285D02*
X73815000Y-72314142D01*
X73636428Y-72671285D02*
X73636428Y-71921285D01*
X73922142Y-71921285D01*
X73993571Y-71957000D01*
X74029285Y-71992714D01*
X74065000Y-72064142D01*
X74065000Y-72171285D01*
X74029285Y-72242714D01*
X73993571Y-72278428D01*
X73922142Y-72314142D01*
X73636428Y-72314142D01*
X74422142Y-72671285D02*
X74565000Y-72671285D01*
X74636428Y-72635571D01*
X74672142Y-72599857D01*
X74743571Y-72492714D01*
X74779285Y-72349857D01*
X74779285Y-72064142D01*
X74743571Y-71992714D01*
X74707857Y-71957000D01*
X74636428Y-71921285D01*
X74493571Y-71921285D01*
X74422142Y-71957000D01*
X74386428Y-71992714D01*
X74350714Y-72064142D01*
X74350714Y-72242714D01*
X74386428Y-72314142D01*
X74422142Y-72349857D01*
X74493571Y-72385571D01*
X74636428Y-72385571D01*
X74707857Y-72349857D01*
X74743571Y-72314142D01*
X74779285Y-72242714D01*
X73975714Y-70639285D02*
X73547142Y-70639285D01*
X73761428Y-70639285D02*
X73761428Y-69889285D01*
X73690000Y-69996428D01*
X73618571Y-70067857D01*
X73547142Y-70103571D01*
X74297142Y-70639285D02*
X74297142Y-69889285D01*
X74547142Y-70425000D01*
X74797142Y-69889285D01*
X74797142Y-70639285D01*
%TO.C,U1*%
X90669285Y-77881428D02*
X91276428Y-77881428D01*
X91347857Y-77845714D01*
X91383571Y-77810000D01*
X91419285Y-77738571D01*
X91419285Y-77595714D01*
X91383571Y-77524285D01*
X91347857Y-77488571D01*
X91276428Y-77452857D01*
X90669285Y-77452857D01*
X91419285Y-76702857D02*
X91419285Y-77131428D01*
X91419285Y-76917142D02*
X90669285Y-76917142D01*
X90776428Y-76988571D01*
X90847857Y-77060000D01*
X90883571Y-77131428D01*
X79540714Y-76899285D02*
X79969285Y-76899285D01*
X79755000Y-77649285D02*
X79755000Y-76899285D01*
X80576428Y-77649285D02*
X80219285Y-77649285D01*
X80219285Y-76899285D01*
X80969285Y-76899285D02*
X81040714Y-76899285D01*
X81112142Y-76935000D01*
X81147857Y-76970714D01*
X81183571Y-77042142D01*
X81219285Y-77185000D01*
X81219285Y-77363571D01*
X81183571Y-77506428D01*
X81147857Y-77577857D01*
X81112142Y-77613571D01*
X81040714Y-77649285D01*
X80969285Y-77649285D01*
X80897857Y-77613571D01*
X80862142Y-77577857D01*
X80826428Y-77506428D01*
X80790714Y-77363571D01*
X80790714Y-77185000D01*
X80826428Y-77042142D01*
X80862142Y-76970714D01*
X80897857Y-76935000D01*
X80969285Y-76899285D01*
X81469285Y-76899285D02*
X81969285Y-76899285D01*
X81647857Y-77649285D01*
X82576428Y-77149285D02*
X82576428Y-77649285D01*
X82397857Y-76863571D02*
X82219285Y-77399285D01*
X82683571Y-77399285D01*
%TD*%
%LPC*%
D15*
%TO.C,D4*%
X76400000Y-45500000D03*
D16*
X76400000Y-53120000D03*
%TD*%
%TO.C,D3*%
X83400000Y-45380000D03*
D15*
X83400000Y-53000000D03*
%TD*%
%TO.C,C2*%
X70900000Y-48500000D03*
D17*
X72900000Y-48500000D03*
%TD*%
%TO.C,C1*%
X88900000Y-48500000D03*
D15*
X86900000Y-48500000D03*
%TD*%
D18*
%TO.C,J5*%
X75000000Y-40500000D03*
D19*
X75000000Y-37960000D03*
X77540000Y-40500000D03*
X77540000Y-37960000D03*
X80080000Y-40500000D03*
X80080000Y-37960000D03*
X82620000Y-40500000D03*
X82620000Y-37960000D03*
X85160000Y-40500000D03*
X85160000Y-37960000D03*
%TD*%
D20*
%TO.C,RV3*%
X82700000Y-128500000D03*
D21*
X80200000Y-128500000D03*
X77700000Y-128500000D03*
D22*
X75400000Y-121000000D03*
X85000000Y-121000000D03*
%TD*%
D20*
%TO.C,RV1*%
X82700000Y-99000000D03*
D21*
X80200000Y-99000000D03*
X77700000Y-99000000D03*
D22*
X75400000Y-91500000D03*
X85000000Y-91500000D03*
%TD*%
%TO.C,RV2*%
X85050000Y-60000000D03*
X75450000Y-60000000D03*
D21*
X77750000Y-67500000D03*
X80250000Y-67500000D03*
D20*
X82750000Y-67500000D03*
%TD*%
D17*
%TO.C,C3*%
X80750000Y-78000000D03*
X78250000Y-78000000D03*
%TD*%
%TO.C,C4*%
X87750000Y-76500000D03*
X85250000Y-76500000D03*
%TD*%
%TO.C,C5*%
X88000000Y-85500000D03*
X90500000Y-85500000D03*
%TD*%
%TO.C,C6*%
X70750000Y-53500000D03*
X73250000Y-53500000D03*
%TD*%
D20*
%TO.C,D1*%
X81500000Y-106800000D03*
D21*
X78960000Y-106800000D03*
%TD*%
D15*
%TO.C,D2*%
X88750000Y-52750000D03*
D16*
X88750000Y-60370000D03*
%TD*%
D23*
%TO.C,H1*%
X88000000Y-105250000D03*
%TD*%
%TO.C,IN*%
G36*
G01*
X86630000Y-133850001D02*
X86630000Y-132149999D01*
G75*
G02*
X86879999Y-131900000I249999J0D01*
G01*
X88120001Y-131900000D01*
G75*
G02*
X88370000Y-132149999I0J-249999D01*
G01*
X88370000Y-133850001D01*
G75*
G02*
X88120001Y-134100000I-249999J0D01*
G01*
X86879999Y-134100000D01*
G75*
G02*
X86630000Y-133850001I0J249999D01*
G01*
G37*
D24*
X90040000Y-133000000D03*
%TD*%
%TO.C,J2*%
X81040000Y-133000000D03*
G36*
G01*
X77630000Y-133850001D02*
X77630000Y-132149999D01*
G75*
G02*
X77879999Y-131900000I249999J0D01*
G01*
X79120001Y-131900000D01*
G75*
G02*
X79370000Y-132149999I0J-249999D01*
G01*
X79370000Y-133850001D01*
G75*
G02*
X79120001Y-134100000I-249999J0D01*
G01*
X77879999Y-134100000D01*
G75*
G02*
X77630000Y-133850001I0J249999D01*
G01*
G37*
%TD*%
%TO.C,INV*%
G36*
G01*
X69130000Y-133850001D02*
X69130000Y-132149999D01*
G75*
G02*
X69379999Y-131900000I249999J0D01*
G01*
X70620001Y-131900000D01*
G75*
G02*
X70870000Y-132149999I0J-249999D01*
G01*
X70870000Y-133850001D01*
G75*
G02*
X70620001Y-134100000I-249999J0D01*
G01*
X69379999Y-134100000D01*
G75*
G02*
X69130000Y-133850001I0J249999D01*
G01*
G37*
X72540000Y-133000000D03*
%TD*%
D17*
%TO.C,R1*%
X89500000Y-97250000D03*
D16*
X89500000Y-89630000D03*
%TD*%
%TO.C,R2*%
X70000000Y-81370000D03*
D17*
X70000000Y-73750000D03*
%TD*%
D16*
%TO.C,R3*%
X71250000Y-65120000D03*
D17*
X71250000Y-57500000D03*
%TD*%
%TO.C,R4*%
X76500000Y-113250000D03*
D16*
X84120000Y-113250000D03*
%TD*%
D17*
%TO.C,R5*%
X76250000Y-84500000D03*
D16*
X83870000Y-84500000D03*
%TD*%
%TO.C,R6*%
X71000000Y-92870000D03*
D17*
X71000000Y-85250000D03*
%TD*%
D16*
%TO.C,R7*%
X88750000Y-70370000D03*
D17*
X88750000Y-62750000D03*
%TD*%
%TO.C,R8*%
X71000000Y-95250000D03*
D16*
X71000000Y-102870000D03*
%TD*%
D17*
%TO.C,R9*%
X78000000Y-70300000D03*
D16*
X70380000Y-70300000D03*
%TD*%
D25*
%TO.C,U1*%
X88750000Y-73500000D03*
D26*
X73510000Y-81120000D03*
X86210000Y-73500000D03*
X76050000Y-81120000D03*
X83670000Y-73500000D03*
X78590000Y-81120000D03*
X81130000Y-73500000D03*
X81130000Y-81120000D03*
X78590000Y-73500000D03*
X83670000Y-81120000D03*
X76050000Y-73500000D03*
X86210000Y-81120000D03*
X73510000Y-73500000D03*
X88750000Y-81120000D03*
%TD*%
M02*
