%TF.GenerationSoftware,KiCad,Pcbnew,(5.1.12-1-10_14)*%
%TF.CreationDate,2021-12-12T17:11:31+01:00*%
%TF.ProjectId,envy,656e7679-2e6b-4696-9361-645f70636258,rev?*%
%TF.SameCoordinates,Original*%
%TF.FileFunction,Legend,Bot*%
%TF.FilePolarity,Positive*%
%FSLAX46Y46*%
G04 Gerber Fmt 4.6, Leading zero omitted, Abs format (unit mm)*
G04 Created by KiCad (PCBNEW (5.1.12-1-10_14)) date 2021-12-12 17:11:31*
%MOMM*%
%LPD*%
G01*
G04 APERTURE LIST*
%ADD10C,0.010000*%
%ADD11C,5.500000*%
%ADD12C,9.000000*%
%ADD13C,14.000000*%
%ADD14C,4.000000*%
G04 APERTURE END LIST*
D10*
%TO.C,G\u002A\u002A\u002A*%
G36*
X101735294Y-53095244D02*
G01*
X101601399Y-53201576D01*
X101668901Y-53459110D01*
X101849151Y-53952981D01*
X102108764Y-54605085D01*
X102414355Y-55337315D01*
X102732540Y-56071569D01*
X103029932Y-56729741D01*
X103273149Y-57233726D01*
X103428804Y-57505421D01*
X103450847Y-57528399D01*
X103795899Y-57646879D01*
X104155808Y-57633134D01*
X104321632Y-57531119D01*
X104285151Y-57326710D01*
X104131105Y-56860957D01*
X103882869Y-56198608D01*
X103563819Y-55404410D01*
X103488408Y-55223112D01*
X103113988Y-54339681D01*
X102838522Y-53733908D01*
X102628588Y-53353792D01*
X102450761Y-53147331D01*
X102271618Y-53062524D01*
X102089860Y-53047237D01*
X101735294Y-53095244D01*
G37*
X101735294Y-53095244D02*
X101601399Y-53201576D01*
X101668901Y-53459110D01*
X101849151Y-53952981D01*
X102108764Y-54605085D01*
X102414355Y-55337315D01*
X102732540Y-56071569D01*
X103029932Y-56729741D01*
X103273149Y-57233726D01*
X103428804Y-57505421D01*
X103450847Y-57528399D01*
X103795899Y-57646879D01*
X104155808Y-57633134D01*
X104321632Y-57531119D01*
X104285151Y-57326710D01*
X104131105Y-56860957D01*
X103882869Y-56198608D01*
X103563819Y-55404410D01*
X103488408Y-55223112D01*
X103113988Y-54339681D01*
X102838522Y-53733908D01*
X102628588Y-53353792D01*
X102450761Y-53147331D01*
X102271618Y-53062524D01*
X102089860Y-53047237D01*
X101735294Y-53095244D01*
G36*
X118424900Y-36368884D02*
G01*
X117839251Y-36487690D01*
X117409386Y-36688216D01*
X117229472Y-36958914D01*
X117228672Y-36979521D01*
X117367428Y-37337393D01*
X117738839Y-37478490D01*
X118257232Y-37383437D01*
X118951189Y-37269053D01*
X119294839Y-37342838D01*
X119738525Y-37559898D01*
X119835762Y-37756788D01*
X119595325Y-37909229D01*
X119060703Y-37990851D01*
X118541860Y-38042729D01*
X118279030Y-38150946D01*
X118172992Y-38374630D01*
X118149391Y-38533916D01*
X118134203Y-38807491D01*
X118222896Y-38953886D01*
X118495790Y-39013748D01*
X119033206Y-39027723D01*
X119126314Y-39028287D01*
X120159441Y-39034196D01*
X119740113Y-39383532D01*
X119115305Y-39690406D01*
X118427312Y-39674512D01*
X118093752Y-39542919D01*
X117711117Y-39449354D01*
X117483751Y-39564668D01*
X117246153Y-39906690D01*
X117357082Y-40233314D01*
X117809829Y-40526392D01*
X117844645Y-40541231D01*
X118751074Y-40774651D01*
X119607484Y-40674501D01*
X120035444Y-40501472D01*
X120661230Y-40016468D01*
X121044676Y-39352231D01*
X121182793Y-38592037D01*
X121072589Y-37819161D01*
X120711076Y-37116880D01*
X120174871Y-36618252D01*
X119686878Y-36422618D01*
X119072165Y-36343344D01*
X118424900Y-36368884D01*
G37*
X118424900Y-36368884D02*
X117839251Y-36487690D01*
X117409386Y-36688216D01*
X117229472Y-36958914D01*
X117228672Y-36979521D01*
X117367428Y-37337393D01*
X117738839Y-37478490D01*
X118257232Y-37383437D01*
X118951189Y-37269053D01*
X119294839Y-37342838D01*
X119738525Y-37559898D01*
X119835762Y-37756788D01*
X119595325Y-37909229D01*
X119060703Y-37990851D01*
X118541860Y-38042729D01*
X118279030Y-38150946D01*
X118172992Y-38374630D01*
X118149391Y-38533916D01*
X118134203Y-38807491D01*
X118222896Y-38953886D01*
X118495790Y-39013748D01*
X119033206Y-39027723D01*
X119126314Y-39028287D01*
X120159441Y-39034196D01*
X119740113Y-39383532D01*
X119115305Y-39690406D01*
X118427312Y-39674512D01*
X118093752Y-39542919D01*
X117711117Y-39449354D01*
X117483751Y-39564668D01*
X117246153Y-39906690D01*
X117357082Y-40233314D01*
X117809829Y-40526392D01*
X117844645Y-40541231D01*
X118751074Y-40774651D01*
X119607484Y-40674501D01*
X120035444Y-40501472D01*
X120661230Y-40016468D01*
X121044676Y-39352231D01*
X121182793Y-38592037D01*
X121072589Y-37819161D01*
X120711076Y-37116880D01*
X120174871Y-36618252D01*
X119686878Y-36422618D01*
X119072165Y-36343344D01*
X118424900Y-36368884D01*
G36*
X115452448Y-37323711D02*
G01*
X115429791Y-37862276D01*
X115371286Y-38221190D01*
X115313163Y-38311888D01*
X115130459Y-38193877D01*
X114772716Y-37881391D01*
X114310365Y-37436748D01*
X114209091Y-37334965D01*
X113720934Y-36868838D01*
X113306396Y-36523625D01*
X113042732Y-36362595D01*
X113016208Y-36358042D01*
X112914186Y-36448126D01*
X112845443Y-36747598D01*
X112805289Y-37300283D01*
X112789033Y-38150009D01*
X112788112Y-38489511D01*
X112788112Y-40620979D01*
X113320979Y-40620979D01*
X113625611Y-40604575D01*
X113784170Y-40497069D01*
X113844350Y-40211022D01*
X113853846Y-39658995D01*
X113853846Y-39644056D01*
X113877127Y-39108991D01*
X113937179Y-38754149D01*
X113995421Y-38667133D01*
X114186902Y-38785212D01*
X114533437Y-39090092D01*
X114839127Y-39392499D01*
X115329248Y-39871509D01*
X115807440Y-40295717D01*
X116024274Y-40466451D01*
X116507289Y-40815035D01*
X116609069Y-40407168D01*
X116647737Y-40058435D01*
X116668431Y-39454683D01*
X116668869Y-38695791D01*
X116658921Y-38223077D01*
X116606993Y-36446853D01*
X116029720Y-36391194D01*
X115452448Y-36335534D01*
X115452448Y-37323711D01*
G37*
X115452448Y-37323711D02*
X115429791Y-37862276D01*
X115371286Y-38221190D01*
X115313163Y-38311888D01*
X115130459Y-38193877D01*
X114772716Y-37881391D01*
X114310365Y-37436748D01*
X114209091Y-37334965D01*
X113720934Y-36868838D01*
X113306396Y-36523625D01*
X113042732Y-36362595D01*
X113016208Y-36358042D01*
X112914186Y-36448126D01*
X112845443Y-36747598D01*
X112805289Y-37300283D01*
X112789033Y-38150009D01*
X112788112Y-38489511D01*
X112788112Y-40620979D01*
X113320979Y-40620979D01*
X113625611Y-40604575D01*
X113784170Y-40497069D01*
X113844350Y-40211022D01*
X113853846Y-39658995D01*
X113853846Y-39644056D01*
X113877127Y-39108991D01*
X113937179Y-38754149D01*
X113995421Y-38667133D01*
X114186902Y-38785212D01*
X114533437Y-39090092D01*
X114839127Y-39392499D01*
X115329248Y-39871509D01*
X115807440Y-40295717D01*
X116024274Y-40466451D01*
X116507289Y-40815035D01*
X116609069Y-40407168D01*
X116647737Y-40058435D01*
X116668431Y-39454683D01*
X116668869Y-38695791D01*
X116658921Y-38223077D01*
X116606993Y-36446853D01*
X116029720Y-36391194D01*
X115452448Y-36335534D01*
X115452448Y-37323711D01*
G36*
X111539185Y-36382029D02*
G01*
X111306247Y-36499306D01*
X111085279Y-36777844D01*
X110809580Y-37285616D01*
X110674798Y-37556445D01*
X110083839Y-38754848D01*
X108875521Y-36358042D01*
X106631066Y-36358042D01*
X106178497Y-37181006D01*
X105725927Y-38003970D01*
X105243638Y-37181006D01*
X104929840Y-36693284D01*
X104662235Y-36447319D01*
X104335023Y-36363782D01*
X104146066Y-36358042D01*
X103761413Y-36390988D01*
X103604096Y-36472167D01*
X103608953Y-36491259D01*
X103732880Y-36697132D01*
X103991170Y-37123198D01*
X104333371Y-37686263D01*
X104418736Y-37826555D01*
X104832371Y-38562718D01*
X105061140Y-39138293D01*
X105146500Y-39666508D01*
X105150350Y-39824807D01*
X105165958Y-40315073D01*
X105255879Y-40546814D01*
X105484758Y-40616616D01*
X105683217Y-40620979D01*
X106022656Y-40593748D01*
X106175139Y-40444752D01*
X106214984Y-40073037D01*
X106216084Y-39897138D01*
X106290213Y-39341356D01*
X106535515Y-38698635D01*
X106946817Y-37943292D01*
X107300374Y-37371367D01*
X107592666Y-36941011D01*
X107773196Y-36725281D01*
X107796967Y-36713287D01*
X107916439Y-36863278D01*
X108155587Y-37272482D01*
X108480577Y-37879748D01*
X108857576Y-38623922D01*
X108886864Y-38683264D01*
X109267027Y-39442790D01*
X109596453Y-40078312D01*
X109841192Y-40525887D01*
X109967291Y-40721573D01*
X109970434Y-40723965D01*
X110162004Y-40671470D01*
X110261201Y-40574618D01*
X110405620Y-40337448D01*
X110670043Y-39850950D01*
X111017656Y-39184557D01*
X111411646Y-38407701D01*
X111437356Y-38356294D01*
X112435835Y-36358042D01*
X111850796Y-36358042D01*
X111539185Y-36382029D01*
G37*
X111539185Y-36382029D02*
X111306247Y-36499306D01*
X111085279Y-36777844D01*
X110809580Y-37285616D01*
X110674798Y-37556445D01*
X110083839Y-38754848D01*
X108875521Y-36358042D01*
X106631066Y-36358042D01*
X106178497Y-37181006D01*
X105725927Y-38003970D01*
X105243638Y-37181006D01*
X104929840Y-36693284D01*
X104662235Y-36447319D01*
X104335023Y-36363782D01*
X104146066Y-36358042D01*
X103761413Y-36390988D01*
X103604096Y-36472167D01*
X103608953Y-36491259D01*
X103732880Y-36697132D01*
X103991170Y-37123198D01*
X104333371Y-37686263D01*
X104418736Y-37826555D01*
X104832371Y-38562718D01*
X105061140Y-39138293D01*
X105146500Y-39666508D01*
X105150350Y-39824807D01*
X105165958Y-40315073D01*
X105255879Y-40546814D01*
X105484758Y-40616616D01*
X105683217Y-40620979D01*
X106022656Y-40593748D01*
X106175139Y-40444752D01*
X106214984Y-40073037D01*
X106216084Y-39897138D01*
X106290213Y-39341356D01*
X106535515Y-38698635D01*
X106946817Y-37943292D01*
X107300374Y-37371367D01*
X107592666Y-36941011D01*
X107773196Y-36725281D01*
X107796967Y-36713287D01*
X107916439Y-36863278D01*
X108155587Y-37272482D01*
X108480577Y-37879748D01*
X108857576Y-38623922D01*
X108886864Y-38683264D01*
X109267027Y-39442790D01*
X109596453Y-40078312D01*
X109841192Y-40525887D01*
X109967291Y-40721573D01*
X109970434Y-40723965D01*
X110162004Y-40671470D01*
X110261201Y-40574618D01*
X110405620Y-40337448D01*
X110670043Y-39850950D01*
X111017656Y-39184557D01*
X111411646Y-38407701D01*
X111437356Y-38356294D01*
X112435835Y-36358042D01*
X111850796Y-36358042D01*
X111539185Y-36382029D01*
G36*
X102484761Y-116197392D02*
G01*
X102507841Y-117291547D01*
X102537891Y-118079145D01*
X102580281Y-118608869D01*
X102640380Y-118929405D01*
X102723558Y-119089436D01*
X102808662Y-119134301D01*
X103124443Y-119112246D01*
X103208312Y-119062551D01*
X103250770Y-118850822D01*
X103287012Y-118347203D01*
X103314350Y-117615033D01*
X103330098Y-116717648D01*
X103332867Y-116125641D01*
X103332867Y-113313287D01*
X102435956Y-113313287D01*
X102484761Y-116197392D01*
G37*
X102484761Y-116197392D02*
X102507841Y-117291547D01*
X102537891Y-118079145D01*
X102580281Y-118608869D01*
X102640380Y-118929405D01*
X102723558Y-119089436D01*
X102808662Y-119134301D01*
X103124443Y-119112246D01*
X103208312Y-119062551D01*
X103250770Y-118850822D01*
X103287012Y-118347203D01*
X103314350Y-117615033D01*
X103330098Y-116717648D01*
X103332867Y-116125641D01*
X103332867Y-113313287D01*
X102435956Y-113313287D01*
X102484761Y-116197392D01*
G36*
X103102305Y-139754192D02*
G01*
X102836837Y-140163937D01*
X102482165Y-140776290D01*
X102072797Y-141533523D01*
X101950764Y-141768125D01*
X100835095Y-143931468D01*
X105653017Y-143931468D01*
X105066282Y-142793757D01*
X103808500Y-142793757D01*
X103567714Y-142860451D01*
X103253296Y-142865734D01*
X102848175Y-142847493D01*
X102721900Y-142729131D01*
X102798101Y-142415189D01*
X102826730Y-142332540D01*
X103040313Y-141855353D01*
X103245539Y-141724094D01*
X103471609Y-141931437D01*
X103591736Y-142140616D01*
X103803431Y-142581828D01*
X103808500Y-142793757D01*
X105066282Y-142793757D01*
X104537347Y-141768125D01*
X104118701Y-140980134D01*
X103744901Y-140320549D01*
X103450457Y-139847099D01*
X103269882Y-139617510D01*
X103244056Y-139604782D01*
X103102305Y-139754192D01*
G37*
X103102305Y-139754192D02*
X102836837Y-140163937D01*
X102482165Y-140776290D01*
X102072797Y-141533523D01*
X101950764Y-141768125D01*
X100835095Y-143931468D01*
X105653017Y-143931468D01*
X105066282Y-142793757D01*
X103808500Y-142793757D01*
X103567714Y-142860451D01*
X103253296Y-142865734D01*
X102848175Y-142847493D01*
X102721900Y-142729131D01*
X102798101Y-142415189D01*
X102826730Y-142332540D01*
X103040313Y-141855353D01*
X103245539Y-141724094D01*
X103471609Y-141931437D01*
X103591736Y-142140616D01*
X103803431Y-142581828D01*
X103808500Y-142793757D01*
X105066282Y-142793757D01*
X104537347Y-141768125D01*
X104118701Y-140980134D01*
X103744901Y-140320549D01*
X103450457Y-139847099D01*
X103269882Y-139617510D01*
X103244056Y-139604782D01*
X103102305Y-139754192D01*
G36*
X103433217Y-163355828D02*
G01*
X103131835Y-163491913D01*
X102995047Y-163850606D01*
X102977907Y-163989861D01*
X102905159Y-164378659D01*
X102711466Y-164537396D01*
X102300025Y-164567133D01*
X101886297Y-164593724D01*
X101729997Y-164729255D01*
X101734006Y-165055595D01*
X101839012Y-165409870D01*
X102120457Y-165564749D01*
X102357010Y-165598935D01*
X102760195Y-165687725D01*
X102932495Y-165927681D01*
X102978688Y-166219158D01*
X103116704Y-166647325D01*
X103374367Y-166862450D01*
X103666641Y-166801038D01*
X103708312Y-166763950D01*
X103800487Y-166509803D01*
X103832867Y-166147385D01*
X103883902Y-165800018D01*
X104109105Y-165645873D01*
X104410140Y-165599716D01*
X104824486Y-165506952D01*
X105003796Y-165271363D01*
X105043617Y-165055595D01*
X105048001Y-164730377D01*
X104893946Y-164594761D01*
X104485015Y-164567146D01*
X104466344Y-164567133D01*
X104044661Y-164541326D01*
X103869569Y-164391841D01*
X103833066Y-164010581D01*
X103832867Y-163933101D01*
X103804249Y-163513067D01*
X103675714Y-163353985D01*
X103433217Y-163355828D01*
G37*
X103433217Y-163355828D02*
X103131835Y-163491913D01*
X102995047Y-163850606D01*
X102977907Y-163989861D01*
X102905159Y-164378659D01*
X102711466Y-164537396D01*
X102300025Y-164567133D01*
X101886297Y-164593724D01*
X101729997Y-164729255D01*
X101734006Y-165055595D01*
X101839012Y-165409870D01*
X102120457Y-165564749D01*
X102357010Y-165598935D01*
X102760195Y-165687725D01*
X102932495Y-165927681D01*
X102978688Y-166219158D01*
X103116704Y-166647325D01*
X103374367Y-166862450D01*
X103666641Y-166801038D01*
X103708312Y-166763950D01*
X103800487Y-166509803D01*
X103832867Y-166147385D01*
X103883902Y-165800018D01*
X104109105Y-165645873D01*
X104410140Y-165599716D01*
X104824486Y-165506952D01*
X105003796Y-165271363D01*
X105043617Y-165055595D01*
X105048001Y-164730377D01*
X104893946Y-164594761D01*
X104485015Y-164567146D01*
X104466344Y-164567133D01*
X104044661Y-164541326D01*
X103869569Y-164391841D01*
X103833066Y-164010581D01*
X103832867Y-163933101D01*
X103804249Y-163513067D01*
X103675714Y-163353985D01*
X103433217Y-163355828D01*
G36*
X103947869Y-84329131D02*
G01*
X103751856Y-84410240D01*
X103614978Y-84645978D01*
X103385869Y-85129184D01*
X103098541Y-85778324D01*
X102787006Y-86511864D01*
X102485274Y-87248272D01*
X102227359Y-87906014D01*
X102047272Y-88403557D01*
X101979025Y-88659367D01*
X101979021Y-88660091D01*
X102119528Y-88856345D01*
X102445075Y-88898848D01*
X102803594Y-88773155D01*
X102945243Y-88567584D01*
X103187438Y-88098919D01*
X103498030Y-87433597D01*
X103844867Y-86638055D01*
X103898204Y-86511189D01*
X104789919Y-84379721D01*
X104339755Y-84321429D01*
X103947869Y-84329131D01*
G37*
X103947869Y-84329131D02*
X103751856Y-84410240D01*
X103614978Y-84645978D01*
X103385869Y-85129184D01*
X103098541Y-85778324D01*
X102787006Y-86511864D01*
X102485274Y-87248272D01*
X102227359Y-87906014D01*
X102047272Y-88403557D01*
X101979025Y-88659367D01*
X101979021Y-88660091D01*
X102119528Y-88856345D01*
X102445075Y-88898848D01*
X102803594Y-88773155D01*
X102945243Y-88567584D01*
X103187438Y-88098919D01*
X103498030Y-87433597D01*
X103844867Y-86638055D01*
X103898204Y-86511189D01*
X104789919Y-84379721D01*
X104339755Y-84321429D01*
X103947869Y-84329131D01*
G36*
X102397723Y-187875032D02*
G01*
X102053953Y-187916842D01*
X101914443Y-188019727D01*
X101903732Y-188210855D01*
X101911073Y-188266783D01*
X101978690Y-188488607D01*
X102158865Y-188616886D01*
X102536707Y-188684626D01*
X103077972Y-188719315D01*
X103682972Y-188740872D01*
X104015079Y-188712684D01*
X104156066Y-188605314D01*
X104187705Y-188389323D01*
X104188112Y-188319664D01*
X104169165Y-188077442D01*
X104059062Y-187941994D01*
X103777910Y-187882335D01*
X103245816Y-187867483D01*
X103021213Y-187867133D01*
X102397723Y-187875032D01*
G37*
X102397723Y-187875032D02*
X102053953Y-187916842D01*
X101914443Y-188019727D01*
X101903732Y-188210855D01*
X101911073Y-188266783D01*
X101978690Y-188488607D01*
X102158865Y-188616886D01*
X102536707Y-188684626D01*
X103077972Y-188719315D01*
X103682972Y-188740872D01*
X104015079Y-188712684D01*
X104156066Y-188605314D01*
X104187705Y-188389323D01*
X104188112Y-188319664D01*
X104169165Y-188077442D01*
X104059062Y-187941994D01*
X103777910Y-187882335D01*
X103245816Y-187867483D01*
X103021213Y-187867133D01*
X102397723Y-187875032D01*
%TD*%
%LPC*%
D11*
%TO.C,REF\u002A\u002A*%
X112500000Y-106800000D03*
%TD*%
D12*
%TO.C,REF\u002A\u002A*%
X112500000Y-91500000D03*
%TD*%
D13*
%TO.C,REF\u002A\u002A*%
X112400000Y-148800000D03*
%TD*%
D12*
%TO.C,REF\u002A\u002A*%
X112500000Y-60000000D03*
%TD*%
D14*
%TO.C,REF\u002A\u002A*%
X122400000Y-23000000D03*
X122400000Y-217000000D03*
%TD*%
%TO.C,REF\u002A\u002A*%
X102500000Y-23000000D03*
X102500000Y-217000000D03*
%TD*%
D13*
%TO.C,REF\u002A\u002A*%
X112400000Y-172200000D03*
%TD*%
%TO.C,REF\u002A\u002A*%
X112400000Y-195700000D03*
%TD*%
D12*
%TO.C,REF\u002A\u002A*%
X112500000Y-121100000D03*
%TD*%
M02*
