%TF.GenerationSoftware,KiCad,Pcbnew,(5.1.12-1-10_14)*%
%TF.CreationDate,2021-12-12T17:34:39+01:00*%
%TF.ProjectId,kross,6b726f73-732e-46b6-9963-61645f706362,rev?*%
%TF.SameCoordinates,Original*%
%TF.FileFunction,Copper,L2,Bot*%
%TF.FilePolarity,Positive*%
%FSLAX46Y46*%
G04 Gerber Fmt 4.6, Leading zero omitted, Abs format (unit mm)*
G04 Created by KiCad (PCBNEW (5.1.12-1-10_14)) date 2021-12-12 17:34:39*
%MOMM*%
%LPD*%
G01*
G04 APERTURE LIST*
%TA.AperFunction,ComponentPad*%
%ADD10C,14.000000*%
%TD*%
%TA.AperFunction,ComponentPad*%
%ADD11C,9.000000*%
%TD*%
%TA.AperFunction,ComponentPad*%
%ADD12C,4.000000*%
%TD*%
%TA.AperFunction,Conductor*%
%ADD13C,0.254000*%
%TD*%
%TA.AperFunction,Conductor*%
%ADD14C,0.100000*%
%TD*%
G04 APERTURE END LIST*
D10*
%TO.P,REF\u002A\u002A,1*%
%TO.N,GND*%
X112500000Y-165000000D03*
%TD*%
%TO.P,REF\u002A\u002A,1*%
%TO.N,GND*%
X112400000Y-183000000D03*
%TD*%
%TO.P,REF\u002A\u002A,1*%
%TO.N,GND*%
X112400000Y-200500000D03*
%TD*%
%TO.P,REF\u002A\u002A,1*%
%TO.N,GND*%
X112500000Y-147000000D03*
%TD*%
D11*
%TO.P,REF\u002A\u002A,1*%
%TO.N,GND*%
X112500000Y-85000000D03*
%TD*%
%TO.P,REF\u002A\u002A,1*%
%TO.N,GND*%
X112500000Y-59500000D03*
%TD*%
D12*
%TO.P,REF\u002A\u002A,1*%
%TO.N,GND*%
X122200000Y-23000000D03*
X122200000Y-217000000D03*
%TD*%
%TO.P,REF\u002A\u002A,1*%
%TO.N,GND*%
X102800000Y-217000000D03*
X102800000Y-23000000D03*
%TD*%
D13*
%TO.N,GND*%
X101348228Y-20785742D02*
X101132106Y-21152501D01*
X102800000Y-22820395D01*
X104467894Y-21152501D01*
X104251772Y-20785742D01*
X104011512Y-20660000D01*
X120983476Y-20660000D01*
X120748228Y-20785742D01*
X120532106Y-21152501D01*
X122200000Y-22820395D01*
X123867894Y-21152501D01*
X123651772Y-20785742D01*
X123411512Y-20660000D01*
X124340001Y-20660000D01*
X124340001Y-21504470D01*
X124047499Y-21332106D01*
X122379605Y-23000000D01*
X124047499Y-24667894D01*
X124340001Y-24495530D01*
X124340000Y-215504470D01*
X124047499Y-215332106D01*
X122379605Y-217000000D01*
X124047499Y-218667894D01*
X124340000Y-218495530D01*
X124340000Y-219340000D01*
X123416524Y-219340000D01*
X123651772Y-219214258D01*
X123867894Y-218847499D01*
X122200000Y-217179605D01*
X120532106Y-218847499D01*
X120748228Y-219214258D01*
X120988488Y-219340000D01*
X104016524Y-219340000D01*
X104251772Y-219214258D01*
X104467894Y-218847499D01*
X102800000Y-217179605D01*
X101132106Y-218847499D01*
X101348228Y-219214258D01*
X101588488Y-219340000D01*
X100660000Y-219340000D01*
X100660000Y-218495530D01*
X100952501Y-218667894D01*
X102620395Y-217000000D01*
X102979605Y-217000000D01*
X104647499Y-218667894D01*
X105014258Y-218451772D01*
X105254938Y-217991895D01*
X105401275Y-217493902D01*
X105443509Y-217023071D01*
X119552352Y-217023071D01*
X119607727Y-217539159D01*
X119762721Y-218034526D01*
X119985742Y-218451772D01*
X120352501Y-218667894D01*
X122020395Y-217000000D01*
X120352501Y-215332106D01*
X119985742Y-215548228D01*
X119745062Y-216008105D01*
X119598725Y-216506098D01*
X119552352Y-217023071D01*
X105443509Y-217023071D01*
X105447648Y-216976929D01*
X105392273Y-216460841D01*
X105237279Y-215965474D01*
X105014258Y-215548228D01*
X104647499Y-215332106D01*
X102979605Y-217000000D01*
X102620395Y-217000000D01*
X100952501Y-215332106D01*
X100660000Y-215504470D01*
X100660000Y-215152501D01*
X101132106Y-215152501D01*
X102800000Y-216820395D01*
X104467894Y-215152501D01*
X120532106Y-215152501D01*
X122200000Y-216820395D01*
X123867894Y-215152501D01*
X123651772Y-214785742D01*
X123191895Y-214545062D01*
X122693902Y-214398725D01*
X122176929Y-214352352D01*
X121660841Y-214407727D01*
X121165474Y-214562721D01*
X120748228Y-214785742D01*
X120532106Y-215152501D01*
X104467894Y-215152501D01*
X104251772Y-214785742D01*
X103791895Y-214545062D01*
X103293902Y-214398725D01*
X102776929Y-214352352D01*
X102260841Y-214407727D01*
X101765474Y-214562721D01*
X101348228Y-214785742D01*
X101132106Y-215152501D01*
X100660000Y-215152501D01*
X100660000Y-205901674D01*
X107177932Y-205901674D01*
X107993908Y-206780530D01*
X109303840Y-207519437D01*
X110732756Y-207988591D01*
X112225743Y-208169963D01*
X113725428Y-208056583D01*
X115174176Y-207652807D01*
X116516314Y-206974153D01*
X116806092Y-206780530D01*
X117622068Y-205901674D01*
X112400000Y-200679605D01*
X107177932Y-205901674D01*
X100660000Y-205901674D01*
X100660000Y-200325743D01*
X104730037Y-200325743D01*
X104843417Y-201825428D01*
X105247193Y-203274176D01*
X105925847Y-204616314D01*
X106119470Y-204906092D01*
X106998326Y-205722068D01*
X112220395Y-200500000D01*
X112579605Y-200500000D01*
X117801674Y-205722068D01*
X118680530Y-204906092D01*
X119419437Y-203596160D01*
X119888591Y-202167244D01*
X120069963Y-200674257D01*
X119956583Y-199174572D01*
X119552807Y-197725824D01*
X118874153Y-196383686D01*
X118680530Y-196093908D01*
X117801674Y-195277932D01*
X112579605Y-200500000D01*
X112220395Y-200500000D01*
X106998326Y-195277932D01*
X106119470Y-196093908D01*
X105380563Y-197403840D01*
X104911409Y-198832756D01*
X104730037Y-200325743D01*
X100660000Y-200325743D01*
X100660000Y-195098326D01*
X107177932Y-195098326D01*
X112400000Y-200320395D01*
X117622068Y-195098326D01*
X116806092Y-194219470D01*
X115496160Y-193480563D01*
X114067244Y-193011409D01*
X112574257Y-192830037D01*
X111074572Y-192943417D01*
X109625824Y-193347193D01*
X108283686Y-194025847D01*
X107993908Y-194219470D01*
X107177932Y-195098326D01*
X100660000Y-195098326D01*
X100660000Y-188401674D01*
X107177932Y-188401674D01*
X107993908Y-189280530D01*
X109303840Y-190019437D01*
X110732756Y-190488591D01*
X112225743Y-190669963D01*
X113725428Y-190556583D01*
X115174176Y-190152807D01*
X116516314Y-189474153D01*
X116806092Y-189280530D01*
X117622068Y-188401674D01*
X112400000Y-183179605D01*
X107177932Y-188401674D01*
X100660000Y-188401674D01*
X100660000Y-182825743D01*
X104730037Y-182825743D01*
X104843417Y-184325428D01*
X105247193Y-185774176D01*
X105925847Y-187116314D01*
X106119470Y-187406092D01*
X106998326Y-188222068D01*
X112220395Y-183000000D01*
X112579605Y-183000000D01*
X117801674Y-188222068D01*
X118680530Y-187406092D01*
X119419437Y-186096160D01*
X119888591Y-184667244D01*
X120069963Y-183174257D01*
X119956583Y-181674572D01*
X119552807Y-180225824D01*
X118874153Y-178883686D01*
X118680530Y-178593908D01*
X117801674Y-177777932D01*
X112579605Y-183000000D01*
X112220395Y-183000000D01*
X106998326Y-177777932D01*
X106119470Y-178593908D01*
X105380563Y-179903840D01*
X104911409Y-181332756D01*
X104730037Y-182825743D01*
X100660000Y-182825743D01*
X100660000Y-177598326D01*
X107177932Y-177598326D01*
X112400000Y-182820395D01*
X117622068Y-177598326D01*
X116806092Y-176719470D01*
X115496160Y-175980563D01*
X114067244Y-175511409D01*
X112574257Y-175330037D01*
X111074572Y-175443417D01*
X109625824Y-175847193D01*
X108283686Y-176525847D01*
X107993908Y-176719470D01*
X107177932Y-177598326D01*
X100660000Y-177598326D01*
X100660000Y-170401674D01*
X107277932Y-170401674D01*
X108093908Y-171280530D01*
X109403840Y-172019437D01*
X110832756Y-172488591D01*
X112325743Y-172669963D01*
X113825428Y-172556583D01*
X115274176Y-172152807D01*
X116616314Y-171474153D01*
X116906092Y-171280530D01*
X117722068Y-170401674D01*
X112500000Y-165179605D01*
X107277932Y-170401674D01*
X100660000Y-170401674D01*
X100660000Y-164825743D01*
X104830037Y-164825743D01*
X104943417Y-166325428D01*
X105347193Y-167774176D01*
X106025847Y-169116314D01*
X106219470Y-169406092D01*
X107098326Y-170222068D01*
X112320395Y-165000000D01*
X112679605Y-165000000D01*
X117901674Y-170222068D01*
X118780530Y-169406092D01*
X119519437Y-168096160D01*
X119988591Y-166667244D01*
X120169963Y-165174257D01*
X120056583Y-163674572D01*
X119652807Y-162225824D01*
X118974153Y-160883686D01*
X118780530Y-160593908D01*
X117901674Y-159777932D01*
X112679605Y-165000000D01*
X112320395Y-165000000D01*
X107098326Y-159777932D01*
X106219470Y-160593908D01*
X105480563Y-161903840D01*
X105011409Y-163332756D01*
X104830037Y-164825743D01*
X100660000Y-164825743D01*
X100660000Y-159598326D01*
X107277932Y-159598326D01*
X112500000Y-164820395D01*
X117722068Y-159598326D01*
X116906092Y-158719470D01*
X115596160Y-157980563D01*
X114167244Y-157511409D01*
X112674257Y-157330037D01*
X111174572Y-157443417D01*
X109725824Y-157847193D01*
X108383686Y-158525847D01*
X108093908Y-158719470D01*
X107277932Y-159598326D01*
X100660000Y-159598326D01*
X100660000Y-152401674D01*
X107277932Y-152401674D01*
X108093908Y-153280530D01*
X109403840Y-154019437D01*
X110832756Y-154488591D01*
X112325743Y-154669963D01*
X113825428Y-154556583D01*
X115274176Y-154152807D01*
X116616314Y-153474153D01*
X116906092Y-153280530D01*
X117722068Y-152401674D01*
X112500000Y-147179605D01*
X107277932Y-152401674D01*
X100660000Y-152401674D01*
X100660000Y-146825743D01*
X104830037Y-146825743D01*
X104943417Y-148325428D01*
X105347193Y-149774176D01*
X106025847Y-151116314D01*
X106219470Y-151406092D01*
X107098326Y-152222068D01*
X112320395Y-147000000D01*
X112679605Y-147000000D01*
X117901674Y-152222068D01*
X118780530Y-151406092D01*
X119519437Y-150096160D01*
X119988591Y-148667244D01*
X120169963Y-147174257D01*
X120056583Y-145674572D01*
X119652807Y-144225824D01*
X118974153Y-142883686D01*
X118780530Y-142593908D01*
X117901674Y-141777932D01*
X112679605Y-147000000D01*
X112320395Y-147000000D01*
X107098326Y-141777932D01*
X106219470Y-142593908D01*
X105480563Y-143903840D01*
X105011409Y-145332756D01*
X104830037Y-146825743D01*
X100660000Y-146825743D01*
X100660000Y-141598326D01*
X107277932Y-141598326D01*
X112500000Y-146820395D01*
X117722068Y-141598326D01*
X116906092Y-140719470D01*
X115596160Y-139980563D01*
X114167244Y-139511409D01*
X112674257Y-139330037D01*
X111174572Y-139443417D01*
X109725824Y-139847193D01*
X108383686Y-140525847D01*
X108093908Y-140719470D01*
X107277932Y-141598326D01*
X100660000Y-141598326D01*
X100660000Y-88624971D01*
X109054634Y-88624971D01*
X109570783Y-89247788D01*
X110455768Y-89737630D01*
X111419314Y-90045407D01*
X112424389Y-90159293D01*
X113432370Y-90074910D01*
X114404520Y-89795501D01*
X115303481Y-89331803D01*
X115429217Y-89247788D01*
X115945366Y-88624971D01*
X112500000Y-85179605D01*
X109054634Y-88624971D01*
X100660000Y-88624971D01*
X100660000Y-84924389D01*
X107340707Y-84924389D01*
X107425090Y-85932370D01*
X107704499Y-86904520D01*
X108168197Y-87803481D01*
X108252212Y-87929217D01*
X108875029Y-88445366D01*
X112320395Y-85000000D01*
X112679605Y-85000000D01*
X116124971Y-88445366D01*
X116747788Y-87929217D01*
X117237630Y-87044232D01*
X117545407Y-86080686D01*
X117659293Y-85075611D01*
X117574910Y-84067630D01*
X117295501Y-83095480D01*
X116831803Y-82196519D01*
X116747788Y-82070783D01*
X116124971Y-81554634D01*
X112679605Y-85000000D01*
X112320395Y-85000000D01*
X108875029Y-81554634D01*
X108252212Y-82070783D01*
X107762370Y-82955768D01*
X107454593Y-83919314D01*
X107340707Y-84924389D01*
X100660000Y-84924389D01*
X100660000Y-81375029D01*
X109054634Y-81375029D01*
X112500000Y-84820395D01*
X115945366Y-81375029D01*
X115429217Y-80752212D01*
X114544232Y-80262370D01*
X113580686Y-79954593D01*
X112575611Y-79840707D01*
X111567630Y-79925090D01*
X110595480Y-80204499D01*
X109696519Y-80668197D01*
X109570783Y-80752212D01*
X109054634Y-81375029D01*
X100660000Y-81375029D01*
X100660000Y-63124971D01*
X109054634Y-63124971D01*
X109570783Y-63747788D01*
X110455768Y-64237630D01*
X111419314Y-64545407D01*
X112424389Y-64659293D01*
X113432370Y-64574910D01*
X114404520Y-64295501D01*
X115303481Y-63831803D01*
X115429217Y-63747788D01*
X115945366Y-63124971D01*
X112500000Y-59679605D01*
X109054634Y-63124971D01*
X100660000Y-63124971D01*
X100660000Y-59424389D01*
X107340707Y-59424389D01*
X107425090Y-60432370D01*
X107704499Y-61404520D01*
X108168197Y-62303481D01*
X108252212Y-62429217D01*
X108875029Y-62945366D01*
X112320395Y-59500000D01*
X112679605Y-59500000D01*
X116124971Y-62945366D01*
X116747788Y-62429217D01*
X117237630Y-61544232D01*
X117545407Y-60580686D01*
X117659293Y-59575611D01*
X117574910Y-58567630D01*
X117295501Y-57595480D01*
X116831803Y-56696519D01*
X116747788Y-56570783D01*
X116124971Y-56054634D01*
X112679605Y-59500000D01*
X112320395Y-59500000D01*
X108875029Y-56054634D01*
X108252212Y-56570783D01*
X107762370Y-57455768D01*
X107454593Y-58419314D01*
X107340707Y-59424389D01*
X100660000Y-59424389D01*
X100660000Y-55875029D01*
X109054634Y-55875029D01*
X112500000Y-59320395D01*
X115945366Y-55875029D01*
X115429217Y-55252212D01*
X114544232Y-54762370D01*
X113580686Y-54454593D01*
X112575611Y-54340707D01*
X111567630Y-54425090D01*
X110595480Y-54704499D01*
X109696519Y-55168197D01*
X109570783Y-55252212D01*
X109054634Y-55875029D01*
X100660000Y-55875029D01*
X100660000Y-24847499D01*
X101132106Y-24847499D01*
X101348228Y-25214258D01*
X101808105Y-25454938D01*
X102306098Y-25601275D01*
X102823071Y-25647648D01*
X103339159Y-25592273D01*
X103834526Y-25437279D01*
X104251772Y-25214258D01*
X104467894Y-24847499D01*
X120532106Y-24847499D01*
X120748228Y-25214258D01*
X121208105Y-25454938D01*
X121706098Y-25601275D01*
X122223071Y-25647648D01*
X122739159Y-25592273D01*
X123234526Y-25437279D01*
X123651772Y-25214258D01*
X123867894Y-24847499D01*
X122200000Y-23179605D01*
X120532106Y-24847499D01*
X104467894Y-24847499D01*
X102800000Y-23179605D01*
X101132106Y-24847499D01*
X100660000Y-24847499D01*
X100660000Y-24495530D01*
X100952501Y-24667894D01*
X102620395Y-23000000D01*
X102979605Y-23000000D01*
X104647499Y-24667894D01*
X105014258Y-24451772D01*
X105254938Y-23991895D01*
X105401275Y-23493902D01*
X105443509Y-23023071D01*
X119552352Y-23023071D01*
X119607727Y-23539159D01*
X119762721Y-24034526D01*
X119985742Y-24451772D01*
X120352501Y-24667894D01*
X122020395Y-23000000D01*
X120352501Y-21332106D01*
X119985742Y-21548228D01*
X119745062Y-22008105D01*
X119598725Y-22506098D01*
X119552352Y-23023071D01*
X105443509Y-23023071D01*
X105447648Y-22976929D01*
X105392273Y-22460841D01*
X105237279Y-21965474D01*
X105014258Y-21548228D01*
X104647499Y-21332106D01*
X102979605Y-23000000D01*
X102620395Y-23000000D01*
X100952501Y-21332106D01*
X100660000Y-21504470D01*
X100660000Y-20660000D01*
X101583476Y-20660000D01*
X101348228Y-20785742D01*
%TA.AperFunction,Conductor*%
D14*
G36*
X101348228Y-20785742D02*
G01*
X101132106Y-21152501D01*
X102800000Y-22820395D01*
X104467894Y-21152501D01*
X104251772Y-20785742D01*
X104011512Y-20660000D01*
X120983476Y-20660000D01*
X120748228Y-20785742D01*
X120532106Y-21152501D01*
X122200000Y-22820395D01*
X123867894Y-21152501D01*
X123651772Y-20785742D01*
X123411512Y-20660000D01*
X124340001Y-20660000D01*
X124340001Y-21504470D01*
X124047499Y-21332106D01*
X122379605Y-23000000D01*
X124047499Y-24667894D01*
X124340001Y-24495530D01*
X124340000Y-215504470D01*
X124047499Y-215332106D01*
X122379605Y-217000000D01*
X124047499Y-218667894D01*
X124340000Y-218495530D01*
X124340000Y-219340000D01*
X123416524Y-219340000D01*
X123651772Y-219214258D01*
X123867894Y-218847499D01*
X122200000Y-217179605D01*
X120532106Y-218847499D01*
X120748228Y-219214258D01*
X120988488Y-219340000D01*
X104016524Y-219340000D01*
X104251772Y-219214258D01*
X104467894Y-218847499D01*
X102800000Y-217179605D01*
X101132106Y-218847499D01*
X101348228Y-219214258D01*
X101588488Y-219340000D01*
X100660000Y-219340000D01*
X100660000Y-218495530D01*
X100952501Y-218667894D01*
X102620395Y-217000000D01*
X102979605Y-217000000D01*
X104647499Y-218667894D01*
X105014258Y-218451772D01*
X105254938Y-217991895D01*
X105401275Y-217493902D01*
X105443509Y-217023071D01*
X119552352Y-217023071D01*
X119607727Y-217539159D01*
X119762721Y-218034526D01*
X119985742Y-218451772D01*
X120352501Y-218667894D01*
X122020395Y-217000000D01*
X120352501Y-215332106D01*
X119985742Y-215548228D01*
X119745062Y-216008105D01*
X119598725Y-216506098D01*
X119552352Y-217023071D01*
X105443509Y-217023071D01*
X105447648Y-216976929D01*
X105392273Y-216460841D01*
X105237279Y-215965474D01*
X105014258Y-215548228D01*
X104647499Y-215332106D01*
X102979605Y-217000000D01*
X102620395Y-217000000D01*
X100952501Y-215332106D01*
X100660000Y-215504470D01*
X100660000Y-215152501D01*
X101132106Y-215152501D01*
X102800000Y-216820395D01*
X104467894Y-215152501D01*
X120532106Y-215152501D01*
X122200000Y-216820395D01*
X123867894Y-215152501D01*
X123651772Y-214785742D01*
X123191895Y-214545062D01*
X122693902Y-214398725D01*
X122176929Y-214352352D01*
X121660841Y-214407727D01*
X121165474Y-214562721D01*
X120748228Y-214785742D01*
X120532106Y-215152501D01*
X104467894Y-215152501D01*
X104251772Y-214785742D01*
X103791895Y-214545062D01*
X103293902Y-214398725D01*
X102776929Y-214352352D01*
X102260841Y-214407727D01*
X101765474Y-214562721D01*
X101348228Y-214785742D01*
X101132106Y-215152501D01*
X100660000Y-215152501D01*
X100660000Y-205901674D01*
X107177932Y-205901674D01*
X107993908Y-206780530D01*
X109303840Y-207519437D01*
X110732756Y-207988591D01*
X112225743Y-208169963D01*
X113725428Y-208056583D01*
X115174176Y-207652807D01*
X116516314Y-206974153D01*
X116806092Y-206780530D01*
X117622068Y-205901674D01*
X112400000Y-200679605D01*
X107177932Y-205901674D01*
X100660000Y-205901674D01*
X100660000Y-200325743D01*
X104730037Y-200325743D01*
X104843417Y-201825428D01*
X105247193Y-203274176D01*
X105925847Y-204616314D01*
X106119470Y-204906092D01*
X106998326Y-205722068D01*
X112220395Y-200500000D01*
X112579605Y-200500000D01*
X117801674Y-205722068D01*
X118680530Y-204906092D01*
X119419437Y-203596160D01*
X119888591Y-202167244D01*
X120069963Y-200674257D01*
X119956583Y-199174572D01*
X119552807Y-197725824D01*
X118874153Y-196383686D01*
X118680530Y-196093908D01*
X117801674Y-195277932D01*
X112579605Y-200500000D01*
X112220395Y-200500000D01*
X106998326Y-195277932D01*
X106119470Y-196093908D01*
X105380563Y-197403840D01*
X104911409Y-198832756D01*
X104730037Y-200325743D01*
X100660000Y-200325743D01*
X100660000Y-195098326D01*
X107177932Y-195098326D01*
X112400000Y-200320395D01*
X117622068Y-195098326D01*
X116806092Y-194219470D01*
X115496160Y-193480563D01*
X114067244Y-193011409D01*
X112574257Y-192830037D01*
X111074572Y-192943417D01*
X109625824Y-193347193D01*
X108283686Y-194025847D01*
X107993908Y-194219470D01*
X107177932Y-195098326D01*
X100660000Y-195098326D01*
X100660000Y-188401674D01*
X107177932Y-188401674D01*
X107993908Y-189280530D01*
X109303840Y-190019437D01*
X110732756Y-190488591D01*
X112225743Y-190669963D01*
X113725428Y-190556583D01*
X115174176Y-190152807D01*
X116516314Y-189474153D01*
X116806092Y-189280530D01*
X117622068Y-188401674D01*
X112400000Y-183179605D01*
X107177932Y-188401674D01*
X100660000Y-188401674D01*
X100660000Y-182825743D01*
X104730037Y-182825743D01*
X104843417Y-184325428D01*
X105247193Y-185774176D01*
X105925847Y-187116314D01*
X106119470Y-187406092D01*
X106998326Y-188222068D01*
X112220395Y-183000000D01*
X112579605Y-183000000D01*
X117801674Y-188222068D01*
X118680530Y-187406092D01*
X119419437Y-186096160D01*
X119888591Y-184667244D01*
X120069963Y-183174257D01*
X119956583Y-181674572D01*
X119552807Y-180225824D01*
X118874153Y-178883686D01*
X118680530Y-178593908D01*
X117801674Y-177777932D01*
X112579605Y-183000000D01*
X112220395Y-183000000D01*
X106998326Y-177777932D01*
X106119470Y-178593908D01*
X105380563Y-179903840D01*
X104911409Y-181332756D01*
X104730037Y-182825743D01*
X100660000Y-182825743D01*
X100660000Y-177598326D01*
X107177932Y-177598326D01*
X112400000Y-182820395D01*
X117622068Y-177598326D01*
X116806092Y-176719470D01*
X115496160Y-175980563D01*
X114067244Y-175511409D01*
X112574257Y-175330037D01*
X111074572Y-175443417D01*
X109625824Y-175847193D01*
X108283686Y-176525847D01*
X107993908Y-176719470D01*
X107177932Y-177598326D01*
X100660000Y-177598326D01*
X100660000Y-170401674D01*
X107277932Y-170401674D01*
X108093908Y-171280530D01*
X109403840Y-172019437D01*
X110832756Y-172488591D01*
X112325743Y-172669963D01*
X113825428Y-172556583D01*
X115274176Y-172152807D01*
X116616314Y-171474153D01*
X116906092Y-171280530D01*
X117722068Y-170401674D01*
X112500000Y-165179605D01*
X107277932Y-170401674D01*
X100660000Y-170401674D01*
X100660000Y-164825743D01*
X104830037Y-164825743D01*
X104943417Y-166325428D01*
X105347193Y-167774176D01*
X106025847Y-169116314D01*
X106219470Y-169406092D01*
X107098326Y-170222068D01*
X112320395Y-165000000D01*
X112679605Y-165000000D01*
X117901674Y-170222068D01*
X118780530Y-169406092D01*
X119519437Y-168096160D01*
X119988591Y-166667244D01*
X120169963Y-165174257D01*
X120056583Y-163674572D01*
X119652807Y-162225824D01*
X118974153Y-160883686D01*
X118780530Y-160593908D01*
X117901674Y-159777932D01*
X112679605Y-165000000D01*
X112320395Y-165000000D01*
X107098326Y-159777932D01*
X106219470Y-160593908D01*
X105480563Y-161903840D01*
X105011409Y-163332756D01*
X104830037Y-164825743D01*
X100660000Y-164825743D01*
X100660000Y-159598326D01*
X107277932Y-159598326D01*
X112500000Y-164820395D01*
X117722068Y-159598326D01*
X116906092Y-158719470D01*
X115596160Y-157980563D01*
X114167244Y-157511409D01*
X112674257Y-157330037D01*
X111174572Y-157443417D01*
X109725824Y-157847193D01*
X108383686Y-158525847D01*
X108093908Y-158719470D01*
X107277932Y-159598326D01*
X100660000Y-159598326D01*
X100660000Y-152401674D01*
X107277932Y-152401674D01*
X108093908Y-153280530D01*
X109403840Y-154019437D01*
X110832756Y-154488591D01*
X112325743Y-154669963D01*
X113825428Y-154556583D01*
X115274176Y-154152807D01*
X116616314Y-153474153D01*
X116906092Y-153280530D01*
X117722068Y-152401674D01*
X112500000Y-147179605D01*
X107277932Y-152401674D01*
X100660000Y-152401674D01*
X100660000Y-146825743D01*
X104830037Y-146825743D01*
X104943417Y-148325428D01*
X105347193Y-149774176D01*
X106025847Y-151116314D01*
X106219470Y-151406092D01*
X107098326Y-152222068D01*
X112320395Y-147000000D01*
X112679605Y-147000000D01*
X117901674Y-152222068D01*
X118780530Y-151406092D01*
X119519437Y-150096160D01*
X119988591Y-148667244D01*
X120169963Y-147174257D01*
X120056583Y-145674572D01*
X119652807Y-144225824D01*
X118974153Y-142883686D01*
X118780530Y-142593908D01*
X117901674Y-141777932D01*
X112679605Y-147000000D01*
X112320395Y-147000000D01*
X107098326Y-141777932D01*
X106219470Y-142593908D01*
X105480563Y-143903840D01*
X105011409Y-145332756D01*
X104830037Y-146825743D01*
X100660000Y-146825743D01*
X100660000Y-141598326D01*
X107277932Y-141598326D01*
X112500000Y-146820395D01*
X117722068Y-141598326D01*
X116906092Y-140719470D01*
X115596160Y-139980563D01*
X114167244Y-139511409D01*
X112674257Y-139330037D01*
X111174572Y-139443417D01*
X109725824Y-139847193D01*
X108383686Y-140525847D01*
X108093908Y-140719470D01*
X107277932Y-141598326D01*
X100660000Y-141598326D01*
X100660000Y-88624971D01*
X109054634Y-88624971D01*
X109570783Y-89247788D01*
X110455768Y-89737630D01*
X111419314Y-90045407D01*
X112424389Y-90159293D01*
X113432370Y-90074910D01*
X114404520Y-89795501D01*
X115303481Y-89331803D01*
X115429217Y-89247788D01*
X115945366Y-88624971D01*
X112500000Y-85179605D01*
X109054634Y-88624971D01*
X100660000Y-88624971D01*
X100660000Y-84924389D01*
X107340707Y-84924389D01*
X107425090Y-85932370D01*
X107704499Y-86904520D01*
X108168197Y-87803481D01*
X108252212Y-87929217D01*
X108875029Y-88445366D01*
X112320395Y-85000000D01*
X112679605Y-85000000D01*
X116124971Y-88445366D01*
X116747788Y-87929217D01*
X117237630Y-87044232D01*
X117545407Y-86080686D01*
X117659293Y-85075611D01*
X117574910Y-84067630D01*
X117295501Y-83095480D01*
X116831803Y-82196519D01*
X116747788Y-82070783D01*
X116124971Y-81554634D01*
X112679605Y-85000000D01*
X112320395Y-85000000D01*
X108875029Y-81554634D01*
X108252212Y-82070783D01*
X107762370Y-82955768D01*
X107454593Y-83919314D01*
X107340707Y-84924389D01*
X100660000Y-84924389D01*
X100660000Y-81375029D01*
X109054634Y-81375029D01*
X112500000Y-84820395D01*
X115945366Y-81375029D01*
X115429217Y-80752212D01*
X114544232Y-80262370D01*
X113580686Y-79954593D01*
X112575611Y-79840707D01*
X111567630Y-79925090D01*
X110595480Y-80204499D01*
X109696519Y-80668197D01*
X109570783Y-80752212D01*
X109054634Y-81375029D01*
X100660000Y-81375029D01*
X100660000Y-63124971D01*
X109054634Y-63124971D01*
X109570783Y-63747788D01*
X110455768Y-64237630D01*
X111419314Y-64545407D01*
X112424389Y-64659293D01*
X113432370Y-64574910D01*
X114404520Y-64295501D01*
X115303481Y-63831803D01*
X115429217Y-63747788D01*
X115945366Y-63124971D01*
X112500000Y-59679605D01*
X109054634Y-63124971D01*
X100660000Y-63124971D01*
X100660000Y-59424389D01*
X107340707Y-59424389D01*
X107425090Y-60432370D01*
X107704499Y-61404520D01*
X108168197Y-62303481D01*
X108252212Y-62429217D01*
X108875029Y-62945366D01*
X112320395Y-59500000D01*
X112679605Y-59500000D01*
X116124971Y-62945366D01*
X116747788Y-62429217D01*
X117237630Y-61544232D01*
X117545407Y-60580686D01*
X117659293Y-59575611D01*
X117574910Y-58567630D01*
X117295501Y-57595480D01*
X116831803Y-56696519D01*
X116747788Y-56570783D01*
X116124971Y-56054634D01*
X112679605Y-59500000D01*
X112320395Y-59500000D01*
X108875029Y-56054634D01*
X108252212Y-56570783D01*
X107762370Y-57455768D01*
X107454593Y-58419314D01*
X107340707Y-59424389D01*
X100660000Y-59424389D01*
X100660000Y-55875029D01*
X109054634Y-55875029D01*
X112500000Y-59320395D01*
X115945366Y-55875029D01*
X115429217Y-55252212D01*
X114544232Y-54762370D01*
X113580686Y-54454593D01*
X112575611Y-54340707D01*
X111567630Y-54425090D01*
X110595480Y-54704499D01*
X109696519Y-55168197D01*
X109570783Y-55252212D01*
X109054634Y-55875029D01*
X100660000Y-55875029D01*
X100660000Y-24847499D01*
X101132106Y-24847499D01*
X101348228Y-25214258D01*
X101808105Y-25454938D01*
X102306098Y-25601275D01*
X102823071Y-25647648D01*
X103339159Y-25592273D01*
X103834526Y-25437279D01*
X104251772Y-25214258D01*
X104467894Y-24847499D01*
X120532106Y-24847499D01*
X120748228Y-25214258D01*
X121208105Y-25454938D01*
X121706098Y-25601275D01*
X122223071Y-25647648D01*
X122739159Y-25592273D01*
X123234526Y-25437279D01*
X123651772Y-25214258D01*
X123867894Y-24847499D01*
X122200000Y-23179605D01*
X120532106Y-24847499D01*
X104467894Y-24847499D01*
X102800000Y-23179605D01*
X101132106Y-24847499D01*
X100660000Y-24847499D01*
X100660000Y-24495530D01*
X100952501Y-24667894D01*
X102620395Y-23000000D01*
X102979605Y-23000000D01*
X104647499Y-24667894D01*
X105014258Y-24451772D01*
X105254938Y-23991895D01*
X105401275Y-23493902D01*
X105443509Y-23023071D01*
X119552352Y-23023071D01*
X119607727Y-23539159D01*
X119762721Y-24034526D01*
X119985742Y-24451772D01*
X120352501Y-24667894D01*
X122020395Y-23000000D01*
X120352501Y-21332106D01*
X119985742Y-21548228D01*
X119745062Y-22008105D01*
X119598725Y-22506098D01*
X119552352Y-23023071D01*
X105443509Y-23023071D01*
X105447648Y-22976929D01*
X105392273Y-22460841D01*
X105237279Y-21965474D01*
X105014258Y-21548228D01*
X104647499Y-21332106D01*
X102979605Y-23000000D01*
X102620395Y-23000000D01*
X100952501Y-21332106D01*
X100660000Y-21504470D01*
X100660000Y-20660000D01*
X101583476Y-20660000D01*
X101348228Y-20785742D01*
G37*
%TD.AperFunction*%
%TD*%
M02*
