%TF.GenerationSoftware,KiCad,Pcbnew,(5.1.12-1-10_14)*%
%TF.CreationDate,2021-12-12T17:34:39+01:00*%
%TF.ProjectId,kross,6b726f73-732e-46b6-9963-61645f706362,rev?*%
%TF.SameCoordinates,Original*%
%TF.FileFunction,Legend,Bot*%
%TF.FilePolarity,Positive*%
%FSLAX46Y46*%
G04 Gerber Fmt 4.6, Leading zero omitted, Abs format (unit mm)*
G04 Created by KiCad (PCBNEW (5.1.12-1-10_14)) date 2021-12-12 17:34:39*
%MOMM*%
%LPD*%
G01*
G04 APERTURE LIST*
%ADD10C,0.010000*%
%ADD11C,14.000000*%
%ADD12C,9.000000*%
%ADD13C,4.000000*%
G04 APERTURE END LIST*
D10*
%TO.C,G\u002A\u002A\u002A*%
G36*
X102734718Y-137870827D02*
G01*
X101700699Y-137924475D01*
X101700699Y-142009790D01*
X102277972Y-142065450D01*
X102855244Y-142121109D01*
X102855244Y-140523608D01*
X102860435Y-139764812D01*
X102887397Y-139290505D01*
X102953217Y-139029962D01*
X103074982Y-138912458D01*
X103254895Y-138869347D01*
X103583075Y-138702471D01*
X103711641Y-138314883D01*
X103768736Y-137817179D01*
X102734718Y-137870827D01*
G37*
X102734718Y-137870827D02*
X101700699Y-137924475D01*
X101700699Y-142009790D01*
X102277972Y-142065450D01*
X102855244Y-142121109D01*
X102855244Y-140523608D01*
X102860435Y-139764812D01*
X102887397Y-139290505D01*
X102953217Y-139029962D01*
X103074982Y-138912458D01*
X103254895Y-138869347D01*
X103583075Y-138702471D01*
X103711641Y-138314883D01*
X103768736Y-137817179D01*
X102734718Y-137870827D01*
G36*
X111409089Y-36413899D02*
G01*
X111256643Y-36555944D01*
X111125065Y-36840236D01*
X111256643Y-37088811D01*
X111547568Y-37313944D01*
X111700699Y-37355245D01*
X111992310Y-37230856D01*
X112144755Y-37088811D01*
X112276334Y-36804519D01*
X112144755Y-36555944D01*
X111853831Y-36330811D01*
X111700699Y-36289510D01*
X111409089Y-36413899D01*
G37*
X111409089Y-36413899D02*
X111256643Y-36555944D01*
X111125065Y-36840236D01*
X111256643Y-37088811D01*
X111547568Y-37313944D01*
X111700699Y-37355245D01*
X111992310Y-37230856D01*
X112144755Y-37088811D01*
X112276334Y-36804519D01*
X112144755Y-36555944D01*
X111853831Y-36330811D01*
X111700699Y-36289510D01*
X111409089Y-36413899D01*
G36*
X115990721Y-34738691D02*
G01*
X115322674Y-34896371D01*
X114890851Y-35185451D01*
X114647805Y-35608508D01*
X114554421Y-36246327D01*
X114779006Y-36821271D01*
X114940265Y-37030964D01*
X115068822Y-37243494D01*
X115050019Y-37494852D01*
X114863011Y-37889505D01*
X114718767Y-38141104D01*
X114242468Y-38953846D01*
X114880698Y-38953846D01*
X115274165Y-38919149D01*
X115562828Y-38764113D01*
X115852481Y-38412319D01*
X116048747Y-38110140D01*
X116395604Y-37528374D01*
X116544733Y-37161269D01*
X116504197Y-36933921D01*
X116282057Y-36771425D01*
X116197155Y-36731280D01*
X115813848Y-36445490D01*
X115758993Y-36127354D01*
X116018099Y-35837196D01*
X116453877Y-35662659D01*
X116940560Y-35540510D01*
X116940560Y-38953846D01*
X118183916Y-38953846D01*
X118183916Y-34690909D01*
X116948917Y-34690909D01*
X115990721Y-34738691D01*
G37*
X115990721Y-34738691D02*
X115322674Y-34896371D01*
X114890851Y-35185451D01*
X114647805Y-35608508D01*
X114554421Y-36246327D01*
X114779006Y-36821271D01*
X114940265Y-37030964D01*
X115068822Y-37243494D01*
X115050019Y-37494852D01*
X114863011Y-37889505D01*
X114718767Y-38141104D01*
X114242468Y-38953846D01*
X114880698Y-38953846D01*
X115274165Y-38919149D01*
X115562828Y-38764113D01*
X115852481Y-38412319D01*
X116048747Y-38110140D01*
X116395604Y-37528374D01*
X116544733Y-37161269D01*
X116504197Y-36933921D01*
X116282057Y-36771425D01*
X116197155Y-36731280D01*
X115813848Y-36445490D01*
X115758993Y-36127354D01*
X116018099Y-35837196D01*
X116453877Y-35662659D01*
X116940560Y-35540510D01*
X116940560Y-38953846D01*
X118183916Y-38953846D01*
X118183916Y-34690909D01*
X116948917Y-34690909D01*
X115990721Y-34738691D01*
G36*
X119036702Y-34695436D02*
G01*
X118853860Y-34747136D01*
X118850257Y-34903186D01*
X119033035Y-35220766D01*
X119409334Y-35757054D01*
X119549226Y-35952622D01*
X120133657Y-36770279D01*
X119425220Y-37759600D01*
X119070254Y-38269187D01*
X118816079Y-38660566D01*
X118716817Y-38850331D01*
X118716783Y-38851383D01*
X118873795Y-38915680D01*
X119263082Y-38946621D01*
X119382867Y-38947074D01*
X119762784Y-38915391D01*
X120051147Y-38783990D01*
X120340252Y-38484420D01*
X120715035Y-37959074D01*
X121054246Y-37435618D01*
X121294153Y-37020053D01*
X121381119Y-36808568D01*
X121289078Y-36583180D01*
X121048543Y-36159856D01*
X120734293Y-35665100D01*
X120366548Y-35137162D01*
X120087960Y-34844593D01*
X119803914Y-34718741D01*
X119419795Y-34690957D01*
X119391642Y-34690909D01*
X119036702Y-34695436D01*
G37*
X119036702Y-34695436D02*
X118853860Y-34747136D01*
X118850257Y-34903186D01*
X119033035Y-35220766D01*
X119409334Y-35757054D01*
X119549226Y-35952622D01*
X120133657Y-36770279D01*
X119425220Y-37759600D01*
X119070254Y-38269187D01*
X118816079Y-38660566D01*
X118716817Y-38850331D01*
X118716783Y-38851383D01*
X118873795Y-38915680D01*
X119263082Y-38946621D01*
X119382867Y-38947074D01*
X119762784Y-38915391D01*
X120051147Y-38783990D01*
X120340252Y-38484420D01*
X120715035Y-37959074D01*
X121054246Y-37435618D01*
X121294153Y-37020053D01*
X121381119Y-36808568D01*
X121289078Y-36583180D01*
X121048543Y-36159856D01*
X120734293Y-35665100D01*
X120366548Y-35137162D01*
X120087960Y-34844593D01*
X119803914Y-34718741D01*
X119419795Y-34690957D01*
X119391642Y-34690909D01*
X119036702Y-34695436D01*
G36*
X121558741Y-38953846D02*
G01*
X122802098Y-38953846D01*
X122802098Y-34690909D01*
X121558741Y-34690909D01*
X121558741Y-38953846D01*
G37*
X121558741Y-38953846D02*
X122802098Y-38953846D01*
X122802098Y-34690909D01*
X121558741Y-34690909D01*
X121558741Y-38953846D01*
G36*
X102525866Y-34729400D02*
G01*
X102146431Y-34916543D01*
X101831130Y-35164494D01*
X101784780Y-35383018D01*
X101887810Y-35590251D01*
X102184706Y-35851883D01*
X102464336Y-35834472D01*
X103031754Y-35711554D01*
X103491790Y-35719585D01*
X103736413Y-35855308D01*
X103743957Y-35873049D01*
X103638653Y-36049500D01*
X103289324Y-36240799D01*
X103139618Y-36294578D01*
X102583467Y-36534012D01*
X102110720Y-36835485D01*
X102064685Y-36875218D01*
X101730779Y-37352973D01*
X101695735Y-37844433D01*
X101907844Y-38305892D01*
X102315392Y-38693644D01*
X102866669Y-38963984D01*
X103509963Y-39073205D01*
X104193563Y-38977602D01*
X104441264Y-38883864D01*
X104936369Y-38612441D01*
X105119218Y-38355147D01*
X105025069Y-38052395D01*
X104975715Y-37980617D01*
X104780899Y-37786358D01*
X104524752Y-37767188D01*
X104115670Y-37893229D01*
X103561404Y-38019651D01*
X103131692Y-37983168D01*
X102917581Y-37796063D01*
X102908392Y-37730339D01*
X103062320Y-37584537D01*
X103457433Y-37392005D01*
X103798194Y-37265872D01*
X104522213Y-36907144D01*
X104948441Y-36436699D01*
X105061473Y-35898456D01*
X104845906Y-35336334D01*
X104581494Y-35032710D01*
X103993628Y-34701533D01*
X103263314Y-34598278D01*
X102525866Y-34729400D01*
G37*
X102525866Y-34729400D02*
X102146431Y-34916543D01*
X101831130Y-35164494D01*
X101784780Y-35383018D01*
X101887810Y-35590251D01*
X102184706Y-35851883D01*
X102464336Y-35834472D01*
X103031754Y-35711554D01*
X103491790Y-35719585D01*
X103736413Y-35855308D01*
X103743957Y-35873049D01*
X103638653Y-36049500D01*
X103289324Y-36240799D01*
X103139618Y-36294578D01*
X102583467Y-36534012D01*
X102110720Y-36835485D01*
X102064685Y-36875218D01*
X101730779Y-37352973D01*
X101695735Y-37844433D01*
X101907844Y-38305892D01*
X102315392Y-38693644D01*
X102866669Y-38963984D01*
X103509963Y-39073205D01*
X104193563Y-38977602D01*
X104441264Y-38883864D01*
X104936369Y-38612441D01*
X105119218Y-38355147D01*
X105025069Y-38052395D01*
X104975715Y-37980617D01*
X104780899Y-37786358D01*
X104524752Y-37767188D01*
X104115670Y-37893229D01*
X103561404Y-38019651D01*
X103131692Y-37983168D01*
X102917581Y-37796063D01*
X102908392Y-37730339D01*
X103062320Y-37584537D01*
X103457433Y-37392005D01*
X103798194Y-37265872D01*
X104522213Y-36907144D01*
X104948441Y-36436699D01*
X105061473Y-35898456D01*
X104845906Y-35336334D01*
X104581494Y-35032710D01*
X103993628Y-34701533D01*
X103263314Y-34598278D01*
X102525866Y-34729400D01*
G36*
X106230359Y-34753251D02*
G01*
X105734448Y-35049142D01*
X105587134Y-35372372D01*
X105791480Y-35715092D01*
X105839000Y-35756510D01*
X106113407Y-35886356D01*
X106484673Y-35816705D01*
X106635111Y-35758031D01*
X107109695Y-35629135D01*
X107465377Y-35648636D01*
X107623462Y-35794799D01*
X107539292Y-36007752D01*
X107217917Y-36235167D01*
X106853204Y-36372924D01*
X106106752Y-36660774D01*
X105684038Y-37081744D01*
X105572727Y-37548639D01*
X105681790Y-38243985D01*
X106033672Y-38706136D01*
X106483595Y-38935163D01*
X107016817Y-39082761D01*
X107492582Y-39091926D01*
X108089533Y-38962182D01*
X108201012Y-38930583D01*
X108706895Y-38688502D01*
X108908622Y-38366436D01*
X108782876Y-38008265D01*
X108724918Y-37944598D01*
X108491804Y-37781472D01*
X108195088Y-37784993D01*
X107812633Y-37905200D01*
X107314542Y-38037534D01*
X107022636Y-37980118D01*
X106973774Y-37939229D01*
X106855642Y-37662951D01*
X107071621Y-37434920D01*
X107489463Y-37300499D01*
X108195147Y-37027635D01*
X108650157Y-36566575D01*
X108809357Y-35964033D01*
X108808860Y-35934960D01*
X108638053Y-35297711D01*
X108210553Y-34838768D01*
X107592651Y-34588511D01*
X106850633Y-34577321D01*
X106230359Y-34753251D01*
G37*
X106230359Y-34753251D02*
X105734448Y-35049142D01*
X105587134Y-35372372D01*
X105791480Y-35715092D01*
X105839000Y-35756510D01*
X106113407Y-35886356D01*
X106484673Y-35816705D01*
X106635111Y-35758031D01*
X107109695Y-35629135D01*
X107465377Y-35648636D01*
X107623462Y-35794799D01*
X107539292Y-36007752D01*
X107217917Y-36235167D01*
X106853204Y-36372924D01*
X106106752Y-36660774D01*
X105684038Y-37081744D01*
X105572727Y-37548639D01*
X105681790Y-38243985D01*
X106033672Y-38706136D01*
X106483595Y-38935163D01*
X107016817Y-39082761D01*
X107492582Y-39091926D01*
X108089533Y-38962182D01*
X108201012Y-38930583D01*
X108706895Y-38688502D01*
X108908622Y-38366436D01*
X108782876Y-38008265D01*
X108724918Y-37944598D01*
X108491804Y-37781472D01*
X108195088Y-37784993D01*
X107812633Y-37905200D01*
X107314542Y-38037534D01*
X107022636Y-37980118D01*
X106973774Y-37939229D01*
X106855642Y-37662951D01*
X107071621Y-37434920D01*
X107489463Y-37300499D01*
X108195147Y-37027635D01*
X108650157Y-36566575D01*
X108809357Y-35964033D01*
X108808860Y-35934960D01*
X108638053Y-35297711D01*
X108210553Y-34838768D01*
X107592651Y-34588511D01*
X106850633Y-34577321D01*
X106230359Y-34753251D01*
G36*
X110661982Y-34797975D02*
G01*
X109987764Y-35281069D01*
X109519509Y-35988049D01*
X109358671Y-36546882D01*
X109391442Y-37338064D01*
X109715463Y-38036136D01*
X110269452Y-38591826D01*
X110992131Y-38955860D01*
X111822219Y-39078963D01*
X112411189Y-39001313D01*
X113111045Y-38664877D01*
X113674632Y-38096566D01*
X113925786Y-37607112D01*
X114039508Y-36822378D01*
X112855245Y-36822378D01*
X112715960Y-37278386D01*
X112375090Y-37715616D01*
X111948107Y-38009710D01*
X111700699Y-38065734D01*
X111419635Y-37963317D01*
X111036610Y-37715061D01*
X111014164Y-37697598D01*
X110629136Y-37216314D01*
X110554626Y-36686390D01*
X110769854Y-36187403D01*
X111254038Y-35798927D01*
X111539573Y-35685730D01*
X111998191Y-35711021D01*
X112441009Y-35986681D01*
X112760560Y-36419865D01*
X112855245Y-36822378D01*
X114039508Y-36822378D01*
X114054594Y-36718282D01*
X113859100Y-35912393D01*
X113369189Y-35244964D01*
X112614745Y-34771512D01*
X112349113Y-34677934D01*
X111472365Y-34582389D01*
X110661982Y-34797975D01*
G37*
X110661982Y-34797975D02*
X109987764Y-35281069D01*
X109519509Y-35988049D01*
X109358671Y-36546882D01*
X109391442Y-37338064D01*
X109715463Y-38036136D01*
X110269452Y-38591826D01*
X110992131Y-38955860D01*
X111822219Y-39078963D01*
X112411189Y-39001313D01*
X113111045Y-38664877D01*
X113674632Y-38096566D01*
X113925786Y-37607112D01*
X114039508Y-36822378D01*
X112855245Y-36822378D01*
X112715960Y-37278386D01*
X112375090Y-37715616D01*
X111948107Y-38009710D01*
X111700699Y-38065734D01*
X111419635Y-37963317D01*
X111036610Y-37715061D01*
X111014164Y-37697598D01*
X110629136Y-37216314D01*
X110554626Y-36686390D01*
X110769854Y-36187403D01*
X111254038Y-35798927D01*
X111539573Y-35685730D01*
X111998191Y-35711021D01*
X112441009Y-35986681D01*
X112760560Y-36419865D01*
X112855245Y-36822378D01*
X114039508Y-36822378D01*
X114054594Y-36718282D01*
X113859100Y-35912393D01*
X113369189Y-35244964D01*
X112614745Y-34771512D01*
X112349113Y-34677934D01*
X111472365Y-34582389D01*
X110661982Y-34797975D01*
G36*
X101953558Y-156400029D02*
G01*
X101379171Y-156786538D01*
X101159715Y-157094718D01*
X100984792Y-157651107D01*
X101081663Y-158196906D01*
X101468802Y-158814504D01*
X101574426Y-158944055D01*
X102021221Y-159476923D01*
X101416904Y-159565734D01*
X100988421Y-159680348D01*
X100799860Y-159918511D01*
X100756384Y-160143007D01*
X100700180Y-160631468D01*
X104507921Y-160631468D01*
X103533880Y-159610139D01*
X102872923Y-158890753D01*
X102454891Y-158359921D01*
X102255571Y-157972027D01*
X102250751Y-157681455D01*
X102394488Y-157463654D01*
X102650666Y-157286152D01*
X102968250Y-157300567D01*
X103249961Y-157394794D01*
X103683039Y-157517875D01*
X103953887Y-157457906D01*
X104072912Y-157358456D01*
X104246295Y-157012098D01*
X104080271Y-156687001D01*
X103590648Y-156409062D01*
X103466583Y-156365118D01*
X102680907Y-156249579D01*
X101953558Y-156400029D01*
G37*
X101953558Y-156400029D02*
X101379171Y-156786538D01*
X101159715Y-157094718D01*
X100984792Y-157651107D01*
X101081663Y-158196906D01*
X101468802Y-158814504D01*
X101574426Y-158944055D01*
X102021221Y-159476923D01*
X101416904Y-159565734D01*
X100988421Y-159680348D01*
X100799860Y-159918511D01*
X100756384Y-160143007D01*
X100700180Y-160631468D01*
X104507921Y-160631468D01*
X103533880Y-159610139D01*
X102872923Y-158890753D01*
X102454891Y-158359921D01*
X102255571Y-157972027D01*
X102250751Y-157681455D01*
X102394488Y-157463654D01*
X102650666Y-157286152D01*
X102968250Y-157300567D01*
X103249961Y-157394794D01*
X103683039Y-157517875D01*
X103953887Y-157457906D01*
X104072912Y-157358456D01*
X104246295Y-157012098D01*
X104080271Y-156687001D01*
X103590648Y-156409062D01*
X103466583Y-156365118D01*
X102680907Y-156249579D01*
X101953558Y-156400029D01*
G36*
X102607841Y-194501951D02*
G01*
X102930408Y-194634389D01*
X103285496Y-194517023D01*
X103288947Y-194514183D01*
X103517331Y-194154232D01*
X103398865Y-193778057D01*
X103266434Y-193644755D01*
X102935460Y-193549355D01*
X102633153Y-193723449D01*
X102472374Y-194091406D01*
X102467133Y-194180368D01*
X102607841Y-194501951D01*
G37*
X102607841Y-194501951D02*
X102930408Y-194634389D01*
X103285496Y-194517023D01*
X103288947Y-194514183D01*
X103517331Y-194154232D01*
X103398865Y-193778057D01*
X103266434Y-193644755D01*
X102935460Y-193549355D01*
X102633153Y-193723449D01*
X102472374Y-194091406D01*
X102467133Y-194180368D01*
X102607841Y-194501951D01*
G36*
X100975669Y-194991543D02*
G01*
X101071051Y-195197572D01*
X101398085Y-195754774D01*
X101759335Y-196087692D01*
X102228318Y-196297830D01*
X103090484Y-196438447D01*
X103864818Y-196278852D01*
X104507247Y-195871373D01*
X104973697Y-195268340D01*
X105220093Y-194522080D01*
X105202362Y-193684921D01*
X104986517Y-193023077D01*
X104494157Y-192333408D01*
X103832622Y-191909676D01*
X103077911Y-191760746D01*
X103014638Y-191771790D01*
X103014638Y-192934266D01*
X103460203Y-193074133D01*
X103892294Y-193415365D01*
X104185806Y-193840412D01*
X104243357Y-194088811D01*
X104140939Y-194369875D01*
X103892684Y-194752901D01*
X103875220Y-194775347D01*
X103415986Y-195131129D01*
X102862379Y-195251919D01*
X102360507Y-195107420D01*
X101985907Y-194679420D01*
X101874041Y-194150592D01*
X101995026Y-193620211D01*
X102318982Y-193187551D01*
X102816026Y-192951886D01*
X103014638Y-192934266D01*
X103014638Y-191771790D01*
X102306025Y-191895481D01*
X101592965Y-192322744D01*
X101325468Y-192596106D01*
X100868422Y-193347308D01*
X100753143Y-194132281D01*
X100975669Y-194991543D01*
G37*
X100975669Y-194991543D02*
X101071051Y-195197572D01*
X101398085Y-195754774D01*
X101759335Y-196087692D01*
X102228318Y-196297830D01*
X103090484Y-196438447D01*
X103864818Y-196278852D01*
X104507247Y-195871373D01*
X104973697Y-195268340D01*
X105220093Y-194522080D01*
X105202362Y-193684921D01*
X104986517Y-193023077D01*
X104494157Y-192333408D01*
X103832622Y-191909676D01*
X103077911Y-191760746D01*
X103014638Y-191771790D01*
X103014638Y-192934266D01*
X103460203Y-193074133D01*
X103892294Y-193415365D01*
X104185806Y-193840412D01*
X104243357Y-194088811D01*
X104140939Y-194369875D01*
X103892684Y-194752901D01*
X103875220Y-194775347D01*
X103415986Y-195131129D01*
X102862379Y-195251919D01*
X102360507Y-195107420D01*
X101985907Y-194679420D01*
X101874041Y-194150592D01*
X101995026Y-193620211D01*
X102318982Y-193187551D01*
X102816026Y-192951886D01*
X103014638Y-192934266D01*
X103014638Y-191771790D01*
X102306025Y-191895481D01*
X101592965Y-192322744D01*
X101325468Y-192596106D01*
X100868422Y-193347308D01*
X100753143Y-194132281D01*
X100975669Y-194991543D01*
G36*
X101239331Y-175375904D02*
G01*
X101945744Y-176416144D01*
X101540916Y-177018911D01*
X101186317Y-177551818D01*
X100854073Y-178058563D01*
X100820693Y-178110140D01*
X100505297Y-178598601D01*
X101221728Y-178598601D01*
X101716077Y-178557146D01*
X102034892Y-178371406D01*
X102328823Y-177966495D01*
X102719486Y-177334388D01*
X103149014Y-177966495D01*
X103493665Y-178388276D01*
X103847155Y-178568892D01*
X104193816Y-178598601D01*
X104602422Y-178575354D01*
X104804462Y-178518275D01*
X104809091Y-178507058D01*
X104718134Y-178323401D01*
X104480193Y-177932057D01*
X104162265Y-177441323D01*
X103515439Y-176467133D01*
X104162265Y-175492942D01*
X104491988Y-174983470D01*
X104725008Y-174598842D01*
X104809091Y-174427208D01*
X104651910Y-174368543D01*
X104261803Y-174337260D01*
X104136898Y-174335664D01*
X103639339Y-174390344D01*
X103322978Y-174613772D01*
X103149933Y-174868531D01*
X102870791Y-175275448D01*
X102652426Y-175356681D01*
X102413740Y-175112230D01*
X102261821Y-174868531D01*
X101987587Y-174509155D01*
X101640460Y-174359671D01*
X101239983Y-174335664D01*
X100532917Y-174335664D01*
X101239331Y-175375904D01*
G37*
X101239331Y-175375904D02*
X101945744Y-176416144D01*
X101540916Y-177018911D01*
X101186317Y-177551818D01*
X100854073Y-178058563D01*
X100820693Y-178110140D01*
X100505297Y-178598601D01*
X101221728Y-178598601D01*
X101716077Y-178557146D01*
X102034892Y-178371406D01*
X102328823Y-177966495D01*
X102719486Y-177334388D01*
X103149014Y-177966495D01*
X103493665Y-178388276D01*
X103847155Y-178568892D01*
X104193816Y-178598601D01*
X104602422Y-178575354D01*
X104804462Y-178518275D01*
X104809091Y-178507058D01*
X104718134Y-178323401D01*
X104480193Y-177932057D01*
X104162265Y-177441323D01*
X103515439Y-176467133D01*
X104162265Y-175492942D01*
X104491988Y-174983470D01*
X104725008Y-174598842D01*
X104809091Y-174427208D01*
X104651910Y-174368543D01*
X104261803Y-174337260D01*
X104136898Y-174335664D01*
X103639339Y-174390344D01*
X103322978Y-174613772D01*
X103149933Y-174868531D01*
X102870791Y-175275448D01*
X102652426Y-175356681D01*
X102413740Y-175112230D01*
X102261821Y-174868531D01*
X101987587Y-174509155D01*
X101640460Y-174359671D01*
X101239983Y-174335664D01*
X100532917Y-174335664D01*
X101239331Y-175375904D01*
G36*
X113032867Y-120341958D02*
G01*
X116230070Y-120341958D01*
X116230070Y-118743357D01*
X113032867Y-118743357D01*
X113032867Y-112171329D01*
X111256643Y-112171329D01*
X111256643Y-118743357D01*
X108039014Y-118743357D01*
X108093633Y-119498252D01*
X108148251Y-120253147D01*
X109695631Y-120304369D01*
X111243011Y-120355590D01*
X111294233Y-121902970D01*
X111345454Y-123450350D01*
X112189161Y-123504488D01*
X113032867Y-123558625D01*
X113032867Y-120341958D01*
G37*
X113032867Y-120341958D02*
X116230070Y-120341958D01*
X116230070Y-118743357D01*
X113032867Y-118743357D01*
X113032867Y-112171329D01*
X111256643Y-112171329D01*
X111256643Y-118743357D01*
X108039014Y-118743357D01*
X108093633Y-119498252D01*
X108148251Y-120253147D01*
X109695631Y-120304369D01*
X111243011Y-120355590D01*
X111294233Y-121902970D01*
X111345454Y-123450350D01*
X112189161Y-123504488D01*
X113032867Y-123558625D01*
X113032867Y-120341958D01*
%TD*%
%LPC*%
D11*
%TO.C,REF\u002A\u002A*%
X112500000Y-165000000D03*
%TD*%
%TO.C,REF\u002A\u002A*%
X112400000Y-183000000D03*
%TD*%
%TO.C,REF\u002A\u002A*%
X112400000Y-200500000D03*
%TD*%
%TO.C,REF\u002A\u002A*%
X112500000Y-147000000D03*
%TD*%
D12*
%TO.C,REF\u002A\u002A*%
X112500000Y-85000000D03*
%TD*%
%TO.C,REF\u002A\u002A*%
X112500000Y-59500000D03*
%TD*%
D13*
%TO.C,REF\u002A\u002A*%
X122200000Y-23000000D03*
X122200000Y-217000000D03*
%TD*%
%TO.C,REF\u002A\u002A*%
X102800000Y-217000000D03*
X102800000Y-23000000D03*
%TD*%
M02*
