%FSLAX45Y45*%
G04 Gerber Fmt 4.5, Leading zero omitted, Abs format (unit mm)*
G04 Created by KiCad (PCBNEW (5.1.8-0-10_14)) date 2021-07-18 16:16:16*
%MOMM*%
%LPD*%
G01*
G04 APERTURE LIST*
%TA.AperFunction,Profile*%
%ADD10C,0.050000*%
%TD*%
%ADD11C,0.200000*%
%ADD12C,0.300000*%
G04 APERTURE END LIST*
D10*
X10000000Y-14900000D02*
X10000000Y-5000000D01*
X14900000Y-14900000D02*
X10000000Y-14900000D01*
X14900000Y-5000000D02*
X14900000Y-14900000D01*
X10000000Y-5000000D02*
X14900000Y-5000000D01*
D11*
X11910000Y-12560000D02*
X11990000Y-12640000D01*
X11990000Y-12560000D02*
X11910000Y-12640000D01*
X12672000Y-12560000D02*
X12752000Y-12640000D01*
X12752000Y-12560000D02*
X12672000Y-12640000D01*
X13260000Y-10010000D02*
X13340000Y-10090000D01*
X13340000Y-10010000D02*
X13260000Y-10090000D01*
X13460000Y-10010000D02*
X13540000Y-10090000D01*
X13540000Y-10010000D02*
X13460000Y-10090000D01*
X13210000Y-12560000D02*
X13290000Y-12640000D01*
X13290000Y-12560000D02*
X13210000Y-12640000D01*
X13972000Y-12560000D02*
X14052000Y-12640000D01*
X14052000Y-12560000D02*
X13972000Y-12640000D01*
X11910000Y-7260000D02*
X11990000Y-7340000D01*
X11990000Y-7260000D02*
X11910000Y-7340000D01*
X12672000Y-7260000D02*
X12752000Y-7340000D01*
X12752000Y-7260000D02*
X12672000Y-7340000D01*
X14060000Y-7810000D02*
X14140000Y-7890000D01*
X14140000Y-7810000D02*
X14060000Y-7890000D01*
X14310000Y-7810000D02*
X14390000Y-7890000D01*
X14390000Y-7810000D02*
X14310000Y-7890000D01*
X10510000Y-7760000D02*
X10590000Y-7840000D01*
X10590000Y-7760000D02*
X10510000Y-7840000D01*
X11272000Y-7760000D02*
X11352000Y-7840000D01*
X11352000Y-7760000D02*
X11272000Y-7840000D01*
X13110000Y-11660000D02*
X13190000Y-11740000D01*
X13190000Y-11660000D02*
X13110000Y-11740000D01*
X13610000Y-11660000D02*
X13690000Y-11740000D01*
X13690000Y-11660000D02*
X13610000Y-11740000D01*
X13860000Y-8410000D02*
X13940000Y-8490000D01*
X13940000Y-8410000D02*
X13860000Y-8490000D01*
X14622000Y-8410000D02*
X14702000Y-8490000D01*
X14702000Y-8410000D02*
X14622000Y-8490000D01*
X11910000Y-7760000D02*
X11990000Y-7840000D01*
X11990000Y-7760000D02*
X11910000Y-7840000D01*
X12672000Y-7760000D02*
X12752000Y-7840000D01*
X12752000Y-7760000D02*
X12672000Y-7840000D01*
X11910000Y-8310000D02*
X11990000Y-8390000D01*
X11990000Y-8310000D02*
X11910000Y-8390000D01*
X12672000Y-8310000D02*
X12752000Y-8390000D01*
X12752000Y-8310000D02*
X12672000Y-8390000D01*
X13260000Y-9160000D02*
X13340000Y-9240000D01*
X13340000Y-9160000D02*
X13260000Y-9240000D01*
X13460000Y-9160000D02*
X13540000Y-9240000D01*
X13540000Y-9160000D02*
X13460000Y-9240000D01*
X13210000Y-13060000D02*
X13290000Y-13140000D01*
X13290000Y-13060000D02*
X13210000Y-13140000D01*
X13972000Y-13060000D02*
X14052000Y-13140000D01*
X14052000Y-13060000D02*
X13972000Y-13140000D01*
X11910000Y-13060000D02*
X11990000Y-13140000D01*
X11990000Y-13060000D02*
X11910000Y-13140000D01*
X12672000Y-13060000D02*
X12752000Y-13140000D01*
X12752000Y-13060000D02*
X12672000Y-13140000D01*
X11910000Y-6760000D02*
X11990000Y-6840000D01*
X11990000Y-6760000D02*
X11910000Y-6840000D01*
X12672000Y-6760000D02*
X12752000Y-6840000D01*
X12752000Y-6760000D02*
X12672000Y-6840000D01*
X13160000Y-8010000D02*
X13240000Y-8090000D01*
X13240000Y-8010000D02*
X13160000Y-8090000D01*
X13660000Y-8010000D02*
X13740000Y-8090000D01*
X13740000Y-8010000D02*
X13660000Y-8090000D01*
X14060000Y-7460000D02*
X14140000Y-7540000D01*
X14140000Y-7460000D02*
X14060000Y-7540000D01*
X14310000Y-7460000D02*
X14390000Y-7540000D01*
X14390000Y-7460000D02*
X14310000Y-7540000D01*
X11910000Y-9710000D02*
X11990000Y-9790000D01*
X11990000Y-9710000D02*
X11910000Y-9790000D01*
X11910000Y-9964000D02*
X11990000Y-10044000D01*
X11990000Y-9964000D02*
X11910000Y-10044000D01*
X11910000Y-10218000D02*
X11990000Y-10298000D01*
X11990000Y-10218000D02*
X11910000Y-10298000D01*
X11910000Y-10472000D02*
X11990000Y-10552000D01*
X11990000Y-10472000D02*
X11910000Y-10552000D01*
X11910000Y-10726000D02*
X11990000Y-10806000D01*
X11990000Y-10726000D02*
X11910000Y-10806000D01*
X11910000Y-10980000D02*
X11990000Y-11060000D01*
X11990000Y-10980000D02*
X11910000Y-11060000D01*
X11910000Y-11234000D02*
X11990000Y-11314000D01*
X11990000Y-11234000D02*
X11910000Y-11314000D01*
X12672000Y-9710000D02*
X12752000Y-9790000D01*
X12752000Y-9710000D02*
X12672000Y-9790000D01*
X12672000Y-9964000D02*
X12752000Y-10044000D01*
X12752000Y-9964000D02*
X12672000Y-10044000D01*
X12672000Y-10218000D02*
X12752000Y-10298000D01*
X12752000Y-10218000D02*
X12672000Y-10298000D01*
X12672000Y-10472000D02*
X12752000Y-10552000D01*
X12752000Y-10472000D02*
X12672000Y-10552000D01*
X12672000Y-10726000D02*
X12752000Y-10806000D01*
X12752000Y-10726000D02*
X12672000Y-10806000D01*
X12672000Y-10980000D02*
X12752000Y-11060000D01*
X12752000Y-10980000D02*
X12672000Y-11060000D01*
X12672000Y-11234000D02*
X12752000Y-11314000D01*
X12752000Y-11234000D02*
X12672000Y-11314000D01*
X13210000Y-13510000D02*
X13290000Y-13590000D01*
X13290000Y-13510000D02*
X13210000Y-13590000D01*
X13972000Y-13510000D02*
X14052000Y-13590000D01*
X14052000Y-13510000D02*
X13972000Y-13590000D01*
X10510000Y-11060000D02*
X10590000Y-11140000D01*
X10590000Y-11060000D02*
X10510000Y-11140000D01*
X11272000Y-11060000D02*
X11352000Y-11140000D01*
X11352000Y-11060000D02*
X11272000Y-11140000D01*
X11910000Y-13510000D02*
X11990000Y-13590000D01*
X11990000Y-13510000D02*
X11910000Y-13590000D01*
X12672000Y-13510000D02*
X12752000Y-13590000D01*
X12752000Y-13510000D02*
X12672000Y-13590000D01*
X11910000Y-13960000D02*
X11990000Y-14040000D01*
X11990000Y-13960000D02*
X11910000Y-14040000D01*
X12672000Y-13960000D02*
X12752000Y-14040000D01*
X12752000Y-13960000D02*
X12672000Y-14040000D01*
X13810000Y-11260000D02*
X13890000Y-11340000D01*
X13890000Y-11260000D02*
X13810000Y-11340000D01*
X14572000Y-11260000D02*
X14652000Y-11340000D01*
X14652000Y-11260000D02*
X14572000Y-11340000D01*
X13210000Y-13960000D02*
X13290000Y-14040000D01*
X13290000Y-13960000D02*
X13210000Y-14040000D01*
X13972000Y-13960000D02*
X14052000Y-14040000D01*
X14052000Y-13960000D02*
X13972000Y-14040000D01*
X10510000Y-10660000D02*
X10590000Y-10740000D01*
X10590000Y-10660000D02*
X10510000Y-10740000D01*
X11272000Y-10660000D02*
X11352000Y-10740000D01*
X11352000Y-10660000D02*
X11272000Y-10740000D01*
X11910000Y-8810000D02*
X11990000Y-8890000D01*
X11990000Y-8810000D02*
X11910000Y-8890000D01*
X12672000Y-8810000D02*
X12752000Y-8890000D01*
X12752000Y-8810000D02*
X12672000Y-8890000D01*
X14200800Y-9450000D02*
G75*
G03*
X14200800Y-9450000I-50800J0D01*
G01*
X14200800Y-9704000D02*
G75*
G03*
X14200800Y-9704000I-50800J0D01*
G01*
X14200800Y-9958000D02*
G75*
G03*
X14200800Y-9958000I-50800J0D01*
G01*
X14200800Y-10212000D02*
G75*
G03*
X14200800Y-10212000I-50800J0D01*
G01*
X14200800Y-10466000D02*
G75*
G03*
X14200800Y-10466000I-50800J0D01*
G01*
X14454800Y-9450000D02*
G75*
G03*
X14454800Y-9450000I-50800J0D01*
G01*
X14454800Y-9704000D02*
G75*
G03*
X14454800Y-9704000I-50800J0D01*
G01*
X14454800Y-9958000D02*
G75*
G03*
X14454800Y-9958000I-50800J0D01*
G01*
X14454800Y-10212000D02*
G75*
G03*
X14454800Y-10212000I-50800J0D01*
G01*
X14454800Y-10466000D02*
G75*
G03*
X14454800Y-10466000I-50800J0D01*
G01*
X10437500Y-9430500D02*
X10437500Y-9540500D01*
X10382500Y-9485500D02*
X10492500Y-9485500D01*
X11453500Y-9430500D02*
X11453500Y-9540500D01*
X11398500Y-9485500D02*
X11508500Y-9485500D01*
X10437500Y-9945000D02*
X10437500Y-10055000D01*
X10382500Y-10000000D02*
X10492500Y-10000000D01*
X11453500Y-9945000D02*
X11453500Y-10055000D01*
X11398500Y-10000000D02*
X11508500Y-10000000D01*
X10592427Y-5692427D02*
X10592427Y-5607573D01*
X10507573Y-5607573D01*
X10507573Y-5692427D01*
X10592427Y-5692427D01*
X10846427Y-5692427D02*
X10846427Y-5607573D01*
X10761573Y-5607573D01*
X10761573Y-5692427D01*
X10846427Y-5692427D01*
X11100427Y-5692427D02*
X11100427Y-5607573D01*
X11015573Y-5607573D01*
X11015573Y-5692427D01*
X11100427Y-5692427D01*
X13592427Y-6842427D02*
X13592427Y-6757573D01*
X13507573Y-6757573D01*
X13507573Y-6842427D01*
X13592427Y-6842427D01*
X13846427Y-6842427D02*
X13846427Y-6757573D01*
X13761573Y-6757573D01*
X13761573Y-6842427D01*
X13846427Y-6842427D01*
X10692427Y-13392427D02*
X10692427Y-13307573D01*
X10607573Y-13307573D01*
X10607573Y-13392427D01*
X10692427Y-13392427D01*
X10946427Y-13392427D02*
X10946427Y-13307573D01*
X10861573Y-13307573D01*
X10861573Y-13392427D01*
X10946427Y-13392427D01*
X12192427Y-5692427D02*
X12192427Y-5607573D01*
X12107573Y-5607573D01*
X12107573Y-5692427D01*
X12192427Y-5692427D01*
X12446427Y-5692427D02*
X12446427Y-5607573D01*
X12361573Y-5607573D01*
X12361573Y-5692427D01*
X12446427Y-5692427D01*
X12700427Y-5692427D02*
X12700427Y-5607573D01*
X12615573Y-5607573D01*
X12615573Y-5692427D01*
X12700427Y-5692427D01*
X13592427Y-5692427D02*
X13592427Y-5607573D01*
X13507573Y-5607573D01*
X13507573Y-5692427D01*
X13592427Y-5692427D01*
X13846427Y-5692427D02*
X13846427Y-5607573D01*
X13761573Y-5607573D01*
X13761573Y-5692427D01*
X13846427Y-5692427D01*
X14100427Y-5692427D02*
X14100427Y-5607573D01*
X14015573Y-5607573D01*
X14015573Y-5692427D01*
X14100427Y-5692427D01*
X10842427Y-6842427D02*
X10842427Y-6757573D01*
X10757573Y-6757573D01*
X10757573Y-6842427D01*
X10842427Y-6842427D01*
X11096427Y-6842427D02*
X11096427Y-6757573D01*
X11011573Y-6757573D01*
X11011573Y-6842427D01*
X11096427Y-6842427D01*
D12*
X10283928Y-15368214D02*
X10283928Y-15068214D01*
X10355357Y-15068214D01*
X10398214Y-15082500D01*
X10426786Y-15111071D01*
X10441071Y-15139643D01*
X10455357Y-15196786D01*
X10455357Y-15239643D01*
X10441071Y-15296786D01*
X10426786Y-15325357D01*
X10398214Y-15353929D01*
X10355357Y-15368214D01*
X10283928Y-15368214D01*
X10583928Y-15368214D02*
X10583928Y-15168214D01*
X10583928Y-15225357D02*
X10598214Y-15196786D01*
X10612500Y-15182500D01*
X10641071Y-15168214D01*
X10669643Y-15168214D01*
X10769643Y-15368214D02*
X10769643Y-15168214D01*
X10769643Y-15068214D02*
X10755357Y-15082500D01*
X10769643Y-15096786D01*
X10783928Y-15082500D01*
X10769643Y-15068214D01*
X10769643Y-15096786D01*
X10955357Y-15368214D02*
X10926786Y-15353929D01*
X10912500Y-15325357D01*
X10912500Y-15068214D01*
X11112500Y-15368214D02*
X11083928Y-15353929D01*
X11069643Y-15325357D01*
X11069643Y-15068214D01*
X11455357Y-15368214D02*
X11455357Y-15068214D01*
X11555357Y-15282500D01*
X11655357Y-15068214D01*
X11655357Y-15368214D01*
X11926786Y-15368214D02*
X11926786Y-15211071D01*
X11912500Y-15182500D01*
X11883928Y-15168214D01*
X11826786Y-15168214D01*
X11798214Y-15182500D01*
X11926786Y-15353929D02*
X11898214Y-15368214D01*
X11826786Y-15368214D01*
X11798214Y-15353929D01*
X11783928Y-15325357D01*
X11783928Y-15296786D01*
X11798214Y-15268214D01*
X11826786Y-15253929D01*
X11898214Y-15253929D01*
X11926786Y-15239643D01*
X12069643Y-15168214D02*
X12069643Y-15468214D01*
X12069643Y-15182500D02*
X12098214Y-15168214D01*
X12155357Y-15168214D01*
X12183928Y-15182500D01*
X12198214Y-15196786D01*
X12212500Y-15225357D01*
X12212500Y-15311071D01*
X12198214Y-15339643D01*
X12183928Y-15353929D01*
X12155357Y-15368214D01*
X12098214Y-15368214D01*
X12069643Y-15353929D01*
X12341071Y-15339643D02*
X12355357Y-15353929D01*
X12341071Y-15368214D01*
X12326786Y-15353929D01*
X12341071Y-15339643D01*
X12341071Y-15368214D01*
X12341071Y-15182500D02*
X12355357Y-15196786D01*
X12341071Y-15211071D01*
X12326786Y-15196786D01*
X12341071Y-15182500D01*
X12341071Y-15211071D01*
X9917500Y-15822500D02*
X9997500Y-15902500D01*
X9997500Y-15822500D02*
X9917500Y-15902500D01*
X10341071Y-15698214D02*
X10369643Y-15698214D01*
X10398214Y-15712500D01*
X10412500Y-15726786D01*
X10426786Y-15755357D01*
X10441071Y-15812500D01*
X10441071Y-15883929D01*
X10426786Y-15941071D01*
X10412500Y-15969643D01*
X10398214Y-15983929D01*
X10369643Y-15998214D01*
X10341071Y-15998214D01*
X10312500Y-15983929D01*
X10298214Y-15969643D01*
X10283928Y-15941071D01*
X10269643Y-15883929D01*
X10269643Y-15812500D01*
X10283928Y-15755357D01*
X10298214Y-15726786D01*
X10312500Y-15712500D01*
X10341071Y-15698214D01*
X10569643Y-15969643D02*
X10583928Y-15983929D01*
X10569643Y-15998214D01*
X10555357Y-15983929D01*
X10569643Y-15969643D01*
X10569643Y-15998214D01*
X10755357Y-15826786D02*
X10726786Y-15812500D01*
X10712500Y-15798214D01*
X10698214Y-15769643D01*
X10698214Y-15755357D01*
X10712500Y-15726786D01*
X10726786Y-15712500D01*
X10755357Y-15698214D01*
X10812500Y-15698214D01*
X10841071Y-15712500D01*
X10855357Y-15726786D01*
X10869643Y-15755357D01*
X10869643Y-15769643D01*
X10855357Y-15798214D01*
X10841071Y-15812500D01*
X10812500Y-15826786D01*
X10755357Y-15826786D01*
X10726786Y-15841071D01*
X10712500Y-15855357D01*
X10698214Y-15883929D01*
X10698214Y-15941071D01*
X10712500Y-15969643D01*
X10726786Y-15983929D01*
X10755357Y-15998214D01*
X10812500Y-15998214D01*
X10841071Y-15983929D01*
X10855357Y-15969643D01*
X10869643Y-15941071D01*
X10869643Y-15883929D01*
X10855357Y-15855357D01*
X10841071Y-15841071D01*
X10812500Y-15826786D01*
X11055357Y-15698214D02*
X11083928Y-15698214D01*
X11112500Y-15712500D01*
X11126786Y-15726786D01*
X11141071Y-15755357D01*
X11155357Y-15812500D01*
X11155357Y-15883929D01*
X11141071Y-15941071D01*
X11126786Y-15969643D01*
X11112500Y-15983929D01*
X11083928Y-15998214D01*
X11055357Y-15998214D01*
X11026786Y-15983929D01*
X11012500Y-15969643D01*
X10998214Y-15941071D01*
X10983928Y-15883929D01*
X10983928Y-15812500D01*
X10998214Y-15755357D01*
X11012500Y-15726786D01*
X11026786Y-15712500D01*
X11055357Y-15698214D01*
X11283928Y-15998214D02*
X11283928Y-15798214D01*
X11283928Y-15826786D02*
X11298214Y-15812500D01*
X11326786Y-15798214D01*
X11369643Y-15798214D01*
X11398214Y-15812500D01*
X11412500Y-15841071D01*
X11412500Y-15998214D01*
X11412500Y-15841071D02*
X11426786Y-15812500D01*
X11455357Y-15798214D01*
X11498214Y-15798214D01*
X11526786Y-15812500D01*
X11541071Y-15841071D01*
X11541071Y-15998214D01*
X11683928Y-15998214D02*
X11683928Y-15798214D01*
X11683928Y-15826786D02*
X11698214Y-15812500D01*
X11726786Y-15798214D01*
X11769643Y-15798214D01*
X11798214Y-15812500D01*
X11812500Y-15841071D01*
X11812500Y-15998214D01*
X11812500Y-15841071D02*
X11826786Y-15812500D01*
X11855357Y-15798214D01*
X11898214Y-15798214D01*
X11926786Y-15812500D01*
X11941071Y-15841071D01*
X11941071Y-15998214D01*
X12526786Y-15683929D02*
X12269643Y-16069643D01*
X12912500Y-15698214D02*
X12941071Y-15698214D01*
X12969643Y-15712500D01*
X12983928Y-15726786D01*
X12998214Y-15755357D01*
X13012500Y-15812500D01*
X13012500Y-15883929D01*
X12998214Y-15941071D01*
X12983928Y-15969643D01*
X12969643Y-15983929D01*
X12941071Y-15998214D01*
X12912500Y-15998214D01*
X12883928Y-15983929D01*
X12869643Y-15969643D01*
X12855357Y-15941071D01*
X12841071Y-15883929D01*
X12841071Y-15812500D01*
X12855357Y-15755357D01*
X12869643Y-15726786D01*
X12883928Y-15712500D01*
X12912500Y-15698214D01*
X13141071Y-15969643D02*
X13155357Y-15983929D01*
X13141071Y-15998214D01*
X13126786Y-15983929D01*
X13141071Y-15969643D01*
X13141071Y-15998214D01*
X13341071Y-15698214D02*
X13369643Y-15698214D01*
X13398214Y-15712500D01*
X13412500Y-15726786D01*
X13426786Y-15755357D01*
X13441071Y-15812500D01*
X13441071Y-15883929D01*
X13426786Y-15941071D01*
X13412500Y-15969643D01*
X13398214Y-15983929D01*
X13369643Y-15998214D01*
X13341071Y-15998214D01*
X13312500Y-15983929D01*
X13298214Y-15969643D01*
X13283928Y-15941071D01*
X13269643Y-15883929D01*
X13269643Y-15812500D01*
X13283928Y-15755357D01*
X13298214Y-15726786D01*
X13312500Y-15712500D01*
X13341071Y-15698214D01*
X13541071Y-15698214D02*
X13726786Y-15698214D01*
X13626786Y-15812500D01*
X13669643Y-15812500D01*
X13698214Y-15826786D01*
X13712500Y-15841071D01*
X13726786Y-15869643D01*
X13726786Y-15941071D01*
X13712500Y-15969643D01*
X13698214Y-15983929D01*
X13669643Y-15998214D01*
X13583928Y-15998214D01*
X13555357Y-15983929D01*
X13541071Y-15969643D01*
X14012500Y-15998214D02*
X13841071Y-15998214D01*
X13926786Y-15998214D02*
X13926786Y-15698214D01*
X13898214Y-15741071D01*
X13869643Y-15769643D01*
X13841071Y-15783929D01*
X14126786Y-15698214D02*
X14126786Y-15755357D01*
X14241071Y-15698214D02*
X14241071Y-15755357D01*
X14683928Y-16112500D02*
X14669643Y-16098214D01*
X14641071Y-16055357D01*
X14626786Y-16026786D01*
X14612500Y-15983929D01*
X14598214Y-15912500D01*
X14598214Y-15855357D01*
X14612500Y-15783929D01*
X14626786Y-15741071D01*
X14641071Y-15712500D01*
X14669643Y-15669643D01*
X14683928Y-15655357D01*
X14926786Y-15698214D02*
X14869643Y-15698214D01*
X14841071Y-15712500D01*
X14826786Y-15726786D01*
X14798214Y-15769643D01*
X14783928Y-15826786D01*
X14783928Y-15941071D01*
X14798214Y-15969643D01*
X14812500Y-15983929D01*
X14841071Y-15998214D01*
X14898214Y-15998214D01*
X14926786Y-15983929D01*
X14941071Y-15969643D01*
X14955357Y-15941071D01*
X14955357Y-15869643D01*
X14941071Y-15841071D01*
X14926786Y-15826786D01*
X14898214Y-15812500D01*
X14841071Y-15812500D01*
X14812500Y-15826786D01*
X14798214Y-15841071D01*
X14783928Y-15869643D01*
X15069643Y-15726786D02*
X15083928Y-15712500D01*
X15112500Y-15698214D01*
X15183928Y-15698214D01*
X15212500Y-15712500D01*
X15226786Y-15726786D01*
X15241071Y-15755357D01*
X15241071Y-15783929D01*
X15226786Y-15826786D01*
X15055357Y-15998214D01*
X15241071Y-15998214D01*
X15598214Y-15998214D02*
X15598214Y-15698214D01*
X15726786Y-15998214D02*
X15726786Y-15841071D01*
X15712500Y-15812500D01*
X15683928Y-15798214D01*
X15641071Y-15798214D01*
X15612500Y-15812500D01*
X15598214Y-15826786D01*
X15912500Y-15998214D02*
X15883928Y-15983929D01*
X15869643Y-15969643D01*
X15855357Y-15941071D01*
X15855357Y-15855357D01*
X15869643Y-15826786D01*
X15883928Y-15812500D01*
X15912500Y-15798214D01*
X15955357Y-15798214D01*
X15983928Y-15812500D01*
X15998214Y-15826786D01*
X16012500Y-15855357D01*
X16012500Y-15941071D01*
X15998214Y-15969643D01*
X15983928Y-15983929D01*
X15955357Y-15998214D01*
X15912500Y-15998214D01*
X16183928Y-15998214D02*
X16155357Y-15983929D01*
X16141071Y-15955357D01*
X16141071Y-15698214D01*
X16412500Y-15983929D02*
X16383928Y-15998214D01*
X16326786Y-15998214D01*
X16298214Y-15983929D01*
X16283928Y-15955357D01*
X16283928Y-15841071D01*
X16298214Y-15812500D01*
X16326786Y-15798214D01*
X16383928Y-15798214D01*
X16412500Y-15812500D01*
X16426786Y-15841071D01*
X16426786Y-15869643D01*
X16283928Y-15898214D01*
X16541071Y-15983929D02*
X16569643Y-15998214D01*
X16626786Y-15998214D01*
X16655357Y-15983929D01*
X16669643Y-15955357D01*
X16669643Y-15941071D01*
X16655357Y-15912500D01*
X16626786Y-15898214D01*
X16583928Y-15898214D01*
X16555357Y-15883929D01*
X16541071Y-15855357D01*
X16541071Y-15841071D01*
X16555357Y-15812500D01*
X16583928Y-15798214D01*
X16626786Y-15798214D01*
X16655357Y-15812500D01*
X16769643Y-16112500D02*
X16783928Y-16098214D01*
X16812500Y-16055357D01*
X16826786Y-16026786D01*
X16841071Y-15983929D01*
X16855357Y-15912500D01*
X16855357Y-15855357D01*
X16841071Y-15783929D01*
X16826786Y-15741071D01*
X16812500Y-15712500D01*
X16783928Y-15669643D01*
X16769643Y-15655357D01*
X9997500Y-16258500D02*
G75*
G03*
X9997500Y-16258500I-50800J0D01*
G01*
X10441071Y-16394214D02*
X10269643Y-16394214D01*
X10355357Y-16394214D02*
X10355357Y-16094214D01*
X10326786Y-16137071D01*
X10298214Y-16165643D01*
X10269643Y-16179929D01*
X10569643Y-16365643D02*
X10583928Y-16379929D01*
X10569643Y-16394214D01*
X10555357Y-16379929D01*
X10569643Y-16365643D01*
X10569643Y-16394214D01*
X10769643Y-16094214D02*
X10798214Y-16094214D01*
X10826786Y-16108500D01*
X10841071Y-16122786D01*
X10855357Y-16151357D01*
X10869643Y-16208500D01*
X10869643Y-16279929D01*
X10855357Y-16337071D01*
X10841071Y-16365643D01*
X10826786Y-16379929D01*
X10798214Y-16394214D01*
X10769643Y-16394214D01*
X10741071Y-16379929D01*
X10726786Y-16365643D01*
X10712500Y-16337071D01*
X10698214Y-16279929D01*
X10698214Y-16208500D01*
X10712500Y-16151357D01*
X10726786Y-16122786D01*
X10741071Y-16108500D01*
X10769643Y-16094214D01*
X10983928Y-16122786D02*
X10998214Y-16108500D01*
X11026786Y-16094214D01*
X11098214Y-16094214D01*
X11126786Y-16108500D01*
X11141071Y-16122786D01*
X11155357Y-16151357D01*
X11155357Y-16179929D01*
X11141071Y-16222786D01*
X10969643Y-16394214D01*
X11155357Y-16394214D01*
X11283928Y-16394214D02*
X11283928Y-16194214D01*
X11283928Y-16222786D02*
X11298214Y-16208500D01*
X11326786Y-16194214D01*
X11369643Y-16194214D01*
X11398214Y-16208500D01*
X11412500Y-16237071D01*
X11412500Y-16394214D01*
X11412500Y-16237071D02*
X11426786Y-16208500D01*
X11455357Y-16194214D01*
X11498214Y-16194214D01*
X11526786Y-16208500D01*
X11541071Y-16237071D01*
X11541071Y-16394214D01*
X11683928Y-16394214D02*
X11683928Y-16194214D01*
X11683928Y-16222786D02*
X11698214Y-16208500D01*
X11726786Y-16194214D01*
X11769643Y-16194214D01*
X11798214Y-16208500D01*
X11812500Y-16237071D01*
X11812500Y-16394214D01*
X11812500Y-16237071D02*
X11826786Y-16208500D01*
X11855357Y-16194214D01*
X11898214Y-16194214D01*
X11926786Y-16208500D01*
X11941071Y-16237071D01*
X11941071Y-16394214D01*
X12526786Y-16079929D02*
X12269643Y-16465643D01*
X12912500Y-16094214D02*
X12941071Y-16094214D01*
X12969643Y-16108500D01*
X12983928Y-16122786D01*
X12998214Y-16151357D01*
X13012500Y-16208500D01*
X13012500Y-16279929D01*
X12998214Y-16337071D01*
X12983928Y-16365643D01*
X12969643Y-16379929D01*
X12941071Y-16394214D01*
X12912500Y-16394214D01*
X12883928Y-16379929D01*
X12869643Y-16365643D01*
X12855357Y-16337071D01*
X12841071Y-16279929D01*
X12841071Y-16208500D01*
X12855357Y-16151357D01*
X12869643Y-16122786D01*
X12883928Y-16108500D01*
X12912500Y-16094214D01*
X13141071Y-16365643D02*
X13155357Y-16379929D01*
X13141071Y-16394214D01*
X13126786Y-16379929D01*
X13141071Y-16365643D01*
X13141071Y-16394214D01*
X13341071Y-16094214D02*
X13369643Y-16094214D01*
X13398214Y-16108500D01*
X13412500Y-16122786D01*
X13426786Y-16151357D01*
X13441071Y-16208500D01*
X13441071Y-16279929D01*
X13426786Y-16337071D01*
X13412500Y-16365643D01*
X13398214Y-16379929D01*
X13369643Y-16394214D01*
X13341071Y-16394214D01*
X13312500Y-16379929D01*
X13298214Y-16365643D01*
X13283928Y-16337071D01*
X13269643Y-16279929D01*
X13269643Y-16208500D01*
X13283928Y-16151357D01*
X13298214Y-16122786D01*
X13312500Y-16108500D01*
X13341071Y-16094214D01*
X13698214Y-16194214D02*
X13698214Y-16394214D01*
X13626786Y-16079929D02*
X13555357Y-16294214D01*
X13741071Y-16294214D01*
X13912500Y-16094214D02*
X13941071Y-16094214D01*
X13969643Y-16108500D01*
X13983928Y-16122786D01*
X13998214Y-16151357D01*
X14012500Y-16208500D01*
X14012500Y-16279929D01*
X13998214Y-16337071D01*
X13983928Y-16365643D01*
X13969643Y-16379929D01*
X13941071Y-16394214D01*
X13912500Y-16394214D01*
X13883928Y-16379929D01*
X13869643Y-16365643D01*
X13855357Y-16337071D01*
X13841071Y-16279929D01*
X13841071Y-16208500D01*
X13855357Y-16151357D01*
X13869643Y-16122786D01*
X13883928Y-16108500D01*
X13912500Y-16094214D01*
X14126786Y-16094214D02*
X14126786Y-16151357D01*
X14241071Y-16094214D02*
X14241071Y-16151357D01*
X14683928Y-16508500D02*
X14669643Y-16494214D01*
X14641071Y-16451357D01*
X14626786Y-16422786D01*
X14612500Y-16379929D01*
X14598214Y-16308500D01*
X14598214Y-16251357D01*
X14612500Y-16179929D01*
X14626786Y-16137071D01*
X14641071Y-16108500D01*
X14669643Y-16065643D01*
X14683928Y-16051357D01*
X14955357Y-16394214D02*
X14783928Y-16394214D01*
X14869643Y-16394214D02*
X14869643Y-16094214D01*
X14841071Y-16137071D01*
X14812500Y-16165643D01*
X14783928Y-16179929D01*
X15141071Y-16094214D02*
X15169643Y-16094214D01*
X15198214Y-16108500D01*
X15212500Y-16122786D01*
X15226786Y-16151357D01*
X15241071Y-16208500D01*
X15241071Y-16279929D01*
X15226786Y-16337071D01*
X15212500Y-16365643D01*
X15198214Y-16379929D01*
X15169643Y-16394214D01*
X15141071Y-16394214D01*
X15112500Y-16379929D01*
X15098214Y-16365643D01*
X15083928Y-16337071D01*
X15069643Y-16279929D01*
X15069643Y-16208500D01*
X15083928Y-16151357D01*
X15098214Y-16122786D01*
X15112500Y-16108500D01*
X15141071Y-16094214D01*
X15598214Y-16394214D02*
X15598214Y-16094214D01*
X15726786Y-16394214D02*
X15726786Y-16237071D01*
X15712500Y-16208500D01*
X15683928Y-16194214D01*
X15641071Y-16194214D01*
X15612500Y-16208500D01*
X15598214Y-16222786D01*
X15912500Y-16394214D02*
X15883928Y-16379929D01*
X15869643Y-16365643D01*
X15855357Y-16337071D01*
X15855357Y-16251357D01*
X15869643Y-16222786D01*
X15883928Y-16208500D01*
X15912500Y-16194214D01*
X15955357Y-16194214D01*
X15983928Y-16208500D01*
X15998214Y-16222786D01*
X16012500Y-16251357D01*
X16012500Y-16337071D01*
X15998214Y-16365643D01*
X15983928Y-16379929D01*
X15955357Y-16394214D01*
X15912500Y-16394214D01*
X16183928Y-16394214D02*
X16155357Y-16379929D01*
X16141071Y-16351357D01*
X16141071Y-16094214D01*
X16412500Y-16379929D02*
X16383928Y-16394214D01*
X16326786Y-16394214D01*
X16298214Y-16379929D01*
X16283928Y-16351357D01*
X16283928Y-16237071D01*
X16298214Y-16208500D01*
X16326786Y-16194214D01*
X16383928Y-16194214D01*
X16412500Y-16208500D01*
X16426786Y-16237071D01*
X16426786Y-16265643D01*
X16283928Y-16294214D01*
X16541071Y-16379929D02*
X16569643Y-16394214D01*
X16626786Y-16394214D01*
X16655357Y-16379929D01*
X16669643Y-16351357D01*
X16669643Y-16337071D01*
X16655357Y-16308500D01*
X16626786Y-16294214D01*
X16583928Y-16294214D01*
X16555357Y-16279929D01*
X16541071Y-16251357D01*
X16541071Y-16237071D01*
X16555357Y-16208500D01*
X16583928Y-16194214D01*
X16626786Y-16194214D01*
X16655357Y-16208500D01*
X16769643Y-16508500D02*
X16783928Y-16494214D01*
X16812500Y-16451357D01*
X16826786Y-16422786D01*
X16841071Y-16379929D01*
X16855357Y-16308500D01*
X16855357Y-16251357D01*
X16841071Y-16179929D01*
X16826786Y-16137071D01*
X16812500Y-16108500D01*
X16783928Y-16065643D01*
X16769643Y-16051357D01*
X9942500Y-16599500D02*
X9942500Y-16709500D01*
X9887500Y-16654500D02*
X9997500Y-16654500D01*
X10441071Y-16790214D02*
X10269643Y-16790214D01*
X10355357Y-16790214D02*
X10355357Y-16490214D01*
X10326786Y-16533071D01*
X10298214Y-16561643D01*
X10269643Y-16575929D01*
X10569643Y-16761643D02*
X10583928Y-16775929D01*
X10569643Y-16790214D01*
X10555357Y-16775929D01*
X10569643Y-16761643D01*
X10569643Y-16790214D01*
X10869643Y-16790214D02*
X10698214Y-16790214D01*
X10783928Y-16790214D02*
X10783928Y-16490214D01*
X10755357Y-16533071D01*
X10726786Y-16561643D01*
X10698214Y-16575929D01*
X11055357Y-16490214D02*
X11083928Y-16490214D01*
X11112500Y-16504500D01*
X11126786Y-16518786D01*
X11141071Y-16547357D01*
X11155357Y-16604500D01*
X11155357Y-16675929D01*
X11141071Y-16733071D01*
X11126786Y-16761643D01*
X11112500Y-16775929D01*
X11083928Y-16790214D01*
X11055357Y-16790214D01*
X11026786Y-16775929D01*
X11012500Y-16761643D01*
X10998214Y-16733071D01*
X10983928Y-16675929D01*
X10983928Y-16604500D01*
X10998214Y-16547357D01*
X11012500Y-16518786D01*
X11026786Y-16504500D01*
X11055357Y-16490214D01*
X11283928Y-16790214D02*
X11283928Y-16590214D01*
X11283928Y-16618786D02*
X11298214Y-16604500D01*
X11326786Y-16590214D01*
X11369643Y-16590214D01*
X11398214Y-16604500D01*
X11412500Y-16633071D01*
X11412500Y-16790214D01*
X11412500Y-16633071D02*
X11426786Y-16604500D01*
X11455357Y-16590214D01*
X11498214Y-16590214D01*
X11526786Y-16604500D01*
X11541071Y-16633071D01*
X11541071Y-16790214D01*
X11683928Y-16790214D02*
X11683928Y-16590214D01*
X11683928Y-16618786D02*
X11698214Y-16604500D01*
X11726786Y-16590214D01*
X11769643Y-16590214D01*
X11798214Y-16604500D01*
X11812500Y-16633071D01*
X11812500Y-16790214D01*
X11812500Y-16633071D02*
X11826786Y-16604500D01*
X11855357Y-16590214D01*
X11898214Y-16590214D01*
X11926786Y-16604500D01*
X11941071Y-16633071D01*
X11941071Y-16790214D01*
X12526786Y-16475929D02*
X12269643Y-16861643D01*
X12912500Y-16490214D02*
X12941071Y-16490214D01*
X12969643Y-16504500D01*
X12983928Y-16518786D01*
X12998214Y-16547357D01*
X13012500Y-16604500D01*
X13012500Y-16675929D01*
X12998214Y-16733071D01*
X12983928Y-16761643D01*
X12969643Y-16775929D01*
X12941071Y-16790214D01*
X12912500Y-16790214D01*
X12883928Y-16775929D01*
X12869643Y-16761643D01*
X12855357Y-16733071D01*
X12841071Y-16675929D01*
X12841071Y-16604500D01*
X12855357Y-16547357D01*
X12869643Y-16518786D01*
X12883928Y-16504500D01*
X12912500Y-16490214D01*
X13141071Y-16761643D02*
X13155357Y-16775929D01*
X13141071Y-16790214D01*
X13126786Y-16775929D01*
X13141071Y-16761643D01*
X13141071Y-16790214D01*
X13341071Y-16490214D02*
X13369643Y-16490214D01*
X13398214Y-16504500D01*
X13412500Y-16518786D01*
X13426786Y-16547357D01*
X13441071Y-16604500D01*
X13441071Y-16675929D01*
X13426786Y-16733071D01*
X13412500Y-16761643D01*
X13398214Y-16775929D01*
X13369643Y-16790214D01*
X13341071Y-16790214D01*
X13312500Y-16775929D01*
X13298214Y-16761643D01*
X13283928Y-16733071D01*
X13269643Y-16675929D01*
X13269643Y-16604500D01*
X13283928Y-16547357D01*
X13298214Y-16518786D01*
X13312500Y-16504500D01*
X13341071Y-16490214D01*
X13698214Y-16590214D02*
X13698214Y-16790214D01*
X13626786Y-16475929D02*
X13555357Y-16690214D01*
X13741071Y-16690214D01*
X13826786Y-16490214D02*
X14012500Y-16490214D01*
X13912500Y-16604500D01*
X13955357Y-16604500D01*
X13983928Y-16618786D01*
X13998214Y-16633071D01*
X14012500Y-16661643D01*
X14012500Y-16733071D01*
X13998214Y-16761643D01*
X13983928Y-16775929D01*
X13955357Y-16790214D01*
X13869643Y-16790214D01*
X13841071Y-16775929D01*
X13826786Y-16761643D01*
X14126786Y-16490214D02*
X14126786Y-16547357D01*
X14241071Y-16490214D02*
X14241071Y-16547357D01*
X14683928Y-16904500D02*
X14669643Y-16890214D01*
X14641071Y-16847357D01*
X14626786Y-16818786D01*
X14612500Y-16775929D01*
X14598214Y-16704500D01*
X14598214Y-16647357D01*
X14612500Y-16575929D01*
X14626786Y-16533071D01*
X14641071Y-16504500D01*
X14669643Y-16461643D01*
X14683928Y-16447357D01*
X14926786Y-16590214D02*
X14926786Y-16790214D01*
X14855357Y-16475929D02*
X14783928Y-16690214D01*
X14969643Y-16690214D01*
X15312500Y-16790214D02*
X15312500Y-16490214D01*
X15441071Y-16790214D02*
X15441071Y-16633071D01*
X15426786Y-16604500D01*
X15398214Y-16590214D01*
X15355357Y-16590214D01*
X15326786Y-16604500D01*
X15312500Y-16618786D01*
X15626786Y-16790214D02*
X15598214Y-16775929D01*
X15583928Y-16761643D01*
X15569643Y-16733071D01*
X15569643Y-16647357D01*
X15583928Y-16618786D01*
X15598214Y-16604500D01*
X15626786Y-16590214D01*
X15669643Y-16590214D01*
X15698214Y-16604500D01*
X15712500Y-16618786D01*
X15726786Y-16647357D01*
X15726786Y-16733071D01*
X15712500Y-16761643D01*
X15698214Y-16775929D01*
X15669643Y-16790214D01*
X15626786Y-16790214D01*
X15898214Y-16790214D02*
X15869643Y-16775929D01*
X15855357Y-16747357D01*
X15855357Y-16490214D01*
X16126786Y-16775929D02*
X16098214Y-16790214D01*
X16041071Y-16790214D01*
X16012500Y-16775929D01*
X15998214Y-16747357D01*
X15998214Y-16633071D01*
X16012500Y-16604500D01*
X16041071Y-16590214D01*
X16098214Y-16590214D01*
X16126786Y-16604500D01*
X16141071Y-16633071D01*
X16141071Y-16661643D01*
X15998214Y-16690214D01*
X16255357Y-16775929D02*
X16283928Y-16790214D01*
X16341071Y-16790214D01*
X16369643Y-16775929D01*
X16383928Y-16747357D01*
X16383928Y-16733071D01*
X16369643Y-16704500D01*
X16341071Y-16690214D01*
X16298214Y-16690214D01*
X16269643Y-16675929D01*
X16255357Y-16647357D01*
X16255357Y-16633071D01*
X16269643Y-16604500D01*
X16298214Y-16590214D01*
X16341071Y-16590214D01*
X16369643Y-16604500D01*
X16483928Y-16904500D02*
X16498214Y-16890214D01*
X16526786Y-16847357D01*
X16541071Y-16818786D01*
X16555357Y-16775929D01*
X16569643Y-16704500D01*
X16569643Y-16647357D01*
X16555357Y-16575929D01*
X16541071Y-16533071D01*
X16526786Y-16504500D01*
X16498214Y-16461643D01*
X16483928Y-16447357D01*
X9979927Y-17092927D02*
X9979927Y-17008073D01*
X9895073Y-17008073D01*
X9895073Y-17092927D01*
X9979927Y-17092927D01*
X10441071Y-17186214D02*
X10269643Y-17186214D01*
X10355357Y-17186214D02*
X10355357Y-16886214D01*
X10326786Y-16929072D01*
X10298214Y-16957643D01*
X10269643Y-16971929D01*
X10569643Y-17157643D02*
X10583928Y-17171929D01*
X10569643Y-17186214D01*
X10555357Y-17171929D01*
X10569643Y-17157643D01*
X10569643Y-17186214D01*
X10698214Y-16914786D02*
X10712500Y-16900500D01*
X10741071Y-16886214D01*
X10812500Y-16886214D01*
X10841071Y-16900500D01*
X10855357Y-16914786D01*
X10869643Y-16943357D01*
X10869643Y-16971929D01*
X10855357Y-17014786D01*
X10683928Y-17186214D01*
X10869643Y-17186214D01*
X11055357Y-16886214D02*
X11083928Y-16886214D01*
X11112500Y-16900500D01*
X11126786Y-16914786D01*
X11141071Y-16943357D01*
X11155357Y-17000500D01*
X11155357Y-17071929D01*
X11141071Y-17129072D01*
X11126786Y-17157643D01*
X11112500Y-17171929D01*
X11083928Y-17186214D01*
X11055357Y-17186214D01*
X11026786Y-17171929D01*
X11012500Y-17157643D01*
X10998214Y-17129072D01*
X10983928Y-17071929D01*
X10983928Y-17000500D01*
X10998214Y-16943357D01*
X11012500Y-16914786D01*
X11026786Y-16900500D01*
X11055357Y-16886214D01*
X11283928Y-17186214D02*
X11283928Y-16986214D01*
X11283928Y-17014786D02*
X11298214Y-17000500D01*
X11326786Y-16986214D01*
X11369643Y-16986214D01*
X11398214Y-17000500D01*
X11412500Y-17029072D01*
X11412500Y-17186214D01*
X11412500Y-17029072D02*
X11426786Y-17000500D01*
X11455357Y-16986214D01*
X11498214Y-16986214D01*
X11526786Y-17000500D01*
X11541071Y-17029072D01*
X11541071Y-17186214D01*
X11683928Y-17186214D02*
X11683928Y-16986214D01*
X11683928Y-17014786D02*
X11698214Y-17000500D01*
X11726786Y-16986214D01*
X11769643Y-16986214D01*
X11798214Y-17000500D01*
X11812500Y-17029072D01*
X11812500Y-17186214D01*
X11812500Y-17029072D02*
X11826786Y-17000500D01*
X11855357Y-16986214D01*
X11898214Y-16986214D01*
X11926786Y-17000500D01*
X11941071Y-17029072D01*
X11941071Y-17186214D01*
X12526786Y-16871929D02*
X12269643Y-17257643D01*
X12912500Y-16886214D02*
X12941071Y-16886214D01*
X12969643Y-16900500D01*
X12983928Y-16914786D01*
X12998214Y-16943357D01*
X13012500Y-17000500D01*
X13012500Y-17071929D01*
X12998214Y-17129072D01*
X12983928Y-17157643D01*
X12969643Y-17171929D01*
X12941071Y-17186214D01*
X12912500Y-17186214D01*
X12883928Y-17171929D01*
X12869643Y-17157643D01*
X12855357Y-17129072D01*
X12841071Y-17071929D01*
X12841071Y-17000500D01*
X12855357Y-16943357D01*
X12869643Y-16914786D01*
X12883928Y-16900500D01*
X12912500Y-16886214D01*
X13141071Y-17157643D02*
X13155357Y-17171929D01*
X13141071Y-17186214D01*
X13126786Y-17171929D01*
X13141071Y-17157643D01*
X13141071Y-17186214D01*
X13341071Y-16886214D02*
X13369643Y-16886214D01*
X13398214Y-16900500D01*
X13412500Y-16914786D01*
X13426786Y-16943357D01*
X13441071Y-17000500D01*
X13441071Y-17071929D01*
X13426786Y-17129072D01*
X13412500Y-17157643D01*
X13398214Y-17171929D01*
X13369643Y-17186214D01*
X13341071Y-17186214D01*
X13312500Y-17171929D01*
X13298214Y-17157643D01*
X13283928Y-17129072D01*
X13269643Y-17071929D01*
X13269643Y-17000500D01*
X13283928Y-16943357D01*
X13298214Y-16914786D01*
X13312500Y-16900500D01*
X13341071Y-16886214D01*
X13698214Y-16986214D02*
X13698214Y-17186214D01*
X13626786Y-16871929D02*
X13555357Y-17086214D01*
X13741071Y-17086214D01*
X13826786Y-16886214D02*
X14026786Y-16886214D01*
X13898214Y-17186214D01*
X14126786Y-16886214D02*
X14126786Y-16943357D01*
X14241071Y-16886214D02*
X14241071Y-16943357D01*
X14683928Y-17300500D02*
X14669643Y-17286214D01*
X14641071Y-17243357D01*
X14626786Y-17214786D01*
X14612500Y-17171929D01*
X14598214Y-17100500D01*
X14598214Y-17043357D01*
X14612500Y-16971929D01*
X14626786Y-16929072D01*
X14641071Y-16900500D01*
X14669643Y-16857643D01*
X14683928Y-16843357D01*
X14955357Y-17186214D02*
X14783928Y-17186214D01*
X14869643Y-17186214D02*
X14869643Y-16886214D01*
X14841071Y-16929072D01*
X14812500Y-16957643D01*
X14783928Y-16971929D01*
X15226786Y-16886214D02*
X15083928Y-16886214D01*
X15069643Y-17029072D01*
X15083928Y-17014786D01*
X15112500Y-17000500D01*
X15183928Y-17000500D01*
X15212500Y-17014786D01*
X15226786Y-17029072D01*
X15241071Y-17057643D01*
X15241071Y-17129072D01*
X15226786Y-17157643D01*
X15212500Y-17171929D01*
X15183928Y-17186214D01*
X15112500Y-17186214D01*
X15083928Y-17171929D01*
X15069643Y-17157643D01*
X15598214Y-17186214D02*
X15598214Y-16886214D01*
X15726786Y-17186214D02*
X15726786Y-17029072D01*
X15712500Y-17000500D01*
X15683928Y-16986214D01*
X15641071Y-16986214D01*
X15612500Y-17000500D01*
X15598214Y-17014786D01*
X15912500Y-17186214D02*
X15883928Y-17171929D01*
X15869643Y-17157643D01*
X15855357Y-17129072D01*
X15855357Y-17043357D01*
X15869643Y-17014786D01*
X15883928Y-17000500D01*
X15912500Y-16986214D01*
X15955357Y-16986214D01*
X15983928Y-17000500D01*
X15998214Y-17014786D01*
X16012500Y-17043357D01*
X16012500Y-17129072D01*
X15998214Y-17157643D01*
X15983928Y-17171929D01*
X15955357Y-17186214D01*
X15912500Y-17186214D01*
X16183928Y-17186214D02*
X16155357Y-17171929D01*
X16141071Y-17143357D01*
X16141071Y-16886214D01*
X16412500Y-17171929D02*
X16383928Y-17186214D01*
X16326786Y-17186214D01*
X16298214Y-17171929D01*
X16283928Y-17143357D01*
X16283928Y-17029072D01*
X16298214Y-17000500D01*
X16326786Y-16986214D01*
X16383928Y-16986214D01*
X16412500Y-17000500D01*
X16426786Y-17029072D01*
X16426786Y-17057643D01*
X16283928Y-17086214D01*
X16541071Y-17171929D02*
X16569643Y-17186214D01*
X16626786Y-17186214D01*
X16655357Y-17171929D01*
X16669643Y-17143357D01*
X16669643Y-17129072D01*
X16655357Y-17100500D01*
X16626786Y-17086214D01*
X16583928Y-17086214D01*
X16555357Y-17071929D01*
X16541071Y-17043357D01*
X16541071Y-17029072D01*
X16555357Y-17000500D01*
X16583928Y-16986214D01*
X16626786Y-16986214D01*
X16655357Y-17000500D01*
X16769643Y-17300500D02*
X16783928Y-17286214D01*
X16812500Y-17243357D01*
X16826786Y-17214786D01*
X16841071Y-17171929D01*
X16855357Y-17100500D01*
X16855357Y-17043357D01*
X16841071Y-16971929D01*
X16826786Y-16929072D01*
X16812500Y-16900500D01*
X16783928Y-16857643D01*
X16769643Y-16843357D01*
M02*
