%FSLAX45Y45*%
G04 Gerber Fmt 4.5, Leading zero omitted, Abs format (unit mm)*
G04 Created by KiCad (PCBNEW (5.1.8-0-10_14)) date 2021-07-18 16:16:16*
%MOMM*%
%LPD*%
G01*
G04 APERTURE LIST*
%TA.AperFunction,Profile*%
%ADD10C,0.050000*%
%TD*%
%ADD11C,0.200000*%
%ADD12C,0.300000*%
G04 APERTURE END LIST*
D10*
X10000000Y-14900000D02*
X10000000Y-5000000D01*
X14900000Y-14900000D02*
X10000000Y-14900000D01*
X14900000Y-5000000D02*
X14900000Y-14900000D01*
X10000000Y-5000000D02*
X14900000Y-5000000D01*
D11*
X14390000Y-5240000D02*
X14710000Y-5560000D01*
X14710000Y-5240000D02*
X14390000Y-5560000D01*
X10190000Y-14390000D02*
X10510000Y-14710000D01*
X10510000Y-14390000D02*
X10190000Y-14710000D01*
D12*
X10283928Y-15368214D02*
X10283928Y-15068214D01*
X10355357Y-15068214D01*
X10398214Y-15082500D01*
X10426786Y-15111071D01*
X10441071Y-15139643D01*
X10455357Y-15196786D01*
X10455357Y-15239643D01*
X10441071Y-15296786D01*
X10426786Y-15325357D01*
X10398214Y-15353929D01*
X10355357Y-15368214D01*
X10283928Y-15368214D01*
X10583928Y-15368214D02*
X10583928Y-15168214D01*
X10583928Y-15225357D02*
X10598214Y-15196786D01*
X10612500Y-15182500D01*
X10641071Y-15168214D01*
X10669643Y-15168214D01*
X10769643Y-15368214D02*
X10769643Y-15168214D01*
X10769643Y-15068214D02*
X10755357Y-15082500D01*
X10769643Y-15096786D01*
X10783928Y-15082500D01*
X10769643Y-15068214D01*
X10769643Y-15096786D01*
X10955357Y-15368214D02*
X10926786Y-15353929D01*
X10912500Y-15325357D01*
X10912500Y-15068214D01*
X11112500Y-15368214D02*
X11083928Y-15353929D01*
X11069643Y-15325357D01*
X11069643Y-15068214D01*
X11455357Y-15368214D02*
X11455357Y-15068214D01*
X11555357Y-15282500D01*
X11655357Y-15068214D01*
X11655357Y-15368214D01*
X11926786Y-15368214D02*
X11926786Y-15211071D01*
X11912500Y-15182500D01*
X11883928Y-15168214D01*
X11826786Y-15168214D01*
X11798214Y-15182500D01*
X11926786Y-15353929D02*
X11898214Y-15368214D01*
X11826786Y-15368214D01*
X11798214Y-15353929D01*
X11783928Y-15325357D01*
X11783928Y-15296786D01*
X11798214Y-15268214D01*
X11826786Y-15253929D01*
X11898214Y-15253929D01*
X11926786Y-15239643D01*
X12069643Y-15168214D02*
X12069643Y-15468214D01*
X12069643Y-15182500D02*
X12098214Y-15168214D01*
X12155357Y-15168214D01*
X12183928Y-15182500D01*
X12198214Y-15196786D01*
X12212500Y-15225357D01*
X12212500Y-15311071D01*
X12198214Y-15339643D01*
X12183928Y-15353929D01*
X12155357Y-15368214D01*
X12098214Y-15368214D01*
X12069643Y-15353929D01*
X12341071Y-15339643D02*
X12355357Y-15353929D01*
X12341071Y-15368214D01*
X12326786Y-15353929D01*
X12341071Y-15339643D01*
X12341071Y-15368214D01*
X12341071Y-15182500D02*
X12355357Y-15196786D01*
X12341071Y-15211071D01*
X12326786Y-15196786D01*
X12341071Y-15182500D01*
X12341071Y-15211071D01*
X9677500Y-15702500D02*
X9997500Y-16022500D01*
X9997500Y-15702500D02*
X9677500Y-16022500D01*
X10255357Y-15698214D02*
X10441071Y-15698214D01*
X10341071Y-15812500D01*
X10383928Y-15812500D01*
X10412500Y-15826786D01*
X10426786Y-15841071D01*
X10441071Y-15869643D01*
X10441071Y-15941071D01*
X10426786Y-15969643D01*
X10412500Y-15983929D01*
X10383928Y-15998214D01*
X10298214Y-15998214D01*
X10269643Y-15983929D01*
X10255357Y-15969643D01*
X10569643Y-15969643D02*
X10583928Y-15983929D01*
X10569643Y-15998214D01*
X10555357Y-15983929D01*
X10569643Y-15969643D01*
X10569643Y-15998214D01*
X10698214Y-15726786D02*
X10712500Y-15712500D01*
X10741071Y-15698214D01*
X10812500Y-15698214D01*
X10841071Y-15712500D01*
X10855357Y-15726786D01*
X10869643Y-15755357D01*
X10869643Y-15783929D01*
X10855357Y-15826786D01*
X10683928Y-15998214D01*
X10869643Y-15998214D01*
X11055357Y-15698214D02*
X11083928Y-15698214D01*
X11112500Y-15712500D01*
X11126786Y-15726786D01*
X11141071Y-15755357D01*
X11155357Y-15812500D01*
X11155357Y-15883929D01*
X11141071Y-15941071D01*
X11126786Y-15969643D01*
X11112500Y-15983929D01*
X11083928Y-15998214D01*
X11055357Y-15998214D01*
X11026786Y-15983929D01*
X11012500Y-15969643D01*
X10998214Y-15941071D01*
X10983928Y-15883929D01*
X10983928Y-15812500D01*
X10998214Y-15755357D01*
X11012500Y-15726786D01*
X11026786Y-15712500D01*
X11055357Y-15698214D01*
X11283928Y-15998214D02*
X11283928Y-15798214D01*
X11283928Y-15826786D02*
X11298214Y-15812500D01*
X11326786Y-15798214D01*
X11369643Y-15798214D01*
X11398214Y-15812500D01*
X11412500Y-15841071D01*
X11412500Y-15998214D01*
X11412500Y-15841071D02*
X11426786Y-15812500D01*
X11455357Y-15798214D01*
X11498214Y-15798214D01*
X11526786Y-15812500D01*
X11541071Y-15841071D01*
X11541071Y-15998214D01*
X11683928Y-15998214D02*
X11683928Y-15798214D01*
X11683928Y-15826786D02*
X11698214Y-15812500D01*
X11726786Y-15798214D01*
X11769643Y-15798214D01*
X11798214Y-15812500D01*
X11812500Y-15841071D01*
X11812500Y-15998214D01*
X11812500Y-15841071D02*
X11826786Y-15812500D01*
X11855357Y-15798214D01*
X11898214Y-15798214D01*
X11926786Y-15812500D01*
X11941071Y-15841071D01*
X11941071Y-15998214D01*
X12526786Y-15683929D02*
X12269643Y-16069643D01*
X12912500Y-15698214D02*
X12941071Y-15698214D01*
X12969643Y-15712500D01*
X12983928Y-15726786D01*
X12998214Y-15755357D01*
X13012500Y-15812500D01*
X13012500Y-15883929D01*
X12998214Y-15941071D01*
X12983928Y-15969643D01*
X12969643Y-15983929D01*
X12941071Y-15998214D01*
X12912500Y-15998214D01*
X12883928Y-15983929D01*
X12869643Y-15969643D01*
X12855357Y-15941071D01*
X12841071Y-15883929D01*
X12841071Y-15812500D01*
X12855357Y-15755357D01*
X12869643Y-15726786D01*
X12883928Y-15712500D01*
X12912500Y-15698214D01*
X13141071Y-15969643D02*
X13155357Y-15983929D01*
X13141071Y-15998214D01*
X13126786Y-15983929D01*
X13141071Y-15969643D01*
X13141071Y-15998214D01*
X13441071Y-15998214D02*
X13269643Y-15998214D01*
X13355357Y-15998214D02*
X13355357Y-15698214D01*
X13326786Y-15741071D01*
X13298214Y-15769643D01*
X13269643Y-15783929D01*
X13555357Y-15726786D02*
X13569643Y-15712500D01*
X13598214Y-15698214D01*
X13669643Y-15698214D01*
X13698214Y-15712500D01*
X13712500Y-15726786D01*
X13726786Y-15755357D01*
X13726786Y-15783929D01*
X13712500Y-15826786D01*
X13541071Y-15998214D01*
X13726786Y-15998214D01*
X13983928Y-15698214D02*
X13926786Y-15698214D01*
X13898214Y-15712500D01*
X13883928Y-15726786D01*
X13855357Y-15769643D01*
X13841071Y-15826786D01*
X13841071Y-15941071D01*
X13855357Y-15969643D01*
X13869643Y-15983929D01*
X13898214Y-15998214D01*
X13955357Y-15998214D01*
X13983928Y-15983929D01*
X13998214Y-15969643D01*
X14012500Y-15941071D01*
X14012500Y-15869643D01*
X13998214Y-15841071D01*
X13983928Y-15826786D01*
X13955357Y-15812500D01*
X13898214Y-15812500D01*
X13869643Y-15826786D01*
X13855357Y-15841071D01*
X13841071Y-15869643D01*
X14126786Y-15698214D02*
X14126786Y-15755357D01*
X14241071Y-15698214D02*
X14241071Y-15755357D01*
X14683928Y-16112500D02*
X14669643Y-16098214D01*
X14641071Y-16055357D01*
X14626786Y-16026786D01*
X14612500Y-15983929D01*
X14598214Y-15912500D01*
X14598214Y-15855357D01*
X14612500Y-15783929D01*
X14626786Y-15741071D01*
X14641071Y-15712500D01*
X14669643Y-15669643D01*
X14683928Y-15655357D01*
X14783928Y-15726786D02*
X14798214Y-15712500D01*
X14826786Y-15698214D01*
X14898214Y-15698214D01*
X14926786Y-15712500D01*
X14941071Y-15726786D01*
X14955357Y-15755357D01*
X14955357Y-15783929D01*
X14941071Y-15826786D01*
X14769643Y-15998214D01*
X14955357Y-15998214D01*
X15312500Y-15998214D02*
X15312500Y-15698214D01*
X15441071Y-15998214D02*
X15441071Y-15841071D01*
X15426786Y-15812500D01*
X15398214Y-15798214D01*
X15355357Y-15798214D01*
X15326786Y-15812500D01*
X15312500Y-15826786D01*
X15626786Y-15998214D02*
X15598214Y-15983929D01*
X15583928Y-15969643D01*
X15569643Y-15941071D01*
X15569643Y-15855357D01*
X15583928Y-15826786D01*
X15598214Y-15812500D01*
X15626786Y-15798214D01*
X15669643Y-15798214D01*
X15698214Y-15812500D01*
X15712500Y-15826786D01*
X15726786Y-15855357D01*
X15726786Y-15941071D01*
X15712500Y-15969643D01*
X15698214Y-15983929D01*
X15669643Y-15998214D01*
X15626786Y-15998214D01*
X15898214Y-15998214D02*
X15869643Y-15983929D01*
X15855357Y-15955357D01*
X15855357Y-15698214D01*
X16126786Y-15983929D02*
X16098214Y-15998214D01*
X16041071Y-15998214D01*
X16012500Y-15983929D01*
X15998214Y-15955357D01*
X15998214Y-15841071D01*
X16012500Y-15812500D01*
X16041071Y-15798214D01*
X16098214Y-15798214D01*
X16126786Y-15812500D01*
X16141071Y-15841071D01*
X16141071Y-15869643D01*
X15998214Y-15898214D01*
X16255357Y-15983929D02*
X16283928Y-15998214D01*
X16341071Y-15998214D01*
X16369643Y-15983929D01*
X16383928Y-15955357D01*
X16383928Y-15941071D01*
X16369643Y-15912500D01*
X16341071Y-15898214D01*
X16298214Y-15898214D01*
X16269643Y-15883929D01*
X16255357Y-15855357D01*
X16255357Y-15841071D01*
X16269643Y-15812500D01*
X16298214Y-15798214D01*
X16341071Y-15798214D01*
X16369643Y-15812500D01*
X16483928Y-16112500D02*
X16498214Y-16098214D01*
X16526786Y-16055357D01*
X16541071Y-16026786D01*
X16555357Y-15983929D01*
X16569643Y-15912500D01*
X16569643Y-15855357D01*
X16555357Y-15783929D01*
X16541071Y-15741071D01*
X16526786Y-15712500D01*
X16498214Y-15669643D01*
X16483928Y-15655357D01*
X17026786Y-16112500D02*
X17012500Y-16098214D01*
X16983928Y-16055357D01*
X16969643Y-16026786D01*
X16955357Y-15983929D01*
X16941071Y-15912500D01*
X16941071Y-15855357D01*
X16955357Y-15783929D01*
X16969643Y-15741071D01*
X16983928Y-15712500D01*
X17012500Y-15669643D01*
X17026786Y-15655357D01*
X17141071Y-15798214D02*
X17141071Y-15998214D01*
X17141071Y-15826786D02*
X17155357Y-15812500D01*
X17183928Y-15798214D01*
X17226786Y-15798214D01*
X17255357Y-15812500D01*
X17269643Y-15841071D01*
X17269643Y-15998214D01*
X17455357Y-15998214D02*
X17426786Y-15983929D01*
X17412500Y-15969643D01*
X17398214Y-15941071D01*
X17398214Y-15855357D01*
X17412500Y-15826786D01*
X17426786Y-15812500D01*
X17455357Y-15798214D01*
X17498214Y-15798214D01*
X17526786Y-15812500D01*
X17541071Y-15826786D01*
X17555357Y-15855357D01*
X17555357Y-15941071D01*
X17541071Y-15969643D01*
X17526786Y-15983929D01*
X17498214Y-15998214D01*
X17455357Y-15998214D01*
X17641071Y-15798214D02*
X17755357Y-15798214D01*
X17683928Y-15698214D02*
X17683928Y-15955357D01*
X17698214Y-15983929D01*
X17726786Y-15998214D01*
X17755357Y-15998214D01*
X18083928Y-15798214D02*
X18083928Y-16098214D01*
X18083928Y-15812500D02*
X18112500Y-15798214D01*
X18169643Y-15798214D01*
X18198214Y-15812500D01*
X18212500Y-15826786D01*
X18226786Y-15855357D01*
X18226786Y-15941071D01*
X18212500Y-15969643D01*
X18198214Y-15983929D01*
X18169643Y-15998214D01*
X18112500Y-15998214D01*
X18083928Y-15983929D01*
X18398214Y-15998214D02*
X18369643Y-15983929D01*
X18355357Y-15955357D01*
X18355357Y-15698214D01*
X18641071Y-15998214D02*
X18641071Y-15841071D01*
X18626786Y-15812500D01*
X18598214Y-15798214D01*
X18541071Y-15798214D01*
X18512500Y-15812500D01*
X18641071Y-15983929D02*
X18612500Y-15998214D01*
X18541071Y-15998214D01*
X18512500Y-15983929D01*
X18498214Y-15955357D01*
X18498214Y-15926786D01*
X18512500Y-15898214D01*
X18541071Y-15883929D01*
X18612500Y-15883929D01*
X18641071Y-15869643D01*
X18741071Y-15798214D02*
X18855357Y-15798214D01*
X18783928Y-15698214D02*
X18783928Y-15955357D01*
X18798214Y-15983929D01*
X18826786Y-15998214D01*
X18855357Y-15998214D01*
X19069643Y-15983929D02*
X19041071Y-15998214D01*
X18983928Y-15998214D01*
X18955357Y-15983929D01*
X18941071Y-15955357D01*
X18941071Y-15841071D01*
X18955357Y-15812500D01*
X18983928Y-15798214D01*
X19041071Y-15798214D01*
X19069643Y-15812500D01*
X19083928Y-15841071D01*
X19083928Y-15869643D01*
X18941071Y-15898214D01*
X19341071Y-15998214D02*
X19341071Y-15698214D01*
X19341071Y-15983929D02*
X19312500Y-15998214D01*
X19255357Y-15998214D01*
X19226786Y-15983929D01*
X19212500Y-15969643D01*
X19198214Y-15941071D01*
X19198214Y-15855357D01*
X19212500Y-15826786D01*
X19226786Y-15812500D01*
X19255357Y-15798214D01*
X19312500Y-15798214D01*
X19341071Y-15812500D01*
X19455357Y-16112500D02*
X19469643Y-16098214D01*
X19498214Y-16055357D01*
X19512500Y-16026786D01*
X19526786Y-15983929D01*
X19541071Y-15912500D01*
X19541071Y-15855357D01*
X19526786Y-15783929D01*
X19512500Y-15741071D01*
X19498214Y-15712500D01*
X19469643Y-15669643D01*
X19455357Y-15655357D01*
M02*
