%TF.GenerationSoftware,KiCad,Pcbnew,(5.1.12-1-10_14)*%
%TF.CreationDate,2021-12-12T18:07:50+01:00*%
%TF.ProjectId,sub_destroyer,7375625f-6465-4737-9472-6f7965722e6b,rev?*%
%TF.SameCoordinates,Original*%
%TF.FileFunction,Copper,L2,Bot*%
%TF.FilePolarity,Positive*%
%FSLAX46Y46*%
G04 Gerber Fmt 4.6, Leading zero omitted, Abs format (unit mm)*
G04 Created by KiCad (PCBNEW (5.1.12-1-10_14)) date 2021-12-12 18:07:50*
%MOMM*%
%LPD*%
G01*
G04 APERTURE LIST*
%TA.AperFunction,ComponentPad*%
%ADD10R,1.800000X1.800000*%
%TD*%
%TA.AperFunction,ComponentPad*%
%ADD11C,1.800000*%
%TD*%
%TA.AperFunction,ComponentPad*%
%ADD12R,1.600000X1.600000*%
%TD*%
%TA.AperFunction,ComponentPad*%
%ADD13O,1.600000X1.600000*%
%TD*%
%TA.AperFunction,ComponentPad*%
%ADD14C,1.600000*%
%TD*%
%TA.AperFunction,ComponentPad*%
%ADD15R,1.600000X2.400000*%
%TD*%
%TA.AperFunction,ComponentPad*%
%ADD16O,1.600000X2.400000*%
%TD*%
%TA.AperFunction,ComponentPad*%
%ADD17R,2.400000X1.600000*%
%TD*%
%TA.AperFunction,ComponentPad*%
%ADD18O,2.400000X1.600000*%
%TD*%
%TA.AperFunction,ComponentPad*%
%ADD19O,1.050000X1.500000*%
%TD*%
%TA.AperFunction,ComponentPad*%
%ADD20R,1.050000X1.500000*%
%TD*%
%TA.AperFunction,ComponentPad*%
%ADD21C,1.440000*%
%TD*%
%TA.AperFunction,ComponentPad*%
%ADD22C,3.240000*%
%TD*%
%TA.AperFunction,ComponentPad*%
%ADD23C,3.100000*%
%TD*%
%TA.AperFunction,ComponentPad*%
%ADD24C,1.500000*%
%TD*%
%TA.AperFunction,ComponentPad*%
%ADD25R,1.500000X1.500000*%
%TD*%
%TA.AperFunction,ComponentPad*%
%ADD26O,1.740000X2.200000*%
%TD*%
%TA.AperFunction,ComponentPad*%
%ADD27R,1.727200X1.727200*%
%TD*%
%TA.AperFunction,ComponentPad*%
%ADD28O,1.727200X1.727200*%
%TD*%
%TA.AperFunction,ViaPad*%
%ADD29C,0.800000*%
%TD*%
%TA.AperFunction,Conductor*%
%ADD30C,0.250000*%
%TD*%
%TA.AperFunction,Conductor*%
%ADD31C,0.254000*%
%TD*%
%TA.AperFunction,Conductor*%
%ADD32C,0.100000*%
%TD*%
G04 APERTURE END LIST*
D10*
%TO.P,D6,1*%
%TO.N,Net-(D6-Pad1)*%
X165500000Y-111500000D03*
D11*
%TO.P,D6,2*%
%TO.N,Net-(D6-Pad2)*%
X162960000Y-111500000D03*
%TD*%
D12*
%TO.P,D3,1*%
%TO.N,Net-(D2-Pad1)*%
X193500000Y-90500000D03*
D13*
%TO.P,D3,2*%
%TO.N,Net-(D3-Pad2)*%
X201120000Y-90500000D03*
%TD*%
D12*
%TO.P,D1,1*%
%TO.N,Net-(D1-Pad1)*%
X159500000Y-100500000D03*
D13*
%TO.P,D1,2*%
%TO.N,GND*%
X167120000Y-100500000D03*
%TD*%
D14*
%TO.P,R1,1*%
%TO.N,Net-(D1-Pad1)*%
X193500000Y-126500000D03*
D13*
%TO.P,R1,2*%
%TO.N,Net-(J1-Pad1)*%
X201120000Y-126500000D03*
%TD*%
%TO.P,R2,2*%
%TO.N,GND*%
X167120000Y-80000000D03*
D14*
%TO.P,R2,1*%
%TO.N,Net-(D1-Pad1)*%
X159500000Y-80000000D03*
%TD*%
D13*
%TO.P,R3,2*%
%TO.N,Net-(C1-Pad1)*%
X168120000Y-154000000D03*
D14*
%TO.P,R3,1*%
%TO.N,Net-(Q1-Pad3)*%
X160500000Y-154000000D03*
%TD*%
%TO.P,R4,1*%
%TO.N,Net-(D2-Pad2)*%
X193500000Y-101000000D03*
D13*
%TO.P,R4,2*%
%TO.N,Net-(R4-Pad2)*%
X201120000Y-101000000D03*
%TD*%
D15*
%TO.P,U2,1*%
%TO.N,Net-(R15-Pad1)*%
X188500000Y-75000000D03*
D16*
%TO.P,U2,8*%
%TO.N,Net-(R16-Pad1)*%
X173260000Y-82620000D03*
%TO.P,U2,2*%
%TO.N,Net-(R15-Pad2)*%
X185960000Y-75000000D03*
%TO.P,U2,9*%
%TO.N,Net-(R10-Pad1)*%
X175800000Y-82620000D03*
%TO.P,U2,3*%
%TO.N,GND*%
X183420000Y-75000000D03*
%TO.P,U2,10*%
X178340000Y-82620000D03*
%TO.P,U2,4*%
%TO.N,Net-(C1-Pad1)*%
X180880000Y-75000000D03*
%TO.P,U2,11*%
%TO.N,Net-(C2-Pad2)*%
X180880000Y-82620000D03*
%TO.P,U2,5*%
%TO.N,GND*%
X178340000Y-75000000D03*
%TO.P,U2,12*%
X183420000Y-82620000D03*
%TO.P,U2,6*%
%TO.N,Net-(R18-Pad2)*%
X175800000Y-75000000D03*
%TO.P,U2,13*%
%TO.N,Net-(R12-Pad1)*%
X185960000Y-82620000D03*
%TO.P,U2,7*%
%TO.N,Net-(R18-Pad1)*%
X173260000Y-75000000D03*
%TO.P,U2,14*%
%TO.N,Net-(R17-Pad1)*%
X188500000Y-82620000D03*
%TD*%
D17*
%TO.P,U4,1*%
%TO.N,Net-(R20-Pad1)*%
X176000000Y-141500000D03*
D18*
%TO.P,U4,5*%
%TO.N,Net-(R20-Pad2)*%
X183620000Y-149120000D03*
%TO.P,U4,2*%
%TO.N,Net-(R23-Pad1)*%
X176000000Y-144040000D03*
%TO.P,U4,6*%
%TO.N,Net-(D6-Pad1)*%
X183620000Y-146580000D03*
%TO.P,U4,3*%
%TO.N,GND*%
X176000000Y-146580000D03*
%TO.P,U4,7*%
%TO.N,Net-(D6-Pad2)*%
X183620000Y-144040000D03*
%TO.P,U4,4*%
%TO.N,Net-(C2-Pad2)*%
X176000000Y-149120000D03*
%TO.P,U4,8*%
%TO.N,Net-(C1-Pad1)*%
X183620000Y-141500000D03*
%TD*%
D19*
%TO.P,Q1,2*%
%TO.N,Net-(D1-Pad1)*%
X197270000Y-120000000D03*
%TO.P,Q1,3*%
%TO.N,Net-(Q1-Pad3)*%
X198540000Y-120000000D03*
D20*
%TO.P,Q1,1*%
%TO.N,GND*%
X196000000Y-120000000D03*
%TD*%
D21*
%TO.P,RAMPTRIM1,1*%
%TO.N,Net-(R4-Pad2)*%
X177460000Y-51500000D03*
%TO.P,RAMPTRIM1,2*%
X180000000Y-51500000D03*
%TO.P,RAMPTRIM1,3*%
%TO.N,Net-(R12-Pad2)*%
X182540000Y-51500000D03*
%TD*%
D10*
%TO.P,RV1,1*%
%TO.N,GND*%
X182500000Y-68000000D03*
D11*
%TO.P,RV1,2*%
%TO.N,Net-(R26-Pad2)*%
X180000000Y-68000000D03*
%TO.P,RV1,3*%
%TO.N,Net-(R17-Pad1)*%
X177500000Y-68000000D03*
D22*
%TO.P,RV1,*%
%TO.N,*%
X175200000Y-60500000D03*
X184800000Y-60500000D03*
%TD*%
D10*
%TO.P,RV3,1*%
%TO.N,GND*%
X182500000Y-134500000D03*
D11*
%TO.P,RV3,2*%
%TO.N,Net-(R24-Pad2)*%
X180000000Y-134500000D03*
%TO.P,RV3,3*%
%TO.N,Net-(R18-Pad1)*%
X177500000Y-134500000D03*
D22*
%TO.P,RV3,*%
%TO.N,*%
X175200000Y-127000000D03*
X184800000Y-127000000D03*
%TD*%
%TO.P,RV2,*%
%TO.N,*%
X184800000Y-93000000D03*
X175200000Y-93000000D03*
D11*
%TO.P,RV2,3*%
%TO.N,Net-(R16-Pad1)*%
X177500000Y-100500000D03*
%TO.P,RV2,2*%
%TO.N,Net-(R25-Pad2)*%
X180000000Y-100500000D03*
D10*
%TO.P,RV2,1*%
%TO.N,GND*%
X182500000Y-100500000D03*
%TD*%
D22*
%TO.P,RV4,*%
%TO.N,*%
X184800000Y-28000000D03*
X175200000Y-28000000D03*
D11*
%TO.P,RV4,3*%
%TO.N,Net-(R15-Pad1)*%
X177500000Y-35500000D03*
%TO.P,RV4,2*%
%TO.N,Net-(R23-Pad2)*%
X180000000Y-35500000D03*
D10*
%TO.P,RV4,1*%
%TO.N,GND*%
X182500000Y-35500000D03*
%TD*%
D13*
%TO.P,D5,2*%
%TO.N,Net-(C2-Pad2)*%
X194880000Y-28500000D03*
D12*
%TO.P,D5,1*%
%TO.N,Net-(D5-Pad1)*%
X202500000Y-28500000D03*
%TD*%
D16*
%TO.P,U1,14*%
%TO.N,Net-(C1-Pad1)*%
X188000000Y-115620000D03*
%TO.P,U1,7*%
%TO.N,GND*%
X172760000Y-108000000D03*
%TO.P,U1,13*%
%TO.N,Net-(R4-Pad2)*%
X185460000Y-115620000D03*
%TO.P,U1,6*%
%TO.N,GND*%
X175300000Y-108000000D03*
%TO.P,U1,12*%
%TO.N,Net-(U1-Pad12)*%
X182920000Y-115620000D03*
%TO.P,U1,5*%
%TO.N,Net-(U1-Pad2)*%
X177840000Y-108000000D03*
%TO.P,U1,11*%
%TO.N,Net-(Q1-Pad3)*%
X180380000Y-115620000D03*
%TO.P,U1,4*%
%TO.N,GND*%
X180380000Y-108000000D03*
%TO.P,U1,10*%
X177840000Y-115620000D03*
%TO.P,U1,3*%
%TO.N,Net-(R4-Pad2)*%
X182920000Y-108000000D03*
%TO.P,U1,9*%
%TO.N,Net-(U1-Pad12)*%
X175300000Y-115620000D03*
%TO.P,U1,2*%
%TO.N,Net-(U1-Pad2)*%
X185460000Y-108000000D03*
%TO.P,U1,8*%
%TO.N,GND*%
X172760000Y-115620000D03*
D15*
%TO.P,U1,1*%
%TO.N,Net-(R5-Pad2)*%
X188000000Y-108000000D03*
%TD*%
D23*
%TO.P,SW1,2*%
%TO.N,Net-(C1-Pad1)*%
X194085000Y-145000000D03*
%TO.P,SW1,3*%
%TO.N,Net-(SW1-Pad3)*%
X194085000Y-140300000D03*
%TO.P,SW1,1*%
%TO.N,Net-(D7-Pad2)*%
X194085000Y-149700000D03*
%TO.P,SW1,6*%
%TO.N,Net-(J1-Pad1)*%
X198915000Y-140300000D03*
%TO.P,SW1,5*%
%TO.N,Net-(J3-Pad1)*%
X198915000Y-145000000D03*
%TO.P,SW1,4*%
%TO.N,Net-(R20-Pad2)*%
X198915000Y-149700000D03*
%TD*%
D24*
%TO.P,U3,2*%
%TO.N,GND*%
X180540000Y-42500000D03*
%TO.P,U3,3*%
%TO.N,Net-(CP1-Pad1)*%
X183080000Y-42500000D03*
D25*
%TO.P,U3,1*%
%TO.N,N/C*%
X178000000Y-42500000D03*
%TD*%
D12*
%TO.P,D4,1*%
%TO.N,Net-(C1-Pad1)*%
X195000000Y-58500000D03*
D13*
%TO.P,D4,2*%
%TO.N,Net-(D4-Pad2)*%
X202620000Y-58500000D03*
%TD*%
D10*
%TO.P,RV5,1*%
%TO.N,Net-(R23-Pad1)*%
X182500000Y-169000000D03*
D11*
%TO.P,RV5,2*%
%TO.N,Net-(R20-Pad1)*%
X180000000Y-169000000D03*
%TO.P,RV5,3*%
X177500000Y-169000000D03*
D22*
%TO.P,RV5,*%
%TO.N,*%
X175200000Y-161500000D03*
X184800000Y-161500000D03*
%TD*%
D14*
%TO.P,C1,2*%
%TO.N,GND*%
X191500000Y-47000000D03*
D12*
%TO.P,C1,1*%
%TO.N,Net-(C1-Pad1)*%
X189500000Y-47000000D03*
%TD*%
%TO.P,CP1,1*%
%TO.N,Net-(CP1-Pad1)*%
X162500000Y-87000000D03*
D14*
%TO.P,CP1,2*%
%TO.N,GND*%
X164500000Y-87000000D03*
%TD*%
D12*
%TO.P,C2,1*%
%TO.N,GND*%
X189500000Y-39500000D03*
D14*
%TO.P,C2,2*%
%TO.N,Net-(C2-Pad2)*%
X191500000Y-39500000D03*
%TD*%
D13*
%TO.P,R5,2*%
%TO.N,Net-(R5-Pad2)*%
X201120000Y-112500000D03*
D14*
%TO.P,R5,1*%
%TO.N,Net-(D3-Pad2)*%
X193500000Y-112500000D03*
%TD*%
%TO.P,R6,1*%
%TO.N,Net-(R15-Pad2)*%
X159500000Y-58500000D03*
D13*
%TO.P,R6,2*%
%TO.N,Net-(D2-Pad2)*%
X167120000Y-58500000D03*
%TD*%
%TO.P,R7,2*%
%TO.N,Net-(CP1-Pad1)*%
X167120000Y-47500000D03*
D14*
%TO.P,R7,1*%
%TO.N,Net-(R15-Pad2)*%
X159500000Y-47500000D03*
%TD*%
%TO.P,R8,1*%
%TO.N,Net-(R18-Pad2)*%
X193500000Y-85000000D03*
D13*
%TO.P,R8,2*%
%TO.N,Net-(D2-Pad1)*%
X201120000Y-85000000D03*
%TD*%
%TO.P,R9,2*%
%TO.N,Net-(CP1-Pad1)*%
X167120000Y-63500000D03*
D14*
%TO.P,R9,1*%
%TO.N,Net-(R18-Pad2)*%
X159500000Y-63500000D03*
%TD*%
D13*
%TO.P,R10,2*%
%TO.N,Net-(D3-Pad2)*%
X201120000Y-106500000D03*
D14*
%TO.P,R10,1*%
%TO.N,Net-(R10-Pad1)*%
X193500000Y-106500000D03*
%TD*%
%TO.P,R11,1*%
%TO.N,Net-(R10-Pad1)*%
X159675001Y-74500000D03*
D13*
%TO.P,R11,2*%
%TO.N,Net-(CP1-Pad1)*%
X167295001Y-74500000D03*
%TD*%
%TO.P,R12,2*%
%TO.N,Net-(R12-Pad2)*%
X167120000Y-31000000D03*
D14*
%TO.P,R12,1*%
%TO.N,Net-(R12-Pad1)*%
X159500000Y-31000000D03*
%TD*%
%TO.P,R13,1*%
%TO.N,Net-(R12-Pad1)*%
X193500000Y-133000000D03*
D13*
%TO.P,R13,2*%
%TO.N,Net-(J1-Pad1)*%
X201120000Y-133000000D03*
%TD*%
D14*
%TO.P,R14,1*%
%TO.N,Net-(R12-Pad1)*%
X159500000Y-36500000D03*
D13*
%TO.P,R14,2*%
%TO.N,Net-(CP1-Pad1)*%
X167120000Y-36500000D03*
%TD*%
%TO.P,R15,2*%
%TO.N,Net-(R15-Pad2)*%
X167120000Y-53000000D03*
D14*
%TO.P,R15,1*%
%TO.N,Net-(R15-Pad1)*%
X159500000Y-53000000D03*
%TD*%
D13*
%TO.P,R16,2*%
%TO.N,Net-(R10-Pad1)*%
X167120000Y-69000000D03*
D14*
%TO.P,R16,1*%
%TO.N,Net-(R16-Pad1)*%
X159500000Y-69000000D03*
%TD*%
%TO.P,R17,1*%
%TO.N,Net-(R17-Pad1)*%
X159500000Y-42000000D03*
D13*
%TO.P,R17,2*%
%TO.N,Net-(R12-Pad1)*%
X167120000Y-42000000D03*
%TD*%
D14*
%TO.P,R18,1*%
%TO.N,Net-(R18-Pad1)*%
X159500000Y-94500000D03*
D13*
%TO.P,R18,2*%
%TO.N,Net-(R18-Pad2)*%
X167120000Y-94500000D03*
%TD*%
%TO.P,R19,2*%
%TO.N,Net-(CP1-Pad1)*%
X194880000Y-24500000D03*
D14*
%TO.P,R19,1*%
%TO.N,Net-(C2-Pad2)*%
X202500000Y-24500000D03*
%TD*%
D13*
%TO.P,R20,2*%
%TO.N,Net-(R20-Pad2)*%
X167620000Y-129000000D03*
D14*
%TO.P,R20,1*%
%TO.N,Net-(R20-Pad1)*%
X160000000Y-129000000D03*
%TD*%
%TO.P,R21,1*%
%TO.N,Net-(D6-Pad1)*%
X167500000Y-121500000D03*
D13*
%TO.P,R21,2*%
%TO.N,GND*%
X159880000Y-121500000D03*
%TD*%
D14*
%TO.P,R22,1*%
%TO.N,GND*%
X160000000Y-136500000D03*
D13*
%TO.P,R22,2*%
%TO.N,Net-(D7-Pad1)*%
X167620000Y-136500000D03*
%TD*%
%TO.P,R23,2*%
%TO.N,Net-(R23-Pad2)*%
X201120000Y-63500000D03*
D14*
%TO.P,R23,1*%
%TO.N,Net-(R23-Pad1)*%
X193500000Y-63500000D03*
%TD*%
%TO.P,R24,1*%
%TO.N,Net-(R23-Pad1)*%
X193500000Y-79500000D03*
D13*
%TO.P,R24,2*%
%TO.N,Net-(R24-Pad2)*%
X201120000Y-79500000D03*
%TD*%
%TO.P,R25,2*%
%TO.N,Net-(R25-Pad2)*%
X201120000Y-74000000D03*
D14*
%TO.P,R25,1*%
%TO.N,Net-(R23-Pad1)*%
X193500000Y-74000000D03*
%TD*%
%TO.P,R26,1*%
%TO.N,Net-(R23-Pad1)*%
X193500000Y-68500000D03*
D13*
%TO.P,R26,2*%
%TO.N,Net-(R26-Pad2)*%
X201120000Y-68500000D03*
%TD*%
D14*
%TO.P,C3,1*%
%TO.N,GND*%
X180000000Y-151500000D03*
%TO.P,C3,2*%
%TO.N,Net-(C1-Pad1)*%
X180000000Y-146500000D03*
%TD*%
%TO.P,C4,2*%
%TO.N,GND*%
X182000000Y-79000000D03*
%TO.P,C4,1*%
%TO.N,Net-(C2-Pad2)*%
X187000000Y-79000000D03*
%TD*%
%TO.P,C5,1*%
%TO.N,GND*%
X185500000Y-112000000D03*
%TO.P,C5,2*%
%TO.N,Net-(C1-Pad1)*%
X180500000Y-112000000D03*
%TD*%
%TO.P,C6,1*%
%TO.N,Net-(C2-Pad2)*%
X180000000Y-143500000D03*
%TO.P,C6,2*%
%TO.N,GND*%
X180000000Y-138500000D03*
%TD*%
%TO.P,C7,2*%
%TO.N,Net-(C1-Pad1)*%
X174000000Y-79000000D03*
%TO.P,C7,1*%
%TO.N,GND*%
X179000000Y-79000000D03*
%TD*%
%TO.P,Output,1*%
%TO.N,Net-(J3-Pad1)*%
%TA.AperFunction,ComponentPad*%
G36*
G01*
X160630000Y-165850001D02*
X160630000Y-164149999D01*
G75*
G02*
X160879999Y-163900000I249999J0D01*
G01*
X162120001Y-163900000D01*
G75*
G02*
X162370000Y-164149999I0J-249999D01*
G01*
X162370000Y-165850001D01*
G75*
G02*
X162120001Y-166100000I-249999J0D01*
G01*
X160879999Y-166100000D01*
G75*
G02*
X160630000Y-165850001I0J249999D01*
G01*
G37*
%TD.AperFunction*%
D26*
%TO.P,Output,2*%
%TO.N,GND*%
X164040000Y-165000000D03*
%TD*%
D27*
%TO.P,J2,1*%
%TO.N,Net-(D5-Pad1)*%
X197500000Y-38500000D03*
D28*
%TO.P,J2,2*%
X200040000Y-38500000D03*
%TO.P,J2,3*%
%TO.N,GND*%
X197500000Y-41040000D03*
%TO.P,J2,4*%
X200040000Y-41040000D03*
%TO.P,J2,5*%
X197500000Y-43580000D03*
%TO.P,J2,6*%
X200040000Y-43580000D03*
%TO.P,J2,7*%
X197500000Y-46120000D03*
%TO.P,J2,8*%
X200040000Y-46120000D03*
%TO.P,J2,9*%
%TO.N,Net-(D4-Pad2)*%
X197500000Y-48660000D03*
%TO.P,J2,10*%
X200040000Y-48660000D03*
%TD*%
D13*
%TO.P,D2,2*%
%TO.N,Net-(D2-Pad2)*%
X201120000Y-95500000D03*
D12*
%TO.P,D2,1*%
%TO.N,Net-(D2-Pad1)*%
X193500000Y-95500000D03*
%TD*%
D11*
%TO.P,D7,2*%
%TO.N,Net-(D7-Pad2)*%
X162960000Y-145500000D03*
D10*
%TO.P,D7,1*%
%TO.N,Net-(D7-Pad1)*%
X165500000Y-145500000D03*
%TD*%
D26*
%TO.P,Input,2*%
%TO.N,GND*%
X199540000Y-165000000D03*
%TO.P,Input,1*%
%TO.N,Net-(J1-Pad1)*%
%TA.AperFunction,ComponentPad*%
G36*
G01*
X196130000Y-165850001D02*
X196130000Y-164149999D01*
G75*
G02*
X196379999Y-163900000I249999J0D01*
G01*
X197620001Y-163900000D01*
G75*
G02*
X197870000Y-164149999I0J-249999D01*
G01*
X197870000Y-165850001D01*
G75*
G02*
X197620001Y-166100000I-249999J0D01*
G01*
X196379999Y-166100000D01*
G75*
G02*
X196130000Y-165850001I0J249999D01*
G01*
G37*
%TD.AperFunction*%
%TD*%
D29*
%TO.N,GND*%
X174500000Y-133000000D03*
X178000000Y-136500000D03*
X185000000Y-154000000D03*
X187500000Y-145000000D03*
%TO.N,Net-(C1-Pad1)*%
X181225001Y-65599978D03*
X191500000Y-123000000D03*
%TO.N,Net-(C2-Pad2)*%
X181500000Y-149000000D03*
X188500000Y-77500000D03*
X185000000Y-85500000D03*
X188500000Y-85000000D03*
%TO.N,Net-(D2-Pad2)*%
X177500000Y-80500000D03*
X177000000Y-78000000D03*
%TO.N,Net-(D6-Pad1)*%
X178336634Y-144836634D03*
%TO.N,Net-(R18-Pad2)*%
X180000000Y-86500000D03*
X189500000Y-86500000D03*
X184500000Y-86500000D03*
X177500000Y-85500000D03*
%TO.N,Net-(R12-Pad1)*%
X171000000Y-56500000D03*
%TO.N,Net-(R23-Pad1)*%
X172737340Y-132262660D03*
X192374999Y-114874999D03*
X176000000Y-130000000D03*
X182000000Y-119500000D03*
X181274999Y-131225001D03*
%TO.N,Net-(U1-Pad2)*%
X178500000Y-104500000D03*
X185000000Y-104500000D03*
%TD*%
D30*
%TO.N,GND*%
X184380000Y-112000000D02*
X180380000Y-108000000D01*
X183420000Y-82620000D02*
X183420000Y-80420000D01*
X163000000Y-121500000D02*
X159880000Y-121500000D01*
X180000000Y-137000000D02*
X182500000Y-134500000D01*
X191500000Y-47000000D02*
X196620000Y-47000000D01*
X176825010Y-106474990D02*
X175300000Y-108000000D01*
X180380000Y-108000000D02*
X178854990Y-106474990D01*
X196620000Y-47000000D02*
X197500000Y-46120000D01*
X180000000Y-138500000D02*
X178000000Y-136500000D01*
X174500000Y-133000000D02*
X163000000Y-121500000D01*
X185500000Y-112000000D02*
X184380000Y-112000000D01*
X180000000Y-138500000D02*
X180000000Y-137000000D01*
X178000000Y-136500000D02*
X178000000Y-136500000D01*
X178854990Y-106474990D02*
X176825010Y-106474990D01*
X183420000Y-80420000D02*
X182000000Y-79000000D01*
X182094990Y-140594990D02*
X182094990Y-141965994D01*
X178340000Y-82620000D02*
X178120000Y-82620000D01*
X159423588Y-34274999D02*
X181274999Y-34274999D01*
X185125010Y-142625010D02*
X187500000Y-145000000D01*
X157500000Y-70380000D02*
X157500000Y-36198587D01*
X182094990Y-141965994D02*
X182754006Y-142625010D01*
X187500000Y-145000000D02*
X187500000Y-145000000D01*
X181274999Y-34274999D02*
X182500000Y-35500000D01*
X182000000Y-79000000D02*
X182000000Y-76507414D01*
X183420000Y-75087414D02*
X183420000Y-75000000D01*
X183420000Y-75000000D02*
X183420000Y-68920000D01*
X176000000Y-80500000D02*
X176000000Y-80000000D01*
X180000000Y-138500000D02*
X182094990Y-140594990D01*
X185000000Y-154000000D02*
X182500000Y-154000000D01*
X178500000Y-79500000D02*
X179000000Y-79000000D01*
X182500000Y-154000000D02*
X180000000Y-151500000D01*
X157500000Y-36198587D02*
X159423588Y-34274999D01*
X167120000Y-80000000D02*
X157500000Y-70380000D01*
X178120000Y-82620000D02*
X176000000Y-80500000D01*
X183420000Y-68920000D02*
X182500000Y-68000000D01*
X176500000Y-79500000D02*
X178500000Y-79500000D01*
X176000000Y-80000000D02*
X176500000Y-79500000D01*
X182754006Y-142625010D02*
X185125010Y-142625010D01*
X182000000Y-76507414D02*
X183420000Y-75087414D01*
%TO.N,Net-(C1-Pad1)*%
X180880000Y-75000000D02*
X180880000Y-75400000D01*
X177280000Y-79000000D02*
X174000000Y-79000000D01*
X188000000Y-115620000D02*
X187451004Y-115620000D01*
X180880000Y-75400000D02*
X177280000Y-79000000D01*
X187451004Y-115620000D02*
X185925994Y-114094990D01*
X191500000Y-137000000D02*
X191500000Y-123000000D01*
X183620000Y-141500000D02*
X183725001Y-141394999D01*
X195000000Y-59550000D02*
X188950022Y-65599978D01*
X187105001Y-141394999D02*
X191500000Y-137000000D01*
X195000000Y-58500000D02*
X195000000Y-59550000D01*
X181594990Y-114094990D02*
X180500000Y-113000000D01*
X180500000Y-113000000D02*
X180500000Y-112000000D01*
X183725001Y-141394999D02*
X187105001Y-141394999D01*
X191500000Y-123000000D02*
X191500000Y-123000000D01*
X188950022Y-65599978D02*
X181225001Y-65599978D01*
X185925994Y-114094990D02*
X181594990Y-114094990D01*
%TO.N,Net-(C2-Pad2)*%
X176120000Y-149000000D02*
X176000000Y-149120000D01*
X181500000Y-149000000D02*
X176120000Y-149000000D01*
X194880000Y-28500000D02*
X198500000Y-28500000D01*
X198500000Y-28500000D02*
X202500000Y-24500000D01*
X189625010Y-83874990D02*
X188500000Y-85000000D01*
X188500000Y-85000000D02*
X188500000Y-85000000D01*
X183760000Y-85500000D02*
X180880000Y-82620000D01*
X185000000Y-85500000D02*
X183760000Y-85500000D01*
X188500000Y-77500000D02*
X189625010Y-78625010D01*
X189625010Y-78625010D02*
X189625010Y-83874990D01*
%TO.N,Net-(D1-Pad1)*%
X176223997Y-121075001D02*
X166725001Y-111576005D01*
X197270000Y-120000000D02*
X197270000Y-121000000D01*
X197194999Y-121075001D02*
X176223997Y-121075001D01*
X166725001Y-108725001D02*
X159500000Y-101500000D01*
X166725001Y-111576005D02*
X166725001Y-108725001D01*
X159500000Y-101500000D02*
X159500000Y-100500000D01*
X197270000Y-121000000D02*
X197194999Y-121075001D01*
%TO.N,Net-(D2-Pad2)*%
X179465010Y-75865994D02*
X177331004Y-78000000D01*
X179465010Y-75576014D02*
X179465010Y-71778012D01*
X184545010Y-67660008D02*
X183660001Y-66774999D01*
X180414006Y-79250996D02*
X179165002Y-80500000D01*
X177500000Y-80500000D02*
X177500000Y-80500000D01*
X175500000Y-66880000D02*
X167120000Y-58500000D01*
X192374999Y-99874999D02*
X192374999Y-91026003D01*
X175500000Y-67813002D02*
X175500000Y-66880000D01*
X177000000Y-78000000D02*
X177000000Y-78000000D01*
X195620000Y-101000000D02*
X201120000Y-95500000D01*
X180414006Y-77456998D02*
X180414006Y-79250996D01*
X177331004Y-78000000D02*
X177000000Y-78000000D01*
X179465010Y-71778012D02*
X175500000Y-67813002D01*
X193500000Y-101000000D02*
X195620000Y-101000000D01*
X179465010Y-75576014D02*
X179465010Y-75865994D01*
X184545010Y-83196014D02*
X184545010Y-67660008D01*
X182294990Y-75576014D02*
X180414006Y-77456998D01*
X181339999Y-66774999D02*
X181274999Y-66839999D01*
X181274999Y-66839999D02*
X181274999Y-73114015D01*
X179165002Y-80500000D02*
X177500000Y-80500000D01*
X181274999Y-73114015D02*
X182294990Y-74134006D01*
X182294990Y-74134006D02*
X182294990Y-75576014D01*
X183660001Y-66774999D02*
X181339999Y-66774999D01*
X193500000Y-101000000D02*
X192374999Y-99874999D01*
X192374999Y-91026003D02*
X184545010Y-83196014D01*
%TO.N,Net-(D2-Pad1)*%
X193500000Y-90500000D02*
X195620000Y-90500000D01*
X195620000Y-90500000D02*
X201120000Y-85000000D01*
%TO.N,Net-(D6-Pad1)*%
X183620000Y-146580000D02*
X182170000Y-146580000D01*
X182170000Y-146580000D02*
X180426634Y-144836634D01*
X180426634Y-144836634D02*
X178336634Y-144836634D01*
%TO.N,Net-(D6-Pad2)*%
X183620000Y-144040000D02*
X182170000Y-144040000D01*
X181644979Y-143514979D02*
X181644979Y-142064979D01*
X176274999Y-136694999D02*
X176274999Y-131940001D01*
X181644979Y-142064979D02*
X176274999Y-136694999D01*
X176274999Y-131940001D02*
X162960000Y-118625002D01*
X182170000Y-144040000D02*
X181644979Y-143514979D01*
X162960000Y-118625002D02*
X162960000Y-112772792D01*
X162960000Y-112772792D02*
X162960000Y-111500000D01*
%TO.N,Net-(D7-Pad2)*%
X165005010Y-147994990D02*
X162960000Y-145949980D01*
X194085000Y-149700000D02*
X192379990Y-147994990D01*
X162960000Y-145949980D02*
X162960000Y-145500000D01*
X192379990Y-147994990D02*
X165005010Y-147994990D01*
%TO.N,Net-(D5-Pad1)*%
X197500000Y-38500000D02*
X200040000Y-38500000D01*
%TO.N,Net-(D4-Pad2)*%
X200040000Y-48660000D02*
X197500000Y-48660000D01*
%TO.N,Net-(J3-Pad1)*%
X162925010Y-166425010D02*
X191074990Y-166425010D01*
X191074990Y-166425010D02*
X200790001Y-156709999D01*
X200790001Y-156709999D02*
X200790001Y-146875001D01*
X161500000Y-165000000D02*
X162925010Y-166425010D01*
X200790001Y-146875001D02*
X198915000Y-145000000D01*
%TO.N,Net-(Q1-Pad3)*%
X198540000Y-120000000D02*
X198540000Y-119000000D01*
X198540000Y-119000000D02*
X193634990Y-114094990D01*
X161511409Y-99374999D02*
X171686399Y-109549989D01*
X156549989Y-150049989D02*
X156549989Y-101265009D01*
X175759989Y-109549989D02*
X180380000Y-114170000D01*
X193634990Y-114094990D02*
X186731400Y-114094990D01*
X160500000Y-154000000D02*
X156549989Y-150049989D01*
X179374999Y-111459999D02*
X179374999Y-113164999D01*
X179374999Y-113164999D02*
X180380000Y-114170000D01*
X181040001Y-110874999D02*
X179959999Y-110874999D01*
X183809981Y-113644979D02*
X181040001Y-110874999D01*
X186281389Y-113644979D02*
X183809981Y-113644979D01*
X179959999Y-110874999D02*
X179374999Y-111459999D01*
X156549989Y-101265009D02*
X158439999Y-99374999D01*
X171686399Y-109549989D02*
X175759989Y-109549989D01*
X186731400Y-114094990D02*
X186281389Y-113644979D01*
X158439999Y-99374999D02*
X161511409Y-99374999D01*
X180380000Y-114170000D02*
X180380000Y-115620000D01*
%TO.N,Net-(R4-Pad2)*%
X180000000Y-51500000D02*
X177460000Y-51500000D01*
X191809988Y-106474990D02*
X192959999Y-107625001D01*
X184445010Y-106474990D02*
X191809988Y-106474990D01*
X182920000Y-108000000D02*
X184445010Y-106474990D01*
X201120000Y-102380000D02*
X201120000Y-101000000D01*
X192959999Y-107625001D02*
X195874999Y-107625001D01*
X195874999Y-107625001D02*
X201120000Y-102380000D01*
%TO.N,Net-(R5-Pad2)*%
X192698587Y-108000000D02*
X188000000Y-108000000D01*
X201120000Y-112500000D02*
X197198587Y-112500000D01*
X197198587Y-112500000D02*
X192698587Y-108000000D01*
%TO.N,Net-(CP1-Pad1)*%
X167120000Y-47500000D02*
X178080000Y-47500000D01*
X178080000Y-47500000D02*
X183080000Y-42500000D01*
%TO.N,Net-(R18-Pad2)*%
X189500000Y-86500000D02*
X189500000Y-86500000D01*
X168000000Y-86500000D02*
X168000000Y-93620000D01*
X193500000Y-85000000D02*
X191000000Y-85000000D01*
X175800000Y-75000000D02*
X174274990Y-73474990D01*
X169474990Y-73474990D02*
X159500000Y-63500000D01*
X180000000Y-86500000D02*
X180000000Y-86500000D01*
X169000000Y-85500000D02*
X168000000Y-86500000D01*
X181000000Y-86500000D02*
X180000000Y-86500000D01*
X184500000Y-86500000D02*
X181000000Y-86500000D01*
X191000000Y-85000000D02*
X189500000Y-86500000D01*
X168000000Y-93620000D02*
X167120000Y-94500000D01*
X174274990Y-73474990D02*
X169474990Y-73474990D01*
X177500000Y-85500000D02*
X169000000Y-85500000D01*
%TO.N,Net-(R10-Pad1)*%
X178725001Y-85545001D02*
X175800000Y-82620000D01*
X178725001Y-101225001D02*
X178725001Y-85545001D01*
X175800000Y-82620000D02*
X172874999Y-79694999D01*
X188725001Y-101725001D02*
X179225001Y-101725001D01*
X171791004Y-69000000D02*
X167120000Y-69000000D01*
X175549989Y-77813600D02*
X176925010Y-76438579D01*
X179225001Y-101725001D02*
X178725001Y-101225001D01*
X176925010Y-76438579D02*
X176925010Y-74134006D01*
X173521398Y-77813600D02*
X175549989Y-77813600D01*
X193500000Y-106500000D02*
X188725001Y-101725001D01*
X176925010Y-74134006D02*
X171791004Y-69000000D01*
X172874999Y-78459999D02*
X173521398Y-77813600D01*
X172874999Y-79694999D02*
X172874999Y-78459999D01*
%TO.N,Net-(R12-Pad1)*%
X167120000Y-42000000D02*
X165994999Y-43125001D01*
X165994999Y-54173601D02*
X165994999Y-54494999D01*
X165994999Y-54494999D02*
X168000000Y-56500000D01*
X165994999Y-43125001D02*
X165994999Y-54173601D01*
X168000000Y-56500000D02*
X171000000Y-56500000D01*
X171000000Y-56500000D02*
X171000000Y-56500000D01*
X167120000Y-42000000D02*
X165000000Y-42000000D01*
X165000000Y-42000000D02*
X159500000Y-36500000D01*
%TO.N,Net-(R15-Pad1)*%
X158374999Y-51874999D02*
X159500000Y-53000000D01*
X176725010Y-34725010D02*
X159609987Y-34725010D01*
X177500000Y-35500000D02*
X176725010Y-34725010D01*
X158374999Y-35959998D02*
X158374999Y-51874999D01*
X159609987Y-34725010D02*
X158374999Y-35959998D01*
%TO.N,Net-(R16-Pad1)*%
X173120000Y-82620000D02*
X173260000Y-82620000D01*
X159500000Y-69000000D02*
X173120000Y-82620000D01*
%TO.N,Net-(R17-Pad1)*%
X177500000Y-66727208D02*
X160625001Y-49852209D01*
X177500000Y-68000000D02*
X177500000Y-66727208D01*
X160625001Y-49852209D02*
X160625001Y-43125001D01*
X160625001Y-43125001D02*
X159500000Y-42000000D01*
%TO.N,Net-(R20-Pad2)*%
X195115000Y-153500000D02*
X198915000Y-149700000D01*
X183620000Y-149620000D02*
X187500000Y-153500000D01*
X183620000Y-149120000D02*
X183620000Y-149620000D01*
X187500000Y-153500000D02*
X195115000Y-153500000D01*
%TO.N,Net-(R23-Pad1)*%
X177225001Y-131225001D02*
X176000000Y-130000000D01*
X181274999Y-131225001D02*
X177225001Y-131225001D01*
X182000000Y-119500000D02*
X182000000Y-119500000D01*
X187749998Y-119500000D02*
X182000000Y-119500000D01*
X172737340Y-142227340D02*
X172737340Y-132262660D01*
X192374999Y-114874999D02*
X187749998Y-119500000D01*
X176000000Y-144040000D02*
X174550000Y-144040000D01*
X174550000Y-144040000D02*
X172737340Y-142227340D01*
X176000000Y-130000000D02*
X176000000Y-130000000D01*
%TO.N,Net-(R23-Pad2)*%
X203745001Y-61754999D02*
X202000000Y-63500000D01*
X180000000Y-35500000D02*
X181225001Y-36725001D01*
X181225001Y-36725001D02*
X200225001Y-36725001D01*
X203745001Y-40245001D02*
X203745001Y-61754999D01*
X200225001Y-36725001D02*
X203745001Y-40245001D01*
X202000000Y-63500000D02*
X201120000Y-63500000D01*
%TO.N,Net-(R25-Pad2)*%
X202500000Y-75380000D02*
X201120000Y-74000000D01*
X202500000Y-97954998D02*
X202500000Y-75380000D01*
X180000000Y-100500000D02*
X181225001Y-99274999D01*
X198329997Y-102125001D02*
X202500000Y-97954998D01*
X190109997Y-99274999D02*
X192959999Y-102125001D01*
X192959999Y-102125001D02*
X198329997Y-102125001D01*
X181225001Y-99274999D02*
X190109997Y-99274999D01*
%TO.N,Net-(R26-Pad2)*%
X180000000Y-66727208D02*
X180000000Y-68000000D01*
X180402220Y-66324988D02*
X180000000Y-66727208D01*
X201120000Y-68500000D02*
X198944988Y-66324988D01*
X198944988Y-66324988D02*
X180402220Y-66324988D01*
%TO.N,Net-(U1-Pad12)*%
X175300000Y-115620000D02*
X176825010Y-117145010D01*
X176825010Y-117145010D02*
X181394990Y-117145010D01*
X181394990Y-117145010D02*
X182920000Y-115620000D01*
%TO.N,Net-(U1-Pad2)*%
X178500000Y-104500000D02*
X178500000Y-104500000D01*
X185000000Y-104500000D02*
X178500000Y-104500000D01*
%TD*%
D31*
%TO.N,Net-(C1-Pad1)*%
X166005363Y-35585241D02*
X165848320Y-35820273D01*
X165740147Y-36081426D01*
X165685000Y-36358665D01*
X165685000Y-36641335D01*
X165740147Y-36918574D01*
X165848320Y-37179727D01*
X166005363Y-37414759D01*
X166205241Y-37614637D01*
X166440273Y-37771680D01*
X166701426Y-37879853D01*
X166978665Y-37935000D01*
X167261335Y-37935000D01*
X167538574Y-37879853D01*
X167799727Y-37771680D01*
X168034759Y-37614637D01*
X168234637Y-37414759D01*
X168391680Y-37179727D01*
X168499853Y-36918574D01*
X168555000Y-36641335D01*
X168555000Y-36358665D01*
X168499853Y-36081426D01*
X168391680Y-35820273D01*
X168234637Y-35585241D01*
X168134406Y-35485010D01*
X175965000Y-35485010D01*
X175965000Y-35651184D01*
X176023989Y-35947743D01*
X176139701Y-36227095D01*
X176307688Y-36478505D01*
X176521495Y-36692312D01*
X176772905Y-36860299D01*
X177052257Y-36976011D01*
X177348816Y-37035000D01*
X177651184Y-37035000D01*
X177947743Y-36976011D01*
X178227095Y-36860299D01*
X178478505Y-36692312D01*
X178692312Y-36478505D01*
X178750000Y-36392169D01*
X178807688Y-36478505D01*
X179021495Y-36692312D01*
X179272905Y-36860299D01*
X179552257Y-36976011D01*
X179848816Y-37035000D01*
X180151184Y-37035000D01*
X180408930Y-36983731D01*
X180661201Y-37236003D01*
X180685000Y-37265002D01*
X180713998Y-37288800D01*
X180800724Y-37359975D01*
X180861050Y-37392220D01*
X180932754Y-37430547D01*
X181076015Y-37474004D01*
X181187668Y-37485001D01*
X181187677Y-37485001D01*
X181225000Y-37488677D01*
X181262323Y-37485001D01*
X196018753Y-37485001D01*
X196010588Y-37511918D01*
X195998328Y-37636400D01*
X195998328Y-39363600D01*
X196010588Y-39488082D01*
X196046898Y-39607780D01*
X196105863Y-39718094D01*
X196185215Y-39814785D01*
X196281906Y-39894137D01*
X196392220Y-39953102D01*
X196450023Y-39970636D01*
X196335961Y-40084698D01*
X196171958Y-40330147D01*
X196058990Y-40602875D01*
X196001400Y-40892401D01*
X196001400Y-41187599D01*
X196058990Y-41477125D01*
X196171958Y-41749853D01*
X196335961Y-41995302D01*
X196544698Y-42204039D01*
X196703281Y-42310000D01*
X196544698Y-42415961D01*
X196335961Y-42624698D01*
X196171958Y-42870147D01*
X196058990Y-43142875D01*
X196001400Y-43432401D01*
X196001400Y-43727599D01*
X196058990Y-44017125D01*
X196171958Y-44289853D01*
X196335961Y-44535302D01*
X196544698Y-44744039D01*
X196703281Y-44850000D01*
X196544698Y-44955961D01*
X196335961Y-45164698D01*
X196171958Y-45410147D01*
X196058990Y-45682875D01*
X196001400Y-45972401D01*
X196001400Y-46240000D01*
X192718043Y-46240000D01*
X192614637Y-46085241D01*
X192414759Y-45885363D01*
X192179727Y-45728320D01*
X191918574Y-45620147D01*
X191641335Y-45565000D01*
X191358665Y-45565000D01*
X191081426Y-45620147D01*
X190820273Y-45728320D01*
X190764790Y-45765393D01*
X190751185Y-45748815D01*
X190654494Y-45669463D01*
X190544180Y-45610498D01*
X190424482Y-45574188D01*
X190300000Y-45561928D01*
X189785750Y-45565000D01*
X189627000Y-45723750D01*
X189627000Y-46873000D01*
X189647000Y-46873000D01*
X189647000Y-47127000D01*
X189627000Y-47127000D01*
X189627000Y-48276250D01*
X189785750Y-48435000D01*
X190300000Y-48438072D01*
X190424482Y-48425812D01*
X190544180Y-48389502D01*
X190654494Y-48330537D01*
X190751185Y-48251185D01*
X190764790Y-48234607D01*
X190820273Y-48271680D01*
X191081426Y-48379853D01*
X191358665Y-48435000D01*
X191641335Y-48435000D01*
X191918574Y-48379853D01*
X192179727Y-48271680D01*
X192414759Y-48114637D01*
X192614637Y-47914759D01*
X192718043Y-47760000D01*
X196299010Y-47760000D01*
X196171958Y-47950147D01*
X196058990Y-48222875D01*
X196001400Y-48512401D01*
X196001400Y-48807599D01*
X196058990Y-49097125D01*
X196171958Y-49369853D01*
X196335961Y-49615302D01*
X196544698Y-49824039D01*
X196790147Y-49988042D01*
X197062875Y-50101010D01*
X197352401Y-50158600D01*
X197647599Y-50158600D01*
X197937125Y-50101010D01*
X198209853Y-49988042D01*
X198455302Y-49824039D01*
X198664039Y-49615302D01*
X198770000Y-49456719D01*
X198875961Y-49615302D01*
X199084698Y-49824039D01*
X199330147Y-49988042D01*
X199602875Y-50101010D01*
X199892401Y-50158600D01*
X200187599Y-50158600D01*
X200477125Y-50101010D01*
X200749853Y-49988042D01*
X200995302Y-49824039D01*
X201204039Y-49615302D01*
X201368042Y-49369853D01*
X201481010Y-49097125D01*
X201538600Y-48807599D01*
X201538600Y-48512401D01*
X201481010Y-48222875D01*
X201368042Y-47950147D01*
X201204039Y-47704698D01*
X200995302Y-47495961D01*
X200836719Y-47390000D01*
X200995302Y-47284039D01*
X201204039Y-47075302D01*
X201368042Y-46829853D01*
X201481010Y-46557125D01*
X201538600Y-46267599D01*
X201538600Y-45972401D01*
X201481010Y-45682875D01*
X201368042Y-45410147D01*
X201204039Y-45164698D01*
X200995302Y-44955961D01*
X200836719Y-44850000D01*
X200995302Y-44744039D01*
X201204039Y-44535302D01*
X201368042Y-44289853D01*
X201481010Y-44017125D01*
X201538600Y-43727599D01*
X201538600Y-43432401D01*
X201481010Y-43142875D01*
X201368042Y-42870147D01*
X201204039Y-42624698D01*
X200995302Y-42415961D01*
X200836719Y-42310000D01*
X200995302Y-42204039D01*
X201204039Y-41995302D01*
X201368042Y-41749853D01*
X201481010Y-41477125D01*
X201538600Y-41187599D01*
X201538600Y-40892401D01*
X201481010Y-40602875D01*
X201368042Y-40330147D01*
X201204039Y-40084698D01*
X200995302Y-39875961D01*
X200836719Y-39770000D01*
X200995302Y-39664039D01*
X201204039Y-39455302D01*
X201368042Y-39209853D01*
X201446247Y-39021049D01*
X202985001Y-40559803D01*
X202985002Y-57109491D01*
X202761335Y-57065000D01*
X202478665Y-57065000D01*
X202201426Y-57120147D01*
X201940273Y-57228320D01*
X201705241Y-57385363D01*
X201505363Y-57585241D01*
X201348320Y-57820273D01*
X201240147Y-58081426D01*
X201185000Y-58358665D01*
X201185000Y-58641335D01*
X201240147Y-58918574D01*
X201348320Y-59179727D01*
X201505363Y-59414759D01*
X201705241Y-59614637D01*
X201940273Y-59771680D01*
X202201426Y-59879853D01*
X202478665Y-59935000D01*
X202761335Y-59935000D01*
X202985002Y-59890509D01*
X202985002Y-61440196D01*
X202037297Y-62387901D01*
X202034759Y-62385363D01*
X201799727Y-62228320D01*
X201538574Y-62120147D01*
X201261335Y-62065000D01*
X200978665Y-62065000D01*
X200701426Y-62120147D01*
X200440273Y-62228320D01*
X200205241Y-62385363D01*
X200005363Y-62585241D01*
X199848320Y-62820273D01*
X199740147Y-63081426D01*
X199685000Y-63358665D01*
X199685000Y-63641335D01*
X199740147Y-63918574D01*
X199848320Y-64179727D01*
X200005363Y-64414759D01*
X200205241Y-64614637D01*
X200440273Y-64771680D01*
X200701426Y-64879853D01*
X200978665Y-64935000D01*
X201261335Y-64935000D01*
X201538574Y-64879853D01*
X201799727Y-64771680D01*
X202034759Y-64614637D01*
X202234637Y-64414759D01*
X202391680Y-64179727D01*
X202406219Y-64144626D01*
X202424276Y-64134974D01*
X202540001Y-64040001D01*
X202563804Y-64010997D01*
X203840000Y-62734801D01*
X203840001Y-170840000D01*
X156160000Y-170840000D01*
X156160000Y-168848816D01*
X175965000Y-168848816D01*
X175965000Y-169151184D01*
X176023989Y-169447743D01*
X176139701Y-169727095D01*
X176307688Y-169978505D01*
X176521495Y-170192312D01*
X176772905Y-170360299D01*
X177052257Y-170476011D01*
X177348816Y-170535000D01*
X177651184Y-170535000D01*
X177947743Y-170476011D01*
X178227095Y-170360299D01*
X178478505Y-170192312D01*
X178692312Y-169978505D01*
X178750000Y-169892169D01*
X178807688Y-169978505D01*
X179021495Y-170192312D01*
X179272905Y-170360299D01*
X179552257Y-170476011D01*
X179848816Y-170535000D01*
X180151184Y-170535000D01*
X180447743Y-170476011D01*
X180727095Y-170360299D01*
X180978505Y-170192312D01*
X181016120Y-170154697D01*
X181069463Y-170254494D01*
X181148815Y-170351185D01*
X181245506Y-170430537D01*
X181355820Y-170489502D01*
X181475518Y-170525812D01*
X181600000Y-170538072D01*
X183400000Y-170538072D01*
X183524482Y-170525812D01*
X183644180Y-170489502D01*
X183754494Y-170430537D01*
X183851185Y-170351185D01*
X183930537Y-170254494D01*
X183989502Y-170144180D01*
X184025812Y-170024482D01*
X184038072Y-169900000D01*
X184038072Y-168100000D01*
X184025812Y-167975518D01*
X183989502Y-167855820D01*
X183930537Y-167745506D01*
X183851185Y-167648815D01*
X183754494Y-167569463D01*
X183644180Y-167510498D01*
X183524482Y-167474188D01*
X183400000Y-167461928D01*
X181600000Y-167461928D01*
X181475518Y-167474188D01*
X181355820Y-167510498D01*
X181245506Y-167569463D01*
X181148815Y-167648815D01*
X181069463Y-167745506D01*
X181016120Y-167845303D01*
X180978505Y-167807688D01*
X180727095Y-167639701D01*
X180447743Y-167523989D01*
X180151184Y-167465000D01*
X179848816Y-167465000D01*
X179552257Y-167523989D01*
X179272905Y-167639701D01*
X179021495Y-167807688D01*
X178807688Y-168021495D01*
X178750000Y-168107831D01*
X178692312Y-168021495D01*
X178478505Y-167807688D01*
X178227095Y-167639701D01*
X177947743Y-167523989D01*
X177651184Y-167465000D01*
X177348816Y-167465000D01*
X177052257Y-167523989D01*
X176772905Y-167639701D01*
X176521495Y-167807688D01*
X176307688Y-168021495D01*
X176139701Y-168272905D01*
X176023989Y-168552257D01*
X175965000Y-168848816D01*
X156160000Y-168848816D01*
X156160000Y-161277902D01*
X172945000Y-161277902D01*
X172945000Y-161722098D01*
X173031658Y-162157759D01*
X173201645Y-162568143D01*
X173448427Y-162937479D01*
X173762521Y-163251573D01*
X174131857Y-163498355D01*
X174542241Y-163668342D01*
X174977902Y-163755000D01*
X175422098Y-163755000D01*
X175857759Y-163668342D01*
X176268143Y-163498355D01*
X176637479Y-163251573D01*
X176951573Y-162937479D01*
X177198355Y-162568143D01*
X177368342Y-162157759D01*
X177455000Y-161722098D01*
X177455000Y-161277902D01*
X182545000Y-161277902D01*
X182545000Y-161722098D01*
X182631658Y-162157759D01*
X182801645Y-162568143D01*
X183048427Y-162937479D01*
X183362521Y-163251573D01*
X183731857Y-163498355D01*
X184142241Y-163668342D01*
X184577902Y-163755000D01*
X185022098Y-163755000D01*
X185457759Y-163668342D01*
X185868143Y-163498355D01*
X186237479Y-163251573D01*
X186551573Y-162937479D01*
X186798355Y-162568143D01*
X186968342Y-162157759D01*
X187055000Y-161722098D01*
X187055000Y-161277902D01*
X186968342Y-160842241D01*
X186798355Y-160431857D01*
X186551573Y-160062521D01*
X186237479Y-159748427D01*
X185868143Y-159501645D01*
X185457759Y-159331658D01*
X185022098Y-159245000D01*
X184577902Y-159245000D01*
X184142241Y-159331658D01*
X183731857Y-159501645D01*
X183362521Y-159748427D01*
X183048427Y-160062521D01*
X182801645Y-160431857D01*
X182631658Y-160842241D01*
X182545000Y-161277902D01*
X177455000Y-161277902D01*
X177368342Y-160842241D01*
X177198355Y-160431857D01*
X176951573Y-160062521D01*
X176637479Y-159748427D01*
X176268143Y-159501645D01*
X175857759Y-159331658D01*
X175422098Y-159245000D01*
X174977902Y-159245000D01*
X174542241Y-159331658D01*
X174131857Y-159501645D01*
X173762521Y-159748427D01*
X173448427Y-160062521D01*
X173201645Y-160431857D01*
X173031658Y-160842241D01*
X172945000Y-161277902D01*
X156160000Y-161277902D01*
X156160000Y-150734801D01*
X159101312Y-153676114D01*
X159065000Y-153858665D01*
X159065000Y-154141335D01*
X159120147Y-154418574D01*
X159228320Y-154679727D01*
X159385363Y-154914759D01*
X159585241Y-155114637D01*
X159820273Y-155271680D01*
X160081426Y-155379853D01*
X160358665Y-155435000D01*
X160641335Y-155435000D01*
X160918574Y-155379853D01*
X161179727Y-155271680D01*
X161414759Y-155114637D01*
X161614637Y-154914759D01*
X161771680Y-154679727D01*
X161879853Y-154418574D01*
X161893684Y-154349039D01*
X166728096Y-154349039D01*
X166768754Y-154483087D01*
X166888963Y-154737420D01*
X167056481Y-154963414D01*
X167264869Y-155152385D01*
X167506119Y-155297070D01*
X167770960Y-155391909D01*
X167993000Y-155270624D01*
X167993000Y-154127000D01*
X168247000Y-154127000D01*
X168247000Y-155270624D01*
X168469040Y-155391909D01*
X168733881Y-155297070D01*
X168975131Y-155152385D01*
X169183519Y-154963414D01*
X169351037Y-154737420D01*
X169471246Y-154483087D01*
X169511904Y-154349039D01*
X169389915Y-154127000D01*
X168247000Y-154127000D01*
X167993000Y-154127000D01*
X166850085Y-154127000D01*
X166728096Y-154349039D01*
X161893684Y-154349039D01*
X161935000Y-154141335D01*
X161935000Y-153858665D01*
X161893685Y-153650961D01*
X166728096Y-153650961D01*
X166850085Y-153873000D01*
X167993000Y-153873000D01*
X167993000Y-152729376D01*
X168247000Y-152729376D01*
X168247000Y-153873000D01*
X169389915Y-153873000D01*
X169511904Y-153650961D01*
X169471246Y-153516913D01*
X169351037Y-153262580D01*
X169183519Y-153036586D01*
X168975131Y-152847615D01*
X168733881Y-152702930D01*
X168469040Y-152608091D01*
X168247000Y-152729376D01*
X167993000Y-152729376D01*
X167770960Y-152608091D01*
X167506119Y-152702930D01*
X167264869Y-152847615D01*
X167056481Y-153036586D01*
X166888963Y-153262580D01*
X166768754Y-153516913D01*
X166728096Y-153650961D01*
X161893685Y-153650961D01*
X161879853Y-153581426D01*
X161771680Y-153320273D01*
X161614637Y-153085241D01*
X161414759Y-152885363D01*
X161179727Y-152728320D01*
X160918574Y-152620147D01*
X160641335Y-152565000D01*
X160358665Y-152565000D01*
X160176114Y-152601312D01*
X158933467Y-151358665D01*
X178565000Y-151358665D01*
X178565000Y-151641335D01*
X178620147Y-151918574D01*
X178728320Y-152179727D01*
X178885363Y-152414759D01*
X179085241Y-152614637D01*
X179320273Y-152771680D01*
X179581426Y-152879853D01*
X179858665Y-152935000D01*
X180141335Y-152935000D01*
X180323886Y-152898688D01*
X181936201Y-154511003D01*
X181959999Y-154540001D01*
X181988997Y-154563799D01*
X182075723Y-154634974D01*
X182207753Y-154705546D01*
X182351014Y-154749003D01*
X182462667Y-154760000D01*
X182462677Y-154760000D01*
X182500000Y-154763676D01*
X182537323Y-154760000D01*
X184296289Y-154760000D01*
X184340226Y-154803937D01*
X184509744Y-154917205D01*
X184698102Y-154995226D01*
X184898061Y-155035000D01*
X185101939Y-155035000D01*
X185301898Y-154995226D01*
X185490256Y-154917205D01*
X185659774Y-154803937D01*
X185803937Y-154659774D01*
X185917205Y-154490256D01*
X185995226Y-154301898D01*
X186035000Y-154101939D01*
X186035000Y-153898061D01*
X185995226Y-153698102D01*
X185917205Y-153509744D01*
X185803937Y-153340226D01*
X185659774Y-153196063D01*
X185490256Y-153082795D01*
X185301898Y-153004774D01*
X185101939Y-152965000D01*
X184898061Y-152965000D01*
X184698102Y-153004774D01*
X184509744Y-153082795D01*
X184340226Y-153196063D01*
X184296289Y-153240000D01*
X182814802Y-153240000D01*
X181398688Y-151823886D01*
X181435000Y-151641335D01*
X181435000Y-151358665D01*
X181379853Y-151081426D01*
X181271680Y-150820273D01*
X181114637Y-150585241D01*
X180914759Y-150385363D01*
X180679727Y-150228320D01*
X180418574Y-150120147D01*
X180141335Y-150065000D01*
X179858665Y-150065000D01*
X179581426Y-150120147D01*
X179320273Y-150228320D01*
X179085241Y-150385363D01*
X178885363Y-150585241D01*
X178728320Y-150820273D01*
X178620147Y-151081426D01*
X178565000Y-151358665D01*
X158933467Y-151358665D01*
X157309989Y-149735188D01*
X157309989Y-136358665D01*
X158565000Y-136358665D01*
X158565000Y-136641335D01*
X158620147Y-136918574D01*
X158728320Y-137179727D01*
X158885363Y-137414759D01*
X159085241Y-137614637D01*
X159320273Y-137771680D01*
X159581426Y-137879853D01*
X159858665Y-137935000D01*
X160141335Y-137935000D01*
X160418574Y-137879853D01*
X160679727Y-137771680D01*
X160914759Y-137614637D01*
X161114637Y-137414759D01*
X161271680Y-137179727D01*
X161379853Y-136918574D01*
X161435000Y-136641335D01*
X161435000Y-136358665D01*
X166185000Y-136358665D01*
X166185000Y-136641335D01*
X166240147Y-136918574D01*
X166348320Y-137179727D01*
X166505363Y-137414759D01*
X166705241Y-137614637D01*
X166940273Y-137771680D01*
X167201426Y-137879853D01*
X167478665Y-137935000D01*
X167761335Y-137935000D01*
X168038574Y-137879853D01*
X168299727Y-137771680D01*
X168534759Y-137614637D01*
X168734637Y-137414759D01*
X168891680Y-137179727D01*
X168999853Y-136918574D01*
X169055000Y-136641335D01*
X169055000Y-136358665D01*
X168999853Y-136081426D01*
X168891680Y-135820273D01*
X168734637Y-135585241D01*
X168534759Y-135385363D01*
X168299727Y-135228320D01*
X168038574Y-135120147D01*
X167761335Y-135065000D01*
X167478665Y-135065000D01*
X167201426Y-135120147D01*
X166940273Y-135228320D01*
X166705241Y-135385363D01*
X166505363Y-135585241D01*
X166348320Y-135820273D01*
X166240147Y-136081426D01*
X166185000Y-136358665D01*
X161435000Y-136358665D01*
X161379853Y-136081426D01*
X161271680Y-135820273D01*
X161114637Y-135585241D01*
X160914759Y-135385363D01*
X160679727Y-135228320D01*
X160418574Y-135120147D01*
X160141335Y-135065000D01*
X159858665Y-135065000D01*
X159581426Y-135120147D01*
X159320273Y-135228320D01*
X159085241Y-135385363D01*
X158885363Y-135585241D01*
X158728320Y-135820273D01*
X158620147Y-136081426D01*
X158565000Y-136358665D01*
X157309989Y-136358665D01*
X157309989Y-128858665D01*
X158565000Y-128858665D01*
X158565000Y-129141335D01*
X158620147Y-129418574D01*
X158728320Y-129679727D01*
X158885363Y-129914759D01*
X159085241Y-130114637D01*
X159320273Y-130271680D01*
X159581426Y-130379853D01*
X159858665Y-130435000D01*
X160141335Y-130435000D01*
X160418574Y-130379853D01*
X160679727Y-130271680D01*
X160914759Y-130114637D01*
X161114637Y-129914759D01*
X161271680Y-129679727D01*
X161379853Y-129418574D01*
X161435000Y-129141335D01*
X161435000Y-128858665D01*
X161379853Y-128581426D01*
X161271680Y-128320273D01*
X161114637Y-128085241D01*
X160914759Y-127885363D01*
X160679727Y-127728320D01*
X160418574Y-127620147D01*
X160141335Y-127565000D01*
X159858665Y-127565000D01*
X159581426Y-127620147D01*
X159320273Y-127728320D01*
X159085241Y-127885363D01*
X158885363Y-128085241D01*
X158728320Y-128320273D01*
X158620147Y-128581426D01*
X158565000Y-128858665D01*
X157309989Y-128858665D01*
X157309989Y-101579810D01*
X158061928Y-100827872D01*
X158061928Y-101300000D01*
X158074188Y-101424482D01*
X158110498Y-101544180D01*
X158169463Y-101654494D01*
X158248815Y-101751185D01*
X158345506Y-101830537D01*
X158455820Y-101889502D01*
X158575518Y-101925812D01*
X158700000Y-101938072D01*
X158876348Y-101938072D01*
X158890835Y-101955724D01*
X158959999Y-102040001D01*
X158989003Y-102063804D01*
X165965002Y-109039805D01*
X165965002Y-109961928D01*
X164600000Y-109961928D01*
X164475518Y-109974188D01*
X164355820Y-110010498D01*
X164245506Y-110069463D01*
X164148815Y-110148815D01*
X164069463Y-110245506D01*
X164010498Y-110355820D01*
X164004944Y-110374127D01*
X163938505Y-110307688D01*
X163687095Y-110139701D01*
X163407743Y-110023989D01*
X163111184Y-109965000D01*
X162808816Y-109965000D01*
X162512257Y-110023989D01*
X162232905Y-110139701D01*
X161981495Y-110307688D01*
X161767688Y-110521495D01*
X161599701Y-110772905D01*
X161483989Y-111052257D01*
X161425000Y-111348816D01*
X161425000Y-111651184D01*
X161483989Y-111947743D01*
X161599701Y-112227095D01*
X161767688Y-112478505D01*
X161981495Y-112692312D01*
X162200001Y-112838313D01*
X162200000Y-118587679D01*
X162196324Y-118625002D01*
X162200000Y-118662324D01*
X162200000Y-118662334D01*
X162210997Y-118773987D01*
X162238613Y-118865026D01*
X162254454Y-118917248D01*
X162325026Y-119049278D01*
X162346730Y-119075724D01*
X162419999Y-119165003D01*
X162449003Y-119188806D01*
X175515000Y-132254804D01*
X175515000Y-132797512D01*
X175495226Y-132698102D01*
X175417205Y-132509744D01*
X175303937Y-132340226D01*
X175159774Y-132196063D01*
X174990256Y-132082795D01*
X174801898Y-132004774D01*
X174601939Y-131965000D01*
X174539802Y-131965000D01*
X163563804Y-120989003D01*
X163540001Y-120959999D01*
X163424276Y-120865026D01*
X163292247Y-120794454D01*
X163148986Y-120750997D01*
X163037333Y-120740000D01*
X163037322Y-120740000D01*
X163000000Y-120736324D01*
X162962678Y-120740000D01*
X161098043Y-120740000D01*
X160994637Y-120585241D01*
X160794759Y-120385363D01*
X160559727Y-120228320D01*
X160298574Y-120120147D01*
X160021335Y-120065000D01*
X159738665Y-120065000D01*
X159461426Y-120120147D01*
X159200273Y-120228320D01*
X158965241Y-120385363D01*
X158765363Y-120585241D01*
X158608320Y-120820273D01*
X158500147Y-121081426D01*
X158445000Y-121358665D01*
X158445000Y-121641335D01*
X158500147Y-121918574D01*
X158608320Y-122179727D01*
X158765363Y-122414759D01*
X158965241Y-122614637D01*
X159200273Y-122771680D01*
X159461426Y-122879853D01*
X159738665Y-122935000D01*
X160021335Y-122935000D01*
X160298574Y-122879853D01*
X160559727Y-122771680D01*
X160794759Y-122614637D01*
X160994637Y-122414759D01*
X161098043Y-122260000D01*
X162685199Y-122260000D01*
X168050134Y-127624935D01*
X168038574Y-127620147D01*
X167761335Y-127565000D01*
X167478665Y-127565000D01*
X167201426Y-127620147D01*
X166940273Y-127728320D01*
X166705241Y-127885363D01*
X166505363Y-128085241D01*
X166348320Y-128320273D01*
X166240147Y-128581426D01*
X166185000Y-128858665D01*
X166185000Y-129141335D01*
X166240147Y-129418574D01*
X166348320Y-129679727D01*
X166505363Y-129914759D01*
X166705241Y-130114637D01*
X166940273Y-130271680D01*
X167201426Y-130379853D01*
X167478665Y-130435000D01*
X167761335Y-130435000D01*
X168038574Y-130379853D01*
X168299727Y-130271680D01*
X168534759Y-130114637D01*
X168734637Y-129914759D01*
X168891680Y-129679727D01*
X168999853Y-129418574D01*
X169055000Y-129141335D01*
X169055000Y-128858665D01*
X168999853Y-128581426D01*
X168995065Y-128569866D01*
X171980744Y-131555545D01*
X171933403Y-131602886D01*
X171820135Y-131772404D01*
X171742114Y-131960762D01*
X171702340Y-132160721D01*
X171702340Y-132364599D01*
X171742114Y-132564558D01*
X171820135Y-132752916D01*
X171933403Y-132922434D01*
X171977341Y-132966372D01*
X171977340Y-142190018D01*
X171973664Y-142227340D01*
X171977340Y-142264662D01*
X171977340Y-142264672D01*
X171988337Y-142376325D01*
X172027671Y-142505995D01*
X172031794Y-142519586D01*
X172102366Y-142651616D01*
X172142036Y-142699953D01*
X172197339Y-142767341D01*
X172226343Y-142791144D01*
X173986201Y-144551003D01*
X174009999Y-144580001D01*
X174125724Y-144674974D01*
X174257753Y-144745546D01*
X174367843Y-144778941D01*
X174401068Y-144841101D01*
X174580392Y-145059608D01*
X174798899Y-145238932D01*
X174931858Y-145310000D01*
X174798899Y-145381068D01*
X174580392Y-145560392D01*
X174401068Y-145778899D01*
X174267818Y-146028192D01*
X174185764Y-146298691D01*
X174158057Y-146580000D01*
X174185764Y-146861309D01*
X174267818Y-147131808D01*
X174322970Y-147234990D01*
X165319812Y-147234990D01*
X165122894Y-147038072D01*
X166400000Y-147038072D01*
X166524482Y-147025812D01*
X166644180Y-146989502D01*
X166754494Y-146930537D01*
X166851185Y-146851185D01*
X166930537Y-146754494D01*
X166989502Y-146644180D01*
X167025812Y-146524482D01*
X167038072Y-146400000D01*
X167038072Y-144600000D01*
X167025812Y-144475518D01*
X166989502Y-144355820D01*
X166930537Y-144245506D01*
X166851185Y-144148815D01*
X166754494Y-144069463D01*
X166644180Y-144010498D01*
X166524482Y-143974188D01*
X166400000Y-143961928D01*
X164600000Y-143961928D01*
X164475518Y-143974188D01*
X164355820Y-144010498D01*
X164245506Y-144069463D01*
X164148815Y-144148815D01*
X164069463Y-144245506D01*
X164010498Y-144355820D01*
X164004944Y-144374127D01*
X163938505Y-144307688D01*
X163687095Y-144139701D01*
X163407743Y-144023989D01*
X163111184Y-143965000D01*
X162808816Y-143965000D01*
X162512257Y-144023989D01*
X162232905Y-144139701D01*
X161981495Y-144307688D01*
X161767688Y-144521495D01*
X161599701Y-144772905D01*
X161483989Y-145052257D01*
X161425000Y-145348816D01*
X161425000Y-145651184D01*
X161483989Y-145947743D01*
X161599701Y-146227095D01*
X161767688Y-146478505D01*
X161981495Y-146692312D01*
X162232905Y-146860299D01*
X162512257Y-146976011D01*
X162808816Y-147035000D01*
X162970219Y-147035000D01*
X164441210Y-148505992D01*
X164465009Y-148534991D01*
X164494007Y-148558789D01*
X164580733Y-148629964D01*
X164703762Y-148695725D01*
X164712763Y-148700536D01*
X164856024Y-148743993D01*
X164967677Y-148754990D01*
X164967687Y-148754990D01*
X165005010Y-148758666D01*
X165042333Y-148754990D01*
X174211154Y-148754990D01*
X174185764Y-148838691D01*
X174158057Y-149120000D01*
X174185764Y-149401309D01*
X174267818Y-149671808D01*
X174401068Y-149921101D01*
X174580392Y-150139608D01*
X174798899Y-150318932D01*
X175048192Y-150452182D01*
X175318691Y-150534236D01*
X175529508Y-150555000D01*
X176470492Y-150555000D01*
X176681309Y-150534236D01*
X176951808Y-150452182D01*
X177201101Y-150318932D01*
X177419608Y-150139608D01*
X177598932Y-149921101D01*
X177685042Y-149760000D01*
X180796289Y-149760000D01*
X180840226Y-149803937D01*
X181009744Y-149917205D01*
X181198102Y-149995226D01*
X181398061Y-150035000D01*
X181601939Y-150035000D01*
X181801898Y-149995226D01*
X181990256Y-149917205D01*
X182011425Y-149903060D01*
X182021068Y-149921101D01*
X182200392Y-150139608D01*
X182418899Y-150318932D01*
X182668192Y-150452182D01*
X182938691Y-150534236D01*
X183149508Y-150555000D01*
X183480199Y-150555000D01*
X186936201Y-154011003D01*
X186959999Y-154040001D01*
X186988997Y-154063799D01*
X187075724Y-154134974D01*
X187207753Y-154205546D01*
X187351014Y-154249003D01*
X187500000Y-154263677D01*
X187537333Y-154260000D01*
X195077678Y-154260000D01*
X195115000Y-154263676D01*
X195152322Y-154260000D01*
X195152333Y-154260000D01*
X195263986Y-154249003D01*
X195407247Y-154205546D01*
X195539276Y-154134974D01*
X195655001Y-154040001D01*
X195678804Y-154010997D01*
X198002673Y-151687128D01*
X198277659Y-151801031D01*
X198699796Y-151885000D01*
X199130204Y-151885000D01*
X199552341Y-151801031D01*
X199949985Y-151636322D01*
X200030002Y-151582857D01*
X200030001Y-156395197D01*
X190760189Y-165665010D01*
X165480762Y-165665010D01*
X165523224Y-165525031D01*
X165545000Y-165303935D01*
X165545000Y-164696064D01*
X165523224Y-164474968D01*
X165437166Y-164191275D01*
X165297417Y-163929821D01*
X165109345Y-163700655D01*
X164880178Y-163512583D01*
X164618724Y-163372834D01*
X164335031Y-163286776D01*
X164040000Y-163257718D01*
X163744968Y-163286776D01*
X163461275Y-163372834D01*
X163199821Y-163512583D01*
X162970655Y-163700655D01*
X162916935Y-163766114D01*
X162858405Y-163656613D01*
X162747962Y-163522038D01*
X162613387Y-163411595D01*
X162459851Y-163329528D01*
X162293255Y-163278992D01*
X162120001Y-163261928D01*
X160879999Y-163261928D01*
X160706745Y-163278992D01*
X160540149Y-163329528D01*
X160386613Y-163411595D01*
X160252038Y-163522038D01*
X160141595Y-163656613D01*
X160059528Y-163810149D01*
X160008992Y-163976745D01*
X159991928Y-164149999D01*
X159991928Y-165850001D01*
X160008992Y-166023255D01*
X160059528Y-166189851D01*
X160141595Y-166343387D01*
X160252038Y-166477962D01*
X160386613Y-166588405D01*
X160540149Y-166670472D01*
X160706745Y-166721008D01*
X160879999Y-166738072D01*
X162120001Y-166738072D01*
X162159390Y-166734193D01*
X162361215Y-166936018D01*
X162385009Y-166965011D01*
X162414002Y-166988805D01*
X162414006Y-166988809D01*
X162484695Y-167046821D01*
X162500734Y-167059984D01*
X162632763Y-167130556D01*
X162776024Y-167174013D01*
X162887677Y-167185010D01*
X162887686Y-167185010D01*
X162925009Y-167188686D01*
X162962332Y-167185010D01*
X191037668Y-167185010D01*
X191074990Y-167188686D01*
X191112312Y-167185010D01*
X191112323Y-167185010D01*
X191223976Y-167174013D01*
X191367237Y-167130556D01*
X191499266Y-167059984D01*
X191614991Y-166965011D01*
X191638794Y-166936007D01*
X194424802Y-164149999D01*
X195491928Y-164149999D01*
X195491928Y-165850001D01*
X195508992Y-166023255D01*
X195559528Y-166189851D01*
X195641595Y-166343387D01*
X195752038Y-166477962D01*
X195886613Y-166588405D01*
X196040149Y-166670472D01*
X196206745Y-166721008D01*
X196379999Y-166738072D01*
X197620001Y-166738072D01*
X197793255Y-166721008D01*
X197959851Y-166670472D01*
X198113387Y-166588405D01*
X198247962Y-166477962D01*
X198358405Y-166343387D01*
X198416934Y-166233886D01*
X198470655Y-166299345D01*
X198699822Y-166487417D01*
X198961276Y-166627166D01*
X199244969Y-166713224D01*
X199540000Y-166742282D01*
X199835032Y-166713224D01*
X200118725Y-166627166D01*
X200380179Y-166487417D01*
X200609345Y-166299345D01*
X200797417Y-166070179D01*
X200937166Y-165808724D01*
X201023224Y-165525031D01*
X201045000Y-165303935D01*
X201045000Y-164696064D01*
X201023224Y-164474968D01*
X200937166Y-164191275D01*
X200797417Y-163929821D01*
X200609345Y-163700655D01*
X200380178Y-163512583D01*
X200118724Y-163372834D01*
X199835031Y-163286776D01*
X199540000Y-163257718D01*
X199244968Y-163286776D01*
X198961275Y-163372834D01*
X198699821Y-163512583D01*
X198470655Y-163700655D01*
X198416935Y-163766114D01*
X198358405Y-163656613D01*
X198247962Y-163522038D01*
X198113387Y-163411595D01*
X197959851Y-163329528D01*
X197793255Y-163278992D01*
X197620001Y-163261928D01*
X196379999Y-163261928D01*
X196206745Y-163278992D01*
X196040149Y-163329528D01*
X195886613Y-163411595D01*
X195752038Y-163522038D01*
X195641595Y-163656613D01*
X195559528Y-163810149D01*
X195508992Y-163976745D01*
X195491928Y-164149999D01*
X194424802Y-164149999D01*
X201301005Y-157273797D01*
X201330002Y-157250000D01*
X201424975Y-157134275D01*
X201495547Y-157002246D01*
X201539004Y-156858985D01*
X201550001Y-156747332D01*
X201550001Y-156747323D01*
X201553677Y-156710000D01*
X201550001Y-156672677D01*
X201550001Y-146912324D01*
X201553677Y-146875001D01*
X201550001Y-146837678D01*
X201550001Y-146837668D01*
X201539004Y-146726015D01*
X201495547Y-146582754D01*
X201424975Y-146450725D01*
X201330002Y-146335000D01*
X201301004Y-146311202D01*
X200902129Y-145912327D01*
X201016031Y-145637341D01*
X201100000Y-145215204D01*
X201100000Y-144784796D01*
X201016031Y-144362659D01*
X200851322Y-143965015D01*
X200612200Y-143607144D01*
X200307856Y-143302800D01*
X199949985Y-143063678D01*
X199552341Y-142898969D01*
X199130204Y-142815000D01*
X198699796Y-142815000D01*
X198277659Y-142898969D01*
X197880015Y-143063678D01*
X197522144Y-143302800D01*
X197217800Y-143607144D01*
X196978678Y-143965015D01*
X196813969Y-144362659D01*
X196730000Y-144784796D01*
X196730000Y-145215204D01*
X196813969Y-145637341D01*
X196978678Y-146034985D01*
X197217800Y-146392856D01*
X197522144Y-146697200D01*
X197880015Y-146936322D01*
X198277659Y-147101031D01*
X198699796Y-147185000D01*
X199130204Y-147185000D01*
X199552341Y-147101031D01*
X199827327Y-146987129D01*
X200030002Y-147189804D01*
X200030002Y-147817144D01*
X199949985Y-147763678D01*
X199552341Y-147598969D01*
X199130204Y-147515000D01*
X198699796Y-147515000D01*
X198277659Y-147598969D01*
X197880015Y-147763678D01*
X197522144Y-148002800D01*
X197217800Y-148307144D01*
X196978678Y-148665015D01*
X196813969Y-149062659D01*
X196730000Y-149484796D01*
X196730000Y-149915204D01*
X196813969Y-150337341D01*
X196927872Y-150612327D01*
X194800199Y-152740000D01*
X187814802Y-152740000D01*
X185118400Y-150043599D01*
X185218932Y-149921101D01*
X185352182Y-149671808D01*
X185434236Y-149401309D01*
X185461943Y-149120000D01*
X185434236Y-148838691D01*
X185408846Y-148754990D01*
X192065189Y-148754990D01*
X192097872Y-148787673D01*
X191983969Y-149062659D01*
X191900000Y-149484796D01*
X191900000Y-149915204D01*
X191983969Y-150337341D01*
X192148678Y-150734985D01*
X192387800Y-151092856D01*
X192692144Y-151397200D01*
X193050015Y-151636322D01*
X193447659Y-151801031D01*
X193869796Y-151885000D01*
X194300204Y-151885000D01*
X194722341Y-151801031D01*
X195119985Y-151636322D01*
X195477856Y-151397200D01*
X195782200Y-151092856D01*
X196021322Y-150734985D01*
X196186031Y-150337341D01*
X196270000Y-149915204D01*
X196270000Y-149484796D01*
X196186031Y-149062659D01*
X196021322Y-148665015D01*
X195782200Y-148307144D01*
X195477856Y-148002800D01*
X195119985Y-147763678D01*
X194722341Y-147598969D01*
X194300204Y-147515000D01*
X193869796Y-147515000D01*
X193447659Y-147598969D01*
X193172673Y-147712872D01*
X192943794Y-147483993D01*
X192919991Y-147454989D01*
X192804266Y-147360016D01*
X192672237Y-147289444D01*
X192528976Y-147245987D01*
X192417323Y-147234990D01*
X192417312Y-147234990D01*
X192379990Y-147231314D01*
X192342668Y-147234990D01*
X185297030Y-147234990D01*
X185352182Y-147131808D01*
X185434236Y-146861309D01*
X185461943Y-146580000D01*
X185456748Y-146527251D01*
X192737354Y-146527251D01*
X192899381Y-146847930D01*
X193282675Y-147043725D01*
X193696803Y-147160981D01*
X194125848Y-147195192D01*
X194553324Y-147145042D01*
X194962802Y-147012461D01*
X195270619Y-146847930D01*
X195432646Y-146527251D01*
X194085000Y-145179605D01*
X192737354Y-146527251D01*
X185456748Y-146527251D01*
X185434236Y-146298691D01*
X185352182Y-146028192D01*
X185218932Y-145778899D01*
X185039608Y-145560392D01*
X184821101Y-145381068D01*
X184688142Y-145310000D01*
X184821101Y-145238932D01*
X185039608Y-145059608D01*
X185218932Y-144841101D01*
X185352182Y-144591808D01*
X185434236Y-144321309D01*
X185461943Y-144040000D01*
X185461587Y-144036389D01*
X186465000Y-145039802D01*
X186465000Y-145101939D01*
X186504774Y-145301898D01*
X186582795Y-145490256D01*
X186696063Y-145659774D01*
X186840226Y-145803937D01*
X187009744Y-145917205D01*
X187198102Y-145995226D01*
X187398061Y-146035000D01*
X187601939Y-146035000D01*
X187801898Y-145995226D01*
X187990256Y-145917205D01*
X188159774Y-145803937D01*
X188303937Y-145659774D01*
X188417205Y-145490256D01*
X188495226Y-145301898D01*
X188535000Y-145101939D01*
X188535000Y-145040848D01*
X191889808Y-145040848D01*
X191939958Y-145468324D01*
X192072539Y-145877802D01*
X192237070Y-146185619D01*
X192557749Y-146347646D01*
X193905395Y-145000000D01*
X194264605Y-145000000D01*
X195612251Y-146347646D01*
X195932930Y-146185619D01*
X196128725Y-145802325D01*
X196245981Y-145388197D01*
X196280192Y-144959152D01*
X196230042Y-144531676D01*
X196097461Y-144122198D01*
X195932930Y-143814381D01*
X195612251Y-143652354D01*
X194264605Y-145000000D01*
X193905395Y-145000000D01*
X192557749Y-143652354D01*
X192237070Y-143814381D01*
X192041275Y-144197675D01*
X191924019Y-144611803D01*
X191889808Y-145040848D01*
X188535000Y-145040848D01*
X188535000Y-144898061D01*
X188495226Y-144698102D01*
X188417205Y-144509744D01*
X188303937Y-144340226D01*
X188159774Y-144196063D01*
X187990256Y-144082795D01*
X187801898Y-144004774D01*
X187601939Y-143965000D01*
X187539802Y-143965000D01*
X187047551Y-143472749D01*
X192737354Y-143472749D01*
X194085000Y-144820395D01*
X195432646Y-143472749D01*
X195270619Y-143152070D01*
X194887325Y-142956275D01*
X194473197Y-142839019D01*
X194044152Y-142804808D01*
X193616676Y-142854958D01*
X193207198Y-142987539D01*
X192899381Y-143152070D01*
X192737354Y-143472749D01*
X187047551Y-143472749D01*
X185688814Y-142114013D01*
X185665011Y-142085009D01*
X185549286Y-141990036D01*
X185417257Y-141919464D01*
X185398208Y-141913686D01*
X185411904Y-141849039D01*
X185289915Y-141627000D01*
X183747000Y-141627000D01*
X183747000Y-141647000D01*
X183493000Y-141647000D01*
X183493000Y-141627000D01*
X183473000Y-141627000D01*
X183473000Y-141373000D01*
X183493000Y-141373000D01*
X183493000Y-140065000D01*
X183747000Y-140065000D01*
X183747000Y-141373000D01*
X185289915Y-141373000D01*
X185411904Y-141150961D01*
X185394367Y-141068182D01*
X185283715Y-140808354D01*
X185124500Y-140575105D01*
X184922839Y-140377399D01*
X184686483Y-140222834D01*
X184424514Y-140117350D01*
X184251942Y-140084796D01*
X191900000Y-140084796D01*
X191900000Y-140515204D01*
X191983969Y-140937341D01*
X192148678Y-141334985D01*
X192387800Y-141692856D01*
X192692144Y-141997200D01*
X193050015Y-142236322D01*
X193447659Y-142401031D01*
X193869796Y-142485000D01*
X194300204Y-142485000D01*
X194722341Y-142401031D01*
X195119985Y-142236322D01*
X195477856Y-141997200D01*
X195782200Y-141692856D01*
X196021322Y-141334985D01*
X196186031Y-140937341D01*
X196270000Y-140515204D01*
X196270000Y-140084796D01*
X196730000Y-140084796D01*
X196730000Y-140515204D01*
X196813969Y-140937341D01*
X196978678Y-141334985D01*
X197217800Y-141692856D01*
X197522144Y-141997200D01*
X197880015Y-142236322D01*
X198277659Y-142401031D01*
X198699796Y-142485000D01*
X199130204Y-142485000D01*
X199552341Y-142401031D01*
X199949985Y-142236322D01*
X200307856Y-141997200D01*
X200612200Y-141692856D01*
X200851322Y-141334985D01*
X201016031Y-140937341D01*
X201100000Y-140515204D01*
X201100000Y-140084796D01*
X201016031Y-139662659D01*
X200851322Y-139265015D01*
X200612200Y-138907144D01*
X200307856Y-138602800D01*
X199949985Y-138363678D01*
X199552341Y-138198969D01*
X199130204Y-138115000D01*
X198699796Y-138115000D01*
X198277659Y-138198969D01*
X197880015Y-138363678D01*
X197522144Y-138602800D01*
X197217800Y-138907144D01*
X196978678Y-139265015D01*
X196813969Y-139662659D01*
X196730000Y-140084796D01*
X196270000Y-140084796D01*
X196186031Y-139662659D01*
X196021322Y-139265015D01*
X195782200Y-138907144D01*
X195477856Y-138602800D01*
X195119985Y-138363678D01*
X194722341Y-138198969D01*
X194300204Y-138115000D01*
X193869796Y-138115000D01*
X193447659Y-138198969D01*
X193050015Y-138363678D01*
X192692144Y-138602800D01*
X192387800Y-138907144D01*
X192148678Y-139265015D01*
X191983969Y-139662659D01*
X191900000Y-140084796D01*
X184251942Y-140084796D01*
X184147000Y-140065000D01*
X183747000Y-140065000D01*
X183493000Y-140065000D01*
X183093000Y-140065000D01*
X182815486Y-140117350D01*
X182718289Y-140156487D01*
X182634991Y-140054989D01*
X182605994Y-140031192D01*
X181398688Y-138823886D01*
X181435000Y-138641335D01*
X181435000Y-138358665D01*
X181379853Y-138081426D01*
X181271680Y-137820273D01*
X181114637Y-137585241D01*
X180914759Y-137385363D01*
X180779689Y-137295112D01*
X182036730Y-136038072D01*
X183400000Y-136038072D01*
X183524482Y-136025812D01*
X183644180Y-135989502D01*
X183754494Y-135930537D01*
X183851185Y-135851185D01*
X183930537Y-135754494D01*
X183989502Y-135644180D01*
X184025812Y-135524482D01*
X184038072Y-135400000D01*
X184038072Y-133600000D01*
X184025812Y-133475518D01*
X183989502Y-133355820D01*
X183930537Y-133245506D01*
X183851185Y-133148815D01*
X183754494Y-133069463D01*
X183644180Y-133010498D01*
X183524482Y-132974188D01*
X183400000Y-132961928D01*
X181600000Y-132961928D01*
X181475518Y-132974188D01*
X181355820Y-133010498D01*
X181245506Y-133069463D01*
X181148815Y-133148815D01*
X181069463Y-133245506D01*
X181016120Y-133345303D01*
X180978505Y-133307688D01*
X180727095Y-133139701D01*
X180447743Y-133023989D01*
X180151184Y-132965000D01*
X179848816Y-132965000D01*
X179552257Y-133023989D01*
X179272905Y-133139701D01*
X179021495Y-133307688D01*
X178807688Y-133521495D01*
X178750000Y-133607831D01*
X178692312Y-133521495D01*
X178478505Y-133307688D01*
X178227095Y-133139701D01*
X177947743Y-133023989D01*
X177651184Y-132965000D01*
X177348816Y-132965000D01*
X177052257Y-133023989D01*
X177034999Y-133031138D01*
X177034999Y-132858665D01*
X192065000Y-132858665D01*
X192065000Y-133141335D01*
X192120147Y-133418574D01*
X192228320Y-133679727D01*
X192385363Y-133914759D01*
X192585241Y-134114637D01*
X192820273Y-134271680D01*
X193081426Y-134379853D01*
X193358665Y-134435000D01*
X193641335Y-134435000D01*
X193918574Y-134379853D01*
X194179727Y-134271680D01*
X194414759Y-134114637D01*
X194614637Y-133914759D01*
X194771680Y-133679727D01*
X194879853Y-133418574D01*
X194935000Y-133141335D01*
X194935000Y-132858665D01*
X199685000Y-132858665D01*
X199685000Y-133141335D01*
X199740147Y-133418574D01*
X199848320Y-133679727D01*
X200005363Y-133914759D01*
X200205241Y-134114637D01*
X200440273Y-134271680D01*
X200701426Y-134379853D01*
X200978665Y-134435000D01*
X201261335Y-134435000D01*
X201538574Y-134379853D01*
X201799727Y-134271680D01*
X202034759Y-134114637D01*
X202234637Y-133914759D01*
X202391680Y-133679727D01*
X202499853Y-133418574D01*
X202555000Y-133141335D01*
X202555000Y-132858665D01*
X202499853Y-132581426D01*
X202391680Y-132320273D01*
X202234637Y-132085241D01*
X202034759Y-131885363D01*
X201799727Y-131728320D01*
X201538574Y-131620147D01*
X201261335Y-131565000D01*
X200978665Y-131565000D01*
X200701426Y-131620147D01*
X200440273Y-131728320D01*
X200205241Y-131885363D01*
X200005363Y-132085241D01*
X199848320Y-132320273D01*
X199740147Y-132581426D01*
X199685000Y-132858665D01*
X194935000Y-132858665D01*
X194879853Y-132581426D01*
X194771680Y-132320273D01*
X194614637Y-132085241D01*
X194414759Y-131885363D01*
X194179727Y-131728320D01*
X193918574Y-131620147D01*
X193641335Y-131565000D01*
X193358665Y-131565000D01*
X193081426Y-131620147D01*
X192820273Y-131728320D01*
X192585241Y-131885363D01*
X192385363Y-132085241D01*
X192228320Y-132320273D01*
X192120147Y-132581426D01*
X192065000Y-132858665D01*
X177034999Y-132858665D01*
X177034999Y-131977323D01*
X177036506Y-131962019D01*
X177076015Y-131974004D01*
X177187668Y-131985001D01*
X177187677Y-131985001D01*
X177225000Y-131988677D01*
X177262323Y-131985001D01*
X180571288Y-131985001D01*
X180615225Y-132028938D01*
X180784743Y-132142206D01*
X180973101Y-132220227D01*
X181173060Y-132260001D01*
X181376938Y-132260001D01*
X181576897Y-132220227D01*
X181765255Y-132142206D01*
X181934773Y-132028938D01*
X182078936Y-131884775D01*
X182192204Y-131715257D01*
X182270225Y-131526899D01*
X182309999Y-131326940D01*
X182309999Y-131123062D01*
X182270225Y-130923103D01*
X182192204Y-130734745D01*
X182078936Y-130565227D01*
X181934773Y-130421064D01*
X181765255Y-130307796D01*
X181576897Y-130229775D01*
X181376938Y-130190001D01*
X181173060Y-130190001D01*
X180973101Y-130229775D01*
X180784743Y-130307796D01*
X180615225Y-130421064D01*
X180571288Y-130465001D01*
X177539803Y-130465001D01*
X177035000Y-129960199D01*
X177035000Y-129898061D01*
X176995226Y-129698102D01*
X176917205Y-129509744D01*
X176803937Y-129340226D01*
X176659774Y-129196063D01*
X176490256Y-129082795D01*
X176301898Y-129004774D01*
X176268483Y-128998127D01*
X176637479Y-128751573D01*
X176951573Y-128437479D01*
X177198355Y-128068143D01*
X177368342Y-127657759D01*
X177455000Y-127222098D01*
X177455000Y-126777902D01*
X182545000Y-126777902D01*
X182545000Y-127222098D01*
X182631658Y-127657759D01*
X182801645Y-128068143D01*
X183048427Y-128437479D01*
X183362521Y-128751573D01*
X183731857Y-128998355D01*
X184142241Y-129168342D01*
X184577902Y-129255000D01*
X185022098Y-129255000D01*
X185457759Y-129168342D01*
X185868143Y-128998355D01*
X186237479Y-128751573D01*
X186551573Y-128437479D01*
X186798355Y-128068143D01*
X186968342Y-127657759D01*
X187055000Y-127222098D01*
X187055000Y-126777902D01*
X186971609Y-126358665D01*
X192065000Y-126358665D01*
X192065000Y-126641335D01*
X192120147Y-126918574D01*
X192228320Y-127179727D01*
X192385363Y-127414759D01*
X192585241Y-127614637D01*
X192820273Y-127771680D01*
X193081426Y-127879853D01*
X193358665Y-127935000D01*
X193641335Y-127935000D01*
X193918574Y-127879853D01*
X194179727Y-127771680D01*
X194414759Y-127614637D01*
X194614637Y-127414759D01*
X194771680Y-127179727D01*
X194879853Y-126918574D01*
X194935000Y-126641335D01*
X194935000Y-126358665D01*
X199685000Y-126358665D01*
X199685000Y-126641335D01*
X199740147Y-126918574D01*
X199848320Y-127179727D01*
X200005363Y-127414759D01*
X200205241Y-127614637D01*
X200440273Y-127771680D01*
X200701426Y-127879853D01*
X200978665Y-127935000D01*
X201261335Y-127935000D01*
X201538574Y-127879853D01*
X201799727Y-127771680D01*
X202034759Y-127614637D01*
X202234637Y-127414759D01*
X202391680Y-127179727D01*
X202499853Y-126918574D01*
X202555000Y-126641335D01*
X202555000Y-126358665D01*
X202499853Y-126081426D01*
X202391680Y-125820273D01*
X202234637Y-125585241D01*
X202034759Y-125385363D01*
X201799727Y-125228320D01*
X201538574Y-125120147D01*
X201261335Y-125065000D01*
X200978665Y-125065000D01*
X200701426Y-125120147D01*
X200440273Y-125228320D01*
X200205241Y-125385363D01*
X200005363Y-125585241D01*
X199848320Y-125820273D01*
X199740147Y-126081426D01*
X199685000Y-126358665D01*
X194935000Y-126358665D01*
X194879853Y-126081426D01*
X194771680Y-125820273D01*
X194614637Y-125585241D01*
X194414759Y-125385363D01*
X194179727Y-125228320D01*
X193918574Y-125120147D01*
X193641335Y-125065000D01*
X193358665Y-125065000D01*
X193081426Y-125120147D01*
X192820273Y-125228320D01*
X192585241Y-125385363D01*
X192385363Y-125585241D01*
X192228320Y-125820273D01*
X192120147Y-126081426D01*
X192065000Y-126358665D01*
X186971609Y-126358665D01*
X186968342Y-126342241D01*
X186798355Y-125931857D01*
X186551573Y-125562521D01*
X186237479Y-125248427D01*
X185868143Y-125001645D01*
X185457759Y-124831658D01*
X185022098Y-124745000D01*
X184577902Y-124745000D01*
X184142241Y-124831658D01*
X183731857Y-125001645D01*
X183362521Y-125248427D01*
X183048427Y-125562521D01*
X182801645Y-125931857D01*
X182631658Y-126342241D01*
X182545000Y-126777902D01*
X177455000Y-126777902D01*
X177368342Y-126342241D01*
X177198355Y-125931857D01*
X176951573Y-125562521D01*
X176637479Y-125248427D01*
X176268143Y-125001645D01*
X175857759Y-124831658D01*
X175422098Y-124745000D01*
X174977902Y-124745000D01*
X174542241Y-124831658D01*
X174131857Y-125001645D01*
X173762521Y-125248427D01*
X173448427Y-125562521D01*
X173201645Y-125931857D01*
X173031658Y-126342241D01*
X172945000Y-126777902D01*
X172945000Y-127222098D01*
X173022744Y-127612944D01*
X168180777Y-122770978D01*
X168414759Y-122614637D01*
X168614637Y-122414759D01*
X168771680Y-122179727D01*
X168879853Y-121918574D01*
X168935000Y-121641335D01*
X168935000Y-121358665D01*
X168879853Y-121081426D01*
X168771680Y-120820273D01*
X168614637Y-120585241D01*
X168414759Y-120385363D01*
X168179727Y-120228320D01*
X167918574Y-120120147D01*
X167641335Y-120065000D01*
X167358665Y-120065000D01*
X167081426Y-120120147D01*
X166820273Y-120228320D01*
X166585241Y-120385363D01*
X166385363Y-120585241D01*
X166229022Y-120819223D01*
X163720000Y-118310201D01*
X163720000Y-112838313D01*
X163938505Y-112692312D01*
X164004944Y-112625873D01*
X164010498Y-112644180D01*
X164069463Y-112754494D01*
X164148815Y-112851185D01*
X164245506Y-112930537D01*
X164355820Y-112989502D01*
X164475518Y-113025812D01*
X164600000Y-113038072D01*
X166400000Y-113038072D01*
X166524482Y-113025812D01*
X166644180Y-112989502D01*
X166754494Y-112930537D01*
X166851185Y-112851185D01*
X166884629Y-112810434D01*
X175660198Y-121586004D01*
X175683996Y-121615002D01*
X175712994Y-121638800D01*
X175799720Y-121709975D01*
X175872736Y-121749003D01*
X175931750Y-121780547D01*
X176075011Y-121824004D01*
X176186664Y-121835001D01*
X176186674Y-121835001D01*
X176223997Y-121838677D01*
X176261320Y-121835001D01*
X197157677Y-121835001D01*
X197194999Y-121838677D01*
X197232321Y-121835001D01*
X197232332Y-121835001D01*
X197343985Y-121824004D01*
X197487246Y-121780547D01*
X197619275Y-121709975D01*
X197735000Y-121615002D01*
X197758801Y-121586001D01*
X197781001Y-121563801D01*
X197810001Y-121540001D01*
X197904974Y-121424276D01*
X197975546Y-121292247D01*
X197989549Y-121246086D01*
X198093941Y-121301885D01*
X198312601Y-121368215D01*
X198540000Y-121390612D01*
X198767400Y-121368215D01*
X198986060Y-121301885D01*
X199187579Y-121194171D01*
X199364212Y-121049212D01*
X199509171Y-120872579D01*
X199616885Y-120671059D01*
X199683215Y-120452399D01*
X199700000Y-120281978D01*
X199700000Y-119718021D01*
X199683215Y-119547600D01*
X199616885Y-119328940D01*
X199509171Y-119127421D01*
X199364212Y-118950788D01*
X199293080Y-118892412D01*
X199289003Y-118851014D01*
X199245546Y-118707753D01*
X199174974Y-118575724D01*
X199080001Y-118459999D01*
X199051003Y-118436201D01*
X194303667Y-113688866D01*
X194414759Y-113614637D01*
X194614637Y-113414759D01*
X194771680Y-113179727D01*
X194879853Y-112918574D01*
X194935000Y-112641335D01*
X194935000Y-112358665D01*
X194879853Y-112081426D01*
X194771680Y-111820273D01*
X194614637Y-111585241D01*
X194414759Y-111385363D01*
X194179727Y-111228320D01*
X193918574Y-111120147D01*
X193641335Y-111065000D01*
X193358665Y-111065000D01*
X193081426Y-111120147D01*
X192820273Y-111228320D01*
X192585241Y-111385363D01*
X192385363Y-111585241D01*
X192228320Y-111820273D01*
X192120147Y-112081426D01*
X192065000Y-112358665D01*
X192065000Y-112641335D01*
X192120147Y-112918574D01*
X192228320Y-113179727D01*
X192332063Y-113334990D01*
X187046201Y-113334990D01*
X186845193Y-113133982D01*
X186821390Y-113104978D01*
X186705665Y-113010005D01*
X186584276Y-112945120D01*
X186614637Y-112914759D01*
X186771680Y-112679727D01*
X186879853Y-112418574D01*
X186935000Y-112141335D01*
X186935000Y-111858665D01*
X186879853Y-111581426D01*
X186771680Y-111320273D01*
X186614637Y-111085241D01*
X186414759Y-110885363D01*
X186179727Y-110728320D01*
X185918574Y-110620147D01*
X185641335Y-110565000D01*
X185358665Y-110565000D01*
X185081426Y-110620147D01*
X184820273Y-110728320D01*
X184585241Y-110885363D01*
X184462703Y-111007901D01*
X183253274Y-109798472D01*
X183471807Y-109732182D01*
X183721100Y-109598932D01*
X183939607Y-109419608D01*
X184118932Y-109201101D01*
X184190000Y-109068142D01*
X184261068Y-109201100D01*
X184440392Y-109419607D01*
X184658899Y-109598932D01*
X184908192Y-109732182D01*
X185178691Y-109814236D01*
X185460000Y-109841943D01*
X185741308Y-109814236D01*
X186011807Y-109732182D01*
X186261100Y-109598932D01*
X186479607Y-109419608D01*
X186572419Y-109306517D01*
X186574188Y-109324482D01*
X186610498Y-109444180D01*
X186669463Y-109554494D01*
X186748815Y-109651185D01*
X186845506Y-109730537D01*
X186955820Y-109789502D01*
X187075518Y-109825812D01*
X187200000Y-109838072D01*
X188800000Y-109838072D01*
X188924482Y-109825812D01*
X189044180Y-109789502D01*
X189154494Y-109730537D01*
X189251185Y-109651185D01*
X189330537Y-109554494D01*
X189389502Y-109444180D01*
X189425812Y-109324482D01*
X189438072Y-109200000D01*
X189438072Y-108760000D01*
X192383786Y-108760000D01*
X196634788Y-113011003D01*
X196658586Y-113040001D01*
X196687584Y-113063799D01*
X196774310Y-113134974D01*
X196890477Y-113197067D01*
X196906340Y-113205546D01*
X197049601Y-113249003D01*
X197161254Y-113260000D01*
X197161263Y-113260000D01*
X197198586Y-113263676D01*
X197235909Y-113260000D01*
X199901957Y-113260000D01*
X200005363Y-113414759D01*
X200205241Y-113614637D01*
X200440273Y-113771680D01*
X200701426Y-113879853D01*
X200978665Y-113935000D01*
X201261335Y-113935000D01*
X201538574Y-113879853D01*
X201799727Y-113771680D01*
X202034759Y-113614637D01*
X202234637Y-113414759D01*
X202391680Y-113179727D01*
X202499853Y-112918574D01*
X202555000Y-112641335D01*
X202555000Y-112358665D01*
X202499853Y-112081426D01*
X202391680Y-111820273D01*
X202234637Y-111585241D01*
X202034759Y-111385363D01*
X201799727Y-111228320D01*
X201538574Y-111120147D01*
X201261335Y-111065000D01*
X200978665Y-111065000D01*
X200701426Y-111120147D01*
X200440273Y-111228320D01*
X200205241Y-111385363D01*
X200005363Y-111585241D01*
X199901957Y-111740000D01*
X197513389Y-111740000D01*
X194158389Y-108385001D01*
X195837677Y-108385001D01*
X195874999Y-108388677D01*
X195912321Y-108385001D01*
X195912332Y-108385001D01*
X196023985Y-108374004D01*
X196167246Y-108330547D01*
X196299275Y-108259975D01*
X196415000Y-108165002D01*
X196438803Y-108135998D01*
X198216136Y-106358665D01*
X199685000Y-106358665D01*
X199685000Y-106641335D01*
X199740147Y-106918574D01*
X199848320Y-107179727D01*
X200005363Y-107414759D01*
X200205241Y-107614637D01*
X200440273Y-107771680D01*
X200701426Y-107879853D01*
X200978665Y-107935000D01*
X201261335Y-107935000D01*
X201538574Y-107879853D01*
X201799727Y-107771680D01*
X202034759Y-107614637D01*
X202234637Y-107414759D01*
X202391680Y-107179727D01*
X202499853Y-106918574D01*
X202555000Y-106641335D01*
X202555000Y-106358665D01*
X202499853Y-106081426D01*
X202391680Y-105820273D01*
X202234637Y-105585241D01*
X202034759Y-105385363D01*
X201799727Y-105228320D01*
X201538574Y-105120147D01*
X201261335Y-105065000D01*
X200978665Y-105065000D01*
X200701426Y-105120147D01*
X200440273Y-105228320D01*
X200205241Y-105385363D01*
X200005363Y-105585241D01*
X199848320Y-105820273D01*
X199740147Y-106081426D01*
X199685000Y-106358665D01*
X198216136Y-106358665D01*
X201631004Y-102943798D01*
X201660001Y-102920001D01*
X201754974Y-102804276D01*
X201825546Y-102672247D01*
X201869003Y-102528986D01*
X201880000Y-102417333D01*
X201880000Y-102417332D01*
X201883677Y-102380000D01*
X201880000Y-102342667D01*
X201880000Y-102218043D01*
X202034759Y-102114637D01*
X202234637Y-101914759D01*
X202391680Y-101679727D01*
X202499853Y-101418574D01*
X202555000Y-101141335D01*
X202555000Y-100858665D01*
X202499853Y-100581426D01*
X202391680Y-100320273D01*
X202234637Y-100085241D01*
X202034759Y-99885363D01*
X201800778Y-99729022D01*
X203011004Y-98518796D01*
X203040001Y-98494999D01*
X203134974Y-98379274D01*
X203205546Y-98247245D01*
X203249003Y-98103984D01*
X203260000Y-97992331D01*
X203260000Y-97992323D01*
X203263676Y-97954998D01*
X203260000Y-97917673D01*
X203260000Y-75417325D01*
X203263676Y-75380000D01*
X203260000Y-75342675D01*
X203260000Y-75342667D01*
X203249003Y-75231014D01*
X203205546Y-75087753D01*
X203134974Y-74955724D01*
X203040001Y-74839999D01*
X203011003Y-74816201D01*
X202518688Y-74323886D01*
X202555000Y-74141335D01*
X202555000Y-73858665D01*
X202499853Y-73581426D01*
X202391680Y-73320273D01*
X202234637Y-73085241D01*
X202034759Y-72885363D01*
X201799727Y-72728320D01*
X201538574Y-72620147D01*
X201261335Y-72565000D01*
X200978665Y-72565000D01*
X200701426Y-72620147D01*
X200440273Y-72728320D01*
X200205241Y-72885363D01*
X200005363Y-73085241D01*
X199848320Y-73320273D01*
X199740147Y-73581426D01*
X199685000Y-73858665D01*
X199685000Y-74141335D01*
X199740147Y-74418574D01*
X199848320Y-74679727D01*
X200005363Y-74914759D01*
X200205241Y-75114637D01*
X200440273Y-75271680D01*
X200701426Y-75379853D01*
X200978665Y-75435000D01*
X201261335Y-75435000D01*
X201443886Y-75398688D01*
X201740001Y-75694803D01*
X201740001Y-78203581D01*
X201538574Y-78120147D01*
X201261335Y-78065000D01*
X200978665Y-78065000D01*
X200701426Y-78120147D01*
X200440273Y-78228320D01*
X200205241Y-78385363D01*
X200005363Y-78585241D01*
X199848320Y-78820273D01*
X199740147Y-79081426D01*
X199685000Y-79358665D01*
X199685000Y-79641335D01*
X199740147Y-79918574D01*
X199848320Y-80179727D01*
X200005363Y-80414759D01*
X200205241Y-80614637D01*
X200440273Y-80771680D01*
X200701426Y-80879853D01*
X200978665Y-80935000D01*
X201261335Y-80935000D01*
X201538574Y-80879853D01*
X201740001Y-80796419D01*
X201740001Y-83703581D01*
X201538574Y-83620147D01*
X201261335Y-83565000D01*
X200978665Y-83565000D01*
X200701426Y-83620147D01*
X200440273Y-83728320D01*
X200205241Y-83885363D01*
X200005363Y-84085241D01*
X199848320Y-84320273D01*
X199740147Y-84581426D01*
X199685000Y-84858665D01*
X199685000Y-85141335D01*
X199721312Y-85323886D01*
X195305199Y-89740000D01*
X194938072Y-89740000D01*
X194938072Y-89700000D01*
X194925812Y-89575518D01*
X194889502Y-89455820D01*
X194830537Y-89345506D01*
X194751185Y-89248815D01*
X194654494Y-89169463D01*
X194544180Y-89110498D01*
X194424482Y-89074188D01*
X194300000Y-89061928D01*
X192700000Y-89061928D01*
X192575518Y-89074188D01*
X192455820Y-89110498D01*
X192345506Y-89169463D01*
X192248815Y-89248815D01*
X192169463Y-89345506D01*
X192110498Y-89455820D01*
X192074188Y-89575518D01*
X192067475Y-89643677D01*
X189884718Y-87460921D01*
X189990256Y-87417205D01*
X190159774Y-87303937D01*
X190303937Y-87159774D01*
X190417205Y-86990256D01*
X190495226Y-86801898D01*
X190535000Y-86601939D01*
X190535000Y-86539801D01*
X191314802Y-85760000D01*
X192281957Y-85760000D01*
X192385363Y-85914759D01*
X192585241Y-86114637D01*
X192820273Y-86271680D01*
X193081426Y-86379853D01*
X193358665Y-86435000D01*
X193641335Y-86435000D01*
X193918574Y-86379853D01*
X194179727Y-86271680D01*
X194414759Y-86114637D01*
X194614637Y-85914759D01*
X194771680Y-85679727D01*
X194879853Y-85418574D01*
X194935000Y-85141335D01*
X194935000Y-84858665D01*
X194879853Y-84581426D01*
X194771680Y-84320273D01*
X194614637Y-84085241D01*
X194414759Y-83885363D01*
X194179727Y-83728320D01*
X193918574Y-83620147D01*
X193641335Y-83565000D01*
X193358665Y-83565000D01*
X193081426Y-83620147D01*
X192820273Y-83728320D01*
X192585241Y-83885363D01*
X192385363Y-84085241D01*
X192281957Y-84240000D01*
X191037322Y-84240000D01*
X190999999Y-84236324D01*
X190962676Y-84240000D01*
X190962667Y-84240000D01*
X190851014Y-84250997D01*
X190707753Y-84294454D01*
X190575724Y-84365026D01*
X190459999Y-84459999D01*
X190436201Y-84488997D01*
X189460199Y-85465000D01*
X189427666Y-85465000D01*
X189495226Y-85301898D01*
X189535000Y-85101939D01*
X189535000Y-85039802D01*
X190136018Y-84438785D01*
X190165011Y-84414991D01*
X190188805Y-84385998D01*
X190188809Y-84385994D01*
X190259983Y-84299267D01*
X190259984Y-84299266D01*
X190330556Y-84167237D01*
X190374013Y-84023976D01*
X190385010Y-83912323D01*
X190385010Y-83912314D01*
X190388686Y-83874991D01*
X190385010Y-83837668D01*
X190385010Y-79358665D01*
X192065000Y-79358665D01*
X192065000Y-79641335D01*
X192120147Y-79918574D01*
X192228320Y-80179727D01*
X192385363Y-80414759D01*
X192585241Y-80614637D01*
X192820273Y-80771680D01*
X193081426Y-80879853D01*
X193358665Y-80935000D01*
X193641335Y-80935000D01*
X193918574Y-80879853D01*
X194179727Y-80771680D01*
X194414759Y-80614637D01*
X194614637Y-80414759D01*
X194771680Y-80179727D01*
X194879853Y-79918574D01*
X194935000Y-79641335D01*
X194935000Y-79358665D01*
X194879853Y-79081426D01*
X194771680Y-78820273D01*
X194614637Y-78585241D01*
X194414759Y-78385363D01*
X194179727Y-78228320D01*
X193918574Y-78120147D01*
X193641335Y-78065000D01*
X193358665Y-78065000D01*
X193081426Y-78120147D01*
X192820273Y-78228320D01*
X192585241Y-78385363D01*
X192385363Y-78585241D01*
X192228320Y-78820273D01*
X192120147Y-79081426D01*
X192065000Y-79358665D01*
X190385010Y-79358665D01*
X190385010Y-78662332D01*
X190388686Y-78625009D01*
X190385010Y-78587686D01*
X190385010Y-78587677D01*
X190374013Y-78476024D01*
X190330556Y-78332763D01*
X190259984Y-78200734D01*
X190232917Y-78167753D01*
X190188809Y-78114006D01*
X190188805Y-78114002D01*
X190165011Y-78085009D01*
X190136019Y-78061216D01*
X189535000Y-77460198D01*
X189535000Y-77398061D01*
X189495226Y-77198102D01*
X189417205Y-77009744D01*
X189303937Y-76840226D01*
X189301623Y-76837912D01*
X189424482Y-76825812D01*
X189544180Y-76789502D01*
X189654494Y-76730537D01*
X189751185Y-76651185D01*
X189830537Y-76554494D01*
X189889502Y-76444180D01*
X189925812Y-76324482D01*
X189938072Y-76200000D01*
X189938072Y-73858665D01*
X192065000Y-73858665D01*
X192065000Y-74141335D01*
X192120147Y-74418574D01*
X192228320Y-74679727D01*
X192385363Y-74914759D01*
X192585241Y-75114637D01*
X192820273Y-75271680D01*
X193081426Y-75379853D01*
X193358665Y-75435000D01*
X193641335Y-75435000D01*
X193918574Y-75379853D01*
X194179727Y-75271680D01*
X194414759Y-75114637D01*
X194614637Y-74914759D01*
X194771680Y-74679727D01*
X194879853Y-74418574D01*
X194935000Y-74141335D01*
X194935000Y-73858665D01*
X194879853Y-73581426D01*
X194771680Y-73320273D01*
X194614637Y-73085241D01*
X194414759Y-72885363D01*
X194179727Y-72728320D01*
X193918574Y-72620147D01*
X193641335Y-72565000D01*
X193358665Y-72565000D01*
X193081426Y-72620147D01*
X192820273Y-72728320D01*
X192585241Y-72885363D01*
X192385363Y-73085241D01*
X192228320Y-73320273D01*
X192120147Y-73581426D01*
X192065000Y-73858665D01*
X189938072Y-73858665D01*
X189938072Y-73800000D01*
X189925812Y-73675518D01*
X189889502Y-73555820D01*
X189830537Y-73445506D01*
X189751185Y-73348815D01*
X189654494Y-73269463D01*
X189544180Y-73210498D01*
X189424482Y-73174188D01*
X189300000Y-73161928D01*
X187700000Y-73161928D01*
X187575518Y-73174188D01*
X187455820Y-73210498D01*
X187345506Y-73269463D01*
X187248815Y-73348815D01*
X187169463Y-73445506D01*
X187110498Y-73555820D01*
X187074188Y-73675518D01*
X187072419Y-73693482D01*
X186979608Y-73580392D01*
X186761101Y-73401068D01*
X186511808Y-73267818D01*
X186241309Y-73185764D01*
X185960000Y-73158057D01*
X185678692Y-73185764D01*
X185408193Y-73267818D01*
X185305010Y-73322971D01*
X185305010Y-67697333D01*
X185308686Y-67660008D01*
X185305010Y-67622683D01*
X185305010Y-67622675D01*
X185294013Y-67511022D01*
X185250556Y-67367761D01*
X185179984Y-67235732D01*
X185085011Y-67120007D01*
X185056013Y-67096209D01*
X185044792Y-67084988D01*
X193258180Y-67084988D01*
X193081426Y-67120147D01*
X192820273Y-67228320D01*
X192585241Y-67385363D01*
X192385363Y-67585241D01*
X192228320Y-67820273D01*
X192120147Y-68081426D01*
X192065000Y-68358665D01*
X192065000Y-68641335D01*
X192120147Y-68918574D01*
X192228320Y-69179727D01*
X192385363Y-69414759D01*
X192585241Y-69614637D01*
X192820273Y-69771680D01*
X193081426Y-69879853D01*
X193358665Y-69935000D01*
X193641335Y-69935000D01*
X193918574Y-69879853D01*
X194179727Y-69771680D01*
X194414759Y-69614637D01*
X194614637Y-69414759D01*
X194771680Y-69179727D01*
X194879853Y-68918574D01*
X194935000Y-68641335D01*
X194935000Y-68358665D01*
X194879853Y-68081426D01*
X194771680Y-67820273D01*
X194614637Y-67585241D01*
X194414759Y-67385363D01*
X194179727Y-67228320D01*
X193918574Y-67120147D01*
X193741820Y-67084988D01*
X198630187Y-67084988D01*
X199721312Y-68176114D01*
X199685000Y-68358665D01*
X199685000Y-68641335D01*
X199740147Y-68918574D01*
X199848320Y-69179727D01*
X200005363Y-69414759D01*
X200205241Y-69614637D01*
X200440273Y-69771680D01*
X200701426Y-69879853D01*
X200978665Y-69935000D01*
X201261335Y-69935000D01*
X201538574Y-69879853D01*
X201799727Y-69771680D01*
X202034759Y-69614637D01*
X202234637Y-69414759D01*
X202391680Y-69179727D01*
X202499853Y-68918574D01*
X202555000Y-68641335D01*
X202555000Y-68358665D01*
X202499853Y-68081426D01*
X202391680Y-67820273D01*
X202234637Y-67585241D01*
X202034759Y-67385363D01*
X201799727Y-67228320D01*
X201538574Y-67120147D01*
X201261335Y-67065000D01*
X200978665Y-67065000D01*
X200796114Y-67101312D01*
X199508792Y-65813990D01*
X199484989Y-65784987D01*
X199369264Y-65690014D01*
X199237235Y-65619442D01*
X199093974Y-65575985D01*
X198982321Y-65564988D01*
X198982310Y-65564988D01*
X198944988Y-65561312D01*
X198907666Y-65564988D01*
X180439542Y-65564988D01*
X180402220Y-65561312D01*
X180364897Y-65564988D01*
X180364887Y-65564988D01*
X180253234Y-65575985D01*
X180109973Y-65619442D01*
X179977944Y-65690014D01*
X179862219Y-65784987D01*
X179838416Y-65813991D01*
X179489003Y-66163404D01*
X179459999Y-66187207D01*
X179412549Y-66245026D01*
X179365026Y-66302932D01*
X179304738Y-66415723D01*
X179294454Y-66434962D01*
X179250997Y-66578223D01*
X179242972Y-66659702D01*
X179021495Y-66807688D01*
X178807688Y-67021495D01*
X178750000Y-67107831D01*
X178692312Y-67021495D01*
X178478505Y-66807688D01*
X178257028Y-66659702D01*
X178249003Y-66578222D01*
X178205546Y-66434961D01*
X178134974Y-66302932D01*
X178087452Y-66245026D01*
X178063799Y-66216204D01*
X178063795Y-66216200D01*
X178040001Y-66187207D01*
X178011008Y-66163413D01*
X175206260Y-63358665D01*
X192065000Y-63358665D01*
X192065000Y-63641335D01*
X192120147Y-63918574D01*
X192228320Y-64179727D01*
X192385363Y-64414759D01*
X192585241Y-64614637D01*
X192820273Y-64771680D01*
X193081426Y-64879853D01*
X193358665Y-64935000D01*
X193641335Y-64935000D01*
X193918574Y-64879853D01*
X194179727Y-64771680D01*
X194414759Y-64614637D01*
X194614637Y-64414759D01*
X194771680Y-64179727D01*
X194879853Y-63918574D01*
X194935000Y-63641335D01*
X194935000Y-63358665D01*
X194879853Y-63081426D01*
X194771680Y-62820273D01*
X194614637Y-62585241D01*
X194414759Y-62385363D01*
X194179727Y-62228320D01*
X193918574Y-62120147D01*
X193641335Y-62065000D01*
X193358665Y-62065000D01*
X193081426Y-62120147D01*
X192820273Y-62228320D01*
X192585241Y-62385363D01*
X192385363Y-62585241D01*
X192228320Y-62820273D01*
X192120147Y-63081426D01*
X192065000Y-63358665D01*
X175206260Y-63358665D01*
X174497336Y-62649742D01*
X174542241Y-62668342D01*
X174977902Y-62755000D01*
X175422098Y-62755000D01*
X175857759Y-62668342D01*
X176268143Y-62498355D01*
X176637479Y-62251573D01*
X176951573Y-61937479D01*
X177198355Y-61568143D01*
X177368342Y-61157759D01*
X177455000Y-60722098D01*
X177455000Y-60277902D01*
X182545000Y-60277902D01*
X182545000Y-60722098D01*
X182631658Y-61157759D01*
X182801645Y-61568143D01*
X183048427Y-61937479D01*
X183362521Y-62251573D01*
X183731857Y-62498355D01*
X184142241Y-62668342D01*
X184577902Y-62755000D01*
X185022098Y-62755000D01*
X185457759Y-62668342D01*
X185868143Y-62498355D01*
X186237479Y-62251573D01*
X186551573Y-61937479D01*
X186798355Y-61568143D01*
X186968342Y-61157759D01*
X187055000Y-60722098D01*
X187055000Y-60277902D01*
X186968342Y-59842241D01*
X186798355Y-59431857D01*
X186710252Y-59300000D01*
X193561928Y-59300000D01*
X193574188Y-59424482D01*
X193610498Y-59544180D01*
X193669463Y-59654494D01*
X193748815Y-59751185D01*
X193845506Y-59830537D01*
X193955820Y-59889502D01*
X194075518Y-59925812D01*
X194200000Y-59938072D01*
X194714250Y-59935000D01*
X194873000Y-59776250D01*
X194873000Y-58627000D01*
X195127000Y-58627000D01*
X195127000Y-59776250D01*
X195285750Y-59935000D01*
X195800000Y-59938072D01*
X195924482Y-59925812D01*
X196044180Y-59889502D01*
X196154494Y-59830537D01*
X196251185Y-59751185D01*
X196330537Y-59654494D01*
X196389502Y-59544180D01*
X196425812Y-59424482D01*
X196438072Y-59300000D01*
X196435000Y-58785750D01*
X196276250Y-58627000D01*
X195127000Y-58627000D01*
X194873000Y-58627000D01*
X193723750Y-58627000D01*
X193565000Y-58785750D01*
X193561928Y-59300000D01*
X186710252Y-59300000D01*
X186551573Y-59062521D01*
X186237479Y-58748427D01*
X185868143Y-58501645D01*
X185457759Y-58331658D01*
X185022098Y-58245000D01*
X184577902Y-58245000D01*
X184142241Y-58331658D01*
X183731857Y-58501645D01*
X183362521Y-58748427D01*
X183048427Y-59062521D01*
X182801645Y-59431857D01*
X182631658Y-59842241D01*
X182545000Y-60277902D01*
X177455000Y-60277902D01*
X177368342Y-59842241D01*
X177198355Y-59431857D01*
X176951573Y-59062521D01*
X176637479Y-58748427D01*
X176268143Y-58501645D01*
X175857759Y-58331658D01*
X175422098Y-58245000D01*
X174977902Y-58245000D01*
X174542241Y-58331658D01*
X174131857Y-58501645D01*
X173762521Y-58748427D01*
X173448427Y-59062521D01*
X173201645Y-59431857D01*
X173031658Y-59842241D01*
X172945000Y-60277902D01*
X172945000Y-60722098D01*
X173031658Y-61157759D01*
X173050258Y-61202664D01*
X169547594Y-57700000D01*
X193561928Y-57700000D01*
X193565000Y-58214250D01*
X193723750Y-58373000D01*
X194873000Y-58373000D01*
X194873000Y-57223750D01*
X195127000Y-57223750D01*
X195127000Y-58373000D01*
X196276250Y-58373000D01*
X196435000Y-58214250D01*
X196438072Y-57700000D01*
X196425812Y-57575518D01*
X196389502Y-57455820D01*
X196330537Y-57345506D01*
X196251185Y-57248815D01*
X196154494Y-57169463D01*
X196044180Y-57110498D01*
X195924482Y-57074188D01*
X195800000Y-57061928D01*
X195285750Y-57065000D01*
X195127000Y-57223750D01*
X194873000Y-57223750D01*
X194714250Y-57065000D01*
X194200000Y-57061928D01*
X194075518Y-57074188D01*
X193955820Y-57110498D01*
X193845506Y-57169463D01*
X193748815Y-57248815D01*
X193669463Y-57345506D01*
X193610498Y-57455820D01*
X193574188Y-57575518D01*
X193561928Y-57700000D01*
X169547594Y-57700000D01*
X169107594Y-57260000D01*
X170296289Y-57260000D01*
X170340226Y-57303937D01*
X170509744Y-57417205D01*
X170698102Y-57495226D01*
X170898061Y-57535000D01*
X171101939Y-57535000D01*
X171301898Y-57495226D01*
X171490256Y-57417205D01*
X171659774Y-57303937D01*
X171803937Y-57159774D01*
X171917205Y-56990256D01*
X171995226Y-56801898D01*
X172035000Y-56601939D01*
X172035000Y-56398061D01*
X171995226Y-56198102D01*
X171917205Y-56009744D01*
X171803937Y-55840226D01*
X171659774Y-55696063D01*
X171490256Y-55582795D01*
X171301898Y-55504774D01*
X171101939Y-55465000D01*
X170898061Y-55465000D01*
X170698102Y-55504774D01*
X170509744Y-55582795D01*
X170340226Y-55696063D01*
X170296289Y-55740000D01*
X168314802Y-55740000D01*
X167009801Y-54435000D01*
X167261335Y-54435000D01*
X167538574Y-54379853D01*
X167799727Y-54271680D01*
X168034759Y-54114637D01*
X168234637Y-53914759D01*
X168391680Y-53679727D01*
X168499853Y-53418574D01*
X168555000Y-53141335D01*
X168555000Y-52858665D01*
X168499853Y-52581426D01*
X168391680Y-52320273D01*
X168234637Y-52085241D01*
X168034759Y-51885363D01*
X167799727Y-51728320D01*
X167538574Y-51620147D01*
X167261335Y-51565000D01*
X166978665Y-51565000D01*
X166754999Y-51609491D01*
X166754999Y-51366544D01*
X176105000Y-51366544D01*
X176105000Y-51633456D01*
X176157072Y-51895239D01*
X176259215Y-52141833D01*
X176407503Y-52363762D01*
X176596238Y-52552497D01*
X176818167Y-52700785D01*
X177064761Y-52802928D01*
X177326544Y-52855000D01*
X177593456Y-52855000D01*
X177855239Y-52802928D01*
X178101833Y-52700785D01*
X178323762Y-52552497D01*
X178512497Y-52363762D01*
X178581828Y-52260000D01*
X178878172Y-52260000D01*
X178947503Y-52363762D01*
X179136238Y-52552497D01*
X179358167Y-52700785D01*
X179604761Y-52802928D01*
X179866544Y-52855000D01*
X180133456Y-52855000D01*
X180395239Y-52802928D01*
X180641833Y-52700785D01*
X180863762Y-52552497D01*
X181052497Y-52363762D01*
X181200785Y-52141833D01*
X181270000Y-51974734D01*
X181339215Y-52141833D01*
X181487503Y-52363762D01*
X181676238Y-52552497D01*
X181898167Y-52700785D01*
X182144761Y-52802928D01*
X182406544Y-52855000D01*
X182673456Y-52855000D01*
X182935239Y-52802928D01*
X183181833Y-52700785D01*
X183403762Y-52552497D01*
X183592497Y-52363762D01*
X183740785Y-52141833D01*
X183842928Y-51895239D01*
X183895000Y-51633456D01*
X183895000Y-51366544D01*
X183842928Y-51104761D01*
X183740785Y-50858167D01*
X183592497Y-50636238D01*
X183403762Y-50447503D01*
X183181833Y-50299215D01*
X182935239Y-50197072D01*
X182673456Y-50145000D01*
X182406544Y-50145000D01*
X182144761Y-50197072D01*
X181898167Y-50299215D01*
X181676238Y-50447503D01*
X181487503Y-50636238D01*
X181339215Y-50858167D01*
X181270000Y-51025266D01*
X181200785Y-50858167D01*
X181052497Y-50636238D01*
X180863762Y-50447503D01*
X180641833Y-50299215D01*
X180395239Y-50197072D01*
X180133456Y-50145000D01*
X179866544Y-50145000D01*
X179604761Y-50197072D01*
X179358167Y-50299215D01*
X179136238Y-50447503D01*
X178947503Y-50636238D01*
X178878172Y-50740000D01*
X178581828Y-50740000D01*
X178512497Y-50636238D01*
X178323762Y-50447503D01*
X178101833Y-50299215D01*
X177855239Y-50197072D01*
X177593456Y-50145000D01*
X177326544Y-50145000D01*
X177064761Y-50197072D01*
X176818167Y-50299215D01*
X176596238Y-50447503D01*
X176407503Y-50636238D01*
X176259215Y-50858167D01*
X176157072Y-51104761D01*
X176105000Y-51366544D01*
X166754999Y-51366544D01*
X166754999Y-48890509D01*
X166978665Y-48935000D01*
X167261335Y-48935000D01*
X167538574Y-48879853D01*
X167799727Y-48771680D01*
X168034759Y-48614637D01*
X168234637Y-48414759D01*
X168338043Y-48260000D01*
X178042678Y-48260000D01*
X178080000Y-48263676D01*
X178117322Y-48260000D01*
X178117333Y-48260000D01*
X178228986Y-48249003D01*
X178372247Y-48205546D01*
X178504276Y-48134974D01*
X178620001Y-48040001D01*
X178643804Y-48010997D01*
X178854801Y-47800000D01*
X188061928Y-47800000D01*
X188074188Y-47924482D01*
X188110498Y-48044180D01*
X188169463Y-48154494D01*
X188248815Y-48251185D01*
X188345506Y-48330537D01*
X188455820Y-48389502D01*
X188575518Y-48425812D01*
X188700000Y-48438072D01*
X189214250Y-48435000D01*
X189373000Y-48276250D01*
X189373000Y-47127000D01*
X188223750Y-47127000D01*
X188065000Y-47285750D01*
X188061928Y-47800000D01*
X178854801Y-47800000D01*
X180454801Y-46200000D01*
X188061928Y-46200000D01*
X188065000Y-46714250D01*
X188223750Y-46873000D01*
X189373000Y-46873000D01*
X189373000Y-45723750D01*
X189214250Y-45565000D01*
X188700000Y-45561928D01*
X188575518Y-45574188D01*
X188455820Y-45610498D01*
X188345506Y-45669463D01*
X188248815Y-45748815D01*
X188169463Y-45845506D01*
X188110498Y-45955820D01*
X188074188Y-46075518D01*
X188061928Y-46200000D01*
X180454801Y-46200000D01*
X182798635Y-43856167D01*
X182943589Y-43885000D01*
X183216411Y-43885000D01*
X183483989Y-43831775D01*
X183736043Y-43727371D01*
X183962886Y-43575799D01*
X184155799Y-43382886D01*
X184307371Y-43156043D01*
X184411775Y-42903989D01*
X184465000Y-42636411D01*
X184465000Y-42363589D01*
X184411775Y-42096011D01*
X184307371Y-41843957D01*
X184155799Y-41617114D01*
X183962886Y-41424201D01*
X183736043Y-41272629D01*
X183483989Y-41168225D01*
X183216411Y-41115000D01*
X182943589Y-41115000D01*
X182676011Y-41168225D01*
X182423957Y-41272629D01*
X182197114Y-41424201D01*
X182004201Y-41617114D01*
X181852629Y-41843957D01*
X181810000Y-41946873D01*
X181767371Y-41843957D01*
X181615799Y-41617114D01*
X181422886Y-41424201D01*
X181196043Y-41272629D01*
X180943989Y-41168225D01*
X180676411Y-41115000D01*
X180403589Y-41115000D01*
X180136011Y-41168225D01*
X179883957Y-41272629D01*
X179657114Y-41424201D01*
X179464201Y-41617114D01*
X179386445Y-41733483D01*
X179375812Y-41625518D01*
X179339502Y-41505820D01*
X179280537Y-41395506D01*
X179201185Y-41298815D01*
X179104494Y-41219463D01*
X178994180Y-41160498D01*
X178874482Y-41124188D01*
X178750000Y-41111928D01*
X177250000Y-41111928D01*
X177125518Y-41124188D01*
X177005820Y-41160498D01*
X176895506Y-41219463D01*
X176798815Y-41298815D01*
X176719463Y-41395506D01*
X176660498Y-41505820D01*
X176624188Y-41625518D01*
X176611928Y-41750000D01*
X176611928Y-43250000D01*
X176624188Y-43374482D01*
X176660498Y-43494180D01*
X176719463Y-43604494D01*
X176798815Y-43701185D01*
X176895506Y-43780537D01*
X177005820Y-43839502D01*
X177125518Y-43875812D01*
X177250000Y-43888072D01*
X178750000Y-43888072D01*
X178874482Y-43875812D01*
X178994180Y-43839502D01*
X179104494Y-43780537D01*
X179201185Y-43701185D01*
X179280537Y-43604494D01*
X179339502Y-43494180D01*
X179375812Y-43374482D01*
X179386445Y-43266517D01*
X179464201Y-43382886D01*
X179657114Y-43575799D01*
X179883957Y-43727371D01*
X180136011Y-43831775D01*
X180403589Y-43885000D01*
X180620198Y-43885000D01*
X177765199Y-46740000D01*
X168338043Y-46740000D01*
X168234637Y-46585241D01*
X168034759Y-46385363D01*
X167799727Y-46228320D01*
X167538574Y-46120147D01*
X167261335Y-46065000D01*
X166978665Y-46065000D01*
X166754999Y-46109491D01*
X166754999Y-43439802D01*
X166796113Y-43398688D01*
X166978665Y-43435000D01*
X167261335Y-43435000D01*
X167538574Y-43379853D01*
X167799727Y-43271680D01*
X168034759Y-43114637D01*
X168234637Y-42914759D01*
X168391680Y-42679727D01*
X168499853Y-42418574D01*
X168555000Y-42141335D01*
X168555000Y-41858665D01*
X168499853Y-41581426D01*
X168391680Y-41320273D01*
X168234637Y-41085241D01*
X168034759Y-40885363D01*
X167799727Y-40728320D01*
X167538574Y-40620147D01*
X167261335Y-40565000D01*
X166978665Y-40565000D01*
X166701426Y-40620147D01*
X166440273Y-40728320D01*
X166205241Y-40885363D01*
X166005363Y-41085241D01*
X165901957Y-41240000D01*
X165314802Y-41240000D01*
X162774802Y-38700000D01*
X188061928Y-38700000D01*
X188061928Y-40300000D01*
X188074188Y-40424482D01*
X188110498Y-40544180D01*
X188169463Y-40654494D01*
X188248815Y-40751185D01*
X188345506Y-40830537D01*
X188455820Y-40889502D01*
X188575518Y-40925812D01*
X188700000Y-40938072D01*
X190300000Y-40938072D01*
X190424482Y-40925812D01*
X190544180Y-40889502D01*
X190654494Y-40830537D01*
X190751185Y-40751185D01*
X190764790Y-40734607D01*
X190820273Y-40771680D01*
X191081426Y-40879853D01*
X191358665Y-40935000D01*
X191641335Y-40935000D01*
X191918574Y-40879853D01*
X192179727Y-40771680D01*
X192414759Y-40614637D01*
X192614637Y-40414759D01*
X192771680Y-40179727D01*
X192879853Y-39918574D01*
X192935000Y-39641335D01*
X192935000Y-39358665D01*
X192879853Y-39081426D01*
X192771680Y-38820273D01*
X192614637Y-38585241D01*
X192414759Y-38385363D01*
X192179727Y-38228320D01*
X191918574Y-38120147D01*
X191641335Y-38065000D01*
X191358665Y-38065000D01*
X191081426Y-38120147D01*
X190820273Y-38228320D01*
X190764790Y-38265393D01*
X190751185Y-38248815D01*
X190654494Y-38169463D01*
X190544180Y-38110498D01*
X190424482Y-38074188D01*
X190300000Y-38061928D01*
X188700000Y-38061928D01*
X188575518Y-38074188D01*
X188455820Y-38110498D01*
X188345506Y-38169463D01*
X188248815Y-38248815D01*
X188169463Y-38345506D01*
X188110498Y-38455820D01*
X188074188Y-38575518D01*
X188061928Y-38700000D01*
X162774802Y-38700000D01*
X160898688Y-36823887D01*
X160935000Y-36641335D01*
X160935000Y-36358665D01*
X160879853Y-36081426D01*
X160771680Y-35820273D01*
X160614637Y-35585241D01*
X160514406Y-35485010D01*
X166105594Y-35485010D01*
X166005363Y-35585241D01*
%TA.AperFunction,Conductor*%
D32*
G36*
X166005363Y-35585241D02*
G01*
X165848320Y-35820273D01*
X165740147Y-36081426D01*
X165685000Y-36358665D01*
X165685000Y-36641335D01*
X165740147Y-36918574D01*
X165848320Y-37179727D01*
X166005363Y-37414759D01*
X166205241Y-37614637D01*
X166440273Y-37771680D01*
X166701426Y-37879853D01*
X166978665Y-37935000D01*
X167261335Y-37935000D01*
X167538574Y-37879853D01*
X167799727Y-37771680D01*
X168034759Y-37614637D01*
X168234637Y-37414759D01*
X168391680Y-37179727D01*
X168499853Y-36918574D01*
X168555000Y-36641335D01*
X168555000Y-36358665D01*
X168499853Y-36081426D01*
X168391680Y-35820273D01*
X168234637Y-35585241D01*
X168134406Y-35485010D01*
X175965000Y-35485010D01*
X175965000Y-35651184D01*
X176023989Y-35947743D01*
X176139701Y-36227095D01*
X176307688Y-36478505D01*
X176521495Y-36692312D01*
X176772905Y-36860299D01*
X177052257Y-36976011D01*
X177348816Y-37035000D01*
X177651184Y-37035000D01*
X177947743Y-36976011D01*
X178227095Y-36860299D01*
X178478505Y-36692312D01*
X178692312Y-36478505D01*
X178750000Y-36392169D01*
X178807688Y-36478505D01*
X179021495Y-36692312D01*
X179272905Y-36860299D01*
X179552257Y-36976011D01*
X179848816Y-37035000D01*
X180151184Y-37035000D01*
X180408930Y-36983731D01*
X180661201Y-37236003D01*
X180685000Y-37265002D01*
X180713998Y-37288800D01*
X180800724Y-37359975D01*
X180861050Y-37392220D01*
X180932754Y-37430547D01*
X181076015Y-37474004D01*
X181187668Y-37485001D01*
X181187677Y-37485001D01*
X181225000Y-37488677D01*
X181262323Y-37485001D01*
X196018753Y-37485001D01*
X196010588Y-37511918D01*
X195998328Y-37636400D01*
X195998328Y-39363600D01*
X196010588Y-39488082D01*
X196046898Y-39607780D01*
X196105863Y-39718094D01*
X196185215Y-39814785D01*
X196281906Y-39894137D01*
X196392220Y-39953102D01*
X196450023Y-39970636D01*
X196335961Y-40084698D01*
X196171958Y-40330147D01*
X196058990Y-40602875D01*
X196001400Y-40892401D01*
X196001400Y-41187599D01*
X196058990Y-41477125D01*
X196171958Y-41749853D01*
X196335961Y-41995302D01*
X196544698Y-42204039D01*
X196703281Y-42310000D01*
X196544698Y-42415961D01*
X196335961Y-42624698D01*
X196171958Y-42870147D01*
X196058990Y-43142875D01*
X196001400Y-43432401D01*
X196001400Y-43727599D01*
X196058990Y-44017125D01*
X196171958Y-44289853D01*
X196335961Y-44535302D01*
X196544698Y-44744039D01*
X196703281Y-44850000D01*
X196544698Y-44955961D01*
X196335961Y-45164698D01*
X196171958Y-45410147D01*
X196058990Y-45682875D01*
X196001400Y-45972401D01*
X196001400Y-46240000D01*
X192718043Y-46240000D01*
X192614637Y-46085241D01*
X192414759Y-45885363D01*
X192179727Y-45728320D01*
X191918574Y-45620147D01*
X191641335Y-45565000D01*
X191358665Y-45565000D01*
X191081426Y-45620147D01*
X190820273Y-45728320D01*
X190764790Y-45765393D01*
X190751185Y-45748815D01*
X190654494Y-45669463D01*
X190544180Y-45610498D01*
X190424482Y-45574188D01*
X190300000Y-45561928D01*
X189785750Y-45565000D01*
X189627000Y-45723750D01*
X189627000Y-46873000D01*
X189647000Y-46873000D01*
X189647000Y-47127000D01*
X189627000Y-47127000D01*
X189627000Y-48276250D01*
X189785750Y-48435000D01*
X190300000Y-48438072D01*
X190424482Y-48425812D01*
X190544180Y-48389502D01*
X190654494Y-48330537D01*
X190751185Y-48251185D01*
X190764790Y-48234607D01*
X190820273Y-48271680D01*
X191081426Y-48379853D01*
X191358665Y-48435000D01*
X191641335Y-48435000D01*
X191918574Y-48379853D01*
X192179727Y-48271680D01*
X192414759Y-48114637D01*
X192614637Y-47914759D01*
X192718043Y-47760000D01*
X196299010Y-47760000D01*
X196171958Y-47950147D01*
X196058990Y-48222875D01*
X196001400Y-48512401D01*
X196001400Y-48807599D01*
X196058990Y-49097125D01*
X196171958Y-49369853D01*
X196335961Y-49615302D01*
X196544698Y-49824039D01*
X196790147Y-49988042D01*
X197062875Y-50101010D01*
X197352401Y-50158600D01*
X197647599Y-50158600D01*
X197937125Y-50101010D01*
X198209853Y-49988042D01*
X198455302Y-49824039D01*
X198664039Y-49615302D01*
X198770000Y-49456719D01*
X198875961Y-49615302D01*
X199084698Y-49824039D01*
X199330147Y-49988042D01*
X199602875Y-50101010D01*
X199892401Y-50158600D01*
X200187599Y-50158600D01*
X200477125Y-50101010D01*
X200749853Y-49988042D01*
X200995302Y-49824039D01*
X201204039Y-49615302D01*
X201368042Y-49369853D01*
X201481010Y-49097125D01*
X201538600Y-48807599D01*
X201538600Y-48512401D01*
X201481010Y-48222875D01*
X201368042Y-47950147D01*
X201204039Y-47704698D01*
X200995302Y-47495961D01*
X200836719Y-47390000D01*
X200995302Y-47284039D01*
X201204039Y-47075302D01*
X201368042Y-46829853D01*
X201481010Y-46557125D01*
X201538600Y-46267599D01*
X201538600Y-45972401D01*
X201481010Y-45682875D01*
X201368042Y-45410147D01*
X201204039Y-45164698D01*
X200995302Y-44955961D01*
X200836719Y-44850000D01*
X200995302Y-44744039D01*
X201204039Y-44535302D01*
X201368042Y-44289853D01*
X201481010Y-44017125D01*
X201538600Y-43727599D01*
X201538600Y-43432401D01*
X201481010Y-43142875D01*
X201368042Y-42870147D01*
X201204039Y-42624698D01*
X200995302Y-42415961D01*
X200836719Y-42310000D01*
X200995302Y-42204039D01*
X201204039Y-41995302D01*
X201368042Y-41749853D01*
X201481010Y-41477125D01*
X201538600Y-41187599D01*
X201538600Y-40892401D01*
X201481010Y-40602875D01*
X201368042Y-40330147D01*
X201204039Y-40084698D01*
X200995302Y-39875961D01*
X200836719Y-39770000D01*
X200995302Y-39664039D01*
X201204039Y-39455302D01*
X201368042Y-39209853D01*
X201446247Y-39021049D01*
X202985001Y-40559803D01*
X202985002Y-57109491D01*
X202761335Y-57065000D01*
X202478665Y-57065000D01*
X202201426Y-57120147D01*
X201940273Y-57228320D01*
X201705241Y-57385363D01*
X201505363Y-57585241D01*
X201348320Y-57820273D01*
X201240147Y-58081426D01*
X201185000Y-58358665D01*
X201185000Y-58641335D01*
X201240147Y-58918574D01*
X201348320Y-59179727D01*
X201505363Y-59414759D01*
X201705241Y-59614637D01*
X201940273Y-59771680D01*
X202201426Y-59879853D01*
X202478665Y-59935000D01*
X202761335Y-59935000D01*
X202985002Y-59890509D01*
X202985002Y-61440196D01*
X202037297Y-62387901D01*
X202034759Y-62385363D01*
X201799727Y-62228320D01*
X201538574Y-62120147D01*
X201261335Y-62065000D01*
X200978665Y-62065000D01*
X200701426Y-62120147D01*
X200440273Y-62228320D01*
X200205241Y-62385363D01*
X200005363Y-62585241D01*
X199848320Y-62820273D01*
X199740147Y-63081426D01*
X199685000Y-63358665D01*
X199685000Y-63641335D01*
X199740147Y-63918574D01*
X199848320Y-64179727D01*
X200005363Y-64414759D01*
X200205241Y-64614637D01*
X200440273Y-64771680D01*
X200701426Y-64879853D01*
X200978665Y-64935000D01*
X201261335Y-64935000D01*
X201538574Y-64879853D01*
X201799727Y-64771680D01*
X202034759Y-64614637D01*
X202234637Y-64414759D01*
X202391680Y-64179727D01*
X202406219Y-64144626D01*
X202424276Y-64134974D01*
X202540001Y-64040001D01*
X202563804Y-64010997D01*
X203840000Y-62734801D01*
X203840001Y-170840000D01*
X156160000Y-170840000D01*
X156160000Y-168848816D01*
X175965000Y-168848816D01*
X175965000Y-169151184D01*
X176023989Y-169447743D01*
X176139701Y-169727095D01*
X176307688Y-169978505D01*
X176521495Y-170192312D01*
X176772905Y-170360299D01*
X177052257Y-170476011D01*
X177348816Y-170535000D01*
X177651184Y-170535000D01*
X177947743Y-170476011D01*
X178227095Y-170360299D01*
X178478505Y-170192312D01*
X178692312Y-169978505D01*
X178750000Y-169892169D01*
X178807688Y-169978505D01*
X179021495Y-170192312D01*
X179272905Y-170360299D01*
X179552257Y-170476011D01*
X179848816Y-170535000D01*
X180151184Y-170535000D01*
X180447743Y-170476011D01*
X180727095Y-170360299D01*
X180978505Y-170192312D01*
X181016120Y-170154697D01*
X181069463Y-170254494D01*
X181148815Y-170351185D01*
X181245506Y-170430537D01*
X181355820Y-170489502D01*
X181475518Y-170525812D01*
X181600000Y-170538072D01*
X183400000Y-170538072D01*
X183524482Y-170525812D01*
X183644180Y-170489502D01*
X183754494Y-170430537D01*
X183851185Y-170351185D01*
X183930537Y-170254494D01*
X183989502Y-170144180D01*
X184025812Y-170024482D01*
X184038072Y-169900000D01*
X184038072Y-168100000D01*
X184025812Y-167975518D01*
X183989502Y-167855820D01*
X183930537Y-167745506D01*
X183851185Y-167648815D01*
X183754494Y-167569463D01*
X183644180Y-167510498D01*
X183524482Y-167474188D01*
X183400000Y-167461928D01*
X181600000Y-167461928D01*
X181475518Y-167474188D01*
X181355820Y-167510498D01*
X181245506Y-167569463D01*
X181148815Y-167648815D01*
X181069463Y-167745506D01*
X181016120Y-167845303D01*
X180978505Y-167807688D01*
X180727095Y-167639701D01*
X180447743Y-167523989D01*
X180151184Y-167465000D01*
X179848816Y-167465000D01*
X179552257Y-167523989D01*
X179272905Y-167639701D01*
X179021495Y-167807688D01*
X178807688Y-168021495D01*
X178750000Y-168107831D01*
X178692312Y-168021495D01*
X178478505Y-167807688D01*
X178227095Y-167639701D01*
X177947743Y-167523989D01*
X177651184Y-167465000D01*
X177348816Y-167465000D01*
X177052257Y-167523989D01*
X176772905Y-167639701D01*
X176521495Y-167807688D01*
X176307688Y-168021495D01*
X176139701Y-168272905D01*
X176023989Y-168552257D01*
X175965000Y-168848816D01*
X156160000Y-168848816D01*
X156160000Y-161277902D01*
X172945000Y-161277902D01*
X172945000Y-161722098D01*
X173031658Y-162157759D01*
X173201645Y-162568143D01*
X173448427Y-162937479D01*
X173762521Y-163251573D01*
X174131857Y-163498355D01*
X174542241Y-163668342D01*
X174977902Y-163755000D01*
X175422098Y-163755000D01*
X175857759Y-163668342D01*
X176268143Y-163498355D01*
X176637479Y-163251573D01*
X176951573Y-162937479D01*
X177198355Y-162568143D01*
X177368342Y-162157759D01*
X177455000Y-161722098D01*
X177455000Y-161277902D01*
X182545000Y-161277902D01*
X182545000Y-161722098D01*
X182631658Y-162157759D01*
X182801645Y-162568143D01*
X183048427Y-162937479D01*
X183362521Y-163251573D01*
X183731857Y-163498355D01*
X184142241Y-163668342D01*
X184577902Y-163755000D01*
X185022098Y-163755000D01*
X185457759Y-163668342D01*
X185868143Y-163498355D01*
X186237479Y-163251573D01*
X186551573Y-162937479D01*
X186798355Y-162568143D01*
X186968342Y-162157759D01*
X187055000Y-161722098D01*
X187055000Y-161277902D01*
X186968342Y-160842241D01*
X186798355Y-160431857D01*
X186551573Y-160062521D01*
X186237479Y-159748427D01*
X185868143Y-159501645D01*
X185457759Y-159331658D01*
X185022098Y-159245000D01*
X184577902Y-159245000D01*
X184142241Y-159331658D01*
X183731857Y-159501645D01*
X183362521Y-159748427D01*
X183048427Y-160062521D01*
X182801645Y-160431857D01*
X182631658Y-160842241D01*
X182545000Y-161277902D01*
X177455000Y-161277902D01*
X177368342Y-160842241D01*
X177198355Y-160431857D01*
X176951573Y-160062521D01*
X176637479Y-159748427D01*
X176268143Y-159501645D01*
X175857759Y-159331658D01*
X175422098Y-159245000D01*
X174977902Y-159245000D01*
X174542241Y-159331658D01*
X174131857Y-159501645D01*
X173762521Y-159748427D01*
X173448427Y-160062521D01*
X173201645Y-160431857D01*
X173031658Y-160842241D01*
X172945000Y-161277902D01*
X156160000Y-161277902D01*
X156160000Y-150734801D01*
X159101312Y-153676114D01*
X159065000Y-153858665D01*
X159065000Y-154141335D01*
X159120147Y-154418574D01*
X159228320Y-154679727D01*
X159385363Y-154914759D01*
X159585241Y-155114637D01*
X159820273Y-155271680D01*
X160081426Y-155379853D01*
X160358665Y-155435000D01*
X160641335Y-155435000D01*
X160918574Y-155379853D01*
X161179727Y-155271680D01*
X161414759Y-155114637D01*
X161614637Y-154914759D01*
X161771680Y-154679727D01*
X161879853Y-154418574D01*
X161893684Y-154349039D01*
X166728096Y-154349039D01*
X166768754Y-154483087D01*
X166888963Y-154737420D01*
X167056481Y-154963414D01*
X167264869Y-155152385D01*
X167506119Y-155297070D01*
X167770960Y-155391909D01*
X167993000Y-155270624D01*
X167993000Y-154127000D01*
X168247000Y-154127000D01*
X168247000Y-155270624D01*
X168469040Y-155391909D01*
X168733881Y-155297070D01*
X168975131Y-155152385D01*
X169183519Y-154963414D01*
X169351037Y-154737420D01*
X169471246Y-154483087D01*
X169511904Y-154349039D01*
X169389915Y-154127000D01*
X168247000Y-154127000D01*
X167993000Y-154127000D01*
X166850085Y-154127000D01*
X166728096Y-154349039D01*
X161893684Y-154349039D01*
X161935000Y-154141335D01*
X161935000Y-153858665D01*
X161893685Y-153650961D01*
X166728096Y-153650961D01*
X166850085Y-153873000D01*
X167993000Y-153873000D01*
X167993000Y-152729376D01*
X168247000Y-152729376D01*
X168247000Y-153873000D01*
X169389915Y-153873000D01*
X169511904Y-153650961D01*
X169471246Y-153516913D01*
X169351037Y-153262580D01*
X169183519Y-153036586D01*
X168975131Y-152847615D01*
X168733881Y-152702930D01*
X168469040Y-152608091D01*
X168247000Y-152729376D01*
X167993000Y-152729376D01*
X167770960Y-152608091D01*
X167506119Y-152702930D01*
X167264869Y-152847615D01*
X167056481Y-153036586D01*
X166888963Y-153262580D01*
X166768754Y-153516913D01*
X166728096Y-153650961D01*
X161893685Y-153650961D01*
X161879853Y-153581426D01*
X161771680Y-153320273D01*
X161614637Y-153085241D01*
X161414759Y-152885363D01*
X161179727Y-152728320D01*
X160918574Y-152620147D01*
X160641335Y-152565000D01*
X160358665Y-152565000D01*
X160176114Y-152601312D01*
X158933467Y-151358665D01*
X178565000Y-151358665D01*
X178565000Y-151641335D01*
X178620147Y-151918574D01*
X178728320Y-152179727D01*
X178885363Y-152414759D01*
X179085241Y-152614637D01*
X179320273Y-152771680D01*
X179581426Y-152879853D01*
X179858665Y-152935000D01*
X180141335Y-152935000D01*
X180323886Y-152898688D01*
X181936201Y-154511003D01*
X181959999Y-154540001D01*
X181988997Y-154563799D01*
X182075723Y-154634974D01*
X182207753Y-154705546D01*
X182351014Y-154749003D01*
X182462667Y-154760000D01*
X182462677Y-154760000D01*
X182500000Y-154763676D01*
X182537323Y-154760000D01*
X184296289Y-154760000D01*
X184340226Y-154803937D01*
X184509744Y-154917205D01*
X184698102Y-154995226D01*
X184898061Y-155035000D01*
X185101939Y-155035000D01*
X185301898Y-154995226D01*
X185490256Y-154917205D01*
X185659774Y-154803937D01*
X185803937Y-154659774D01*
X185917205Y-154490256D01*
X185995226Y-154301898D01*
X186035000Y-154101939D01*
X186035000Y-153898061D01*
X185995226Y-153698102D01*
X185917205Y-153509744D01*
X185803937Y-153340226D01*
X185659774Y-153196063D01*
X185490256Y-153082795D01*
X185301898Y-153004774D01*
X185101939Y-152965000D01*
X184898061Y-152965000D01*
X184698102Y-153004774D01*
X184509744Y-153082795D01*
X184340226Y-153196063D01*
X184296289Y-153240000D01*
X182814802Y-153240000D01*
X181398688Y-151823886D01*
X181435000Y-151641335D01*
X181435000Y-151358665D01*
X181379853Y-151081426D01*
X181271680Y-150820273D01*
X181114637Y-150585241D01*
X180914759Y-150385363D01*
X180679727Y-150228320D01*
X180418574Y-150120147D01*
X180141335Y-150065000D01*
X179858665Y-150065000D01*
X179581426Y-150120147D01*
X179320273Y-150228320D01*
X179085241Y-150385363D01*
X178885363Y-150585241D01*
X178728320Y-150820273D01*
X178620147Y-151081426D01*
X178565000Y-151358665D01*
X158933467Y-151358665D01*
X157309989Y-149735188D01*
X157309989Y-136358665D01*
X158565000Y-136358665D01*
X158565000Y-136641335D01*
X158620147Y-136918574D01*
X158728320Y-137179727D01*
X158885363Y-137414759D01*
X159085241Y-137614637D01*
X159320273Y-137771680D01*
X159581426Y-137879853D01*
X159858665Y-137935000D01*
X160141335Y-137935000D01*
X160418574Y-137879853D01*
X160679727Y-137771680D01*
X160914759Y-137614637D01*
X161114637Y-137414759D01*
X161271680Y-137179727D01*
X161379853Y-136918574D01*
X161435000Y-136641335D01*
X161435000Y-136358665D01*
X166185000Y-136358665D01*
X166185000Y-136641335D01*
X166240147Y-136918574D01*
X166348320Y-137179727D01*
X166505363Y-137414759D01*
X166705241Y-137614637D01*
X166940273Y-137771680D01*
X167201426Y-137879853D01*
X167478665Y-137935000D01*
X167761335Y-137935000D01*
X168038574Y-137879853D01*
X168299727Y-137771680D01*
X168534759Y-137614637D01*
X168734637Y-137414759D01*
X168891680Y-137179727D01*
X168999853Y-136918574D01*
X169055000Y-136641335D01*
X169055000Y-136358665D01*
X168999853Y-136081426D01*
X168891680Y-135820273D01*
X168734637Y-135585241D01*
X168534759Y-135385363D01*
X168299727Y-135228320D01*
X168038574Y-135120147D01*
X167761335Y-135065000D01*
X167478665Y-135065000D01*
X167201426Y-135120147D01*
X166940273Y-135228320D01*
X166705241Y-135385363D01*
X166505363Y-135585241D01*
X166348320Y-135820273D01*
X166240147Y-136081426D01*
X166185000Y-136358665D01*
X161435000Y-136358665D01*
X161379853Y-136081426D01*
X161271680Y-135820273D01*
X161114637Y-135585241D01*
X160914759Y-135385363D01*
X160679727Y-135228320D01*
X160418574Y-135120147D01*
X160141335Y-135065000D01*
X159858665Y-135065000D01*
X159581426Y-135120147D01*
X159320273Y-135228320D01*
X159085241Y-135385363D01*
X158885363Y-135585241D01*
X158728320Y-135820273D01*
X158620147Y-136081426D01*
X158565000Y-136358665D01*
X157309989Y-136358665D01*
X157309989Y-128858665D01*
X158565000Y-128858665D01*
X158565000Y-129141335D01*
X158620147Y-129418574D01*
X158728320Y-129679727D01*
X158885363Y-129914759D01*
X159085241Y-130114637D01*
X159320273Y-130271680D01*
X159581426Y-130379853D01*
X159858665Y-130435000D01*
X160141335Y-130435000D01*
X160418574Y-130379853D01*
X160679727Y-130271680D01*
X160914759Y-130114637D01*
X161114637Y-129914759D01*
X161271680Y-129679727D01*
X161379853Y-129418574D01*
X161435000Y-129141335D01*
X161435000Y-128858665D01*
X161379853Y-128581426D01*
X161271680Y-128320273D01*
X161114637Y-128085241D01*
X160914759Y-127885363D01*
X160679727Y-127728320D01*
X160418574Y-127620147D01*
X160141335Y-127565000D01*
X159858665Y-127565000D01*
X159581426Y-127620147D01*
X159320273Y-127728320D01*
X159085241Y-127885363D01*
X158885363Y-128085241D01*
X158728320Y-128320273D01*
X158620147Y-128581426D01*
X158565000Y-128858665D01*
X157309989Y-128858665D01*
X157309989Y-101579810D01*
X158061928Y-100827872D01*
X158061928Y-101300000D01*
X158074188Y-101424482D01*
X158110498Y-101544180D01*
X158169463Y-101654494D01*
X158248815Y-101751185D01*
X158345506Y-101830537D01*
X158455820Y-101889502D01*
X158575518Y-101925812D01*
X158700000Y-101938072D01*
X158876348Y-101938072D01*
X158890835Y-101955724D01*
X158959999Y-102040001D01*
X158989003Y-102063804D01*
X165965002Y-109039805D01*
X165965002Y-109961928D01*
X164600000Y-109961928D01*
X164475518Y-109974188D01*
X164355820Y-110010498D01*
X164245506Y-110069463D01*
X164148815Y-110148815D01*
X164069463Y-110245506D01*
X164010498Y-110355820D01*
X164004944Y-110374127D01*
X163938505Y-110307688D01*
X163687095Y-110139701D01*
X163407743Y-110023989D01*
X163111184Y-109965000D01*
X162808816Y-109965000D01*
X162512257Y-110023989D01*
X162232905Y-110139701D01*
X161981495Y-110307688D01*
X161767688Y-110521495D01*
X161599701Y-110772905D01*
X161483989Y-111052257D01*
X161425000Y-111348816D01*
X161425000Y-111651184D01*
X161483989Y-111947743D01*
X161599701Y-112227095D01*
X161767688Y-112478505D01*
X161981495Y-112692312D01*
X162200001Y-112838313D01*
X162200000Y-118587679D01*
X162196324Y-118625002D01*
X162200000Y-118662324D01*
X162200000Y-118662334D01*
X162210997Y-118773987D01*
X162238613Y-118865026D01*
X162254454Y-118917248D01*
X162325026Y-119049278D01*
X162346730Y-119075724D01*
X162419999Y-119165003D01*
X162449003Y-119188806D01*
X175515000Y-132254804D01*
X175515000Y-132797512D01*
X175495226Y-132698102D01*
X175417205Y-132509744D01*
X175303937Y-132340226D01*
X175159774Y-132196063D01*
X174990256Y-132082795D01*
X174801898Y-132004774D01*
X174601939Y-131965000D01*
X174539802Y-131965000D01*
X163563804Y-120989003D01*
X163540001Y-120959999D01*
X163424276Y-120865026D01*
X163292247Y-120794454D01*
X163148986Y-120750997D01*
X163037333Y-120740000D01*
X163037322Y-120740000D01*
X163000000Y-120736324D01*
X162962678Y-120740000D01*
X161098043Y-120740000D01*
X160994637Y-120585241D01*
X160794759Y-120385363D01*
X160559727Y-120228320D01*
X160298574Y-120120147D01*
X160021335Y-120065000D01*
X159738665Y-120065000D01*
X159461426Y-120120147D01*
X159200273Y-120228320D01*
X158965241Y-120385363D01*
X158765363Y-120585241D01*
X158608320Y-120820273D01*
X158500147Y-121081426D01*
X158445000Y-121358665D01*
X158445000Y-121641335D01*
X158500147Y-121918574D01*
X158608320Y-122179727D01*
X158765363Y-122414759D01*
X158965241Y-122614637D01*
X159200273Y-122771680D01*
X159461426Y-122879853D01*
X159738665Y-122935000D01*
X160021335Y-122935000D01*
X160298574Y-122879853D01*
X160559727Y-122771680D01*
X160794759Y-122614637D01*
X160994637Y-122414759D01*
X161098043Y-122260000D01*
X162685199Y-122260000D01*
X168050134Y-127624935D01*
X168038574Y-127620147D01*
X167761335Y-127565000D01*
X167478665Y-127565000D01*
X167201426Y-127620147D01*
X166940273Y-127728320D01*
X166705241Y-127885363D01*
X166505363Y-128085241D01*
X166348320Y-128320273D01*
X166240147Y-128581426D01*
X166185000Y-128858665D01*
X166185000Y-129141335D01*
X166240147Y-129418574D01*
X166348320Y-129679727D01*
X166505363Y-129914759D01*
X166705241Y-130114637D01*
X166940273Y-130271680D01*
X167201426Y-130379853D01*
X167478665Y-130435000D01*
X167761335Y-130435000D01*
X168038574Y-130379853D01*
X168299727Y-130271680D01*
X168534759Y-130114637D01*
X168734637Y-129914759D01*
X168891680Y-129679727D01*
X168999853Y-129418574D01*
X169055000Y-129141335D01*
X169055000Y-128858665D01*
X168999853Y-128581426D01*
X168995065Y-128569866D01*
X171980744Y-131555545D01*
X171933403Y-131602886D01*
X171820135Y-131772404D01*
X171742114Y-131960762D01*
X171702340Y-132160721D01*
X171702340Y-132364599D01*
X171742114Y-132564558D01*
X171820135Y-132752916D01*
X171933403Y-132922434D01*
X171977341Y-132966372D01*
X171977340Y-142190018D01*
X171973664Y-142227340D01*
X171977340Y-142264662D01*
X171977340Y-142264672D01*
X171988337Y-142376325D01*
X172027671Y-142505995D01*
X172031794Y-142519586D01*
X172102366Y-142651616D01*
X172142036Y-142699953D01*
X172197339Y-142767341D01*
X172226343Y-142791144D01*
X173986201Y-144551003D01*
X174009999Y-144580001D01*
X174125724Y-144674974D01*
X174257753Y-144745546D01*
X174367843Y-144778941D01*
X174401068Y-144841101D01*
X174580392Y-145059608D01*
X174798899Y-145238932D01*
X174931858Y-145310000D01*
X174798899Y-145381068D01*
X174580392Y-145560392D01*
X174401068Y-145778899D01*
X174267818Y-146028192D01*
X174185764Y-146298691D01*
X174158057Y-146580000D01*
X174185764Y-146861309D01*
X174267818Y-147131808D01*
X174322970Y-147234990D01*
X165319812Y-147234990D01*
X165122894Y-147038072D01*
X166400000Y-147038072D01*
X166524482Y-147025812D01*
X166644180Y-146989502D01*
X166754494Y-146930537D01*
X166851185Y-146851185D01*
X166930537Y-146754494D01*
X166989502Y-146644180D01*
X167025812Y-146524482D01*
X167038072Y-146400000D01*
X167038072Y-144600000D01*
X167025812Y-144475518D01*
X166989502Y-144355820D01*
X166930537Y-144245506D01*
X166851185Y-144148815D01*
X166754494Y-144069463D01*
X166644180Y-144010498D01*
X166524482Y-143974188D01*
X166400000Y-143961928D01*
X164600000Y-143961928D01*
X164475518Y-143974188D01*
X164355820Y-144010498D01*
X164245506Y-144069463D01*
X164148815Y-144148815D01*
X164069463Y-144245506D01*
X164010498Y-144355820D01*
X164004944Y-144374127D01*
X163938505Y-144307688D01*
X163687095Y-144139701D01*
X163407743Y-144023989D01*
X163111184Y-143965000D01*
X162808816Y-143965000D01*
X162512257Y-144023989D01*
X162232905Y-144139701D01*
X161981495Y-144307688D01*
X161767688Y-144521495D01*
X161599701Y-144772905D01*
X161483989Y-145052257D01*
X161425000Y-145348816D01*
X161425000Y-145651184D01*
X161483989Y-145947743D01*
X161599701Y-146227095D01*
X161767688Y-146478505D01*
X161981495Y-146692312D01*
X162232905Y-146860299D01*
X162512257Y-146976011D01*
X162808816Y-147035000D01*
X162970219Y-147035000D01*
X164441210Y-148505992D01*
X164465009Y-148534991D01*
X164494007Y-148558789D01*
X164580733Y-148629964D01*
X164703762Y-148695725D01*
X164712763Y-148700536D01*
X164856024Y-148743993D01*
X164967677Y-148754990D01*
X164967687Y-148754990D01*
X165005010Y-148758666D01*
X165042333Y-148754990D01*
X174211154Y-148754990D01*
X174185764Y-148838691D01*
X174158057Y-149120000D01*
X174185764Y-149401309D01*
X174267818Y-149671808D01*
X174401068Y-149921101D01*
X174580392Y-150139608D01*
X174798899Y-150318932D01*
X175048192Y-150452182D01*
X175318691Y-150534236D01*
X175529508Y-150555000D01*
X176470492Y-150555000D01*
X176681309Y-150534236D01*
X176951808Y-150452182D01*
X177201101Y-150318932D01*
X177419608Y-150139608D01*
X177598932Y-149921101D01*
X177685042Y-149760000D01*
X180796289Y-149760000D01*
X180840226Y-149803937D01*
X181009744Y-149917205D01*
X181198102Y-149995226D01*
X181398061Y-150035000D01*
X181601939Y-150035000D01*
X181801898Y-149995226D01*
X181990256Y-149917205D01*
X182011425Y-149903060D01*
X182021068Y-149921101D01*
X182200392Y-150139608D01*
X182418899Y-150318932D01*
X182668192Y-150452182D01*
X182938691Y-150534236D01*
X183149508Y-150555000D01*
X183480199Y-150555000D01*
X186936201Y-154011003D01*
X186959999Y-154040001D01*
X186988997Y-154063799D01*
X187075724Y-154134974D01*
X187207753Y-154205546D01*
X187351014Y-154249003D01*
X187500000Y-154263677D01*
X187537333Y-154260000D01*
X195077678Y-154260000D01*
X195115000Y-154263676D01*
X195152322Y-154260000D01*
X195152333Y-154260000D01*
X195263986Y-154249003D01*
X195407247Y-154205546D01*
X195539276Y-154134974D01*
X195655001Y-154040001D01*
X195678804Y-154010997D01*
X198002673Y-151687128D01*
X198277659Y-151801031D01*
X198699796Y-151885000D01*
X199130204Y-151885000D01*
X199552341Y-151801031D01*
X199949985Y-151636322D01*
X200030002Y-151582857D01*
X200030001Y-156395197D01*
X190760189Y-165665010D01*
X165480762Y-165665010D01*
X165523224Y-165525031D01*
X165545000Y-165303935D01*
X165545000Y-164696064D01*
X165523224Y-164474968D01*
X165437166Y-164191275D01*
X165297417Y-163929821D01*
X165109345Y-163700655D01*
X164880178Y-163512583D01*
X164618724Y-163372834D01*
X164335031Y-163286776D01*
X164040000Y-163257718D01*
X163744968Y-163286776D01*
X163461275Y-163372834D01*
X163199821Y-163512583D01*
X162970655Y-163700655D01*
X162916935Y-163766114D01*
X162858405Y-163656613D01*
X162747962Y-163522038D01*
X162613387Y-163411595D01*
X162459851Y-163329528D01*
X162293255Y-163278992D01*
X162120001Y-163261928D01*
X160879999Y-163261928D01*
X160706745Y-163278992D01*
X160540149Y-163329528D01*
X160386613Y-163411595D01*
X160252038Y-163522038D01*
X160141595Y-163656613D01*
X160059528Y-163810149D01*
X160008992Y-163976745D01*
X159991928Y-164149999D01*
X159991928Y-165850001D01*
X160008992Y-166023255D01*
X160059528Y-166189851D01*
X160141595Y-166343387D01*
X160252038Y-166477962D01*
X160386613Y-166588405D01*
X160540149Y-166670472D01*
X160706745Y-166721008D01*
X160879999Y-166738072D01*
X162120001Y-166738072D01*
X162159390Y-166734193D01*
X162361215Y-166936018D01*
X162385009Y-166965011D01*
X162414002Y-166988805D01*
X162414006Y-166988809D01*
X162484695Y-167046821D01*
X162500734Y-167059984D01*
X162632763Y-167130556D01*
X162776024Y-167174013D01*
X162887677Y-167185010D01*
X162887686Y-167185010D01*
X162925009Y-167188686D01*
X162962332Y-167185010D01*
X191037668Y-167185010D01*
X191074990Y-167188686D01*
X191112312Y-167185010D01*
X191112323Y-167185010D01*
X191223976Y-167174013D01*
X191367237Y-167130556D01*
X191499266Y-167059984D01*
X191614991Y-166965011D01*
X191638794Y-166936007D01*
X194424802Y-164149999D01*
X195491928Y-164149999D01*
X195491928Y-165850001D01*
X195508992Y-166023255D01*
X195559528Y-166189851D01*
X195641595Y-166343387D01*
X195752038Y-166477962D01*
X195886613Y-166588405D01*
X196040149Y-166670472D01*
X196206745Y-166721008D01*
X196379999Y-166738072D01*
X197620001Y-166738072D01*
X197793255Y-166721008D01*
X197959851Y-166670472D01*
X198113387Y-166588405D01*
X198247962Y-166477962D01*
X198358405Y-166343387D01*
X198416934Y-166233886D01*
X198470655Y-166299345D01*
X198699822Y-166487417D01*
X198961276Y-166627166D01*
X199244969Y-166713224D01*
X199540000Y-166742282D01*
X199835032Y-166713224D01*
X200118725Y-166627166D01*
X200380179Y-166487417D01*
X200609345Y-166299345D01*
X200797417Y-166070179D01*
X200937166Y-165808724D01*
X201023224Y-165525031D01*
X201045000Y-165303935D01*
X201045000Y-164696064D01*
X201023224Y-164474968D01*
X200937166Y-164191275D01*
X200797417Y-163929821D01*
X200609345Y-163700655D01*
X200380178Y-163512583D01*
X200118724Y-163372834D01*
X199835031Y-163286776D01*
X199540000Y-163257718D01*
X199244968Y-163286776D01*
X198961275Y-163372834D01*
X198699821Y-163512583D01*
X198470655Y-163700655D01*
X198416935Y-163766114D01*
X198358405Y-163656613D01*
X198247962Y-163522038D01*
X198113387Y-163411595D01*
X197959851Y-163329528D01*
X197793255Y-163278992D01*
X197620001Y-163261928D01*
X196379999Y-163261928D01*
X196206745Y-163278992D01*
X196040149Y-163329528D01*
X195886613Y-163411595D01*
X195752038Y-163522038D01*
X195641595Y-163656613D01*
X195559528Y-163810149D01*
X195508992Y-163976745D01*
X195491928Y-164149999D01*
X194424802Y-164149999D01*
X201301005Y-157273797D01*
X201330002Y-157250000D01*
X201424975Y-157134275D01*
X201495547Y-157002246D01*
X201539004Y-156858985D01*
X201550001Y-156747332D01*
X201550001Y-156747323D01*
X201553677Y-156710000D01*
X201550001Y-156672677D01*
X201550001Y-146912324D01*
X201553677Y-146875001D01*
X201550001Y-146837678D01*
X201550001Y-146837668D01*
X201539004Y-146726015D01*
X201495547Y-146582754D01*
X201424975Y-146450725D01*
X201330002Y-146335000D01*
X201301004Y-146311202D01*
X200902129Y-145912327D01*
X201016031Y-145637341D01*
X201100000Y-145215204D01*
X201100000Y-144784796D01*
X201016031Y-144362659D01*
X200851322Y-143965015D01*
X200612200Y-143607144D01*
X200307856Y-143302800D01*
X199949985Y-143063678D01*
X199552341Y-142898969D01*
X199130204Y-142815000D01*
X198699796Y-142815000D01*
X198277659Y-142898969D01*
X197880015Y-143063678D01*
X197522144Y-143302800D01*
X197217800Y-143607144D01*
X196978678Y-143965015D01*
X196813969Y-144362659D01*
X196730000Y-144784796D01*
X196730000Y-145215204D01*
X196813969Y-145637341D01*
X196978678Y-146034985D01*
X197217800Y-146392856D01*
X197522144Y-146697200D01*
X197880015Y-146936322D01*
X198277659Y-147101031D01*
X198699796Y-147185000D01*
X199130204Y-147185000D01*
X199552341Y-147101031D01*
X199827327Y-146987129D01*
X200030002Y-147189804D01*
X200030002Y-147817144D01*
X199949985Y-147763678D01*
X199552341Y-147598969D01*
X199130204Y-147515000D01*
X198699796Y-147515000D01*
X198277659Y-147598969D01*
X197880015Y-147763678D01*
X197522144Y-148002800D01*
X197217800Y-148307144D01*
X196978678Y-148665015D01*
X196813969Y-149062659D01*
X196730000Y-149484796D01*
X196730000Y-149915204D01*
X196813969Y-150337341D01*
X196927872Y-150612327D01*
X194800199Y-152740000D01*
X187814802Y-152740000D01*
X185118400Y-150043599D01*
X185218932Y-149921101D01*
X185352182Y-149671808D01*
X185434236Y-149401309D01*
X185461943Y-149120000D01*
X185434236Y-148838691D01*
X185408846Y-148754990D01*
X192065189Y-148754990D01*
X192097872Y-148787673D01*
X191983969Y-149062659D01*
X191900000Y-149484796D01*
X191900000Y-149915204D01*
X191983969Y-150337341D01*
X192148678Y-150734985D01*
X192387800Y-151092856D01*
X192692144Y-151397200D01*
X193050015Y-151636322D01*
X193447659Y-151801031D01*
X193869796Y-151885000D01*
X194300204Y-151885000D01*
X194722341Y-151801031D01*
X195119985Y-151636322D01*
X195477856Y-151397200D01*
X195782200Y-151092856D01*
X196021322Y-150734985D01*
X196186031Y-150337341D01*
X196270000Y-149915204D01*
X196270000Y-149484796D01*
X196186031Y-149062659D01*
X196021322Y-148665015D01*
X195782200Y-148307144D01*
X195477856Y-148002800D01*
X195119985Y-147763678D01*
X194722341Y-147598969D01*
X194300204Y-147515000D01*
X193869796Y-147515000D01*
X193447659Y-147598969D01*
X193172673Y-147712872D01*
X192943794Y-147483993D01*
X192919991Y-147454989D01*
X192804266Y-147360016D01*
X192672237Y-147289444D01*
X192528976Y-147245987D01*
X192417323Y-147234990D01*
X192417312Y-147234990D01*
X192379990Y-147231314D01*
X192342668Y-147234990D01*
X185297030Y-147234990D01*
X185352182Y-147131808D01*
X185434236Y-146861309D01*
X185461943Y-146580000D01*
X185456748Y-146527251D01*
X192737354Y-146527251D01*
X192899381Y-146847930D01*
X193282675Y-147043725D01*
X193696803Y-147160981D01*
X194125848Y-147195192D01*
X194553324Y-147145042D01*
X194962802Y-147012461D01*
X195270619Y-146847930D01*
X195432646Y-146527251D01*
X194085000Y-145179605D01*
X192737354Y-146527251D01*
X185456748Y-146527251D01*
X185434236Y-146298691D01*
X185352182Y-146028192D01*
X185218932Y-145778899D01*
X185039608Y-145560392D01*
X184821101Y-145381068D01*
X184688142Y-145310000D01*
X184821101Y-145238932D01*
X185039608Y-145059608D01*
X185218932Y-144841101D01*
X185352182Y-144591808D01*
X185434236Y-144321309D01*
X185461943Y-144040000D01*
X185461587Y-144036389D01*
X186465000Y-145039802D01*
X186465000Y-145101939D01*
X186504774Y-145301898D01*
X186582795Y-145490256D01*
X186696063Y-145659774D01*
X186840226Y-145803937D01*
X187009744Y-145917205D01*
X187198102Y-145995226D01*
X187398061Y-146035000D01*
X187601939Y-146035000D01*
X187801898Y-145995226D01*
X187990256Y-145917205D01*
X188159774Y-145803937D01*
X188303937Y-145659774D01*
X188417205Y-145490256D01*
X188495226Y-145301898D01*
X188535000Y-145101939D01*
X188535000Y-145040848D01*
X191889808Y-145040848D01*
X191939958Y-145468324D01*
X192072539Y-145877802D01*
X192237070Y-146185619D01*
X192557749Y-146347646D01*
X193905395Y-145000000D01*
X194264605Y-145000000D01*
X195612251Y-146347646D01*
X195932930Y-146185619D01*
X196128725Y-145802325D01*
X196245981Y-145388197D01*
X196280192Y-144959152D01*
X196230042Y-144531676D01*
X196097461Y-144122198D01*
X195932930Y-143814381D01*
X195612251Y-143652354D01*
X194264605Y-145000000D01*
X193905395Y-145000000D01*
X192557749Y-143652354D01*
X192237070Y-143814381D01*
X192041275Y-144197675D01*
X191924019Y-144611803D01*
X191889808Y-145040848D01*
X188535000Y-145040848D01*
X188535000Y-144898061D01*
X188495226Y-144698102D01*
X188417205Y-144509744D01*
X188303937Y-144340226D01*
X188159774Y-144196063D01*
X187990256Y-144082795D01*
X187801898Y-144004774D01*
X187601939Y-143965000D01*
X187539802Y-143965000D01*
X187047551Y-143472749D01*
X192737354Y-143472749D01*
X194085000Y-144820395D01*
X195432646Y-143472749D01*
X195270619Y-143152070D01*
X194887325Y-142956275D01*
X194473197Y-142839019D01*
X194044152Y-142804808D01*
X193616676Y-142854958D01*
X193207198Y-142987539D01*
X192899381Y-143152070D01*
X192737354Y-143472749D01*
X187047551Y-143472749D01*
X185688814Y-142114013D01*
X185665011Y-142085009D01*
X185549286Y-141990036D01*
X185417257Y-141919464D01*
X185398208Y-141913686D01*
X185411904Y-141849039D01*
X185289915Y-141627000D01*
X183747000Y-141627000D01*
X183747000Y-141647000D01*
X183493000Y-141647000D01*
X183493000Y-141627000D01*
X183473000Y-141627000D01*
X183473000Y-141373000D01*
X183493000Y-141373000D01*
X183493000Y-140065000D01*
X183747000Y-140065000D01*
X183747000Y-141373000D01*
X185289915Y-141373000D01*
X185411904Y-141150961D01*
X185394367Y-141068182D01*
X185283715Y-140808354D01*
X185124500Y-140575105D01*
X184922839Y-140377399D01*
X184686483Y-140222834D01*
X184424514Y-140117350D01*
X184251942Y-140084796D01*
X191900000Y-140084796D01*
X191900000Y-140515204D01*
X191983969Y-140937341D01*
X192148678Y-141334985D01*
X192387800Y-141692856D01*
X192692144Y-141997200D01*
X193050015Y-142236322D01*
X193447659Y-142401031D01*
X193869796Y-142485000D01*
X194300204Y-142485000D01*
X194722341Y-142401031D01*
X195119985Y-142236322D01*
X195477856Y-141997200D01*
X195782200Y-141692856D01*
X196021322Y-141334985D01*
X196186031Y-140937341D01*
X196270000Y-140515204D01*
X196270000Y-140084796D01*
X196730000Y-140084796D01*
X196730000Y-140515204D01*
X196813969Y-140937341D01*
X196978678Y-141334985D01*
X197217800Y-141692856D01*
X197522144Y-141997200D01*
X197880015Y-142236322D01*
X198277659Y-142401031D01*
X198699796Y-142485000D01*
X199130204Y-142485000D01*
X199552341Y-142401031D01*
X199949985Y-142236322D01*
X200307856Y-141997200D01*
X200612200Y-141692856D01*
X200851322Y-141334985D01*
X201016031Y-140937341D01*
X201100000Y-140515204D01*
X201100000Y-140084796D01*
X201016031Y-139662659D01*
X200851322Y-139265015D01*
X200612200Y-138907144D01*
X200307856Y-138602800D01*
X199949985Y-138363678D01*
X199552341Y-138198969D01*
X199130204Y-138115000D01*
X198699796Y-138115000D01*
X198277659Y-138198969D01*
X197880015Y-138363678D01*
X197522144Y-138602800D01*
X197217800Y-138907144D01*
X196978678Y-139265015D01*
X196813969Y-139662659D01*
X196730000Y-140084796D01*
X196270000Y-140084796D01*
X196186031Y-139662659D01*
X196021322Y-139265015D01*
X195782200Y-138907144D01*
X195477856Y-138602800D01*
X195119985Y-138363678D01*
X194722341Y-138198969D01*
X194300204Y-138115000D01*
X193869796Y-138115000D01*
X193447659Y-138198969D01*
X193050015Y-138363678D01*
X192692144Y-138602800D01*
X192387800Y-138907144D01*
X192148678Y-139265015D01*
X191983969Y-139662659D01*
X191900000Y-140084796D01*
X184251942Y-140084796D01*
X184147000Y-140065000D01*
X183747000Y-140065000D01*
X183493000Y-140065000D01*
X183093000Y-140065000D01*
X182815486Y-140117350D01*
X182718289Y-140156487D01*
X182634991Y-140054989D01*
X182605994Y-140031192D01*
X181398688Y-138823886D01*
X181435000Y-138641335D01*
X181435000Y-138358665D01*
X181379853Y-138081426D01*
X181271680Y-137820273D01*
X181114637Y-137585241D01*
X180914759Y-137385363D01*
X180779689Y-137295112D01*
X182036730Y-136038072D01*
X183400000Y-136038072D01*
X183524482Y-136025812D01*
X183644180Y-135989502D01*
X183754494Y-135930537D01*
X183851185Y-135851185D01*
X183930537Y-135754494D01*
X183989502Y-135644180D01*
X184025812Y-135524482D01*
X184038072Y-135400000D01*
X184038072Y-133600000D01*
X184025812Y-133475518D01*
X183989502Y-133355820D01*
X183930537Y-133245506D01*
X183851185Y-133148815D01*
X183754494Y-133069463D01*
X183644180Y-133010498D01*
X183524482Y-132974188D01*
X183400000Y-132961928D01*
X181600000Y-132961928D01*
X181475518Y-132974188D01*
X181355820Y-133010498D01*
X181245506Y-133069463D01*
X181148815Y-133148815D01*
X181069463Y-133245506D01*
X181016120Y-133345303D01*
X180978505Y-133307688D01*
X180727095Y-133139701D01*
X180447743Y-133023989D01*
X180151184Y-132965000D01*
X179848816Y-132965000D01*
X179552257Y-133023989D01*
X179272905Y-133139701D01*
X179021495Y-133307688D01*
X178807688Y-133521495D01*
X178750000Y-133607831D01*
X178692312Y-133521495D01*
X178478505Y-133307688D01*
X178227095Y-133139701D01*
X177947743Y-133023989D01*
X177651184Y-132965000D01*
X177348816Y-132965000D01*
X177052257Y-133023989D01*
X177034999Y-133031138D01*
X177034999Y-132858665D01*
X192065000Y-132858665D01*
X192065000Y-133141335D01*
X192120147Y-133418574D01*
X192228320Y-133679727D01*
X192385363Y-133914759D01*
X192585241Y-134114637D01*
X192820273Y-134271680D01*
X193081426Y-134379853D01*
X193358665Y-134435000D01*
X193641335Y-134435000D01*
X193918574Y-134379853D01*
X194179727Y-134271680D01*
X194414759Y-134114637D01*
X194614637Y-133914759D01*
X194771680Y-133679727D01*
X194879853Y-133418574D01*
X194935000Y-133141335D01*
X194935000Y-132858665D01*
X199685000Y-132858665D01*
X199685000Y-133141335D01*
X199740147Y-133418574D01*
X199848320Y-133679727D01*
X200005363Y-133914759D01*
X200205241Y-134114637D01*
X200440273Y-134271680D01*
X200701426Y-134379853D01*
X200978665Y-134435000D01*
X201261335Y-134435000D01*
X201538574Y-134379853D01*
X201799727Y-134271680D01*
X202034759Y-134114637D01*
X202234637Y-133914759D01*
X202391680Y-133679727D01*
X202499853Y-133418574D01*
X202555000Y-133141335D01*
X202555000Y-132858665D01*
X202499853Y-132581426D01*
X202391680Y-132320273D01*
X202234637Y-132085241D01*
X202034759Y-131885363D01*
X201799727Y-131728320D01*
X201538574Y-131620147D01*
X201261335Y-131565000D01*
X200978665Y-131565000D01*
X200701426Y-131620147D01*
X200440273Y-131728320D01*
X200205241Y-131885363D01*
X200005363Y-132085241D01*
X199848320Y-132320273D01*
X199740147Y-132581426D01*
X199685000Y-132858665D01*
X194935000Y-132858665D01*
X194879853Y-132581426D01*
X194771680Y-132320273D01*
X194614637Y-132085241D01*
X194414759Y-131885363D01*
X194179727Y-131728320D01*
X193918574Y-131620147D01*
X193641335Y-131565000D01*
X193358665Y-131565000D01*
X193081426Y-131620147D01*
X192820273Y-131728320D01*
X192585241Y-131885363D01*
X192385363Y-132085241D01*
X192228320Y-132320273D01*
X192120147Y-132581426D01*
X192065000Y-132858665D01*
X177034999Y-132858665D01*
X177034999Y-131977323D01*
X177036506Y-131962019D01*
X177076015Y-131974004D01*
X177187668Y-131985001D01*
X177187677Y-131985001D01*
X177225000Y-131988677D01*
X177262323Y-131985001D01*
X180571288Y-131985001D01*
X180615225Y-132028938D01*
X180784743Y-132142206D01*
X180973101Y-132220227D01*
X181173060Y-132260001D01*
X181376938Y-132260001D01*
X181576897Y-132220227D01*
X181765255Y-132142206D01*
X181934773Y-132028938D01*
X182078936Y-131884775D01*
X182192204Y-131715257D01*
X182270225Y-131526899D01*
X182309999Y-131326940D01*
X182309999Y-131123062D01*
X182270225Y-130923103D01*
X182192204Y-130734745D01*
X182078936Y-130565227D01*
X181934773Y-130421064D01*
X181765255Y-130307796D01*
X181576897Y-130229775D01*
X181376938Y-130190001D01*
X181173060Y-130190001D01*
X180973101Y-130229775D01*
X180784743Y-130307796D01*
X180615225Y-130421064D01*
X180571288Y-130465001D01*
X177539803Y-130465001D01*
X177035000Y-129960199D01*
X177035000Y-129898061D01*
X176995226Y-129698102D01*
X176917205Y-129509744D01*
X176803937Y-129340226D01*
X176659774Y-129196063D01*
X176490256Y-129082795D01*
X176301898Y-129004774D01*
X176268483Y-128998127D01*
X176637479Y-128751573D01*
X176951573Y-128437479D01*
X177198355Y-128068143D01*
X177368342Y-127657759D01*
X177455000Y-127222098D01*
X177455000Y-126777902D01*
X182545000Y-126777902D01*
X182545000Y-127222098D01*
X182631658Y-127657759D01*
X182801645Y-128068143D01*
X183048427Y-128437479D01*
X183362521Y-128751573D01*
X183731857Y-128998355D01*
X184142241Y-129168342D01*
X184577902Y-129255000D01*
X185022098Y-129255000D01*
X185457759Y-129168342D01*
X185868143Y-128998355D01*
X186237479Y-128751573D01*
X186551573Y-128437479D01*
X186798355Y-128068143D01*
X186968342Y-127657759D01*
X187055000Y-127222098D01*
X187055000Y-126777902D01*
X186971609Y-126358665D01*
X192065000Y-126358665D01*
X192065000Y-126641335D01*
X192120147Y-126918574D01*
X192228320Y-127179727D01*
X192385363Y-127414759D01*
X192585241Y-127614637D01*
X192820273Y-127771680D01*
X193081426Y-127879853D01*
X193358665Y-127935000D01*
X193641335Y-127935000D01*
X193918574Y-127879853D01*
X194179727Y-127771680D01*
X194414759Y-127614637D01*
X194614637Y-127414759D01*
X194771680Y-127179727D01*
X194879853Y-126918574D01*
X194935000Y-126641335D01*
X194935000Y-126358665D01*
X199685000Y-126358665D01*
X199685000Y-126641335D01*
X199740147Y-126918574D01*
X199848320Y-127179727D01*
X200005363Y-127414759D01*
X200205241Y-127614637D01*
X200440273Y-127771680D01*
X200701426Y-127879853D01*
X200978665Y-127935000D01*
X201261335Y-127935000D01*
X201538574Y-127879853D01*
X201799727Y-127771680D01*
X202034759Y-127614637D01*
X202234637Y-127414759D01*
X202391680Y-127179727D01*
X202499853Y-126918574D01*
X202555000Y-126641335D01*
X202555000Y-126358665D01*
X202499853Y-126081426D01*
X202391680Y-125820273D01*
X202234637Y-125585241D01*
X202034759Y-125385363D01*
X201799727Y-125228320D01*
X201538574Y-125120147D01*
X201261335Y-125065000D01*
X200978665Y-125065000D01*
X200701426Y-125120147D01*
X200440273Y-125228320D01*
X200205241Y-125385363D01*
X200005363Y-125585241D01*
X199848320Y-125820273D01*
X199740147Y-126081426D01*
X199685000Y-126358665D01*
X194935000Y-126358665D01*
X194879853Y-126081426D01*
X194771680Y-125820273D01*
X194614637Y-125585241D01*
X194414759Y-125385363D01*
X194179727Y-125228320D01*
X193918574Y-125120147D01*
X193641335Y-125065000D01*
X193358665Y-125065000D01*
X193081426Y-125120147D01*
X192820273Y-125228320D01*
X192585241Y-125385363D01*
X192385363Y-125585241D01*
X192228320Y-125820273D01*
X192120147Y-126081426D01*
X192065000Y-126358665D01*
X186971609Y-126358665D01*
X186968342Y-126342241D01*
X186798355Y-125931857D01*
X186551573Y-125562521D01*
X186237479Y-125248427D01*
X185868143Y-125001645D01*
X185457759Y-124831658D01*
X185022098Y-124745000D01*
X184577902Y-124745000D01*
X184142241Y-124831658D01*
X183731857Y-125001645D01*
X183362521Y-125248427D01*
X183048427Y-125562521D01*
X182801645Y-125931857D01*
X182631658Y-126342241D01*
X182545000Y-126777902D01*
X177455000Y-126777902D01*
X177368342Y-126342241D01*
X177198355Y-125931857D01*
X176951573Y-125562521D01*
X176637479Y-125248427D01*
X176268143Y-125001645D01*
X175857759Y-124831658D01*
X175422098Y-124745000D01*
X174977902Y-124745000D01*
X174542241Y-124831658D01*
X174131857Y-125001645D01*
X173762521Y-125248427D01*
X173448427Y-125562521D01*
X173201645Y-125931857D01*
X173031658Y-126342241D01*
X172945000Y-126777902D01*
X172945000Y-127222098D01*
X173022744Y-127612944D01*
X168180777Y-122770978D01*
X168414759Y-122614637D01*
X168614637Y-122414759D01*
X168771680Y-122179727D01*
X168879853Y-121918574D01*
X168935000Y-121641335D01*
X168935000Y-121358665D01*
X168879853Y-121081426D01*
X168771680Y-120820273D01*
X168614637Y-120585241D01*
X168414759Y-120385363D01*
X168179727Y-120228320D01*
X167918574Y-120120147D01*
X167641335Y-120065000D01*
X167358665Y-120065000D01*
X167081426Y-120120147D01*
X166820273Y-120228320D01*
X166585241Y-120385363D01*
X166385363Y-120585241D01*
X166229022Y-120819223D01*
X163720000Y-118310201D01*
X163720000Y-112838313D01*
X163938505Y-112692312D01*
X164004944Y-112625873D01*
X164010498Y-112644180D01*
X164069463Y-112754494D01*
X164148815Y-112851185D01*
X164245506Y-112930537D01*
X164355820Y-112989502D01*
X164475518Y-113025812D01*
X164600000Y-113038072D01*
X166400000Y-113038072D01*
X166524482Y-113025812D01*
X166644180Y-112989502D01*
X166754494Y-112930537D01*
X166851185Y-112851185D01*
X166884629Y-112810434D01*
X175660198Y-121586004D01*
X175683996Y-121615002D01*
X175712994Y-121638800D01*
X175799720Y-121709975D01*
X175872736Y-121749003D01*
X175931750Y-121780547D01*
X176075011Y-121824004D01*
X176186664Y-121835001D01*
X176186674Y-121835001D01*
X176223997Y-121838677D01*
X176261320Y-121835001D01*
X197157677Y-121835001D01*
X197194999Y-121838677D01*
X197232321Y-121835001D01*
X197232332Y-121835001D01*
X197343985Y-121824004D01*
X197487246Y-121780547D01*
X197619275Y-121709975D01*
X197735000Y-121615002D01*
X197758801Y-121586001D01*
X197781001Y-121563801D01*
X197810001Y-121540001D01*
X197904974Y-121424276D01*
X197975546Y-121292247D01*
X197989549Y-121246086D01*
X198093941Y-121301885D01*
X198312601Y-121368215D01*
X198540000Y-121390612D01*
X198767400Y-121368215D01*
X198986060Y-121301885D01*
X199187579Y-121194171D01*
X199364212Y-121049212D01*
X199509171Y-120872579D01*
X199616885Y-120671059D01*
X199683215Y-120452399D01*
X199700000Y-120281978D01*
X199700000Y-119718021D01*
X199683215Y-119547600D01*
X199616885Y-119328940D01*
X199509171Y-119127421D01*
X199364212Y-118950788D01*
X199293080Y-118892412D01*
X199289003Y-118851014D01*
X199245546Y-118707753D01*
X199174974Y-118575724D01*
X199080001Y-118459999D01*
X199051003Y-118436201D01*
X194303667Y-113688866D01*
X194414759Y-113614637D01*
X194614637Y-113414759D01*
X194771680Y-113179727D01*
X194879853Y-112918574D01*
X194935000Y-112641335D01*
X194935000Y-112358665D01*
X194879853Y-112081426D01*
X194771680Y-111820273D01*
X194614637Y-111585241D01*
X194414759Y-111385363D01*
X194179727Y-111228320D01*
X193918574Y-111120147D01*
X193641335Y-111065000D01*
X193358665Y-111065000D01*
X193081426Y-111120147D01*
X192820273Y-111228320D01*
X192585241Y-111385363D01*
X192385363Y-111585241D01*
X192228320Y-111820273D01*
X192120147Y-112081426D01*
X192065000Y-112358665D01*
X192065000Y-112641335D01*
X192120147Y-112918574D01*
X192228320Y-113179727D01*
X192332063Y-113334990D01*
X187046201Y-113334990D01*
X186845193Y-113133982D01*
X186821390Y-113104978D01*
X186705665Y-113010005D01*
X186584276Y-112945120D01*
X186614637Y-112914759D01*
X186771680Y-112679727D01*
X186879853Y-112418574D01*
X186935000Y-112141335D01*
X186935000Y-111858665D01*
X186879853Y-111581426D01*
X186771680Y-111320273D01*
X186614637Y-111085241D01*
X186414759Y-110885363D01*
X186179727Y-110728320D01*
X185918574Y-110620147D01*
X185641335Y-110565000D01*
X185358665Y-110565000D01*
X185081426Y-110620147D01*
X184820273Y-110728320D01*
X184585241Y-110885363D01*
X184462703Y-111007901D01*
X183253274Y-109798472D01*
X183471807Y-109732182D01*
X183721100Y-109598932D01*
X183939607Y-109419608D01*
X184118932Y-109201101D01*
X184190000Y-109068142D01*
X184261068Y-109201100D01*
X184440392Y-109419607D01*
X184658899Y-109598932D01*
X184908192Y-109732182D01*
X185178691Y-109814236D01*
X185460000Y-109841943D01*
X185741308Y-109814236D01*
X186011807Y-109732182D01*
X186261100Y-109598932D01*
X186479607Y-109419608D01*
X186572419Y-109306517D01*
X186574188Y-109324482D01*
X186610498Y-109444180D01*
X186669463Y-109554494D01*
X186748815Y-109651185D01*
X186845506Y-109730537D01*
X186955820Y-109789502D01*
X187075518Y-109825812D01*
X187200000Y-109838072D01*
X188800000Y-109838072D01*
X188924482Y-109825812D01*
X189044180Y-109789502D01*
X189154494Y-109730537D01*
X189251185Y-109651185D01*
X189330537Y-109554494D01*
X189389502Y-109444180D01*
X189425812Y-109324482D01*
X189438072Y-109200000D01*
X189438072Y-108760000D01*
X192383786Y-108760000D01*
X196634788Y-113011003D01*
X196658586Y-113040001D01*
X196687584Y-113063799D01*
X196774310Y-113134974D01*
X196890477Y-113197067D01*
X196906340Y-113205546D01*
X197049601Y-113249003D01*
X197161254Y-113260000D01*
X197161263Y-113260000D01*
X197198586Y-113263676D01*
X197235909Y-113260000D01*
X199901957Y-113260000D01*
X200005363Y-113414759D01*
X200205241Y-113614637D01*
X200440273Y-113771680D01*
X200701426Y-113879853D01*
X200978665Y-113935000D01*
X201261335Y-113935000D01*
X201538574Y-113879853D01*
X201799727Y-113771680D01*
X202034759Y-113614637D01*
X202234637Y-113414759D01*
X202391680Y-113179727D01*
X202499853Y-112918574D01*
X202555000Y-112641335D01*
X202555000Y-112358665D01*
X202499853Y-112081426D01*
X202391680Y-111820273D01*
X202234637Y-111585241D01*
X202034759Y-111385363D01*
X201799727Y-111228320D01*
X201538574Y-111120147D01*
X201261335Y-111065000D01*
X200978665Y-111065000D01*
X200701426Y-111120147D01*
X200440273Y-111228320D01*
X200205241Y-111385363D01*
X200005363Y-111585241D01*
X199901957Y-111740000D01*
X197513389Y-111740000D01*
X194158389Y-108385001D01*
X195837677Y-108385001D01*
X195874999Y-108388677D01*
X195912321Y-108385001D01*
X195912332Y-108385001D01*
X196023985Y-108374004D01*
X196167246Y-108330547D01*
X196299275Y-108259975D01*
X196415000Y-108165002D01*
X196438803Y-108135998D01*
X198216136Y-106358665D01*
X199685000Y-106358665D01*
X199685000Y-106641335D01*
X199740147Y-106918574D01*
X199848320Y-107179727D01*
X200005363Y-107414759D01*
X200205241Y-107614637D01*
X200440273Y-107771680D01*
X200701426Y-107879853D01*
X200978665Y-107935000D01*
X201261335Y-107935000D01*
X201538574Y-107879853D01*
X201799727Y-107771680D01*
X202034759Y-107614637D01*
X202234637Y-107414759D01*
X202391680Y-107179727D01*
X202499853Y-106918574D01*
X202555000Y-106641335D01*
X202555000Y-106358665D01*
X202499853Y-106081426D01*
X202391680Y-105820273D01*
X202234637Y-105585241D01*
X202034759Y-105385363D01*
X201799727Y-105228320D01*
X201538574Y-105120147D01*
X201261335Y-105065000D01*
X200978665Y-105065000D01*
X200701426Y-105120147D01*
X200440273Y-105228320D01*
X200205241Y-105385363D01*
X200005363Y-105585241D01*
X199848320Y-105820273D01*
X199740147Y-106081426D01*
X199685000Y-106358665D01*
X198216136Y-106358665D01*
X201631004Y-102943798D01*
X201660001Y-102920001D01*
X201754974Y-102804276D01*
X201825546Y-102672247D01*
X201869003Y-102528986D01*
X201880000Y-102417333D01*
X201880000Y-102417332D01*
X201883677Y-102380000D01*
X201880000Y-102342667D01*
X201880000Y-102218043D01*
X202034759Y-102114637D01*
X202234637Y-101914759D01*
X202391680Y-101679727D01*
X202499853Y-101418574D01*
X202555000Y-101141335D01*
X202555000Y-100858665D01*
X202499853Y-100581426D01*
X202391680Y-100320273D01*
X202234637Y-100085241D01*
X202034759Y-99885363D01*
X201800778Y-99729022D01*
X203011004Y-98518796D01*
X203040001Y-98494999D01*
X203134974Y-98379274D01*
X203205546Y-98247245D01*
X203249003Y-98103984D01*
X203260000Y-97992331D01*
X203260000Y-97992323D01*
X203263676Y-97954998D01*
X203260000Y-97917673D01*
X203260000Y-75417325D01*
X203263676Y-75380000D01*
X203260000Y-75342675D01*
X203260000Y-75342667D01*
X203249003Y-75231014D01*
X203205546Y-75087753D01*
X203134974Y-74955724D01*
X203040001Y-74839999D01*
X203011003Y-74816201D01*
X202518688Y-74323886D01*
X202555000Y-74141335D01*
X202555000Y-73858665D01*
X202499853Y-73581426D01*
X202391680Y-73320273D01*
X202234637Y-73085241D01*
X202034759Y-72885363D01*
X201799727Y-72728320D01*
X201538574Y-72620147D01*
X201261335Y-72565000D01*
X200978665Y-72565000D01*
X200701426Y-72620147D01*
X200440273Y-72728320D01*
X200205241Y-72885363D01*
X200005363Y-73085241D01*
X199848320Y-73320273D01*
X199740147Y-73581426D01*
X199685000Y-73858665D01*
X199685000Y-74141335D01*
X199740147Y-74418574D01*
X199848320Y-74679727D01*
X200005363Y-74914759D01*
X200205241Y-75114637D01*
X200440273Y-75271680D01*
X200701426Y-75379853D01*
X200978665Y-75435000D01*
X201261335Y-75435000D01*
X201443886Y-75398688D01*
X201740001Y-75694803D01*
X201740001Y-78203581D01*
X201538574Y-78120147D01*
X201261335Y-78065000D01*
X200978665Y-78065000D01*
X200701426Y-78120147D01*
X200440273Y-78228320D01*
X200205241Y-78385363D01*
X200005363Y-78585241D01*
X199848320Y-78820273D01*
X199740147Y-79081426D01*
X199685000Y-79358665D01*
X199685000Y-79641335D01*
X199740147Y-79918574D01*
X199848320Y-80179727D01*
X200005363Y-80414759D01*
X200205241Y-80614637D01*
X200440273Y-80771680D01*
X200701426Y-80879853D01*
X200978665Y-80935000D01*
X201261335Y-80935000D01*
X201538574Y-80879853D01*
X201740001Y-80796419D01*
X201740001Y-83703581D01*
X201538574Y-83620147D01*
X201261335Y-83565000D01*
X200978665Y-83565000D01*
X200701426Y-83620147D01*
X200440273Y-83728320D01*
X200205241Y-83885363D01*
X200005363Y-84085241D01*
X199848320Y-84320273D01*
X199740147Y-84581426D01*
X199685000Y-84858665D01*
X199685000Y-85141335D01*
X199721312Y-85323886D01*
X195305199Y-89740000D01*
X194938072Y-89740000D01*
X194938072Y-89700000D01*
X194925812Y-89575518D01*
X194889502Y-89455820D01*
X194830537Y-89345506D01*
X194751185Y-89248815D01*
X194654494Y-89169463D01*
X194544180Y-89110498D01*
X194424482Y-89074188D01*
X194300000Y-89061928D01*
X192700000Y-89061928D01*
X192575518Y-89074188D01*
X192455820Y-89110498D01*
X192345506Y-89169463D01*
X192248815Y-89248815D01*
X192169463Y-89345506D01*
X192110498Y-89455820D01*
X192074188Y-89575518D01*
X192067475Y-89643677D01*
X189884718Y-87460921D01*
X189990256Y-87417205D01*
X190159774Y-87303937D01*
X190303937Y-87159774D01*
X190417205Y-86990256D01*
X190495226Y-86801898D01*
X190535000Y-86601939D01*
X190535000Y-86539801D01*
X191314802Y-85760000D01*
X192281957Y-85760000D01*
X192385363Y-85914759D01*
X192585241Y-86114637D01*
X192820273Y-86271680D01*
X193081426Y-86379853D01*
X193358665Y-86435000D01*
X193641335Y-86435000D01*
X193918574Y-86379853D01*
X194179727Y-86271680D01*
X194414759Y-86114637D01*
X194614637Y-85914759D01*
X194771680Y-85679727D01*
X194879853Y-85418574D01*
X194935000Y-85141335D01*
X194935000Y-84858665D01*
X194879853Y-84581426D01*
X194771680Y-84320273D01*
X194614637Y-84085241D01*
X194414759Y-83885363D01*
X194179727Y-83728320D01*
X193918574Y-83620147D01*
X193641335Y-83565000D01*
X193358665Y-83565000D01*
X193081426Y-83620147D01*
X192820273Y-83728320D01*
X192585241Y-83885363D01*
X192385363Y-84085241D01*
X192281957Y-84240000D01*
X191037322Y-84240000D01*
X190999999Y-84236324D01*
X190962676Y-84240000D01*
X190962667Y-84240000D01*
X190851014Y-84250997D01*
X190707753Y-84294454D01*
X190575724Y-84365026D01*
X190459999Y-84459999D01*
X190436201Y-84488997D01*
X189460199Y-85465000D01*
X189427666Y-85465000D01*
X189495226Y-85301898D01*
X189535000Y-85101939D01*
X189535000Y-85039802D01*
X190136018Y-84438785D01*
X190165011Y-84414991D01*
X190188805Y-84385998D01*
X190188809Y-84385994D01*
X190259983Y-84299267D01*
X190259984Y-84299266D01*
X190330556Y-84167237D01*
X190374013Y-84023976D01*
X190385010Y-83912323D01*
X190385010Y-83912314D01*
X190388686Y-83874991D01*
X190385010Y-83837668D01*
X190385010Y-79358665D01*
X192065000Y-79358665D01*
X192065000Y-79641335D01*
X192120147Y-79918574D01*
X192228320Y-80179727D01*
X192385363Y-80414759D01*
X192585241Y-80614637D01*
X192820273Y-80771680D01*
X193081426Y-80879853D01*
X193358665Y-80935000D01*
X193641335Y-80935000D01*
X193918574Y-80879853D01*
X194179727Y-80771680D01*
X194414759Y-80614637D01*
X194614637Y-80414759D01*
X194771680Y-80179727D01*
X194879853Y-79918574D01*
X194935000Y-79641335D01*
X194935000Y-79358665D01*
X194879853Y-79081426D01*
X194771680Y-78820273D01*
X194614637Y-78585241D01*
X194414759Y-78385363D01*
X194179727Y-78228320D01*
X193918574Y-78120147D01*
X193641335Y-78065000D01*
X193358665Y-78065000D01*
X193081426Y-78120147D01*
X192820273Y-78228320D01*
X192585241Y-78385363D01*
X192385363Y-78585241D01*
X192228320Y-78820273D01*
X192120147Y-79081426D01*
X192065000Y-79358665D01*
X190385010Y-79358665D01*
X190385010Y-78662332D01*
X190388686Y-78625009D01*
X190385010Y-78587686D01*
X190385010Y-78587677D01*
X190374013Y-78476024D01*
X190330556Y-78332763D01*
X190259984Y-78200734D01*
X190232917Y-78167753D01*
X190188809Y-78114006D01*
X190188805Y-78114002D01*
X190165011Y-78085009D01*
X190136019Y-78061216D01*
X189535000Y-77460198D01*
X189535000Y-77398061D01*
X189495226Y-77198102D01*
X189417205Y-77009744D01*
X189303937Y-76840226D01*
X189301623Y-76837912D01*
X189424482Y-76825812D01*
X189544180Y-76789502D01*
X189654494Y-76730537D01*
X189751185Y-76651185D01*
X189830537Y-76554494D01*
X189889502Y-76444180D01*
X189925812Y-76324482D01*
X189938072Y-76200000D01*
X189938072Y-73858665D01*
X192065000Y-73858665D01*
X192065000Y-74141335D01*
X192120147Y-74418574D01*
X192228320Y-74679727D01*
X192385363Y-74914759D01*
X192585241Y-75114637D01*
X192820273Y-75271680D01*
X193081426Y-75379853D01*
X193358665Y-75435000D01*
X193641335Y-75435000D01*
X193918574Y-75379853D01*
X194179727Y-75271680D01*
X194414759Y-75114637D01*
X194614637Y-74914759D01*
X194771680Y-74679727D01*
X194879853Y-74418574D01*
X194935000Y-74141335D01*
X194935000Y-73858665D01*
X194879853Y-73581426D01*
X194771680Y-73320273D01*
X194614637Y-73085241D01*
X194414759Y-72885363D01*
X194179727Y-72728320D01*
X193918574Y-72620147D01*
X193641335Y-72565000D01*
X193358665Y-72565000D01*
X193081426Y-72620147D01*
X192820273Y-72728320D01*
X192585241Y-72885363D01*
X192385363Y-73085241D01*
X192228320Y-73320273D01*
X192120147Y-73581426D01*
X192065000Y-73858665D01*
X189938072Y-73858665D01*
X189938072Y-73800000D01*
X189925812Y-73675518D01*
X189889502Y-73555820D01*
X189830537Y-73445506D01*
X189751185Y-73348815D01*
X189654494Y-73269463D01*
X189544180Y-73210498D01*
X189424482Y-73174188D01*
X189300000Y-73161928D01*
X187700000Y-73161928D01*
X187575518Y-73174188D01*
X187455820Y-73210498D01*
X187345506Y-73269463D01*
X187248815Y-73348815D01*
X187169463Y-73445506D01*
X187110498Y-73555820D01*
X187074188Y-73675518D01*
X187072419Y-73693482D01*
X186979608Y-73580392D01*
X186761101Y-73401068D01*
X186511808Y-73267818D01*
X186241309Y-73185764D01*
X185960000Y-73158057D01*
X185678692Y-73185764D01*
X185408193Y-73267818D01*
X185305010Y-73322971D01*
X185305010Y-67697333D01*
X185308686Y-67660008D01*
X185305010Y-67622683D01*
X185305010Y-67622675D01*
X185294013Y-67511022D01*
X185250556Y-67367761D01*
X185179984Y-67235732D01*
X185085011Y-67120007D01*
X185056013Y-67096209D01*
X185044792Y-67084988D01*
X193258180Y-67084988D01*
X193081426Y-67120147D01*
X192820273Y-67228320D01*
X192585241Y-67385363D01*
X192385363Y-67585241D01*
X192228320Y-67820273D01*
X192120147Y-68081426D01*
X192065000Y-68358665D01*
X192065000Y-68641335D01*
X192120147Y-68918574D01*
X192228320Y-69179727D01*
X192385363Y-69414759D01*
X192585241Y-69614637D01*
X192820273Y-69771680D01*
X193081426Y-69879853D01*
X193358665Y-69935000D01*
X193641335Y-69935000D01*
X193918574Y-69879853D01*
X194179727Y-69771680D01*
X194414759Y-69614637D01*
X194614637Y-69414759D01*
X194771680Y-69179727D01*
X194879853Y-68918574D01*
X194935000Y-68641335D01*
X194935000Y-68358665D01*
X194879853Y-68081426D01*
X194771680Y-67820273D01*
X194614637Y-67585241D01*
X194414759Y-67385363D01*
X194179727Y-67228320D01*
X193918574Y-67120147D01*
X193741820Y-67084988D01*
X198630187Y-67084988D01*
X199721312Y-68176114D01*
X199685000Y-68358665D01*
X199685000Y-68641335D01*
X199740147Y-68918574D01*
X199848320Y-69179727D01*
X200005363Y-69414759D01*
X200205241Y-69614637D01*
X200440273Y-69771680D01*
X200701426Y-69879853D01*
X200978665Y-69935000D01*
X201261335Y-69935000D01*
X201538574Y-69879853D01*
X201799727Y-69771680D01*
X202034759Y-69614637D01*
X202234637Y-69414759D01*
X202391680Y-69179727D01*
X202499853Y-68918574D01*
X202555000Y-68641335D01*
X202555000Y-68358665D01*
X202499853Y-68081426D01*
X202391680Y-67820273D01*
X202234637Y-67585241D01*
X202034759Y-67385363D01*
X201799727Y-67228320D01*
X201538574Y-67120147D01*
X201261335Y-67065000D01*
X200978665Y-67065000D01*
X200796114Y-67101312D01*
X199508792Y-65813990D01*
X199484989Y-65784987D01*
X199369264Y-65690014D01*
X199237235Y-65619442D01*
X199093974Y-65575985D01*
X198982321Y-65564988D01*
X198982310Y-65564988D01*
X198944988Y-65561312D01*
X198907666Y-65564988D01*
X180439542Y-65564988D01*
X180402220Y-65561312D01*
X180364897Y-65564988D01*
X180364887Y-65564988D01*
X180253234Y-65575985D01*
X180109973Y-65619442D01*
X179977944Y-65690014D01*
X179862219Y-65784987D01*
X179838416Y-65813991D01*
X179489003Y-66163404D01*
X179459999Y-66187207D01*
X179412549Y-66245026D01*
X179365026Y-66302932D01*
X179304738Y-66415723D01*
X179294454Y-66434962D01*
X179250997Y-66578223D01*
X179242972Y-66659702D01*
X179021495Y-66807688D01*
X178807688Y-67021495D01*
X178750000Y-67107831D01*
X178692312Y-67021495D01*
X178478505Y-66807688D01*
X178257028Y-66659702D01*
X178249003Y-66578222D01*
X178205546Y-66434961D01*
X178134974Y-66302932D01*
X178087452Y-66245026D01*
X178063799Y-66216204D01*
X178063795Y-66216200D01*
X178040001Y-66187207D01*
X178011008Y-66163413D01*
X175206260Y-63358665D01*
X192065000Y-63358665D01*
X192065000Y-63641335D01*
X192120147Y-63918574D01*
X192228320Y-64179727D01*
X192385363Y-64414759D01*
X192585241Y-64614637D01*
X192820273Y-64771680D01*
X193081426Y-64879853D01*
X193358665Y-64935000D01*
X193641335Y-64935000D01*
X193918574Y-64879853D01*
X194179727Y-64771680D01*
X194414759Y-64614637D01*
X194614637Y-64414759D01*
X194771680Y-64179727D01*
X194879853Y-63918574D01*
X194935000Y-63641335D01*
X194935000Y-63358665D01*
X194879853Y-63081426D01*
X194771680Y-62820273D01*
X194614637Y-62585241D01*
X194414759Y-62385363D01*
X194179727Y-62228320D01*
X193918574Y-62120147D01*
X193641335Y-62065000D01*
X193358665Y-62065000D01*
X193081426Y-62120147D01*
X192820273Y-62228320D01*
X192585241Y-62385363D01*
X192385363Y-62585241D01*
X192228320Y-62820273D01*
X192120147Y-63081426D01*
X192065000Y-63358665D01*
X175206260Y-63358665D01*
X174497336Y-62649742D01*
X174542241Y-62668342D01*
X174977902Y-62755000D01*
X175422098Y-62755000D01*
X175857759Y-62668342D01*
X176268143Y-62498355D01*
X176637479Y-62251573D01*
X176951573Y-61937479D01*
X177198355Y-61568143D01*
X177368342Y-61157759D01*
X177455000Y-60722098D01*
X177455000Y-60277902D01*
X182545000Y-60277902D01*
X182545000Y-60722098D01*
X182631658Y-61157759D01*
X182801645Y-61568143D01*
X183048427Y-61937479D01*
X183362521Y-62251573D01*
X183731857Y-62498355D01*
X184142241Y-62668342D01*
X184577902Y-62755000D01*
X185022098Y-62755000D01*
X185457759Y-62668342D01*
X185868143Y-62498355D01*
X186237479Y-62251573D01*
X186551573Y-61937479D01*
X186798355Y-61568143D01*
X186968342Y-61157759D01*
X187055000Y-60722098D01*
X187055000Y-60277902D01*
X186968342Y-59842241D01*
X186798355Y-59431857D01*
X186710252Y-59300000D01*
X193561928Y-59300000D01*
X193574188Y-59424482D01*
X193610498Y-59544180D01*
X193669463Y-59654494D01*
X193748815Y-59751185D01*
X193845506Y-59830537D01*
X193955820Y-59889502D01*
X194075518Y-59925812D01*
X194200000Y-59938072D01*
X194714250Y-59935000D01*
X194873000Y-59776250D01*
X194873000Y-58627000D01*
X195127000Y-58627000D01*
X195127000Y-59776250D01*
X195285750Y-59935000D01*
X195800000Y-59938072D01*
X195924482Y-59925812D01*
X196044180Y-59889502D01*
X196154494Y-59830537D01*
X196251185Y-59751185D01*
X196330537Y-59654494D01*
X196389502Y-59544180D01*
X196425812Y-59424482D01*
X196438072Y-59300000D01*
X196435000Y-58785750D01*
X196276250Y-58627000D01*
X195127000Y-58627000D01*
X194873000Y-58627000D01*
X193723750Y-58627000D01*
X193565000Y-58785750D01*
X193561928Y-59300000D01*
X186710252Y-59300000D01*
X186551573Y-59062521D01*
X186237479Y-58748427D01*
X185868143Y-58501645D01*
X185457759Y-58331658D01*
X185022098Y-58245000D01*
X184577902Y-58245000D01*
X184142241Y-58331658D01*
X183731857Y-58501645D01*
X183362521Y-58748427D01*
X183048427Y-59062521D01*
X182801645Y-59431857D01*
X182631658Y-59842241D01*
X182545000Y-60277902D01*
X177455000Y-60277902D01*
X177368342Y-59842241D01*
X177198355Y-59431857D01*
X176951573Y-59062521D01*
X176637479Y-58748427D01*
X176268143Y-58501645D01*
X175857759Y-58331658D01*
X175422098Y-58245000D01*
X174977902Y-58245000D01*
X174542241Y-58331658D01*
X174131857Y-58501645D01*
X173762521Y-58748427D01*
X173448427Y-59062521D01*
X173201645Y-59431857D01*
X173031658Y-59842241D01*
X172945000Y-60277902D01*
X172945000Y-60722098D01*
X173031658Y-61157759D01*
X173050258Y-61202664D01*
X169547594Y-57700000D01*
X193561928Y-57700000D01*
X193565000Y-58214250D01*
X193723750Y-58373000D01*
X194873000Y-58373000D01*
X194873000Y-57223750D01*
X195127000Y-57223750D01*
X195127000Y-58373000D01*
X196276250Y-58373000D01*
X196435000Y-58214250D01*
X196438072Y-57700000D01*
X196425812Y-57575518D01*
X196389502Y-57455820D01*
X196330537Y-57345506D01*
X196251185Y-57248815D01*
X196154494Y-57169463D01*
X196044180Y-57110498D01*
X195924482Y-57074188D01*
X195800000Y-57061928D01*
X195285750Y-57065000D01*
X195127000Y-57223750D01*
X194873000Y-57223750D01*
X194714250Y-57065000D01*
X194200000Y-57061928D01*
X194075518Y-57074188D01*
X193955820Y-57110498D01*
X193845506Y-57169463D01*
X193748815Y-57248815D01*
X193669463Y-57345506D01*
X193610498Y-57455820D01*
X193574188Y-57575518D01*
X193561928Y-57700000D01*
X169547594Y-57700000D01*
X169107594Y-57260000D01*
X170296289Y-57260000D01*
X170340226Y-57303937D01*
X170509744Y-57417205D01*
X170698102Y-57495226D01*
X170898061Y-57535000D01*
X171101939Y-57535000D01*
X171301898Y-57495226D01*
X171490256Y-57417205D01*
X171659774Y-57303937D01*
X171803937Y-57159774D01*
X171917205Y-56990256D01*
X171995226Y-56801898D01*
X172035000Y-56601939D01*
X172035000Y-56398061D01*
X171995226Y-56198102D01*
X171917205Y-56009744D01*
X171803937Y-55840226D01*
X171659774Y-55696063D01*
X171490256Y-55582795D01*
X171301898Y-55504774D01*
X171101939Y-55465000D01*
X170898061Y-55465000D01*
X170698102Y-55504774D01*
X170509744Y-55582795D01*
X170340226Y-55696063D01*
X170296289Y-55740000D01*
X168314802Y-55740000D01*
X167009801Y-54435000D01*
X167261335Y-54435000D01*
X167538574Y-54379853D01*
X167799727Y-54271680D01*
X168034759Y-54114637D01*
X168234637Y-53914759D01*
X168391680Y-53679727D01*
X168499853Y-53418574D01*
X168555000Y-53141335D01*
X168555000Y-52858665D01*
X168499853Y-52581426D01*
X168391680Y-52320273D01*
X168234637Y-52085241D01*
X168034759Y-51885363D01*
X167799727Y-51728320D01*
X167538574Y-51620147D01*
X167261335Y-51565000D01*
X166978665Y-51565000D01*
X166754999Y-51609491D01*
X166754999Y-51366544D01*
X176105000Y-51366544D01*
X176105000Y-51633456D01*
X176157072Y-51895239D01*
X176259215Y-52141833D01*
X176407503Y-52363762D01*
X176596238Y-52552497D01*
X176818167Y-52700785D01*
X177064761Y-52802928D01*
X177326544Y-52855000D01*
X177593456Y-52855000D01*
X177855239Y-52802928D01*
X178101833Y-52700785D01*
X178323762Y-52552497D01*
X178512497Y-52363762D01*
X178581828Y-52260000D01*
X178878172Y-52260000D01*
X178947503Y-52363762D01*
X179136238Y-52552497D01*
X179358167Y-52700785D01*
X179604761Y-52802928D01*
X179866544Y-52855000D01*
X180133456Y-52855000D01*
X180395239Y-52802928D01*
X180641833Y-52700785D01*
X180863762Y-52552497D01*
X181052497Y-52363762D01*
X181200785Y-52141833D01*
X181270000Y-51974734D01*
X181339215Y-52141833D01*
X181487503Y-52363762D01*
X181676238Y-52552497D01*
X181898167Y-52700785D01*
X182144761Y-52802928D01*
X182406544Y-52855000D01*
X182673456Y-52855000D01*
X182935239Y-52802928D01*
X183181833Y-52700785D01*
X183403762Y-52552497D01*
X183592497Y-52363762D01*
X183740785Y-52141833D01*
X183842928Y-51895239D01*
X183895000Y-51633456D01*
X183895000Y-51366544D01*
X183842928Y-51104761D01*
X183740785Y-50858167D01*
X183592497Y-50636238D01*
X183403762Y-50447503D01*
X183181833Y-50299215D01*
X182935239Y-50197072D01*
X182673456Y-50145000D01*
X182406544Y-50145000D01*
X182144761Y-50197072D01*
X181898167Y-50299215D01*
X181676238Y-50447503D01*
X181487503Y-50636238D01*
X181339215Y-50858167D01*
X181270000Y-51025266D01*
X181200785Y-50858167D01*
X181052497Y-50636238D01*
X180863762Y-50447503D01*
X180641833Y-50299215D01*
X180395239Y-50197072D01*
X180133456Y-50145000D01*
X179866544Y-50145000D01*
X179604761Y-50197072D01*
X179358167Y-50299215D01*
X179136238Y-50447503D01*
X178947503Y-50636238D01*
X178878172Y-50740000D01*
X178581828Y-50740000D01*
X178512497Y-50636238D01*
X178323762Y-50447503D01*
X178101833Y-50299215D01*
X177855239Y-50197072D01*
X177593456Y-50145000D01*
X177326544Y-50145000D01*
X177064761Y-50197072D01*
X176818167Y-50299215D01*
X176596238Y-50447503D01*
X176407503Y-50636238D01*
X176259215Y-50858167D01*
X176157072Y-51104761D01*
X176105000Y-51366544D01*
X166754999Y-51366544D01*
X166754999Y-48890509D01*
X166978665Y-48935000D01*
X167261335Y-48935000D01*
X167538574Y-48879853D01*
X167799727Y-48771680D01*
X168034759Y-48614637D01*
X168234637Y-48414759D01*
X168338043Y-48260000D01*
X178042678Y-48260000D01*
X178080000Y-48263676D01*
X178117322Y-48260000D01*
X178117333Y-48260000D01*
X178228986Y-48249003D01*
X178372247Y-48205546D01*
X178504276Y-48134974D01*
X178620001Y-48040001D01*
X178643804Y-48010997D01*
X178854801Y-47800000D01*
X188061928Y-47800000D01*
X188074188Y-47924482D01*
X188110498Y-48044180D01*
X188169463Y-48154494D01*
X188248815Y-48251185D01*
X188345506Y-48330537D01*
X188455820Y-48389502D01*
X188575518Y-48425812D01*
X188700000Y-48438072D01*
X189214250Y-48435000D01*
X189373000Y-48276250D01*
X189373000Y-47127000D01*
X188223750Y-47127000D01*
X188065000Y-47285750D01*
X188061928Y-47800000D01*
X178854801Y-47800000D01*
X180454801Y-46200000D01*
X188061928Y-46200000D01*
X188065000Y-46714250D01*
X188223750Y-46873000D01*
X189373000Y-46873000D01*
X189373000Y-45723750D01*
X189214250Y-45565000D01*
X188700000Y-45561928D01*
X188575518Y-45574188D01*
X188455820Y-45610498D01*
X188345506Y-45669463D01*
X188248815Y-45748815D01*
X188169463Y-45845506D01*
X188110498Y-45955820D01*
X188074188Y-46075518D01*
X188061928Y-46200000D01*
X180454801Y-46200000D01*
X182798635Y-43856167D01*
X182943589Y-43885000D01*
X183216411Y-43885000D01*
X183483989Y-43831775D01*
X183736043Y-43727371D01*
X183962886Y-43575799D01*
X184155799Y-43382886D01*
X184307371Y-43156043D01*
X184411775Y-42903989D01*
X184465000Y-42636411D01*
X184465000Y-42363589D01*
X184411775Y-42096011D01*
X184307371Y-41843957D01*
X184155799Y-41617114D01*
X183962886Y-41424201D01*
X183736043Y-41272629D01*
X183483989Y-41168225D01*
X183216411Y-41115000D01*
X182943589Y-41115000D01*
X182676011Y-41168225D01*
X182423957Y-41272629D01*
X182197114Y-41424201D01*
X182004201Y-41617114D01*
X181852629Y-41843957D01*
X181810000Y-41946873D01*
X181767371Y-41843957D01*
X181615799Y-41617114D01*
X181422886Y-41424201D01*
X181196043Y-41272629D01*
X180943989Y-41168225D01*
X180676411Y-41115000D01*
X180403589Y-41115000D01*
X180136011Y-41168225D01*
X179883957Y-41272629D01*
X179657114Y-41424201D01*
X179464201Y-41617114D01*
X179386445Y-41733483D01*
X179375812Y-41625518D01*
X179339502Y-41505820D01*
X179280537Y-41395506D01*
X179201185Y-41298815D01*
X179104494Y-41219463D01*
X178994180Y-41160498D01*
X178874482Y-41124188D01*
X178750000Y-41111928D01*
X177250000Y-41111928D01*
X177125518Y-41124188D01*
X177005820Y-41160498D01*
X176895506Y-41219463D01*
X176798815Y-41298815D01*
X176719463Y-41395506D01*
X176660498Y-41505820D01*
X176624188Y-41625518D01*
X176611928Y-41750000D01*
X176611928Y-43250000D01*
X176624188Y-43374482D01*
X176660498Y-43494180D01*
X176719463Y-43604494D01*
X176798815Y-43701185D01*
X176895506Y-43780537D01*
X177005820Y-43839502D01*
X177125518Y-43875812D01*
X177250000Y-43888072D01*
X178750000Y-43888072D01*
X178874482Y-43875812D01*
X178994180Y-43839502D01*
X179104494Y-43780537D01*
X179201185Y-43701185D01*
X179280537Y-43604494D01*
X179339502Y-43494180D01*
X179375812Y-43374482D01*
X179386445Y-43266517D01*
X179464201Y-43382886D01*
X179657114Y-43575799D01*
X179883957Y-43727371D01*
X180136011Y-43831775D01*
X180403589Y-43885000D01*
X180620198Y-43885000D01*
X177765199Y-46740000D01*
X168338043Y-46740000D01*
X168234637Y-46585241D01*
X168034759Y-46385363D01*
X167799727Y-46228320D01*
X167538574Y-46120147D01*
X167261335Y-46065000D01*
X166978665Y-46065000D01*
X166754999Y-46109491D01*
X166754999Y-43439802D01*
X166796113Y-43398688D01*
X166978665Y-43435000D01*
X167261335Y-43435000D01*
X167538574Y-43379853D01*
X167799727Y-43271680D01*
X168034759Y-43114637D01*
X168234637Y-42914759D01*
X168391680Y-42679727D01*
X168499853Y-42418574D01*
X168555000Y-42141335D01*
X168555000Y-41858665D01*
X168499853Y-41581426D01*
X168391680Y-41320273D01*
X168234637Y-41085241D01*
X168034759Y-40885363D01*
X167799727Y-40728320D01*
X167538574Y-40620147D01*
X167261335Y-40565000D01*
X166978665Y-40565000D01*
X166701426Y-40620147D01*
X166440273Y-40728320D01*
X166205241Y-40885363D01*
X166005363Y-41085241D01*
X165901957Y-41240000D01*
X165314802Y-41240000D01*
X162774802Y-38700000D01*
X188061928Y-38700000D01*
X188061928Y-40300000D01*
X188074188Y-40424482D01*
X188110498Y-40544180D01*
X188169463Y-40654494D01*
X188248815Y-40751185D01*
X188345506Y-40830537D01*
X188455820Y-40889502D01*
X188575518Y-40925812D01*
X188700000Y-40938072D01*
X190300000Y-40938072D01*
X190424482Y-40925812D01*
X190544180Y-40889502D01*
X190654494Y-40830537D01*
X190751185Y-40751185D01*
X190764790Y-40734607D01*
X190820273Y-40771680D01*
X191081426Y-40879853D01*
X191358665Y-40935000D01*
X191641335Y-40935000D01*
X191918574Y-40879853D01*
X192179727Y-40771680D01*
X192414759Y-40614637D01*
X192614637Y-40414759D01*
X192771680Y-40179727D01*
X192879853Y-39918574D01*
X192935000Y-39641335D01*
X192935000Y-39358665D01*
X192879853Y-39081426D01*
X192771680Y-38820273D01*
X192614637Y-38585241D01*
X192414759Y-38385363D01*
X192179727Y-38228320D01*
X191918574Y-38120147D01*
X191641335Y-38065000D01*
X191358665Y-38065000D01*
X191081426Y-38120147D01*
X190820273Y-38228320D01*
X190764790Y-38265393D01*
X190751185Y-38248815D01*
X190654494Y-38169463D01*
X190544180Y-38110498D01*
X190424482Y-38074188D01*
X190300000Y-38061928D01*
X188700000Y-38061928D01*
X188575518Y-38074188D01*
X188455820Y-38110498D01*
X188345506Y-38169463D01*
X188248815Y-38248815D01*
X188169463Y-38345506D01*
X188110498Y-38455820D01*
X188074188Y-38575518D01*
X188061928Y-38700000D01*
X162774802Y-38700000D01*
X160898688Y-36823887D01*
X160935000Y-36641335D01*
X160935000Y-36358665D01*
X160879853Y-36081426D01*
X160771680Y-35820273D01*
X160614637Y-35585241D01*
X160514406Y-35485010D01*
X166105594Y-35485010D01*
X166005363Y-35585241D01*
G37*
%TD.AperFunction*%
D31*
X180193748Y-146485858D02*
X180179605Y-146500000D01*
X180193748Y-146514143D01*
X180014143Y-146693748D01*
X180000000Y-146679605D01*
X179985858Y-146693748D01*
X179806253Y-146514143D01*
X179820395Y-146500000D01*
X179806253Y-146485858D01*
X179985858Y-146306253D01*
X180000000Y-146320395D01*
X180014143Y-146306253D01*
X180193748Y-146485858D01*
%TA.AperFunction,Conductor*%
D32*
G36*
X180193748Y-146485858D02*
G01*
X180179605Y-146500000D01*
X180193748Y-146514143D01*
X180014143Y-146693748D01*
X180000000Y-146679605D01*
X179985858Y-146693748D01*
X179806253Y-146514143D01*
X179820395Y-146500000D01*
X179806253Y-146485858D01*
X179985858Y-146306253D01*
X180000000Y-146320395D01*
X180014143Y-146306253D01*
X180193748Y-146485858D01*
G37*
%TD.AperFunction*%
D31*
X187435197Y-118740000D02*
X182703711Y-118740000D01*
X182659774Y-118696063D01*
X182490256Y-118582795D01*
X182301898Y-118504774D01*
X182101939Y-118465000D01*
X181898061Y-118465000D01*
X181698102Y-118504774D01*
X181509744Y-118582795D01*
X181340226Y-118696063D01*
X181196063Y-118840226D01*
X181082795Y-119009744D01*
X181004774Y-119198102D01*
X180965000Y-119398061D01*
X180965000Y-119601939D01*
X181004774Y-119801898D01*
X181082795Y-119990256D01*
X181196063Y-120159774D01*
X181340226Y-120303937D01*
X181356784Y-120315001D01*
X176538799Y-120315001D01*
X173483961Y-117260164D01*
X173561100Y-117218932D01*
X173779607Y-117039608D01*
X173958932Y-116821101D01*
X174030000Y-116688142D01*
X174101068Y-116821100D01*
X174280392Y-117039607D01*
X174498899Y-117218932D01*
X174748192Y-117352182D01*
X175018691Y-117434236D01*
X175300000Y-117461943D01*
X175581308Y-117434236D01*
X175851807Y-117352182D01*
X175920606Y-117315408D01*
X176261211Y-117656013D01*
X176285009Y-117685011D01*
X176400734Y-117779984D01*
X176532763Y-117850556D01*
X176676024Y-117894013D01*
X176787677Y-117905010D01*
X176787687Y-117905010D01*
X176825010Y-117908686D01*
X176862333Y-117905010D01*
X181357668Y-117905010D01*
X181394990Y-117908686D01*
X181432312Y-117905010D01*
X181432323Y-117905010D01*
X181543976Y-117894013D01*
X181687237Y-117850556D01*
X181819266Y-117779984D01*
X181934991Y-117685011D01*
X181958794Y-117656007D01*
X182299393Y-117315408D01*
X182368192Y-117352182D01*
X182638691Y-117434236D01*
X182920000Y-117461943D01*
X183201308Y-117434236D01*
X183471807Y-117352182D01*
X183721100Y-117218932D01*
X183939607Y-117039608D01*
X184118932Y-116821101D01*
X184190000Y-116688142D01*
X184261068Y-116821100D01*
X184440392Y-117039607D01*
X184658899Y-117218932D01*
X184908192Y-117352182D01*
X185178691Y-117434236D01*
X185460000Y-117461943D01*
X185741308Y-117434236D01*
X186011807Y-117352182D01*
X186261100Y-117218932D01*
X186479607Y-117039608D01*
X186658932Y-116821101D01*
X186727265Y-116693259D01*
X186877399Y-116922839D01*
X187075105Y-117124500D01*
X187308354Y-117283715D01*
X187568182Y-117394367D01*
X187650961Y-117411904D01*
X187873000Y-117289915D01*
X187873000Y-115747000D01*
X188127000Y-115747000D01*
X188127000Y-117289915D01*
X188349039Y-117411904D01*
X188431818Y-117394367D01*
X188691646Y-117283715D01*
X188924895Y-117124500D01*
X189122601Y-116922839D01*
X189277166Y-116686483D01*
X189382650Y-116424514D01*
X189435000Y-116147000D01*
X189435000Y-115747000D01*
X188127000Y-115747000D01*
X187873000Y-115747000D01*
X187853000Y-115747000D01*
X187853000Y-115493000D01*
X187873000Y-115493000D01*
X187873000Y-115473000D01*
X188127000Y-115473000D01*
X188127000Y-115493000D01*
X189435000Y-115493000D01*
X189435000Y-115093000D01*
X189390102Y-114854990D01*
X191320206Y-114854990D01*
X187435197Y-118740000D01*
%TA.AperFunction,Conductor*%
D32*
G36*
X187435197Y-118740000D02*
G01*
X182703711Y-118740000D01*
X182659774Y-118696063D01*
X182490256Y-118582795D01*
X182301898Y-118504774D01*
X182101939Y-118465000D01*
X181898061Y-118465000D01*
X181698102Y-118504774D01*
X181509744Y-118582795D01*
X181340226Y-118696063D01*
X181196063Y-118840226D01*
X181082795Y-119009744D01*
X181004774Y-119198102D01*
X180965000Y-119398061D01*
X180965000Y-119601939D01*
X181004774Y-119801898D01*
X181082795Y-119990256D01*
X181196063Y-120159774D01*
X181340226Y-120303937D01*
X181356784Y-120315001D01*
X176538799Y-120315001D01*
X173483961Y-117260164D01*
X173561100Y-117218932D01*
X173779607Y-117039608D01*
X173958932Y-116821101D01*
X174030000Y-116688142D01*
X174101068Y-116821100D01*
X174280392Y-117039607D01*
X174498899Y-117218932D01*
X174748192Y-117352182D01*
X175018691Y-117434236D01*
X175300000Y-117461943D01*
X175581308Y-117434236D01*
X175851807Y-117352182D01*
X175920606Y-117315408D01*
X176261211Y-117656013D01*
X176285009Y-117685011D01*
X176400734Y-117779984D01*
X176532763Y-117850556D01*
X176676024Y-117894013D01*
X176787677Y-117905010D01*
X176787687Y-117905010D01*
X176825010Y-117908686D01*
X176862333Y-117905010D01*
X181357668Y-117905010D01*
X181394990Y-117908686D01*
X181432312Y-117905010D01*
X181432323Y-117905010D01*
X181543976Y-117894013D01*
X181687237Y-117850556D01*
X181819266Y-117779984D01*
X181934991Y-117685011D01*
X181958794Y-117656007D01*
X182299393Y-117315408D01*
X182368192Y-117352182D01*
X182638691Y-117434236D01*
X182920000Y-117461943D01*
X183201308Y-117434236D01*
X183471807Y-117352182D01*
X183721100Y-117218932D01*
X183939607Y-117039608D01*
X184118932Y-116821101D01*
X184190000Y-116688142D01*
X184261068Y-116821100D01*
X184440392Y-117039607D01*
X184658899Y-117218932D01*
X184908192Y-117352182D01*
X185178691Y-117434236D01*
X185460000Y-117461943D01*
X185741308Y-117434236D01*
X186011807Y-117352182D01*
X186261100Y-117218932D01*
X186479607Y-117039608D01*
X186658932Y-116821101D01*
X186727265Y-116693259D01*
X186877399Y-116922839D01*
X187075105Y-117124500D01*
X187308354Y-117283715D01*
X187568182Y-117394367D01*
X187650961Y-117411904D01*
X187873000Y-117289915D01*
X187873000Y-115747000D01*
X188127000Y-115747000D01*
X188127000Y-117289915D01*
X188349039Y-117411904D01*
X188431818Y-117394367D01*
X188691646Y-117283715D01*
X188924895Y-117124500D01*
X189122601Y-116922839D01*
X189277166Y-116686483D01*
X189382650Y-116424514D01*
X189435000Y-116147000D01*
X189435000Y-115747000D01*
X188127000Y-115747000D01*
X187873000Y-115747000D01*
X187853000Y-115747000D01*
X187853000Y-115493000D01*
X187873000Y-115493000D01*
X187873000Y-115473000D01*
X188127000Y-115473000D01*
X188127000Y-115493000D01*
X189435000Y-115493000D01*
X189435000Y-115093000D01*
X189390102Y-114854990D01*
X191320206Y-114854990D01*
X187435197Y-118740000D01*
G37*
%TD.AperFunction*%
D31*
X180693748Y-111985858D02*
X180679605Y-112000000D01*
X181492702Y-112813097D01*
X181736671Y-112741514D01*
X181767198Y-112676998D01*
X182872897Y-113782696D01*
X182638692Y-113805764D01*
X182368193Y-113887818D01*
X182118900Y-114021068D01*
X181900393Y-114200392D01*
X181721068Y-114418899D01*
X181650000Y-114551858D01*
X181578932Y-114418899D01*
X181399608Y-114200392D01*
X181181101Y-114021068D01*
X181118941Y-113987843D01*
X181085546Y-113877753D01*
X181065366Y-113839999D01*
X181014974Y-113745723D01*
X180943799Y-113658997D01*
X180920001Y-113629999D01*
X180891004Y-113606202D01*
X180705080Y-113420278D01*
X180850130Y-113398787D01*
X181116292Y-113303603D01*
X181241514Y-113236671D01*
X181313097Y-112992702D01*
X180500000Y-112179605D01*
X180485858Y-112193748D01*
X180306253Y-112014143D01*
X180320395Y-112000000D01*
X180306253Y-111985858D01*
X180485858Y-111806253D01*
X180500000Y-111820395D01*
X180514143Y-111806253D01*
X180693748Y-111985858D01*
%TA.AperFunction,Conductor*%
D32*
G36*
X180693748Y-111985858D02*
G01*
X180679605Y-112000000D01*
X181492702Y-112813097D01*
X181736671Y-112741514D01*
X181767198Y-112676998D01*
X182872897Y-113782696D01*
X182638692Y-113805764D01*
X182368193Y-113887818D01*
X182118900Y-114021068D01*
X181900393Y-114200392D01*
X181721068Y-114418899D01*
X181650000Y-114551858D01*
X181578932Y-114418899D01*
X181399608Y-114200392D01*
X181181101Y-114021068D01*
X181118941Y-113987843D01*
X181085546Y-113877753D01*
X181065366Y-113839999D01*
X181014974Y-113745723D01*
X180943799Y-113658997D01*
X180920001Y-113629999D01*
X180891004Y-113606202D01*
X180705080Y-113420278D01*
X180850130Y-113398787D01*
X181116292Y-113303603D01*
X181241514Y-113236671D01*
X181313097Y-112992702D01*
X180500000Y-112179605D01*
X180485858Y-112193748D01*
X180306253Y-112014143D01*
X180320395Y-112000000D01*
X180306253Y-111985858D01*
X180485858Y-111806253D01*
X180500000Y-111820395D01*
X180514143Y-111806253D01*
X180693748Y-111985858D01*
G37*
%TD.AperFunction*%
D31*
X176082795Y-78490256D02*
X176196063Y-78659774D01*
X176302118Y-78765829D01*
X176207753Y-78794454D01*
X176075724Y-78865026D01*
X175959999Y-78959999D01*
X175936196Y-78989003D01*
X175488998Y-79436201D01*
X175460000Y-79459999D01*
X175365026Y-79575724D01*
X175294454Y-79707753D01*
X175250997Y-79851014D01*
X175240000Y-79962667D01*
X175240000Y-79962678D01*
X175236324Y-80000000D01*
X175240000Y-80037322D01*
X175240000Y-80462678D01*
X175236324Y-80500000D01*
X175240000Y-80537322D01*
X175240000Y-80537332D01*
X175250997Y-80648985D01*
X175290150Y-80778057D01*
X175294454Y-80792246D01*
X175331957Y-80862409D01*
X175248193Y-80887818D01*
X175179394Y-80924592D01*
X174573653Y-80318851D01*
X174616292Y-80303603D01*
X174741514Y-80236671D01*
X174813097Y-79992702D01*
X174000000Y-79179605D01*
X173985858Y-79193748D01*
X173806253Y-79014143D01*
X173820395Y-79000000D01*
X173806253Y-78985858D01*
X173985858Y-78806253D01*
X174000000Y-78820395D01*
X174014143Y-78806253D01*
X174193748Y-78985858D01*
X174179605Y-79000000D01*
X174992702Y-79813097D01*
X175236671Y-79741514D01*
X175357571Y-79486004D01*
X175426300Y-79211816D01*
X175440217Y-78929488D01*
X175398787Y-78649870D01*
X175371512Y-78573600D01*
X175512667Y-78573600D01*
X175549989Y-78577276D01*
X175587311Y-78573600D01*
X175587322Y-78573600D01*
X175698975Y-78562603D01*
X175842236Y-78519146D01*
X175974265Y-78448574D01*
X176042376Y-78392677D01*
X176082795Y-78490256D01*
%TA.AperFunction,Conductor*%
D32*
G36*
X176082795Y-78490256D02*
G01*
X176196063Y-78659774D01*
X176302118Y-78765829D01*
X176207753Y-78794454D01*
X176075724Y-78865026D01*
X175959999Y-78959999D01*
X175936196Y-78989003D01*
X175488998Y-79436201D01*
X175460000Y-79459999D01*
X175365026Y-79575724D01*
X175294454Y-79707753D01*
X175250997Y-79851014D01*
X175240000Y-79962667D01*
X175240000Y-79962678D01*
X175236324Y-80000000D01*
X175240000Y-80037322D01*
X175240000Y-80462678D01*
X175236324Y-80500000D01*
X175240000Y-80537322D01*
X175240000Y-80537332D01*
X175250997Y-80648985D01*
X175290150Y-80778057D01*
X175294454Y-80792246D01*
X175331957Y-80862409D01*
X175248193Y-80887818D01*
X175179394Y-80924592D01*
X174573653Y-80318851D01*
X174616292Y-80303603D01*
X174741514Y-80236671D01*
X174813097Y-79992702D01*
X174000000Y-79179605D01*
X173985858Y-79193748D01*
X173806253Y-79014143D01*
X173820395Y-79000000D01*
X173806253Y-78985858D01*
X173985858Y-78806253D01*
X174000000Y-78820395D01*
X174014143Y-78806253D01*
X174193748Y-78985858D01*
X174179605Y-79000000D01*
X174992702Y-79813097D01*
X175236671Y-79741514D01*
X175357571Y-79486004D01*
X175426300Y-79211816D01*
X175440217Y-78929488D01*
X175398787Y-78649870D01*
X175371512Y-78573600D01*
X175512667Y-78573600D01*
X175549989Y-78577276D01*
X175587311Y-78573600D01*
X175587322Y-78573600D01*
X175698975Y-78562603D01*
X175842236Y-78519146D01*
X175974265Y-78448574D01*
X176042376Y-78392677D01*
X176082795Y-78490256D01*
G37*
%TD.AperFunction*%
D31*
X181007000Y-74873000D02*
X181027000Y-74873000D01*
X181027000Y-75127000D01*
X181007000Y-75127000D01*
X181007000Y-75147000D01*
X180753000Y-75147000D01*
X180753000Y-75127000D01*
X180733000Y-75127000D01*
X180733000Y-74873000D01*
X180753000Y-74873000D01*
X180753000Y-74853000D01*
X181007000Y-74853000D01*
X181007000Y-74873000D01*
%TA.AperFunction,Conductor*%
D32*
G36*
X181007000Y-74873000D02*
G01*
X181027000Y-74873000D01*
X181027000Y-75127000D01*
X181007000Y-75127000D01*
X181007000Y-75147000D01*
X180753000Y-75147000D01*
X180753000Y-75127000D01*
X180733000Y-75127000D01*
X180733000Y-74873000D01*
X180753000Y-74873000D01*
X180753000Y-74853000D01*
X181007000Y-74853000D01*
X181007000Y-74873000D01*
G37*
%TD.AperFunction*%
%TD*%
M02*
