M48
; DRILL file {KiCad (5.1.12-1-10_14)} date 2021 December 12, Sunday 18:07:45
; FORMAT={-:-/ absolute / inch / decimal}
; #@! TF.CreationDate,2021-12-12T18:07:45+01:00
; #@! TF.GenerationSoftware,Kicad,Pcbnew,(5.1.12-1-10_14)
; #@! TF.FileFunction,Plated,1,2,PTH
FMAT,2
INCH
T1C0.0157
T2C0.0295
T3C0.0315
T4C0.0354
T5C0.0394
T6C0.0400
T7C0.0472
T8C0.0709
T9C0.0827
%
G90
G05
T1
X6.7323Y-2.2244
X6.8007Y-5.2072
X6.8701Y-5.2362
X6.9291Y-5.1181
X6.9685Y-3.0709
X6.9882Y-3.1693
X6.9882Y-3.3661
X7.0079Y-5.374
X7.0211Y-5.7022
X7.0276Y-4.1142
X7.0866Y-3.4055
X7.1348Y-2.5827
X7.1368Y-5.1663
X7.1457Y-5.8661
X7.1654Y-4.7047
X7.2638Y-3.4055
X7.2835Y-3.3661
X7.2835Y-4.1142
X7.2835Y-6.063
X7.3819Y-5.7087
X7.4213Y-3.0512
X7.4213Y-3.3465
X7.4606Y-3.4055
X7.5394Y-4.8425
X7.5738Y-4.5226
T2
X7.7165Y-4.7244
X7.7665Y-4.7244
X7.8165Y-4.7244
T3
X6.2795Y-1.2205
X6.2795Y-1.437
X6.2795Y-1.6535
X6.2795Y-1.8701
X6.2795Y-2.0866
X6.2795Y-2.3031
X6.2795Y-2.5
X6.2795Y-2.7165
X6.2795Y-3.1496
X6.2795Y-3.7205
X6.2795Y-3.9567
X6.2864Y-2.9331
X6.2945Y-4.7835
X6.2992Y-5.0787
X6.2992Y-5.374
X6.3189Y-6.063
X6.3976Y-3.4252
X6.4764Y-3.4252
X6.5795Y-1.2205
X6.5795Y-1.437
X6.5795Y-1.6535
X6.5795Y-1.8701
X6.5795Y-2.0866
X6.5795Y-2.3031
X6.5795Y-2.5
X6.5795Y-2.7165
X6.5795Y-3.1496
X6.5795Y-3.7205
X6.5795Y-3.9567
X6.5864Y-2.9331
X6.5945Y-4.7835
X6.5992Y-5.0787
X6.5992Y-5.374
X6.6189Y-6.063
X6.8016Y-4.252
X6.8016Y-4.552
X6.8213Y-2.9528
X6.8213Y-3.2528
X6.8504Y-3.1102
X6.9016Y-4.252
X6.9016Y-4.552
X6.9213Y-2.9528
X6.9213Y-3.2528
X6.9291Y-5.5709
X6.9291Y-5.6709
X6.9291Y-5.7709
X6.9291Y-5.8709
X6.9866Y-2.0276
X7.0016Y-4.252
X7.0016Y-4.552
X7.0079Y-1.6732
X7.0213Y-2.9528
X7.0213Y-3.2528
X7.0472Y-3.1102
X7.0866Y-2.0276
X7.0866Y-5.4528
X7.0866Y-5.6496
X7.0866Y-5.7677
X7.0866Y-5.9646
X7.1016Y-4.252
X7.1016Y-4.552
X7.1063Y-4.4094
X7.1079Y-1.6732
X7.1213Y-2.9528
X7.1213Y-3.2528
X7.1654Y-3.1102
X7.1866Y-2.0276
X7.2016Y-4.252
X7.2016Y-4.552
X7.2079Y-1.6732
X7.2213Y-2.9528
X7.2213Y-3.2528
X7.2291Y-5.5709
X7.2291Y-5.6709
X7.2291Y-5.7709
X7.2291Y-5.8709
X7.3016Y-4.252
X7.3016Y-4.552
X7.3031Y-4.4094
X7.3213Y-2.9528
X7.3213Y-3.2528
X7.3622Y-3.1102
X7.4016Y-4.252
X7.4016Y-4.552
X7.4213Y-2.9528
X7.4213Y-3.2528
X7.4606Y-1.5551
X7.4606Y-1.8504
X7.5394Y-1.5551
X7.5394Y-1.8504
X7.6181Y-2.5
X7.6181Y-2.6969
X7.6181Y-2.9134
X7.6181Y-3.1299
X7.6181Y-3.3465
X7.6181Y-3.563
X7.6181Y-3.7598
X7.6181Y-3.9764
X7.6181Y-4.1929
X7.6181Y-4.4291
X7.6181Y-4.9803
X7.6181Y-5.2362
X7.6724Y-0.9646
X7.6724Y-1.122
X7.6772Y-2.3031
X7.9181Y-2.5
X7.9181Y-2.6969
X7.9181Y-2.9134
X7.9181Y-3.1299
X7.9181Y-3.3465
X7.9181Y-3.563
X7.9181Y-3.7598
X7.9181Y-3.9764
X7.9181Y-4.1929
X7.9181Y-4.4291
X7.9181Y-4.9803
X7.9181Y-5.2362
X7.9724Y-0.9646
X7.9724Y-1.122
X7.9772Y-2.3031
T4
X6.4157Y-4.3898
X6.4157Y-5.7283
X6.5157Y-4.3898
X6.5157Y-5.7283
T5
X6.9882Y-1.3976
X6.9882Y-2.6772
X6.9882Y-3.9567
X6.9882Y-5.2953
X6.9882Y-6.6535
X7.0866Y-1.3976
X7.0866Y-2.6772
X7.0866Y-3.9567
X7.0866Y-5.2953
X7.0866Y-6.6535
X7.185Y-1.3976
X7.185Y-2.6772
X7.185Y-3.9567
X7.185Y-5.2953
X7.185Y-6.6535
T6
X7.7756Y-1.5157
X7.7756Y-1.6157
X7.7756Y-1.7157
X7.7756Y-1.8157
X7.7756Y-1.9157
X7.8756Y-1.5157
X7.8756Y-1.6157
X7.8756Y-1.7157
X7.8756Y-1.8157
X7.8756Y-1.9157
T7
X6.3583Y-6.4961
X6.4583Y-6.4961
X7.7559Y-6.4961
X7.8559Y-6.4961
T8
X6.8976Y-1.1024
X6.8976Y-2.3819
X6.8976Y-3.6614
X6.8976Y-5.0
X6.8976Y-6.3583
X7.2756Y-1.1024
X7.2756Y-2.3819
X7.2756Y-3.6614
X7.2756Y-5.0
X7.2756Y-6.3583
T9
X7.6411Y-5.5236
X7.6411Y-5.7087
X7.6411Y-5.8937
X7.8313Y-5.5236
X7.8313Y-5.7087
X7.8313Y-5.8937
T0
M30
